<svg xmlns="http://www.w3.org/2000/svg" xmlns:xlink="http://www.w3.org/1999/xlink" fill="none" viewBox="0 0 994 994">
  <defs>
    <path id="b" fill="#fff" d="M0 0h994v994H0z"/>
  </defs>
  <g clip-path="url(#a)">
    <use xlink:href="#b"/>
    <path fill="#000" fill-rule="evenodd" d="M471.6 175.8a565 565 0 0 0-40.5 6.7c-25.2 5-30.8 5.6-62.1 6.5-23.4.7-35.6 1.6-38 3-1.8 1-4 3.6-4.8 5.6-1 2.5-1 5.8 0 9.5a49.6 49.6 0 0 0 15.6 21.6c2.2 1.4 4 3.2 4 4 0 .8-8.7 7-19.2 14a536.7 536.7 0 0 0-34 24.5c-8.3 6.6-17.6 15-20.7 18.5-3.1 3.7-6.4 9-7.3 12-1.3 4.5-1.1 6.4.8 10.1 1.3 2.6 6.3 7.2 11 10.4a33 33 0 0 1 14 16.3 183 183 0 0 1 9.5 25.5c2.3 8.2 5.8 21.4 7.7 29.2 1.9 7.9 3.3 14.4 3.1 14.6-.2.2-4.3-.7-9.2-2-5-1.3-13-2.4-18-2.5-6.7 0-11.2 1-18.3 4.2-6.7 3-12 6.9-18.2 13.6a57.8 57.8 0 0 0-12.2 18.2 75 75 0 0 0-4 24.5c-.5 11.7 0 18.2 1.8 25.5 1.4 5.3 5 14.1 8 19.5 3 5.7 10.4 14.8 17.4 21.9a84.5 84.5 0 0 0 21.8 16.9 87 87 0 0 0 19.3 6.3 50.9 50.9 0 0 0 33.3-5.6c4-2.2 10-6.5 13.4-9.5l6-5.6 8.2 14a125 125 0 0 1 8.2 15.3c0 .8 3.8 6.7 8.4 13.1 7 9.6 8 12 6.3 13.4-1.1.9-4 4.1-6.4 7.3-3.2 4.3-4.5 8-5.2 14.9l-.8 9.2-14.3 5.4a226.5 226.5 0 0 0-45.6 23 436.8 436.8 0 0 0-60 50.8 640 640 0 0 0-32.4 37.3 2071 2071 0 0 0-34.8 45.5 152 152 0 0 0-17.4 27.1c0 1.8.8 4.1 1.7 5 1.4 1.4-.2 6-6.6 19.5a322.4 322.4 0 0 0-12.9 32.1c-2.5 8-6 21.3-7.7 29.7a327.7 327.7 0 0 0-3.6 92.8c.6 4.7 1.5 6.4 3.4 6.4 2.3 0 2.5-3.3 2.5-37.9 0-30.5.5-40.8 2.8-52.9 1.5-8.2 4.4-20.7 6.4-27.8a300 300 0 0 1 19.4-47.7l2.2-3.4 9 9a163.5 163.5 0 0 0 43.5 31.5l11.7 5.8c.4.3-1 3.7-3.2 7.6a68.3 68.3 0 0 0-8.7 31.1c0 4.3 1.6 14.1 3.6 21.9 2 7.7 7.3 24.8 11.6 38l8 24 4.9.5c2.7.3 4.9.3 4.9 0l-8.3-25.3c-4.6-13.6-10-31-12-38.7-2-7.7-3.7-17.4-3.7-21.4a55.7 55.7 0 0 1 9.2-29c3.6-5.7 3.7-5.7 14-6l10.4-.1 8.3-15.3c4.5-8.4 9-16 9.9-17 1.1-1 3.4 7.3 7.8 28.9 3.4 16.7 8 39.9 10 51.4 2.2 11.6 4.3 25.8 4.7 31.5.6 7.5.2 12.4-1.4 16.8a91.8 91.8 0 0 1-7.7 14.7 80 80 0 0 0-5.3 9c0 .5 2.6.8 5.7.8 5.4 0 6-.5 11.2-9.3a69.3 69.3 0 0 0 7.2-17.1c1.4-6 1.4-11.1 0-21.8a1516 1516 0 0 0-18.7-97.4l-5.1-21.7 4.6-8.3a278 278 0 0 1 12.7-19.9 69.5 69.5 0 0 1 10.6-12.9c1.4-.7 7.4-2.5 13.3-3.9a38 38 0 0 0 12.5-4.6c1-1.1 1.2-2.9.6-3.8-.7-1.2-3.9-1.5-9.9-.9l-8.8 1 6.8-10a45 45 0 0 0 6.7-12.6c0-1.5-.5-3-1.2-3.5s-2.4 0-3.7 1c-1.3 1-9.1 11-17.4 22.1a877.7 877.7 0 0 0-37.1 57.4c-8 13.2-13 21.7-16.6 27.2-6 9.2-7.4 9.9-10.2 9.9-2.5 0-8.5-1-13.4-2.3a119.4 119.4 0 0 1-40.4-21 204.2 204.2 0 0 1-16.7-14.4l-2.6-2.9-.4-.4a124.5 124.5 0 0 1-7.1-9 32.8 32.8 0 0 1-4-7l.5-.8a795.6 795.6 0 0 1 20-28.5 1712.6 1712.6 0 0 1 29.3-38.1 567.9 567.9 0 0 1 73.4-73.8 268.5 268.5 0 0 1 27.7-19c6.4-3.6 17.6-8.8 24.8-11.7 7.2-2.8 14-5.2 15.2-5.2 1.4 0 2.5 2.6 3.2 8l.2 1.6a41 41 0 0 0 3.6 11.2 26.5 26.5 0 0 1 3 14c.2 4.7 1.4 7.7 5 13a73.7 73.7 0 0 1 7.6 15.1 46.3 46.3 0 0 0 8.3 14.2c3.3 3.7 6 7.5 6 8.4 0 1 1.3 4.4 3 7.8 1.7 3.3 6 8.8 9.5 12.3a71.2 71.2 0 0 1 11.5 15 37 37 0 0 0 9 9.4c3.2 2.2 7.6 6.3 9.8 9.2a49.7 49.7 0 0 0 14.6 11.7 18 18 0 0 0 5.8 2.2c1.5 0 6.3 2.4 10.6 5.2a35.7 35.7 0 0 0 15.3 6.2A54.4 54.4 0 0 1 505 800a46 46 0 0 0 15 3.3c4.3.1 10.4-.5 13.7-1.5l13.2-3.3c4-1 9.8-3.5 13-5.6a37.5 37.5 0 0 0 9.3-9.4 48 48 0 0 1 8.5-9.9 59 59 0 0 0 9.4-11.1 31 31 0 0 0 4.3-8.8c0-1 2-4.6 4.4-8a50 50 0 0 0 6-13.1 51.1 51.1 0 0 0 1.4-13v-3.8c.2-3 .5-6.3 1-8.6.6-3.6 1.5-6.4 2-6.4a33 33 0 0 1 7.2 6.4c3.4 3.5 12.2 13.5 19.4 22.2l27.6 33A1530.3 1530.3 0 0 1 692 802c5.9 8 10.3 14.6 10.3 15.9 0 .7-1 2.3-2.5 4.2-1.6 2-3.7 4.4-6.2 6.7a154.1 154.1 0 0 1-15.3 12.7 161.2 161.2 0 0 1-32.2 16.3c-5 1.8-11.4 3.8-14.3 4.3l-5.3 1-1.7-17.8c-1-9.8-3.4-24.5-5.4-32.7a584 584 0 0 1-7-32.7 146 146 0 0 0-4.6-20.6c-.9-1.6-2.5-2.8-3.6-2.8-1.2 0-2.6.7-3 1.5-.6.9.7 10.9 3 22.2a2097 2097 0 0 0 7.5 37.2 320 320 0 0 1 5.1 34.6 227 227 0 0 1-3.6 62.8l-.8 4.4a286 286 0 0 1-7.7 28.5c-2.5 7.5-8.2 21.2-12.6 30.5l-8 16.9h5c3.6 0 5.2-.9 6.4-3.5 1.2-2.6 4.8-4.6 13.4-7.7 6.4-2.2 16-6.4 21.3-9.1 5.3-2.8 10.2-4.8 10.9-4.3.7.4 1.2 6.1 1.2 12.7 0 11.7.1 11.9 3.8 11.9h3.7v-15.8c0-8.7-.7-22.4-1.6-30.4-.8-8-3-20.6-4.6-28-1.9-8-6-19-10.4-27.9-4-8-7.3-16-7.3-17.5 0-2.3 2.4-3.6 12.2-6.4 6.7-2 17.3-6 23.6-9.1 6.2-3 16-8.7 21.6-12.6a64 64 0 0 1 10.7-6.6 764.7 764.7 0 0 1 19.4 64.8 751.6 751.6 0 0 1 15.3 85.4c.6 3.1 1.6 4.1 4.4 4.1 2 0 3.6-.5 3.6-1.2a686.2 686.2 0 0 0-9-58.8 704 704 0 0 0-10.8-44.3 170.5 170.5 0 0 1-6.4-30c0-4.1 2.3-20 5-35.3 2.8-15.7 7.5-35.3 10.7-45.2 3.2-9.5 8.6-23 12-30a118 118 0 0 1 20.7-31.9 98 98 0 0 1 12-10.2 60 60 0 0 1 34.8-10.4c6 .1 15.2.8 20.1 1.6 5 .9 13.3 1.6 18.5 1.6 5.2 0 11.2-1 13.4-2.1a33.5 33.5 0 0 0 14.7-16.7 43 43 0 0 0 .7-26.9c-1-3.2-4.7-8.8-8-12.3a68.1 68.1 0 0 0-13.6-11c-4.2-2.3-12.7-5.9-19-7.8-9.3-3-14.3-3.5-30.6-3.5-13.9 0-22.3.9-29.2 2.7a179.4 179.4 0 0 0-50 25.2 132.6 132.6 0 0 0-18.3 17.6 142.5 142.5 0 0 0-13.9 21.1c-3.2 6.3-7.6 16.8-9.7 23.4-2.1 6.6-4.9 17.8-6.1 24.8l-3.5 20.1-1.2 7.5-16.5-19.5a4584 4584 0 0 1-25.3-29.9 300 300 0 0 0-17.3-18.7 63.3 63.3 0 0 1-10.8-13.5 88.1 88.1 0 0 1-4.2-11.8 35 35 0 0 0-7.8-13.1c-3.3-3.6-5.7-7.5-5.3-8.5.4-1 5.7-3.5 11.8-5.4a257.9 257.9 0 0 0 50.7-24.2 158.8 158.8 0 0 0 37.9-34.7 130.3 130.3 0 0 0 22.5-47.1c1.3-5.8 2.8-16.6 3.4-24 .6-8.4.3-18.1-.8-25.5-1-6.5-4-18.3-6.8-26.2a353 353 0 0 0-8-21l-3-6.7 7.8-4.6c4.6-2.8 9.6-7.5 12.5-11.7a53 53 0 0 0 6.4-15.2 32 32 0 0 0 0-15.1c-.8-4-3.6-10.1-6-13.7-4.2-6-4.3-6.5-1.6-7.4 1.6-.5 3.3-1.9 3.7-3.1.5-1.3-.1-2.7-1.4-3.2-1.3-.5-7.6.6-14 2.3-6.5 1.8-12 3.2-12.5 3.2-.4 0-1-10.3-1.5-22.9a118 118 0 0 0-4.6-35.6c-2-7-6-17.5-8.5-23.3-2.6-5.7-9-17-14.4-25.1-5.4-8-15.3-20.2-22-27a213.3 213.3 0 0 0-22-19.3c-5.4-3.8-14.5-9.3-20.2-12.2a250 250 0 0 0-27-10.7c-9-3-22.2-6.7-29.2-8.3a201.3 201.3 0 0 0-42-5.2c-5.3-.3-15.4 0-22.4.7Zm59.1 10.4a220 220 0 0 1 52 17.3c6 3 15.7 8.7 21.4 12.5a182.3 182.3 0 0 1 43.4 44c8 12 8.7 13.5 7 16.6-1 2-5.3 5.8-9.6 8.6a96.2 96.2 0 0 1-17.5 8.4 180.4 180.4 0 0 1-44.8 8c-4.6 0-14.5-.6-22-1.4-7.3-.9-22.8-3.3-34.4-5.5a125 125 0 0 0-36.7-3c-8.6.5-20.4 2.2-26.2 3.8-5.7 1.7-14.5 4.8-19.4 7a197.6 197.6 0 0 0-48.4 34 173 173 0 0 0-18 21.4c-3.8 5.7-8.5 15.1-10.4 21-2 5.8-4.2 15.7-5.1 22a50 50 0 0 0 .6 21.7 173 173 0 0 0 4.4 16c1.2 3.2 4.1 7.8 6.6 10.3a76 76 0 0 0 10.7 9.1 106.2 106.2 0 0 0 32.6 15.3l17.8 4a27 27 0 0 1 15.3 7.8c4.2 3.9 7.5 8.8 9.5 14.1a54 54 0 0 1 3 17.6 132 132 0 0 1-4.6 27.3 78.2 78.2 0 0 0-4 28c.6 6.9 2.1 12.8 5 18.6a84.9 84.9 0 0 0 32.6 32.8c5.7 3.2 15.1 7.3 21 9.1a174 174 0 0 0 55 6.5c13-.5 14.4-.4 10 1.2a174.5 174.5 0 0 1-50.6 6.6c-9.6 0-23.3-1-30.3-2.3a174.8 174.8 0 0 1-48.2-15.8c-6.5-3.3-16.4-9.5-21.9-13.6a249.6 249.6 0 0 1-48.4-52c-5.4-8.2-9.9-15.6-9.9-16.5a60 60 0 0 0-5.4-11.1l-5.4-9.6 2.5-6.7a78.6 78.6 0 0 0 3.3-17.3c.6-7.3 0-13.6-1.7-21a147.2 147.2 0 0 0-33.5-60.7 33.3 33.3 0 0 1-7.7-10.8 642.4 642.4 0 0 0-15.7-59.3c-3-8.6-7.4-18.7-9.9-22.4-2.8-4-7.7-8.5-12.6-11.2a52.4 52.4 0 0 1-9.8-6.7c-1-1.3-1.4-3.8-.8-6.3a42 42 0 0 1 9.6-12.4c4.6-4.6 14-12.5 20.7-17.6a643 643 0 0 1 31.4-21.9 228.6 228.6 0 0 0 21.3-15c1.2-1.4 1.7-4 1.2-6-.5-1.8-3.9-5.5-7.5-8a42.7 42.7 0 0 1-10.4-11.3c-2.1-3.6-4-7.8-4.3-9.5-.5-2.9.6-3 33.2-4a236 236 0 0 0 65.2-7.7 1900 1900 0 0 1 36-7.6 268 268 0 0 1 26.1-.1c14.2.4 27 1.7 36.7 3.7Zm134.5 104.6a155.6 155.6 0 0 1 10.1 33.4 183.4 183.4 0 0 1 1 41.6 135.6 135.6 0 0 1-28.3 4.9c-5 0-5.7-.4-5.7-3.5 0-2-1-4.4-2.2-5.5-1.8-1.5-2.7-1.5-4.5 0-1.3 1.1-2.3 4.4-2.3 7.7 0 4.9.7 6.2 3.8 7.6 2.6 1.2 3.6 2.5 3 4.1a41.1 41.1 0 0 0 7.6 38.9c3 3.5 8.7 8 12.6 10 3.9 2 10.5 4 14.7 4.6l7.5 1 5.2 13.7a180 180 0 0 1 13 45.7 79.4 79.4 0 0 1 .1 25c-.9 7.1-3.5 18.2-5.8 24.7s-7 16.6-10.6 22.6a127.2 127.2 0 0 1-36 37.9A168.3 168.3 0 0 1 628 618c-5 2.5-13.4 5.9-19 7.6a176.8 176.8 0 0 1-84.7 1.8c-6.8-1.7-17-5.4-22.8-8.3a84.2 84.2 0 0 1-33.7-30.9 41.4 41.4 0 0 1-5-17c-.5-7.1.4-13.3 4.2-27.9a80 80 0 0 0 4-31 46.8 46.8 0 0 0-4.7-20.2 61.7 61.7 0 0 0-7.9-12.1 36 36 0 0 0-8.5-6.3c-2.6-1.3-10.8-3.6-18.2-5.2-7.4-1.6-17.2-4.4-21.9-6.1a105 105 0 0 1-18.7-10.5 71 71 0 0 1-14.4-13 58.7 58.7 0 0 1-8-34.5c.5-5.1 2-12.7 3.2-16.8a125.1 125.1 0 0 1 28-44.8 182 182 0 0 1 22.6-19.8c6-4 14.8-9.4 19.8-12 4.9-2.4 13.7-6 19.4-7.8 7-2.2 16-3.5 27-4 14-.7 19.6-.2 38.2 3.4 19 3.7 25.2 4.3 49.4 4.3 22.2 0 30-.5 39-2.8 6.1-1.5 16.6-5.3 23.2-8.4a99 99 0 0 0 21.9-13.5c.5 0 2.6 3.9 4.7 8.6Zm39 84.3c3 3.4 5.8 8.3 6.4 11.4.5 3 .7 8.7.3 12.8-.4 4.3-2.2 9.6-4.3 12.7-2 3-6.5 7.3-10 9.6a38.4 38.4 0 0 1-13 5.3c-3.7.6-9.2.3-12.3-.5-3.2-.9-8-3-10.6-4.6a34.8 34.8 0 0 1-14.7-22c-.6-3.6-.6-8.8 0-11.5a23 23 0 0 1 2.8-7.7c1.4-2 5.3-3 14.6-4a199.4 199.4 0 0 0 34.6-7.2c.5-.1 3.3 2.5 6.2 5.7Zm-206.8-.4c-1 .4-1.9 1.7-1.9 2.8 0 1.1-1 3-2.3 4.4-1.6 1.6-5.2 2.3-10.9 2.4-4.7 0-19.5-1.2-33-2.5-20.2-2.1-24.6-2.2-25.7-.6a5 5 0 0 0-.5 3.9c.4 1 2 2.2 3.7 2.6 2.8.8 2.8 1-.4 7.2a45 45 0 0 0-2.9 29.4c1 3.5 3.9 9.2 6.6 12.7 2.7 3.6 8 8.4 11.9 10.8 5 3.1 9.5 4.5 16.5 5a41 41 0 0 0 29.6-8.4 47 47 0 0 0 9.5-12 48.4 48.4 0 0 0 5-15.6c.5-5.6-.1-10.3-2.3-16.7-3-8.9-3-8.9 0-12.9 1.8-2.4 2.8-5.7 2.5-8.3-.3-2.3-1.2-4.3-2-4.6a7 7 0 0 0-3.4.4Zm-35.6 17c7.4.9 16.7 1.5 20.6 1.5 6.4 0 7.3.5 9.7 5a32 32 0 0 1 2.6 14.6c0 8-.7 11-4.1 16.9-2.3 4-7 9-10.4 11.2-5.4 3.6-7.7 4.1-17.6 4.1-10 0-12.3-.5-17.7-4.1a44 44 0 0 1-10.4-10.4c-3.5-5.4-4.1-7.8-4.1-16.9 0-8.9.6-11.8 4.1-17.6 3.8-6.5 4.5-7 9-6.4l18.3 2.1Zm-155.2 23.5a88 88 0 0 1 34.3 35.9 224 224 0 0 1 10.2 24 70.4 70.4 0 0 1 2.4 39.2c-1 3.4-4.8 9.5-8.4 13.6a70 70 0 0 1-16 12.4c-7.5 4-11.7 5.1-20.4 5.7-10.4.7-11.7.4-22.6-5a77.3 77.3 0 0 1-22.9-17.1 85.9 85.9 0 0 1-23.9-41.7 97 97 0 0 1-1-20.6 76 76 0 0 1 4.1-21c2.4-6.4 6-11.6 11.8-17.5 5.1-5 11-9.3 15.1-10.8 4.8-1.8 10-2.3 17.8-1.9 8 .5 13.3 1.8 19.5 4.8Zm293.3 6c-7.8 4.9-9.4 5.3-15.7 4.5l-15.6-2c-5.5-.5-10.2-.2-13.1 1a22 22 0 0 0-7.6 5.7c-1.6 2-3 5.7-3 8.1 0 2.4 1 6.4 2.3 8.8 1.3 2.5 4.8 5.7 8 7.3 3 1.6 10.8 3.7 17.3 4.7a69 69 0 0 0 16.2.9c3.6-.7 4.5-.3 5.7 2.8a397.8 397.8 0 0 1 7.5 36.6c0 .6-2.9 1.8-6.4 2.8a40 40 0 0 0-12.8 7.3c-3.6 3-8 8-10 11-1.9 3-4.6 8.9-6 13a62 62 0 0 0-2.4 18.5c0 9 .8 12.7 4 19.3a29 29 0 0 0 10.8 12.5c4.8 3 8.8 4.3 13 4.3 3.3 0 8.8-1.3 12-2.8a50 50 0 0 0 13.1-10.5c4-4.4 8.4-11.5 10.2-16.4 2.3-6 3.3-12 3.3-20.1 0-9.6-.7-13-4-20-2.9-5.8-6-9.6-10.4-12.4a45.6 45.6 0 0 1-7.1-5.4c-.6-.7-1.4-4.8-2-9-.5-4.2-2.4-13.4-4.2-20.3-2-8-2.6-12.9-1.6-13.2.8-.3 5.2-2.7 9.6-5.4 4.4-2.6 9.6-7 11.4-9.9a20 20 0 0 0 3.5-11.5c0-4.7-1-7.6-4-11-2.8-3.4-5-4.6-8.6-4.6-2.9 0-8.2 2-13.4 5.4Zm17 3.6c1.6 1.6 3 4.2 3 5.7 0 1.6-1.6 5-3.4 7.8a42 42 0 0 1-11.6 9.6c-7.7 4.3-9.2 4.6-23.2 4.5-10.5 0-16.7-.8-20.5-2.5-3-1.3-6.6-4-8-6-1.7-2.8-2-4.7-1-7.5.9-2 3.6-4.5 6.2-5.6 3.6-1.5 6.5-1.6 13-.2a91 91 0 0 0 14.6 1.7c4.1 0 9.4-1.8 15.9-5.2a89.1 89.1 0 0 1 10.8-5.3c.7 0 2.5 1.3 4.2 3Zm-352.8 33c-.5.8-.6 2-.1 2.8.4.7 4.2 1.7 8.4 2.1 4.2.6 11.1 2.6 15.4 4.5 4.3 2 12.5 8 18.2 13.4l10.5 9.8-5.2 2.2a34.5 34.5 0 0 0-10.2 7.9c-3.4 3.8-4.8 6.8-4.5 9.4.2 2.2 1.2 4.2 2.1 4.5 1 .3 2.5-1.4 3.4-3.7 1-2.3 4-5.7 6.8-7.6 4.2-2.9 6.7-3.4 14.1-3 5 .2 9.5 0 10-.5.5-.6-2.4-5-6.4-9.8a265.6 265.6 0 0 0-16.5-17.4 80.9 80.9 0 0 0-17-12.4c-6-2.8-10.6-3.7-18-3.7-5.6 0-10.5.6-11 1.5Zm321.3 102.7c2.9 2 8 5.9 11.2 8.8 5 4.5 5.7 5.7 3.8 7a14 14 0 0 1-6.5 1.5c-2.3 0-6-1-8.4-2.2a22.1 22.1 0 0 1-7.2-7.1 39.6 39.6 0 0 1-4-9.2c-1-3.9-.7-4.1 2.4-3.2 2 .5 5.8 2.5 8.7 4.4ZM389 597a54 54 0 0 0-5.5 8.9c-1.7 3.4-4.1 6.6-5.4 7-1.6.7-2.3 0-2.3-2.2a25.3 25.3 0 0 1 8.7-16.4c2.5-2 4.3-2.5 5.3-1.5s.7 2.4-.8 4.2Zm8.4 5.8c.5 1.3.5 4 0 6s-1.8 3.6-3 3.6c-1 0-3-.4-4.3-.9-1.3-.5-2.3-1.4-2.3-2 0-.6 1.4-3 3-5.1 1.8-2.2 3.7-4 4.4-4 .7 0 1.7 1.1 2.2 2.4Zm7 15.2a43.9 43.9 0 0 1-8.4 10.8c-3.3 2.9-6.8 4.6-8.6 4.4-1.7-.3-3.3-1.2-3.6-2-.2-.8 2.4-2.9 6-4.5 4.9-2.4 7-4.7 10-10.8 3-6.6 4-7.5 5.7-5.9 1.7 1.7 1.5 3-1 8Zm-12.9.4c.5.9 0 1.8-1 2.2l-6.1 1.5a7.9 7.9 0 0 0-5.8 5c-1 2.7-1.1 6.2-.2 10.5 1 4.6 1 7-.4 8.9-1.7 2.3-2 2.2-3.5-.7a29.7 29.7 0 0 1 .6-21.4 17 17 0 0 1 4.8-5.8 15 15 0 0 1 6.7-1.6c2.2 0 4.4.6 5 1.4Zm35.7 8.1c6.8 4.5 15 9.4 18.3 11a199.5 199.5 0 0 0 37.5 13.2 435.6 435.6 0 0 0 45.1 5.2c1.3 0 1.4 1.5.3 5.3a75.3 75.3 0 0 0-1 16.9c.3 9 1 11.6 2.7 11.6 1.2 0 2.3-1 2.5-2.2l2-13.2c1-6 2.3-10.8 3-10.8.6 0 2 3 3 6.7s1.5 9.9 1 13.6a18 18 0 0 1-5.6 12 47.6 47.6 0 0 1-12.5 8.4c-6 2.6-10.5 3.4-20.4 3.4-9.5.1-15.2-.7-22.7-3.3-5.4-2-14-6-19-9s-14.4-10-20.7-15.3a181.8 181.8 0 0 1-21-21.8c-5.5-6.9-9.5-13.4-9.5-15.4s-.7-6.5-1.6-10.2c-1.4-5.6-1.3-7.2.8-10.4 1.3-2 3.1-3.8 4-3.8.9 0 7.1 3.7 13.8 8.1Zm399.8 3.3c5.3 1.3 14.3 5 20 8a50 50 0 0 1 15.2 11.9 31 31 0 0 1 5.8 13.2c.6 4 .3 9.3-.7 12.7-1 3.3-3.8 8.2-6.3 11a27 27 0 0 1-9.6 6.9c-4 1.3-8.6 1.1-21.2-.8a162 162 0 0 0-29.8-2c-12.3.6-15 1.3-25 6.2a82.2 82.2 0 0 0-19.6 13.8 137 137 0 0 0-17.4 23.6c-5 8.4-11.9 22.4-15.3 31.1-3.4 8.7-7.6 22.4-9.3 30.5-1.8 8-3.6 14.4-4.2 14.2a365 365 0 0 1-16.8-20.2c-13.3-16.5-16-20.7-16-25a253 253 0 0 1 11-55.3c2.9-8 7.4-18.3 10.2-23 2.8-4.6 8.1-12 11.8-16.3 3.8-4.4 10.4-11.1 15-14.9 4.4-3.8 13.8-9.9 20.9-13.5 7-3.6 15.9-7.7 19.7-9.1a108 108 0 0 1 61.6-3ZM403.2 639a33 33 0 0 1-.6 11.3c-.9 3-3 7-4.8 8.6-1.8 1.6-4 3-5.2 3-1 0-2-1.4-2-3 0-1.7 1-3 2.3-3 1.2 0 3-1.5 3.9-3.3 1-1.8 1.7-6.3 1.6-10 0-3.7.2-7.3.7-8 .4-.7 1.3-1.3 2-1.3.6 0 1.6 2.6 2 5.7Zm-9.5 6.9c0 1-1.7 2.7-3.7 3.7-2 .9-4.2 3.4-4.7 5.5-.5 2-.2 6.8.7 10.4 1 4 1.1 8 .4 10-1.3 3.5-1.3 3.5-3.8-1.2a31.2 31.2 0 0 1-.5-23c1-2 3.6-4.5 5.6-5.5 2-1 4.2-2 4.8-2 .7 0 1.2 1 1.2 2Zm183.6 6.2c1.4 2.1 2.6 6.6 2.7 10 0 4.8-.7 6.7-3.6 9-3.4 2.9-3.8 2.9-4.2.5-.3-1.4.2-3.3 1-4.2 1-.9 1.7-3.7 1.7-6.3 0-2.6-1-6-2.2-7.6a12.2 12.2 0 0 1-2.2-4c0-.6 1-1.1 2.1-1.1 1.3 0 3.4 1.7 4.7 3.7Zm-13.6.8c-.5.8-2.4 1.4-4.2 1.4-2.7 0-2.9-.3-1-1.4a9.7 9.7 0 0 1 4.2-1.5c1 0 1.5.6 1 1.5Zm-11.4 5.4c1.8 2.2 3.2 5.2 3.2 6.8 0 1.5-.7 2.8-1.4 2.8s-3.4-2.4-6-5.3c-2.5-3-4.6-6-4.6-6.8 0-.8 1.3-1.4 2.9-1.4 1.5 0 4.2 1.7 6 4ZM411 666.6c.6 4.2.3 9.3-.7 12.5-1 2.9-3 6-4.6 6.8-1.5.8-3.1 1.5-3.6 1.5s-.8-1.2-.8-2.7c0-1.4 1.3-3.5 3-4.5 2.1-1.3 3-3.4 2.8-7.5 0-3-.6-7-1.3-8.6a8 8 0 0 1 .3-5.8c1.2-2.2 1.7-2.4 2.7-.8.7 1 1.7 5.2 2.2 9.1Zm158.5-8.3c.5.5 0 2.4-1.3 4a15 15 0 0 0-2 7.8c0 2.5.6 5.9 1.2 7.5.7 1.7.5 4.6-.4 6.5l-1.5 3.4-2-3.4a31.5 31.5 0 0 1 .3-22.3c1.3-2.5 2.9-4.4 3.5-4.4.7 0 1.7.4 2.2.9Zm22.7 23.6c0 9.4-.3 10.5-4.2 13.8-2.3 2-4.8 3.7-5.6 3.7-.7 0-1.4-1.3-1.4-2.9 0-1.5 1.7-3.9 3.8-5.2 2.6-1.8 3.7-3.8 3.7-7.2a46 46 0 0 0-1.7-10.3 17 17 0 0 1-.6-8.5c1-2.3 1.3-2.1 3.5 1.8 1.6 2.9 2.5 8.2 2.5 14.8Zm-147.5 10.5a168 168 0 0 0 25.7 15.5c5.4 2.3 12 4.6 16.2 5.6A94.7 94.7 0 0 0 504 716a67.6 67.6 0 0 0 32.2-9.9 36.3 36.3 0 0 0 9.6-10.4c2.7-4.6 3.7-8.4 3.7-14.8 0-8 0-8.4 3-6.6 1.6 1 3 3 3 4.3a31 31 0 0 0 3.5 9 51.2 51.2 0 0 1 4.8 24c-.1 3-.9 5.2-2.3 8.1-1.7 3.3-3 7.7-3 9.8 0 2.5-1.8 5.6-4.7 8.3a42 42 0 0 0-7.6 10.8c-1.6 3.5-3.7 6.4-4.7 6.4s-4.2 1.6-7 3.5c-4.5 3.1-6.4 3.5-15.7 2.8a32.4 32.4 0 0 1-16.4-4.5 35 35 0 0 0-12-4.4c-4.3-.6-7.6-2.3-11-5.7a30.7 30.7 0 0 0-10-6.7c-3.9-1.3-5.6-3-6.9-6.9-1-3-4.5-7.6-8.4-10.8a38.9 38.9 0 0 1-9.3-11.6 37.8 37.8 0 0 0-8.2-10.8c-3-2.7-5.5-5.9-5.5-7.2 0-1.3-1-4.8-2.3-8-1.3-3-4.5-7.8-7.1-10.7-2.6-3-1-1.8 3.4 2.4a255.4 255.4 0 0 0 19.5 16.1Zm-43.4-19.6c0 1-1.4 2.7-3 3.7a7.1 7.1 0 0 0-3 6.1 34 34 0 0 0 3.6 11.5c2.5 4.8 3.3 8 2.4 9.6-1 1.8-1.9 1.2-4.4-3a51 51 0 0 1-4.8-11c-.8-3.1-1.1-7.5-.6-9.7.6-2.1 2-5 3.4-6.5 1.3-1.5 3.2-2.6 4.3-2.6 1.2 0 2 .8 2 1.9Zm178.2 12.8a28 28 0 0 0-4 11.7c-.5 4-1.5 8.2-2.3 9.2-.8 1-2.1 1.5-2.8 1-.8-.4-1.4-3.5-1.4-6.8 0-3.2 1-8.2 2.1-10.9 1.1-2.7 4-6.4 6.3-8.3 2.4-1.8 4.5-2.7 4.8-1.8.3.8-1 3.5-2.7 6Zm-157.3-.9c1.9 3 3 7.6 3 11.8 0 4.8-1 8.2-3 11-1.8 2.1-3.8 3.9-4.6 3.9-.7 0-1.4-1-1.4-2 0-1.2 1-3 2.3-4 1.2-1 2.2-3.7 2.2-5.8 0-2.2-1.3-6.7-2.8-10-1.4-3.3-2.4-6.8-2-7.9.3-1 1.2-1.8 2-1.8s2.7 2.2 4.3 4.8Zm-10.5 6.4c0 .4-.3.8-.7.8a.8.8 0 0 1 0-1.5c.4 0 .7.3.7.7Zm-3 1.4c0 .4-.7 1.2-1.7 1.8-1 .6-1.3.4-.6-.7.5-1 1.3-1.7 1.7-1.7.4 0 .6.3.6.6Zm189 17.5c-1 3-3.3 7.2-5.4 9.4-2.1 2.3-5.3 4-7.5 4-2.3 0-3.8-.9-3.8-2.2 0-1.3 1.7-2.7 3.7-3.2s4.7-2.1 6-3.6c1.3-1.4 2.8-5.3 3.2-8.5.5-3.2 1.6-7.8 2.6-10.3l1.7-4.5.5 6.8a41 41 0 0 1-1 12.1ZM416 700c0 1.2-1 2.9-2.4 3.6-1.6.9-2.5 3.2-2.4 6 0 2.4 1.5 7.2 3.2 10.6a28 28 0 0 1 3.1 9.2c0 1.8-.6 2.7-1.5 2.2-.8-.5-3.2-4.2-5.2-8.3a34 34 0 0 1-3.7-13.6c0-3.8 1-7.4 2.4-9 1.4-1.6 3.4-2.8 4.5-2.8s2 1 2 2.1Zm22.6 11.6c1.6 3.1 3 8.3 3 11.6a16 16 0 0 1-3 9.4c-1.5 2-3.4 3-4 2.3-.7-.6-.4-2.5.6-4a14 14 0 0 0 1.8-6.4 29 29 0 0 0-3.8-10c-2.2-4-3.4-7.7-2.8-9.4.7-2.4 1.3-2.5 3.1-1 1.2 1 3.5 4.4 5.1 7.5Zm146 .2c-1.6 1-5.2 4-7.9 6.6-2.7 2.6-4.9 5.7-4.9 7 0 1.3-1.4 3.1-3.1 4-1.7 1-3.5 1.4-3.9 1-.4-.5 0-3.2 1-6 1-3 4-7.4 7-10 3.5-3.1 6.6-4.5 10-4.4 4.3 0 4.5.2 1.8 1.8Zm-160.3 5.5c-1.5 1.7-3.3 2.6-4.2 2-.8-.4 0-2 2-3.5s4-2.4 4.3-2c.3.3-.6 1.9-2 3.5Zm6.7 4.9c0 1-.8 3.9-1.7 6.5-1.5 4.3-1.2 5.7 3 13.5 2.6 4.8 4.7 9.7 4.7 10.8 0 1.2-.8 1.9-1.9 1.5-1-.3-3.9-3.9-6.3-7.9a24.5 24.5 0 0 1-2.5-23.7c1.2-1.4 2.7-2.5 3.4-2.5.7 0 1.3.8 1.3 1.8Zm25.3 12.1c1.8 3.6 3.2 8.7 3.2 11.4a20 20 0 0 1-1.6 7.8c-.8 1.6-2.2 2.9-3 2.9-.8 0-1-2.4-.5-6 .8-4.6.2-7.2-3-12.9a31.8 31.8 0 0 1-3.9-9.9c0-2.3.5-2.5 2.8-1.3 1.6.8 4.3 4.5 6 8Zm140-5.3a35.3 35.3 0 0 1-11.1 19 16.8 16.8 0 0 1-8.6 3.9c-2.2 0-5-.6-6-1.4-1.2-.7-1.7-2-1-3 .5-1 2.2-1.3 3.8-.8 1.5.4 4.7-.2 7.1-1.4 2.7-1.4 5.7-5 7.8-9.5 1.8-4 4-8 4.8-9 .9-1 2.2-2 3-2 .6 0 .8 2 .3 4.2Zm-13.3.2c1.6.7 2.2 1.6 1.4 2-.7.5-3 0-5.1-1.1-2-1.2-2.7-2-1.5-2 1.3 0 3.6.5 5.2 1.1Zm-3.9 7.5c1.2.8 1.7 2 1.1 3-.5.8-3.2 1.1-6.2.6-4.8-.7-5.9-.2-12 6.1-3.6 3.9-7.6 7-8.9 7-1.2 0-2.2-.6-2.2-1.3a28.7 28.7 0 0 1 12-14 25 25 0 0 1 9.7-2.7c2.4 0 5.4.6 6.5 1.3Zm-134.6 1.6c0 .8-1.5 2.3-3.4 3.3-3.3 1.7-3.3 1.7-.5-1.5 1.6-1.8 3.1-3.2 3.4-3.2.3 0 .5.6.5 1.4Zm3.7 12.7c-1 6.1-.6 7 4.7 12.8 3 3.5 7.5 7.3 9.8 8.5 2.3 1.1 5.4 2.1 7 2.1 1.6 0 4.6-1.3 6.7-3 2-1.6 4.2-3 4.7-3 .4 0 .9 1 .9 2.1 0 1.2-1.8 3.6-4 5.3a16.4 16.4 0 0 1-9.5 3.1c-3.8 0-7.5-1.4-11.6-4.4a41.3 41.3 0 0 1-9.2-9.5 36.4 36.4 0 0 1-4.1-9.7c-.5-2.5-.1-6 .8-7.7 1-1.8 2.4-3.2 3.2-3.2 1 0 1.2 2.4.6 6.6Zm27.3.3c.3 1-.6 2.2-2 2.7-1.4.6-3.6-.1-5.2-1.6a8.7 8.7 0 0 1-2.8-5.4c0-2.8 0-2.8 4.7-.1 2.6 1.5 5 3.5 5.3 4.4Zm91.5 3.9c1 1 1.8 2.3 1.8 3 0 .7-1.3.4-3-.7-1.6-1-3-2.3-3-3 0-.6.6-1.1 1.2-1.1.7 0 2 .8 3 1.8Zm-101.6 2.3c0 .6-1 2.5-2.2 4-1.2 1.6-2.6 2.5-3 2-.5-.4 0-2.2 1-4 1.1-1.7 2.5-3.1 3.1-3.1a1 1 0 0 1 1.1 1.1Zm35.3 5.6a28 28 0 0 1 7.7 9.4c1.2 2.8 1.7 6.4 1.2 8-.5 1.6-1.5 2.6-2.3 2-.8-.4-1.4-2.2-1.4-3.9 0-1.7-2.3-5.3-5.1-8-2.9-2.6-8-5.5-11.6-6.4-3.6-.9-8.3-1.2-10.6-.8-2.2.5-4.8 1.8-5.8 3-1 1-2.6 2-3.8 2-1.1 0-2-.5-2-1.1 0-.6.5-2 1.2-3 .6-1 3-2.8 5.5-4.1 3.1-1.7 7.2-2.3 13-2 6.4.5 9.8 1.6 14 4.9Zm80.3-2.6a44.1 44.1 0 0 1-13.4 12.3c-1.9 1-5.4 1.9-7.8 2-2.4 0-5.4-.8-6.7-2-1.7-1.3-1.9-2.2-.6-3 1-.6 4.2-.7 7.2-.4 4.8.7 6 0 11.3-5.4 3.3-3.3 7.2-6.1 8.7-6.1 2.1 0 2.4.6 1.3 2.6Zm-20.3 1.1c1.6 1.2 2.2 2.3 1.4 2.4h-6.7c-3-.1-7.7 1-10.7 2.6-4.4 2.2-6 2.4-7.9 1-2-1.5-2-2.1-.5-3.4 1.1-1 3.6-2.3 5.6-3.1a30 30 0 0 1 9.8-1.6c3.3 0 7.4.9 9 2.1Zm-32.6 7.4c2.2 1.2 5.4 3.7 7.2 5.6a24 24 0 0 1 4 6.1c.5 1.5.3 3-.4 3.5-.8.4-2.6-1-4-3.2-1.5-2.2-4.8-5-7.5-6a26 26 0 0 0-8.7-2.1c-2 0-3.8-.3-3.8-.6 0-.4-.4-1.7-.9-3-.7-2 .2-2.4 4.6-2.4 3 0 7.3 1 9.5 2.1Zm-37.7 6c-1 2.1-2.3 3.2-3 2.5-.7-.7-.5-2.7.5-4.5 1-1.7 2.3-2.8 3-2.4.7.4.5 2.5-.5 4.5Zm56.9.5c1 1.5 2 3.2 2 3.8 0 .6-1 1.1-2.2 1.1-1.2 0-2.2-.6-2.2-1.4 0-.7-.4-2.4-1-3.7-.4-1.3-.4-2.4.3-2.4.6 0 2 1.2 3 2.6ZM500 779c0 1.6 1.5 4.6 3.4 6.7 2 2.3 6.5 4.6 11.2 5.7 4.4 1.1 8.7 2.8 9.7 3.8 1.4 1.4.5 1.8-4.1 1.8a29.6 29.6 0 0 1-21.4-9.7 15.2 15.2 0 0 1-3.3-7.5c0-1.8.5-3.7 1-4.3.5-.5 1.5-.6 2.2-.1.7.4 1.3 2 1.3 3.6Zm19.5 3.8c0 2.3-.9 3.7-2.2 3.7-1.3 0-2.3-.5-2.3-1.1 0-.6.5-2.7 1-4.5.4-1.8 1.4-3 2.2-2.5.7.4 1.3 2.4 1.3 4.4Zm43.4-.9c0 .8-2 2.8-4.4 4.5a52 52 0 0 1-10.6 5.4 39.6 39.6 0 0 1-10.4 2.2c-2.3 0-5.9-1.4-8-3.1-2.2-1.7-4-4.4-4-6 0-1.6.8-2.9 1.7-2.9 1 0 3.3 1.7 5.2 3.8 1.9 2 5 3.7 6.9 3.6 1.9 0 7.1-2 11.7-4.4 4.5-2.4 9-4.4 10-4.4 1.1 0 2 .5 2 1.3Zm-76.7 1.7c2.5.9 5 2.7 5.5 4 .5 1.3.6 2.6.2 3-.3.4-3.8-.7-7.6-2.4s-6.5-3.8-6-4.7c.5-.8 1.5-1.5 2.1-1.5.7 0 3.3.7 5.8 1.6Zm219.4 56.2-1.3 6-2-5.7c-1.6-5.1-1.5-6.1 1-8.8 2.6-3 2.7-3 3.1-.3.3 1.5-.1 5.5-.8 8.8ZM632 910.9c1.6 5.4 3.9 15.5 5 22.6 1.2 7 2.4 15.6 2.8 19 .7 6.4.7 6.4-7.7 11.6-4.7 2.8-12.8 6.9-18.1 9a53.4 53.4 0 0 1-10 3.5c-.3-.3 1.9-6.4 4.8-13.7a250.7 250.7 0 0 0 15-57.3c1-9 1.2-9.8 3-7.3 1.2 1.6 3.5 7.3 5.2 12.6Z" clip-rule="evenodd"/>
    <path fill="#CEBDFE" d="M827 629.7c5.2 1.3 14.2 5 20 8a50 50 0 0 1 15 11.9c3 3.9 5.2 8.9 5.9 13.2.6 4 .3 9.3-.7 12.7-1 3.3-3.8 8.2-6.3 11a27 27 0 0 1-9.6 6.9c-4 1.3-8.6 1.1-21.2-.8a162 162 0 0 0-29.8-2c-12.3.6-15 1.3-25 6.2a82.2 82.2 0 0 0-19.6 13.8 137 137 0 0 0-17.4 23.6c-5 8.4-11.9 22.4-15.3 31.1-3.4 8.7-7.6 22.4-9.3 30.5-1.8 8-3.6 14.4-4.2 14.2a365 365 0 0 1-16.8-20.2c-13.3-16.5-16-20.7-16-25a253 253 0 0 1 11-55.3c2.9-8 7.4-18.3 10.2-23 2.8-4.6 8.1-12 11.8-16.3 3.8-4.4 10.4-11.1 15-14.9 4.4-3.8 13.8-9.9 20.9-13.5 7-3.6 15.9-7.7 19.7-9.1a108 108 0 0 1 61.6-3Z"/>
    <path fill="#CEF0FF" fill-rule="evenodd" d="M306.6 415.2a88 88 0 0 1 34.3 35.9 224 224 0 0 1 10.2 24 70.4 70.4 0 0 1 2.4 39.2c-1 3.4-4.8 9.5-8.4 13.6a70 70 0 0 1-16 12.4c-7.5 4-11.7 5.1-20.4 5.7-10.4.7-11.7.4-22.6-5a77.3 77.3 0 0 1-22.9-17.1 85.9 85.9 0 0 1-23.9-41.7 97 97 0 0 1-1-20.6 76 76 0 0 1 4.1-21c2.4-6.4 6-11.6 11.8-17.5 5.1-5 11-9.3 15.1-10.8 4.8-1.8 10-2.3 17.8-1.9 8 .5 13.3 1.8 19.5 4.8ZM264 460.6c-.5-.8-.4-2 0-2.8.6-.9 5.5-1.5 11-1.5 7.5 0 12 1 18 3.7 4.4 2 12 7.6 17 12.4 5 4.7 12.5 12.6 16.6 17.4 4 4.9 6.9 9.2 6.4 9.8-.5.5-5 .7-10 .4-7.4-.3-9.9.2-14 3-2.9 2-6 5.4-6.9 7.7-1 2.3-2.5 4-3.4 3.7-.9-.3-1.9-2.3-2.1-4.4-.3-2.7 1-5.7 4.5-9.5 2.7-3.1 7.3-6.7 10.2-7.9l5.2-2.2-10.5-9.8a90.5 90.5 0 0 0-18.2-13.4c-4.3-2-11.2-4-15.4-4.4-4.2-.5-8-1.5-8.4-2.2Z" clip-rule="evenodd"/>
    <path fill="#fff" d="M461.8 391.7c7.4.9 16.7 1.5 20.6 1.5 6.4 0 7.3.5 9.7 5a32 32 0 0 1 2.6 14.6c0 8-.7 11-4.1 16.9-2.3 4-7 9-10.4 11.2-5.4 3.6-7.7 4.1-17.6 4.1-10 0-12.3-.5-17.7-4.1a44 44 0 0 1-10.4-10.4c-3.5-5.4-4.1-7.8-4.1-16.9 0-8.9.6-11.8 4.1-17.6 3.8-6.5 4.5-7 9-6.4l18.3 2.1Zm242.4-16.6c3 3.4 5.8 8.3 6.4 11.4.5 3 .7 8.7.3 12.8-.4 4.3-2.2 9.6-4.3 12.7-2 3-6.5 7.3-10 9.6a38.4 38.4 0 0 1-13 5.3c-3.7.6-9.2.3-12.3-.5-3.2-.9-8-3-10.6-4.6a34.8 34.8 0 0 1-14.7-22c-.6-3.6-.6-8.8 0-11.5a23 23 0 0 1 2.8-7.7c1.4-2 5.3-3 14.6-4a199.4 199.4 0 0 0 34.6-7.2c.5-.1 3.3 2.5 6.2 5.7Z"/>
    <path fill="#C6FFB9" d="M427.1 626.4c6.8 4.5 15 9.4 18.3 11a199.5 199.5 0 0 0 37.5 13.2 435.6 435.6 0 0 0 45.1 5.2c1.3 0 1.4 1.5.3 5.3a75.3 75.3 0 0 0-1 16.9c.3 9 1 11.6 2.7 11.6 1.2 0 2.3-1 2.5-2.2l2-13.2c1-6 2.3-10.8 3-10.8.6 0 2 3 3 6.7s1.5 9.9 1 13.6a18 18 0 0 1-5.6 12 47.6 47.6 0 0 1-12.5 8.4c-6 2.6-10.5 3.4-20.4 3.4-9.5.1-15.2-.7-22.7-3.3-5.4-2-14-6-19-9s-14.4-10-20.7-15.3a181.8 181.8 0 0 1-21-21.8c-5.5-6.9-9.5-13.4-9.5-15.4s-.7-6.5-1.6-10.2c-1.4-5.6-1.3-7.2.8-10.4 1.3-2 3.1-3.8 4-3.8.9 0 7.1 3.7 13.8 8.1ZM142.8 957.1c0 34.6-.2 37.9-2.5 37.9l108.8-.8-8-24a758.2 758.2 0 0 1-11.6-38c-2-7.8-3.6-17.6-3.6-22a68.3 68.3 0 0 1 8.7-31c2.2-4 3.6-7.3 3.2-7.6L226 866a163.5 163.5 0 0 1-43.5-31.5l-8.9-9-2.2 3.3a300 300 0 0 0-19.4 47.7c-2 7-5 19.6-6.4 27.8-2.3 12.1-2.8 22.4-2.8 53Zm507 22.1V995h83.3c-2.8 0-3.8-1-4.4-4.1a780.7 780.7 0 0 0-15.3-85.4 764.7 764.7 0 0 0-19.4-64.8 64 64 0 0 0-10.7 6.6 202 202 0 0 1-21.6 12.6c-6.3 3-17 7.1-23.6 9-9.8 3-12.2 4.2-12.2 6.5a90 90 0 0 0 7.3 17.5c4.4 8.8 8.5 20 10.4 28a266.2 266.2 0 0 1 6.2 58.3Z"/>
    <path fill="#FEFFB9" d="M616.9 424.8c1.6 1.6 3 4.2 3 5.7 0 1.6-1.6 5-3.4 7.8a42 42 0 0 1-11.6 9.6c-7.7 4.3-9.2 4.6-23.2 4.5-10.5 0-16.7-.8-20.5-2.5-3-1.3-6.6-4-8-6-1.7-2.8-2-4.7-1-7.5.9-2 3.6-4.5 6.2-5.6 3.6-1.5 6.5-1.6 13-.2a91 91 0 0 0 14.6 1.7c4.1 0 9.4-1.8 15.9-5.2a89.1 89.1 0 0 1 10.8-5.3c.7 0 2.5 1.3 4.2 3Z"/>
    <path fill="#FDFFCE" d="M404.4 618a43.9 43.9 0 0 1-8.5 10.7c-3.3 2.9-6.8 4.6-8.6 4.4-1.7-.3-3.3-1.2-3.6-2-.2-.8 2.4-2.9 6-4.5 4.9-2.4 7-4.7 10-10.8 3-6.6 4-7.5 5.7-5.9 1.7 1.7 1.5 3-1 8Z"/>
    <path fill="#FEFFCE" d="M388.9 597a54 54 0 0 0-5.5 8.8c-1.7 3.4-4.1 6.6-5.4 7-1.6.7-2.3 0-2.3-2.2a25.3 25.3 0 0 1 8.7-16.4c2.5-2 4.3-2.5 5.3-1.5s.7 2.4-.8 4.2Zm2.5 21.3c.5.9 0 1.8-1 2.2l-6.1 1.5a7.9 7.9 0 0 0-5.8 5c-1 2.7-1.1 6.2-.2 10.5 1 4.6 1 7-.4 8.9-1.7 2.3-2 2.2-3.5-.7a29.7 29.7 0 0 1 .6-21.4 17 17 0 0 1 4.8-5.8 15 15 0 0 1 6.7-1.6c2.2 0 4.4.6 5 1.4Zm11.8 20.7a33 33 0 0 1-.6 11.3c-.9 3-3 7-4.8 8.6-1.8 1.6-4 3-5.2 3-1 0-2-1.4-2-3 0-1.7 1-3 2.3-3 1.2 0 3-1.5 3.9-3.3 1-1.8 1.7-6.3 1.6-10 0-3.7.2-7.3.7-8 .4-.7 1.3-1.3 2-1.3.6 0 1.6 2.6 2 5.7Z"/>
    <path fill="#FEFFCE" d="M393.7 645.9c0 1-1.7 2.7-3.7 3.7-2 .9-4.2 3.4-4.7 5.5-.5 2-.2 6.8.7 10.4 1 4 1.1 8 .4 10-1.3 3.5-1.3 3.5-3.8-1.2a31.2 31.2 0 0 1-.5-23c1-2 3.6-4.5 5.6-5.5 2-1 4.2-2 4.8-2 .7 0 1.2 1 1.2 2Zm17.3 20.7c.5 4.2.2 9.3-.8 12.5-1 2.9-3 6-4.6 6.8-1.5.8-3.1 1.5-3.6 1.5s-.8-1.2-.8-2.7c0-1.4 1.3-3.5 3-4.5 2.1-1.3 3-3.4 2.8-7.5 0-3-.6-7-1.3-8.6a8 8 0 0 1 .3-5.8c1.2-2.2 1.7-2.4 2.7-.8.7 1 1.7 5.2 2.2 9.1Z"/>
    <path fill="#FEFFCE" d="M401.2 672.8c0 1-1.4 2.7-3 3.7a7.1 7.1 0 0 0-3 6.1 34 34 0 0 0 3.6 11.5c2.5 4.8 3.3 8 2.4 9.6-1 1.8-1.9 1.2-4.4-3a51 51 0 0 1-4.8-11c-.8-3.1-1.1-7.5-.6-9.7.6-2.1 2-5 3.4-6.5 1.3-1.5 3.2-2.6 4.3-2.6 1.2 0 2 .8 2 1.9Zm20.9 11.9c1.9 3 3 7.6 3 11.8 0 4.8-1 8.2-3 11-1.8 2.1-3.8 3.9-4.6 3.9-.7 0-1.4-1-1.4-2 0-1.2 1-3 2.3-4 1.2-1 2.2-3.7 2.2-5.8 0-2.2-1.3-6.7-2.8-10-1.4-3.3-2.4-6.8-2-7.9.3-1 1.2-1.8 2-1.8s2.7 2.2 4.3 4.8Z"/>
    <path fill="#FEFFCE" d="M416.1 700c0 1.2-1 2.9-2.4 3.6-1.6.9-2.5 3.2-2.4 6 0 2.4 1.5 7.2 3.2 10.6a28 28 0 0 1 3.1 9.2c0 1.8-.6 2.7-1.5 2.2-.8-.5-3.2-4.2-5.2-8.3a34 34 0 0 1-3.7-13.6c0-3.8 1-7.4 2.4-9 1.4-1.6 3.4-2.8 4.5-2.8s2 1 2 2.1Zm22.6 11.6c1.6 3.1 3 8.3 3 11.6a16 16 0 0 1-3 9.4c-1.5 2-3.4 3-4 2.3-.7-.6-.4-2.5.6-4a14 14 0 0 0 1.8-6.4 29 29 0 0 0-3.8-10c-2.2-4-3.4-7.7-2.8-9.4.7-2.4 1.3-2.5 3.1-1 1.2 1 3.5 4.4 5.1 7.5Zm-7.6 10.6c0 1-.8 3.9-1.7 6.5-1.5 4.3-1.2 5.7 3 13.5 2.6 4.8 4.7 9.7 4.7 10.8 0 1.2-.8 1.9-1.9 1.5-1-.3-3.9-3.9-6.3-7.9a24.5 24.5 0 0 1-2.5-23.7c1.2-1.4 2.7-2.5 3.4-2.5.7 0 1.3.8 1.3 1.8Zm17.2 28.8c-1 6.1-.6 7 4.7 12.8 3 3.5 7.5 7.3 9.8 8.5 2.3 1.1 5.4 2.1 7 2.1 1.6 0 4.6-1.3 6.7-3 2-1.6 4.2-3 4.7-3 .4 0 .9 1 .9 2.1 0 1.2-1.8 3.6-4 5.3a16.4 16.4 0 0 1-9.5 3.1c-3.8 0-7.5-1.4-11.6-4.4a41.3 41.3 0 0 1-9.2-9.5 36.4 36.4 0 0 1-4.1-9.7c-.5-2.5-.1-6 .8-7.7 1-1.8 2.4-3.2 3.2-3.2 1 0 1.2 2.4.6 6.6Z"/>
    <path fill="#FEFFCE" d="M456.4 734.3c1.8 3.6 3.2 8.7 3.2 11.4a20 20 0 0 1-1.6 7.8c-.8 1.6-2.2 2.9-3 2.9-.8 0-1-2.4-.5-6 .8-4.6.2-7.2-3-12.9a31.8 31.8 0 0 1-3.9-9.9c0-2.3.5-2.5 2.8-1.3 1.6.8 4.3 4.5 6 8Zm19.2 17c.3 1-.6 2.2-2 2.7-1.4.6-3.6-.1-5.2-1.6a8.7 8.7 0 0 1-2.8-5.4c0-2.8 0-2.8 4.7-.1 2.6 1.5 5 3.5 5.3 4.4Zm25.2 11.7c3 2.4 6.5 6.6 7.7 9.5 1.2 2.8 1.7 6.4 1.2 8-.5 1.6-1.5 2.6-2.3 2-.8-.4-1.4-2.2-1.4-3.9 0-1.7-2.3-5.3-5.1-8-2.9-2.6-8-5.5-11.6-6.4-3.6-.9-8.3-1.2-10.6-.8-2.2.5-4.8 1.8-5.8 3-1 1-2.6 2-3.8 2-1.1 0-2-.5-2-1.1 0-.6.5-2 1.2-3 .6-1 3-2.8 5.5-4.1 3.1-1.7 7.2-2.3 13-2 6.4.5 9.8 1.6 14 4.9Zm-14.6 20.5c2.5.9 5 2.7 5.5 4 .5 1.3.6 2.6.2 3-.3.4-3.8-.7-7.6-2.4s-6.5-3.8-6-4.7c.5-.8 1.5-1.5 2.1-1.5.7 0 3.3.7 5.8 1.6Z"/>
    <path fill="#FEFFCE" d="M500 779c0 1.5 1.5 4.5 3.4 6.6 2 2.3 6.5 4.6 11.2 5.7 4.4 1.1 8.7 2.8 9.7 3.8 1.4 1.4.5 1.8-4.1 1.8a29.6 29.6 0 0 1-21.4-9.7 15.2 15.2 0 0 1-3.3-7.5c0-1.8.5-3.7 1-4.3.5-.5 1.5-.6 2.2-.1.7.4 1.3 2 1.3 3.6Zm28.2-10c2.2 1.2 5.4 3.7 7.2 5.6a24 24 0 0 1 4 6.1c.5 1.5.3 3-.4 3.5-.8.4-2.6-1-4-3.2-1.5-2.2-4.8-5-7.5-6a26 26 0 0 0-8.7-2.1c-2 0-3.8-.3-3.8-.6 0-.4-.4-1.7-.9-3-.7-2 .2-2.4 4.6-2.4 3 0 7.3 1 9.5 2.1Z"/>
    <path fill="#FEFFCE" d="M563 781.8c0 .8-2 2.8-4.5 4.5a52 52 0 0 1-10.6 5.4 39.6 39.6 0 0 1-10.4 2.2c-2.3 0-5.9-1.4-8-3.1-2.2-1.7-4-4.4-4-6 0-1.6.8-2.9 1.7-2.9 1 0 3.3 1.7 5.2 3.8 1.9 2 5 3.7 6.9 3.6 1.9 0 7.1-2 11.7-4.4 4.5-2.4 9-4.4 10-4.4 1.1 0 2 .5 2 1.3Zm-2.2-20.2c1.6 1.2 2.2 2.3 1.4 2.4h-6.7c-3-.1-7.7 1-10.7 2.6-4.4 2.2-6 2.4-7.9 1-2-1.5-2-2.1-.5-3.4 1.1-1 3.6-2.3 5.6-3.1a30 30 0 0 1 9.8-1.6c3.3 0 7.4.9 9 2.1Zm18.4-24.9c1.2.8 1.7 2 1.1 3-.5.8-3.2 1.1-6.2.6-4.8-.7-5.9-.2-12 6.1-3.6 3.9-7.6 7-8.9 7-1.2 0-2.2-.6-2.2-1.3a28.7 28.7 0 0 1 12-14 25 25 0 0 1 9.7-2.7c2.4 0 5.4.6 6.5 1.3Zm1.9 23.8a44.1 44.1 0 0 1-13.4 12.3c-1.9 1-5.4 1.9-7.8 2-2.4 0-5.4-.8-6.7-2-1.7-1.3-1.9-2.2-.6-3 1-.6 4.2-.7 7.2-.4 4.8.7 6 0 11.3-5.4 3.3-3.3 7.2-6.1 8.7-6.1 2.1 0 2.4.6 1.3 2.6Z"/>
    <path fill="#FEFFCE" d="M596.5 729a35.3 35.3 0 0 1-11.1 19 17.5 17.5 0 0 1-8.7 3.9c-2.2 0-5-.6-6-1.4-1.2-.7-1.7-2-1-3 .5-1 2.2-1.3 3.8-.8 1.5.4 4.7-.2 7.1-1.4 2.7-1.4 5.7-5 7.8-9.5 1.8-4 4-8 4.8-9 .9-1 2.2-2 3-2 .6 0 .8 2 .3 4.2Zm-11.8-17.2c-1.6 1-5.2 4-7.9 6.6-2.7 2.6-4.9 5.7-4.9 7 0 1.3-1.4 3.1-3.1 4-1.7 1-3.5 1.4-3.9 1-.4-.5 0-3.2 1-6 1-3 4-7.4 7-10 3.5-3.1 6.6-4.5 10-4.4 4.3 0 4.5.2 1.8 1.8Z"/>
    <path fill="#FEFFCE" d="M597.5 710c-.9 3-3.2 7.2-5.3 9.4-2.1 2.3-5.3 4-7.5 4-2.3 0-3.8-.9-3.8-2.2 0-1.3 1.7-2.7 3.7-3.2s4.7-2.1 6-3.6c1.3-1.4 2.8-5.3 3.2-8.5.5-3.2 1.6-7.8 2.6-10.3l1.7-4.5.5 6.8a41 41 0 0 1-1 12.1Zm-18.1-24.4a28 28 0 0 0-4 11.7c-.5 4-1.5 8.2-2.3 9.2-.8 1-2.1 1.5-2.8 1-.8-.4-1.4-3.5-1.4-6.8 0-3.2 1-8.2 2.1-10.9 1.1-2.7 4-6.4 6.3-8.3 2.4-1.8 4.5-2.7 4.8-1.8.3.8-1 3.5-2.7 6Zm12.6-3.7c.1 9.4-.2 10.5-4 13.8-2.4 2-4.9 3.7-5.7 3.7-.7 0-1.4-1.3-1.4-2.9 0-1.5 1.7-3.9 3.8-5.2 2.6-1.8 3.7-3.8 3.7-7.2a46 46 0 0 0-1.7-10.3 17 17 0 0 1-.6-8.5c1-2.3 1.3-2.1 3.5 1.8 1.6 2.9 2.5 8.2 2.5 14.8Zm-22.6-23.6c.5.5 0 2.4-1.3 4a15 15 0 0 0-2 7.8c0 2.5.6 5.9 1.2 7.5.7 1.7.5 4.6-.4 6.5l-1.5 3.4-2-3.4a31.5 31.5 0 0 1 .3-22.3c1.3-2.5 2.9-4.4 3.5-4.4.7 0 1.7.4 2.2.9Zm7.9-6.2c1.4 2.1 2.6 6.6 2.7 10 0 4.8-.7 6.7-3.6 9-3.4 2.9-3.8 2.9-4.2.5-.3-1.4.2-3.3 1-4.2 1-.9 1.7-3.7 1.7-6.3 0-2.6-1-6-2.2-7.6a12.2 12.2 0 0 1-2.2-4c0-.6 1-1.1 2.1-1.1 1.3 0 3.4 1.7 4.7 3.7Zm-25 6.2c1.8 2.2 3.2 5.2 3.2 6.8 0 1.5-.7 2.8-1.4 2.8s-3.4-2.4-6-5.3c-2.5-3-4.6-6-4.6-6.8 0-.8 1.3-1.4 2.9-1.4 1.5 0 4.2 1.7 6 4Z"/>
    <path fill="#C7BEF1" d="M632 911c1.6 5.3 3.9 15.4 5 22.5 1.2 7 2.4 15.6 2.8 19 .7 6.4.7 6.4-7.7 11.6-4.7 2.8-12.8 6.9-18.1 9a53.4 53.4 0 0 1-10 3.5c-.3-.3 1.9-6.4 4.8-13.7a250.7 250.7 0 0 0 15-57.3c1-9 1.2-9.8 3-7.3 1.2 1.6 3.5 7.3 5.2 12.6Z"/>
    <path fill="#EBA3FF" fill-rule="evenodd" d="M225.1 856a108 108 0 0 0 19.5 7.6V859l-3.2-6.8 5.3-6v-12.7l2-7.3-2-4.3h2l1.1-11.6 6.3-6.3-3.1-4.4-5.3-4 1-15.9 6.4-2-5.3-4.2 9.5-7.5 5.3-1.4v-7l-7.3-5.7 7.3-15c1-2.9 3.5-9.5 5.2-12 1.7-2.6 6.4-4 8.5-4.3v-2c-1.4-3.6-2.6-11.5 4.2-14.8 1-.9 3.2-5.3 4.2-7.4 8-6.7 24.6-20 26.3-20 1.7 0 .7-4.6 0-6.9l3.2-4.6-2.1-3.4 7.8-6.3V650a258 258 0 0 0-25.3 17.7 567.9 567.9 0 0 0-74.2 74.8l-4.2 8 3.2 7-4.2 8.5 4.2 3.2-6.3 11.6-6.4 6.3 3.2 6.3-4.2 8.5-7.4 7.1 3.9 13-7 8.4 3.1 3.1-5.3 1.8a161.4 161.4 0 0 0 30.1 20.8ZM212 812.3h-4.2l1 3.5 4.3 1.8-1.1-5.3Z" clip-rule="evenodd"/>
    <path fill="#DFFCEC" d="M173.5 809a56.5 56.5 0 0 0 6 9.7l1.8-6.4-1-4.2h-6.4a3 3 0 0 0-.4.8Z"/>
    <path fill="#F6EBF0" d="m183.5 819.7 1 5.2.4.4 8-.4 1 9.4 1.1.9 5.3-1.8-3.2-3.1 7-8.5-3.8-12.9 7.4-7.1 4.2-8.5-3.2-6.3 6.4-6.3 6.3-11.6-4.2-3.2 4.2-8.4-3.2-7.1 4.2-8-6.4 8a2011 2011 0 0 0-22.2 29.2l4.4 1v7.5l-6.3 6.3 2 2.1-6.4 10.6 4.4 3.1-4.2 7.4-4.2 2.1Z"/>
    <path fill="#E1FBCA" d="M184.9 825.3a93.1 93.1 0 0 0 9 9l-1-9.4-8 .4Z"/>
    <path fill="#F6EBF0" d="M207.7 812.3h4.2l1 5.3-4.2-1.8-1-3.5Z"/>
    <path fill="#BBA6FF" d="M244.6 863.6c4.9 1.3 11 2.3 13.4 2.3 2.8 0 4.3-.7 10.2-9.9l-6.8-1.5-2.1-6.3 7.4-9.5-8.5-7.4v-13.7l-6.3-6.3 6.3-3.2v-13.7l4.3-4.2v-6.4c-2.5-1.4-6.6-4.2-3.2-4.2 3.4 0 6.3-4.1 7.4-6.2l-4.2-4.3 4.2-2.1 2-8.5L274 747h6.4l3.3-4.5 3-9.2-2.1-2.1 3.1-1 3.2-7.5-4.2-2 5.3-1.1-1.1-7.4h4.2l8.4-12.5v-3.3c1.4-.6 4.8-1.7 7.2-2.2 2.3-.4 2.5-6.4 2.3-9.4l9 1.2 4.7-3.3v-6l6.3 3 12.7-22.1 8.4-2.4-2.1-4.8 15.7-8.9-.2-1.7c-.7-5.3-1.8-7.9-3.2-7.9-1.2 0-8 2.4-15.2 5.2a273.8 273.8 0 0 0-27.2 13v5l-7.8 6.4 2 3.4-3 4.6c.6 2.3 1.6 6.8 0 6.8-1.8 0-18.3 13.4-26.4 20-1 2.2-3.2 6.6-4.2 7.5-6.8 3.3-5.6 11.2-4.2 14.7v2.1c-2.1.4-6.8 1.7-8.5 4.3a76.6 76.6 0 0 0-5.2 12l-7.3 15 7.3 5.7v7l-5.3 1.4-9.5 7.5 5.3 4.1-6.3 2.1-1 15.9 5.2 4 3.1 4.4-6.3 6.3-1 11.6h-2.1l2 4.3-2 7.3v12.7l-5.3 6 3.2 6.8v4.7Z"/>
    <path fill="#D5C9FF" d="M374.2 664.8c0-4.4-1.1-9.2-2.9-12.2a41 41 0 0 1-3.6-11.2l-15.7 8.9 2.1 4.8-8.4 2.4-12.7 22.2-6.3-3.2v6.1L322 686l-8.9-1.2c.2 3 0 9-2.3 9.4-2.4.5-5.8 1.6-7.2 2.2v3.3l-8.4 12.5H291l1 7.4-5.2 1 4.2 2.1-3.2 7.4-3.1 1 2 2.2-2.9 9.2-3.3 4.5H274l-5.2 11.6-2.1 8.5-4.2 2 4.2 4.4c-1 2.1-4 6.2-7.4 6.2-3.4 0 .7 2.8 3.2 4.2v6.4l-4.3 4.2v13.7l-6.3 3.2 6.3 6.3v13.7l8.5 7.4-7.4 9.5 2.1 6.3 6.8 1.5a1090.4 1090.4 0 0 0 18.5-30.4l2-21.7-4-6.3 10.4-14.9-4.2-3 3.2-7.5 11.5-.8-2-10.8 2-3.1v-6.7l6.8-2.5 18.4-17.5 2.2-2.1-4.2-5.4 6.3-11.2h7.9l-3.7-4.7 3.7-3.8h3.7l-2.5-10.5 12-3.5 9.5-10 8.5-13v-1.8Z"/>
    <path fill="#BFBCF1" d="m328.8 723.3 4.2 5.4-2.2 2.1-11.5 18.5 9.5 8.2 2-8.2 8.7-3.6 2-5.8-4-2.5 9.2-7.4-3.7-6.7 6.4-1.1v-6.4l16.3-8.4-5.3-9.5 5.3 1.7 8.7-6.5v-3.3l9.3-2.4c-1.4-2.8-3-5.6-4.4-7.7-3.6-5.4-4.8-8.4-5-13l-8.6 13-9.5 10-12 3.4 2.5 10.5H343l-3.7 3.8 3.7 4.7h-8l-6.3 11.2Z"/>
    <path fill="#D1CDF3" fill-rule="evenodd" d="M318.9 946.8a57.5 57.5 0 0 1 0 21.8 54 54 0 0 1-4.3 11.5v7.4l-2.9 4.2c8.9.1 27.2.9 29.8 3.3H373l-8.5-7.5-14.7-17.3-8.4-9 3.1-4.3c-4.8-10.2-16-31.1-22.1-32.7-6-1.6.3-5.6 4.2-7.4l-10.5-7.5 4.2-12.5-1.5-12.7-9.7-5v-8.3l1.6-7.2c-3.1-15.7-6.1-39.8.4-42.8 7.4-3.4 3.9-15.6 1.2-21.3a301.5 301.5 0 0 0-12.7 20l-4.6 8.2 5 21.7a1335.3 1335.3 0 0 1 18.8 97.4Zm20.5 35.4-8.5-13.6 24.3 11.5 2 5.6-17.8-3.5Z" clip-rule="evenodd"/>
    <path fill="#B2A5ED" d="M311.7 985.7c-5.2 8.8-5.8 9.3-11.2 9.3h41c-2.6-2.4-21-3.2-29.8-3.3l3-4.2v-7.4c-1 2-2 4-3 5.6Z"/>
    <path fill="#F0DBE4" d="m392 995-9.5-12.8-9.4-7.4v-6.2c-6.7-2.6-19.6-9.3-18-14.9 1.7-5.6 4.3-7 5.3-7H352l-2.1-13-5.3-6.3c-4.2.3-12-1.3-9.5-10.6-4.5-3.5-12.6-12-8.4-18 4.2-5.8-1.7-4.5-5.3-3.1l5.3-18-14.7-8.4a210 210 0 0 1-1.2-5.7l-1.6 7.2v8.4l9.7 4.9 1.5 12.7-4.2 12.5 10.5 7.5c-4 1.8-10.3 5.8-4.2 7.4 6 1.6 17.3 22.5 22.1 32.7l-3.1 4.2 8.4 9.1 14.7 17.3 8.5 7.5h19Z"/>
    <path fill="#CFD3F5" d="m331 968.6 8.4 13.6 17.9 3.5-2.1-5.6-24.3-11.5Z"/>
    <path fill="#FFF9C2" d="M402.6 919c2.5 0 6.6 2.1 8.4 3.2l4.2 24.6 10.5-5.7c2.8 3.8 7.8 12.4 5.3 15.8-2.5 3.4 12.3 2.8 20 2.1l-1 8.5c3.1-2.3 12-1.6 24.8 14.7l11.4 7.4h23.5c.8-5 3.2-13.1 6.2-6.5 3.1 6.6 10.3 2.7 13.5 0-3-6.7-6.8-19 3-14.5 9.7 4.5 21.5-1.9 26.1-5.7l.7-3.9.6-4.2.7-4.2.6-3.8h-8l-19.4 8-16.4-2.2-9.9-8.4-4 10.6-7.9-8-3.6 3.8-5.7-1.8v6l-11.2-6v-4.6l-6.4-3.1-13.8-14.8-19.5-9.5-19.2-10.5-15.5 10.5c.6 1.3 1.3 2.1 2 2.1Z"/>
    <path fill="#F5FFCF" d="M368.9 859.8c3.1 3.2 9.4 10.2 9.4 12.7s2.8 15.1 4.2 21l14.8 8.5c.5 4.1 1.7 11.3 3.3 14.8l15.5-10.5 19.2 10.5-4.8-10.5-14.4-9.5-13.5-1.1-2-21.1 3.6-11-3.7-5.9-5.3-23.2-9.5-13.7-3-29.1 10-9.3-17 12.7 2.6 19.3-12.3 32.8c1 4.6 2 9.4 2.9 12.6Z"/>
    <path fill="#FFFEBF" d="M413.7 737.4c-3.5-3.5-7.8-9-9.5-12.3l-16.5 19.3-5-2.8-7 7.7-5.2 20-11 20.8 2 9.4 9 4.4-11 16.9c2 3.1 6 10.3 5.1 13.7-.4 1.8.3 7.1 1.4 12.7l12.3-32.8-2.6-19.3 17-12.7 9.9-9.4 1.6-11.2 15.6-17.4c-2-2.6-4.2-5.2-6-7Z"/>
    <path fill="#DABACB" d="M401.2 717.3c0-1-2.7-4.7-6-8.4l-3.2-4.3-9.9 20.5-14.4 14.8 2.8 16.8-12.5 14-1.8 25.6 3.3-6.2 11-20.8 5.2-20 7-7.7 5 2.8 16.5-19.3c-1.7-3.4-3-6.9-3-7.8Z"/>
    <path fill="#D1D3EC" d="M529.4 983c-3.2 2.8-10.4 6.7-13.5 0-3-6.5-5.4 1.7-6.2 6.6h-23.5l-11.4-7.4c2.8 3.5 5.7 7.7 8.9 12.8h52.7l-7-12Z"/>
    <path fill="#BEC0F1" d="M604.7 947.6a286 286 0 0 0 8.5-33l-12 11.7v6.4l-2.7 11.5-14.2 6.4 7.8 8.4-11 5-11.9 10.6-29.8 15-7-10.4 18.2-1 17-8.8-1.7-5.3 1.2-5h-8l-.6 3.8c-4.6 3.8-16.4 10.2-26.1 5.7-9.8-4.5-6 7.8-3 14.5l7 11.9h47.7l8-16.9c4.4-9.3 10-23 12.6-30.5Z"/>
    <path fill="#A4A6E2" d="m569.2 974.6-1.6-5.2-17 8.7-18.2 1 7 10.5 29.8-15Z"/>
    <path fill="#BCAEF0" d="M581.1 964h-15.2l1.7 5.4 1.6 5.3 11.9-10.6Z"/>
    <path fill="#B6C8EF" d="m579.8 956.9 1.3 7.2 11-5-7.8-8.5-4.5 6.3Z"/>
    <path fill="#A8A9FB" d="m599.9 887-4.4 8.7-8.4 8.4 5 10.6-3 11.6-9.3 8.7-2.1 15.6H569l-1 4.2-1 4.2-1.2 5H581l-1.3-7.1 4.5-6.3 11.2-15.6 5.6-5.5-2.6-9.5 2.2-5-.8-28Z"/>
    <path fill="#CFECF2" d="M559.2 959h8l.9-4.2h-8.3l-.6 4.2Z"/>
    <path fill="#DDBDDD" d="M569 950.6h-8.5l-.7 4.2h8.3l1-4.2Z"/>
    <path fill="#DEBEDE" d="m589 926.3-7.9-5.4-12.2 6.2-7.8 19.7-.6 3.8h17.2l2-15.6 9.3-8.7Z"/>
    <path fill="#C2D8F6" d="m601.1 929.5-5.6 5.5-11.2 15.6 14.2-6.4 2.6-11.5v-3.2Z"/>
    <path fill="#BEF9CF" d="m395.2 809.2-9.5 11.6 9.5 13.7 5.3 23.2 3.7 6-3.6 10.9 2 21.1 13.5 1 14.4 9.5 4.8 10.6 19.5 9.5 13.8 14.8 6.4 3.1v4.6l11.2 6v-6l5.7 1.8 3.6-3.8 7.9 8 4-10.6 9.9 8.4 16.4 2.2 19.5-8h7.9l7.8-19.7 3.3-8 6.3-8.2H545v15.4l-11.3 3.2h-9.4v4H515l-5.3 5.5-6.3 5.2-9.2-6.3-9.9 8.9-6-14h-14l-7-6.5-2.2-4-4-7.6 1-10.6h-8.5v-10.5l-6.3-.7-2 9-4.3-15-15.8-23.3 3.2-8-7.4-3.7-6.8-15.3 11-15.8-18-11.6 21.2-24-3.2-7 9-11-5.8-7 6.8-7.8-1-1.6-2.5-4-12 29-12.4 5 4 8.5-6 19.9Z"/>
    <path fill="#F1D4FF" d="M444 771c-2.2-3-6.6-7-9.9-9.2a38.3 38.3 0 0 1-8.9-9.4l-6.8 7.8 5.8 7-9 11 3.2 7-21.1 24 17.9 11.6-11 15.8L411 852l7.4 3.7-3.2 8L431 887l4.3 15 2-9.1 6.3.7V904h8.5l-1 10.6 4 7.5 21.4-20.2 22.3-5.2-14.5-12.7-3.1 8.8-3.1-3-3.1-3h-8v-11.5l-17-17.7 4.8-2.1-7-10.4 3.2-10.7-9.5-17.2 6.3-7.3 2.2-9.9 8.6-17.4A49.2 49.2 0 0 1 444 771Z"/>
    <path fill="#E9CFF6" d="M545 926.3v-15.4l42.1-30-11.7-20.2-20 20.2 6.8 3.2-17.2 8.8-.2 7.3-12.7 7.2-2.7 1.6-9.9 5.7-9.8-3.8-14.2 3.8-19-12.7-21.4 20.2 2.2 4.1 7 6.4h14l6 14 9.9-8.8 9.2 6.3 6.3-5.2 5.3-5.5h9.3v-4h9.4l11.3-3.2Z"/>
    <path fill="#F3C6FF" d="m498.8 896.8-22.3 5.2 19 12.7 14.2-3.8 9.8 3.8 10-5.7-19.8-8.8-11-3.4Z"/>
    <path fill="#F6C0FF" d="M475 790.1a34.5 34.5 0 0 0-10.6-5.2l-3.2 10.6 8 13.7-11.2 11.6-7.6-3.2-2.6 3.2 7.3 20.6v8.8h6.2l2 12.8 9.6 6 3.6 14.4 9.7-4.6L505 887l9.1-11.6 10.2-15.5 3.9-23.3-16 18-3.7-9h-16.8L481.2 831l9.3-10.1-6.2-10.8 12.2-12.5c-2.3-.6-4.4-1-6.2-1.2-5-.6-10.1-2.7-15.3-6.2Z"/>
    <path fill="#EFA6FF" d="m528.2 836.6 8.2 9-4 15-12.2 11.9L515 887l3.8 11.3 13.3 9.1 12.7-7.2-7.3-4.5 7.5-8.7 8.2-8.2V869l2.3-11.3-10.5-7.5 6-2.9-11.6-7.3-.4-9.1-10.8 5.7Z"/>
    <path fill="#DBAFFF" d="m544.8 900.2.2-7.3 17.2-8.8-6.7-3.2 20-20.2-6.3-15-10.7-20.3-7.9-4.6-18.2-10.8-5.2 7.8-17.5 9-3.7 1.9 6.1-26.5a46 46 0 0 1-7-2 65 65 0 0 0-8.6-2.7L484.3 810l6.2 10.8-9.3 10 10.5 14.9h16.8l3.6 8.8 16-17.9L539 831l.4 9 11.6 7.4-6 2.9 10.5 7.5-2.3 11.3v9.8L545 887l-7.5 8.7 7.3 4.5Z"/>
    <path fill="#E3BBFF" d="m578.5 911-6.3 8-3.3 8.1 12.2-6.2 8 5.4 3-11.6-5-10.6 8.4-8.4 4.4-8.7-.7-24.5-3.7-12.3 3-8.5v-2l.3 1.1 2.3-6.3-8.7-12.5-8.3-12-16.4 4.4-17 6.4 7.8 4.6 10.7 20.3 6.2 15 11.7 20.2-9.4 9 6.4 6.9-8.7 14.1h3Z"/>
    <path fill="#C9CBFF" d="M587.1 762.6a59 59 0 0 1-11.4 13l32.8 26.3a2097 2097 0 0 1-4.4-21.8 113.8 113.8 0 0 1-3-22.2c.5-.8 2-1.5 3-1.5 1.2 0 2.8 1.2 3.7 2.8a146 146 0 0 1 4.6 20.6 584 584 0 0 0 7 32.7 272 272 0 0 1 5.4 32.7l1.7 17.8 5.3-1c3-.5 9.4-2.5 14.3-4.3 4-1.5 9.8-4 14.3-6l-.8-8.8-6.1-2.2-4.5-14 4.5-12.3-12.9-4.4 12.9-20.7-12.9-6.6 3-7.6-10.4-5.3 7.4-10.3-4.5-2.8-8-4.8-6.4-13.3-19.2-9.6a51.1 51.1 0 0 1-2 7.7l16.4 5.2-3.7 10.4-4.3-7-11.4-2.2-1.7 2.8a25 25 0 0 0-4.4 8c0 1-2 5-4.3 8.7Z"/>
    <path fill="#D6C6FF" d="M504 715.9a92.4 92.4 0 0 1-33.7-8L457 713l-6.8 5.4c1.3 1.4 2.6 2.7 4 3.8 3.8 3.2 7.4 7.8 8.3 10.8 1.3 4 3 5.6 7 7a31 31 0 0 1 10 6.6c3.3 3.4 6.6 5.1 11 5.7 3.3.4 8.7 2.4 11.9 4.4a31 31 0 0 0 16.4 4.5c9.3.7 11.2.3 15.7-2.8 2.8-2 6-3.5 7-3.5s3.1-2.9 4.7-6.4a42 42 0 0 1 7.6-10.8c2.9-2.7 4.6-5.8 4.6-8.3 0-2.1 1.4-6.5 3-9.8 1.5-3 2.3-5 2.4-8l-8.3.2-13.5-11.2c-1.8 2.1-4 4.1-5.8 5.4a67.6 67.6 0 0 1-32.2 9.9Z"/>
    <path fill="#F3E5EC" d="M549.5 680.8a25.9 25.9 0 0 1-7.5 19.8l13.5 11.2 8.3-.2a51.2 51.2 0 0 0-4.9-24 31 31 0 0 1-3.4-9.1c0-1.3-1.4-3.3-3-4.3-3-1.8-3-1.5-3 6.6Z"/>
    <path fill="#FDFECF" d="M466.3 706a168 168 0 0 1-29-19.3l-6.2 6c0 1.2 2.5 4.4 5.5 7 3 2.8 6.7 7.6 8.2 11 1 2 3 5 5.4 7.7l6.8-5.4 13.3-5.1-4-1.8Z"/>
    <path fill="#E9BEFF" d="M616.8 851.9c-.8-9.8-3-25.4-5-34.6-1-4-2-9.5-3.3-15.4l-32.8-26.4a48 48 0 0 0-8 10.2l10 9.4v15h6.4l11.4 2.4-3 9.5 8.6 12.5-2.3 6.3 9 28.2 1 27.8-8.1 18.2.4 14.5v-3.2l12.1-11.6a227 227 0 0 0 3.6-62.8Z"/>
    <path fill="#E7B8FF" d="M533.7 802a46.8 46.8 0 0 1-21.6.3l-6 26.4 3.6-2 8.5-14.2 29.2-6.5 3.2 14.8 17.1-6.4 16.4-4.4h-6.4v-14.9l-10-9.4c-2 2.6-5.2 5.6-7.7 7.3a48 48 0 0 1-13.1 5.6l-13.2 3.3Z"/>
    <path fill="#B9B4F0" d="m608.9 896.8-1.1-27.8-9-28.2-.3.9.7 20.8 4.8 16.3-4.1 8.2.8 28 8.2-18.2Z"/>
    <path fill="#DABACB" d="M428.8 684.7a28 28 0 0 1 2.3 8l6.2-6a307 307 0 0 1-12.2-10.4c-4.5-4.2-6-5.3-3.4-2.4s5.8 7.7 7.1 10.8Zm-20.2 7.8c0 .4-.7 1.2-1.7 1.8-1 .6-1.3.4-.6-.7.5-1 1.3-1.7 1.7-1.7.4 0 .6.3.6.6Z"/>
    <path fill="#AF9BED" d="M397.3 602.7c.5 1.3.5 4 0 6s-1.8 3.6-3 3.6c-1 0-3-.4-4.3-.9-1.3-.5-2.3-1.4-2.3-2 0-.6 1.4-3 3-5.1 1.8-2.2 3.7-4 4.4-4 .7 0 1.7 1.1 2.2 2.4Z"/>
    <path fill="#DABACB" d="M411.6 691.1c0 .4-.3.8-.7.8a.8.8 0 0 1 0-1.5c.4 0 .7.3.7.7Z"/>
    <path fill="#EFFCD3" d="M424.4 717.3c-1.5 1.7-3.3 2.6-4.2 2-.8-.4 0-2 2-3.5s4-2.4 4.3-2c.3.3-.6 1.9-2 3.5Z"/>
    <path fill="#E5D9F7" d="M444.6 738.3c0 .8-1.5 2.3-3.4 3.3-3.3 1.7-3.3 1.7-.5-1.5 1.6-1.8 3.1-3.2 3.4-3.2.3 0 .5.6.5 1.4Zm20.9 19.2c0 .6-1 2.5-2.2 4-1.2 1.6-2.6 2.5-3 2-.5-.4 0-2.2 1-4 1.1-1.7 2.5-3.1 3.1-3.1a1 1 0 0 1 1.1 1.1Z"/>
    <path fill="#DEBEF3" d="M490.5 775c-1 2.1-2.3 3.2-3 2.5-.7-.7-.5-2.7.5-4.5 1-1.7 2.3-2.8 3-2.4.7.4.5 2.5-.5 4.5Z"/>
    <path fill="#C7AFEF" d="M519.5 782.7c0 2.3-.9 3.7-2.2 3.7-1.3 0-2.3-.5-2.3-1.1 0-.6.5-2.7 1-4.5.4-1.8 1.4-3 2.2-2.5.7.4 1.3 2.4 1.3 4.4Z"/>
    <path fill="#D9C3F4" d="M547.4 775.5c1 1.5 2 3.2 2 3.8 0 .6-1 1.1-2.2 1.1-1.2 0-2.2-.6-2.2-1.4 0-.7-.4-2.4-1-3.7-.4-1.3-.4-2.4.3-2.4.6 0 2 1.2 3 2.6Z"/>
    <path fill="#C8CAF3" d="M567.1 755.2c1 1 1.8 2.3 1.8 3 0 .7-1.3.4-3-.7-1.6-1-3-2.3-3-3 0-.6.6-1.1 1.2-1.1.7 0 2 .8 3 1.8Zm15.9-26c1.7.7 2.3 1.6 1.5 2-.7.5-3 0-5.1-1.1-2-1.2-2.7-2-1.5-2 1.3 0 3.6.5 5.2 1.1Z"/>
    <path fill="#F3E5EC" d="M563.7 652.9c-.5.8-2.4 1.4-4.2 1.4-2.7 0-2.9-.3-1-1.4a9.7 9.7 0 0 1 4.2-1.5c1 0 1.5.6 1 1.5Z"/>
    <path fill="#F2FDD5" d="m419.8 744.4-15.6 17.4-1.6 11.2-10 9.4-10 9.3 3.1 29 9.5-11.5 6-19.9-4-8.6 12.4-4.9 12-29-1.8-2.4Z"/>
    <path fill="#F4E7EE" d="M464.4 785c-1 0-3.3-1-5.8-2.3l-8.6 17.4-2.2 10-6.3 7.2 9.5 17.2-3.2 10.7 7 10.4-4.8 2.1 17 17.7V887h8l3 3-1.5-6.6-3.6-14.4-9.6-6-2-12.8h-6.2v-8.8l-7.3-20.6 2.6-3.2 2.6-3.2 5-8.4 3.2-10.5 3.2-10.6Z"/>
    <path fill="#E5DEF8" d="m458 806-5 8.4-2.6 3.2 7.6 3.2 11.1-11.6-7.9-13.7L458 806Z"/>
    <path fill="#C7B1EF" d="m481.2 892.9 3.1-8.8 14.5 12.7 11 3.4L505 887l-18.8-8.2-9.7 4.6 1.6 6.5 3 3Z"/>
    <path fill="#EDC3FF" d="m528.2 836.6-4 23.3-10.1 15.5-9 11.6 4.6 13.2 9.1-1.9L515 887l5.2-14.5 12.2-11.8 4-15-8.2-9Z"/>
    <path fill="#EBD0E5" d="m518.8 898.3-9 1.9 19.6 8.8 2.7-1.6-13.3-9Z"/>
    <path fill="#EBC7FF" d="m527.2 817.8 5.2-7.8 18.2 10.8-3.2-14.8-29.2 6.5-8.5 14.3 17.5-9Z"/>
    <path fill="#E7CCEC" d="m595.5 812.5-11.4-2.5 8.3 12 3.1-9.5Z"/>
    <path fill="#BCB3F0" d="m595.5 850.2 3.7 12.3-.7-20.8-3 8.5Z"/>
    <path fill="#A6A8E5" d="m599.9 887 4-8.2-4.7-16.3.7 24.5Z"/>
    <path fill="#B9B4F0" d="m598.5 920 2.6 9.5-.4-14.5-2.2 5Z"/>
    <path fill="#D4DEF7" d="m597.5 743 11.4 2.3 4.3 7 3.7-10.4-16.4-5.2a50 50 0 0 1-3 6.4Z"/>
    <path fill="#F2E2EA" d="M603.2 719.6c.1 2.4-.2 6-.7 9.4l19.2 9.6 6.5 13.3 8 4.8-8-14.8-6.5-11.5-15.4-12.2-3-2.3v3.7Z"/>
    <path fill="#E9E0EB" d="m606.3 718.2 15.4 12.2-9.3-12.4-6.1.2Zm21.9 23.8 8 14.7 4.4-1.8-2.5-13h-10Z"/>
    <path fill="#A0F8CB" d="m663.4 850.2 4.8-2.6-10.7-16.7 2.9-18.4-7-6.5 2-15.5-6.4-6.3v-6.7l-8.4-7 5.5-7.4-5.5-3.6-7.4 10.3 10.4 5.3-3 7.6 12.9 6.6-12.9 20.7 12.9 4.4-4.5 12.4 4.5 14 6 2.1.9 8.7 3-1.4Z"/>
    <path fill="#B3FCAB" d="M606.3 700.9c-.6 0-1.5 2.8-2.1 6.4-.5 2.3-.8 5.6-1 8.6l3 2.3 6.2-.2 9.3 12.4 6.5 11.5h9.9l2.5 13-4.5 1.8 4.5 2.8 5.5 3.6-5.5 7.4 8.4 7v6.7l6.4 6.3-2 15.5 7 6.5-3 18.4 10.8 16.7a136.3 136.3 0 0 0 25.4-18.9c2.5-2.3 4.6-4.7 6.2-6.7l-9.7-4.2 1.9-15.9-3.5-4.5c-7.6-9.8-20.2-25.4-28.1-34.9l-27.6-33c-7.2-8.7-16-18.7-19.4-22.2a37.3 37.3 0 0 0-7.1-6.4Z"/>
    <path fill="#B4CAD6" d="M702.3 817.8c0-1.3-4.4-8-10.3-15.9l-1.9 15.9 9.7 4.2c1.5-2 2.5-3.5 2.5-4.2Z"/>
    <path fill="#C7BEF1" d="m705.6 839.7-1.3 6-2-5.7c-1.6-5.1-1.5-6.1 1-8.8 2.6-3 2.7-3 3.1-.3.3 1.5-.1 5.5-.8 8.8Z"/>
    <path fill="#CEBDFE" d="M530.7 186.2a220 220 0 0 1 52 17.3c6 3 15.7 8.7 21.4 12.5a182.3 182.3 0 0 1 43.4 44c8 12 8.7 13.5 7 16.6-1 2-5.3 5.8-9.6 8.6a96.2 96.2 0 0 1-17.5 8.4 180.4 180.4 0 0 1-44.8 8c-4.6 0-14.5-.6-22-1.4-7.3-.9-22.8-3.3-34.4-5.5a125 125 0 0 0-36.7-3c-8.6.5-20.4 2.2-26.2 3.8-5.7 1.7-14.5 4.8-19.4 7a197.6 197.6 0 0 0-48.4 34 173 173 0 0 0-18 21.4c-3.8 5.7-8.5 15.1-10.4 21-2 5.8-4.2 15.7-5.1 22a50 50 0 0 0 .6 21.7 173 173 0 0 0 4.4 16c1.2 3.2 4.1 7.8 6.6 10.3a76 76 0 0 0 10.7 9.1 106.2 106.2 0 0 0 32.6 15.3l17.8 4a27 27 0 0 1 15.3 7.8c4.2 3.9 7.5 8.8 9.5 14.1a54 54 0 0 1 3 17.6 132 132 0 0 1-4.6 27.3 78.2 78.2 0 0 0-4 28c.6 6.9 2.1 12.8 5 18.6a84.9 84.9 0 0 0 32.6 32.8c5.7 3.2 15.1 7.3 21 9.1a174 174 0 0 0 55 6.5c13-.5 14.4-.4 10 1.2a174.5 174.5 0 0 1-50.6 6.6c-9.6 0-23.3-1-30.3-2.3a174.8 174.8 0 0 1-48.2-15.8c-6.5-3.3-16.4-9.5-21.9-13.6a249.6 249.6 0 0 1-48.4-52c-5.4-8.2-9.9-15.6-9.9-16.5a60 60 0 0 0-5.4-11.1l-5.4-9.6 2.5-6.7a78.6 78.6 0 0 0 3.3-17.3c.6-7.3 0-13.6-1.7-21a147.2 147.2 0 0 0-33.5-60.7 33.3 33.3 0 0 1-7.7-10.8 642.4 642.4 0 0 0-15.7-59.3c-3-8.6-7.4-18.7-9.9-22.4-2.8-4-7.7-8.5-12.6-11.2a52.4 52.4 0 0 1-9.8-6.7c-1-1.3-1.4-3.8-.8-6.3a42 42 0 0 1 9.6-12.4c4.6-4.6 14-12.5 20.7-17.6a643 643 0 0 1 31.4-21.9 228.6 228.6 0 0 0 21.3-15c1.2-1.4 1.7-4 1.2-6-.5-1.8-3.9-5.5-7.5-8a42.7 42.7 0 0 1-10.4-11.3c-2.1-3.6-4-7.8-4.3-9.5-.5-2.9.6-3 33.2-4a236 236 0 0 0 65.2-7.7 1900 1900 0 0 1 36-7.6 268 268 0 0 1 26.1-.1c14.2.4 27 1.7 36.7 3.7Z"/>
    <path fill="#CEF0FF" fill-rule="evenodd" d="M665.2 290.8a155.6 155.6 0 0 1 10.1 33.4 183.4 183.4 0 0 1 1 41.6 135.6 135.6 0 0 1-28.3 4.9c-5 0-5.7-.4-5.7-3.5 0-2-1-4.4-2.2-5.5-1.8-1.5-2.7-1.5-4.5 0-1.3 1.1-2.3 4.4-2.3 7.7 0 4.9.7 6.2 3.8 7.6 2.6 1.2 3.6 2.5 3 4.1a41.1 41.1 0 0 0 7.6 38.9c3 3.5 8.7 8 12.6 10 3.9 2 10.5 4 14.7 4.6l7.5 1 5.2 13.7a180 180 0 0 1 13 45.7 79.4 79.4 0 0 1 .1 25c-.9 7.1-3.5 18.2-5.8 24.7s-7 16.6-10.6 22.6a127.2 127.2 0 0 1-36 37.9A168.3 168.3 0 0 1 628 618c-5 2.5-13.4 5.9-19 7.6a176.8 176.8 0 0 1-84.7 1.8c-6.8-1.7-17-5.4-22.8-8.3a84.2 84.2 0 0 1-33.7-30.9 41.4 41.4 0 0 1-5-17c-.5-7.1.4-13.3 4.2-27.9a80 80 0 0 0 4-31 46.8 46.8 0 0 0-4.7-20.2 61.7 61.7 0 0 0-7.9-12.1 36 36 0 0 0-8.5-6.3c-2.6-1.3-10.8-3.6-18.2-5.2-7.4-1.6-17.2-4.4-21.9-6.1a105 105 0 0 1-18.7-10.5 71 71 0 0 1-14.4-13 58.7 58.7 0 0 1-8-34.5c.5-5.1 2-12.7 3.2-16.8a125.1 125.1 0 0 1 28-44.8 182 182 0 0 1 22.6-19.8c6-4 14.8-9.4 19.8-12 4.9-2.4 13.7-6 19.4-7.8 7-2.2 16-3.5 27-4 14-.7 19.6-.2 38.2 3.4 19 3.7 25.2 4.3 49.4 4.3 22.2 0 30-.5 39-2.8 6.1-1.5 16.6-5.3 23.2-8.4a99 99 0 0 0 21.9-13.5c.5 0 2.6 3.9 4.7 8.6Zm-169.7 86.7c0-1.1.9-2.4 1.9-2.8 1-.4 2.6-.6 3.4-.4.8.3 1.7 2.3 2 4.6.3 2.6-.7 5.9-2.5 8.3-3 4-3 4 0 13a36.9 36.9 0 0 1 2.2 16.6 48.4 48.4 0 0 1-5 15.6 48.7 48.7 0 0 1-9.4 12 41 41 0 0 1-29.6 8.5c-7-.6-11.4-2-16.5-5.1a52.8 52.8 0 0 1-12-10.8 44.9 44.9 0 0 1-6.5-12.7 45 45 0 0 1 2.9-29.4c3.2-6.3 3.2-6.4.4-7.2-1.6-.4-3.3-1.6-3.7-2.6a5 5 0 0 1 .5-3.9c1-1.6 5.5-1.5 25.7.6 13.5 1.3 28.3 2.5 33 2.5 5.7 0 9.3-.8 10.9-2.4 1.3-1.3 2.3-3.3 2.3-4.4Zm88.7 48.2c6.3.8 7.9.4 15.7-4.5a31.7 31.7 0 0 1 13.4-5.4c3.5 0 5.8 1.2 8.7 4.6 2.8 3.4 3.9 6.3 3.9 11a20 20 0 0 1-3.5 11.5c-1.8 2.8-7 7.3-11.4 10-4.4 2.6-8.8 5-9.6 5.3-1 .3-.3 5.2 1.6 13.2 1.8 7 3.7 16 4.2 20.3.6 4.2 1.4 8.3 2 9 .5.8 3.7 3.2 7.1 5.4 4.4 2.8 7.5 6.6 10.4 12.4 3.3 7 4 10.4 4 20 0 8.1-1 14-3.3 20.1-1.8 4.9-6.2 12-10.2 16.4-3.9 4.3-9.7 9-13 10.5a35.5 35.5 0 0 1-12.1 2.8c-4.2 0-8.3-1.3-13-4.3-5-3.2-7.9-6.6-10.8-12.5-3.2-6.6-4-10.4-4-19.3 0-6.6 1-14.1 2.4-18.5 1.4-4.1 4.1-10 6-13 2-3 6.4-8 10-11 3.5-3.1 9.3-6.4 12.8-7.3 3.5-1 6.4-2.2 6.4-2.8a397.8 397.8 0 0 0-7.5-36.6c-1.2-3-2.1-3.5-5.7-2.8a69 69 0 0 1-16.2-1c-6.5-1-14.3-3-17.4-4.6-3-1.6-6.6-4.8-7.9-7.3a23 23 0 0 1-2.2-8.8c0-2.4 1.3-6 3-8 1.5-2.2 5-4.7 7.5-5.7 3-1.3 7.6-1.6 13.1-1 4.7.5 11.7 1.3 15.6 1.9Z" clip-rule="evenodd"/>
    <path fill="#D6EAFF" d="M322 771.4c8.2-11.1 16-21 17.3-22l.2-3.7-8.7 3.6-2 8.2-9.5-8.2 11.5-18.5-18.4 17.5-6.8 2.5v6.7l-2 3.1 2 10.8-11.5.8-3.2 7.4 4.2 3.1-10.3 14.9 4 6.3-2.1 21.7c12-19.9 27.4-43.6 35.2-54.2Z"/>
    <path fill="#FFBAFB" d="M323 786.6c-1.4.7-6.2 6.5-10.6 13 2.7 5.6 6.2 17.8-1.2 21.2-6.5 3-3.5 27-.4 42.8l1.2 5.7 14.7 8.5-5.3 17.9c3.6-1.4 9.5-2.7 5.3 3.2s3.9 14.4 8.4 17.9c-2.5 9.3 5.3 11 9.5 10.6l5.3 6.3 2.1 13h8.4c-1 0-3.6 1.4-5.2 7-1.7 5.6 11.2 12.3 17.9 14.9v6.2l9.4 7.4 9.6 12.8h91.6c-3.2-5-6.1-9.3-8.9-12.8-12.9-16.3-21.7-17-24.8-14.7l1-8.5c-7.7.7-22.5 1.3-20-2.1 2.5-3.4-2.5-12-5.3-15.8l-10.5 5.7-4.2-24.6a21.1 21.1 0 0 0-8.4-3.3c-.7 0-1.4-.8-2-2.1a64.3 64.3 0 0 1-3.3-14.8l-14.8-8.4c-1.4-6-4.2-18.6-4.2-21.1s-6.3-9.5-9.4-12.7c-.8-3.2-2-8-2.9-12.6a53 53 0 0 1-1.4-12.7c.9-3.4-3-10.6-5.1-13.7l11-16.9-9-4.4-2-9.4-3.3 6.2 1.8-25.7 12.5-13.9-2.8-16.8 14.4-14.8 10-20.5a46.3 46.3 0 0 1-5.2-9.9c-.7-2-1.9-4.7-3.2-7.3l-9.3 2.4v3.3l-8.7 6.5-5.3-1.7 5.3 9.5-16.3 8.4v6.4l-6.4 1.1 3.7 6.7-9.2 7.4 4 2.5-2 5.8-.2 3.6c1.3-1 3-1.5 3.7-1 .7.4 1.2 2 1.2 3.5s-3 7.2-6.7 12.7l-6.8 9.9 8.8-1c6-.6 9.2-.3 9.9.9.6 1 .3 2.7-.6 3.8a38 38 0 0 1-12.5 4.6c-6 1.4-12 3.2-13.3 4Z"/>
    <path fill="#E88E97" d="M585.4 560.5c2.9 2 8 5.9 11.2 8.8 5 4.5 5.7 5.7 3.8 7a14 14 0 0 1-6.5 1.5c-2.3 0-6-1-8.4-2.2a22.1 22.1 0 0 1-7.2-7.1 39.6 39.6 0 0 1-4-9.2c-1-3.9-.7-4.1 2.4-3.2 2 .5 5.8 2.5 8.7 4.4Z"/>
    <path fill="#E7FFCF" d="m181.3 812.3-1.9 6.4c1.5 2 3.3 4.2 5.1 6.2l-1-5.2 4.2-2 4.2-7.5-4.4-3.1 6.5-10.6-2.1-2.1 6.3-6.3v-7.4l-4.4-1a795.6 795.6 0 0 0-20 28.4h6.5l1 4.2Z"/>
  </g>
  <defs>
    <clipPath id="a">
      <use xlink:href="#b"/>
    </clipPath>
  </defs>
</svg>
