<svg xmlns="http://www.w3.org/2000/svg" fill="none" viewBox="0 0 994 994">
  <g clip-path="url(#a)">
    <path fill="#CEBDFE" d="M0 0h994v994H0z"/>
    <path fill="#000" fill-rule="evenodd" d="M485.5 179.7c-3.8.3-11.1 1.2-16.4 2-5.2.9-17.5 3-27.3 5l-22 4.2-10 1.5c-3 .4-18.6 1-34.4 1.3l-28.7.4-3.6 1.8c-2 1-4.3 2.9-5.2 4.3-1.5 2.1-1.6 3-1.3 7 .2 3.2 1 6 3 9.9 2.1 4.4 4 6.8 10 12.8 6 5.9 7.3 7.5 6.6 8.3-.4.5-6 4.2-12.5 8.2a422 422 0 0 0-50.2 36.8 55.2 55.2 0 0 0-15.4 18.1 17.1 17.1 0 0 0-2 7.3c0 1.9.6 4.4 1.6 6.4 1 1.9 2.5 4 3.4 4.9.9.8 3.9 3 6.6 4.7 2.8 1.7 6.5 4.8 8.3 6.8 1.8 2 4.4 5.8 5.7 8.4 1.4 2.7 3.5 7.6 4.7 10.9a400 400 0 0 1 4.6 14.5c2.5 8.2 2.6 9 2.5 19.2 0 5.9.3 13.3.8 16.6.5 3.3.7 6.1.5 6.3-.3.2-3-.1-6-.8-3-.7-8-1.4-11.1-1.6-4-.3-7-.1-10.3.7a69.5 69.5 0 0 0-21.7 11 66.7 66.7 0 0 0-19.3 28.1c-.9 2.7-2.1 7.7-2.7 11a93.6 93.6 0 0 0 2.2 37.6 94.6 94.6 0 0 0 13 26 110.9 110.9 0 0 0 23.1 22.8c6 4.1 6 4.2 6 7.2 0 1.7.6 4.3 1.2 5.7.6 1.5 1.8 3.4 2.6 4.3a16 16 0 0 0 3.7 2.8c1.5.7 3 .9 5.9.5 3.3-.4 4.3-.9 7.3-3.8l3.4-3.3h8.8c7.5 0 9.4-.3 14-2 3.5-1.2 7.2-2 10.7-2a21 21 0 0 0 7.8-1.6 21.8 21.8 0 0 0 8.6-8.4c.7-1.4 1.3-3 1.3-3.7 0-.6.3-1 .6-1s2.7 3.8 5.3 8.5c2.6 4.6 4.8 8.8 4.8 9 0 .4-2 1-4.3 1.2a55 55 0 0 0-30.2 14.8c-2.2 2-5.6 5.7-7.6 8.3a106 106 0 0 0-13.7 27.3 256.3 256.3 0 0 0-6.4 26.7c-.3 2.1-.8 4.2-1.1 4.7-.4.4-2.5 1-4.8 1.2a150.4 150.4 0 0 0-30 8.1 133.3 133.3 0 0 0-36 23.2 137 137 0 0 0-19.7 24.3 120.9 120.9 0 0 0-11 26.3c-.7 3-1.8 8.4-2.2 12l-.9 6.3-9.6 4.8c-5.3 2.6-12.6 7-16.3 9.6-3.7 2.6-9.4 7.5-12.8 10.8a107 107 0 0 0-10.6 12.7 135 135 0 0 0-7.5 13 111.2 111.2 0 0 0-8.3 26.5c-.6 3-1 10.6-1 19.9a69 69 0 0 0 2 22.5l1.9 7.5-5.5 5.6c-3 3-6.9 7.6-8.6 10.2a163.6 163.6 0 0 0-13.8 28.8 89.1 89.1 0 0 0-2.5 40.6 131.4 131.4 0 0 0 10.2 30.4l3.7 7.3-2.6 2.5-2.5 2.6h5.8c4.3 0 6-.3 6.6-1.1.5-.6 2.9-2.2 5.3-3.5 2.4-1.3 6.3-3.1 8.8-4 2.6-1 5-2.3 5.6-3.2.7-1.2.8-2 .3-3a3.8 3.8 0 0 0-2-1.7c-.8-.2-3.1 0-5.2.6-2.2.5-6.2 2-9 3.4l-5 2.4-2.3-4.1a119.6 119.6 0 0 1-9-24.4 87.4 87.4 0 0 1-1.7-29.4c.5-3 1.7-8 2.7-11.2a133.2 133.2 0 0 1 13.3-27.7 59 59 0 0 1 16.5-16.5c1.5-.8 4.6-2 7-2.7a18 18 0 0 0 5.5-2.5c1-.9 1.2-1.8.9-3a3 3 0 0 0-2.4-2.4 16 16 0 0 0-6.6.8c-2.5.7-5 1.3-5.6 1.3-.7.1-1.4-1.4-2.3-5.2a98.2 98.2 0 0 1-.5-40.6c.7-4.2 2.2-10 3.2-13.1a105 105 0 0 1 10.8-21.9 96 96 0 0 1 23.2-22.6c4-2.6 10-6 13.5-7.7a25 25 0 0 1 11.7-3.3c3.4-.2 6.9.2 9.7.9 2.4.6 4.9 1.1 5.5 1.1.6 0 1.6-.8 2.2-1.7.9-1.3 1-2 .4-3.2-.4-.7-2.4-2-4.5-2.8-2-.8-5.3-1.6-7.1-1.9l-3.4-.5v-3.1a107.3 107.3 0 0 1 10.2-34.1c1.8-3.5 4.8-8.5 6.7-11.3 2-2.7 6-7.7 9.1-11a123.8 123.8 0 0 1 24.3-19.2c4-2.4 6.6-3.5 8.4-3.5 1.4 0 4.6.9 7.2 1.9 2.7 1 7 3 9.8 4.3a87.4 87.4 0 0 1 29.4 23.8c2 2.8 3.5 4 4.6 4 .8 0 2-.3 2.4-.8.4-.4.8-1.4.8-2 0-.7-1.4-3.1-3.1-5.4a105.6 105.6 0 0 0-15.9-16 122 122 0 0 0-20.7-12.3l-5.3-2.4 2-.8a172.8 172.8 0 0 1 22.3-5.1c5.7-.8 6-.8 6.8.5l3.5 5.4c1.5 2.3 6.5 8 11 12.9A333.7 333.7 0 0 0 356 691a252.2 252.2 0 0 0 29.7 20 474 474 0 0 0 46.5 23.6 292.6 292.6 0 0 0 31.7 10.7c3.1.8 9.4 2 13.8 3 5.3.9 12.6 1.6 20.7 1.8 8.1.3 14.5.1 18.4-.4 3.2-.5 6-.7 6.3-.4.2.2.6 4.6.7 9.6.2 8.3.4 9.3 1.7 10 .7.4 2 .5 3 .3.8-.2 2-1.2 2.4-2.2a44 44 0 0 0-.3-19.3c.1-.2 3.4-1 7.2-2a139.5 139.5 0 0 0 40-17.5 109.7 109.7 0 0 0 25.5-24.6l3.6-5.2 1 2.6a88 88 0 0 1 5 17 179.8 179.8 0 0 1 3.6 37.4c-.4 2.2-.8 2.7-2.3 3l-13.3 2.6c-7.7 1.5-11.6 2.5-12.2 3.3-.5.7-.9 1.6-.9 2.1s.7 1.4 1.7 2c1.5 1 2.5 1 9.7 0a596 596 0 0 0 14-2l5.9-1 2.8 5.8c1.5 3.2 3.7 9.3 5 13.6a230.8 230.8 0 0 1 6.4 35.5c.5 5 .9 14.1 1 20.2 0 6-.2 11.8-.5 12.8-.5 1.9-.6 1.9-10 2.4-6.4.3-9.8.8-11 1.5-.9.6-1.6 1.8-1.6 2.7 0 1 .5 2.1 1.2 2.7.8.7 3.6.9 11 .7l9.8-.2.5 2.7c.3 1.5.6 9.8.6 18.4 0 9.3-.4 18.1-1 22a184.9 184.9 0 0 1-6.7 30.9 114.1 114.1 0 0 1-9.3 20.7c-.8 1-3 1.5-12.2 2.4-6.1.6-11.6 1.4-12.1 1.8-.5.4-1 1.5-1 2.4 0 1 .7 2 1.5 2.5 1 .5 4.9.7 10.7.6l9.2-.3-.5 3.2a64.6 64.6 0 0 1-5.5 18.6l-2.3 5 4.6-.3 4.6-.2 2-5a86 86 0 0 0 3.5-13.2c.8-4.4 2.1-9.4 3-11l5-9.3a116.2 116.2 0 0 0 10.7-32.3c1-5 2.4-13.3 3-18.5.9-7.5 1-12.3.6-24a479.5 479.5 0 0 1-.2-39.4c0-7.8-.3-17.7-.7-22a230.8 230.8 0 0 0-5.8-32.1c-1.2-4.4-3.2-10.5-4.4-13.5-1.1-3-3-7-4.1-8.7-1.9-3-2-3.8-2.4-13.5a221.8 221.8 0 0 0-4.1-34.7 179 179 0 0 0-3.6-13.5c-1.2-3.8-3-8.5-4-10.5-1.5-3.4-1.6-4.2-1-8.2l.5-4.4 2.3 3.9c1.3 2.1 2.5 4.7 2.7 5.8.2 1 1 2.3 1.6 2.9.7.5 3.3 1.7 5.8 2.6a124.9 124.9 0 0 1 24.5 13 133.5 133.5 0 0 1 26.1 26.1 139.4 139.4 0 0 1 19.3 43l.4 3-3-1c-1.5-.5-4-1-5.3-1-1.8 0-2.5.4-3.1 1.7-.5 1.1-.6 2.1-.1 2.9.3.7 3 2.2 5.7 3.4a82.4 82.4 0 0 1 22.6 16 119.9 119.9 0 0 1 17.4 23.5c2 3.7 5 9.8 6.5 13.5a135 135 0 0 1 8.3 30.8c.6 4.4.7 11.3.5 18.8a129 129 0 0 1-1.2 15.2c-.8 3.2-1 3.3-2.6 2.7a17.2 17.2 0 0 0-9.8.1c-1 .5-2 1.7-2.3 2.6-.3 1.4 0 2.1 1.1 3a8 8 0 0 0 4.7 1.3c1.7 0 4.5.6 6.3 1.4 2.2 1 4.5 3 7.5 6.6a70.2 70.2 0 0 1 13.2 26.2 197.7 197.7 0 0 1 5 31.2c.2 4.1.1 9.2-.2 11.2l-.7 3.8h8.2l.5-5.6c.3-3.2.2-9.3-.3-14.7a159 159 0 0 0-6.5-33.7 96 96 0 0 0-4.3-10.8 82.6 82.6 0 0 0-5.3-8.9 41.1 41.1 0 0 0-5.6-6.4l-2.5-2 1.1-5.3c.7-3.2 1.3-11 1.5-19.1.3-12.2.2-15-1.2-23.1a156.4 156.4 0 0 0-12.4-38c-2.2-4.5-5.8-10.8-8-14l-3.9-6 2-8.5c1-4.8 2.6-11.4 3.5-14.7a230.1 230.1 0 0 1 24.6-54.5 81 81 0 0 1 17.5-19.8 73.2 73.2 0 0 1 18.3-10 58.2 58.2 0 0 1 22.4-3c3.7.3 12.2 1.4 19 2.4a94.8 94.8 0 0 0 18.5 1.5c4.7-.2 7-.7 10.3-2.3a33.6 33.6 0 0 0 17.8-23.5 34.4 34.4 0 0 0-1-19.5c-.8-2.3-2.5-5.8-3.8-7.9a54.4 54.4 0 0 0-17.4-15.8A93.5 93.5 0 0 0 821 619a122.1 122.1 0 0 0-50 5.5 159.7 159.7 0 0 0-35.2 17.6 148 148 0 0 0-22 19.5c-3 3.3-7.4 9-9.8 12.5a143.1 143.1 0 0 0-14.6 29.8c-1.6 4.3-4 12-5.2 17.3-1.2 5.1-2.4 9.3-2.4 9.2l-4.7-5.9a143.4 143.4 0 0 0-34.2-29.8 98 98 0 0 0-12.1-6.1c-5.8-2.4-6.4-2.9-7.6-5.5a70.8 70.8 0 0 0-8.6-13.3l-2-2.2.1-14 .2-14 8.5-3.8a231.4 231.4 0 0 0 45.4-26.7 167.5 167.5 0 0 0 22-21.3 147 147 0 0 0 15.5-23.3c1.8-3.3 4.4-9.3 5.9-13.2a137.4 137.4 0 0 0 6.8-29.1c.4-4 .7-12.4.7-18.9 0-9-.3-13.4-1.4-19a166.2 166.2 0 0 0-8.1-27.2l-2.5-6.2 7.2-.8a302.2 302.2 0 0 0 31.7-5.4c3.7-1 7.8-2.4 9.2-3.1 1.4-.7 3.4-2.2 4.5-3.3 1-1.2 2.4-3.5 3-5.3.7-1.7 1.4-5.6 1.6-8.6.2-3 0-10-.5-15.6a572.9 572.9 0 0 0-5-39.3 86.3 86.3 0 0 0-6-21.6 19.2 19.2 0 0 0-6.9-8.6c-1-.8-3.4-1.7-5.2-2-1.9-.4-7.6-.4-13 0a1243.4 1243.4 0 0 0-30.7 2.2c-1.7.2-1.8 0-2.6-7a162.8 162.8 0 0 0-12.5-45.4l-3.4-7 1.2-3c1-2.7 1-3.6.3-6.1-.5-1.7-2.1-5.3-3.7-8s-5.2-8-8-11.7a159.4 159.4 0 0 0-53.6-44.3 200 200 0 0 0-38-14.7c-7.8-2.4-18.4-5.4-23.5-6.7a211.6 211.6 0 0 0-66.3-6Zm24.5 6.9c2.7.5 2.6.5-2.2 1a231.4 231.4 0 0 0-69 20.8c-6 2.9-14 7-17.8 9.3a288.1 288.1 0 0 0-31 21.2 276.3 276.3 0 0 0-34 33.3c-3.9 4.7-10 12.9-13.4 18.1a212.7 212.7 0 0 0-19.7 38.9c-1.5 4.2-3.4 10.8-4.3 14.6a21 21 0 0 1-2.2 6.4 51 51 0 0 1-2.7-6.3 54 54 0 0 0-11.2-18.3c-2-2-5.7-4.9-8-6.2l-6.4-3.6c-1.1-.7-2.6-2-3.2-3a9 9 0 0 1-1.3-4.3c0-1.7.7-3.6 2.7-6.5a56 56 0 0 1 6.3-7.6c2-2 7.4-6.6 12-10.4a624.2 624.2 0 0 1 31.4-23.2c3.5-2.4 10.4-6.8 15.4-9.8 4.9-3 10.4-6.7 12.2-8.3 1.8-1.5 3.4-3.7 3.6-4.8a8 8 0 0 0-.2-3.8c-.4-1-2.3-3-4.1-4.2a86.3 86.3 0 0 1-8.5-7.4 43.8 43.8 0 0 1-6.9-8.5c-1-2-2.2-5-2.7-6.6-.7-2.6-.7-3.2 0-3.7.6-.3 3.6-.8 6.8-1 3.1-.2 17-.5 31-.7 18.9-.2 26.8-.5 32-1.4 3.8-.6 10.6-2 15-2.9l25.3-5.6a427 427 0 0 1 23.1-4.7l8.5-1a250.4 250.4 0 0 1 23.5.2Zm43.3 8.6a201 201 0 0 1 36.2 8.9c5.1 1.8 13 5.2 17.7 7.6a199.2 199.2 0 0 1 29.1 18.2 176.8 176.8 0 0 1 23.5 23.2 146.2 146.2 0 0 1 11 16.7c0 .2-5.5-2.4-12.3-5.7a255 255 0 0 0-19.7-8.8 246.8 246.8 0 0 0-48.3-12c-4.5-.6-13.9-.9-28.4-.8-18.8 0-23 .2-32 1.6a360 360 0 0 0-19.8 3.7 291 291 0 0 0-43 14 265.3 265.3 0 0 0-29.1 15.2 246 246 0 0 0-25.7 18 254.5 254.5 0 0 0-29.8 29 236 236 0 0 0-23.9 36c-2.5 4.8-6 12.5-7.8 17-1.8 4.5-4.3 12.1-5.7 17l-2.4 8.9-4.1 2.6-7.4 4.6c-1.8 1-3.4 2.2-3.7 2.6-.2.4-1.3.1-2.5-.6-2-1.2-2.3-1.8-3.1-7a175 175 0 0 1-1-23.2 94 94 0 0 1 2.4-28c1.3-5.9 3.5-14.3 5-18.8a182.4 182.4 0 0 1 31.8-56.8 257.3 257.3 0 0 1 34.3-34A290.5 290.5 0 0 1 431 220a268.9 268.9 0 0 1 35.6-15.6 222.3 222.3 0 0 1 44-10 278.8 278.8 0 0 1 42.7.7Zm33.7 55a255.8 255.8 0 0 1 34.4 6.8 186.9 186.9 0 0 1 36 14.4c5.4 3 6.7 4 6.8 5.5.2 1-.5 2.9-1.4 4.2-1 1.4-3.6 4-6 5.8a82.8 82.8 0 0 1-9.2 5.8 111 111 0 0 1-28.3 9.4c-4.7 1-13 2-18.3 2.5-7.4.6-12.5.6-21 0a377 377 0 0 1-19-2c-4.2-.5-14.2-2.2-22.1-3.8-7.9-1.5-18.2-3.1-22.9-3.6-6.6-.6-10.7-.6-18 0-5.1.5-12.7 1.6-16.9 2.5-4 1-10.5 2.7-14.2 4a165.3 165.3 0 0 0-33.6 16.9 225 225 0 0 0-14.2 10.3 179.8 179.8 0 0 0-24 24.6l-7.3 11c-1.9 3.2-4.6 8.4-6 11.7a37.1 37.1 0 0 1-3.7 6.8c-.5.4-5.7 3.5-11.5 6.7l-13 7.3-2.3 1.4 1.1-3.8a264 264 0 0 1 8.5-22.9 181.3 181.3 0 0 1 39.6-56.2c5.6-5.5 13.4-12.6 17.4-15.8a277.5 277.5 0 0 1 33.1-22 284.7 284.7 0 0 1 28-12.9 245 245 0 0 1 59.4-14.6 281.2 281.2 0 0 1 48.6 0Zm85.5 41a156.3 156.3 0 0 1 9.2 26.1 151 151 0 0 1 3.6 20l.4 3.3-9.4.8a4441.9 4441.9 0 0 0-51.7 4.7 5485 5485 0 0 1-36.9 3.5 2321.7 2321.7 0 0 1-36.6 3.6A11060 11060 0 0 0 422 367.4l-13.5 1.5c-2.3.3-6.1 1.8-10.9 4.2l-7.7 3.9a160.3 160.3 0 0 1 9-16 138 138 0 0 1 30.3-31.7 160 160 0 0 1 25.6-16 132.8 132.8 0 0 1 30.1-10.2c6-1.4 9.7-1.7 20.2-1.7 11 0 14 .3 22.4 2L547 307a252.1 252.1 0 0 0 42 3.9c6.2 0 14.6-.4 18.7-1a164.4 164.4 0 0 0 27.6-6.1 98.4 98.4 0 0 0 23.2-11 47.8 47.8 0 0 0 10.3-8.8c.2 0 2 3.2 3.8 7.1Zm68.4 55.2c1.3 1 3 3.4 4 5.3 1 2 2.2 5.4 2.8 7.6.6 2.1 1.8 7.2 2.6 11.3a420.8 420.8 0 0 1 5 39c.6 8.7.7 13 0 16.7-.6 4.2-1 5.3-3 6.9a30 30 0 0 1-8 3.7 138.2 138.2 0 0 1-21 4.7l-15.6 1.7-24.9 2.2c-7.6.6-18 1-23 1-7.4 0-9.8-.2-12.1-1.3a18 18 0 0 1-5.4-4.4 118 118 0 0 1-4.8-6.5 34 34 0 0 1-3.3-6.3c-.6-1.7-2.6-4.6-4.5-6.6a58 58 0 0 1-5.7-7.6 16 16 0 0 0-4.8-5.3c-2.2-1.3-3-1.2-21.3.6-18.2 1.8-19 2-20.8 3.7a24 24 0 0 0-3.6 7.3c-1.9 5.4-1.9 5.4-5 6.2-1.7.5-4.2 1.4-5.4 2a17 17 0 0 0-7.1 8.1c-.5 1.3-1 3.7-1 5.3 0 1.7.7 4.3 1.4 6 .7 1.5 1.8 3.2 2.4 3.7.7.6 1.2 1.3 1.2 1.6 0 .3-1 .9-2.3 1.3a425.8 425.8 0 0 1-48.1 8.2 1067 1067 0 0 1-47.6 4.3c-7.2.7-17.3 1-22.4.9-7.3-.3-9.9-.6-12-1.7-1.6-.7-3.6-2.4-4.4-3.8-1-1.3-2.4-4.8-3.3-7.8-1-3-2.5-9-3.3-13.3-1-4.6-2.4-9.3-3.5-11.3a11 11 0 0 0-5.3-5.2c-2.4-1.3-5-1.9-8.3-2-2.8-.2-6.4.1-9.1.8a160 160 0 0 0-12.6 4.3 227 227 0 0 0-24 11s-2-2.3-4-5.1a120 120 0 0 0-9.8-11.1c-4.6-4.7-5.8-6.2-5-6.6a4715.5 4715.5 0 0 1 36.9-20.8l21.9-11.7 13.7-7.1 8.6-1.1 12.6-1.4 12.7-1.4a2786.4 2786.4 0 0 1 70-7.9 56029.6 56029.6 0 0 1 72.4-7.4 645.1 645.1 0 0 1 22-2.1 1572.6 1572.6 0 0 1 33.7-3.2 2464.7 2464.7 0 0 1 36.6-3.2 216666 216666 0 0 1 38.7-3.4c3.3-.3 10-.5 14.9-.5 8.3 0 9 0 11.2 1.7Zm-30 12.6a884.7 884.7 0 0 0-38 3.1l-24.8 2.4c-8 .8-12.2 1.5-13.7 2.4-1.1.7-2.8 2.8-3.9 5-1.6 3.2-1.8 4.3-1.5 9.2a36 36 0 0 0 3 12.2 286.7 286.7 0 0 0 16 32 62 62 0 0 0 5.8 7.2l3.2 3.4h6.6c3.6 0 16.3-1 28.3-2.1l30.6-3.3c5.1-.6 10.5-1.7 12.7-2.6 2.2-.9 4.6-2.5 5.4-3.6 1.4-1.8 1.5-2.8 1.4-10.3-.1-4.6-.8-12.3-1.6-17.2l-3.2-19.5c-1-5.8-2.5-12-3.2-13.6a8.6 8.6 0 0 0-3.5-4c-1.6-1-4-1.2-9.5-1-4 0-8.6.1-10.1.3Zm16.6 10c.4 1.4 1.9 8.9 3.2 16.5 1.4 7.6 2.9 18.2 3.2 23.6.4 5.4.5 10.2.3 10.8-.2.5-1.8 1.3-3.7 1.7-1.8.5-8.7 1.4-15.4 2.2a1280 1280 0 0 1-49.2 4.5c-5 .3-5.4.2-7-1.5-1-1-3.1-4-4.8-6.5-1.7-2.6-4.7-8-6.7-12s-5.2-11-7-15.3c-2.8-6.8-3.3-8.6-3.3-13 0-3.6.3-5.4 1-6.2.8-.7 6.9-1.6 22.7-3.2 12-1.2 28-2.6 35.5-3.1 7.6-.6 17.6-1 22.2-1.1h8.3l.7 2.6Zm-193 5.5a6415.1 6415.1 0 0 1-38.7 4 1248.1 1248.1 0 0 0-54.9 6.8 37 37 0 0 0-9.4 2.4 9.6 9.6 0 0 0-3.3 4c-.8 1.8-1 5-1 12 0 5.2.4 12.6.8 16.4a248 248 0 0 0 2 14.9 89 89 0 0 0 3 11.9c1 2.5 2.3 4.5 3.7 5.6 1.2 1 3.5 2.1 5.1 2.7 1.8.6 5.6.9 10.6.8a674.8 674.8 0 0 0 58.3-5.6 448 448 0 0 0 25.7-4.5 39 39 0 0 0 10-3.2c.8-.7 2-2.4 2.6-3.7a252.4 252.4 0 0 0 7.8-30.8 97.1 97.1 0 0 0 .4-22.8c-.4-2-1.6-5-2.5-6.4a13 13 0 0 0-3.7-3.7c-1.1-.5-3.8-1.1-5.9-1.3-2.1-.2-7 0-10.6.5Zm13 8.7c.6.7 1.4 2.7 1.8 4.4a56.8 56.8 0 0 1 0 18 238.4 238.4 0 0 1-7.4 29.6 8 8 0 0 1-1.8 2.5c-.5.3-4.3 1.3-8.5 2.2-4.3.9-13.8 2.4-21 3.4A776.7 776.7 0 0 1 461 448c-10.4.7-14.2.7-16.6 0a7.2 7.2 0 0 1-4.4-3 26 26 0 0 1-2.1-5.8 187.5 187.5 0 0 1-2.8-33.2c0-7.8.2-11.4.8-12.2.6-.9 2.6-1.5 5.9-2a2475.2 2475.2 0 0 1 49.3-6 2138.1 2138.1 0 0 1 47.3-3.8c6.7 0 8 .1 9 1.2ZM313 415c3.2 1 8 3.4 10.9 5.2a92.3 92.3 0 0 1 18.5 16c3 3.6 6.1 8.6 10.1 16.4a135 135 0 0 1 12.6 31.6c1 4 2 9.9 2.2 13 .3 4.4 0 7.4-1.1 13.1a49 49 0 0 1-3 10.1l-1.5 2.7-2.6-2.8a18 18 0 0 0-13.8-5.9c-3 0-5.4.5-7.7 1.6a20.2 20.2 0 0 0-9.7 10.8 20.2 20.2 0 0 0 .3 13c.6 1.6 1.6 3.3 2.2 4 .8.8.8 1.3.3 1.7-.4.2-4.1.8-8.2 1.2-4.1.4-7.7.6-7.9.4-.2-.3.1-1.2.7-2 .7-1 1.2-3.1 1.2-5.2 0-1.9-.5-4.5-1.1-5.8-.7-1.3-2.4-3.2-4-4.3a15 15 0 0 0-5.9-2.2c-2.5-.3-3.8 0-6.3 1.4-1.7 1-4.1 3-5.3 4.4a11 11 0 0 0-2.3 3.2c0 .4-.3.7-.7.7-.5 0-2.7-1.4-5-3.2a101.8 101.8 0 0 1-25.2-28.8 81.2 81.2 0 0 1-9-24.8c-.4-2.5-.8-8.6-.8-13.5a56 56 0 0 1 5.8-27.2 53.8 53.8 0 0 1 13.5-18 52.3 52.3 0 0 1 14.7-8 41 41 0 0 1 16.8-1.3c3 .3 8 1.4 11.3 2.5Zm304.4 2 .8 2a44.2 44.2 0 0 0-9 4.7c-3 2.1-6.4 4.2-7.5 4.6-1.2.5-3.5.6-6.4.3l-9.7-1.4c-3-.5-5.6-1.1-6-1.4-.3-.3 0-2.1.6-4.1 1.2-3.4 1.3-3.6 4.3-4a369.3 369.3 0 0 1 26.7-2.4c5.1 0 5.4 0 6.2 1.7Zm8.3 9.8a9.7 9.7 0 0 1 2.8 5.3c.4 2.3.2 3.7-1 6.2-.9 1.7-3.1 4.5-5 6.2a50 50 0 0 1-18.9 9.8 47 47 0 0 1-9.4 1.4 102.4 102.4 0 0 1-22.6-3.7c-2.2-.8-5-2.4-6.2-3.5-1.3-1.1-2.8-3-3.3-4.2a9.1 9.1 0 0 1-.4-4.5 9.3 9.3 0 0 1 2.4-4.2c1-1 2.8-2.2 4-2.6a45 45 0 0 1 15 0l8.1 1.4c4.4.6 6.2.5 9.6-.4a50 50 0 0 0 9.9-4.3c3-1.8 6.7-3.7 8.1-4.2 1.5-.5 3-1 3.6-1 .5 0 2 1 3.3 2.3ZM403 430.6c1.9.8 3 1.9 4 3.7a73 73 0 0 1 2.6 9.2c.7 3.7 2.1 9 3 12a17 17 0 0 1 1.3 5.2 104.5 104.5 0 0 1-12-7.5 55 55 0 0 1-13.7-14 18.8 18.8 0 0 1-2.8-5.5c0-.9 1.1-1.7 4-2.7a29 29 0 0 1 7.5-1.4c1.8 0 4.6.4 6 1Zm-24.3 9a58.5 58.5 0 0 0 12.5 15.5c2.4 2 6.3 5 8.6 6.5a109.3 109.3 0 0 0 23 11.2c3.4 1.1 10.5 3 15.8 4 5.3 1 11.5 2.4 13.8 3.2 2.4.7 5.9 2.5 7.8 4a36.2 36.2 0 0 1 11 15.6 47.2 47.2 0 0 1 3.2 21.5c-.1 3.3-.9 8.6-1.6 11.7-.7 3.1-2.5 10.2-4 15.6-2 7.3-2.7 12-3 17.5a43.4 43.4 0 0 0 4.7 23.8 77 77 0 0 0 5.3 9.1 96.2 96.2 0 0 0 26 23.1 108.2 108.2 0 0 0 27.5 11c4 1 10.4 2.3 14.5 2.9a242.5 242.5 0 0 0 56 0c1-.3.5 0-1 .7a263.6 263.6 0 0 1-30 7.3c-5 .9-14.1 1.9-20.5 2.3-8.8.7-14.3.6-22.8 0A238 238 0 0 1 507 644a214 214 0 0 1-13.4-2.8l-13-4a180.9 180.9 0 0 1-31.2-15 195.3 195.3 0 0 1-39-33 306 306 0 0 1-37.2-54l-4.9-9 1.5-3a52.4 52.4 0 0 0 4.5-23.4 86 86 0 0 0-.8-13.9 155 155 0 0 0-3.1-11.3c-1.3-4-4.7-12-7.8-18.1-3-6-5.3-11.1-5-11.2l9.4-4.4a101 101 0 0 1 9.6-4.3c.4 0 1.4 1.4 2.2 3Zm260.5 9.4c1.1 1 3.5 2.7 5.3 3.5 2.6 1.2 4.9 1.5 12.4 1.7 5.1 0 16-.4 24.2-1.1 10.4-1 15-1 15.4-.6a248.8 248.8 0 0 1 8.4 24.8c1.1 4.4 2.7 11.7 3.5 16.4.8 4.6 1.4 11 1.4 14.2a116.1 116.1 0 0 1-12 50.4c-2 4-5.5 10.3-8 14a111 111 0 0 1-14 16.3 214 214 0 0 1-17 15 125.7 125.7 0 0 1-29.7 17.5c-4.1 1.7-11.1 4-15.4 5-4.4 1.2-12 2.6-17.1 3.3a188 188 0 0 1-23.5 1.2 186.8 186.8 0 0 1-36.5-3.4 121 121 0 0 1-22.4-7.7 108 108 0 0 1-12-6.7 85 85 0 0 1-17.9-16.4c-1.5-2.2-3.9-5.7-5-7.9-1.3-2.1-3-6.1-3.9-8.8-1.3-4-1.6-6.5-1.6-12.1 0-6.3.6-9 4.2-22.7l4.2-15.6v-11.4c0-8.9-.2-12.4-1.2-16a49.2 49.2 0 0 0-10.2-19.1 38.9 38.9 0 0 0-7.1-6.2c-1.7-1-3-2-3-2a1423.8 1423.8 0 0 1 31.8-3.2c5.3-.5 15.4-1.4 22.4-2.2a454.9 454.9 0 0 0 37.7-6c4.4-.9 8.9-2.1 10-2.8 1.1-.6 2.6-1.5 3.2-2 1-.6 2-.5 5.2.5a94.3 94.3 0 0 0 26.2 3.1l6.4-.2.6 2.1 3 14a547.7 547.7 0 0 1 5.8 32.5l.4 2.4-7.7-.5a140.8 140.8 0 0 1-27.2-4.4c-3.3-1-11-4.2-17-7.1-8.4-4.2-11.6-5.4-14-5.4a8 8 0 0 0-5 1.3 14 14 0 0 0-3.3 4c-.7 1.5-1.5 4.7-1.7 7.1a36 36 0 0 0 .5 8.5 45 45 0 0 0 3.2 9 51.1 51.1 0 0 0 17.4 18.4 75 75 0 0 0 22.2 9.7 83.3 83.3 0 0 0 24.9 1.1 87.5 87.5 0 0 0 34-11.5 73 73 0 0 0 8.4-6.1c2.2-2 3.5-3.7 3.5-4.7 0-.9-.4-2-.9-2.4-.4-.5-1.5-.9-2.3-.9-.8 0-2.2.5-3 1.1-1.6 1.1-1.6 1-1.6-2.2 0-1.9.6-4.4 1.5-6.2a26.4 26.4 0 0 1 9.4-11.3c2-1.3 5-3.6 6.7-5 1.6-1.6 3-3.4 3-4 0-.7-.4-1.6-.9-2-.4-.5-1.4-1-2-1a36 36 0 0 0-7.6 3.6c-3.4 2-8 4.3-10.1 5a84.5 84.5 0 0 1-19.7 4.6c-5 .6-5.2.5-5.2-1a338.8 338.8 0 0 0-6.7-37.3c-1.7-7-3-13-2.8-13.3.2-.3.8-.6 1.3-.6s3.1-1 5.8-2.4a46.4 46.4 0 0 0 14.6-11.6l2.4-3 1.7 2.3c1 1.3 2.8 3.2 4 4.4Zm-361 9.6c-1.2.5-1.5 1.2-1.3 2.7.2 1.9.4 2 6.2 2.8 3.3.4 8.1 1.3 10.7 2 2.5.6 6.4 2.1 8.7 3.3 2.2 1.2 6.4 4.1 9.2 6.5 2.8 2.3 8 7 11.3 10.3 3.4 3.3 6 6.3 5.8 6.6-.2.3-1 .6-1.9.6-.8 0-3.2.8-5.3 1.8a33 33 0 0 0-7.6 5.5c-2.6 2.6-4 4.7-4.3 6.3-.2 1.3-.3 3.7-.2 5.2.2 2.3.5 2.9 1.7 3 1.2.2 1.8-.4 2.7-2.9.7-1.8 2.5-4.3 4-5.7a23.6 23.6 0 0 1 10.7-5.8c1.4-.2 5 0 7.8.3 3 .4 6 .6 7 .4.8-.3 1.5-.9 1.5-1.4 0-.5-2.5-4-5.5-7.6-3-3.6-9.3-10.4-14-15.2-5-5-10.8-10-14-12-2.9-2-7.5-4.3-10.2-5.2a44 44 0 0 0-13.1-2c-4.6 0-8.9.1-9.8.5Zm279.1 49.2a121 121 0 0 0 14.9 6.5c3.4 1 9 2.5 12.7 3.3a149.1 149.1 0 0 0 34.5 2.1 147.3 147.3 0 0 0 19.1-2.7 7 7 0 0 1-1 2.6c-.8 1.7-2 2.7-4 3.5-1.6.6-3.7 1.7-4.8 2.4-1.2.8-2 2-2 3s.5 2 1.1 2.5c.7.6 2.2.8 4.6.5l3.6-.5v2.5c0 2.4-.2 2.6-5.2 5a95.6 95.6 0 0 1-10 4.3 79 79 0 0 1-39.8 2.4 52 52 0 0 1-10.1-3.5 50.7 50.7 0 0 1-15.1-10.3l-2.5-2.6 3.6 1.4a60 60 0 0 0 16.8 3.4 3 3 0 0 0 2.4-2.3c.3-1.5 0-2.2-1.2-3.2-.8-.7-2-1.3-2.5-1.3a95.1 95.1 0 0 1-20-6.9l-6.5-3.3-.5-3a23.8 23.8 0 0 1 .8-9.7c.2-.3.8-.6 1.4-.6.5 0 4.9 2 9.7 4.5Zm-207 14.7c.7.3 2 1.3 3 2.2 1 .8 2.1 2.6 2.7 4 .5 1.2 1 3.3 1 4.5 0 1.2-.6 3.3-1.2 4.7a14 14 0 0 1-3.5 4.2 13 13 0 0 1-5.2 2.2 14 14 0 0 1-5.2-.4c-1.3-.5-3.4-1.9-4.6-3.1a13.8 13.8 0 0 1-3-5 12.4 12.4 0 0 1 1.2-8.7c.4-.8 1.4-2 2.2-2.7.8-.7 2.6-1.8 4.1-2.3a11 11 0 0 1 4.9-.5c1.1.2 2.7.6 3.5 1Zm234 7.3c-.5.4-.9 1.5-.9 2.3 0 .8.4 1.9.9 2.3.5.5 1.7.9 2.8.9a5 5 0 0 0 3-1.1c.6-.6 1.1-1.5 1.1-2s-.5-1.5-1.2-2.1c-.8-.7-2.1-1.2-3.1-1.2s-2.1.4-2.6.9ZM307 536.4c.9.6 1.6 1.8 1.6 2.7a29 29 0 0 1-3.6 7.6l-4 7.3c-.4.7-1.2 1.3-1.7 1.3s-1.5-.7-2.3-1.5c-.8-.9-1.2-2.5-1.2-4.4a20.3 20.3 0 0 1 5.3-12.3c1.2-1 2.6-1.7 3.3-1.7.7 0 2 .5 2.8 1.1Zm78.4 34.6c3 4.4 6.7 9.5 8.2 11.4 1.7 2.4 2.1 3.3 1.2 2.8l-6.4-4.4c-2.7-2-5.6-3.8-6.5-4-.9-.3-2.1-.3-2.7 0a3 3 0 0 0-1.5 1.4 7 7 0 0 0 0 2.9c.3 1.2 3 3.4 9.5 7.7 5 3.3 12.2 7.6 16 9.7 5.2 2.6 9 5.4 14.3 10a195.3 195.3 0 0 0 41.6 28.3c3.3 1.7 8.4 4 11.2 5a173.1 173.1 0 0 0 39.4 10.2c2.3.5 2.9 1 4.4 4 1 2 2.3 5.5 2.8 8a123 123 0 0 1 1.8 10.5 615.2 615.2 0 0 1 3 53.5l.2 13.5-2.8.5a201.8 201.8 0 0 1-36.9-.4 211.8 211.8 0 0 1-27.2-6 259.3 259.3 0 0 1-38.2-15.6c-7-3.5-17-8.8-22.3-11.8a298.6 298.6 0 0 1-35.1-23.6 310.3 310.3 0 0 1-35.4-34.8 21.3 21.3 0 0 1-4.1-8.5c-.8-3.6-.7-5 .7-11.8a146 146 0 0 1 3.7-14.5 141.7 141.7 0 0 1 11-25.3c1.9-3.1 5.3-7.7 7.6-10.2a61.5 61.5 0 0 1 17.2-12.3 70.5 70.5 0 0 1 17-4.1c2.8 0 2.9 0 8.3 7.9Zm-17.4-1.6c-.7.4-1.2 1.6-1.2 2.7 0 1 .4 2.3.8 2.8.5.5 1.7.9 2.7.9 1 0 2.3-.4 2.7-.9.5-.5.9-1.5.9-2.4 0-.8-.6-2-1.3-2.7a4.8 4.8 0 0 0-2.3-1.1c-.6 0-1.6.3-2.3.7Zm457.4 57.2a107.7 107.7 0 0 1 22.4 6.7 55.7 55.7 0 0 1 18.1 12.6 33 33 0 0 1 5.5 7.8c1 2 2 5.6 2.5 8a21 21 0 0 1 0 8.5 42 42 0 0 1-2.6 8.1c-1 2.1-3 5.3-4.7 7a28.2 28.2 0 0 1-7 5.3c-3.3 1.6-4.9 2-9.3 1.9-3 0-10.6-.9-17-2-6.5-1-14.6-2-18.1-2.2a67.3 67.3 0 0 0-56.7 24.8 160.4 160.4 0 0 0-20 32 257 257 0 0 0-9.3 21.3c-1.8 5-4.6 14.4-6.2 20.7l-3 11.5-5-4.7a89.7 89.7 0 0 0-8.5-7.2l-3.6-2.5-.8-5.8a100.5 100.5 0 0 0-10.5-30.7l-4.5-9.3 1.7-8.4c1-4.6 2.7-11.5 4-15.4a154.7 154.7 0 0 1 12.4-29.6c2-3.8 5.6-9.2 7.8-12a131.9 131.9 0 0 1 18-18.7c3-2.5 8.4-6.5 12-9a156.4 156.4 0 0 1 28.2-13.8 148.8 148.8 0 0 1 27.3-6 109.3 109.3 0 0 1 27 1.1ZM605 651.4a214.7 214.7 0 0 1-.9 32c-.4 3.5-1.4 6.5-2.9 9.3a86.5 86.5 0 0 1-16.3 20.3c-3.4 3.3-9 7.8-12.2 10a129 129 0 0 1-21.5 11.1 125.5 125.5 0 0 1-19.8 5.7c-.7 0-1-2.2-1.4-7.7a2127.9 2127.9 0 0 0-4.4-63.8c-.6-4-1.6-9-2.3-11l-1.3-3.8h15a201.9 201.9 0 0 0 41.2-4.3c4.7-1 12.2-2.8 16.7-4.1 4.5-1.4 8.5-2.4 8.9-2.3.4.1 1 4 1.2 8.6Zm-272.4 50.4c-.6.7-1.1 1.5-1.1 2a6 6 0 0 0 1.1 2.4c.6 1 1.8 1.6 2.7 1.6.9 0 2-.4 2.4-.8a4 4 0 0 0 .9-2.4c0-.8-.6-2-1.3-2.7a4.5 4.5 0 0 0-2.4-1.2c-.7 0-1.7.5-2.3 1.1Zm17.1 31c-.8 1.3-.8 3-.3 8.4a86 86 0 0 1-1.3 24.1 184 184 0 0 1-14.1 45.8 134 134 0 0 1-21 30.1c-.3 0-.7-1.4-1-3.3-.3-1.8-1.3-5.8-2.2-8.8-1-3-2.2-5.8-2.8-6.2-.5-.5-1.7-.8-2.6-.6-.8 0-1.9.7-2.3 1.4-.5.9-.3 2.9 1 7.8a72 72 0 0 1 2 16.2 74.7 74.7 0 0 1-4.1 29.2 112 112 0 0 1-11.6 23.6 19 19 0 0 1-4 5l-4.2-5a24 24 0 0 0-5.8-5.2c-1.5-.7-2.4-.7-3.5 0a3 3 0 0 0-1.5 2.5c0 1.3 1.4 3.4 4.3 6.6a81.5 81.5 0 0 1 14.8 22.4c1.3 3 3 7.8 3.6 10.7.8 2.8 1.7 8.4 2.2 12.3a50 50 0 0 1 0 13.4c-.4 3.4-1.3 8.1-2 10.4-.5 2.2-1.3 4.2-1.6 4.4-.3.2-2.5-.8-4.8-2.2a24.5 24.5 0 0 0-7.1-3c-2.5-.3-3 0-4 1.4-.6 1-1 2.3-.7 3 .2.6 3 2.6 6.2 4.5a66 66 0 0 1 10.4 7.8l4.6 4.5h9l-1-2c-.7-1.2-2.2-3.4-3.6-5l-2.4-3 1.7-5.1c1-2.9 2.2-8.4 2.8-12.3.7-4.4 1-9.2.7-12.7-.3-5-.3-5.5.9-5l9.8 2.8a424.6 424.6 0 0 0 40.4 8.5 836 836 0 0 0 28.7 3.7c12.7 1.4 22.2 1.9 39.5 2.2l22.8.3 1.1-1.6c.8-1.1 1-2 .5-2.8a4.3 4.3 0 0 0-2-1.7A368 368 0 0 0 421 959a605 605 0 0 1-33.8-1.7 450.6 450.6 0 0 1-44.4-6.5 448.7 448.7 0 0 1-34.3-8.8l-6.6-2.1-1.3-4.8a97.9 97.9 0 0 0-8.3-19.9l-1.8-3 4.4-6.7a117.4 117.4 0 0 0 16.2-37.8c.6-3 1.3-8.2 1.6-11.4.5-5.2.7-5.8 2.1-6.2 1-.2 3-2 4.7-4 2.4-3 3.1-3.4 3.6-2.5.3.6 2.8 1.7 5.4 2.5A394.5 394.5 0 0 0 367 855a828 828 0 0 0 59.3 8.6c5.8.6 18.4 1.3 27.8 1.5 13.3.3 17.5.2 18.3-.5.6-.4 1-1.6 1-2.5 0-1-.5-2-1.5-2.5-1-.6-7.4-1-17.2-1.4a485.6 485.6 0 0 1-86.6-10.7 631.2 631.2 0 0 1-36-8.5 26 26 0 0 1-4.9-1.7l3.9-5.9a137.4 137.4 0 0 0 18.7-41c1.2-4 3-11 4-15.6 1.1-4.7 2-8.6 2.2-8.8.2-.1 1.8.1 3.6.6 1.8.4 5.7 1 8.6 1.1l11 1c3.3.4 11 1 17.3 1.5a1354.4 1354.4 0 0 0 77 2.1c17.3 0 19.1 0 20.6-1.3 1.1-.9 1.4-1.7 1.1-2.7-.3-.8-1-1.7-1.7-2-.6-.3-14.5-.8-30.7-1.1-16.2-.4-36.3-1-44.7-1.4a394.3 394.3 0 0 1-54.3-5.4l-6-1.3c-.9-.3-1-1.5-.9-5.8a61 61 0 0 0-2.4-18.6c-.6-.8-1.7-1.5-2.4-1.5-.8 0-1.9.7-2.4 1.5ZM562 770.2c-.7.7-1.2 2-1.2 2.7 0 .7.4 1.8.9 2.2.4.5 1.8.9 3 .9s2.6-.4 3-.9c.5-.4 1-1.7 1-2.8 0-1.2-.6-2.2-1.4-2.7a7 7 0 0 0-2.8-.7 4 4 0 0 0-2.5 1.3Zm-38.8 4c-.8 1-.7 3 .6 11.2.9 5.6 2 14.6 2.4 20 .6 7.4.6 12.5 0 20-.5 5.6-1.7 14.5-2.7 20-1 5.3-1.7 10.5-1.6 11.4.1 1 .7 2 1.4 2.5.6.4 1.9.5 2.9.2 1-.2 2-1.2 2.5-2.2.5-1 1.5-5.3 2.2-9.5a169.5 169.5 0 0 0 2.7-37.7c-.3-9.9-1-16.7-2.1-23.6-1-5.4-2.3-10.6-3-11.6-.6-1-1.8-1.8-2.8-1.8-.9 0-2 .5-2.5 1.2Zm141.5 5.3a6.6 6.6 0 0 0-2.8 3.3c-.3 1-.1 2.4.2 3 .4.7 1.5 1.3 2.5 1.4.9 0 3-.6 4.9-1.5 2.4-1.2 3.2-2 3.4-3.4 0-1-.3-2.4-1-3a5 5 0 0 0-3-1.2c-1 0-3 .6-4.2 1.4Zm-372 22.5c-.6.7-1 1.8-1 2.6 0 .7.6 2.6 1.3 4.1a26 26 0 0 0 2.6 3.9c.6.6 1.9 1.1 2.8 1.1 1.2 0 2-.6 2.6-1.8.6-1.3.6-2.4-.2-4.8a14 14 0 0 0-2.6-4.6c-.8-.8-2.2-1.6-3-1.6-.7 0-1.8.5-2.5 1.1Zm295 58c-1.9.7-2.5 1.4-2.7 2.8-.2 1.4.3 2.3 1.6 3.1 1.3.9 2.5 1 4.3.8 1.5-.3 3-1.2 3.6-2.2.6-.9.8-2.1.6-2.8-.3-.7-1.3-1.5-2.2-1.9a9 9 0 0 0-2.2-.6l-3 .9Zm-68.1 3.8c-.7.8-.7 3.6 0 13.5a236.1 236.1 0 0 1-1.9 43.7 177.4 177.4 0 0 1-7.4 28.6 43.7 43.7 0 0 0-2.1 8.2c0 1 .4 2.3.8 2.7a4 4 0 0 0 2.4.9c.8 0 2-.6 2.6-1.3.6-.6 1.9-3.3 2.9-5.8a181.5 181.5 0 0 0 9.7-44 256 256 0 0 0 0-38.4 26 26 0 0 0-1.8-7.6c-.6-1-1.8-1.6-2.7-1.6-1 0-2 .5-2.5 1ZM251 881.4a3.7 3.7 0 0 0 0 3.4 10 10 0 0 0 4 3.3c2.8 1.3 3.7 1.5 5.1.9 1.2-.6 1.7-1.4 1.7-2.7 0-1.2-.9-2.7-2.5-4.3-1.9-1.7-3.2-2.4-5-2.4-2 0-2.6.4-3.3 1.8ZM704.8 914c-1.3 1-2.5 2.4-2.7 3.3 0 .8.2 2 .7 2.6.4.6 1.8 1 3 1a16 16 0 0 0 5.3-1.4c2.5-1.1 3-1.7 3-3.4 0-1-.4-2.4-.9-2.8-.4-.5-2-.9-3.4-.9a10 10 0 0 0-5 1.6Zm-132.4 46.6c-.8.4-1.9 1.2-2.4 1.8-.7.9-.8 1.6-.2 2.9.5 1 1.6 2 2.6 2.2a8 8 0 0 0 3.7-.2 4.5 4.5 0 0 0 2.7-2.6c.5-1.4.4-2.2-.7-3.3-.7-.8-2-1.4-2.8-1.4-.8 0-2 .3-2.9.6ZM253 964.7a8 8 0 0 0-2.3 1c-.5.4-.9 1.5-.9 2.4 0 1 .7 2.1 1.6 2.7 1 .6 3.8 1.4 6.4 2 3.9.6 5 .6 5.9-.1.6-.6 1-1.8 1-2.8a6 6 0 0 0-2-3c-1-.8-3.3-1.6-5-2a17 17 0 0 0-4.7-.2Zm255.1 3.5c-.6.7-1.3 3.3-1.6 5.9a99.7 99.7 0 0 1-4.3 18.6c-.2.7-.2 1 .4 1.1.5.1 1.5.1 3.2 0l4.2-.2 1.6-6.4c1-3.5 1.9-8.9 2.1-11.9.4-4.7.3-5.7-.8-7-.7-.7-1.8-1.3-2.5-1.3s-1.7.5-2.3 1.2Z" clip-rule="evenodd"/>
    <path fill="#fff" fill-rule="evenodd" d="m609.6 993.8-4.6.2h160.4l.7-3.8c.3-2 .4-7 .1-11.2a194.9 194.9 0 0 0-5-31.2 70.2 70.2 0 0 0-13.1-26.2 23 23 0 0 0-7.5-6.6c-1.8-.8-4.6-1.4-6.3-1.4a8 8 0 0 1-4.7-1.2c-1.1-1-1.4-1.7-1-3 .2-1 1.2-2.2 2.2-2.7a17.2 17.2 0 0 1 9.8-.2c1.7.7 1.8.6 2.6-2.6a146.3 146.3 0 0 0 .7-33.9 135 135 0 0 0-14.8-44.4 119.9 119.9 0 0 0-17.4-23.5 82.4 82.4 0 0 0-22.5-15.9 18.9 18.9 0 0 1-5.8-3.5c-.5-.8-.4-1.8 0-2.9.7-1.3 1.4-1.7 3.2-1.7 1.4 0 3.8.5 5.4 1l3 1-.5-3a139.4 139.4 0 0 0-10.2-28 205 205 0 0 0-9-15A138.5 138.5 0 0 0 649 708a122.9 122.9 0 0 0-24.5-12.9 28 28 0 0 1-5.8-2.6 6.1 6.1 0 0 1-1.6-3c-.2-1-1.4-3.6-2.7-5.7l-2.3-4-.6 4.5c-.5 4-.4 4.8 1.2 8.2 1 2 2.7 6.7 3.9 10.5a179 179 0 0 1 6.1 29.1c.6 4.9 1.3 13.5 1.6 19.1.4 9.7.5 10.5 2.4 13.5 1 1.8 3 5.7 4.1 8.7a149.4 149.4 0 0 1 7.9 29.7c.8 4.5 1.8 11.6 2.3 16 .4 4.2.8 14.1.7 22a479.5 479.5 0 0 0 .2 39.4 134 134 0 0 1-.6 23.9 191.5 191.5 0 0 1-7.6 35.9c-1.5 4.6-4.3 11.3-6.2 14.9l-5 9.4c-.8 1.5-2.1 6.5-3 11a86 86 0 0 1-3.4 13l-2 5.1-4.6.2Zm52.2-211c.3-1 1.5-2.5 2.8-3.3a10 10 0 0 1 4.2-1.4c1 0 2.4.5 3 1.2.7.6 1 2 1 3-.2 1.4-1 2.2-3.4 3.4-1.8.9-4 1.5-5 1.5-.9-.1-2-.7-2.4-1.3-.4-.7-.5-2-.2-3Zm40.3 134.4c.2-1 1.4-2.4 2.7-3.3a10 10 0 0 1 5-1.6c1.4 0 3 .4 3.4.9.5.4.9 1.7.9 2.8 0 1.7-.5 2.3-3 3.4a16 16 0 0 1-5.3 1.4c-1.2 0-2.6-.4-3-1a4 4 0 0 1-.7-2.6Z" clip-rule="evenodd"/>
    <path fill="#fff" fill-rule="evenodd" d="M134.7 992.9c-.6.8-2.3 1-6.6 1h168l-4.5-4.4a66 66 0 0 0-10.4-7.8 25 25 0 0 1-6.2-4.5 4 4 0 0 1 .7-3c1-1.5 1.5-1.7 4-1.3 1.5.2 4.7 1.5 7 2.9 2.4 1.4 4.6 2.4 4.9 2.2.3-.2 1-2.2 1.7-4.4a54.8 54.8 0 0 0 1.9-23.8 79.2 79.2 0 0 0-5.8-23 81.5 81.5 0 0 0-14.8-22.4c-2.9-3.2-4.3-5.3-4.3-6.6a3 3 0 0 1 1.5-2.6c1.1-.6 2-.6 3.5 0a24 24 0 0 1 5.8 5.3l4.2 5c.2.2 2-2 4-5a112 112 0 0 0 11.5-23.5 74.7 74.7 0 0 0 4-29.2 72 72 0 0 0-1.9-16.3c-1.2-5-1.4-6.9-.9-7.8.4-.7 1.5-1.3 2.3-1.4.9-.2 2 .1 2.6.6.6.4 1.8 3.3 2.8 6.2.9 3 1.9 7 2.2 8.8.3 1.9.7 3.4 1 3.4a134 134 0 0 0 13-16.1 148.1 148.1 0 0 0 14.6-30.4 184 184 0 0 0 9-41.5c.2-3 .1-8.4-.2-12.1-.5-5.4-.5-7 .3-8.4.5-.8 1.6-1.5 2.4-1.5.7 0 1.8.7 2.4 1.5a60.1 60.1 0 0 1 2.4 18.6c-.2 4.4 0 5.5.9 5.8a125.7 125.7 0 0 0 19.1 3.4A394.3 394.3 0 0 0 418 764c8.4.4 28.5 1 44.7 1.4 16.2.3 30 .8 30.7 1 .7.4 1.4 1.3 1.7 2 .3 1.1 0 2-1.1 2.8-1.5 1.2-3.3 1.3-20.5 1.3a1754 1754 0 0 1-77.1-2.1c-6.3-.4-14-1-17.2-1.5a223 223 0 0 0-11.1-1c-3-.1-6.8-.7-8.6-1.1a12 12 0 0 0-3.6-.6 291 291 0 0 1-6.2 24.3 183.7 183.7 0 0 1-11.3 28.5 137.4 137.4 0 0 1-11.3 18.5c0 .2 2.2 1 4.8 1.7a401 401 0 0 0 36 8.5 744 744 0 0 0 59.7 9c6.2.6 18.4 1.4 27 1.7a94 94 0 0 1 17.2 1.4 3 3 0 0 1 1.6 2.5c0 .9-.5 2-1 2.5-1 .7-5.1.8-18.4.5a415.8 415.8 0 0 1-56.2-5.2 590.8 590.8 0 0 1-69.4-13.8 15 15 0 0 1-5.4-2.5c-.5-.9-1.2-.4-3.6 2.5-1.7 2-3.8 3.8-4.7 4-1.4.4-1.6 1-2 6.2-.4 3.2-1 8.3-1.6 11.4a110.8 110.8 0 0 1-9 25.5c-1.6 3-4.8 8.6-7.3 12.3l-4.4 6.7 1.8 3a98 98 0 0 1 8.3 19.9l1.3 4.8 6.6 2.1a357 357 0 0 0 55.7 12.4 736 736 0 0 0 23 2.9c5.9.6 21 1.4 33.8 1.7 12.7.4 23.6.9 24.3 1.2.7.2 1.5 1 2 1.7.4.8.2 1.7-.6 2.8l-1.1 1.6-22.8-.3c-17.3-.3-26.8-.8-39.5-2.2a451.5 451.5 0 0 1-50.6-7.7 424.6 424.6 0 0 1-28.4-7.3c-1-.5-1.1 0-.8 5a83.5 83.5 0 0 1-3.5 25l-1.7 5.1 2.4 3c1.4 1.6 3 3.8 3.5 5l1 2 197.4-.2c-.6-.1-.6-.4-.4-1a119.7 119.7 0 0 0 4.3-18.7c.3-2.6 1-5.2 1.6-5.9.6-.7 1.6-1.2 2.3-1.2.7 0 1.8.6 2.5 1.4 1 1.2 1.2 2.2.8 7a94 94 0 0 1-2 11.8l-1.7 6.4-4.2.2 99.3.2 2.4-4.9a64.6 64.6 0 0 0 5.4-18.6l.5-3.2-9.2.3c-5.8.1-9.7-.1-10.7-.6a3 3 0 0 1-1.4-2.5c0-.9.4-2 .9-2.4.5-.4 6-1.2 12.1-1.8 9.2-.9 11.4-1.3 12.2-2.4a114.1 114.1 0 0 0 13.3-36.4c1-4.9 2.3-11.7 2.8-15.2.5-3.9.9-12.7.9-22 0-8.6-.3-16.9-.6-18.4l-.5-2.7-9.9.2c-7.3.2-10 0-11-.7a3.8 3.8 0 0 1-1-2.7c0-1 .6-2 1.6-2.7a32 32 0 0 1 11-1.5c9.3-.5 9.4-.5 9.9-2.4a277 277 0 0 0-.5-33 230.8 230.8 0 0 0-6.5-35.5 92.6 92.6 0 0 0-5-13.6l-2.7-5.8-5.9 1a596 596 0 0 1-14 2c-7.2 1-8.2 1-9.7 0-1-.6-1.7-1.5-1.7-2s.4-1.4.9-2c.6-.9 4.5-2 12.2-3.4l13.3-2.6c1.5-.3 2-.8 2.3-3 .2-1.5 0-7-.3-12.2a179.8 179.8 0 0 0-5.7-34.8 88 88 0 0 0-2.5-7.4l-1.1-2.6-3.6 5.2a119.4 119.4 0 0 1-25.4 24.6c-3.7 2.5-9.8 6-13.5 8a139.5 139.5 0 0 1-33.8 11.5 44 44 0 0 1 .3 19.3c-.5 1-1.6 2-2.4 2.2-1 .2-2.3 0-3-.3-1.3-.7-1.5-1.7-1.7-10-.1-5-.5-9.4-.7-9.6-.3-.3-3.1-.1-6.3.4-3.9.5-10.3.7-18.4.4a146.3 146.3 0 0 1-34.5-4.8 286.9 286.9 0 0 1-31.7-10.7 412.7 412.7 0 0 1-63.9-34.6 252.2 252.2 0 0 1-24.7-19.5c-4-3.6-11.1-10.4-15.7-15.2a130 130 0 0 1-11.1-12.9l-3.5-5.4c-.7-1.3-1.1-1.3-6.7-.5a172.8 172.8 0 0 0-22.3 5.1l-2.1.8 5.3 2.4a120 120 0 0 1 20.6 12 98.4 98.4 0 0 1 15.9 16.1c1.7 2.3 3.1 4.7 3.1 5.4 0 .6-.4 1.6-.8 2a4 4 0 0 1-2.4.9c-1 0-2.6-1.3-4.6-4a87.4 87.4 0 0 0-39.1-28.1 27 27 0 0 0-7.3-2c-1.8 0-4.3 1-8.4 3.5a123.8 123.8 0 0 0-33.3 30.2 108.5 108.5 0 0 0-12 23c-1 3-2.7 8.6-3.5 12.4-.8 3.8-1.5 8.3-1.5 10v3.1l3.4.5c1.8.3 5 1.1 7 2 2.2.7 4.2 2 4.6 2.7.6 1.1.5 1.9-.4 3.2-.6 1-1.6 1.7-2.2 1.7-.6 0-3.1-.5-5.5-1.1-2.8-.7-6.3-1-9.7-.9a25 25 0 0 0-11.7 3.3 96.3 96.3 0 0 0-36.7 30.3 105 105 0 0 0-10.8 21.9 117.1 117.1 0 0 0-5 27.8 98.2 98.2 0 0 0 2.3 26c.9 3.7 1.6 5.2 2.3 5.1.6 0 3.1-.6 5.6-1.3 2.8-.8 5.5-1 6.6-.8a3 3 0 0 1 2.4 2.3c.3 1.3 0 2.2-.9 3-.7.8-3.2 1.9-5.6 2.6a64 64 0 0 0-6.9 2.6c-1.5.8-5 3.5-7.7 6a73.3 73.3 0 0 0-16.6 24.5 96.9 96.9 0 0 0-8.3 25 87.4 87.4 0 0 0 6 43.2c1.5 3.6 3.6 8.3 4.8 10.6l2.2 4 5.1-2.3c2.8-1.3 6.8-2.9 9-3.4a16 16 0 0 1 5.1-.6c.8.1 1.7 1 2 1.7.6 1 .5 1.8-.2 3-.7 1-3 2.2-5.6 3.2-2.5.9-6.4 2.7-8.8 4a27.9 27.9 0 0 0-5.3 3.5Zm196.7-289c0-.6.5-1.4 1.1-2 .6-.7 1.6-1.2 2.3-1.2.6 0 1.7.6 2.4 1.2s1.3 1.9 1.3 2.7a4 4 0 0 1-.9 2.4 4 4 0 0 1-2.4.8c-.9 0-2.1-.7-2.7-1.6a6 6 0 0 1-1.1-2.4Zm229.3 69c0-.8.5-2 1.2-2.7a4 4 0 0 1 2.5-1.3c.8 0 2 .3 2.8.7.8.5 1.3 1.5 1.3 2.7 0 1-.4 2.4-.8 2.8-.5.5-1.9.9-3 .9-1.3 0-2.7-.4-3.1-.9-.5-.4-.9-1.5-.9-2.2Zm-37 12.5c-1.3-8.3-1.4-10.2-.6-11.1.5-.7 1.6-1.2 2.5-1.2 1 0 2.2.8 2.9 1.8.6 1 2 6.2 2.9 11.6 1.2 7 1.8 13.7 2.1 23.7a169.5 169.5 0 0 1-2.7 37.6c-.7 4.2-1.7 8.5-2.2 9.5a4.1 4.1 0 0 1-5.5 2c-.6-.4-1.2-1.5-1.3-2.5-.1-1 .6-6.1 1.6-11.5s2.2-14.3 2.6-19.9c.7-7.5.7-12.6 0-20-.4-5.4-1.4-14.4-2.3-20Zm-232 19c0-.7.4-1.8 1-2.5.7-.6 1.8-1 2.6-1 .7 0 2 .7 3 1.5.8 1 2 3 2.5 4.6.8 2.4.8 3.5.2 4.8-.6 1.2-1.4 1.8-2.6 1.8-1 0-2.2-.5-2.8-1.1a19.4 19.4 0 0 1-4-8ZM585 862.8c.2-1.4.8-2 2.7-2.7l3-1a9 9 0 0 1 2.2.7c1 .4 2 1.2 2.2 1.9.2.7 0 2-.6 2.8a6 6 0 0 1-7.9 1.4c-1.3-.8-1.8-1.7-1.6-3Zm-65.4 14.5c-.7-9.9-.7-12.7 0-13.5.4-.6 1.6-1.1 2.5-1.1 1 0 2.1.7 2.7 1.6a26 26 0 0 1 1.8 7.6 256 256 0 0 1 0 38.5 259 259 0 0 1-1.8 13.7 215.2 215.2 0 0 1-8 30.2c-1 2.5-2.2 5.2-2.8 5.8a4 4 0 0 1-2.6 1.3 4 4 0 0 1-2.4-.9c-.4-.4-.8-1.6-.8-2.7 0-1 1-4.7 2.1-8.2a177.4 177.4 0 0 0 7.4-28.7c.6-3.6 1.5-12.1 2-18.9.7-9.8.6-14.7-.1-24.7ZM251 884.8a3.7 3.7 0 0 1 0-3.4c.7-1.4 1.4-1.8 3.3-1.8 1.8 0 3.1.7 5 2.4 1.6 1.6 2.5 3 2.5 4.3 0 1.3-.5 2.1-1.7 2.7-1.4.6-2.3.4-5-1-2-.8-3.7-2.3-4.1-3.2Zm319 77.5c.5-.6 1.6-1.4 2.4-1.8a10 10 0 0 1 3-.6c.8 0 2 .6 2.7 1.4 1 1.1 1.2 1.9.7 3.3a4.5 4.5 0 0 1-2.7 2.6 8 8 0 0 1-3.7.2c-1-.3-2.1-1.2-2.6-2.2-.6-1.3-.5-2 .2-2.9Zm-319.4 3.4a8 8 0 0 1 2.3-1 17 17 0 0 1 9.6 2.2c1 .7 1.9 2 2 3 .1 1-.3 2.2-1 2.8-.8.7-2 .7-5.8 0a25 25 0 0 1-6.4-1.9c-.9-.6-1.6-1.7-1.6-2.7 0-1 .4-2 1-2.4Z" clip-rule="evenodd"/>
    <path fill="#FFD9B8" d="M825.5 626.6a107.7 107.7 0 0 1 22.4 6.7 55.7 55.7 0 0 1 18.1 12.6 33 33 0 0 1 5.5 7.8c1 2 2 5.6 2.5 8a21 21 0 0 1 0 8.5 42 42 0 0 1-2.6 8.1c-1 2.1-3 5.3-4.7 7a28.2 28.2 0 0 1-7 5.3c-3.3 1.6-4.9 2-9.3 1.9-3 0-10.6-.9-17-2-6.5-1-14.6-2-18.1-2.2a67.3 67.3 0 0 0-56.7 24.8 160.4 160.4 0 0 0-20 32 257 257 0 0 0-9.3 21.3c-1.8 5-4.6 14.4-6.2 20.7l-3 11.5-5-4.7a89.7 89.7 0 0 0-8.5-7.2l-3.6-2.5-.8-5.8a100.5 100.5 0 0 0-10.5-30.7l-4.5-9.3 1.7-8.4c1-4.6 2.7-11.5 4-15.4a154.7 154.7 0 0 1 12.4-29.6c2-3.8 5.6-9.2 7.8-12a131.9 131.9 0 0 1 18-18.7c3-2.5 8.4-6.5 12-9a156.4 156.4 0 0 1 28.2-13.8 148.8 148.8 0 0 1 27.3-6 109.3 109.3 0 0 1 27 1.1Z"/>
    <path fill="#FEFFB9" d="M639.2 449c1.1 1 3.5 2.7 5.3 3.5 2.6 1.2 4.9 1.5 12.4 1.7 5.1 0 16-.4 24.2-1.1 10.4-1 15-1 15.4-.6a248.8 248.8 0 0 1 8.4 24.8c1.1 4.4 2.7 11.7 3.5 16.4.8 4.6 1.4 11 1.4 14.2a116.1 116.1 0 0 1-12 50.4c-2 4-5.5 10.3-8 14a111 111 0 0 1-14 16.3 214 214 0 0 1-17 15 125.7 125.7 0 0 1-29.7 17.5c-4.1 1.7-11.1 4-15.4 5-4.4 1.2-12 2.6-17.1 3.3a188 188 0 0 1-23.5 1.2 186.8 186.8 0 0 1-36.5-3.4 121 121 0 0 1-22.4-7.7 108 108 0 0 1-12-6.7 85 85 0 0 1-17.9-16.4c-1.5-2.2-3.9-5.7-5-7.9-1.3-2.1-3-6.1-3.9-8.8-1.3-4-1.6-6.5-1.6-12.1 0-6.3.6-9 4.2-22.7l4.2-15.6v-11.4c0-8.9-.2-12.4-1.2-16a49.2 49.2 0 0 0-10.2-19.1 38.9 38.9 0 0 0-7.1-6.2c-1.7-1-3-2-3-2a1423.8 1423.8 0 0 1 31.8-3.2c5.3-.5 15.4-1.4 22.4-2.2a454.9 454.9 0 0 0 37.7-6c4.4-.9 8.9-2.1 10-2.8 1.1-.6 2.6-1.5 3.2-2 1-.6 2-.5 5.2.5a94.3 94.3 0 0 0 26.2 3.1l6.4-.2.6 2.1 3 14a547.7 547.7 0 0 1 5.8 32.5l.4 2.4-7.7-.5a140.8 140.8 0 0 1-27.2-4.4c-3.3-1-11-4.2-17-7.1-8.4-4.2-11.6-5.4-14-5.4a8 8 0 0 0-5 1.3 14 14 0 0 0-3.3 4c-.7 1.5-1.5 4.7-1.7 7.1a36 36 0 0 0 .5 8.5 45 45 0 0 0 3.2 9 51.1 51.1 0 0 0 17.4 18.4 75 75 0 0 0 22.2 9.7 83.3 83.3 0 0 0 24.9 1.1 87.5 87.5 0 0 0 34-11.5 73 73 0 0 0 8.4-6.1c2.2-2 3.5-3.7 3.5-4.7 0-.9-.4-2-.9-2.4-.4-.5-1.5-.9-2.3-.9-.8 0-2.2.5-3 1.1-1.6 1.1-1.6 1-1.6-2.2 0-1.9.6-4.4 1.5-6.2a26.4 26.4 0 0 1 9.4-11.3c2-1.3 5-3.6 6.7-5 1.6-1.6 3-3.4 3-4 0-.7-.4-1.6-.9-2-.4-.5-1.4-1-2-1a36 36 0 0 0-7.6 3.6c-3.4 2-8 4.3-10.1 5a84.5 84.5 0 0 1-19.7 4.6c-5 .6-5.2.5-5.2-1a338.8 338.8 0 0 0-6.7-37.3c-1.7-7-3-13-2.8-13.3.2-.3.8-.6 1.3-.6s3.1-1 5.8-2.4a46.4 46.4 0 0 0 14.6-11.6l2.4-3 1.7 2.3c1 1.3 2.8 3.2 4 4.4Z"/>
    <path fill="#fff" fill-rule="evenodd" d="M557.3 507.8a121 121 0 0 0 14.9 6.5c3.4 1 9 2.5 12.7 3.3a149.1 149.1 0 0 0 34.5 2.1 147.3 147.3 0 0 0 19.1-2.7 7 7 0 0 1-1 2.6c-.8 1.7-2 2.7-4 3.5-1.6.6-3.7 1.7-4.8 2.4-1.2.8-2 2-2 3s.5 2 1.1 2.5c.7.6 2.2.8 4.6.5l3.6-.5v2.5c0 2.4-.2 2.6-5.2 5a95.6 95.6 0 0 1-10 4.3 79 79 0 0 1-39.8 2.4 52 52 0 0 1-10.1-3.5 50.7 50.7 0 0 1-15.1-10.3l-2.5-2.6 3.6 1.4a60 60 0 0 0 16.8 3.4 3 3 0 0 0 2.4-2.3c.3-1.5 0-2.2-1.2-3.2-.8-.7-2-1.3-2.5-1.3a95.1 95.1 0 0 1-20-6.9l-6.5-3.3-.5-3a23.8 23.8 0 0 1 .8-9.7c.2-.3.8-.6 1.4-.6.5 0 4.9 2 9.7 4.5Zm26.1 24.3c0-.8.4-1.9.9-2.3.5-.5 1.6-.9 2.6-.9s2.3.5 3 1.2c.8.6 1.4 1.6 1.4 2 0 .6-.6 1.5-1.2 2a5 5 0 0 1-3 1.2c-1 0-2.3-.4-2.8-.9-.5-.4-.9-1.5-.9-2.3Z" clip-rule="evenodd"/>
    <path fill="#fff" d="M604.9 651.4a214.7 214.7 0 0 1-.9 32c-.4 3.5-1.4 6.5-2.9 9.3a86.5 86.5 0 0 1-16.3 20.3c-3.4 3.3-9 7.8-12.2 10a129 129 0 0 1-21.5 11.1 125.5 125.5 0 0 1-19.8 5.7c-.7 0-1-2.2-1.4-7.7a2127.9 2127.9 0 0 0-4.4-63.8c-.6-4-1.6-9-2.3-11l-1.3-3.8h15a201.9 201.9 0 0 0 41.2-4.3c4.7-1 12.2-2.8 16.7-4.1 4.5-1.4 8.5-2.4 8.9-2.3.4.1 1 4 1.2 8.6Z"/>
    <path fill="#fff" fill-rule="evenodd" d="M385.5 571c3 4.4 6.7 9.5 8.2 11.4 1.7 2.4 2.1 3.3 1.2 2.8l-6.4-4.4c-2.7-2-5.6-3.8-6.5-4-.9-.3-2.1-.3-2.7 0a3 3 0 0 0-1.5 1.4 7 7 0 0 0 0 2.9c.3 1.2 3 3.4 9.5 7.7 5 3.3 12.2 7.6 16 9.7 5.2 2.6 9 5.4 14.3 10a195.3 195.3 0 0 0 41.6 28.3c3.3 1.7 8.4 4 11.2 5a173.1 173.1 0 0 0 39.4 10.2c2.3.5 2.9 1 4.4 4 1 2 2.3 5.5 2.8 8a123 123 0 0 1 1.8 10.5 615.2 615.2 0 0 1 3 53.5l.2 13.5-2.8.5a201.8 201.8 0 0 1-36.9-.4 211.8 211.8 0 0 1-27.2-6 259.3 259.3 0 0 1-38.2-15.6c-7-3.5-17-8.8-22.3-11.8a298.6 298.6 0 0 1-35.1-23.6 310.3 310.3 0 0 1-35.4-34.8 21.3 21.3 0 0 1-4.1-8.5c-.8-3.6-.7-5 .7-11.8a146 146 0 0 1 3.7-14.5 141.7 141.7 0 0 1 11-25.3c1.9-3.1 5.3-7.7 7.6-10.2a61.5 61.5 0 0 1 17.2-12.3 70.5 70.5 0 0 1 17-4.1c2.8 0 2.9 0 8.3 7.9Zm-18.6 1.1c0-1.1.5-2.3 1.2-2.7.7-.4 1.7-.7 2.3-.7.5 0 1.6.5 2.3 1.1.7.7 1.3 1.9 1.3 2.7 0 .9-.4 2-.9 2.4-.4.5-1.6.9-2.7.9-1 0-2.2-.4-2.7-.9-.4-.5-.8-1.7-.8-2.8Z" clip-rule="evenodd"/>
    <path fill="#FFD9B8" d="M378.7 439.6a58.5 58.5 0 0 0 12.5 15.5c2.4 2 6.3 5 8.6 6.5a109.3 109.3 0 0 0 23 11.2c3.4 1.1 10.5 3 15.8 4 5.3 1 11.5 2.4 13.8 3.2 2.4.7 5.9 2.5 7.8 4a36.2 36.2 0 0 1 11 15.6 47.2 47.2 0 0 1 3.2 21.5c-.1 3.3-.9 8.6-1.6 11.7-.7 3.1-2.5 10.2-4 15.6-2 7.3-2.7 12-3 17.5a43.4 43.4 0 0 0 4.7 23.8 77 77 0 0 0 5.3 9.1 96.2 96.2 0 0 0 26 23.1 108.2 108.2 0 0 0 27.5 11c4 1 10.4 2.3 14.5 2.9a242.5 242.5 0 0 0 56 0c1-.3.5 0-1 .7a263.6 263.6 0 0 1-30 7.3c-5 .9-14.1 1.9-20.5 2.3-8.8.7-14.3.6-22.8 0A238 238 0 0 1 507 644a214 214 0 0 1-13.4-2.8l-13-4a180.9 180.9 0 0 1-31.2-15 195.3 195.3 0 0 1-39-33 306 306 0 0 1-37.2-54l-4.9-9 1.5-3a52.4 52.4 0 0 0 4.5-23.4 86 86 0 0 0-.8-13.9 155 155 0 0 0-3.1-11.3c-1.3-4-4.7-12-7.8-18.1-3-6-5.3-11.1-5-11.2l9.4-4.4a101 101 0 0 1 9.6-4.3c.4 0 1.4 1.4 2.2 3Z"/>
    <path fill="#fff" fill-rule="evenodd" d="M740.9 346.4c1.3 1 3 3.4 4 5.3 1 2 2.2 5.4 2.8 7.6.6 2.1 1.8 7.2 2.6 11.3a420.8 420.8 0 0 1 5 39c.6 8.7.7 13 0 16.7-.6 4.2-1 5.3-3 6.9a30 30 0 0 1-8 3.7 138.2 138.2 0 0 1-21 4.7l-15.6 1.7-24.9 2.2c-7.6.6-18 1-23 1-7.4 0-9.8-.2-12.1-1.3a18 18 0 0 1-5.4-4.4 118 118 0 0 1-4.8-6.5 34 34 0 0 1-3.3-6.3c-.6-1.7-2.6-4.6-4.5-6.6a58 58 0 0 1-5.7-7.6 16 16 0 0 0-4.8-5.3c-2.2-1.3-3-1.2-21.3.6-18.2 1.8-19 2-20.8 3.7a24 24 0 0 0-3.6 7.3c-1.9 5.4-1.9 5.4-5 6.2-1.7.5-4.2 1.4-5.4 2a17 17 0 0 0-7.1 8.1c-.5 1.3-1 3.7-1 5.3 0 1.7.7 4.3 1.4 6 .7 1.5 1.8 3.2 2.4 3.7.7.6 1.2 1.3 1.2 1.6 0 .3-1 .9-2.3 1.3a425.8 425.8 0 0 1-48.1 8.2 1067 1067 0 0 1-47.6 4.3c-7.2.7-17.3 1-22.4.9-7.3-.3-9.9-.6-12-1.7-1.6-.7-3.6-2.4-4.4-3.8-1-1.3-2.4-4.8-3.3-7.8-1-3-2.5-9-3.3-13.3-1-4.6-2.4-9.3-3.5-11.3a11 11 0 0 0-5.3-5.2c-2.4-1.3-5-1.9-8.3-2-2.8-.2-6.4.1-9.1.8a160 160 0 0 0-12.6 4.3 227 227 0 0 0-24 11s-2-2.3-4-5.1a120 120 0 0 0-9.8-11.1c-4.6-4.7-5.8-6.2-5-6.6a4715.5 4715.5 0 0 1 36.9-20.8l21.9-11.7 13.7-7.1 8.6-1.1 12.6-1.4 12.7-1.4a2786.4 2786.4 0 0 1 70-7.9 56029.6 56029.6 0 0 1 72.4-7.4 645.1 645.1 0 0 1 22-2.1 1572.6 1572.6 0 0 1 33.7-3.2 2464.7 2464.7 0 0 1 36.6-3.2 216666 216666 0 0 1 38.7-3.4c3.3-.3 10-.5 14.9-.5 8.3 0 9 0 11.2 1.7ZM697 360a240.2 240.2 0 0 1 24-1.3c5.5-.2 7.9 0 9.5 1 1.3.6 2.7 2.2 3.5 4a108 108 0 0 1 3.2 13.6l3.2 19.5c.8 5 1.5 12.6 1.6 17.2.1 7.5 0 8.5-1.4 10.3-.8 1.1-3.2 2.7-5.4 3.6-2.2.9-7.6 2-12.7 2.6l-30.6 3.3c-12 1.1-24.7 2-28.3 2H657l-3.2-3.3a62 62 0 0 1-5.8-7.3 286.7 286.7 0 0 1-15.9-32 36 36 0 0 1-3-12.1c-.4-4.9-.2-6 1.4-9.3 1-2.1 2.8-4.2 4-5 1.4-.8 5.5-1.5 13.6-2.3l24.8-2.4c7.2-.8 18-1.7 24.1-2.1Zm-181.4 16.6a633 633 0 0 0 18.9-2c3.7-.6 8.5-.8 10.6-.6 2.1.2 4.8.8 5.9 1.3 1 .5 2.7 2.2 3.7 3.6 1 1.5 2 4.4 2.5 6.5a66.9 66.9 0 0 1-.4 22.8A252.4 252.4 0 0 1 549 439c-.6 1.3-1.8 3-2.5 3.7-.8.6-5.3 2.1-10 3.2a488.7 488.7 0 0 1-59.6 8.5 405 405 0 0 1-24.5 1.6c-5 0-8.8-.2-10.6-.8-1.6-.6-3.9-1.8-5.1-2.7-1.4-1-2.8-3.1-3.7-5.6a89 89 0 0 1-3-12 248 248 0 0 1-2-14.8c-.4-3.8-.8-11.2-.8-16.4 0-7 .2-10.2 1-12 .6-1.5 2-3.2 3.3-4a37 37 0 0 1 9.4-2.4 1139.9 1139.9 0 0 1 54.9-6.9l19.8-1.8Z" clip-rule="evenodd"/>
    <path fill="#FFD7EC" d="M727.5 369c.4 1.4 1.9 8.9 3.2 16.5 1.4 7.6 2.9 18.2 3.2 23.6.4 5.4.5 10.2.3 10.8-.2.5-1.8 1.3-3.7 1.7-1.8.5-8.7 1.4-15.4 2.2a1280 1280 0 0 1-49.2 4.5c-5 .3-5.4.2-7-1.5-1-1-3.1-4-4.8-6.5-1.7-2.6-4.7-8-6.7-12s-5.2-11-7-15.3c-2.8-6.8-3.3-8.6-3.3-13 0-3.6.3-5.4 1-6.2.8-.7 6.9-1.6 22.7-3.2 12-1.2 28-2.6 35.5-3.1 7.6-.6 17.6-1 22.2-1.1h8.3l.7 2.6Z"/>
    <path fill="#C6FFB9" d="M625.7 426.9a9.7 9.7 0 0 1 2.8 5.3c.4 2.3.2 3.7-1 6.2-.9 1.7-3.1 4.5-5 6.2a50 50 0 0 1-18.9 9.8 47 47 0 0 1-9.4 1.4 102.4 102.4 0 0 1-22.6-3.7c-2.2-.8-5-2.4-6.2-3.5-1.3-1.1-2.8-3-3.3-4.2a9.1 9.1 0 0 1-.4-4.5 9.3 9.3 0 0 1 2.4-4.2c1-1 2.8-2.2 4-2.6a45 45 0 0 1 15 0l8.1 1.4c4.4.6 6.2.5 9.6-.4a50 50 0 0 0 9.9-4.3c3-1.8 6.7-3.7 8.1-4.2 1.5-.5 3-1 3.6-1 .5 0 2 1 3.3 2.3Z"/>
    <path fill="#CEF0FF" d="M547.4 383.2c.7.7 1.5 2.7 1.9 4.4a56.8 56.8 0 0 1 0 18 238.4 238.4 0 0 1-7.4 29.6 8 8 0 0 1-1.8 2.5c-.5.3-4.3 1.3-8.5 2.2-4.3.9-13.8 2.4-21 3.4A776.7 776.7 0 0 1 461 448c-10.4.7-14.2.7-16.6 0a7.2 7.2 0 0 1-4.4-3 26 26 0 0 1-2.1-5.8 187.5 187.5 0 0 1-2.8-33.2c0-7.8.2-11.4.8-12.2.6-.9 2.6-1.5 5.9-2a2475.2 2475.2 0 0 1 49.3-6 2138.1 2138.1 0 0 1 47.3-3.8c6.7 0 8 .1 9 1.2Z"/>
    <path fill="#FEFFB9" d="M672.5 291.1a156.3 156.3 0 0 1 9.2 26.2 151 151 0 0 1 3.6 20l.4 3.3-9.4.8a4441.9 4441.9 0 0 0-51.7 4.7 5485 5485 0 0 1-36.9 3.5 2321.7 2321.7 0 0 1-36.6 3.6A11060 11060 0 0 0 422 367.4l-13.5 1.5c-2.3.3-6.1 1.8-10.9 4.2l-7.7 3.9a160.3 160.3 0 0 1 9-16 138 138 0 0 1 30.3-31.7 160 160 0 0 1 25.6-16 132.8 132.8 0 0 1 30.1-10.2c6-1.4 9.7-1.7 20.2-1.7 11 0 14 .3 22.4 2L547 307a252.1 252.1 0 0 0 42 3.9c6.2 0 14.6-.4 18.7-1a164.4 164.4 0 0 0 27.6-6.1 98.4 98.4 0 0 0 23.2-11 47.8 47.8 0 0 0 10.3-8.8c.2 0 2 3.2 3.8 7.1Z"/>
    <path fill="#FFD9B8" d="M587 250.3a229.6 229.6 0 0 1 34.4 6.8 186.9 186.9 0 0 1 36 14.4c5.4 2.9 6.7 4 6.8 5.4.2 1-.5 2.9-1.4 4.2-1 1.4-3.6 4-6 5.8a82.8 82.8 0 0 1-9.2 5.8 111 111 0 0 1-28.3 9.4c-4.7 1-13 2-18.3 2.5-7.4.6-12.5.6-21 0a377 377 0 0 1-19-2c-4.2-.5-14.2-2.2-22.1-3.8-7.9-1.5-18.2-3.1-22.9-3.6-6.6-.6-10.7-.6-18 0-5.1.5-12.7 1.6-16.9 2.5-4 1-10.5 2.7-14.2 4a165.3 165.3 0 0 0-33.6 16.9 225 225 0 0 0-14.2 10.3 179.8 179.8 0 0 0-24 24.6l-7.3 11c-1.9 3.2-4.6 8.4-6 11.7a37.1 37.1 0 0 1-3.7 6.8c-.5.4-5.7 3.5-11.5 6.7l-13 7.3-2.3 1.4 1.1-3.8a264 264 0 0 1 8.5-22.9 181.3 181.3 0 0 1 39.6-56.2c5.6-5.5 13.4-12.6 17.4-15.8a277.5 277.5 0 0 1 33.1-22 284.7 284.7 0 0 1 28-12.9 245 245 0 0 1 59.4-14.6 281.2 281.2 0 0 1 48.6 0Z"/>
    <path fill="#C6FFB9" d="M553.3 195.2a201 201 0 0 1 36.2 8.9c5.1 1.8 13 5.2 17.7 7.6a199.2 199.2 0 0 1 29.1 18.2 176.8 176.8 0 0 1 23.5 23.2 146.2 146.2 0 0 1 11 16.7c0 .2-5.5-2.4-12.3-5.7a255 255 0 0 0-19.7-8.8 246.8 246.8 0 0 0-48.3-12c-4.5-.6-13.9-.9-28.4-.8-18.8 0-23 .2-32 1.6a360 360 0 0 0-19.8 3.7 291 291 0 0 0-43 14 265.3 265.3 0 0 0-29.1 15.2 246 246 0 0 0-25.7 18 254.5 254.5 0 0 0-29.8 29 236 236 0 0 0-23.9 36c-2.5 4.8-6 12.5-7.8 17-1.8 4.5-4.3 12.1-5.7 17l-2.4 8.9-4.1 2.6-7.4 4.6c-1.8 1-3.4 2.2-3.7 2.6-.2.4-1.3.1-2.5-.6-2-1.2-2.3-1.8-3.1-7a175 175 0 0 1-1-23.2 94 94 0 0 1 2.4-28c1.3-5.9 3.5-14.3 5-18.8a182.4 182.4 0 0 1 31.8-56.8 257.3 257.3 0 0 1 34.3-34A290.5 290.5 0 0 1 431 220a268.9 268.9 0 0 1 35.6-15.6 222.3 222.3 0 0 1 44-10 278.8 278.8 0 0 1 42.7.7Z"/>
    <path fill="#FFD9B8" d="M510 186.6c2.7.5 2.6.5-2.2 1a231.4 231.4 0 0 0-69 20.8c-6 2.9-14 7-17.8 9.3a288.1 288.1 0 0 0-31 21.2 276.3 276.3 0 0 0-34 33.3c-3.9 4.7-10 12.9-13.4 18.1a212.7 212.7 0 0 0-19.7 38.9c-1.5 4.2-3.4 10.8-4.3 14.6a21 21 0 0 1-2.2 6.4 51 51 0 0 1-2.7-6.3 54 54 0 0 0-11.2-18.3c-2-2-5.7-4.9-8-6.2l-6.4-3.6c-1.1-.7-2.6-2-3.2-3a9 9 0 0 1-1.3-4.3c0-1.7.7-3.6 2.7-6.5a56 56 0 0 1 6.3-7.6c2-2 7.4-6.6 12-10.4a624.2 624.2 0 0 1 31.4-23.2c3.5-2.4 10.4-6.8 15.4-9.8 4.9-3 10.4-6.7 12.2-8.3 1.8-1.5 3.4-3.7 3.6-4.8a8 8 0 0 0-.2-3.8c-.4-1-2.3-3-4.1-4.2a86.3 86.3 0 0 1-8.5-7.4 43.8 43.8 0 0 1-6.9-8.5c-1-2-2.2-5-2.7-6.6-.7-2.6-.7-3.2 0-3.7.6-.3 3.6-.8 6.8-1 3.1-.2 17-.5 31-.7 18.9-.2 26.8-.5 32-1.4 3.8-.6 10.6-2 15-2.9l25.3-5.6a427 427 0 0 1 23.1-4.7l8.5-1a250.4 250.4 0 0 1 23.5.2Z"/>
    <path fill="#FEFFB9" fill-rule="evenodd" d="M313 415c3.2 1.1 8 3.5 10.9 5.3a92.3 92.3 0 0 1 18.5 16c3 3.6 6.1 8.6 10.1 16.4a135 135 0 0 1 12.6 31.6c1 4 2 9.9 2.2 13 .3 4.4 0 7.4-1.1 13.1a49 49 0 0 1-3 10.1l-1.5 2.7-2.6-2.8a18 18 0 0 0-13.8-5.9c-3 0-5.4.5-7.7 1.6a20.2 20.2 0 0 0-9.7 10.8 20.2 20.2 0 0 0 .3 13c.6 1.6 1.6 3.3 2.2 4 .8.8.8 1.3.3 1.7-.4.2-4.1.8-8.2 1.2-4.1.4-7.7.6-7.9.4-.2-.3.1-1.2.7-2 .7-1 1.2-3.1 1.2-5.2 0-1.9-.5-4.5-1.1-5.8-.7-1.3-2.4-3.2-4-4.3a15 15 0 0 0-5.9-2.2c-2.5-.3-3.8 0-6.3 1.4-1.7 1-4.1 3-5.3 4.4a11 11 0 0 0-2.3 3.2c0 .4-.3.7-.7.7-.5 0-2.7-1.4-5-3.2a101.8 101.8 0 0 1-25.2-28.8 81.2 81.2 0 0 1-9-24.8c-.4-2.5-.8-8.6-.8-13.5a56 56 0 0 1 5.8-27.2 53.8 53.8 0 0 1 13.5-18 52.3 52.3 0 0 1 14.7-8 41 41 0 0 1 16.8-1.3c3 .3 8 1.4 11.3 2.5Zm-36.1 46.3c-.2-1.5.1-2.2 1.4-2.7.9-.4 5.2-.6 9.8-.4 6 .2 9.5.7 13 2 2.8.8 7.4 3.1 10.4 5 3 2 9 7.2 14 12.1 4.6 4.8 11 11.6 14 15.2 3 3.7 5.4 7 5.4 7.6 0 .5-.7 1.1-1.6 1.4-.9.2-4 0-6.9-.4-2.9-.4-6.4-.5-7.8-.2a23.6 23.6 0 0 0-10.7 5.7c-1.5 1.4-3.3 4-4 5.7-1 2.5-1.5 3.1-2.7 3-1.2-.2-1.5-.8-1.7-3-.1-1.6 0-4 .2-5.3.3-1.6 1.7-3.7 4.3-6.3a33 33 0 0 1 7.6-5.5c2-1 4.5-1.8 5.3-1.8.9 0 1.7-.3 2-.6.1-.3-2.5-3.3-5.9-6.6a190 190 0 0 0-11.3-10.3c-2.8-2.4-7-5.3-9.2-6.5a46.2 46.2 0 0 0-8.7-3.3 127 127 0 0 0-10.7-2c-5.8-.8-6-1-6.3-2.8Z" clip-rule="evenodd"/>
    <path fill="#BCC6D3" d="M350.2 522.5a11.7 11.7 0 0 1 5.8 6.2c.5 1.2 1 3.3 1 4.5 0 1.2-.6 3.3-1.2 4.7a14 14 0 0 1-3.5 4.2 13 13 0 0 1-5.2 2.2 14 14 0 0 1-5.2-.4c-1.3-.5-3.4-1.9-4.6-3.1a13.8 13.8 0 0 1-3-5 12.4 12.4 0 0 1 1.2-8.7c.4-.8 1.4-2 2.2-2.7.8-.7 2.6-1.8 4.1-2.3a11 11 0 0 1 4.9-.5c1.1.2 2.7.6 3.5 1ZM307 536.4c1 .6 1.7 1.8 1.7 2.7a29 29 0 0 1-3.6 7.6L301 554c-.4.7-1.2 1.3-1.7 1.3s-1.5-.7-2.3-1.5c-.8-.9-1.2-2.5-1.2-4.4a20.3 20.3 0 0 1 5.3-12.3c1.2-1 2.6-1.7 3.3-1.7.7 0 2 .5 2.8 1.1Z"/>
    <path fill="#FEFFB9" d="m617.4 417.1.8 2a44.2 44.2 0 0 0-9 4.7c-3 2.1-6.4 4.2-7.5 4.6-1.2.5-3.5.6-6.4.3l-9.7-1.4c-3-.5-5.6-1.1-6-1.4-.3-.3 0-2.1.6-4.1 1.2-3.4 1.3-3.6 4.3-4a369.3 369.3 0 0 1 26.7-2.4c5.1 0 5.4 0 6.2 1.7Z"/>
  </g>
  <defs>
    <clipPath id="a">
      <path fill="#fff" d="M0 0h994v994H0z"/>
    </clipPath>
  </defs>
</svg>
