<svg xmlns="http://www.w3.org/2000/svg" fill="none" viewBox="0 0 994 994">
  <path fill="#C0ECFF" d="M0 0h994v994H0z"/>
  <path fill="#FFD9B8" d="M504.4 187.3a237.5 237.5 0 0 1 33.8 5.6 260.2 260.2 0 0 1 34 11.3 186.7 186.7 0 0 1 31 17.1 189.2 189.2 0 0 1 45.6 49.2c3.2 5 3.3 5.6 2.6 7.8-.4 1.3-2.1 3.7-3.8 5.2a55.4 55.4 0 0 1-14 9.5 107.7 107.7 0 0 1-29 9c-8.7 1.7-11.4 2-25.7 2-11.4 0-18.7-.4-25.8-1.3a452 452 0 0 1-22.7-3.8c-7-1.3-15.9-3-19.6-3.5-5-.8-10-1-19.5-.7a108.3 108.3 0 0 0-35.4 6.1 173 173 0 0 0-30.7 14.4 205.5 205.5 0 0 0-26.1 20 151.5 151.5 0 0 0-21.2 24.9 124 124 0 0 0-16.3 38.3 96 96 0 0 0 .3 29.9 74 74 0 0 0 4 10.7c2 3.8 4.3 7.4 7.6 11a90 90 0 0 0 10.3 9.2 109 109 0 0 0 27 13.7c4 1.4 12.3 3.5 18.3 4.7 6.4 1.2 12.6 3 14.7 4 2.1 1 5.3 3.4 7.3 5.7 2 2.1 4.7 6.2 6 9a51.3 51.3 0 0 1 4 31c-.4 2.5-1.2 6.5-1.8 8.9l-3.6 13.8c-1.5 5.6-2.7 12.3-3 16-.2 5.2 0 7.5 1.2 12.4a71 71 0 0 0 3.6 10.4 81 81 0 0 0 5 9 91.2 91.2 0 0 0 48.4 33.5c4.4 1.4 11.5 3.2 15.6 4a199.7 199.7 0 0 0 53.1 1.8l4-.4-4.3 1.4a265 265 0 0 1-35.7 6.8 227.3 227.3 0 0 1-45-.8 185 185 0 0 1-30.2-7.3 186.6 186.6 0 0 1-30.4-14.4 193.8 193.8 0 0 1-26-19.4 216.4 216.4 0 0 1-37.1-44.8 380.8 380.8 0 0 1-18.3-32c0-.5.8-2.6 1.7-4.7a51.2 51.2 0 0 0 4-23c0-6.7-.3-10-1.7-15.6-1-3.9-2.6-9.5-3.7-12.4a163.3 163.3 0 0 0-21.4-38.6 156 156 0 0 0-9.2-10.1l-5.2-5.2-2.4-11.2A691.7 691.7 0 0 0 308 363a299 299 0 0 0-6.1-18.7 55.3 55.3 0 0 0-13.2-20.8c-2-1.7-6.2-4.6-9.4-6.3-3.8-2-6.2-3.9-6.9-5.1-.5-1.1-1-3-1-4a15 15 0 0 1 2.8-6.3c1.5-2.3 4.3-5.7 6.2-7.5 1.9-1.8 8-7 13.7-11.6A403.8 403.8 0 0 1 333 255a454 454 0 0 0 13.8-8.7c3.3-2.2 6.5-5 7.3-6.1.7-1.2 1.3-3.2 1.3-4.4 0-1.3-.7-3-1.6-4-1-1-3.6-3-6-4.7a44.9 44.9 0 0 1-7.3-6.3c-1.6-1.9-4-5.6-5.4-8.3a23.3 23.3 0 0 1-2.4-6.9c0-1.8.2-2 3.7-2.4 2-.3 15.6-.6 30-.7 20.8-.1 27.9-.4 34-1.4a395 395 0 0 0 20.7-4l27-6a250.3 250.3 0 0 1 33-4.8h8.8l14.6 1Z"/>
  <path fill="#fff" d="M455 393.9c7.5.8 18 1.7 23.4 2l9.9.4 2 4c1.1 2 2.6 6.3 3.2 9.3 1 4.6 1 6.3.2 10.5a37 37 0 0 1-9.4 18.5c-2 2-5.8 4.7-8.7 6.1a23 23 0 0 1-11.9 3 30 30 0 0 1-24.4-8.6 32.7 32.7 0 0 1-8.8-14.1 35.1 35.1 0 0 1 1.8-24c.7-1.4 2.3-3.9 3.5-5.6 1.6-2 2.7-3 4-3L455 394Zm243.2-19.3c1.8 1.9 4.1 5.2 5.2 7.3a45 45 0 0 1 3 9.3c1 4.6 1 6.3.3 10.5a37 37 0 0 1-9.4 18.5c-2 2-5.8 4.6-8.8 6a23 23 0 0 1-11.8 3 30 30 0 0 1-24.4-8.6c-1.6-1.5-4-4.3-5.2-6.2-1.3-2-2.9-5.5-3.6-7.9a35.4 35.4 0 0 1 1.2-22.6l1-2.5 13.1-2.3a392.5 392.5 0 0 0 35.1-7.9c.6 0 2.5 1.5 4.3 3.4Z"/>
  <path fill="#FEFFB9" d="M614.2 427.8a9.8 9.8 0 0 1 1.7 5.8c0 2.5-.6 4-2.2 6.6a31.3 31.3 0 0 1-6.7 6.5 57 57 0 0 1-8.3 4.9c-2 1-5.5 2-7.7 2.6a57 57 0 0 1-10.3.9 72.6 72.6 0 0 1-20.6-3 34 34 0 0 1-6.9-3.6c-1.6-1.3-3-3.3-3.4-5-.7-2.3-.7-3 .5-5.4a9 9 0 0 1 4.5-4.3c1.9-1 4.5-1.6 6.4-1.6 1.7 0 7.4.6 12.5 1.5a47 47 0 0 0 12.7 1c2.1-.3 6.7-2.3 12-5 7-3.7 9.1-4.6 11.4-4.4 2.3 0 3.1.5 4.4 2.5Z"/>
  <path fill="#C6FFB9" fill-rule="evenodd" d="M291 413a51 51 0 0 1 21.6 8c2.8 2 8 6.3 11.6 9.7a77 77 0 0 1 9.3 10.3 216.5 216.5 0 0 1 16.4 34.4c1.4 4.2 3 10.4 3.7 14a68.1 68.1 0 0 1-1 25.2 37.2 37.2 0 0 1-12.2 17.9c-3.2 3-7.3 5.8-11.2 7.8-3.4 1.7-8 3.7-10.1 4.5-3 1-6.1 1.3-12.8 1.3-7.9 0-9.4-.2-14-1.9a78.3 78.3 0 0 1-30.5-21.3c-2.8-3-6.7-7.7-8.6-10.5a97 97 0 0 1-6.4-10.9 91 91 0 0 1-4.7-12 99 99 0 0 1-2.6-12.8c-.4-3.6-.6-9.7-.4-13.6.2-4 1-9.7 1.9-12.8.8-3.2 3-8.7 4.7-12.4 2.7-5.4 4.2-7.7 9-12.4 4.1-4.1 7.4-6.6 11-8.5a41.3 41.3 0 0 1 25.2-4Zm-26.7 46.3c.4-.6 1.7-1.3 3-1.6a30 30 0 0 1 13.2 0c3 .5 7.4 1.6 9.8 2.4 2.5 1 6.6 3.1 9.3 5a102.5 102.5 0 0 1 21.5 19.8l9.3 11c2.6 3.2 3 4 2.1 4.9-.8.9-2 1-8.8.6-7.1-.5-8.3-.4-11.2 1-1.8.7-4.6 2.4-6.2 3.7a14 14 0 0 0-4 5.4 9.5 9.5 0 0 1-2.4 3.8c-1 .5-1.6.3-2.4-1a8 8 0 0 1-1.1-3.8c0-1.2.3-3.1.7-4.1a37.2 37.2 0 0 1 9.8-10.5c1.4-.8 4-2 6-2.7l3.4-1.1-8.5-8.3c-4.8-4.6-11-10-14-11.9a50 50 0 0 0-10.1-5c-2.6-.8-7.6-1.8-11.1-2.2-3.7-.5-7-1.3-7.6-1.9-.7-.6-1.3-1.4-1.3-1.8 0-.4.3-1.2.6-1.7Z" clip-rule="evenodd"/>
  <path fill="#FFD9B8" d="M317.3 697.4c.7 1.8 1.4 2.4 2.6 2.4 1 0 2 .3 2.6.6.6.4.1 3-2 10.5a162 162 0 0 1-4.3 13c-.8 1.8-2.7 4.6-4.3 6.2l-3 3 2.1 1.2 4.7 3a28.2 28.2 0 0 1 9.9 11.4c.8 1.8 1.6 5.2 1.8 7.4l.4 4.1-6.2 8.2c-5.6 7.3-6.5 8.1-8.5 8.1-1.2 0-4.3-.8-7-1.7-2.6-.9-5-1.4-5.2-1a41.5 41.5 0 0 1 1.4 12.7c0 7-.2 8.6-1.6 11.5-1.2 2.5-2 3.3-3.5 3.5-1.2.1-2.2.9-2.8 2a9 9 0 0 1-1.9 2.8c-.8.7-1.6.5-3.7-.7l-7-4c-2.3-1.3-5.6-3-7.4-3.8-1.7-.8-4.6-2.7-6.4-4.3a20 20 0 0 1-4.5-5c-.6-1.4-1.3-3.9-1.6-5.7-.2-1.7-.7-3.6-1-4-.3-.7-2 .2-5.8 2.7-4.3 3-6.2 3.7-9.5 4.2-2.4.3-4.6.4-5.1.3-.5-.2-1-1-1-2-.2-1-.9-1.5-2.2-1.7-1.6-.2-2-.5-2-2.2 0-1-.6-3-1.2-4.4a14 14 0 0 1-1.1-6.8c0-3 .6-5.7 1.8-8.2 1-2 2.6-4.6 3.6-5.6a26.8 26.8 0 0 1 12-6.6 15 15 0 0 0 4.4-1.8c.2-.3-1.1-1.3-3-2.3-2-1-3.8-2.6-4.5-4-.9-1.7-1.2-4.4-1.3-10.2 0-4.4.2-9 .6-10.1l2.2-6 2-5.4a72.5 72.5 0 0 1 5.8-7l5.3-5.5 3.6.2c2 0 4.3.4 5.3.8 1 .3 2.5 1.3 3.5 2.2 1 .8 2.6 3 3.7 4.7 1.5 2.3 2 4 2 6.5 0 1.8.3 3.5.7 3.8.3.2 1.3-.7 2.1-2a43.8 43.8 0 0 1 12.9-11.7 201.8 201.8 0 0 1 13-5.2c1.3-.3 3.4-.5 4.9-.6 2.4 0 2.7.2 3.7 2.5Zm49.7-56.1a193.5 193.5 0 0 0 18.8 31 351.7 351.7 0 0 0 28.3 33.6c4.4 4.7 8 8.7 8 9a27 27 0 0 1-6 2.3c-3.2 1-6.5 1.8-7.3 1.8-.8 0-1.8.4-2.2.9-.5.4-.9 1.6-.9 2.5 0 1-.6 2.5-1.4 3.5-.8 1-1.4 2.8-1.4 3.9 0 1.3-.7 2.7-2 3.9a47 47 0 0 1-4.7 3.7l-5.3 3.4c-1.7 1-3.7 1.6-5.8 1.6-2.4 0-4.2-.7-7.4-2.7-2.4-1.4-5-3.8-6-5.3-1-1.4-2.1-2.6-2.6-2.6-.4 0-1.4-1.4-2.1-3-.8-1.8-2-3.1-2.8-3.3-.9-.2-2.4 1-4.7 3.4-1.8 2-4 3.6-4.7 3.6a21 21 0 0 1-4-.7 16 16 0 0 1-5.1-3.2l-2.6-2.4.5-8.2c.5-7.7.4-8.3-1.4-12.7a26 26 0 0 1-1.8-7.5c0-1.5.6-4.2 1.3-6 .8-1.6 2.4-4.2 3.8-5.6 1.4-1.5 3.6-2.9 5.5-3.4 1.8-.5 3.7-1.3 4.2-1.8.8-.7.4-1.3-2.2-3-1.8-1.3-4-3.6-5-5.3-1-1.7-2.3-4.6-3-6.6-.8-2.1-1.3-5.3-1.3-8 0-2.6.8-6.6 2-10.3 1.3-4.3 2.5-6.6 4.1-8.1a52 52 0 0 1 6.2-4.8c2.1-1.4 4.5-2.5 5.3-2.5 1.1 0 2.3 1.9 5.6 8.9Zm31-39.8 7.7 7.8-3 3.8a33 33 0 0 1-5.7 5.5c-2.1 1.4-2.6 2-2 2.8a7 7 0 0 0 2.6 1.4 45 45 0 0 1 18.8 12.6c.6 1 .6 1.8-.1 3.1-.8 1.5-.7 2 .3 3.8a8.8 8.8 0 0 1 1.2 3.5c0 1-.8 1.9-2.7 2.7l-3.7 2c-.6.5-2.5 1.7-4.3 2.6a93 93 0 0 0-6 3.6c-1.6 1-4.8 2.5-7.3 3.4a14 14 0 0 1-5.4 1.2c-.5-.2-3.2-4.2-6-8.8a237 237 0 0 1-9.7-18.6l-4.7-10.3 3-6.8a286.7 286.7 0 0 1 14.3-27.5c.5-.6 1.2-.1 2.8 1.8 1.3 1.4 5.7 6.1 10 10.4Zm78 71.3 8 6.4c.3.3-1.2 1.7-3.4 3.2a60.7 60.7 0 0 0-15.4 16.4 121.6 121.6 0 0 0-8.8 15.9 25 25 0 0 1-7-7c-.5-1-1.3-4-1.8-6.5s-1.1-4.8-1.4-5c-.2-.4-1.7.3-3.2 1.3-1.6 1-4.3 2.7-6 3.6a15 15 0 0 1-7.3 1.6c-3.7 0-4.2-.2-4.8-1.7-.4-1-1.2-1.9-1.9-2-.7-.1-1.5-1.5-2.2-3.8-.5-2-1.1-5.2-1.4-7.2-.2-2.3 0-5 .8-7.7.9-2.9 2.1-5 4.5-7.6 1.8-2 4.4-4 5.8-4.6a66 66 0 0 1 6.8-2.2c2.3-.7 4.3-1.6 4.3-2.1s-1.2-1.5-2.5-2.2c-1.4-.7-3-2.4-3.8-3.7-1.1-2.1-1.2-3.6-.9-10.6.2-4.5.7-9.2 1.2-10.4l.7-2.2 16.1 16.1a392 392 0 0 0 23.6 22Zm-104 136c.7 1 1.7 1.8 2.2 1.8.6 0 2-.5 3.2-1.1 1.5-.8 2.4-.9 3-.4a67 67 0 0 1 8 14.4c1 2.2 1.5 4.1 1.3 4.3a22.6 22.6 0 0 0 1.8 8.6c.3.3 1.5.1 2.6-.5a21.4 21.4 0 0 1 13.5-1c2.3.6 5.2 1.5 6.4 2 1.5.8 2 1.6 2 3 0 1.3.8 2.6 2 3.6 2 1.5 2 1.9 1.6 5a42.8 42.8 0 0 1-4.8 13c-.4.5-.6 1.6-.4 2.5l1.6 4.8c.8 2.1 1 4.3.8 6.5a24 24 0 0 1-2.4 7c-1 2-3 4.6-4.4 5.6l-5.3 4.2c-2.6 2.4-2.9 2.4-7.9 2.2-4.5-.3-5.6-.6-8.4-2.6l-3.3-2.4-.7 1.9c-.4 1-.7 2.3-.7 3 0 .5-1.7 1.8-4 2.8-2.2 1-4.4 1.6-5 1.3l-5-1.5c-2.1-.5-5-1.6-6.5-2.4-1.5-.7-3.8-2.7-5.2-4.4-1.4-1.7-3.8-6-5.5-9.7a49 49 0 0 1-5.2-18.9c-.1-3.7-.4-4.3-1.7-4.6-.8-.2-3.4-2-5.8-4a19.8 19.8 0 0 1-5.8-6.8 21.5 21.5 0 0 1-1.4-9.6c0-4.2.4-7.8 1.4-10.9l1.8-6.6c.3-1.7.7-2 2-1.6.8.2 2.5.4 3.7.4 1.7 0 3.4 1.2 8.3 5.7 3.4 3.2 6.5 5.6 7 5.3.3-.2.6-1.4.6-2.5s.3-2.2.7-2.5c.4-.2.7-1.2.7-2a19.8 19.8 0 0 1 4.7-9.9 25 25 0 0 1 4.2-3.4 8.4 8.4 0 0 1 2.7-1.3c.3 0 1 .7 1.6 1.7ZM485 739a317.9 317.9 0 0 1 7.4 16.1c.4 1 .2 12.1-.4 28a78724 78724 0 0 1-2.2 50c-.4 3.7-.6 4.4-1.4 3.8-.5-.5-1-.6-1.2-.2-.2.3-.6 1.6-.9 3A59.7 59.7 0 0 1 483 850c-.5.8-1.8 2.5-3 3.8-1.3 1.3-2.7 2.3-3.1 2.3-.4 0-1.1-.5-1.6-1-.7-.8-1.2-1-1.7-.4-.4.4-1.5.7-2.4.7-.9 0-1.6-.3-1.6-.7 0-.4-1.5-1.4-3.4-2.4-1.8-1-4.2-2.6-5.3-3.7a24 24 0 0 1-3.4-5.6 25.9 25.9 0 0 1-.6-15.5c.5-1.2 2-4 3.3-6 1.3-2 2.2-4 2-4.4-.2-.3-2.6-.4-5.3-.2l-4.9.4-3.8-3.8a39.2 39.2 0 0 1-10.7-15 260.1 260.1 0 0 0-5.5-12.9c-1-1.8-.9-2.3.2-4.1a10 10 0 0 0 1.2-4.2c0-1.5.8-2.8 2.7-4.6 1.4-1.3 4-3 5.7-3.7 2.7-1 3.8-1 7.8-.4 3.8.7 5 1.3 7.3 3.4 1.4 1.5 3 2.5 3.3 2.2.4-.2.9-4 1.2-8.4a27 27 0 0 1 4-15.3c2-4 4.8-8.5 6.2-10.1 1.3-1.6 2.8-2.8 3.4-2.8a7 7 0 0 1 2.8 1.1c1.8 1.2 2 1.1 3.4-.3.8-.9 1.8-1.4 2.2-1.3.4.1 1.2 1 1.7 2Zm-274.3 29.2c.7.8 2.1 3.2 3.2 5.1 1.5 3 1.8 4.5 1.9 10.7a28 28 0 0 1-.9 9 19.8 19.8 0 0 1-9.7 7.9c-1.5.4-2.9 1.2-3 1.7-.3.5.2 1.6.9 2.4a5 5 0 0 1 1 3.7c0 1.2-.4 2.5-.8 3a3 3 0 0 0-.7 1.7c0 .6-1 2-2.4 3-1.3 1-4.5 3-7 4.2l-4.7 2.3-2.8-3.1a104 104 0 0 1-6.5-8.3 29 29 0 0 1-3.5-6c0-.4.8-2.2 1.8-4a1325.3 1325.3 0 0 1 19.6-27.7l7-9.4 2.6 1.1c1.5.6 3.3 1.8 4 2.7Zm396-66.8c4.5 4.4 9.1 9.1 10.2 10.5l7.6 9.1c3 3.8 5.6 7.5 5.7 8.6.2 1.1 0 2.6-.2 3.3-.3.8-.6 3-.6 4.8 0 1.9-.5 4.3-1 5.4a16.6 16.6 0 0 1-10.1 7.2c-2 .4-3.9 1-4.4 1-.7.3-.6 1 .5 2.9a9 9 0 0 1 1 4 22 22 0 0 1-1.8 3.9 12.6 12.6 0 0 1-6 4.7 35.4 35.4 0 0 0-1.7-7c-1-3-2-5-3.1-5.7-1.3-.8-2-1-3.2-.4-.7.5-1.6 1.4-1.8 2.2-.3.8 0 3.3.7 5.5.6 2.3 1.3 5.2 1.4 6.4l.2 2.3h-4c-2.5 0-6.2-.7-9.2-1.7-2.8-1-7.6-3-10.8-4.7a45.4 45.4 0 0 1-9.2-6.4c-3.1-3.2-3.6-3.4-5.3-2.8-1 .4-4.6.7-7.9.7-3.2 0-6-.2-6.2-.5-.2-.3-.9-5.8-1.5-12.3a480 480 0 0 0-1.5-14.3c0-1 .5-1 3-.9 1.6.1 3.2-.1 3.4-.4.2-.3-.7-2.3-2-4.4a46 46 0 0 1-3.2-5.9c-.4-1.1-1-3.3-1.1-4.7a8 8 0 0 1 .2-4.2c.5-1.5.6-1.5 1.4.7.4 1.3.8 3.4.8 4.6a7 7 0 0 0 1 3.6 4 4 0 0 1 1.1 2.4c0 .6.6 1.6 1.2 2.4.7.7 2 1.3 3.2 1.3 1.3 0 2.4-.6 3.1-1.8.7-1 1-2.3.7-3.1-.2-.8.1-2.7.8-4.3 1-2.4 1-3.5.3-6-.4-1.8-.7-4.6-.7-6.3 0-1.7.2-3.4.5-3.8.3-.5 1-.6 2-.3.8.3 4 3 7.1 6.1 3.1 3.1 6.5 6.6 7.4 7.7l2.8 3.4.7 1 3.6 4.6 4 4.7c1.6 1.6 2.6 2.1 3.7 1.8.9-.2 2.1-1.2 2.7-2.1 1-1.4 1-3 .7-9.3-.3-4.2-1-9.8-1.5-12.6-.8-4.4-.8-5 .2-5.7l3.3-2a10 10 0 0 1 2.9-1.2 75 75 0 0 1 8.9 8ZM559 849.1c2.2.8 6.3 2.5 9.1 3.8 3 1.4 6.8 4 8.8 5.8 2 1.8 4 4.1 4.3 5 .3 1 1 1.6 1.5 1.4.5-.2 1.3-1 1.7-2 .6-1.2 3.4-3.2 7.6-5.5 4.4-2.5 8-4 10.8-4.4a24 24 0 0 1 7-.2c1.6.2 3.3.7 3.8 1 .6.6.8 3.3.8 9a302.4 302.4 0 0 1-2.5 35.6 339 339 0 0 1-5.7 28.4l-3.5 12c-1.8 5.6-2.8 8-3.6 8a26 26 0 0 1-6.1-3.3 21.8 21.8 0 0 0-11.2-4.2c-3.3-.5-7-1.4-8.3-2-1.2-.7-3.1-2.3-4.4-3.7a20.5 20.5 0 0 1-3.4-6.5 12 12 0 0 1-.3-7.6c.4-2 .6-3.7.4-4-.3-.2-2 .5-4 1.6-1.9 1-4.2 2-5.1 2H555l-.5-12.3-.8-31.4a492 492 0 0 0-.8-24c-.4-4.5-.3-4.8 1-4.4l5.2 2Zm105.1-77.9c2.3 1.3 5.4 3.8 6.9 5.5l11 13.5 12.5 16.7a61 61 0 0 1 4.4 6.7 47 47 0 0 1-3.5 4.7 104.6 104.6 0 0 1-22 19c-3.7 2.4-9.6 5.9-13 7.7-3.4 1.9-6.2 3-6.2 2.5 0-.4.6-2 1.4-3.7 1-2 1.2-3.2.8-3.6-.5-.5-1.7-.4-3.5.1-1.5.5-3.4.8-4.2.8a42.8 42.8 0 0 1-16.2-6.3 39 39 0 0 1-6.6-8c-3-4.8-3.2-5.6-3.2-10.2 0-2.7.1-6.4.4-8.3.3-1.8.8-4 1.3-4.8.5-1 1.5-1.4 3.2-1.4 1.3 0 2.6.3 2.8.7.3.4 2.8.7 5.6.7a21 21 0 0 0 5.6-.4c.3-.3-.3-2-1.2-3.8-.9-1.8-2-4.9-2.5-6.9-.8-2.8-.8-4.5-.1-7.8a98.6 98.6 0 0 1 4.8-15.5c.8-1.3 1.1-1.3 3.7-.7 2.3.7 3.3.6 5.5-.4 2.4-1.1 3-1.2 5.5-.3 1.5.6 4.6 2.1 6.8 3.5ZM814.8 627c3.4.7 8.7 2 11.7 3s8.1 3 11.3 4.5a63 63 0 0 1 10.6 6.6c2.8 2.2 6 5.4 7.3 7.2a49 49 0 0 1 3.9 6.6c1.3 2.8 1.6 4.7 1.6 10.9 0 6.9-.2 7.8-2.3 12.1a33 33 0 0 1-5.2 7.7 28 28 0 0 1-6.6 4.7c-2.5 1.2-5 1.7-7.8 1.7-2.2 0-10.4-1-18.2-2.1-9.7-1.5-17-2.1-22.7-2.1a53 53 0 0 0-15.1 1.7c-3.8 1-9.2 2.8-12.2 4.2-3 1.4-7.8 4.1-10.7 6.2a93.7 93.7 0 0 0-22.7 24 221.7 221.7 0 0 0-18 34.5A324.4 324.4 0 0 0 710 788c-1 3.7-2.3 9.9-3 13.7l-1.4 7-1.4-2c-.8-1.1-8.4-10.8-17-21.5l-15.5-19.4 1.2-10a265.4 265.4 0 0 1 6-34.6c1.2-4.7 3.3-11.6 4.7-15.4a136.1 136.1 0 0 1 21.5-38.2A115.9 115.9 0 0 1 722 652a144.6 144.6 0 0 1 36.6-20.1 129 129 0 0 1 24.8-5.8 137.2 137.2 0 0 1 31.4 1Z"/>
  <path fill="#F9B66E" d="M642 555.5 613.5 536c1.5-1 7.7-2.4 20.3-.9 2 .3 12.3 6 17.2 8.9-2.8 2.5-8.6 8.3-9 11.5Z"/>
  <path fill="#fff" d="m680.8 560.1 20 10.9-3 2.8a25.6 25.6 0 0 0-5.1 7.5 59 59 0 0 0-2.5 5.9c-.3.8-.8 1-1.4.7a1049.5 1049.5 0 0 1-39.6-28.4c0-.7 1-2.7 2.3-4.6 1.2-2 3-4 4-4.5 1-.6 2.6-1 3.5-1 1 0 10.7 4.8 21.8 10.7Z"/>
  <path fill="#F97A6E" d="M708 578c-2-1.5-7.1 4-8 5.5-.9 1.5-3.4 8.5-2.2 9.5 1.2 1 6.1-.4 9.2-5.8 1.5-2.7 3-7.7 1-9.2Z"/>
  <path fill="#FFD9B8" d="m147 989 .5 4.8 109.5-.2-5-.2-9.7-29a822.5 822.5 0 0 1-12.4-39.7 61.3 61.3 0 0 1-2.7-20c0-7.5.3-10.3 1.6-14.8a83.4 83.4 0 0 1 8.4-19l2.9-4.6-4.6-1.7a128.6 128.6 0 0 1-25.5-13.4c-3.5-2.3-8.7-6.1-11.6-8.4a174 174 0 0 1-19.8-19 16.8 16.8 0 0 0-3.3-3.1s-1.5 2.7-3 5.9a295.7 295.7 0 0 0-19.3 50.3 271.2 271.2 0 0 0-8.1 72.5A482.2 482.2 0 0 0 147 989Zm499.9-14.6.4 19.4h81.4c-2.8 0-4.3-.3-4.5-1l-1.7-15a855 855 0 0 0-3.4-26 686.9 686.9 0 0 0-17.7-79 811.5 811.5 0 0 0-12-37.2c-.1-.1-2.7 1.7-5.8 4-3 2.2-7.7 5.4-10.3 7a208.4 208.4 0 0 1-28.7 14 133.4 133.4 0 0 1-19.7 5.7c-1.8.4-2 .6-2 4.3 0 3 .5 4.6 1.8 6.6a166.5 166.5 0 0 1 14.9 34.3 329.8 329.8 0 0 1 5.8 33.9c.6 5.3 1.3 18.4 1.5 29Z"/>
  <path fill="#FFD9B8" d="M624.4 893.8c1 2.5 3 7.3 4.2 10.8 1.2 3.5 3 10.2 4 15a288 288 0 0 1 4.2 30.3l.4 2.6-6 3.6a154.8 154.8 0 0 1-31 14.2c-.4 0 0-1.2.7-2.7a318.7 318.7 0 0 0 14.9-43 197.1 197.1 0 0 0 5.4-29.6c.3-3.1.7-5.6.8-5.6.2 0 1.3 2 2.4 4.4Z"/>
  <path fill="#fff" d="m489.8 986.5-.4 7.3h58.5l.3-35a2359.7 2359.7 0 0 0-2-115.9 2992.7 2992.7 0 0 0-3.8-62.1 1480.6 1480.6 0 0 0-7.8-73.6c-.2-.6-1.5-.5-4.8.2-3.2.8-7 1-13.3.8a49 49 0 0 1-15.8-2.7c-.5 0-.6 3.5-.4 10.4.3 5.7.2 19-.2 29.3-.4 10.4-1.1 28.3-1.7 39.8a13339.8 13339.8 0 0 0-7.1 165.8l-1.5 35.7Z"/>
  <path fill="#FEFFB9" d="M565.4 761.4a40 40 0 0 0 8.4 5.8 43.8 43.8 0 0 0 20.7 6.4l6.8.4.9 4 2 11.7c.6 4.2 1.9 11.3 2.9 15.6l3.1 14.4a227 227 0 0 1 3.5 26.9v3l-4-.4a33.2 33.2 0 0 0-20.2 5.1l-7.1 4-3.5-3.3a40 40 0 0 0-8.3-5.5 111 111 0 0 0-11.3-4.5l-6.5-2.1-.4-6.4c-.2-3.5-1-15.8-1.5-27.3a1778.7 1778.7 0 0 0-3.2-48.8c0-1.6.2-1.6 7.5-1.6h7.6l2.6 2.6Zm-10.9 197.4-.6 34.9 24.3-.3 6.4-12.2c3.5-6.6 8-15.7 10-20.3 2-4.6 3.5-8.8 3.5-9.4 0-.6-.5-1-1.1-1-.6 0-3.4-1.5-6.1-3.3a24 24 0 0 0-11.5-4.3c-3.6-.6-7.3-1.5-8.3-2-1-.6-3.1-2.4-4.7-4.2-2-2-3.4-4.5-4-6.9-.7-2-1.2-4.5-1.2-5.4 0-1.4-.4-1.6-2.3-1.6-1.3 0-2.7.2-3.1.5-.6.4-1 10.8-1.3 35.5Zm94.7-208.6c6 7.2 11.3 13.4 11.6 14 .4.7 0 .7-2-.1-1.3-.6-3.2-1-4.2-1s-2.6.3-3.7.7c-1.1.4-4 .8-6.3.9-4.1.1-4.3.2-5.4 2.6l-2 4.2a72.2 72.2 0 0 0-3.6 17.1c0 2.2.5 5.4 1 7 .7 1.7 1.1 3.4 1.1 3.7 0 .4-.5.6-1.2.6s-1.6-.3-2-.7c-.5-.4-2.8-.7-5.3-.5-3.9.2-4.6.4-5.9 2.1-1 1.4-1.6 4-2.2 9.2-.7 6.1-1 7-1.4 4.9l-2.9-11.4a257.1 257.1 0 0 1-5.9-32.3l3.2-2c1.7-1 3.9-3.2 4.9-4.8 1.1-1.8 2-4.4 2.2-6.7.4-3.5.6-3.8 2.5-4.2 1.2-.2 3.6-1.6 5.4-3 1.7-1.4 3.7-3.6 4.5-4.8.8-1.3 1.3-3.5 1.3-5.5 0-1.9.4-4.2.8-5.3l.8-2 1.8 2.2 13 15.1Zm-26.3 79.4c1.6 2.8 4.3 6.1 6.5 8a36.5 36.5 0 0 0 18.3 7.1h3l-.2 2.6c0 .8 0 1.4-.3 1.8-.5 1.1-1.9 1.7-6.6 3.5a115 115 0 0 1-11.8 3.9l-5.1 1.2-2.2-2.4c-1.8-2-2.2-3-2.2-5.7a176.6 176.6 0 0 0-2.5-23.2c-.2-.9-.3-1.6 0-1.6.1 0 1.5 2.2 3 4.8Zm-53.8-174.8a354.4 354.4 0 0 1 12.4 38.2c.9 5 .9 5.8 0 7.3l-1.2 1.7-4-2.9a199 199 0 0 1-9.6-7.3 43.3 43.3 0 0 0-19.4-9.7 22 22 0 0 0-6.3-.3c-1.7.4-2 .3-1.6-.8a29.4 29.4 0 0 0 1.1-3.4c.4-.8 1.2-.8 4.8-.6 4.3.3 4.7.1 7.8-2.1l2.4-1.8 2.6-2 1.9-1.3-.4-9.5-.4-9.5 1.9-.4 2.6-.6c.4-.2 1.3-.2 2-.2.9.1 2 1.8 3.4 5.2ZM549.3 691a33.1 33.1 0 0 1 4.7 1.7c.7.7.9 2.5.8 9 0 4.6-.2 10.3-.5 12.5-.2 2.3-.7 4.1-1 4.1-.3 0-.8-.9-1-2l-1-2.6a21 21 0 0 1-1.4-5c-.4-2.2-1.1-4.5-1.6-5-.4-.6-1.8-1-3-1-1.3 0-2.7.4-3.1.8-.5.5-.8.7-.9.6l-1-6.4-1.1-7c0-.5 1.1-.8 3.4-.8 1.8 0 4.9.5 6.7 1Z"/>
  <path fill="#FFD9B8" d="m555.8 655.3.7 8.1c.2 3.8 0 4.5-1 4.9a22 22 0 0 0-4.4 2.8 11 11 0 0 1-4.8 2.4c-1 0-2.2-.2-2.8-.6-.8-.5-.7-1.3.2-5.1a101.4 101.4 0 0 0 2.2-11.8c.4-2.3.9-3.1 2-3.4a73 73 0 0 1 6.3-1c1 0 1.3.8 1.6 3.7Z"/>
  <path fill="#FEFFB9" d="M427.2 625.8c3.8 2.6 6.9 4.8 6.7 5l-1.5 3.3c-1 2.3-1.3 5-1.4 13.9 0 9.2.1 11.4 1 12.9l1.3 1.8-3.6 1.3c-2.4 1-4.9 2.8-7.7 5.7a18.5 18.5 0 0 0-5.2 8.1 31.9 31.9 0 0 0 0 17.1l1 3.2-2.6-2.9a30.4 30.4 0 0 1-4.2-6.4c-.9-2-4.1-6.3-7.2-9.6-3-3.4-7-8-8.7-10.2-1.7-2.2-3-4-2.8-4.2l4.2-1.5c2.1-.6 5.2-2 6.7-3l6-3.7a31 31 0 0 0 4.3-2.5c.6-.5 2.1-1.3 3.3-1.8a11 11 0 0 0 3.5-2.2c1-1.1 1.1-2.3.7-9l-.5-7.6-5-4.8a41 41 0 0 0-9-6.7l-4.2-2 3.3-4 3.2-4 5.7 4.6c3.2 2.6 8.9 6.7 12.7 9.2Zm18.8 84.3c.4.8 2.5 3.2 4.7 5.2l4 3.7-2.6 5.4c-2.5 5.4-2.5 5.4-4 4.1a461.9 461.9 0 0 1-21.8-21.7c0-.3 2.3-.6 5.1-.6 4.2 0 5.9-.5 8.7-2l3.6-2 .7 3.3c.5 1.8 1.2 3.9 1.6 4.6Zm-203 8.5c-.4 1.5-.6 7.2-.5 12.8.2 9 .4 10.5 1.7 12.2l1.5 2-3.5 1.7c-2 1-4.9 3-6.4 4.7a29 29 0 0 0-4.6 6.8c-1.5 3.2-1.8 5-1.9 10.3 0 4.7.3 7 1.2 8.8a11 11 0 0 1 1.3 4.3c0 1 .3 2.2.8 2.7s1.4.8 2.1.8c.7 0 1.3.5 1.3 1.1 0 .6.8 1.6 1.8 2.2 1.6 1 2.6 1.1 7.9.5 4.4-.5 6.7-1.2 8.8-2.6 1.5-1 3-1.9 3.5-1.9.3 0 .8 1.4 1.1 3 .4 2.5 1.4 3.9 4.8 7.2 2.4 2.3 6 5 7.9 5.9l7.9 4.1 6.9 4c1.4.7 3.5 1.4 4.5 1.4 1.4 0 1.8.3 1.4 1.1-.2.6-5.1 9-11 18.6a771.7 771.7 0 0 0-14.2 24.5c-3.4 6.3-4 7-5.7 7-1.1 0-4-1-6.5-2.1-2.5-1.2-7.6-3-11.3-4.2a62 62 0 0 0-11.6-2.6 22 22 0 0 1-9.9-3.4c-2.8-1.6-7-4.2-9.4-5.8a192.8 192.8 0 0 1-19.8-16c-.7-.8-1.2-1.6-1-1.8l4.2-2.2c2.1-1 5.2-3 6.9-4.4 1.6-1.4 3-3 3-3.7 0-.6.3-1.5.7-2 .4-.3.8-2.5 1-4.8 0-4.1.2-4.3 3-6 1.5-1 4-3.2 5.4-4.8a15 15 0 0 0 3-4.6c.3-.9.3-5.5.2-10.1-.2-7.6-.4-9-2.1-12.2-1-2-2.7-4.6-3.7-5.7a12 12 0 0 0-4.1-3.1c-1.3-.5-2.5-1-2.6-1.2-.2 0 2-3.3 5-7.1a882.6 882.6 0 0 1 24.3-30.2c3.9-4.6 7.2-8.2 7.3-8.1.1.1-.1 1.4-.6 2.9Z"/>
  <path fill="#D8A477" fill-rule="evenodd" d="M365.5 804.9a33 33 0 0 0-4.9 4c-1.4 1.4-3.2 4-4 5.7-.7 1.8-1.3 4-1.3 4.8 0 .9-.2 1.8-.5 2-.2.3-2.4-1.2-4.8-3.3-4.2-3.8-4.4-3.8-10-4.3s-5.9-.5-7 1.1c-.6 1-1.1 2.4-1.1 3.2 0 .8-.7 3.2-1.5 5.5a34.6 34.6 0 0 0-1.4 12.7c0 7.7.2 9.1 1.7 12.3 1.3 2.6 3.2 4.7 7 7.8 5 4 5.4 4.5 5.9 7.4a64.2 64.2 0 0 0 11.5 29 25 25 0 0 0 6 5.2 45.8 45.8 0 0 0 13.6 4c1.6.2 4-.1 5.9-.9 1.7-.6 4-2 5.2-2.9 1.7-1.4 2.3-1.6 4-1 1 .4 4.6.7 8.1.7 6.2 0 6.3 0 9.5-2.6l5.9-5c1.5-1.1 3.6-3.8 4.8-6 1.6-3 2.1-5 2.3-9 .3-3.7 0-6.4-.7-8.5-1-3-1-3.2 1-8.2 1.5-3.4 2.3-6.7 2.5-10.4.4-5 .3-5.4-1.4-7-1-1-1.9-2.4-1.9-3.3 0-.8-.7-2.1-1.6-3-.9-.7-2.5-1.7-3.7-2.1a33 33 0 0 0-15.3-2l-5.7.5v-2.9c0-1.6-.6-4.7-1.5-7a61.7 61.7 0 0 0-8.4-14.6c-1.6-1.9-2-2-5.5-1.7-2.6.3-3.9.1-4.5-.6-.4-.5-2-1-3.4-1a11 11 0 0 0-4.8 1.4Zm8.7 5.7c-.5 0-1.5-.8-2.2-1.8-.6-1-1.3-1.8-1.6-1.7-.3 0-1.5.5-2.7 1.3-1.1.7-3 2.2-4.2 3.3a19.8 19.8 0 0 0-3.3 5.2c-.8 1.7-1.4 3.8-1.4 4.7 0 1-.3 1.9-.7 2.1-.4.3-.7 1.4-.7 2.5s-.3 2.3-.7 2.5c-.4.3-3.5-2.1-6.9-5.3-4.9-4.5-6.6-5.7-8.3-5.7a19 19 0 0 1-3.7-.4c-1.3-.4-1.7-.1-2 1.6l-1.8 6.6c-1 3.1-1.4 6.7-1.4 10.9 0 4.7.3 7 1.4 9.6 1 2.2 3 4.5 5.8 6.8 2.4 2 5 3.8 5.8 4 1.3.3 1.6 1 1.7 4.6a49 49 0 0 0 5.2 18.9c1.7 3.6 4.1 8 5.5 9.7 1.4 1.7 3.7 3.7 5.2 4.4 1.5.8 4.4 1.9 6.5 2.4l5 1.5c.6.3 2.8-.3 5-1.3 2.3-1 4-2.3 4-2.9 0-.6.3-1.9.7-3l.7-1.8 3.3 2.4c2.8 2 4 2.3 8.4 2.6 5 .2 5.3.2 8-2.2 1.4-1.3 3.8-3.2 5.2-4.2 1.3-1 3.4-3.5 4.4-5.6a24 24 0 0 0 2.4-7 14 14 0 0 0-.8-6.5l-1.6-4.8c-.2-.9 0-2 .4-2.5a42.8 42.8 0 0 0 4.8-13.1c.5-3 .4-3.4-1.5-4.9-1.3-1-2-2.3-2-3.6 0-1.4-.6-2.2-2.1-3-1.2-.5-4-1.4-6.4-2a21.4 21.4 0 0 0-13.5 1c-1.1.6-2.3.8-2.6.5-.3-.3-1-2.3-1.4-4.4-.4-2.1-.6-4-.4-4.2.2-.2-.4-2.1-1.2-4.3a67 67 0 0 0-8-14.4c-.7-.5-1.6-.4-3.1.4a9.9 9.9 0 0 1-3.2 1.1Z" clip-rule="evenodd"/>
  <path fill="#FFD9B8" d="M310.1 881.8a25 25 0 0 0-.3-7c-.4-1.3-1.4-3.3-2.3-4.3l-1.6-1.9 1.8 9 1.9 8.8.5-4.6Z"/>
  <path fill="#D8A477" fill-rule="evenodd" d="m317.7 933.8 3-3c2.9-3 3-3.2 3.2-8.4.2-3.3-.2-7.9-1-11.8l-1.2-6.5-4.8-4.9c-4.5-4.6-4.7-5-4.2-7a68 68 0 0 0 1.1-9.1c.4-5.6.3-7.7-.7-10.6-.7-2-1.7-4-2.2-4.4-.6-.5-1-1.5-1-2.2 0-.7-1.4-2.4-3-3.8l-3-2.6 2 9.1 1.6 1.9c.9 1 1.9 3 2.3 4.4a47.3 47.3 0 0 1-.2 11.5l3.1 16c0-.7.4-.6 1.4.3l2.7 2.4c.9.7 1.8 3.4 2.6 7.6.7 3.7 1.1 8 1 9.8-.3 2-1 3.9-1.9 4.7l-1.4 1.5.6 5.1ZM306 867.4c.1 0 .3-.2.3-.4s-.2-.3-.3-.3a.4.4 0 0 0 0 .7Z" clip-rule="evenodd"/>
  <path fill="#FFD9B8" d="M319.4 912.7c-.8-4.2-1.7-6.9-2.6-7.6l-2.7-2.4c-1-1-1.4-1-1.4-.3l1.7 10.2c1 5 2 10.7 2.2 12.6l.5 3.5 1.4-1.5c.9-.8 1.6-2.7 1.8-4.7.2-1.8-.2-6.1-.9-9.8Zm-23.9 81.1H290h193.2l-27.8-.2c0 .1-1 .2-2.3 0h-60c-2.2 0-4-.5-4-.8.1-.4 1.7-1.3 3.5-2a19 19 0 0 0 5.8-3.6 21 21 0 0 0 3.4-4c.6-1.3.9-4 .7-9-.2-6-.5-7.8-2-10.8-1-1.9-2.9-4.4-4.2-5.6a13.1 13.1 0 0 0-5.2-2.7l-3.8-1a8.7 8.7 0 0 1-2.4-3.2l-2.4-5.1c-.7-1.4-2.5-4-4-5.6-2.3-2.8-2.8-3-4.9-2.5-1.8.3-2.7.2-3.8-.8-1.3-1.2-1.5-1.2-4.4 0-1.7.8-4.6 2.8-6.5 4.4a18.4 18.4 0 0 0-6.4 11c0 .5-.5 1.2-1 1.4-.5.2-2.6-.5-4.5-1.7-2-1.1-4.6-2.6-6-3.2a56 56 0 0 0-10-2.5c-6.7-1.1-7.9-1.2-8.8-.3-.5.6-1 1.6-1 2.3 0 .8-.3 1.5-.6 1.8-.3.2-.8 3-1 6.2-.2 3.2-.8 7.3-1.4 9l-1 3 3 3.9c1.8 2 3 4.1 2.8 4.5-.2.4-2.2.9-4.5 1.2l-5.3.6c-.8 0-2.9 2.1-5.2 5.3l-5.4 7.7c-1.6 2.2-1.7 2.3-7.1 2.3Z"/>
  <path fill="#D8A477" d="M320.6 950c.3-.2.6-1 .6-1.7s.5-1.7 1-2.3c.9-.9 2-.8 8.7.3 4.3.7 8.8 1.9 10.2 2.5 1.3.6 4 2 5.9 3.2 2 1.2 4 2 4.5 1.7.5-.2 1-.9 1-1.5a19.1 19.1 0 0 1 6.4-11c1.9-1.5 4.8-3.5 6.5-4.2 3-1.3 3-1.3 4.4-.1 1.1 1 2 1.1 3.8.8 2.1-.5 2.6-.3 5 2.5 1.4 1.6 3.2 4.2 3.9 5.6l2.4 5a8.7 8.7 0 0 0 2.4 3.2c.6.3 2.3.8 3.8 1.1 1.5.3 3.8 1.5 5.2 2.7 1.3 1.2 3.2 3.7 4.2 5.6 1.5 3 1.8 4.8 2 10.8.2 5 0 7.7-.7 9a20.4 20.4 0 0 1-9.1 7.7c-1.9.6-3.5 1.5-3.5 1.9-.1.3 1.7.7 3.9.8h3c1.5-.2 2.4-1 4.7-3.1 2-1.9 4-4.3 4.7-5.5.8-1.6 1-4 .7-11-.2-8-.5-9.4-2-12.6a28 28 0 0 0-5-6.4c-2.2-2-4.1-3.1-6.2-3.4-2-.4-3.3-1.1-4.3-2.5a8 8 0 0 1-1.5-2.8c0-.5-.8-2.2-1.8-3.8-1-1.7-3.2-4.4-4.8-6-2.6-2.8-3.3-3.1-5.6-3-1.5.1-3-.2-3.5-.6-.5-.5-1.8-.9-3-.9s-3.6.7-5.3 1.4c-1.7.8-5 3-7.2 5a22 22 0 0 0-6.8 9.8 41.3 41.3 0 0 0-17-5.6c-6.8-1.1-9.7-1.4-11-.8-1 .3-1.4.5-1.8.1l1.2 8.2Z"/>
  <path fill="#FEFFB9" fill-rule="evenodd" d="M405.5 985c-.6 1.2-2.7 3.6-4.7 5.5-2.3 2.2-3.2 3-4.7 3.1h57c-2-.2-2.4-.5-3.2-3.4-.7-2.2-.9-5.5-.7-10.4l.4-7.3h-2.1c-1.2 0-3.3-.6-4.7-1.4a65 65 0 0 1-8.7-6.6c-4.6-4-6.8-6.7-9.5-11.3-2-3.2-4.5-7.1-5.6-8.6l-2.1-2.7.5-7.2.5-7.2 3.3-3.8a21 21 0 0 1 5.4-4.7 30.9 30.9 0 0 1 14-1.3l3.2.6-.3-5.6c-.2-3.3 0-7 .5-9a143 143 0 0 1 2.7-8.3c1-2.7 2.5-6.3 3.5-8a15 15 0 0 1 3.4-4c1-.7 2.8-1.1 4.2-1 1.4.1 3-.2 3.4-.6.5-.5 2-1 3.2-1 1.2 0 2.8.3 3.4.5.6.3 2.6 2.8 4.4 5.5l6 9.3c1.6 2.3 3.5 5.7 4.2 7.6a19 19 0 0 1 1.4 5.3c0 1.2.4 1.7 1.4 1.7.8 0 1.4-.3 1.4-.8l1.5-32.9c.7-17.5 1.2-32 1-32.2 0-.1-.4.8-.7 2.1a24 24 0 0 1-1.8 4.9 25 25 0 0 1-4 5.2l-3 2.7-5.8-.5c-4.8-.4-6.4-.8-8-2.2a8 8 0 0 0-2.7-1.7 25 25 0 0 1-8.4-8.5c-.7-1.3-1.6-4.2-2-6.2a34.9 34.9 0 0 1 1.4-16.8l1.3-3c0-.2-1.2-.3-2.7-.3-2 0-3.4-.6-5.7-2.5a50.5 50.5 0 0 1-13-17.6l-4.2-9.5c-1.3-2.7-2-5.6-2-7.5a9 9 0 0 1 1-4.4c.5-.8 1-2.5 1-3.9 0-2 .6-3 3.6-5.5 2-1.7 4.6-3.6 6-4.1 1.4-.6 4.3-1 6.6-1 2.2 0 5.7.4 7.6 1l3.6.9.8-6a58 58 0 0 1 10.8-23.2c3-3.3 3.2-3.4 7-3.2 2 .1 4 0 4.2-.3.3-.3 1.7-.5 3-.5 1.9 0 3.2.5 4.2 1.6a29 29 0 0 1 3.5 6.5l2 5 .6-6.4c.3-3.7.2-13.9-.2-24.4-.4-10-1.1-20.5-1.6-23.3-.7-4.8-.9-5.1-2.3-4.7-.8.3-2.8 1.3-4.3 2.4a61 61 0 0 0-14.1 15 130 130 0 0 0-5.4 9.7 392.5 392.5 0 0 0-10 22.6c0 .3-.5 1-1.2 1.8-.6.7-2 1.3-3.1 1.3-1.2 0-3.1-.9-4.7-2.2a340 340 0 0 1-11.6-11.1l-9-8.8-5.4 1.8c-3 1-6.7 2-8.3 2.3-2.4.4-2.8.7-2.8 2.2a7 7 0 0 1-1.5 3.5c-.7 1-1.4 2.8-1.4 4 0 1.5-.7 2.8-2.6 4.6a51.3 51.3 0 0 1-10.8 7.8c-2 1.2-3.6 1.6-7.7 1.6-4.5 0-5.5-.3-9.2-2.4a45.2 45.2 0 0 1-12.4-11.8c-.2-.5-1.4.2-3 1.8-2.6 2.6-2.6 2.6-7.4 2.3a15 15 0 0 1-7.6-2.1c-1.6-1-3.5-2.5-4.2-3.4-1.3-1.4-1.5-2.7-1.6-11 0-7.5-.3-10-1.6-13.5a28 28 0 0 1-1.5-8.2c0-2.2.5-5.5 1.2-7.3.6-2 2.5-4.8 4.4-6.8 1.8-1.9 3.7-3.6 4.3-3.8.7-.2.4-1-1.1-3.4-1.2-1.8-3-5.1-3.9-7.4a23.3 23.3 0 0 1-1.6-11 34.2 34.2 0 0 1 6.1-20.5c1.3-1.2 2-2.3 1.8-2.3l-6.3 2.6a183.8 183.8 0 0 0-41 24.7 502 502 0 0 0-16 12.8 292 292 0 0 0-13.4 12l-4.8 5c0 .3 1 .4 2.1.4 1.2 0 3 .4 4.1.8 1.1.4 3.2 2 4.7 3.4a31.3 31.3 0 0 1 6 7.8 15 15 0 0 0 3.6-2.8c1.8-1.8 4.8-3.9 6.5-4.7l7.8-3.4a33 33 0 0 1 10.5-2.3c4.3-.3 6.1-.1 7 .6.6.5 1.4 1.7 1.8 2.6.3.9 1.2 1.6 1.9 1.6s2 .5 2.8 1c1.1.9 1.6 2 1.6 3.5a94 94 0 0 1-3.2 13.2c-1.8 6-3.9 12-4.6 13.5-.7 1.4-1.8 3-2.4 3.5-1 .8-.7 1.3 2.2 3.6 1.9 1.4 4.6 4 6 5.6a26 26 0 0 1 3.9 5.6l2 6 .7 3.3 3.2-4a39 39 0 0 1 5-5.3c1-.7 2.3-1.1 3-.9a3 3 0 0 1 1.6 1.6c.2.6-.4 2.7-1.3 4.7-1 2-4 6.9-6.8 10.8-2.8 3.9-5 7.6-5 8.2 0 1 .4 1 4.8.1 2.6-.5 6.3-.9 8.2-.7 2.3.2 3.9.8 4.5 1.6a5 5 0 0 1 1 1.9c0 .3-.8 1.2-1.6 2-.9.7-4.2 2-7.8 2.8l-12.5 3-6.2 1.4-6.2 8.4a257 257 0 0 0-13.3 20.3l-7 12 4.4 18.3 4.3 18.2 3 2.6c1.7 1.4 3 3.1 3 3.8 0 .7.5 1.7 1 2.2a13 13 0 0 1 2.3 4.4c1 3 1.1 5 .7 10.6a68 68 0 0 1-1 9c-.6 2-.4 2.5 4.1 7.1l4.8 5 1.3 6.4c.7 4 1.1 8.5 1 11.8-.3 5.2-.4 5.4-3.3 8.4l-3 3 .7 4.4c.5 2.3.6 3.3 1 3.7.4.4.8.2 1.7-.1 1.4-.6 4.3-.3 11 .8a41.3 41.3 0 0 1 13 3.7c2.2 1.2 4 2 4.1 1.9l1.5-3.3a22 22 0 0 1 5.3-6.5 38 38 0 0 1 7.2-5c1.7-.7 4-1.4 5.3-1.4 1.2 0 2.5.4 3 .9.5.4 2 .7 3.5.6 2.3-.1 3 .2 5.6 3 1.6 1.6 3.8 4.3 4.8 6 1 1.6 1.8 3.3 1.8 3.8a8 8 0 0 0 1.5 2.8c1 1.4 2.3 2.1 4.3 2.5 2 .3 4 1.4 6.1 3.4a28 28 0 0 1 5 6.4c1.6 3.2 1.9 4.7 2.1 12.6.3 7 0 9.4-.7 11Zm-44.9-176.2a33 33 0 0 1 4.9-4 11 11 0 0 1 4.8-1.3c1.4 0 3 .5 3.4 1 .6.7 1.9 1 4.5.6 3.4-.3 3.9-.2 5.5 1.7a50.8 50.8 0 0 1 8.4 14.7 22 22 0 0 1 1.5 7v2.8l5.7-.5a33 33 0 0 1 15.3 2c1.2.4 2.8 1.4 3.7 2.2.9.8 1.6 2 1.6 3 0 .8.8 2.2 1.9 3.2 1.7 1.6 1.8 2 1.4 7-.2 3.7-1 7-2.5 10.4-2 5-2 5.2-1 8.2.7 2.1 1 4.8.7 8.4-.2 4.1-.7 6.2-2.3 9.2a23.8 23.8 0 0 1-4.8 6l-6 4.9c-3 2.6-3.2 2.6-9.4 2.6-3.5 0-7.1-.3-8.2-.7-1.6-.6-2.2-.4-4 1a19 19 0 0 1-5.1 3c-2 .7-4.3 1-6 .8a58.8 58.8 0 0 1-13.6-4 25 25 0 0 1-5.9-5.2 57 57 0 0 1-6.2-10.5 75.8 75.8 0 0 1-5.3-18.5c-.5-2.9-1-3.5-5.8-7.4-4-3.1-5.8-5.2-7-7.8-1.6-3.2-1.8-4.6-1.8-12.3 0-6.9.3-9.5 1.4-12.7.8-2.3 1.5-4.7 1.5-5.5 0-.8.5-2.3 1.1-3.2 1.1-1.6 1.4-1.6 7-1.1s5.8.5 10 4.3c2.4 2 4.6 3.6 4.8 3.4.3-.3.5-1.2.5-2 0-1 .6-3.1 1.4-4.9.7-1.7 2.5-4.3 4-5.8Z" clip-rule="evenodd"/>
  <path fill="#000" fill-rule="evenodd" d="M486.7 909.8v.1Z" clip-rule="evenodd"/>
  <path fill="#FFD9B8" d="M453.9 989.8a37 37 0 0 1 1.5 3.8l27.8.2.3-7a5095.5 5095.5 0 0 0 2.8-72.4 7 7 0 0 0-2.4.9c-2 1-2.2 1-2.8-.1-.3-.7-.7-2.5-.8-4a19 19 0 0 0-1.1-5.3 75 75 0 0 0-4.8-8.3l-5.9-9a13 13 0 0 0-3.1-3.8c-.7-.3-1.7.3-2.6 1.4-1.4 1.7-1.6 1.8-3.5.8-1.3-.7-2.4-.8-3.2-.4-.6.3-2 2.1-3 4s-2.8 6.5-4 10.2a25.4 25.4 0 0 0-1.8 13.8c.3 4 .7 7.8 1 8.7.4 1 .4 1.7 0 2-.4.2-1.8-.4-3-1.4-1.4-1-4-2.1-5.9-2.5-1.9-.3-4.5-.5-5.9-.3-1.3.2-3.5.8-4.8 1.4-1.2.6-3.1 2.3-4.2 3.9-1 1.5-2.1 2.8-2.4 2.8-.3 0-.5 1.3-.5 3 0 1.6-.3 4-.6 5.3-.4 1.9-.2 2.7 1.6 5 1.1 1.4 3.3 4.9 4.8 7.6a50.3 50.3 0 0 0 16.3 16.8c2.8 1.6 4 2 6 1.6a14 14 0 0 0 4.1-1.6c1.1-.7 2-.8 2.4-.3.5.5 0 2-1.2 4.9a28 28 0 0 0-2.2 9.5c-.4 4.5-.2 6 1.1 8.8Z"/>
  <path fill="#D8A477" d="M485.2 910.7c-1 0-1.4-.5-1.4-1.7 0-1-.6-3.4-1.4-5.3-.7-1.9-2.6-5.3-4.1-7.6l-6-9.3a22.2 22.2 0 0 0-4.5-5.5c-.6-.2-2.2-.4-3.4-.4-1.3 0-2.7.4-3.2.9-.5.4-2 .7-3.4.6-1.4-.1-3.2.3-4.2 1a15 15 0 0 0-3.4 4c-1 1.7-2.6 5.3-3.5 8a143 143 0 0 0-2.7 8.4c-.5 2-.7 5.6-.5 9l.3 5.5-3.2-.6a30.9 30.9 0 0 0-14 1.3c-1.2.5-3.7 2.7-5.5 4.7l-3.2 3.8-.5 7.2-.5 7.2 2 2.7c1.2 1.5 3.8 5.4 5.7 8.6 2.7 4.6 4.9 7.2 9.5 11.3a65 65 0 0 0 8.7 6.6c1.4.8 3.5 1.4 4.7 1.4h2l-.3 7.3c-.2 5 0 8.2.7 10.4.8 2.9 1.2 3.2 3.2 3.4 1.3.2 2.3.1 2.3 0l-1.5-3.8c-1.3-2.8-1.5-4.3-1.1-8.8a28 28 0 0 1 2.2-9.5c1.3-2.8 1.7-4.4 1.2-5-.5-.4-1.3-.3-2.4.4-.9.6-2.7 1.3-4 1.6-2 .3-3.3 0-6.1-1.6a56.9 56.9 0 0 1-16.3-16.8 71.5 71.5 0 0 0-4.8-7.6c-1.8-2.3-2-3.1-1.6-5 .3-1.3.5-3.7.6-5.3 0-1.7.3-3 .5-3 .3 0 1.3-1.3 2.4-2.8 1-1.6 3-3.3 4.2-3.9 1.3-.6 3.5-1.2 4.8-1.4 1.4-.2 4 0 6 .3 1.8.4 4.4 1.5 5.7 2.5 1.3 1 2.7 1.6 3 1.4.5-.3.5-1 .2-2-.4-.9-.8-4.8-1.1-8.7-.5-6.7-.4-7.4 1.7-13.8a101 101 0 0 1 4.1-10.2c1-1.9 2.4-3.7 3-4 .8-.4 2-.3 3.2.4 2 1 2.1 1 3.5-.8 1-1.1 1.9-1.7 2.6-1.4.5.2 2 2 3.1 3.8l5.9 9a75 75 0 0 1 4.8 8.3 19 19 0 0 1 1.1 5.3c.1 1.5.5 3.3.8 4 .6 1.1.8 1.1 2.8 0 1.2-.5 2.3-1 2.4-.8l.3-4.5c0 .5-.6.8-1.4.8Zm7.5-164.4-2-5a29 29 0 0 0-3.5-6.5 5.2 5.2 0 0 0-4.1-1.6c-1.4 0-2.8.2-3 .5-.4.3-2.3.4-4.4.3-3.7-.2-3.8-.1-6.9 3.3a58 58 0 0 0-6.5 10.4 35.4 35.4 0 0 0-4.3 12.8l-.8 5.9-3.6-1c-2-.5-5.4-.9-7.6-1-2.3 0-5.2.5-6.6 1-1.4.6-4 2.5-6 4.2-3 2.5-3.6 3.4-3.6 5.5 0 1.4-.5 3.1-1 3.9a9 9 0 0 0-1 4.4c0 1.9.7 4.8 2 7.5l4.1 9.5a50.5 50.5 0 0 0 13 17.6c2.4 2 3.7 2.5 5.8 2.5 1.5 0 2.7.1 2.7.3l-1.3 3a34.9 34.9 0 0 0-1.4 16.8c.4 2 1.3 4.9 2 6.2a25 25 0 0 0 8.4 8.5 8 8 0 0 1 2.7 1.7c1.6 1.4 3.2 1.8 8 2.2l5.9.5 2.8-2.7a25 25 0 0 0 4.1-5.2 24 24 0 0 0 1.8-4.9c.3-1.3.6-2.2.8-2l.6-11.7c-.4 3.6-.6 4.3-1.4 3.7-.5-.5-1-.6-1.2-.2-.2.3-.6 1.6-.9 3A59.7 59.7 0 0 1 483 850c-.5.8-1.8 2.5-3 3.8-1.3 1.3-2.7 2.3-3.1 2.3-.4 0-1.1-.5-1.6-1-.7-.8-1.2-1-1.7-.4-.4.4-1.5.7-2.4.7-.9 0-1.6-.3-1.6-.7 0-.4-1.5-1.4-3.4-2.4-1.8-1-4.2-2.6-5.3-3.7a24 24 0 0 1-3.4-5.6 25.9 25.9 0 0 1-.6-15.5c.5-1.2 2-4 3.3-6 1.3-2 2.2-4 2-4.4-.2-.3-2.6-.4-5.3-.2l-4.9.4-3.8-3.8a39.2 39.2 0 0 1-10.7-15 260.1 260.1 0 0 0-5.5-12.9c-1-1.8-.9-2.3.2-4.1a10 10 0 0 0 1.2-4.2c0-1.5.8-2.8 2.7-4.6 1.4-1.3 4-3 5.7-3.7 2.7-1 3.8-1 7.8-.4 3.8.7 5 1.3 7.3 3.4 1.4 1.5 3 2.5 3.3 2.2.4-.2.9-4 1.2-8.4a27 27 0 0 1 4-15.3c2-4 4.8-8.5 6.2-10.1 1.3-1.6 2.8-2.8 3.4-2.8a7 7 0 0 1 2.8 1.1c1.8 1.2 2 1.1 3.4-.3.8-.9 1.8-1.4 2.2-1.3.4.1 1.2 1 1.7 2a317.9 317.9 0 0 1 7.3 16.1l.3-8.8ZM348 635.2c.3 0-.5 1-1.8 2.3a34.2 34.2 0 0 0-6.1 20.4c0 5.6.2 7.5 1.6 11 1 2.4 2.7 5.7 3.9 7.5 1.5 2.3 1.8 3.2 1 3.4-.5.2-2.4 1.9-4.2 3.8-2 2-3.8 4.9-4.4 6.8-.7 1.8-1.2 5.1-1.2 7.3 0 2.3.7 5.8 1.5 8.2 1.3 3.4 1.6 6 1.6 13.6.1 8.2.3 9.5 1.6 10.9.7.9 2.6 2.4 4.2 3.4a15 15 0 0 0 7.6 2c4.8.4 4.8.4 7.5-2.2 1.5-1.6 2.7-2.3 2.9-1.8a45.2 45.2 0 0 0 12.4 11.8c3.7 2.1 4.7 2.4 9.2 2.4 4 0 5.7-.4 7.7-1.6a51.3 51.3 0 0 0 10.8-7.8c1.9-1.8 2.6-3 2.6-4.6 0-1.2.7-3 1.4-4a7 7 0 0 0 1.5-3.5c0-1.5.4-1.8 2.8-2.2 1.6-.3 5.3-1.3 8.3-2.3l5.4-1.8-3.8-3.3a46.6 46.6 0 0 1-13.2 4.1c-.8 0-1.8.4-2.2.9-.5.4-.9 1.6-.9 2.5 0 1-.6 2.5-1.4 3.5-.8 1-1.4 2.8-1.4 3.9 0 1.3-.7 2.7-2 3.9a47 47 0 0 1-4.7 3.7l-5.3 3.4c-1.7 1-3.7 1.6-5.8 1.6-2.4 0-4.2-.7-7.4-2.7-2.4-1.4-5-3.8-6-5.3-1-1.4-2.1-2.6-2.6-2.6-.4 0-1.4-1.4-2.1-3-.8-1.8-2-3.1-2.8-3.3-.9-.2-2.4 1-4.7 3.4-1.8 2-4 3.6-4.7 3.6a21 21 0 0 1-4-.7 16 16 0 0 1-5.1-3.2l-2.6-2.4.5-8.2c.5-7.7.4-8.3-1.4-12.7a26 26 0 0 1-1.8-7.5c0-1.5.6-4.2 1.3-6 .8-1.6 2.4-4.2 3.8-5.6 1.4-1.5 3.6-2.9 5.5-3.4 1.8-.5 3.7-1.3 4.2-1.8.8-.7.4-1.3-2.2-3-1.8-1.3-4-3.6-5-5.3-1-1.7-2.3-4.6-3-6.6-.8-2.1-1.3-5.3-1.3-8 0-2.6.8-6.6 2-10.3 1.3-4.3 2.5-6.6 4.1-8.1a52 52 0 0 1 6.2-4.8c2.1-1.4 4.5-2.5 5.3-2.5 1.5-4.1-8.2.2-13.3 2.8Zm-16.5 119.9-.8-3.3c-.4-1.8-1.3-4.5-2-6-.6-1.5-2.3-4-3.8-5.6a59.2 59.2 0 0 0-6-5.6c-2.9-2.3-3.2-2.8-2.2-3.6.6-.5 1.7-2 2.4-3.5a144 144 0 0 0 4.6-13.5 94 94 0 0 0 3.2-13.2c0-1.6-.5-2.6-1.6-3.4a6.2 6.2 0 0 0-2.8-1.1c-.7 0-1.6-.7-2-1.6-.3-1-1-2.1-1.7-2.6-.9-.7-2.7-.9-7-.6-4 .3-7.3 1-10.5 2.3l-7.8 3.4c-1.7.8-4.7 3-6.6 4.7a15 15 0 0 1-3.6 2.8l-1.7-2.7a27 27 0 0 0-4.2-5.1 17 17 0 0 0-4.7-3.4c-1-.4-3-.8-4-.8-1.2 0-2.2-.1-2.2-.3l-4.6 3.8 3.6.2c2 0 4.3.4 5.3.8 1 .3 2.5 1.3 3.5 2.2 1 .8 2.6 3 3.7 4.7 1.5 2.3 2 4 2 6.5 0 1.8.3 3.5.7 3.8.3.2 1.3-.7 2.1-2a43.8 43.8 0 0 1 12.9-11.7 201.8 201.8 0 0 1 13-5.2c1.3-.3 3.4-.5 4.9-.6 2.4 0 2.7.2 3.7 2.5.7 1.8 1.4 2.4 2.6 2.4 1 0 2 .3 2.6.6.6.4.1 3-2 10.5a162 162 0 0 1-4.3 13c-.8 1.8-2.7 4.6-4.3 6.2l-3 3 2.1 1.2 4.7 3a28.2 28.2 0 0 1 9.9 11.4c.8 1.8 1.6 5.2 1.8 7.4l.4 4.1 3.7-5Zm-9.9 13.3c-5.6 7.3-6.5 8.1-8.5 8.1-1.2 0-4.3-.8-7-1.7-2.6-.9-5-1.4-5.2-1a41.5 41.5 0 0 1 1.4 12.7c0 7-.2 8.6-1.6 11.5-1.2 2.5-2 3.3-3.5 3.5-1.2.1-2.2.9-2.8 2a9 9 0 0 1-1.9 2.8c-.8.7-1.6.5-3.7-.7l-7-4c-2.3-1.3-5.6-3-7.4-3.8-1.7-.8-4.6-2.7-6.4-4.3a20 20 0 0 1-4.5-5c-.6-1.4-1.3-3.9-1.6-5.7-.2-1.7-.7-3.6-1-4-.3-.7-2 .2-5.8 2.7-4.3 3-6.2 3.7-9.5 4.2-2.4.3-4.6.4-5.1.3-.5-.2-1-1-1-2-.2-1-.9-1.5-2.2-1.7-1.6-.2-2-.5-2-2.2 0-1-.6-3-1.2-4.4a14 14 0 0 1-1.1-6.8c0-3 .6-5.7 1.8-8.2 1-2 2.6-4.6 3.6-5.6a26.8 26.8 0 0 1 12-6.6 15 15 0 0 0 4.4-1.8c.2-.3-1.1-1.3-3-2.3-2-1-3.8-2.6-4.5-4-.9-1.7-1.2-4.4-1.3-10.2 0-4.4.2-9 .6-10.1l2.2-6 2-5.4c0-.3.5-1 1.3-2l-8.5 9a73.6 73.6 0 0 0-1 15.8c.1 9 .3 10.4 1.6 12l1.5 2-3.5 1.8c-2 1-4.9 3-6.4 4.7a29 29 0 0 0-4.6 6.8c-1.5 3.2-1.8 5-1.9 10.3 0 4.7.3 7 1.2 8.8a11 11 0 0 1 1.3 4.3c0 1 .3 2.2.8 2.7s1.4.8 2.1.8c.7 0 1.3.5 1.3 1.1 0 .6.8 1.6 1.8 2.2 1.6 1 2.6 1.1 7.9.5 4.4-.5 6.7-1.2 8.8-2.6 1.5-1 3-1.9 3.5-1.9.3 0 .8 1.4 1.1 3 .4 2.5 1.4 3.9 4.8 7.2 2.4 2.3 6 5 7.9 5.9l7.9 4.1 6.9 4c1.4.7 3.5 1.4 4.5 1.4 1.4 0 1.8.3 1.4 1.1l13.8-22.1v-10.3l3 .5 3.2.6 9-12Z"/>
  <path fill="#FEFFB9" d="M309.5 785c1.7-2.4 3.1-4.5 3-4.6l-3.2-.6-3-.5v10.2l3.2-4.5Z"/>
  <path fill="#D8A477" d="m192 826 4.3-2.3c2.1-1 5.2-3 6.9-4.4 1.6-1.4 3-3 3-3.7 0-.6.3-1.5.7-2 .4-.3.8-2.5 1-4.8 0-4.1.2-4.3 3-6 1.5-1 4-3.2 5.4-4.8a15 15 0 0 0 3-4.6c.3-.9.3-5.5.2-10.1-.2-7.6-.4-9-2.1-12.2-1-2-2.7-4.6-3.7-5.7a12 12 0 0 0-4.1-3.1c-1.3-.5-2.5-1-2.6-1.2l-3 3.3 2.7 1.1c1.5.6 3.3 1.8 4 2.7.7.8 2.1 3.2 3.2 5.1 1.5 3 1.8 4.5 1.9 10.7a28 28 0 0 1-.9 9 19.8 19.8 0 0 1-9.7 7.9c-1.5.4-2.9 1.2-3 1.7-.3.5.2 1.6.9 2.4a5 5 0 0 1 1 3.7c0 1.2-.4 2.5-.8 3a3 3 0 0 0-.7 1.7c0 .6-1 2-2.4 3-1.3 1-4.5 3-7 4.2l-4.7 2.3 3.6 3Zm213.7-216.7-3 3.8a33 33 0 0 1-5.7 5.5c-2.1 1.4-2.6 2-2 2.8a7 7 0 0 0 2.6 1.4 45 45 0 0 1 18.8 12.6c.6 1 .6 1.8-.1 3.1-.8 1.5-.7 2 .3 3.8a8.8 8.8 0 0 1 1.2 3.5c0 1-.8 1.9-2.7 2.7l-3.7 2c-.6.5-2.5 1.7-4.3 2.6a93 93 0 0 0-6 3.6c-1.6 1-4.8 2.5-7.3 3.4a14 14 0 0 1-5.4 1.2l3.9 3.5 4.2-1.5c2.1-.6 5.2-2 6.7-3l6-3.7a31 31 0 0 0 4.3-2.5c.6-.5 2.1-1.3 3.3-1.8a11 11 0 0 0 3.5-2.2c1-1.1 1.1-2.3.7-9l-.5-7.6-5-4.8a41 41 0 0 0-9-6.7l-4.2-2 3.3-4 3.2-4-3.1-2.7Zm28.3 21.6-1.6 3.2c-1 2.3-1.3 5-1.4 13.9 0 9.2.1 11.4 1 12.9l1.3 1.8-3.6 1.3c-2.4 1-4.9 2.8-7.7 5.7a18.5 18.5 0 0 0-5.2 8.1 31.9 31.9 0 0 0 0 17.1l1 3.2 8.5 8.7c0-.3 2.3-.6 5.1-.6 4.2 0 5.9-.5 8.7-2l3.6-2 .7 3.3c.5 1.8 1.2 3.9 1.6 4.6.4.8 2.5 3.2 4.7 5.2l4 3.7 1.7-4.3a25 25 0 0 1-7-7c-.5-1-1.3-4-1.8-6.5s-1.1-4.8-1.4-5c-.2-.4-1.7.3-3.2 1.3-1.6 1-4.3 2.7-6 3.6a15 15 0 0 1-7.3 1.6c-3.7 0-4.2-.2-4.8-1.7-.4-1-1.2-1.9-1.9-2-.7-.1-1.5-1.5-2.2-3.8-.5-2-1.1-5.2-1.4-7.2-.2-2.3 0-5 .8-7.7.9-2.9 2.1-5 4.5-7.6 1.8-2 4.4-4 5.8-4.6a66 66 0 0 1 6.8-2.2c2.3-.7 4.3-1.6 4.3-2.1s-1.2-1.5-2.5-2.2c-1.4-.7-3-2.4-3.8-3.7-1.1-2.1-1.2-3.6-.9-10.6.2-4.5.7-9.2 1.2-10.4l.7-2.2-2.4-3.8Zm166 139.2h-4c-2.4 0-6-.7-9-1.7-2.9-1-7.7-3-10.9-4.7a45.4 45.4 0 0 1-9.2-6.4c-3.1-3.2-3.6-3.4-5.3-2.8-1 .4-4.6.7-7.9.7-3.2 0-6-.2-6.2-.5l.2 5.7c0-1.6.2-1.6 7.5-1.6h7.6l2.6 2.6a40 40 0 0 0 8.4 5.8 43.8 43.8 0 0 0 20.7 6.4l6.8.4-1.2-3.9Zm30.2-40.5c.2 1.1 0 2.6-.2 3.3-.3.8-.6 3-.6 4.8 0 1.9-.5 4.3-1 5.4a16.6 16.6 0 0 1-10.1 7.2c-2 .4-3.9 1-4.4 1-.7.3-.6 1 .5 2.9a9 9 0 0 1 1 4 22 22 0 0 1-1.8 3.9 12.6 12.6 0 0 1-6 4.7l1.3 4.4 3.2-2c1.7-1 3.9-3.2 4.9-4.8 1.1-1.8 2-4.4 2.2-6.7.4-3.5.6-3.8 2.5-4.2 1.2-.2 3.6-1.6 5.4-3 1.7-1.4 3.7-3.6 4.5-4.8.8-1.3 1.3-3.5 1.3-5.5 0-1.9.4-4.2.8-5.3l.8-2-4.3-3.3Zm30.6 34.5c.4.8 0 .8-2 0-1.3-.6-3.2-1-4.2-1s-2.6.3-3.7.7c-1.1.4-4 .8-6.3.9-4.1.1-4.3.2-5.4 2.6l-2 4.2a72.2 72.2 0 0 0-3.6 17.1c0 2.2.5 5.4 1 7 .7 1.7 1.1 3.4 1.1 3.7 0 .4-.5.6-1.2.6s-1.6-.3-2-.7c-.5-.4-2.8-.7-5.3-.5-3.9.2-4.6.4-5.9 2.1-1 1.4-1.6 4-2.2 9.2-.7 6.1-1 7-1.4 4.9l2 9.9c.2 0 1.6 2.2 3.2 4.8 1.6 2.8 4.3 6.1 6.5 8a36.5 36.5 0 0 0 18.3 7.1h3l-.2 2.6c0 .8 0 1.4-.3 1.8l4-1.6c0-.4.6-2 1.4-3.7 1-2 1.2-3.2.8-3.6-.5-.5-1.7-.4-3.5.1-1.5.5-3.4.8-4.2.8a42.8 42.8 0 0 1-16.2-6.3 39 39 0 0 1-6.6-8c-3-4.8-3.2-5.6-3.2-10.2 0-2.7.1-6.4.4-8.3.3-1.8.8-4 1.3-4.8.5-1 1.5-1.4 3.2-1.4 1.3 0 2.6.3 2.8.7.3.4 2.8.7 5.6.7a21 21 0 0 0 5.6-.4c.3-.3-.3-2-1.2-3.8-.9-1.8-2-4.9-2.5-6.9-.8-2.8-.8-4.5-.1-7.8a98.6 98.6 0 0 1 4.8-15.5c.8-1.3 1.1-1.3 3.7-.7 2.3.7 3.3.6 5.5-.4 2.4-1.1 3-1.2 5.5-.3a37.8 37.8 0 0 1 13.7 9L660.8 764ZM545.3 677c4.3.3 4.7.1 7.8-2.1l2.4-1.8 2.6-2 1.9-1.3-.4-9.5-.4-9.5-5 .9c1-.1 1.3.7 1.6 3.6l.7 8.1c.2 3.8 0 4.5-1 4.9a22 22 0 0 0-4.4 2.8 11 11 0 0 1-4.8 2.4c-1 0-2.2-.2-2.8-.6-.8-.5-.7-1.3.2-5.1l-3.2 9.8c.4-.8 1.2-.8 4.8-.6Zm46.7 14.4a8.8 8.8 0 0 1-2.7 1.2l2.3 4 3.3-2a10 10 0 0 1 2.9-1.2l-3.2-3.3-2.6 1.3Zm21.7 158.2-4-.4a33.2 33.2 0 0 0-20.2 5.1l-7.1 4-3.5-3.3a40 40 0 0 0-8.3-5.5 111 111 0 0 0-11.3-4.5l-6.5-2.1 1 4.3a255.4 255.4 0 0 1 14.3 5.7c3 1.4 6.8 4 8.8 5.8 2 1.8 4 4.1 4.3 5 .3 1 1 1.6 1.5 1.4.5-.2 1.3-1 1.7-2 .6-1.2 3.4-3.2 7.6-5.5 4.4-2.5 8-4 10.8-4.4a24 24 0 0 1 7-.2c1.6.2 3.3.7 3.8 1l.1-4.4Zm-57.9 73.7a7 7 0 0 1 3-.5c2 0 2.4.2 2.4 1.6 0 1 .5 3.4 1.1 5.4a19 19 0 0 0 4 7c1.7 1.7 3.8 3.5 4.8 4 1 .6 4.7 1.5 8.3 2.1a24 24 0 0 1 11.5 4.3c2.7 1.8 5.5 3.3 6.1 3.3.6 0 1.1.4 1.1 1l1-4.6a26 26 0 0 1-6.1-3.2 21.8 21.8 0 0 0-11.2-4.2c-3.3-.5-7-1.4-8.3-2-1.2-.7-3.1-2.3-4.4-3.7a20.5 20.5 0 0 1-3.4-6.5 12 12 0 0 1-.3-7.6c.4-2 .6-3.7.4-4-.3-.2-2 .5-4 1.6-1.9 1-4.2 2-5.1 2H555l.8 4Z"/>
  <path fill="#C6FFB9" fill-rule="evenodd" d="M659.5 290a160 160 0 0 1 12.4 42 257.7 257.7 0 0 1 1.2 31.4l-.5 4.7-12.6 2.2c-6.9 1.2-14.5 2.4-17 2.7l-4.4.4v-4.2c0-2.3-.4-4.7-.9-5.3a5.2 5.2 0 0 0-2-1.5c-.5-.2-1.7 0-2.6.3-1 .3-2 1.4-2.4 2.5-.4 1.1-.8 3.8-.8 6 0 2.3.4 4.8 1.2 6.2a9.3 9.3 0 0 0 3.6 3.5c1.4.6 2.5 1.3 2.5 1.5l-.8 3c-.4 1.3-1 4.5-1.3 7a35 35 0 0 0 0 9.4c.3 2.7 1.3 6.7 2 9a43.5 43.5 0 0 0 12 17 47.5 47.5 0 0 0 16 8c2.1.3 5.7.8 8.2 1l4.5.1 1.7 4.2 5.9 15.2c2.2 6 5 14 6 17.8a158.6 158.6 0 0 1 5.3 27c.4 4 .4 9.6 0 14.1a130.3 130.3 0 0 1-9.4 38.2c-.8 1.5-1.3 1.3-25.1-11.5-18.4-10-25.3-13.3-28.4-13.8a78.2 78.2 0 0 0-24.7.5 480.6 480.6 0 0 0-3.6-30.4 371 371 0 0 0-8-37.2c0-.4 2.9-2.2 6.5-4a37 37 0 0 0 11.6-8.1c3.8-3.8 5.4-6 6.5-9 1-2.9 1.4-5 1.1-7.5-.1-1.9-1-4.8-1.9-6.5a19 19 0 0 0-4.2-5.3 10.5 10.5 0 0 0-6.1-2.5c-2.7-.2-4.4 0-7.3 1.4a93 93 0 0 0-9.4 5.5l-5.7 3.7-5-.5c-2.8-.2-7.2-1-10-1.5-2.7-.6-7.3-1.1-10.3-1.3a22.4 22.4 0 0 0-15.1 4.1 16.5 16.5 0 0 0-5.8 12.3c0 2.6.6 4.5 2 6.8 1 1.8 2.9 4.1 4.1 5.2a32 32 0 0 0 5 3.3c1.6.8 5.3 2 8.3 2.8 3 .7 8.8 1.6 13 2a41.4 41.4 0 0 0 15.6-.6c.3 0 .9 1.2 1.3 2.6a463.6 463.6 0 0 1 7 36.4c.8 5 2 13.8 2.7 19.9.8 7.2 1 11 .5 11.2a81.7 81.7 0 0 0-18 14.3 88.2 88.2 0 0 0-9 11c-2 3.2-2.3 4.1-1.7 5.3a3 3 0 0 0 2.5 1.5c1.1 0 2.7-1.4 5.3-4.6a93.6 93.6 0 0 1 18.4-16.8c3-1.9 5.5-3.3 5.8-3a10513.3 10513.3 0 0 1 62.5 43.3c1 1 .3 1.7-5 6.8a206.6 206.6 0 0 1-26.6 21.4 139 139 0 0 1-12.8 7.3 123.6 123.6 0 0 1-40 11 327.6 327.6 0 0 1-40.6.4 135 135 0 0 1-30.8-6.3 96.3 96.3 0 0 1-11.4-4.6 88 88 0 0 1-21.8-15.3 81 81 0 0 1-8.7-10.4 70.7 70.7 0 0 1-5.6-10.6c-2-5-2.2-6-2.2-14.3 0-8.5.2-9.6 4.1-24.5a110 110 0 0 0 4.5-22.7c.2-3.8 0-9.3-.5-12a57 57 0 0 0-8.1-21.6 45.8 45.8 0 0 0-6.3-7.7 39.7 39.7 0 0 0-12.2-6.8c-1.2-.3-7-1.6-12.7-2.7a107.1 107.1 0 0 1-28.6-9c-3-1.7-8.4-5-11.9-7.4a47.6 47.6 0 0 1-16.5-18.2 56.7 56.7 0 0 1-3.5-10 77.2 77.2 0 0 1 0-26.2c.6-3.2 2-8.7 3.3-12.4a119 119 0 0 1 39.3-54.1 160.5 160.5 0 0 1 29.2-19 136.5 136.5 0 0 1 25.2-9.2l9.6-1.8a128.2 128.2 0 0 1 33.6.4c5 .8 12.2 2 16 2.9a352.3 352.3 0 0 0 34.5 4.9 165.8 165.8 0 0 0 45.4-2.5 136.1 136.1 0 0 0 29.3-9.5c3.3-1.5 7.8-4 10.1-5.6a43 43 0 0 0 7.1-5.7c1.6-1.6 3.1-2.9 3.4-2.9a24 24 0 0 1 3 5.5Zm-165.8 91c0-1.3.7-2.8 1.8-3.9 1-1 2.2-1.7 2.7-1.7a6 6 0 0 1 2.5 1c1.1.9 1.6 1.9 1.6 3.7a21 21 0 0 1-.9 5.4c-.5 1.6-2 4.2-3.5 5.7l-2.7 2.8 2 4a46.2 46.2 0 0 1 4.3 17.6 50.5 50.5 0 0 1-4.5 17.6c-1.4 2.8-4 6.7-5.7 8.7a46.2 46.2 0 0 1-15.5 10.8 52 52 0 0 1-9.1 2.1c-3.5.5-7 .5-10 0-2.7-.3-6.7-1.3-9-2a43.5 43.5 0 0 1-17-12 49.3 49.3 0 0 1-8-16.4 49 49 0 0 1 .3-19 44 44 0 0 1 4-9.7c2.7-4.7 2.7-4.7 1-4.7-.9 0-2.5-.4-3.5-.8-1-.5-2-1.6-2.2-2.5a5 5 0 0 1 .4-3c.4-.8 1.5-1.7 2.4-2 .9-.1 10.5.7 21.5 1.9l28.3 2.8c5.4.5 9.8.5 12 .1a8.5 8.5 0 0 0 5.2-2.5c1-1 1.6-2.8 1.6-4Z" clip-rule="evenodd"/>
  <path fill="#FFD9B8" d="M469.2 646c4.7 1.5 11.5 3.3 15.3 4a241.6 241.6 0 0 0 33.1 4l10 .6-1.3 5a53 53 0 0 0-1.3 15.3c0 7.6.3 10.7 1 12.2.7 1.2 1.7 2 2.6 2 .7 0 1.4-.2 1.4-.6 0-.4.2-.7.6-.7.3 0 1 1.8 1.4 4 .4 2.2.8 4.5.8 5.2 0 .8-1.3 1.5-4.6 2.3a58 58 0 0 1-8.7 1.7 43.8 43.8 0 0 1-17.1-2.3l-2.7-1-1.2-7.3c-.7-4.3-2-8.8-3-11a14.8 14.8 0 0 0-5.2-6l-10.3-8c-4-3.1-11.7-10-17.1-15.4l-10-9.8 4 1.5c2 .9 7.6 2.8 12.3 4.3Zm66.6 16.7-2 7.7-1 2.8.4-2.8c.2-1.6.9-5 1.5-7.7.6-2.6 1.3-4.8 1.6-4.8.4 0 .1 2.2-.5 4.8Z"/>
  <path fill="#FEFFB9" d="M584 707c0 .8-.4 1.3-.8 1-.3-.2-.5-.9-.2-1.4.2-.6.5-1 .6-1 .2 0 .3.6.3 1.4Zm5.3-14.4c0 .1 1.3-.4 2.7-1.2l2.6-1.3-3.6-3c-2-1.7-3.5-2.7-3.5-2.2l.8 4.1 1 3.6Z"/>
  <path fill="#000" fill-rule="evenodd" d="M448.8 182.6a699 699 0 0 1 20.1-3.1c3-.4 13-.6 22.4-.5 10.2.2 20 .7 24.5 1.4l11.7 2a357.2 357.2 0 0 1 49.8 14.8 168.8 168.8 0 0 1 42 25.3 204.1 204.1 0 0 1 24 24.4 250.3 250.3 0 0 1 19.3 28.6 187.6 187.6 0 0 1 13.5 32.5 123.3 123.3 0 0 1 5.3 41.3c.1 12.4.3 16.1 1 16.1.5 0 6-1.4 12.4-3.2 6.2-1.8 12-3 12.7-2.8.8.3 1.7 1 2.1 1.9.5.8.6 2.2.4 3.1-.2 1-1.4 2.2-2.5 2.8-1.2.6-2.6 1-3.2 1-.6 0-1.1.3-1.1.5s1.1 1.7 2.4 3.4a49 49 0 0 1 5 8.3 39 39 0 0 1-8 44.7 34.5 34.5 0 0 1-9.9 7.1c-2.8 1.4-5 2.8-5 3.2-.1.4 1.8 5.3 4.2 11a206.1 206.1 0 0 1 12.2 36.1c1.3 5.8 1.5 9 1.5 21.4 0 8-.4 17.4-.9 21a156.9 156.9 0 0 1-7.4 28.4c-1.7 4.2-2.2 6.1-1.6 6.6l7.9 4.3c3.9 2 8.2 4.7 9.7 5.9 1.8 1.4 2.9 3 3.5 5 .4 1.6.6 5 .4 7.6a22 22 0 0 1-1.9 7.7 34 34 0 0 1-4.4 6.2 19 19 0 0 1-6.9 4.6 14 14 0 0 1-6 1c-1-.1-6.2-3.3-11.6-7l-9.7-6.8-7.4 7.3c-4 4.1-9.4 9.2-12 11.3a238.2 238.2 0 0 1-40 25.3 218.1 218.1 0 0 1-39.8 14.6l-4.2 1.1 1.8 4.1a81 81 0 0 1 2.6 6.4c.4 1.2 1 2.3 1.3 2.3.3 0 1.2 1.9 2 4.2 1.5 4 2.3 4.9 9.2 10.6a370.9 370.9 0 0 1 39.5 40l23 27.3 12.7 15 1.2-9.3a217.9 217.9 0 0 1 8.7-40.2c1.7-5.5 5.6-14.6 8.7-21 3.3-6.6 7.6-14 10.3-17.5 2.5-3.4 6.9-8.6 9.7-11.7a149.8 149.8 0 0 1 27-21.4c4-2.4 11-6 15.4-8a153.3 153.3 0 0 1 31.6-9.5 103.7 103.7 0 0 1 42.5 1.4c4.2.9 10.6 2.8 14.2 4.3a65.7 65.7 0 0 1 22.8 14.2c3 2.8 6 6.8 7.3 9.2 1.3 2.3 2.8 6 3.4 8a41.8 41.8 0 0 1 0 19.3c-.6 2.2-2 5.7-3.2 7.9a38.7 38.7 0 0 1-5.7 7.6c-2 2-5.4 4.5-7.6 5.7-2.2 1.1-6 2.5-8.5 3a41 41 0 0 1-8.5.3l-15.8-2.2c-7-1-15-1.7-20-1.7a53.2 53.2 0 0 0-25.8 6 75 75 0 0 0-11.8 7.3 75.4 75.4 0 0 0-16.7 19.3 225.3 225.3 0 0 0-12.9 22.8 281.9 281.9 0 0 0-11.1 30c-1.4 4.7-3.5 13.2-4.6 18.9l-4.3 23.5a882.4 882.4 0 0 1-5.7 30c-.6 2.2-.1 4.4 3.3 15.9a726.7 726.7 0 0 1 19.5 85 717 717 0 0 1 4.2 36.8c0 2 0 2-4.3 2-2.8 0-4.3-.3-4.5-1l-1.7-15a855 855 0 0 0-3.4-26 686.9 686.9 0 0 0-17.7-79 811.5 811.5 0 0 0-12-37.2c-.1-.1-2.7 1.7-5.8 4-3 2.2-7.7 5.4-10.3 7a208.4 208.4 0 0 1-28.7 14 133.4 133.4 0 0 1-19.7 5.7c-1.8.4-2 .6-2 4.3 0 3 .5 4.6 1.8 6.6a166.5 166.5 0 0 1 14.9 34.3 329.8 329.8 0 0 1 5.8 33.9c.6 5.3 1.3 18.4 1.5 29l.4 19.4h-8.5l-.4-9.4a585.7 585.7 0 0 1-.8-21.7c-.1 0-4.5 2-9.7 4.8A212.3 212.3 0 0 1 598 980c-3.8 1.3-4 1.5-7.3 7.6l-3.5 6.2h-4.5a14 14 0 0 1-4.6-.4l6.4-12.2c3.5-6.6 8-15.7 10-20.3 2-4.6 3.5-8.8 3.5-9.4l1-4.6c.8 0 1.8-2.3 3.6-8 1.3-4.4 3-9.7 3.5-11.9a238.7 238.7 0 0 0 5.7-28.4 310.2 310.2 0 0 0 2.5-35.6c0-5.7-.2-8.4-.8-9l.1-4.4v-3a227 227 0 0 0-6.7-41.3c-.9-4.3-2.2-11.4-2.8-15.6l-2-11.8-1-3.9-1.1-3.9-.2-2.3c-.1-1.2-.8-4.1-1.4-6.4-.7-2.2-1-4.7-.7-5.5.2-.8 1-1.7 1.8-2.2 1.1-.5 1.9-.4 3.2.4 1 .7 2.1 2.7 3.1 5.8a35.4 35.4 0 0 1 1.7 7l1.3 4.3a257.1 257.1 0 0 0 8.8 43.6l2 10c-.2 0-.1.7 0 1.6a202.3 202.3 0 0 1 2.6 23.2c0 2.6.4 3.7 2.2 5.7l2.2 2.4 5-1.2a116 116 0 0 0 11.9-3.9c4.7-1.8 6.1-2.4 6.6-3.5l4-1.6c0 .5 2.8-.6 6.2-2.5a145.6 145.6 0 0 0 25.6-17.4c3.2-2.8 7.4-7 9.4-9.3 2-2.4 3.5-4.5 3.5-4.7 0-.3-2-3.3-4.4-6.7a745.3 745.3 0 0 0-23.5-30.2L660.8 764l-11.6-13.9c-6-7.1-11.8-14-12.9-15.1l-1.8-2.2-4.3-3.3c-.1-1-2.7-4.8-5.7-8.6l-7.6-9a251.8 251.8 0 0 0-19.1-18.6l-3.2-3.3-3.6-3c-2-1.7-3.5-2.7-3.5-2.2l.8 4.1 1 3.6 2.3 4c-1 .7-1 1.3-.2 5.7.6 2.8 1.2 8.4 1.5 12.6.4 6.3.3 7.9-.7 9.3a5 5 0 0 1-2.7 2.1c-1.1.3-2.1-.2-3.7-1.8l-4-4.7-3.6-4.6-.7-1-2.8-3.4-7.4-7.7c-3.1-3-6.3-5.8-7.1-6l-6.2-4.4-.2-.1a28.2 28.2 0 0 0-11.2-2.7c-2.3 0-3.4.3-3.4.9l1 7a213 213 0 0 1 1.1 6.3l2.5 17.7a.4.4 0 0 0 0 .8l.7 5.5v.8c.2 1 .9 7.1 1.5 13.5.6 6.5 1.3 12 1.5 12.3l.2 5.7 1 14.7c.6 7.2 1.5 22.6 2.2 34l1.5 27.4.4 6.4 1 4.3c-1.2-.4-1.3-.1-.9 4.4.3 2.6.6 13.4.8 24l.8 31.4.5 12.2.8 4.1c-.6.4-1 10.8-1.3 35.5l-.6 34.9h-6l.3-34.9a2359.7 2359.7 0 0 0-2-115.9 2992.7 2992.7 0 0 0-3.8-62.1 1480.6 1480.6 0 0 0-7.8-73.6c-.2-.6-1.5-.5-4.8.2-3.2.8-7 1-13.3.8a49 49 0 0 1-15.8-2.7c-.5 0-.6 3.5-.4 10.4.3 5.7.2 19-.2 29.3-.4 10.4-1.1 28.3-1.7 39.8a13339.8 13339.8 0 0 0-7.1 165.8l-1.5 35.7-.4 7.3h-6.2l.3-7a5095.5 5095.5 0 0 0 2.8-72.4l.3-4.5 1.5-32.9c.7-17.5 1.2-32 1-32.2l.7-11.6.7-14c.3-5.4 1-21.5 1.5-36 .6-16 .8-27.1.4-28.1l.3-8.8.6-6.4c.3-3.7.2-13.9-.2-24.4-.4-10-1.1-20.5-1.6-23.3-.7-4.8-.9-5.1-2.3-4.7-.8.3-2.8 1.3-4.3 2.4a61 61 0 0 0-14.1 15 130 130 0 0 0-5.4 9.7 392.5 392.5 0 0 0-10 22.6c0 .3-.5 1-1.2 1.8-.6.7-2 1.3-3.1 1.3-1.2 0-3.1-.9-4.7-2.2a340 340 0 0 1-11.6-11.1l-9-8.8-3.8-3.3c0-.3-3.5-4.3-7.9-9a351.7 351.7 0 0 1-28.3-33.6 193.5 193.5 0 0 1-18.9-31c-3.3-7-4.5-8.9-5.6-8.9 1.5-4.1-8.2.2-13.3 2.8l-6.3 2.6a183.8 183.8 0 0 0-41 24.7 502 502 0 0 0-16 12.8 292 292 0 0 0-13.4 12l-4.8 5-4.6 4-5.4 5.5a72.5 72.5 0 0 0-4.4 4.8l-8.5 9A821.7 821.7 0 0 0 212 754c-3 4-5.2 7.1-5 7.2l-3 3.3-7 9.4-12.2 17c-3 4.1-6.2 9-7.3 10.7-1 1.8-1.8 3.6-1.8 4a29 29 0 0 0 3.5 6c2 2.8 4.9 6.6 6.5 8.3l2.8 3.1 3.6 3c-.2.2.3 1 1 1.8a192.8 192.8 0 0 0 19.8 16c2.4 1.6 6.6 4.2 9.4 5.8 4 2.2 6.2 3 10 3.4a94.3 94.3 0 0 1 22.8 6.8c2.4 1 5.4 2 6.5 2 1.8 0 2.3-.6 5.7-6.9 2-3.8 8.4-14.8 14.2-24.5 5.9-9.6 10.8-18 11-18.6l13.8-22.1 3.2-4.6c1.7-2.4 3.1-4.5 3-4.6l9-12 6.3-8.2 3.7-5 3.2-4a39 39 0 0 1 5-5.4c1-.7 2.3-1.1 3-.9a3 3 0 0 1 1.6 1.6c.2.6-.4 2.7-1.3 4.7-1 2-4 6.9-6.8 10.8-2.8 3.9-5 7.6-5 8.2 0 1 .4 1 4.8.1 2.6-.5 6.3-.9 8.2-.7 2.3.2 3.9.8 4.5 1.6a5 5 0 0 1 1 1.9c0 .3-.8 1.2-1.6 2-.9.7-4.2 2-7.8 2.8l-12.5 3-6.2 1.4-6.2 8.4a257 257 0 0 0-13.3 20.3l-7 12 4.4 18.3 4.3 18.2 2 9.1 1.9 9 1.9 8.8 3.1 16 1.7 10.2c1 5 2 10.7 2.2 12.6l.5 3.5.6 5.1.7 4.4c.5 2.3.6 3.3 1 3.7l1.2 8.2c-.3.2-.8 3-1 6.2-.2 3.2-.8 7.3-1.4 9l-1 3 3 3.9c1.8 2 3 4.1 2.8 4.5-.2.4-2.2.9-4.5 1.2l-5.3.6c-.8 0-2.9 2.1-5.2 5.3l-5.4 7.7c-1.6 2.2-1.7 2.3-7.1 2.3H290l6.5-10.1c3.6-5.6 7.6-12.2 8.9-14.7a47 47 0 0 0 3.1-8.5c.5-2.2.8-6 .8-8.6 0-2.5-.6-8.1-1.2-12.4a859.6 859.6 0 0 0-7.5-43 1114.2 1114.2 0 0 0-6.4-31.6 3607.8 3607.8 0 0 0-6.2-28.3c-.2-.3-1.2.9-2.3 2.6a524 524 0 0 0-6.5 11c-2.4 4.2-5.3 9.7-6.4 12.2-1 2.6-2.8 5.4-3.9 6.3-1.9 1.7-2.3 1.7-9.4 1.3-4.1-.2-8.1-.6-9-.8-1-.3-1.9.4-4 3.7a76.5 76.5 0 0 0-8.4 17.6 37.6 37.6 0 0 0-1.5 12.8 75.5 75.5 0 0 0 4.5 26.6 1485 1485 0 0 0 11.6 36l9.3 28-5-.3-5-.2-9.7-29a822.5 822.5 0 0 1-12.4-39.7 61.3 61.3 0 0 1-2.7-20c0-7.5.3-10.3 1.6-14.8a83.4 83.4 0 0 1 8.4-19l2.9-4.6-4.6-1.7a128.6 128.6 0 0 1-25.5-13.4c-3.5-2.3-8.7-6.1-11.6-8.4a174 174 0 0 1-19.8-19 16.8 16.8 0 0 0-3.3-3.1s-1.5 2.7-3 5.9A295.7 295.7 0 0 0 153 877a271.2 271.2 0 0 0-8.1 72.5A482.2 482.2 0 0 0 147 989l.5 4.8H139l-1-11.2a496 496 0 0 1-1-37.1 232.7 232.7 0 0 1 14.5-90.7A343 343 0 0 1 165 824l5.5-11-1.6-2.5c-1-1.5-1.7-3.6-1.7-5.3a9 9 0 0 1 1.9-5.7 1675.8 1675.8 0 0 1 60-78.7c6-7 14.3-16.6 18.6-21.3a298.7 298.7 0 0 1 26.7-25.4 719.6 719.6 0 0 1 39-30A218.2 218.2 0 0 1 352 625l7.8-2.8 2.4-5.3a619.4 619.4 0 0 1 18-35 80 80 0 0 0-5.3-7.8 353.3 353.3 0 0 1-23.6-38.8c-.2-.2-2.3 1.6-4.7 4a76.7 76.7 0 0 1-7.6 6.3 69.7 69.7 0 0 1-19 8.8 44 44 0 0 1-13 1.6c-5.9 0-8.8-.5-13.7-2a88.5 88.5 0 0 1-22.8-11c-2.7-1.9-7.2-5.5-10-8a127.7 127.7 0 0 1-19-23 97.4 97.4 0 0 1-9-21.9 88.8 88.8 0 0 1-2.5-25 78.5 78.5 0 0 1 4.7-22.7c1-3 3.3-7.6 5-10.3a70.5 70.5 0 0 1 18.3-19 73 73 0 0 1 10.9-5.8 31 31 0 0 1 13-2.5A50 50 0 0 1 297 406a123.2 123.2 0 0 1 12.5 3.2 702.5 702.5 0 0 0-13.7-52.7c-1-3.2-2.8-8.1-4-11a51.1 51.1 0 0 0-9-15.2 58 58 0 0 0-8.7-6.6c-6-3.8-7.1-5-8.8-8.2-1-2-2-4.8-2-6.2-.2-1.4.3-4 1-5.8.7-1.8 2.3-4.8 3.6-6.8a74 74 0 0 1 17-17.2 427.2 427.2 0 0 1 58.2-41.2l1.8-1.5-1.8-1.5-5.8-5a43.2 43.2 0 0 1-12.3-17.9c-.6-1.9-1-5.1-1-7.1 0-2.4.5-4.4 1.4-6 .9-1.4 2.7-2.9 4.5-3.7 1.7-.7 5.3-1.7 8-2 2.7-.4 14.5-.7 26.2-.7s24.9-.3 29.2-.8a263.4 263.4 0 0 0 32.5-5.4c4.5-1 14.8-2.8 23-4.2Zm-55.7 811h3-3Zm128.3-804.2a237.5 237.5 0 0 0-40.4-3.1 250.3 250.3 0 0 0-33 4.8l-27 6a394 394 0 0 1-20.6 4 233 233 0 0 1-34.1 1.4c-14.4 0-28 .4-30 .7-3.5.4-3.7.6-3.7 2.4 0 1.1 1 4.2 2.4 7 1.4 2.6 3.8 6.3 5.4 8.2 1.7 1.9 5 4.7 7.3 6.3a46 46 0 0 1 6 4.7c1 1 1.6 2.7 1.6 4 0 1.2-.6 3.2-1.3 4.4-.8 1.2-4 4-7.3 6.1l-13.8 8.8a403.8 403.8 0 0 0-52.4 39.2 56.7 56.7 0 0 0-6.2 7.5 15 15 0 0 0-2.8 6.2c0 1.2.5 3 1 4 .7 1.3 3.1 3.1 6.9 5.2 3.2 1.7 7.4 4.6 9.4 6.3a51.2 51.2 0 0 1 13.2 20.8c1.5 4 4.3 12.4 6 18.6a691.7 691.7 0 0 1 10.8 42.5l2.4 11.2 5.2 5.2c2.9 2.8 7 7.4 9.2 10a126.9 126.9 0 0 1 15.3 25c2.3 4.6 5 10.8 6.1 13.7 1 3 2.7 8.5 3.7 12.4 1.4 5.7 1.7 8.9 1.7 15.7 0 4.6-.6 10.9-1.2 13.8-.6 3-1.8 7-2.8 9.1-.9 2.1-1.7 4.2-1.7 4.7a380.8 380.8 0 0 0 18.3 32 286.5 286.5 0 0 0 24.8 32.5c3.5 3.7 9 9.3 12.3 12.3a213.7 213.7 0 0 0 25.9 19.4 210.2 210.2 0 0 0 30.5 14.4 185 185 0 0 0 30.2 7.3 227.3 227.3 0 0 0 45 .8 265 265 0 0 0 35.6-6.8l4.3-1.4-4 .3-13.8.8a199.7 199.7 0 0 1-39.3-2.6 152.1 152.1 0 0 1-29-8.9 98.5 98.5 0 0 1-35-28.6 81 81 0 0 1-5-8.9 71 71 0 0 1-3.6-10.4 32.9 32.9 0 0 1-1.1-12.4 93 93 0 0 1 2.9-16l3.6-13.8 1.9-8.9c.4-2.5.7-6.8.7-9.6a51.3 51.3 0 0 0-4.7-21.4 46.5 46.5 0 0 0-6.1-9c-2-2.3-5.2-4.7-7.3-5.7-2.1-1-8.3-2.8-14.7-4a123.7 123.7 0 0 1-32.8-10.7c-3.9-2-9.5-5.5-12.5-7.7a90 90 0 0 1-10.3-9.3c-3.3-3.5-5.7-7-7.5-11a74 74 0 0 1-4-10.6c-1-3.8-1.4-7.6-1.3-15.3 0-5.8.4-12.1 1-14.6a124 124 0 0 1 50.4-74c3.6-2.9 9.6-7 13.1-9.2a173 173 0 0 1 46.2-18.6c5-1.1 10.7-1.7 19.9-2 9.4-.2 14.5 0 19.5.8a763 763 0 0 1 19.6 3.5 190.5 190.5 0 0 0 48.6 5c14.3 0 17-.2 25.6-1.9a107.7 107.7 0 0 0 29-9 55.4 55.4 0 0 0 14-9.4 16 16 0 0 0 3.8-5.3c.7-2.2.6-2.7-2.6-7.8a218.3 218.3 0 0 0-19.2-25.4 189.2 189.2 0 0 0-26.4-23.8c-3.8-2.6-10.4-6.8-14.7-9.2a204.8 204.8 0 0 0-50.3-19.2c-4.7-1.2-12.3-2.8-16.8-3.5ZM664.6 302l-5-12.1c-1.5-3-2.8-5.5-3.1-5.5-.3 0-1.8 1.3-3.4 2.9a53.4 53.4 0 0 1-7 5.7 105.1 105.1 0 0 1-39.5 15.1 165.8 165.8 0 0 1-63.5.4c-5-.7-12.4-2-16.3-2.8l-16.1-2.9a126.3 126.3 0 0 0-33.6-.4 126.4 126.4 0 0 0-19.6 4.8 136.5 136.5 0 0 0-44.4 25.2 148.4 148.4 0 0 0-24.6 25.9 119 119 0 0 0-14.8 28.3c-1.2 3.6-2.6 9.1-3.2 12.3a95.6 95.6 0 0 0 0 26.3 63 63 0 0 0 3.5 10 47.6 47.6 0 0 0 16.5 18c3.5 2.6 8.8 5.8 11.9 7.4a107.1 107.1 0 0 0 28.6 9l12.7 2.8a43.8 43.8 0 0 1 12.2 6.8 45.8 45.8 0 0 1 11.7 18.5c1 3.1 2.3 8 2.7 10.8a73.8 73.8 0 0 1-4 34.7c-3.9 15-4 16-4 24.5 0 8.2 0 9.2 2 14.3a84 84 0 0 0 5.7 10.6 81 81 0 0 0 19.7 19.4c3.2 2 8 5 10.8 6.3 2.7 1.3 7.8 3.5 11.3 4.7a135 135 0 0 0 30.8 6.3 327.6 327.6 0 0 0 40.6-.5 159.6 159.6 0 0 0 27-5.8 123 123 0 0 0 13.1-5.2 135.2 135.2 0 0 0 26.3-17.3c3.9-3.1 9.8-8.3 13.1-11.4 5.3-5 6-5.9 5-6.8a10513.3 10513.3 0 0 0-62.4-43.4c-.4-.2-3 1.2-5.9 3.1a93.6 93.6 0 0 0-18.4 17c-2.6 3.2-4.2 4.6-5.3 4.6-1 0-2-.6-2.5-1.5-.6-1.2-.4-2 1.6-5.4a88.2 88.2 0 0 1 27.1-25.2c.5-.2.3-4-.5-11.2a568.8 568.8 0 0 0-6.5-41.2l-3.2-15c-.4-1.5-1-2.7-1.3-2.7l-4.4.7c-2.6.5-6.2.5-11.3 0-4.1-.5-10-1.4-13-2.1-3-.8-6.6-2-8.2-2.8a32 32 0 0 1-5-3.3c-1.2-1-3.1-3.4-4.2-5.2a12.7 12.7 0 0 1-1.9-6.8 16.5 16.5 0 0 1 5.8-12.3 22.4 22.4 0 0 1 15.1-4.1c3 .2 7.6.7 10.3 1.3 2.8.6 7.2 1.3 10 1.5l5 .5 5.7-3.7a93 93 0 0 1 9.4-5.5c3-1.3 4.6-1.6 7.3-1.4 2.5.3 4.3 1 6.1 2.5a19 19 0 0 1 4.2 5.3c.9 1.7 1.8 4.6 2 6.5a16 16 0 0 1-1.2 7.5c-1.1 3-2.7 5.2-6.5 9a37 37 0 0 1-11.6 8.2 23 23 0 0 0-6.6 3.9l2.1 8.9a382.7 382.7 0 0 1 6 28.3c.6 3.7 1.6 12 2.3 18.5a215 215 0 0 0 1.3 11.9 63.5 63.5 0 0 1 13.6-1.3c3.9 0 9 .3 11.1.8 3 .5 10 3.9 28.4 13.8 23.8 12.8 24.3 13 25.1 11.5a120.4 120.4 0 0 0 9.4-52.4 158.6 158.6 0 0 0-5.3-27 279 279 0 0 0-6-17.7 774 774 0 0 0-5.9-15.2l-1.7-4.2-4.5-.2c-2.5-.1-6.1-.6-8-1a47.5 47.5 0 0 1-16-8 43.5 43.5 0 0 1-12.1-17c-.8-2.2-1.8-6.2-2.1-8.9a35 35 0 0 1 0-9.4 66.7 66.7 0 0 1 2-10c0-.2-1-.9-2.4-1.5a10 10 0 0 1-3.6-3.5c-.8-1.4-1.2-4-1.2-6.3 0-2.1.4-4.8.8-5.9.4-1 1.5-2.2 2.4-2.5.9-.4 2-.5 2.6-.3.6.2 1.5.9 2 1.5s.9 3 .9 5.3v4.2l4.4-.4c2.5-.3 10.1-1.5 17-2.7l12.6-2.2.5-4.7A257.7 257.7 0 0 0 672 332a167.3 167.3 0 0 0-7.4-30Zm38.8 79.8a35 35 0 0 0-5.2-7.3c-1.8-2-3.7-3.5-4.3-3.4a392.5 392.5 0 0 1-35.1 7.9l-13 2.3-1.1 2.5a45 45 0 0 0-1.8 5.3 40.5 40.5 0 0 0 .6 17.3 33.5 33.5 0 0 0 8.8 14.1c1.7 1.6 4.5 3.7 6.2 4.7a30 30 0 0 0 18.2 3.9 23 23 0 0 0 11.9-3c2.9-1.4 6.7-4 8.7-6a37 37 0 0 0 9.4-18.5c.7-4.2.7-6-.2-10.5-.6-3-2-7.2-3-9.3Zm-209.7-1c0-1.2.7-2.7 1.8-3.8 1-1 2.2-1.7 2.7-1.7a6 6 0 0 1 2.5 1c1.1.9 1.6 1.9 1.6 3.7a21 21 0 0 1-.9 5.4c-.5 1.6-2 4.2-3.5 5.7l-2.7 2.8 2 4a46.2 46.2 0 0 1 4.3 17.6 50.5 50.5 0 0 1-4.5 17.6c-1.4 2.8-4 6.7-5.7 8.7a46.2 46.2 0 0 1-15.5 10.8 52 52 0 0 1-9.1 2.1c-3.5.5-7 .5-10 0-2.7-.3-6.7-1.3-9-2a43.5 43.5 0 0 1-17-12 49.3 49.3 0 0 1-8-16.4 49 49 0 0 1 .3-19 44 44 0 0 1 4-9.7c2.7-4.7 2.7-4.7 1-4.7-.9 0-2.5-.4-3.5-.8-1-.5-2-1.6-2.2-2.5a5 5 0 0 1 .4-3c.4-.8 1.5-1.7 2.4-2 .9-.1 10.5.7 21.5 1.9l28.3 2.8c5.4.5 9.8.5 12 .1a8.5 8.5 0 0 0 5.2-2.5c1-1 1.6-2.8 1.6-4Zm-5.4 15.4-9.9-.5c-5.4-.2-16-1-23.3-1.9a337 337 0 0 0-15.3-1.5c-1.3 0-2.4 1-4 3a47.3 47.3 0 0 0-3.5 5.5c-.7 1.4-1.7 4.1-2.2 6a35.1 35.1 0 0 0 .4 18c.7 2.5 2.3 6 3.6 8 1.2 1.8 3.6 4.7 5.2 6.2 1.7 1.5 4.5 3.6 6.2 4.6a30 30 0 0 0 18.2 3.9 23 23 0 0 0 11.9-2.9c2.9-1.4 6.7-4.1 8.7-6.1a37 37 0 0 0 9.4-18.5 22 22 0 0 0-.2-10.5c-.6-3-2-7.2-3.2-9.4l-2-3.9Zm-186.7 19.3a79.2 79.2 0 0 0-18.1-3.2 41.3 41.3 0 0 0-17.7 4.6c-3.7 1.9-7 4.4-11 8.5-4.9 4.7-6.5 7-9.1 12.4a83.4 83.4 0 0 0-4.7 12.4 79.3 79.3 0 0 0-1.5 26.4 99 99 0 0 0 2.6 12.7 91 91 0 0 0 4.7 12.1 97 97 0 0 0 6.4 11 113.5 113.5 0 0 0 18.9 19.9 78.3 78.3 0 0 0 20.3 11.9 32 32 0 0 0 14 1.8c6.6 0 9.7-.3 12.7-1.3a121 121 0 0 0 10-4.5 52.3 52.3 0 0 0 19.3-16.8c1.6-2.4 3.5-6.4 4.2-9a68.1 68.1 0 0 0 1-25.2c-.7-3.5-2.3-9.7-3.7-13.9a216.5 216.5 0 0 0-16.5-34.4 77 77 0 0 0-9.2-10.3 111 111 0 0 0-11.7-9.7 51 51 0 0 0-11-5.4Zm314.3 18c0-2.3-.5-4.1-1.7-5.8-1.3-2-2-2.4-4.4-2.5-2.3-.2-4.5.7-11.4 4.3a46 46 0 0 1-12 5 47 47 0 0 1-12.7-1 115 115 0 0 0-12.5-1.4c-2 0-4.5.6-6.4 1.6a9.2 9.2 0 0 0-4.5 4.3c-1.2 2.3-1.2 3.1-.5 5.5.5 1.6 1.8 3.6 3.4 4.9 1.4 1.1 4.6 2.7 7 3.5a72.6 72.6 0 0 0 20.5 3 50 50 0 0 0 10.3-.8c2.2-.5 5.6-1.7 7.7-2.6a57 57 0 0 0 8.3-4.9 32 32 0 0 0 6.7-6.5c1.6-2.5 2.2-4.1 2.2-6.6Zm-351.6 25.7c.4-.6 1.7-1.3 3-1.6a30 30 0 0 1 13.2 0c3 .5 7.4 1.6 9.8 2.4 2.5 1 6.6 3.1 9.3 5a102.5 102.5 0 0 1 21.5 19.8l9.3 11c2.6 3.2 3 4 2.1 4.9-.8.9-2 1-8.8.6-7.1-.5-8.3-.4-11.2 1-1.8.7-4.6 2.4-6.2 3.7a14 14 0 0 0-4 5.4 9.5 9.5 0 0 1-2.4 3.8c-1 .5-1.6.3-2.4-1a8 8 0 0 1-1.1-3.8c0-1.2.3-3.1.7-4.1a37.2 37.2 0 0 1 9.8-10.5c1.4-.8 4-2 6-2.7l3.4-1.1-8.5-8.3c-4.8-4.6-11-10-14-11.9a50 50 0 0 0-10.1-5c-2.6-.8-7.6-1.8-11.1-2.2-3.7-.5-7-1.3-7.6-1.9-.7-.6-1.3-1.4-1.3-1.8 0-.4.3-1.2.6-1.7ZM701 571l-20.2-11c-11-6-20.9-10.8-21.8-10.8-.9 0-2.4.5-3.5 1-1 .6-2.8 2.7-4 4.6-1.3 1.9-2.3 4-2.3 4.6 0 .6 7.7 6.4 19.4 14.5l20.2 14c.6.3 1 0 1.4-.8.2-.7 1.3-3.4 2.5-6 1.2-2.7 3.3-5.7 5.1-7.4l3-2.8Zm-295.2 38.3-7.7-7.8-9.9-10.4c-1.6-2-2.3-2.4-2.8-1.8a286.7 286.7 0 0 0-14.3 27.5l-3 6.8 4.7 10.3c2.6 5.6 7 14 9.7 18.6 2.8 4.6 5.5 8.6 6 8.8l3.9 3.5c-.2.1 1.1 2 2.8 4.2a208 208 0 0 0 8.7 10.1c3 3.4 6.3 7.8 7.2 9.7.9 2 2.8 4.9 4.2 6.4l2.6 2.9 8.5 8.7a461.9 461.9 0 0 0 21.8 21.7c1.5 1.3 1.5 1.3 4-4.1l2.5-5.4 1.8-4.3 3-5.6a85.1 85.1 0 0 1 13.3-19.6c2.2-2.4 5.8-5.6 8-7.1 2-1.5 3.6-3 3.3-3.2l-8-6.4a392 392 0 0 1-23.6-22l-16-16-2.5-4c.2-.2-2.9-2.4-6.7-5-3.8-2.5-9.5-6.6-12.7-9.2l-5.7-4.6-3.1-2.7ZM826.5 630c-3-1-8.3-2.3-11.7-3a137.2 137.2 0 0 0-31.4-1 129 129 0 0 0-37.3 11c-3.5 1.6-9 4.6-12.3 6.7a153.7 153.7 0 0 0-21.2 16.2c-2 1.8-5.3 5.3-7.3 7.6a128.4 128.4 0 0 0-15.6 24.2 184 184 0 0 0-6 14 178.2 178.2 0 0 0-8.1 31.9c-.8 4.4-2 12.5-2.6 18l-1.2 10 15.5 19.5c8.6 10.7 16.2 20.4 17 21.5l1.4 2 1.3-7a259.8 259.8 0 0 1 7.3-28.3 233.8 233.8 0 0 1 23.4-49.4 93.7 93.7 0 0 1 22.7-24c3-2 7.7-4.8 10.7-6.2 3-1.4 8.4-3.3 12.2-4.2a53 53 0 0 1 15.1-1.7c5.8 0 13 .6 22.7 2.1a203 203 0 0 0 18.2 2.1c2.9 0 5.3-.5 7.8-1.7 2-1 5-3 6.6-4.7a33 33 0 0 0 5.2-7.7c2.1-4.3 2.3-5.2 2.3-12.1 0-6.2-.3-8-1.6-10.9a49 49 0 0 0-3.9-6.6c-1.3-1.8-4.5-5-7.3-7.2a70.4 70.4 0 0 0-21.9-11.1Zm-342 20a181.9 181.9 0 0 1-27.7-8.3l-3.9-1.5 10 9.8a277.2 277.2 0 0 0 27.4 23.3c2.3 1.5 3.8 3.4 5.1 6 1.1 2.3 2.4 6.8 3 11.1l1.3 7.2 2.7 1.1a46.2 46.2 0 0 0 17.1 2.3 58 58 0 0 0 8.7-1.7c3.3-.8 4.6-1.5 4.6-2.3 0-.7-.4-3-.8-5.2-.5-2.2-1-4-1.4-4-.4 0-.6.3-.6.7 0 .4-.7.7-1.4.7-.9 0-1.9-.9-2.5-2-.8-1.6-1-4.7-1.1-12.3 0-8 .2-11.3 1.3-15.3l1.3-5-10-.5a241.6 241.6 0 0 1-33.2-4Zm91.4 23.6c-2.5-7.6-5.6-16.1-6.8-18.8-1.4-3.4-2.5-5-3.4-5.2-.7 0-1.6 0-2 .2l-2.6.6-2 .4-4.9.9a50.3 50.3 0 0 0-6.3 1c-1.1.2-1.6 1-2 3.3l-.8 5.1c-.1 1.2-.8 4.2-1.4 6.7l-3.2 9.8-.2.7-.9 2.7c-.4 1-.1 1.2 1.6.8 1.2-.2 4-.1 6.2.3a43.3 43.3 0 0 1 19.5 9.7c3 2.5 7.3 5.8 9.6 7.3l4 2.9 1.1-1.7c1-1.5 1-2.3.1-7.3-.5-3-3-11.8-5.6-19.4Zm-39.5-17.4c0 .9.2 1 .4.5.2-.6.2-1.2 0-1.4-.3-.2-.4.2-.4 1Zm-2.6 14.2 2-7.7c.6-2.6.9-4.8.5-4.8-.3 0-1 2.2-1.6 4.8-.6 2.7-1.3 6.1-1.5 7.7l-.4 2.8 1-2.8Zm49.4 37.6c.4.3.7-.2.7-1s-.1-1.5-.3-1.5l-.6 1c-.3.6-.1 1.3.2 1.5ZM700 840.3a122.7 122.7 0 0 0 3-18c-.1-.2-1.9 1.4-3.9 3.4-2.9 3-3.4 4-3 5.1l2.2 5.6c.8 2.3 1.6 4 1.7 3.9Zm-71.4 64.3c-1.2-3.5-3.1-8.3-4.2-10.8a23.1 23.1 0 0 0-2.4-4.4c-.1 0-.5 2.5-.8 5.5a197.1 197.1 0 0 1-5.4 29.7 328.9 328.9 0 0 1-10.7 33.2c-1.5 3.9-3.4 8.3-4.2 9.8-.8 1.5-1.1 2.7-.8 2.7a293 293 0 0 0 19.1-7.8c3.3-1.5 8.6-4.4 12-6.4l6-3.6-.4-2.6-1.4-12.2a288 288 0 0 0-2.9-18.2c-1-4.7-2.7-11.4-4-14.9Zm-313 70c1.3 0 1.4-.2.6-1-.4-.6-1-1.1-1-1.1l-.6 1c-.3.8 0 1.1 1 1.1ZM613.5 536l28.5 19.5c.4-3.2 6.2-9 9-11.5-5-2.8-15.3-8.6-17.2-8.9-12.6-1.5-18.8 0-20.3.9Zm94.5 42c-2-1.5-7.1 4-8 5.5-.9 1.5-3.4 8.5-2.2 9.5 1.2 1 6.1-.4 9.2-5.8 1.5-2.7 3-7.7 1-9.2Z" clip-rule="evenodd"/>
  <path fill="#D8A477" d="M554.8 701.7c0 4.6-.2 10.3-.5 12.5-.2 2.3-.7 4.1-1 4.1-.3 0-.8-.9-1-2l-1-2.6a21 21 0 0 1-1.4-5c-.4-2.2-1.1-4.5-1.6-5-.4-.6-1.8-1-3-1-1.3 0-2.7.4-3.1.8-.5.5-.8.7-.9.6l2.5 17.7c.2 0 .4.2.4.4s-.2.4-.4.4l.7 5.5c0-1 .5-1 3-.9 1.6.1 3.2-.1 3.4-.4.2-.3-.7-2.3-2-4.4a46 46 0 0 1-3.2-5.9c-.4-1.1-1-3.3-1.1-4.7a8 8 0 0 1 .2-4.2c.5-1.5.6-1.5 1.4.7.4 1.3.8 3.4.8 4.6a7 7 0 0 0 1 3.6 4 4 0 0 1 1.1 2.4c0 .6.6 1.6 1.2 2.4.7.7 2 1.3 3.2 1.3 1.3 0 2.4-.6 3.1-1.8.7-1 1-2.3.7-3.1-.2-.8.1-2.7.8-4.3 1-2.4 1-3.5.3-6-.4-1.8-.7-4.6-.7-6.3 0-1.7.2-3.4.5-3.8.3-.5 1-.6 2-.3l-6.2-4.3c.7.7.9 2.5.8 9Z"/>
  <path fill="#FFD9B8" d="m701.8 831.3-1.8 9c-.1.1-.9-1.6-1.7-4l-2.1-5.5c-.5-1.1 0-2 3-5.1 2-2 3.7-3.6 3.8-3.4.2.1-.4 4.2-1.2 9Z"/>
  <path fill="#FEFFB9" d="M316.2 973.5c.8 1 .7 1.1-.6 1.1-1 0-1.3-.3-1-1 .2-.6.5-1.1.6-1.1l1 1Z"/>
</svg>
