<svg xmlns="http://www.w3.org/2000/svg" fill="none" viewBox="0 0 994 994">
  <g clip-path="url(#a)">
    <path fill="#C6FFB9" d="M0 0h994v994H0z"/>
    <path fill="#000" fill-rule="evenodd" d="M476.3 180.4a364 364 0 0 0-23.7 3 744 744 0 0 0-25 4.7 541.6 541.6 0 0 1-27.8 5c-2.9.4-18.3 1-34.3 1.3-18.8.4-30.1.9-31.8 1.4-1.5.5-3.6 1.7-4.8 2.7-1.2 1-2.4 3-3 4.7a16 16 0 0 0 0 6.9c.5 2.1 1.9 6 3.1 8.5a44 44 0 0 0 9.6 12c6.2 6 7.3 7.4 6.6 8.3-.5.6-6 4.2-12.3 8.2-6.3 3.9-15.3 9.8-19.9 13a247.7 247.7 0 0 0-35.3 28.8 49.8 49.8 0 0 0-10.5 12.7c-1.5 3-2.2 5.6-2.2 7.7 0 1.7.6 4.4 1.5 6a20 20 0 0 0 2.7 4.4c.6.7 4.1 3.3 7.9 5.8 4.2 2.8 7.6 5.7 9.3 7.9a67.9 67.9 0 0 1 10.5 22.4 487.7 487.7 0 0 1 11.8 42.4c1.6 6.9 2.9 12.6 2.8 12.7 0 0-1.2-.3-2.6-.9a86.5 86.5 0 0 0-24.7-4.1c-5 0-8 .4-11.4 1.5-2.5 1-6.8 2.7-9.4 4.1-2.6 1.4-7 4.3-9.5 6.5a69.4 69.4 0 0 0-8.6 9 83 83 0 0 0-6.6 10.7 72.5 72.5 0 0 0-6.8 28.7 80.6 80.6 0 0 0 8.6 41.2c1.7 3.3 4.7 8.4 6.8 11.3a126.8 126.8 0 0 0 22.2 22.8 84.3 84.3 0 0 0 25 12.8c4.4 1.3 7.5 1.7 14.2 1.7 7 0 9.4-.3 13.8-1.6a77.1 77.1 0 0 0 17.7-8.7c2.2-1.4 5.8-4.5 8-6.8a21 21 0 0 1 4.4-3.8l2.5 4.8a266.7 266.7 0 0 0 16 26.8l8 11.6a258.9 258.9 0 0 0 21.6 25.3 104 104 0 0 1 6.8 7.1 362.6 362.6 0 0 0-65.8 20c-4.9 2.1-11.8 5.5-15.3 7.4a241.8 241.8 0 0 0-32 22c-6.7 5.3-16 12.8-20.6 16.7a375.6 375.6 0 0 0-49.8 54 617.9 617.9 0 0 0-33.7 50.7 915.2 915.2 0 0 0-24.5 44.4 300.6 300.6 0 0 0-19 48.8 297.9 297.9 0 0 0-6.3 31.5 340.3 340.3 0 0 0-2.3 49.3c.2 9.6.7 21.2 1 26l1.2 10.7c.4 2.3.4 2.3 4.3 2.3 4 0 4 0 3.6-2-.2-1-.8-6.3-1.3-11.8-.6-5.8-1-20-1-34 0-19.1.4-26.3 1.4-34.2a309.6 309.6 0 0 1 5.9-32 295.5 295.5 0 0 1 11-33 346 346 0 0 1 10.5-22.6 705.7 705.7 0 0 1 40.7-69.3 453.7 453.7 0 0 1 30-40 341.2 341.2 0 0 1 47.2-45.2 483.3 483.3 0 0 1 28.5-20.8l2.7-1.6 3.2 3c2.4 2.2 4.3 5 6.8 10.2 2.4 4.8 4 9.6 5.3 15a154 154 0 0 1 2.6 42 302 302 0 0 1-2.4 21.5l-1.5 9.5-11.2 15a836.2 836.2 0 0 1-19.4 24.8L289.8 811a463.6 463.6 0 0 1-21.4 24.9c-6.6 7.1-14.6 16-17.6 19.6a123 123 0 0 0-15.5 22.6 86 86 0 0 0-4.2 10c-1.8 5.2-2 6.1-2 17.5.1 11.6.2 12.5 2.7 21.7 1.4 5.3 6 20 10.1 32.7l9.7 28.9 2.2 5.8h4.5c2.5 0 4.6-.2 4.6-.6l-4.3-13a874 874 0 0 1-10-30 727 727 0 0 1-8.3-27.4 55.8 55.8 0 0 1-2.5-18.8c0-8.3.1-9.8 1.9-14.9a82.5 82.5 0 0 1 11-20.6c1.9-2.7 6-8 9.2-11.7A682.8 682.8 0 0 1 287 828c.3 0 .8.7 1 1.8a2477.6 2477.6 0 0 1 19.2 95.4c1.3 8 2.8 17.6 3.2 21.4a38.6 38.6 0 0 1-3 22.2c-1.4 2.8-5.2 9.4-8.6 14.7a99 99 0 0 0-6.1 10.5c0 .5 1.7.7 4.7.6l4.8-.2 4.9-6.8c2.6-3.7 6-8.6 7.3-10.9a49.2 49.2 0 0 0 5.9-31.7 1402.9 1402.9 0 0 0-15.3-83.8 1238.4 1238.4 0 0 0-9.9-41.2c-.2-.7 2.5-4.5 6.9-9.9a613 613 0 0 0 20.5-26.4c.3-.3 5.9-1.9 12.5-3.4a96 96 0 0 0 13.6-4c1-.6 1.6-1.7 1.6-2.8 0-1.2-.6-2-2-2.5-1.1-.4-3.9-.6-6.8-.3-2.6.3-6.2 1-7.9 1.4l-3 1 6.5-9.7a251 251 0 0 0 7.5-11.4 191.8 191.8 0 0 0 4.2-24.9 277.9 277.9 0 0 0 0-39.4 110.4 110.4 0 0 0-4.3-21 57 57 0 0 0-9.7-18.9l-3-3.8 4.8-2.4a198.9 198.9 0 0 1 29.3-11.4 481 481 0 0 1 31-8 918.8 918.8 0 0 0-11.3 30.7 166 166 0 0 0-4 12.4c-.4 2-.5 4.3 0 6 .3 2 1.5 3.8 3.3 5.5a52 52 0 0 0 18.2 7c1 0 2 .3 2.2.6.2.4-3.6 5.8-8.5 12s-9.2 12.2-9.6 13.2c-.4 1-.7 2.7-.7 3.7s1 4.8 2.2 8.6a248 248 0 0 0 7.5 19 456 456 0 0 0 22 42.7 469.6 469.6 0 0 0 52.7 73 949 949 0 0 0 44.2 47c6 5.8 14.5 13.8 19 17.8 5.6 5 8.8 7.4 10.4 7.7 1.3.3 3 .2 3.9 0 1.1-.4 2.8-3.2 6.4-10.6a481.8 481.8 0 0 0 16-38.3 481.9 481.9 0 0 0 12-39.4 537.1 537.1 0 0 0 11.4-61.2 367.6 367.6 0 0 0 1.4-49.2l-.5-8.3-9-11.2-9.6-12.1c-.6-.8-.2-.9 1.8-.5 1.4.3 3.8.1 5.4-.3a8.3 8.3 0 0 0 4-2.3c.7-.9 1.1-2.4 1.1-3.3 0-1-1-3.8-2.4-6.3a16.7 16.7 0 0 1-2.1-4.5 231.6 231.6 0 0 1 17.1 14.5l6 5.8.6 7.4a444.6 444.6 0 0 1-.1 48.4c-.5-.4-1.8-.8-2.8-.8-1.3 0-2.3.5-2.8 1.4-.5 1 0 4 2 13 1.6 6.3 3.5 15.2 4.4 19.7a540.9 540.9 0 0 1 6 48 283.3 283.3 0 0 1 .3 48.1 303 303 0 0 1-6 36 280.5 280.5 0 0 1-17.6 48.6c-1.8 3.9-5.3 10.5-7.6 14.7a87.2 87.2 0 0 0-4.2 8c0 .2 2 .3 4.5.3h4.4l3.5-6.4c1.8-3.5 3.8-6.5 4.2-6.7.4 0 4.8-1.6 9.7-3.3 4.9-1.7 14.3-5.8 21-9.1l12.2-6 .4 6.7c.3 3.7.5 10.8.5 15.8v9h8.5l-.4-16a532 532 0 0 0-1-25.3l-2.2-19.4a140 140 0 0 0-16.6-51.5l-4.5-8.1v-15.2a238 238 0 0 0-3.8-42.7l-3.1-21.1c-1.6-9.9-1.7-10.8-1-29.1.5-10.5.6-27.1.4-37.1l-.5-18.1 3 3.2 9.5 11.5a584.5 584.5 0 0 1 28 38.6 295.2 295.2 0 0 1 30.2 60.6A583.2 583.2 0 0 1 721 955a777 777 0 0 1 4.7 38.5c0 1 .7 1.2 4.3 1.2h4.3l-.4-3.7-1.5-14a594.8 594.8 0 0 0-7.4-48 725 725 0 0 0-14.6-58l-4-13.4 1.9-9c1-5 3.3-17.6 5-28 1.8-10.3 4.4-23.2 5.8-28.8a253 253 0 0 1 5.3-18.3 195.5 195.5 0 0 1 23.9-47.8 78.7 78.7 0 0 1 17-17.5 72.2 72.2 0 0 1 19.7-9.6c2.8-1 8.2-1.7 12.5-2 6-.3 10.4.1 23.8 2 11.7 1.6 17.6 2.2 21.2 1.9a27 27 0 0 0 9.4-2.6 32.7 32.7 0 0 0 18-25.7c.6-4 .6-6.8 0-10.6a38.2 38.2 0 0 0-9.7-19.8 65.3 65.3 0 0 0-21.4-14.5 116.1 116.1 0 0 0-26.9-7.2c-4.2-.6-10.5-1-14-1a134.2 134.2 0 0 0-24.5 2.5 153.3 153.3 0 0 0-29.7 10.2 150.4 150.4 0 0 0-26.8 17 129.8 129.8 0 0 0-22.8 24.5 145.9 145.9 0 0 0-19 42 227.7 227.7 0 0 0-6.8 34.6 245 245 0 0 0-1.5 13.3c0 1.2-.2 2.1-.5 2-.3 0-3.2-4.2-6.5-9.3a396.5 396.5 0 0 0-61.5-73.2 304 304 0 0 0-16.3-13.3l-12.3-9.3a67 67 0 0 0-8-5.6l-4.2-2.5 9.2-2a289.7 289.7 0 0 0 33.2-9.3 267 267 0 0 0 14.8-6.2c7.7-3.5 7.9-3.6 17-4.1 6.2-.4 10.9-1 14.2-2.1a45.2 45.2 0 0 0 26.8-20.6 54.9 54.9 0 0 0 5.5-17.5 9 9 0 0 1 2.2-5 151.3 151.3 0 0 0 11.9-18c1.6-3 4-8.2 5.4-11.7a145.9 145.9 0 0 0 7.6-28c.6-3.6 1-12.6 1-22 0-12.8-.3-17.2-1.3-22-.8-3.4-2.6-10-4.1-14.7a336.2 336.2 0 0 0-12.1-31.3c-.6-1.5-.3-1.8 3-3.3a39.2 39.2 0 0 0 16-13.3 47 47 0 0 0 5.1-8.7c.7-2 1.7-6 2.2-9 .7-4 .7-6.6.1-10.5-.4-2.8-1.5-6.8-2.3-9a46.4 46.4 0 0 0-10.8-15.7 55 55 0 0 0-9.1-5.9l-5.5-2.7 2-1 5.2-4.1a30 30 0 0 0 5-6c1-1.6 2.4-5 3.2-7.6a115 115 0 0 0 2.3-8.8 79 79 0 0 0-.4-22.3c-.6-2.4-1.6-5.5-2.2-6.7a23.4 23.4 0 0 0-8.7-9.6 11.8 11.8 0 0 0-6.8-1.8c-2 0-6 .9-9.1 1.9l-5.5 1.8-1.2-3a176.8 176.8 0 0 0-13.5-25.5 222.4 222.4 0 0 0-32.2-38.6 189.6 189.6 0 0 0-24.2-18.3 204.6 204.6 0 0 0-33.5-15.3 429.3 429.3 0 0 0-38-10.7 230.3 230.3 0 0 0-53.6-3.4Zm27 7c5 .4 13.1 1.4 18 2.1a253.3 253.3 0 0 1 37 9.4 216.8 216.8 0 0 1 29.7 12.7 171.7 171.7 0 0 1 23.8 15.9 190.7 190.7 0 0 1 25.5 25.5c3 4 8 10.7 10.9 15 2.8 4.4 5.2 8.7 5.2 9.6 0 1-.7 2.7-1.4 4a29 29 0 0 1-5.5 5.5 78.7 78.7 0 0 1-11.2 6.8c-4 1.9-9.7 4.3-12.8 5.3a162.8 162.8 0 0 1-31.3 6c-5 .6-12.3.7-17.7.4a323 323 0 0 1-45.4-6c-8.1-1.6-18.6-3.3-23.5-3.7-6.5-.6-10.9-.6-17.5 0a126.8 126.8 0 0 0-48.5 13.9 89.7 89.7 0 0 1-16.1 6.4c-3 .6-7.1 2.2-9.2 3.5a21.8 21.8 0 0 0-9 11c-.2 1-4 5.5-8.3 10-4.3 4.5-9.6 10.6-11.8 13.5a133.6 133.6 0 0 0-14.6 25.3c-1.8 4-4 10.5-5 14.3a71.5 71.5 0 0 0-2.1 16.9 66 66 0 0 0 3.3 25.3 54.7 54.7 0 0 0 11.5 17 91.6 91.6 0 0 0 21.2 14.8 109 109 0 0 0 31.1 10.1c6 1.2 12.7 2.9 14.8 3.8 2.3 1 5.4 3.3 7.7 5.6a39 39 0 0 1 6.3 9c1.4 3 3 7.3 3.8 9.9a52 52 0 0 1 1.1 13.5c0 7.5-.4 10-2.2 17l-4 15.3a63.6 63.6 0 0 0-2.3 14.6 43.2 43.2 0 0 0 4.4 23.4c1.4 2.9 4 7.1 5.6 9.5a94 94 0 0 0 53.5 34 153 153 0 0 0 15 3c6.3 1 12.5 1.3 26.7 1.3a230.5 230.5 0 0 0 30-1.5 45 45 0 0 1-7.4 2.5 263.1 263.1 0 0 1-33 7c-6 .8-13.6 1.2-23.7 1.2a167.9 167.9 0 0 1-39.4-4.2l-11.7-3.1a189.2 189.2 0 0 1-25.4-10.5 193.8 193.8 0 0 1-31-20.6 210.8 210.8 0 0 1-36.8-41.2 339.8 339.8 0 0 1-20.3-33l-4-7.4 1.8-4a53 53 0 0 0 4-23.6c0-7.6-.2-10.5-1.8-16.7a122 122 0 0 0-10.5-27 121 121 0 0 0-21.5-30.9c-7-7.2-7.5-8-8.3-11.6l-3.6-16.7a622.6 622.6 0 0 0-13-47.2c-1.5-4.1-3.8-9.7-5.2-12.5a43.1 43.1 0 0 0-8-10.3 42 42 0 0 0-10.4-8 26.7 26.7 0 0 1-6.5-4.4c-.8-1-1.6-2.8-1.9-4-.3-1.5.1-3 1.6-5.7 1-2 3.9-5.6 6.2-8a188 188 0 0 1 13.2-11.5 681.1 681.1 0 0 1 31.6-23.5 556 556 0 0 1 15.6-9.8 97 97 0 0 0 12.2-8.5c1.6-1.5 3.2-3.7 3.4-4.7a7 7 0 0 0-.4-4c-.6-1-2.8-3.1-4.9-4.6a73 73 0 0 1-8-6.7c-2.2-2.2-5-5.7-6-8a47.6 47.6 0 0 1-3-7c-.6-1.6-.8-3.2-.5-3.4.2-.3 2-.8 3.8-1 1.9-.4 13.8-.7 26.5-.7s26.5-.3 30.7-.7a223.8 223.8 0 0 0 31-5.4l25.6-5.7c8-1.7 17.3-3.4 20.6-3.8a207 207 0 0 1 31.7 0ZM661 291c1.8 3.6 2.8 6.7 2.5 7a788.7 788.7 0 0 1-38.9 14.2 307.2 307.2 0 0 1-34.5 8.8c-3 .6-11.1 1.6-18.1 2.3-8.5.7-21 1.1-37 1.2a308 308 0 0 1-58.9-4.1l-23-3.6-11.7-2 5-2.3a147 147 0 0 1 27.2-8.9c6.2-1.3 9.7-1.6 20.3-1.6 11 0 14 .3 22.3 2l19.6 3.6a251.7 251.7 0 0 0 42 3.9c6.2 0 14.6-.5 18.7-1a164 164 0 0 0 27.6-6.1 98.2 98.2 0 0 0 23.2-11 47.8 47.8 0 0 0 10.3-8.8c.2 0 1.8 2.8 3.4 6.4Zm30.9 10.6a19 19 0 0 1 4 6.2c1 2.5 1.6 6.5 1.9 10.5a57.6 57.6 0 0 1-2.7 20.7 17.4 17.4 0 0 1-5.6 8.8c-2.4 2.4-6 5-9 6.5a103 103 0 0 1-11.6 4.7 185.5 185.5 0 0 1-32.7 7.5 654.1 654.1 0 0 1-46.8 6.4 788.7 788.7 0 0 1-104.4 2.6c-14.7-.4-30-1.2-34-1.8-4.2-.5-9.2-1.5-11.1-2.1-2-.6-5.1-2.1-7-3.3a47 47 0 0 1-7-6.2c-2-2.2-5.1-6.2-7-9a50.7 50.7 0 0 1-5-8.8 29 29 0 0 1-1.6-8c0-3.1.3-4.5 1.4-6 .8-1.2 2.5-2.8 3.8-3.7 1.2-.8 4.7-2 7.7-2.7 4.1-1 7.3-1.1 14-.8 4.7.2 12 1 16.3 1.9a506 506 0 0 0 45.5 6c9.8 1 16.9 1.2 38 .9 14.2-.2 31.3-.9 38-1.5a153 153 0 0 0 24.4-4c6.8-1.5 16.7-4.1 22-5.7a945 945 0 0 0 28.8-10.1c10.5-4 22-8 25.6-9 3.5-1.2 7.5-2 9-2.1 2 0 3.2.5 5 2.1ZM406.3 346c.8 2.5 3.4 7.4 5.7 10.8 2.3 3.5 6.4 8.6 9.1 11.5a61 61 0 0 0 8.3 7.2 34 34 0 0 0 12.6 4.6l2.7.5-4.8 3.4a43 43 0 0 0-7.9 7.2 56 56 0 0 0-4.7 7.5 48 48 0 0 0-2.9 7.7 48.1 48.1 0 0 0 0 19.7 40.6 40.6 0 0 0 10.6 18.1c3.7 3.7 6.6 5.8 10.3 7.6a52 52 0 0 0 9.2 3.3 49.8 49.8 0 0 0 21.6-1.4 41.6 41.6 0 0 0 17.3-12 43.7 43.7 0 0 0 8.8-30.2c-.4-3-1.4-7-2.2-9.3a44.9 44.9 0 0 0-10.7-15.6l-3.6-3 35.7-.5c19.7-.2 41-.7 47.5-1.2a836.9 836.9 0 0 0 41.9-4 639.5 639.5 0 0 0 33.8-5.2 52.9 52.9 0 0 0-6.2 11.7 51 51 0 0 0-1.5 21.7c.5 2.2 2 6.4 3.4 9.2 1.8 3.7 3.9 6.6 7.6 10.3a39.7 39.7 0 0 0 18 10.6c2.3.6 6.2 1 8.8 1h4.7l5.5 14.3a235 235 0 0 1 11.8 38.8 99.5 99.5 0 0 1-.4 41.4 145.2 145.2 0 0 1-9.5 27.2c-2 4-4.7 9.1-6.1 11.4-1.5 2.2-2.8 4-3 3.8l-1.7-5.5a87 87 0 0 0-12-24.4 56.3 56.3 0 0 0-17.3-16.7 49 49 0 0 0-6.2-3c-2-.6-2.7-1.3-3-2.8-.3-1.4-1-2.2-2.2-2.5-1.2-.3-3.5.3-7 1.7a107.9 107.9 0 0 1-17.9 5 389 389 0 0 0-3.6-28.5A326.8 326.8 0 0 0 599 462c-.3-1 .5-1.6 4.2-3.3 2.5-1.2 6-3 7.8-4.3 1.7-1.2 4.7-3.7 6.5-5.5a26 26 0 0 0 5-7 17.4 17.4 0 0 0 1-12.7c-.5-1.8-2.1-4.2-4.2-6.3-3.3-3.3-3.5-3.4-7.6-3.3-2.5 0-5.3.5-7.1 1.3-1.7.8-5 2.7-7.3 4.3a52.5 52.5 0 0 1-6.4 3.8c-1.4.6-3.6.8-6.6.4-2.4-.3-7.5-1-11.2-1.7a66 66 0 0 0-12-.9c-3.5.2-6.3.8-8.2 1.8a22 22 0 0 0-4.8 3.5c-1 1-2.4 3.2-3 4.6-.6 1.5-1 4-1 5.7 0 1.7.5 4.3 1.3 6 .7 1.5 2.8 4.1 4.6 5.8a29 29 0 0 0 7.4 4.4 71 71 0 0 0 24.8 3.8l9.4.1 1 3.5a636.6 636.6 0 0 1 10.3 60v1.7l-9.7-.5c-5.4-.2-12.5-1-15.8-1.8A95.5 95.5 0 0 1 553 516c-3.7-2.1-7-3.5-8.3-3.5-1.6 0-2.3.4-3 1.7a3.7 3.7 0 0 0 0 3.4c.4 1 3.2 2.9 6.4 4.6 3.6 2 6.6 4.1 7.8 5.7a79.9 79.9 0 0 1 8.6 15 172 172 0 0 1 3.2 9.7c1 3 2.8 9.3 4 13.8a171.4 171.4 0 0 0 9.9 28 78.3 78.3 0 0 0 13.8 20.8c2.4 2.5 6.2 5.8 8.4 7.3 2.3 1.5 3.9 2.9 3.6 3-.3.2-3.4 1-7 1.9a188.1 188.1 0 0 1-38.3 3.8 187.4 187.4 0 0 1-36.5-3.4 121 121 0 0 1-22.4-7.7c-3.6-1.7-9-4.7-12-6.7a85.2 85.2 0 0 1-17.9-16.4 61.7 61.7 0 0 1-9-16.7c-1.2-4-1.5-6.5-1.5-12.1 0-6.3.6-9 4.2-22.7l4.2-15.7v-11.3a57 57 0 0 0-1.3-16 49.3 49.3 0 0 0-10.5-19.5 28.7 28.7 0 0 0-9.3-7.1c-3.8-1.9-8-3-16.1-4.7a110.1 110.1 0 0 1-31.5-10 87 87 0 0 1-19.9-14.5 42.4 42.4 0 0 1-11.5-22.8 68.4 68.4 0 0 1 .1-23 104.4 104.4 0 0 1 20.2-44.5 178 178 0 0 1 13-15c.2 0 1 2 1.9 4.5Zm279.4 20.7a35.6 35.6 0 0 1 14.8 9.6c1.4 1.7 3.6 5 4.7 7.4a44 44 0 0 1 2.9 9.1 28 28 0 0 1 0 10c-.5 2.7-1.9 7-3.1 9.6-1.3 2.6-4 6.3-6.1 8.5a33.3 33.3 0 0 1-36.9 6.5 38.4 38.4 0 0 1-8.7-6.2 32 32 0 0 1-6.9-9.4c-2.6-5.2-2.6-5.4-2.6-13.9 0-7.8.1-8.9 1.9-12.6a33.1 33.1 0 0 1 9.2-12.6c2-1.7 5.4-3.1 11.9-5 6.6-2 9.8-2.6 12.1-2.4 1.8.2 4.8.8 6.8 1.4Zm-216 17.7c2.6.5 6.4 1.9 8.5 3a34.2 34.2 0 0 1 17 24c.5 3.6.5 6-.1 9.8-.5 2.8-1.9 7.1-3.1 9.7a33.2 33.2 0 0 1-43 15 38.5 38.5 0 0 1-8.7-6.2 32 32 0 0 1-6.9-9.4c-2.6-5.3-2.6-5.5-2.6-14s0-8.6 2.6-14c1.5-3 4.1-6.8 5.8-8.6a41 41 0 0 1 6.1-5 37 37 0 0 1 17-5.3c1.4 0 4.7.4 7.4 1ZM302 415.7c3.2 1.1 8 3.5 10.8 5.3a92 92 0 0 1 18.5 16c3 3.6 6.2 8.6 10.2 16.4a134.5 134.5 0 0 1 12.6 31.6c1 4 2 9.9 2.2 13a45 45 0 0 1-1.1 13.1 37 37 0 0 1-3.8 11.3 61.7 61.7 0 0 1-17 17 97.6 97.6 0 0 1-9.7 4.8 54.7 54.7 0 0 1-22.3 3.5 52.1 52.1 0 0 1-19-7.2 107.8 107.8 0 0 1-20.5-16.3 112.4 112.4 0 0 1-13.4-18.3 80.5 80.5 0 0 1-8.8-24.6c-.4-2.5-.8-8.6-.8-13.5a56.1 56.1 0 0 1 5.8-27.2 54 54 0 0 1 13.5-18 52.3 52.3 0 0 1 14.7-8 41.1 41.1 0 0 1 16.8-1.3c3 .3 8 1.4 11.3 2.4Zm312.6 11.8a9.7 9.7 0 0 1 1.8 11.6c-.8 1.7-3 4.5-5 6.2a50 50 0 0 1-18.8 9.8 47 47 0 0 1-9.4 1.4 102.1 102.1 0 0 1-22.6-3.7c-2.2-.8-5-2.4-6.3-3.5-1.2-1.1-2.7-3-3.2-4.2a9.1 9.1 0 0 1-.4-4.5 9.3 9.3 0 0 1 2.4-4.2c1-1 2.8-2.2 4-2.6 1-.4 4.2-.8 7-.8s6.4.4 8 .7c1.5.4 5.2 1 8.1 1.4 4.4.7 6.1.6 9.6-.3a50 50 0 0 0 9.8-4.4 87 87 0 0 1 8.2-4.1c1.4-.5 3-1 3.6-1 .5 0 2 1 3.2 2.2Zm-347.4 31.8c-1.2.5-1.5 1.2-1.4 2.7.2 1.8.5 2 6.3 2.8 3.3.4 8.1 1.3 10.6 2 2.6.6 6.5 2.1 8.8 3.3 2.2 1.2 6.4 4.1 9.2 6.4 2.8 2.4 7.9 7 11.3 10.4 3.4 3.3 6 6.3 5.8 6.6-.2.3-1 .6-2 .6-.8 0-3.2.8-5.2 1.8a33 33 0 0 0-7.6 5.5c-2.6 2.6-4 4.7-4.3 6.3-.2 1.3-.3 3.7-.2 5.2.2 2.3.5 2.9 1.7 3 1.2.2 1.7-.4 2.7-3 .7-1.7 2.5-4.2 4-5.6a23.5 23.5 0 0 1 10.7-5.8 45 45 0 0 1 7.8.3c3 .4 6 .6 6.9.3.9-.2 1.6-.8 1.6-1.3s-2.5-4-5.5-7.6c-3-3.6-9.3-10.4-14-15.2-5-5-10.9-10-14-12-3-2-7.6-4.3-10.3-5.2a44.1 44.1 0 0 0-13-2c-4.7 0-9 0-9.9.5ZM634 531c1.7.4 4.9 1.6 7.1 2.6 2.7 1.3 6.1 4 10.2 8 3.4 3.5 7.5 8.5 9.5 11.6a78.4 78.4 0 0 1 8.6 20 63.1 63.1 0 0 1-.1 22.5c-.7 2-2.1 5.7-3.3 7.9a38 38 0 0 1-14.7 14 50 50 0 0 1-31.7 4c-2-.5-5.6-2-8-3.3a52.5 52.5 0 0 1-22.8-26.3 139.9 139.9 0 0 1-11-32.6 247.6 247.6 0 0 0-9.4-27.4c-.2-.5 1.5-.4 5 .4 2.8.7 7.2 1.5 9.7 1.8a55.4 55.4 0 0 1 33.2 18.3c2 2.2 5 6.1 6.9 8.7 1.8 2.5 3.9 4.7 4.6 5 .8.2 2 0 2.8-.4.7-.4 1.6-1.3 1.8-2a8 8 0 0 0-1-4.3 73 73 0 0 0-5.6-8 111.8 111.8 0 0 0-15.4-15.3l-2.1-1.5 2.1-.5 10-2.4c4.2-1.2 8.4-2 9.2-1.7l4.4 1Zm-.8 40.2c-.6.6-1.1 2-1.1 3.2 0 1.1.6 2.7 1.4 3.5.8.8 2.1 1.4 3 1.4 1 0 2.3-.6 2.9-1.3a6 6 0 0 0 1.2-3.4 5 5 0 0 0-1.3-3.4 5.4 5.4 0 0 0-3.2-1.1 6 6 0 0 0-3 1Zm-210.8 51.2 5.8 4.2 4.7 20 7.7 32.5a957.2 957.2 0 0 0 14 49.3 749.2 749.2 0 0 0 44.1 107.2 769.4 769.4 0 0 0 37.2 63c2.8 4.3 5.7 8 6.3 8.3.7.2 1.8.1 2.5-.3s2.2-3.4 3.5-6.9c1.2-3.4 3-10 4-14.8a436.5 436.5 0 0 0 5.3-35.5 594.1 594.1 0 0 0 2-61.8 787.2 787.2 0 0 0-5.8-78.1 738.2 738.2 0 0 0-7.3-38.2c-1-3.8-2.4-8.6-3.1-10.6-.8-2-1.4-4.4-1.4-5.3 0-1.3.4-1.6 2.2-1.6 1.2 0 2.8.4 3.7.8l9.5 6.1c7.9 5.3 7.9 5.3 12.8 13.3l7.3 12 2.3 4.2-7.9-.5c-5.9-.4-8.2-.3-9 .4-.6.4-1 1.6-1 2.6s1.2 3 3.5 5.2c2 2 7.7 8.9 12.7 15.3l9.2 11.8.5 11.8a295.1 295.1 0 0 1-7.2 78.5 488.7 488.7 0 0 1-22 74.3c-2.4 6.2-6.3 15.2-8.5 20-2.2 5-4.4 9.3-4.9 9.7-.6.6-2.7-.8-7.5-5a916 916 0 0 1-47.4-47 551.8 551.8 0 0 1-48.6-60.1 512.7 512.7 0 0 1-27.3-45.9 389 389 0 0 1-10.5-21.9 255.6 255.6 0 0 1-9.1-24.5c-.4-1.6 1.1-4 10-15.3a293 293 0 0 0 11-15c.4-.8.5-2.3.3-3.2-.3-1.2-1.5-2.1-4.2-3.2-2-.9-6.4-2.2-9.7-3-3.2-.8-7.3-2-9-2.8-1.8-.8-3.4-2-3.6-2.6-.3-.7 0-2.9.4-4.9a1041.5 1041.5 0 0 1 15.1-42.5c1-2.1 1.6-2.6 3.9-3l3.4-.7c.4-.1 1.6-.3 2.7-.3 1.3 0 3.7 1.3 7.4 4Zm394.2 5.3a91.8 91.8 0 0 1 26.2 9.3c2.9 1.6 7.5 5 10.1 7.5a30.4 30.4 0 0 1 10 17.7 20 20 0 0 1 0 9.1c-.5 2.6-1.7 6.3-2.7 8.3-1 2-3.2 5-5 7a25.4 25.4 0 0 1-6.8 5c-2.9 1.2-5 1.6-9 1.6-3 0-10.6-1-17-2a98.8 98.8 0 0 0-30.8-1.8 75.9 75.9 0 0 0-34.3 14.9c-2.6 2-6.8 6.2-9.3 9.1a158.7 158.7 0 0 0-19.3 29.9 261 261 0 0 0-8.1 17.8 258.2 258.2 0 0 0-10 32.7c-1 4.6-3.3 16.7-5 27a381 381 0 0 1-3.8 20c-.5 1-1.4-.7-3.7-7a551 551 0 0 0-20-45.8l-6.4-13 1.8-16a219.2 219.2 0 0 1 9.6-47.6 181 181 0 0 1 7.4-18.6c2.2-4.4 6-11 8.3-14.6a120.5 120.5 0 0 1 55.7-43.9A145.3 145.3 0 0 1 790 626a122.2 122.2 0 0 1 26.6 1.8ZM442.7 635a156.5 156.5 0 0 0 40.6 15c4.3 1 10.7 2 14.2 2.5s6.6 1 7 1.3a25 25 0 0 1-3.9 7.2c-2.4 3.7-7.5 10.9-11.3 16-3.8 5.1-8 10.2-9.3 11.3-1.8 1.5-2.7 1.8-4.4 1.4-1.2-.2-4-1.5-6-3-2-1.4-6.5-5.4-9.9-9a165.4 165.4 0 0 1-16.4-20.8 116 116 0 0 1-3.2-13 73.5 73.5 0 0 1-2-11.4l4.6 2.5Zm91.6 21.9a254.8 254.8 0 0 1 1.6 30.6c-.2 3.1-.7 6-1 6.3-.4.3-1.7-.6-3-2.2a58.8 58.8 0 0 1-5.7-9.5 220.8 220.8 0 0 1-10.6-26.8c0-.5 3-.7 9.2-.7h9.1l.4 2.3Zm-17.7 26.8c-.5 1-2 2.8-3.3 4a14 14 0 0 1-4.7 3c-1.3.4-3.1.4-4.5 0-1.2-.3-3.5-1.8-5-3.3-1.5-1.5-3-3.2-3.4-3.9-.6-1 .4-2.8 4.5-8.5l7.2-10.5 2-3 4 10.1c3.7 9.2 4 10.5 3.2 12ZM468 694.9c2.1 1.2 5 2.4 6.6 2.6 1.4.3 3.7.3 5 0 1.3-.3 4-2.1 6.4-4.5l4.1-4 3 3.5 3 3.4-.8 10.8a1497 1497 0 0 0-1.7 26.3 1004.9 1004.9 0 0 0-.4 73.6l.4 3-1.8-3.8a910.9 910.9 0 0 1-17.4-41.2 1006 1006 0 0 1-22.6-71.4c-2-7-3.7-13.8-4-15.2-.5-2.2.2-1.7 8 6.2 4.9 5 10 9.4 12.2 10.7Zm57.1.4c1.8 2.5 4.4 5.2 5.7 6 1.3.9 3.1 1.5 4 1.5a7 7 0 0 0 3.4-1c.9-.4 2.3-1.8 3-3a8.3 8.3 0 0 0 1.4-3.4c0-.8.2-1.1.6-.7a80 80 0 0 1 2.5 12.7 637.3 637.3 0 0 1 5.4 53.3c.4 7.4.7 15.7.6 18.5v5l-1.7-5.8-9.6-29.4a742.2 742.2 0 0 0-20.3-54.9c-.2-.7 0-1.7.5-2.3l1-1c.2 0 1.7 2 3.5 4.5Zm-8.6 10.2a602 602 0 0 1 18.4 49 804.5 804.5 0 0 1 13.6 45.2c3 10.7 3 10.7 2.8 22.4a356.8 356.8 0 0 1-3.8 44.4 461 461 0 0 1-5.3 26.1c-.4 1-1.3.1-4.2-4.2a845.3 845.3 0 0 1-28.1-46.8c-6.4-11.6-6.7-12.3-7.5-18.8-.5-3.7-1.3-14.9-1.8-24.8-.5-11-.6-26.3-.3-39a1032.8 1032.8 0 0 1 3-57c.3-2.7.7-3.4 1.6-3.1.6.1 2.4 0 4-.3l3.5-.6c.4 0 2.2 3.3 4 7.5Zm110.5 192a133.7 133.7 0 0 1 10 42 284 284 0 0 1 1.4 12.5c0 .8-1.2 2.3-3 3.5a136.1 136.1 0 0 1-25.3 12.8c-4.9 2-9 3.4-9.1 3.3a61 61 0 0 1 3.3-8.7c2-4.6 4.8-12 6.3-16.5a289.9 289.9 0 0 0 11.6-50c.4-3.8 1-6.7 1.3-6.4.3.4 1.9 3.7 3.5 7.5Zm-80.7 40.6c-.5.5-1.1 5.8-1.6 11.8a222.1 222.1 0 0 1-7.5 43.1c-.4 1.5-.3 1.6 3.2 1.6h4.3l.7-2.6a364.8 364.8 0 0 0 5.3-27.9c.6-4.5 1.2-11.7 1.3-16 0-5-.2-8.3-.8-9.4a3 3 0 0 0-2.5-1.6c-1 0-2 .4-2.4 1Z" clip-rule="evenodd"/>
    <path fill="#CEF0FF" d="M503.3 187.4c5 .4 13.1 1.4 18 2.1a253.3 253.3 0 0 1 37 9.4 216.8 216.8 0 0 1 29.7 12.7 171.7 171.7 0 0 1 23.8 15.9 190.7 190.7 0 0 1 25.5 25.5c3 4 8 10.7 10.9 15 2.8 4.4 5.2 8.7 5.2 9.6 0 1-.7 2.7-1.4 4a29 29 0 0 1-5.5 5.5 78.7 78.7 0 0 1-11.2 6.8c-4 1.9-9.7 4.3-12.8 5.3a162.8 162.8 0 0 1-31.3 6c-5 .6-12.3.7-17.7.4a323 323 0 0 1-45.4-6c-8.1-1.6-18.6-3.3-23.5-3.7-6.5-.6-10.9-.6-17.5 0a126.8 126.8 0 0 0-48.5 13.9 89.7 89.7 0 0 1-16.1 6.4c-3 .6-7.1 2.2-9.2 3.5a21.8 21.8 0 0 0-9 11c-.2 1-4 5.5-8.3 10-4.3 4.5-9.6 10.6-11.8 13.5a133.6 133.6 0 0 0-14.6 25.3c-1.8 4-4 10.5-5 14.3a71.5 71.5 0 0 0-2.1 16.9 66 66 0 0 0 3.3 25.3 54.7 54.7 0 0 0 11.5 17 91.6 91.6 0 0 0 21.2 14.8 109 109 0 0 0 31.1 10.1c6 1.2 12.7 2.9 14.8 3.8 2.3 1 5.4 3.3 7.7 5.6a39 39 0 0 1 6.3 9c1.4 3 3 7.3 3.8 9.9a52 52 0 0 1 1.1 13.5c0 7.5-.4 10-2.2 17l-4 15.3a63.6 63.6 0 0 0-2.3 14.6 43.2 43.2 0 0 0 4.4 23.4c1.4 2.9 4 7.1 5.6 9.5a94 94 0 0 0 53.5 34 153 153 0 0 0 15 3c6.3 1 12.5 1.3 26.7 1.3a230.5 230.5 0 0 0 30-1.5 45 45 0 0 1-7.4 2.5 263.1 263.1 0 0 1-33 7c-6 .8-13.6 1.2-23.7 1.2a167.9 167.9 0 0 1-39.4-4.2l-11.7-3.1a189.2 189.2 0 0 1-25.4-10.5 193.8 193.8 0 0 1-31-20.6 210.8 210.8 0 0 1-36.8-41.2 339.8 339.8 0 0 1-20.3-33l-4-7.4 1.8-4a53 53 0 0 0 4-23.6c0-7.6-.2-10.5-1.8-16.7a122 122 0 0 0-10.5-27 121 121 0 0 0-21.5-30.9c-7-7.2-7.5-8-8.3-11.6l-3.6-16.7a622.6 622.6 0 0 0-13-47.2c-1.5-4.1-3.8-9.7-5.2-12.5a43.1 43.1 0 0 0-8-10.3 42 42 0 0 0-10.4-8 26.7 26.7 0 0 1-6.5-4.4c-.8-1-1.6-2.8-1.9-4-.3-1.5.1-3 1.6-5.7 1-2 3.9-5.6 6.2-8a188 188 0 0 1 13.2-11.5 681.1 681.1 0 0 1 31.6-23.5 556 556 0 0 1 15.6-9.8 97 97 0 0 0 12.2-8.5c1.6-1.5 3.2-3.7 3.4-4.7a7 7 0 0 0-.4-4c-.6-1-2.8-3.1-4.9-4.6a73 73 0 0 1-8-6.7c-2.2-2.2-5-5.7-6-8a47.6 47.6 0 0 1-3-7c-.6-1.6-.8-3.2-.5-3.4.2-.3 2-.8 3.8-1 1.9-.4 13.8-.7 26.5-.7s26.5-.3 30.7-.7a223.8 223.8 0 0 0 31-5.4l25.6-5.7c8-1.7 17.3-3.4 20.6-3.8a207 207 0 0 1 31.7 0Z"/>
    <path fill="#CEF0FF" d="M692 301.7a19 19 0 0 1 4 6.2c1 2.5 1.6 6.5 1.9 10.5a57.6 57.6 0 0 1-2.7 20.7 17.4 17.4 0 0 1-5.6 8.8c-2.4 2.4-6 5-9 6.5a103 103 0 0 1-11.6 4.7 185.5 185.5 0 0 1-32.7 7.5 654.1 654.1 0 0 1-46.8 6.4 788.7 788.7 0 0 1-104.4 2.6c-14.7-.4-30-1.2-34-1.8-4.2-.5-9.2-1.5-11.1-2.1-2-.6-5.1-2.1-7-3.3a47 47 0 0 1-7-6.2c-2-2.2-5.1-6.2-7-9a50.7 50.7 0 0 1-5-8.8 29 29 0 0 1-1.6-8c0-3.1.3-4.5 1.4-6 .8-1.2 2.5-2.8 3.8-3.7 1.2-.8 4.7-2 7.7-2.7 4.1-1 7.3-1.1 14-.8 4.7.2 12 1 16.3 1.9a506 506 0 0 0 45.5 6c9.8 1 16.9 1.2 38 .9 14.2-.2 31.3-.9 38-1.5a153 153 0 0 0 24.4-4c6.8-1.5 16.7-4.1 22-5.7a945 945 0 0 0 28.8-10.1c10.5-4 22-8 25.6-9 3.5-1.2 7.5-2 9-2.1 2 0 3.2.5 5 2.1Z"/>
    <path fill="#fff" d="M469.7 384.4c2.6.5 6.4 1.9 8.5 3a34.2 34.2 0 0 1 17 24c.5 3.6.5 6-.1 9.8-.5 2.8-1.9 7.1-3.1 9.7a33.2 33.2 0 0 1-43 15 38.5 38.5 0 0 1-8.7-6.2 32 32 0 0 1-6.9-9.4c-2.6-5.3-2.6-5.5-2.6-14s0-8.6 2.6-14c1.5-3 4.1-6.8 5.8-8.6a41 41 0 0 1 6.1-5 37 37 0 0 1 17-5.3c1.4 0 4.7.4 7.4 1Zm216-17.7a35.6 35.6 0 0 1 14.8 9.6c1.4 1.7 3.6 5 4.7 7.4a44 44 0 0 1 2.9 9.1 28 28 0 0 1 0 10c-.5 2.7-1.9 7-3.1 9.6-1.3 2.6-4 6.3-6.1 8.5a33.3 33.3 0 0 1-36.9 6.5 38.4 38.4 0 0 1-8.7-6.2 32 32 0 0 1-6.9-9.4c-2.6-5.2-2.6-5.4-2.6-13.9 0-7.8.1-8.9 1.9-12.6a33.1 33.1 0 0 1 9.2-12.6c2-1.7 5.4-3.1 11.9-5 6.6-2 9.8-2.6 12.1-2.4 1.8.2 4.8.8 6.8 1.4Z"/>
    <path fill="#FEFFB9" d="M406.3 346c.8 2.5 3.4 7.4 5.7 10.8 2.3 3.5 6.4 8.6 9.1 11.5a61 61 0 0 0 8.3 7.2 34 34 0 0 0 12.6 4.6l2.7.5-4.8 3.4a43 43 0 0 0-7.9 7.2 56 56 0 0 0-4.7 7.5 48 48 0 0 0-2.9 7.7 48.1 48.1 0 0 0 0 19.7 40.6 40.6 0 0 0 10.6 18.1c3.7 3.7 6.6 5.8 10.3 7.6a52 52 0 0 0 9.2 3.3 49.8 49.8 0 0 0 21.6-1.4 41.6 41.6 0 0 0 17.3-12 43.7 43.7 0 0 0 8.8-30.2c-.4-3-1.4-7-2.2-9.3a44.9 44.9 0 0 0-10.7-15.6l-3.6-3 35.7-.5c19.7-.2 41-.7 47.5-1.2a836.9 836.9 0 0 0 41.9-4 639.5 639.5 0 0 0 33.8-5.2 52.9 52.9 0 0 0-6.2 11.7 51 51 0 0 0-1.5 21.7c.5 2.2 2 6.4 3.4 9.2 1.8 3.7 3.9 6.6 7.6 10.3a39.7 39.7 0 0 0 18 10.6c2.3.6 6.2 1 8.8 1h4.7l5.5 14.3a235 235 0 0 1 11.8 38.8 99.5 99.5 0 0 1-.4 41.4 145.2 145.2 0 0 1-9.5 27.2c-2 4-4.7 9.1-6.1 11.4-1.5 2.2-2.8 4-3 3.8l-1.7-5.5a87 87 0 0 0-12-24.4 56.3 56.3 0 0 0-17.3-16.7 49 49 0 0 0-6.2-3c-2-.6-2.7-1.3-3-2.8-.3-1.4-1-2.2-2.2-2.5-1.2-.3-3.5.3-7 1.7a107.9 107.9 0 0 1-17.9 5 389 389 0 0 0-3.6-28.5A326.8 326.8 0 0 0 599 462c-.3-1 .5-1.6 4.2-3.3 2.5-1.2 6-3 7.8-4.3 1.7-1.2 4.7-3.7 6.5-5.5a26 26 0 0 0 5-7 17.4 17.4 0 0 0 1-12.7c-.5-1.8-2.1-4.2-4.2-6.3-3.3-3.3-3.5-3.4-7.6-3.3-2.5 0-5.3.5-7.1 1.3-1.7.8-5 2.7-7.3 4.3a52.5 52.5 0 0 1-6.4 3.8c-1.4.6-3.6.8-6.6.4-2.4-.3-7.5-1-11.2-1.7a66 66 0 0 0-12-.9c-3.5.2-6.3.8-8.2 1.8a22 22 0 0 0-4.8 3.5c-1 1-2.4 3.2-3 4.6-.6 1.5-1 4-1 5.7 0 1.7.5 4.3 1.3 6 .7 1.5 2.8 4.1 4.6 5.8a29 29 0 0 0 7.4 4.4 71 71 0 0 0 24.8 3.8l9.4.1 1 3.5a636.6 636.6 0 0 1 10.3 60v1.7l-9.7-.5c-5.4-.2-12.5-1-15.8-1.8A95.5 95.5 0 0 1 553 516c-3.7-2.1-7-3.5-8.3-3.5-1.6 0-2.3.4-3 1.7a3.7 3.7 0 0 0 0 3.4c.4 1 3.2 2.9 6.4 4.6 3.6 2 6.6 4.1 7.8 5.7a79.9 79.9 0 0 1 8.6 15 172 172 0 0 1 3.2 9.7c1 3 2.8 9.3 4 13.8a171.4 171.4 0 0 0 9.9 28 78.3 78.3 0 0 0 13.8 20.8c2.4 2.5 6.2 5.8 8.4 7.3 2.3 1.5 3.9 2.9 3.6 3-.3.2-3.4 1-7 1.9a188.1 188.1 0 0 1-38.3 3.8 187.4 187.4 0 0 1-36.5-3.4 121 121 0 0 1-22.4-7.7c-3.6-1.7-9-4.7-12-6.7a85.2 85.2 0 0 1-17.9-16.4 61.7 61.7 0 0 1-9-16.7c-1.2-4-1.5-6.5-1.5-12.1 0-6.3.6-9 4.2-22.7l4.2-15.7v-11.3a57 57 0 0 0-1.3-16 49.3 49.3 0 0 0-10.5-19.5 28.7 28.7 0 0 0-9.3-7.1c-3.8-1.9-8-3-16.1-4.7a110.1 110.1 0 0 1-31.5-10 87 87 0 0 1-19.9-14.5 42.4 42.4 0 0 1-11.5-22.8 68.4 68.4 0 0 1 .1-23 104.4 104.4 0 0 1 20.2-44.5 178 178 0 0 1 13-15c.2 0 1 2 1.9 4.5Z"/>
    <path fill="#FFD7EC" d="M614.6 427.5a9.7 9.7 0 0 1 1.8 11.6c-.8 1.7-3 4.5-5 6.2a50 50 0 0 1-18.8 9.8 47 47 0 0 1-9.4 1.4 102.1 102.1 0 0 1-22.6-3.7c-2.2-.8-5-2.4-6.3-3.5-1.2-1.1-2.7-3-3.2-4.2a9.1 9.1 0 0 1-.4-4.5 9.3 9.3 0 0 1 2.4-4.2c1-1 2.8-2.2 4-2.6 1-.4 4.2-.8 7-.8s6.4.4 8 .7c1.5.4 5.2 1 8.1 1.4 4.4.7 6.1.6 9.6-.3a50 50 0 0 0 9.8-4.4 87 87 0 0 1 8.2-4.1c1.4-.5 3-1 3.6-1 .5 0 2 1 3.2 2.2Z"/>
    <path fill="#FF796D" fill-rule="evenodd" d="M634 531c1.7.4 4.9 1.6 7.1 2.6 2.7 1.3 6.1 4 10.2 8 3.4 3.5 7.5 8.5 9.5 11.6a78.4 78.4 0 0 1 8.6 20 63.1 63.1 0 0 1-.1 22.5c-.7 2-2.1 5.7-3.3 7.9a38 38 0 0 1-14.7 14 50 50 0 0 1-31.7 4c-2-.5-5.6-2-8-3.3a52.5 52.5 0 0 1-22.8-26.3 139.9 139.9 0 0 1-11-32.6 247.6 247.6 0 0 0-9.4-27.4c-.2-.5 1.5-.4 5 .4 2.8.7 7.2 1.5 9.7 1.8a55.4 55.4 0 0 1 33.2 18.3c2 2.2 5 6.1 6.9 8.7 1.8 2.5 3.9 4.7 4.6 5 .8.2 2 0 2.8-.4.7-.4 1.6-1.3 1.8-2a8 8 0 0 0-1-4.3 73 73 0 0 0-5.6-8 111.8 111.8 0 0 0-15.4-15.3l-2.1-1.5 2.1-.5 10-2.4c4.2-1.2 8.4-2 9.2-1.7l4.4 1Zm-2 43.4c0-1.2.6-2.6 1.2-3.2.6-.6 2-1.1 3-1.1s2.4.5 3 1.1a5 5 0 0 1 1.4 3.4 6 6 0 0 1-1.2 3.4c-.6.7-2 1.3-2.8 1.3-1 0-2.3-.6-3.1-1.4a5.7 5.7 0 0 1-1.4-3.5Z" clip-rule="evenodd"/>
    <path fill="#CEF0FF" d="M816.6 627.7a91.8 91.8 0 0 1 26.2 9.3c2.9 1.6 7.5 5 10.1 7.5a30.4 30.4 0 0 1 10 17.7 20 20 0 0 1 0 9.1c-.5 2.6-1.7 6.3-2.7 8.3-1 2-3.2 5-5 7a25.4 25.4 0 0 1-6.8 5c-2.9 1.2-5 1.6-9 1.6-3 0-10.6-1-17-2a98.8 98.8 0 0 0-30.8-1.8 75.9 75.9 0 0 0-34.3 14.9c-2.6 2-6.8 6.2-9.3 9.1a158.7 158.7 0 0 0-19.3 29.9 261 261 0 0 0-8.1 17.8 258.2 258.2 0 0 0-10 32.7c-1 4.6-3.3 16.7-5 27a381 381 0 0 1-3.8 20c-.5 1-1.4-.7-3.7-7a551 551 0 0 0-20-45.8l-6.4-13 1.8-16a219.2 219.2 0 0 1 9.6-47.6 181 181 0 0 1 7.4-18.6c2.2-4.4 6-11 8.3-14.6a120.5 120.5 0 0 1 55.7-43.9A145.3 145.3 0 0 1 790 626a122.2 122.2 0 0 1 26.6 1.8ZM442.7 635a156.5 156.5 0 0 0 40.6 15c4.3 1 10.7 2 14.2 2.5s6.6 1 7 1.3a25 25 0 0 1-3.9 7.2c-2.4 3.7-7.5 10.9-11.3 16-3.8 5.1-8 10.2-9.3 11.3-1.8 1.5-2.7 1.8-4.4 1.4-1.2-.2-4-1.5-6-3-2-1.4-6.5-5.4-9.9-9a165.4 165.4 0 0 1-16.4-20.8 116 116 0 0 1-3.2-13 73.5 73.5 0 0 1-2-11.4l4.6 2.5Z"/>
    <path fill="#CEF0FF" d="M468 694.9c2.1 1.2 5 2.4 6.6 2.6 1.4.3 3.7.3 5 0 1.3-.3 4-2.1 6.4-4.5l4.1-4 3 3.5 3 3.4-.8 10.8a1497 1497 0 0 0-1.7 26.3 1004.9 1004.9 0 0 0-.4 73.6l.4 3-1.8-3.8a910.9 910.9 0 0 1-17.4-41.2 1006 1006 0 0 1-22.6-71.4c-2-7-3.7-13.8-4-15.2-.5-2.2.2-1.7 8 6.2 4.9 5 10 9.4 12.2 10.7Zm66.3-38a254.8 254.8 0 0 1 1.6 30.6c-.2 3.1-.7 6-1 6.3-.4.3-1.7-.6-3-2.2a58.8 58.8 0 0 1-5.7-9.5 220.8 220.8 0 0 1-10.6-26.8c0-.5 3-.7 9.2-.7h9.1l.4 2.3Z"/>
    <path fill="#CEF0FF" d="M525.1 695.3c1.8 2.5 4.4 5.2 5.7 6 1.3.9 3.1 1.5 4 1.5a7 7 0 0 0 3.4-1c.9-.4 2.3-1.8 3-3a8.3 8.3 0 0 0 1.4-3.4c0-.8.2-1.1.6-.7a80 80 0 0 1 2.5 12.7 637.3 637.3 0 0 1 5.4 53.3c.4 7.4.7 15.7.6 18.5v5l-1.7-5.8-9.6-29.4a742.2 742.2 0 0 0-20.3-54.9c-.2-.7 0-1.7.5-2.3l1-1c.2 0 1.7 2 3.5 4.5Z"/>
    <path fill="#FFD9B8" d="M516.5 705.5a602 602 0 0 1 18.4 49 804.5 804.5 0 0 1 13.6 45.2c3 10.7 3 10.7 2.8 22.4a356.8 356.8 0 0 1-3.8 44.4 461 461 0 0 1-5.3 26.1c-.4 1-1.3.1-4.2-4.2a845.3 845.3 0 0 1-28.1-46.8c-6.4-11.6-6.7-12.3-7.5-18.8-.5-3.7-1.3-14.9-1.8-24.8-.5-11-.6-26.3-.3-39a1032.8 1032.8 0 0 1 3-57c.3-2.7.7-3.4 1.6-3.1.6.1 2.4 0 4-.3l3.5-.6c.4 0 2.2 3.3 4 7.5Z"/>
    <path fill="#CEBDFE" d="m648 978.6.4 16H730c-3.6 0-4.3-.2-4.3-1.2l-1.5-14c-.8-7-2.2-18-3.2-24.5a740.3 740.3 0 0 0-12-58.6 799 799 0 0 0-14.3-48.5 583.2 583.2 0 0 0-18-45.6 295.2 295.2 0 0 0-34.3-57.7 584.5 584.5 0 0 0-23.8-30.3l-3-3.2.5 18.1c.2 10 0 26.6-.4 37-.7 18.4-.6 19.3 1 29.2a832.5 832.5 0 0 1 5.6 40.4 238 238 0 0 1 1.2 23.4l.1 15.2 4.5 8.2a140 140 0 0 1 16.6 51.5l2.2 19.3c.4 5.1.9 16.5 1 25.3Zm-345.8 15.7-4.8.2 243 .1c-3.5 0-3.6 0-3.2-1.6a325.7 325.7 0 0 0 5-22.8c1-5.2 2.1-14.3 2.5-20.3.5-6 1.1-11.3 1.6-11.8.4-.6 1.5-1 2.4-1 1 0 2 .7 2.5 1.6.6 1 .9 4.4.8 9.4a161.8 161.8 0 0 1-4.2 32.7l-2.4 11.2-.7 2.6H584c-2.5 0-4.5-.1-4.5-.4l4.2-8A261.8 261.8 0 0 0 609 923a276.9 276.9 0 0 0 6-36 283.3 283.3 0 0 0-.4-48 540.9 540.9 0 0 0-6-48.1c-.9-4.5-2.8-13.4-4.3-19.7-2.2-9-2.6-12-2-13 .4-.9 1.4-1.4 2.7-1.4 1 0 2.3.4 2.8.8a444.6 444.6 0 0 0 .1-48.4l-.6-7.4-6-5.8a231.6 231.6 0 0 0-17.1-14.5c-.2 0 .7 2 2 4.5 1.4 2.5 2.5 5.3 2.5 6.3s-.4 2.4-1 3.3a9 9 0 0 1-4 2.3 15 15 0 0 1-5.5.3c-2-.4-2.4-.3-1.8.5l9.7 12.1L595 722l.5 8.3a350.6 350.6 0 0 1-8.2 90.4 480.7 480.7 0 0 1-16.6 59.4 567.8 567.8 0 0 1-16 38.3c-3.6 7.4-5.3 10.2-6.4 10.6-.9.2-2.6.3-3.9 0-1.6-.3-4.8-2.6-10.4-7.7a784.2 784.2 0 0 1-77.4-81.8 469.6 469.6 0 0 1-50-76.6 456 456 0 0 1-10.5-22c-2.9-6.7-6.3-15.3-7.5-19a53.1 53.1 0 0 1-2.2-8.7c0-1 .3-2.6.7-3.7.4-1 4.7-7 9.6-13.2a74.4 74.4 0 0 0 8.5-12c-.2-.3-1.2-.6-2.2-.6a52 52 0 0 1-18.2-7 11 11 0 0 1-3.4-5.5c-.4-1.7-.3-4 .1-6a166 166 0 0 1 4-12.4l7.4-19.9a119 119 0 0 0 3.9-10.8 481 481 0 0 0-31 8 285.9 285.9 0 0 0-29.3 11.4l-4.8 2.4 3 3.7a57 57 0 0 1 9.7 19 110.4 110.4 0 0 1 4.3 21 277.9 277.9 0 0 1 0 39.4c-.4 4.5-1.3 11.5-2 15.7-.8 4.2-1.8 8.3-2.2 9.2-.5 1-3.9 6-7.5 11.4l-6.6 9.6 3.1-.9c1.7-.5 5.3-1.1 8-1.4 2.8-.3 5.6-.1 6.7.3 1.4.6 2 1.3 2 2.5a4 4 0 0 1-1.6 2.9c-1 .6-7 2.3-13.6 3.9-6.6 1.5-12.2 3-12.5 3.4l-7 9A613 613 0 0 1 302 810c-4.4 5.4-7 9.2-6.9 10a1122.8 1122.8 0 0 1 21.7 101.8c1.5 9 3 19.4 3.5 23.1a49.2 49.2 0 0 1-5.9 31.7 185 185 0 0 1-7.3 11l-5 6.7Z"/>
    <path fill="#CEBDFE" d="m422.4 622.4 5.8 4.2 4.7 20 7.7 32.5a957.2 957.2 0 0 0 14 49.3 749.2 749.2 0 0 0 44.1 107.2 769.4 769.4 0 0 0 37.2 63c2.8 4.3 5.7 8 6.3 8.3.7.2 1.8.1 2.5-.3s2.2-3.4 3.5-6.9c1.2-3.4 3-10 4-14.8a436.5 436.5 0 0 0 5.3-35.5 594.1 594.1 0 0 0 2-61.8 787.2 787.2 0 0 0-5.8-78.1 738.2 738.2 0 0 0-7.3-38.2c-1-3.8-2.4-8.6-3.1-10.6-.8-2-1.4-4.4-1.4-5.3 0-1.3.4-1.6 2.2-1.6 1.2 0 2.8.4 3.7.8l9.5 6.1c7.9 5.3 7.9 5.3 12.8 13.3l7.3 12 2.3 4.2-7.9-.5c-5.9-.4-8.2-.3-9 .4-.6.4-1 1.6-1 2.6s1.2 3 3.5 5.2c2 2 7.7 8.9 12.7 15.3l9.2 11.8.5 11.8a295.1 295.1 0 0 1-7.2 78.5 488.7 488.7 0 0 1-22 74.3c-2.4 6.2-6.3 15.2-8.5 20-2.2 5-4.4 9.3-4.9 9.7-.6.6-2.7-.8-7.5-5a916 916 0 0 1-47.4-47 551.8 551.8 0 0 1-48.6-60.1 512.7 512.7 0 0 1-27.3-45.9 389 389 0 0 1-10.5-21.9 255.6 255.6 0 0 1-9.1-24.5c-.4-1.6 1.1-4 10-15.3a293 293 0 0 0 11-15c.4-.8.5-2.3.3-3.2-.3-1.2-1.5-2.1-4.2-3.2-2-.9-6.4-2.2-9.7-3-3.2-.8-7.3-2-9-2.8-1.8-.8-3.4-2-3.6-2.6-.3-.7 0-2.9.4-4.9a1041.5 1041.5 0 0 1 15.1-42.5c1-2.1 1.6-2.6 3.9-3l3.4-.7c.4-.1 1.6-.3 2.7-.3 1.3 0 3.7 1.3 7.4 4ZM148.3 992.7c.4 2 .3 2-3.6 2h109l-2-6a1935.5 1935.5 0 0 1-20-61.5 59.6 59.6 0 0 1-2.5-21.7c0-11.4 0-12.3 1.9-17.6 1-3 3-7.5 4.2-9.9a123 123 0 0 1 15.4-22.6 580 580 0 0 1 17.7-19.6c6.6-7.2 16.3-18.4 21.4-24.9 5-6.5 13-16.3 17.5-21.8s13.3-16.7 19.4-24.9l11.2-14.9 1.5-9.5c.8-5.3 1.9-15 2.4-21.6a143 143 0 0 0-2.6-42c-1.2-5.3-3-10-5.3-15a30 30 0 0 0-6.8-10L324 648l-2.7 1.6a483.3 483.3 0 0 0-46.5 36 341.2 341.2 0 0 0-29.3 30 453.7 453.7 0 0 0-42.6 59.6 705.7 705.7 0 0 0-28 49.8c-3.9 7.6-8.6 17.7-10.6 22.5a295 295 0 0 0-11 33 309.6 309.6 0 0 0-5.8 32c-1 7.9-1.3 15-1.3 34.1 0 14.2.3 28.3.9 34.1.5 5.5 1 10.8 1.3 11.9Z"/>
    <path fill="#FEFFB9" fill-rule="evenodd" d="M302 415.7c3.2 1.1 8 3.5 10.8 5.3a92 92 0 0 1 18.5 16c3 3.6 6.2 8.6 10.2 16.4a134.5 134.5 0 0 1 12.6 31.6c1 4 2 9.9 2.2 13a45 45 0 0 1-1.1 13.1 37 37 0 0 1-3.8 11.3 61.7 61.7 0 0 1-17 17 97.6 97.6 0 0 1-9.7 4.8 54.7 54.7 0 0 1-22.3 3.5 52.1 52.1 0 0 1-19-7.2 107.8 107.8 0 0 1-20.5-16.3 112.4 112.4 0 0 1-13.4-18.3 80.5 80.5 0 0 1-8.8-24.6c-.4-2.5-.8-8.6-.8-13.5a56.1 56.1 0 0 1 5.8-27.2 54 54 0 0 1 13.5-18 52.3 52.3 0 0 1 14.7-8 41.1 41.1 0 0 1 16.8-1.3c3 .3 8 1.4 11.3 2.4ZM265.8 462c-.1-1.5.2-2.2 1.4-2.7 1-.4 5.3-.6 9.9-.4 6 .2 9.4.7 13 1.9 2.7.9 7.4 3.2 10.3 5.1 3.1 2 9 7.1 14 12.1 4.7 4.8 11 11.6 14 15.2 3 3.7 5.5 7 5.5 7.6 0 .5-.7 1.1-1.6 1.3-.9.3-4 .1-6.9-.3-2.9-.4-6.4-.5-7.8-.2a23.5 23.5 0 0 0-10.7 5.7c-1.5 1.4-3.3 4-4 5.7-1 2.5-1.5 3.1-2.7 3-1.2-.2-1.5-.8-1.7-3-.1-1.6 0-4 .2-5.3.3-1.6 1.7-3.7 4.3-6.3a33 33 0 0 1 7.6-5.5c2-1 4.4-1.8 5.3-1.8.8 0 1.7-.3 1.9-.6.2-.3-2.4-3.3-5.8-6.6a238 238 0 0 0-11.3-10.4c-2.8-2.3-7-5.2-9.2-6.4a46.2 46.2 0 0 0-8.8-3.3c-2.5-.7-7.3-1.6-10.6-2-5.8-.9-6-1-6.3-2.8Z" clip-rule="evenodd"/>
    <path fill="#FEFFB9" d="M661.1 291c1.8 3.7 2.8 6.8 2.5 7a788.7 788.7 0 0 1-38.9 14.2 307.2 307.2 0 0 1-34.5 9c-3 .5-11.1 1.5-18.1 2.2-8.5.7-21 1.1-37 1.2a308 308 0 0 1-58.9-4.1l-23-3.6-11.7-2 5-2.3a147 147 0 0 1 27.2-8.9c6.2-1.3 9.7-1.6 20.3-1.6 11 0 14 .3 22.3 2l19.6 3.6a251.7 251.7 0 0 0 42 3.9c6.2 0 14.6-.5 18.7-1a164 164 0 0 0 27.6-6.1 98.2 98.2 0 0 0 23.2-11 47.8 47.8 0 0 0 10.3-8.8c.2 0 1.8 2.8 3.4 6.4Z"/>
    <path fill="#CEF0FF" d="M627 897.5a133.7 133.7 0 0 1 10 42 284 284 0 0 1 1.4 12.5c0 .8-1.2 2.3-3 3.5a136.1 136.1 0 0 1-25.3 12.8c-4.9 2-9 3.4-9.1 3.3a61 61 0 0 1 3.3-8.7c2-4.6 4.8-12 6.3-16.5a289.9 289.9 0 0 0 11.6-50c.4-3.8 1-6.7 1.3-6.4.3.4 1.9 3.7 3.5 7.5Z"/>
    <path fill="#FFD9B8" d="M516.6 683.7c-.5 1-2 2.8-3.3 4a14 14 0 0 1-4.7 3c-1.3.4-3.1.4-4.5 0-1.2-.3-3.5-1.8-5-3.3-1.5-1.5-3-3.2-3.4-3.9-.6-1 .4-2.8 4.5-8.5l7.2-10.5 2-3 4 10.1c3.7 9.2 4 10.5 3.2 12Z"/>
  </g>
  <defs>
    <clipPath id="a">
      <path fill="#fff" d="M0 0h994v994H0z"/>
    </clipPath>
  </defs>
</svg>
