<svg xmlns="http://www.w3.org/2000/svg" fill="none" viewBox="0 0 994 994">
  <g clip-path="url(#a)">
    <path fill="url(#b)" d="M0 0h994v994H0z"/>
    <path fill="#000" fill-rule="evenodd" d="M475.3 80a136.3 136.3 0 0 0-20 5 119.4 119.4 0 0 0-26.8 14.2c-5.6 3.7-11 7-12 7.2-.8.2-3 0-4.9-.3a71 71 0 0 1-7.2-2.2 76.4 76.4 0 0 0-27.7-4c-10.3.1-12.6.4-18.8 2a87 87 0 0 0-13.5 5 95.4 95.4 0 0 0-23.6 17.3 99 99 0 0 0-16.2 22.9l-5.3 11.7c-1.6 4-3.5 7.7-4.2 8.4-.7.7-4.3 2-8.7 3a137 137 0 0 0-28 9.7 67 67 0 0 0-12 7.5c-2.7 2.3-6.5 6-8.3 8.3a69.7 69.7 0 0 0-13.7 44.6l-.2 13.4-4.5 2.9a94 94 0 0 0-7.6 5.4 70.4 70.4 0 0 0-15.7 20.7c-1.9 3.7-4 8.7-4.9 11-.8 2.4-2 7-2.6 10.3-1 4.3-1.2 8.2-1 14.5.3 7.5.7 9.5 2.9 15.9 1.4 4 4 9.8 6 13 1.9 3.1 6 8.6 9.2 12.2l5.7 6.5-3.4 6.7a75.3 75.3 0 0 0-6.7 42.4 70.8 70.8 0 0 0 14 31.2 65.4 65.4 0 0 0 18 15c4 2.2 4.7 2.8 4.3 4a92.6 92.6 0 0 0 .3 25.6c.8 3.5 2.8 8.8 4.3 11.8 1.6 3 4.6 7.6 6.7 10.1a70.4 70.4 0 0 0 16.4 14c1.5 1 5.5 4.3 8.9 7.5a126 126 0 0 0 10.6 9 84.6 84.6 0 0 0 23.2 11.4 46 46 0 0 0 14 1.6c7 0 9.5-.3 14-1.7a72 72 0 0 0 20.6-10.7 62 62 0 0 0 6.4-5.9l2.5-2.9 1 1.7a343.3 343.3 0 0 0 31.8 49.3 345 345 0 0 0 15 16.8c4.2 4.4 7.7 8 7.6 8.1l-9 2.1a398.7 398.7 0 0 0-39.6 11.1 227.8 227.8 0 0 0-47.4 23.4 569.4 569.4 0 0 0-37.7 29.5 383.3 383.3 0 0 0-42.5 44 1063.8 1063.8 0 0 0-43.1 55.3 1336 1336 0 0 0-16.5 22.6c-2.1 3.2-3.3 5.6-3.3 7 0 1.2.9 3.6 1.8 5.3l1.8 3L180 826c-3.2 6.3-7.3 15.2-9.2 19.9a292 292 0 0 0-11.3 34.4 267.6 267.6 0 0 0-7.4 75.2 504.3 504.3 0 0 0 2.1 35.4l.4 4h4c3.8 0 3.8 0 3.4-2-.2-1-.8-6.3-1.3-11.8-.5-5.8-1-20-.9-34 0-19.1.3-26.3 1.3-34.2a308.3 308.3 0 0 1 5.9-32 295.8 295.8 0 0 1 10.9-32.9 312.4 312.4 0 0 1 12.4-26.2c.1 0 4.3 4 9.3 9.2a192 192 0 0 0 16 14.4c3.6 2.9 8.9 6.7 11.6 8.4a146 146 0 0 0 22.5 11.5l5.5 2.2-3.1 5.3a71.5 71.5 0 0 0-8.6 20.9c-.9 3.7-1 7.6-.8 14.6a72 72 0 0 0 2.9 19.2 1474.1 1474.1 0 0 0 19.8 61.6l2 5.8h4.7c4.1 0 4.6-.1 4.1-1.2a2786.7 2786.7 0 0 1-18.8-57.1 385 385 0 0 1-5-19 57.5 57.5 0 0 1-.4-23.5 110.4 110.4 0 0 1 10.5-22.2l1.7-2 6.3.8c3.4.4 7.6.5 9.2.3 1.6-.2 3.4-.7 4-1 .7-.4 2.9-4 4.8-8.2 2-4 6-11.6 9.1-16.8 3-5.1 5.6-9 5.7-8.7a2353.6 2353.6 0 0 1 18 89.8c1 6.8 2.4 16 2.9 20.6.6 6.2.7 9.4 0 12.8a47 47 0 0 1-4 11c-1.7 3.5-5.8 10.4-9 15.4l-6 9h10.4l5.7-8a134 134 0 0 0 8.5-13.4c1.5-3 3.1-7.3 3.6-9.6.5-2.6.7-7.7.5-14-.2-7.1-1.2-14.8-3.3-26.8a1723.7 1723.7 0 0 0-12.2-62.4l-5.6-24.4-2.9-12 5.8-10a241.6 241.6 0 0 1 15.7-24 31 31 0 0 1 6.8-7.7 158.7 158.7 0 0 0 24.1-6c1-.7 1.6-1.8 1.6-2.8 0-.9-.5-1.8-1.1-2a42.3 42.3 0 0 0-15 .6c-3.8.9-3.8.9-3-.4l7.3-10.6c5-7.4 6.3-9.9 6.4-12 0-2.2-.2-2.6-1.6-2.8-.9-.2-2.3.3-3 1a897.6 897.6 0 0 0-29.2 38.8 1004 1004 0 0 0-24 38.4 858 858 0 0 0-19.3 33.2l-2.3 5-7.1-.4c-5.5-.2-8.6-.8-13.6-2.4a158 158 0 0 1-13.2-5.3c-3.6-1.7-9.5-5-13-7.1a179.4 179.4 0 0 1-28.1-23c-3.7-4-8.5-9.6-10.5-12.7-2-3-3.6-6-3.4-6.4a1457 1457 0 0 1 45.9-62.5 532 532 0 0 1 65.3-68.5 457.9 457.9 0 0 1 28.8-21.8 182.1 182.1 0 0 1 46.5-21.4 481.1 481.1 0 0 1 25.7-7.6c.8-.3 2 1.3 4.6 6.2a187.8 187.8 0 0 0 32.1 43.4c4 4.1 10.4 10.1 14.3 13.4a126.6 126.6 0 0 0 39.3 22.8c3.2 1 7.5 2.3 9.7 2.8 2.3.5 8 1 14.5 1a48.7 48.7 0 0 0 38.9-15c1-1.2 3-4.1 4.2-6.6 1.9-3.7 2.3-5.6 2.6-10.4.2-4.9 0-7-1.6-12.4-1-3.6-2.7-8.1-3.7-10-1-2-1.7-3.8-1.5-4l7 3.7a327 327 0 0 1 20.5 12.7c4.9 3 12.1 8 16.1 11.2a273.6 273.6 0 0 1 42.5 42l29.7 35.4a757.5 757.5 0 0 1 38.2 48.1c2.3 3.2 4.1 6.2 4.1 6.7a36 36 0 0 1-5.3 6.7c-3 3.2-8 7.9-11.2 10.4a146.6 146.6 0 0 1-49.8 25.5c-2.1.6-5.3 1.2-7 1.5l-3.1.5-.5-8.8a287.5 287.5 0 0 0-8-48.2 66 66 0 0 1-2-9.6 361.6 361.6 0 0 0-7.3-34.9c-1-2-1.8-2.7-3.2-3-1.3 0-2.2.3-3 1.5-1 1.5-1 2.2.3 7.3l2.9 12.3c.8 3.6 1.6 8.2 1.9 10.1l.4 3.7-3-1.6c-1.9-.9-5-1.7-7.6-2a31.7 31.7 0 0 0-15.5 3 43 43 0 0 0-8.1 5.8 93 93 0 0 0-9.4 10.8 51 51 0 0 1-9 9.5l-4 3.1H540c-20 0-24.3-.2-40.7-2-17.2-2-18.6-2.3-21.4-4.1-1.6-1.1-5.3-5-8.2-8.4a91.5 91.5 0 0 0-8.6-9.6 42 42 0 0 0-7.8-5.3c-2.3-1.1-6-2.5-8.3-3a33 33 0 0 0-8-.4c-2.2.2-5.4 1-7.2 1.7-1.7.8-4.3 2.4-5.6 3.6a33.4 33.4 0 0 0-4.5 5c-1 1.6-2.4 4.3-3 6a49.3 49.3 0 0 0-1.6 17.8 41 41 0 0 0 2.7 8.6 45 45 0 0 0 6 9.2l4.2 4.8-2.6 2.5a35 35 0 0 0-5.2 7.8 22.3 22.3 0 0 0-3 11.6 28.4 28.4 0 0 0 4.4 17.6 48 48 0 0 0 5.9 7.7 31 31 0 0 0 8.6 6.1c4.3 2 5.5 2.3 10.9 2.3 4.8 0 6.9-.4 10.5-2 2.5-1 8.2-4.3 12.8-7.3a130.8 130.8 0 0 1 20.5-11.5c1.6-.6 4.7-.8 10.6-.6a2124.2 2124.2 0 0 1 46.8 2.5c7 .5 10.4 1 13.5 2.4 2.3.9 9 4.5 14.8 8 5.9 3.4 12.8 7 15.5 8a32 32 0 0 0 9 1.6 33 33 0 0 0 7.3-1 30.2 30.2 0 0 0 14.6-10.7c1.8-2.4 4-5.9 4.9-7.8l1.7-3.6-.4 7.1a243.1 243.1 0 0 1-32.8 105.6 65 65 0 0 0-3 5.9c0 .2 2 .3 4.4.3h4.4l3.5-6.4c1.8-3.5 3.8-6.5 4.2-6.7.5 0 4.8-1.6 9.7-3.3 4.9-1.7 14.4-5.8 21.1-9.2l12.3-6 .3 2.1c.2 1.2.4 8.3.5 15.7l.2 13.5 4.1.2 4.1.2-.3-16c-.2-8.9-.7-20.3-1.1-25.4a240.4 240.4 0 0 0-5.7-38 140 140 0 0 0-13.1-32.8c-4.2-7.7-4.5-8.4-4.1-11.6.2-2 .7-3.6 1.2-3.7l6.4-1.4a169 169 0 0 0 29.2-10.9 174.6 174.6 0 0 0 23.9-14.5c3-2.3 5.8-4 6-3.9l3.8 10.6a808.8 808.8 0 0 1 14.5 49.2 735.9 735.9 0 0 1 12 58.6 776.7 776.7 0 0 1 4.7 38.5c0 1 .7 1.2 3.9 1.2h4V992a724.5 724.5 0 0 0-4-35.1 680.4 680.4 0 0 0-11.7-57.7c-2-7.8-5.4-20-7.6-27.4l-4-13.4 2.2-11.5c1.3-6.3 3.6-19 5.1-28.1a252 252 0 0 1 10.7-45A195.8 195.8 0 0 1 762 726a78.7 78.7 0 0 1 17-17.5 72.2 72.2 0 0 1 19.7-9.6c2.8-1 8.2-1.8 12.5-2 6-.4 10.5 0 23.8 1.9 11.8 1.6 17.7 2.2 21.2 1.9 3.2-.3 6.3-1.2 9.4-2.6a32.7 32.7 0 0 0 18-25.7c.7-4 .7-6.7 0-10.6-.4-3-1.7-7.4-3-10.3a42.5 42.5 0 0 0-16.4-17.7 88 88 0 0 0-24.2-10.7 132.7 132.7 0 0 0-28.4-3.8 134.2 134.2 0 0 0-24.5 2.5c-3 .6-8.9 2.2-13.2 3.6a155 155 0 0 0-32.3 15.5c-3.3 2.3-8.1 5.8-10.7 8a131.1 131.1 0 0 0-23 24.8 146.4 146.4 0 0 0-19.2 41.8 230.1 230.1 0 0 0-6.5 33.5c-.7 5.6-1.5 10-1.8 10l-11-12.8a2413.4 2413.4 0 0 0-29-34.3 405.9 405.9 0 0 0-35-34.9 172.4 172.4 0 0 0-28.1-19.6 30.4 30.4 0 0 1-7.7-4.8c.3-.3 3-.9 5.9-1.4a263.7 263.7 0 0 0 33.2-8.6 281.6 281.6 0 0 0 27.3-11.4 213.2 213.2 0 0 0 43.8-30.2 156 156 0 0 0 19.8-23.1c2-2.8 4.8-7.6 6.4-10.5a136.8 136.8 0 0 0 10.3-26.7c1-3.8 2.2-9.6 2.7-12.7.6-3.5 1-12.2 1-22.7a80 80 0 0 0-1.6-23.4 242.5 242.5 0 0 0-15.4-43l-1-2.6 3.4-1.2a45 45 0 0 0 15.7-11.2A41.7 41.7 0 0 0 729 410c.8-2.8.9-2.9 3.6-2.5 2 .3 3.1 0 4.2-1 .7-.6 1.4-2 1.4-2.8 0-1-.7-2.1-1.6-2.7-.9-.6-5-1.9-9-2.9l-20.7-5.2c-11.6-3-13-3.6-13-4.8l1.3-11.9c.6-5.7 1-11.9 1-13.6v-3.2l2.9.4c2.3.4 3.2.1 5.8-1.7a65.8 65.8 0 0 0 12.6-12.4 50 50 0 0 0 6.9-17.6 78.7 78.7 0 0 0-1.5-32l-1.2-4.8 4.4-6.6a94.6 94.6 0 0 0 12.6-25.4c1-3.5 1.2-7.2 1.2-15 0-9.2-.2-10.8-2-16.3a85.2 85.2 0 0 0-11.4-22 62.2 62.2 0 0 0-24.8-18.8c-3.6-1.7-12-5-18.7-7.2l-12.2-4 .4-5.4a69.2 69.2 0 0 0-3.3-24c-1-3.3-3-7.7-4.4-9.9a68 68 0 0 0-26.5-23.5 101.5 101.5 0 0 0-24-8.3 102.4 102.4 0 0 0-30.2-.8 154 154 0 0 0-18 4.3c-5.4 1.8-10.4 3.2-11 3.2-.8 0-4-2.8-7.3-6.1-3.3-3.4-8.6-8-11.7-10.4a92.6 92.6 0 0 0-26-12.9 84.8 84.8 0 0 0-22.2-3.2c-2.8 0-7.8.5-11.2 1Zm19.9 6a86.1 86.1 0 0 1 31.2 11c3.4 2.3 9 7 15.1 13a98 98 0 0 0 10.4 9.4l4.1-1.1 7.6-2.4a87.1 87.1 0 0 1 32.5-6c5 0 11.8.6 15.5 1.3a93.8 93.8 0 0 1 24.8 8.7 70.2 70.2 0 0 1 17 14c2.1 2.3 4.7 6.2 5.9 8.6 1.1 2.3 2.7 6.8 3.5 9.9a60 60 0 0 1 1.4 16.4c0 9.3.2 10.9 1.3 11.8a70 70 0 0 0 12.6 4.8c6.2 2 14.2 5 17.6 6.5 3.4 1.4 8 3.7 10.2 5a54.2 54.2 0 0 1 22.6 25.1 59.6 59.6 0 0 1 5.3 22.4 51.8 51.8 0 0 1-5.6 22.3 166 166 0 0 1-8.5 14.5 34.4 34.4 0 0 0-5.4 10A79.6 79.6 0 0 1 718 314c.3 8.1.1 11.2-.8 14.9a52 52 0 0 1-3 8.4 42.6 42.6 0 0 1-13.7 15 27.3 27.3 0 0 1-3.7 2.1 56 56 0 0 1-.8-9.4 218.8 218.8 0 0 0-4.5-33.5 69 69 0 0 0-1.8-6.1c-.5-1.5-.3-2.7 1.5-6.4a19 19 0 0 0 2.1-7.9c0-2-.4-3.7-1-4.4-.7-.7-1.6-1.2-2.1-1.2s-1.3.4-1.7 1c-.4.4-1 2.1-1.2 3.7a36.1 36.1 0 0 1-9.6 16.8 39.4 39.4 0 0 1-9 6.9 51.1 51.1 0 0 1-9.3 3.3 58.7 58.7 0 0 1-21.8 0 56.8 56.8 0 0 1-20.7-9.6c-1.6-.8-2.8-1.5-3.1-1.5-.5 0-3.5 2.7-6.8 6-5 5.1-6.8 6.5-13.2 9.6-4 2-9.4 4.1-11.9 4.8-3.5.8-6.7 1-13.1.7-6.8-.2-9.7-.7-13.7-2.1a66.5 66.5 0 0 1-29.5-20.9 12.4 12.4 0 0 0-2.7-2.4c-.7-.3-1.8-.1-2.6.4a46 46 0 0 0-5.5 8c-2.5 4-6.2 9-8.9 11.6a37.1 37.1 0 0 1-9.8 7.2 55.9 55.9 0 0 1-10.5 3.8 43.6 43.6 0 0 1-25.1-2.1 327 327 0 0 0-10.2-3.5c-2.2-.6-3-.6-4.5.3-1.3.7-2.7 3-4.5 7.2a66 66 0 0 1-14.1 22c-4.2 4.1-6.7 6-11.5 8.2a76.5 76.5 0 0 1-13.8 4.8c-4.3 1-8.5 2.1-9.4 2.5-1 .4-2 1.4-2.3 2.3-.4 1-.1 2.7.9 5.1l3.4 9.7A61 61 0 0 1 397 401a40.2 40.2 0 0 1-4.5 22.2A34.6 34.6 0 0 1 377 439a39 39 0 0 0-6.4 3.7 5 5 0 0 0-1.6 3.1c0 1 .7 3.2 1.7 5a50.7 50.7 0 0 1 3 33.7 39.1 39.1 0 0 1-20.4 23.6 63 63 0 0 1-11.9 3.2l-8 1.4-5.3 5c-3 2.7-7.2 5.9-9.6 7a43.3 43.3 0 0 1-22.6 4.1 53.2 53.2 0 0 1-30.3-10.7 69.3 69.3 0 0 1-15.5-16.6 55.3 55.3 0 0 1-4-8.4c-1-2.5-1.7-6.8-1.9-10.8a96 96 0 0 1 .5-14c.9-7 .9-7.5-.4-8.9a21 21 0 0 0-4.9-3.3 62.8 62.8 0 0 1-17.7-14.2 69 69 0 0 1-11-20 113 113 0 0 1-2.2-11.5c-.5-5-.6-8.4 0-13a81.8 81.8 0 0 1 5.9-20.6 63.6 63.6 0 0 1 4.3-7.1c.8-1.5 1.4-3 1.4-3.7 0-1.2-1.8-3.5-5.7-7.5-3-3.2-7-7.6-8.6-9.8A76.5 76.5 0 0 1 196 329c-1-3.5-1.3-7-1.2-13.5 0-7.4.4-10 2-15.3 1-3.5 3.1-9 4.7-12.2a67.3 67.3 0 0 1 15.5-21 79 79 0 0 1 9.5-6.5c1.8-1 3.5-2.2 4.6-3 .6-.5 1-1 1-1.2.2-.6 0-2.5-.3-4.2-.4-1.7-.7-7-.7-11.6a75 75 0 0 1 4.8-27.1c1.3-3.2 3.8-8 5.7-10.7 2-2.7 5.2-6.4 7.2-8.3a63 63 0 0 1 20.5-11.8c3.8-1.6 11.9-4 17.9-5.6 9.7-2.5 11.1-3 12.7-5 1-1.1 3-4.8 4.2-8 1.3-3.3 4-9 5.8-12.6 1.8-3.8 5-9 6.9-11.8a75.8 75.8 0 0 1 39-28.7 125 125 0 0 1 13.4-3.3 61 61 0 0 1 13.8-.7 75.2 75.2 0 0 1 23.5 5.1 43 43 0 0 0 7.6 2.4 14.9 14.9 0 0 0 6.6-2.4c2.6-1.6 6.8-4.2 11-7a154 154 0 0 1 17-10.2c3.5-1.6 8.3-3.6 10.8-4.5a109.3 109.3 0 0 1 27.1-4.9c1.8 0 5.6.3 8.5.7Zm41.6 237.5a78.8 78.8 0 0 0 20.1 9 62 62 0 0 0 25.9.4c2.6-.7 6.7-2 9.2-3a52.6 52.6 0 0 0 18.2-12l3.8-4 3 2a39.6 39.6 0 0 0 15.1 7c5.3 1.7 7.6 2 15.5 2 7.6 0 10.2-.2 14.8-1.6a46.3 46.3 0 0 0 17-8.8l3.3-2.8.6 1.7a220 220 0 0 1 4.4 22.6c.5 3.7 1 12.3 1 19.1 0 6.9-.5 16.6-1 21.7-.5 5-1.1 9.6-1.4 10-.3.7-3 0-9.6-2.1-5.1-1.7-11.3-4-13.9-5.2-2.5-1.2-5.6-3-6.8-3.9-1.3-1-3.6-3.4-5.2-5.5-2.5-3-3.3-3.7-4.9-3.5a4 4 0 0 0-2.9 2c-.9 1.7-.9 2.3-.1 4.2a26 26 0 0 0 4.2 5.7c1.8 1.8 4 3.9 5 4.5 1.5 1 1.5 1 .4 5.2a47.3 47.3 0 0 0 0 19.7c.7 2.3 2.2 6.2 3.4 8.6a42 42 0 0 0 7.2 9.3c3.1 3.2 6.7 6 9.5 7.3a38.7 38.7 0 0 0 16.6 4.4h4l5.3 14a215.7 215.7 0 0 1 13.3 46.7 97.5 97.5 0 0 1-3.2 39.3c-1 3.7-3 9.7-4.3 13.2a144.7 144.7 0 0 1-12.6 23.8c-2 3-6.8 8.6-10.7 12.7a212.8 212.8 0 0 1-25.4 21.8 122.6 122.6 0 0 1-56.7 21.3 227.7 227.7 0 0 1-44.4.3 138.4 138.4 0 0 1-26.8-5.8 103.4 103.4 0 0 1-26.1-13.5 84 84 0 0 1-17.3-18 53.5 53.5 0 0 1-7.6-18.4c-.4-2.8-.6-6.8-.3-9.5.3-2.6 2.3-11.6 4.5-20l4-15.3v-11.3c0-9-.2-12.4-1.2-16a76 76 0 0 0-4-9.9c-1.8-3.7-4-6.8-7.5-10.4a28.6 28.6 0 0 0-9-6.7c-3.6-1.5-4.1-2-4.1-3.7a22.8 22.8 0 0 1 4-12.4c1.2-1.9 2.3-3.8 2.3-4.3 0-.7.7-.8 2.7-.4 1.5.3 6.3.6 10.8.5 6.5 0 9-.4 12.3-1.6a41.6 41.6 0 0 0 17.3-12.1c1.7-2.2 4.1-6 5.3-8.3 1.2-2.5 2.6-6.9 3.2-10.6 1-5.6 1-7 0-12.7-.8-4.6-1.9-8-4-12l-2.8-5.7 1.8-2a28.8 28.8 0 0 0 4.8-9.4 4 4 0 0 0-.6-3.7c-.9-1.4-1.7-1.7-3.4-1.5-2 .1-2.5.7-4.6 4.7a35.2 35.2 0 0 1-4.6 7 81.9 81.9 0 0 1-9.8 7.4 475 475 0 0 1-34.4 18.4 262 262 0 0 0-28.4 15.3c-1 1.3-1.2 2-.6 3 .4.5 1.2 1.4 1.9 1.8.8.5 2 .5 3.8 0l4-1.3c.9-.4 1.5.3 3 3 1 2 3.6 5.7 6 8.1l4.1 4.5-5 1.5c-2.9 1-7 2.8-9.4 4.4a57.4 57.4 0 0 0-8.7 7.5l-4.4 4.7-6.2-2.8a82.4 82.4 0 0 1-21.8-14.6 55 55 0 0 1-5.9-6.8l-1.8-2.8 4-5.1c2.1-2.9 4.7-7 5.6-9.1 1-2.1 2.3-5.7 2.9-7.8a45.3 45.3 0 0 0 1.2-20 82.5 82.5 0 0 0-5.3-17.7c-.4-.9.9-1.5 6.8-3.1a72.7 72.7 0 0 0 22.2-10.4 61.2 61.2 0 0 0 17.6-23.1l4.2-8.6 4.8 2a73.6 73.6 0 0 0 18.7 4.7 48.3 48.3 0 0 0 20-3c2.6-.9 6.6-2.7 8.8-4a56.3 56.3 0 0 0 17.2-17.8l3.2-5.4 5.3 5.2c3 2.8 7.2 6.4 9.6 7.8Zm141.3 70a1033.2 1033.2 0 0 0 44 11.3c.2 0 .4.7.4 1.5 0 .9-1 3.7-2.3 6.2a33.3 33.3 0 0 1-43 15 38.4 38.4 0 0 1-8.8-6.1 32 32 0 0 1-6.8-9.4 22 22 0 0 1-3-12c0-3.8.2-8.2.6-9.8l.8-3 5.5 2.2c3 1.2 8.7 3 12.6 4.2Zm-92-1.8a53 53 0 0 0-18.8 9.1 54 54 0 0 0-6.9 6.6 50 50 0 0 0-11.3 26 34 34 0 0 0 .4 13 43 43 0 0 0 4.4 13.8c2.8 5.7 4.3 7.7 9.4 12.8a39 39 0 0 0 12.2 9c3.3 1.6 8.3 3.4 11.1 4a52.6 52.6 0 0 0 24.8-.8A699.2 699.2 0 0 1 616 513c0 .4-3.3.4-7.7.2a130.9 130.9 0 0 1-26.8-4.3 135 135 0 0 1-17.3-7.2 41 41 0 0 0-14-5.5 8 8 0 0 0-5 1.4 14 14 0 0 0-3.3 4c-.8 1.5-1.5 4.7-1.7 7.1-.2 2.4 0 6.3.5 8.5a45 45 0 0 0 3.2 9 51.1 51.1 0 0 0 17.4 18.4 75 75 0 0 0 22.2 9.7 83.6 83.6 0 0 0 24.8 1.1 96.8 96.8 0 0 0 22.8-5.8c2.8-1.2 7.5-3.6 10.6-5.4 3-1.7 7-4.6 9-6.4 2.3-2 3.6-3.8 3.6-4.7 0-1-.4-2-.9-2.5a4 4 0 0 0-2.3-.8c-.8 0-2.2.5-3 1-1.6 1.2-1.6 1.2-1.6-2 0-2 .6-4.6 1.5-6.3a29.5 29.5 0 0 1 9.4-11.4c2-1.2 5-3.5 6.7-5 1.6-1.5 3-3.3 3-4 0-.6-.4-1.5-.9-2-.4-.5-1.4-.8-2.1-.8-.7 0-4 1.6-7.5 3.5a84 84 0 0 1-10.1 5 78.8 78.8 0 0 1-19.4 4.6l-5.3.5-.8-7a258.7 258.7 0 0 0-3.6-22c0-.5 1.8-2 4-3.2 2.3-1.3 6.7-4.9 9.9-8 4.7-4.7 6.3-7 9-12.5 2.6-5.2 3.6-8.3 4.5-13.7 1-5.7 1-8 .4-12.9-.4-3.2-1.4-8-2.3-10.4a55.6 55.6 0 0 0-11.3-18.2c-2-2-5-4.7-6.8-5.9a52.4 52.4 0 0 0-17-7.4 62 62 0 0 0-21.6 0Zm-78.8 10.5a41 41 0 0 1 3 9.5c.6 3.8.6 6.2 0 9.9-.6 2.7-2 7-3.2 9.5-1.3 2.6-4 6.2-6 8.4a33.3 33.3 0 0 1-37 6.5 38.9 38.9 0 0 1-8.3-5.8 34.5 34.5 0 0 1-8.1-11.4c0-.3 9-5 19.9-10.5 11-5.4 22-11.2 24.7-12.7l8.3-5.3c2-1.4 3.8-2.5 4-2.5.3 0 1.5 2 2.7 4.4Zm99.8-3.4a54 54 0 0 1 8.8 3.4 47.5 47.5 0 0 1 16.6 15.5 50 50 0 0 1 4.2 9.5c1.1 3.6 1.6 6.8 1.6 11.7 0 5-.5 8-1.6 11.7-.8 2.8-2.7 7-4.2 9.5a49.2 49.2 0 0 1-16.7 15.6 51.8 51.8 0 0 1-9.1 3.3 50.2 50.2 0 0 1-19.1 0 40 40 0 0 1-19.3-11 38.4 38.4 0 0 1-11.7-21.6 37.1 37.1 0 0 1 1.2-19.8 43.9 43.9 0 0 1 10.1-16.6c2-2.1 5.6-5 8-6.4a40.2 40.2 0 0 1 21-5.8c3.3 0 7.9.4 10.2 1ZM386 447.5a50 50 0 0 0 7.2 7.7 115 115 0 0 0 9 7 115.2 115.2 0 0 0 19 10c.2.4-.3 2.6-1 4.8a36.8 36.8 0 0 0-1.5 18c.4 2.5 1.6 6 2.5 8a27 27 0 0 0 4.1 5.7 22 22 0 0 0 5 3.6c1.6.7 4 1.5 5.4 1.7 1.5.2 4.4-.2 6.5-.8 2-.6 5-2 6.3-3 1.3-1 3.3-3 4.4-4.6a40.2 40.2 0 0 0 5.8-17.2l.8-6.2 3.5 2.7a36 36 0 0 1 11 15.5 67 67 0 0 1 2.8 10.8c.9 5.6 1 7.9.3 13.9-.5 4-2.2 12-3.8 17.8-1.6 5.9-3.4 13-4 15.9a50.8 50.8 0 0 0 4 32.2 80 80 0 0 0 5.4 8.7 92.2 92.2 0 0 0 39.9 29.8 139.5 139.5 0 0 0 28.6 7.3c6.3 1 12.4 1.2 26.6 1.2a230.4 230.4 0 0 0 30-1.5 39 39 0 0 1-7.4 2.5 263.1 263.1 0 0 1-33 7c-6 .8-13.6 1.2-23.7 1.2a167.3 167.3 0 0 1-39.7-4.3c-4.3-1-11.5-3-16-4.6a190.3 190.3 0 0 1-36.7-18.2c-4.6-3.1-11.4-8.2-15.1-11.3a210.5 210.5 0 0 1-36.8-41.2 339.3 339.3 0 0 1-20.3-33l-4-7.5 1.8-3.9c1-2.2 2.3-6.1 2.8-8.8.6-2.7 1.2-8.3 1.4-12.6a34 34 0 0 1 2.1-12c1-2.4 2.1-7 2.6-10.2.7-4.5.7-7.3 0-12.5a90.4 90.4 0 0 0-4.6-19.1c-.4-1 .1-1.5 2.2-2.6 1.5-.8 3-1.5 3.4-1.5.4 0 1.9 1.7 3.2 3.6Zm69 10.3c-.9 1-2 3.6-2.6 5.6-.6 2-1.4 9-1.7 16a76 76 0 0 1-1.8 16c-.7 1.9-1.9 4.5-2.6 5.7-.8 1.3-2.5 2.8-3.8 3.4-1.3.6-3.7 1.1-5.3 1.1-2.2 0-3.4-.5-5.5-2.3a17.6 17.6 0 0 1-3.8-5.1c-.7-1.6-1.5-4.5-1.7-6.4a34.5 34.5 0 0 1 3.6-17.3 38.3 38.3 0 0 1 25-18.5h1.6l-1.5 1.8Zm105 50.9a105.5 105.5 0 0 0 43.8 11.9c7 .5 12.1.5 18.3 0a147.3 147.3 0 0 0 19.1-2.7c.1 0-.3 1.3-1 2.6a7 7 0 0 1-4 3.5c-1.6.6-3.7 1.7-4.8 2.4-1.2.8-2 2-2 3 0 .9.5 2 1.1 2.5.7.6 2.2.8 4.6.4l3.6-.4v2.5c0 2.4-.2 2.6-5.2 5a95.8 95.8 0 0 1-10 4.3 79 79 0 0 1-39.8 2.4 73 73 0 0 1-10.1-3.5 50.6 50.6 0 0 1-15.1-10.3l-2.5-2.6 3.6 1.4a60 60 0 0 0 16.8 3.4 3 3 0 0 0 2.4-2.4c.3-1.4 0-2.1-1.2-3.1-.8-.8-2-1.3-2.5-1.3s-3.7-.9-7-1.8c-3.5-1-9.3-3.3-12.9-5.1l-6.6-3.3-.5-3.1a23.8 23.8 0 0 1 .8-9.6c.2-.3.8-.6 1.4-.6.5 0 4.9 2 9.7 4.5Zm-190.8 1.1-1.7 7.7c-.4 1.5-2 4.7-3.7 7a71 71 0 0 1-5.5 7 58.2 58.2 0 0 1-16 11.3c-2.8 1.3-6.7 3-8.8 3.6-2 .6-6.8 1.3-10.6 1.5a25 25 0 0 1-13.7-1.7 82.9 82.9 0 0 1-19.8-10.2l9.4-.3c8 0 10.2-.3 15-1.9 3.2-1 7.6-3 10-4.4 2.3-1.4 6.2-4.4 8.5-6.8 4-3.8 4.6-4.2 7.5-4.2a44.9 44.9 0 0 0 26.3-10.3c2-1.7 3.9-3.1 4-3.1l-.9 4.8ZM587 530.6a4 4 0 0 0-.9 2.4c0 .8.4 1.9.9 2.3.5.5 1.7.9 2.8.9a5 5 0 0 0 3-1.1c.6-.7 1.1-1.6 1.1-2 0-.6-.5-1.5-1.3-2.1-.7-.7-2-1.2-3-1.2s-2.1.4-2.6.8Zm-151 91.9a197.1 197.1 0 0 0 41 22 183.4 183.4 0 0 0 43.7 9.5c4 .4 10.7.7 14.7.7 4.1 0 7.4.2 7.4.3 0 .2-.6 3.2-1.5 6.6a47.6 47.6 0 0 0-1.1 15.9 75 75 0 0 0 .8 10.8c.4.9 1.2 1.2 2.4 1.1 1.8-.2 1.9-.5 2.7-7a228.9 228.9 0 0 1 4.1-21.8l2.5 6.8c1.9 5.3 2.4 8 2.4 12.2 0 4-.4 6.2-1.5 8.7a29 29 0 0 1-5.3 7.1 39.7 39.7 0 0 1-18.7 9.8 51 51 0 0 1-12.7 1.4c-4 0-9.7-.5-12.6-1-2.9-.6-7.7-1.9-10.7-2.9a113 113 0 0 1-34-19.4 196.9 196.9 0 0 1-45-54.8 66.7 66.7 0 0 1-3-6.5 1986.4 1986.4 0 0 1 17.4-4c.4 0 3.6 2 7 4.6Zm385.3 4c4 .4 10.2 1.4 13.7 2.3a86.4 86.4 0 0 1 22.3 8.7c2.5 1.5 6.7 4.7 9.3 7.1a39 39 0 0 1 7 8.5 37 37 0 0 1 3 9 22 22 0 0 1 0 9.4 38 38 0 0 1-2.7 8.4c-1 2-3.1 5-4.7 6.7a34.2 34.2 0 0 1-6.5 5c-3 1.5-4.4 1.8-9.6 1.8-3.3 0-11.3-1-17.8-2-6.4-1-14.4-2-17.7-2.1a89 89 0 0 0-12 .3 75 75 0 0 0-24.6 8.1c-3 1.7-7.6 5-10.4 7.2a85.8 85.8 0 0 0-18.1 21.1 217.6 217.6 0 0 0-18.3 35.7c-2.1 5.5-5 14-6.4 18.7A305.6 305.6 0 0 0 721 810c0 .2-2.7-3.3-6.1-7.7l-17.4-22-11.3-13.9 1.5-11.6a212.4 212.4 0 0 1 9.2-43.5 146.2 146.2 0 0 1 15.6-33 119.5 119.5 0 0 1 47.2-39.9 139.4 139.4 0 0 1 40.1-12l9.8-.7c2.4 0 7.7.3 11.7.7ZM448.6 795.1a34 34 0 0 1 6.2 3.8c1.6 1.3 5.5 5.4 8.5 9.2 3.1 3.8 6.7 7.7 8 8.8 1.3 1 3.6 2.6 5.2 3.3a26 26 0 0 0 6 1.7L502 824a286 286 0 0 0 38.7 1.8H563l3.9-2c2-1 5.2-3.2 7-4.7 1.7-1.5 5.5-6 8.4-9.8 3-3.8 7-8.2 8.8-9.8a26.2 26.2 0 0 1 15-5.7c2.3 0 4.9.6 6.8 1.5 1.6.8 4 2.5 5.1 3.9a21 21 0 0 1 3.4 6.5c.8 2.5 1.3 6.3 1.3 9.8 0 4.8-.4 6.3-2.3 10.5a33.4 33.4 0 0 1-7.1 9.7 52.2 52.2 0 0 1-8.9 7c-2.3 1.3-4.4 3-4.9 3.8-.5 1-.5 2 0 3.1.6 1.3 1.4 1.7 3 1.7 1.3 0 4-1 6.2-2.2l3.8-2.2 2.8 2.7c1.6 1.5 3.9 4.8 5 7.3 1.9 3.7 2.3 5.3 2.3 9.5 0 4.3-.3 5.9-2.1 9.8-1.2 2.5-3.5 6-5 7.8-1.6 1.7-4.5 4-6.3 4.9a23 23 0 0 1-6.7 2c-1.8.2-5-.2-7.2-.8a142 142 0 0 1-16-8.3c-6.6-3.9-13.9-7.7-16.2-8.5a60 60 0 0 0-15.3-2.1c-6-.4-15.5-.8-21-1-5.4-.1-15.2-.7-21.6-1.2-11.5-.9-11.8-.9-17.3.8a71 71 0 0 0-17.8 9.4c-6.6 4.3-13.6 8.4-15.3 9.2a21 21 0 0 1-8.2 1.5c-4.1 0-5.5-.3-8.2-2-1.9-1-4.7-3.3-6.3-5a36.5 36.5 0 0 1-5-7.7 17 17 0 0 1-2.1-9c0-3.2.5-6.2 1.5-8.8a29 29 0 0 1 4.7-7.6l3.1-3.4 4 2c2.3 1.2 4.9 2.2 5.9 2.2s2.2-.4 2.6-.8a4 4 0 0 0 .9-2.5c0-.9-.7-2.1-1.6-2.7l-6.6-4.4a33.8 33.8 0 0 1-13.9-14.3c-1.5-3.1-2.3-6-2.6-9-.2-2.5-.1-6.2.1-8.4.3-2.4 1.4-5.3 2.8-7.7 1.7-2.9 3.2-4.2 6.2-5.8a12 12 0 0 1 8.5-1.7c2.5.1 6.1 1 8 1.8Zm268.9 36.5a103 103 0 0 1-2.1 10.4c-.3.5-1.4-1.5-2.8-5.3l-2.2-6.1 4-4.5a28 28 0 0 1 4.4-4.2c.2.1-.5 4.5-1.3 9.7Zm-88.8 10.8c.4 4.3.7 9.4.7 11.3v3.6l-2.3-4.4a37.3 37.3 0 0 0-5.4-7.6l-3.1-3.2 2.5-2.8a40 40 0 0 0 4.2-5.7l1.7-2.8.4 1.9c.3 1 .9 5.4 1.3 9.7Zm14.4 60.7c1.4 3.8 3.4 10.5 4.4 15a275.1 275.1 0 0 1 4.7 32.6c0 1.6-.5 3-1.3 3.7a165.7 165.7 0 0 1-31.7 15.8c-4.3 1.7-4.8 1.7-4.4.6l4.7-12a272.2 272.2 0 0 0 12-38.2 252.4 252.4 0 0 0 4.7-28.5l.5-3.5 2 3.9c1 2.1 3 7 4.4 10.6Z" clip-rule="evenodd"/>
    <path fill="#CEBDFE" d="M373.5 458.8c-.7-2.6-2-6.1-3-8-36 12.5-60.7-5.2-68.5-15.5-58.5 8.4-73-38.1-73-62.5a25 25 0 0 1-10.4-3.1l-.8 1.1a63.6 63.6 0 0 0-3.5 6 75.2 75.2 0 0 0-5.9 20.6c-.6 4.6-.5 8 0 13 .5 3.7 1.5 8.9 2.3 11.4a69 69 0 0 0 10.9 20.2 62.8 62.8 0 0 0 17.7 14.1c2 1 4.2 2.5 4.9 3.3 1.3 1.4 1.3 2 .4 9-.5 4-.7 10.2-.5 14a42 42 0 0 0 1.9 10.7c.8 2.3 2.6 6 4 8.4a66.8 66.8 0 0 0 15.5 16.6 75.9 75.9 0 0 0 17.8 8.9c3.2 1 7.7 1.6 12.5 1.9a43.3 43.3 0 0 0 22.6-4.2 47 47 0 0 0 9.6-7l5.3-5 8-1.4c4.4-.8 9.8-2.3 12-3.2a48 48 0 0 0 7.7-4.8 39.1 39.1 0 0 0 12.6-18.8 29 29 0 0 0 1.5-13.5 81 81 0 0 0-1.6-12.2Z"/>
    <path fill="#fff" d="m369.2 509.8-1.7 7.7c-.4 1.5-2 4.7-3.7 7a71 71 0 0 1-5.5 7 58.2 58.2 0 0 1-16 11.3c-2.8 1.3-6.7 3-8.8 3.6-2 .6-6.8 1.3-10.6 1.5a25 25 0 0 1-13.7-1.7 82.9 82.9 0 0 1-19.8-10.2l9.4-.3c8 0 10.2-.3 15-1.9 3.2-1 7.6-3 10-4.4 2.3-1.4 6.2-4.4 8.5-6.8 4-3.8 4.6-4.2 7.5-4.2a44.9 44.9 0 0 0 26.3-10.3c2-1.7 3.9-3.1 4-3.1l-.9 4.8Z"/>
    <path fill="#FFD7EC" d="M394.5 389.3a200 200 0 0 0-3.4-9.7c-16.6.2-52.2-6.3-62.6-33.5-32.1 7.4-95.2 2.7-90.4-75.9-1.8-1-5.6-4.8-7-12.7-1 .8-2.7 2-4.5 3a79 79 0 0 0-9.5 6.5 67.3 67.3 0 0 0-15.7 20.9 98.8 98.8 0 0 0-4.7 12.2c-1.6 5.3-2 7.9-2 15.3 0 6.5.2 10 1.2 13.5a71.2 71.2 0 0 0 9.8 19.8 143 143 0 0 0 8.6 9.8c4 4 5.7 6.3 5.7 7.5 0 .8-.6 2.2-1.4 3.7 1.9 1 6.7 3.1 10.4 3.1 0 24.4 14.5 71 73 62.5 7.8 10.3 32.4 28 68.6 15.5-1-1.8-1.7-4-1.7-5a5 5 0 0 1 1.6-3 39 39 0 0 1 6.5-3.9 34.6 34.6 0 0 0 15.5-15.7A40.2 40.2 0 0 0 397 401a61 61 0 0 0-2.4-11.7Z"/>
    <path fill="#FFD9B8" d="M445.8 327.5c1.5-.9 2.3-1 4.5-.3a67.4 67.4 0 0 0-36.1-60.7c-1.3-67.2-53-76.7-78.7-73A45 45 0 0 0 300 172c-1.6 2-3 2.5-12.7 5a110 110 0 0 0-29.8 11.2 63 63 0 0 0-8.6 6.2c-2 1.9-5.3 5.6-7.2 8.3a60.3 60.3 0 0 0-9.2 22.8 75 75 0 0 0-1.3 15c0 4.6.3 9.9.7 11.6.4 1.7.5 3.6.3 4.2 0 .3-.4.7-1 1.2 1.3 8 5.1 11.8 6.9 12.7-4.8 78.6 58.3 83.3 90.4 75.9 10.4 27.2 46 33.7 62.6 33.5-1-2.4-1.3-4-.9-5.1.4-1 1.4-2 2.3-2.3.9-.4 5.1-1.5 9.4-2.5 4.5-1 10.3-3 13.8-4.8a33 33 0 0 0 11.5-8.3 66 66 0 0 0 14-21.9c2-4.2 3.3-6.5 4.6-7.2Z"/>
    <path fill="#FEFFB9" d="M520.3 302.2c.8-.5 2-.7 2.6-.4.5.1 1.6 1.1 2.7 2.4 9-15.2 17-52.9-24-82.2 10.5-33.4 10.7-100.4-73-100.5l-7.8-9.5-2.5 1.3c-1.5.6-3.4 1.1-4.1 1.1-.8 0-4.2-1-7.6-2.4a83 83 0 0 0-11.5-3.6c-2.9-.6-8.3-1.3-12-1.5-4.6-.3-9 0-13.8.7a86.8 86.8 0 0 0-25.5 8.5 75.8 75.8 0 0 0-20 14.9c-1.9 2-5 6-7 8.6a169.7 169.7 0 0 0-12.6 24.4 40.5 40.5 0 0 1-4.2 8 45 45 0 0 1 35.5 21.5c25.7-3.7 77.4 5.8 78.7 73a67.4 67.4 0 0 1 36.1 60.7l10.2 3.5A43.6 43.6 0 0 0 496 329c3.5-1.7 6.7-4 9.8-7.2a75 75 0 0 0 8.9-11.6 46 46 0 0 1 5.5-8Z"/>
    <path fill="#C6FFB9" d="M505.1 88a105.5 105.5 0 0 0-18.4-2.6 98.8 98.8 0 0 0-38 9.4c-3.5 1.7-11.1 6.3-17 10.2-4 2.8-8.3 5.4-11 7l7.8 9.5c83.8.1 83.6 67 73 100.5 41 29.3 33.2 67 24.1 82.2l1.7 2a66.5 66.5 0 0 0 27.8 19c4 1.3 7 1.8 13.7 2 6.4.3 9.6.1 13.1-.7 2.5-.7 7.9-2.8 12-4.8 6.3-3.1 8.1-4.5 13.1-9.6 3.3-3.3 6.3-6 6.8-6 .3 0 1.5.7 3.1 1.6 12.4-43.8-8.7-75.7-20.8-86.2 17.2-60.9-19.5-94.2-40.1-103.2a50 50 0 0 1-4.1 1.1c-.4 0-5-4.2-10.4-9.4a108 108 0 0 0-15.1-13 86.1 86.1 0 0 0-21.2-9.2Z"/>
    <path fill="#CEF0FF" d="M580.9 111.2a196.6 196.6 0 0 0-24.9 7c20.6 9.1 57.3 42.4 40 103.3 12.2 10.5 33.3 42.4 21 86.2l2.9 2a56.8 56.8 0 0 0 17.7 7.6 52.7 52.7 0 0 0 21.8 0c2.7-.7 6.8-2.2 9.3-3.4a39.4 39.4 0 0 0 18.6-23.7 12 12 0 0 1 1.2-3.8c.4-.5 1.2-.9 1.7-.9s1.4.5 2 1.2c.7.7 1.1 2.3 1.1 4.4a48.8 48.8 0 0 0-8.7-39.1c6.3-10.3 13.4-38.2-9.1-67.5a70 70 0 0 1-10-3.9c-1.1-1-1.3-2.5-1.3-11.8 0-8.5-.3-12-1.4-16.4-.8-3.1-2.4-7.6-3.5-10a51.7 51.7 0 0 0-14-16.6c-2.5-2-6.5-4.6-9-6a93.8 93.8 0 0 0-24.8-8.7 108.8 108.8 0 0 0-30.6 0Z"/>
    <path fill="#CEBDFE" d="M695.7 191.9a282.7 282.7 0 0 0-20.2-7.4c22.5 29.3 15.4 57.2 9 67.5a48.8 48.8 0 0 1 8.8 39.1 19 19 0 0 1-2.1 7.9c-1.8 3.7-2 4.9-1.5 6.4a69 69 0 0 1 1.8 6.1A209.1 209.1 0 0 1 696 345c.2 5.2.6 9.4.8 9.4a51.2 51.2 0 0 0 17.4-17.2c1-2 2.4-5.8 3-8.3 1-3.7 1-6.8.8-15a79.6 79.6 0 0 0-3.7-22.7c-.2-.7 1.8-4.5 5.4-10a166 166 0 0 0 8.5-14.5 51.8 51.8 0 0 0 5.6-22.3 59.6 59.6 0 0 0-5.3-22.4 54.2 54.2 0 0 0-22.5-25 97.7 97.7 0 0 0-10.2-5Z"/>
    <path fill="#fff" fill-rule="evenodd" d="M536.8 323.5a78.8 78.8 0 0 0 20.1 9 62 62 0 0 0 25.9.4c2.6-.7 6.7-2 9.2-3a52.6 52.6 0 0 0 18.2-12l3.8-4 3 2a39.6 39.6 0 0 0 15.1 7c5.3 1.7 7.6 2 15.5 2 7.6 0 10.2-.2 14.8-1.6a46.3 46.3 0 0 0 17-8.8l3.3-2.8.6 1.7a220 220 0 0 1 4.4 22.6c.5 3.7 1 12.3 1 19.1 0 6.9-.5 16.6-1 21.7-.5 5-1.1 9.6-1.4 10-.3.7-3 0-9.6-2.1-5.1-1.7-11.3-4-13.9-5.2-2.5-1.2-5.6-3-6.8-3.9-1.3-1-3.6-3.4-5.2-5.5-2.5-3-3.3-3.7-4.9-3.5a4 4 0 0 0-2.9 2c-.9 1.7-.9 2.3-.1 4.2a26 26 0 0 0 4.2 5.7c1.8 1.8 4 3.9 5 4.5 1.5 1 1.5 1 .4 5.2a47.3 47.3 0 0 0 0 19.7c.7 2.3 2.2 6.2 3.4 8.6a42 42 0 0 0 7.2 9.3c3.1 3.2 6.7 6 9.5 7.3a38.7 38.7 0 0 0 16.6 4.4h4l5.3 14a215.7 215.7 0 0 1 13.3 46.7 97.5 97.5 0 0 1-3.2 39.3c-1 3.7-3 9.7-4.3 13.2a144.7 144.7 0 0 1-12.6 23.8c-2 3-6.8 8.6-10.7 12.7a212.8 212.8 0 0 1-25.4 21.8 122.6 122.6 0 0 1-56.7 21.3 227.7 227.7 0 0 1-44.4.3 138.4 138.4 0 0 1-26.8-5.8 103.4 103.4 0 0 1-26.1-13.5 84 84 0 0 1-17.3-18 53.5 53.5 0 0 1-7.6-18.4c-.4-2.8-.6-6.8-.3-9.5.3-2.6 2.3-11.6 4.5-20l4-15.3v-11.3c0-9-.2-12.4-1.2-16a76 76 0 0 0-4-9.9c-1.8-3.7-4-6.8-7.5-10.4a28.6 28.6 0 0 0-9-6.7c-3.6-1.5-4.1-2-4.1-3.7a22.8 22.8 0 0 1 4-12.4c1.2-1.9 2.3-3.8 2.3-4.3 0-.7.7-.8 2.7-.4 1.5.3 6.3.6 10.8.5 6.5 0 9-.4 12.3-1.6a41.6 41.6 0 0 0 17.3-12.1c1.7-2.2 4.1-6 5.3-8.3 1.2-2.5 2.6-6.9 3.2-10.6 1-5.6 1-7 0-12.7-.8-4.6-1.9-8-4-12l-2.8-5.7 1.8-2a28.8 28.8 0 0 0 4.8-9.4 4 4 0 0 0-.6-3.7c-.9-1.4-1.7-1.7-3.4-1.5-2 .1-2.5.7-4.6 4.7a35.2 35.2 0 0 1-4.6 7 81.9 81.9 0 0 1-9.8 7.4 475 475 0 0 1-34.4 18.4 262 262 0 0 0-28.4 15.3c-1 1.3-1.2 2-.6 3 .4.5 1.2 1.4 1.9 1.8.8.5 2 .5 3.8 0l4-1.3c.9-.4 1.5.3 3 3 1 2 3.6 5.7 6 8.1l4.1 4.5-5 1.5c-2.9 1-7 2.8-9.4 4.4a57.4 57.4 0 0 0-8.7 7.5l-4.4 4.7-6.2-2.8a82.4 82.4 0 0 1-21.8-14.6 55 55 0 0 1-5.9-6.8l-1.8-2.8 4-5.1c2.1-2.9 4.7-7 5.6-9.1 1-2.1 2.3-5.7 2.9-7.8a45.3 45.3 0 0 0 1.2-20 82.5 82.5 0 0 0-5.3-17.7c-.4-.9.9-1.5 6.8-3.1a72.7 72.7 0 0 0 22.2-10.4 61.2 61.2 0 0 0 17.6-23.1l4.2-8.6 4.8 2a73.6 73.6 0 0 0 18.7 4.7 48.3 48.3 0 0 0 20-3c2.6-.9 6.6-2.7 8.8-4a56.3 56.3 0 0 0 17.2-17.8l3.2-5.4 5.3 5.2c3 2.8 7.2 6.4 9.6 7.8Zm39.8 71.6a53 53 0 0 1 9.6-3.4 63.2 63.2 0 0 1 21.5 0 52.4 52.4 0 0 1 17.1 7.4 57 57 0 0 1 6.8 5.9 55.6 55.6 0 0 1 11.3 18.2c.9 2.5 1.9 7.2 2.3 10.4.6 4.8.5 7.2-.4 12.9a44 44 0 0 1-4.5 13.7 37.9 37.9 0 0 1-9 12.5 60.8 60.8 0 0 1-9.8 8c-2.3 1.3-4.1 2.7-4.1 3.2l1.3 7.9a243 243 0 0 1 2.3 14.1l.8 7 5.3-.5a78.8 78.8 0 0 0 19.4-4.5 131 131 0 0 0 10.1-5c3.4-2 6.8-3.6 7.5-3.6.7 0 1.7.3 2.1.8.5.5.9 1.4.9 2 0 .7-1.4 2.5-3 4a58.2 58.2 0 0 1-6.7 5c-2 1.3-4.5 3.7-5.7 5.4a56.8 56.8 0 0 0-3.7 6c-.9 1.7-1.5 4.3-1.5 6.2 0 3.3 0 3.3 1.6 2.2.8-.6 2.2-1.1 3-1.1a4 4 0 0 1 2.3.8c.5.5.9 1.6.9 2.5 0 1-1.3 2.7-3.6 4.7a67.7 67.7 0 0 1-19.6 11.8 96.8 96.8 0 0 1-22.8 5.8 79.7 79.7 0 0 1-24.8-1.1 75 75 0 0 1-22.2-9.7 51.1 51.1 0 0 1-17.3-18.5 45 45 0 0 1-3.3-8.9c-.5-2.2-.7-6-.5-8.5a24 24 0 0 1 1.7-7 14 14 0 0 1 3.2-4.1 8 8 0 0 1 5-1.4c2.5 0 5.7 1.3 14.1 5.5 6 3 13.8 6.2 17.3 7.2a130.9 130.9 0 0 0 26.8 4.3c4.4.2 7.7.2 7.7-.2a513.4 513.4 0 0 0-4.6-27.7s-2 .3-4.3.9a52.6 52.6 0 0 1-20.5-.1c-2.8-.7-7.8-2.5-11.1-4.1a39 39 0 0 1-12.2-9c-5-5-6.6-7.1-9.4-12.8a43 43 0 0 1-4.4-13.7c-1-6-1-8-.3-13.2a50 50 0 0 1 27.4-38.2Z" clip-rule="evenodd"/>
    <path fill="#FFACAC" d="M607.1 398.8a54 54 0 0 1 8.8 3.4 47.5 47.5 0 0 1 16.6 15.5 50 50 0 0 1 4.2 9.5c1.1 3.6 1.6 6.8 1.6 11.7 0 5-.5 8-1.6 11.7-.8 2.8-2.7 7-4.2 9.5a49.2 49.2 0 0 1-16.7 15.6 51.8 51.8 0 0 1-9.1 3.3 50.2 50.2 0 0 1-19.1 0 40 40 0 0 1-19.3-11 38.4 38.4 0 0 1-11.7-21.6 37.1 37.1 0 0 1 1.2-19.8 43.9 43.9 0 0 1 10.1-16.6c2-2.1 5.6-5 8-6.4a40.2 40.2 0 0 1 21-5.8c3.3 0 7.9.4 10.2 1Z"/>
    <path fill="#fff" fill-rule="evenodd" d="M560 508.7a105.5 105.5 0 0 0 43.8 11.9c7 .5 12.1.5 18.3 0a147.3 147.3 0 0 0 19.1-2.7c.1 0-.3 1.3-1 2.6a7 7 0 0 1-4 3.5c-1.6.6-3.7 1.7-4.8 2.4-1.2.8-2 2-2 3 0 .9.5 2 1.1 2.5.7.6 2.2.8 4.6.4l3.6-.4v2.5c0 2.4-.2 2.6-5.2 5a95.8 95.8 0 0 1-10 4.3 79 79 0 0 1-39.8 2.4 73 73 0 0 1-10.1-3.5 50.6 50.6 0 0 1-15.1-10.3l-2.5-2.6 3.6 1.4a60 60 0 0 0 16.8 3.4 3 3 0 0 0 2.4-2.4c.3-1.4 0-2.1-1.2-3.1-.8-.8-2-1.3-2.5-1.3s-3.7-.9-7-1.8c-3.5-1-9.3-3.3-12.9-5.1l-6.6-3.3-.5-3.1a23.8 23.8 0 0 1 .8-9.6c.2-.3.8-.6 1.4-.6.5 0 4.9 2 9.7 4.5Zm26.1 24.3c0-.8.4-1.9.9-2.4.5-.4 1.6-.8 2.6-.8s2.3.5 3 1.2c.8.6 1.3 1.5 1.3 2s-.5 1.4-1 2a5 5 0 0 1-3.1 1.2c-1 0-2.3-.4-2.8-.9-.5-.4-.9-1.5-.9-2.3Z" clip-rule="evenodd"/>
    <path fill="#fff" d="M678 393.6a1033.2 1033.2 0 0 0 44.1 11.2c.2 0 .4.7.4 1.5 0 .9-1 3.7-2.3 6.2a33.3 33.3 0 0 1-43 15 38.4 38.4 0 0 1-8.8-6.1 32 32 0 0 1-6.8-9.4 22 22 0 0 1-3-12c0-3.8.2-8.2.6-9.8l.8-3 5.5 2.2c3 1.2 8.7 3 12.6 4.2Zm-170.7 8.6a41 41 0 0 1 3 9.5c.6 3.8.6 6.2 0 9.9-.6 2.7-2 7-3.2 9.5-1.3 2.6-4 6.2-6 8.4a33.3 33.3 0 0 1-37 6.5 38.9 38.9 0 0 1-8.3-5.8 34.5 34.5 0 0 1-8.1-11.4c0-.3 9-5 19.9-10.5 11-5.4 22-11.2 24.7-12.7l8.3-5.3c2-1.4 3.8-2.5 4-2.5.3 0 1.5 2 2.7 4.4Z"/>
    <path fill="#CEF0FF" d="M454.8 457.8c-.8 1-2 3.6-2.5 5.6-.6 2-1.4 9-1.7 16a76 76 0 0 1-1.8 16c-.7 1.9-1.9 4.5-2.6 5.7-.8 1.3-2.5 2.8-3.8 3.4-1.3.6-3.7 1.1-5.3 1.1-2.2 0-3.4-.5-5.5-2.3a17.6 17.6 0 0 1-3.8-5.1c-.7-1.6-1.5-4.5-1.7-6.4a34.5 34.5 0 0 1 3.6-17.3 38.3 38.3 0 0 1 25-18.5h1.6l-1.5 1.8Z"/>
    <path fill="#C6FFB9" d="M386 447.5c1.3 2 4.5 5.5 7.1 7.7a115 115 0 0 0 9 7 115.2 115.2 0 0 0 19 10c.2.4-.3 2.6-1 4.8a36.8 36.8 0 0 0-1.5 18c.4 2.5 1.6 6 2.5 8a27 27 0 0 0 4.1 5.7 22 22 0 0 0 5 3.6c1.6.7 4 1.5 5.4 1.7 1.5.2 4.4-.2 6.5-.8 2-.6 5-2 6.3-3 1.3-1 3.3-3 4.4-4.6a40.2 40.2 0 0 0 5.8-17.2l.8-6.2 3.5 2.7a36 36 0 0 1 11 15.5 67 67 0 0 1 2.8 10.8c.9 5.6 1 7.9.3 13.9-.5 4-2.2 12-3.8 17.8-1.6 5.9-3.4 13-4 15.9a50.8 50.8 0 0 0 4 32.2 80 80 0 0 0 5.4 8.7 92.2 92.2 0 0 0 39.9 29.8 139.5 139.5 0 0 0 28.6 7.3c6.3 1 12.4 1.2 26.6 1.2a230.4 230.4 0 0 0 30-1.5 39 39 0 0 1-7.4 2.5 263.1 263.1 0 0 1-33 7c-6 .8-13.6 1.2-23.7 1.2a167.3 167.3 0 0 1-39.7-4.3c-4.3-1-11.5-3-16-4.6a190.3 190.3 0 0 1-36.7-18.2c-4.6-3.1-11.4-8.2-15.1-11.3a210.5 210.5 0 0 1-36.8-41.2 339.3 339.3 0 0 1-20.3-33l-4-7.5 1.8-3.9c1-2.2 2.3-6.1 2.8-8.8.6-2.7 1.2-8.3 1.4-12.6a34 34 0 0 1 2.1-12c1-2.4 2.1-7 2.6-10.2.7-4.5.7-7.3 0-12.5a90.4 90.4 0 0 0-4.6-19.1c-.4-1 .1-1.5 2.2-2.6 1.5-.8 3-1.5 3.4-1.5.4 0 1.9 1.7 3.2 3.6Z"/>
    <path fill="#BDFEE9" d="m321.3 986.8-5.7 8 277.6-.3a274 274 0 0 0 19.4-39.4 274.6 274.6 0 0 0 14.7-55 232 232 0 0 0 1.8-17l.4-7.2-1.7 3.6c-1 2-3.1 5.4-4.9 7.8-1.8 2.5-5 5.5-7.3 7a34.7 34.7 0 0 1-7.3 3.7c-1.8.5-5 1-7.3 1-2.4 0-6-.7-9-1.7-2.7-.9-9.6-4.5-15.5-8-5.8-3.4-12.5-7-14.8-8a42.1 42.1 0 0 0-13.5-2.3 1636.7 1636.7 0 0 0-46.8-2.5c-5.9-.2-9 0-10.6.6a130.8 130.8 0 0 0-20.5 11.5c-4.6 3-10.3 6.3-12.8 7.4a23 23 0 0 1-10.5 1.9c-5.4 0-6.6-.2-10.9-2.3a31 31 0 0 1-8.6-6.1c-2-2.2-4.7-5.6-6-7.7a28.4 28.4 0 0 1-4.3-17.6c.4-5.5.7-7 3-11.6a35 35 0 0 1 5.2-7.8l2.6-2.5-4.1-4.8c-2.3-2.6-5-6.8-6.1-9.2a41 41 0 0 1-2.7-8.6 40 40 0 0 1 1.6-17.9c.6-1.6 2-4.3 3-5.8a26.7 26.7 0 0 1 10.1-8.6c1.8-.8 5-1.6 7.2-1.8a33 33 0 0 1 8 .5c2.2.4 6 1.8 8.3 3a42 42 0 0 1 7.8 5.2c1.9 1.7 5.8 6 8.6 9.6a60 60 0 0 0 8.2 8.4c2.8 1.8 4.2 2 21.4 4 16.4 1.9 20.6 2 40.7 2.1h22.4l4-3a51 51 0 0 0 9-9.6 93 93 0 0 1 9.4-10.8c2.5-2.3 6.1-4.9 8-5.7a31.7 31.7 0 0 1 15.6-3c2.5.2 5.7 1 7.5 1.9l3.1 1.6-.4-3.6a284.6 284.6 0 0 0-4.8-22.5c-1.2-5-1.2-5.8-.3-7.3.8-1.2 1.7-1.6 3-1.4 1.4.2 2.3 1 3.2 3a361.6 361.6 0 0 1 7.2 35 73 73 0 0 0 2.2 9.4 187.5 187.5 0 0 1 6.3 31.3c.6 4.5 1.3 12 1.6 16.9l.5 8.8 3.1-.5a82.3 82.3 0 0 0 17.8-5 172.8 172.8 0 0 0 27-13.5c3.4-2 8.8-5.9 12-8.5a128 128 0 0 0 11.2-10.4 36 36 0 0 0 5.3-6.7c0-.5-1.8-3.5-4-6.6a757.5 757.5 0 0 0-38.3-48.2L642 724.6a273.6 273.6 0 0 0-42.5-42 215 215 0 0 0-16.1-11.2l-11.4-7.1a327 327 0 0 0-16.1-9.2c-.2.1.5 1.8 1.5 3.8 1 2 2.7 6.5 3.7 10.1 1.6 5.3 1.8 7.5 1.6 12.4-.3 4.8-.8 6.7-2.6 10.4a36 36 0 0 1-4.2 6.6 50.4 50.4 0 0 1-38.9 15c-6.4 0-12.2-.5-14.5-1a121.2 121.2 0 0 1-35.6-15.5c-3.4-2.3-9.4-6.8-13.4-10A204.2 204.2 0 0 1 407 630c-2.6-5-3.8-6.5-4.6-6.2l-6.9 1.8a481.1 481.1 0 0 0-40 13.6 182.1 182.1 0 0 0-25.3 13.6 427.4 427.4 0 0 0-28.8 21.9A495.2 495.2 0 0 0 236 743a1349.2 1349.2 0 0 0-45.9 62.5c-.2.5 1.4 3.4 3.4 6.4 2 3 6.8 8.8 10.5 12.6a173.8 173.8 0 0 0 28 23c3.6 2.3 9.5 5.5 13.1 7.2 3.7 1.7 9.6 4 13.2 5.3 5 1.6 8.1 2.2 13.6 2.4l7 .3 2.4-5a858 858 0 0 1 19.3-33.1 1004 1004 0 0 1 24-38.4 897.6 897.6 0 0 1 29.1-38.8c.8-.7 2.2-1.2 3.1-1 1.4.2 1.7.6 1.6 2.8 0 2.1-1.4 4.6-6.4 12a1728 1728 0 0 1-7.2 10.6c-1 1.3-.9 1.3 2.8.3a42.3 42.3 0 0 1 15-.6c.7.3 1.2 1.2 1.2 2.1 0 1-.7 2.1-1.6 2.7a158.7 158.7 0 0 1-24 6.1 31 31 0 0 0-6.9 7.7c-3 4.2-6.6 9-7.7 10.8-1.2 1.8-4.8 7.7-8 13.2l-5.8 10 3 12a1685.5 1685.5 0 0 1 11.6 53.4c1.8 9.2 4.6 24.2 6.1 33.4 2.1 12 3 19.7 3.3 26.8.2 6.3 0 11.4-.5 14-.5 2.3-2.1 6.6-3.6 9.6-1.6 3-5.4 9-8.5 13.4Z"/>
    <path fill="#fff" d="M448.6 795.2a34 34 0 0 1 6.2 3.8c1.6 1.3 5.5 5.4 8.5 9.2 3.1 3.8 6.7 7.7 8 8.8 1.3 1 3.6 2.6 5.2 3.3a26 26 0 0 0 6 1.7l19.5 2a286 286 0 0 0 38.7 1.8H563l3.9-2c2-1 5.2-3.2 7-4.7 1.7-1.5 5.5-6 8.4-9.8 3-3.8 7-8.2 8.8-9.8a26.2 26.2 0 0 1 15-5.7c2.3 0 4.9.6 6.8 1.5 1.6.8 4 2.5 5.1 3.9a21 21 0 0 1 3.4 6.5c.8 2.5 1.3 6.3 1.3 9.8 0 4.8-.4 6.3-2.3 10.5a33.4 33.4 0 0 1-7.1 9.7 52.2 52.2 0 0 1-8.9 7c-2.3 1.3-4.4 3-4.9 3.8-.5 1-.5 2 0 3.1.6 1.3 1.4 1.7 3 1.7 1.3 0 4-1 6.2-2.2l3.8-2.2 2.8 2.7c1.6 1.5 3.9 4.8 5 7.3 1.9 3.7 2.3 5.3 2.3 9.5 0 4.3-.3 5.9-2.1 9.8-1.2 2.5-3.5 6-5 7.8-1.6 1.7-4.5 4-6.3 4.9a23 23 0 0 1-6.7 2c-1.8.2-5-.2-7.2-.8a142 142 0 0 1-16-8.3c-6.6-3.9-13.9-7.7-16.2-8.5a60 60 0 0 0-15.3-2.1c-6-.4-15.5-.8-21-1-5.4-.1-15.2-.7-21.6-1.2-11.5-.9-11.8-.9-17.3.8a71 71 0 0 0-17.8 9.4c-6.6 4.3-13.6 8.4-15.3 9.2a21 21 0 0 1-8.2 1.5c-4.1 0-5.5-.3-8.2-2-1.9-1-4.7-3.3-6.3-5a36.5 36.5 0 0 1-5-7.7 17 17 0 0 1-2.1-9c0-3.2.5-6.2 1.5-8.8a29 29 0 0 1 4.7-7.6l3.1-3.4 4 2c2.3 1.2 4.9 2.2 5.9 2.2s2.2-.4 2.6-.8a4 4 0 0 0 .9-2.5c0-.9-.7-2.1-1.6-2.7l-6.6-4.4a33.8 33.8 0 0 1-13.9-14.3c-1.5-3.1-2.3-6-2.6-9-.2-2.5-.1-6.2.1-8.4.3-2.4 1.4-5.3 2.8-7.7 1.7-2.9 3.2-4.2 6.2-5.8a12 12 0 0 1 8.5-1.7c2.5.1 6.1 1 8 1.8Z"/>
    <path fill="#FEFFB9" d="M821.3 626.4c4 .5 10.2 1.5 13.7 2.4a86.4 86.4 0 0 1 22.3 8.7c2.5 1.5 6.7 4.7 9.3 7.1a39 39 0 0 1 7 8.5 37 37 0 0 1 3 9 22 22 0 0 1 0 9.4 38 38 0 0 1-2.7 8.4c-1 2-3.1 5-4.7 6.7a34.2 34.2 0 0 1-6.5 5c-3 1.5-4.4 1.8-9.6 1.8-3.3 0-11.3-1-17.8-2-6.4-1-14.4-2-17.7-2.1a89 89 0 0 0-12 .3 75 75 0 0 0-24.6 8.1c-3 1.7-7.6 5-10.4 7.2a85.8 85.8 0 0 0-18.1 21.1 217.6 217.6 0 0 0-18.3 35.7c-2.1 5.5-5 14-6.4 18.7A305.6 305.6 0 0 0 721 810c0 .2-2.7-3.3-6.1-7.7l-17.4-22-11.3-13.9 1.5-11.6a212.4 212.4 0 0 1 9.2-43.5 146.2 146.2 0 0 1 15.6-33 119.5 119.5 0 0 1 47.2-39.9 139.4 139.4 0 0 1 40.1-12l9.8-.7c2.4 0 7.7.3 11.7.7ZM643.1 903.2c1.4 3.8 3.4 10.5 4.4 15a275.1 275.1 0 0 1 4.7 32.6c0 1.6-.5 3-1.3 3.7a165.7 165.7 0 0 1-31.7 15.8c-4.3 1.7-4.8 1.7-4.4.6l4.7-12a272.2 272.2 0 0 0 12-38.2 252.4 252.4 0 0 0 4.7-28.5l.5-3.5 2 3.9c1 2.1 3 7 4.4 10.6Z"/>
    <path fill="#CEBDFE" d="M162 992.9c.4 2 .4 2-3.5 2h109l-2.1-6c-1.2-3.1-5.6-16.2-9.7-28.9a767 767 0 0 1-10.1-32.6 72 72 0 0 1-2.9-19.2c-.2-7 0-11 .7-14.6a71.5 71.5 0 0 1 8.7-21l3-5.2-5.4-2.2c-3-1.2-8.1-3.6-11.5-5.2a146 146 0 0 1-22.7-14.7 192 192 0 0 1-15.9-14.4 147 147 0 0 0-9.3-9.2 372.7 372.7 0 0 0-12.4 26.2 291.7 291.7 0 0 0-11 33 308.3 308.3 0 0 0-5.8 32c-1 7.8-1.3 15-1.3 34 0 14.2.4 28.3.9 34 .5 5.6 1 11 1.3 12Zm499.8-14 .3 16h81.3c-3.2 0-3.9-.3-3.9-1.3l-1.4-14a740 740 0 0 0-15.2-83 802.8 802.8 0 0 0-14.6-49.3l-3.8-10.6c-.2-.2-3 1.6-6.1 4a174.6 174.6 0 0 1-23.9 14.4c-3.5 1.8-10.2 4.7-14.9 6.4a128.1 128.1 0 0 1-20.6 6c-.5 0-1 1.7-1.2 3.6-.4 3.2-.1 4 4 11.6 2.6 4.4 6 11.7 7.8 16a140 140 0 0 1 8.9 35.4c.8 5.5 1.7 14.2 2.2 19.4.4 5.1.9 16.5 1 25.4ZM436 622.5a197.1 197.1 0 0 0 41 22 183.4 183.4 0 0 0 43.7 9.5c4 .4 10.7.7 14.7.7 4.1 0 7.4.2 7.4.3 0 .2-.6 3.2-1.5 6.6a47.6 47.6 0 0 0-1.1 15.9 75 75 0 0 0 .8 10.8c.4.9 1.2 1.2 2.4 1.1 1.8-.2 1.9-.5 2.7-7a228.9 228.9 0 0 1 4.1-21.8l2.5 6.8c1.9 5.3 2.4 8 2.4 12.2 0 4-.4 6.2-1.5 8.7a29 29 0 0 1-5.3 7.1 39.7 39.7 0 0 1-18.7 9.8 51 51 0 0 1-12.7 1.4c-4 0-9.7-.5-12.6-1-2.9-.6-7.7-1.9-10.7-2.9a113 113 0 0 1-34-19.4 196.9 196.9 0 0 1-45-54.8 66.7 66.7 0 0 1-3-6.5 1986.4 1986.4 0 0 1 17.4-4c.4 0 3.6 2 7 4.6Z"/>
  </g>
  <defs>
    <linearGradient id="b" x1="497" x2="497" y1="0" y2="994" gradientUnits="userSpaceOnUse">
      <stop stop-color="#FFC0A5"/>
      <stop offset="1" stop-color="#FFF4AF"/>
    </linearGradient>
    <clipPath id="a">
      <path fill="#fff" d="M0 0h994v994H0z"/>
    </clipPath>
  </defs>
</svg>
