<svg xmlns="http://www.w3.org/2000/svg" fill="none" viewBox="0 0 994 994">
  <g clip-path="url(#a)">
    <path fill="#FEFFB9" d="M0 0h994v994H0z"/>
    <path fill="#000" fill-rule="evenodd" d="M476.3 181.4c-3.6.4-10.7 1.3-16 2.2-5.3.8-19.2 3.3-30.9 5.6a662.2 662.2 0 0 1-28 5c-3.8.5-19.4 1-34.8 1.4-18 .3-29 .8-30.7 1.3a13 13 0 0 0-4.8 3.4c-1.8 2-2.2 3-2.2 6a31.6 31.6 0 0 0 5.3 15.8c1.5 2.2 5.6 6.8 9.2 10.1l6.5 6-1.9 1.7c-1 1-4.4 3.2-7.5 5a785.6 785.6 0 0 0-30.7 20.5c-3.7 2.7-10.8 8.2-15.6 12.1a238 238 0 0 0-14.6 13 45.8 45.8 0 0 0-8.4 10.7 17 17 0 0 0-2.6 8.7c0 2.2.5 4.7 1.3 6.2s2.3 3.5 3.4 4.5a67 67 0 0 0 6.8 4.8 49 49 0 0 1 7.8 6.4 45.2 45.2 0 0 1 9 15c1.3 2.9 3.5 9.4 5.1 14.5a766.2 766.2 0 0 1 13.1 50.7s-1.5-.3-3.3-1a106.4 106.4 0 0 0-21.8-4.3c-4.4-.3-7.5 0-11 .7a59.4 59.4 0 0 0-19.9 9.8c-2.6 2-6.7 5.9-9 8.6a68.2 68.2 0 0 0-11.6 21.5c-1 3.1-2.1 8.4-2.6 11.7a91.6 91.6 0 0 0 5 42.3 103.2 103.2 0 0 0 13.2 22.4 144.6 144.6 0 0 0 20.2 19.2 73.8 73.8 0 0 0 20.6 10.6c6.2 2.1 7.4 2.3 16.3 2.4a41 41 0 0 0 14.9-1.6c2.9-1 6.9-2.5 8.9-3.5s5.4-3.1 7.8-4.7a64 64 0 0 0 8.3-7c2.3-2.4 4.3-4.2 4.4-4l1.8 3.4a314.6 314.6 0 0 0 30.4 47c3.9 4.8 9.5 11.3 12.4 14.5l5.5 5.8-1.4 3.4c-.7 2-1.7 3.7-2.2 4-.6.3-6 1.8-12.3 3.4a351.5 351.5 0 0 0-39.1 12.6 251.7 251.7 0 0 0-33.7 17.4 437 437 0 0 0-17 12.5l-20.2 16.2a344 344 0 0 0-35.8 35.4A481.2 481.2 0 0 0 199 773a832.6 832.6 0 0 0-26 45.5c-2.7 5-6.8 13.7-9.3 19.2a39 39 0 0 1-9 14.6 60.2 60.2 0 0 0-14.7 21.8l-2.5 6.3v28l-5 5.3c-3.6 3.7-6 7-7.9 10.8-2.6 5.3-2.7 5.8-2.7 12.3 0 6.3.2 7.2 2.7 13 1.8 4 2.6 6.8 2.4 7.8l-1.3 5a13 13 0 0 0 0 7.3 16 16 0 0 0 2.3 6 16 16 0 0 0 5.9 4.3c2.4 1.2 5 2 5.7 2 .8 0 1.9.4 2.4.7.6.4 1.2 2.8 1.6 5.9l.6 5.7c0 .3 1.5.6 3.2.6h3.1v-.6l-.4-4.5-.4-5.1 2.8.5a146.1 146.1 0 0 0 29.1.5 310 310 0 0 0 37.7-6.2 223 223 0 0 0 18-5c5.2-1.8 10-3.3 10.5-3.3.6 0 2.3 3.9 5 11.6l4.1 11.7 4 .2c2.2.1 4 0 4-.4 0-.3-2-6.6-4.6-13.9-4.1-12-4.4-13.3-3.4-14.1a33.1 33.1 0 0 0 9.3-11.2c1.7-3.4 2.3-5.5 2.3-8.3a26 26 0 0 0-2.1-9.1 30 30 0 0 1-2.2-8c0-1.5 1-5.9 2.3-9.8 1.5-4.7 2.2-8.6 2.3-11.7 0-3.5-.4-5.3-1.7-7.8-.9-1.7-2.7-4.5-4-6.1l-2.4-3 3-4.3c2.4-3.6 3-5 3.2-8.5.3-3.1 0-5-1.2-7.5l-1.4-3.4 8-8.6c4.4-4.7 10.6-11.8 13.9-15.6a27 27 0 0 1 6.4-6.4 2744.3 2744.3 0 0 1 19.2 96c1.5 8.6 1.5 9 .2 9.7-.7.4-3.2 2.6-5.7 5-3.6 3.6-4.6 5.2-5.6 8.6-1 3.6-1 4.9-.3 10 .4 3.2 1.4 7.8 2.1 10.2l1.4 4.3-4.2 6.6a91 91 0 0 0-4.2 7c0 .3 2 .4 4.4.4h4.4l3.5-5c3.3-4.8 3.4-5 3-8.6-.3-2-1.2-6.1-2-9a46 46 0 0 1-1.5-9.6c-.1-3.4.3-5 1.6-7a32 32 0 0 1 6.7-6.4c2.8-2.1 5.5-4.3 6-4.9.6-.8.5-3.2-.9-12a1141.7 1141.7 0 0 0-16.4-83.6c-2.2-9.2-4.1-17.8-4.3-19-.4-2.1.6-3.7 11.5-18.2l18.1-23.6 6.1-7.8H347c9.6 0 11.4-.2 12-1.2.4-.6.5-1.6.3-2.2-.3-.7-1.5-1.7-2.8-2.4a26 26 0 0 0-9-1.5l-6.5-.4v-9a308 308 0 0 0-3.9-45.6 353.8 353.8 0 0 0-8.6-42.8c-1.4-5-3.6-12.2-5-15.9-1.4-3.6-2.3-7-2.1-7.5.2-.5 3-2.4 6.1-4.3a200.3 200.3 0 0 1 35.2-15.5 384.9 384.9 0 0 1 38.2-10.3 160.7 160.7 0 0 0-1 19.2c0 6 .5 16 1.1 22.3a893.2 893.2 0 0 0 15 96.8c1 4.1 2.8 10 4 13.3 1 3.1 2.6 6.4 3.4 7.2a5 5 0 0 0 3.6 1.6c1.8 0 4.4-2 15.3-11.9 7.2-6.5 15.1-13.4 17.5-15.4a177.2 177.2 0 0 1 22.8-14.7 34.7 34.7 0 0 1 22.7-3.6c2.6.4 2.8.7 4.1 4.7a138.4 138.4 0 0 1 4.8 28.6 1363.6 1363.6 0 0 1 7.2 190.5 858.6 858.6 0 0 1-2.2 33.2c0 1.3.4 1.6 2.8 1.6h2.7l.5-3.8 1.3-17.5c.6-9 .9-30.8.9-61.5 0-29.2-.4-53.8-1-63.9a2763.6 2763.6 0 0 0-5-71c-.9-8.5-2-19.3-2.6-23.7a137 137 0 0 0-2-12c-.6-2.2-1-4.1-.7-4.4a27.5 27.5 0 0 1 12.2-1.8c1.4.3 4.8 1.6 7.5 3 2.6 1.3 7 3.9 9.5 5.7 2.6 1.9 6.8 5 9.3 7.1 4.5 3.7 4.5 3.7 2.5 4.2-1.1.2-3.4.9-5 1.5a20 20 0 0 0-5.2 2.8c-1.2 1-2.6 2.7-3.2 3.8a10 10 0 0 0-1 3.8c0 1 1 5.7 2.1 10.5l3.3 12.7a15 15 0 0 0 4 6.8c2.4 2.4 3.8 3.1 7.2 3.8 3.4.7 6 .7 12.4 0 4.5-.4 14-2 21.3-3.6l14.7-3.1c1.4-.3 1.7 0 2 3a184 184 0 0 0 3 12.6 306 306 0 0 1 3.7 18.1c.8 4.9 1.8 13.2 2.3 18.5.5 5.8.7 15.9.4 25.9a212 212 0 0 1-9.8 62 264.6 264.6 0 0 1-11.4 31 384.2 384.2 0 0 1-14.8 29c0 .3 1.7.5 3.8.5h3.8l3.7-6.8c3.5-6.3 4-6.8 6.7-7.5a237.7 237.7 0 0 0 27.7-11c2.7-1.4 5-2.4 5.2-2.2.1.1 0 1.1-.5 2.2a15.3 15.3 0 0 0 .7 11.1c.9 1.6 3.3 4.2 5.4 5.8 3.5 2.7 3.9 3.3 3.9 5.7v2.7h3.5c3 0 3.6-.2 3.6-1.4 0-1.3.1-1.3 4-.2 3.3 1 7.3 1.2 19 1.1 12.5 0 17-.3 27.4-1.9 6.8-1 15.7-2.6 19.7-3.6 4-.9 7.4-1.5 7.6-1.3.2.2.6 2 .8 3.8l.5 3.5h6.8l-.4-5-.4-4.8 2.4-.8a42.8 42.8 0 0 0 12-11.4c.5-1 .9-3.5.9-5.5 0-3-.6-5-2.7-9.2-1.8-3.6-2.5-6-2.3-7.3.2-1 1.3-4 2.4-6.5 1.2-3 2-6.2 2.2-9.3.3-3.9 0-5.4-1.2-8-.8-1.7-3.3-5-5.4-7.1a29 29 0 0 0-16.6-8.7c-3.8-.6-4-.6-4.5-3.4a695.8 695.8 0 0 0-10.8-39.7l-3.2-10.7 1.7-8.2c1-4.5 2.8-14 4-21.3 1.2-7.2 3.1-18 4.3-23.9 1.1-5.9 3-14 4.2-18.3a232.7 232.7 0 0 1 13.8-36.3c2.9-5.8 7.8-14.4 10.9-19.1a78 78 0 0 1 21-23c3-2 7.5-4.7 10-5.8a79 79 0 0 1 10.1-3.7 45 45 0 0 1 14.4-1.5c6.1 0 13 .6 22 2a105 105 0 0 0 19.3 1.7c5.1-.3 6.9-.7 10.8-2.6 3-1.5 5.9-3.7 8.2-6.2 2-2.2 4.6-6 5.8-8.5a39.3 39.3 0 0 0 3-21.3c-.6-3-1.9-7.5-3.1-10-1.2-2.6-4-6.6-6.5-9.3a61.4 61.4 0 0 0-17.2-12.5 99.3 99.3 0 0 0-45.8-9.3c-12.3 0-15.8.3-22 1.6A155.9 155.9 0 0 0 746 633a153.3 153.3 0 0 0-30.2 20.1c-3.2 3-8 7.7-10.5 10.5-2.5 2.9-6.6 8.3-9.1 12a145.7 145.7 0 0 0-20.5 50.4 275 275 0 0 0-5 31.5c-.5 5-1.1 9.3-1.3 9.4a52 52 0 0 1-5-7.4 391.3 391.3 0 0 0-52.2-64.8 341.5 341.5 0 0 0-22.8-21 194.2 194.2 0 0 0-25.5-17 32.8 32.8 0 0 1-6.4-4c0-.2 3-1 6.5-1.6a298.5 298.5 0 0 0 29.3-7.3c4.3-1.4 11-3.8 15-5.3a239.8 239.8 0 0 0 30.6-15.2 194.8 194.8 0 0 0 32.8-25.6l8.7-8.7 10.2 7c5.6 4 10.9 7.1 11.7 7.1a16.9 16.9 0 0 0 11.2-4.6c1.9-1.6 4-4.4 5-6.2.8-1.7 1.8-4.7 2.2-6.6.4-2 .4-4.9 0-6.7-.3-1.8-.8-3.7-1-4.4-.2-.6-1.6-2-3-3.2a88.2 88.2 0 0 0-9.8-5.9c-3.9-2-7.5-4-7.9-4.4-.6-.4-.2-2.2 1.5-6.5a140.2 140.2 0 0 0 6.8-24.8c.4-2.6 1-9.7 1.4-15.6a128.6 128.6 0 0 0-2.2-33.2c-.8-3.3-2.2-8.6-3.3-11.7-1.1-3.5-1.5-5.7-1-5.9A76 76 0 0 0 712 451c.8-1.7.8-2.5-.1-6.3l-1-4.3 3.1-3.3c1.8-1.7 4.5-5.6 6-8.5 1.6-3 3.7-7.5 4.7-10.2a25.5 25.5 0 0 0 .3-18c-1-2.8-2.7-5.3-5.1-7.7a25.7 25.7 0 0 0-7.6-5.3l-4-1.6 2.3-3.9c1.3-2.1 2.6-5.3 2.9-7 .2-1.7.2-4.6 0-6.5a28.3 28.3 0 0 0-16.2-19.7c-3.2-1.4-4.1-2.3-4.4-3.8l-1.6-8.1c-1-5.5-1.4-6.3-2.9-6.7-.9-.2-2.3-.2-3 0-1 .3-1.5-.1-1.8-1.5l-.8-4.7a161.5 161.5 0 0 0-35.3-74.5 219.7 219.7 0 0 0-27.4-27.4 161.6 161.6 0 0 0-37-21.9 401.7 401.7 0 0 0-50.7-15.3c-3.2-.7-9.7-1.6-14.6-2.3a273 273 0 0 0-41.5-1Zm27 5.7c5.4.4 13.2 1.2 17.3 1.8a265.8 265.8 0 0 1 32 7.2 325 325 0 0 1 14.9 5 249 249 0 0 1 35.5 17.6c3.3 2.2 9 6.4 12.5 9.2a206.3 206.3 0 0 1 28.8 30.2 286 286 0 0 1 9.4 13.4c1.8 3 3.3 5.8 3.3 6.3s-.7 2.2-1.5 3.7c-.8 1.6-3.2 4.2-5.4 6a80.3 80.3 0 0 1-21.5 11.4 156.2 156.2 0 0 1-26.3 6.4c-4.7.8-11.8 1.2-19.2 1.2a239.9 239.9 0 0 1-42.2-4.1l-18.8-3.6a92.7 92.7 0 0 0-23.1-2 108.4 108.4 0 0 0-46.6 8.8c-4 1.6-10.4 4.6-14.1 6.6a180.8 180.8 0 0 0-26.7 17.8 192 192 0 0 0-14 13.2 131.3 131.3 0 0 0-21.8 30.5 110.5 110.5 0 0 0-9 26c-.8 4.9-1 9-.8 17.4a45.5 45.5 0 0 0 7.8 28.2 59.6 59.6 0 0 0 18 17 108.4 108.4 0 0 0 23.4 11.2c3.1 1 10.6 2.9 16.7 4a113 113 0 0 1 14.3 3.6c2.7 1.2 3.3 1.8 3.9 4 .6 2.5.8 2.7 3.5 2.9 2.7.2 3 .5 5.8 4.6a52.5 52.5 0 0 1 7.3 20.7 49 49 0 0 1 0 12.1c-.4 3.4-1.8 9.9-3 14.4l-3.9 15.4a59.6 59.6 0 0 0-.5 26c.6 2.4 1.8 6 2.8 8.2a72.3 72.3 0 0 0 13 18.5 91 91 0 0 0 23.5 17.2 121 121 0 0 0 29.2 9.9c4 .8 11.5 1.8 16.5 2.3 5.8.5 14.9.7 24.9.4a235.4 235.4 0 0 0 29.3-2.3 357.3 357.3 0 0 1-23.6 7.1c-4 1-11.1 2.4-16 3.2a182 182 0 0 1-75.6-3.5 176.5 176.5 0 0 1-27.5-10.3 197 197 0 0 1-13.3-7.1c-3.7-2.3-10.4-6.9-14.9-10.2a198.7 198.7 0 0 1-32.3-31.7c-3.2-4-8-10.4-10.9-14.3a369.4 369.4 0 0 1-20.8-34l-3.6-7.1 1.8-4.6c1-2.5 2.2-6.5 2.7-8.9a96.8 96.8 0 0 0-.6-30.3c-.9-3.4-2.7-9.3-4.1-13.1a157.7 157.7 0 0 0-15.9-30.4c-2.7-4-8-10.5-12.3-15a62.5 62.5 0 0 1-7.6-8.8l-3.3-15.5a482.6 482.6 0 0 0-13.4-49.8c-1.5-4.1-4-10.3-5.8-13.7-2.1-4-4.7-7.7-7.3-10.3a51.2 51.2 0 0 0-10.1-7.5c-3.4-1.9-6.7-4-7.3-4.7a9.2 9.2 0 0 1 0-10.5c1-2 3.9-5.6 6.2-8 2.4-2.5 8.2-7.5 13-11.3a612.7 612.7 0 0 1 32.2-24c4.1-2.7 11.2-7.1 15.6-9.8 4.5-2.7 9.7-6.4 11.6-8.2 2.5-2.4 3.4-3.7 3.4-5.3a7 7 0 0 0-1.1-3.6c-.6-.9-3-3-5.6-4.8a41 41 0 0 1-16.4-22.3c-.4-2-.3-2.4 1.5-3.1 1.4-.6 12-1 33-1.3 26.6-.5 32-.7 39.3-2a704 704 0 0 0 27-5.7c10.2-2.4 22.1-5 26.6-5.8a169.6 169.6 0 0 1 25.6-2.7c2.5 0 9 .2 14.5.6Zm167.5 120.3c1.7 5.1 3.8 12.4 4.6 16.3 1.2 6.3 1.3 7.2.3 8.2-.6.6-2.4 3.2-4 5.7a87.3 87.3 0 0 1-3.4 5.2c-.3.3-1-1.7-1.4-4.4a16 16 0 0 0-1.8-5.8c-.6-.5-2.9-.5-7.2 0a23 23 0 0 0-7.1 1.7 53.5 53.5 0 0 0-8 14.6 5 5 0 0 1-1.5 3.3 30 30 0 0 0-4 6.3c-1.4 2.7-3 6.2-3.5 7.7-.8 2.4-.8 3.5.5 9.7 1 4.5 2 7.2 2.6 7.5.6.2 3.9 0 7.4-.5 5-.7 6.5-.7 7 0 .2.5.9 3.2 1.3 6l2.6 14a359.3 359.3 0 0 1 2.7 16.3c0 .2-.9.6-2 .8-1.6.2-2.8 1.3-4.8 4.2l-4.5 7.4c-1.7 3.2-1.8 3.7-1.1 7.4.4 2.2 1 5.7 1.2 7.8.3 2.7.9 4 2 4.8 1.2.8 2.5.8 6.5.3 2.7-.4 5.3-.6 5.7-.4.5.1 1 1.2 1.2 2.3l1.5 7.9a48 48 0 0 0 1.5 6.6c.3.3 1.5.6 2.7.6a45.8 45.8 0 0 0 11.5-2.2l3.4-4.3 3.1-4 1.3 2.8c.6 1.5 1.7 2.8 2.4 2.9l2.2.2c.7 0 2 2.5 3.5 7.1 1.2 4 3.3 12 4.5 17.8a84.1 84.1 0 0 1 2.2 19.9c0 5-.4 11.7-.9 14.9a133.2 133.2 0 0 1-9.6 32.8L670 545.6l-24.4-13.1a31 31 0 0 0-10-2.5 68.5 68.5 0 0 0-21 .6c-2.2.7-2.3.6-2.7-1.5l-.7-8.3a330.6 330.6 0 0 0-4.7-33.5 489.5 489.5 0 0 0-5.6-25.4c0-.9 1.2-1.8 4-2.8a56 56 0 0 0 16.3-11 28 28 0 0 0 3.9-5.8c.8-1.8 1.3-4.5 1.3-7.4a15.6 15.6 0 0 0-5.3-12.6c-1.4-1-3.6-2-5.1-2.1-1.5-.2-4 0-5.7.4-1.6.4-5.3 2.4-8.3 4.3-3 2-6.4 4-7.6 4.7-1.8 1-3.4 1-7.1.7-2.7-.2-7-.9-9.9-1.5-2.7-.6-8-1-11.5-1-4.9 0-7.3.3-9.4 1.3a16.8 16.8 0 0 0-8.1 8.1c-.4 1.1-.8 3.9-.8 6.1 0 3.4.4 4.7 2.2 7.4a22 22 0 0 0 5.5 5.3 37.8 37.8 0 0 0 17.1 5.5c3.8.6 10.4 1 14.8 1 4.5 0 8.2 0 8.4.2l2 7.3a411.6 411.6 0 0 1 8.2 46.2l1.8 14.3c.3 2.2 0 2.5-2.7 3.9a73.1 73.1 0 0 0-23.4 21.1 18 18 0 0 0-3.4 6.2c0 1.2.4 1.7 1.6 1.7 1 0 3.7-2.4 8.2-7.1 3.7-3.9 9.2-9 12.3-11.4 3.2-2.3 6.5-4.4 7.4-4.7 1.4-.3 6.5 2.9 28.2 17.9l32 22.1a29 29 0 0 1 5.5 4.4 190.8 190.8 0 0 1-19.5 18.1 137.3 137.3 0 0 1-26.4 17 98.8 98.8 0 0 1-13 5.4 157 157 0 0 1-50 7.1 173.6 173.6 0 0 1-36.3-3.7 126 126 0 0 1-12.4-3.5 105.8 105.8 0 0 1-32-18.9 70.6 70.6 0 0 1-12.4-15.4 56.5 56.5 0 0 1-4.3-10 33 33 0 0 1-1.9-11c0-2.9.4-7.2.8-9.5l3.3-13.2c1.3-4.8 3-11.2 3.5-14.2.8-3.3 1.2-8.7 1.2-14.5 0-7-.4-10.6-1.5-14.8-.8-3.1-2.9-8.3-4.6-11.5l-3-5.8 3.3-4.4 3.3-4.3 1.2 2.8c.7 1.5 1.8 2.8 2.4 3 .7.2 4 0 7.5-.4l6.2-.6 3.8-5.1a74 74 0 0 0 5-7c.8-1.7.8-2.7 0-6.4l-1-4.4 3-2.9c1.5-1.5 4-4.9 5.4-7.4a142 142 0 0 0 4.9-10.3 25 25 0 0 0 .8-19.3 25.7 25.7 0 0 0-12.7-13l-4-1.6 2.3-4c1.3-2 2.6-5.2 2.8-7 .3-1.7.3-4.6 0-6.4-.3-1.9-1.5-5.3-2.7-7.5a28.3 28.3 0 0 0-13.5-12.2c-3-1.5-4-2.3-4.3-3.8l-1.6-8.1c-.9-4.8-1.5-6.3-2.5-6.6-.7-.2-3.9 0-7 .4-3.2.5-6.1 1.2-6.5 1.7-.4.4-2 2.8-3.6 5.4a88.7 88.7 0 0 1-3.4 5.2c-.3.3-1-1.7-1.5-4.5-.5-2.7-1.3-5.3-1.7-5.7-.6-.5-2.9-.5-7.2 0a23 23 0 0 0-7.1 1.6c-.5.5-2.5 3.5-4.5 6.8s-3.6 6.8-3.6 7.9a5 5 0 0 1-1.5 3.3 30 30 0 0 0-4 6.3 94 94 0 0 0-3.4 7.7c-.9 2.4-.8 3.5.5 9.7 1 4.4 1.9 7.2 2.6 7.4.5.2 3.9 0 7.4-.4 5-.7 6.5-.7 7 0 .2.5.8 3.2 1.3 6a979 979 0 0 0 4.9 26.6c.3 2 .5 3.9.3 4-.2.3-1 .4-2 .4a4 4 0 0 0-2.6 1.3c-.6.7-2.7 4-4.8 7.2-3.1 5.2-3.6 6.4-3.2 8.6l1.1 7.8c.6 3.9 1.2 5.6 2.2 6.5 1 .8 1.2 1.3.5 1.3a129.5 129.5 0 0 1-17.7-4.6 101.1 101.1 0 0 1-23.4-12.4A50.5 50.5 0 0 1 378 438a53.6 53.6 0 0 1-5.5-21.2 61 61 0 0 1 .7-13 106.8 106.8 0 0 1 9-27.8 136.2 136.2 0 0 1 13.2-21 156.2 156.2 0 0 1 51-40.8 160 160 0 0 1 15-6.3 143 143 0 0 1 12.8-3.6c3.5-.8 10.2-1.8 14.8-2.3a71 71 0 0 1 16.2 0c4.3.5 14.5 2.1 22.5 3.6 8 1.6 17 3.1 20 3.5l12.6 1.5a251.5 251.5 0 0 0 39.2 0 169.8 169.8 0 0 0 25.4-5.4 94.8 94.8 0 0 0 24.5-11.2c3.2-2.1 7.1-5.3 8.7-7l2.8-3.1 3.4 7.1a169 169 0 0 1 6.5 16.4ZM687 343l1.8 8c.3.6 2.3 1.7 4.5 2.6 2.2.9 5 2.4 6 3.3 1.2 1 3.2 3 4.5 4.7a12 12 0 0 1 2.7 7.2c.2 2.5 0 5.3-.5 6.9-.5 1.4-2.5 4.4-4.4 6.5-1.9 2-3.5 4.2-3.5 4.7s.4 1.4 1 2c.4.6 3.2 1.8 6.1 2.7 3 1 6.7 2.6 8.3 3.8 1.6 1.1 3.8 3.6 4.8 5.5a14 14 0 0 1 1.8 8c0 3.7-.3 5-2 7.6-1 1.8-3.2 4-4.7 5a31.1 31.1 0 0 1-6.6 3.2c-3.8 1.2-3.8 1.2-3.5 3.8l2 11.5 1.8 9-3.5 4.7c-2.6 3.4-4 4.7-5.2 4.7-1.5 0-1.5-.2 1.3-4.2l2.9-4.2-2.2-10.8c-1.2-6-2.5-11.1-2.9-11.5a84 84 0 0 0-18.4 2.7 903.8 903.8 0 0 0 3.1 18l1 4.7-3.7 4.8c-2.2 2.9-4.2 4.8-5 4.8-1 0-.9-.5 1.2-3.1 1.8-2.2 2.6-3.8 2.6-5.5 0-1.4-.7-5-1.4-8.1a121 121 0 0 1-1.8-9.3c-.3-2-.9-4-1.4-4.7-.7-1-1.5-1.1-5.8-.6-2.7.4-5.8.7-6.8.7-1.2 0-2-.4-2.3-1.2a61 61 0 0 1-.8-3.5c-.4-2.2-.3-2.3 2.3-2.6l6.3-.9c2-.2 4-.7 4.6-1 .8-.5.7-2.2-1-11.1a8881.6 8881.6 0 0 1-9.1-47.8c-.6-1.6-.9-1.6-4.7-1.2-2.2.2-5.2.6-6.6.9l-2.6.4-.7-3.6a46 46 0 0 1-.6-3.6l6-1c3.3-.7 6.3-1.4 6.6-1.7.4-.4 0-4-.7-8.2l-1.3-7.5 2-.5c1.2-.2 2.3-.3 2.4-.1.2.2 1 3.7 1.9 8l1.5 7.6 3.6-.5 9.7-.8 6-.5-1.3-7.5c-1-6-1.1-7.5-.4-8a4 4 0 0 1 2.4-.5c1.2.2 1.6 1.3 2.7 7.3Zm-10 .4c.2 1.2.1 2.3 0 2.5-.2.2-1.3.3-2.4.3h-2l1.6-2.5a9.8 9.8 0 0 1 2-2.4c.3 0 .6 1 .8 2Zm-24.6 2 .6 3.1c.2 1-.4 1.3-2.2 1.7-1.3.2-2.6.3-2.9 0-.2-.2.4-1.9 1.3-3.6 1-1.8 2-3.2 2.2-3.2.3 0 .7.9 1 2ZM472.6 362a57 57 0 0 0 1.8 8c.2.5 2.3 1.7 4.5 2.6 2.2.9 5 2.4 6 3.3 1.2 1 3.2 3 4.4 4.7 1.9 2.4 2.4 3.9 2.7 7.2a18 18 0 0 1-.5 6.8c-.4 1.5-2.4 4.4-4.3 6.5-2 2.1-3.5 4.3-3.5 4.8s.4 1.4 1 2c.4.6 3.2 1.8 6.1 2.7 3 .9 6.7 2.6 8.3 3.7 1.6 1.2 3.8 3.7 4.8 5.5a14 14 0 0 1 1.8 8c0 3.8-.3 5-2 7.7-1 1.8-3.2 4-4.8 5a30 30 0 0 1-6.5 3.1c-3.8 1.3-3.8 1.3-3.5 3.8l2 11.6 1.8 9-3.5 4.7c-2.6 3.4-4 4.7-5.2 4.7-1.6 0-1.5-.2 1.3-4.2l2.9-4.2-2.2-10.8c-1.2-6-2.5-11.1-2.9-11.5-.5-.5-3.5-.3-9.4.8l-9 1.8c-.2.2.2 3.3 1 7l2 11.1 1 4.6-3.6 4.8c-2.2 3-4.2 4.8-5 4.8-1.1 0-1-.5 1.2-3 1.8-2.3 2.5-3.8 2.5-5.6 0-1.3-.6-5-1.3-8a121 121 0 0 1-1.8-9.3c-.3-2-.9-4-1.4-4.7-.7-1-1.5-1.1-5.8-.6-2.7.4-5.8.7-6.8.7-1.3 0-2-.4-2.3-1.2a61 61 0 0 1-.8-3.5c-.4-2.2-.3-2.3 2.3-2.7l6.3-.8c2-.2 4-.7 4.6-1 .8-.6.7-2.3-1-11.2a8881.6 8881.6 0 0 1-9.1-47.7c-.6-1.6-.9-1.7-4.7-1.2l-6.6.8-2.6.5-.7-3.6a46 46 0 0 1-.6-3.7l6-1a25 25 0 0 0 6.6-1.7c.4-.3 0-4-.7-8.1l-1.3-7.6 2-.4c1.2-.3 2.2-.3 2.4-.1.2.1 1 3.7 1.9 8l1.5 7.5 3.6-.4 9.7-.9 6-.4-1.3-7.5c-1-6.1-1.2-7.6-.4-8a4 4 0 0 1 2.4-.5c1.2.2 1.6 1.3 2.7 7.3Zm-10 .3v2.5c-.3.2-1.3.4-2.4.4h-2l1.6-2.5a7.5 7.5 0 0 1 2-2.5c.3 0 .6 1 .8 2.1Zm216-.2-.9.2-2 .4c-1 .2-1.8 1-2 1.7-.2.7.2 4.9 1 9.3.7 4.4 1.8 8.5 2.3 9 .9.9 1.8 1 5.6.2 2.5-.4 5.5-1.4 6.8-2.2 1.2-.7 3-2.7 3.7-4.4.8-1.7 1.5-3.8 1.5-4.6a11.4 11.4 0 0 0-11.5-10 24 24 0 0 0-4.5.4ZM438 364.4l.6 3.2c.2.9-.4 1.3-2.2 1.7-1.3.2-2.6.2-2.9 0-.2-.2.4-1.9 1.3-3.6 1-1.8 2-3.3 2.2-3.3.3 0 .7 1 1 2Zm204.2 1.2a10 10 0 0 1-1.3 5.5l-1.5 3-.5-2.8c-.4-2-.2-3.5.7-5.4.7-1.5 1.5-2.7 1.8-2.7.3 0 .6 1 .8 2.4Zm45 3.6c1.3 1.3 1.7 2.2 1.3 3.4-.3.8-.8 2-1.3 2.6a11 11 0 0 1-3.1 2c-1.3.5-2.6.7-3 .5-.3-.1-.7-1.7-1-3.3l-.9-4.6c-.2-1.1 0-1.6 1-1.9a14 14 0 0 1 3.2-.4c1.3 0 2.7.6 3.8 1.7Zm-29.3 5.5a10378.9 10378.9 0 0 0 8 42.6c.3.9 0 1.2-1 1.2s-1.5-.6-1.9-2.3l-1.8-9.7-3.1-17.4c-1.5-7.8-2.2-10.2-3.4-11.2-1.2-1-2.3-1.2-6.4-.8l-5 .5 2-3.5c1-2 2.3-3.9 2.6-4.3.4-.5 1.5-1 2.5-1.2l4.1-.4h2.2l1.2 6.5Zm-193.7 6.7-3 .6c-.8.2-1.7 1-2 1.6-.2.7.3 5 1 9.3.8 4.5 1.9 8.5 2.4 9 .9 1 1.8 1 5.6.3 2.5-.5 5.5-1.4 6.8-2.2a13.5 13.5 0 0 0 5.2-9.1 11.4 11.4 0 0 0-11.5-10c-1.7.1-3.7.3-4.5.5Zm-36.4 3.4a10 10 0 0 1-1.3 5.4l-1.5 3-.5-2.7c-.4-2-.2-3.5.7-5.5a9.4 9.4 0 0 1 1.7-2.7c.3 0 .7 1.1.9 2.5Zm45 3.6c1.3 1.3 1.6 2.2 1.3 3.3-.3 1-.9 2-1.3 2.6-.4.6-1.8 1.5-3.1 2s-2.6.8-3 .6c-.3-.2-.8-1.7-1-3.4l-.9-4.5c-.3-1.1 0-1.7 1-2 .6-.1 2.1-.3 3.2-.3 1.3 0 2.7.5 3.8 1.7Zm-29.3 5.5a10378.9 10378.9 0 0 0 8 42.6c.3.8 0 1.2-1 1.2s-1.5-.7-1.9-2.3l-1.8-9.8-3.1-17.4c-1.5-7.8-2.2-10.2-3.4-11.1-1.2-1-2.3-1.2-6.5-.8l-5 .4 2-3.4c1.1-2 2.3-3.9 2.7-4.4.3-.4 1.5-1 2.5-1.1 1-.2 2.9-.3 4.1-.4l2.2-.1 1.2 6.6Zm242.7 4.7c-2.8.3-5.5.8-5.9 1.3-.5.5-.4 3 .5 8.4.7 4.3 1.6 8.2 2 8.7.6.8 2.2 1 7.2.6 3.5-.3 7.6-.8 9-1.2 1.5-.4 3.7-1.7 5-2.7a6.8 6.8 0 0 0 2.4-5.1c.3-2.4 0-3.8-1-5.5-.9-1.2-2.5-2.7-3.7-3.4a20 20 0 0 0-6.2-1.3c-2.3-.2-6.4-.1-9.3.2Zm13.5 7.2c.7.9 1.2 2.1 1.1 2.7-.1.7-1.4 1.5-2.8 2s-4.4 1-6.8 1.3c-4 .5-4.2.4-4.7-1.2-.2-.9-.4-2.7-.4-4 0-2 .2-2.2 2.6-2.5 1.5-.2 4.3-.2 6.2-.1 2.7.1 3.8.5 4.8 1.8Zm-401.3 8c2.5.6 6.4 1.7 8.7 2.6a63.1 63.1 0 0 1 23 16.6c7 7.1 8.3 8.8 12.9 17.1a148.6 148.6 0 0 1 12.9 29.2c.7 2.7 2 7.3 2.6 10.2a53.4 53.4 0 0 1-.3 24 35.5 35.5 0 0 1-10.9 18.7 62.9 62.9 0 0 1-19 12.7 60.6 60.6 0 0 1-8.7 2.8 68 68 0 0 1-10.2.8 28 28 0 0 1-12.6-2.2 83.3 83.3 0 0 1-34.6-25.2 95.8 95.8 0 0 1-14.1-22.5 96.5 96.5 0 0 1-5.7-22.6 68 68 0 0 1 1.7-24.3l2.8-8.4a61 61 0 0 1 9.5-15.4 50.4 50.4 0 0 1 14.7-11.2c2-1 5.3-2.1 7.4-2.7a46.7 46.7 0 0 1 20-.1Zm173.4 4c-2.8.2-5.5.8-5.9 1.2-.5.5-.4 3 .5 8.5a45 45 0 0 0 2 8.7c.6.8 2.1.9 7.1.5 3.6-.2 7.7-.7 9.1-1.2 1.5-.4 3.7-1.6 5-2.7a6.8 6.8 0 0 0 2.4-5c.2-2.4 0-3.8-1.1-5.5-.8-1.3-2.4-2.8-3.6-3.4a20 20 0 0 0-6.2-1.4c-2.3-.1-6.4 0-9.3.3Zm13.5 7.1c.7 1 1.2 2.2 1.1 2.8-.1.6-1.4 1.5-2.8 2-1.4.4-4.5 1-6.8 1.3-4 .5-4.3.4-4.7-1.2-.2-1-.4-2.7-.4-4 0-2 .2-2.2 2.6-2.5 1.5-.2 4.3-.3 6.2-.2 2.6.2 3.8.6 4.8 1.8Zm131.7 1.8c1 .7 2.1 2 2.7 3.2.6 1.1 1 3.5 1 5.2 0 2.2-.5 4-2.1 6.4a27.4 27.4 0 0 1-4.8 5.3 56.5 56.5 0 0 1-15.4 8.3c-4.7 1.6-7 2-12.8 2a59.4 59.4 0 0 1-24.2-4.4c-2.8-1.3-5-3-6.4-4.7a8.5 8.5 0 0 1-2-5.4c0-1.6.6-3.5 1.4-4.7a15 15 0 0 1 11.3-5.2c2 0 7.3.7 11.8 1.5a53 53 0 0 0 12.1 1.2c2.4-.2 5.7-1.2 8.2-2.5a409 409 0 0 0 9-4.7c2.6-1.4 5.7-2.6 6.7-2.6 1.1 0 2.7.5 3.5 1.1Zm94 4.6c-.5.8-1 1.4-1.2 1.4-.2 0-.3-.6-.3-1.4 0-.8.5-1.4 1-1.4 1 0 1 .3.4 1.4Zm-56.2 5.7c.5.9 2 1 7.7.9 4-.1 7.3 0 7.5.3l.8 4.6c.2 2.2.7 5 1 6.3.5 1.4.8 3.2.8 4.2s-.8 2.7-1.8 3.9c-1 1.2-1.8 2-2 1.8-.2-.2-.8-3.2-1.5-6.7a26 26 0 0 0-1.8-7c-.4-.5-3-.5-7 0-3.3.4-6.3.6-6.4.5a37 37 0 0 1-1-4.9c-.7-4.3-.6-5 .6-7.3l1.3-2.5.6 2.4c.4 1.3.9 3 1.2 3.5Zm40.7 4.9 1.2 7.3-2.6 3.5c-2.3 3-2.7 3.3-3.2 2.1-.2-.7-.9-4-1.3-7.2-.7-4.5-1.2-5.9-2.1-6.1-.7-.2-1.5-1.3-1.7-2.5l-.4-3.1c0-.5 1-1 2.3-1.2 1.2-.2 3.2-.3 4.4-.3l2.1.1 1.3 7.4Zm-199 8.6c-.4.8-1 1.4-1 1.4-.3 0-.4-.6-.4-1.4 0-.8.5-1.4 1-1.4 1 0 1 .3.4 1.4Zm-56.1 5.7c.4.8 2 1 7.7.8 3.9 0 7.3 0 7.4.4.2.3.6 2.3.8 4.5a53 53 0 0 0 1.2 6.4c.4 1.3.6 3.2.6 4.2s-.8 2.7-1.7 3.9c-1 1.1-1.9 2-2 1.7-.2-.1-.8-3.1-1.5-6.6a26 26 0 0 0-1.8-7c-.5-.5-3-.5-7 0-3.4.3-6.3.6-6.4.5a37 37 0 0 1-1-5c-.7-4.2-.6-5 .6-7.2l1.3-2.5.6 2.4c.3 1.3.9 2.9 1.2 3.5ZM481 461l1.2 7.4-2.6 3.5c-2.3 3-2.8 3.3-3.2 2.1-.3-.7-.9-4-1.3-7.2-.7-4.5-1.2-6-2.1-6.2-.8-.2-1.5-1.2-1.7-2.5-.3-1.1-.5-2.5-.5-3 0-.6 1-1.1 2.3-1.3l4.5-.2h2.1l1.3 7.4Zm-211.6-.1a3 3 0 0 0 .3 2.3c.5.8 2.3 1.3 5.5 1.6 2.7.3 6.5.9 8.5 1.3a55.6 55.6 0 0 1 17.4 8.5c2.2 1.6 7.7 6.6 12.3 11.2a210 210 0 0 1 8.3 8.5 23.6 23.6 0 0 0-6.7 1.7 25.6 25.6 0 0 0-12.5 10.9 15 15 0 0 0-1.3 4.8c0 1 .1 2.4.4 3a2 2 0 0 0 1.7 1.1c.8 0 1.6-1 2.4-3.2.8-2 2.4-4 4.2-5.6 1.6-1.3 4.4-3.1 6.1-4 2.8-1.4 4-1.5 11.4-1.3 6.8.2 8.2 0 8.4-.8 0-.6-3-4.9-7-9.6-4-4.7-9.7-10.9-12.7-13.8a71.7 71.7 0 0 0-18-13.6c-2.2-1.1-6-2.5-8.5-3.1a67 67 0 0 0-12-1c-6.5 0-7.8.1-8.2 1Zm177.9 11.6.2 1.8-5.7-1c-3.1-.7-5.5-1.3-5.4-1.4a30.1 30.1 0 0 1 8.9-1.3c1.3 0 1.8.6 2 2ZM640.5 537c1 .7 4.8 2.9 8.4 4.8l6.6 3.4-3.2 3.4a30.4 30.4 0 0 0-4.4 5.9c-.7 1.6-1.5 2.4-2.1 2.2-.6-.3-7.4-4.8-15.1-10.2-7.8-5.3-14-9.8-13.9-10a57.7 57.7 0 0 1 23.7.5Zm44.6 24a468.5 468.5 0 0 1 20.8 11.6c0 .2-1 1-2.3 1.9-1.3.8-3.4 3-4.6 5-1.3 1.8-2.8 5-3.5 7-.6 2.2-1.4 3.8-1.6 3.7L673 575.9a290.2 290.2 0 0 1-20.4-14.7c0-.4.6-2 1.4-3.5.8-1.5 2.4-3.7 3.5-4.8a9.8 9.8 0 0 1 3.8-2.5l2.2-.4c.3 0 10 5 21.5 11Zm27.8 18.1c.5.5.9 1.9.9 3 0 1.3-.9 4-1.9 6-1 2-2.6 4.3-3.6 5-1 .9-2.9 1.5-4.1 1.5-1.4 0-2.5-.4-2.7-1-.2-.5-.2-2 .2-3.3l1-3.8a35 35 0 0 1 2.4-3.9 12 12 0 0 1 6.6-4.3c.2 0 .7.4 1.2.8Zm-299.3 33.7c.7.7 1.3 1.9 1.3 2.7 0 .8 1 3.4 2.2 5.7a439.8 439.8 0 0 0 48.2 70.6 422 422 0 0 0 21.4 23.2l13.3 13.6a38.3 38.3 0 0 0-12.6 2 75 75 0 0 0-12.2 5.6 176.2 176.2 0 0 0-33.8 25.6 270.6 270.6 0 0 1-13.9 11.7c-.2 0-1.3-2.4-2.3-5.5a191 191 0 0 1-6.7-27.8 1156.8 1156.8 0 0 1-9.4-64 234 234 0 0 1-1.7-31.2c0-15.1.2-19 1.3-24.1a61 61 0 0 1 2-7.6c.3-1 .8-1.6 1-1.6.3 0 1.1.5 1.9 1.1Zm36.4 24a169 169 0 0 0 18.8 8.1 210.5 210.5 0 0 0 31.2 7.6c4.1.6 13 1.3 19.8 1.5 9.2.4 12.2.7 12.2 1.4l-1 5.6c-.7 2.6-1.5 9.7-1.8 15.8-.4 6.6-1.2 13.6-2 17.2a132.2 132.2 0 0 1-5.7 17.2c-.3.3-3.5 0-7.1-.5-3.6-.6-10.6-1.2-15.6-1.5l-9-.5-6-6.5a439.3 439.3 0 0 1-23-26.3 444 444 0 0 1-23.4-33.2 295 295 0 0 1-8-13.5l-3.3-6.2 6.6 4.3c3.7 2.4 11.4 6.7 17.3 9.6Zm365.7-9.9a102 102 0 0 1 25 7.5 54.3 54.3 0 0 1 17.9 12.6 31 31 0 0 1 5 7.7 27.7 27.7 0 0 1 2.6 16.7 36 36 0 0 1-2.3 8 28.4 28.4 0 0 1-9.5 11.3c-1.4 1-3.8 2-5.4 2.6a27 27 0 0 1-7.1.8c-2.4 0-9.7-.9-16-2a121 121 0 0 0-23-1.9c-10.4 0-12 .2-17.8 2-3.5 1-8.7 3-11.5 4.3a80.2 80.2 0 0 0-21 16 165.2 165.2 0 0 0-19.6 29.2 236.9 236.9 0 0 0-18.8 51.5 1012 1012 0 0 0-9 49.8c0 .5-.2.8-.6.8-.3 0-2-4.2-4-9.4a533.5 533.5 0 0 0-20.2-46.6l-6.3-12.5 1.4-12.4a266.7 266.7 0 0 1 6-37.5 184.7 184.7 0 0 1 12.3-33.8 115.3 115.3 0 0 1 21.8-30.3 160.9 160.9 0 0 1 21.8-16.9 177.4 177.4 0 0 1 22.5-11.1 144.6 144.6 0 0 1 25.2-6.7 146.6 146.6 0 0 1 30.6.3Zm-263.9 32.2a233.7 233.7 0 0 1 11 27c1.3 4.1 3.4 11.5 4.7 16.3a645 645 0 0 1 9.8 58.9c-.2 0-4.6-3.6-9.8-8.2a370.2 370.2 0 0 0-16.7-13.5c-3.9-2.8-9.7-6.5-13-8.1-5-2.5-6.6-3-11.4-3.3l-5.6-.3 3.8-7.2a117 117 0 0 0 10.2-29.2c.8-3.9 1.7-11.5 2.1-17 .4-6 1.3-12 2.1-14.9.8-2.7 1.9-5.1 2.4-5.5a13 13 0 0 1 4.3-.5h3.3l2.8 5.5Zm-235.3 1c1 2 2.8 7.4 4.2 12a285.8 285.8 0 0 1 7.9 34.9 441.4 441.4 0 0 1 4.6 40.6c.4 6.3.7 14.5.7 18.4v7l-4.2 4.7c-2.3 2.6-9.8 12.2-16.8 21.4a733 733 0 0 1-33.3 41.9c-3.5 4-9.4 10.6-13 14.4a63.6 63.6 0 0 1-8.6 7.8 3.5 3.5 0 0 0-2 2.8c-.2 1 .6 3.5 1.9 6 1.2 2.1 2.2 4.8 2.2 5.9 0 1-1 3.3-2.1 5a65.5 65.5 0 0 1-4.4 5.9 15 15 0 0 1-6 4l-10.6 3.9a154.7 154.7 0 0 1-29.1 7.5c-4.3.7-11.5 1.9-16 2.5-4.9.7-16 1.3-27.4 1.5l-19.3.4-.5-7c-.3-3.7-.4-9.8-.2-13.3.3-4 1-8.3 2-11 .9-2.5 3.1-6.8 5-9.6a124 124 0 0 1 8.6-11c4.1-4.5 5.8-7 7.6-11.6 1.3-3.2 4.6-10.1 7.2-15.4a683.9 683.9 0 0 1 57-93.5c4-5.5 10.7-14 14.7-18.8A375.4 375.4 0 0 1 285 679a552 552 0 0 1 29.2-22.5c.4 0 1.4 1.7 2.3 3.7ZM574 672c5.2 3.5 13 9.2 17.2 12.6l7.8 6.3 1.6 7a216.6 216.6 0 0 1 4.8 50.6l-.4 3.7-2.4-1a41.8 41.8 0 0 0-19.2.2l-2-13a343.4 343.4 0 0 0-9.9-48 226.8 226.8 0 0 0-8.3-24.1c0-.3.3-.6.7-.6.3 0 4.9 2.9 10 6.3Zm51.2 46.2a398 398 0 0 1 26.7 35.1 265.2 265.2 0 0 1 23.5 39.9 500 500 0 0 1 13.4 29.4 638.1 638.1 0 0 1 16.4 47.6c2.3 7.6 5.8 20.5 7.9 28.5 2 8.1 3.5 15.2 3.3 15.7-.2.6-3.8 2-8 3.2-4.3 1.3-10.8 2.8-14.5 3.5-5.2.9-11.1 1.2-25.2 1.2-13.6 0-19.2-.2-21.1-.9-2.3-.8-2.8-1.3-3.4-3.9l-3.3-10.8c-1.3-4.3-4.2-11.3-6.3-15.6-2.1-4.3-5-9.8-6.4-12.4-2-3.7-2.5-5-2.1-7.1a332.5 332.5 0 0 0-2.2-39.1 208.8 208.8 0 0 0-5.6-27.6c-1-3.3-2.4-10.6-3.2-16.2a251 251 0 0 0-3-17 52.4 52.4 0 0 1-.5-19.1c.6-9.2.6-15 0-23.5a288.5 288.5 0 0 0-3.3-27.2c-.4-2.4-.3-2.4 5 3.2 3 3.1 8.4 9 12 13.1ZM510 716.8c3.4.5 6.6 1 7 1.4.7.4.3 1.5-1.6 4.4-1.5 2.2-3 4.3-3.6 4.8-.8.6-2.1-.2-6.6-4.1-3-2.7-6-5.4-6.5-6.1-.9-1-.7-1.2 2.1-1.2 1.7 0 5.8.4 9.2.8Zm91.5 41.6a367 367 0 0 1 4.4 19.2 58 58 0 0 1 1.2 9c-.2.4-3.3 1.3-7 2-3.7.6-10.5 2-15.2 3-5.1 1.1-12 2-17.2 2.3l-8.6.4-2-2c-1.7-1.7-2.5-3.8-4.4-12.2a73.3 73.3 0 0 1-2.1-12.4c.2-1.9.7-2.6 2.9-3.6 1.6-.8 5-1.5 8.2-1.7l5.4-.4 6.3 5.8a37 37 0 0 0 7.5 5.7c.7 0 1.9-.6 2.6-1.4 1-1.2 1.2-2.3.9-7.7l-.4-6.4 2.2-.3 8.4-.4c5.3 0 6.3 0 6.9 1.1ZM630 897.6c1.9 4.4 4.2 10.9 5.2 14.5 1 3.7 1.8 7.4 1.8 8.3 0 1-1.7 3.5-5 7a47.4 47.4 0 0 0-6.3 8.2c-.9 1.8-1.5 4.5-1.5 6.3 0 1.7.6 4.4 1.3 6 .7 1.5 2.5 4.4 4 6.3l3.4 4.4c.5.7-1.4 1.9-6.7 4.5a218.3 218.3 0 0 1-23.2 9.6c-.1-.2 1.4-4 3.4-8.8a302.4 302.4 0 0 0 13.8-43c1.4-6.3 3.1-16 3.8-21.5.7-6 1.6-10 2-9.9.4.1 2.2 3.8 4 8.1Zm-370 4.7a9.6 9.6 0 0 1 1.9 6 40 40 0 0 1-2.4 10 63.9 63.9 0 0 0-2.7 10.4c-.3 3 .1 4.6 2.2 10.2 1.4 3.6 2.6 7.2 2.6 8 0 .7-.5 2.5-1 4-.7 1.3-2.3 3.9-3.7 5.6a28.3 28.3 0 0 1-6.9 5.5c-2.4 1.3-7.5 3.5-11.3 5a188.6 188.6 0 0 1-33.1 8.6 176.9 176.9 0 0 1-35.6 3.9 109.5 109.5 0 0 1-28-3.9 23 23 0 0 1-7-3.1c-.7-.7-1.5-2.3-2-3.6-.6-1.7-.5-3 .5-6.3.6-2.3 1.1-5.2 1.1-6.6 0-1.4-1.2-5.2-2.6-8.4a43 43 0 0 1-3-9.3 17 17 0 0 1 .9-7.3c.6-2 2.6-5.7 4.2-8a49 49 0 0 1 4.8-5.8c1.6-1.4 2.5-1.5 22.2-1.9a268 268 0 0 0 66-8.4 102.4 102.4 0 0 0 23.1-8.4l4-2 2 1.4c1 .8 2.8 2.8 3.8 4.4Zm470.7 17.6a27.2 27.2 0 0 1 12.7 11c.9 2 1 3 .4 5.5a67 67 0 0 1-3.3 8.5c-1.4 3-2.5 6.4-2.5 7.5 0 1 1.3 4.4 2.8 7.3 1.8 3.4 2.9 6.4 2.9 8 0 2-.6 3-3 5.3a33 33 0 0 1-7.3 5c-2.5 1.1-7.8 3-11.8 4a270.9 270.9 0 0 1-38 6 98 98 0 0 1-30-2 29.5 29.5 0 0 1-12-7c-.8-1-1.6-2.8-1.6-3.8 0-1.1.5-3.3 1-5 .7-1.7 1.1-4.5 1.1-6.3 0-1.8-.6-4.6-1.3-6.3-.8-1.6-3-5-5-7.5a28.2 28.2 0 0 1-4-6.9c-.3-1.6 0-2.8 1.2-4.9 1-1.5 3.5-4.6 5.6-7l4-4.1 3.1 1c2.6 1 7.2 1.1 23.4 1.1 16 0 21.7-.2 27-1.2 3.7-.7 10.3-2.2 14.6-3.4a64.8 64.8 0 0 0 15.4-6.2l4.6 1.4Z" clip-rule="evenodd"/>
    <path fill="#fff" d="M503.2 187a265.8 265.8 0 0 1 49.4 9 325 325 0 0 1 14.9 5 249 249 0 0 1 35.5 17.7c3.3 2.2 9 6.4 12.5 9.2a206.3 206.3 0 0 1 28.8 30.2 286 286 0 0 1 9.4 13.4c1.8 3 3.3 5.8 3.3 6.3s-.7 2.2-1.5 3.7c-.8 1.6-3.2 4.2-5.4 6a80.3 80.3 0 0 1-21.5 11.4 156.2 156.2 0 0 1-26.3 6.4c-4.7.8-11.8 1.2-19.2 1.2a239.9 239.9 0 0 1-42.2-4.1l-18.8-3.6a92.7 92.7 0 0 0-23.1-2 108.4 108.4 0 0 0-46.6 8.8c-4 1.6-10.4 4.6-14.1 6.6a180.8 180.8 0 0 0-26.7 17.8 192 192 0 0 0-14 13.2 131.3 131.3 0 0 0-21.8 30.5 110.5 110.5 0 0 0-9 26c-.8 4.9-1 9-.8 17.4a45.5 45.5 0 0 0 7.8 28.2 59.6 59.6 0 0 0 18 17 108.4 108.4 0 0 0 23.4 11.2c3.1 1 10.6 2.9 16.7 4a113 113 0 0 1 14.3 3.6c2.7 1.2 3.3 1.8 3.9 4 .6 2.5.8 2.7 3.5 2.9 2.7.2 3 .5 5.8 4.6a52.5 52.5 0 0 1 7.3 20.7 49 49 0 0 1 0 12.1c-.4 3.4-1.8 9.9-3 14.4l-3.9 15.4a59.6 59.6 0 0 0-.5 26c.6 2.4 1.8 6 2.8 8.2a72.3 72.3 0 0 0 13 18.5 91 91 0 0 0 23.5 17.2 121 121 0 0 0 29.2 9.9c4 .8 11.5 1.8 16.5 2.3 5.8.5 14.9.7 24.9.4a235.4 235.4 0 0 0 29.3-2.3 357.3 357.3 0 0 1-23.6 7.1c-4 1-11.1 2.4-16 3.2a182 182 0 0 1-75.6-3.5 176.5 176.5 0 0 1-27.5-10.3 197 197 0 0 1-13.3-7.1c-3.7-2.3-10.4-6.9-14.9-10.2a198.7 198.7 0 0 1-32.3-31.7c-3.2-4-8-10.4-10.9-14.3a369.4 369.4 0 0 1-20.8-34l-3.6-7.1 1.8-4.6c1-2.5 2.2-6.5 2.7-8.9a96.8 96.8 0 0 0-.6-30.3c-.9-3.4-2.7-9.3-4.1-13.1a157.7 157.7 0 0 0-15.9-30.4c-2.7-4-8-10.5-12.3-15a62.5 62.5 0 0 1-7.6-8.8l-3.3-15.5a482.6 482.6 0 0 0-13.4-49.8c-1.5-4.1-4-10.3-5.8-13.7-2.1-4-4.7-7.7-7.3-10.3a51.2 51.2 0 0 0-10.1-7.5c-3.4-1.9-6.7-4-7.3-4.7a9.2 9.2 0 0 1 0-10.5c1-2 3.9-5.6 6.2-8 2.4-2.5 8.2-7.5 13-11.3a612.7 612.7 0 0 1 32.2-24c4.1-2.7 11.2-7.1 15.6-9.8 4.5-2.7 9.7-6.4 11.6-8.2 2.5-2.4 3.4-3.7 3.4-5.3a7 7 0 0 0-1.1-3.6c-.6-.9-3-3-5.6-4.8a41 41 0 0 1-16.4-22.3c-.4-2-.3-2.4 1.5-3.1 1.4-.6 12-1 33-1.3 26.6-.5 32-.7 39.3-2a704 704 0 0 0 27-5.7c10.2-2.4 22.1-5 26.6-5.8a169.6 169.6 0 0 1 25.6-2.7c2.5 0 9 .2 14.5.6Z"/>
    <path fill="#FFD7EC" d="M670.8 307.4c1.7 5.1 3.8 12.4 4.6 16.3 1.2 6.3 1.3 7.2.3 8.2-.6.6-2.4 3.2-4 5.7a87.3 87.3 0 0 1-3.4 5.2c-.3.3-1-1.7-1.4-4.4a16 16 0 0 0-1.8-5.8c-.6-.5-2.9-.5-7.2 0a23 23 0 0 0-7.1 1.7 53.5 53.5 0 0 0-8 14.6 5 5 0 0 1-1.5 3.3 30 30 0 0 0-4 6.3c-1.4 2.7-3 6.2-3.5 7.7-.8 2.4-.8 3.5.5 9.7 1 4.5 2 7.2 2.6 7.5.6.2 3.9 0 7.4-.5 5-.7 6.5-.7 7 0 .2.5.9 3.2 1.3 6l2.6 14a359.3 359.3 0 0 1 2.7 16.3c0 .2-.9.6-2 .8-1.6.2-2.8 1.3-4.8 4.2l-4.5 7.4c-1.7 3.2-1.8 3.7-1.1 7.4.4 2.2 1 5.7 1.2 7.8.3 2.7.9 4 2 4.8 1.2.8 2.5.8 6.5.3 2.7-.4 5.3-.6 5.7-.4.5.1 1 1.2 1.2 2.3l1.5 7.9a48 48 0 0 0 1.5 6.6c.3.3 1.5.6 2.7.6a45.8 45.8 0 0 0 11.5-2.2l3.4-4.3 3.1-4 1.3 2.8c.6 1.5 1.7 2.8 2.4 2.9l2.2.2c.7 0 2 2.5 3.5 7.1 1.2 4 3.3 12 4.5 17.8a84.1 84.1 0 0 1 2.2 19.9c0 5-.4 11.7-.9 14.9a133.2 133.2 0 0 1-9.6 32.8L670 545.6l-24.4-13.1a31 31 0 0 0-10-2.5 68.5 68.5 0 0 0-21 .6c-2.2.7-2.3.6-2.7-1.5l-.7-8.3a330.6 330.6 0 0 0-4.7-33.5 489.5 489.5 0 0 0-5.6-25.4c0-.9 1.2-1.8 4-2.8a56 56 0 0 0 16.3-11 28 28 0 0 0 3.9-5.8c.8-1.8 1.3-4.5 1.3-7.4a15.6 15.6 0 0 0-5.3-12.6c-1.4-1-3.6-2-5.1-2.1-1.5-.2-4 0-5.7.4-1.6.4-5.3 2.4-8.3 4.3-3 2-6.4 4-7.6 4.7-1.8 1-3.4 1-7.1.7-2.7-.2-7-.9-9.9-1.5-2.7-.6-8-1-11.5-1-4.9 0-7.3.3-9.4 1.3a16.8 16.8 0 0 0-8.1 8.1c-.4 1.1-.8 3.9-.8 6.1 0 3.4.4 4.7 2.2 7.4a22 22 0 0 0 5.5 5.3 37.8 37.8 0 0 0 17.1 5.5c3.8.6 10.4 1 14.8 1 4.5 0 8.2 0 8.4.2l2 7.3a411.6 411.6 0 0 1 8.2 46.2l1.8 14.3c.3 2.2 0 2.5-2.7 3.9a73.1 73.1 0 0 0-23.4 21.1 18 18 0 0 0-3.4 6.2c0 1.2.4 1.7 1.6 1.7 1 0 3.7-2.4 8.2-7.1 3.7-3.9 9.2-9 12.3-11.4 3.2-2.3 6.5-4.4 7.4-4.7 1.4-.3 6.5 2.9 28.2 17.9l32 22.1a29 29 0 0 1 5.5 4.4 190.8 190.8 0 0 1-19.5 18.1 137.3 137.3 0 0 1-26.4 17 98.8 98.8 0 0 1-13 5.4 157 157 0 0 1-50 7.1 173.6 173.6 0 0 1-36.3-3.7 126 126 0 0 1-12.4-3.5 105.8 105.8 0 0 1-32-18.9 70.6 70.6 0 0 1-12.4-15.4 56.5 56.5 0 0 1-4.3-10 33 33 0 0 1-1.9-11c0-2.9.4-7.2.8-9.5l3.3-13.2c1.3-4.8 3-11.2 3.5-14.2.8-3.3 1.2-8.7 1.2-14.5 0-7-.4-10.6-1.5-14.8-.8-3.1-2.9-8.3-4.6-11.5l-3-5.8 3.3-4.4 3.3-4.3 1.2 2.8c.7 1.5 1.8 2.8 2.4 3 .7.2 4 0 7.5-.4l6.2-.6 3.8-5.1a74 74 0 0 0 5-7c.8-1.7.8-2.7 0-6.4l-1-4.4 3-2.9c1.5-1.5 4-4.9 5.4-7.4a142 142 0 0 0 4.9-10.3 25 25 0 0 0 .8-19.3 25.7 25.7 0 0 0-12.7-13l-4-1.6 2.3-4c1.3-2 2.6-5.2 2.8-7 .3-1.7.3-4.6 0-6.4-.3-1.9-1.5-5.3-2.7-7.5a28.3 28.3 0 0 0-13.5-12.2c-3-1.5-4-2.3-4.3-3.8l-1.6-8.1c-.9-4.8-1.5-6.3-2.5-6.6-.7-.2-3.9 0-7 .4-3.2.5-6.1 1.2-6.5 1.7-.4.4-2 2.8-3.6 5.4a88.7 88.7 0 0 1-3.4 5.2c-.3.3-1-1.7-1.5-4.5-.5-2.7-1.3-5.3-1.7-5.7-.6-.5-2.9-.5-7.2 0a23 23 0 0 0-7.1 1.6c-.5.5-2.5 3.5-4.5 6.8s-3.6 6.8-3.6 7.9a5 5 0 0 1-1.5 3.3 30 30 0 0 0-4 6.3 94 94 0 0 0-3.4 7.7c-.9 2.4-.8 3.5.5 9.7 1 4.4 1.9 7.2 2.6 7.4.5.2 3.9 0 7.4-.4 5-.7 6.5-.7 7 0 .2.5.8 3.2 1.3 6a979 979 0 0 0 4.9 26.6c.3 2 .5 3.9.3 4-.2.3-1 .4-2 .4a4 4 0 0 0-2.6 1.3c-.6.7-2.7 4-4.8 7.2-3.1 5.2-3.6 6.4-3.2 8.6l1.1 7.8c.6 3.9 1.2 5.6 2.2 6.5 1 .8 1.2 1.3.5 1.3a129.5 129.5 0 0 1-17.7-4.6 101.1 101.1 0 0 1-23.4-12.4A50.5 50.5 0 0 1 378 438a53.6 53.6 0 0 1-5.5-21.2 61 61 0 0 1 .7-13 106.8 106.8 0 0 1 9-27.8 136.2 136.2 0 0 1 13.2-21 156.2 156.2 0 0 1 51-40.8 160 160 0 0 1 15-6.3 143 143 0 0 1 12.8-3.6c3.5-.8 10.2-1.8 14.8-2.3a71 71 0 0 1 16.2 0c4.3.5 14.5 2.1 22.5 3.6 8 1.6 17 3.1 20 3.5l12.6 1.5a251.5 251.5 0 0 0 39.2 0 169.8 169.8 0 0 0 25.4-5.4 94.8 94.8 0 0 0 24.5-11.2c3.2-2.1 7.1-5.3 8.7-7l2.8-3.1 3.4 7.1a169 169 0 0 1 6.5 16.4Z"/>
    <path fill="#FFD7EC" fill-rule="evenodd" d="M298.4 413.9c2.5.5 6.4 1.6 8.7 2.5a63.1 63.1 0 0 1 23 16.6c7 7.1 8.3 8.8 12.9 17.1a148.6 148.6 0 0 1 12.9 29.2c.7 2.7 2 7.3 2.6 10.2a53.4 53.4 0 0 1-.3 24 35.5 35.5 0 0 1-10.9 18.7 62.9 62.9 0 0 1-19 12.7 60.6 60.6 0 0 1-8.7 2.8 68 68 0 0 1-10.2.8 28 28 0 0 1-12.6-2.2 83.3 83.3 0 0 1-34.6-25.2 95.8 95.8 0 0 1-14.1-22.5 96.5 96.5 0 0 1-5.7-22.6 68 68 0 0 1 1.7-24.3l2.8-8.4a61 61 0 0 1 9.5-15.4 50.4 50.4 0 0 1 14.7-11.2c2-1 5.3-2.1 7.4-2.7a46.7 46.7 0 0 1 20-.1Zm-28.6 49.3a3 3 0 0 1-.3-2.3c.4-1 1.7-1.2 8.1-1.2 4.2 0 9.7.5 12.1 1a46.4 46.4 0 0 1 16.9 8.4c2.3 1.7 6.7 5.5 9.6 8.4 3 3 8.7 9.1 12.6 13.8 4 4.7 7.2 9 7 9.6-.1.9-1.5 1-8.3.8-7.4-.2-8.6 0-11.4 1.3-1.7.9-4.5 2.7-6 4a14.1 14.1 0 0 0-4.3 5.6c-.8 2.1-1.6 3.2-2.4 3.2a2 2 0 0 1-1.7-1.1c-.3-.6-.4-2-.4-3s.6-3.2 1.3-4.8a25.6 25.6 0 0 1 12.6-10.9 23.6 23.6 0 0 1 6.6-1.7c0-.2-3.7-4-8.3-8.5-4.6-4.6-10.1-9.6-12.3-11.2a58.4 58.4 0 0 0-17.4-8.5c-2-.4-5.8-1-8.5-1.3-3.2-.3-5-.8-5.5-1.6Z" clip-rule="evenodd"/>
    <path fill="#FEFFB9" fill-rule="evenodd" d="M472.6 362a56 56 0 0 0 1.8 8.1c.2.5 2.3 1.7 4.5 2.6 2.2.9 5 2.4 6 3.3 1.2 1 3.2 3 4.4 4.7 1.9 2.4 2.4 3.9 2.7 7.2a18 18 0 0 1-.5 6.8c-.4 1.5-2.4 4.4-4.3 6.5-2 2.1-3.5 4.3-3.5 4.8s.4 1.4 1 2c.4.6 3.2 1.8 6.1 2.7 3 .9 6.7 2.6 8.3 3.7 1.6 1.2 3.8 3.7 4.8 5.5a14 14 0 0 1 1.8 8c0 3.8-.3 5-2 7.7-1 1.8-3.2 4-4.8 5a30 30 0 0 1-6.5 3.1c-3.8 1.3-3.8 1.3-3.5 3.8l2 11.6 1.8 9-3.5 4.7c-2.6 3.4-4 4.7-5.2 4.7-1.6 0-1.5-.2 1.3-4.2l2.9-4.2-2.2-10.8c-1.2-6-2.5-11.1-2.9-11.5-.5-.5-3.5-.3-9.4.8l-9 1.8c-.2.2.2 3.3 1 7l2 11.1 1 4.6-3.6 4.8c-2.2 3-4.2 4.8-5 4.8-1.1 0-1-.5 1.2-3 1.8-2.3 2.5-3.8 2.5-5.6 0-1.3-.6-5-1.3-8a121 121 0 0 1-1.8-9.3c-.3-2-.9-4-1.4-4.7-.7-1-1.5-1.1-5.8-.6-2.7.4-5.8.7-6.8.7-1.3 0-2-.4-2.3-1.2a61 61 0 0 1-.8-3.5c-.4-2.2-.3-2.3 2.3-2.7l6.3-.8c2-.2 4-.7 4.6-1 .8-.6.7-2.3-1-11.2a8881.6 8881.6 0 0 1-9.1-47.7c-.6-1.6-.9-1.7-4.7-1.2l-6.6.8-2.6.5-.7-3.6a46 46 0 0 1-.6-3.7l6-1a25 25 0 0 0 6.6-1.7c.4-.3 0-4-.7-8.1l-1.3-7.6 2-.4c1.2-.3 2.2-.3 2.4-.1.2.1 1 3.7 1.9 8l1.5 7.5 3.6-.4 9.7-.9 6-.4-1.3-7.5c-1-6.1-1.2-7.6-.4-8a4 4 0 0 1 2.4-.5c1.2.2 1.6 1.3 2.7 7.3Zm-11.4 20 3-.6a24 24 0 0 1 4.5-.4c2 0 4.1.5 6 1.5a11.4 11.4 0 0 1 5.5 8.4 13.5 13.5 0 0 1-5.2 9.1c-1.3.8-4.3 1.7-6.8 2.2-3.8.7-4.7.6-5.6-.2a54.8 54.8 0 0 1-3.4-18.4c.3-.7 1.2-1.4 2-1.6Zm4.7 37c.4-.4 3-1 6-1.2 2.8-.3 7-.4 9.2-.3 2.2.2 5 .8 6.2 1.4 1.2.6 2.8 2.1 3.6 3.4 1 1.7 1.3 3 1 5.4a6.8 6.8 0 0 1-2.4 5.1 14 14 0 0 1-4.9 2.7c-1.4.5-5.5 1-9 1.2-5 .4-6.6.3-7.2-.5a45 45 0 0 1-2-8.7c-.9-5.4-1-8-.5-8.5ZM687 343l1.8 8c.3.5 2.3 1.6 4.5 2.5 2.2.9 5 2.4 6 3.3 1.2 1 3.2 3 4.5 4.7a12 12 0 0 1 2.7 7.2c.2 2.5 0 5.3-.5 6.9-.5 1.4-2.5 4.4-4.4 6.5-1.9 2-3.5 4.2-3.5 4.7s.4 1.4 1 2c.4.6 3.2 1.8 6.1 2.7 3 1 6.7 2.6 8.3 3.8 1.6 1.1 3.8 3.6 4.8 5.5a14 14 0 0 1 1.8 8c0 3.7-.3 5-2 7.6-1 1.8-3.2 4-4.7 5a31.1 31.1 0 0 1-6.6 3.2c-3.8 1.2-3.8 1.2-3.5 3.8l2 11.5 1.8 9-3.5 4.7c-2.6 3.4-4 4.7-5.2 4.7-1.5 0-1.5-.2 1.3-4.2l2.9-4.2-2.2-10.8c-1.2-6-2.5-11.1-2.9-11.5a84 84 0 0 0-18.4 2.7 903.8 903.8 0 0 0 3.1 18l1 4.7-3.7 4.8c-2.2 2.9-4.2 4.8-5 4.8-1 0-.9-.5 1.2-3.1 1.8-2.2 2.6-3.8 2.6-5.5 0-1.4-.7-5-1.4-8.1a121 121 0 0 1-1.8-9.3c-.3-2-.9-4-1.4-4.7-.7-1-1.5-1.1-5.8-.6-2.7.4-5.8.7-6.8.7-1.2 0-2-.4-2.3-1.2a61 61 0 0 1-.8-3.5c-.4-2.2-.3-2.3 2.3-2.6l6.3-.9c2-.2 4-.7 4.6-1 .8-.5.7-2.2-1-11.1a8881.6 8881.6 0 0 1-9.1-47.8c-.6-1.6-.9-1.6-4.7-1.2-2.2.2-5.2.6-6.6.9l-2.6.4-.7-3.6a46 46 0 0 1-.6-3.6l6-1c3.3-.7 6.3-1.4 6.6-1.7.4-.4 0-4-.7-8.2l-1.3-7.5 2-.5c1.2-.2 2.3-.3 2.4-.1.2.2 1 3.7 1.9 8l1.5 7.6 3.6-.5 9.7-.8 6-.5-1.3-7.5c-1-6-1.1-7.5-.4-8a4 4 0 0 1 2.4-.5c1.2.2 1.6 1.3 2.7 7.3Zm-9.3 19.4 1-.2c.7-.2 2.7-.3 4.4-.4 2 0 4.1.5 6 1.5a11.4 11.4 0 0 1 5.5 8.5c0 .8-.7 3-1.5 4.6-.8 1.7-2.5 3.7-3.7 4.4-1.3.8-4.3 1.8-6.8 2.2-3.8.7-4.7.7-5.6-.2a66.4 66.4 0 0 1-3.4-18.3 3 3 0 0 1 2-1.7c.6 0 1.4-.3 2.1-.4Zm2.6 37.5c.4-.5 3.1-1 6-1.3 2.8-.3 7-.4 9.2-.2 2.2.1 5 .7 6.2 1.3a13 13 0 0 1 3.6 3.4c1 1.7 1.4 3.1 1.1 5.5a6.8 6.8 0 0 1-2.5 5 14.7 14.7 0 0 1-4.8 2.8c-1.5.4-5.6 1-9.1 1.2-5 .3-6.6.2-7.2-.6-.4-.5-1.3-4.4-2-8.7-.9-5.4-1-8-.5-8.4Z" clip-rule="evenodd"/>
    <path fill="#FF9FAB" d="M617 426.7c1 .7 2.1 2 2.7 3.2.6 1.1 1 3.5 1 5.2 0 2.2-.5 4-2.1 6.4a27.4 27.4 0 0 1-4.8 5.3 56.5 56.5 0 0 1-15.4 8.3c-4.7 1.6-7 2-12.8 2a59.4 59.4 0 0 1-24.2-4.4c-2.8-1.3-5-3-6.4-4.7a8.5 8.5 0 0 1-2-5.4c0-1.6.6-3.5 1.4-4.7a15 15 0 0 1 11.3-5.2c2 0 7.3.7 11.8 1.5a53 53 0 0 0 12.1 1.2c2.4-.2 5.7-1.2 8.2-2.5a409 409 0 0 0 9-4.7c2.6-1.4 5.7-2.6 6.7-2.6 1.1 0 2.7.5 3.5 1.1Z"/>
    <path fill="#F9B66E" d="M640.5 537c1 .7 4.8 2.9 8.4 4.8l6.6 3.4-3.2 3.4a30.4 30.4 0 0 0-4.4 5.9c-.7 1.6-1.5 2.4-2.1 2.2-.6-.3-7.4-4.8-15.1-10.2-7.8-5.3-14-9.8-13.9-10a57.7 57.7 0 0 1 23.7.5Z"/>
    <path fill="#fff" d="M685 561a468.5 468.5 0 0 1 21 11.6c0 .2-1.1 1-2.4 1.9-1.3.8-3.4 3-4.6 5-1.3 1.8-2.8 5-3.5 7-.6 2.2-1.4 3.8-1.6 3.7L673 575.9a290.2 290.2 0 0 1-20.4-14.7c0-.4.6-2 1.4-3.5.8-1.5 2.4-3.7 3.5-4.8a9.8 9.8 0 0 1 3.8-2.5l2.2-.4c.3 0 10 5 21.5 11Z"/>
    <path fill="#F97A6E" d="M713 579.1c.4.5.8 1.9.8 3 0 1.3-.9 4-1.9 6-1 2-2.6 4.3-3.6 5-1 .9-2.9 1.5-4.1 1.5-1.4 0-2.5-.4-2.7-1-.2-.5-.2-2 .2-3.3l1-3.8a35 35 0 0 1 2.4-3.9 12 12 0 0 1 6.6-4.3c.2 0 .7.4 1.2.8Z"/>
    <path fill="#C6FFB9" d="M815.7 626.9a102 102 0 0 1 25 7.5 54.3 54.3 0 0 1 17.9 12.6 31 31 0 0 1 5 7.7 27.7 27.7 0 0 1 2.6 16.7 36 36 0 0 1-2.3 8 28.4 28.4 0 0 1-9.5 11.3c-1.4 1-3.8 2-5.4 2.6a27 27 0 0 1-7.1.8c-2.4 0-9.7-.9-16-2a121 121 0 0 0-23-1.9c-10.4 0-12 .2-17.8 2-3.5 1-8.7 3-11.5 4.3a80.2 80.2 0 0 0-21 16 165.2 165.2 0 0 0-19.6 29.2 236.9 236.9 0 0 0-18.8 51.5 1012 1012 0 0 0-9 49.8c0 .5-.2.8-.6.8-.3 0-2-4.2-4-9.4a533.5 533.5 0 0 0-20.2-46.6l-6.3-12.5 1.4-12.4a266.7 266.7 0 0 1 6-37.5 184.7 184.7 0 0 1 12.3-33.8 115.3 115.3 0 0 1 21.8-30.3 160.9 160.9 0 0 1 21.8-16.9 177.4 177.4 0 0 1 22.5-11.1 144.6 144.6 0 0 1 25.2-6.7 146.6 146.6 0 0 1 30.6.3ZM630.1 897.6c1.9 4.4 4.2 10.9 5.2 14.5 1 3.7 1.8 7.4 1.8 8.3 0 1-1.7 3.5-5 7a47.4 47.4 0 0 0-6.3 8.2c-.9 1.8-1.5 4.5-1.5 6.3 0 1.7.6 4.4 1.3 6 .7 1.5 2.5 4.4 4 6.3l3.4 4.4c.5.7-1.4 1.9-6.7 4.5a218.3 218.3 0 0 1-23.2 9.6c-.1-.2 1.4-4 3.4-8.8a302.4 302.4 0 0 0 13.8-43c1.4-6.3 3.1-16 3.8-21.5.7-6 1.6-10 2-9.9.4.1 2.2 3.8 4 8.1Z"/>
    <path fill="#CEF0FF" d="M450 636.9c5.9 2.9 14.3 6.5 18.8 8a210.5 210.5 0 0 0 31.2 7.6c4.1.6 13 1.3 19.8 1.5 9.2.4 12.2.7 12.2 1.4l-1 5.6c-.7 2.6-1.5 9.7-1.8 15.8-.4 6.6-1.2 13.6-2 17.2a132.2 132.2 0 0 1-5.7 17.2c-.3.3-3.5 0-7.1-.5-3.6-.6-10.6-1.2-15.6-1.5l-9-.5-6-6.5a439.3 439.3 0 0 1-23-26.3 444 444 0 0 1-23.4-33.2 295 295 0 0 1-8-13.5l-3.3-6.2 6.6 4.3c3.7 2.4 11.4 6.7 17.3 9.6Z"/>
    <path fill="#FFD9B8" d="m307.9 990-3.5 5H522c-2.4 0-2.8-.2-2.8-1.5l.7-9.4a858.6 858.6 0 0 0 2.2-71c0-17.2-.3-39.1-.7-48.7a1772.6 1772.6 0 0 0-4.4-65.7c-.7-9-2-22-2.8-29l-2.4-18.4c-.6-3.2-1.7-7.7-2.4-10-1.3-4.1-1.5-4.4-4.1-4.8a34.7 34.7 0 0 0-22.7 3.6c-2.6 1.2-7.8 4.2-11.6 6.7a177.2 177.2 0 0 0-28.7 23.4c-11 9.8-13.5 11.9-15.3 11.9-1.3 0-2.7-.7-3.6-1.6-.8-.8-2.3-4-3.5-7.2A183 183 0 0 1 416 760a474.7 474.7 0 0 1-8.6-46.5l-3.9-27.6c-.8-6.3-1.9-16.5-2.5-22.7a272 272 0 0 1-1-22.4 160.7 160.7 0 0 1 1-19.1 384.9 384.9 0 0 0-38.2 10.4 200.3 200.3 0 0 0-35.2 15.5c-3.3 1.8-6 3.7-6.2 4.2-.2.5.7 3.9 2.1 7.5a231.1 231.1 0 0 1 9.7 36 533.6 533.6 0 0 1 6.7 47c.6 6.8 1.1 16.5 1.1 21.4v9l6.6.3c4.2.2 7.4.8 8.9 1.5 1.3.7 2.5 1.7 2.8 2.4.2.6 0 1.6-.3 2.2-.6 1-2.4 1.2-12 1.2h-11.2l-6.1 7.8-18 23.6c-11 14.5-12 16-11.6 18.1a1305.2 1305.2 0 0 1 20.8 102.7c1.3 8.8 1.4 11.2.7 12-.4.6-3.1 2.8-5.9 4.9a33 33 0 0 0-6.7 6.4c-1.3 2-1.7 3.6-1.6 7 0 2.3.7 6.6 1.5 9.5.8 3 1.7 7 2 9 .4 3.6.3 3.9-3 8.7Z"/>
    <path fill="#FFD9B8" d="M316.5 660.1c1 2 2.8 7.4 4.2 12a285.8 285.8 0 0 1 7.9 34.9 441.4 441.4 0 0 1 4.6 40.6c.4 6.3.7 14.5.7 18.4v7l-4.2 4.7c-2.3 2.6-9.8 12.2-16.8 21.4a733 733 0 0 1-33.3 41.9c-3.5 4-9.4 10.6-13 14.4a63.6 63.6 0 0 1-8.6 7.8 3.5 3.5 0 0 0-2 2.8c-.2 1 .6 3.5 1.9 6 1.2 2.1 2.2 4.8 2.2 5.9 0 1-1 3.3-2.1 5a65.5 65.5 0 0 1-4.4 5.9 15 15 0 0 1-6 4l-10.6 3.9a154.7 154.7 0 0 1-29.1 7.5c-4.3.7-11.5 1.9-16 2.5-4.9.7-16 1.3-27.4 1.5l-19.3.4-.5-7c-.3-3.7-.4-9.8-.2-13.3.3-4 1-8.3 2-11 .9-2.5 3.1-6.8 5-9.6a124 124 0 0 1 8.6-11c4.1-4.5 5.8-7 7.6-11.6 1.3-3.2 4.6-10.1 7.2-15.4a683.9 683.9 0 0 1 57-93.5c4-5.5 10.7-14 14.7-18.8A375.4 375.4 0 0 1 285 679a552 552 0 0 1 29.2-22.5c.4 0 1.4 1.7 2.3 3.7Zm208.7 331.2-.5 3.8H587c-2 0-3.8-.3-3.8-.5 0-.3 2.6-5.1 5.7-10.8A295.4 295.4 0 0 0 604 951a323.1 323.1 0 0 0 10-34 212 212 0 0 0 5.2-44.4c.2-10 0-20-.5-26a266 266 0 0 0-6-36.6 184 184 0 0 1-3-12.5c-.3-3-.6-3.3-2-3l-14.7 3.1c-7.2 1.6-16.8 3.2-21.3 3.7-6.3.6-9 .6-12.4 0-3.4-.8-4.8-1.5-7.2-3.9a15 15 0 0 1-4-6.8l-3.3-12.7a92 92 0 0 1-2.2-10.5c0-1 .5-2.6 1-3.8.7-1 2-2.8 3.3-3.8a20 20 0 0 1 5.1-2.8l5-1.5c2-.5 2-.5-2.4-4.2-2.5-2-6.7-5.2-9.3-7a88.2 88.2 0 0 0-9.5-5.9c-2.7-1.3-6-2.6-7.5-2.9a32.5 32.5 0 0 0-12.3 1.8c-.1.3.2 2.2.7 4.3a137 137 0 0 1 2.1 12 2086.5 2086.5 0 0 1 7.6 94.8c.6 10 1 34.7 1 64 0 30.6-.3 52.4-1 61.4-.4 7.6-1 15.5-1.2 17.5Zm100-273.2a398 398 0 0 1 26.7 35.1 265.2 265.2 0 0 1 23.5 39.9 500 500 0 0 1 13.4 29.4 638.1 638.1 0 0 1 16.4 47.6c2.3 7.6 5.8 20.5 7.9 28.5 2 8.1 3.5 15.2 3.3 15.7-.2.6-3.8 2-8 3.2-4.3 1.3-10.8 2.8-14.5 3.5-5.2.9-11.1 1.2-25.2 1.2-13.6 0-19.2-.2-21.1-.9-2.3-.8-2.8-1.3-3.4-3.9l-3.3-10.8c-1.3-4.3-4.2-11.3-6.3-15.6-2.1-4.3-5-9.8-6.4-12.4-2-3.7-2.5-5-2.1-7.1a332.5 332.5 0 0 0-2.2-39.1 208.8 208.8 0 0 0-5.6-27.6c-1-3.3-2.4-10.6-3.2-16.2a251 251 0 0 0-3-17 52.4 52.4 0 0 1-.5-19.1c.6-9.2.6-15 0-23.5a288.5 288.5 0 0 0-3.3-27.2c-.4-2.4-.3-2.4 5 3.2 3 3.1 8.4 9 12 13.1ZM413.6 612.8c.7.7 1.3 1.9 1.3 2.7 0 .8 1 3.4 2.2 5.7a439.8 439.8 0 0 0 48.2 70.6 422 422 0 0 0 21.4 23.2l13.3 13.6a38.3 38.3 0 0 0-12.6 2 75 75 0 0 0-12.2 5.6 176.2 176.2 0 0 0-33.8 25.6 270.6 270.6 0 0 1-13.9 11.7c-.2 0-1.3-2.4-2.3-5.5a191 191 0 0 1-6.7-27.8 1156.8 1156.8 0 0 1-9.4-64 234 234 0 0 1-1.7-31.2c0-15.1.2-19 1.3-24.1a61 61 0 0 1 2-7.6c.3-1 .8-1.6 1-1.6.3 0 1.1.5 1.9 1.1Zm138.2 46.3a233.7 233.7 0 0 1 11 27c1.3 4.1 3.4 11.5 4.7 16.3a645 645 0 0 1 9.8 58.9c-.2 0-4.6-3.6-9.8-8.2a370.2 370.2 0 0 0-16.7-13.5c-3.9-2.8-9.7-6.5-13-8.1-5-2.5-6.6-3-11.4-3.3l-5.6-.3 3.8-7.2a117 117 0 0 0 10.2-29.2c.8-3.9 1.7-11.5 2.1-17 .4-6 1.3-12 2.1-14.9.8-2.7 1.9-5.1 2.4-5.5a13 13 0 0 1 4.3-.5h3.3l2.8 5.5ZM260 902.3a9.6 9.6 0 0 1 1.8 6 40 40 0 0 1-2.4 10 63.9 63.9 0 0 0-2.7 10.4c-.3 3 .1 4.6 2.2 10.2 1.4 3.6 2.6 7.2 2.6 8 0 .7-.5 2.5-1 4-.7 1.3-2.3 3.9-3.7 5.6a28.3 28.3 0 0 1-6.9 5.5c-2.4 1.3-7.5 3.5-11.3 5a188.6 188.6 0 0 1-33.1 8.6 176.9 176.9 0 0 1-35.6 3.9 109.5 109.5 0 0 1-28-3.9 23 23 0 0 1-7-3.1c-.7-.7-1.5-2.3-2-3.6-.6-1.7-.5-3 .5-6.3.6-2.3 1.1-5.2 1.1-6.6 0-1.4-1.2-5.2-2.6-8.4a43 43 0 0 1-3-9.3 17 17 0 0 1 .9-7.3c.6-2 2.6-5.7 4.2-8a49 49 0 0 1 4.8-5.8c1.6-1.4 2.5-1.5 22.2-1.9a268 268 0 0 0 66-8.4 102.4 102.4 0 0 0 23.1-8.4l4-2 2 1.4c1 .8 2.8 2.8 3.8 4.4ZM730.6 920a27.2 27.2 0 0 1 12.7 11c.9 2 1 3 .4 5.4a67 67 0 0 1-3.3 8.5c-1.4 3-2.5 6.4-2.5 7.5 0 1 1.3 4.4 2.8 7.3 1.8 3.4 2.9 6.4 2.9 8 0 2-.6 3-3 5.3a33 33 0 0 1-7.3 5c-2.5 1.1-7.8 3-11.8 4a270.9 270.9 0 0 1-38 6 98 98 0 0 1-30-2 29.5 29.5 0 0 1-12-7c-.8-1-1.6-2.8-1.6-3.8 0-1.1.5-3.3 1-5 .7-1.7 1.1-4.5 1.1-6.3 0-1.8-.6-4.6-1.3-6.3-.8-1.6-3-5-5-7.5a28.2 28.2 0 0 1-4-6.9c-.3-1.6 0-2.8 1.2-4.9 1-1.5 3.5-4.6 5.6-7l4-4.1 3.1 1c2.6 1 7.2 1.1 23.4 1.1 16 0 21.7-.2 27-1.2 3.7-.7 10.3-2.2 14.6-3.4a64.8 64.8 0 0 0 15.4-6.2l4.6 1.4Z"/>
    <path fill="#CEF0FF" d="m150.2 990 .4 4.5 106.4.2-4-11.7c-2.8-7.7-4.5-11.7-5.1-11.6-.5 0-5.3 1.5-10.6 3.3a223 223 0 0 1-36.6 8.7 152.2 152.2 0 0 1-48.1 2l-2.8-.5.4 5Zm500.4 3.7c0 1.2-.6 1.4-3.6 1.4h82.6l-.5-3.5a13 13 0 0 0-.8-3.8c-.2-.2-3.6.4-7.6 1.3-4 1-12.9 2.6-19.7 3.6-10.4 1.6-15 1.9-27.4 2-11.7 0-15.7-.3-19-1.2-3.9-1.1-4-1.1-4 .2Z"/>
    <path fill="#FFD9B8" d="M574 672c5.2 3.4 13 9 17.2 12.5l7.8 6.3 1.6 7a216.6 216.6 0 0 1 4.8 50.6l-.4 3.7-2.4-1a41.8 41.8 0 0 0-19.2.2l-2-13a343.4 343.4 0 0 0-9.9-48 226.8 226.8 0 0 0-8.3-24.1c0-.3.3-.6.7-.6.3 0 4.9 2.9 10 6.3Z"/>
    <path fill="#fff" d="M601.5 758.4a367 367 0 0 1 4.4 19.2 58 58 0 0 1 1.2 9c-.2.4-3.3 1.3-7 2-3.7.6-10.5 2-15.2 3-5.1 1.1-12 2-17.2 2.3l-8.6.4-2-2c-1.7-1.7-2.5-3.8-4.4-12.2a73.3 73.3 0 0 1-2.1-12.4c.2-1.9.7-2.6 2.9-3.6 1.6-.8 5-1.5 8.2-1.7l5.4-.4 6.3 5.8a37 37 0 0 0 7.5 5.7c.7 0 1.9-.6 2.6-1.4 1-1.2 1.2-2.3.9-7.7l-.4-6.4 2.2-.3 8.4-.4c5.3 0 6.3 0 6.9 1.1Z"/>
    <path fill="#FEFFB9" d="M510 716.8c3.4.5 6.6 1 7 1.4.7.4.3 1.5-1.6 4.4-1.5 2.2-3 4.3-3.6 4.8-.8.6-2.1-.2-6.6-4.1-3-2.7-6-5.4-6.5-6.1-.9-1-.7-1.2 2.1-1.2 1.7 0 5.8.4 9.2.8Zm-66.5-322.9a10378.9 10378.9 0 0 0 8 42.6c.3.8 0 1.2-1 1.2s-1.5-.7-1.9-2.3l-1.8-9.8-3.1-17.4c-1.5-7.8-2.2-10.2-3.4-11.1-1.2-1-2.3-1.2-6.5-.8l-5 .4 2-3.4c1.1-2 2.3-3.9 2.7-4.4.3-.4 1.5-1 2.5-1.1 1-.2 2.9-.3 4.1-.4l2.2-.1 1.2 6.6Zm29.3-5.5c1.3 1.3 1.6 2.2 1.3 3.3-.3 1-.9 2-1.3 2.6-.4.6-1.8 1.5-3.1 2s-2.6.8-3 .6c-.3-.2-.8-1.7-1-3.4l-.9-4.5c-.3-1.1 0-1.7 1-2 .6-.1 2.1-.3 3.2-.3 1.3 0 2.7.5 3.8 1.7Zm12.5 36.6c.7.8 1.2 2 1.1 2.7-.1.6-1.4 1.5-2.8 2-1.4.4-4.5 1-6.8 1.3-4 .5-4.3.4-4.7-1.2-.2-1-.4-2.7-.4-4 0-2 .2-2.2 2.6-2.5 1.5-.2 4.3-.3 6.2-.2 2.6.2 3.8.6 4.8 1.8ZM438 364.4l.6 3.2c.2.9-.4 1.3-2.2 1.7-1.3.2-2.6.2-2.9 0-.2-.2.4-1.9 1.3-3.6 1-1.8 2-3.3 2.2-3.3.3 0 .7 1 1 2Zm24.6-2v2.5c-.3.2-1.3.4-2.4.4h-2l1.6-2.5a7.5 7.5 0 0 1 2-2.5c.3 0 .6 1 .8 2.1Zm-34.8 22.4a10 10 0 0 1-1.3 5.4l-1.5 3-.5-2.7c-.4-2-.2-3.5.7-5.5a9.4 9.4 0 0 1 1.7-2.7c.3 0 .7 1.1.9 2.5Zm12.6 71.4c.4.8 2 1 7.7.8 3.9 0 7.3 0 7.4.4.2.3.6 2.3.8 4.5a53 53 0 0 0 1.2 6.4c.4 1.3.6 3.2.6 4.2s-.8 2.7-1.7 3.9c-1 1.1-1.9 2-2 1.7-.2-.1-.8-3.1-1.5-6.6a26 26 0 0 0-1.8-7c-.5-.5-3-.5-7 0-3.4.3-6.3.6-6.4.5a37 37 0 0 1-1-5c-.7-4.2-.6-5 .6-7.2l1.3-2.5.6 2.4c.3 1.3.9 2.9 1.2 3.5ZM481 461l1.3 7.4-2.6 3.5c-2.3 3-2.8 3.3-3.2 2.1-.3-.7-.9-4-1.3-7.2-.7-4.5-1.2-6-2.1-6.2-.8-.2-1.5-1.2-1.7-2.5-.3-1.1-.5-2.5-.5-3 0-.6 1-1.1 2.3-1.3l4.5-.2h2.1l1.3 7.4Zm15.5-10.5c-.4.8-1 1.4-1 1.4-.3 0-.4-.6-.4-1.4 0-.8.5-1.4 1-1.4 1 0 1 .3.4 1.4Z"/>
    <path fill="#FFD7EC" d="m447.4 472.5.2 1.8-5.7-1c-3.1-.7-5.5-1.3-5.4-1.4a30.1 30.1 0 0 1 8.9-1.3c1.3 0 1.8.6 2 2Z"/>
    <path fill="#FEFFB9" d="M711 431.3c-.5.8-1 1.4-1.2 1.4-.2 0-.3-.6-.3-1.4 0-.8.5-1.4 1-1.4 1 0 1 .3.4 1.4Zm-15.5 10.6 1.2 7.3-2.6 3.5c-2.3 3-2.7 3.3-3.2 2.1-.2-.7-.9-4-1.3-7.2-.7-4.5-1.2-5.9-2.1-6.1-.7-.2-1.5-1.3-1.7-2.5l-.4-3.1c0-.5 1-1 2.3-1.2 1.2-.2 3.2-.3 4.4-.3l2.1.1 1.3 7.4Zm-40.7-4.9c.5.9 2 1 7.7.9 4-.1 7.3 0 7.5.3l.8 4.6c.2 2.2.7 5 1 6.3.5 1.4.8 3.2.8 4.2s-.8 2.7-1.8 3.9c-1 1.2-1.8 2-2 1.8-.2-.2-.8-3.2-1.5-6.7a26 26 0 0 0-1.8-7c-.4-.5-3-.5-7 0-3.3.4-6.3.6-6.4.5a37 37 0 0 1-1-4.9c-.7-4.3-.6-5 .6-7.3l1.3-2.5.6 2.4c.4 1.3.9 3 1.2 3.5Zm44.9-31.2c.7.9 1.2 2.1 1.1 2.7-.1.7-1.4 1.5-2.8 2s-4.4 1-6.8 1.3c-4 .5-4.2.4-4.7-1.2-.2-.9-.4-2.7-.4-4 0-2 .2-2.2 2.6-2.5 1.5-.2 4.3-.2 6.2-.1 2.7.1 3.8.5 4.8 1.8ZM658 374.7a10378.9 10378.9 0 0 0 8 42.6c.2.9-.1 1.2-1 1.2-1 0-1.6-.6-2-2.3l-1.8-9.7-3.1-17.4c-1.5-7.8-2.2-10.2-3.4-11.2-1.2-1-2.3-1.2-6.4-.8l-5 .5 2-3.5c1-2 2.3-3.9 2.6-4.3.4-.5 1.5-1 2.5-1.2l4.1-.4h2.2l1.2 6.5Zm29.2-5.5c1.3 1.3 1.7 2.2 1.3 3.4-.3.8-.8 2-1.3 2.6a11 11 0 0 1-3.1 2c-1.3.5-2.6.7-3 .5-.3-.1-.7-1.7-1-3.3l-.9-4.6c-.2-1.1 0-1.6 1-1.9a14 14 0 0 1 3.2-.4c1.3 0 2.7.6 3.8 1.7Zm-45-3.6a10 10 0 0 1-1.3 5.5l-1.5 3-.5-2.8c-.4-2-.2-3.5.7-5.4.7-1.5 1.5-2.7 1.8-2.7.3 0 .6 1 .8 2.4Zm10.2-20.4.6 3.2c.2 1-.4 1.3-2.2 1.7-1.3.2-2.6.3-2.9 0-.2-.2.4-1.9 1.3-3.6 1-1.8 2-3.2 2.2-3.2.3 0 .7.9 1 2Zm24.6-1.9c.2 1.2.1 2.3 0 2.5-.2.2-1.3.3-2.4.3h-2l1.6-2.5a9.8 9.8 0 0 1 2-2.4c.3 0 .6 1 .8 2Z"/>
  </g>
  <defs>
    <clipPath id="a">
      <path fill="#fff" d="M0 0h994v994H0z"/>
    </clipPath>
  </defs>
</svg>
