<svg width="84" height="35" viewBox="0 0 84 35" fill="none" xmlns="http://www.w3.org/2000/svg">
<path d="M24.6466 34.4321H15.4473V21.2932H9.47644V34.4321H0.0318886L0 0.566678H9.47644V13.1635H15.4473V0.566678H24.6466V34.4321ZM66.7962 34.5916C76.2825 34.5867 84.0025 26.7072 84 17.2185C83.9976 7.53111 76.2825 0.00736732 66.7962 5.88615e-06C57.3222 -0.00739534 52.4798 6.96689 51.2851 9.78308C51.2949 5.55634 47.1295 0.569132 42.2576 0.561766H26.56V34.4198L41.1954 34.4248C47.0976 34.4248 51.2949 29.3124 51.3023 24.9287C52.649 27.6885 57.3222 34.594 66.7962 34.5916V34.5916ZM39.9688 20.8148C41.3229 20.8148 42.39 22.1517 42.39 23.6751C42.39 25.1985 41.3229 26.5379 39.9688 26.5379H35.3152V20.8148H39.9688ZM39.986 8.10269C41.3401 8.10269 42.4072 9.43964 42.4072 10.963C42.4072 12.4864 41.3401 13.8234 39.986 13.8234H35.3324V8.10269H39.986ZM46.1826 17.2259C47.2497 17.0909 49.0258 15.8717 49.6538 15.0917C49.433 16.0582 49.4158 18.8523 49.6734 19.8164C48.9595 18.7149 47.2669 17.3608 46.1826 17.2259H46.1826ZM58.1833 17.2259C58.1833 12.4668 62.0421 8.60803 66.8011 8.60803C71.5627 8.60803 75.4214 12.4668 75.4214 17.2259C75.4214 21.9849 71.5627 25.8437 66.8011 25.8437C62.0421 25.8437 58.1833 21.9849 58.1833 17.2259ZM66.8011 24.0014C70.5446 24.0014 73.5767 20.9669 73.5767 17.2259C73.5767 13.4849 70.5446 10.4503 66.8011 10.4503C63.0601 10.4503 60.0256 13.4849 60.0256 17.2259C60.0256 20.9669 63.0601 24.0014 66.8011 24.0014Z" fill="white"/>
</svg>
