<svg width="175" height="25" viewBox="0 0 175 25" fill="none" xmlns="http://www.w3.org/2000/svg">
<path d="M32.7012 8.33333H49.0664V0H32.7012V8.33333Z" fill="white"/>
<path d="M0 0V8.33333H8.168V25H16.336V8.33333H24.5332V0H0Z" fill="white"/>
<path d="M24.5332 25H49.0664V16.6667H32.7012V8.33333H24.5332V25Z" fill="white"/>
<path d="M69.9239 6.29371H57.9053V9.76107H61.931V20.6294H65.8983V9.76107H69.9239V6.29371Z" fill="white"/>
<path d="M74.4455 9.64452C71.6159 9.64452 69.5155 11.5385 69.5155 15.2681C69.5155 18.5606 71.295 20.8625 74.533 20.8625C76.225 20.8625 77.596 20.4254 78.9087 19.6387L77.5085 17.2786C76.4292 17.8322 75.6707 18.0361 74.708 18.0361C73.7162 18.0361 73.0161 17.5117 72.8702 16.317H79.2004C79.2296 16.1422 79.2296 15.9091 79.2296 15.5886C79.2588 11.5967 77.421 9.64452 74.4455 9.64452ZM72.9286 14.0152C73.0453 12.9371 73.512 12.3834 74.358 12.3834C75.4373 12.3834 75.8166 12.9371 75.9916 14.0152H72.9286Z" fill="white"/>
<path d="M86.2599 17.8613C85.2681 17.8613 84.743 16.9872 84.743 15.2681C84.743 13.5781 85.2098 12.6166 86.1724 12.6166C86.96 12.6166 87.3101 13.0536 87.8352 14.0152L90.3731 12.0921C89.4396 10.5769 88.2728 9.64452 86.2308 9.64452C82.7885 9.64452 81.0966 11.9172 81.0966 15.2098C81.0966 18.8228 82.9927 20.8333 86.1432 20.8333C88.0394 20.8333 89.2062 20.1049 90.4606 18.2692L88.1269 16.4336C87.4268 17.4825 86.96 17.8613 86.2599 17.8613Z" fill="white"/>
<path d="M98.9787 9.64452C97.6951 9.64452 96.9367 10.0816 96.2657 10.5769V5.71096L92.561 7.19697V20.6585H96.2657V14.5105C96.2657 13.1702 96.7325 12.7914 97.5201 12.7914C98.2786 12.7914 98.7453 13.1702 98.7453 14.5396V20.6585H102.45V14.0734C102.45 11.2471 101.312 9.64452 98.9787 9.64452Z" fill="white"/>
<path d="M111.347 17.3951C109.626 17.3951 108.926 15.6469 108.926 13.4615C108.926 11.1888 109.655 9.52797 111.318 9.52797C112.631 9.52797 113.127 10.373 113.623 11.7133L117.24 10.2856C116.248 7.57576 114.848 6.06061 111.318 6.06061C107.468 6.06061 104.755 8.85781 104.755 13.4615C104.755 17.7156 107.03 20.8625 111.289 20.8625C114.702 20.8625 116.307 19.0268 117.269 17.162L113.914 15.3846C113.127 16.7249 112.602 17.3951 111.347 17.3951Z" fill="white"/>
<path d="M123.22 10.6643V9.87762H119.515V20.6294H123.22V14.7727C123.22 13.4615 123.774 13.0245 124.679 13.0245C125.408 13.0245 125.933 13.4033 126.4 13.9277L127.275 10.1107C126.837 9.84849 126.312 9.64452 125.525 9.64452C124.562 9.64452 123.833 10.0524 123.22 10.6643Z" fill="white"/>
<path d="M135.18 16.0256C135.18 17.366 134.714 17.7447 133.955 17.7447C133.197 17.7447 132.73 17.366 132.73 15.9965V9.87762H129.025V16.4627C129.025 19.289 130.163 20.8625 132.526 20.8625C133.78 20.8625 134.568 20.4254 135.21 19.9301V20.6585H138.914V9.90676H135.21V16.0256" fill="white"/>
<path d="M147.987 9.64452C146.703 9.64452 145.945 10.0816 145.274 10.5769V9.84849H141.569V20.6002H145.274V14.4522C145.274 13.1119 145.74 12.7331 146.528 12.7331C147.287 12.7331 147.753 13.1119 147.753 14.4814V20.6002H151.458V14.0152C151.458 11.2471 150.35 9.64452 147.987 9.64452Z" fill="white"/>
<path d="M158.809 17.8613C157.817 17.8613 157.292 16.9872 157.292 15.2681C157.292 13.5781 157.759 12.6166 158.693 12.6166C159.48 12.6166 159.83 13.0536 160.355 14.0152L162.893 12.0921C161.96 10.5769 160.793 9.64452 158.751 9.64452C155.309 9.64452 153.617 11.9172 153.617 15.2098C153.617 18.8228 155.513 20.8333 158.663 20.8333C160.56 20.8333 161.726 20.1049 162.981 18.2692L160.647 16.4336C160.005 17.4825 159.509 17.8613 158.809 17.8613Z" fill="white"/>
<path d="M171.528 9.64452C170.244 9.64452 169.486 10.0816 168.815 10.5769V5.71096L165.11 7.19697V20.6585H168.815V14.5105C168.815 13.1702 169.282 12.7914 170.069 12.7914C170.828 12.7914 171.295 13.1702 171.295 14.5396V20.6585H174.999V14.0734C175.029 11.2471 173.891 9.64452 171.528 9.64452Z" fill="white"/>
</svg>
