<svg width="136" height="39" viewBox="0 0 136 39" fill="none" xmlns="http://www.w3.org/2000/svg">
<path d="M11.2597 0.282523C9.12429 0.779011 8.08754 1.18241 6.46278 2.12884C5.33319 2.78048 2.90379 4.98365 2.90379 5.35601C2.90379 5.4491 2.81094 5.61977 2.68715 5.71286C2.57884 5.80596 2.3622 6.28693 2.20746 6.7679C1.94441 7.60573 1.94441 7.6833 2.20746 8.47458C2.68715 9.88647 4.17265 10.926 5.96762 11.1122C6.41636 11.1587 6.81868 11.2518 6.84963 11.3294C6.89605 11.3915 6.38541 11.7173 5.73551 12.0276C1.74325 13.9825 -0.252886 16.4805 0.0256436 19.1956C0.257752 21.3678 1.61945 23.121 3.67748 23.8657C6.35446 24.8432 12.0643 24.6415 15.2055 23.4623C16.6601 22.9193 18.0682 22.1901 19.4454 21.2592C21.3796 19.9714 22.2152 19.2577 24.5982 16.9304L26.5479 15.022L26.9966 15.2392C28.5285 16.046 29.457 18.0785 28.5595 18.6681C28.3583 18.7922 27.6156 18.9474 26.8883 18.9939C24.6446 19.1801 22.6794 19.8007 21.8284 20.6075C20.5131 21.8643 20.9773 23.2296 22.9579 23.8812C23.8554 24.1915 24.1959 24.2071 26.2384 24.145C29.2094 24.0364 31.2674 23.5554 33.6659 22.3918C35.3835 21.5539 35.5227 21.5695 37.2868 22.64C37.8593 22.9814 38.4318 23.2606 38.5556 23.2606C39.0972 23.2606 39.7626 21.6005 39.4995 20.9023C39.3448 20.4989 37.3796 19.6301 36.3274 19.5059C35.9405 19.4594 35.9405 19.4284 35.9251 18.063C35.9251 16.8839 35.8632 16.5735 35.5537 16.046C35.074 15.2237 34.161 14.2618 32.8922 13.2378C31.809 12.3534 31.6233 11.981 32.0721 11.5311C32.4434 11.1432 32.3506 10.7398 31.7626 10.3054C31.0508 9.74683 29.9831 9.45204 28.7607 9.45204C26.455 9.46756 24.8303 10.1657 24.6291 11.2208C24.5208 11.8104 24.6601 12.6792 24.9231 12.9895C25.1398 13.2533 24.8922 13.7498 23.9792 14.9444C21.1939 18.575 17.604 20.7161 14.0295 20.9023C13.0856 20.9333 12.3274 20.9023 11.9715 20.7782C9.6504 20.0179 9.40282 17.0856 11.4918 14.991C12.1108 14.3704 13.7974 13.0206 13.9521 13.0206C14.2307 13.0206 15.9483 11.8414 16.0875 11.5466C16.3196 11.0191 15.8709 10.4295 15.0663 10.2123C13.0392 9.68477 12.2345 9.32792 11.8013 8.76937C11.2752 8.07118 11.1823 7.52815 11.4763 6.75239C12.0334 5.27844 13.7974 4.25443 17.1398 3.46315C18.5324 3.12182 18.6407 3.05976 18.8264 2.37708C19.0121 1.6789 18.749 0.685919 18.2539 0.298038C17.898 0.0187632 17.6349 -0.0122673 15.1436 0.00324795C13.1475 0.0187632 12.1108 0.0808242 11.2597 0.282523ZM27.9405 21.3367C27.9715 21.5539 27.8477 21.7556 27.5537 21.9573C26.9812 22.3452 25.5576 22.7952 24.9077 22.7952C24.3506 22.7952 23.4841 22.3763 23.4841 22.097C23.4841 21.4298 24.9386 20.9333 26.7336 20.9799C27.7858 21.0109 27.8941 21.0419 27.9405 21.3367ZM87.9019 2.29951C87.1746 2.48569 86.4628 2.95115 85.9676 3.58727C85.5653 4.06825 85.5034 4.28546 85.4879 5.06122C85.4879 6.20935 85.7665 6.73687 86.8032 7.45057C87.546 7.94706 87.6543 7.97809 88.9231 7.97809C90.3313 7.97809 90.9657 7.76088 91.662 7.06269C92.4667 6.27141 92.7297 4.92159 92.281 4.05273C92.0334 3.60279 91.399 2.96666 90.7955 2.57878C90.3313 2.28399 88.5982 2.11332 87.9019 2.29951ZM97.8361 8.89349C97.279 9.14174 96.5672 9.93302 96.428 10.4605C96.1959 11.3759 97.0779 12.6172 98.2539 13.0206C98.7336 13.1912 98.9347 13.3619 98.9657 13.6101C99.0276 13.998 98.0837 16.8683 97.4802 18.1251C97.0315 19.056 96.103 20.4058 95.546 20.9489C95.0044 21.4609 94.1069 21.8643 93.5034 21.8643C92.6833 21.8643 92.0798 21.3367 91.7703 20.3593C91.5228 19.5835 91.5228 19.3508 91.7703 16.6977C92.2655 11.438 92.2655 11.3449 91.956 11.0036C91.5846 10.5847 90.3313 10.2278 89.2481 10.2278C87.7471 10.2278 85.8748 10.8484 85.5808 11.4535C85.5189 11.5932 85.426 13.7187 85.3796 16.2012L85.3022 20.7006L84.6059 21.0885C84.0024 21.4298 83.7239 21.4764 82.4086 21.4764C80.9077 21.4764 80.8922 21.4764 80.397 20.9644C79.9019 20.4679 79.8864 20.4368 79.8864 19.1025C79.9019 18.3578 80.0257 16.9459 80.1649 15.9685C80.7839 11.8879 80.7839 11.8414 80.5518 11.4845C80.0875 10.7243 77.9367 10.1192 76.5904 10.383C75.5537 10.5691 75.1359 10.7553 74.7026 11.2363C74.3158 11.6397 74.3158 11.6552 74.2694 15.0841C74.2539 16.9769 74.192 18.6836 74.161 18.8698C74.0527 19.3818 73.2017 20.2817 72.5208 20.6385C72.0875 20.8558 71.6233 20.9333 70.8032 20.9333C69.8438 20.9178 69.6117 20.8713 69.2094 20.5455L68.7452 20.1576L68.7761 18.094C68.7761 16.9614 68.8999 15.2858 69.0392 14.3704C69.3641 12.1672 69.3641 11.4225 69.0082 11.1122C67.9096 10.1037 64.2268 10.0727 63.1436 11.0501C62.8651 11.2984 62.7877 11.5466 62.7877 12.0741C62.7877 12.462 62.6794 14.0446 62.5556 15.5806C62.2152 19.6766 62.2461 20.8713 62.6794 21.585C63.84 23.5089 67.1823 24.4708 70.4473 23.8192C71.9638 23.5244 72.5363 23.2296 73.5885 22.2521C74.4705 21.4298 74.8574 21.2281 74.8574 21.5539C74.8574 21.8177 76.1108 23.1055 76.6214 23.3692C77.9057 24.0364 80.9386 24.2536 82.7645 23.8192C83.6311 23.6175 85.0856 22.9503 85.5344 22.578C86.014 22.159 86.2616 22.1901 86.7723 22.7176C87.0353 22.9969 87.6543 23.4158 88.134 23.664C88.9541 24.0829 89.1552 24.114 91.1978 24.1605C93.0701 24.2071 93.5344 24.1605 94.4473 23.8812C95.7162 23.4934 96.7374 22.7797 97.604 21.6936C98.5634 20.4834 100.854 15.534 100.854 14.6652C100.854 14.0601 101.101 13.8739 101.89 13.9204C103.144 13.967 105.496 14.2928 105.573 14.4324C105.619 14.4945 105.341 14.8669 104.97 15.2548C103.886 16.3253 103.639 16.9614 103.639 18.5595C103.639 19.6766 103.716 20.08 104.01 20.7161C105.016 22.9038 107.043 23.9588 110.525 24.1295C111.933 24.2071 112.49 24.1605 113.697 23.8812C114.501 23.7106 115.476 23.3847 115.848 23.1675C116.529 22.7952 117.318 22.671 117.472 22.9348C117.627 23.1831 118.989 23.5864 120.428 23.8037C122.981 24.1915 124.204 24.2226 126.54 23.9743C127.824 23.8347 130.13 23.7261 131.971 23.7261C135.67 23.7261 135.747 23.7106 135.747 22.5624C135.747 21.7246 135.391 21.3212 134.478 21.1506C133.89 21.0419 131.647 21.2747 129.635 21.647C127.175 22.1125 124.374 21.8643 123.554 21.1195C123.012 20.6385 122.641 19.6921 122.749 19.1181C122.935 18.1406 124.281 17.0545 125.813 16.6822C126.308 16.558 126.618 15.9995 126.478 15.4565C126.401 15.1461 126.184 15.0065 125.271 14.7117C124.142 14.3549 123.445 13.8584 123.445 13.424C123.445 12.8189 123.77 12.431 124.59 12.0431C125.38 11.6707 125.643 11.6242 127.236 11.6242C128.861 11.6242 129.031 11.5932 129.325 11.2828C129.697 10.8794 129.712 10.6622 129.387 9.97956C128.954 9.06416 128.505 8.83143 127.206 8.83143C125.488 8.83143 122.223 9.37447 120.583 9.93302C120.335 10.0261 119.917 10.1502 119.654 10.2123C118.772 10.445 117.426 11.1742 117.024 11.6397C116.498 12.2913 116.498 13.1447 117.039 13.7963C117.457 14.2928 118.447 14.8824 118.865 14.8824C118.989 14.8824 119.206 14.991 119.345 15.1306C119.654 15.4409 119.438 15.7357 118.834 15.8598C118.215 15.984 116.993 16.8839 116.265 17.7372C115.662 18.4509 115.631 18.513 115.6 19.7231C115.585 20.4058 115.492 21.0575 115.399 21.1661C115.306 21.2747 114.749 21.4609 114.161 21.5695C112.443 21.8798 111.175 21.3988 110.2 20.0955C109.24 18.8077 108.946 17.1321 109.442 15.7357C109.565 15.3944 109.674 15.0065 109.674 14.8824C109.689 14.479 110.2 13.998 110.834 13.8118C112.118 13.4084 112.335 13.2688 112.552 12.7723C112.846 12.0896 112.83 11.2518 112.521 10.9881C112.32 10.8329 111.886 10.8174 110.169 10.9725C109.008 11.0811 107.291 11.1587 106.347 11.1587C104.536 11.1587 101.89 10.8019 101.813 10.5536C101.658 10.0882 100.823 9.15725 100.343 8.94004C99.693 8.62973 98.486 8.61422 97.8361 8.89349ZM46.1533 10.5536C44.2345 11.0191 42.5324 11.9345 41.4802 13.0826C39.9947 14.6652 39.5769 15.7512 39.5769 17.9699C39.5769 20.1576 39.9792 21.2592 41.1862 22.3763C42.5634 23.664 44.3274 24.2381 46.6794 24.1605C48.9696 24.0829 50.2075 23.5864 51.7084 22.128C52.3119 21.5539 52.8844 21.1195 52.9928 21.1506C53.1939 21.2281 53.2094 20.9489 52.7761 28.3496C52.6214 31.1114 52.575 32.9422 52.6678 33.0197C52.869 33.1904 59.1823 32.8335 59.3835 32.6318C59.6465 32.3681 59.5227 13.0671 59.2597 12.5551C58.8264 11.7328 58.3467 11.5466 56.7529 11.5621C54.2307 11.5776 53.7046 12.1672 53.5034 15.1927C53.3177 18.1871 52.5904 19.568 50.6098 20.6541C49.867 21.0575 48.134 21.0419 47.3138 20.6075C46.1997 20.0179 45.6117 19.0094 45.6117 17.6596C45.6117 16.9304 46.045 15.5185 46.4009 15.0531C47.252 13.9825 48.9077 13.4084 50.7645 13.5326C52.2036 13.6257 52.8071 13.455 53.1166 12.8499C53.6427 11.8414 53.2403 10.6467 52.2964 10.3985C51.2906 10.1037 47.5614 10.2123 46.1533 10.5536ZM108.807 28.3651C107.832 28.691 107.198 29.1409 106.532 29.9787C105.65 31.0958 105.418 31.8251 105.418 33.5007C105.418 34.9126 105.449 35.0212 106.006 36.0142C107.043 37.8605 108.312 38.6363 110.385 38.6363C111.53 38.6363 111.84 38.5742 112.598 38.2173C113.619 37.7053 114.238 37.1002 114.873 35.9521C115.291 35.1763 115.322 35.0212 115.322 33.4231C115.322 31.8406 115.291 31.6544 114.888 30.9407C113.558 28.5358 111.221 27.5428 108.807 28.3651ZM112.072 29.1409C113.635 29.8701 114.61 31.4217 114.656 33.268C114.687 34.6799 114.362 35.5642 113.434 36.6038C112.536 37.5967 111.639 38.0001 110.37 38.0001C109.194 38.0001 108.451 37.6898 107.569 36.8055C105.279 34.5402 105.805 30.6769 108.575 29.234C109.488 28.753 111.144 28.7065 112.072 29.1409ZM64.2887 28.4738C64.2268 28.5358 64.1804 30.739 64.1804 33.3455C64.1804 37.4571 64.2113 38.1398 64.4125 38.3104C64.5672 38.4346 64.7065 38.4656 64.7993 38.3725C64.8767 38.2949 64.9541 36.5107 64.985 34.4006C65.016 32.306 65.0933 30.5218 65.1552 30.4442C65.2326 30.3821 65.4338 30.5218 65.6195 30.7855C65.8051 31.0338 66.5169 31.9337 67.1978 32.8025C67.8786 33.6559 69.0237 35.1298 69.751 36.0607C71.2674 38.0001 71.7626 38.5276 71.9483 38.3415C72.0257 38.2639 72.0566 36.0142 72.0411 33.33C71.9947 28.5824 71.9947 28.4582 71.6852 28.4582C71.3912 28.4582 71.3757 28.5824 71.2984 32.3371C71.2365 35.1919 71.1746 36.2159 71.0353 36.2159C70.8806 36.2159 70.2771 35.4867 67.2906 31.7164C64.7374 28.4582 64.5208 28.241 64.2887 28.4738ZM74.6562 28.4893C74.4705 28.6599 74.5324 37.8295 74.7026 38.1708C74.8574 38.4501 75.0585 38.4656 77.8903 38.4656C80.4589 38.4656 80.9077 38.4346 81.0005 38.2329C81.0469 38.0932 81.0315 37.9381 80.9696 37.876C80.9231 37.8139 79.6388 37.7364 78.1378 37.6898L75.399 37.6122V33.7334L78.0605 33.6559C79.515 33.6093 80.7529 33.5317 80.8148 33.4697C81.1552 33.1283 80.5518 33.0352 78.2152 33.0352C76.838 33.0352 75.6156 32.9732 75.5073 32.9111C75.368 32.8025 75.3216 32.306 75.3525 30.9252L75.399 29.0789L78.1069 29.0013C80.5208 28.9392 80.8148 28.8927 80.8612 28.6444C80.9077 28.3962 80.691 28.3807 77.8284 28.3807C76.1417 28.3807 74.7026 28.4272 74.6562 28.4893ZM82.7026 28.4893C82.6407 28.5358 82.6717 28.6755 82.7645 28.7996C82.8883 28.9392 83.368 29.0013 84.3893 29.0013C85.6736 29.0013 85.8438 29.0323 85.8593 29.265V33.7334C85.8438 37.2399 85.8748 37.9846 86.0759 38.2329C86.5402 38.8535 86.6175 38.2018 86.6175 33.78C86.6175 31.4217 86.6639 29.3892 86.7104 29.2495C86.7877 29.0478 87.0663 29.0013 88.1649 29.0013C89.6659 29.0013 90.0218 28.9237 90.0218 28.5979C90.0218 28.4117 89.3874 28.3807 86.4164 28.3807C84.4202 28.3807 82.7491 28.4272 82.7026 28.4893ZM91.0431 28.5203C90.9502 28.6755 91.0585 29.0789 91.7239 30.8631C92.0024 31.5923 92.3119 32.4612 92.4357 32.8025C92.8226 33.9662 93.5653 35.9676 93.72 36.2779C93.8129 36.4486 93.8903 36.6813 93.8903 36.8055C93.8903 36.9296 94.0295 37.364 94.2152 37.7519C94.5866 38.6052 94.8032 38.5432 95.1127 37.5036C95.221 37.1313 95.4067 36.5882 95.515 36.2934C95.7626 35.5642 95.9638 35.0057 96.7065 32.756C97.0469 31.7164 97.3874 30.8631 97.4647 30.8631C97.5266 30.8631 97.6349 30.9562 97.7123 31.0493C97.8361 31.251 98.7336 33.7955 98.9966 34.6643C99.0585 34.9126 99.368 35.828 99.662 36.6813C100.08 37.907 100.25 38.2329 100.467 38.2329C100.668 38.2329 100.792 38.0777 100.869 37.7674C101.008 37.1313 101.937 34.5402 102.091 34.354C102.153 34.2609 102.246 34.0282 102.293 33.811C102.37 33.4542 102.726 32.3836 102.973 31.794C103.236 31.1424 103.979 29.0323 104.057 28.722C104.134 28.4117 104.088 28.3651 103.778 28.4117C103.484 28.4427 103.345 28.6289 103.144 29.234C103.004 29.6529 102.571 30.9097 102.184 32.0268C101.782 33.1283 101.287 34.5868 101.055 35.2539C100.714 36.3245 100.637 36.4486 100.436 36.2469C100.235 36.0607 99.4299 33.842 98.9966 32.3371C98.4551 30.4907 97.7742 28.7685 97.5421 28.722C97.4028 28.691 97.2636 28.753 97.2326 28.8772C97.1243 29.3116 95.7007 33.7645 95.515 34.2765C94.958 35.828 94.7258 36.3245 94.5866 36.2779C94.4473 36.2159 94.2926 35.8435 93.5808 33.811C93.4106 33.3455 93.132 32.5698 92.9618 32.1043C92.7761 31.6389 92.4667 30.739 92.25 30.1029C92.0489 29.4822 91.8013 28.8306 91.7084 28.6755C91.5537 28.3651 91.1823 28.2876 91.0431 28.5203ZM117.674 28.4893C117.488 28.6599 117.55 38.2794 117.72 38.388C117.813 38.4501 117.983 38.4035 118.107 38.3104C118.293 38.1553 118.339 37.7209 118.339 36.4641C118.339 35.378 118.401 34.7419 118.525 34.6178C118.648 34.4937 119.236 34.4316 120.118 34.4316C121.387 34.4316 121.573 34.4626 121.852 34.773C122.192 35.1608 123.26 36.7279 123.554 37.2864C124.049 38.1863 124.993 38.8224 124.993 38.2329C124.993 38.1087 124.467 37.2244 123.817 36.2779C123.151 35.3005 122.687 34.4782 122.734 34.3385C122.78 34.2144 122.981 34.0592 123.198 33.9662C123.399 33.8886 123.77 33.5783 124.002 33.2525C124.358 32.787 124.451 32.4922 124.498 31.6389C124.56 30.5218 124.405 30.0408 123.724 29.2961C122.95 28.4427 122.718 28.3807 120.149 28.3807C118.834 28.3807 117.72 28.4272 117.674 28.4893ZM122.378 29.2185C123.523 29.6995 124.095 30.8631 123.786 32.0733C123.445 33.3455 122.563 33.78 120.242 33.7955C118.834 33.811 118.648 33.78 118.494 33.5162C118.324 33.1904 118.277 29.6684 118.432 29.2495C118.509 29.0478 118.819 29.0013 120.196 29.0013C121.279 29.0013 122.037 29.0788 122.378 29.2185ZM126.85 33.33C126.85 36.6038 126.912 38.3259 127.004 38.388C127.391 38.6207 127.623 38.1242 127.623 37.0847C127.623 35.9987 127.763 35.6884 128.691 34.7264C128.877 34.5247 129.217 34.1213 129.434 33.842C129.65 33.5783 129.913 33.3455 130.037 33.3455C130.146 33.3455 130.532 33.78 130.888 34.3075C131.523 35.2384 132.513 36.6193 133.457 37.876C133.72 38.2329 134.03 38.4501 134.246 38.4656C134.432 38.4656 134.587 38.419 134.587 38.3725C134.587 38.1863 134.184 37.5657 132.482 35.1763C131.507 33.811 130.718 32.6008 130.718 32.4922C130.718 32.3836 131.182 31.7475 131.77 31.0803C133.008 29.6219 133.813 28.5979 133.813 28.4738C133.813 28.4272 133.658 28.3807 133.472 28.3807C133.07 28.3807 133.008 28.4427 131.105 30.77C130.331 31.7009 129.387 32.8491 128.985 33.33C128.583 33.811 128.242 34.2454 128.242 34.3075C128.242 34.3851 128.103 34.4316 127.933 34.4316C127.639 34.4316 127.623 34.3075 127.592 31.4372C127.546 28.4738 127.546 28.4582 127.206 28.4117L126.85 28.3651V33.33Z" fill="white"/>
</svg>
