<svg width="133" height="19" viewBox="0 0 133 19" fill="none" xmlns="http://www.w3.org/2000/svg">
<path d="M37.24 18.1091C36.8321 8.05454 28.6571 0 18.62 0C8.6716 0 0.532 7.92726 0.0177331 17.8909C-2.70853e-07 18.2182 0 18.5454 0 18.8727H4.82347C4.82347 18.5636 4.8412 18.2363 4.85893 17.9273C5.33773 10.6545 11.3316 4.89091 18.62 4.89091C25.9439 4.89091 31.9555 10.7091 32.3988 18C32.4165 18.2909 32.4343 18.5818 32.4165 18.8545H37.24C37.2577 18.6363 37.24 18.3636 37.24 18.1091Z" fill="white"/>
<path d="M18.6201 6.30912C12.041 6.30912 6.65007 11.5091 6.22447 18.0546C6.20674 18.3273 6.189 18.6 6.189 18.8909H11.0302C11.0302 18.6 11.0479 18.2909 11.0834 18C11.6154 13.7273 15.4281 10.7091 19.5777 11.2546C23.0357 11.7091 25.7489 14.5091 26.1567 18.0546C26.1922 18.3273 26.2099 18.6 26.1922 18.8909H31.0157C31.0157 18.6182 31.0157 18.3637 30.9979 18.0909C30.6078 11.5091 25.2169 6.30912 18.6201 6.30912Z" fill="white"/>
<path d="M18.62 12.6C15.6585 12.5818 13.1227 14.7273 12.5375 17.6909C12.4665 18.0909 12.4133 18.4909 12.4133 18.8909H24.8267C24.8267 15.4 22.0603 12.6 18.6555 12.6C18.6555 12.6 18.6377 12.6 18.62 12.6Z" fill="white"/>
<path d="M51.1961 18.6545V4.4182H57.4737V0.345473H40.166V4.4182H46.3549V18.6545H51.1961ZM77.3173 9.5091C77.3173 15.1455 73.1855 19 67.9541 19C62.7228 19 58.5732 15.1455 58.5732 9.5091C58.5732 3.87274 62.7051 0.0181996 67.9364 0.0181996C73.1677 0.0181996 77.3173 3.87274 77.3173 9.5091ZM72.2988 9.5091C72.2988 6.40001 70.6141 4.36365 67.9364 4.36365C65.2587 4.36365 63.574 6.40001 63.574 9.5091C63.574 12.6182 65.2587 14.6546 67.9364 14.6546C70.6141 14.6546 72.2988 12.6182 72.2988 9.5091ZM84.8185 14.7636H86.7337C89.8903 14.7636 91.7523 12.8546 91.7523 9.47274C91.7523 6.16365 89.8903 4.23638 86.7337 4.23638H84.8185V14.7636ZM79.9419 18.6545V0.363653H87.0707C93.0645 0.363653 96.7531 3.80002 96.7531 9.5091C96.7531 15.2182 93.0645 18.6545 87.0707 18.6545H79.9419ZM104.343 0.363653H109.787L116.969 18.6545H111.791L110.443 15.1091H103.385L102.038 18.6545H97.1432L104.343 0.363653ZM106.861 6.01819L104.804 11.4182H109.042L106.985 6.01819H106.861ZM123.885 6.94547L127.751 0.345473H133L126.066 11.7091V18.6545H121.331V11.7091L114.398 0.345473H119.806L123.885 6.94547Z" fill="white"/>
</svg>
