<svg width="84" height="38" viewBox="0 0 84 38" fill="none" xmlns="http://www.w3.org/2000/svg">
<path d="M26.6026 0.019195C26.6026 0.00206611 19.3741 0.019195 19.3741 0.019195C8.67422 0.019195 0 8.51743 0 19.0002C0 29.4829 8.67422 37.9812 19.3741 37.9812L32.9654 37.97C36.3799 37.97 39.1479 35.2793 39.1479 31.9339L39.1551 20.357L48.5492 34.8734C49.8197 36.7572 52.0006 38 54.4778 38C58.3993 38 61.5786 34.8853 61.5786 31.0432L61.5765 20.3569L70.9706 34.8733C72.2411 36.7571 74.422 37.9999 76.8992 37.9999C80.8207 37.9999 84 34.8852 84 31.0431L83.9979 0.00206611H79.1642V31.0435C79.1642 32.269 78.1502 33.2625 76.8993 33.2625C76.1175 33.2625 75.4282 32.8746 75.0212 32.2842L58.3006 6.48104C58.197 6.33338 58.0479 6.22207 57.8751 6.1634C57.7023 6.10472 57.5148 6.10175 57.3402 6.15492C57.1655 6.20809 57.0128 6.31461 56.9044 6.4589C56.7959 6.6032 56.7374 6.77769 56.7375 6.95688L56.7428 31.0436C56.7428 32.2691 55.7288 33.2626 54.4779 33.2626C53.6961 33.2626 53.0069 32.8747 52.5998 32.2843L35.8792 6.48104C35.7756 6.33341 35.6264 6.22213 35.4536 6.16347C35.2808 6.10481 35.0934 6.10185 34.9187 6.15501C34.7441 6.20817 34.5914 6.31467 34.4829 6.45895C34.3745 6.60322 34.316 6.7777 34.316 6.95688L34.3122 31.9342C34.3122 32.663 33.7094 33.2535 32.9655 33.2535L19.3742 33.2435C11.345 33.2434 4.83589 26.8663 4.83589 19.0002C4.83589 11.134 11.345 4.75685 19.3741 4.75685L26.6026 4.75163V0.019195Z" fill="white"/>
<path d="M27.3818 27.1595C27.5644 27.1595 27.7396 27.0884 27.8688 26.9619C27.9979 26.8353 28.0705 26.6637 28.0705 26.4848L28.0723 6.95663C28.0722 3.11478 31.2514 0 35.1729 0C37.6589 0 39.8467 1.25174 41.1152 3.14698L50.4767 17.5345L50.4936 6.95676C50.4936 3.11478 53.6726 0 57.5943 0C60.0803 0 62.268 1.25174 63.5366 3.14698L72.898 17.5345V0.00206518H77.7649L77.7562 31.0435C77.7562 31.2197 77.6996 31.3914 77.5944 31.5343C77.4892 31.6773 77.3408 31.7841 77.1702 31.8399C76.9995 31.8956 76.8153 31.8973 76.6437 31.8447C76.472 31.7922 76.3215 31.6881 76.2136 31.5472L59.4724 5.71607C59.0654 5.12591 58.3761 4.73778 57.5943 4.73778C56.3434 4.73778 55.3294 5.73125 55.3294 6.95676L55.3348 31.0435C55.3347 31.2197 55.2781 31.3914 55.1729 31.5343C55.0677 31.6772 54.9193 31.7841 54.7486 31.8398C54.578 31.8955 54.3938 31.8972 54.2221 31.8447C54.0505 31.7922 53.9 31.6881 53.7921 31.5472L37.0511 5.71607C36.644 5.12591 35.9548 4.73778 35.1729 4.73778C33.9221 4.73778 32.9081 5.73125 32.9081 6.95676L32.9183 31.2343C32.9183 31.4133 32.8457 31.5849 32.7165 31.7114C32.5874 31.838 32.4122 31.909 32.2296 31.909L19.3741 31.9065C12.1225 31.9065 6.24375 26.1047 6.24375 19.0003C6.24375 11.8958 12.1225 6.09387 19.3741 6.09387C19.3741 6.09387 26.6026 6.0663 26.6026 6.09387V10.8794L19.3741 10.874C14.7932 10.874 11.0796 14.5123 11.0796 19.0003C11.0796 23.4881 14.7932 27.1687 19.3741 27.1687L27.3818 27.1595Z" fill="white"/>
</svg>
