<svg width="85" height="38" viewBox="0 0 85 38" fill="none" xmlns="http://www.w3.org/2000/svg">
<path d="M10.3254 10.384V15.3233H20.3804V25.6514H10.3254V37.8873H0V0H21.948L22.6509 10.384H10.3254Z" fill="white"/>
<path d="M52.1288 5.82391C55.5543 9.45435 57.268 13.8368 57.268 18.9705C57.268 24.1413 55.5541 28.5417 52.1288 32.1726C48.7027 35.8029 44.5706 37.618 39.7322 37.618C34.8583 37.618 30.7077 35.8029 27.2824 32.1726C23.8562 28.5418 22.1436 24.1413 22.1436 18.9705C22.1436 13.8367 23.8562 9.45435 27.2824 5.82391C30.7077 2.19347 34.8583 0.378174 39.7322 0.378174C44.5705 0.378174 48.7027 2.19347 52.1288 5.82391ZM36.7654 26.5614C36.7654 27.4056 37.0651 28.1386 37.666 28.7618C38.2661 29.3857 38.9905 29.6971 39.8381 29.6971C40.6858 29.6971 41.401 29.3857 41.9837 28.7618C42.5667 28.1386 42.858 27.4056 42.858 26.5614V11.2145C42.858 10.3345 42.5667 9.58325 41.9837 8.95931C41.4011 8.33631 40.6859 8.02419 39.8381 8.02419C38.9905 8.02419 38.2662 8.33631 37.666 8.95931C37.065 9.58325 36.7654 10.3345 36.7654 11.2145V26.5614Z" fill="white"/>
<path d="M73.3769 38L68.1875 28.4015L63.16 38H51.8076L62.6195 18.3544L52.4022 0H64.0791L68.3499 8.19492L72.6745 0H83.9726L73.9717 18.242L84.9998 37.9998H73.3769V38Z" fill="white"/>
</svg>
