<svg width="76" height="44" viewBox="0 0 76 44" fill="none" xmlns="http://www.w3.org/2000/svg">
<path fill-rule="evenodd" clip-rule="evenodd" d="M0 1.07534C0 1.66677 0.0496209 2.15068 0.11041 2.15068C0.171071 2.15068 0.287953 1.81049 0.369936 1.39478C0.472604 0.874565 0.605349 0.578658 0.795457 0.445948C0.947365 0.339806 1.11615 0.253021 1.17047 0.253021C1.22466 0.253021 1.26908 1.56038 1.26908 3.15833C1.26908 5.93409 1.25778 6.06959 1.01526 6.19901C0.875663 6.27352 0.761446 6.38941 0.761446 6.45646C0.761446 6.52477 1.20918 6.57854 1.77671 6.57854C2.42685 6.57854 2.79197 6.52882 2.79197 6.44014C2.79197 6.3641 2.67775 6.272 2.53815 6.2357C2.29347 6.17193 2.28434 6.06314 2.28434 3.21121C2.28434 1.58429 2.3167 0.253021 2.35617 0.253021C2.39564 0.253021 2.53244 0.308812 2.66011 0.376875C2.78778 0.444937 2.9553 0.681133 3.03246 0.901767C3.10962 1.1224 3.17269 1.46183 3.17269 1.65602C3.17269 1.85034 3.2298 2.04441 3.2996 2.08742C3.38044 2.13727 3.42651 1.77241 3.42651 1.0828V0H1.71325H0V1.07534ZM3.68032 0.112974C3.68032 0.175091 3.76598 0.258714 3.87068 0.298817C4.03224 0.360554 4.06104 0.812069 4.06104 3.28535C4.06104 5.79088 4.03439 6.19901 3.87068 6.19901C3.76598 6.19901 3.68032 6.2844 3.68032 6.38877C3.68032 6.54059 3.87068 6.57854 4.63213 6.57854C5.15892 6.57854 5.58394 6.52401 5.58394 6.45646C5.58394 6.38941 5.46972 6.27352 5.33012 6.19901C5.10004 6.07629 5.0763 5.93409 5.0763 4.67646V3.28927H5.7743H6.47229V4.67646C6.47229 5.93409 6.44856 6.07629 6.21847 6.19901C6.07887 6.27352 5.96466 6.38941 5.96466 6.45646C5.96466 6.52401 6.38967 6.57854 6.91647 6.57854C7.67791 6.57854 7.86827 6.54059 7.86827 6.38877C7.86827 6.2844 7.78261 6.19901 7.67791 6.19901C7.5142 6.19901 7.48755 5.79088 7.48755 3.28535C7.48755 0.812069 7.51636 0.360554 7.67791 0.298817C7.78261 0.258714 7.86827 0.175091 7.86827 0.112974C7.86827 0.0508578 7.43996 0 6.91647 0C6.39297 0 5.96466 0.0531342 5.96466 0.118034C5.96466 0.182934 6.07887 0.272124 6.21847 0.316276C6.45097 0.389778 6.47229 0.507686 6.47229 1.71637V3.03625H5.7743H5.0763V1.77216C5.0763 0.645202 5.10384 0.491114 5.33012 0.350181C5.46972 0.263269 5.58394 0.148903 5.58394 0.0960217C5.58394 0.0432669 5.15562 0 4.63213 0C4.10863 0 3.68032 0.0508578 3.68032 0.112974ZM8.12209 0.0809666C8.12209 0.125498 8.21816 0.231893 8.33555 0.31754C8.52312 0.454172 8.55053 0.793725 8.56055 3.11468C8.5669 4.56753 8.54977 5.85579 8.52261 5.97761C8.49545 6.09944 8.39418 6.19901 8.2976 6.19901C8.20115 6.19901 8.12209 6.2844 8.12209 6.38877C8.12209 6.54767 8.38999 6.57854 9.77189 6.57854H11.4217V5.43248C11.4217 4.80221 11.3723 4.31691 11.3119 4.35411C11.2515 4.3913 11.17 4.66014 11.1308 4.95149C11.0916 5.24284 10.9497 5.62857 10.8154 5.80847C10.634 6.052 10.4365 6.14575 10.0447 6.17459L9.51807 6.21356V4.743V3.27244L9.86707 3.31255C10.1637 3.34658 10.234 3.43324 10.3356 3.89019C10.4013 4.18598 10.5014 4.42786 10.5577 4.42786C10.614 4.42786 10.6602 3.85857 10.6602 3.16276C10.6602 2.46695 10.6077 1.89766 10.5434 1.89766C10.4791 1.89766 10.3869 2.08274 10.3384 2.30881C10.2899 2.53489 10.1927 2.7912 10.1224 2.87811C10.0521 2.96515 9.88737 3.03625 9.7564 3.03625C9.53838 3.03625 9.51807 2.92289 9.51807 1.70397C9.51807 0.635461 9.55589 0.357138 9.70869 0.29869C9.81351 0.258586 10.0413 0.261245 10.2148 0.304638C10.3881 0.348031 10.6217 0.52274 10.7335 0.693023C10.8454 0.86318 10.968 1.23373 11.0061 1.51635C11.0441 1.7991 11.1246 2.06073 11.185 2.09792C11.2454 2.13511 11.2948 1.67829 11.2948 1.0828V0H9.70843C8.83594 0 8.12209 0.0364349 8.12209 0.0809666ZM12.7598 0.117401C12.7198 0.181921 12.797 0.269593 12.9313 0.3121C13.0964 0.364223 13.2188 0.582454 13.3096 0.985389C13.3833 1.31318 13.6796 2.69151 13.9681 4.04833C14.2565 5.40516 14.513 6.53654 14.538 6.5626C14.563 6.58853 14.6634 6.57917 14.7613 6.54172C14.8591 6.50428 14.9781 6.22684 15.0257 5.92524C15.0732 5.62351 15.234 4.72795 15.383 3.93498C15.5674 2.95288 15.6834 2.57297 15.7466 2.74338C15.7977 2.88102 15.9928 3.75748 16.1802 4.69113C16.3675 5.6249 16.5752 6.4452 16.6417 6.51427C16.721 6.59676 16.7961 6.58537 16.8607 6.481C16.9148 6.39383 17.2286 5.02803 17.5582 3.44589C18.0195 1.23057 18.2145 0.520969 18.4063 0.359289C18.5434 0.243785 18.6554 0.11563 18.6554 0.0746407C18.6554 0.0335248 18.3733 0 18.0284 0C17.6834 0 17.3701 0.0504778 17.3318 0.112088C17.2936 0.173825 17.3837 0.255931 17.532 0.294517C17.7753 0.358025 17.7937 0.424442 17.7197 0.973118C17.6746 1.30761 17.5031 2.20761 17.3386 2.97299C17.0516 4.30882 17.0356 4.34437 16.9394 3.85857C16.8842 3.58024 16.7118 2.7263 16.5564 1.96091C16.2796 0.59928 16.2787 0.564742 16.5127 0.359289C16.6442 0.243785 16.7518 0.11563 16.7518 0.0746407C16.7518 0.0335248 16.352 0 15.8635 0C15.3749 0 14.9751 0.0499724 14.9751 0.111077C14.9751 0.172055 15.0572 0.289962 15.1575 0.372952C15.2577 0.455817 15.3738 0.81865 15.4156 1.17908C15.4648 1.60453 15.4063 2.25593 15.2486 3.03625C15.1151 3.69727 14.9733 4.1527 14.9337 4.04833C14.894 3.94396 14.7101 3.09343 14.5251 2.15814C14.2192 0.612817 14.2071 0.444179 14.3915 0.309825C14.503 0.228478 14.5944 0.125498 14.5944 0.0809666C14.5944 0.0364349 14.198 0 13.7135 0C13.229 0 12.7999 0.0528805 12.7598 0.117401ZM19.3566 0.158138C19.3279 0.245177 19.1045 1.28408 18.8602 2.46695C18.6161 3.64982 18.35 4.92214 18.2689 5.29433C18.1878 5.66653 18.0131 6.06339 17.8808 6.17636C17.7484 6.28934 17.6402 6.42597 17.6402 6.48011C17.6402 6.53426 17.9162 6.57854 18.2535 6.57854C18.5909 6.57854 18.9076 6.53806 18.9572 6.48846C19.007 6.439 18.9231 6.3049 18.7709 6.19041C18.5291 6.00874 18.5054 5.90803 18.5826 5.39491L18.671 4.80739H19.2257C19.6457 4.80739 19.7957 4.86116 19.843 5.02879C19.8774 5.15062 19.9429 5.43488 19.9885 5.66071C20.0622 6.02581 20.0329 6.08578 19.7235 6.20306C19.4949 6.28972 19.4184 6.37764 19.5006 6.45962C19.5765 6.53527 20.5705 6.57069 22.0277 6.54982L24.4297 6.51528L24.4672 5.51522C24.4877 4.96515 24.4521 4.46278 24.3878 4.39877C24.3168 4.32792 24.2386 4.49808 24.1881 4.83358C24.1425 5.13683 23.9934 5.5681 23.8569 5.79202C23.6655 6.10564 23.5208 6.19901 23.226 6.19901H22.8434V3.29775C22.8434 0.507686 22.8531 0.393447 23.0972 0.316276C23.2368 0.272124 23.351 0.182934 23.351 0.118034C23.351 0.0531342 22.9227 0 22.3992 0C21.83 0 21.4474 0.0525025 21.4474 0.130433C21.4474 0.202291 21.533 0.293757 21.6377 0.333734C21.7993 0.395598 21.8281 0.845089 21.8281 3.30281V6.19901H21.5183C21.3479 6.19901 21.1739 6.14309 21.1315 6.07465C21.0891 6.00633 20.7998 4.76805 20.4886 3.32305C20.1774 1.87805 19.8901 0.539187 19.8501 0.347904C19.8102 0.15662 19.6945 0 19.5931 0C19.4919 0 19.3854 0.0712253 19.3566 0.158138ZM24.6201 0.0960217C24.6201 0.148903 24.7343 0.263269 24.8739 0.350181C25.1151 0.500349 25.1277 0.645204 25.1277 3.28585C25.1277 5.94687 25.1169 6.06933 24.8703 6.20091C24.7288 6.27643 24.6465 6.39232 24.6875 6.45835C24.7285 6.52452 25.4153 6.57854 26.2139 6.57854H27.6659V5.43248C27.6659 4.70062 27.62 4.31464 27.539 4.36461C27.4692 4.40762 27.412 4.6065 27.412 4.80664C27.412 5.00677 27.3598 5.30762 27.2958 5.47537C27.2318 5.64299 27.085 5.87438 26.9694 5.98963C26.8539 6.10476 26.5921 6.19901 26.3878 6.19901H26.0161V3.47069C26.0161 1.832 26.0685 0.644698 26.1474 0.497693C26.2197 0.363085 26.3658 0.253021 26.4722 0.253021C26.5785 0.253021 26.6303 0.196091 26.5871 0.12651C26.544 0.0569297 26.0838 0 25.5644 0C25.045 0 24.6201 0.0432669 24.6201 0.0960217ZM30.1096 0.13018C29.953 0.192929 29.7105 0.431273 29.5707 0.659751C29.431 0.888355 29.3164 1.25663 29.3162 1.47827C29.3159 1.69992 29.3692 2.02164 29.4347 2.19331C29.5002 2.36511 29.8903 2.89532 30.3016 3.37175C30.713 3.84832 31.1219 4.37308 31.2105 4.53805C31.2991 4.70302 31.3716 5.02347 31.3716 5.25018C31.3716 5.47689 31.3067 5.78304 31.2275 5.93068C31.1335 6.10564 30.9603 6.19901 30.7293 6.19901C30.5248 6.19901 30.2604 6.07718 30.1035 5.91069C29.954 5.75217 29.7635 5.32748 29.68 4.96705C29.5966 4.60662 29.4805 4.3412 29.422 4.37726C29.3635 4.41331 29.3157 4.89481 29.3157 5.44741C29.3157 6.00001 29.3679 6.45203 29.432 6.45203C29.496 6.45203 29.5746 6.38093 29.6067 6.29389C29.6507 6.17434 29.7642 6.18977 30.0716 6.35715C30.2954 6.47898 30.5935 6.57854 30.7341 6.57854C30.8747 6.57854 31.1478 6.48543 31.3411 6.37157C31.5344 6.25784 31.7968 5.98849 31.9245 5.7733C32.058 5.54786 32.1559 5.13923 32.155 4.80992C32.1541 4.49542 32.0555 4.03884 31.9357 3.79531C31.816 3.55178 31.4562 3.06788 31.1363 2.71997C30.8163 2.37207 30.4474 1.91663 30.3163 1.70789C30.1852 1.49915 30.0779 1.18059 30.0776 1.00006C30.0774 0.819534 30.1873 0.57246 30.3218 0.45101C30.4833 0.30527 30.6599 0.259726 30.8411 0.317162C30.9957 0.365995 31.2204 0.63369 31.3551 0.929472C31.4867 1.21842 31.5957 1.61149 31.5972 1.80277C31.5987 1.99406 31.6571 2.15068 31.7269 2.15068C31.8011 2.15068 31.8538 1.72383 31.8538 1.12316C31.8538 0.237461 31.8283 0.116643 31.6689 0.248467C31.5225 0.369664 31.4242 0.359796 31.1964 0.200773C31.0383 0.0903291 30.7932 0.00366925 30.6516 0.0079706C30.5101 0.0123985 30.2662 0.0674309 30.1096 0.13018ZM32.1923 0.0843834C32.1457 0.130686 32.1076 0.614588 32.1076 1.15972C32.1076 1.73598 32.1607 2.15068 32.2345 2.15068C32.3043 2.15068 32.3614 2.01683 32.3614 1.85325C32.3614 1.68967 32.4267 1.36239 32.5064 1.12582C32.5859 0.889368 32.7376 0.596243 32.8433 0.474414C32.9489 0.352584 33.1121 0.253021 33.206 0.253021C33.3441 0.253021 33.3767 0.808907 33.3767 3.15833C33.3767 5.93409 33.3654 6.06959 33.1229 6.19901C32.9833 6.27352 32.8691 6.38941 32.8691 6.45646C32.8691 6.52389 33.2914 6.57854 33.8134 6.57854C34.3458 6.57854 34.7943 6.51959 34.8415 6.44355C34.8875 6.36916 34.8053 6.27732 34.6586 6.23898C34.3973 6.17092 34.392 6.11032 34.392 3.21121C34.392 1.58429 34.4243 0.253021 34.4638 0.253021C34.5033 0.253021 34.6401 0.308812 34.7677 0.376875C34.8954 0.444937 35.0629 0.681133 35.1401 0.901767C35.2172 1.1224 35.2803 1.49358 35.2803 1.72674C35.2803 1.9599 35.3374 2.15068 35.4072 2.15068C35.4818 2.15068 35.5341 1.70789 35.5341 1.07534V0H33.9055C33.0097 0 32.2387 0.0379541 32.1923 0.0843834ZM35.7879 0.112974C35.7879 0.175091 35.8736 0.258714 35.9783 0.298817C36.1399 0.360554 36.1687 0.812069 36.1687 3.28535C36.1687 5.79088 36.142 6.19901 35.9783 6.19901C35.8736 6.19901 35.7879 6.2844 35.7879 6.38877C35.7879 6.53919 35.9704 6.57854 36.6688 6.57854C37.1533 6.57854 37.5832 6.52452 37.6242 6.45835C37.6652 6.39232 37.5828 6.27643 37.4413 6.20091C37.2068 6.07579 37.1839 5.94055 37.1839 4.67646C37.1839 3.38187 37.2006 3.28927 37.4333 3.28927C37.5704 3.28927 37.7417 3.39933 37.814 3.53394C37.8862 3.66855 37.9454 4.18281 37.9454 4.67658C37.9454 5.17617 38.0272 5.77001 38.13 6.01506C38.2316 6.25733 38.403 6.48935 38.511 6.53072C38.619 6.57196 38.8486 6.57044 39.0212 6.5273C39.2374 6.47328 39.3697 6.32147 39.4464 6.03923C39.5077 5.81404 39.5266 5.57455 39.4884 5.50712C39.4502 5.43969 39.3685 5.57835 39.307 5.81518C39.2221 6.1417 39.1671 6.20192 39.0798 6.06427C39.0164 5.96446 38.9604 5.54115 38.9554 5.12367C38.9504 4.70619 38.8781 4.16687 38.7949 3.92511C38.7115 3.68335 38.5163 3.42261 38.3609 3.34569L38.0785 3.20577L38.4677 2.91885C38.6819 2.76109 38.9407 2.43241 39.043 2.1885C39.1595 1.91031 39.1963 1.59719 39.1416 1.34873C39.0935 1.13088 38.9727 0.82839 38.8729 0.676704C38.7733 0.525144 38.4656 0.31071 38.189 0.20052C37.8871 0.0800819 37.3074 0 36.7372 0C36.2151 0 35.7879 0.0508578 35.7879 0.112974ZM39.4683 0.111708C39.4683 0.173192 39.5825 0.253273 39.7221 0.289708C39.9666 0.353469 39.9759 0.46227 39.9759 3.27738C39.9759 5.79 39.9492 6.19901 39.7855 6.19901C39.6808 6.19901 39.5952 6.28605 39.5952 6.39257C39.5952 6.55804 39.8301 6.58094 41.2132 6.55071L42.8313 6.51528L42.8681 5.39769C42.89 4.73579 42.8571 4.30958 42.7877 4.35246C42.7231 4.39219 42.6322 4.6776 42.5858 4.98666C42.5392 5.29572 42.3857 5.69499 42.2446 5.87388C42.0468 6.12449 41.8737 6.19901 41.4895 6.19901H40.9912V4.73579V3.27244L41.3402 3.31255C41.638 3.34671 41.7058 3.43134 41.8024 3.89019C41.8647 4.18598 41.9645 4.42786 42.0244 4.42786C42.0843 4.42786 42.1333 3.85857 42.1333 3.16276C42.1333 2.46695 42.0808 1.89766 42.0164 1.89766C41.9522 1.89766 41.86 2.08274 41.8115 2.30881C41.763 2.53489 41.6658 2.7912 41.5955 2.87811C41.5252 2.96515 41.3605 3.03625 41.2295 3.03625C41.0108 3.03625 40.9912 2.92163 40.9912 1.64463V0.253021H41.3168C41.4959 0.253021 41.7577 0.314505 41.8985 0.389652C42.0395 0.464926 42.2356 0.719212 42.3345 0.954901C42.4332 1.19059 42.5141 1.52432 42.5141 1.69638C42.5141 1.86843 42.5712 2.04441 42.641 2.08742C42.7218 2.13727 42.7679 1.77241 42.7679 1.0828V0H41.1181C40.2107 0 39.4683 0.0503506 39.4683 0.111708ZM43.0907 0.117401C43.0507 0.181921 43.133 0.271238 43.2736 0.315643C43.5199 0.393573 43.5293 0.500854 43.5293 3.23006C43.5293 5.9823 43.5216 6.06769 43.2619 6.20622C43.095 6.29528 43.0393 6.39371 43.1137 6.46784C43.1793 6.53325 43.9416 6.57057 44.8088 6.55096L46.3847 6.51528L46.4224 5.57835C46.4431 5.06294 46.422 4.55058 46.3755 4.43975C46.321 4.31008 46.2274 4.50668 46.113 4.99007C46.0152 5.40376 45.842 5.84491 45.7279 5.97053C45.5964 6.11538 45.3418 6.19901 45.0325 6.19901H44.5446V4.74414C44.5446 3.42755 44.5663 3.28927 44.773 3.28927C44.8986 3.28927 45.07 3.35758 45.1537 3.44108C45.2375 3.52458 45.3069 3.70966 45.3079 3.85224C45.3091 3.99494 45.3653 4.19698 45.4329 4.30135C45.5168 4.43065 45.5565 4.07566 45.5579 3.18692C45.5592 2.34917 45.5144 1.91069 45.4329 1.96091C45.3631 2.00392 45.306 2.17395 45.306 2.33892C45.306 2.50377 45.2163 2.72807 45.1066 2.8375C44.9969 2.94681 44.8255 3.03625 44.7259 3.03625C44.5797 3.03625 44.5446 2.7664 44.5446 1.64463V0.253021H44.931C45.1702 0.253021 45.4341 0.369158 45.6232 0.557658C45.8279 0.76172 45.9571 1.07496 46.0144 1.50649C46.0616 1.86084 46.15 2.15068 46.2107 2.15068C46.2715 2.15068 46.3213 1.66677 46.3213 1.07534V0H44.7424C43.874 0 43.1308 0.0528805 43.0907 0.117401ZM46.5751 1.07534C46.5751 1.66677 46.6248 2.15068 46.6856 2.15068C46.7464 2.15068 46.834 1.86704 46.8801 1.52053C46.9307 1.13998 47.0798 0.756026 47.2563 0.551332C47.4246 0.35638 47.6114 0.251123 47.6965 0.303499C47.8018 0.368272 47.8442 1.21374 47.8442 3.24537C47.8442 5.98976 47.8347 6.09869 47.5904 6.16232C47.4508 6.19876 47.3365 6.3073 47.3365 6.40358C47.3365 6.53692 47.5614 6.57854 48.2809 6.57854C48.8003 6.57854 49.2606 6.52148 49.3037 6.45178C49.347 6.38207 49.2351 6.26922 49.055 6.20103L48.7277 6.07693L48.7618 3.19666C48.7898 0.836234 48.8278 0.316276 48.9726 0.316276C49.0698 0.316276 49.2617 0.466317 49.399 0.649757C49.5364 0.833071 49.6785 1.24587 49.7148 1.56696C49.7511 1.88804 49.8305 2.15068 49.8912 2.15068C49.952 2.15068 50.0016 1.66677 50.0016 1.07534V0H48.2883H46.5751V1.07534ZM52.4763 0.12651C52.4332 0.196091 52.4849 0.253021 52.5913 0.253021C52.6976 0.253021 52.8437 0.363085 52.916 0.497693C52.9929 0.641029 53.0443 1.65008 53.04 2.93302C53.0361 4.1379 52.9926 5.35139 52.9434 5.62971C52.8673 6.06086 52.8025 6.1417 52.5057 6.17586C52.2752 6.20242 52.131 6.14689 52.0788 6.01127C52.0321 5.89007 52.11 5.6898 52.2698 5.52028C52.4183 5.36277 52.5398 5.13986 52.5398 5.02512C52.5398 4.91025 52.4309 4.75818 52.2977 4.68721C52.1136 4.58891 51.9873 4.6132 51.7702 4.78854C51.5685 4.95124 51.4883 5.14581 51.497 5.45083C51.5058 5.76407 51.6164 5.97825 51.8995 6.23064C52.1142 6.42192 52.4175 6.57829 52.5735 6.57803C52.7295 6.57778 53.0441 6.46392 53.2726 6.32501C53.5012 6.1861 53.744 5.92638 53.812 5.74787C53.88 5.56949 53.9357 4.32033 53.9357 2.97198C53.9357 0.666457 53.9508 0.509836 54.1888 0.343728C54.3279 0.246568 54.404 0.129421 54.358 0.0834973C54.3119 0.037574 53.8873 0 53.4144 0C52.9415 0 52.5194 0.0569297 52.4763 0.12651ZM55.5838 0.183314C55.4082 0.27845 55.1391 0.579038 54.9855 0.851289C54.8321 1.12354 54.6417 1.76267 54.5625 2.27175C54.4832 2.78082 54.4558 3.51686 54.5014 3.9074C54.5469 4.29806 54.6705 4.88545 54.7759 5.21261C54.8926 5.57519 55.1396 5.95826 55.4079 6.19306C55.6843 6.43508 55.9866 6.57854 56.2201 6.57854C56.4536 6.57854 56.7559 6.43508 57.0323 6.19306C57.2992 5.95952 57.5488 5.57329 57.6659 5.21261C57.7723 4.88545 57.8949 4.27605 57.9384 3.85857C57.9819 3.44108 57.9579 2.73781 57.8851 2.29566C57.8124 1.8535 57.6305 1.23993 57.481 0.932255C57.3276 0.616106 57.0521 0.291607 56.8479 0.186351C56.6491 0.0838773 56.3551 0.00227634 56.1947 0.00505957C56.0342 0.00784279 55.7593 0.0880519 55.5838 0.183314ZM57.9968 0.0960217C57.9968 0.148903 58.1078 0.261244 58.2435 0.345753C58.4729 0.488583 58.4929 0.685181 58.529 3.17351L58.5679 5.84769L59.0072 6.21305C59.3103 6.46506 59.5859 6.57829 59.8956 6.57791C60.1699 6.57753 60.4828 6.46683 60.7 6.29326C60.915 6.12146 61.1018 5.80936 61.1729 5.5032C61.2375 5.22488 61.2917 3.96155 61.2933 2.69581C61.2952 1.21868 61.3445 0.364855 61.4305 0.311848C61.5043 0.26643 61.7041 0.264154 61.8747 0.306788L62.1847 0.384338V3.22399C62.1847 5.94725 62.1742 6.06921 61.9274 6.20091C61.7859 6.27643 61.7035 6.39232 61.7445 6.45835C61.7855 6.52452 62.2153 6.57854 62.6998 6.57854C63.3982 6.57854 63.5807 6.53919 63.5807 6.38877C63.5807 6.2844 63.4951 6.19901 63.3904 6.19901C63.2322 6.19901 63.2 5.95307 63.2 4.74414C63.2 3.40528 63.219 3.28927 63.4383 3.28927C63.5693 3.28927 63.7329 3.36049 63.8017 3.44741C63.8706 3.53445 63.9639 4.11791 64.0092 4.74414C64.0674 5.55039 64.1594 5.97508 64.3245 6.19901C64.4527 6.37296 64.7035 6.53274 64.8818 6.55412C65.1044 6.58082 65.2695 6.50263 65.4086 6.30464C65.52 6.146 65.6112 5.88653 65.6112 5.72801C65.6112 5.56962 65.5541 5.43995 65.4843 5.43995C65.4145 5.43995 65.3574 5.58227 65.3574 5.75622C65.3574 5.93017 65.3081 6.0725 65.2476 6.0725C65.1872 6.0725 65.0791 5.54811 65.0073 4.90734C64.8921 3.8783 64.8365 3.70751 64.5314 3.44602C64.3414 3.28307 64.2069 3.13189 64.2324 3.11013C64.2579 3.08837 64.4066 3.00424 64.563 2.92315C64.7192 2.84206 64.9398 2.59713 65.053 2.37903C65.1905 2.11373 65.238 1.79797 65.1959 1.42603C65.1575 1.08685 65.0195 0.749448 64.8422 0.561201C64.6823 0.39155 64.3472 0.196091 64.0977 0.127016C63.8482 0.0579415 62.916 0.00113818 62.0261 0.000758645C61.1362 0.000379114 60.408 0.0432669 60.408 0.0960217C60.408 0.148903 60.5222 0.263269 60.6618 0.350181C60.9016 0.499337 60.9157 0.645202 60.9157 2.96578C60.9157 4.31754 60.8618 5.56468 60.796 5.73712C60.7302 5.90968 60.5589 6.08806 60.4153 6.13347C60.2717 6.17889 60.0406 6.18016 59.9019 6.13626C59.7602 6.09135 59.6008 5.87982 59.5379 5.65324C59.4765 5.4316 59.4166 4.23987 59.4048 3.005C59.3915 1.6082 59.4349 0.664054 59.5195 0.506422C59.5943 0.367007 59.7425 0.253021 59.8489 0.253021C59.9552 0.253021 60.007 0.196091 59.9638 0.12651C59.9207 0.0569297 59.4605 0 58.9411 0C58.4217 0 57.9968 0.0432669 57.9968 0.0960217ZM65.6112 0.0683147C65.6112 0.113226 65.7255 0.294643 65.8651 0.471505C66.1005 0.769816 66.1189 0.984757 66.1189 3.42843C66.1189 5.9341 66.1064 6.07022 65.8651 6.19901C65.7255 6.27352 65.6112 6.38941 65.6112 6.45646C65.6112 6.52363 65.9253 6.57854 66.3092 6.57854C66.6931 6.57854 67.0072 6.54236 67.0072 6.49821C67.0072 6.45393 66.8645 6.28592 66.69 6.12462C66.3759 5.83453 66.3727 5.80999 66.3727 3.717C66.3727 2.55399 66.4071 1.63679 66.4491 1.67867C66.4911 1.72054 66.9486 2.79525 67.4659 4.06693C67.983 5.33861 68.4577 6.4304 68.5205 6.49302C68.5834 6.55577 68.697 6.5688 68.7729 6.52212C68.866 6.46468 68.9108 5.45525 68.9108 3.41679C68.9108 0.500474 68.9196 0.393826 69.1666 0.315643C69.3072 0.271238 69.3894 0.181921 69.3494 0.117401C69.3093 0.0528805 68.9659 0 68.5861 0C68.2062 0 67.8956 0.0433931 67.8956 0.0965275C67.8956 0.149535 68.0241 0.249225 68.1811 0.317921C68.4557 0.437979 68.4677 0.510849 68.4936 2.21393L68.5205 3.98508L67.7321 2.02417L66.9438 0.0632552L66.2775 0.0250488C65.911 0.00392157 65.6112 0.0235301 65.6112 0.0683147ZM70.6336 0.9172C70.5246 1.42172 70.2354 2.77336 69.9909 3.92094C69.6445 5.54672 69.489 6.05061 69.2864 6.20293C69.1433 6.31046 69.0669 6.439 69.1167 6.48846C69.1663 6.53806 69.4829 6.57854 69.8204 6.57854C70.1577 6.57854 70.4337 6.52857 70.4337 6.46746C70.4337 6.40636 70.3135 6.27681 70.1668 6.17965C69.9295 6.02265 69.9123 5.94017 70.0115 5.43678C70.1229 4.8728 70.1255 4.87052 70.7051 4.83282L71.2868 4.795L71.3665 5.27561C71.4103 5.53989 71.4468 5.84921 71.4476 5.96281C71.4484 6.07655 71.3348 6.19926 71.1952 6.2357C71.0556 6.272 70.9414 6.3641 70.9414 6.44014C70.9414 6.53553 71.6821 6.57791 73.3209 6.57664C74.6297 6.5755 75.7744 6.52793 75.8647 6.47075C75.9821 6.39649 76.0184 6.0811 75.9916 5.36568C75.9707 4.80588 75.9 4.37574 75.8311 4.39004C75.7635 4.40395 75.6429 4.70378 75.5633 5.05637C75.4836 5.40895 75.316 5.81024 75.1907 5.94814C75.0653 6.08629 74.8009 6.19901 74.602 6.19901H74.241V3.35354C74.241 0.645202 74.2531 0.500602 74.4948 0.350181C74.6344 0.263269 74.7486 0.148903 74.7486 0.0960217C74.7486 0.0432669 74.3203 0 73.7968 0C73.2733 0 72.845 0.0508578 72.845 0.112974C72.845 0.175091 72.9306 0.258714 73.0353 0.298817C73.1969 0.360554 73.2257 0.812956 73.2257 3.2937V6.21583L72.8775 6.17573C72.5306 6.13588 72.5268 6.12437 71.943 3.39857C71.6206 1.89297 71.3194 0.512493 71.2736 0.330698C71.2278 0.148776 71.1096 0 71.011 0C70.8914 0 70.766 0.304637 70.6336 0.9172ZM37.7433 0.418624C37.8683 0.509711 38.0177 0.83712 38.0752 1.14606C38.1327 1.45512 38.1493 1.93561 38.1121 2.21393C38.0749 2.49225 37.9868 2.7912 37.9159 2.87811C37.8452 2.96515 37.6516 3.03625 37.4857 3.03625C37.1862 3.03625 37.1839 3.02562 37.1839 1.64463C37.1839 0.582327 37.2233 0.253021 37.3501 0.253021C37.4414 0.253021 37.6183 0.327536 37.7433 0.418624ZM56.4342 0.352457C56.5172 0.404959 56.6456 0.606998 56.7197 0.801444C56.7962 1.00209 56.8538 2.09564 56.8527 3.32912C56.8514 4.82093 56.8008 5.60251 56.6912 5.81948C56.5934 6.01304 56.4019 6.15081 56.1976 6.17459C55.9133 6.20774 55.8414 6.14575 55.7126 5.75673C55.6203 5.47803 55.5619 4.50073 55.5628 3.25081C55.5637 2.01784 55.6222 1.05168 55.7098 0.824848C55.7897 0.617624 55.923 0.404959 56.006 0.352457C56.0889 0.299829 56.1852 0.256943 56.2201 0.256943C56.255 0.256943 56.3513 0.299829 56.4342 0.352457ZM63.9045 0.513253C64.0673 0.692519 64.1569 1.02676 64.1928 1.58834C64.2316 2.19786 64.1924 2.48289 64.0367 2.71972C63.9075 2.91644 63.7097 3.03625 63.5143 3.03625H63.2V1.64463C63.2 0.376368 63.2207 0.253021 63.4341 0.253021C63.5629 0.253021 63.7746 0.370044 63.9045 0.513253ZM19.4769 3.14657C19.5835 3.65159 19.6707 4.1465 19.6707 4.24632C19.6707 4.37043 19.5259 4.42786 19.2128 4.42786C18.8017 4.42786 18.762 4.39864 18.8247 4.14321C18.8632 3.98659 18.9648 3.47461 19.0506 3.00525C19.1365 2.53603 19.2238 2.16915 19.2449 2.19015C19.266 2.21102 19.3703 2.64141 19.4769 3.14657ZM70.9671 3.3209C71.0777 3.89487 71.1514 4.38257 71.131 4.40458C71.1105 4.4266 70.9004 4.4266 70.6642 4.40458L70.2346 4.36461L70.4236 3.3209C70.5275 2.74692 70.6471 2.27719 70.6893 2.27719C70.7314 2.27719 70.8565 2.74692 70.9671 3.3209ZM44.0081 7.52648C43.6084 7.62744 43.0087 7.84807 42.6756 8.01671C42.3425 8.18547 41.7784 8.55539 41.422 8.83877C41.0657 9.12216 40.5415 9.65464 40.2573 10.0222C39.973 10.3895 39.5599 11.053 39.3393 11.4964C39.1186 11.9398 38.8004 12.8437 38.6321 13.5051C38.4157 14.3556 38.3261 15.0566 38.3261 15.8999C38.3261 16.5557 38.4161 17.502 38.526 18.0028C38.636 18.5035 38.8666 19.2904 39.0387 19.7513C39.2106 20.2122 39.5533 20.9238 39.8 21.3327C40.0467 21.7416 40.4721 22.365 40.7452 22.7182C41.0183 23.0714 41.885 23.9845 42.671 24.7473C43.4572 25.5101 45.0997 26.929 46.321 27.9005C47.5423 28.8718 48.9882 30.0907 49.5342 30.6091C50.0802 31.1274 50.8071 31.9244 51.1496 32.3802C51.4921 32.836 51.9477 33.5535 52.1622 33.9745C52.3765 34.3955 52.6625 35.1641 52.7975 35.6824C52.9325 36.2007 53.044 37.0481 53.0452 37.5655C53.0464 38.0829 52.9544 38.8799 52.8408 39.3366C52.7271 39.7933 52.5211 40.3948 52.3831 40.6731C52.2451 40.9514 51.924 41.3975 51.6697 41.6643C51.4154 41.9311 50.9788 42.2685 50.6996 42.4141C50.3094 42.6175 49.9572 42.6793 49.1767 42.6811C48.268 42.6832 48.0616 42.6355 47.2095 42.2264C46.6859 41.9749 45.8234 41.4 45.2928 40.9486C44.7622 40.4974 43.9454 39.653 43.4778 39.0722C43.01 38.4915 42.3242 37.5609 41.9538 37.0043C41.5832 36.4476 41.017 35.5345 40.6957 34.9749C40.3743 34.4155 39.8782 33.462 39.5933 32.8559C39.0892 31.7837 39.0636 31.7541 38.6373 31.7541H38.1992V37.5103V43.2665H38.6864C39.092 43.2665 39.1997 43.2096 39.3291 42.9267C39.4145 42.7399 39.661 42.3555 39.8772 42.0728C40.0932 41.79 40.4465 41.4036 40.6622 41.214C40.8781 41.0244 41.2374 40.8074 41.4608 40.7318C41.7621 40.6298 41.9425 40.6332 42.1588 40.7451C42.3192 40.8281 42.9931 41.2774 43.6562 41.7436C44.3193 42.2099 45.1188 42.7356 45.4329 42.9117C45.747 43.0878 46.3752 43.3608 46.8289 43.5183C47.368 43.7054 48.0715 43.8257 48.8594 43.8654C49.746 43.9102 50.2833 43.8696 50.89 43.7124C51.3436 43.5946 52.0004 43.3466 52.3494 43.161C52.6984 42.9756 53.3601 42.4461 53.8199 41.9845C54.4232 41.3789 54.8002 40.8507 55.1747 40.0868C55.4602 39.5048 55.8237 38.573 55.9828 38.0164C56.2312 37.1469 56.2726 36.7014 56.2771 34.8536C56.2819 32.8239 56.2621 32.6428 55.9243 31.6354C55.7274 31.0483 55.4481 30.3367 55.3035 30.0541C55.1591 29.7714 54.7793 29.1417 54.4595 28.6546C54.1398 28.1675 53.2201 27.1109 52.4158 26.3064C51.6114 25.5021 49.8398 23.9385 48.4787 22.8321C47.1176 21.7256 45.4865 20.3058 44.8538 19.677C44.2213 19.0483 43.4634 18.1794 43.1698 17.7462C42.8761 17.3131 42.4514 16.5161 42.226 15.9751C41.8378 15.0436 41.8162 14.9077 41.8186 13.4101C41.8208 12.0444 41.8623 11.7261 42.1227 11.0761C42.2909 10.6562 42.6707 10.0609 42.9815 9.72966C43.3002 9.38985 43.8168 9.01665 44.1892 8.85686C44.7174 8.63041 45.0215 8.58651 45.8027 8.62383C46.5614 8.66014 46.9505 8.75679 47.6385 9.08003C48.2738 9.37859 48.7787 9.75698 49.4931 10.4697C50.0329 11.0084 50.7393 11.8576 51.0628 12.3566C51.3863 12.8557 51.9869 13.9374 52.3976 14.7603C52.8083 15.5833 53.3082 16.6972 53.5083 17.2356L53.8723 18.2147L54.3482 18.2161L54.8241 18.2175V13.0306V7.84364H54.4667C54.1654 7.84364 54.0269 7.97256 53.5846 8.66406C53.296 9.1152 52.8715 9.59885 52.6413 9.73889C52.4109 9.87882 52.1283 9.99356 52.0131 9.99381C51.898 9.99407 51.4982 9.78596 51.1247 9.53129C50.7514 9.2765 50.0812 8.82106 49.6356 8.51895C49.1899 8.21697 48.4475 7.84997 47.9858 7.70347C47.4595 7.53648 46.6963 7.41945 45.9406 7.38998C45.1569 7.35936 44.4806 7.40718 44.0081 7.52648ZM0 8.15752C0 8.64192 0.0414988 8.73377 0.285542 8.78893C0.442654 8.82435 0.913735 8.90608 1.33253 8.97047C1.75133 9.03486 2.24969 9.14733 2.44018 9.22045C2.63054 9.29358 2.91608 9.50169 3.07472 9.68298C3.23323 9.86427 3.4359 10.2206 3.52499 10.4751C3.61407 10.7293 4.05977 12.4474 4.51537 14.2928C4.97097 16.1383 5.67988 19.0145 6.09093 20.6844C6.50186 22.3544 7.21571 25.2578 7.67728 27.1365C8.13871 29.0152 8.96628 32.374 9.51629 34.6006C10.0662 36.8272 10.7913 39.7754 11.1275 41.1521L11.739 43.6552L12.1094 43.619C12.4649 43.5843 12.4909 43.5369 12.7554 42.4442C12.9069 41.818 13.1871 40.6509 13.378 39.8508C13.5688 39.0506 13.9465 37.485 14.2172 36.3717C14.4879 35.2584 14.9377 33.4082 15.2166 32.2601C15.4955 31.1121 15.9792 29.1195 16.2914 27.8323C16.6036 26.545 17.0418 24.7233 17.2651 23.7839C17.4885 22.8446 17.7988 21.5637 17.9548 20.9375C18.1106 20.3112 18.4314 18.9876 18.6676 17.9961C18.9038 17.0046 19.1341 16.1933 19.1794 16.1933C19.2247 16.1933 19.3006 16.4069 19.3482 16.6677C19.3959 16.9287 19.8839 18.9639 20.4328 21.1905C20.9815 23.4171 21.6951 26.3205 22.0186 27.6425C22.342 28.9645 22.9769 31.5548 23.4297 33.3987C23.8824 35.2426 24.5656 38.0322 24.9481 39.5977C25.3305 41.1633 25.7095 42.7146 25.7903 43.0452C25.921 43.5802 25.9752 43.6461 26.2849 43.6461C26.5967 43.6461 26.6512 43.5775 26.8139 42.9819C26.9137 42.6167 27.1723 41.5776 27.3889 40.6731C27.6055 39.7685 27.9874 38.1745 28.238 37.1308C28.4885 36.0871 28.8307 34.6638 28.9986 33.968C29.1665 33.2722 29.5596 31.6497 29.8719 30.3625C30.1842 29.0752 30.5611 27.5097 30.7095 26.8835C30.8577 26.2572 31.2076 24.8055 31.4869 23.6574C31.7664 22.5094 32.1605 20.8869 32.363 20.0519C32.5654 19.2169 32.9082 17.7937 33.1245 16.8891C33.3409 15.9846 33.7182 14.419 33.9629 13.4101C34.2074 12.4012 34.5017 11.3195 34.6166 11.0064C34.7316 10.6933 34.9316 10.2553 35.0611 10.0332C35.2034 9.78937 35.5551 9.50093 35.9481 9.30572C36.3062 9.12785 36.688 8.98186 36.7964 8.98148C36.9049 8.9811 37.2078 8.92151 37.4695 8.84902C37.9284 8.72201 37.9454 8.69721 37.9454 8.15397V7.59062H33.7143H29.4832L29.49 8.15992C29.4937 8.47303 29.4988 8.732 29.5013 8.73541C29.5039 8.73883 29.995 8.81638 30.5925 8.90785C31.1901 8.99932 31.8853 9.17175 32.1373 9.29105C32.4222 9.42578 32.6758 9.67627 32.8076 9.95308C32.9532 10.2591 32.9932 10.543 32.9353 10.8605C32.889 11.1147 32.45 13.059 31.9597 15.1812C31.4694 17.3035 30.9828 19.4099 30.8784 19.8621C30.7741 20.3144 30.6427 20.8837 30.5865 21.1272C30.5304 21.3708 30.2163 22.7086 29.8885 24.1002C29.5608 25.4918 29.207 27.0005 29.1023 27.4527C28.9976 27.905 28.8664 28.4743 28.8106 28.7179C28.7549 28.9614 28.5861 29.7015 28.4357 30.3625C28.2852 31.0235 28.0963 31.82 28.0159 32.1326L27.8695 32.7008L27.6541 31.9429C27.5355 31.5259 27.2292 30.3024 26.9733 29.2239C26.7174 28.1454 26.3086 26.4375 26.0648 25.4286C25.8211 24.4197 25.4848 23.0249 25.3176 22.3291C25.1502 21.6333 24.8419 20.3524 24.6325 19.4826C24.4231 18.6128 24.0456 17.0473 23.7937 16.0036C23.5419 14.9599 23.1953 13.5366 23.0236 12.8408C22.8519 12.145 22.6811 11.2626 22.6441 10.8799C22.6008 10.4314 22.6358 10.0716 22.7425 9.86781C22.8335 9.69386 23.1631 9.42932 23.4751 9.28004C23.7871 9.13076 24.376 8.97085 24.7839 8.92493C25.1918 8.87888 25.6074 8.80993 25.7074 8.77172C25.827 8.72593 25.8892 8.512 25.8892 8.14638V7.59062H20.3052H14.7213V8.15144C14.7213 8.57728 14.7747 8.72719 14.9434 8.77476C15.0655 8.80904 15.4068 8.8747 15.7019 8.92037C15.9968 8.96604 16.4199 9.12684 16.642 9.27751C16.8641 9.42819 17.1519 9.69449 17.2816 9.86933C17.4115 10.044 17.6676 10.6133 17.8508 11.1344C18.034 11.6554 18.2304 12.281 18.2874 12.5245C18.3559 12.8182 18.3253 13.2442 18.1964 13.7896C18.0894 14.2419 17.9832 14.6973 17.9603 14.8017C17.9375 14.9061 17.7669 15.6177 17.5815 16.3831C17.396 17.1485 17.0439 18.6002 16.7993 19.6091C16.5545 20.618 16.2471 21.8989 16.1163 22.4556C15.9853 23.0122 15.6779 24.2932 15.433 25.3021C15.1882 26.311 14.7907 27.962 14.5498 28.9709C14.3088 29.9798 14.073 30.9902 14.0257 31.2164C13.9784 31.4426 13.9013 31.6268 13.8546 31.6259C13.8078 31.6251 12.6566 27.1703 11.2964 21.7265C9.54586 14.7206 8.80955 11.5604 8.77604 10.9105C8.74038 10.2163 8.77896 9.91601 8.9343 9.67969C9.04724 9.50776 9.29624 9.28801 9.48749 9.19149C9.67886 9.09508 10.0638 8.97692 10.343 8.9291C10.6222 8.88128 10.9505 8.81296 11.0727 8.77716C11.241 8.72795 11.2948 8.57639 11.2948 8.15144V7.59062H5.64739H0V8.15752ZM63.7076 8.14132V8.69202L64.8815 8.76426C65.5271 8.80386 66.2784 8.9119 66.5509 9.00412C66.8235 9.09648 67.1661 9.33267 67.3123 9.52914C67.5779 9.88577 67.5783 9.90386 67.6142 23.5718C67.6369 32.2275 67.6025 37.7364 67.5206 38.561C67.4492 39.2781 67.3042 40.1622 67.1982 40.5258C67.0921 40.8894 66.8289 41.4004 66.6133 41.6611C66.3977 41.9219 65.9841 42.2569 65.6941 42.4055C65.3003 42.6074 64.9264 42.6779 64.2153 42.6838C63.4292 42.6905 63.1647 42.6373 62.6962 42.3779C62.3463 42.1843 62.0195 41.8703 61.8434 41.5583C61.6864 41.2802 61.5221 40.8176 61.4785 40.5303C61.4251 40.1787 61.4609 39.8892 61.5879 39.6447C61.6918 39.4449 62.2478 38.9399 62.8236 38.5224C63.3994 38.1049 64.0444 37.549 64.257 37.287C64.5626 36.9104 64.6546 36.6584 64.6962 36.0838C64.7253 35.684 64.6858 35.1229 64.6087 34.8372C64.5314 34.5512 64.3488 34.166 64.2028 33.9811C64.0569 33.7961 63.7166 33.5325 63.4468 33.3952C63.1324 33.2353 62.7025 33.1457 62.2491 33.1457C61.7522 33.1457 61.3612 33.2369 60.9351 33.4521C60.6014 33.6208 60.1117 33.9979 59.8466 34.2903C59.5816 34.5827 59.2183 35.1422 59.0391 35.5336C58.7729 36.115 58.7034 36.4912 58.6589 37.5898C58.6175 38.6082 58.6564 39.1132 58.8194 39.6718C58.9377 40.0773 59.1758 40.6873 59.3485 41.0271C59.5212 41.3667 59.8984 41.8999 60.1866 42.2116C60.4748 42.5233 60.957 42.9223 61.2581 43.0982C61.5591 43.274 62.1026 43.5304 62.466 43.6681C62.8294 43.8057 63.5858 43.9478 64.1469 43.9839C64.8221 44.0273 65.4807 43.983 66.0946 43.853C66.6047 43.745 67.4549 43.4491 67.9839 43.1954C68.6948 42.8545 69.2008 42.4821 69.9246 41.7669C70.6505 41.0495 71.0233 40.5544 71.3676 39.8508C71.623 39.3289 71.9279 38.5888 72.0452 38.2061C72.2375 37.579 72.2656 36.1478 72.3297 23.6983C72.4005 9.94131 72.4018 9.88476 72.666 9.52914C72.8119 9.33267 73.0928 9.09319 73.2902 8.99679C73.4876 8.90038 74.1535 8.79285 74.7699 8.75781L75.8908 8.69417V8.14233V7.59062H69.7992H63.7076V8.14132Z" fill="white"/>
</svg>
