<svg width="258" height="22" viewBox="0 0 258 22" fill="none" xmlns="http://www.w3.org/2000/svg">
<path fill-rule="evenodd" clip-rule="evenodd" d="M6.40805 18.5744C6.40805 20.0934 6.82345 20.4406 9.48104 20.4406V21.3953H0.220703V20.4406C2.04775 20.4406 2.67097 20.2669 2.67097 18.6179V3.12477C2.67097 1.47553 2.04775 1.30184 0.220703 1.30184V0.34714H15.7516L15.8348 6.11907H15.0873C14.6719 1.77944 13.6338 1.38907 9.77184 1.38907H6.36668V9.98186H9.10726C11.7235 9.98186 11.8897 9.54774 12.0973 7.37793H12.8448V13.6707H12.0973C11.8897 11.5009 11.7235 11.11 9.10726 11.11H6.36668V18.5747H6.4083L6.40805 18.5744ZM17.7449 21.3953V20.4406C19.5722 20.4406 20.1951 20.2669 20.1951 18.6179V3.12477C20.1951 1.47553 19.5722 1.30184 17.7449 1.30184V0.34714H26.3825V1.30209C24.5552 1.30209 23.9322 1.47579 23.9322 3.12502V18.6181C23.9322 20.2671 24.5552 20.4408 26.3825 20.4408V21.3955H17.7446L17.7449 21.3953ZM45.9829 21.7424L32.1961 3.90577V18.5312C32.1961 20.2239 33.3172 20.484 35.2277 20.484V21.439H27.919V20.484C29.829 20.484 30.8674 20.2239 30.8674 18.5312V2.30002C29.9952 1.34533 29.3723 1.30184 27.919 1.30184V0.34714H34.3971L44.9448 14.5384V3.21149C44.9448 1.51902 43.8237 1.2586 41.9134 1.2586V0.34714H49.2635V1.30209C47.3534 1.30209 46.3151 1.56251 46.3151 3.25523V21.7429H45.9829V21.7424ZM55.8248 21.3953H48.5575V20.4406C50.4678 20.4406 51.3399 20.1801 51.9627 18.4442L58.5241 0.130209H60.3511L67.4106 18.5744C68.0336 20.2236 68.3241 20.3971 69.7776 20.3971V21.3518H61.3479V20.3971C63.9225 20.3971 64.1717 20.1801 63.5484 18.5744L61.4724 12.9762H55.1603L53.2918 18.4007C52.7105 20.0499 53.624 20.3971 55.8665 20.3971V21.3953H55.8248V21.3953ZM55.534 11.891H61.0154L58.1503 4.33988L55.534 11.891ZM88.7137 21.7424L74.9685 3.90577V18.5312C74.9685 20.2239 76.0896 20.484 77.9999 20.484V21.439H70.8571V20.484C72.6014 20.484 73.6396 20.2239 73.6396 18.5312V2.34351C72.6431 1.38881 71.8955 1.30184 70.2347 1.30184V0.34714H77.1277L87.6754 14.5384V3.21149C87.6754 1.51902 86.5543 1.2586 84.6442 1.2586V0.34714H91.9529V1.30209C90.0426 1.30209 89.0045 1.56251 89.0045 3.25523V21.7429H88.7137V21.7424ZM109.103 0.303907H109.602L109.892 6.59642L109.145 6.63991C108.647 3.03805 106.819 1.1284 103.456 1.1284C99.7184 1.1284 96.8946 4.47009 96.8946 9.59098C96.8946 16.1442 100.839 19.8762 104.992 19.8762C106.778 19.8762 108.397 19.3557 109.975 17.5765L110.557 18.1838C109.269 20.0934 106.736 21.6992 103.331 21.6992C98.2649 21.6992 93.1156 17.7064 93.1156 11.023C93.1154 4.55681 97.8078 0 103.497 0C106.197 0 107.608 1.21512 108.356 1.21512C108.688 1.21512 108.937 0.911465 109.103 0.303907V0.303907ZM112.218 21.3953V20.4406C114.045 20.4406 114.668 20.2669 114.668 18.6179V3.12477C114.668 1.47553 114.045 1.30184 112.218 1.30184V0.34714H120.855V1.30209C119.028 1.30209 118.405 1.47579 118.405 3.12502V18.6181C118.405 20.2671 119.028 20.4408 120.855 20.4408V21.3955H112.218V21.3953ZM128.995 21.3953H122.226V20.4406C123.721 20.4406 124.51 20.1801 125.133 18.4442L131.694 0.130209H133.521L140.58 18.5744C141.203 20.2236 141.494 20.3971 142.947 20.3971V21.3518H134.518V20.3971C137.092 20.3971 137.342 20.1801 136.719 18.5744L134.642 12.9762H128.33L126.462 18.4007C125.88 20.0499 126.794 20.3971 129.036 20.3971V21.3953H128.995H128.995ZM128.704 11.891H134.185L131.362 4.33988L128.704 11.891V11.891ZM144.359 21.3953V20.4406C146.187 20.4406 146.809 20.2669 146.809 18.6179V3.12477C146.809 1.47553 146.187 1.30184 144.359 1.30184V0.34714H152.955V1.30209C151.128 1.30209 150.547 1.47579 150.547 3.12502V18.7483C150.547 20.1369 151.211 20.3106 152.291 20.3106H153.329C157.233 20.3106 158.478 19.703 159.558 15.0595L160.306 15.1462L159.683 21.3523H144.359V21.3958V21.3953ZM186.218 0.34714L186.301 6.46621H185.554C185.139 1.95288 184.1 1.38907 180.238 1.38907H178.992V18.5747C178.992 20.2239 179.574 20.4408 182.065 20.4408V21.3955H172.182V20.4408C174.674 20.4408 175.296 20.1804 175.296 18.5747V1.38881H174.051C170.189 1.38881 169.151 1.95288 168.735 6.46621H167.988L168.071 0.34714H186.218V0.34714ZM188.17 21.3955V20.4406C189.997 20.4406 190.62 20.2669 190.62 18.6179V3.12477C190.62 1.47553 189.997 1.30184 188.17 1.30184V0.34714H196.807V1.30209C194.98 1.30209 194.357 1.47579 194.357 3.12502V18.6181C194.357 20.2671 194.98 20.4408 196.807 20.4408V21.3955H188.17ZM222.803 0.346884V1.30209C220.976 1.30209 220.187 1.38907 220.353 3.08153L221.931 18.7049C222.097 20.3106 222.679 20.484 224.506 20.484V21.439H215.91V20.484C217.695 20.484 218.318 20.3106 218.194 18.7049L216.574 2.29977L210.22 21.7856H209.971L203.742 2.25679L202.247 18.6611C202.081 20.3103 203.161 20.4838 204.988 20.4838V21.4387H198.26V20.4838C200.088 20.4838 200.711 20.1801 200.835 18.6611L202.413 3.03779C202.579 1.38881 201.79 1.2586 199.963 1.2586V0.34714H207.022L211.258 14.7119L215.826 0.34714H222.802L222.803 0.346884ZM238.874 13.6702H238.127C237.919 11.5004 237.753 11.1095 235.137 11.1095H232.063V18.7478C232.063 20.1364 232.728 20.3101 233.807 20.3101H235.468C239.372 20.3101 240.618 19.7025 241.697 15.059L242.445 15.1457L241.739 21.3518H225.876V20.3968C227.703 20.3968 228.326 20.2234 228.326 18.5741V3.12477C228.326 1.47553 227.703 1.30184 225.876 1.30184V0.34714H241.116L241.199 5.59823H240.452C239.995 1.86591 239.081 1.43205 235.095 1.43205H232.105V9.98135H235.178C237.794 9.98135 237.96 9.54749 238.168 7.37767H238.915V13.6704H238.874L238.874 13.6702ZM254.903 17.0551C254.903 15.1457 253.74 14.191 251.747 13.0191L248.55 11.2832C246.141 9.93786 244.729 8.46233 244.729 5.81516C244.729 2.51721 247.428 0 250.958 0C253.367 0 254.612 1.21512 255.318 1.21512C255.775 1.21512 255.983 0.911465 256.19 0.303907H256.772L257.062 6.20605L256.315 6.24954C255.9 3.38493 253.948 1.17163 251.207 1.17163C249.131 1.17163 247.76 2.47372 247.76 4.2964C247.76 6.29277 249.214 7.11726 250.833 8.02872L253.574 9.54749C256.149 11.023 257.976 12.4986 257.976 15.3194C257.976 19.0517 254.903 21.6992 251.083 21.6992C248.383 21.6992 247.054 20.3536 246.349 20.3536C245.892 20.3536 245.643 20.7877 245.435 21.4387H244.853L244.438 15.1892L245.186 15.1025C245.767 19.0083 248.342 20.614 250.916 20.614C253.076 20.5705 254.903 19.5726 254.903 17.0556L254.903 17.0551Z" fill="white"/>
</svg>
