<svg width="117" height="31" viewBox="0 0 117 31" fill="none" xmlns="http://www.w3.org/2000/svg">
<path d="M29.0698 30.915C27.0302 30.6142 25.2463 29.7399 23.8841 28.3733C22.7478 27.2335 22.011 25.9799 21.468 24.2623C20.6201 21.5806 20.6198 18.1328 21.4672 15.5059C22.2885 12.96 24.1376 10.744 26.4007 9.59341C29.5348 8.00005 33.946 8.10014 36.8487 9.83047C39.461 11.3877 41.0434 14.1547 41.4837 17.9351C41.6181 19.0894 41.5309 21.5274 41.3192 22.5338C40.4527 26.6529 37.929 29.5303 34.2317 30.6148C33.8333 30.7317 33.2155 30.8684 32.8588 30.9186C32.104 31.0249 29.8003 31.0228 29.0698 30.915ZM33.4841 30.597C34.9766 30.2442 36.1664 29.7055 37.23 28.901C39.8168 26.9444 41.2343 23.9442 41.3652 20.1486C41.4942 16.4068 40.38 13.2171 38.2254 11.1605C36.4764 9.49108 34.2723 8.69086 31.4233 8.69086C28.4032 8.69086 25.971 9.6392 24.0998 11.5464C22.0954 13.5893 21.0352 16.4392 21.0352 19.7841C21.0352 23.254 21.9931 26.0551 23.8508 28.0176C24.875 29.0996 25.872 29.7485 27.3017 30.2637C27.8072 30.4458 28.1792 30.5332 29.5307 30.7877C29.6464 30.8095 30.4224 30.8135 31.2551 30.7967C32.3824 30.7739 32.9518 30.7229 33.4841 30.597ZM30.2926 29.3864C28.9109 28.7516 27.9312 26.8222 27.4401 23.769C27.1289 21.8336 27.0995 17.5296 27.3831 15.4207C27.7815 12.4591 28.6229 10.7094 29.933 10.1184C30.8311 9.71324 32.0756 9.95292 32.8759 10.6851C34.6531 12.3112 35.5501 16.9352 35.1631 22.4753C34.8854 26.4508 34.0335 28.6069 32.4444 29.3563C31.8684 29.6279 30.8494 29.6422 30.2926 29.3864ZM32.1211 29.2609C32.717 29.0817 33.4519 28.3838 33.8437 27.6249C34.6527 26.0584 35.0139 23.7418 35.0228 20.0634C35.034 15.4534 34.3205 12.5199 32.8143 10.9839C32.1818 10.3389 31.7333 10.1386 30.9247 10.1399C29.1299 10.1428 27.9909 12.0403 27.5408 15.7767C27.3339 17.4942 27.3329 21.5859 27.5389 23.0875C28.1764 27.7347 29.8224 29.9523 32.1211 29.2609ZM65.1952 30.9139C64.3607 30.8283 61.8107 30.3985 60.9199 30.1934L60.3037 30.0515L60.3517 26.7186C60.4674 18.6943 60.482 14.3139 60.4071 10.0539C60.3337 5.88071 60.3124 5.43947 60.1535 4.82217C59.9521 4.04 59.6615 3.49439 59.312 3.24234C59.1762 3.14442 58.8073 3.00565 58.4922 2.93396C57.4448 2.69568 57.5017 2.73389 57.4738 2.24999C57.4577 1.97125 57.4875 1.7871 57.5579 1.7306C57.6523 1.65485 66.2427 -0.00465106 66.5163 9.79931e-06C66.5949 0.00134895 66.606 1.11377 66.5658 4.94261C66.5372 7.66009 66.5335 9.88349 66.5576 9.88349C66.5817 9.88349 66.8956 9.74583 67.2551 9.57759C68.3389 9.07045 69.3379 8.8504 70.7888 8.79919C71.7547 8.76509 72.2022 8.78645 72.6978 8.89029C75.9381 9.56926 78.336 12.2553 79.174 16.1448C79.3926 17.1594 79.474 19.681 79.3288 20.944C79.2051 22.0205 78.8522 23.471 78.4849 24.4123C77.099 27.9641 74.1256 30.2813 70.181 30.8835C69.2724 31.0222 66.4191 31.0396 65.1952 30.9139ZM69.9476 30.7108C72.5028 30.3227 74.377 29.4341 75.9643 27.858C78.2586 25.5799 79.3637 22.3648 79.2143 18.4022C79.1374 16.3621 78.8084 15.0294 77.9736 13.3762C76.8425 11.1364 74.908 9.56534 72.7115 9.1027C71.0639 8.75566 68.944 9.02748 67.3321 9.79244C66.9305 9.98307 66.546 10.139 66.4777 10.139C66.3693 10.139 66.3576 9.50823 66.3852 5.17023L66.4168 0.201416L66.0794 0.269924C65.8938 0.307605 64.0007 0.664825 61.8727 1.06375C59.7446 1.46267 57.9204 1.80877 57.8189 1.83286C57.6647 1.86948 57.6377 1.92901 57.6542 2.19572C57.6726 2.49295 57.6968 2.51984 58.0069 2.58896C59.0732 2.82659 59.2631 2.91127 59.6596 3.32604C60.1452 3.83416 60.3646 4.48301 60.5086 5.83708C60.6233 6.91608 60.6487 25.5059 60.5392 28.2498L60.4743 29.8769L61.3417 30.0647C64.6262 30.776 67.9001 31.0218 69.9476 30.7108ZM66.9469 29.4149C66.777 29.3968 66.5951 29.3297 66.5428 29.2659C66.3986 29.0899 66.2425 17.526 66.3386 14.1429L66.4148 11.4595L67.0877 11.263C68.0805 10.9731 69.1493 11.0182 69.9071 11.3818C71.4287 12.1122 72.4284 13.9162 72.9475 16.8689C73.1166 17.8307 73.0916 21.1712 72.9064 22.3599C72.5197 24.8419 71.8161 26.7576 70.8366 27.9952C70.3617 28.5952 69.5732 29.1626 68.9566 29.3481C68.5587 29.4677 67.7062 29.4961 66.9469 29.4149ZM68.5663 29.2198C69.1774 29.1024 69.6521 28.8561 70.1618 28.392C71.4392 27.2289 72.3997 24.8275 72.7774 21.8523C72.9312 20.6405 72.9105 17.8793 72.74 16.8678C72.2788 14.1324 71.2877 12.3345 69.8418 11.6106C69.242 11.3103 69.1495 11.2891 68.4381 11.2891C67.9293 11.2891 67.4916 11.3442 67.1195 11.4553L66.5624 11.6215L66.5213 14.735C66.4686 18.7233 66.5967 28.7083 66.7042 28.9948C66.7729 29.1776 66.8484 29.2164 67.189 29.2435C67.9906 29.3072 68.1232 29.3049 68.5663 29.2198ZM89.378 30.8718C85.205 30.1095 82.2207 27.1125 81.2456 22.7048C81.1201 22.1379 81.0647 21.5036 81.0332 20.2764C80.9835 18.3348 81.1394 17.1297 81.6341 15.6323C82.5841 12.7572 84.2866 10.7199 86.7596 9.4988C89.37 8.20995 92.9388 8.12554 95.2489 9.29799C97.8498 10.6181 99.3803 13.2539 99.7685 17.0818C99.8208 17.5972 99.8511 18.2106 99.8359 18.4448L99.8082 18.8708L93.5837 18.8926L87.3593 18.9144L87.383 19.6593C87.4379 21.3847 87.8042 22.9108 88.4818 24.2376C88.7898 24.8407 89.0349 25.1694 89.6303 25.7783C90.9755 27.1538 92.3138 27.6864 94.4248 27.6864C95.9555 27.6864 97.0563 27.377 98.2074 26.6233C98.5299 26.4122 98.8566 26.2395 98.9335 26.2395C99.1092 26.2395 99.5138 26.767 99.5138 26.9961C99.5138 27.3715 98.3069 28.582 97.1298 29.3873C96.1658 30.0468 94.6369 30.644 93.3111 30.8789C92.3826 31.0434 90.2968 31.0396 89.378 30.8718ZM93.1188 30.7081C95.0677 30.3879 96.987 29.4406 98.3664 28.1177C99.1219 27.3931 99.3725 27.0434 99.2674 26.8602C98.9871 26.3714 98.9992 26.3719 98.2832 26.8173C97.1433 27.5265 96.572 27.722 95.2327 27.8612C93.6683 28.0238 92.2254 27.759 90.8921 27.0647C90.0075 26.6041 88.9476 25.5447 88.4178 24.5918C87.6948 23.2914 87.3026 21.7724 87.1856 19.8203C87.1364 19.0007 87.1471 18.7965 87.2421 18.7355C87.3069 18.694 90.1117 18.6598 93.5206 18.6591L99.682 18.6578V18.4113C99.682 17.851 99.5004 16.345 99.3376 15.5554C98.6832 12.3805 96.9552 10.1166 94.4913 9.20595C93.5106 8.84348 92.5829 8.69086 91.3602 8.69086C88.4631 8.69086 86.0971 9.65327 84.2668 11.5762C82.8075 13.1093 81.9416 14.8315 81.4132 17.2522C81.2539 17.9818 81.2272 18.3609 81.2272 19.893C81.2272 21.4138 81.2545 21.806 81.4089 22.5094C82.3898 26.9775 85.2922 29.9199 89.4621 30.6736C90.5189 30.8646 92.0761 30.8793 93.1188 30.7081ZM87.2033 17.2298C87.14 17.1261 87.297 15.6098 87.4524 14.8244C87.8268 12.9313 88.4264 11.5643 89.2513 10.7225C89.6951 10.2697 89.8975 10.1285 90.2594 10.0197C90.5085 9.94477 90.7906 9.8837 90.8863 9.88396C91.2723 9.88502 91.7277 10.0845 92.0666 10.4009C92.9764 11.2502 93.497 13.074 93.6001 15.7736L93.6511 17.1063L92.7762 17.1557C91.0203 17.2547 87.2492 17.3049 87.2033 17.2298ZM92.0191 16.9862L93.4825 16.9347L93.4298 15.8819C93.244 12.1694 92.347 10.1407 90.8921 10.1423C89.3108 10.1441 88.0471 12.203 87.5217 15.6336C87.4572 16.0553 87.4036 16.5554 87.4028 16.7449L87.4013 17.0894L88.9784 17.0636C89.8459 17.0494 91.2141 17.0146 92.0191 16.9862ZM106.201 30.9544C104.702 30.7917 102.317 30.2629 101.523 29.9172L101.135 29.7484L101.082 27.8023C101.053 26.7319 101.02 25.3008 101.008 24.622L100.986 23.3878L101.219 23.275C101.346 23.2129 101.605 23.1549 101.792 23.1461L102.133 23.1301L102.423 23.8542C103.557 26.679 104.886 28.2021 106.622 28.6654C107.284 28.8421 108.526 28.8437 109.016 28.6684C110.389 28.1774 111.142 27.1243 111.149 25.6858C111.157 23.982 110.232 23.1634 106.739 21.7815C104.574 20.9253 103.819 20.4846 102.92 19.5527C101.951 18.5475 101.485 17.4032 101.398 15.8095C101.292 13.8837 101.887 12.2603 103.206 10.8768C104.533 9.48461 106.256 8.73005 108.603 8.51315C110.67 8.32214 113.842 8.76607 115.504 9.47887L115.808 9.60891L115.862 11.3435C115.891 12.2975 115.922 13.5763 115.93 14.1854L115.944 15.2928L115.537 15.4459C114.893 15.688 114.851 15.6577 114.493 14.6966C113.489 12.0026 112.322 10.7279 110.505 10.3386C109.397 10.1013 108.472 10.3564 107.799 11.0845C107.275 11.6526 107.07 12.157 107.02 13.0042C106.967 13.922 107.129 14.4181 107.682 15.0317C108.365 15.788 109.483 16.4408 111.71 17.3834C114.438 18.538 115.74 19.5182 116.448 20.9507C116.907 21.8811 117.037 22.6242 116.991 24.0545C116.957 25.1278 116.923 25.3485 116.682 26.0691C115.895 28.4186 114.121 29.9654 111.379 30.6906C110.451 30.9363 110.318 30.949 108.472 30.9695C107.408 30.9813 106.386 30.9745 106.201 30.9544ZM110.196 30.7157C113.77 30.166 116.077 28.2252 116.683 25.2598C116.975 23.8279 116.838 22.2356 116.332 21.1708C115.624 19.6801 114.426 18.7801 111.458 17.5094C109.254 16.5657 107.933 15.7657 107.392 15.0473C106.945 14.4537 106.799 13.9974 106.805 13.2058C106.814 12.0119 107.261 11.0974 108.114 10.5273C108.829 10.0499 109.724 9.93346 110.766 10.1823C112.025 10.483 112.972 11.2658 113.827 12.713C114.099 13.1736 114.659 14.4664 114.932 15.2642C114.974 15.388 115.022 15.3932 115.316 15.3054C115.501 15.2501 115.678 15.1785 115.71 15.1463C115.742 15.1142 115.74 13.8938 115.706 12.4344L115.643 9.78095L115.338 9.65008C114.823 9.42922 113.479 9.05889 112.594 8.89395C111.927 8.76983 111.341 8.73769 109.776 8.73943C107.907 8.74151 107.754 8.75389 106.983 8.96595C104.741 9.58193 103.079 10.8632 102.21 12.645C101.748 13.592 101.589 14.3219 101.594 15.4633C101.602 17.0838 102.038 18.28 103.002 19.3252C103.832 20.2245 104.91 20.8661 106.748 21.5532C108.193 22.0939 109.686 22.8489 110.252 23.3257C110.584 23.6059 110.845 23.9251 111.04 24.2893C111.317 24.8072 111.331 24.8757 111.332 25.6858C111.332 26.4662 111.309 26.5855 111.065 27.1085C110.426 28.4748 109.147 29.1532 107.472 29.0145C105.197 28.8261 103.595 27.302 102.29 24.0846C101.95 23.2453 101.927 23.2279 101.409 23.4271L101.172 23.5185L101.231 26.5189C101.284 29.1817 101.307 29.5315 101.432 29.6287C101.806 29.9192 104.227 30.5012 105.906 30.7043C107.21 30.862 109.21 30.8673 110.196 30.7157ZM0.111803 30.4424C0.0418683 30.4139 0.00666016 30.2016 0.00666016 29.8084C0.00666016 29.1026 -0.037761 29.1342 1.31043 28.8809C2.34446 28.6866 2.7144 28.4879 3.17102 27.8816C4.05634 26.706 4.2477 24.4426 4.24968 15.1225C4.25155 6.36989 4.08505 4.52865 3.16943 3.17589C2.76319 2.57571 2.07859 2.24982 0.931916 2.11076L0.0487173 2.00364L0.0243586 1.30534L0 0.607036L0.276701 0.5571C0.428887 0.529635 5.77585 0.51803 12.1588 0.53131L23.7643 0.555457L23.8187 0.896207C23.8486 1.08362 23.8977 3.00595 23.9278 5.16806L23.9826 9.09916L23.3842 9.28323C22.4835 9.56031 22.4889 9.56369 22.0838 8.47789C21.0885 5.81085 19.9472 4.27407 18.3856 3.49804C17.3086 2.96283 16.8106 2.89811 13.7689 2.89811H11.1218L11.0762 3.34535C10.9906 4.18402 10.8555 9.57899 10.8565 12.1197L10.8574 14.654L11.6354 14.6495C12.0634 14.647 12.9072 14.6151 13.5106 14.5786C14.4177 14.5237 14.6872 14.475 15.0667 14.297C15.9992 13.8599 16.6335 12.8977 17.0221 11.3312L17.2228 10.5224L17.9093 10.4976L18.5959 10.4729V15.591V20.7092L17.9091 20.6844L17.2222 20.6597L17.0273 19.8504C16.661 18.3299 15.9561 17.2413 15.085 16.851C14.6827 16.6708 13.6873 16.5684 11.7616 16.5091L10.8574 16.4812V18.404C10.8574 20.4993 10.9711 23.3339 11.1169 24.8723C11.3202 27.0169 11.8613 28.202 12.8331 28.6308C13.0187 28.7127 13.6058 28.8457 14.1378 28.9264C14.6699 29.0071 15.1714 29.1077 15.2524 29.1501C15.4577 29.2574 15.4698 30.3681 15.2665 30.4471C15.1074 30.509 0.263334 30.5044 0.111803 30.4424ZM15.2313 29.7748C15.2313 29.5171 15.2086 29.3062 15.1808 29.3062C14.78 29.3062 12.9124 28.8984 12.6122 28.7453C11.5441 28.2006 11.0503 26.906 10.8588 24.1479C10.7226 22.1872 10.587 16.4271 10.675 16.338C10.7548 16.2572 14.311 16.4007 14.7266 16.5015C15.8758 16.7801 16.7616 17.925 17.2051 19.7048L17.4006 20.4893L17.9141 20.5147L18.4277 20.5401V15.5951V10.6502H17.8809C17.3698 10.6502 17.3342 10.6627 17.3342 10.8421C17.3342 11.1649 17.0151 12.1863 16.7131 12.8304C16.24 13.8392 15.5738 14.4481 14.7266 14.646C14.5185 14.6946 13.5358 14.7725 12.5428 14.819C11.1425 14.8847 10.7223 14.8804 10.6695 14.8001C10.5719 14.6517 10.7944 3.43577 10.9053 2.91462L10.9471 2.71815L14.0355 2.74424L17.1239 2.77033L17.8426 3.031C19.5072 3.63477 20.7051 4.86771 21.7058 7.00751C21.9307 7.48825 22.2188 8.18826 22.3462 8.56308C22.4736 8.9379 22.5863 9.2565 22.5967 9.27106C22.6071 9.28563 22.8834 9.21517 23.2107 9.11449L23.8058 8.93143L23.7639 6.14903C23.7409 4.61872 23.7003 2.78204 23.6736 2.06753L23.625 0.768425H11.8959H0.166861L0.191903 1.30047L0.216946 1.83252L0.973973 1.92841C1.98386 2.05633 2.35414 2.16776 2.7608 2.4661C3.37724 2.91834 3.75634 3.58271 3.99507 4.62909C4.36596 6.25475 4.49944 9.92094 4.43762 16.7837C4.3723 24.035 4.28199 25.5432 3.82553 27.0062C3.45011 28.2094 2.75138 28.8472 1.59725 29.0403C1.27961 29.0934 0.829632 29.1781 0.597304 29.2286L0.174889 29.3203V29.7818V30.2433H7.70311H15.2313V29.7748ZM41.5759 30.4263C41.4992 30.3768 41.4742 30.1804 41.4918 29.7671L41.517 29.1784L41.8114 29.115C41.9733 29.08 42.3211 29.0107 42.5843 28.9609C43.3987 28.8068 43.8668 28.3591 44.1301 27.4822C44.3447 26.7678 44.4393 24.4824 44.4442 19.893C44.4503 14.28 44.3348 12.9545 43.7744 12.2031C43.4707 11.7958 43.2517 11.68 42.5148 11.5368C42.1511 11.4661 41.7683 11.3903 41.6642 11.3683C41.4957 11.3328 41.475 11.2772 41.475 10.8597C41.475 10.4537 41.5003 10.3804 41.6642 10.3121C41.916 10.2073 50.2487 8.52049 50.5149 8.52049H50.7226L50.6819 9.777C50.6595 10.4681 50.6236 11.4744 50.6023 12.0132L50.5634 12.9928L50.8653 12.4415C51.8317 10.6765 52.9154 9.58093 54.3565 8.91206C55.1476 8.54489 55.6755 8.4353 56.6529 8.4353C57.812 8.4353 58.9707 8.81833 58.9707 9.20148C58.9707 9.45911 56.9285 14.924 56.8159 14.9678C56.761 14.9891 56.3622 14.8347 55.9298 14.6245C55.0279 14.1862 54.1818 13.9719 53.3605 13.9737C52.3377 13.976 51.1952 14.3575 50.7441 14.8475C50.5512 15.0571 50.5503 15.0697 50.5023 18.1995C50.4548 21.2991 50.5568 25.0798 50.729 26.6005C50.8756 27.8959 51.2154 28.5337 51.9174 28.8306C52.1516 28.9297 53.6331 29.1353 54.1166 29.1358C54.1533 29.1358 54.1722 29.4329 54.1587 29.7961L54.1341 30.4563L47.9097 30.4766C44.4862 30.4877 41.6361 30.4651 41.5759 30.4263ZM54.008 29.782V29.3208L53.3561 29.265C51.8525 29.1364 51.4406 28.9836 51.0458 28.4077C50.4736 27.5731 50.349 26.0332 50.349 19.7934V14.9233L50.5575 14.6985C50.8206 14.4148 51.6431 14.0191 52.2247 13.8962C53.4056 13.6468 54.9154 13.8623 56.0961 14.4488C56.435 14.6171 56.7264 14.7404 56.7438 14.7228C56.7786 14.6876 58.7179 9.49739 58.7781 9.27847C58.8054 9.17912 58.6937 9.09256 58.3674 8.96035C57.6693 8.67741 57.0638 8.58038 56.2828 8.62628C54.1937 8.74905 52.3398 10.1546 51.0044 12.628C50.7827 13.0386 50.5531 13.3749 50.4942 13.3754C50.4085 13.376 50.3986 12.9043 50.4446 11.0285L50.5022 8.68075L50.2994 8.72917C50.1879 8.75579 48.5069 9.10069 46.5639 9.49561C42.3966 10.3426 41.8173 10.466 41.718 10.5282C41.6768 10.554 41.6432 10.7062 41.6432 10.8665C41.6432 11.1882 41.6061 11.1696 42.553 11.3238C43.8546 11.5358 44.3144 12.1786 44.5085 14.0577C44.7616 16.5077 44.6605 26.0587 44.3676 27.3627C44.2179 28.0294 43.831 28.6715 43.4416 28.8996C43.2973 28.9842 42.843 29.1199 42.4322 29.2011L41.6852 29.3488L41.6598 29.7961L41.6344 30.2433H47.8212H54.008V29.782Z" fill="white"/>
<path d="M15.2313 29.7748C15.2313 29.5171 15.2086 29.3062 15.1808 29.3062C14.78 29.3062 12.9124 28.8984 12.6122 28.7453C11.5441 28.2006 11.0503 26.906 10.8588 24.1479C10.7226 22.1872 10.587 16.4271 10.675 16.338C10.7548 16.2572 14.311 16.4007 14.7266 16.5015C15.8758 16.7801 16.7616 17.925 17.2051 19.7048L17.4006 20.4893L17.9141 20.5147L18.4277 20.5401V15.5951V10.6502H17.8809C17.3698 10.6502 17.3342 10.6627 17.3342 10.8421C17.3342 11.1649 17.0151 12.1863 16.7131 12.8304C16.24 13.8392 15.5738 14.4481 14.7266 14.646C14.5185 14.6946 13.5358 14.7725 12.5428 14.819C11.1425 14.8847 10.7223 14.8804 10.6695 14.8001C10.5719 14.6517 10.7944 3.43577 10.9053 2.91462L10.9471 2.71815L14.0355 2.74424L17.1239 2.77033L17.8426 3.031C19.5072 3.63477 20.7051 4.86771 21.7058 7.00751C21.9307 7.48825 22.2188 8.18826 22.3462 8.56308C22.4736 8.9379 22.5863 9.2565 22.5967 9.27106C22.6071 9.28563 22.8834 9.21517 23.2107 9.11449L23.8058 8.93143L23.7639 6.14903C23.7409 4.61872 23.7003 2.78204 23.6736 2.06753L23.625 0.768425H11.8959H0.166861L0.191903 1.30047L0.216946 1.83252L0.973973 1.92841C1.98386 2.05633 2.35414 2.16776 2.7608 2.4661C3.37724 2.91834 3.75634 3.58271 3.99507 4.62909C4.36596 6.25475 4.49944 9.92094 4.43762 16.7837C4.3723 24.035 4.28199 25.5432 3.82553 27.0062C3.45011 28.2094 2.75138 28.8472 1.59725 29.0403C1.27961 29.0934 0.829632 29.1781 0.597304 29.2286L0.174889 29.3203V29.7818V30.2433H7.70311H15.2313V29.7748Z" fill="white"/>
<path fill-rule="evenodd" clip-rule="evenodd" d="M33.4841 30.597C34.9766 30.2442 36.1664 29.7055 37.23 28.901C39.8168 26.9444 41.2343 23.9442 41.3652 20.1486C41.4942 16.4068 40.38 13.2171 38.2254 11.1605C36.4764 9.49108 34.2723 8.69086 31.4233 8.69086C28.4032 8.69086 25.971 9.6392 24.0998 11.5464C22.0954 13.5893 21.0352 16.4392 21.0352 19.7841C21.0352 23.254 21.9931 26.0551 23.8508 28.0176C24.875 29.0996 25.872 29.7485 27.3017 30.2637C27.8072 30.4458 28.1792 30.5332 29.5307 30.7877C29.6464 30.8095 30.4224 30.8135 31.2551 30.7967C32.3824 30.7739 32.9518 30.7229 33.4841 30.597ZM27.4401 23.769C27.9312 26.8222 28.9109 28.7516 30.2926 29.3864C30.8494 29.6422 31.8684 29.6279 32.4444 29.3563C34.0335 28.6069 34.8854 26.4508 35.1631 22.4753C35.5501 16.9352 34.6531 12.3112 32.8759 10.6851C32.0756 9.95292 30.8311 9.71324 29.933 10.1184C28.6229 10.7094 27.7815 12.4591 27.3831 15.4207C27.0995 17.5296 27.1289 21.8336 27.4401 23.769Z" fill="white"/>
<path d="M54.008 29.782V29.3208L53.3561 29.265C51.8525 29.1364 51.4406 28.9836 51.0458 28.4077C50.4736 27.5731 50.349 26.0332 50.349 19.7934V14.9233L50.5575 14.6985C50.8206 14.4148 51.6431 14.0191 52.2247 13.8962C53.4056 13.6468 54.9154 13.8623 56.0961 14.4488C56.435 14.6171 56.7264 14.7404 56.7438 14.7228C56.7786 14.6876 58.7179 9.49739 58.7781 9.27847C58.8054 9.17912 58.6937 9.09256 58.3674 8.96035C57.6693 8.67741 57.0638 8.58038 56.2828 8.62628C54.1937 8.74905 52.3398 10.1546 51.0044 12.628C50.7827 13.0386 50.5531 13.3749 50.4942 13.3754C50.4085 13.376 50.3986 12.9043 50.4446 11.0285L50.5022 8.68075L50.2994 8.72917C50.1879 8.75579 48.5069 9.10069 46.5639 9.49561C42.3966 10.3426 41.8173 10.466 41.718 10.5282C41.6768 10.554 41.6432 10.7062 41.6432 10.8665C41.6432 11.1882 41.6061 11.1696 42.553 11.3238C43.8546 11.5358 44.3144 12.1786 44.5085 14.0577C44.7616 16.5077 44.6605 26.0587 44.3676 27.3627C44.2179 28.0294 43.831 28.6715 43.4416 28.8996C43.2973 28.9842 42.843 29.1199 42.4322 29.2011L41.6852 29.3488L41.6598 29.7961L41.6344 30.2433H47.8212H54.008V29.782Z" fill="white"/>
<path fill-rule="evenodd" clip-rule="evenodd" d="M69.9476 30.7108C72.5028 30.3227 74.377 29.4341 75.9643 27.858C78.2586 25.5799 79.3637 22.3648 79.2143 18.4022C79.1374 16.3621 78.8084 15.0294 77.9736 13.3762C76.8425 11.1364 74.908 9.56534 72.7115 9.1027C71.0639 8.75566 68.944 9.02748 67.3321 9.79244C66.9305 9.98307 66.546 10.139 66.4777 10.139C66.3693 10.139 66.3576 9.50823 66.3852 5.17023L66.4168 0.201416L66.0794 0.269924C65.8938 0.307605 64.0007 0.664825 61.8727 1.06375C59.7446 1.46267 57.9204 1.80877 57.8189 1.83286C57.6647 1.86948 57.6377 1.92901 57.6542 2.19572C57.6726 2.49295 57.6968 2.51984 58.0069 2.58896C59.0732 2.82659 59.2631 2.91127 59.6596 3.32604C60.1452 3.83416 60.3646 4.48301 60.5086 5.83708C60.6233 6.91608 60.6487 25.5059 60.5392 28.2498L60.4743 29.8769L61.3417 30.0647C64.6262 30.776 67.9001 31.0218 69.9476 30.7108ZM66.5428 29.2659C66.5951 29.3297 66.777 29.3968 66.9469 29.4149C67.7062 29.4961 68.5587 29.4677 68.9566 29.3481C69.5732 29.1626 70.3617 28.5952 70.8366 27.9952C71.8161 26.7576 72.5197 24.8419 72.9064 22.3599C73.0916 21.1712 73.1166 17.8307 72.9475 16.8689C72.4284 13.9162 71.4287 12.1122 69.9071 11.3818C69.1493 11.0182 68.0805 10.9731 67.0877 11.263L66.4148 11.4595L66.3386 14.1429C66.2425 17.526 66.3986 29.0899 66.5428 29.2659Z" fill="white"/>
<path fill-rule="evenodd" clip-rule="evenodd" d="M93.1188 30.7081C95.0677 30.3879 96.987 29.4406 98.3664 28.1177C99.1219 27.3931 99.3725 27.0434 99.2674 26.8602C98.9871 26.3714 98.9992 26.3719 98.2832 26.8173C97.1433 27.5265 96.572 27.722 95.2327 27.8612C93.6683 28.0238 92.2254 27.759 90.8921 27.0647C90.0075 26.6041 88.9476 25.5447 88.4178 24.5918C87.6948 23.2914 87.3026 21.7724 87.1856 19.8203C87.1364 19.0007 87.1471 18.7965 87.2421 18.7355C87.3069 18.694 90.1117 18.6598 93.5206 18.6591L99.682 18.6578V18.4113C99.682 17.851 99.5004 16.345 99.3376 15.5554C98.6832 12.3805 96.9552 10.1166 94.4913 9.20595C93.5106 8.84348 92.5829 8.69086 91.3602 8.69086C88.4631 8.69086 86.0971 9.65327 84.2668 11.5762C82.8075 13.1093 81.9416 14.8315 81.4132 17.2522C81.2539 17.9818 81.2272 18.3609 81.2272 19.893C81.2272 21.4138 81.2545 21.806 81.4089 22.5094C82.3898 26.9775 85.2922 29.9199 89.4621 30.6736C90.5189 30.8646 92.0761 30.8793 93.1188 30.7081ZM87.4524 14.8244C87.297 15.6098 87.14 17.1261 87.2033 17.2298C87.2492 17.3049 91.0203 17.2547 92.7762 17.1557L93.6511 17.1063L93.6001 15.7736C93.497 13.074 92.9764 11.2502 92.0666 10.4009C91.7277 10.0845 91.2723 9.88502 90.8863 9.88396C90.7906 9.8837 90.5085 9.94477 90.2594 10.0197C89.8975 10.1285 89.6951 10.2697 89.2513 10.7225C88.4264 11.5643 87.8268 12.9313 87.4524 14.8244Z" fill="white"/>
<path d="M110.196 30.7157C113.77 30.166 116.077 28.2252 116.683 25.2598C116.975 23.8279 116.838 22.2356 116.332 21.1708C115.624 19.6801 114.426 18.7801 111.458 17.5094C109.254 16.5657 107.933 15.7657 107.392 15.0473C106.945 14.4537 106.799 13.9974 106.805 13.2058C106.814 12.0119 107.261 11.0974 108.114 10.5273C108.829 10.0499 109.724 9.93346 110.766 10.1823C112.025 10.483 112.972 11.2658 113.827 12.713C114.099 13.1736 114.659 14.4664 114.932 15.2642C114.974 15.388 115.022 15.3932 115.316 15.3054C115.501 15.2501 115.678 15.1785 115.71 15.1463C115.742 15.1142 115.74 13.8938 115.706 12.4344L115.643 9.78095L115.338 9.65008C114.823 9.42922 113.479 9.05889 112.594 8.89395C111.927 8.76983 111.341 8.73769 109.776 8.73943C107.907 8.74151 107.754 8.75389 106.983 8.96595C104.741 9.58193 103.079 10.8632 102.21 12.645C101.748 13.592 101.589 14.3219 101.594 15.4633C101.602 17.0838 102.038 18.28 103.002 19.3252C103.832 20.2245 104.91 20.8661 106.748 21.5532C108.193 22.0939 109.686 22.8489 110.252 23.3257C110.584 23.6059 110.845 23.9251 111.04 24.2893C111.317 24.8072 111.331 24.8757 111.332 25.6858C111.332 26.4662 111.309 26.5855 111.065 27.1085C110.426 28.4748 109.147 29.1532 107.472 29.0145C105.197 28.8261 103.595 27.302 102.29 24.0846C101.95 23.2453 101.927 23.2279 101.409 23.4271L101.172 23.5185L101.231 26.5189C101.284 29.1817 101.307 29.5315 101.432 29.6287C101.806 29.9192 104.227 30.5012 105.906 30.7043C107.21 30.862 109.21 30.8673 110.196 30.7157Z" fill="white"/>
</svg>
