<svg width="126" height="33" viewBox="0 0 126 33" fill="none" xmlns="http://www.w3.org/2000/svg">
<path d="M31.3059 32.8736C29.1095 32.5538 27.1884 31.6241 25.7213 30.1709C24.4976 28.9589 23.7042 27.6259 23.1193 25.7994C22.2062 22.9478 22.2059 19.2816 23.1185 16.4882C24.003 13.7811 25.9943 11.4246 28.4316 10.2012C31.8067 8.50689 36.5572 8.61332 39.6832 10.4533C42.4965 12.1092 44.2006 15.0515 44.6747 19.0714C44.8195 20.2988 44.7256 22.8913 44.4976 23.9615C43.5644 28.3415 40.8466 31.4012 36.8649 32.5544C36.4359 32.6786 35.7705 32.824 35.3864 32.8775C34.5735 32.9905 32.0927 32.9882 31.3059 32.8736ZM36.0598 32.5355C37.6672 32.1603 38.9484 31.5875 40.0938 30.732C42.8796 28.6514 44.4062 25.4612 44.5471 21.4251C44.6861 17.4462 43.4861 14.0545 41.1658 11.8676C39.2822 10.0924 36.9087 9.24147 33.8405 9.24147C30.5881 9.24147 27.9688 10.2499 25.9537 12.2779C23.7951 14.4503 22.6533 17.4807 22.6533 21.0375C22.6533 24.7272 23.6849 27.7058 25.6854 29.7927C26.7884 30.9432 27.8621 31.6333 29.4018 32.181C29.9462 32.3747 30.3468 32.4676 31.8023 32.7382C31.9269 32.7614 32.7625 32.7657 33.6593 32.7478C34.8734 32.7235 35.4865 32.6693 36.0598 32.5355ZM32.6228 31.2481C31.1348 30.5731 30.0797 28.5215 29.5509 25.2749C29.2157 23.2169 29.184 18.6402 29.4895 16.3976C29.9185 13.2484 30.8246 11.3879 32.2356 10.7594C33.2027 10.3286 34.543 10.5835 35.4048 11.3621C37.3187 13.0912 38.2848 18.0081 37.868 23.8992C37.5689 28.1265 36.6514 30.4193 34.9401 31.2161C34.3198 31.505 33.2224 31.5201 32.6228 31.2481ZM34.592 31.1147C35.2337 30.9242 36.0251 30.182 36.4471 29.3751C37.3183 27.7093 37.7073 25.246 37.7169 21.3345C37.729 16.4324 36.9605 13.3131 35.3385 11.6798C34.6573 10.9939 34.1744 10.7809 33.3035 10.7823C31.3707 10.7854 30.144 12.8031 29.6593 16.7763C29.4365 18.6025 29.4354 22.9534 29.6572 24.5503C30.3438 29.4918 32.1164 31.8499 34.592 31.1147ZM70.2102 32.8725C69.3115 32.7814 66.5654 32.3244 65.6061 32.1063L64.9424 31.9554L64.9942 28.4113C65.1188 19.8787 65.1345 15.2207 65.0538 10.6908C64.9748 6.25328 64.9518 5.78409 64.7806 5.12768C64.5638 4.29595 64.2508 3.71578 63.8744 3.44775C63.7282 3.34363 63.3309 3.19607 62.9916 3.11984C61.8637 2.86647 61.9249 2.9071 61.8948 2.39254C61.8775 2.09613 61.9096 1.90032 61.9854 1.84024C62.087 1.75969 71.3383 -0.00494573 71.6329 1.04201e-05C71.7176 0.00143441 71.7296 1.18433 71.6862 5.25575C71.6554 8.1454 71.6515 10.5097 71.6774 10.5097C71.7034 10.5097 72.0414 10.3633 72.4286 10.1844C73.5958 9.64511 74.6716 9.41112 76.234 9.35666C77.2743 9.3204 77.7562 9.34311 78.2899 9.45354C81.7795 10.1755 84.3619 13.0318 85.2643 17.1676C85.4997 18.2465 85.5873 20.9279 85.431 22.2709C85.2978 23.4156 84.9177 24.958 84.5222 25.9589C83.0297 29.7358 79.8275 32.1998 75.5796 32.8401C74.601 32.9876 71.5283 33.0061 70.2102 32.8725ZM75.3282 32.6565C78.0799 32.2438 80.0983 31.2988 81.8077 29.623C84.2785 27.2006 85.4686 23.7817 85.3077 19.5681C85.2249 17.3987 84.8706 15.9816 83.9715 14.2236C82.7534 11.8419 80.6702 10.1713 78.3047 9.6794C76.5303 9.31038 74.2473 9.59941 72.5115 10.4128C72.079 10.6155 71.6649 10.7814 71.5914 10.7814C71.4747 10.7814 71.462 10.1106 71.4918 5.49779L71.5258 0.214176L71.1624 0.287025C70.9625 0.327093 68.9239 0.706944 66.6321 1.13114C64.3403 1.55534 62.3758 1.92336 62.2665 1.94898C62.1005 1.98792 62.0714 2.05122 62.0892 2.33483C62.109 2.65089 62.135 2.67949 62.469 2.75299C63.6173 3.00567 63.8218 3.09571 64.2487 3.53677C64.7718 4.07707 65.008 4.76703 65.1631 6.20689C65.2866 7.35425 65.314 27.1218 65.1961 30.0396L65.1262 31.7697L66.0603 31.9695C69.5974 32.7259 73.1231 32.9872 75.3282 32.6565ZM72.0967 31.2785C71.9137 31.2592 71.7178 31.1879 71.6615 31.12C71.5062 30.9329 71.338 18.6363 71.4416 15.0389L71.5236 12.1855L72.2483 11.9765C73.3175 11.6683 74.4685 11.7162 75.2845 12.1029C76.9232 12.8795 77.9998 14.7978 78.5588 17.9376C78.741 18.9603 78.7141 22.5125 78.5146 23.7765C78.0982 26.4158 77.3404 28.4529 76.2856 29.7688C75.7742 30.4068 74.9249 31.0102 74.2609 31.2074C73.8325 31.3346 72.9143 31.3648 72.0967 31.2785ZM73.8407 31.071C74.4987 30.9462 75.01 30.6843 75.5589 30.1908C76.9346 28.9539 77.9689 26.4005 78.3756 23.2368C78.5413 21.9482 78.519 19.012 78.3354 17.9365C77.8387 15.0277 76.7713 13.1159 75.2142 12.3461C74.5683 12.0268 74.4687 12.0043 73.7026 12.0043C73.1546 12.0043 72.6833 12.063 72.2825 12.181L71.6826 12.3578L71.6383 15.6685C71.5815 19.9096 71.7195 30.5271 71.8353 30.8318C71.9092 31.0262 71.9906 31.0674 72.3574 31.0962C73.2206 31.1639 73.3634 31.1615 73.8407 31.071ZM96.2532 32.8276C91.7593 32.0171 88.5454 28.8302 87.4952 24.1433C87.3601 23.5405 87.3004 22.866 87.2665 21.561C87.213 19.4964 87.3809 18.2149 87.9137 16.6227C88.9367 13.5654 90.7702 11.399 93.4335 10.1006C96.2446 8.73009 100.088 8.64033 102.576 9.88707C105.377 11.2908 107.025 14.0935 107.443 18.164C107.499 18.7121 107.532 19.3643 107.516 19.6134L107.486 20.0663L100.782 20.0895L94.0792 20.1127L94.1048 20.9048C94.1639 22.7395 94.5584 24.3623 95.2881 25.7731C95.6197 26.4144 95.8837 26.7641 96.525 27.4115C97.9737 28.8741 99.4148 29.4404 101.688 29.4404C103.337 29.4404 104.522 29.1115 105.762 28.31C106.109 28.0856 106.461 27.9019 106.544 27.9019C106.733 27.9019 107.169 28.4628 107.169 28.7064C107.169 29.1056 105.869 30.3928 104.601 31.2491C103.563 31.9505 101.917 32.5855 100.489 32.8352C99.489 33.0101 97.2427 33.0061 96.2532 32.8276ZM100.282 32.6536C102.381 32.3132 104.448 31.3058 105.933 29.8991C106.747 29.1286 107.017 28.7567 106.903 28.5619C106.601 28.0422 106.614 28.0427 105.843 28.5163C104.616 29.2704 104.001 29.4784 102.558 29.6264C100.874 29.7992 99.3196 29.5177 97.8837 28.7794C96.9312 28.2896 95.7897 27.1631 95.2192 26.1498C94.4406 24.767 94.0181 23.1518 93.8921 21.0761C93.8392 20.2045 93.8507 19.9873 93.9531 19.9225C94.0228 19.8783 97.0434 19.842 100.715 19.8412L107.35 19.8399V19.5777C107.35 18.9819 107.154 17.3805 106.979 16.5409C106.274 13.1649 104.413 10.7576 101.76 9.78919C100.704 9.40376 99.7047 9.24147 98.3879 9.24147C95.268 9.24147 92.7199 10.2648 90.7488 12.3096C89.1773 13.9398 88.2448 15.7712 87.6758 18.3452C87.5043 19.121 87.4755 19.5242 87.4755 21.1533C87.4755 22.7704 87.5048 23.1875 87.6711 23.9355C88.7274 28.6867 91.8531 31.8155 96.3438 32.617C97.4819 32.8201 99.1589 32.8357 100.282 32.6536ZM93.9113 18.3214C93.8431 18.2111 94.0122 16.5987 94.1795 15.7636C94.5827 13.7506 95.2284 12.2969 96.1168 11.4018C96.5947 10.9203 96.8127 10.7702 97.2025 10.6545C97.4707 10.5748 97.7745 10.5099 97.8775 10.5102C98.2932 10.5113 98.7837 10.7234 99.1487 11.0598C100.128 11.963 100.689 13.9023 100.8 16.773L100.855 18.19L99.9129 18.2425C98.0218 18.3479 93.9606 18.4012 93.9113 18.3214ZM99.0975 18.0624L100.673 18.0076L100.617 16.8881C100.417 12.9404 99.4506 10.7832 97.8837 10.7849C96.1808 10.7868 94.82 12.9761 94.2542 16.6241C94.1846 17.0725 94.127 17.6042 94.1261 17.8057L94.1245 18.1721L95.8229 18.1447C96.7571 18.1296 98.2306 18.0926 99.0975 18.0624ZM114.37 32.9155C112.756 32.7425 110.188 32.1802 109.333 31.8126L108.915 31.6331L108.858 29.5637C108.827 28.4255 108.791 26.9037 108.778 26.1819L108.754 24.8695L109.005 24.7495C109.142 24.6835 109.42 24.6219 109.622 24.6125L109.989 24.5955L110.302 25.3655C111.523 28.3693 112.954 29.9889 114.823 30.4815C115.537 30.6694 116.874 30.671 117.402 30.4847C118.881 29.9626 119.692 28.8428 119.699 27.3131C119.707 25.5014 118.711 24.631 114.949 23.1614C112.618 22.251 111.805 21.7824 110.837 20.7915C109.793 19.7225 109.292 18.5058 109.198 16.8111C109.084 14.7634 109.725 13.037 111.145 11.5659C112.574 10.0855 114.43 9.28314 116.957 9.05249C119.183 8.84939 122.599 9.32144 124.389 10.0794L124.716 10.2177L124.774 12.0621C124.806 13.0766 124.839 14.4365 124.848 15.0841L124.863 16.2616L124.424 16.4245C123.731 16.6819 123.686 16.6497 123.3 15.6277C122.219 12.7631 120.963 11.4076 119.005 10.9936C117.812 10.7412 116.816 11.0125 116.092 11.7868C115.527 12.3908 115.306 12.9272 115.253 13.828C115.195 14.804 115.369 15.3316 115.966 15.984C116.701 16.7882 117.905 17.4824 120.303 18.4847C123.241 19.7124 124.643 20.7547 125.405 22.278C125.9 23.2674 126.04 24.0575 125.991 25.5785C125.953 26.7198 125.917 26.9544 125.657 27.7207C124.81 30.2191 122.899 31.8639 119.947 32.635C118.947 32.8962 118.804 32.9097 116.816 32.9315C115.67 32.9441 114.569 32.9368 114.37 32.9155ZM118.673 32.6617C122.522 32.0772 125.006 30.0134 125.658 26.8602C125.973 25.3375 125.826 23.6443 125.281 22.5121C124.518 20.9269 123.228 19.9699 120.032 18.6187C117.658 17.6152 116.235 16.7645 115.653 16.0006C115.171 15.3694 115.015 14.8842 115.021 14.0424C115.031 12.7729 115.512 11.8005 116.431 11.1942C117.2 10.6866 118.164 10.5628 119.286 10.8274C120.642 11.1471 121.662 11.9795 122.583 13.5184C122.876 14.0082 123.479 15.3829 123.772 16.2313C123.818 16.3629 123.87 16.3685 124.187 16.275C124.386 16.2162 124.577 16.1401 124.611 16.1059C124.645 16.0717 124.643 14.774 124.606 13.2222L124.539 10.4006L124.21 10.2615C123.656 10.0266 122.208 9.63281 121.255 9.45742C120.537 9.32544 119.906 9.29126 118.22 9.29312C116.208 9.29533 116.043 9.30849 115.212 9.53398C112.798 10.189 111.008 11.5515 110.072 13.4462C109.575 14.4531 109.403 15.2293 109.409 16.4429C109.417 18.1661 109.887 19.4382 110.925 20.5495C111.819 21.5058 112.98 22.1881 114.959 22.9187C116.516 23.4937 118.123 24.2965 118.733 24.8035C119.091 25.1014 119.372 25.4409 119.582 25.8281C119.88 26.3788 119.895 26.4517 119.896 27.3131C119.896 28.143 119.872 28.2698 119.608 28.8259C118.92 30.2788 117.543 31.0002 115.739 30.8527C113.289 30.6523 111.563 29.0317 110.159 25.6104C109.792 24.718 109.767 24.6995 109.21 24.9113L108.955 25.0085L109.018 28.199C109.075 31.0305 109.1 31.4025 109.234 31.5059C109.637 31.8148 112.244 32.4336 114.053 32.6496C115.457 32.8173 117.611 32.8229 118.673 32.6617ZM0.120403 32.3711C0.0450889 32.3407 0.00717248 32.115 0.00717248 31.6969C0.00717248 30.9464 -0.0406656 30.98 1.41123 30.7106C2.5248 30.504 2.9232 30.2927 3.41494 29.648C4.36837 28.398 4.57445 25.9911 4.57658 16.0806C4.57859 6.77345 4.39929 4.81556 3.41323 3.3771C2.97574 2.7389 2.23848 2.39236 1.0036 2.24448L0.0524647 2.13058L0.0262324 1.38804L0 0.645495L0.297986 0.592395C0.461878 0.56319 6.22014 0.55085 13.0941 0.564971L25.5923 0.590648L25.6509 0.952986C25.6831 1.15227 25.736 3.1964 25.7684 5.49548L25.8274 9.67564L25.183 9.87137C24.213 10.166 24.2189 10.1696 23.7825 9.01501C22.7107 6.179 21.4816 4.54485 19.7999 3.71966C18.64 3.15054 18.1037 3.08172 14.8281 3.08172H11.9774L11.9282 3.55729C11.8361 4.4491 11.6906 10.1859 11.6916 12.8875L11.6926 15.5824L12.5305 15.5776C12.9913 15.5749 13.9001 15.541 14.5499 15.5022C15.5268 15.4439 15.817 15.392 16.2257 15.2028C17.2299 14.738 17.913 13.7148 18.3315 12.049L18.5476 11.189L19.287 11.1627L20.0264 11.1364V16.5788V22.0212L19.2867 21.9949L18.547 21.9686L18.3371 21.108C17.9426 19.4911 17.1834 18.3336 16.2454 17.9186C15.8121 17.727 14.7401 17.6181 12.6664 17.555L11.6926 17.5254V19.57C11.6926 21.7981 11.8151 24.8123 11.9721 26.4481C12.191 28.7286 12.7737 29.9887 13.8203 30.4447C14.0201 30.5318 14.6524 30.6732 15.2254 30.759C15.7983 30.8448 16.3384 30.9518 16.4256 30.9969C16.6467 31.111 16.6598 32.2921 16.4409 32.3761C16.2695 32.4419 0.283591 32.437 0.120403 32.3711ZM16.403 31.6611C16.403 31.3871 16.3785 31.1629 16.3486 31.1629C15.917 31.1629 13.9057 30.7292 13.5824 30.5664C12.4321 29.9873 11.9004 28.6107 11.6941 25.6778C11.5474 23.5929 11.4014 17.4678 11.4962 17.3731C11.5821 17.2872 15.4119 17.4398 15.8595 17.5469C17.097 17.8432 18.0509 19.0606 18.5286 20.9532L18.7391 21.7874L19.2921 21.8144L19.8452 21.8414V16.5831V11.3249H19.2564C18.7059 11.3249 18.6676 11.3382 18.6676 11.529C18.6676 11.8722 18.324 12.9583 17.9987 13.6432C17.4893 14.716 16.7718 15.3635 15.8595 15.5739C15.6353 15.6256 14.577 15.7084 13.5077 15.7579C11.9996 15.8277 11.5471 15.8232 11.4902 15.7378C11.3851 15.5799 11.6247 3.65344 11.7441 3.09927L11.7892 2.89036L15.1151 2.9181L18.4411 2.94585L19.2151 3.22303C21.0078 3.86505 22.2978 5.1761 23.3755 7.45147C23.6176 7.96266 23.928 8.70702 24.0652 9.10559C24.2023 9.50416 24.3237 9.84294 24.3349 9.85843C24.3461 9.87392 24.6436 9.799 24.9961 9.69193L25.637 9.49728L25.5919 6.53861C25.5671 4.91134 25.5233 2.9583 25.4946 2.19852L25.4423 0.817109H12.811H0.179697L0.206665 1.38286L0.233634 1.94861L1.04889 2.05058C2.13646 2.18661 2.53523 2.3051 2.97317 2.62234C3.63702 3.10323 4.04529 3.80969 4.30238 4.92236C4.7018 6.65102 4.84555 10.5495 4.77898 17.847C4.70863 25.5578 4.61138 27.1615 4.1198 28.7171C3.7155 29.9966 2.96303 30.6748 1.72012 30.8801C1.37804 30.9366 0.89345 31.0267 0.64325 31.0804L0.188342 31.1779V31.6686V32.1594H8.29566H16.403V31.6611ZM44.7741 32.354C44.6915 32.3014 44.6645 32.0924 44.6835 31.653L44.7106 31.027L45.0277 30.9595C45.2021 30.9224 45.5766 30.8487 45.86 30.7957C46.7371 30.6319 47.2411 30.1558 47.5248 29.2234C47.7558 28.4637 47.8577 26.0335 47.863 21.1533C47.8695 15.1847 47.7452 13.7752 47.1417 12.9762C46.8146 12.5432 46.5788 12.42 45.7851 12.2677C45.3934 12.1925 44.9813 12.1119 44.8692 12.0886C44.6876 12.0508 44.6653 11.9916 44.6653 11.5477C44.6653 11.116 44.6926 11.038 44.8692 10.9655C45.1403 10.854 54.114 9.0603 54.4007 9.0603H54.6243L54.5805 10.3964C54.5563 11.1313 54.5178 12.2013 54.4948 12.7743L54.4529 13.816L54.778 13.2297C55.8187 11.3529 56.9859 10.1879 58.5378 9.47668C59.3898 9.08625 59.9582 8.96972 61.0108 8.96972C62.259 8.96972 63.5069 9.37701 63.5069 9.78444C63.5069 10.0584 61.3076 15.8695 61.1864 15.9161C61.1272 15.9388 60.6977 15.7745 60.232 15.551C59.2608 15.085 58.3497 14.8571 57.4652 14.859C56.3637 14.8614 55.1333 15.2672 54.6475 15.7881C54.4397 16.011 54.4387 16.0244 54.3871 19.3526C54.336 22.6485 54.4458 26.6688 54.6312 28.2857C54.7891 29.6632 55.1551 30.3414 55.911 30.6572C56.1632 30.7625 57.7588 30.9811 58.2795 30.9817C58.3189 30.9817 58.3393 31.2977 58.3248 31.6838L58.2983 32.3858L51.5951 32.4074C47.9083 32.4193 44.8388 32.3953 44.7741 32.354ZM58.1624 31.6689V31.1784L57.4604 31.1191C55.8412 30.9824 55.3976 30.8198 54.9724 30.2074C54.3561 29.32 54.222 27.6825 54.222 21.0474V15.8687L54.4466 15.6297C54.7299 15.3281 55.6156 14.9073 56.242 14.7766C57.5138 14.5114 59.1396 14.7405 60.4112 15.3642C60.7761 15.5431 61.09 15.6743 61.1087 15.6556C61.1462 15.6181 63.2347 10.0991 63.2995 9.8663C63.3289 9.76066 63.2086 9.66862 62.8572 9.52804C62.1054 9.22716 61.4533 9.12399 60.6122 9.17279C58.3625 9.30334 56.3659 10.798 54.9278 13.4281C54.6891 13.8647 54.4418 14.2223 54.3783 14.2228C54.2861 14.2234 54.2754 13.7219 54.3249 11.7272L54.387 9.23072L54.1686 9.2822C54.0485 9.31051 52.2382 9.67727 50.1457 10.0972C45.6578 10.9979 45.034 11.1291 44.927 11.1953C44.8827 11.2226 44.8465 11.3845 44.8465 11.555C44.8465 11.897 44.8065 11.8772 45.8263 12.0412C47.2281 12.2667 47.7232 12.9502 47.9322 14.9483C48.2048 17.5536 48.0959 27.7097 47.7805 29.0962C47.6193 29.8052 47.2026 30.4879 46.7832 30.7306C46.6278 30.8205 46.1387 30.9647 45.6962 31.0511L44.8918 31.2082L44.8644 31.6838L44.837 32.1594H51.4997H58.1624V31.6689Z" fill="white"/>
<path d="M16.403 31.6611C16.403 31.3871 16.3785 31.1629 16.3486 31.1629C15.917 31.1629 13.9057 30.7292 13.5824 30.5664C12.4321 29.9873 11.9004 28.6107 11.6941 25.6778C11.5474 23.5929 11.4014 17.4678 11.4962 17.3731C11.5821 17.2872 15.4119 17.4398 15.8595 17.5469C17.097 17.8432 18.0509 19.0606 18.5286 20.9532L18.7391 21.7874L19.2921 21.8144L19.8452 21.8414V16.5831V11.3249H19.2564C18.7059 11.3249 18.6676 11.3382 18.6676 11.529C18.6676 11.8722 18.324 12.9583 17.9987 13.6432C17.4893 14.716 16.7718 15.3635 15.8595 15.5739C15.6353 15.6256 14.577 15.7084 13.5077 15.7579C11.9996 15.8277 11.5471 15.8232 11.4902 15.7378C11.3851 15.5799 11.6247 3.65344 11.7441 3.09927L11.7892 2.89036L15.1151 2.9181L18.4411 2.94585L19.2151 3.22303C21.0078 3.86505 22.2978 5.1761 23.3755 7.45147C23.6176 7.96266 23.928 8.70702 24.0652 9.10559C24.2023 9.50416 24.3237 9.84294 24.3349 9.85843C24.3461 9.87392 24.6436 9.799 24.9961 9.69193L25.637 9.49728L25.5919 6.53861C25.5671 4.91134 25.5233 2.9583 25.4946 2.19852L25.4423 0.817109H12.811H0.179697L0.206665 1.38286L0.233634 1.94861L1.04889 2.05058C2.13646 2.18661 2.53523 2.3051 2.97317 2.62234C3.63702 3.10323 4.04529 3.80969 4.30238 4.92236C4.7018 6.65102 4.84555 10.5495 4.77898 17.847C4.70863 25.5578 4.61138 27.1615 4.1198 28.7171C3.7155 29.9966 2.96303 30.6748 1.72012 30.8801C1.37804 30.9366 0.89345 31.0267 0.64325 31.0804L0.188342 31.1779V31.6686V32.1594H8.29566H16.403V31.6611Z" fill="white"/>
<path fill-rule="evenodd" clip-rule="evenodd" d="M36.0598 32.5355C37.6672 32.1603 38.9484 31.5875 40.0938 30.732C42.8796 28.6514 44.4062 25.4612 44.5471 21.4251C44.6861 17.4462 43.4861 14.0545 41.1658 11.8676C39.2822 10.0924 36.9087 9.24147 33.8405 9.24147C30.5881 9.24147 27.9688 10.2499 25.9537 12.2779C23.7951 14.4503 22.6533 17.4807 22.6533 21.0375C22.6533 24.7272 23.6849 27.7058 25.6854 29.7927C26.7884 30.9432 27.8621 31.6333 29.4018 32.181C29.9462 32.3747 30.3468 32.4676 31.8023 32.7382C31.9269 32.7614 32.7625 32.7657 33.6593 32.7478C34.8734 32.7235 35.4865 32.6693 36.0598 32.5355ZM29.5509 25.2749C30.0797 28.5215 31.1348 30.5731 32.6228 31.2481C33.2224 31.5201 34.3198 31.505 34.9401 31.2161C36.6514 30.4193 37.5689 28.1265 37.868 23.8992C38.2848 18.0081 37.3187 13.0912 35.4048 11.3621C34.543 10.5835 33.2027 10.3286 32.2356 10.7594C30.8246 11.3879 29.9185 13.2484 29.4895 16.3976C29.184 18.6402 29.2157 23.2169 29.5509 25.2749Z" fill="white"/>
<path d="M58.1624 31.6689V31.1784L57.4604 31.1191C55.8412 30.9824 55.3976 30.8198 54.9724 30.2074C54.3561 29.32 54.222 27.6825 54.222 21.0474V15.8687L54.4466 15.6297C54.7299 15.3281 55.6156 14.9073 56.242 14.7766C57.5138 14.5114 59.1396 14.7405 60.4112 15.3642C60.7761 15.5431 61.09 15.6743 61.1087 15.6556C61.1462 15.6181 63.2347 10.0991 63.2995 9.8663C63.3289 9.76066 63.2086 9.66862 62.8572 9.52804C62.1054 9.22716 61.4533 9.12399 60.6122 9.17279C58.3625 9.30334 56.3659 10.798 54.9278 13.4281C54.6891 13.8647 54.4418 14.2223 54.3783 14.2228C54.2861 14.2234 54.2754 13.7219 54.3249 11.7272L54.387 9.23072L54.1686 9.2822C54.0485 9.31051 52.2382 9.67727 50.1457 10.0972C45.6578 10.9979 45.034 11.1291 44.927 11.1953C44.8827 11.2226 44.8465 11.3845 44.8465 11.555C44.8465 11.897 44.8065 11.8772 45.8263 12.0412C47.2281 12.2667 47.7232 12.9502 47.9322 14.9483C48.2048 17.5536 48.0959 27.7097 47.7805 29.0962C47.6193 29.8052 47.2026 30.4879 46.7832 30.7306C46.6278 30.8205 46.1387 30.9647 45.6962 31.0511L44.8918 31.2082L44.8644 31.6838L44.837 32.1594H51.4997H58.1624V31.6689Z" fill="white"/>
<path fill-rule="evenodd" clip-rule="evenodd" d="M75.3282 32.6565C78.0799 32.2438 80.0983 31.2988 81.8077 29.623C84.2785 27.2006 85.4686 23.7817 85.3077 19.5681C85.2249 17.3987 84.8706 15.9816 83.9715 14.2236C82.7534 11.8419 80.6702 10.1713 78.3047 9.6794C76.5303 9.31038 74.2473 9.59941 72.5115 10.4128C72.079 10.6155 71.6649 10.7814 71.5914 10.7814C71.4747 10.7814 71.462 10.1106 71.4918 5.49779L71.5258 0.214176L71.1624 0.287025C70.9625 0.327093 68.9239 0.706944 66.6321 1.13114C64.3403 1.55534 62.3758 1.92336 62.2665 1.94898C62.1005 1.98792 62.0714 2.05122 62.0892 2.33483C62.109 2.65089 62.135 2.67949 62.469 2.75299C63.6173 3.00567 63.8218 3.09571 64.2487 3.53677C64.7718 4.07707 65.008 4.76703 65.1631 6.20689C65.2866 7.35425 65.314 27.1218 65.1961 30.0396L65.1262 31.7697L66.0603 31.9695C69.5974 32.7259 73.1231 32.9872 75.3282 32.6565ZM71.6615 31.12C71.7178 31.1879 71.9137 31.2592 72.0967 31.2785C72.9143 31.3648 73.8325 31.3346 74.2609 31.2074C74.9249 31.0102 75.7742 30.4068 76.2856 29.7688C77.3404 28.4529 78.0982 26.4158 78.5146 23.7765C78.7141 22.5125 78.741 18.9603 78.5588 17.9376C77.9998 14.7978 76.9232 12.8795 75.2845 12.1029C74.4685 11.7162 73.3175 11.6683 72.2483 11.9765L71.5236 12.1855L71.4416 15.0389C71.338 18.6363 71.5062 30.9329 71.6615 31.12Z" fill="white"/>
<path fill-rule="evenodd" clip-rule="evenodd" d="M100.282 32.6536C102.381 32.3132 104.448 31.3058 105.933 29.8991C106.747 29.1286 107.017 28.7567 106.903 28.5619C106.601 28.0422 106.614 28.0427 105.843 28.5163C104.616 29.2704 104.001 29.4784 102.558 29.6264C100.874 29.7992 99.3196 29.5177 97.8837 28.7794C96.9312 28.2896 95.7897 27.1631 95.2192 26.1498C94.4406 24.767 94.0181 23.1518 93.8921 21.0761C93.8392 20.2045 93.8507 19.9873 93.9531 19.9225C94.0228 19.8783 97.0434 19.842 100.715 19.8412L107.35 19.8399V19.5777C107.35 18.9819 107.154 17.3805 106.979 16.5409C106.274 13.1649 104.413 10.7576 101.76 9.78919C100.704 9.40376 99.7047 9.24147 98.3879 9.24147C95.268 9.24147 92.7199 10.2648 90.7488 12.3096C89.1773 13.9398 88.2448 15.7712 87.6758 18.3452C87.5043 19.121 87.4755 19.5242 87.4755 21.1533C87.4755 22.7704 87.5048 23.1875 87.6711 23.9355C88.7274 28.6867 91.8531 31.8155 96.3438 32.617C97.4819 32.8201 99.1589 32.8357 100.282 32.6536ZM94.1795 15.7636C94.0122 16.5987 93.8431 18.2111 93.9113 18.3214C93.9606 18.4012 98.0218 18.3479 99.9129 18.2425L100.855 18.19L100.8 16.773C100.689 13.9023 100.128 11.963 99.1487 11.0598C98.7837 10.7234 98.2932 10.5113 97.8775 10.5102C97.7745 10.5099 97.4707 10.5748 97.2025 10.6545C96.8127 10.7702 96.5947 10.9203 96.1168 11.4018C95.2284 12.2969 94.5827 13.7506 94.1795 15.7636Z" fill="white"/>
<path d="M118.673 32.6617C122.522 32.0772 125.006 30.0134 125.658 26.8602C125.973 25.3375 125.826 23.6443 125.281 22.5121C124.518 20.9269 123.228 19.9699 120.032 18.6187C117.658 17.6152 116.235 16.7645 115.653 16.0006C115.171 15.3694 115.015 14.8842 115.021 14.0424C115.031 12.7729 115.512 11.8005 116.431 11.1942C117.2 10.6866 118.164 10.5628 119.286 10.8274C120.642 11.1471 121.662 11.9795 122.583 13.5184C122.876 14.0082 123.479 15.3829 123.772 16.2313C123.818 16.3629 123.87 16.3685 124.187 16.275C124.386 16.2162 124.577 16.1401 124.611 16.1059C124.645 16.0717 124.643 14.774 124.606 13.2222L124.539 10.4006L124.21 10.2615C123.656 10.0266 122.208 9.63281 121.255 9.45742C120.537 9.32544 119.906 9.29126 118.22 9.29312C116.208 9.29533 116.043 9.30849 115.212 9.53398C112.798 10.189 111.008 11.5515 110.072 13.4462C109.575 14.4531 109.403 15.2293 109.409 16.4429C109.417 18.1661 109.887 19.4382 110.925 20.5495C111.819 21.5058 112.98 22.1881 114.959 22.9187C116.516 23.4937 118.123 24.2965 118.733 24.8035C119.091 25.1014 119.372 25.4409 119.582 25.8281C119.88 26.3788 119.895 26.4517 119.896 27.3131C119.896 28.143 119.872 28.2698 119.608 28.8259C118.92 30.2788 117.543 31.0002 115.739 30.8527C113.289 30.6523 111.563 29.0317 110.159 25.6104C109.792 24.718 109.767 24.6995 109.21 24.9113L108.955 25.0085L109.018 28.199C109.075 31.0305 109.1 31.4025 109.234 31.5059C109.637 31.8148 112.244 32.4336 114.053 32.6496C115.457 32.8173 117.611 32.8229 118.673 32.6617Z" fill="white"/>
</svg>
