<svg width="254" height="40" viewBox="0 0 254 40" fill="none" xmlns="http://www.w3.org/2000/svg">
<path d="M14.5579 12.6289V26.5394C16.4138 25.5244 17.7134 23.7572 18.3443 21.7644L18.493 21.84C18.0843 26.8028 14.7433 31.765 9.54592 31.765C4.31122 31.765 0.450195 27.8178 0.450195 21.5011C0.450195 16.7644 3.49436 13.7939 7.39268 11.1244C6.82307 10.9731 6.23648 10.8973 5.6476 10.8989C2.97429 10.8989 1.41518 12.7411 1.41518 14.6211H1.19245C1.15514 14.3578 1.15514 14.095 1.15514 13.8317C1.15514 10.4856 2.90023 6.425 7.13265 6.425C9.84271 6.425 11.9219 8.94389 15.0774 8.94389C16.3397 8.94389 17.8988 8.34222 18.5297 6.95111H18.6411C18.6043 9.39555 17.8621 11.9144 14.5579 12.6289ZM16.5625 26.8778C14.706 28.87 12.7014 30.5622 10.1027 30.5622C5.27675 30.5622 1.56439 26.7272 1.56439 21.1628C1.56439 17.8922 2.90077 16.1256 4.38582 14.0572H4.23715C3.30893 14.9972 0.8589 17.3656 0.8589 21.3883C0.8589 27.5544 4.68262 31.3517 9.69459 31.3517C13.1842 31.3517 15.5602 28.9083 16.6371 26.9156L16.5625 26.8778ZM18.047 8.64388C17.4161 9.84666 16.0797 11.3878 13.3696 11.3878C10.6596 11.3878 8.17224 9.50777 5.98169 9.50777C3.97657 9.50777 2.60344 10.8617 2.08337 11.8767L2.12067 11.9522C2.82617 11.2378 3.90251 10.5233 5.6476 10.5233C8.54309 10.5233 10.3995 12.3283 13.3323 12.3283C16.4511 12.3283 17.8615 10.26 18.1216 8.68166L18.047 8.64388ZM7.72623 11.2378C5.83302 13.2306 4.08794 15.4111 4.08794 19.6594C4.08794 21.99 4.86749 24.3961 6.61258 25.9L7.68892 25.3356V15.2606L6.68664 15.7867L6.50121 15.4106L11.6986 12.5528C10.2882 12.2528 9.02585 11.6139 7.72623 11.2378ZM14.1492 12.7039C13.8892 12.7411 13.6297 12.7411 13.3323 12.7411C12.8128 12.7411 12.33 12.7039 11.8473 12.5906V23.5683L6.98398 26.2389C7.98626 26.9906 9.21128 27.4417 10.7704 27.4417C12.0327 27.4417 13.1464 27.1783 14.1486 26.7272V12.7039H14.1492ZM8.80312 14.6217L8.09763 15.035V25.1111L8.80312 24.735V14.6217ZM30.1501 16.05V29.0583C30.1501 32.6672 26.9946 35.1117 23.4676 35.8256L23.3936 35.675C25.1387 34.81 26.141 33.0433 26.141 31.1633V17.7039L24.1364 15.8622L23.3568 16.7267V27.2161L24.4705 28.2311V28.3067L21.4636 31.615L18.0113 28.4194V28.2689L19.3477 26.84V10.2228L23.2828 5.975L23.3568 6.01222V16.0878L26.587 12.5539L29.9652 15.6372L30.5961 14.96L30.8934 15.2239L30.1501 16.05ZM19.7553 28.3439V28.2689L20.5349 27.4789V9.58333L19.7553 10.4111V27.1033L18.567 28.3067V28.3817L21.4625 31.0133L21.982 30.4117L19.7553 28.3439ZM27.3287 17.1022L24.9154 14.9972L24.3959 15.5611L26.5491 17.5167V31.0511C26.5491 31.9533 26.3637 32.8928 26.0296 33.4194L26.0669 33.4572C26.9951 32.78 27.3292 31.765 27.3292 30.4494V17.1022H27.3287ZM36.053 23.6067V25.5239L39.654 28.3811L41.7332 26.1256L42.0305 26.4261L37.2045 31.6517L32.3039 27.6667L31.5616 28.4561L31.2643 28.1556L32.1185 27.2533V17.7417L39.135 12.5533L42.8106 18.5689L36.053 23.6067ZM33.3056 26.9156V17.3656L32.5261 17.93V27.2917L37.1299 31.0889L37.724 30.45L33.3056 26.9156ZM36.1276 15.3356L36.053 15.3733V23.0806L39.3572 20.6367L36.1276 15.3356ZM37.0926 14.5839L36.4244 15.0722L39.6918 20.3733L40.36 19.8844L37.0926 14.5839ZM67.0097 31.6144L61.8491 27.1028L57.914 31.6144L52.5679 26.9522V19.5839H51.5283C50.6001 19.5839 50.1179 20.1856 49.8946 20.8994H49.7833C49.6648 20.4326 49.6025 19.9531 49.5978 19.4711C49.5978 18.4933 49.8579 15.9372 52.5679 15.9372V9.47055C52.5679 8.23 51.1202 7.74111 51.1202 6.08666C51.1202 3.94444 53.1248 1.83888 56.8004 0.522217L56.949 0.634995C55.6126 1.42499 54.9071 2.17666 54.9071 3.79333C54.9071 6.275 57.2831 5.63555 57.2831 9.54555V11.0494L61.6269 6.425L66.1934 10.9739L70.4999 6.425L74.6577 10.5606V24.4711L67.0097 31.6144ZM53.7562 26.3511V18.4189H51.677C50.6001 18.4189 50.1179 19.1328 50.0433 19.7722L50.0801 19.81C50.4515 19.3967 50.8228 19.1711 51.6765 19.1711H52.9755V26.7656L57.8761 31.0517L58.433 30.3744L53.7562 26.3511ZM53.7562 9.09444C53.7562 7.55333 52.4198 7.02666 52.4198 6.04944C52.4198 4.69555 52.9393 3.56833 53.7562 2.51555L53.6821 2.47833C52.5685 3.34333 51.5289 4.73444 51.5289 6.08722C51.5289 7.44111 52.9766 8.08 52.9766 9.28333V15.9378H53.7562V9.09444ZM61.5896 12.8544L58.7682 10.0722L57.2831 11.6133V24.9222L60.6614 27.8172L61.5896 26.7644V12.8544ZM62.7773 26.2761V12.3283L59.6218 9.17L59.0277 9.77166L61.9978 12.6661V26.6894L67.0097 31.0883L67.6039 30.5239L62.7773 26.2761ZM69.9798 12.3656L67.6412 10.1094L66.3048 11.5006V24.885L69.9431 28.1178L69.9798 28.0806V12.3656ZM71.1675 11.8394L68.4575 9.17L67.9007 9.77166L70.388 12.1778V27.8928L71.1675 27.1406V11.8394ZM86.9424 31.6144L83.4155 28.3811L80.26 31.6144L76.3989 28.1556L75.8789 28.7194L75.5821 28.4189L76.2503 27.7044V17.6294L83.2301 12.5161L87.2398 15.6744L87.9453 14.9222L88.2426 15.2233L87.4257 16.0878V26.5022L89.393 28.3439L90.0244 27.6672L90.3212 27.9306L86.9424 31.6144ZM77.4385 27.4417V17.2906L76.659 17.8544V27.8178L80.2232 31.0511L80.8173 30.4494L77.4385 27.4417ZM83.4155 17.5539L80.3713 15.1478L80.26 15.2233V26.1633L82.7846 28.3811L83.4155 27.7422V17.5539ZM84.6038 27.78V16.99L81.4482 14.3956L80.706 14.9217L83.8242 17.4033V28.1556L86.943 31.0128L87.4998 30.4111L84.6038 27.78ZM97.7459 19.3583H101.57V27.4039L95.6667 31.6144C94.8872 30.7122 93.773 30.0733 92.3999 30.0733C91.2862 30.0733 90.3947 30.4494 89.207 31.4644L89.0216 31.3889L94.0709 23.945H90.9521V16.9522L97.1523 12.5911C97.8946 13.1928 98.4514 13.5306 99.4169 13.5306C100.16 13.5306 101.236 13.38 102.053 12.7039L102.202 12.7789L97.7459 19.3583ZM93.5881 28.9828C92.5112 28.9828 91.6576 29.3589 90.9148 29.885V29.9606C91.5089 29.6972 92.1031 29.6222 92.6599 29.6222C93.5135 29.6222 94.8504 30.0361 95.7414 31.0889L96.5955 30.45C95.8895 29.6222 95.0359 28.9828 93.5881 28.9828ZM97.56 22.6667H95.4808L91.137 29.0211L91.1743 29.0961C92.2506 28.3067 93.2902 27.7806 94.5525 27.7806C95.6662 27.7806 96.8171 28.3067 97.5226 29.2089L97.56 29.1717V22.6667ZM92.1398 22.6667V16.6144L91.3603 17.1783V23.4944H94.3671L94.9613 22.6672H92.1398V22.6667ZM99.8992 15.2978C99.1196 15.8622 98.6741 16.1628 97.3745 16.1628C96.6317 16.1628 95.7408 15.8244 95.0359 15.0722L94.9618 15.11V20.5989H96.3722L99.9365 15.335L99.8992 15.2978ZM98.1173 14.9594C97.4491 14.9594 96.5955 14.6217 96.0381 13.8694L95.1099 14.5083C95.8154 15.3733 96.4836 15.7489 97.5226 15.7489C98.1908 15.7489 99.1564 15.5606 100.159 14.6956L100.195 14.5833C99.5651 14.8472 98.7855 14.9594 98.1173 14.9594ZM98.7482 21.4267H96.3349L95.7781 22.2161H97.9687V29.5094L98.7482 28.9456V21.4267ZM114.378 16.05V29.0583C114.378 32.6672 111.222 35.1117 107.695 35.8256L107.621 35.675C109.366 34.81 110.369 33.0433 110.369 31.1633V17.7039L108.364 15.8622L107.584 16.7267V27.2161L108.698 28.2311V28.3067L105.691 31.615L102.239 28.4194V28.2689L103.575 26.84V10.2228L107.51 5.975L107.584 6.01222V16.0878L110.815 12.5539L114.193 15.6372L114.824 14.96L115.121 15.2239L114.378 16.05ZM103.983 28.3439V28.2689L104.762 27.4789V9.58333L103.983 10.4106V27.1028L102.795 28.3061V28.3811L105.69 31.0128L106.21 30.4111L103.983 28.3439ZM111.556 17.1022L109.143 14.9972L108.623 15.5611L110.777 17.5167V31.0511C110.777 31.9533 110.591 32.8928 110.257 33.4194L110.295 33.4572C111.223 32.78 111.557 31.765 111.557 30.4494V17.1022H111.556ZM121.135 31.6144L117.942 28.6444L117.199 29.4339L116.902 29.1328L117.756 28.1933V17.3283L116.197 15.8244L115.603 16.5017L115.305 16.2006L118.646 12.5161L121.616 15.2233L122.359 14.3961L122.693 14.6594L121.765 15.6744V26.6528L123.547 28.3444L124.364 27.4794L124.661 27.7806L121.135 31.6144ZM118.944 27.9306V16.7267L117.014 14.9222L116.494 15.5239L118.165 17.1406V28.3067L121.135 31.0133L121.692 30.4117L118.944 27.9306ZM120.058 12.2156L117.014 9.39611L119.798 6.38833L122.843 9.20777L120.058 12.2156ZM118.165 8.79389L117.608 9.35777L120.021 11.6511L120.577 11.0122L118.165 8.79389ZM136.833 31.6144L133.603 28.6444V17.6667L131.635 15.8622L130.595 16.99V27.1406L131.746 28.2306V28.3811L128.702 31.6144L125.249 28.4189V28.3061L126.586 26.8778V17.4033L124.841 15.7867L124.136 16.5761L123.839 16.2756L127.217 12.5533L130.595 15.5989V16.3506L134.122 12.5533L137.426 15.5611L138.169 14.7717L138.503 15.0722L137.612 16.0122V26.7644L139.282 28.3433L140.099 27.4411L140.396 27.7417L136.833 31.6144ZM127.032 28.3439V28.2689C127.032 28.3439 127.774 27.5167 127.774 27.5167V16.8389L125.658 14.8839L125.138 15.4478L126.994 17.1772V27.1022L125.843 28.3056V28.3806L128.702 31.0122L129.296 30.3733L127.032 28.3439ZM134.79 28.0433V17.0278L132.489 14.9222L131.895 15.5611L134.011 17.4783V28.4189L136.795 31.0506L137.389 30.4111L134.79 28.0433ZM147.302 38.3817C146.077 37.0283 145.223 36.4644 144.072 36.4644C142.847 36.4644 141.436 36.9533 139.988 37.7428L139.877 37.6306L145 31.615L141.362 28.6828L140.657 29.435L140.36 29.1717L141.176 28.2694V17.6294L148.23 12.5161L152.165 15.6744L152.834 14.9222L153.131 15.2233L152.351 16.0878V28.9461C152.351 30.9011 153.427 30.8261 153.427 32.2917C153.427 33.9833 151.014 35.5622 147.302 38.3817ZM142.364 27.9678V17.3283L141.585 17.8928V28.3067L145.26 31.3144L145.817 30.6372L142.364 27.9678ZM144.963 35.4872C143.738 35.4872 142.624 35.8633 141.585 36.5772V36.6528C142.253 36.3894 142.995 36.0511 144.258 36.0511C145.409 36.0511 146.373 36.69 147.339 37.8183L148.082 37.2167C147.153 36.1267 146.039 35.4872 144.963 35.4872ZM149.492 31.8778C148.565 31.2761 148.341 30.6372 148.341 29.0206V28.3433L142.178 35.5617L142.216 35.5989C143.403 34.885 144.48 34.3589 146.225 34.3589C147.71 34.3589 148.713 34.96 149.864 35.9378C150.569 35.3361 151.051 34.735 151.051 33.795C151.051 33.0433 150.42 32.4794 149.492 31.8778ZM148.341 17.5539L145.26 15.1106L145.185 15.1856V26.7272L147.562 28.6072L148.341 27.705V17.5539ZM150.606 31.3517C149.64 30.5994 149.529 29.9606 149.529 28.3439V16.915L146.41 14.3583L145.705 14.8472L148.749 17.2906V28.87C148.749 30.4867 148.824 30.9383 149.826 31.6144C150.717 32.2161 151.422 32.855 151.422 33.72C151.422 33.945 151.385 34.3211 151.385 34.3211L151.422 34.3589C151.608 34.1706 151.831 33.87 151.831 33.3811C151.831 32.5544 151.423 31.9906 150.606 31.3517ZM159.516 31.6144L156.101 28.9078L155.395 29.6972L155.098 29.3961L155.915 28.4939V15.3356H153.761L153.687 15.2606L154.986 13.305H155.914V10.7867L159.85 6.53833L159.924 6.61388V13.3056H162.894L162.969 13.3811L161.669 15.3361H159.924V26.7278L161.966 28.3072L162.746 27.4422L163.043 27.7428L159.516 31.6144ZM157.103 10.1472L156.323 11.0122V13.3056H157.103V10.1472ZM157.103 28.1183V15.3356H156.323V28.5694L159.479 31.0511L160.036 30.4494L157.103 28.1183ZM175.182 16.4261V26.9528L168.908 31.6522L164.193 28.0433L163.636 28.6822L163.339 28.3811L164.008 27.6294V17.3283L170.579 12.5533L174.96 16.0128L175.665 15.2606L175.962 15.5611L175.182 16.4261ZM165.196 27.2539V16.99L164.416 17.5539V27.6672L168.871 31.1261L169.577 30.6L165.196 27.2539ZM171.173 17.6667L168.055 15.185L168.018 15.2228V26.4261L171.173 28.8322V17.6667ZM172.362 16.99L168.909 14.2828L168.204 14.8089L171.582 17.4406V29.1333L172.362 28.5322V16.99ZM189.365 31.6144L186.135 28.6444V17.6667L184.167 15.8622L183.127 16.99V27.1406L184.278 28.2306V28.3811L181.234 31.6144L177.781 28.4189V28.3061L179.118 26.8778V17.4033L177.373 15.7867L176.668 16.5761L176.371 16.2756L179.749 12.5533L183.127 15.5989V16.3506L186.654 12.5533L189.958 15.5611L190.701 14.7717L191.035 15.0722L190.144 16.0122V26.7644L191.814 28.3433L192.631 27.4411L192.928 27.7417L189.365 31.6144ZM179.563 28.3439V28.2689C179.563 28.3439 180.306 27.5167 180.306 27.5167V16.8389L178.19 14.8839L177.67 15.4478L179.527 17.1772V27.1022L178.376 28.3056V28.3806L181.235 31.0122L181.829 30.3733L179.563 28.3439ZM187.322 28.0433V17.0278L185.021 14.9222L184.427 15.5611L186.543 17.4783V28.4189L189.327 31.0506L189.921 30.4111L187.322 28.0433ZM212.299 31.6144C211.26 30.4867 210.889 30.1106 209.663 29.7722V37.1411L209.589 37.1783L208.104 35.8244L203.797 39.8472L203.723 39.81V29.6972C202.424 29.9978 201.05 30.675 199.713 32.0278L199.639 31.9906C199.899 29.0956 201.309 26.9528 203.722 26.1256V18.7944H202.943C201.866 18.7944 201.272 19.3583 200.753 20.3733H200.641C200.53 20.0356 200.455 19.5083 200.455 18.6444C200.455 17.065 201.606 15.4111 203.5 15.4111H203.722V11.3506L202.2 9.95944L201.457 10.7117L201.197 10.4483L204.947 6.42555L208.437 9.65888V13.08L209.254 12.1778V7.85388H209.662V11.8017L214.599 6.425L218.794 10.2978V26.6522L212.299 31.6144ZM203.724 28.3061C202.202 28.6067 201.126 29.5467 200.42 30.7872L200.457 30.8628C201.497 29.9606 202.461 29.5472 203.724 29.2461V28.3061ZM204.912 17.5167H202.87C201.459 17.5167 200.902 18.4189 200.866 19.4717L200.902 19.5089C201.348 18.7567 201.793 18.4939 202.684 18.3817H204.132V38.8711L204.912 38.1189V17.5167ZM204.912 10.7489L203.056 9.02L202.461 9.65888L204.132 11.1622V15.4106H204.912V10.7489ZM209.256 12.8917L208.439 13.7567V35.525L209.256 36.2772V12.8917ZM214.119 12.0272L211.929 9.99722L209.664 12.4789V25.7122C211.594 25.9006 212.931 26.4644 214.082 27.7422L214.119 27.705V12.0272ZM209.664 28.3061V29.2839C210.926 29.5844 211.446 29.9606 212.337 31.0128L213.191 30.3361C212.299 29.2083 211.408 28.5322 209.664 28.3061ZM215.307 11.4261L212.782 9.05722L212.188 9.69611L214.527 11.8767V29.3589L215.307 28.7572V11.4261ZM231.753 16.4261V26.9528L225.478 31.6522L220.764 28.0433L220.206 28.6822L219.91 28.3811L220.578 27.6294V17.3283L227.149 12.5533L231.53 16.0128L232.235 15.2606L232.532 15.5611L231.753 16.4261ZM221.767 27.2539V16.99L220.986 17.5539V27.6672L225.442 31.1261L226.147 30.6L221.767 27.2539ZM227.743 17.6667L224.625 15.185L224.588 15.2228V26.4261L227.743 28.8322V17.6667ZM228.932 16.99L225.479 14.2828L224.774 14.8089L228.152 17.4406V29.1333L228.932 28.5322V16.99ZM240.366 19.3583H244.19V27.4039L238.287 31.6144C237.507 30.7122 236.394 30.0733 235.02 30.0733C233.906 30.0733 233.015 30.4494 231.827 31.4644L231.642 31.3889L236.691 23.945H233.572V16.9522L239.772 12.5911C240.515 13.1928 241.071 13.5306 242.037 13.5306C242.779 13.5306 243.855 13.38 244.673 12.7039L244.821 12.7789L240.366 19.3583ZM236.208 28.9828C235.131 28.9828 234.277 29.3589 233.535 29.885V29.9606C234.129 29.6972 234.723 29.6222 235.28 29.6222C236.134 29.6222 237.47 30.0361 238.361 31.0889L239.215 30.45C238.51 29.6222 237.656 28.9828 236.208 28.9828ZM240.181 22.6667H238.102L233.758 29.0211L233.795 29.0961C234.871 28.3067 235.911 27.7806 237.173 27.7806C238.287 27.7806 239.438 28.3067 240.143 29.2089L240.18 29.1717V22.6667H240.181ZM234.761 22.6667V16.6144L233.98 17.1783V23.4944H236.987L237.581 22.6672H234.761V22.6667ZM242.519 15.2978C241.739 15.8622 241.294 16.1628 239.994 16.1628C239.251 16.1628 238.36 15.8244 237.656 15.0722L237.581 15.11V20.5989H238.991L242.556 15.335L242.519 15.2978ZM240.737 14.9594C240.069 14.9594 239.215 14.6217 238.658 13.8694L237.73 14.5083C238.436 15.3733 239.104 15.7489 240.143 15.7489C240.812 15.7489 241.777 15.5606 242.779 14.6956L242.816 14.5833C242.185 14.8472 241.406 14.9594 240.737 14.9594ZM241.368 21.4267H238.956L238.399 22.2161H240.589V29.5094L241.368 28.9456V21.4267ZM250.353 31.6144L246.937 28.9078L246.232 29.6972L245.935 29.3961L246.751 28.4939V15.3356H244.598L244.524 15.2606L245.823 13.305H246.751V10.7867L250.686 6.53833L250.761 6.61388V13.3056H253.73L253.805 13.3811L252.505 15.3361H250.761V26.7278L252.803 28.3072L253.582 27.4422L253.879 27.7428L250.353 31.6144ZM247.939 10.1472L247.16 11.0122V13.3056H247.939V10.1472ZM247.939 28.1183V15.3356H247.16V28.5694L250.315 31.0511L250.872 30.4494L247.939 28.1183Z" fill="white"/>
</svg>
