<svg width="266" height="41" viewBox="0 0 266 41" fill="none" xmlns="http://www.w3.org/2000/svg">
<path d="M14.8075 12.548V26.9657C16.7555 25.9137 18.1195 24.082 18.7817 22.0166L18.9378 22.0949C18.5088 27.2386 15.0021 32.3818 9.54691 32.3818C4.05254 32.3818 0 28.2906 0 21.7437C0 16.8343 3.19516 13.7555 7.28686 10.9887C6.68899 10.8319 6.0733 10.7533 5.45521 10.755C2.6493 10.755 1.01285 12.6643 1.01285 14.6129H0.779069C0.739914 14.3399 0.739914 14.0676 0.739914 13.7946C0.739914 10.3266 2.57156 6.11797 7.01393 6.11797C9.85842 6.11797 12.0407 8.72868 15.3528 8.72868C16.6777 8.72868 18.3142 8.10508 18.9764 6.66326H19.0932C19.0547 9.19682 18.2756 11.8075 14.8075 12.548V12.548ZM16.9115 27.3164C14.963 29.3812 12.859 31.1351 10.1314 31.1351C5.06597 31.1351 1.16947 27.1603 1.16947 21.393C1.16947 18.0032 2.57214 16.1722 4.13085 14.0284H3.97481C3.00054 15.0027 0.428978 17.4574 0.428978 21.6268C0.428978 28.0177 4.44236 31.9534 9.70295 31.9534C13.3657 31.9534 15.8595 29.4209 16.9898 27.3555L16.9115 27.3164V27.3164ZM18.4696 8.41775C17.8075 9.66437 16.4048 11.2617 13.5603 11.2617C10.7158 11.2617 8.10508 9.31313 5.80588 9.31313C3.7013 9.31313 2.26005 10.7164 1.71418 11.7684L1.75334 11.8467C2.49383 11.1062 3.62356 10.3657 5.45521 10.3657C8.49433 10.3657 10.4429 12.2365 13.5211 12.2365C16.7946 12.2365 18.275 10.0928 18.548 8.4569L18.4696 8.41775V8.41775ZM7.63695 11.1062C5.64984 13.1716 3.81819 15.4317 3.81819 19.8349C3.81819 22.2504 4.63641 24.7442 6.46806 26.3029L7.5978 25.7179V15.2756L6.54579 15.8209L6.35117 15.4311L11.8064 12.4691C10.326 12.1582 9.00104 11.496 7.63695 11.1062V11.1062ZM14.3785 12.6258C14.1056 12.6643 13.8332 12.6643 13.5211 12.6643C12.9758 12.6643 12.4691 12.6258 11.9624 12.5083V23.8863L6.85788 26.6542C7.90988 27.4333 9.19567 27.9008 10.8321 27.9008C12.157 27.9008 13.3259 27.6279 14.3779 27.1603V12.6258H14.3785V12.6258ZM8.76726 14.6134L8.02677 15.0419V25.4853L8.76726 25.0955V14.6134V14.6134ZM31.1731 16.0939V29.5764C31.1731 33.3169 27.8611 35.8504 24.1592 36.5903L24.0815 36.4343C25.9131 35.5378 26.9651 33.7067 26.9651 31.7582V17.808L24.8611 15.8992L24.0429 16.7952V27.667L25.2118 28.719V28.7973L22.0558 32.2263L18.4322 28.9142V28.7582L19.8349 27.2772V10.0542L23.9652 5.65156L24.0429 5.69014V16.133L27.4333 12.4703L30.9791 15.666L31.6413 14.9641L31.9534 15.2376L31.1731 16.0939V16.0939ZM20.2627 28.8359V28.7582L21.0809 27.9394V9.39144L20.2627 10.2494V27.5501L19.0155 28.7973V28.8751L22.0546 31.6027L22.5999 30.9791L20.2627 28.8359V28.8359ZM28.2117 17.1844L25.6788 15.0027L25.1335 15.5871L27.3935 17.614V31.6418C27.3935 32.577 27.1989 33.5506 26.8482 34.0965L26.8874 34.1357C27.8617 33.4338 28.2123 32.3818 28.2123 31.0182V17.1844H28.2117V17.1844ZM37.3688 23.926V25.9131L41.1484 28.8745L43.3308 26.5367L43.6428 26.8482L38.5775 32.2643L33.4338 28.134L32.6547 28.9522L32.3426 28.6407L33.2391 27.7056V17.8472L40.6037 12.4697L44.4616 18.7046L37.3688 23.926V23.926ZM34.4852 27.3555V17.4574L33.667 18.0424V27.7453L38.4991 31.681L39.1227 31.0188L34.4852 27.3555V27.3555ZM37.4471 15.3534L37.3688 15.3925V23.3807L40.8369 20.8477L37.4471 15.3534ZM38.46 14.5743L37.7587 15.0804L41.1882 20.5748L41.8895 20.0681L38.46 14.5743V14.5743ZM69.8611 32.2257L64.4445 27.5496L60.3142 32.2257L54.703 27.3935V19.7566H53.6118C52.6376 19.7566 52.1314 20.3802 51.8971 21.1201H51.7802C51.6558 20.6363 51.5905 20.1392 51.5855 19.6397C51.5855 18.6263 51.8585 15.977 54.703 15.977V9.27455C54.703 7.98877 53.1834 7.48206 53.1834 5.7673C53.1834 3.54698 55.2874 1.36467 59.1453 0L59.3014 0.116889C57.8987 0.935689 57.1582 1.71476 57.1582 3.39036C57.1582 5.9625 59.6521 5.29974 59.6521 9.35228V10.911L64.2113 6.11797L69.0043 10.8327L73.5244 6.11797L77.8885 10.4043V24.822L69.8611 32.2257V32.2257ZM55.9502 26.7705V18.5491H53.7679C52.6376 18.5491 52.1314 19.289 52.0531 19.9518L52.0917 19.9909C52.4815 19.5625 52.8713 19.3287 53.7673 19.3287H55.1308V27.2001L60.2745 31.6424L60.8589 30.9405L55.9502 26.7705V26.7705ZM55.9502 8.88473C55.9502 7.28744 54.5475 6.74157 54.5475 5.72872C54.5475 4.32548 55.0928 3.15716 55.9502 2.066L55.8724 2.02742C54.7036 2.92396 53.6124 4.36578 53.6124 5.76788C53.6124 7.17112 55.132 7.8333 55.132 9.0805V15.9775H55.9502V8.88473ZM64.1722 12.7818L61.2108 9.89815L59.6521 11.4954V25.2895L63.1979 28.2901L64.1722 27.1989V12.7818ZM65.4188 26.6928V12.2365L62.1067 8.96304L61.4831 9.58664L64.6006 12.5866V27.1212L69.8611 31.6804L70.4847 31.0954L65.4188 26.6928ZM72.9786 12.2751L70.5239 9.93673L69.1212 11.3786V25.2509L72.94 28.6016L72.9786 28.563V12.2751V12.2751ZM74.2252 11.7298L71.3807 8.96304L70.7963 9.58664L73.407 12.0805V28.3684L74.2252 27.5887V11.7298V11.7298ZM90.7826 32.2257L87.0807 28.8745L83.7686 32.2257L79.7161 28.6407L79.1702 29.2252L78.8587 28.9137L79.5601 28.1732V17.7309L86.8861 12.4311L91.0947 15.7046L91.8352 14.925L92.1472 15.237L91.2899 16.133V26.9271L93.3547 28.8359L94.0175 28.1346L94.329 28.4075L90.7826 32.2257V32.2257ZM80.8073 27.9008V17.3796L79.989 17.9641V28.2906L83.7301 31.6418L84.3537 31.0182L80.8073 27.9008V27.9008ZM87.0807 17.6526L83.8855 15.1587L83.7686 15.237V26.5759L86.4185 28.8745L87.0807 28.2123V17.6526V17.6526ZM88.3279 28.2515V17.0681L85.0158 14.3791L84.2368 14.9244L87.5097 17.4965V28.6407L90.7831 31.6021L91.3676 30.9785L88.3279 28.2515V28.2515ZM102.122 19.5228H106.135V27.8617L99.9397 32.2257C99.1214 31.2906 97.952 30.6284 96.5107 30.6284C95.3418 30.6284 94.4061 31.0182 93.1595 32.0702L92.9649 31.9919L98.2646 24.2767H94.9912V17.029L101.499 12.5089C102.278 13.1325 102.862 13.4826 103.876 13.4826C104.656 13.4826 105.785 13.3265 106.643 12.6258L106.799 12.7035L102.122 19.5228V19.5228ZM97.7579 29.4981C96.6276 29.4981 95.7316 29.8879 94.952 30.4332V30.5115C95.5756 30.2386 96.1992 30.1609 96.7837 30.1609C97.6796 30.1609 99.0829 30.5898 100.018 31.681L100.914 31.0188C100.173 30.1609 99.2775 29.4981 97.7579 29.4981V29.4981ZM101.927 22.9517H99.7445L95.1852 29.5378L95.2244 29.6156C96.3541 28.7973 97.4453 28.2521 98.7702 28.2521C99.9391 28.2521 101.147 28.7973 101.888 29.7325L101.927 29.6939V22.9517ZM96.2378 22.9517V16.6789L95.4196 17.2633V23.8097H98.5756L99.1992 22.9523H96.2378V22.9517ZM104.382 15.3142C103.564 15.8992 103.096 16.2107 101.732 16.2107C100.953 16.2107 100.017 15.8601 99.2775 15.0804L99.1997 15.1196V20.8086H100.68L104.421 15.3528L104.382 15.3142V15.3142ZM102.512 14.9635C101.81 14.9635 100.915 14.6134 100.329 13.8338L99.3552 14.496C100.096 15.3925 100.797 15.7818 101.888 15.7818C102.589 15.7818 103.602 15.5866 104.654 14.69L104.693 14.5737C104.031 14.8472 103.213 14.9635 102.512 14.9635V14.9635ZM103.174 21.6665H100.641L100.057 22.4848H102.356V30.044L103.174 29.4595V21.6665ZM119.579 16.0939V29.5764C119.579 33.3169 116.267 35.8504 112.565 36.5903L112.487 36.4343C114.319 35.5378 115.371 33.7067 115.371 31.7582V17.808L113.267 15.8992L112.449 16.7952V27.667L113.617 28.719V28.7973L110.461 32.2263L106.838 28.9142V28.7582L108.241 27.2772V10.0542L112.371 5.65156L112.449 5.69014V16.133L115.839 12.4703L119.385 15.666L120.047 14.9641L120.359 15.2376L119.579 16.0939V16.0939ZM108.668 28.8359V28.7582L109.487 27.9394V9.39144L108.668 10.2488V27.5496L107.421 28.7968V28.8745L110.46 31.6021L111.006 30.9785L108.668 28.8359V28.8359ZM116.617 17.1844L114.084 15.0027L113.539 15.5871L115.799 17.614V31.6418C115.799 32.577 115.605 33.5506 115.254 34.0965L115.293 34.1357C116.267 33.4338 116.618 32.3818 116.618 31.0182V17.1844H116.617ZM126.671 32.2257L123.32 29.1474L122.54 29.9657L122.228 29.6536L123.125 28.6799V17.4188L121.488 15.8601L120.865 16.562L120.552 16.2499L124.059 12.4311L127.177 15.237L127.956 14.3797L128.307 14.6526L127.333 15.7046V27.0832L129.203 28.8365L130.061 27.94L130.372 28.2521L126.671 32.2257V32.2257ZM124.372 28.4075V16.7952L122.346 14.925L121.8 15.5486L123.554 17.2242V28.7973L126.671 31.6027L127.255 30.9791L124.372 28.4075V28.4075ZM125.541 12.1196L122.346 9.19739L125.268 6.07996L128.463 9.00219L125.541 12.1196ZM123.554 8.57322L122.969 9.15766L125.502 11.5346L126.086 10.8724L123.554 8.57322V8.57322ZM143.148 32.2257L139.757 29.1474V17.7695L137.692 15.8992L136.601 17.0681V27.5887L137.809 28.7185V28.8745L134.614 32.2257L130.99 28.9137V28.7968L132.393 27.3164V17.4965L130.561 15.8209L129.821 16.6391L129.509 16.3276L133.055 12.4697L136.601 15.6263V16.4054L140.303 12.4697L143.77 15.5871L144.55 14.7689L144.901 15.0804L143.965 16.0547V27.1989L145.719 28.8353L146.576 27.9002L146.888 28.2117L143.148 32.2257V32.2257ZM132.86 28.8359V28.7582C132.86 28.8359 133.64 27.9785 133.64 27.9785V16.9115L131.419 14.8852L130.873 15.4697L132.821 17.2622V27.549L131.613 28.7962V28.8739L134.614 31.6015L135.237 30.9394L132.86 28.8359V28.8359ZM141.004 28.5244V17.1073L138.589 14.925L137.965 15.5871L140.186 17.5743V28.9137L143.108 31.6413L143.732 30.9785L141.004 28.5244V28.5244ZM154.136 39.2396C152.851 37.837 151.954 37.2525 150.746 37.2525C149.46 37.2525 147.979 37.7592 146.46 38.5775L146.343 38.4611L151.72 32.2263L147.902 29.1872L147.161 29.9668L146.85 29.6939L147.706 28.7588V17.7309L155.11 12.4311L159.24 15.7046L159.942 14.925L160.254 15.237L159.436 16.133V29.4601C159.436 31.4864 160.565 31.4086 160.565 32.9276C160.565 34.681 158.032 36.3174 154.136 39.2396ZM148.954 28.4461V17.4188L148.135 18.0038V28.7973L151.993 31.9148L152.578 31.2129L148.954 28.4461V28.4461ZM151.681 36.2397C150.395 36.2397 149.226 36.6295 148.135 37.3694V37.4477C148.837 37.1748 149.616 36.8241 150.941 36.8241C152.149 36.8241 153.162 37.4863 154.175 38.6558L154.955 38.0322C153.98 36.9024 152.811 36.2397 151.681 36.2397ZM156.435 32.4986C155.461 31.875 155.227 31.2129 155.227 29.5373V28.8353L148.758 36.3168L148.798 36.3554C150.044 35.6155 151.175 35.0702 153.006 35.0702C154.565 35.0702 155.617 35.6932 156.825 36.7067C157.565 36.0831 158.072 35.46 158.072 34.4858C158.072 33.7067 157.409 33.1222 156.435 32.4986V32.4986ZM155.227 17.6526L151.993 15.1202L151.914 15.1979V27.1603L154.409 29.1089L155.227 28.1737V17.6526V17.6526ZM157.604 31.9534C156.591 31.1737 156.474 30.5115 156.474 28.8359V16.9904L153.2 14.3405L152.46 14.8472L155.655 17.3796V29.3812C155.655 31.0568 155.734 31.525 156.786 32.2257C157.721 32.8493 158.461 33.5115 158.461 34.408C158.461 34.6412 158.422 35.0311 158.422 35.0311L158.461 35.0702C158.656 34.875 158.89 34.5635 158.89 34.0568C158.89 33.2 158.461 32.6155 157.604 31.9534V31.9534ZM166.956 32.2257L163.371 29.4204L162.631 30.2386L162.319 29.9265L163.176 28.9914V15.3534H160.916L160.838 15.2756L162.202 13.2488H163.176V10.6386L167.306 6.23543L167.384 6.31374V13.2494H170.502L170.58 13.3277L169.216 15.3539H167.384V27.1609L169.528 28.7979L170.346 27.9014L170.658 28.2129L166.956 32.2257V32.2257ZM164.423 9.97589L163.605 10.8724V13.2494H164.423V9.97589ZM164.423 28.6021V15.3534H163.605V29.0697L166.917 31.6418L167.502 31.0182L164.423 28.6021V28.6021ZM183.4 16.4837V27.3941L176.814 32.2649L171.865 28.5244L171.281 29.1866L170.969 28.8745L171.67 28.0954V17.4188L178.568 12.4697L183.166 16.0553L183.906 15.2756L184.218 15.5871L183.4 16.4837V16.4837ZM172.918 27.7062V17.0681L172.099 17.6526V28.1346L176.776 31.7196L177.516 31.1743L172.918 27.7062V27.7062ZM179.192 17.7695L175.918 15.1973L175.88 15.2365V26.8482L179.192 29.3421V17.7695ZM180.439 17.0681L176.815 14.2622L176.075 14.8075L179.621 17.5351V29.6541L180.439 29.0311V17.0681ZM198.285 32.2257L194.895 29.1474V17.7695L192.83 15.8992L191.739 17.0681V27.5887L192.947 28.7185V28.8745L189.751 32.2257L186.127 28.9137V28.7968L187.531 27.3164V17.4965L185.699 15.8209L184.958 16.6391L184.647 16.3276L188.193 12.4697L191.739 15.6263V16.4054L195.44 12.4697L198.909 15.5871L199.688 14.7689L200.038 15.0804L199.103 16.0547V27.1989L200.856 28.8353L201.714 27.9002L202.025 28.2117L198.285 32.2257V32.2257ZM187.998 28.8359V28.7582C187.998 28.8359 188.777 27.9785 188.777 27.9785V16.9115L186.556 14.8852L186.011 15.4697L187.96 17.2622V27.549L186.751 28.7962V28.8739L189.752 31.6015L190.376 30.9394L187.998 28.8359V28.8359ZM196.142 28.5244V17.1073L193.726 14.925L193.103 15.5871L195.324 17.5743V28.9137L198.246 31.6413L198.869 30.9785L196.142 28.5244V28.5244ZM222.358 32.2257C221.267 31.0568 220.877 30.667 219.591 30.3163V37.9539L219.513 37.9924L217.954 36.5892L213.434 40.7586L213.356 40.72V30.2386C211.992 30.5501 210.55 31.252 209.147 32.6541L209.069 32.6155C209.342 29.615 210.823 27.3941 213.355 26.5367V18.9384H212.537C211.407 18.9384 210.783 19.5228 210.238 20.5748H210.121C210.004 20.2247 209.926 19.6783 209.926 18.7829C209.926 17.1459 211.134 15.4317 213.122 15.4317H213.355V11.2231L211.758 9.78126L210.978 10.5609L210.705 10.288L214.641 6.11854L218.303 9.46975V13.0156L219.161 12.0805V7.59895H219.589V11.6906L224.772 6.11797L229.175 10.1319V27.0826L222.358 32.2257V32.2257ZM213.357 28.7968C211.759 29.1083 210.63 30.0826 209.889 31.3683L209.928 31.4466C211.019 30.5115 212.032 30.0831 213.357 29.771V28.7968V28.7968ZM214.604 17.614H212.461C210.98 17.614 210.395 18.5491 210.357 19.6403L210.395 19.6788C210.863 18.8992 211.33 18.6268 212.266 18.5105H213.786V39.7469L214.604 38.9673V17.614V17.614ZM214.604 10.5995L212.655 8.80757L212.032 9.46975L213.786 11.0279V15.4311H214.604V10.5995V10.5995ZM219.163 12.8204L218.306 13.7169V36.2788L219.163 37.0585V12.8204V12.8204ZM224.268 11.9244L221.968 9.82042L219.592 12.3926V26.1083C221.618 26.3035 223.02 26.888 224.229 28.2123L224.268 28.1737V11.9244V11.9244ZM219.592 28.7968V29.8102C220.916 30.1217 221.462 30.5115 222.397 31.6021L223.293 30.9008C222.358 29.7319 221.423 29.0311 219.592 28.7968V28.7968ZM225.514 11.3014L222.864 8.84615L222.241 9.50833L224.696 11.7684V29.8879L225.514 29.2643V11.3014V11.3014ZM242.776 16.4837V27.3941L236.19 32.2649L231.242 28.5244L230.657 29.1866L230.345 28.8745L231.047 28.0954V17.4188L237.944 12.4697L242.542 16.0553L243.282 15.2756L243.594 15.5871L242.776 16.4837V16.4837ZM232.294 27.7062V17.0681L231.476 17.6526V28.1346L236.152 31.7196L236.892 31.1743L232.294 27.7062V27.7062ZM238.568 17.7695L235.295 15.1973L235.256 15.2365V26.8482L238.568 29.3421V17.7695ZM239.815 17.0681L236.191 14.2622L235.451 14.8075L238.997 17.5351V29.6541L239.815 29.0311V17.0681ZM251.816 19.5228H255.83V27.8617L249.634 32.2257C248.816 31.2906 247.647 30.6284 246.205 30.6284C245.037 30.6284 244.101 31.0182 242.854 32.0702L242.66 31.9919L247.959 24.2767H244.685V17.029L251.193 12.5089C251.973 13.1325 252.557 13.4826 253.57 13.4826C254.35 13.4826 255.479 13.3265 256.337 12.6258L256.493 12.7035L251.816 19.5228ZM247.452 29.4981C246.322 29.4981 245.426 29.8879 244.647 30.4332V30.5115C245.27 30.2386 245.893 30.1609 246.478 30.1609C247.375 30.1609 248.777 30.5898 249.712 31.681L250.609 31.0188C249.869 30.1609 248.972 29.4981 247.452 29.4981V29.4981ZM251.622 22.9517H249.44L244.881 29.5378L244.92 29.6156C246.049 28.7973 247.141 28.2521 248.465 28.2521C249.634 28.2521 250.842 28.7973 251.583 29.7325L251.621 29.6939V22.9517H251.622ZM245.933 22.9517V16.6789L245.114 17.2633V23.8097H248.27L248.894 22.9523H245.933V22.9517ZM254.077 15.3142C253.258 15.8992 252.791 16.2107 251.426 16.2107C250.647 16.2107 249.712 15.8601 248.972 15.0804L248.893 15.1196V20.8086H250.374L254.115 15.3528L254.077 15.3142V15.3142ZM252.206 14.9635C251.505 14.9635 250.609 14.6134 250.024 13.8338L249.05 14.496C249.79 15.3925 250.492 15.7818 251.583 15.7818C252.284 15.7818 253.298 15.5866 254.35 14.69L254.388 14.5737C253.726 14.8472 252.908 14.9635 252.206 14.9635V14.9635ZM252.869 21.6665H250.336L249.752 22.4848H252.05V30.044L252.869 29.4595V21.6665ZM262.299 32.2257L258.714 29.4204L257.973 30.2386L257.662 29.9265L258.519 28.9914V15.3534H256.258L256.181 15.2756L257.544 13.2488H258.518V10.6386L262.649 6.23543L262.727 6.31374V13.2494H265.844L265.922 13.3277L264.558 15.3539H262.727V27.1609L264.87 28.7979L265.689 27.9014L266 28.2129L262.299 32.2257V32.2257ZM259.766 9.97589L258.948 10.8724V13.2494H259.766V9.97589ZM259.766 28.6021V15.3534H258.948V29.0697L262.26 31.6418L262.844 31.0182L259.766 28.6021Z" fill="white"/>
</svg>
