<svg width="154" height="35" viewBox="0 0 154 35" fill="none" xmlns="http://www.w3.org/2000/svg">
<path d="M118.937 0.552505C118.863 0.692174 118.926 0.969609 118.905 1.16238C118.905 1.54347 118.905 1.92456 118.905 2.30564C119.35 2.32518 119.807 2.26035 120.243 2.35273C120.62 2.48801 120.589 2.95378 120.595 3.28315C120.592 12.5708 120.599 21.8587 120.591 31.1463C120.592 31.4179 120.561 31.7947 120.223 31.8328C119.983 31.8571 119.741 31.8367 119.5 31.8434C119.5 32.4278 119.5 33.0121 119.5 33.5965C122.118 33.5965 124.735 33.5965 127.352 33.5965C127.352 33.0121 127.352 32.4278 127.352 31.8434C126.893 31.8198 126.422 31.8934 125.971 31.8009C125.602 31.7043 125.566 31.2462 125.578 30.9254C125.578 20.6346 125.578 10.3439 125.578 0.0531254C123.364 0.214783 121.151 0.386845 118.937 0.552505ZM137.659 0.552505C137.584 0.692174 137.648 0.969609 137.627 1.16238C137.627 1.54347 137.627 1.92456 137.627 2.30564C138.042 2.33593 138.479 2.23643 138.879 2.37398C139.258 2.51887 139.306 3.0592 139.305 3.45315C139.303 12.7046 139.311 21.9567 139.302 31.2078C139.287 31.511 139.132 31.7946 138.817 31.8221C138.616 31.8549 138.413 31.8403 138.211 31.8434C138.211 32.4278 138.211 33.0121 138.211 33.5965C140.605 33.5965 142.999 33.5965 145.394 33.5965C145.394 33.0121 145.394 32.4278 145.394 31.8434C145.073 31.8177 144.723 31.9102 144.427 31.7584C144.222 31.4958 144.329 31.1195 144.299 30.8064C144.303 25.5095 144.292 20.2124 144.305 14.9156C144.328 14.0454 144.357 13.1173 144.794 12.3429C144.916 12.1429 145.054 11.951 145.234 11.8363C145.789 11.4452 146.556 11.3793 147.179 11.6345C147.455 11.7667 147.595 12.0421 147.687 12.3481C147.896 13.3532 147.789 14.3908 147.816 15.4106C147.813 20.6975 147.822 25.9851 147.812 31.2715C147.804 31.5604 147.603 31.8401 147.294 31.8376C147.061 31.8513 146.827 31.8394 146.594 31.8434C146.594 32.4278 146.594 33.0121 146.594 33.5965C149.045 33.5965 151.496 33.5965 153.947 33.5965C153.947 33.0121 153.947 32.4278 153.947 31.8434C153.604 31.8147 153.166 31.9456 152.916 31.6415C152.731 31.2191 152.841 30.7361 152.81 30.2879C152.806 24.4038 152.817 18.5194 152.805 12.6355C152.756 11.5626 152.576 10.4224 151.886 9.56258C151.438 9.00082 150.759 8.64197 150.053 8.48982C148.957 8.26059 147.764 8.275 146.746 8.7874C145.887 9.18792 145.22 9.90033 144.641 10.6315C144.529 10.7609 144.371 11.0583 144.299 11.0905C144.299 7.41135 144.299 3.73224 144.299 0.0531254C142.086 0.214783 139.872 0.386845 137.659 0.552505ZM0.0212502 0.58438C0.0212502 1.15813 0.0212502 1.73189 0.0212502 2.30564C0.438991 2.33621 0.921044 2.20223 1.27501 2.48627C1.41759 2.56675 1.53463 2.73425 1.63054 2.8941C2.03604 3.57672 2.05214 4.41018 2.05064 5.18504C2.04803 13.248 2.05587 21.3112 2.04672 29.374C2.03808 30.0818 1.90897 30.8631 1.50876 31.429C1.3041 31.6981 0.990198 31.8777 0.631134 31.8434C0.438359 31.8645 0.16092 31.801 0.0212502 31.8753C0.0212502 32.449 0.0212502 33.0228 0.0212502 33.5965C2.23481 33.5965 4.44837 33.5965 6.66193 33.5965C6.66193 33.0121 6.66193 32.4278 6.66193 31.8434C6.21 31.8204 5.74581 31.8926 5.30192 31.8009C4.94646 31.6662 4.73722 31.3887 4.5891 31.0392C4.18082 30.0135 4.33337 28.8873 4.30316 27.8101C4.30316 21.3699 4.30316 14.9297 4.30316 8.48944C6.04776 16.8445 7.80397 25.1983 9.54133 33.554C10.4055 33.554 11.2697 33.554 12.1338 33.554C13.8712 25.1699 15.6274 16.7878 17.372 8.40444C17.3692 15.6245 17.3777 22.8448 17.3678 30.0647C17.3459 30.6293 17.3231 31.2908 16.8726 31.6946C16.6848 31.8183 16.3982 31.8677 16.1501 31.8434C15.7995 31.8434 15.4489 31.8434 15.0982 31.8434C15.0982 32.4278 15.0982 33.0121 15.0982 33.5965C18.2787 33.5965 21.4591 33.5965 24.6396 33.5965C24.6396 33.0121 24.6396 32.4278 24.6396 31.8434C24.2148 31.8052 23.7333 31.9501 23.3586 31.6955C23.0568 31.5143 22.9533 31.0716 22.8947 30.7213C22.7778 29.7354 22.8561 28.739 22.8333 27.7485C22.8361 19.8605 22.8276 11.9722 22.8376 4.08437C22.88 3.52142 22.8839 2.85339 23.3433 2.4544C23.5527 2.31047 23.8924 2.29247 24.1678 2.30564C24.3386 2.26321 24.7161 2.42751 24.6396 2.13777C24.6396 1.60935 24.6396 1.08093 24.6396 0.552505C21.9798 0.552505 19.3199 0.552505 16.6601 0.552505C15.3048 7.44191 13.9317 14.3296 12.5695 21.2183C11.1224 14.3295 9.66362 7.44201 8.22382 0.552505C5.48963 0.552505 2.75544 0.552505 0.0212502 0.552505V0.58438ZM67.9049 0.58438C67.9049 1.15813 67.9049 1.73189 67.9049 2.30564C68.3987 2.33644 68.9131 2.23269 69.3916 2.3832C69.8381 2.54063 69.8734 3.0764 69.9114 3.49542C69.94 5.47759 69.9156 7.46094 69.9237 9.44358C69.9216 16.6664 69.9278 23.8896 69.9206 31.1122C69.9186 31.4539 69.7117 31.7722 69.3606 31.8009C68.8806 31.8823 68.3896 31.8271 67.9049 31.8434C67.9049 32.4278 67.9049 33.0121 67.9049 33.5965C71.1137 33.5965 74.3225 33.5965 77.5313 33.5965C77.5313 33.0121 77.5313 32.4278 77.5313 31.8434C77.019 31.8157 76.4922 31.9069 75.9906 31.7796C75.5662 31.6451 75.4767 31.1182 75.4434 30.7109C75.4071 29.0952 75.4375 27.4778 75.4275 25.8615C75.4275 23.2158 75.4275 20.5702 75.4275 17.9245C77.5383 17.9245 79.6492 17.9245 81.76 17.9245C81.7559 22.1206 81.7683 26.3171 81.7539 30.513C81.724 30.9474 81.6898 31.4997 81.2713 31.7371C80.8093 31.9312 80.2916 31.8086 79.805 31.8434C79.5344 31.7803 79.7027 32.1562 79.6563 32.3173C79.6563 32.7437 79.6563 33.1701 79.6563 33.5965C82.8509 33.5965 86.0455 33.5965 89.2401 33.5965C89.2401 33.0121 89.2401 32.4278 89.2401 31.8434C88.7504 31.81 88.2347 31.9247 87.7648 31.752C87.3094 31.5366 87.2853 30.9525 87.2698 30.509C87.2322 28.8358 87.2635 27.1612 87.2532 25.4875C87.2559 18.3035 87.2478 11.1194 87.2573 3.93561C87.2863 3.44141 87.2332 2.79271 87.6357 2.46502C88.0759 2.19955 88.6187 2.34281 89.1062 2.30564C89.3636 2.34907 89.1893 1.96091 89.2401 1.79777C89.2401 1.38268 89.2401 0.96759 89.2401 0.552505C86.0455 0.552505 82.8509 0.552505 79.6563 0.552505C79.6563 1.13688 79.6563 1.72126 79.6563 2.30564C80.1615 2.33277 80.681 2.24288 81.1757 2.36939C81.6082 2.49661 81.7138 3.03654 81.7417 3.45035C81.7837 4.68754 81.7484 5.92735 81.76 7.16556C81.76 10.0719 81.76 12.9782 81.76 15.8845C79.6492 15.8845 77.5383 15.8845 75.4275 15.8845C75.4314 11.8017 75.4196 7.7186 75.4334 3.63604C75.45 3.25911 75.482 2.80183 75.725 2.52877C76.1252 2.18414 76.6963 2.34303 77.1785 2.30564C77.4148 2.33435 77.6163 2.32832 77.5313 2.03577C77.5313 1.54135 77.5313 1.04693 77.5313 0.552505C74.3225 0.552505 71.1137 0.552505 67.9049 0.552505V0.58438ZM55.0486 0.573755C54.4281 0.626989 53.8731 0.979643 53.4973 1.45564C53.2624 1.72729 53.0616 2.13665 53.0147 2.5306C52.8801 3.38173 53.3121 4.22392 53.9259 4.78324C54.3846 5.23299 54.9435 5.57377 55.5373 5.82255C54.7003 6.76158 53.7907 7.63191 52.8917 8.51069C53.2584 8.90193 53.6193 9.29885 53.9861 9.69008C55.0528 8.87602 56.0968 8.00796 56.9596 6.96723C57.628 6.20078 58.173 5.25626 58.285 4.22484C58.3904 3.06365 57.8471 1.87535 56.9398 1.16876C56.6757 0.959576 56.3042 0.748099 55.94 0.661137C55.652 0.581008 55.347 0.544688 55.0486 0.573755ZM131.921 2.26314C131.372 3.87597 130.839 5.51274 130.026 7.01377C129.743 7.51684 129.427 8.01924 128.978 8.35132C128.494 8.73679 127.858 8.79462 127.261 8.7657C126.957 8.6758 126.969 8.90182 126.991 9.13757C126.991 9.6405 126.991 10.1434 126.991 10.6463C127.554 10.6463 128.117 10.6463 128.68 10.6463C128.684 16.8832 128.673 23.1203 128.686 29.357C128.725 30.392 128.778 31.4722 129.249 32.4153C129.547 33.0012 130.078 33.4659 130.71 33.6727C131.767 34.0471 132.914 34.0504 134.02 33.9795C134.942 33.8814 135.899 33.5611 136.502 32.8279C136.972 32.3382 137.227 31.6632 137.368 31.0025C137.641 29.7963 137.511 28.5511 137.542 27.3256C137.542 26.7561 137.542 26.1866 137.542 25.6171C136.918 25.6171 136.295 25.6171 135.672 25.6171C135.661 27.1524 135.695 28.6894 135.651 30.2237C135.607 30.6826 135.581 31.2653 135.14 31.5246C134.72 31.7461 134.065 31.67 133.855 31.1953C133.572 30.4753 133.692 29.6781 133.664 28.9215C133.664 22.8439 133.664 16.7664 133.664 10.6888C134.928 10.6888 136.192 10.6888 137.457 10.6888C137.457 10.0478 137.457 9.40674 137.457 8.7657C136.207 8.7657 134.956 8.7657 133.706 8.7657C133.706 6.5911 133.706 4.41649 133.706 2.24189C133.115 2.24189 132.523 2.24189 131.932 2.24189L131.921 2.26314ZM31.1421 8.36194C29.7681 8.44312 28.449 9.08996 27.5134 10.0888C26.8095 10.7942 26.255 11.6374 25.8428 12.5459C24.8733 14.6297 24.4779 16.9312 24.3217 19.2099C24.1611 21.8491 24.2512 24.5147 24.7233 27.1196C25.0325 28.6526 25.517 30.1814 26.4016 31.4834C26.9309 32.2078 27.5773 32.8616 28.3796 33.2884C29.5314 33.9234 30.8816 34.08 32.179 34.0031C33.3096 33.9311 34.4957 33.7239 35.424 33.0334C35.9597 32.6083 36.4181 32.0694 36.6915 31.4334C37.2745 30.1167 37.3729 28.6482 37.3524 27.2258C37.3471 26.7455 37.3177 26.2659 37.2834 25.7871C36.6743 25.7871 36.0651 25.7871 35.4559 25.7871C35.4593 27.1308 35.496 28.4913 35.2222 29.814C35.0789 30.3792 34.8703 30.9729 34.3828 31.3334C34.0426 31.5445 33.5713 31.6708 33.142 31.6712C32.4098 31.7047 31.5706 31.6772 30.9721 31.259C30.6265 30.985 30.4228 30.6503 30.2656 30.2396C29.8033 28.888 29.7728 27.4394 29.7147 26.0252C29.6538 24.1969 29.6673 22.3673 29.6652 20.5383C32.3463 20.5383 35.0274 20.5383 37.7084 20.5383C37.6904 18.3395 37.6293 16.1261 37.2195 13.9603C36.9463 12.5928 36.5421 11.1874 35.6684 10.0832C35.1711 9.48102 34.5484 8.98604 33.8099 8.71719C32.9607 8.40039 32.042 8.32255 31.1421 8.36194ZM48.2804 8.36194C47.174 8.43558 46.1081 8.94171 45.3318 9.7234C44.8798 10.1397 44.4957 10.611 44.1579 11.1245C44.1579 10.2426 44.1579 9.3607 44.1579 8.47882C41.9618 8.62591 39.7663 8.7886 37.5703 8.9357C37.5703 9.52008 37.5703 10.1045 37.5703 10.6888C37.9649 10.7087 38.3724 10.6465 38.7588 10.7253C39.1403 10.8325 39.2452 11.2967 39.2491 11.6663C39.2739 13.7964 39.2526 15.9278 39.2597 18.0584C39.2552 22.3983 39.2687 26.7386 39.2529 31.0782C39.2538 31.3903 39.1504 31.7629 38.8126 31.8102C38.418 31.8785 38.0121 31.8277 37.6128 31.8434C37.6128 32.4278 37.6128 33.0121 37.6128 33.5965C40.1876 33.5965 42.7624 33.5965 45.3372 33.5965C45.3372 33.0121 45.3372 32.4278 45.3372 31.8434C45.0166 31.8177 44.6669 31.9102 44.3704 31.7584C44.1568 31.4608 44.2759 31.0507 44.2429 30.7044C44.2466 25.4415 44.2353 20.1784 44.2485 14.9156C44.2696 14.0455 44.3016 13.1171 44.7415 12.3458C44.8448 12.1477 44.9948 11.982 45.1779 11.8257C45.4232 11.6754 45.7515 11.5232 46.0722 11.5025C46.5337 11.4472 47.1522 11.5108 47.4091 11.8788C47.7994 12.4462 47.7275 13.1777 47.7598 13.8339C47.7569 19.6463 47.7654 25.4595 47.7555 31.2715C47.7375 31.5573 47.5668 31.8252 47.271 31.8328C47.0281 31.8571 46.782 31.8366 46.5379 31.8434C46.5379 32.4278 46.5379 33.0121 46.5379 33.5965C48.9887 33.5965 51.4396 33.5965 53.8904 33.5965C53.8904 33.0121 53.8904 32.4278 53.8904 31.8434C53.5474 31.8147 53.1091 31.9456 52.8598 31.6415C52.6749 31.2191 52.7843 30.7361 52.7536 30.2879C52.7499 24.4038 52.7608 18.5194 52.7481 12.6355C52.6993 11.5626 52.5195 10.4224 51.8292 9.56258C51.4273 9.06018 50.8394 8.71119 50.212 8.54412C49.5885 8.3697 48.9248 8.32974 48.2804 8.36194ZM60.0742 8.37257C58.6807 8.46926 57.2895 9.07205 56.3986 10.1649C55.8962 10.7194 55.5726 11.4228 55.3538 12.1387C54.9789 13.3852 55.0234 14.7122 55.1596 15.9925C55.3437 17.4872 55.9566 18.909 56.8706 20.1014C57.8233 21.392 58.9442 22.5575 59.9838 23.7844C60.4693 24.3416 60.9745 24.8876 61.3975 25.4666C62.0237 26.2745 62.5998 27.162 62.768 28.19C62.9066 29.0141 62.8956 29.8842 62.6425 30.6855C62.5117 31.0466 62.3279 31.3418 61.9961 31.5548C61.3818 31.9733 60.5836 31.9631 59.8714 31.8876C59.4568 31.8153 59.0403 31.6491 58.7486 31.3796C58.3792 31.0932 58.1745 30.6803 57.9645 30.2617C57.372 28.8751 57.2866 27.3493 57.0339 25.8792C56.9993 25.6831 56.6519 25.8349 56.483 25.7871C56.0225 25.7871 55.5621 25.7871 55.1017 25.7871C55.1017 28.3902 55.1017 30.9934 55.1017 33.5965C55.6436 33.5965 56.1855 33.5965 56.7273 33.5965C56.8282 33.131 56.9734 32.6198 57.3506 32.3027C57.5754 32.1122 57.7567 32.4209 57.9095 32.5581C58.8243 33.499 60.141 34.0057 61.4511 34.0166C62.7581 34.0361 64.1185 33.7123 65.153 32.8846C65.7923 32.3467 66.3296 31.6732 66.6432 30.8877C67.2802 29.4085 67.2946 27.7491 67.1087 26.1746C66.9571 24.7011 66.3644 23.3012 65.5141 22.0978C64.2177 20.3045 62.6126 18.7547 61.1877 17.0605C60.7313 16.4676 60.21 15.839 59.8919 15.1268C59.4509 14.1731 59.3346 13.082 59.4859 12.0474C59.5509 11.6005 59.7701 11.1419 60.1167 10.912C60.7599 10.4675 61.604 10.5253 62.3407 10.6469C62.7576 10.739 63.1469 10.965 63.4211 11.2626C63.4967 11.3764 63.6121 11.4911 63.6768 11.641C64.1689 12.4735 64.2145 13.4719 64.3414 14.4097C64.4052 14.9368 64.4796 15.4632 64.5368 15.9908C65.1743 15.9908 65.8118 15.9908 66.4493 15.9908C66.4493 13.5824 66.4493 11.174 66.4493 8.7657C65.9251 8.7657 65.4009 8.7657 64.8768 8.7657C64.8166 9.18783 64.8709 9.65557 64.6749 10.0407C64.5161 10.0723 64.4251 9.84061 64.2908 9.77716C64.0138 9.53878 63.6508 9.2845 63.3028 9.08821C62.3225 8.54214 61.2006 8.25144 60.0742 8.37257ZM95.7426 8.36194C94.4177 8.44262 93.1386 9.04488 92.2146 9.98812C90.9779 11.1849 90.2302 12.7912 89.7326 14.422C89.027 16.7947 88.8363 19.2884 88.8519 21.7538C88.8797 23.6914 89.0012 25.6398 89.4171 27.5363C89.7202 28.8983 90.1789 30.2524 90.9621 31.415C91.6707 32.4511 92.6896 33.3046 93.9044 33.6842C95.1301 34.0933 96.4582 34.0808 97.7257 33.9042C98.703 33.7567 99.7057 33.422 100.404 32.701C101.092 32.06 101.472 31.1677 101.684 30.2614C102.033 28.7987 101.988 27.2769 101.884 25.7871C101.275 25.7871 100.666 25.7871 100.056 25.7871C100.077 27.0898 100.092 28.4074 99.8481 29.6921C99.7363 30.26 99.522 30.8586 99.1002 31.2378C98.4593 31.7534 97.5778 31.6947 96.8034 31.6582C96.2144 31.6074 95.6127 31.4104 95.2516 30.9422C94.9142 30.4934 94.7187 29.8792 94.6137 29.3041C94.3668 28.0696 94.3549 26.8032 94.2979 25.5495C94.2619 23.8793 94.2646 22.2087 94.2658 20.5383C96.9468 20.5383 99.6279 20.5383 102.309 20.5383C102.291 18.3395 102.23 16.1261 101.82 13.9603C101.546 12.5935 101.144 11.1857 100.269 10.0832C99.7716 9.48102 99.149 8.98604 98.4105 8.71719C97.5621 8.39782 96.6419 8.32374 95.7426 8.36194ZM109.747 8.36194C108.35 8.41447 106.929 8.81499 105.815 9.67945C105.337 10.1127 104.875 10.5931 104.616 11.1959C104.091 12.3067 104.265 13.647 104.86 14.6904C105.079 15.0729 105.399 15.41 105.773 15.6508C106.368 15.9892 107.125 16.0173 107.737 15.6993C108.191 15.4914 108.56 15.1234 108.812 14.6945C109.198 13.9296 108.969 12.9567 108.382 12.366C107.879 11.7689 107.221 11.3329 106.527 10.9863C107.138 10.5505 107.91 10.4039 108.644 10.3255C109.304 10.2876 110.015 10.294 110.613 10.603C110.878 10.7594 111.077 10.9724 111.174 11.2832C111.446 12.175 111.321 13.1234 111.351 14.0421C111.351 15.2654 111.351 16.4887 111.351 17.712C109.884 18.2052 108.413 18.7148 107.034 19.4225C105.912 19.9934 104.884 20.8122 104.237 21.9071C103.476 23.2717 103.274 24.8594 103.208 26.399C103.14 28.0283 103.189 29.7 103.713 31.2587C103.961 31.9642 104.332 32.6282 104.897 33.1245C105.635 33.8292 106.717 34.077 107.721 34.0077C108.718 33.9545 109.705 33.5612 110.425 32.872C110.984 32.3461 111.445 31.7306 111.797 31.0465C111.953 31.7308 112.132 32.4445 112.562 33.0121C112.949 33.4907 113.512 33.8067 114.126 33.9106C115.145 34.0799 116.24 34.0871 117.203 33.6755C117.95 33.3303 118.437 32.6188 118.66 31.8417C118.962 30.836 118.984 29.7729 119.001 28.7302C118.473 28.7302 117.946 28.7302 117.418 28.7302C117.404 29.5301 117.458 30.3468 117.288 31.1317C117.223 31.4705 116.805 31.5427 116.536 31.4184C116.301 31.1811 116.378 30.8056 116.349 30.5005C116.336 25.1101 116.355 19.7194 116.339 14.3291C116.319 12.8872 116.056 11.3662 115.155 10.2001C114.706 9.6653 114.152 9.21229 113.503 8.93673C112.331 8.42079 111.013 8.3162 109.747 8.36194ZM31.5246 10.4763C31.9652 10.4629 32.452 10.566 32.6396 10.9994C32.9221 11.5633 32.924 12.2205 32.9675 12.8392C33.0465 14.7954 32.9995 16.7536 33.0121 18.7108C31.8965 18.7108 30.7809 18.7108 29.6652 18.7108C29.7063 16.8205 29.7111 14.9255 29.8912 13.0421C29.9864 12.3358 30.0353 11.5771 30.4179 10.9585C30.6404 10.5653 31.0871 10.4574 31.5246 10.4763ZM96.1252 10.4763C96.5657 10.4629 97.0525 10.566 97.2401 10.9994C97.596 11.7434 97.5372 12.6027 97.5944 13.4083C97.6329 15.1753 97.6034 16.9433 97.6127 18.7108C96.497 18.7108 95.3814 18.7108 94.2658 18.7108C94.3096 16.5919 94.315 14.4647 94.5795 12.3591C94.6914 11.7413 94.8019 11.0252 95.3176 10.6357C95.5677 10.503 95.846 10.471 96.1252 10.4763ZM111.351 28.0077C111.347 28.7649 111.333 29.5719 110.975 30.2542C110.774 30.6559 110.418 30.9083 109.977 31.0055C109.578 31.084 109.094 31.0685 108.758 30.8765C108.49 30.6811 108.353 30.3862 108.269 30.0444C108.071 29.1224 108.107 28.1685 108.089 27.23C108.12 25.613 108.039 23.9708 108.4 22.383C108.525 21.8398 108.739 21.3199 109.067 20.8677C109.223 20.6387 109.495 20.3627 109.721 20.2001C110.038 19.9203 110.409 19.7 110.787 19.4665C110.977 19.3595 111.163 19.2457 111.351 19.1358C111.351 22.0931 111.351 25.0504 111.351 28.0077ZM95.8595 10.3701C95.2977 10.3617 94.8662 10.7898 94.712 11.2945C94.3411 12.412 94.3437 13.5997 94.2551 14.7476C94.1869 16.0874 94.1694 17.4345 94.1489 18.7745V18.8277H94.202C95.3601 18.8277 96.5183 18.8277 97.6764 18.8277H97.7295V18.7745C97.7169 16.9384 97.7611 15.0985 97.7083 13.2601C97.6546 12.4621 97.6967 11.5925 97.2939 10.8482V10.8376C97.1415 10.5885 96.9046 10.4614 96.6458 10.402C96.3869 10.3425 96.1115 10.352 95.8595 10.3701ZM95.8595 10.4763C96.1074 10.4585 96.3843 10.453 96.6245 10.5082C96.8648 10.5634 97.0739 10.6807 97.2089 10.9013C97.5875 11.609 97.5479 12.4668 97.602 13.2707C97.6543 15.0877 97.6118 16.9009 97.6233 18.7214C96.5006 18.7214 95.3779 18.7214 94.2551 18.7214C94.2755 17.3991 94.2942 16.0778 94.3614 14.7582C94.4504 13.6042 94.4441 12.4321 94.8076 11.337L94.8183 11.3263C94.9609 10.8594 95.3547 10.4688 95.8595 10.4763ZM55.0486 0.520629C54.4106 0.575373 53.8386 0.937609 53.4548 1.42376C53.2102 1.70684 53.0006 2.1273 52.9554 2.5394C52.8132 3.46004 53.3123 4.34439 53.9861 4.91942C54.4031 5.31929 54.9166 5.61105 55.4417 5.8438C54.6204 6.75938 53.7305 7.60668 52.8492 8.46819L52.8173 8.51069L52.8492 8.54257C53.2156 8.9334 53.5764 9.33032 53.9436 9.72195L53.9754 9.76445L54.0179 9.73258C55.0859 8.9176 56.1366 8.0478 57.0036 7.00193C57.6769 6.22986 58.2286 5.27544 58.3423 4.22878C58.4495 3.04757 57.894 1.84452 56.9717 1.12626C56.7021 0.912751 56.3271 0.695268 55.9517 0.60563C55.6582 0.523985 55.3549 0.490794 55.0486 0.520629ZM55.0486 0.62688C55.3391 0.598582 55.6479 0.633265 55.9305 0.711881C56.2835 0.796167 56.6493 1.0064 56.908 1.21126C57.8003 1.90619 58.3396 3.07699 58.2361 4.21816C58.1257 5.23435 57.5821 6.16674 56.9186 6.92756C56.0697 7.95162 55.0391 8.81045 53.9861 9.6157C53.6458 9.25189 53.3071 8.88579 52.9661 8.52132C53.8543 7.65345 54.7509 6.78437 55.5798 5.85442L55.6329 5.8013L55.5586 5.76942C55.0149 5.53451 54.4832 5.23984 54.0604 4.83441C53.4086 4.27813 52.9376 3.42228 53.0723 2.55002C53.1144 2.16594 53.3104 1.75292 53.5398 1.48751C53.9076 1.02168 54.4457 0.678605 55.0486 0.62688ZM144.299 0C142.085 0.165109 139.872 0.340829 137.659 0.510004H137.627L137.605 0.541879C137.558 0.630515 137.57 0.73701 137.574 0.850007C137.578 0.963003 137.583 1.08103 137.574 1.16876C137.574 1.54631 137.574 1.9281 137.574 2.30564V2.35877H137.627C138.054 2.39098 138.479 2.29004 138.859 2.42252C139.013 2.47995 139.107 2.62124 139.167 2.7944C139.227 2.96755 139.252 3.16656 139.252 3.3469C139.25 12.6324 139.261 21.9208 139.252 31.2059C139.245 31.3491 139.197 31.4869 139.125 31.5884C139.053 31.6898 138.959 31.7566 138.817 31.769H138.806C138.615 31.8014 138.417 31.7866 138.211 31.7903H138.158V31.8434C138.158 32.4278 138.158 33.0121 138.158 33.5965V33.6496H138.211C140.605 33.6496 142.999 33.6496 145.394 33.6496H145.447V33.5965C145.447 33.0121 145.447 32.4278 145.447 31.8434V31.7903H145.394C145.067 31.7641 144.739 31.8322 144.469 31.7053C144.388 31.5905 144.355 31.4553 144.352 31.3015C144.35 31.1403 144.368 30.9668 144.352 30.8021C144.356 25.5051 144.35 20.2142 144.363 14.9176C144.386 14.0477 144.413 13.1267 144.841 12.3676C144.974 12.1647 145.074 12.0129 145.266 11.8682C145.477 11.748 145.742 11.6087 145.999 11.5813C146.41 11.5153 146.903 11.5307 147.232 11.7301C147.463 11.906 147.589 12.1598 147.657 12.442C147.725 12.7242 147.74 13.0294 147.752 13.3132C147.783 15.3362 147.755 17.3658 147.763 19.3908C147.76 23.3517 147.762 27.3094 147.752 31.2696C147.749 31.402 147.706 31.5355 147.625 31.6309C147.544 31.7262 147.434 31.7808 147.296 31.7796C147.067 31.7932 146.83 31.7862 146.594 31.7903H146.541V31.8434C146.541 32.4278 146.541 33.0121 146.541 33.5965V33.6496H146.594C149.045 33.6496 151.496 33.6496 153.947 33.6496H154V33.5965C154 33.0121 154 32.4278 154 31.8434V31.7903H153.947C153.767 31.7752 153.571 31.7988 153.394 31.7903C153.223 31.782 153.081 31.7477 152.969 31.6203C152.968 31.6171 152.971 31.6128 152.969 31.6096C152.801 31.2134 152.892 30.7448 152.863 30.2921C152.863 30.2886 152.863 30.285 152.863 30.2815C152.86 24.401 152.876 18.5137 152.863 12.6332C152.814 11.5562 152.63 10.4053 151.928 9.5307C151.478 8.96571 150.803 8.60621 150.101 8.44694C148.998 8.21224 147.79 8.2098 146.754 8.7232C145.868 9.12725 145.184 9.85003 144.597 10.5932C144.536 10.6638 144.468 10.7756 144.406 10.8695C144.386 10.8991 144.37 10.9189 144.352 10.9438C144.352 7.3143 144.352 3.68266 144.352 0.0531254V0H144.299ZM144.246 0.106251C144.246 3.76766 144.246 7.43119 144.246 11.0926V11.1776L144.321 11.1351C144.36 11.1173 144.377 11.0973 144.406 11.0607C144.434 11.0241 144.47 10.9702 144.501 10.9226C144.564 10.8274 144.631 10.7263 144.682 10.6676C145.265 9.92963 145.936 9.21122 146.796 8.81882C147.802 8.32026 148.993 8.32189 150.079 8.55319C150.762 8.70796 151.412 9.05333 151.843 9.59445C152.521 10.4397 152.697 11.5648 152.746 12.6332C152.759 18.517 152.753 24.4079 152.757 30.2921C152.787 30.729 152.669 31.2192 152.863 31.6628L152.874 31.6734C153.011 31.8404 153.204 31.8873 153.394 31.8965C153.567 31.9048 153.741 31.8904 153.894 31.8965C153.894 32.4455 153.894 32.9944 153.894 33.5434C151.478 33.5434 149.063 33.5434 146.647 33.5434C146.647 32.9944 146.647 32.4455 146.647 31.8965C146.861 31.8949 147.077 31.9095 147.296 31.8965C147.467 31.8979 147.611 31.8107 147.71 31.6946C147.809 31.5785 147.865 31.4261 147.869 31.2696C147.879 27.309 147.867 23.3515 147.869 19.3908C147.861 17.367 147.889 15.3382 147.859 13.3132C147.846 13.03 147.834 12.7175 147.763 12.4207C147.692 12.1239 147.562 11.8402 147.306 11.6451H147.296C146.932 11.4192 146.417 11.397 145.989 11.4645C145.985 11.465 145.981 11.4639 145.978 11.4645C145.692 11.4979 145.411 11.6642 145.202 11.7832C144.995 11.9393 144.878 12.1112 144.746 12.3145C144.3 13.1041 144.269 14.0473 144.246 14.9176C144.233 20.2146 144.25 25.5053 144.246 30.8021V30.8128C144.26 30.9612 144.244 31.1307 144.246 31.3015C144.249 31.4724 144.271 31.6455 144.384 31.7903L144.395 31.8009L144.406 31.8115C144.708 31.9664 145.045 31.8847 145.341 31.8965C145.341 32.4455 145.341 32.9944 145.341 33.5434C142.982 33.5434 140.623 33.5434 138.264 33.5434C138.264 32.9944 138.264 32.4455 138.264 31.8965C138.443 31.896 138.629 31.9053 138.817 31.8753C138.82 31.875 138.824 31.8756 138.827 31.8753C138.995 31.8576 139.135 31.7727 139.22 31.6521C139.308 31.5291 139.351 31.3658 139.359 31.2059C139.367 21.9207 139.356 12.6323 139.359 3.3469C139.358 3.159 139.34 2.94295 139.274 2.7519C139.207 2.56084 139.094 2.39876 138.902 2.32689C138.501 2.18705 138.07 2.27133 137.68 2.25252C137.68 1.89614 137.68 1.53576 137.68 1.17938C137.68 1.17586 137.68 1.17229 137.68 1.16876C137.69 1.06627 137.684 0.95533 137.68 0.850007C137.676 0.754048 137.692 0.67056 137.712 0.616255C139.89 0.449654 142.068 0.268874 144.246 0.106251ZM125.578 0C123.364 0.165109 121.151 0.340829 118.937 0.510004H118.905L118.884 0.541879C118.837 0.630515 118.848 0.73701 118.852 0.850007C118.856 0.963003 118.862 1.08103 118.852 1.16876C118.852 1.54631 118.852 1.9281 118.852 2.30564V2.35877H118.905C119.388 2.38889 119.874 2.29689 120.308 2.44377C120.311 2.44489 120.315 2.44262 120.318 2.44377C120.465 2.56415 120.514 2.73211 120.531 2.9219C120.548 3.11338 120.53 3.32361 120.542 3.5169C120.542 3.52035 120.541 3.52409 120.542 3.52753C120.539 12.7324 120.55 21.9375 120.542 31.1421V31.1528C120.547 31.2854 120.535 31.4359 120.488 31.5565C120.442 31.6772 120.36 31.7627 120.212 31.7796C119.98 31.8121 119.744 31.797 119.5 31.8009H119.447V31.854C119.447 32.4348 119.447 33.0157 119.447 33.5965V33.6496H119.5C122.118 33.6496 124.735 33.6496 127.352 33.6496H127.405V33.5965C127.405 33.0121 127.405 32.4278 127.405 31.8434V31.7903H127.352C126.886 31.7663 126.42 31.8376 125.982 31.7478C125.809 31.697 125.731 31.5692 125.684 31.4078C125.637 31.2463 125.631 31.0521 125.631 30.8871C125.631 20.6077 125.631 10.3325 125.631 0.0531254V0H125.578ZM125.525 0.106251C125.525 10.368 125.525 20.6254 125.525 30.8871C125.525 31.0532 125.524 31.2573 125.578 31.4396C125.631 31.6219 125.749 31.792 125.96 31.854C126.406 31.9455 126.863 31.8811 127.299 31.8965C127.299 32.4455 127.299 32.9944 127.299 33.5434C124.717 33.5434 122.135 33.5434 119.553 33.5434C119.553 32.998 119.553 32.4526 119.553 31.9071C119.775 31.906 120.005 31.9179 120.233 31.8859C120.421 31.8645 120.528 31.7438 120.584 31.599C120.64 31.4543 120.653 31.2825 120.648 31.1421C120.656 21.9339 120.646 12.7252 120.648 3.5169C120.636 3.33427 120.656 3.12057 120.637 2.91127C120.618 2.70197 120.557 2.49252 120.372 2.34814L120.361 2.33752C119.905 2.17882 119.41 2.2715 118.958 2.25252C118.958 1.89614 118.958 1.53576 118.958 1.17938C118.958 1.17586 118.958 1.17229 118.958 1.16876C118.968 1.06627 118.962 0.95533 118.958 0.850007C118.955 0.754048 118.971 0.67056 118.99 0.616255C121.169 0.449654 123.346 0.268874 125.525 0.106251ZM67.8518 0.510004V0.56313V0.595005C67.8518 1.16522 67.8518 1.73543 67.8518 2.30564V2.35877H67.9049C68.4086 2.39019 68.9101 2.28811 69.3712 2.43314C69.5462 2.48674 69.6613 2.62037 69.7324 2.7944C69.8023 2.96533 69.8297 3.17595 69.8493 3.35753C69.8495 3.36106 69.8492 3.36462 69.8493 3.36815C69.9116 4.7993 69.8662 6.23474 69.8812 7.67131C69.8793 15.441 69.8878 23.2133 69.8812 30.9828C69.8863 31.1463 69.8531 31.3386 69.7749 31.4821C69.6968 31.6257 69.5729 31.7221 69.3924 31.7371C68.9144 31.8368 68.4098 31.7672 67.9049 31.7903H67.8518V31.8434C67.8518 32.4278 67.8518 33.0121 67.8518 33.5965V33.6496H67.9049C71.1137 33.6496 74.3225 33.6496 77.5313 33.6496H77.5844V33.5965C77.5844 33.0121 77.5844 32.4278 77.5844 31.8434V31.7903H77.5313C77.0142 31.7623 76.4959 31.8463 76.0119 31.7265C75.8135 31.6625 75.6948 31.509 75.6187 31.3121C75.5427 31.1152 75.5047 30.8809 75.4912 30.6746C75.4588 28.9013 75.4897 27.1273 75.4806 25.3515C75.4806 22.8935 75.4806 20.4356 75.4806 17.9776C77.556 17.9776 79.6315 17.9776 81.7069 17.9776C81.7029 22.1526 81.7106 26.3302 81.6963 30.5046C81.6963 30.5082 81.6963 30.5117 81.6963 30.5152C81.6823 30.73 81.6728 30.974 81.6113 31.1846C81.5503 31.3935 81.4354 31.573 81.25 31.684C80.8278 31.8668 80.3386 31.759 79.8581 31.7903C79.851 31.7907 79.8441 31.7897 79.8369 31.7903C79.766 31.7737 79.6986 31.7763 79.6563 31.8115C79.609 31.8508 79.5952 31.9045 79.5925 31.9603C79.5872 32.0717 79.6158 32.2021 79.6031 32.2684V32.279C79.6031 32.7168 79.6031 33.1588 79.6031 33.5965V33.6496H79.6563C82.8509 33.6496 86.0455 33.6496 89.2401 33.6496H89.2932V33.5965C89.2932 33.0121 89.2932 32.4278 89.2932 31.8434V31.7903H89.2401C88.7394 31.7562 88.2349 31.8708 87.7845 31.7053C87.5737 31.6055 87.4645 31.4254 87.402 31.2059C87.3394 30.9864 87.3346 30.7261 87.3276 30.5046C87.29 28.8329 87.3166 27.1642 87.3063 25.4896C87.309 18.3091 87.2968 11.1221 87.3063 3.94191C87.3063 3.93837 87.3063 3.93482 87.3063 3.93128C87.3195 3.68319 87.3198 3.39951 87.3595 3.14503C87.3996 2.88712 87.4818 2.66099 87.6676 2.50752C88.0806 2.25846 88.604 2.39428 89.102 2.35877C89.1055 2.35852 89.1091 2.35904 89.1126 2.35877C89.1458 2.36307 89.1699 2.36819 89.1976 2.35877C89.2288 2.34817 89.2559 2.32053 89.272 2.29502C89.3041 2.244 89.3065 2.18499 89.3038 2.12502C89.3011 2.06505 89.2982 2.00093 89.2932 1.94439C89.2882 1.88785 89.285 1.84345 89.2932 1.81689V1.80626V1.79564C89.2932 1.38409 89.2932 0.974676 89.2932 0.56313V0.510004H89.2401C86.0455 0.510004 82.8509 0.510004 79.6563 0.510004H79.6031V0.56313C79.6031 1.14397 79.6031 1.72481 79.6031 2.30564V2.35877H79.6563C80.167 2.38738 80.678 2.30182 81.1544 2.42252C81.3538 2.47889 81.4764 2.62141 81.5582 2.81565C81.6399 3.00988 81.6722 3.24853 81.6857 3.45315C81.7276 4.68808 81.6953 5.92173 81.7069 7.16131C81.7069 10.0499 81.7069 12.9428 81.7069 15.8314C79.6315 15.8314 77.556 15.8314 75.4806 15.8314C75.4844 11.7697 75.4776 7.7055 75.4912 3.6444C75.4912 3.64087 75.4912 3.63732 75.4912 3.63378C75.5146 3.22762 75.5359 2.74707 75.8312 2.50752C76.2447 2.25896 76.7672 2.39222 77.2656 2.35877C77.2726 2.3583 77.2799 2.35931 77.2869 2.35877C77.3566 2.37749 77.4183 2.38649 77.4675 2.36939C77.5225 2.35029 77.5569 2.30149 77.5738 2.25252C77.6075 2.15457 77.5901 2.04136 77.5844 1.93377C77.5844 1.47689 77.5844 1.02001 77.5844 0.56313V0.510004H77.5313C74.3225 0.510004 71.1137 0.510004 67.9049 0.510004H67.8518ZM67.958 0.616255C71.1314 0.616255 74.3048 0.616255 77.4781 0.616255C77.4781 1.05543 77.4781 1.49459 77.4781 1.93377C77.4841 2.04544 77.4869 2.16424 77.4675 2.22064C77.4578 2.24884 77.447 2.25549 77.425 2.26314C77.403 2.2708 77.3665 2.27385 77.2975 2.25252H77.2869H77.2762C76.7989 2.28917 76.2353 2.14124 75.7675 2.42252C75.4188 2.70534 75.3978 3.22713 75.3744 3.63378C75.3606 7.71657 75.3783 11.8019 75.3744 15.8845V15.9376H75.4275C77.5383 15.9376 79.6492 15.9376 81.76 15.9376H81.8132V15.8845C81.8132 12.9782 81.8132 10.0676 81.8132 7.16131C81.8015 5.92447 81.834 4.6926 81.7919 3.45315V3.44253C81.778 3.23145 81.7433 2.98589 81.6538 2.77315C81.5642 2.5604 81.4235 2.38334 81.1863 2.31627H81.1757C80.6871 2.19249 80.1875 2.27146 79.7094 2.25252C79.7094 1.7071 79.7094 1.16167 79.7094 0.616255C82.8686 0.616255 86.0278 0.616255 89.187 0.616255C89.187 1.00651 89.187 1.39475 89.187 1.78501C89.187 1.78856 89.187 1.79209 89.187 1.79564C89.1732 1.84773 89.1713 1.89803 89.1763 1.95502C89.1817 2.01578 89.1953 2.08361 89.1976 2.13564C89.1999 2.18768 89.1962 2.22725 89.187 2.24189C89.1824 2.24922 89.1744 2.24956 89.1657 2.25252C89.157 2.25548 89.1387 2.25693 89.1126 2.25252H89.102C88.628 2.28865 88.0683 2.14242 87.6038 2.42252C87.3897 2.59945 87.2954 2.86336 87.2532 3.1344C87.211 3.40544 87.2136 3.68684 87.2001 3.93128C87.1906 11.1152 87.2028 18.3057 87.2001 25.4896C87.2103 27.1624 87.173 28.8406 87.2107 30.5152C87.2177 30.7373 87.2281 30.9898 87.2957 31.2271C87.3634 31.4644 87.4977 31.6852 87.742 31.8009C88.2137 31.9742 88.7225 31.8749 89.187 31.8965C89.187 32.4455 89.187 32.9944 89.187 33.5434C86.0278 33.5434 82.8686 33.5434 79.7094 33.5434C79.7094 33.1268 79.7094 32.7062 79.7094 32.2896C79.7101 32.286 79.7088 32.2827 79.7094 32.279C79.7261 32.1732 79.6948 32.0546 79.6988 31.9709C79.7008 31.9276 79.7212 31.9043 79.7306 31.8965C79.7401 31.8887 79.7611 31.8773 79.8263 31.8965H79.8369H79.8475C80.3104 31.8621 80.8213 31.9942 81.2925 31.7903L81.3032 31.7796C81.5273 31.6521 81.6397 31.4465 81.7069 31.2165C81.7741 30.9865 81.799 30.7326 81.8132 30.5152C81.8276 26.3191 81.809 22.1205 81.8132 17.9245V17.8714H81.76C79.6492 17.8714 77.5383 17.8714 75.4275 17.8714H75.3744V17.9245C75.3744 20.4002 75.3744 22.8758 75.3744 25.3515C75.3834 27.1258 75.3525 28.8989 75.385 30.6746V30.6853C75.3988 30.896 75.4293 31.1394 75.5125 31.3546C75.5956 31.5698 75.7339 31.7568 75.9694 31.8328H75.98C76.4787 31.9593 76.9898 31.8778 77.4781 31.8965C77.4781 32.4455 77.4781 32.9944 77.4781 33.5434C74.3048 33.5434 71.1314 33.5434 67.958 33.5434C67.958 32.9944 67.958 32.4455 67.958 31.8965C68.4294 31.8813 68.9212 31.9414 69.4031 31.8434C69.4088 31.8429 69.408 31.8334 69.4137 31.8328C69.6228 31.8093 69.7824 31.6973 69.8706 31.5353C69.9611 31.3689 69.9931 31.1628 69.9874 30.9828C69.994 23.2132 69.9856 15.441 69.9874 7.67131C69.9724 6.23437 70.0188 4.79777 69.9556 3.35753C69.9357 3.17034 69.9065 2.94361 69.8281 2.7519C69.7497 2.56018 69.6156 2.39198 69.4031 2.32689C68.9249 2.17648 68.427 2.27271 67.958 2.25252C67.958 1.7071 67.958 1.16167 67.958 0.616255ZM0 0.531254V0.595005V2.27377V2.32689H0.0637505H0.733131C1.13271 2.32689 1.45318 2.56054 1.67876 2.99627C1.90435 3.43201 2.02939 4.07213 2.02939 4.84504V29.2721C2.02939 30.0248 1.90481 30.6686 1.67876 31.1209C1.45272 31.5732 1.1309 31.8221 0.733131 31.8221H0.0637505H0V31.8753V33.5646V33.6178H0.0637505H6.63005H6.68318V33.5646V31.8753V31.8221H6.63005H5.62067C5.17861 31.8221 4.8586 31.5725 4.64316 31.1209C4.42772 30.6692 4.32441 30.0258 4.32441 29.2721V8.69132L9.52008 33.5328L9.5307 33.5753H9.5732H12.102H12.1445L12.1551 33.5328L17.3508 8.65945V29.6865C17.3508 30.4422 17.2889 30.9898 17.1276 31.3334C16.9663 31.677 16.7269 31.8221 16.3201 31.8221H15.1407H15.077V31.8753V33.5646V33.6178H15.1407H24.6077H24.6608V33.5646V31.8753V31.8221H24.6077H23.8958C23.489 31.8221 23.2393 31.677 23.0777 31.3334C22.9161 30.9898 22.8546 30.4422 22.8546 29.6865V4.46254C22.8546 3.70751 22.9161 3.16953 23.0777 2.82627C23.2393 2.48302 23.489 2.32689 23.8958 2.32689H24.6077H24.6608V2.27377V0.595005V0.531254H24.6077H16.692H16.6495L16.6389 0.58438L12.5695 21.1227L8.24507 0.573755L8.23444 0.531254H8.19194H0.0637505H0ZM0.116876 0.64813H8.14944L12.5164 21.4095L12.6226 21.3989V21.3777L16.7345 0.64813H24.5546V2.22064H23.8958C23.4601 2.22064 23.1574 2.40078 22.9821 2.77315C22.8067 3.14552 22.7483 3.70149 22.7483 4.46254V29.6865C22.7483 30.4482 22.8067 31.0032 22.9821 31.3759C23.1574 31.7486 23.4601 31.939 23.8958 31.939H24.5546V33.5115H15.1939V31.939H16.3201C16.7559 31.939 17.0483 31.7486 17.2233 31.3759C17.3982 31.0032 17.4676 30.4482 17.4676 29.6865V8.09632V8.08569H17.4145L17.3614 8.07507V8.08569H17.3508V8.12819L12.0595 33.469H9.6157L4.32441 8.17069V8.16007L4.27128 8.17069H4.21816V8.18132V29.2721C4.21816 30.0358 4.32081 30.6881 4.54754 31.1634C4.77427 31.6387 5.13589 31.939 5.62067 31.939H6.57693V33.5115H0.116876V31.939H0.733131C1.17789 31.939 1.53718 31.638 1.77439 31.1634C2.0116 30.6887 2.13565 30.0369 2.13564 29.2721V4.84504C2.13564 4.0604 2.01205 3.41284 1.77439 2.95377C1.53672 2.49471 1.17608 2.22064 0.733131 2.22064H0.116876V0.64813ZM131.9 2.18877L131.879 2.22064L131.868 2.24189C131.305 3.89633 130.764 5.57994 129.924 7.10818C129.65 7.56303 129.352 8.01286 128.946 8.30882C128.459 8.70826 127.793 8.7344 127.172 8.71257C127.168 8.71245 127.165 8.7127 127.161 8.71257C127.085 8.69535 127.021 8.70166 126.98 8.74445C126.938 8.78968 126.927 8.85588 126.927 8.91445C126.927 8.97301 126.933 9.02751 126.938 9.08445C126.943 9.14139 126.945 9.1923 126.938 9.22258V9.2332V9.24383C126.938 9.71275 126.938 10.1774 126.938 10.6463V10.6995H126.991C127.536 10.6995 128.082 10.6995 128.627 10.6995C128.631 16.9185 128.615 23.138 128.627 29.3571C128.678 30.459 128.725 31.6365 129.297 32.6296H129.307C129.69 33.2001 130.265 33.6421 130.944 33.809C131.98 34.1098 133.07 34.1064 134.131 34.0215H134.142C135.071 33.9047 136.017 33.5456 136.617 32.789C137.155 32.1488 137.408 31.309 137.52 30.494C137.656 29.3151 137.572 28.1297 137.595 26.9558C137.595 26.511 137.595 26.0619 137.595 25.6171V25.564H137.542C136.918 25.564 136.295 25.564 135.672 25.564H135.619V25.6171C135.608 27.1535 135.641 28.6853 135.597 30.2177C135.575 30.4484 135.556 30.7019 135.491 30.9296C135.428 31.1523 135.316 31.3501 135.119 31.4715C134.921 31.5756 134.658 31.6151 134.429 31.5671C134.199 31.5192 134.005 31.3933 133.908 31.174C133.632 30.4715 133.745 29.6852 133.717 28.9215C133.717 22.8616 133.717 16.8018 133.717 10.742C134.963 10.742 136.21 10.742 137.457 10.742H137.51V10.6888C137.51 10.0478 137.51 9.40674 137.51 8.7657V8.71257H137.457C136.224 8.71257 134.992 8.71257 133.759 8.71257C133.759 6.55568 133.759 4.39879 133.759 2.24189V2.18877H133.706C133.115 2.18877 132.523 2.18877 131.932 2.18877H131.9ZM131.974 2.29502C132.534 2.29502 133.093 2.29502 133.653 2.29502C133.653 4.45191 133.653 6.6088 133.653 8.7657V8.81882H133.706C134.939 8.81882 136.171 8.81882 137.404 8.81882C137.404 9.42445 137.404 10.0301 137.404 10.6357C136.157 10.6357 134.91 10.6357 133.664 10.6357H133.61V10.6888C133.61 16.7664 133.61 22.8439 133.61 28.9215C133.638 29.671 133.512 30.4791 133.802 31.2165C133.915 31.472 134.152 31.62 134.407 31.6734C134.663 31.7268 134.939 31.6951 135.162 31.5778V31.5671H135.172C135.407 31.4287 135.528 31.2047 135.597 30.9615C135.667 30.7183 135.681 30.4567 135.704 30.2284C135.747 28.71 135.715 27.1869 135.725 25.6702C136.313 25.6702 136.901 25.6702 137.489 25.6702C137.489 26.0974 137.489 26.5287 137.489 26.9558C137.465 28.1362 137.548 29.3071 137.414 30.4727C137.304 31.2758 137.05 32.1082 136.532 32.7253C135.958 33.4485 135.039 33.7994 134.131 33.9153C134.128 33.9157 134.124 33.9149 134.12 33.9153C133.069 33.9988 131.989 33.9969 130.975 33.7028H130.965C130.315 33.5428 129.761 33.126 129.392 32.5765C128.838 31.6133 128.795 30.4593 128.744 29.3571C128.732 23.1205 128.737 16.8833 128.734 10.6463V10.5932H128.68C128.135 10.5932 127.59 10.5932 127.044 10.5932C127.044 10.1456 127.044 9.70206 127.044 9.25445C127.044 9.2509 127.044 9.24738 127.044 9.24383C127.055 9.19131 127.049 9.13018 127.044 9.07382C127.039 9.01394 127.033 8.96249 127.034 8.91445C127.034 8.86641 127.046 8.82855 127.055 8.81882C127.064 8.8091 127.087 8.80224 127.15 8.81882H127.161C127.79 8.84148 128.484 8.8247 129.01 8.39382C129.438 8.08147 129.733 7.61797 130.009 7.16131V7.15068C130.854 5.61352 131.413 3.94559 131.974 2.29502ZM48.2804 8.30882C47.1725 8.385 46.0965 8.87753 45.316 9.6582C44.9014 10.0555 44.5352 10.4902 44.2216 10.9757C44.2216 10.1434 44.2216 9.31112 44.2216 8.47882V8.42569H44.1685C41.9687 8.57282 39.7696 8.73549 37.5703 8.88257H37.5172V8.9357C37.5172 9.52008 37.5172 10.1045 37.5172 10.6888V10.742H37.5703C38.0007 10.7732 38.4292 10.6744 38.8134 10.8057C38.9706 10.8692 39.0638 11.0047 39.1216 11.1776C39.1793 11.3504 39.1946 11.5542 39.1959 11.7301C39.2108 16.7162 39.2023 21.7034 39.2066 26.6902C39.1974 28.1954 39.2288 29.7037 39.1959 31.2059C39.1885 31.3486 39.1406 31.4865 39.0684 31.5884C38.9963 31.6902 38.9026 31.7574 38.7603 31.769H38.7497C38.3768 31.813 37.9994 31.7794 37.6128 31.7903H37.5597V31.8434C37.5597 32.4278 37.5597 33.0121 37.5597 33.5965V33.6496H37.6128C40.1912 33.6496 42.7695 33.6496 45.3479 33.6496H45.401V33.5965C45.401 33.0121 45.401 32.4278 45.401 31.8434V31.7903H45.3479C45.0178 31.7638 44.6861 31.833 44.4129 31.7053C44.3266 31.5664 44.2979 31.4038 44.296 31.2271C44.294 31.0465 44.3099 30.8574 44.296 30.6746C44.2957 30.6711 44.2963 30.6675 44.296 30.664C44.2997 25.4159 44.2934 20.1654 44.3066 14.9176C44.3375 14.0479 44.3503 13.1224 44.7847 12.3676C44.8881 12.1888 45.0523 11.9839 45.2097 11.8788C45.7284 11.5166 46.4318 11.4491 47.0266 11.6557C47.219 11.7279 47.3603 11.8858 47.4623 12.0807C47.5642 12.2756 47.6285 12.5045 47.6535 12.7182C47.7559 13.7207 47.686 14.7409 47.7066 15.757C47.7038 20.9306 47.7059 26.0967 47.696 31.2696H47.7066C47.6967 31.4145 47.644 31.5405 47.5685 31.6309C47.493 31.7212 47.3949 31.7731 47.2498 31.7796C47.0179 31.7932 46.7769 31.7862 46.5379 31.7903H46.4848V31.8434C46.4848 32.4278 46.4848 33.0121 46.4848 33.5965V33.6496H46.5379C48.9887 33.6496 51.4396 33.6496 53.8904 33.6496H53.9436V33.5965C53.9436 33.0121 53.9436 32.4278 53.9436 31.8434V31.7903H53.8904C53.7104 31.7757 53.5152 31.7992 53.3379 31.7903C53.1659 31.7816 53.0224 31.7465 52.9129 31.6203C52.9115 31.6171 52.9143 31.6128 52.9129 31.6096C52.7444 31.2134 52.8357 30.7448 52.8067 30.2921C52.8064 30.2886 52.8069 30.285 52.8067 30.2815C52.8031 24.401 52.8194 18.5137 52.8067 12.6332C52.7556 11.6069 52.6002 10.5058 51.9673 9.64758C51.3527 8.77157 50.2603 8.37833 49.226 8.31944C48.9086 8.28552 48.597 8.29046 48.2804 8.30882ZM48.2804 8.41507C48.5929 8.39695 48.9057 8.3926 49.2154 8.42569L49.226 8.43632C50.2371 8.49388 51.2937 8.87239 51.8823 9.71133V9.72195C52.4938 10.5511 52.6391 11.6137 52.6898 12.6332C52.7025 18.517 52.6968 24.4079 52.7004 30.2921C52.7304 30.729 52.6125 31.2192 52.8067 31.6628L52.8173 31.6734C52.9525 31.8397 53.147 31.8869 53.3379 31.8965C53.5105 31.9052 53.6845 31.8906 53.8373 31.8965C53.8373 32.4455 53.8373 32.9944 53.8373 33.5434C51.4219 33.5434 49.0064 33.5434 46.591 33.5434C46.591 32.9944 46.591 32.4455 46.591 31.8965C46.8082 31.8948 47.0278 31.9095 47.2498 31.8965C47.4218 31.8887 47.5598 31.8068 47.6535 31.6946C47.7472 31.5824 47.8017 31.443 47.8129 31.2803V31.2696C47.8227 26.0964 47.8101 20.9198 47.8129 15.7464C47.7924 14.7368 47.8634 13.7224 47.7598 12.7076C47.7335 12.4833 47.6681 12.2384 47.5579 12.0276C47.4476 11.8168 47.2931 11.6334 47.0691 11.5495C46.442 11.3317 45.697 11.409 45.146 11.7938C44.9628 11.9161 44.8086 12.1261 44.6997 12.3145C44.2471 13.1009 44.2206 14.0491 44.1897 14.9176C44.1765 20.1692 44.1935 25.4232 44.1897 30.6746C44.2041 30.846 44.1876 31.0344 44.1897 31.2271C44.1918 31.4199 44.2147 31.6216 44.3279 31.7903L44.3385 31.8009L44.3491 31.8115C44.6552 31.9674 44.9955 31.8843 45.2947 31.8965C45.2947 32.4455 45.2947 32.9944 45.2947 33.5434C42.7518 33.5434 40.2089 33.5434 37.6659 33.5434C37.6659 32.9944 37.6659 32.4455 37.6659 31.8965C38.0273 31.8901 38.4009 31.9189 38.7709 31.8753C38.9444 31.8612 39.0766 31.7756 39.1641 31.6521C39.2515 31.5287 39.2939 31.3651 39.3022 31.2059C39.3352 29.7008 39.3037 28.1936 39.3128 26.6902C39.3086 21.7037 39.3277 16.7166 39.3128 11.7301C39.3114 11.5479 39.2916 11.3364 39.2278 11.1457C39.1641 10.955 39.0501 10.7885 38.8559 10.7101C38.4513 10.5717 38.0172 10.6541 37.6234 10.6357C37.6234 10.0868 37.6234 9.53779 37.6234 8.98882C39.788 8.84382 41.9513 8.67692 44.1154 8.53194C44.1154 9.39612 44.1154 10.2603 44.1154 11.1245V11.3157L44.211 11.1563C44.5306 10.6272 44.9429 10.1721 45.3904 9.7432C46.1521 8.98131 47.2 8.48936 48.2804 8.41507ZM109.757 8.30882C108.347 8.35739 106.913 8.76498 105.783 9.63695C105.26 10.1083 104.743 10.6476 104.498 11.337H104.508C104.01 12.5435 104.276 13.9671 105.008 15.0132C105.338 15.4392 105.781 15.8108 106.336 15.927C107.12 16.1172 107.961 15.7893 108.493 15.2151C109.071 14.6624 109.226 13.7406 108.875 13.0157C108.582 12.3502 108.011 11.8676 107.441 11.4645V11.4538C107.191 11.28 106.925 11.1267 106.655 10.9863C107.173 10.6319 107.824 10.4984 108.45 10.3913C108.454 10.3911 108.457 10.3916 108.461 10.3913C109.179 10.3402 109.946 10.3193 110.586 10.6463C110.843 10.7978 111.035 10.997 111.128 11.2945C111.395 12.1715 111.267 13.1215 111.298 14.0464C111.298 15.2555 111.298 16.4604 111.298 17.6695C109.705 18.2191 108.092 18.7645 106.612 19.5927C105.547 20.2059 104.59 21.0624 104.03 22.1746C103.417 23.4362 103.23 24.8428 103.159 26.2227C103.084 27.8984 103.116 29.6326 103.648 31.2484C103.913 31.9951 104.317 32.7049 104.933 33.2246C105.683 33.8966 106.742 34.1314 107.728 34.064C108.866 34.0064 109.979 33.494 110.735 32.6403C111.146 32.2025 111.49 31.7058 111.776 31.174C111.971 31.9859 112.191 32.8705 112.892 33.4159C113.557 33.9823 114.488 34.0539 115.314 34.0747C116.26 34.0702 117.334 33.9021 118.002 33.1503C118.552 32.5883 118.765 31.79 118.905 31.0465C119.027 30.2793 119.05 29.5021 119.054 28.7302V28.6771H119.001C118.473 28.6771 117.946 28.6771 117.418 28.6771H117.365V28.7302C117.354 29.5079 117.393 30.2884 117.258 31.0465C117.223 31.278 117.026 31.4489 116.791 31.4184H116.78C116.664 31.4371 116.586 31.3896 116.525 31.3121C116.464 31.2347 116.425 31.1218 116.43 31.0146C116.363 29.8663 116.414 28.7066 116.398 27.5508C116.393 23.1204 116.404 18.6896 116.387 14.2589C116.361 12.8329 116.095 11.3293 115.197 10.1682C114.745 9.62811 114.187 9.16216 113.529 8.88257C112.349 8.36163 111.024 8.264 109.757 8.30882ZM109.757 8.41507C111.016 8.37056 112.329 8.47785 113.487 8.98882C114.126 9.26038 114.668 9.70249 115.112 10.232C115.989 11.3654 116.255 12.8453 116.281 14.2589C116.298 18.6891 116.287 23.1201 116.292 27.5508C116.308 28.7024 116.256 29.8589 116.323 31.0146C116.317 31.1469 116.349 31.2845 116.43 31.3865C116.505 31.4824 116.639 31.5273 116.78 31.514C116.789 31.5132 116.792 31.5261 116.802 31.5246C116.803 31.5247 116.801 31.5139 116.802 31.514C117.084 31.5367 117.323 31.3426 117.365 31.0678C117.499 30.3111 117.463 29.5394 117.471 28.7834C117.963 28.7834 118.456 28.7834 118.948 28.7834C118.943 29.5355 118.916 30.2845 118.799 31.0253C118.66 31.7628 118.451 32.5408 117.928 33.0759H117.917C117.282 33.7905 116.247 33.964 115.314 33.9684C114.492 33.9477 113.597 33.8678 112.966 33.3309C112.27 32.789 112.052 31.8786 111.85 31.0359L111.818 30.8871L111.744 31.0253C111.452 31.5929 111.084 32.1143 110.65 32.5765C109.915 33.4065 108.827 33.9016 107.717 33.9578C106.754 34.0236 105.718 33.7858 104.997 33.1396C104.401 32.6367 104.015 31.941 103.754 31.2059C103.229 29.6107 103.19 27.9043 103.265 26.2333C103.336 24.8595 103.534 23.4579 104.136 22.2171C104.685 21.1289 105.614 20.2936 106.665 19.6883C108.143 18.8613 109.768 18.3188 111.372 17.7651L111.404 17.7545V17.712C111.404 16.4887 111.404 15.2697 111.404 14.0464V14.0357C111.374 13.1232 111.5 12.1691 111.223 11.2626C111.122 10.9383 110.912 10.7226 110.639 10.5613V10.5507C109.964 10.2055 109.175 10.2331 108.45 10.2851H108.44C107.778 10.3981 107.066 10.523 106.506 10.9438L106.431 10.997L106.516 11.0395C106.817 11.1898 107.102 11.3578 107.377 11.5495C107.942 11.9484 108.5 12.4225 108.78 13.0582C109.109 13.7387 108.96 14.6232 108.418 15.1407H108.408C107.901 15.688 107.097 16 106.357 15.8208C105.836 15.7116 105.413 15.3623 105.093 14.9495C104.38 13.9311 104.123 12.5454 104.604 11.3795C104.839 10.7178 105.328 10.1891 105.847 9.72195C106.955 8.8671 108.365 8.46301 109.757 8.41507ZM95.7426 8.30882C94.2969 8.39806 92.9154 9.10205 91.9601 10.1788C91.0149 11.1505 90.3946 12.3841 89.9307 13.6426C89.0414 16.1296 88.8096 18.7906 88.7938 21.4095C88.8266 23.8519 88.9628 26.3374 89.6651 28.6984C90.005 29.8026 90.4656 30.8786 91.1739 31.8009C91.7302 32.4848 92.4126 33.092 93.2245 33.469C94.499 34.0815 95.9575 34.1565 97.3364 34.0109C98.463 33.8894 99.659 33.5612 100.471 32.7146C100.761 32.4303 100.982 32.1558 101.183 31.7903C101.84 30.5836 101.979 29.1799 102.011 27.8377C102.015 27.152 101.99 26.4706 101.937 25.7871V25.734H101.884C101.275 25.734 100.666 25.734 100.056 25.734H100.003V25.7871C100.024 27.0897 100.033 28.4088 99.7908 29.6865C99.6802 30.2485 99.4759 30.829 99.0683 31.1953C98.4479 31.6944 97.5804 31.6356 96.8052 31.599C96.2561 31.5557 95.7031 31.3782 95.3389 30.9615C95.1799 30.759 94.9961 30.4488 94.9033 30.154C94.4855 28.9301 94.4578 27.6203 94.3826 26.329C94.3203 24.4181 94.3143 22.5041 94.3189 20.5914C96.9822 20.5914 99.6456 20.5914 102.309 20.5914H102.362V20.5383C102.346 17.91 102.269 15.2474 101.586 12.6864V12.6757C101.266 11.6637 100.877 10.6271 100.131 9.83883C99.4333 9.02851 98.4196 8.54493 97.3683 8.39382C96.8308 8.3 96.2832 8.28872 95.7426 8.30882ZM95.7426 8.41507C96.2792 8.39512 96.8314 8.4082 97.3577 8.50007C98.386 8.64787 99.3679 9.12571 100.046 9.91321C100.77 10.6783 101.162 11.7026 101.48 12.7076C101.481 12.711 101.479 12.7149 101.48 12.7182C102.151 15.243 102.239 17.8793 102.256 20.4852C99.5925 20.4852 96.9291 20.4852 94.2658 20.4852H94.2126V20.5383C94.2078 22.469 94.2134 24.3982 94.2764 26.329C94.3514 27.6173 94.3721 28.9514 94.797 30.1965C94.8959 30.5106 95.0881 30.814 95.2539 31.0253C95.6435 31.471 96.2269 31.6712 96.7945 31.7159H96.8052C97.5788 31.7524 98.4707 31.8124 99.1321 31.2803C99.5682 30.8882 99.7842 30.2814 99.8971 29.7077V29.6971C100.139 28.4227 100.13 27.126 100.11 25.8402C100.683 25.8402 101.257 25.8402 101.831 25.8402C101.88 26.5033 101.908 27.1727 101.905 27.8377C101.873 29.1739 101.731 30.5556 101.087 31.7371C100.891 32.094 100.681 32.3617 100.396 32.6403H100.386C99.6012 33.4585 98.4399 33.7845 97.3258 33.9047C95.9584 34.049 94.5259 33.9732 93.2776 33.3734H93.267C92.4745 33.0053 91.8076 32.4117 91.2589 31.7371C90.5616 30.8292 90.109 29.7632 89.7713 28.6665C89.0739 26.3218 88.9328 23.8489 88.9001 21.4095C88.9158 18.7966 89.1539 16.1547 90.037 13.6851C90.498 12.4342 91.1049 11.2087 92.0345 10.2532H92.0451C92.9816 9.19766 94.3277 8.50241 95.7426 8.41507ZM60.8074 8.29819C60.5674 8.29896 60.3197 8.29128 60.0742 8.31944C60.0707 8.31985 60.0672 8.31902 60.0636 8.31944C58.6605 8.4193 57.2554 9.02167 56.3555 10.1257C55.4962 11.1189 55.0996 12.4534 55.0273 13.7489C54.9691 15.1131 55.0618 16.5105 55.5373 17.8076C55.9779 19.0478 56.7666 20.1324 57.5986 21.1227C58.7435 22.4864 59.9546 23.7859 61.0942 25.1496C61.3433 25.5048 61.6686 25.8785 61.9017 26.2652L61.9124 26.2758C62.5474 27.1848 62.8589 28.3014 62.7943 29.4102C62.7665 30.0304 62.6914 30.6825 62.3268 31.1846C62.1251 31.454 61.7493 31.688 61.3917 31.769C60.8437 31.9138 60.249 31.9117 59.6917 31.8009C59.1918 31.6777 58.7807 31.4146 58.4592 31.0146C58.2412 30.6964 58.0161 30.2978 57.8855 29.9096C57.4168 28.5953 57.3103 27.1883 57.078 25.8083V25.7871L57.0461 25.7658C56.9575 25.7187 56.851 25.7299 56.738 25.734C56.625 25.738 56.5069 25.7436 56.4192 25.734C55.9815 25.734 55.5394 25.734 55.1017 25.734H55.0486V25.7871C55.0486 28.3902 55.0486 30.9934 55.0486 33.5965V33.6496H55.1017C55.6436 33.6496 56.1855 33.6496 56.7273 33.6496H56.7698L56.7805 33.6071C56.8808 33.1442 57.0256 32.6458 57.3861 32.3428C57.4346 32.3035 57.4661 32.2971 57.503 32.3003C57.5399 32.3035 57.5891 32.3222 57.6305 32.3534C57.7133 32.4157 57.7923 32.5222 57.8748 32.5978C58.7955 33.5537 60.135 34.0622 61.4555 34.0747C62.7717 34.0937 64.1384 33.767 65.1849 32.9271C65.7688 32.4408 66.2727 31.8368 66.5874 31.1315C67.3172 29.6211 67.3527 27.8925 67.1824 26.2652C67.0312 24.7708 66.4606 23.3434 65.5993 22.1214C64.9937 21.2558 64.293 20.4725 63.6018 19.6777C62.7656 18.7356 61.8854 17.8367 61.0942 16.862C60.8347 16.4991 60.5106 16.1014 60.2655 15.7039C59.6948 14.8087 59.4371 13.7264 59.4792 12.6651C59.4833 12.1516 59.5941 11.5875 59.883 11.1988C60.3114 10.6671 61.0947 10.5697 61.7742 10.6251C62.2933 10.6452 62.8171 10.7934 63.2086 11.1351C63.339 11.2214 63.4645 11.394 63.5593 11.5495C64.036 12.2758 64.1347 13.1843 64.2393 14.0464C64.3187 14.6977 64.411 15.3511 64.4836 16.0014V16.0439H64.5368C65.1778 16.0439 65.8189 16.0439 66.4599 16.0439H66.513V15.9908C66.513 13.5824 66.513 11.174 66.513 8.7657V8.71257H66.4599C65.9322 8.71257 65.4045 8.71257 64.8768 8.71257H64.8343L64.8236 8.75507C64.7708 9.1675 64.7972 9.6023 64.6536 9.96633C64.6365 10.0006 64.6379 9.99832 64.6324 9.99821C64.6269 9.99809 64.6056 9.98834 64.5793 9.96633C64.5529 9.94433 64.5239 9.91133 64.4943 9.88133C64.4682 9.85484 64.4395 9.82595 64.4093 9.80696C64.4056 9.80375 64.4023 9.79953 64.3986 9.79633C63.4122 8.93834 62.1345 8.35393 60.8074 8.29819ZM60.8074 8.40444C62.1103 8.45916 63.3634 9.04311 64.3349 9.89196H64.3455C64.3581 9.89873 64.381 9.92705 64.4093 9.95571C64.4375 9.98437 64.471 10.023 64.5049 10.0513C64.5388 10.0797 64.582 10.1034 64.6324 10.1045C64.6828 10.1055 64.7325 10.0634 64.7599 10.0088C64.9104 9.62733 64.8755 9.20501 64.9193 8.81882C65.4151 8.81882 65.9109 8.81882 66.4068 8.81882C66.4068 11.1918 66.4068 13.5647 66.4068 15.9376C65.7976 15.9376 65.1884 15.9376 64.5793 15.9376C64.5073 15.3 64.4231 14.6715 64.3455 14.0357C64.2411 13.1748 64.1504 12.2514 63.6549 11.4963C63.5569 11.3356 63.4298 11.1543 63.2724 11.0501C62.8563 10.687 62.3103 10.5396 61.7742 10.5188C61.078 10.4621 60.2624 10.5587 59.798 11.1351C59.4872 11.5532 59.3772 12.1369 59.373 12.6651C59.33 13.7466 59.5859 14.8408 60.1699 15.757C60.4206 16.1638 60.7531 16.5676 61.0092 16.9258C61.8044 17.9054 62.6827 18.8124 63.5168 19.752C64.2087 20.5477 64.903 21.3266 65.5037 22.1852C66.3551 23.3931 66.927 24.8019 67.0762 26.2758C67.2455 27.8937 67.208 29.6067 66.4918 31.089C66.1854 31.7758 65.6949 32.3643 65.1212 32.8421C64.1002 33.6614 62.7528 33.9765 61.4555 33.9578C60.1621 33.9456 58.8467 33.4553 57.9492 32.5234V32.5128C57.8796 32.4491 57.796 32.345 57.6942 32.2684C57.6433 32.2301 57.579 32.1997 57.5136 32.194C57.4482 32.1883 57.3769 32.205 57.3117 32.2578C56.9294 32.5792 56.786 33.0862 56.6848 33.5434C56.1748 33.5434 55.6648 33.5434 55.1548 33.5434C55.1548 30.9757 55.1548 28.4079 55.1548 25.8402C55.5714 25.8402 55.992 25.8402 56.4086 25.8402C56.4121 25.8402 56.4157 25.8402 56.4192 25.8402C56.5217 25.85 56.6326 25.844 56.738 25.8402C56.8382 25.8366 56.9287 25.8501 56.9823 25.8721C57.2085 27.2319 57.309 28.6334 57.7792 29.9521C57.915 30.3556 58.1527 30.755 58.3742 31.0784C58.7095 31.4956 59.1385 31.7786 59.6599 31.9071H59.6705C60.2415 32.0207 60.8455 32.0252 61.413 31.8753C61.798 31.7881 62.19 31.5447 62.4118 31.2484C62.7981 30.7164 62.8725 30.0465 62.9005 29.4209C62.9666 28.2872 62.6467 27.1415 61.9974 26.2121C61.757 25.8133 61.423 25.4335 61.1792 25.0858C60.0372 23.7193 58.8263 22.4093 57.6836 21.0483C56.855 20.0621 56.0772 18.9856 55.6436 17.7651C55.1751 16.4871 55.0758 15.1047 55.1336 13.7489C55.2048 12.4715 55.6017 11.1696 56.4405 10.2001C57.3201 9.12104 58.6937 8.52148 60.0742 8.42569H60.0849C60.323 8.39734 60.5612 8.40524 60.8074 8.40444ZM31.5246 8.33007C29.4629 8.33007 27.6363 9.42687 26.329 11.6026C25.0216 13.7783 24.2252 17.0229 24.2252 21.3458C24.2254 26.0895 24.9557 29.26 26.2333 31.2484C27.5109 33.2368 29.3424 34.0428 31.5246 34.0428C33.5967 34.0428 35.1753 33.5917 36.1678 32.3321C37.1603 31.0726 37.5578 29.0154 37.3047 25.8083V25.7658H37.2516H35.4878H35.424L35.4347 25.819C35.4983 28.5113 35.3028 29.9786 34.8609 30.7596C34.64 31.1501 34.3597 31.3649 34.0109 31.4928C33.6621 31.6206 33.2387 31.6521 32.7465 31.6521C32.0247 31.6521 31.4828 31.5637 31.0678 31.2909C30.6527 31.018 30.3599 30.5649 30.154 29.8246C29.7421 28.3441 29.6865 25.7354 29.6865 21.2714C29.6865 21.1148 29.6865 20.8622 29.6865 20.5595H37.6766H37.7297V20.5064C37.7297 15.9972 37.2985 12.9602 36.3059 11.0395C35.3133 9.11874 33.7484 8.33007 31.5246 8.33007ZM31.5246 8.43632C33.7229 8.43632 35.2333 9.20206 36.2103 11.0926C37.1831 12.975 37.6197 15.9829 37.6234 20.4533H29.6334H29.5802V20.5064C29.5802 20.8434 29.5802 21.1031 29.5802 21.2714C29.5802 25.7363 29.6277 28.3468 30.0477 29.8565C30.2577 30.6113 30.5622 31.0854 31.004 31.3759C31.4458 31.6663 32.0153 31.769 32.7465 31.769C33.2434 31.769 33.6732 31.7344 34.0428 31.599C34.4124 31.4636 34.7247 31.2225 34.9565 30.8128C35.4163 30.0001 35.6001 28.5281 35.5409 25.8721H37.1984C37.4411 29.033 37.0425 31.0505 36.0828 32.2684C35.1172 33.4938 33.5812 33.9365 31.5246 33.9365C29.3687 33.9365 27.5777 33.1552 26.3183 31.1953C25.059 29.2353 24.3316 26.0784 24.3314 21.3458C24.3314 17.0361 25.1212 13.807 26.414 11.6557C27.7067 9.50439 29.5013 8.43632 31.5246 8.43632ZM31.259 10.3701C30.6818 10.3587 30.2525 10.8215 30.1009 11.337C29.7386 12.4685 29.7431 13.6623 29.6546 14.822C29.5907 16.1391 29.5679 17.457 29.5484 18.7745V18.8277H29.6015C30.7596 18.8277 31.9178 18.8277 33.0759 18.8277H33.129V18.7745C33.1164 16.9384 33.1606 15.0985 33.1078 13.2601C33.0541 12.4621 33.0961 11.5925 32.6934 10.8482V10.8376C32.5409 10.5885 32.3041 10.4614 32.0453 10.402C31.7864 10.3425 31.5109 10.352 31.259 10.3701ZM31.259 10.4763C31.5069 10.4585 31.7837 10.453 32.024 10.5082C32.2643 10.5634 32.4734 10.6807 32.6084 10.9013C32.987 11.609 32.9474 12.4668 33.0015 13.2707C33.0537 15.0877 33.0113 16.9009 33.0228 18.7214C31.9001 18.7214 30.7773 18.7214 29.6546 18.7214C29.674 17.4218 29.6979 16.1192 29.7609 14.822C29.8498 13.6562 29.8412 12.4787 30.1965 11.3688V11.3582C30.3373 10.8797 30.7406 10.4661 31.259 10.4763ZM111.468 18.9127L111.383 18.9658L111.362 18.9764L111.33 18.9977C110.796 19.3252 110.225 19.61 109.747 20.0283C109.444 20.2259 109.168 20.5648 108.928 20.8464H108.918C108.202 21.8887 108.103 23.1962 108.025 24.4058C107.974 25.9569 107.932 27.5172 108.015 29.0702C108.066 29.6058 108.1 30.2116 108.408 30.6853C108.667 31.0907 109.16 31.1829 109.598 31.1634C109.601 31.1634 109.605 31.1634 109.608 31.1634C110.114 31.1642 110.633 30.9709 110.937 30.5471C111.375 29.9582 111.432 29.1731 111.468 28.4752C111.479 25.3195 111.464 22.1638 111.468 19.0083V18.9127ZM111.362 19.1039C111.358 22.2278 111.362 25.3518 111.351 28.4752C111.315 29.1716 111.265 29.9284 110.852 30.4834C110.571 30.8751 110.078 31.0605 109.598 31.0571C109.176 31.0777 108.725 30.9837 108.493 30.6215C108.207 30.1813 108.183 29.599 108.131 29.0596C108.049 27.5121 108.081 25.9562 108.131 24.4058C108.209 23.2022 108.315 21.9304 109.003 20.9208C109.006 20.9171 109.01 20.9139 109.013 20.9102C109.251 20.6301 109.534 20.2938 109.81 20.1133C110.265 19.7155 110.832 19.4264 111.362 19.1039Z" fill="white"/>
</svg>
