<svg width="145" height="33" viewBox="0 0 145 33" fill="none" xmlns="http://www.w3.org/2000/svg">
<path d="M112.061 0.608634C111.991 0.739842 112.051 1.00047 112.031 1.18157C112.031 1.53957 112.031 1.89757 112.031 2.25557C112.449 2.27392 112.878 2.21302 113.287 2.2998C113.642 2.42689 113.613 2.86444 113.618 3.17386C113.616 11.8989 113.622 20.6242 113.615 29.3491C113.615 29.6042 113.587 29.9582 113.269 29.9939C113.044 30.0168 112.816 29.9976 112.59 30.0039C112.59 30.5529 112.59 31.1019 112.59 31.6509C115.049 31.6509 117.508 31.6509 119.966 31.6509C119.966 31.1019 119.966 30.5529 119.966 30.0039C119.535 29.9818 119.092 30.0509 118.669 29.964C118.322 29.8733 118.289 29.4429 118.3 29.1415C118.3 19.4742 118.3 9.80685 118.3 0.139507C116.22 0.291371 114.141 0.45301 112.061 0.608634ZM129.648 0.608634C129.579 0.739842 129.638 1.00047 129.618 1.18157C129.618 1.53957 129.618 1.89757 129.618 2.25557C130.009 2.28402 130.42 2.19055 130.795 2.31976C131.151 2.45588 131.196 2.96348 131.196 3.33356C131.193 12.0246 131.2 20.7161 131.192 29.4068C131.178 29.6916 131.032 29.9581 130.736 29.984C130.548 30.0148 130.357 30.001 130.167 30.0039C130.167 30.5529 130.167 31.1019 130.167 31.6509C132.417 31.6509 134.666 31.6509 136.915 31.6509C136.915 31.1019 136.915 30.5529 136.915 30.0039C136.614 29.9798 136.285 30.0667 136.007 29.9241C135.814 29.6774 135.914 29.3239 135.887 29.0297C135.89 24.0537 135.88 19.0775 135.892 14.1016C135.914 13.2842 135.941 12.4122 136.351 11.6848C136.466 11.4969 136.596 11.3167 136.765 11.2089C137.286 10.8415 138.007 10.7795 138.592 11.0193C138.851 11.1434 138.983 11.4021 139.07 11.6896C139.266 12.6339 139.165 13.6086 139.191 14.5667C139.188 19.5332 139.196 24.5005 139.187 29.4667C139.179 29.7381 138.991 30.0009 138.7 29.9985C138.482 30.0114 138.262 30.0001 138.043 30.0039C138.043 30.5529 138.043 31.1019 138.043 31.6509C140.345 31.6509 142.648 31.6509 144.95 31.6509C144.95 31.1019 144.95 30.5529 144.95 30.0039C144.628 29.977 144.216 30.0999 143.982 29.8143C143.808 29.4174 143.911 28.9637 143.882 28.5426C143.879 23.015 143.889 17.4871 143.877 11.9596C143.831 10.9518 143.662 9.88059 143.014 9.07288C142.593 8.54515 141.955 8.20804 141.292 8.06511C140.262 7.84976 139.141 7.86331 138.185 8.34466C137.379 8.72092 136.751 9.39017 136.208 10.0771C136.103 10.1986 135.954 10.478 135.887 10.5082C135.887 7.05197 135.887 3.59574 135.887 0.139507C133.807 0.291371 131.728 0.45301 129.648 0.608634ZM0.349064 0.638578C0.349064 1.17757 0.349064 1.71657 0.349064 2.25557C0.741499 2.28429 1.19435 2.15841 1.52687 2.42525C1.66082 2.50086 1.77077 2.65821 1.86086 2.80838C2.2418 3.44965 2.25692 4.23261 2.25552 4.96053C2.25306 12.5351 2.26042 20.1098 2.25183 27.6842C2.24372 28.3491 2.12243 29.083 1.74646 29.6146C1.5542 29.8674 1.25931 30.0361 0.922002 30.0039C0.740905 30.0238 0.480273 29.9641 0.349064 30.0339C0.349064 30.5729 0.349064 31.1119 0.349064 31.6509C2.42853 31.6509 4.50799 31.6509 6.58745 31.6509C6.58745 31.1019 6.58745 30.5529 6.58745 30.0039C6.16291 29.9823 5.72683 30.0502 5.30983 29.964C4.97591 29.8375 4.77934 29.5768 4.6402 29.2485C4.25665 28.2848 4.39996 27.2269 4.37158 26.215C4.37158 20.1649 4.37158 14.1148 4.37158 8.06476C6.01049 15.9136 7.66031 23.7614 9.29242 31.6109C10.1042 31.6109 10.9161 31.6109 11.7279 31.6109C13.36 23.7348 15.0098 15.8604 16.6487 7.9849C16.6461 14.7676 16.654 21.5504 16.6447 28.333C16.6242 28.8634 16.6028 29.4848 16.1796 29.8642C16.0031 29.9804 15.7339 30.0268 15.5009 30.0039C15.1715 30.0039 14.8421 30.0039 14.5127 30.0039C14.5127 30.5529 14.5127 31.1019 14.5127 31.6509C17.5005 31.6509 20.4882 31.6509 23.476 31.6509C23.476 31.1019 23.476 30.5529 23.476 30.0039C23.077 29.968 22.6246 30.1042 22.2727 29.865C21.9891 29.6947 21.8919 29.2789 21.8368 28.9498C21.727 28.0237 21.8006 27.0876 21.7792 26.1571C21.7818 18.7469 21.7739 11.3366 21.7832 3.92654C21.8231 3.3977 21.8267 2.77013 22.2583 2.39531C22.4549 2.2601 22.7741 2.24319 23.0328 2.25557C23.1933 2.21571 23.5479 2.37005 23.476 2.09786C23.476 1.60145 23.476 1.10504 23.476 0.608634C20.9773 0.608634 18.4787 0.608634 15.98 0.608634C14.7068 7.08068 13.4168 13.5511 12.1371 20.0225C10.7777 13.5511 9.4073 7.08078 8.05472 0.608634C5.48617 0.608634 2.91762 0.608634 0.349064 0.608634V0.638578ZM64.1204 0.638578C64.1204 1.17757 64.1204 1.71657 64.1204 2.25557C64.5842 2.2845 65.0675 2.18703 65.517 2.32843C65.9364 2.47632 65.9696 2.97963 66.0053 3.37327C66.0321 5.23536 66.0092 7.09856 66.0168 8.96109C66.0149 15.7464 66.0207 22.532 66.014 29.3171C66.0121 29.6381 65.8177 29.937 65.4878 29.964C65.037 30.0405 64.5757 29.9886 64.1204 30.0039C64.1204 30.5529 64.1204 31.1019 64.1204 31.6509C67.1348 31.6509 70.1491 31.6509 73.1635 31.6509C73.1635 31.1019 73.1635 30.5529 73.1635 30.0039C72.6823 29.9779 72.1875 30.0636 71.7162 29.944C71.3175 29.8177 71.2334 29.3227 71.2021 28.94C71.1681 27.4222 71.1966 25.9028 71.1872 24.3844C71.1872 21.899 71.1872 19.4136 71.1872 16.9283C73.1702 16.9283 75.1532 16.9283 77.1361 16.9283C77.1323 20.8702 77.1439 24.8124 77.1303 28.7541C77.1023 29.1622 77.0702 29.6811 76.677 29.9041C76.243 30.0864 75.7566 29.9712 75.2996 30.0039C75.0453 29.9446 75.2035 30.2978 75.1598 30.4491C75.1598 30.8497 75.1598 31.2503 75.1598 31.6509C78.1609 31.6509 81.162 31.6509 84.1631 31.6509C84.1631 31.1019 84.1631 30.5529 84.1631 30.0039C83.703 29.9726 83.2185 30.0803 82.7772 29.9181C82.3494 29.7157 82.3267 29.167 82.3121 28.7504C82.2768 27.1786 82.3062 25.6054 82.2965 24.033C82.2991 17.2843 82.2914 10.5354 82.3004 3.7868C82.3276 3.32253 82.2778 2.71313 82.6559 2.40529C83.0694 2.1559 83.5793 2.29048 84.0373 2.25557C84.279 2.29636 84.1154 1.93172 84.1631 1.77846C84.1631 1.38852 84.1631 0.998573 84.1631 0.608634C81.162 0.608634 78.1609 0.608634 75.1598 0.608634C75.1598 1.15761 75.1598 1.70659 75.1598 2.25557C75.6345 2.28105 76.1225 2.1966 76.5872 2.31546C76.9935 2.43496 77.0927 2.94218 77.1189 3.33093C77.1584 4.49317 77.1252 5.65788 77.1361 6.82107C77.1361 9.55132 77.1361 12.2816 77.1361 15.0118C75.1532 15.0118 73.1702 15.0118 71.1872 15.0118C71.1909 11.1764 71.1798 7.34061 71.1928 3.50537C71.2083 3.15128 71.2385 2.7217 71.4667 2.46518C71.8427 2.14142 72.3792 2.29069 72.8322 2.25557C73.0541 2.28254 73.2434 2.27687 73.1635 2.00204C73.1635 1.53757 73.1635 1.0731 73.1635 0.608634C70.1491 0.608634 67.1348 0.608634 64.1204 0.608634V0.638578ZM52.0428 0.628596C51.46 0.678606 50.9386 1.0099 50.5856 1.45705C50.3649 1.71225 50.1763 2.09681 50.1322 2.46689C50.0057 3.26647 50.4116 4.05764 50.9882 4.58307C51.4191 5.00558 51.9441 5.32571 52.502 5.55942C51.7156 6.44156 50.8612 7.25917 50.0166 8.08472C50.3612 8.45225 50.7002 8.82513 51.0447 9.19266C52.0468 8.42792 53.0276 7.61244 53.8381 6.63476C54.466 5.91474 54.978 5.02744 55.0833 4.0585C55.1822 2.96766 54.6719 1.85134 53.8195 1.18756C53.5714 0.991045 53.2224 0.792379 52.8803 0.710685C52.6097 0.635411 52.3232 0.60129 52.0428 0.628596ZM124.258 2.21564C123.743 3.73076 123.242 5.26838 122.478 6.67847C122.212 7.15108 121.916 7.62303 121.494 7.935C121.039 8.29711 120.441 8.35145 119.881 8.32427C119.595 8.23982 119.607 8.45215 119.627 8.67362C119.627 9.14608 119.627 9.61853 119.627 10.091C120.156 10.091 120.685 10.091 121.214 10.091C121.217 15.95 121.207 21.8093 121.219 27.6682C121.256 28.6404 121.306 29.6553 121.748 30.5412C122.028 31.0916 122.527 31.5282 123.121 31.7224C124.114 32.0742 125.191 32.0773 126.23 32.0106C127.096 31.9184 127.995 31.6176 128.562 30.9288C129.003 30.4687 129.243 29.8346 129.375 29.214C129.632 28.0808 129.51 26.9111 129.539 25.7598C129.539 25.2248 129.539 24.6898 129.539 24.1548C128.953 24.1548 128.367 24.1548 127.782 24.1548C127.772 25.5972 127.804 27.041 127.763 28.4823C127.721 28.9135 127.697 29.4608 127.283 29.7045C126.888 29.9125 126.273 29.8411 126.075 29.3951C125.81 28.7187 125.922 27.9698 125.895 27.259C125.895 21.5497 125.895 15.8403 125.895 10.1309C127.083 10.1309 128.271 10.1309 129.459 10.1309C129.459 9.5287 129.459 8.92649 129.459 8.32427C128.284 8.32427 127.11 8.32427 125.935 8.32427C125.935 6.28141 125.935 4.23854 125.935 2.19568C125.38 2.19568 124.824 2.19568 124.268 2.19568L124.258 2.21564ZM29.5846 7.94498C28.2939 8.02124 27.0547 8.62889 26.1757 9.56721C25.5145 10.2299 24.9936 11.022 24.6064 11.8754C23.6956 13.8331 23.3242 15.9951 23.1774 18.1357C23.0265 20.6151 23.1111 23.1192 23.5547 25.5663C23.8451 27.0065 24.3003 28.4426 25.1313 29.6658C25.6286 30.3462 26.2357 30.9604 26.9895 31.3614C28.0715 31.958 29.3399 32.105 30.5587 32.0328C31.6209 31.9651 32.735 31.7706 33.6072 31.1218C34.1104 30.7225 34.541 30.2163 34.7979 29.6188C35.3455 28.3819 35.438 27.0023 35.4187 25.666C35.4137 25.2148 35.3861 24.7643 35.3539 24.3145C34.7816 24.3145 34.2094 24.3145 33.6371 24.3145C33.6402 25.5769 33.6747 26.8549 33.4175 28.0975C33.283 28.6284 33.087 29.1861 32.629 29.5248C32.3094 29.7232 31.8666 29.8418 31.4634 29.8422C30.7755 29.8736 29.9871 29.8478 29.4249 29.4549C29.1003 29.1975 28.9089 28.8831 28.7612 28.4973C28.3269 27.2276 28.2983 25.8667 28.2437 24.5382C28.1865 22.8207 28.1992 21.1019 28.1972 19.3837C30.7159 19.3837 33.2345 19.3837 35.7532 19.3837C35.7363 17.3181 35.6788 15.2388 35.2938 13.2042C35.0372 11.9196 34.6575 10.5993 33.8367 9.56197C33.3695 8.99627 32.7846 8.53126 32.0909 8.2787C31.293 7.98109 30.43 7.90798 29.5846 7.94498ZM45.6847 7.94498C44.6453 8.01416 43.644 8.48963 42.9147 9.22396C42.4901 9.61503 42.1293 10.0578 41.8119 10.5401C41.8119 9.71169 41.8119 8.88323 41.8119 8.05477C39.7489 8.19296 37.6864 8.34579 35.6234 8.48398C35.6234 9.03295 35.6234 9.58193 35.6234 10.1309C35.9941 10.1496 36.3769 10.0911 36.74 10.1652C37.0983 10.2659 37.1968 10.7019 37.2005 11.0492C37.2238 13.0502 37.2038 15.0525 37.2105 17.054C37.2062 21.131 37.2189 25.2084 37.2041 29.2851C37.2049 29.5783 37.1078 29.9284 36.7905 29.9728C36.4198 30.0369 36.0384 29.9892 35.6633 30.0039C35.6633 30.5529 35.6633 31.1019 35.6633 31.6509C38.0822 31.6509 40.501 31.6509 42.9198 31.6509C42.9198 31.1019 42.9198 30.5529 42.9198 30.0039C42.6186 29.9798 42.2901 30.0667 42.0115 29.9241C41.8109 29.6445 41.9228 29.2593 41.8917 28.9339C41.8953 23.9898 41.8847 19.0456 41.8971 14.1016C41.9169 13.2842 41.9469 12.4121 42.3602 11.6875C42.4572 11.5014 42.5981 11.3458 42.7701 11.1989C43.0006 11.0577 43.309 10.9147 43.6103 10.8953C44.0438 10.8434 44.6248 10.9031 44.8662 11.2488C45.2329 11.7818 45.1653 12.469 45.1956 13.0854C45.1929 18.5458 45.2009 24.0068 45.1916 29.4667C45.1746 29.7351 45.0143 29.9868 44.7364 29.9939C44.5083 30.0168 44.2771 29.9976 44.0477 30.0039C44.0477 30.5529 44.0477 31.1019 44.0477 31.6509C46.3501 31.6509 48.6525 31.6509 50.9549 31.6509C50.9549 31.1019 50.9549 30.5529 50.9549 30.0039C50.6326 29.977 50.2209 30.0999 49.9867 29.8143C49.8129 29.4174 49.9157 28.9637 49.8869 28.5426C49.8835 23.015 49.8937 17.4871 49.8818 11.9596C49.8359 10.9518 49.667 9.88059 49.0185 9.07288C48.641 8.60091 48.0886 8.27307 47.4993 8.11612C46.9136 7.95227 46.2901 7.91473 45.6847 7.94498ZM56.7641 7.95496C55.4549 8.04579 54.1481 8.61207 53.3111 9.63876C52.8391 10.1596 52.5351 10.8204 52.3296 11.493C51.9774 12.6639 52.0192 13.9105 52.1472 15.1133C52.3201 16.5174 52.8959 17.8531 53.7545 18.9733C54.6495 20.1857 55.7025 21.2806 56.6791 22.4332C57.1351 22.9565 57.6098 23.4695 58.0071 24.0134C58.5954 24.7724 59.1366 25.6061 59.2946 26.5719C59.4248 27.3461 59.4145 28.1634 59.1768 28.9162C59.0539 29.2554 58.8812 29.5327 58.5695 29.7328C57.9924 30.1259 57.2426 30.1164 56.5735 30.0454C56.184 29.9775 55.7928 29.8214 55.5187 29.5683C55.1717 29.2991 54.9794 28.9113 54.7821 28.5181C54.2255 27.2155 54.1453 25.7821 53.908 24.401C53.8754 24.2169 53.549 24.3595 53.3903 24.3145C52.9578 24.3145 52.5253 24.3145 52.0928 24.3145C52.0928 26.76 52.0928 29.2054 52.0928 31.6509C52.6018 31.6509 53.1109 31.6509 53.6199 31.6509C53.7147 31.2136 53.8511 30.7333 54.2054 30.4354C54.4166 30.2565 54.5869 30.5465 54.7305 30.6753C55.5898 31.5592 56.8268 32.0353 58.0575 32.0454C59.2853 32.0638 60.5633 31.7596 61.5352 30.9821C62.1357 30.4768 62.6405 29.8441 62.935 29.1061C63.5335 27.7165 63.5471 26.1577 63.3724 24.6785C63.2299 23.2943 62.6732 21.9792 61.8744 20.8488C60.6565 19.1641 59.1486 17.7081 57.8101 16.1166C57.3813 15.5596 56.8916 14.9691 56.5928 14.3C56.1785 13.4041 56.0692 12.3791 56.2114 11.4072C56.2724 10.9874 56.4784 10.5565 56.804 10.3405C57.4082 9.923 58.2012 9.97728 58.8932 10.0915C59.2849 10.1781 59.6506 10.3904 59.9082 10.6699C59.9792 10.7768 60.0876 10.8845 60.1484 11.0254C60.6106 11.8075 60.6536 12.7454 60.7727 13.6264C60.8326 14.1215 60.9026 14.6161 60.9563 15.1116C61.5551 15.1116 62.154 15.1116 62.7529 15.1116C62.7529 12.8492 62.7529 10.5867 62.7529 8.32427C62.2605 8.32427 61.7681 8.32427 61.2757 8.32427C61.2191 8.72084 61.2702 9.16024 61.086 9.52204C60.9368 9.55169 60.8513 9.33407 60.7252 9.27446C60.465 9.05053 60.124 8.81165 59.7971 8.62724C58.8761 8.11426 57.8222 7.84117 56.7641 7.95496ZM90.2717 7.94498C89.027 8.02076 87.8254 8.58654 86.9574 9.47264C85.7956 10.597 85.0932 12.1059 84.6257 13.6379C83.9629 15.8669 83.7837 18.2095 83.7984 20.5255C83.8245 22.3458 83.9386 24.1762 84.3293 25.9577C84.614 27.2372 85.045 28.5093 85.7808 29.6015C86.4464 30.5748 87.4036 31.3766 88.5448 31.7332C89.6962 32.1175 90.9439 32.1058 92.1346 31.9399C93.0527 31.8013 93.9947 31.4869 94.6511 30.8096C95.2974 30.2074 95.6543 29.3692 95.853 28.5178C96.1812 27.1437 96.1386 25.7141 96.041 24.3145C95.4687 24.3145 94.8964 24.3145 94.3242 24.3145C94.3433 25.5383 94.3576 26.776 94.1284 27.983C94.0234 28.5164 93.8221 29.0788 93.4258 29.435C92.8238 29.9194 91.9957 29.8643 91.2681 29.8299C90.7149 29.7823 90.1496 29.5972 89.8104 29.1573C89.4934 28.7357 89.3098 28.1587 89.2111 27.6184C88.9792 26.4587 88.968 25.2691 88.9145 24.0913C88.8806 22.5223 88.8832 20.9529 88.8843 19.3837C91.4029 19.3837 93.9216 19.3837 96.4402 19.3837C96.4233 17.3181 96.3659 15.2388 95.9809 13.2042C95.7233 11.9202 95.3458 10.5976 94.5238 9.56197C94.0566 8.99627 93.4716 8.53126 92.7779 8.2787C91.9809 7.97868 91.1165 7.90909 90.2717 7.94498ZM103.427 7.94498C102.115 7.99432 100.781 8.37058 99.7341 9.18268C99.2851 9.58965 98.8506 10.041 98.6076 10.6073C98.1143 11.6508 98.2779 12.9099 98.8364 13.8901C99.0425 14.2493 99.3433 14.5661 99.6942 14.7922C100.254 15.1101 100.964 15.1366 101.539 14.8378C101.966 14.6425 102.312 14.2969 102.549 13.8939C102.912 13.1753 102.697 12.2613 102.145 11.7065C101.673 11.1455 101.054 10.7359 100.403 10.4104C100.977 10.0009 101.702 9.8632 102.391 9.78955C103.012 9.75397 103.679 9.75998 104.241 10.0503C104.49 10.1972 104.678 10.3973 104.768 10.6893C105.024 11.5271 104.906 12.418 104.934 13.281C104.934 14.4302 104.934 15.5794 104.934 16.7286C103.556 17.1919 102.175 17.6706 100.879 18.3355C99.8245 18.8718 98.8591 19.641 98.2518 20.6695C97.5368 21.9515 97.3466 23.4431 97.285 24.8894C97.2213 26.4199 97.2665 27.9904 97.7597 29.4547C97.9925 30.1175 98.3408 30.7412 98.8714 31.2074C99.5652 31.8694 100.582 32.1023 101.525 32.0371C102.461 31.9871 103.388 31.6177 104.064 30.9702C104.589 30.4762 105.023 29.898 105.354 29.2553C105.5 29.8982 105.668 30.5687 106.072 31.1019C106.436 31.5515 106.965 31.8483 107.541 31.9459C108.499 32.105 109.527 32.1117 110.432 31.725C111.134 31.4008 111.591 30.7324 111.801 30.0024C112.084 29.0575 112.105 28.0589 112.121 27.0794C111.625 27.0794 111.13 27.0794 110.634 27.0794C110.62 27.8308 110.672 28.598 110.512 29.3353C110.451 29.6537 110.058 29.7214 109.805 29.6047C109.585 29.3817 109.657 29.029 109.629 28.7424C109.617 23.6786 109.635 18.6144 109.62 13.5506C109.602 12.1961 109.355 10.7672 108.508 9.67177C108.087 9.16938 107.566 8.74382 106.956 8.48494C105.855 8.00026 104.617 7.90201 103.427 7.94498ZM29.944 9.93128C30.3578 9.91869 30.8152 10.0156 30.9914 10.4227C31.2568 10.9524 31.2586 11.5698 31.2995 12.151C31.3737 13.9887 31.3295 15.8282 31.3414 17.6669C30.2933 17.6669 29.2453 17.6669 28.1972 17.6669C28.2358 15.8912 28.2403 14.1109 28.4095 12.3416C28.4989 11.6781 28.5449 10.9653 28.9043 10.3842C29.1133 10.0148 29.533 9.91346 29.944 9.93128ZM90.631 9.93128C91.0449 9.91869 91.5022 10.0156 91.6785 10.4227C92.0127 11.1216 91.9575 11.9288 92.0113 12.6856C92.0474 14.3456 92.0197 16.0065 92.0284 17.6669C90.9804 17.6669 89.9323 17.6669 88.8843 17.6669C88.9255 15.6764 88.9306 13.678 89.179 11.7C89.2841 11.1196 89.388 10.4469 89.8724 10.081C90.1073 9.95634 90.3688 9.92624 90.631 9.93128ZM104.934 26.4006C104.931 27.1119 104.917 27.87 104.581 28.511C104.392 28.8883 104.058 29.1254 103.644 29.2168C103.269 29.2906 102.814 29.276 102.499 29.0956C102.247 28.912 102.118 28.635 102.039 28.3139C101.853 27.4477 101.887 26.5517 101.87 25.67C101.9 24.151 101.824 22.6083 102.162 21.1166C102.279 20.6064 102.481 20.1179 102.788 19.6931C102.936 19.4781 103.191 19.2187 103.404 19.066C103.701 18.8031 104.05 18.5962 104.405 18.3768C104.583 18.2763 104.758 18.1694 104.934 18.0661C104.934 20.8443 104.934 23.6225 104.934 26.4006ZM90.3815 9.83147C89.8537 9.82357 89.4483 10.2258 89.3035 10.6999C88.9551 11.7497 88.9575 12.8654 88.8743 13.9438C88.8102 15.2024 88.7938 16.4679 88.7745 17.7268V17.7767H88.8244C89.9124 17.7767 91.0003 17.7767 92.0883 17.7767H92.1382V17.7268C92.1264 16.0018 92.1679 14.2734 92.1183 12.5464C92.0678 11.7968 92.1073 10.9798 91.729 10.2806V10.2707C91.5858 10.0366 91.3633 9.91729 91.1201 9.86141C90.8769 9.80553 90.6182 9.81444 90.3815 9.83147ZM90.3815 9.93128C90.6144 9.91453 90.8744 9.90936 91.1002 9.96123C91.3259 10.0131 91.5223 10.1233 91.6491 10.3305C92.0048 10.9953 91.9676 11.8011 92.0184 12.5564C92.0675 14.2633 92.0276 15.9667 92.0384 17.6769C90.9837 17.6769 89.929 17.6769 88.8743 17.6769C88.8934 16.4347 88.911 15.1934 88.9741 13.9538C89.0577 12.8696 89.0518 11.7686 89.3933 10.7398L89.4033 10.7298C89.5373 10.2912 89.9072 9.92418 90.3815 9.93128ZM52.0428 0.578689C51.4435 0.630117 50.9062 0.970408 50.5456 1.42711C50.3158 1.69304 50.1189 2.08802 50.0765 2.47516C49.9429 3.34003 50.4118 4.1708 51.0447 4.711C51.4364 5.08665 51.9189 5.36074 52.4122 5.57938C51.6406 6.4395 50.8046 7.23547 49.9767 8.04479L49.9468 8.08472L49.9767 8.11466C50.3209 8.48182 50.6599 8.85469 51.0048 9.2226L51.0347 9.26253L51.0746 9.23258C52.0779 8.46697 53.065 7.64987 53.8794 6.66736C54.5119 5.94205 55.0302 5.04546 55.1371 4.06221C55.2378 2.95255 54.7159 1.82237 53.8495 1.14763C53.5962 0.947057 53.244 0.742749 52.8913 0.658541C52.6156 0.581842 52.3306 0.550661 52.0428 0.578689ZM52.0428 0.678504C52.3158 0.651919 52.6059 0.684502 52.8713 0.758355C53.2029 0.837536 53.5466 1.03503 53.7896 1.22748C54.6278 1.88031 55.1345 2.98019 55.0373 4.05222C54.9335 5.00685 54.4229 5.88276 53.7996 6.59749C53.0021 7.55952 52.034 8.36631 51.0447 9.12279C50.725 8.78102 50.4068 8.43709 50.0865 8.0947C50.921 7.2794 51.7632 6.46297 52.5419 5.58936L52.5918 5.53946L52.522 5.50951C52.0112 5.28883 51.5117 5.01202 51.1146 4.63115C50.5023 4.10856 50.0597 3.30456 50.1863 2.48514C50.2258 2.12433 50.41 1.73633 50.6255 1.487C50.971 1.04938 51.4765 0.727095 52.0428 0.678504ZM135.887 0.0895996C133.807 0.244706 131.728 0.409781 129.648 0.568708H129.618L129.598 0.598652C129.554 0.681918 129.565 0.781962 129.569 0.888113C129.572 0.994265 129.578 1.10514 129.569 1.18756C129.569 1.54223 129.569 1.90089 129.569 2.25557V2.30548H129.618C130.02 2.33574 130.419 2.24091 130.776 2.36536C130.921 2.41931 131.009 2.55205 131.066 2.71471C131.122 2.87738 131.145 3.06433 131.146 3.23375C131.143 11.9568 131.154 20.6825 131.146 29.405C131.139 29.5396 131.094 29.6691 131.026 29.7644C130.958 29.8597 130.87 29.9224 130.736 29.9341H130.726C130.546 29.9645 130.361 29.9506 130.167 29.954H130.118V30.0039C130.118 30.5529 130.118 31.1019 130.118 31.6509V31.7008H130.167C132.417 31.7008 134.666 31.7008 136.915 31.7008H136.965V31.6509C136.965 31.1019 136.965 30.5529 136.965 30.0039V29.954H136.915C136.608 29.9295 136.3 29.9934 136.046 29.8742C135.97 29.7664 135.939 29.6393 135.937 29.4949C135.934 29.3434 135.951 29.1804 135.937 29.0257C135.94 24.0496 135.934 19.0793 135.947 14.1035C135.968 13.2863 135.993 12.4211 136.396 11.708C136.52 11.5173 136.615 11.3748 136.795 11.2388C136.993 11.126 137.242 10.9951 137.484 10.9693C137.87 10.9073 138.333 10.9218 138.642 11.1091C138.859 11.2744 138.977 11.5127 139.041 11.7778C139.105 12.043 139.119 12.3297 139.131 12.5963C139.159 14.4968 139.133 16.4034 139.141 18.3057C139.138 22.0267 139.14 25.7446 139.131 29.4649C139.127 29.5893 139.087 29.7147 139.011 29.8043C138.935 29.8939 138.831 29.9451 138.702 29.944C138.487 29.9568 138.264 29.9502 138.043 29.954H137.993V30.0039C137.993 30.5529 137.993 31.1019 137.993 31.6509V31.7008H138.043C140.345 31.7008 142.648 31.7008 144.95 31.7008H145V31.6509C145 31.1019 145 30.5529 145 30.0039V29.954H144.95C144.781 29.9399 144.597 29.962 144.431 29.954C144.27 29.9462 144.136 29.914 144.032 29.7943C144.03 29.7913 144.033 29.7874 144.032 29.7843C143.873 29.4121 143.959 28.9719 143.932 28.5466C143.932 28.5433 143.932 28.54 143.932 28.5367C143.928 23.0124 143.944 17.4818 143.932 11.9575C143.885 10.9458 143.713 9.86452 143.053 9.04294C142.63 8.51217 141.997 8.17445 141.337 8.02483C140.301 7.80434 139.166 7.80205 138.193 8.28435C137.361 8.66392 136.718 9.34292 136.166 10.0411C136.109 10.1074 136.045 10.2124 135.987 10.3006C135.968 10.3285 135.953 10.347 135.937 10.3705C135.937 6.9608 135.937 3.54917 135.937 0.139507V0.0895996H135.887ZM135.837 0.189414C135.837 3.62902 135.837 7.07061 135.837 10.5102V10.5901L135.907 10.5501C135.944 10.5334 135.96 10.5147 135.987 10.4803C136.013 10.4458 136.047 10.3952 136.076 10.3505C136.136 10.261 136.199 10.1661 136.246 10.1109C136.794 9.41769 137.425 8.74281 138.232 8.37418C139.177 7.90582 140.296 7.90735 141.317 8.12465C141.958 8.27004 142.568 8.59448 142.974 9.10282C143.611 9.89685 143.776 10.9538 143.822 11.9575C143.834 17.4848 143.829 23.0189 143.832 28.5466C143.86 28.957 143.749 29.4176 143.932 29.8342L143.942 29.8442C144.07 30.0011 144.252 30.0452 144.431 30.0538C144.593 30.0616 144.757 30.048 144.9 30.0538C144.9 30.5695 144.9 31.0852 144.9 31.601C142.631 31.601 140.362 31.601 138.093 31.601C138.093 31.0852 138.093 30.5695 138.093 30.0538C138.293 30.0523 138.496 30.066 138.702 30.0538C138.862 30.0552 138.998 29.9733 139.091 29.8642C139.184 29.7551 139.236 29.6119 139.241 29.4649C139.25 25.7443 139.238 22.0265 139.241 18.3057C139.233 16.4045 139.259 14.4987 139.231 12.5963C139.219 12.3303 139.208 12.0367 139.141 11.7579C139.074 11.479 138.952 11.2125 138.712 11.0292H138.702C138.36 10.817 137.876 10.7962 137.474 10.8596C137.471 10.86 137.467 10.8591 137.464 10.8596C137.195 10.8909 136.931 11.0472 136.735 11.159C136.541 11.3056 136.431 11.4671 136.306 11.6581C135.887 12.3999 135.858 13.2859 135.837 14.1035C135.824 19.0796 135.84 24.0498 135.837 29.0257V29.0357C135.85 29.1752 135.834 29.3344 135.837 29.4949C135.839 29.6554 135.86 29.818 135.967 29.954L135.977 29.964L135.987 29.974C136.271 30.1195 136.587 30.0428 136.865 30.0538C136.865 30.5695 136.865 31.0852 136.865 31.601C134.649 31.601 132.433 31.601 130.217 31.601C130.217 31.0852 130.217 30.5695 130.217 30.0538C130.386 30.0534 130.56 30.0621 130.736 30.0339C130.74 30.0336 130.743 30.0342 130.746 30.0339C130.904 30.0173 131.035 29.9375 131.116 29.8243C131.198 29.7087 131.238 29.5553 131.245 29.405C131.254 20.6823 131.243 11.9567 131.245 3.23375C131.245 3.05723 131.228 2.85427 131.166 2.67479C131.103 2.49531 130.997 2.34304 130.816 2.27553C130.44 2.14416 130.034 2.22333 129.668 2.20566C129.668 1.87088 129.668 1.53233 129.668 1.19754C129.668 1.19422 129.668 1.19087 129.668 1.18756C129.678 1.09127 129.672 0.987056 129.668 0.888113C129.665 0.797968 129.68 0.719538 129.698 0.668522C131.745 0.512013 133.79 0.342185 135.837 0.189414ZM118.3 0.0895996C116.22 0.244706 114.141 0.409781 112.061 0.568708H112.031L112.011 0.598652C111.967 0.681918 111.978 0.781962 111.981 0.888113C111.985 0.994265 111.99 1.10514 111.981 1.18756C111.981 1.54223 111.981 1.90089 111.981 2.25557V2.30548H112.031C112.484 2.33377 112.941 2.24734 113.349 2.38533C113.352 2.38638 113.356 2.38425 113.359 2.38533C113.496 2.49842 113.542 2.6562 113.558 2.83449C113.574 3.01437 113.558 3.21186 113.568 3.39345C113.569 3.39669 113.568 3.4002 113.568 3.40343C113.566 12.0507 113.576 20.6982 113.568 29.3451V29.3551C113.573 29.4797 113.562 29.6211 113.518 29.7344C113.474 29.8478 113.398 29.9282 113.259 29.944C113.041 29.9745 112.819 29.9603 112.59 29.964H112.54V30.0139C112.54 30.5596 112.54 31.1052 112.54 31.6509V31.7008H112.59C115.049 31.7008 117.508 31.7008 119.966 31.7008H120.016V31.6509C120.016 31.1019 120.016 30.5529 120.016 30.0039V29.954H119.966C119.528 29.9315 119.09 29.9985 118.679 29.9141C118.517 29.8664 118.444 29.7464 118.399 29.5947C118.355 29.443 118.349 29.2606 118.349 29.1056C118.349 19.4489 118.349 9.7962 118.349 0.139507V0.0895996H118.3ZM118.25 0.189414C118.25 9.82947 118.25 19.4655 118.25 29.1056C118.249 29.2616 118.249 29.4534 118.3 29.6246C118.35 29.7959 118.461 29.9556 118.659 30.0139C119.078 30.0999 119.507 30.0393 119.917 30.0538C119.917 30.5695 119.917 31.0852 119.917 31.601C117.491 31.601 115.066 31.601 112.64 31.601C112.64 31.0886 112.64 30.5762 112.64 30.0638C112.848 30.0627 113.064 30.0739 113.279 30.0438C113.455 30.0238 113.555 29.9103 113.608 29.7744C113.661 29.6384 113.673 29.4771 113.668 29.3451C113.676 20.6947 113.666 12.0439 113.668 3.39345C113.657 3.22188 113.676 3.02113 113.658 2.82451C113.641 2.62789 113.583 2.43112 113.409 2.29549L113.399 2.28551C112.97 2.13643 112.505 2.22349 112.081 2.20566C112.081 1.87088 112.081 1.53233 112.081 1.19754C112.081 1.19422 112.081 1.19087 112.081 1.18756C112.09 1.09127 112.085 0.987056 112.081 0.888113C112.078 0.797968 112.093 0.719538 112.111 0.668522C114.158 0.512013 116.203 0.342185 118.25 0.189414ZM64.0705 0.568708V0.618615V0.648559C64.0705 1.18423 64.0705 1.7199 64.0705 2.25557V2.30548H64.1204C64.5935 2.33499 65.0647 2.2391 65.4978 2.37535C65.6622 2.42569 65.7703 2.55123 65.8372 2.71471C65.9028 2.87529 65.9285 3.07315 65.947 3.24373C65.9471 3.24705 65.9468 3.25039 65.947 3.25371C66.0055 4.59816 65.9628 5.94664 65.9769 7.29619C65.9751 14.5952 65.9831 21.8967 65.9769 29.1954C65.9817 29.3491 65.9505 29.5297 65.8771 29.6646C65.8037 29.7994 65.6873 29.89 65.5178 29.9041C65.0686 29.9978 64.5947 29.9323 64.1204 29.954H64.0705V30.0039C64.0705 30.5529 64.0705 31.1019 64.0705 31.6509V31.7008H64.1204C67.1348 31.7008 70.1491 31.7008 73.1635 31.7008H73.2134V31.6509C73.2134 31.1019 73.2134 30.5529 73.2134 30.0039V29.954H73.1635C72.6778 29.9278 72.1909 30.0066 71.7362 29.8941C71.5499 29.834 71.4384 29.6898 71.3669 29.5049C71.2954 29.3199 71.2598 29.0997 71.2471 28.906C71.2166 27.2401 71.2456 25.5735 71.2371 23.9053C71.2371 21.5962 71.2371 19.2872 71.2371 16.9782C73.1868 16.9782 75.1365 16.9782 77.0862 16.9782C77.0825 20.9002 77.0897 24.8247 77.0763 28.7463C77.0762 28.7496 77.0763 28.7529 77.0763 28.7562C77.0631 28.958 77.0542 29.1872 76.9964 29.3851C76.9391 29.5813 76.8312 29.7499 76.657 29.8542C76.2603 30.0259 75.8008 29.9246 75.3495 29.954C75.3427 29.9545 75.3362 29.9535 75.3295 29.954C75.2629 29.9385 75.1996 29.9409 75.1598 29.974C75.1154 30.0109 75.1024 30.0614 75.0999 30.1137C75.0949 30.2184 75.1218 30.3409 75.1099 30.4032V30.4132C75.1099 30.8244 75.1099 31.2396 75.1099 31.6509V31.7008H75.1598C78.1609 31.7008 81.162 31.7008 84.1631 31.7008H84.213V31.6509C84.213 31.1019 84.213 30.5529 84.213 30.0039V29.954H84.1631C83.6927 29.922 83.2188 30.0297 82.7956 29.8742C82.5976 29.7804 82.4951 29.6112 82.4363 29.405C82.3775 29.1988 82.373 28.9543 82.3664 28.7463C82.3311 27.1759 82.3561 25.6082 82.3464 24.035C82.349 17.2896 82.3375 10.5379 82.3464 3.79271C82.3464 3.78938 82.3464 3.78605 82.3464 3.78273C82.3588 3.54966 82.3591 3.28317 82.3964 3.0441C82.4341 2.80182 82.5113 2.58939 82.6858 2.44522C83.0738 2.21124 83.5655 2.33883 84.0333 2.30548C84.0366 2.30524 84.04 2.30573 84.0433 2.30548C84.0745 2.30952 84.0971 2.31432 84.1231 2.30548C84.1525 2.29552 84.1779 2.26955 84.193 2.24559C84.2231 2.19766 84.2255 2.14222 84.223 2.08588C84.2204 2.02955 84.2177 1.96931 84.213 1.9162C84.2083 1.86309 84.2052 1.82137 84.213 1.79642V1.78644V1.77646C84.213 1.38984 84.213 1.00523 84.213 0.618615V0.568708H84.1631C81.162 0.568708 78.1609 0.568708 75.1598 0.568708H75.1099V0.618615C75.1099 1.16427 75.1099 1.70992 75.1099 2.25557V2.30548H75.1598C75.6396 2.33235 76.1196 2.25198 76.5672 2.36536C76.7545 2.41832 76.8697 2.55221 76.9465 2.73468C77.0233 2.91714 77.0536 3.14133 77.0663 3.33356C77.1057 4.49368 77.0753 5.6526 77.0862 6.81708C77.0862 9.53071 77.0862 12.2483 77.0862 14.9619C75.1365 14.9619 73.1868 14.9619 71.2371 14.9619C71.2407 11.1463 71.2343 7.32831 71.2471 3.51323C71.2471 3.5099 71.2471 3.50657 71.2471 3.50325C71.269 3.12169 71.2891 2.67025 71.5665 2.44522C71.9549 2.21171 72.4458 2.3369 72.914 2.30548C72.9206 2.30503 72.9274 2.30598 72.934 2.30548C72.9995 2.32306 73.0574 2.33152 73.1036 2.31546C73.1553 2.29751 73.1876 2.25167 73.2035 2.20566C73.2352 2.11365 73.2188 2.0073 73.2134 1.90622C73.2134 1.47702 73.2134 1.04782 73.2134 0.618615V0.568708H73.1635C70.1491 0.568708 67.1348 0.568708 64.1204 0.568708H64.0705ZM64.1703 0.668522C67.1514 0.668522 70.1325 0.668522 73.1136 0.668522C73.1136 1.08109 73.1136 1.49365 73.1136 1.90622C73.1192 2.01113 73.1219 2.12273 73.1036 2.17572C73.0945 2.20221 73.0844 2.20845 73.0637 2.21564C73.043 2.22283 73.0088 2.2257 72.9439 2.20566H72.934H72.924C72.4755 2.24009 71.9461 2.10112 71.5066 2.36536C71.1791 2.63105 71.1593 3.12123 71.1373 3.50325C71.1244 7.33871 71.141 11.1765 71.1373 15.0118V15.0617H71.1872C73.1702 15.0617 75.1532 15.0617 77.1361 15.0617H77.1861V15.0118C77.1861 12.2816 77.1861 9.54733 77.1861 6.81708C77.1751 5.65517 77.2056 4.49792 77.1661 3.33356V3.32358C77.153 3.12529 77.1204 2.89461 77.0363 2.69475C76.9522 2.4949 76.82 2.32856 76.5971 2.26555H76.5872C76.1282 2.14927 75.6588 2.22346 75.2097 2.20566C75.2097 1.69328 75.2097 1.1809 75.2097 0.668522C78.1775 0.668522 81.1454 0.668522 84.1132 0.668522C84.1132 1.03514 84.1132 1.39986 84.1132 1.76648C84.1132 1.76981 84.1132 1.77313 84.1132 1.77646C84.1003 1.82539 84.0984 1.87265 84.1032 1.92618C84.1082 1.98327 84.1209 2.04698 84.1231 2.09587C84.1253 2.14475 84.1218 2.18192 84.1132 2.19568C84.1088 2.20256 84.1014 2.20288 84.0932 2.20566C84.085 2.20844 84.0678 2.2098 84.0433 2.20566H84.0333C83.5881 2.2396 83.0622 2.10223 82.6259 2.36536C82.4248 2.53158 82.3362 2.7795 82.2965 3.03412C82.2569 3.28874 82.2593 3.55309 82.2466 3.78273C82.2377 10.5314 82.2492 17.2864 82.2466 24.035C82.2562 25.6065 82.2212 27.183 82.2566 28.7562C82.2632 28.9648 82.2729 29.2021 82.3365 29.425C82.4 29.6479 82.5262 29.8553 82.7557 29.964C83.1988 30.1269 83.6768 30.0335 84.1132 30.0538C84.1132 30.5695 84.1132 31.0852 84.1132 31.601C81.1454 31.601 78.1775 31.601 75.2097 31.601C75.2097 31.2096 75.2097 30.8145 75.2097 30.4231C75.2104 30.4198 75.2092 30.4166 75.2097 30.4132C75.2254 30.3138 75.196 30.2023 75.1997 30.1237C75.2017 30.083 75.2208 30.0612 75.2297 30.0538C75.2385 30.0465 75.2583 30.0358 75.3195 30.0538H75.3295H75.3395C75.7743 30.0215 76.2543 30.1456 76.697 29.954L76.7069 29.944C76.9175 29.8243 77.0231 29.6311 77.0862 29.415C77.1494 29.1989 77.1727 28.9605 77.1861 28.7562C77.1996 24.8143 77.1822 20.87 77.1861 16.9283V16.8784H77.1361C75.1532 16.8784 73.1702 16.8784 71.1872 16.8784H71.1373V16.9283C71.1373 19.2539 71.1373 21.5796 71.1373 23.9053C71.1458 25.5721 71.1168 27.2378 71.1473 28.906V28.9159C71.1602 29.1139 71.189 29.3426 71.2671 29.5448C71.3452 29.7469 71.475 29.9226 71.6963 29.9939H71.7062C72.1748 30.1128 72.6549 30.0362 73.1136 30.0538C73.1136 30.5695 73.1136 31.0852 73.1136 31.601C70.1325 31.601 67.1514 31.601 64.1703 31.601C64.1703 31.0852 64.1703 30.5695 64.1703 30.0538C64.613 30.0395 65.0751 30.096 65.5277 30.0039C65.5331 30.0035 65.5324 29.9945 65.5377 29.9939C65.7341 29.9719 65.8841 29.8667 65.9669 29.7145C66.052 29.5582 66.082 29.3646 66.0767 29.1954C66.0829 21.8966 66.075 14.5952 66.0767 7.29619C66.0626 5.94629 66.1062 4.59672 66.0468 3.24373C66.0281 3.06788 66.0006 2.85489 65.927 2.67479C65.8534 2.49468 65.7274 2.33668 65.5277 2.27553C65.0785 2.13423 64.6108 2.22463 64.1703 2.20566C64.1703 1.69328 64.1703 1.1809 64.1703 0.668522ZM0.329102 0.588671V0.648559V2.22562V2.27553H0.38899H1.01782C1.39319 2.27553 1.69424 2.49502 1.90617 2.90436C2.11809 3.3137 2.23555 3.91504 2.23555 4.64113V27.5884C2.23556 28.2955 2.11852 28.9003 1.90617 29.3252C1.69382 29.7501 1.39149 29.984 1.01782 29.984H0.38899H0.329102V30.0339V31.6209V31.6708H0.38899H6.55751H6.60742V31.6209V30.0339V29.984H6.55751H5.60927C5.19399 29.984 4.89337 29.7495 4.69098 29.3252C4.48859 28.9009 4.39154 28.2965 4.39154 27.5884V8.2544L9.27246 31.591L9.28244 31.6309H9.32236H11.6979H11.7379L11.7478 31.591L16.6288 8.22446V27.9777C16.6288 28.6876 16.5707 29.202 16.4192 29.5248C16.2676 29.8476 16.0427 29.984 15.6606 29.984H14.5526H14.4927V30.0339V31.6209V31.6708H14.5526H23.4461H23.496V31.6209V30.0339V29.984H23.4461H22.7773C22.3952 29.984 22.1606 29.8476 22.0087 29.5248C21.8569 29.202 21.7991 28.6876 21.7991 27.9777V4.2818C21.7991 3.57251 21.8569 3.06712 22.0087 2.74466C22.1606 2.4222 22.3951 2.27553 22.7773 2.27553H23.4461H23.496V2.22562V0.648559V0.588671H23.4461H16.0099H15.97L15.96 0.638578L12.1371 19.9327L8.07468 0.628596L8.0647 0.588671H8.02478H0.38899H0.329102ZM0.438897 0.698466H7.98485L12.0872 20.2022L12.187 20.1922V20.1722L16.0498 0.698466H23.3962V2.17572H22.7773C22.368 2.17572 22.0836 2.34494 21.9189 2.69475C21.7542 3.04456 21.6993 3.56685 21.6993 4.2818V27.9777C21.6993 28.6933 21.7542 29.2146 21.9189 29.5647C22.0836 29.9149 22.368 30.0938 22.7773 30.0938H23.3962V31.571H14.6025V30.0938H15.6606C16.0699 30.0938 16.3446 29.9149 16.509 29.5647C16.6733 29.2146 16.7386 28.6933 16.7386 27.9777V7.69544V7.68546H16.6887L16.6387 7.67548V7.68546H16.6288V7.72539L11.658 31.5311H9.36229L4.39154 7.76531V7.75533L4.34163 7.76531H4.29173V7.7753V27.5884C4.29173 28.3059 4.38815 28.9186 4.60115 29.3651C4.81415 29.8116 5.15386 30.0938 5.60927 30.0938H6.5076V31.571H0.438897V30.0938H1.01782C1.43564 30.0938 1.77316 29.811 1.996 29.3651C2.21884 28.9192 2.33537 28.3068 2.33537 27.5884V4.64113C2.33537 3.90402 2.21927 3.29569 1.996 2.86444C1.77273 2.43318 1.43394 2.17572 1.01782 2.17572H0.438897V0.698466ZM124.238 2.14577L124.219 2.17572L124.209 2.19568C123.68 3.74989 123.172 5.33151 122.382 6.76717C122.124 7.19447 121.845 7.61705 121.464 7.89507C121.006 8.27032 120.38 8.29487 119.797 8.27437C119.793 8.27425 119.79 8.27448 119.787 8.27437C119.715 8.25819 119.655 8.26412 119.617 8.30431C119.577 8.3468 119.567 8.409 119.567 8.46401C119.567 8.51903 119.573 8.57023 119.577 8.62372C119.582 8.6772 119.584 8.72503 119.577 8.75347V8.76346V8.77344C119.577 9.21395 119.577 9.65047 119.577 10.091V10.1409H119.627C120.139 10.1409 120.652 10.1409 121.164 10.1409C121.167 15.9832 121.153 21.8259 121.164 27.6683C121.212 28.7034 121.256 29.8096 121.793 30.7425H121.803C122.163 31.2784 122.703 31.6936 123.34 31.8505C124.314 32.133 125.338 32.1299 126.335 32.0501H126.345C127.217 31.9403 128.106 31.603 128.67 30.8923C129.175 30.2908 129.413 29.502 129.519 28.7363C129.646 27.6288 129.567 26.5152 129.589 25.4125C129.589 24.9946 129.589 24.5727 129.589 24.1548V24.1049H129.539C128.953 24.1049 128.367 24.1049 127.782 24.1049H127.732V24.1548C127.722 25.5981 127.753 27.0372 127.712 28.4768C127.691 28.6934 127.673 28.9316 127.612 29.1455C127.553 29.3547 127.448 29.5405 127.263 29.6546C127.077 29.7524 126.83 29.7895 126.614 29.7444C126.398 29.6993 126.216 29.5811 126.125 29.3751C125.866 28.7152 125.972 27.9765 125.945 27.259C125.945 21.5663 125.945 15.8735 125.945 10.1808C127.116 10.1808 128.288 10.1808 129.459 10.1808H129.509V10.1309C129.509 9.5287 129.509 8.92649 129.509 8.32427V8.27437H129.459C128.301 8.27437 127.143 8.27437 125.985 8.27437C125.985 6.24814 125.985 4.22191 125.985 2.19568V2.14577H125.935C125.38 2.14577 124.824 2.14577 124.268 2.14577H124.238ZM124.308 2.24559C124.834 2.24559 125.36 2.24559 125.885 2.24559C125.885 4.27182 125.885 6.29804 125.885 8.32427V8.37418H125.935C127.093 8.37418 128.251 8.37418 129.409 8.37418C129.409 8.94312 129.409 9.51206 129.409 10.081C128.238 10.081 127.067 10.081 125.895 10.081H125.845V10.1309C125.845 15.8403 125.845 21.5497 125.845 27.259C125.872 27.9631 125.753 28.7222 126.025 29.415C126.131 29.655 126.354 29.7941 126.594 29.8442C126.834 29.8944 127.093 29.8646 127.303 29.7544V29.7444H127.313C127.534 29.6143 127.647 29.4039 127.712 29.1755C127.777 28.947 127.791 28.7012 127.812 28.4867C127.852 27.0603 127.823 25.6295 127.832 24.2047C128.384 24.2047 128.936 24.2047 129.489 24.2047C129.489 24.606 129.489 25.0112 129.489 25.4125C129.467 26.5214 129.545 27.6213 129.419 28.7163C129.315 29.4707 129.077 30.2527 128.59 30.8324C128.051 31.5118 127.187 31.8414 126.335 31.9503C126.331 31.9507 126.328 31.9499 126.325 31.9503C125.337 32.0288 124.322 32.0269 123.37 31.7507H123.36C122.75 31.6004 122.229 31.2088 121.883 30.6926C121.362 29.7878 121.321 28.7037 121.274 27.6683C121.262 21.8095 121.267 15.9501 121.264 10.091V10.0411H121.214C120.702 10.0411 120.189 10.0411 119.677 10.0411C119.677 9.62059 119.677 9.20391 119.677 8.78342C119.677 8.78008 119.677 8.77678 119.677 8.77344C119.687 8.7241 119.681 8.66668 119.677 8.61373C119.672 8.55748 119.667 8.50914 119.667 8.46401C119.667 8.41888 119.678 8.38332 119.687 8.37418C119.696 8.36505 119.718 8.3586 119.777 8.37418H119.787C120.378 8.39546 121.03 8.37971 121.524 7.97492C121.926 7.6815 122.203 7.24608 122.462 6.81708V6.8071C123.256 5.36305 123.781 3.79617 124.308 2.24559ZM45.6847 7.89507C44.6439 7.96663 43.6331 8.42933 42.8999 9.16271C42.5104 9.53598 42.1664 9.94431 41.8718 10.4004C41.8718 9.61853 41.8718 8.83665 41.8718 8.05477V8.00487H41.8219C39.7553 8.14308 37.6895 8.29589 35.6234 8.43407H35.5735V8.48398C35.5735 9.03295 35.5735 9.58193 35.5735 10.1309V10.1808H35.6234C36.0277 10.2101 36.4303 10.1173 36.7912 10.2407C36.9389 10.3003 37.0264 10.4277 37.0807 10.5901C37.135 10.7524 37.1493 10.9439 37.1506 11.1091C37.1646 15.7932 37.1566 20.4782 37.1605 25.1629C37.152 26.5769 37.1815 27.9939 37.1506 29.405C37.1436 29.5391 37.0986 29.6687 37.0308 29.7644C36.963 29.86 36.875 29.9232 36.7413 29.9341H36.7313C36.381 29.9754 36.0265 29.9438 35.6633 29.954H35.6134V30.0039C35.6134 30.5529 35.6134 31.1019 35.6134 31.6509V31.7008H35.6633C38.0855 31.7008 40.5077 31.7008 42.9298 31.7008H42.9797V31.6509C42.9797 31.1019 42.9797 30.5529 42.9797 30.0039V29.954H42.9298C42.6197 29.9291 42.3081 29.9942 42.0514 29.8742C41.9704 29.7437 41.9435 29.591 41.9417 29.425C41.9398 29.2553 41.9548 29.0777 41.9417 28.906C41.9414 28.9027 41.9419 28.8993 41.9417 28.896C41.9452 23.9658 41.9392 19.0333 41.9516 14.1035C41.9807 13.2865 41.9926 12.4171 42.4008 11.708C42.4979 11.54 42.6521 11.3475 42.8001 11.2488C43.2873 10.9085 43.9481 10.8451 44.5069 11.0392C44.6876 11.107 44.8203 11.2554 44.9161 11.4385C45.0119 11.6216 45.0723 11.8366 45.0958 12.0374C45.192 12.9791 45.1263 13.9375 45.1457 14.892C45.143 19.7522 45.145 24.6053 45.1357 29.4649H45.1457C45.1364 29.6011 45.0868 29.7194 45.0159 29.8043C44.945 29.8892 44.8529 29.9379 44.7165 29.944C44.4986 29.9568 44.2723 29.9502 44.0477 29.954H43.9978V30.0039C43.9978 30.5529 43.9978 31.1019 43.9978 31.6509V31.7008H44.0477C46.3501 31.7008 48.6525 31.7008 50.9549 31.7008H51.0048V31.6509C51.0048 31.1019 51.0048 30.5529 51.0048 30.0039V29.954H50.9549C50.7857 29.9404 50.6024 29.9624 50.4358 29.954C50.2742 29.9459 50.1394 29.9129 50.0366 29.7943C50.0353 29.7913 50.0379 29.7874 50.0366 29.7843C49.8782 29.4121 49.964 28.9719 49.9368 28.5466C49.9366 28.5433 49.937 28.54 49.9368 28.5367C49.9334 23.0124 49.9487 17.4818 49.9368 11.9575C49.8888 10.9934 49.7428 9.95894 49.1482 9.15273C48.5709 8.32979 47.5447 7.96037 46.573 7.90505C46.2749 7.87319 45.9821 7.87782 45.6847 7.89507ZM45.6847 7.99489C45.9782 7.97786 46.2721 7.97378 46.563 8.00487L46.573 8.01485C47.5228 8.06892 48.5155 8.4245 49.0684 9.21262V9.2226C49.6429 10.0015 49.7793 10.9997 49.827 11.9575C49.8389 17.4848 49.8335 23.0189 49.837 28.5466C49.8651 28.957 49.7544 29.4176 49.9368 29.8342L49.9468 29.8442C50.0737 30.0004 50.2565 30.0448 50.4358 30.0538C50.5979 30.062 50.7614 30.0483 50.905 30.0538C50.905 30.5695 50.905 31.0852 50.905 31.601C48.6359 31.601 46.3667 31.601 44.0976 31.601C44.0976 31.0852 44.0976 30.5695 44.0976 30.0538C44.3017 30.0522 44.508 30.0661 44.7165 30.0538C44.8781 30.0465 45.0077 29.9696 45.0958 29.8642C45.1838 29.7588 45.235 29.6278 45.2455 29.4749V29.4649C45.2547 24.6051 45.2429 19.7421 45.2455 14.8821C45.2262 13.9336 45.293 12.9807 45.1956 12.0274C45.171 11.8167 45.1095 11.5866 45.0059 11.3886C44.9024 11.1905 44.7572 11.0183 44.5468 10.9394C43.9577 10.7348 43.2578 10.8075 42.7402 11.169C42.5681 11.2838 42.4232 11.4811 42.3209 11.6581C41.8957 12.3968 41.8708 13.2876 41.8418 14.1035C41.8294 19.037 41.8454 23.9726 41.8418 28.906C41.8553 29.0669 41.8399 29.2439 41.8418 29.425C41.8438 29.6061 41.8653 29.7956 41.9716 29.954L41.9816 29.964L41.9916 29.974C42.2791 30.1204 42.5987 30.0424 42.8799 30.0538C42.8799 30.5695 42.8799 31.0852 42.8799 31.601C40.491 31.601 38.1021 31.601 35.7132 31.601C35.7132 31.0852 35.7132 30.5695 35.7132 30.0538C36.0527 30.0478 36.4037 30.0749 36.7513 30.0339C36.9142 30.0206 37.0384 29.9402 37.1206 29.8243C37.2028 29.7083 37.2426 29.5546 37.2504 29.405C37.2813 27.9911 37.2518 26.5753 37.2604 25.1629C37.2564 20.4785 37.2744 15.7936 37.2604 11.1091C37.259 10.938 37.2404 10.7393 37.1805 10.5601C37.1206 10.381 37.0135 10.2245 36.8312 10.1509C36.451 10.0209 36.0433 10.0983 35.6733 10.081C35.6733 9.5653 35.6733 9.04959 35.6733 8.53388C37.7067 8.39766 39.739 8.24087 41.772 8.10468C41.772 8.91651 41.772 9.72832 41.772 10.5401V10.7198L41.8618 10.5701C42.1621 10.073 42.5493 9.64548 42.9697 9.24256C43.6853 8.52682 44.6697 8.06467 45.6847 7.99489ZM103.437 7.89507C102.112 7.9407 100.766 8.3236 99.7041 9.14275C99.2124 9.58558 98.7269 10.0921 98.4964 10.7398H98.5064C98.0384 11.8733 98.2878 13.2105 98.9755 14.1933C99.2861 14.5935 99.7023 14.9426 100.223 15.0518C100.96 15.2304 101.75 14.9224 102.249 14.383C102.792 13.8638 102.938 12.9978 102.609 12.3168C102.333 11.6916 101.797 11.2382 101.261 10.8596V10.8496C101.026 10.6862 100.776 10.5422 100.523 10.4104C101.01 10.0774 101.621 9.95198 102.209 9.85143C102.213 9.8512 102.216 9.85166 102.219 9.85143C102.894 9.80339 103.615 9.78372 104.216 10.091C104.457 10.2333 104.638 10.4205 104.725 10.6999C104.976 11.5238 104.856 12.4162 104.884 13.285C104.884 14.4209 104.884 15.5529 104.884 16.6887C103.388 17.205 101.873 17.7173 100.483 18.4953C99.482 19.0714 98.5835 19.8761 98.0572 20.9208C97.4814 22.1061 97.3056 23.4275 97.2387 24.7238C97.1679 26.2979 97.1987 27.9271 97.6979 29.445C97.9474 30.1464 98.3267 30.8132 98.9056 31.3015C99.6102 31.9328 100.605 32.1533 101.531 32.09C102.6 32.0359 103.645 31.5545 104.355 30.7525C104.742 30.3413 105.065 29.8747 105.334 29.3751C105.517 30.1378 105.724 30.9688 106.382 31.4812C107.007 32.0132 107.881 32.0805 108.657 32.1C109.546 32.0958 110.555 31.9379 111.183 31.2316C111.699 30.7037 111.899 29.9538 112.031 29.2553C112.145 28.5346 112.167 27.8045 112.171 27.0794V27.0295H112.121C111.625 27.0295 111.13 27.0295 110.634 27.0295H110.584V27.0794C110.574 27.8099 110.61 28.5431 110.484 29.2553C110.451 29.4728 110.266 29.6333 110.045 29.6047H110.035C109.926 29.6222 109.853 29.5776 109.795 29.5049C109.738 29.4321 109.701 29.3261 109.706 29.2254C109.643 28.1466 109.691 27.0572 109.676 25.9714C109.671 21.8094 109.682 17.647 109.666 13.4847C109.641 12.1451 109.391 10.7326 108.548 9.64182C108.122 9.13444 107.599 8.69672 106.981 8.43407C105.872 7.94468 104.628 7.85297 103.437 7.89507ZM103.437 7.99489C104.62 7.95307 105.854 8.05387 106.941 8.53388C107.541 8.78899 108.051 9.20431 108.468 9.70171C109.291 10.7665 109.542 12.1567 109.566 13.4847C109.582 17.6465 109.571 21.8091 109.576 25.9714C109.591 27.0532 109.542 28.1396 109.606 29.2254C109.6 29.3497 109.63 29.4789 109.706 29.5747C109.777 29.6648 109.902 29.707 110.035 29.6945C110.043 29.6937 110.046 29.7059 110.055 29.7045V29.6945C110.32 29.7158 110.545 29.5335 110.584 29.2753C110.71 28.5645 110.676 27.8395 110.684 27.1293C111.146 27.1293 111.609 27.1293 112.071 27.1293C112.067 27.8359 112.041 28.5394 111.931 29.2354C111.8 29.9282 111.605 30.6591 111.113 31.1618H111.103C110.506 31.8331 109.534 31.9961 108.657 32.0002C107.886 31.9808 107.045 31.9057 106.452 31.4013C105.798 30.8923 105.593 30.037 105.404 29.2453L105.374 29.1056L105.304 29.2354C105.03 29.7686 104.684 30.2584 104.276 30.6926C103.585 31.4724 102.563 31.9375 101.521 31.9902C100.616 32.0521 99.6431 31.8287 98.9655 31.2217C98.4053 30.7492 98.0434 30.0956 97.7977 29.405C97.3049 27.9065 97.2679 26.3035 97.3385 24.7337C97.4051 23.4432 97.5907 22.1265 98.157 20.9608C98.672 19.9385 99.5447 19.1538 100.533 18.5852C101.921 17.8083 103.447 17.2986 104.954 16.7785L104.984 16.7686V16.7286C104.984 15.5794 104.984 14.4342 104.984 13.285V13.2751C104.956 12.4178 105.074 11.5215 104.815 10.6699C104.72 10.3652 104.522 10.1627 104.266 10.0111V10.0012C103.631 9.67682 102.89 9.70279 102.209 9.75162H102.199C101.578 9.85776 100.909 9.97515 100.383 10.3705L100.313 10.4204L100.393 10.4603C100.675 10.6015 100.942 10.7593 101.201 10.9394C101.732 11.3142 102.256 11.7596 102.519 12.3568C102.828 12.996 102.688 13.827 102.18 14.3131H102.17C101.693 14.8272 100.938 15.1203 100.243 14.9519C99.754 14.8494 99.3564 14.5212 99.0553 14.1335C98.3858 13.1767 98.144 11.875 98.5962 10.7797C98.8174 10.1581 99.2767 9.66145 99.764 9.2226C100.805 8.41953 102.13 8.03992 103.437 7.99489ZM90.2717 7.89507C88.9136 7.97891 87.6157 8.64025 86.7183 9.6518C85.8303 10.5646 85.2476 11.7234 84.8119 12.9057C83.9764 15.242 83.7586 17.7418 83.7438 20.2022C83.7746 22.4966 83.9025 24.8315 84.5623 27.0494C84.8816 28.0868 85.3144 29.0976 85.9797 29.964C86.5023 30.6065 87.1434 31.1769 87.9061 31.5311C89.1034 32.1064 90.4735 32.1769 91.7689 32.0401C92.8272 31.926 93.9508 31.6177 94.7134 30.8224C94.9864 30.5553 95.1935 30.2974 95.3822 29.954C95.9999 28.8204 96.13 27.5018 96.1607 26.2409C96.1638 25.5967 96.1402 24.9566 96.0909 24.3145V24.2646H96.041C95.4687 24.2646 94.8964 24.2646 94.3242 24.2646H94.2742V24.3145C94.2934 25.5382 94.3025 26.7774 94.0746 27.9777C93.9707 28.5057 93.7787 29.051 93.3959 29.3951C92.8131 29.864 91.9981 29.8087 91.2698 29.7744C90.754 29.7337 90.2345 29.5669 89.8924 29.1755C89.743 28.9852 89.5704 28.6938 89.4832 28.4169C89.0907 27.2671 89.0647 26.0366 88.9941 24.8236C88.9355 23.0285 88.9298 21.2304 88.9342 19.4336C91.4362 19.4336 93.9382 19.4336 96.4402 19.4336H96.4901V19.3837C96.4749 16.9146 96.4024 14.4133 95.7615 12.0074V11.9974C95.4605 11.0467 95.0947 10.073 94.394 9.3324C93.7387 8.57117 92.7865 8.11688 91.7989 7.97492C91.294 7.88679 90.7795 7.87619 90.2717 7.89507ZM90.2717 7.99489C90.7757 7.97615 91.2945 7.98843 91.7889 8.07474C92.7549 8.21358 93.6774 8.66248 94.3142 9.40227C94.9943 10.121 95.3624 11.0833 95.6617 12.0274C95.6625 12.0305 95.6608 12.0342 95.6617 12.0374C96.292 14.4092 96.3744 16.8858 96.3903 19.3338C93.8883 19.3338 91.3863 19.3338 88.8843 19.3338H88.8344V19.3837C88.8298 21.1974 88.8351 23.0098 88.8943 24.8236C88.9647 26.0339 88.9841 27.2872 89.3833 28.4568C89.4763 28.7519 89.6568 29.0369 89.8125 29.2354C90.1786 29.6541 90.7267 29.8421 91.2599 29.8841H91.2698C91.9966 29.9184 92.8345 29.9748 93.4558 29.4749C93.8655 29.1066 94.0684 28.5365 94.1744 27.9977V27.9877C94.4017 26.7905 94.3928 25.5723 94.3741 24.3644C94.913 24.3644 95.4521 24.3644 95.9911 24.3644C96.0377 24.9874 96.0639 25.6161 96.0609 26.2409C96.0303 27.4962 95.8972 28.7941 95.2924 29.9041C95.1082 30.2394 94.911 30.4908 94.6436 30.7525H94.6336C93.8965 31.5212 92.8055 31.8274 91.7589 31.9403C90.4744 32.0759 89.1286 32.0048 87.956 31.4412H87.946C87.2015 31.0955 86.575 30.5378 86.0595 29.9041C85.4045 29.0512 84.9793 28.0498 84.6621 27.0195C84.0069 24.8168 83.8744 22.4938 83.8437 20.2022C83.8584 17.7476 84.082 15.2656 84.9117 12.9457C85.3448 11.7705 85.9149 10.6193 86.7882 9.72167H86.7982C87.6779 8.73007 88.9425 8.07694 90.2717 7.99489ZM57.4528 7.88509C57.2274 7.88582 56.9947 7.8786 56.7641 7.90505C56.7607 7.90544 56.7574 7.90466 56.7541 7.90505C55.436 7.99886 54.116 8.56474 53.2706 9.6019C52.4634 10.5349 52.0908 11.7886 52.0229 13.0056C51.9682 14.2871 52.0553 15.5999 52.502 16.8185C52.9159 17.9835 53.6568 19.0024 54.4384 19.9327C55.514 21.2138 56.6517 22.4346 57.7223 23.7156C57.9562 24.0493 58.2619 24.4004 58.4809 24.7637L58.4908 24.7737C59.0874 25.6276 59.3801 26.6765 59.3193 27.7182C59.2932 28.3008 59.2227 28.9133 58.8801 29.3851C58.6907 29.6381 58.3377 29.858 58.0018 29.9341C57.4869 30.0701 56.9283 30.0681 56.4047 29.964C55.9351 29.8482 55.5489 29.6012 55.2469 29.2254C55.0421 28.9264 54.8306 28.552 54.7079 28.1873C54.2677 26.9526 54.1675 25.6309 53.9493 24.3345V24.3145L53.9194 24.2945C53.8361 24.2503 53.736 24.2608 53.6299 24.2646C53.5237 24.2684 53.4129 24.2736 53.3305 24.2646C52.9192 24.2646 52.504 24.2646 52.0928 24.2646H52.0428V24.3145C52.0428 26.76 52.0428 29.2054 52.0428 31.6509V31.7008H52.0928C52.6018 31.7008 53.1109 31.7008 53.6199 31.7008H53.6598L53.6698 31.6608C53.7641 31.2259 53.9001 30.7578 54.2388 30.4731C54.2844 30.4361 54.3139 30.4301 54.3486 30.4331C54.3832 30.4361 54.4294 30.4538 54.4683 30.483C54.5461 30.5416 54.6203 30.6416 54.6979 30.7126C55.5628 31.6107 56.8211 32.0884 58.0616 32.1C59.2981 32.1179 60.582 31.811 61.5651 31.022C62.1137 30.5652 62.5871 29.9977 62.8827 29.3352C63.5682 27.9163 63.6016 26.2923 63.4416 24.7637C63.2996 23.3598 62.7635 22.0189 61.9544 20.8709C61.3855 20.0577 60.7272 19.3219 60.0779 18.5752C59.2924 17.6902 58.4655 16.8458 57.7223 15.9301C57.4785 15.5892 57.174 15.2156 56.9437 14.8421C56.4076 14.0012 56.1655 12.9845 56.2051 11.9875C56.2089 11.5051 56.313 10.9751 56.5844 10.61C56.9868 10.1105 57.7227 10.019 58.3611 10.071C58.8487 10.0899 59.3407 10.2291 59.7086 10.5501C59.831 10.6312 59.9489 10.7933 60.038 10.9394C60.4858 11.6218 60.5785 12.4752 60.6768 13.285C60.7514 13.8969 60.8381 14.5108 60.9063 15.1216V15.1615H60.9563C61.5585 15.1615 62.1607 15.1615 62.7629 15.1615H62.8128V15.1116C62.8128 12.8492 62.8128 10.5867 62.8128 8.32427V8.27437H62.7629C62.2672 8.27437 61.7714 8.27437 61.2757 8.27437H61.2357L61.2258 8.31429C61.1761 8.70173 61.2009 9.11019 61.0661 9.45217C61.0499 9.48433 61.0512 9.48223 61.0461 9.48212C61.0409 9.48201 61.0209 9.47285 60.9962 9.45217C60.9714 9.4315 60.9441 9.40051 60.9163 9.37232C60.8918 9.34744 60.8649 9.3203 60.8365 9.30245C60.833 9.29944 60.83 9.29548 60.8265 9.29247C59.8998 8.48646 58.6995 7.93745 57.4528 7.88509ZM57.4528 7.9849C58.6767 8.03631 59.8539 8.58488 60.7666 9.3823H60.7766C60.7884 9.38867 60.8099 9.41527 60.8365 9.44219C60.863 9.46912 60.8944 9.50542 60.9263 9.53203C60.9582 9.55863 60.9988 9.58095 61.0461 9.58193C61.0934 9.58292 61.1401 9.54341 61.1659 9.4921C61.3072 9.13371 61.2745 8.73697 61.3156 8.37418C61.7814 8.37418 62.2472 8.37418 62.713 8.37418C62.713 10.6034 62.713 12.8326 62.713 15.0617C62.1407 15.0617 61.5685 15.0617 60.9962 15.0617C60.9286 14.4628 60.8495 13.8723 60.7766 13.2751C60.6785 12.4662 60.5933 11.5988 60.1278 10.8895C60.0357 10.7385 59.9163 10.5682 59.7685 10.4703C59.3776 10.1292 58.8647 9.99073 58.3611 9.97121C57.707 9.91791 56.9408 10.0086 56.5045 10.5501C56.2126 10.9429 56.1092 11.4913 56.1053 11.9875C56.0649 13.0034 56.3053 14.0314 56.8539 14.892C57.0894 15.2742 57.4018 15.6535 57.6424 15.99C58.3894 16.9103 59.2146 17.7623 59.998 18.6451C60.6481 19.3926 61.3003 20.1243 61.8646 20.9308C62.6644 22.0656 63.2017 23.389 63.3418 24.7737C63.5009 26.2935 63.4657 27.9027 62.7928 29.2952C62.505 29.9404 62.0443 30.4933 61.5052 30.9422C60.5461 31.7118 59.2804 32.0079 58.0616 31.9902C56.8466 31.9788 55.6108 31.5181 54.7678 30.6427V30.6328C54.7024 30.5729 54.6238 30.4751 54.5282 30.4032C54.4804 30.3672 54.42 30.3386 54.3585 30.3333C54.2971 30.328 54.2301 30.3436 54.1689 30.3932C53.8097 30.6952 53.675 31.1714 53.58 31.601C53.1009 31.601 52.6218 31.601 52.1427 31.601C52.1427 29.1888 52.1427 26.7766 52.1427 24.3644C52.534 24.3644 52.9291 24.3644 53.3205 24.3644C53.3238 24.3644 53.3271 24.3644 53.3305 24.3644C53.4267 24.3736 53.531 24.3679 53.6299 24.3644C53.7241 24.3611 53.8091 24.3737 53.8595 24.3944C54.0719 25.6718 54.1664 26.9884 54.6081 28.2272C54.7356 28.6063 54.9589 28.9814 55.167 29.2853C55.482 29.6772 55.885 29.9431 56.3748 30.0638H56.3848C56.9211 30.1705 57.4886 30.1747 58.0217 30.0339C58.3834 29.952 58.7516 29.7233 58.96 29.445C59.3229 28.9452 59.3928 28.3159 59.4191 27.7282C59.4812 26.6632 59.1807 25.5869 58.5707 24.7138C58.3449 24.3392 58.0311 23.9823 57.8021 23.6557C56.7293 22.372 55.5917 21.1414 54.5182 19.8628C53.7398 18.9363 53.0091 17.9251 52.6018 16.7785C52.1617 15.578 52.0684 14.2793 52.1227 13.0056C52.1897 11.8056 52.5625 10.5826 53.3504 9.67177C54.1767 8.65809 55.4672 8.09485 56.7641 8.00487H56.774C56.9978 7.97824 57.2215 7.98565 57.4528 7.9849ZM29.944 7.91503C28.0071 7.91503 26.2912 8.9454 25.0631 10.9893C23.8349 13.0332 23.0867 16.0812 23.0867 20.1423C23.0869 24.5986 23.773 27.577 24.9732 29.445C26.1734 31.3129 27.894 32.0701 29.944 32.0701C31.8905 32.0701 33.3735 31.6463 34.3059 30.4631C35.2383 29.2799 35.6117 27.3473 35.3739 24.3345V24.2945H35.324H33.667H33.6072L33.6171 24.3445C33.677 26.8737 33.4933 28.2521 33.0781 28.9858C32.8706 29.3527 32.6073 29.5545 32.2796 29.6745C31.9519 29.7946 31.5542 29.8243 31.0918 29.8243C30.4138 29.8243 29.9047 29.7412 29.5148 29.4849C29.1249 29.2286 28.8498 28.8029 28.6564 28.1075C28.2694 26.7166 28.2172 24.266 28.2172 20.0724C28.2172 19.9253 28.2172 19.688 28.2172 19.4037H35.7232H35.7731V19.3537C35.7731 15.1177 35.3681 12.2647 34.4356 10.4603C33.5031 8.65593 32.033 7.91503 29.944 7.91503ZM29.944 8.01485C32.0091 8.01485 33.428 8.7342 34.3458 10.5102C35.2597 12.2786 35.6698 15.1042 35.6733 19.3038H28.1673H28.1174V19.3537C28.1174 19.6703 28.1174 19.9143 28.1174 20.0724C28.1174 24.2668 28.162 26.7192 28.5566 28.1374C28.7538 28.8465 29.0398 29.2919 29.4549 29.5647C29.8699 29.8376 30.4049 29.9341 31.0918 29.9341C31.5586 29.9341 31.9624 29.9016 32.3096 29.7744C32.6568 29.6471 32.9502 29.4206 33.168 29.0357C33.5999 28.2723 33.7726 26.8894 33.717 24.3944H35.2741C35.502 27.3638 35.1276 29.259 34.226 30.4032C33.3189 31.5543 31.876 31.9703 29.944 31.9703C27.9187 31.9703 26.2361 31.2363 25.0531 29.3951C23.87 27.5538 23.1867 24.5882 23.1866 20.1423C23.1866 16.0936 23.9285 13.0602 25.1429 11.0392C26.3573 9.01822 28.0432 8.01485 29.944 8.01485ZM29.6944 9.83147C29.1522 9.8208 28.7489 10.2555 28.6065 10.7398C28.2662 11.8027 28.2704 12.9242 28.1873 14.0137C28.1272 15.251 28.1058 16.4891 28.0874 17.7268V17.7767H28.1373C29.2253 17.7767 30.3133 17.7767 31.4013 17.7767H31.4512V17.7268C31.4393 16.0018 31.4809 14.2734 31.4312 12.5464C31.3808 11.7968 31.4203 10.9798 31.0419 10.2806V10.2707C30.8987 10.0366 30.6762 9.91729 30.4331 9.86141C30.1899 9.80553 29.9311 9.81444 29.6944 9.83147ZM29.6944 9.93128C29.9273 9.91453 30.1874 9.90936 30.4131 9.96123C30.6388 10.0131 30.8353 10.1233 30.9621 10.3305C31.3178 10.9953 31.2806 11.8011 31.3314 12.5564C31.3805 14.2633 31.3405 15.9667 31.3514 17.6769C30.2967 17.6769 29.242 17.6769 28.1873 17.6769C28.2055 16.456 28.2279 15.2323 28.2871 14.0137C28.3706 12.9185 28.3625 11.8123 28.6963 10.7697V10.7597C28.8286 10.3102 29.2075 9.9217 29.6944 9.93128ZM105.044 17.8565L104.964 17.9064L104.944 17.9164L104.914 17.9364C104.413 18.2441 103.877 18.5117 103.427 18.9046C103.143 19.0903 102.884 19.4086 102.659 19.6732H102.649C101.976 20.6523 101.883 21.8806 101.81 23.0169C101.762 24.474 101.722 25.9398 101.8 27.3988C101.849 27.9019 101.88 28.471 102.17 28.9159C102.413 29.2968 102.876 29.3834 103.287 29.3651C103.291 29.3651 103.294 29.3651 103.297 29.3651C103.772 29.3659 104.26 29.1843 104.545 28.7862C104.957 28.2329 105.011 27.4954 105.044 26.8398C105.055 23.8752 105.041 20.9107 105.044 17.9464V17.8565ZM104.944 18.0362C104.942 20.9709 104.945 23.9056 104.934 26.8398C104.901 27.494 104.854 28.2049 104.465 28.7263C104.202 29.0943 103.739 29.2685 103.287 29.2653C102.891 29.2846 102.467 29.1963 102.249 28.8561C101.981 28.4425 101.959 27.8955 101.91 27.3888C101.832 25.935 101.862 24.4734 101.91 23.0169C101.983 21.8862 102.083 20.6915 102.729 19.743C102.731 19.7395 102.736 19.7365 102.738 19.733C102.962 19.47 103.228 19.154 103.487 18.9844C103.914 18.6108 104.447 18.3391 104.944 18.0362Z" fill="white"/>
</svg>
