<svg width="138" height="33" viewBox="0 0 138 33" fill="none" xmlns="http://www.w3.org/2000/svg">
<path d="M18.9235 31.673H16.2178L15.4844 28.0049C14.4301 30.2061 13.1914 32.1316 9.38552 32.1316C2.50799 32.1316 0.03125 25.8497 0.03125 16.7703C0.03125 9.70904 1.68192 0.630374 10.0279 0.630374C17.4107 0.630374 18.5568 7.55384 18.8776 10.993L13.6959 11.9561C13.1914 8.56291 12.8247 6.08691 10.073 6.08691C8.46906 6.08691 7.73485 6.86631 7.23106 8.24137C6.54279 10.2595 6.49685 14.661 6.49685 17.0919C6.49685 24.428 7.45999 26.6751 10.119 26.6751C11.9074 26.6751 13.4211 25.8957 13.467 20.6229H9.66112V15.5331H18.9235V31.673Z" fill="white"/>
<path d="M19.9316 1.08834H26.2135V26.0336H33.9631V31.6731H19.9316V1.08834Z" fill="white"/>
<path d="M42.1915 20.1181L43.8421 11.681C44.2089 9.80065 44.3919 8.10405 44.5756 6.82012C44.7134 9.57172 44.9423 10.7179 45.2179 11.9559L46.9145 20.1181H42.1915ZM41.7329 1.08797L34.7168 31.6727H40.3571L41.5491 25.0701H47.6021L48.8401 31.6727H55.1679L48.2437 1.08797H41.7329Z" fill="white"/>
<path d="M55.6714 1.08834H64.2915L66.6304 13.9736C67.1809 16.8163 67.4098 19.9806 67.5936 22.7322C67.8225 19.3842 68.5108 14.9827 68.8775 13.3313L71.4913 1.08834H79.9284V31.6731H73.9214V14.2485C73.9214 12.277 73.9673 10.9931 74.2422 4.98608C73.9673 6.95754 73.2339 12.3689 72.9123 13.9736L69.1983 31.6731H65.2546L61.6784 13.6988C61.2657 11.5895 60.8071 7.87474 60.4863 4.98608C60.5323 7.37021 60.6693 11.1301 60.6693 13.515V31.6731H55.6714V1.08834Z" fill="white"/>
<path d="M90.3493 6.08654C91.5414 6.08654 92.2296 6.54514 92.7334 8.058C93.3306 9.89241 93.3306 14.2028 93.3306 16.0831C93.3306 16.4958 93.3306 21.8605 92.9631 23.9698C92.6882 25.5745 92.1837 26.6754 90.4871 26.6754C88.9283 26.6754 88.3778 25.6664 88.057 24.4284C87.5065 22.2732 87.5065 19.2926 87.5065 16.6788C87.5065 12.827 87.5984 9.52567 88.1489 8.01207C88.6527 6.63701 89.3861 6.08654 90.3493 6.08654ZM90.4871 0.630005C83.288 0.630005 80.8579 6.68294 80.8579 16.0372C80.8579 20.9433 81.4536 25.4374 83.425 28.6469C83.7925 29.2433 85.5803 32.132 90.3493 32.132C97.9151 32.132 99.9785 25.6204 99.9785 16.5869C99.9785 7.32454 97.8699 0.630005 90.4871 0.630005Z" fill="white"/>
<path d="M107.349 1.08836V20.5763C107.349 24.3822 107.669 26.5374 110.466 26.5374C113.447 26.5374 113.493 23.8324 113.493 20.2555V1.08836H118.811V20.2555C118.811 25.6661 118.491 32.1317 110.054 32.1317C103.084 32.1317 101.066 28.6007 101.066 20.76V1.08836H107.349Z" fill="white"/>
<path d="M125.954 5.90303H127.697C129.714 5.90303 131.089 6.95804 131.089 10.1216C131.089 13.0102 130.126 14.6157 127.697 14.6157H125.954V5.90303ZM119.81 31.6728H125.954V19.6596H127.926L131.365 31.6728H137.968L133.336 18.4216C134.758 17.5503 137.326 15.9448 137.326 10.1675C137.326 9.02137 137.326 5.3985 134.483 2.73876C132.879 1.27183 130.997 1.08809 127.697 1.08809H119.81V31.6728Z" fill="white"/>
</svg>
