<svg width="198" height="28" viewBox="0 0 198 28" fill="none" xmlns="http://www.w3.org/2000/svg">
<path d="M43.3268 23.331L41.679 17.8045L40.9874 14.8276C41.0895 14.8019 41.0063 14.6029 41.0025 14.5734C40.4167 9.85379 36.6792 10.3843 34.2531 11.1949C34.2531 11.1949 34.1245 11.3128 34.1283 11.1581C34.1359 10.9665 34.1396 9.05425 34.1396 8.53845C34.1396 8.41691 34.2492 8.38003 34.2492 8.38003C37.2801 7.08318 41.6676 7.19371 44.366 8.50899C46.3915 9.50006 47.5707 10.9996 48.6856 15.5018C48.9916 16.7472 49.3431 18.4604 50.3181 22.1815C50.7868 23.9684 51.2818 24.6353 52.2908 24.4474C52.4156 24.4253 52.4193 24.4879 52.4193 24.5948C52.4156 25.4422 52.4156 26.8606 52.4156 26.9601C52.4156 27.2548 52.4156 27.2548 52.3135 27.2512C52.185 27.2475 49.5245 27.2548 49.5245 27.2548C48.3113 27.2475 46.8337 27.2475 44.9139 25.6116L43.3268 23.331Z" fill="white"/>
<path d="M43.3268 23.331C43.3721 23.4637 43.1756 23.5963 43.0471 23.6553C38.856 25.9801 37.3329 19.0941 41.4145 17.7677C41.5808 17.7235 41.679 17.8045 41.679 17.8045L40.9874 14.8276C38.8069 15.2955 35.3791 16.2571 33.894 17.624C30.5722 20.682 32.0045 25.608 35.6513 26.8827C37.6883 27.5938 41.8982 28.1575 44.9139 25.6116L43.3268 23.331Z" fill="white"/>
<path d="M71.815 7.09009C74.124 7.09009 75.9985 5.61639 75.9985 3.79632C75.9985 1.9763 74.124 0.502536 71.815 0.502536C69.5021 0.502536 67.6314 1.9763 67.6314 3.79632C67.6314 5.61639 69.5021 7.09009 71.815 7.09009Z" fill="white"/>
<path d="M90.4858 16.0475C90.6143 16.0144 91.1207 16.0254 91.079 15.3291C90.9695 13.5532 90.516 12.3411 89.983 11.6337C88.9778 10.3037 87.1374 10.2558 86.1888 12.2269C85.6333 13.3764 85.5237 15.4691 85.5992 16.8654C85.6258 17.3002 85.6975 17.3223 86.1057 17.2265L86.4345 19.8534C86.2909 19.9271 86.1133 19.8645 86.3211 20.4061C87.6325 23.8436 89.5145 24.3115 92.0314 24.1714C93.3352 24.1014 94.7939 23.4383 95.3078 23.1767C95.8181 22.9114 95.7387 23.2283 95.7387 23.4161V25.741C95.7387 26.1168 95.7727 26.2494 95.0925 26.4889C91.6535 27.7158 87.1374 28.0068 83.6303 26.3231C80.6826 24.9083 77.9995 21.1761 78.23 17.1049C78.5965 10.6242 82.7272 7.1204 88.9212 7.31564C93.8 7.47041 97.53 10.9594 97.9835 16.088C98.0024 16.3017 97.9986 16.6296 97.7908 16.7439L90.4858 16.0475Z" fill="white"/>
<path d="M90.4858 16.0475C89.624 16.3017 86.1057 17.2265 86.1057 17.2265L86.4345 19.8534C86.5743 19.7761 97.7908 16.7439 97.7908 16.7439L90.4858 16.0475Z" fill="white"/>
<path d="M30.0552 25.7523C30.0513 26.6403 30.263 26.9793 30.3347 27.1266C30.3953 27.2593 30.2138 27.2408 30.2138 27.2408H22.9087C22.9087 27.2408 22.7651 27.2482 22.8105 27.1266C22.8974 26.8872 23.075 26.4561 23.075 25.7523L23.0674 24.8313V14.4304C23.0637 13.8115 22.6707 12.4814 21.1325 12.4777C19.8589 12.4888 18.6723 13.6162 18.6686 15.1783L18.6648 24.9676C18.6648 24.9676 18.6686 25.7192 18.6686 25.7523C18.6648 26.6403 18.8764 26.9793 18.9482 27.1266C19.0087 27.2593 18.8273 27.2408 18.8273 27.2408H11.5222C11.5222 27.2408 11.3786 27.2482 11.4239 27.1266C11.5109 26.8872 11.6847 26.4561 11.6885 25.7523V14.4415C11.6847 13.8188 11.2917 12.4925 9.74981 12.4851C8.48003 12.4962 7.28959 13.6236 7.28959 15.1857V25.2255L7.28209 25.7523C7.28209 26.6403 7.49372 26.9793 7.56165 27.1266C7.6222 27.2593 7.44459 27.2408 7.44459 27.2408H0.139475C0.139475 27.2408 -0.00791684 27.2482 0.0374078 27.1266C0.128173 26.8872 0.298169 26.4561 0.305781 25.7523V25.1334C0.305781 22.8455 0.301975 12.7983 0.298169 11.8735C0.305781 11.2693 0.109259 10.8382 0.0148033 10.6024C-0.0419389 10.4809 0.0827328 10.4256 0.0827328 10.4256C0.0827328 10.4256 2.76981 9.25029 7.17241 7.26808C7.21774 7.2497 7.2934 7.27545 7.28959 7.35286V10.5656C7.28959 10.6466 7.38035 10.6908 7.44828 10.6208C7.48611 10.584 7.53144 10.525 7.59198 10.4588C10.0068 6.87017 17.5235 6.28808 18.7063 10.584C18.7291 10.6577 18.8122 10.6503 18.8613 10.584C20.3503 8.63869 21.8431 7.65863 24.9117 7.65863C30.913 7.65863 30.0475 12.6472 30.0437 15.72L30.0475 24.8313L30.0552 25.7523Z" fill="white"/>
<path d="M61.3336 25.7663C61.3298 26.6506 61.5414 26.9933 61.6094 27.1406C61.6737 27.2733 61.4923 27.2548 61.4923 27.2548H53.813C53.813 27.2548 53.6656 27.2586 53.7109 27.1406C53.7979 26.8975 53.9717 26.4701 53.9755 25.7663L53.9793 25.2358C53.9793 22.9553 53.9755 13.2176 53.9755 12.2928C53.9755 11.777 53.6203 10.8153 53.5523 10.6422C53.5069 10.5501 53.6543 10.5132 53.6543 10.5132C53.6543 10.5132 56.8364 8.929 61.2201 6.9505C61.2655 6.93206 61.3373 6.95787 61.3373 7.03523V8.95846C61.3373 9.21639 61.3638 10.0232 61.3638 10.1301C61.3638 10.2148 61.4544 10.259 61.5187 10.189C61.5565 10.1485 61.6056 10.0932 61.6623 10.0232C63.2987 6.89159 65.8987 6.99104 67.8752 7.27843C68.1284 7.31525 68.0943 7.39632 68.0264 7.72053C67.8979 8.33949 67.0249 11.8433 66.9493 12.1012C66.8888 12.3186 66.8284 12.4144 66.5601 12.3591C64.0772 11.8507 61.3373 12.6391 61.3373 15.6566V16.0913C61.3373 18.2909 61.3373 23.67 61.3411 25.2395L61.3336 25.7663Z" fill="white"/>
<path d="M75.7279 25.7663C75.7241 26.6506 75.9357 26.9933 76.0038 27.1406C76.068 27.2733 75.8866 27.2548 75.8866 27.2548H68.1961C68.1961 27.2548 68.0487 27.2622 68.0902 27.1406C68.1809 26.8975 68.3547 26.4701 68.3586 25.7663L68.3624 25.6632V10.727C68.3624 10.3585 68.3624 10.3548 68.6306 10.2369C68.7705 10.1743 68.7214 10.1964 68.7214 10.1964C68.7214 10.1964 71.2609 8.97319 75.4974 7.02786C75.5427 7.00577 75.7203 7.03523 75.7165 7.11264C75.7165 7.70209 75.7241 24.1121 75.7279 25.6964V25.7663Z" fill="white"/>
<path d="M120.334 23.8535C118.569 24.7304 115.935 25.014 114.363 23.0651C112.799 21.1234 112.028 19.4249 112.031 16.6433C112.035 10.321 116.536 9.49197 119.952 11.3526V8.10298C118.025 7.14873 115.482 6.98294 113.57 7.17825C107.874 7.77141 104.549 12.4247 104.545 17.7191C104.541 23.4887 108.32 30.3932 120.334 27.1841V23.8535Z" fill="white"/>
<path d="M129.773 25.0346C129.773 25.0346 129.747 -0.0482927 129.758 0.0806724C129.758 0.0806724 124.448 2.47181 121.671 3.765C121.947 3.98605 122.529 4.95138 122.529 8.13092V16.1812C122.532 18.4839 122.529 22.8977 122.495 26.3905C122.491 26.7736 122.241 27.3079 122.241 27.3447H130.264C130.185 27.3447 129.773 25.0346 129.773 25.0346Z" fill="white"/>
<path d="M143.344 23.5366C143.389 23.6767 143.314 23.7208 143.182 23.7872C142.267 24.3545 140.699 24.4798 139.777 23.6435C138.907 22.6413 138.454 21.4956 138.82 20.0623C139.111 19.1818 140.037 17.6454 141.583 17.3764L141.088 14.4953C141.092 14.5469 141.088 14.5432 140.933 14.5764C140.464 14.6906 140.215 14.7348 139.402 14.8674C137.691 15.1437 135.756 15.7111 134.146 16.9343C129.554 20.4123 131.708 25.5298 135.438 27.0331C137.615 27.91 141.458 28.4221 144.633 25.8393L143.344 23.5366Z" fill="white"/>
<path d="M143.344 23.5366L141.64 17.4022C141.64 17.4022 141.64 17.358 141.583 17.3764L141.088 14.4953C140.748 9.34828 136.508 9.8236 134.153 10.682C134.153 10.682 134.021 10.8036 134.028 10.6415C134.032 10.4426 134.04 8.45671 134.04 7.92246C134.036 7.7935 134.149 7.76033 134.149 7.76033C137.146 6.47821 141.727 6.65137 144.372 7.94456C146.692 9.07567 147.845 11.1536 148.31 12.9405C148.31 12.9405 150.392 22.2029 150.626 23.205C150.815 24.0082 151.352 24.7083 152.191 24.7045C152.524 24.7045 152.569 24.7672 152.573 25.1025C152.577 25.913 152.58 27.162 152.577 27.3352C152.573 27.5452 152.558 27.6226 152.395 27.6226C152.263 27.6226 149.515 27.6262 149.515 27.6262C148.038 27.6189 146.821 27.6152 144.633 25.8393L143.344 23.5366Z" fill="white"/>
<path d="M158.151 6.83441C160.547 6.83441 162.49 5.30544 162.49 3.41538C162.49 1.52903 160.547 0 158.151 0C155.751 0 153.809 1.52903 153.809 3.41538C153.809 5.30544 155.751 6.83441 158.151 6.83441Z" fill="white"/>
<path d="M161.928 25.7663V26.168C161.928 26.7501 162.196 27.1885 162.261 27.3433C162.264 27.3617 162.242 27.3727 162.242 27.3727H153.939C153.939 27.3727 153.913 27.3617 153.92 27.3433C153.977 27.1996 154.249 26.7427 154.249 26.168V25.7332C154.249 23.3568 154.253 11.6849 154.253 10.2333C154.253 9.87588 154.423 9.86115 154.423 9.86115C154.423 9.86115 157.231 8.46109 161.803 6.40153C161.849 6.37944 161.928 6.40524 161.924 6.48631C161.924 7.10156 161.928 24.1231 161.928 25.7663Z" fill="white"/>
<path d="M178.245 12.211C176.438 12.1852 175.985 12.0747 175.032 12.4026C173.846 12.8447 173.029 13.7658 173.007 15.1695V26.1672C173.007 26.7346 173.267 27.162 173.328 27.3131C173.335 27.3278 173.313 27.3388 173.313 27.3388H165.244C165.244 27.3388 165.222 27.3278 165.225 27.3094C165.282 27.173 165.547 26.7272 165.547 26.1672V11.8241C165.505 11.2973 165.286 10.6599 165.222 10.4941C165.176 10.402 165.324 10.3688 165.324 10.3688C165.324 10.3688 168.441 8.96144 172.886 6.9645C172.927 6.94241 173.007 6.96821 173.003 7.04928V8.79194C173.003 9.04987 173.033 9.87144 173.033 9.98197C173.033 10.063 173.124 10.1072 173.192 10.0372C173.23 9.9967 173.275 9.94144 173.335 9.87144C175.127 6.63664 178.052 7.04557 179.541 7.27399C179.798 7.31086 179.76 7.39188 179.692 7.7198C179.56 8.34613 178.717 11.6878 178.641 11.9494C178.577 12.1705 178.52 12.2184 178.245 12.211Z" fill="white"/>
<path d="M190.498 16.4822C190.623 16.4454 191.129 16.4565 191.088 15.7601C190.978 13.9843 190.525 12.7758 189.992 12.0684C188.987 10.7347 187.146 10.6868 186.198 12.6616C185.646 13.8074 185.536 15.9038 185.612 17.2965C185.635 17.7312 185.71 17.7533 186.115 17.6612L186.443 20.2845C186.303 20.3619 186.122 20.2992 186.33 20.8408C187.641 24.2783 189.527 24.7425 192.04 24.6062C193.344 24.5362 194.803 23.8693 195.317 23.6077C195.831 23.3425 195.751 23.663 195.751 23.8509V26.1757C195.751 26.5478 195.781 26.6805 195.105 26.9237C191.662 28.1468 187.146 28.4379 183.643 26.7542C180.695 25.3431 178.012 21.6071 178.239 17.5396C178.605 11.0552 182.74 7.55142 188.93 7.75038C193.813 7.90515 197.539 11.3905 197.992 16.5191C198.011 16.7328 198.011 17.0607 197.803 17.1749L190.498 16.4822Z" fill="white"/>
<path d="M190.498 16.4822C189.637 16.7328 186.115 17.6612 186.115 17.6612L186.443 20.2845C186.583 20.2108 197.803 17.1749 197.803 17.1749L190.498 16.4822Z" fill="white"/>
</svg>
