<svg width="97" height="29" viewBox="0 0 97 29" fill="none" xmlns="http://www.w3.org/2000/svg">
<path fill-rule="evenodd" clip-rule="evenodd" d="M78.706 11.2515C78.5182 11.5002 77.9372 11.3253 77.7113 11.4268C77.7866 11.0488 78.3687 11.2661 78.706 11.2515Z" fill="white"/>
<path fill-rule="evenodd" clip-rule="evenodd" d="M81.6037 18.8318C80.8944 19.2828 79.8532 19.4059 78.8357 19.5333C77.4766 19.7035 75.8296 19.6308 74.597 19.5333C76.448 18.8581 79.3504 18.9881 81.6037 18.8318Z" fill="white"/>
<path fill-rule="evenodd" clip-rule="evenodd" d="M56.4327 8.4909C55.6921 11.0415 54.7089 13.7258 53.9243 16.3787C55.1782 16.3502 56.6205 16.1556 58.0762 16.0278C59.3506 15.916 61.0579 15.9679 61.9257 15.3705C62.6581 14.8658 62.6736 13.7587 63.2232 13.0043C63.553 14.2228 64.5556 15.8689 63.8291 17.0356C63.2946 17.8937 61.5311 18.4659 60.3688 18.8764C58.9888 19.3635 57.9565 19.7692 56.5628 20.322C55.2639 20.8376 54.1261 21.3233 52.4974 21.5052C50.5523 21.7228 47.8954 21.3277 47.6535 19.4018C47.5674 18.715 47.8507 18.0124 48.1293 17.43C48.9056 15.8079 50.1226 14.5318 51.2398 13.3602C51.2554 13.3439 51.2709 13.3276 51.2865 13.3114C52.0974 12.4609 52.9209 11.6473 53.7517 10.9013C54.6574 10.087 55.5678 9.28548 56.4327 8.4909ZM52.8431 14.099C52.1525 14.7472 51.4494 15.3687 50.6806 16.3338C50.065 17.1072 49.1687 18.0343 49.2966 19.1386C49.3893 19.9375 50.5541 20.2136 51.3726 20.234C52.935 20.2731 54.5128 19.5852 56.0003 19.0509C57.523 18.5039 59.0309 18.0011 60.3684 17.4296C57.6524 17.4187 54.8239 17.8623 51.8051 17.9555C52.0959 16.6438 52.594 15.308 52.8431 14.099Z" fill="black"/>
<path fill-rule="evenodd" clip-rule="evenodd" d="M13.5729 13.8803C14.0548 13.6006 14.2869 13.0338 14.5244 12.5657C14.7702 12.0804 15.0715 11.5502 15.2164 10.9882C15.4427 10.1133 15.3188 9.30082 15.2596 8.53435C14.9216 4.14222 19.3301 3.21618 23.0012 2.57496C25.2076 2.18935 27.7734 2.23208 30.0941 2.48732C30.4029 2.52128 30.7969 2.65566 31.0455 2.61878C31.3717 2.57021 31.9044 2.06812 32.2133 1.87385C32.9157 1.43274 33.7302 0.990171 34.6785 0.822198C35.8527 0.614423 37.2972 0.79189 38.6141 1.04129C42.3624 1.7508 46.342 2.69948 49.297 4.02099C49.3539 4.28755 48.8609 4.74437 48.6915 5.07265C51.5269 3.51634 54.1939 1.89759 57.4707 0.909836C60.474 0.0046072 63.9559 -0.136344 66.9855 0.822198C67.3571 0.939779 67.8372 1.18553 68.1961 1.21657C68.7403 1.26331 69.4013 1.04969 70.0126 0.997474C79.704 0.169659 88.7283 2.9843 97 4.59064C95.2095 7.50899 92.7104 9.70907 89.4314 11.1197C89.7691 11.4567 90.1537 11.5809 90.4261 11.9084C91.1707 12.8038 91.1113 14.3349 90.5991 15.3701C90.096 16.3875 88.9993 16.9703 88.4367 17.6049C90.2081 17.5001 91.9629 17.8273 92.1993 19.4891C92.4412 21.1886 91.5092 22.5539 90.6856 23.4328C88.0813 26.2124 83.5409 27.1239 79.1381 28.0342C76.079 28.6663 73.2973 28.9632 69.6666 28.9982C66.8467 29.0252 62.4584 28.7638 61.2334 26.9387C60.9926 26.5801 60.8614 26.0302 60.8441 25.58C57.434 27.0603 53.6068 28.6217 48.9507 28.7353C44.1612 28.8514 39.7894 27.6796 38.1384 24.3969C37.3541 25.8389 36.6751 27.2896 35.3272 28.0777C33.785 28.98 31.034 29.1041 29.1426 28.7353C27.0454 28.326 25.4336 27.4317 25.2498 25.2294C25.0685 23.0523 25.936 20.9286 26.504 19.1386C27.1236 17.1868 27.812 15.4125 28.4935 13.705C27.5716 14.2538 26.9336 15.3015 26.2449 16.2027C24.2349 18.8318 21.8385 21.4314 19.1088 23.4328C17.3475 24.7237 15.3739 26.0211 13.0968 26.9822C11.0814 27.833 7.77215 29.003 5.26875 27.99C4.39945 27.6384 3.54564 26.6904 3.97128 25.4923C4.2023 24.8416 4.99772 24.4622 5.05251 23.7396C5.09395 23.1885 4.5555 22.4604 4.23077 21.8992C3.29263 20.2786 2.23159 18.4068 1.54933 16.7285C0.60326 14.4021 -0.553652 11.1157 0.295471 8.31526C1.07395 5.74673 3.26884 4.20758 5.44211 2.96933C7.15765 1.9918 8.84689 1.27171 10.8482 0.559283C11.9724 0.159069 13.9319 -0.510632 14.7839 0.646922C15.9851 2.27955 14.9454 5.44913 14.524 7.17596C13.9697 9.44834 13.5578 11.575 13.5729 13.8803ZM38.9165 2.48769C37.534 2.21272 35.9886 1.95492 34.6781 2.26859C34.0578 2.41721 33.4527 2.74074 32.9914 3.05733C32.6234 3.31002 31.9941 3.99214 31.5209 4.06517C30.9655 4.15099 30.1798 3.90852 29.4882 3.84608C25.8452 3.51707 22.4876 3.75953 19.6274 4.8101C18.6302 5.17635 17.3734 5.6821 16.9027 6.6505C16.3495 7.78906 17.0365 9.36655 16.8595 10.8133C16.7824 11.4428 16.4627 12.1184 16.1675 12.6975C15.5411 13.9263 14.9418 14.7183 14.1344 15.8087C14.1318 15.8123 14.1291 15.8159 14.1263 15.8196C13.8342 16.2144 13.2149 17.0511 12.664 16.948C12.2791 16.8757 12.1021 16.1881 12.0585 15.4143C11.8664 12.0092 12.6957 9.15658 13.2695 6.29994C13.5081 5.11099 13.8414 3.66459 13.7448 2.53151C13.6746 1.70077 13.3055 1.36263 12.6207 1.39221C11.4862 1.44114 10.0809 2.24668 8.98781 2.70678C7.79882 3.20705 6.80157 3.74201 5.83027 4.37191C3.89343 5.62878 2.05571 7.24023 1.72197 9.98075C1.36697 12.8922 2.52388 15.4731 3.53843 17.5176C4.04228 18.5331 4.51874 19.5581 5.31164 20.585C5.92181 21.3759 7.1627 22.624 6.99835 23.7838C6.87798 24.6338 5.18946 25.4952 5.48464 26.3691C5.63457 26.8131 6.62929 26.9311 7.5177 26.9391C10.0873 26.9619 12.056 25.9591 13.61 25.1675C13.6264 25.1591 13.6428 25.1508 13.6591 25.1425C16.1181 23.8893 18.0189 22.4794 19.9298 20.8479C21.8638 19.1974 23.6345 17.4647 25.2066 15.5454C26.7898 13.613 28.1151 11.4637 29.7477 9.45492C30.9154 12.6585 29.7225 15.2496 28.753 17.5614C28.243 18.7778 27.8303 19.8974 27.4119 21.2422C27.0367 22.4487 26.4983 24.2479 26.8497 25.5803C27.3059 27.3094 29.8587 27.6259 31.8666 27.4645C33.3695 27.344 34.5044 26.9227 35.2832 26.15C36.9173 24.5294 37.7791 22.2435 38.7864 20.1026C38.5741 23.0772 39.7703 24.8274 41.6841 25.8867C43.5881 26.9409 46.0742 27.4204 48.8634 27.4204C54.4609 27.4204 58.6857 25.2754 62.1409 23.3452C61.9528 24.3026 61.9012 25.3561 62.2706 26.062C63.0149 27.4843 64.9997 27.5898 67.1578 27.7709C68.6553 27.8969 69.8111 27.9279 70.8772 27.9024C73.6257 27.837 76.1558 27.5003 78.7485 26.9818C82.238 26.2844 85.9754 25.2312 88.6093 23.4763C89.4981 22.8844 90.4748 22.1106 90.6853 21.0662C91.2814 18.1055 87.8085 18.9823 85.9279 19.4007C84.4898 19.721 83.0533 20.1632 81.8196 20.4524C79.0949 21.0907 75.5167 21.9203 73.0833 20.803C72.7117 20.6324 72.1732 20.3549 72.1747 19.7951C72.1761 19.4186 72.5661 18.991 72.8234 18.7873C73.7176 18.0796 75.1992 17.8963 76.7591 17.7794C80.6299 17.4895 86.3485 18.1252 88.6526 15.6758C89.2166 15.0762 89.7857 13.6039 89.1283 12.5208C88.5971 11.6451 87.2365 11.4553 86.0144 11.513C82.6597 11.6718 79.8301 13.0831 76.8888 13.0028C76.3493 12.9878 75.3218 12.9966 75.1589 12.6084C74.9567 12.1268 75.4594 11.4107 75.7215 11.0748C76.0552 10.6464 76.4877 10.1666 76.8888 10.0231C77.5541 9.78539 78.5921 9.92415 79.527 10.0231C82.3479 10.3203 85.1973 10.5781 87.5281 10.1546C90.4957 9.61522 92.5028 8.014 94.1448 6.21085C94.3701 5.964 94.675 5.71898 94.7503 5.37828C87.7231 4.09439 79.7101 2.01627 72.0017 2.13567C70.6429 2.15649 69.4204 2.3482 68.412 2.8806C67.5744 3.32281 66.3847 4.33722 66.5523 5.50974C66.6518 6.20646 67.551 6.71805 68.1958 6.95577C69.0182 7.25958 69.8724 7.37534 70.5748 7.70069C68.7587 8.03518 66.5638 8.56503 64.7362 8.88381C65.0926 7.96653 65.5648 7.07445 65.9904 5.94793C66.277 5.18877 66.9487 3.54555 66.7253 2.57386C66.5094 1.63541 64.7376 1.45137 63.5249 1.43457C62.3845 1.41887 60.8838 1.60619 59.8487 1.82894C52.8953 3.32609 47.6056 7.18107 43.0681 10.9871C43.9316 8.94223 45.1779 7.00616 46.3117 5.29065C46.4764 5.04124 46.7406 4.7367 46.701 4.54572C44.1179 3.61676 41.5547 3.01242 38.9165 2.48769ZM78.706 11.2515C78.5182 11.5002 77.9372 11.3253 77.7113 11.4268C77.7866 11.0488 78.3687 11.2661 78.706 11.2515ZM74.597 19.5333C75.8296 19.6308 77.4766 19.7035 78.8357 19.5333C79.8532 19.4059 80.8944 19.2828 81.6037 18.8318C79.3504 18.9881 76.448 18.8581 74.597 19.5333Z" fill="black"/>
<path fill-rule="evenodd" clip-rule="evenodd" d="M38.9165 2.48769C37.534 2.21272 35.9886 1.95492 34.6781 2.26859C34.0578 2.41721 33.4527 2.74074 32.9914 3.05733C32.6234 3.31002 31.9941 3.99214 31.5209 4.06517C30.9655 4.15099 30.1798 3.90852 29.4882 3.84608C25.8452 3.51707 22.4876 3.75953 19.6274 4.8101C18.6302 5.17635 17.3734 5.6821 16.9027 6.6505C16.3495 7.78906 17.0365 9.36655 16.8595 10.8133C16.7824 11.4428 16.4627 12.1184 16.1675 12.6975C15.5411 13.9263 14.9418 14.7183 14.1344 15.8087L14.1263 15.8196C13.8342 16.2144 13.2149 17.0511 12.664 16.948C12.2791 16.8757 12.1021 16.1881 12.0585 15.4143C11.8664 12.0092 12.6957 9.15658 13.2695 6.29994C13.5081 5.11099 13.8414 3.66459 13.7448 2.53151C13.6746 1.70077 13.3055 1.36263 12.6207 1.39221C11.4862 1.44114 10.0809 2.24668 8.98781 2.70678C7.79882 3.20705 6.80157 3.74201 5.83027 4.37191C3.89343 5.62878 2.05571 7.24023 1.72197 9.98075C1.36697 12.8922 2.52388 15.4731 3.53843 17.5176C4.04228 18.5331 4.51874 19.5581 5.31164 20.585C5.92181 21.3759 7.1627 22.624 6.99835 23.7838C6.87798 24.6338 5.18946 25.4952 5.48464 26.3691C5.63457 26.8131 6.62929 26.9311 7.5177 26.9391C10.0873 26.9619 12.056 25.9591 13.61 25.1675L13.6591 25.1425C16.1181 23.8893 18.0189 22.4794 19.9298 20.8479C21.8638 19.1974 23.6345 17.4647 25.2066 15.5454C26.7898 13.613 28.1151 11.4637 29.7477 9.45492C30.9154 12.6585 29.7225 15.2496 28.753 17.5614C28.243 18.7778 27.8303 19.8974 27.4119 21.2422C27.0367 22.4487 26.4983 24.2479 26.8497 25.5803C27.3059 27.3094 29.8587 27.6259 31.8666 27.4645C33.3695 27.344 34.5044 26.9227 35.2832 26.15C36.9173 24.5294 37.7791 22.2435 38.7864 20.1026C38.5741 23.0772 39.7703 24.8274 41.6841 25.8867C43.5881 26.9409 46.0742 27.4204 48.8634 27.4204C54.4609 27.4204 58.6857 25.2754 62.1409 23.3452C61.9528 24.3026 61.9012 25.3561 62.2706 26.062C63.0149 27.4843 64.9997 27.5898 67.1578 27.7709C68.6553 27.8969 69.8111 27.9279 70.8772 27.9024C73.6257 27.837 76.1558 27.5003 78.7485 26.9818C82.238 26.2844 85.9754 25.2312 88.6093 23.4763C89.4981 22.8844 90.4748 22.1106 90.6853 21.0662C91.2814 18.1055 87.8085 18.9823 85.9279 19.4007C84.4898 19.721 83.0533 20.1632 81.8196 20.4524C79.0949 21.0907 75.5167 21.9203 73.0833 20.803C72.7117 20.6324 72.1732 20.3549 72.1747 19.7951C72.1761 19.4186 72.5661 18.991 72.8234 18.7873C73.7176 18.0796 75.1992 17.8963 76.7591 17.7794C80.6299 17.4895 86.3485 18.1252 88.6526 15.6758C89.2166 15.0762 89.7857 13.6039 89.1283 12.5208C88.5971 11.6451 87.2365 11.4553 86.0144 11.513C82.6597 11.6718 79.8301 13.0831 76.8888 13.0028C76.3493 12.9878 75.3218 12.9966 75.1589 12.6084C74.9567 12.1268 75.4594 11.4107 75.7215 11.0748C76.0552 10.6464 76.4877 10.1666 76.8888 10.0231C77.5541 9.78539 78.5921 9.92415 79.527 10.0231C82.3479 10.3203 85.1973 10.5781 87.5281 10.1546C90.4957 9.61522 92.5028 8.014 94.1448 6.21085C94.3701 5.964 94.675 5.71898 94.7503 5.37828C87.7231 4.09439 79.7101 2.01627 72.0017 2.13567C70.6429 2.15649 69.4204 2.3482 68.412 2.8806C67.5744 3.32281 66.3847 4.33722 66.5523 5.50974C66.6518 6.20646 67.551 6.71805 68.1958 6.95577C69.0182 7.25958 69.8724 7.37534 70.5748 7.70069C68.7587 8.03518 66.5638 8.56503 64.7362 8.88381C65.0926 7.96653 65.5648 7.07445 65.9904 5.94793C66.277 5.18877 66.9487 3.54555 66.7253 2.57386C66.5094 1.63541 64.7376 1.45137 63.5249 1.43457C62.3845 1.41887 60.8838 1.60619 59.8487 1.82894C52.8953 3.32609 47.6056 7.18107 43.0681 10.9871C43.9316 8.94223 45.1779 7.00616 46.3117 5.29065C46.4764 5.04124 46.7406 4.7367 46.701 4.54572C44.1179 3.61676 41.5547 3.01242 38.9165 2.48769ZM53.9243 16.3787C54.7089 13.7258 55.6921 11.0415 56.4327 8.4909C55.5678 9.28548 54.6574 10.087 53.7517 10.9013C52.9209 11.6473 52.0974 12.4609 51.2865 13.3114L51.2398 13.3602C50.1226 14.5318 48.9056 15.8079 48.1293 17.43C47.8507 18.0124 47.5674 18.715 47.6535 19.4018C47.8954 21.3277 50.5523 21.7228 52.4974 21.5052C54.1261 21.3233 55.2639 20.8376 56.5628 20.322C57.9565 19.7692 58.9888 19.3635 60.3688 18.8764C61.5311 18.4659 63.2946 17.8937 63.8291 17.0356C64.5556 15.8689 63.553 14.2228 63.2232 13.0043C62.6736 13.7587 62.6581 14.8658 61.9257 15.3705C61.0579 15.9679 59.3506 15.916 58.0762 16.0278C56.6205 16.1556 55.1782 16.3502 53.9243 16.3787Z" fill="white"/>
</svg>
