<svg width="288" height="39" viewBox="0 0 288 39" fill="none" xmlns="http://www.w3.org/2000/svg">
<path d="M21.5578 4.52402C21.5578 1.40402 18.5897 0.624023 16.2465 0.624023V1.09202C17.6524 1.09202 18.7459 1.56002 18.7459 2.65202C18.7459 3.27602 18.2773 4.21202 16.8714 4.21202C15.7778 4.21202 13.4346 3.58802 11.7162 2.96402C9.68541 2.18402 7.81081 1.56002 6.24865 1.56002C3.12432 1.56002 0.937297 3.90002 0.937297 6.55202C0.937297 8.89202 2.65568 9.67202 3.28054 9.98402L3.43676 9.67202C3.12432 9.36002 2.65568 9.04802 2.65568 8.11202C2.65568 7.48802 3.28054 6.39602 4.8427 6.39602C6.24865 6.39602 8.12324 7.02002 10.6227 7.80002C12.8097 8.42402 15.153 8.89202 16.4027 9.04802V13.884L14.0595 15.912V16.068L16.4027 18.096V24.804C15.153 25.584 13.747 25.74 12.4973 25.74C10.1541 25.74 8.12324 25.116 6.40486 23.244L12.8097 20.124V9.36002L4.99892 12.792C5.62378 10.764 7.34216 9.36002 9.06054 8.42402L8.90432 7.95602C4.21784 9.20402 0 13.572 0 18.876C0 25.116 5.15514 29.796 10.9351 29.796C17.1838 29.796 21.2454 24.804 21.2454 19.656H20.933C19.9957 21.684 18.5897 23.556 16.8714 24.492V18.096L19.3708 16.068V15.912L16.8714 13.884V9.04802C19.2146 9.04802 21.5578 7.48802 21.5578 4.52402ZM7.96703 21.684L6.09243 22.62C4.99892 21.216 4.37405 19.344 4.37405 16.692C4.37405 15.6 4.37405 14.352 4.68649 13.416L7.96703 12.012V21.684ZM24.5259 25.272L22.4951 26.832L22.8076 27.144L23.7449 26.364L27.1816 29.484L31.8681 26.364L31.7119 26.052L30.4622 26.832L28.9 25.272V14.664L30.1497 13.728L32.8054 15.912V25.428C32.8054 31.356 31.5557 32.292 28.9 33.228V33.696C33.2741 33.852 37.3357 32.448 37.3357 24.804V14.508L38.7416 13.416L38.4292 13.104L37.1795 14.04L33.2741 10.764L28.9 14.04V1.24802H28.5876L23.12 4.99202V5.30402C23.7449 5.61602 24.6822 5.92802 24.6822 7.64402L24.5259 25.272ZM53.1135 23.556L49.2081 26.52L45.3027 23.4V21.528L52.6449 16.536V16.38L48.8957 10.764L40.7724 15.132V25.428L39.2103 26.676L39.5227 26.988L40.9286 25.896L46.24 29.796L53.2697 24.18L53.1135 23.556ZM45.3027 20.904V13.26L45.6151 13.104L49.0519 18.564L45.3027 20.904ZM82.9508 3.12002C82.9508 2.65202 82.7946 2.18402 82.6384 1.71602H82.326C81.8573 2.96402 81.2324 3.58802 79.6703 3.58802C78.2643 3.58802 77.327 2.80802 76.7022 2.18402L72.1719 7.33202L72.4843 7.64402L74.0465 6.24002C74.9838 7.02002 75.7649 7.64402 77.9519 7.80002V20.748L68.7351 4.99202C67.9541 3.74402 66.8605 2.02802 64.6735 2.02802C62.1741 2.02802 59.987 4.21202 60.2995 7.64402H60.7681C60.9243 6.70802 61.393 5.61602 62.4865 5.61602C63.2676 5.61602 64.0486 6.39602 64.5173 7.17602V12.324C61.7054 12.324 59.8308 13.572 59.8308 15.912C59.8308 17.16 60.4557 19.032 62.3303 19.5V19.188C62.0178 18.876 61.8616 18.564 61.8616 18.096C61.8616 17.316 62.4865 16.692 63.58 16.692H64.3611V23.244C61.0805 23.244 58.4249 25.116 58.4249 28.236C58.4249 31.2 60.9243 32.604 63.7362 32.448V32.136C62.0178 31.98 61.2368 31.2 61.2368 30.108C61.2368 28.704 62.1741 28.08 63.4238 28.08C64.6735 28.08 65.767 28.86 66.5481 29.796L71.0784 24.804L70.7659 24.492L69.6724 25.74C67.954 24.18 67.0168 23.712 64.9859 23.4V7.80002L77.4832 29.64H78.4205V7.80002C80.7638 7.64402 82.9508 5.77202 82.9508 3.12002ZM94.3546 23.556L90.4492 26.52L86.5438 23.4V21.528L93.8859 16.536V16.38L90.1368 10.764L82.0135 15.132V25.428L80.4514 26.676L80.7638 26.988L82.1697 25.896L87.4811 29.796L94.5108 24.18L94.3546 23.556ZM86.5438 20.904V13.26L86.8562 13.104L90.293 18.564L86.5438 20.904ZM119.818 12.48L118.724 13.26L115.756 10.764L112.319 13.884L113.725 15.288V26.988L109.976 24.648V14.976L111.226 14.196L107.633 10.764L104.196 13.884L105.602 15.288V26.52L105.134 26.832L101.853 24.492V15.132C101.853 12.948 100.759 12.324 99.5097 11.544C98.4162 10.764 97.7914 10.296 97.7914 9.20402C97.7914 8.26802 98.7286 7.80002 99.1973 7.48802V7.17602C97.9476 7.17602 94.667 8.42402 94.667 11.388C94.667 12.948 95.4481 13.572 96.2292 14.352C97.0103 15.132 97.7914 15.756 97.7914 17.16V26.208L96.073 27.456L96.3854 27.768L97.9476 26.52L101.541 29.64L105.446 26.988L109.82 29.64L118.099 24.804V14.352L120.13 12.792L119.818 12.48ZM148.874 3.90002L147.312 5.30402L143.875 2.18402L138.72 5.92802V2.49602H138.251L138.408 27.768C137.939 27.768 136.533 27.456 135.439 27.144L135.127 6.08402C135.127 4.52402 134.034 2.34002 131.222 2.34002C128.41 2.34002 126.535 4.52402 126.535 6.70802H127.004C127.16 5.77202 127.629 4.99202 128.566 4.99202C129.503 4.99202 130.284 5.61602 130.284 7.64402V13.728C127.472 13.884 125.754 15.444 125.754 17.472C125.754 18.72 126.379 20.592 128.254 20.592V20.28C127.629 19.968 127.472 19.5 127.472 19.188C127.472 18.252 128.254 17.94 129.503 17.94H130.128V27.612C127.785 28.392 126.848 30.108 126.848 31.98C126.848 34.632 128.878 36.504 132.003 36.504C134.19 36.504 136.064 36.192 137.939 35.724C139.501 35.412 141.532 34.944 142.469 34.944C143.719 34.944 144.188 35.568 144.188 36.348C144.188 37.44 143.719 37.908 143.094 38.064V38.376C145.594 37.908 147.156 36.348 147.156 34.008C147.156 31.668 144.812 30.264 142.313 30.264C141.063 30.264 138.408 30.732 136.533 31.044C134.346 31.512 132.159 31.824 131.534 31.824C130.441 31.824 129.191 31.356 129.191 29.796C129.191 28.548 130.284 27.456 132.94 27.456C134.346 27.456 136.064 27.612 137.783 28.08C139.657 28.548 141.376 29.016 142.938 29.016C145.281 29.016 147.312 28.236 147.312 24.96V5.77202L149.186 4.21202L148.874 3.90002ZM142.469 13.416C142.001 13.884 141.376 14.352 140.595 14.352C139.814 14.352 139.032 13.884 138.72 13.416V6.55202L140.282 5.46002L142.469 7.48802V13.416ZM142.469 18.096C142.157 17.784 141.376 17.316 140.595 17.316C139.814 17.316 139.032 17.784 138.72 18.096V14.04C139.032 14.352 139.814 14.82 140.595 14.82C141.376 14.82 142.157 14.352 142.469 14.04V18.096ZM142.469 25.428C142.469 26.676 141.688 27.924 139.97 27.924H138.72V18.72C139.032 18.408 139.814 17.94 140.595 17.94C141.376 17.94 142.001 18.408 142.469 18.72V25.428ZM163.871 14.352L158.872 10.764L151.217 15.132V25.272L149.655 26.52L149.811 26.832L151.061 25.896L156.06 29.64L163.871 24.96V14.352ZM155.435 24.18V12.948L159.341 15.756V26.832L155.435 24.18ZM178.711 11.076H178.399C177.93 11.388 177.462 11.7 176.993 11.7C176.368 11.7 175.587 11.388 175.275 10.92H174.962L172.306 13.884L169.651 10.92L164.964 14.04L165.121 14.352L166.37 13.572L167.932 15.288V25.116L165.902 26.676L166.214 26.988L167.151 26.208L170.901 29.328L175.743 26.052L175.587 25.74L174.181 26.52L172.306 24.96V14.04C173.088 14.82 174.025 15.6 175.118 15.6C177.305 15.756 178.555 13.572 178.711 11.076ZM197.457 26.052L192.146 29.64L184.96 18.72L190.115 10.764H190.428C191.052 11.388 191.99 12.012 193.083 12.012C194.177 12.012 194.958 11.388 195.426 10.764H195.739C195.583 13.884 193.396 15.756 191.834 15.756C190.271 15.756 189.49 14.976 188.553 14.508L188.084 15.288L195.895 26.832L197.457 25.896V26.052ZM180.274 25.272L178.243 26.832L178.555 27.144L179.492 26.364L182.929 29.484L187.616 26.364L187.303 26.052L186.054 26.832L184.491 25.272V1.24802H184.335L178.711 4.99202V5.30402C179.336 5.61602 180.274 5.77202 180.274 7.64402V25.272ZM223.389 4.52402C223.389 1.40402 220.421 0.624023 218.078 0.624023V1.09202C219.484 1.09202 220.577 1.56002 220.577 2.65202C220.577 3.27602 220.109 4.21202 218.703 4.21202C217.609 4.21202 215.266 3.58802 213.548 2.96402C211.517 2.34002 209.642 1.71602 208.08 1.71602C204.956 1.71602 202.769 4.05602 202.769 6.70802C202.769 9.04802 204.487 9.82802 205.112 10.14L205.268 9.82802C204.799 9.51602 204.331 9.20402 204.331 8.26802C204.331 7.64402 204.956 6.55202 206.518 6.55202C207.924 6.55202 209.798 7.17602 212.298 7.95602C214.485 8.58002 216.828 9.04802 218.078 9.20402V14.04L215.735 16.068V16.224L218.078 18.252V24.96C216.828 25.74 215.422 25.896 214.172 25.896C211.829 25.896 209.798 25.272 208.08 23.4L214.485 20.28V9.36002L206.674 12.792C207.455 10.764 209.174 9.36002 210.736 8.26802L210.579 7.95602C205.893 9.20402 201.675 13.416 201.675 18.72C201.675 24.96 206.83 29.64 212.61 29.64C218.859 29.64 222.921 24.648 222.921 19.5H222.608C221.671 21.528 220.265 23.4 218.546 24.336V17.94L221.046 15.912V15.756L218.703 13.728V9.04802C221.046 9.04802 223.389 7.48802 223.389 4.52402ZM209.798 21.684L207.924 22.62C206.83 21.216 206.205 19.344 206.205 16.692C206.205 15.6 206.362 14.352 206.674 13.416L209.955 12.012L209.798 21.684ZM228.857 2.96402H228.701L225.576 5.61602V5.77202L228.232 8.73602H228.544L231.669 6.08402V5.92802L228.857 2.96402ZM233.543 26.052L232.294 26.832L230.731 25.272V14.508L232.294 13.416L231.981 13.104L230.888 14.04L228.076 10.764L223.545 13.884L223.858 14.352L224.951 13.572L226.357 15.288V25.428L224.326 26.988L224.483 27.3L225.576 26.52L229.013 29.64L233.699 26.52L233.543 26.052ZM259.631 25.896L258.538 26.676L256.819 25.116V14.508L258.382 13.26L258.069 12.948L256.819 14.04L253.227 10.764L248.54 14.04L244.947 10.764L240.573 14.04L237.761 10.764L233.231 13.884L233.387 14.352L234.481 13.572L236.043 15.288V25.428L234.793 26.676L238.386 29.64L241.823 26.52L240.417 25.116V14.508L241.823 13.572L244.166 15.756V25.116L242.916 26.364L246.509 29.328L249.946 26.208L248.54 24.804V14.508L249.79 13.728L252.289 15.912V25.272L251.196 26.364L254.789 29.64L259.631 26.364V25.896ZM273.222 23.556L269.317 26.52L265.411 23.4V21.528L272.754 16.536V16.38L269.004 10.764L260.881 15.132V25.74L266.349 29.64L273.378 24.024L273.222 23.556ZM265.411 20.904V13.26L265.724 13.104L269.161 18.564L265.411 20.904ZM287.438 19.5L284.47 17.16C286.501 15.444 287.282 13.104 287.282 11.544V10.608H286.969C286.657 11.388 286.032 12.168 284.782 12.168C283.532 12.168 282.751 11.544 281.97 10.608L274.941 14.508V20.124L277.596 22.152C274.941 24.492 274.472 26.052 274.472 27.3C274.472 28.86 275.253 29.952 276.503 30.42L276.659 30.108C276.346 29.796 276.034 29.64 276.034 28.86C276.034 28.392 276.659 27.612 277.909 27.612C279.471 27.612 280.408 28.704 280.877 29.172L287.594 25.116V19.5H287.438ZM285.719 14.82C284.626 16.692 282.283 18.564 280.877 19.5L279.158 18.096V12.636C279.783 14.196 281.502 15.444 283.22 15.444C284.314 15.444 284.938 15.288 285.719 14.82ZM283.064 27.3C282.283 25.584 280.408 24.336 278.534 24.336C278.065 24.336 276.815 24.336 275.565 25.116C276.346 23.868 278.377 21.684 281.033 20.124L282.908 21.684L283.064 27.3Z" fill="white"/>
</svg>
