<svg width="103" height="30" viewBox="0 0 103 30" fill="none" xmlns="http://www.w3.org/2000/svg">
<path d="M55.8072 18.7433C55.8072 21.8947 51.8374 21.7077 51.8374 21.7077H47.8678V16.0132H51.8374C55.9227 15.9861 55.8072 18.7433 55.8072 18.7433ZM47.8678 7.32866H50.8927C54.0338 7.49258 53.9152 9.80292 53.9152 9.80292C53.9152 12.674 50.442 12.7208 50.442 12.7208H47.8678V7.32866ZM55.0729 13.8406C55.0729 13.8406 57.79 12.6968 57.7658 9.6629C57.7658 9.6629 58.179 4.69078 51.5107 4.08432H44.1114V24.9286H52.5928C52.5928 24.9286 59.6794 24.9495 59.6794 19.0473C59.6793 19.0473 59.8469 15.0308 55.0729 13.8406ZM35.9236 0H67.0763V29.0013H35.9236V0ZM19.8832 18.7433C19.8832 21.8947 15.9135 21.7077 15.9135 21.7077H11.9436V16.0132H15.9135C19.9991 15.9861 19.8832 18.7433 19.8832 18.7433ZM11.9436 7.32866H14.9691C18.1103 7.49258 17.9914 9.80292 17.9914 9.80292C17.9914 12.674 14.5184 12.7208 14.5184 12.7208H11.9436V7.32866ZM19.1492 13.8406C19.1492 13.8406 21.8668 12.6968 21.8424 9.6629C21.8424 9.6629 22.2553 4.69078 15.587 4.08432H8.18737V24.9286H16.6693C16.6693 24.9286 23.7558 24.9495 23.7558 19.0473C23.7558 19.0473 23.9228 15.0308 19.1492 13.8406ZM0 0H31.1527V29.0013H0V0ZM96.645 5.57868V9.42968C96.645 9.42968 92.84 7.11965 88.6353 7.07315C88.6353 7.07315 80.7907 6.92103 80.4371 14.5017C80.4371 14.5017 80.1538 21.4732 88.5408 21.8705C88.5408 21.8705 92.0598 22.2892 96.8337 19.2817V23.27C96.8337 23.27 90.4299 27.0287 83.0114 24.1337C83.0114 24.1337 76.7753 21.884 76.5378 14.5017C76.5378 14.5017 76.2784 6.90892 84.5954 4.38846C84.5954 4.38846 86.8164 3.54848 90.8077 3.92182C90.8078 3.92172 93.1933 4.15484 96.645 5.57868ZM71.8473 29.0013H103V0H71.8473V29.0013Z" fill="white"/>
</svg>
