<svg width="24" height="24" viewBox="0 0 24 24" fill="none" xmlns="http://www.w3.org/2000/svg">
<path fill-rule="evenodd" clip-rule="evenodd" d="M22 20.558C22 21.3527 21.3571 22 20.5714 22H3.42411C2.63839 22 2 21.3527 2 20.558V3.44196C2 2.64732 2.63839 2 3.42411 2H20.5714C21.3571 2 22 2.64732 22 3.44196V20.558ZM4.84375 6.57589C4.84375 7.52232 5.61161 8.29464 6.5625 8.29464C7.51339 8.29464 8.28125 7.52678 8.28125 6.57589C8.28125 5.62946 7.50893 4.85714 6.5625 4.85714C5.61161 4.85714 4.84375 5.62946 4.84375 6.57589ZM12.8705 19.1429H9.90625V9.59821H12.75V10.9018H12.7902C13.1875 10.1518 14.1562 9.36161 15.5982 9.36161C18.5982 9.36161 19.1562 11.3393 19.1562 13.9107V19.1429H16.192V14.5C16.192 13.3929 16.1696 11.9688 14.6518 11.9688C13.1071 11.9688 12.8705 13.1741 12.8705 14.4196V19.1429ZM5.08036 19.1429H8.04911V9.59821H5.08036V19.1429Z" fill="#373737"/>
</svg>
