<svg width="88" height="88" viewBox="0 0 88 88" fill="none" xmlns="http://www.w3.org/2000/svg">
<circle cx="44" cy="44" r="44" fill="#F8F8F8"/>
<path fill-rule="evenodd" clip-rule="evenodd" d="M55.4213 64C60.1573 64 63.9916 60.5039 63.9916 56.1875C63.9917 56.0987 63.9941 55.9738 63.9956 55.8153L63.9959 55.4034C63.9687 52.192 63.1365 41.4154 49.4617 33.0547L53.7875 26.7164C54.0805 26.1305 54.0512 25.4469 53.7797 24.8898C53.368 24.3418 52.7664 24 52.118 24H35.8055C35.2195 24 34.5555 24.332 34.282 24.8891C33.9402 25.4457 33.9012 26.1289 34.1942 26.7156L38.4617 33.0547C24.9927 41.322 24.0415 51.8302 24.002 55.2354L24.0027 55.811C24.0046 55.9705 24.0073 56.0969 24.0073 56.1875C24.0073 60.5039 27.8463 64 32.5698 64H55.4213ZM45.559 32.125H42.3676L39.4457 27.75H48.5473L45.559 32.125ZM55.4188 60.25H32.5711C29.9852 60.25 27.7571 58.4234 27.7571 56.1875C27.6887 49.8594 30.3055 42.4766 41.1086 35.875H46.8993C57.6415 42.4453 60.2977 49.8516 60.243 56.1875C60.243 58.4234 58.0751 60.25 55.4188 60.25Z" fill="#00AFA3"/>
</svg>
