<svg width="88" height="88" viewBox="0 0 88 88" fill="none" xmlns="http://www.w3.org/2000/svg">
<circle cx="44" cy="44" r="44" fill="#F8F8F8"/>
<path fill-rule="evenodd" clip-rule="evenodd" d="M57.7508 52.7258C58.2414 52.7258 64.0008 51.0664 64.0008 47.1242V30.8742C64 26.3617 56.4531 24 49 24C40.0781 24 34.5547 27.1125 34.5547 29.3445C34.5547 30.1391 35.1789 31.2219 36.4281 31.2219C38.25 31.2219 38.8203 27.75 49 27.75C56.3828 27.75 60.25 30.0719 60.25 30.875C60.25 31.0215 59.7105 31.9531 57.1445 32.8266C56.3657 33.0927 55.8742 33.8219 55.8742 34.6016C55.8742 35.6328 56.7125 36.4758 57.75 36.4758C58.4192 36.4758 59.893 35.7588 60.25 35.5805V39C60.25 39.1502 59.6983 40.0953 57.0812 40.9742C56.2961 41.2373 55.8016 41.968 55.8016 42.7508C55.8016 43.7883 56.6445 44.6266 57.6773 44.6266C58.3847 44.6266 60.0008 43.8281 60.2508 43.7031V47.125C60.2508 47.2715 59.7113 48.2031 57.1453 49.0766C56.3665 49.3427 55.875 50.0719 55.875 50.8516C55.875 51.8828 56.7133 52.7258 57.7508 52.7258ZM39 64C46.4539 64 54 61.6383 54 57.125V40.875C54 36.3594 46.5 34.1094 39 34.1094C31.5 34.1094 24 36.3656 24 40.8789V57.1289C24 61.6406 31.5461 64 39 64ZM39 44C31.6172 44 27.75 41.6797 27.75 40.875C27.75 40.0703 31.6172 37.75 39 37.75C46.3828 37.75 50.25 40.0719 50.25 40.875C50.25 41.6781 46.3828 44 39 44ZM39 52.125C31.6172 52.125 27.75 49.8047 27.75 49V45.5703C30.6398 47.0078 34.8359 47.75 39 47.75C43.1641 47.75 47.3594 47.0104 50.25 45.5711V49C50.25 49.8031 46.3828 52.125 39 52.125ZM39 60.25C31.6172 60.25 27.75 57.9281 27.75 57.125V53.6961C30.6398 55.1328 34.8359 55.875 39 55.875C43.1641 55.875 47.3594 55.1354 50.25 53.6961V57.125C50.25 57.9281 46.3828 60.25 39 60.25Z" fill="#00AFA3"/>
</svg>
