<svg width="88" height="88" viewBox="0 0 88 88" fill="none" xmlns="http://www.w3.org/2000/svg">
<circle cx="44" cy="44" r="44" fill="#F8F8F8"/>
<path fill-rule="evenodd" clip-rule="evenodd" d="M48.2 47.6429C49.1937 47.6429 50 46.827 50 45.8214V31.25C50 28.9072 48.1175 27 45.8 27H24.2C21.884 27 20 28.9072 20 31.25V45.8214C20 46.8308 20.8063 47.6429 21.8 47.6429C22.7937 47.6429 23.6 46.827 23.6 45.8214V31.25C23.6 30.9156 23.8696 30.6429 24.2 30.6429H45.8C46.13 30.6429 46.4 30.9153 46.4 31.25V45.8214C46.4 46.827 47.2063 47.6429 48.2 47.6429ZM34.9996 45.8214C35.9934 45.8214 36.7996 45.0093 36.7996 44V34.2857C36.7996 33.2801 35.9934 32.4643 34.9996 32.4643C34.0059 32.4643 33.1996 33.2839 33.1996 34.2857V44C33.1996 45.0056 34.0059 45.8214 34.9996 45.8214ZM41.6004 45.8214C42.5941 45.8214 43.4004 45.0093 43.4004 44V34.2857C43.4004 33.2801 42.5941 32.4643 41.6004 32.4643C40.6066 32.4643 39.8004 33.2839 39.8004 34.2857V44C39.8004 45.0056 40.6066 45.8214 41.6004 45.8214ZM28.3998 45.8214C29.3936 45.8214 30.1998 45.0093 30.1998 44V34.2857C30.1998 33.2801 29.3936 32.4643 28.3998 32.4643C27.4061 32.4643 26.5998 33.2839 26.5998 34.2857V44C26.5998 45.0056 27.4061 45.8214 28.3998 45.8214ZM65.6006 54.9291C65.6006 54.5132 65.5595 54.1072 65.4807 53.7831L65.6 53.7143C66.9252 53.7143 68 52.6268 68 51.2857V42.5808C68 41.45 67.5575 40.3723 66.77 39.5755L62.7725 35.5304C61.985 34.7335 60.92 34.2857 59.81 34.2857H54.8C53.4747 34.2857 52.4 35.3733 52.4 36.7143V50.0715H39.2V50.0989C38.195 49.3277 36.9575 48.8572 35.6 48.8572C33.6282 48.8572 31.8935 49.8324 30.8 51.3191C29.705 49.8362 27.9725 48.8572 26 48.8572C22.6865 48.8572 20 51.5741 20 54.9286C20 58.2831 22.6865 61 26 61V60.9535C27.9673 60.9495 29.7088 60.0223 30.8 58.5393C32.1808 60.4154 34.5822 61.4764 37.1938 60.7895C39.0815 60.2933 40.6595 58.8072 41.2768 56.9357C41.6473 55.8125 41.6835 54.7212 41.482 53.7179H53.7219C53.5201 54.7234 53.5587 55.8133 53.9313 56.9395C54.5618 58.8437 56.1776 60.3486 58.1066 60.8184C62.0658 61.783 65.6006 58.7731 65.6006 54.9291ZM63.6575 41.5714H56V37.9286H59.8062C59.9644 37.9286 60.1179 37.9938 60.2304 38.1065L63.6575 41.5714ZM63.2 50.0988C62.195 49.3277 60.9575 48.8571 59.6 48.8571C58.2433 48.8571 57.005 49.3301 56 50.0987V45.2143H64.4V50.0714H63.2V50.0988ZM25.9998 57.3495C24.6768 57.3495 23.5998 56.262 23.5998 54.9233C23.5998 53.5845 24.6768 52.4932 25.9998 52.4932C27.3228 52.4932 28.3998 53.5822 28.3998 54.8534C28.3998 56.1246 27.3228 57.3495 25.9998 57.3495ZM35.5996 57.3495C34.2766 57.3495 33.1996 56.262 33.1996 54.9233C33.1996 53.5845 34.2766 52.4932 35.5996 52.4932C36.9226 52.4932 37.9996 53.5822 37.9996 54.8534C37.9996 56.1246 36.9196 57.3495 35.5996 57.3495ZM59.5996 57.3496C58.2766 57.3496 57.1996 56.2605 57.1996 54.9218C57.1996 53.583 58.2766 52.5615 59.5996 52.5615C60.9226 52.5615 61.9996 53.6521 61.9996 54.9916C61.9996 56.3311 60.9196 57.3496 59.5996 57.3496Z" fill="#00AFA3"/>
</svg>
