<svg width="88" height="88" viewBox="0 0 88 88" fill="none" xmlns="http://www.w3.org/2000/svg">
<circle cx="44" cy="44" r="44" fill="#F8F8F8"/>
<path fill-rule="evenodd" clip-rule="evenodd" d="M33.4775 63.8447L37.5087 61.5087H46.5556C49.4384 61.5087 51.8759 59.5478 52.6024 56.8837C55.0634 56.1649 56.8759 53.8837 56.8759 51.1962V50.0791C58.2509 49.665 59.3368 48.5947 59.7743 47.2353L66.802 43.6338C67.4036 43.2822 67.6067 42.5244 67.263 41.9229L66.638 40.8369C66.2942 40.2353 65.5286 40.0322 64.927 40.3759L59.9462 42.7978C59.6571 40.6572 57.8447 39.001 55.6259 39.001H43.7509V44.001C43.7509 45.3759 42.6337 46.501 41.2509 46.501C39.8681 46.501 38.7509 45.3759 38.7509 44.001V37.2587C38.7509 36.3994 39.1963 35.5947 39.9228 35.1416L42.5322 33.5087C43.329 33.0088 44.2431 32.751 45.1806 32.751H53.4071L62.7665 27.4229C63.368 27.0791 63.579 26.3213 63.2353 25.7198L62.6181 24.6338C62.2743 24.0322 61.5165 23.8213 60.915 24.165L52.4228 29.0088H45.1806C43.54 29.0088 41.9384 29.4697 40.5478 30.3369L37.9306 31.9697C36.501 32.8603 35.54 34.2666 35.1806 35.8603L30.54 38.6416C28.6572 39.7744 27.501 41.8135 27.501 44.0165V46.6806L20.626 50.6494C20.0244 50.9931 19.8213 51.7587 20.165 52.3603L20.79 53.4462C21.1338 54.0478 21.8994 54.2509 22.501 53.9072L31.2509 48.8525V44.0244C31.2509 43.1416 31.7119 42.3213 32.4697 41.8681L35.0009 40.3369V43.6338C35.0009 46.8994 37.3447 49.8915 40.6025 50.2197C44.3446 50.6025 47.5009 47.665 47.5009 44.001V42.751H55.6259C55.9697 42.751 56.2509 43.0322 56.2509 43.376V45.876C56.2509 46.2197 55.9697 46.501 55.6259 46.501H53.1259V51.1884C53.1259 52.3915 52.1493 53.3603 50.954 53.3603H49.0712V55.2353C49.0712 56.6259 47.9462 57.7509 46.5556 57.7509H36.5087L31.6025 60.5868C31.0009 60.9305 30.7978 61.6962 31.1415 62.2977L31.7665 63.3837C32.1103 63.9853 32.8759 64.1884 33.4775 63.8447Z" fill="#00AFA3"/>
</svg>
