<svg width="88" height="88" viewBox="0 0 88 88" fill="none" xmlns="http://www.w3.org/2000/svg">
<circle cx="44" cy="44" r="44" fill="#F8F8F8"/>
<path fill-rule="evenodd" clip-rule="evenodd" d="M40.4451 27.9454C41.3342 26.9884 41.5779 25.4454 41.4803 24.0196C40.474 23.9513 38.6967 24.0099 37.574 25.0548C36.2888 26.354 36.4998 28.6782 36.5388 28.9806C37.9842 29.0782 39.492 28.8345 40.4451 27.9454ZM55.4302 27.9454C56.3091 26.9884 56.5536 25.4454 56.4653 24.0196C55.4497 23.9513 53.6724 24.0099 52.5489 25.0548C51.2599 26.3532 51.4747 28.6782 51.5239 28.9806C52.9536 29.0782 54.3989 28.8345 55.4302 27.9454ZM46.3641 39.0002C46.5691 37.5939 46.4783 35.8752 46.0193 34.283C46.0388 34.2537 46.0486 34.2048 46.0681 34.1755C46.4783 33.5798 46.9181 33.4334 47.2009 33.3849C47.7283 33.297 49.4275 33.6486 50.59 34.3029L51.5 34.8126L52.418 34.3048C53.5703 33.6564 55.2422 33.297 55.7969 33.3829C56.0898 33.4415 56.5293 33.588 56.9391 34.1736C57.7297 35.3158 57.8961 37.3478 57.6422 38.7048C57.625 38.8126 57.5859 38.8908 57.5625 39.0001H61.3672C61.6797 36.8908 61.4004 34.0392 60.0234 32.047C59.1445 30.7673 57.9039 29.9572 56.4391 29.6939C55.0156 29.4493 53.0234 29.9283 51.5 30.5822C49.9766 29.9279 47.9937 29.4587 46.5586 29.6931C45.5937 29.8697 44.7344 30.3087 44 30.9337C43.2676 30.3087 42.4078 29.8697 41.4414 29.6931C40.0156 29.4493 38.0234 29.9283 36.5 30.5822C34.9766 29.9283 32.9844 29.4595 31.5586 29.6939C30.1039 29.9575 28.8633 30.7681 27.9844 32.0376C26.5977 34.047 26.3211 36.922 26.6336 39.0001H30.4453L30.3578 38.6798V38.6798C30.1137 37.3517 30.2797 35.3204 31.0707 34.1775C31.4809 33.5818 31.9301 33.4353 32.1941 33.3868C32.75 33.3204 34.4219 33.6486 35.5859 34.3048L36.5 34.8126L37.418 34.3048C38.5703 33.6564 40.2422 33.297 40.7969 33.3829C41.2656 33.4708 41.6266 33.7247 41.9391 34.1736C42.7297 35.3158 42.8961 37.3478 42.6422 38.7048C42.625 38.8126 42.5859 38.8908 42.5625 39.0001L46.3641 39.0002ZM61.5 64.0001C62.8805 64.0001 64 62.8806 64 61.5001V43.9845C64 42.6095 62.8828 41.4845 61.5 41.4845H26.5C25.1195 41.4845 24 42.604 24 43.9845V61.5001C24 62.8829 25.1195 64.0001 26.5 64.0001H61.5ZM60.25 50.8751H27.75V45.2267H60.25V50.8751ZM31.5 49.0001C32.1903 49.0001 32.75 48.4404 32.75 47.7501C32.75 47.0598 32.1875 46.5001 31.5 46.5001C30.8125 46.5001 30.25 47.0626 30.25 47.7501C30.25 48.4376 30.8094 49.0001 31.5 49.0001ZM56.5 49.0001C57.1903 49.0001 57.75 48.4404 57.75 47.7501C57.75 47.0598 57.1875 46.5001 56.5 46.5001C55.8125 46.5001 55.25 47.0598 55.25 47.7501C55.25 48.4404 55.8125 49.0001 56.5 49.0001ZM60.25 60.2501H27.75V54.6251H60.25V60.2501ZM31.5 59.0001C32.1903 59.0001 32.75 58.4404 32.75 57.7501C32.75 57.0598 32.1875 56.5001 31.5 56.5001C30.8125 56.5001 30.25 57.0598 30.25 57.7501C30.25 58.4404 30.8094 59.0001 31.5 59.0001ZM56.5 59.0001C57.1903 59.0001 57.75 58.4404 57.75 57.7501C57.75 57.0598 57.1875 56.5001 56.5 56.5001C55.8125 56.5001 55.25 57.0598 55.25 57.7501C55.25 58.4404 55.8125 59.0001 56.5 59.0001Z" fill="#00AFA3"/>
</svg>
