<svg version="1.1" id="Слой_1" xmlns="http://www.w3.org/2000/svg" xmlns:xlink="http://www.w3.org/1999/xlink"
     x="0px" y="0px"
     viewBox="0 0 452.91 199.3" style="enable-background:new 0 0 452.91 199.3;" xml:space="preserve">
            <style type="text/css">
                .st0 {
                    fill: #29272A;
                }
            </style>
    <g>
                <path class="st0" d="M0,95.09l8.13-18.04c8.73,6.36,21.74,10.8,34.16,10.8c14.2,0,19.97-4.73,19.97-11.09
		c0-19.37-60.19-6.06-60.19-44.52C2.07,14.64,16.27,0,45.7,0c13.01,0,26.32,3.11,35.94,9.17l-7.39,18.19
		c-9.61-5.47-19.52-8.13-28.69-8.13c-14.2,0-19.67,5.32-19.67,11.83c0,19.08,60.19,5.92,60.19,43.92c0,17.3-14.35,32.09-43.92,32.09
		C25.73,107.07,9.17,102.19,0,95.09z"/>
        <path class="st0" d="M332.15,83.12h-65.51l-11.66,22.18h-24.55L286.54,1.77h23.66l61.25,103.52h-25.14L332.15,83.12z M323.43,64.92
		l-25.2-39.64l-22.57,39.64H323.43z"/>
        <path class="st0"
              d="M452.33,1.77V105.3h-19.67L362.58,1.73l24.59,0.05l42.43,62.8l-0.12-62.84L452.33,1.77z"/>
        <g>
                    <path class="st0" d="M121.89,23.54V1.77h90.21v21.77H121.89z"/>
            <rect x="155.98" y="44.69" class="st0" width="22.05" height="60.61"/>
                </g>
        <g>
                    <path class="st0" d="M44.88,184.72c0,8.88-6.73,13.99-19.83,13.99H0.33v-51.8h23.24c11.91,0,18.58,5.03,18.58,13.4
			c0,5.62-2.89,9.55-6.96,11.54C41.03,173.48,44.88,177.84,44.88,184.72z M7.73,152.9v16.58H22.9c7.55,0,11.84-2.81,11.84-8.29
			s-4.29-8.29-11.84-8.29H7.73z M37.41,184.13c0-5.99-4.44-8.66-12.65-8.66H7.73v17.24h17.02
			C32.97,192.72,37.41,190.13,37.41,184.13z"/>
            <path class="st0" d="M96.83,198.71L85.65,182.8c-1.04,0.07-2.15,0.15-3.26,0.15h-12.8v15.76h-7.4v-51.8h20.2
			c13.47,0,21.61,6.81,21.61,18.06c0,7.99-4.14,13.76-11.4,16.35l12.29,17.39H96.83z M96.61,164.97c0-7.4-4.96-11.62-14.43-11.62
			H69.59v23.31h12.58C91.65,176.66,96.61,172.37,96.61,164.97z"/>
            <path class="st0" d="M154.84,185.76h-27.53l-5.7,12.95h-7.62l23.46-51.8h7.33l23.53,51.8h-7.77L154.84,185.76z M152.25,179.84
			l-11.17-25.38l-11.17,25.38H152.25z"/>
            <path class="st0"
                  d="M226.4,146.91v51.8h-6.07l-31.08-38.63v38.63h-7.4v-51.8h6.07L219,185.54v-38.63H226.4z"/>
            <path class="st0" d="M247.78,146.91h21.83c16.65,0,27.97,10.51,27.97,25.9c0,15.39-11.32,25.9-27.97,25.9h-21.83V146.91z
			 M269.17,192.27c12.8,0,21.02-7.84,21.02-19.46c0-11.62-8.21-19.46-21.02-19.46h-13.99v38.93H269.17z"/>
            <path class="st0" d="M314.75,146.91h7.4v51.8h-7.4V146.91z"/>
            <path class="st0"
                  d="M388.09,146.91v51.8h-6.07l-31.08-38.63v38.63h-7.4v-51.8h6.07l31.08,38.63v-38.63H388.09z"/>
            <path class="st0" d="M445.37,172.51h7.1v20.2c-5.18,4.37-12.36,6.59-19.61,6.59c-15.91,0-27.6-11.17-27.6-26.49
			c0-15.32,11.69-26.49,27.75-26.49c8.21,0,15.17,2.74,19.91,7.99l-4.59,4.59c-4.29-4.14-9.18-6-15.02-6
			c-11.99,0-20.65,8.36-20.65,19.91c0,11.4,8.66,19.91,20.57,19.91c4.37,0,8.44-0.96,12.14-3.33V172.51z"/>
                </g>
            </g>
</svg>
