<svg width="25" height="25" viewBox="0 0 25 25" fill="none" xmlns="http://www.w3.org/2000/svg">
<path d="M5.50787 13.0205H16.6779L11.7979 17.9005C11.4079 18.2905 11.4079 18.9305 11.7979 19.3205C12.1879 19.7105 12.8179 19.7105 13.2079 19.3205L19.7979 12.7305C20.1879 12.3405 20.1879 11.7105 19.7979 11.3205L13.2179 4.72046C13.031 4.53321 12.7774 4.42798 12.5129 4.42798C12.2484 4.42798 11.9947 4.53321 11.8079 4.72046C11.4179 5.11046 11.4179 5.74046 11.8079 6.13046L16.6779 11.0205H5.50787C4.95787 11.0205 4.50787 11.4705 4.50787 12.0205C4.50787 12.5705 4.95787 13.0205 5.50787 13.0205Z" fill="url(#paint0_linear)"/>
<mask id="mask0" style="mask-type:alpha" maskUnits="userSpaceOnUse" x="4" y="4" width="17" height="16">
<path d="M5.50787 13.0205H16.6779L11.7979 17.9005C11.4079 18.2905 11.4079 18.9305 11.7979 19.3205C12.1879 19.7105 12.8179 19.7105 13.2079 19.3205L19.7979 12.7305C20.1879 12.3405 20.1879 11.7105 19.7979 11.3205L13.2179 4.72046C13.031 4.53321 12.7774 4.42798 12.5129 4.42798C12.2484 4.42798 11.9947 4.53321 11.8079 4.72046C11.4179 5.11046 11.4179 5.74046 11.8079 6.13046L16.6779 11.0205H5.50787C4.95787 11.0205 4.50787 11.4705 4.50787 12.0205C4.50787 12.5705 4.95787 13.0205 5.50787 13.0205Z" fill="white"/>
</mask>
<g mask="url(#mask0)">
</g>
<defs>
<linearGradient id="paint0_linear" x1="27.8816" y1="12.0205" x2="12.7017" y2="-3.55683" gradientUnits="userSpaceOnUse">
<stop stop-color="#00AFA3"/>
<stop offset="1" stop-color="#094599"/>
</linearGradient>
</defs>
</svg>
