<svg width="1440" height="405" viewBox="0 0 1440 405" fill="none" xmlns="http://www.w3.org/2000/svg">
<mask id="mask0" style="mask-type:alpha" maskUnits="userSpaceOnUse" x="0" y="0" width="1440" height="405">
<rect x="-3.05176e-05" width="1440" height="405" fill="#C4C4C4"/>
</mask>
<g mask="url(#mask0)">
<g opacity="0.041196">
<path fill-rule="evenodd" clip-rule="evenodd" d="M1031.8 150C985.205 150 937.406 145.753 889.25 137.309C879.232 135.975 869.082 133.706 859.263 131.517C854.567 130.466 849.866 129.416 845.161 128.459C833.598 126.27 821.989 123.09 810.758 120.011C807.585 119.143 804.411 118.275 801.234 117.424L784.838 113.02C783.026 112.542 781.18 112.051 779.023 111.386L704.603 89.3454C540.732 41.8177 404.398 16.4617 275.547 9.54679C199.824 5.30808 124.136 6.89601 50.5751 14.2471C-24.6835 22.8261 -99.674 37.7484 -172.282 58.6031C-173.414 58.9334 -174.588 58.2771 -174.916 57.155C-175.243 56.0328 -174.588 54.8556 -173.461 54.5338C-100.627 33.6155 -25.4024 18.6424 50.1199 10.038C123.932 2.66153 199.85 1.07361 275.781 5.32078C404.959 12.2526 541.604 37.6595 705.798 85.2803L780.265 107.338C782.375 107.99 784.162 108.464 785.936 108.93L802.344 113.338C805.526 114.185 808.708 115.057 811.886 115.929C823.036 118.982 834.564 122.141 845.982 124.305C850.747 125.271 855.473 126.325 860.195 127.379C869.924 129.556 879.98 131.804 889.905 133.13C949.645 143.597 1008.77 147.595 1065.68 145.003C1124.34 142.361 1180.97 132.757 1234.01 116.446C1286.55 100.186 1335.89 76.1847 1380.66 45.1036C1381.62 44.4346 1382.95 44.6675 1383.62 45.6287C1384.29 46.5857 1384.06 47.9069 1383.09 48.5759C1337.96 79.9068 1288.23 104.103 1235.27 120.49C1181.88 136.907 1124.9 146.574 1065.87 149.229C1054.59 149.742 1043.23 150 1031.8 150" fill="#201B00"/>
<path fill-rule="evenodd" clip-rule="evenodd" d="M1030.53 177C982.298 177 932.86 172.609 883.094 163.882C872.7 162.489 862.19 160.147 852.021 157.873C847.236 156.806 842.452 155.739 837.654 154.765C825.694 152.478 813.696 149.201 802.09 146.025C798.878 145.149 795.667 144.268 792.452 143.404C789.573 142.616 786.766 141.867 783.95 141.117C779.31 139.877 774.653 138.636 769.719 137.217L695.468 115.224C533.744 68.3104 399.418 43.2933 272.752 36.4928C198.573 32.3557 124.459 33.8971 52.4663 41.0871C-21.0445 49.4798 -94.3213 64.0632 -165.284 84.4351C-166.424 84.7781 -167.594 84.1091 -167.917 82.9869C-168.24 81.8606 -167.59 80.6876 -166.463 80.3658C-95.2698 59.9304 -21.7633 45.2962 52.0112 36.8781C124.259 29.6711 198.595 28.117 272.981 32.2668C399.984 39.0842 534.611 64.1564 696.668 111.159L770.919 133.157C775.801 134.562 780.433 135.799 785.052 137.027C787.871 137.781 790.691 138.53 793.566 139.322C796.777 140.182 799.997 141.062 803.221 141.943C814.743 145.093 826.656 148.35 838.483 150.611C843.328 151.598 848.142 152.669 852.952 153.744C863.028 155.993 873.448 158.318 883.749 159.702C945.504 170.526 1006.67 174.646 1065.62 171.974C1126.71 169.221 1185.75 159.19 1241.1 142.155C1296.47 125.005 1348.47 99.6749 1395.66 66.8664C1396.62 66.2016 1397.95 66.4345 1398.62 67.3915C1399.29 68.3527 1399.05 69.6696 1398.09 70.3429C1350.54 103.397 1298.15 128.922 1242.35 146.199C1186.66 163.34 1127.27 173.435 1065.82 176.204C1054.14 176.737 1042.37 177 1030.53 177" fill="#201B00"/>
<path fill-rule="evenodd" clip-rule="evenodd" d="M1030.98 206C981.085 206 929.997 201.473 878.606 192.471C867.833 191.01 856.966 188.592 846.452 186.25C841.568 185.162 836.687 184.074 831.79 183.079C819.391 180.699 806.98 177.311 794.981 174.029C791.743 173.144 788.514 172.264 785.276 171.396C782.425 170.616 779.621 169.867 776.817 169.117C771.937 167.813 767.056 166.509 761.967 165.048L687.882 143.105C528.187 96.8045 395.788 72.13 271.231 65.4522C198.592 61.4082 126.008 62.9115 55.4961 69.9323C-16.3347 78.1472 -87.9315 92.3879 -157.286 112.265C-158.401 112.599 -159.592 111.939 -159.916 110.817C-160.243 109.694 -159.588 108.517 -158.46 108.195C-88.8846 88.2508 -17.0495 73.9635 55.0408 65.7232C125.808 58.6727 198.609 57.1567 271.465 61.2261C396.354 67.9209 529.055 92.6462 689.081 139.04L763.172 160.987C768.205 162.435 773.068 163.735 777.919 165.027C780.736 165.781 783.544 166.534 786.395 167.309C789.624 168.173 792.866 169.062 796.109 169.947C808.031 173.208 820.361 176.574 832.62 178.92C837.564 179.932 842.47 181.025 847.38 182.117C857.809 184.438 868.586 186.839 879.266 188.287C943.055 199.458 1006.32 203.713 1067.35 200.952C1130.92 198.086 1192.4 187.626 1250.07 169.867C1308.33 151.828 1363.03 125.172 1412.65 90.6391C1413.62 89.9785 1414.94 90.1987 1415.61 91.1641C1416.29 92.1169 1416.05 93.4423 1415.09 94.1114C1365.1 128.894 1310.01 155.741 1251.34 173.911C1193.31 191.78 1131.47 202.299 1067.54 205.178C1055.44 205.729 1043.24 206 1030.98 206" fill="#201B00"/>
<path fill-rule="evenodd" clip-rule="evenodd" d="M1031.64 234C980.138 234 927.431 229.325 874.457 220.043C863.299 218.519 852.056 216.021 841.191 213.607C836.227 212.502 831.267 211.401 826.294 210.385C813.455 207.912 800.63 204.41 788.225 201.022C784.984 200.137 781.742 199.248 778.497 198.38C775.544 197.567 772.622 196.788 769.704 196.005C764.718 194.671 759.728 193.333 754.632 191.872L680.758 169.989C523.184 124.299 392.8 99.9643 270.44 93.4052C199.352 89.446 128.35 90.9196 59.3892 97.7751C-10.7157 105.804 -80.5995 119.709 -148.284 139.099C-149.403 139.425 -150.594 138.773 -150.917 137.65C-151.24 136.524 -150.59 135.351 -149.458 135.029C-81.5524 115.572 -11.4347 101.62 58.934 93.5661C128.141 86.6767 199.374 85.1989 270.67 89.1793C393.362 95.7553 524.051 120.137 681.953 165.924L755.832 187.811C760.885 189.259 765.85 190.589 770.81 191.919C773.741 192.702 776.667 193.489 779.615 194.294C782.857 195.162 786.103 196.051 789.353 196.936C801.676 200.303 814.425 203.783 827.123 206.227C832.147 207.26 837.129 208.365 842.114 209.474C852.898 211.867 864.052 214.344 875.116 215.864C940.916 227.386 1006.23 231.764 1069.3 228.919C1135.28 225.942 1199.16 215.06 1259.16 196.576C1320.25 177.644 1377.61 149.663 1429.66 113.408C1430.61 112.731 1431.94 112.968 1432.62 113.925C1433.29 114.882 1433.05 116.203 1432.09 116.872C1379.69 153.381 1321.93 181.557 1260.42 200.62C1200.08 219.213 1135.84 230.159 1069.49 233.145C1056.96 233.716 1044.34 234 1031.64 234" fill="#201B00"/>
<path fill-rule="evenodd" clip-rule="evenodd" d="M1031.09 263C977.928 263 923.562 258.19 868.949 248.628C857.382 247.032 845.747 244.453 834.503 241.959C829.473 240.845 824.443 239.732 819.4 238.694C806.114 236.12 792.853 232.508 780.031 229.01C776.788 228.125 773.545 227.244 770.302 226.372C767.358 225.563 764.438 224.784 761.51 223.996C756.301 222.599 751.088 221.201 745.862 219.694L672.15 197.874C516.635 152.798 388.182 128.805 267.908 122.36C198.332 118.486 128.858 119.917 61.4146 126.62C-6.98673 134.462 -75.1966 148.026 -141.283 166.932C-142.415 167.25 -143.589 166.611 -143.917 165.484C-144.241 164.362 -143.589 163.189 -142.457 162.867C-76.1456 143.893 -7.70593 130.279 60.9635 122.411C128.65 115.683 198.349 114.239 268.142 118.134C388.748 124.592 517.503 148.64 673.346 193.809L747.062 215.633C752.25 217.128 757.433 218.517 762.617 219.906C765.549 220.693 768.485 221.481 771.417 222.286C774.656 223.154 777.907 224.039 781.154 224.928C793.904 228.4 807.08 231.999 820.238 234.54C825.324 235.586 830.375 236.708 835.423 237.83C846.589 240.303 858.135 242.865 869.613 244.449C937.469 256.326 1004.87 260.845 1070.01 257.893C1138.46 254.806 1204.78 243.504 1267.14 224.288C1331.11 204.467 1391.17 175.156 1445.65 137.177C1446.61 136.504 1447.94 136.741 1448.61 137.693C1449.29 138.655 1449.06 139.972 1448.09 140.641C1393.25 178.878 1332.79 208.38 1268.4 228.332C1205.7 247.654 1139.01 259.024 1070.21 262.119C1057.25 262.708 1044.21 263 1031.09 263" fill="#201B00"/>
<path fill-rule="evenodd" clip-rule="evenodd" d="M1031.8 291C977.01 291 921.018 286.046 864.808 276.205C852.844 274.545 840.85 271.886 829.247 269.32C824.137 268.185 819.027 267.054 813.905 266C800.17 263.328 786.483 259.598 773.242 255.99C770.008 255.105 766.766 254.22 763.524 253.352C760.559 252.539 757.593 251.743 754.628 250.947C749.237 249.494 743.846 248.046 738.528 246.517L665.027 224.748C592.066 203.64 527.556 187.727 467.811 176.099C461.905 175.049 455.97 173.935 450.034 172.818C439.529 170.836 428.667 168.795 417.949 167.122L367.803 159.653L317.507 154.046C306.798 152.996 295.829 152.272 285.227 151.569C279.172 151.171 273.118 150.769 267.067 150.307C199.111 146.518 131.213 147.923 65.3114 154.461C-1.39455 162.126 -67.8835 175.35 -132.283 193.765C-133.415 194.112 -134.589 193.443 -134.917 192.313C-135.24 191.195 -134.589 190.018 -133.462 189.696C-68.8366 171.217 -2.11361 157.946 64.8561 150.252C131.009 143.689 199.132 142.283 267.348 146.081C273.428 146.547 279.47 146.941 285.512 147.343C296.149 148.046 307.147 148.779 317.954 149.833L368.356 155.456L418.596 162.939C429.394 164.62 440.291 166.673 450.826 168.651C456.744 169.769 462.667 170.882 468.598 171.941C528.496 183.598 593.13 199.537 666.227 220.688L739.727 242.457C745.008 243.973 750.369 245.412 755.738 246.856C758.708 247.661 761.686 248.457 764.643 249.27C767.881 250.138 771.123 251.023 774.37 251.908C787.534 255.49 801.14 259.204 814.743 261.85C819.912 262.909 825.039 264.048 830.171 265.183C841.688 267.736 853.601 270.374 865.468 272.026C935.327 284.25 1004.78 288.879 1071.97 285.864C1142.84 282.667 1211.57 270.937 1276.23 250.997C1343.03 230.283 1405.75 199.651 1462.65 159.945C1463.61 159.272 1464.94 159.505 1465.61 160.461C1466.29 161.418 1466.06 162.74 1465.09 163.409C1407.83 203.369 1344.71 234.2 1277.49 255.041C1212.48 275.087 1143.4 286.88 1072.16 290.09C1058.8 290.699 1045.33 291 1031.8 291" fill="#201B00"/>
<path fill-rule="evenodd" clip-rule="evenodd" d="M1031.21 319C974.762 319 917.112 313.906 859.284 303.785C846.911 302.058 834.52 299.318 822.538 296.667C817.366 295.52 812.191 294.376 806.998 293.305C792.798 290.535 778.675 286.686 765.012 282.968L755.312 280.339C752.323 279.521 749.327 278.713 746.33 277.908C740.746 276.405 735.157 274.902 729.739 273.343L656.4 251.633C584.215 230.757 520.483 215.038 461.573 203.575C455.738 202.538 449.876 201.433 444.011 200.332C433.702 198.392 423.039 196.385 412.534 194.75L363.279 187.416L313.942 181.92C303.458 180.891 292.741 180.184 282.376 179.498C276.426 179.104 270.475 178.71 264.524 178.261C198.115 174.564 131.757 175.928 67.3268 182.297C2.33067 189.779 -62.4867 202.665 -125.287 220.594C-126.406 220.937 -127.594 220.272 -127.917 219.141C-128.241 218.015 -127.589 216.846 -126.457 216.524C-63.4359 198.532 1.60707 185.6 66.8714 178.088C131.553 171.693 198.136 170.326 264.805 174.035C270.786 174.488 276.719 174.882 282.657 175.272C293.056 175.962 303.812 176.669 314.389 177.706L363.832 183.22L413.181 190.567C423.767 192.214 434.459 194.221 444.803 196.169C450.651 197.274 456.499 198.375 462.356 199.417C521.423 210.909 585.279 226.653 657.604 247.568L730.939 269.282C736.319 270.828 741.878 272.327 747.441 273.822C750.446 274.626 753.451 275.439 756.427 276.252L766.136 278.882C779.722 282.583 793.773 286.411 807.841 289.155C813.076 290.235 818.269 291.382 823.458 292.53C835.363 295.164 847.668 297.887 859.952 299.606C931.848 312.187 1003.39 316.963 1072.67 313.834C1146.01 310.531 1217.17 298.378 1284.2 277.709C1353.88 256.1 1419.3 224.142 1478.65 182.707C1479.62 182.034 1480.94 182.267 1481.61 183.228C1482.29 184.181 1482.06 185.506 1481.09 186.175C1421.38 227.86 1355.56 260.013 1285.46 281.753C1218.08 302.528 1146.56 314.744 1072.87 318.06C1059.07 318.691 1045.17 319 1031.21 319" fill="#201B00"/>
<path fill-rule="evenodd" clip-rule="evenodd" d="M1030.92 348C972.846 348 913.574 342.766 854.142 332.362C841.371 330.566 828.608 327.742 816.263 325.015C811.016 323.859 805.773 322.694 800.505 321.61C785.853 318.739 771.291 314.776 757.213 310.944L747.536 308.323C744.553 307.505 741.54 306.692 738.527 305.879C732.735 304.321 726.935 302.754 721.411 301.162L648.284 279.511C576.953 258.876 514.043 243.352 455.968 232.05C450.176 231.026 444.359 229.925 438.537 228.828C428.46 226.931 418.034 224.97 407.782 223.374L359.444 216.171L311.101 210.789C300.964 209.789 290.61 209.108 280.597 208.451C274.644 208.058 268.69 207.664 262.732 207.206C197.878 203.62 133.096 204.932 70.2246 211.136C6.97456 218.432 -56.1266 230.979 -117.287 248.421C-118.406 248.756 -119.594 248.095 -119.917 246.973C-120.241 245.846 -119.589 244.678 -118.457 244.352C-57.0798 226.846 6.25111 214.253 69.7693 206.927C132.896 200.694 197.904 199.373 263.018 202.985C269.001 203.442 274.942 203.836 280.882 204.225C290.925 204.886 301.313 205.572 311.548 206.575L359.997 211.974L408.425 219.19C418.762 220.795 429.218 222.768 439.329 224.67C445.133 225.766 450.938 226.859 456.747 227.892C514.984 239.224 578.017 254.777 649.484 275.446L722.611 297.101C728.097 298.685 733.867 300.239 739.642 301.793C742.659 302.606 745.681 303.423 748.66 304.236L758.332 306.857C772.342 310.673 786.827 314.611 801.352 317.461C806.654 318.557 811.918 319.718 817.182 320.882C829.447 323.592 842.132 326.391 854.81 328.178C928.716 341.115 1002.3 346.022 1073.63 342.804C1149.4 339.383 1222.97 326.802 1292.29 305.413C1364.81 282.911 1432.9 249.624 1494.65 206.474C1495.61 205.801 1496.94 206.033 1497.61 206.99C1498.29 207.947 1498.06 209.269 1497.09 209.938C1434.98 253.337 1366.5 286.824 1293.55 309.457C1223.88 330.956 1149.96 343.596 1073.82 347.03C1059.61 347.678 1045.3 348 1030.92 348" fill="#201B00"/>
<path fill-rule="evenodd" clip-rule="evenodd" d="M1032.32 376C972.583 376 911.649 370.631 850.6 359.962C837.398 358.096 824.218 355.194 811.472 352.38C806.184 351.213 800.893 350.049 795.584 348.949C780.428 345.971 765.387 341.884 750.84 337.929L732.449 332.953C726.383 331.316 720.299 329.679 714.599 328.042L641.638 306.461C571.075 286.082 508.944 270.763 451.71 259.641C445.937 258.617 440.126 257.53 434.315 256.434C424.494 254.585 414.332 252.673 404.353 251.125L356.906 244.064L309.527 238.797C299.646 237.824 289.569 237.164 279.82 236.521C273.941 236.136 268.062 235.746 262.183 235.294C198.831 231.795 135.585 233.068 74.2385 239.114C12.6576 246.226 -48.7657 258.418 -108.286 275.349C-109.419 275.679 -110.594 275.024 -110.917 273.902C-111.241 272.777 -110.589 271.609 -109.457 271.288C-49.7151 254.285 11.9339 242.046 73.783 234.905C135.385 228.846 198.852 227.556 262.464 231.076C268.373 231.528 274.239 231.913 280.101 232.303C289.884 232.942 300 233.606 309.974 234.587L357.459 239.871L404.996 246.945C415.055 248.506 425.252 250.422 435.107 252.275C440.905 253.367 446.695 254.458 452.494 255.482C509.89 266.638 572.139 281.983 642.843 302.4L715.799 323.985C721.457 325.605 727.519 327.242 733.565 328.871L751.964 333.85C766.439 337.781 781.403 341.85 796.431 344.803C801.778 345.912 807.087 347.084 812.396 348.251C825.061 351.044 838.16 353.929 851.273 355.786C927.222 369.053 1002.91 374.088 1076.32 370.788C1154.56 367.26 1230.57 354.267 1302.25 332.171C1377.66 308.797 1448.45 274.215 1512.65 229.384C1513.61 228.711 1514.93 228.948 1515.61 229.9C1516.29 230.856 1516.06 232.172 1515.09 232.848C1450.53 277.926 1379.35 312.706 1303.51 336.211C1231.49 358.413 1155.12 371.469 1076.51 375.01C1061.87 375.674 1047.13 376 1032.32 376" fill="#201B00"/>
<path fill-rule="evenodd" clip-rule="evenodd" d="M1031.34 405C970.019 405 907.502 399.459 844.883 388.455C831.293 386.511 817.749 383.514 804.648 380.614C799.288 379.423 793.928 378.237 788.552 377.114C772.992 374.031 757.568 369.817 742.65 365.744L712.381 357.49C710.037 356.848 707.71 356.215 705.741 355.602L633.079 333.984C563.429 313.748 502.154 298.547 445.772 287.525C440.076 286.513 434.346 285.424 428.616 284.34C418.995 282.52 409.054 280.636 399.296 279.118L352.798 272.153L306.437 266.97C296.862 266.022 287.096 265.38 277.648 264.754C271.825 264.367 266.002 263.985 260.174 263.53C198.449 260.098 136.813 261.348 77.0268 267.259C17.2283 274.22 -42.4383 286.13 -100.284 302.667C-101.416 302.99 -102.594 302.344 -102.917 301.208C-103.241 300.082 -102.586 298.904 -101.458 298.581C-43.3869 281.98 16.5094 270.019 76.5717 263.028C136.608 257.101 198.466 255.842 260.455 259.29C266.312 259.745 272.123 260.128 277.929 260.511C287.406 261.136 297.211 261.782 306.884 262.735L353.351 267.939L399.938 274.917C409.772 276.448 419.756 278.336 429.408 280.164C435.12 281.244 440.837 282.329 446.55 283.345C503.099 294.401 564.492 309.628 634.274 329.902L706.983 351.537C708.931 352.145 711.207 352.762 713.499 353.387L743.773 361.64C758.614 365.693 773.966 369.885 789.398 372.951C794.817 374.082 800.194 375.269 805.571 376.459C818.591 379.347 832.054 382.327 845.551 384.258C923.471 397.958 1001.17 403.146 1076.56 399.732C1157.16 396.075 1235.53 382.591 1309.48 359.655C1387.67 335.264 1461.07 299.176 1527.65 252.385C1528.61 251.713 1529.94 251.943 1530.61 252.904C1531.29 253.865 1531.06 255.187 1530.09 255.863C1463.16 302.905 1389.36 339.193 1310.74 363.716C1236.44 386.762 1157.71 400.306 1076.75 403.975C1061.7 404.66 1046.55 405 1031.34 405" fill="#201B00"/>
<mask id="mask1" style="mask-type:alpha" maskUnits="userSpaceOnUse" x="-179" y="2" width="1565" height="150">
<path fill-rule="evenodd" clip-rule="evenodd" d="M275.006 2.41986C404.34 9.38561 541.127 34.9069 705.483 82.7534L779.955 104.892C782.056 105.546 783.817 106.014 785.557 106.473L801.973 110.897C805.155 111.751 808.341 112.631 811.527 113.506C822.638 116.558 834.124 119.716 845.46 121.87C850.263 122.852 855.001 123.915 859.736 124.977C869.422 127.149 879.431 129.393 889.262 130.706C948.935 141.199 1007.88 145.199 1064.65 142.61C1123.13 139.971 1179.58 130.358 1232.44 114.046C1284.76 97.7899 1333.9 73.7944 1378.49 42.7226C1380.42 41.3924 1383.07 41.8599 1384.41 43.7766C1385.76 45.7019 1385.28 48.3496 1383.36 49.6969C1338.06 81.2701 1288.12 105.648 1234.96 122.164C1181.4 138.692 1124.23 148.429 1065.03 151.102C1053.73 151.616 1042.33 151.875 1030.87 151.875C984.148 151.875 936.233 147.6 887.956 139.108C877.934 137.77 867.738 135.479 857.877 133.269C853.189 132.219 848.51 131.169 843.814 130.209C832.197 128.003 820.541 124.799 809.273 121.7C806.103 120.829 802.934 119.958 799.765 119.108L783.367 114.688C781.537 114.208 779.661 113.702 777.471 113.022L703.079 90.9091C539.391 43.2539 403.212 17.8346 274.538 10.9029C198.93 6.67411 123.356 8.24661 49.9045 15.6161C-25.2058 24.2054 -100.074 39.1611 -172.568 60.0584C-174.831 60.7001 -177.183 59.4039 -177.834 57.1556C-178.485 54.9031 -177.183 52.5444 -174.924 51.8941C-101.979 30.8609 -26.6436 15.8159 48.9941 7.16711" fill="white"/>
</mask>
<g mask="url(#mask1)">
<path fill-rule="evenodd" clip-rule="evenodd" d="M1030.87 151.875C984.148 151.875 936.233 147.6 887.956 139.108C877.934 137.77 867.738 135.479 857.877 133.269C853.189 132.219 848.51 131.169 843.814 130.209C832.197 128.003 820.541 124.799 809.273 121.7C806.103 120.829 802.934 119.958 799.765 119.108L783.367 114.688C781.537 114.208 779.661 113.702 777.471 113.022L703.079 90.9091C539.391 43.2539 403.212 17.8346 274.538 10.9029C198.93 6.67411 123.356 8.24661 49.9045 15.6161C-25.2058 24.2054 -100.074 39.1611 -172.568 60.0584C-174.831 60.7001 -177.183 59.4039 -177.834 57.1556C-178.485 54.9031 -177.183 52.5444 -174.924 51.8941C-101.979 30.8609 -26.6436 15.8159 48.9941 7.16711C122.943 -0.257636 198.964 -1.84714 275.006 2.41986C404.34 9.38561 541.127 34.9069 705.483 82.7534L779.955 104.892C782.056 105.546 783.817 106.014 785.557 106.473L801.973 110.897C805.155 111.751 808.341 112.631 811.527 113.506C822.638 116.558 834.124 119.716 845.46 121.87C850.263 122.852 855.001 123.915 859.736 124.977C869.422 127.149 879.431 129.393 889.262 130.706C948.935 141.199 1007.88 145.199 1064.65 142.61C1123.13 139.971 1179.58 130.358 1232.44 114.046C1284.76 97.7899 1333.9 73.7944 1378.49 42.7226C1380.42 41.3924 1383.07 41.8599 1384.41 43.7766C1385.76 45.7019 1385.28 48.3496 1383.36 49.6969C1338.06 81.2701 1288.12 105.648 1234.96 122.164C1181.4 138.692 1124.23 148.429 1065.03 151.102C1053.73 151.616 1042.33 151.875 1030.87 151.875" fill="url(#paint0_linear)"/>
</g>
<mask id="mask2" style="mask-type:alpha" maskUnits="userSpaceOnUse" x="-171" y="30" width="1573" height="150">
<path fill-rule="evenodd" clip-rule="evenodd" d="M273.409 30.2258C400.63 37.0726 535.477 62.2623 697.774 109.488L772.078 131.571C776.933 132.97 781.55 134.206 786.158 135.439C788.988 136.195 791.814 136.952 794.694 137.747C797.894 138.605 801.12 139.489 804.345 140.373C815.834 143.527 827.715 146.786 839.467 149.035C844.352 150.033 849.182 151.113 854.007 152.192C864.045 154.445 874.428 156.765 884.636 158.142C946.353 168.984 1007.39 173.107 1066.22 170.442C1127.16 167.692 1186.05 157.649 1241.24 140.607C1296.43 123.458 1348.26 98.1323 1395.29 65.3308C1397.22 63.9921 1399.87 64.4638 1401.22 66.3848C1402.56 68.3058 1402.09 70.9578 1400.16 72.3008C1352.42 105.604 1299.8 131.316 1243.77 148.724C1187.87 165.984 1128.27 176.15 1066.6 178.933C1054.89 179.465 1043.08 179.737 1031.21 179.737C982.825 179.737 933.243 175.317 883.334 166.54C872.922 165.138 862.36 162.775 852.144 160.488C847.369 159.417 842.595 158.351 837.808 157.373C825.783 155.07 813.741 151.767 802.094 148.571C798.881 147.692 795.673 146.812 792.46 145.945C789.567 145.15 786.763 144.398 783.954 143.646C779.295 142.405 774.627 141.155 769.678 139.727L695.378 117.644C533.741 70.6093 399.503 45.5258 272.941 38.7131C198.837 34.5608 124.801 36.1163 52.8752 43.3158C-20.5267 51.7223 -93.7159 66.3338 -164.603 86.7466C-166.858 87.3756 -169.22 86.0921 -169.871 83.8396C-170.522 81.5828 -169.216 79.2283 -166.96 78.5781C-95.6222 58.0336 -21.9607 43.3286 51.9688 34.8668" fill="white"/>
</mask>
<g mask="url(#mask2)">
<path fill-rule="evenodd" clip-rule="evenodd" d="M1031.21 179.737C982.825 179.737 933.243 175.317 883.334 166.54C872.922 165.138 862.36 162.775 852.144 160.488C847.369 159.417 842.595 158.351 837.808 157.373C825.783 155.07 813.741 151.767 802.094 148.571C798.881 147.692 795.673 146.812 792.46 145.945C789.567 145.15 786.763 144.398 783.954 143.646C779.295 142.405 774.627 141.155 769.678 139.727L695.378 117.644C533.741 70.6093 399.503 45.5258 272.941 38.7131C198.837 34.5608 124.801 36.1163 52.8752 43.3158C-20.5267 51.7223 -93.7159 66.3338 -164.603 86.7466C-166.858 87.3756 -169.22 86.0921 -169.871 83.8396C-170.522 81.5828 -169.216 79.2283 -166.96 78.5781C-95.6222 58.0336 -21.9607 43.3286 51.9688 34.8668C124.388 27.6078 198.871 26.0523 273.409 30.2258C400.63 37.0726 535.477 62.2623 697.774 109.488L772.078 131.571C776.933 132.97 781.55 134.206 786.158 135.439C788.988 136.195 791.814 136.952 794.694 137.747C797.894 138.605 801.12 139.489 804.345 140.373C815.834 143.527 827.715 146.786 839.467 149.035C844.352 150.033 849.182 151.113 854.007 152.192C864.045 154.445 874.428 156.765 884.636 158.142C946.353 168.984 1007.39 173.107 1066.22 170.442C1127.16 167.692 1186.05 157.649 1241.24 140.607C1296.43 123.458 1348.26 98.1323 1395.29 65.3308C1397.22 63.9921 1399.87 64.4638 1401.22 66.3848C1402.56 68.3058 1402.09 70.9578 1400.16 72.3008C1352.42 105.604 1299.8 131.316 1243.77 148.724C1187.87 165.984 1128.27 176.15 1066.6 178.933C1054.89 179.465 1043.08 179.737 1031.21 179.737" fill="url(#paint1_linear)"/>
</g>
<mask id="mask3" style="mask-type:alpha" maskUnits="userSpaceOnUse" x="-163" y="59" width="1582" height="150">
<path fill-rule="evenodd" clip-rule="evenodd" d="M271.39 59.0359C396.489 65.7637 529.394 90.6092 689.643 137.223L763.774 159.247C768.775 160.692 773.623 161.992 778.467 163.288C781.289 164.045 784.103 164.801 786.959 165.583C790.181 166.446 793.425 167.339 796.677 168.227C808.565 171.487 820.858 174.857 833.04 177.199C838.024 178.219 842.945 179.319 847.865 180.42C858.255 182.736 868.995 185.138 879.589 186.578C943.334 197.777 1006.45 202.04 1067.36 199.269C1130.77 196.4 1192.1 185.937 1249.62 168.167C1307.69 150.13 1362.21 123.47 1411.67 88.9389C1413.61 87.5959 1416.26 88.0634 1417.6 89.9844C1418.95 91.9097 1418.48 94.5574 1416.55 95.9047C1366.37 130.942 1311.05 157.984 1252.15 176.285C1193.92 194.271 1131.88 204.862 1067.75 207.76C1055.61 208.313 1043.37 208.589 1031.07 208.589C981.039 208.589 929.799 204.029 878.274 194.972C867.488 193.51 856.566 191.071 846.01 188.716C841.136 187.624 836.266 186.536 831.38 185.537C818.925 183.14 806.467 179.727 794.421 176.425C791.19 175.537 787.955 174.653 784.72 173.786C781.864 172.995 779.059 172.252 776.258 171.499C771.367 170.186 766.468 168.873 761.369 167.402L687.242 145.375C527.653 98.9562 395.361 74.2127 270.922 67.5189C198.357 63.4772 125.856 64.9774 55.4323 72.0154C-16.2812 80.2349 -87.7905 94.5107 -157.052 114.426C-159.304 115.068 -161.671 113.776 -162.322 111.519C-162.973 109.262 -161.671 106.912 -159.41 106.258C-89.6974 86.2104 -17.7157 71.8454 54.5214 63.5622" fill="white"/>
</mask>
<g mask="url(#mask3)">
<path fill-rule="evenodd" clip-rule="evenodd" d="M1031.07 208.589C981.039 208.589 929.799 204.029 878.274 194.972C867.488 193.51 856.566 191.071 846.01 188.716C841.136 187.624 836.266 186.536 831.38 185.537C818.925 183.14 806.467 179.727 794.421 176.425C791.19 175.537 787.955 174.653 784.72 173.786C781.864 172.995 779.059 172.252 776.258 171.499C771.367 170.186 766.468 168.873 761.369 167.402L687.242 145.375C527.653 98.9562 395.361 74.2127 270.922 67.5189C198.357 63.4772 125.856 64.9774 55.4323 72.0154C-16.2812 80.2349 -87.7905 94.5107 -157.052 114.426C-159.304 115.068 -161.671 113.776 -162.322 111.519C-162.973 109.262 -161.671 106.912 -159.41 106.258C-89.6974 86.2104 -17.7157 71.8454 54.5214 63.5622C125.452 56.4689 198.391 54.9474 271.39 59.0359C396.489 65.7637 529.394 90.6092 689.643 137.223L763.774 159.247C768.775 160.692 773.623 161.992 778.467 163.288C781.289 164.045 784.103 164.801 786.959 165.583C790.181 166.446 793.425 167.339 796.677 168.227C808.565 171.487 820.858 174.857 833.04 177.199C838.024 178.219 842.945 179.319 847.865 180.42C858.255 182.736 868.995 185.138 879.589 186.578C943.334 197.777 1006.45 202.04 1067.36 199.269C1130.77 196.4 1192.1 185.937 1249.62 168.167C1307.69 150.13 1362.21 123.47 1411.67 88.9389C1413.61 87.5959 1416.26 88.0634 1417.6 89.9844C1418.95 91.9097 1418.48 94.5574 1416.55 95.9047C1366.37 130.942 1311.05 157.984 1252.15 176.285C1193.92 194.271 1131.88 204.862 1067.75 207.76C1055.61 208.313 1043.37 208.589 1031.07 208.589" fill="url(#paint2_linear)"/>
</g>
<mask id="mask4" style="mask-type:alpha" maskUnits="userSpaceOnUse" x="-154" y="86" width="1589" height="151">
<path fill-rule="evenodd" clip-rule="evenodd" d="M270.093 86.846C392.981 93.4505 523.861 117.952 681.968 163.958L755.88 185.926C760.901 187.371 765.854 188.702 770.803 190.032C773.739 190.822 776.671 191.613 779.624 192.425C782.853 193.292 786.108 194.184 789.359 195.072C801.652 198.443 814.362 201.923 826.983 204.363C832.047 205.404 837.042 206.513 842.042 207.631C852.791 210.028 863.896 212.506 874.879 214.015C940.621 225.566 1005.8 229.944 1068.73 227.096C1134.55 224.121 1198.27 213.228 1258.11 194.732C1319 175.799 1376.19 147.808 1428.06 111.543C1429.99 110.2 1432.64 110.667 1433.99 112.588C1435.33 114.509 1434.87 117.161 1432.94 118.504C1380.35 155.275 1322.37 183.648 1260.64 202.85C1200.09 221.563 1135.66 232.579 1069.12 235.588C1056.55 236.161 1043.89 236.446 1031.16 236.446C979.517 236.446 926.672 231.746 873.56 222.413C862.386 220.874 851.101 218.358 840.191 215.927C835.238 214.822 830.285 213.721 825.324 212.697C812.426 210.207 799.555 206.679 787.108 203.271C783.87 202.387 780.632 201.498 777.39 200.627C774.428 199.807 771.509 199.025 768.594 198.243C763.595 196.9 758.59 195.553 753.48 194.082L679.568 172.114C522.124 126.303 391.854 101.904 269.625 95.3333C198.624 91.351 127.708 92.8343 58.8472 99.7108C-11.1326 107.752 -80.921 121.679 -148.509 141.114C-150.765 141.769 -153.126 140.46 -153.777 138.203C-154.424 135.951 -153.122 133.592 -150.863 132.946C-82.8231 113.383 -12.5709 99.358 57.9366 91.2618" fill="white"/>
</mask>
<g mask="url(#mask4)">
<path fill-rule="evenodd" clip-rule="evenodd" d="M1031.16 236.446C979.517 236.446 926.672 231.746 873.56 222.413C862.386 220.874 851.101 218.358 840.191 215.927C835.238 214.822 830.285 213.721 825.324 212.697C812.426 210.207 799.555 206.679 787.108 203.271C783.87 202.387 780.632 201.498 777.39 200.627C774.428 199.807 771.509 199.025 768.594 198.243C763.595 196.9 758.59 195.553 753.48 194.082L679.568 172.114C522.124 126.303 391.854 101.904 269.625 95.3333C198.624 91.351 127.708 92.8343 58.8472 99.7108C-11.1326 107.752 -80.921 121.679 -148.509 141.114C-150.765 141.769 -153.126 140.46 -153.777 138.203C-154.424 135.951 -153.122 133.592 -150.863 132.946C-82.8231 113.383 -12.5709 99.358 57.9366 91.2618C127.299 84.3343 198.662 82.8468 270.093 86.846C392.981 93.4505 523.861 117.952 681.968 163.958L755.88 185.926C760.901 187.371 765.854 188.702 770.803 190.032C773.739 190.822 776.671 191.613 779.624 192.425C782.853 193.292 786.108 194.184 789.359 195.072C801.652 198.443 814.362 201.923 826.983 204.363C832.047 205.404 837.042 206.513 842.042 207.631C852.791 210.028 863.896 212.506 874.879 214.015C940.621 225.566 1005.8 229.944 1068.73 227.096C1134.55 224.121 1198.27 213.228 1258.11 194.732C1319 175.799 1376.19 147.808 1428.06 111.543C1429.99 110.2 1432.64 110.667 1433.99 112.588C1435.33 114.509 1434.87 117.161 1432.94 118.504C1380.35 155.275 1322.37 183.648 1260.64 202.85C1200.09 221.563 1135.66 232.579 1069.12 235.588C1056.55 236.161 1043.89 236.446 1031.16 236.446" fill="url(#paint3_linear)"/>
</g>
<mask id="mask5" style="mask-type:alpha" maskUnits="userSpaceOnUse" x="-146" y="115" width="1598" height="151">
<path fill-rule="evenodd" clip-rule="evenodd" d="M268.482 115.656C389.271 122.146 518.207 146.307 674.243 191.693L747.982 213.598C753.136 215.089 758.312 216.479 763.484 217.873C766.421 218.664 769.358 219.454 772.299 220.262C775.525 221.133 778.777 222.021 782.033 222.914C794.743 226.39 807.887 229.99 820.963 232.527C826.087 233.581 831.152 234.707 836.213 235.838C847.34 238.311 858.845 240.87 870.235 242.451C938.027 254.351 1005.27 258.873 1070.28 255.923C1138.56 252.842 1204.71 241.52 1266.91 222.293C1330.67 202.463 1390.55 173.146 1444.86 135.147C1446.79 133.804 1449.45 134.271 1450.79 136.188C1452.14 138.113 1451.67 140.761 1449.75 142.113C1394.71 180.605 1334.05 210.317 1269.44 230.411C1206.54 249.854 1139.67 261.3 1070.67 264.415C1057.68 265.006 1044.6 265.299 1031.45 265.299C978.157 265.299 923.657 260.458 868.911 250.849C857.325 249.242 845.654 246.641 834.362 244.134C829.343 243.016 824.325 241.898 819.294 240.861C805.946 238.269 792.644 234.627 779.777 231.108C776.542 230.219 773.303 229.335 770.06 228.464C767.11 227.652 764.186 226.866 761.27 226.08C756.043 224.677 750.821 223.266 745.577 221.753L671.838 199.849C516.47 154.654 388.147 130.599 268.018 124.144C198.532 120.259 129.16 121.696 61.815 128.411C-6.45397 136.265 -74.5569 149.852 -140.544 168.798C-142.805 169.436 -145.163 168.144 -145.814 165.891C-146.461 163.63 -145.158 161.28 -142.898 160.63C-76.4638 141.556 -7.89266 127.871 60.9041 119.962" fill="white"/>
</mask>
<g mask="url(#mask5)">
<path fill-rule="evenodd" clip-rule="evenodd" d="M1031.45 265.299C978.157 265.299 923.657 260.458 868.911 250.849C857.325 249.242 845.654 246.641 834.362 244.134C829.343 243.016 824.325 241.898 819.294 240.861C805.946 238.269 792.644 234.627 779.777 231.108C776.542 230.219 773.303 229.335 770.06 228.464C767.11 227.652 764.186 226.866 761.27 226.08C756.043 224.677 750.821 223.266 745.577 221.753L671.838 199.849C516.47 154.654 388.147 130.599 268.018 124.144C198.532 120.259 129.16 121.696 61.815 128.411C-6.45397 136.265 -74.5569 149.852 -140.544 168.798C-142.805 169.436 -145.163 168.144 -145.814 165.891C-146.461 163.63 -145.158 161.28 -142.898 160.63C-76.4638 141.556 -7.89266 127.871 60.9041 119.962C128.747 113.191 198.57 111.746 268.482 115.656C389.271 122.146 518.207 146.307 674.243 191.693L747.982 213.598C753.136 215.089 758.312 216.479 763.484 217.873C766.421 218.664 769.358 219.454 772.299 220.262C775.525 221.133 778.777 222.021 782.033 222.914C794.743 226.39 807.887 229.99 820.963 232.527C826.087 233.581 831.152 234.707 836.213 235.838C847.34 238.311 858.845 240.87 870.235 242.451C938.027 254.351 1005.27 258.873 1070.28 255.923C1138.56 252.842 1204.71 241.52 1266.91 222.293C1330.67 202.463 1390.55 173.146 1444.86 135.147C1446.79 133.804 1449.45 134.271 1450.79 136.188C1452.14 138.113 1451.67 140.761 1449.75 142.113C1394.71 180.605 1334.05 210.317 1269.44 230.411C1206.54 249.854 1139.67 261.3 1070.67 264.415C1057.68 265.006 1044.6 265.299 1031.45 265.299" fill="url(#paint4_linear)"/>
</g>
<mask id="mask6" style="mask-type:alpha" maskUnits="userSpaceOnUse" x="-138" y="143" width="1606" height="151">
<path fill-rule="evenodd" clip-rule="evenodd" d="M267.192 143.462C273.311 143.93 279.345 144.329 285.379 144.729C296.033 145.438 307.05 146.169 317.892 147.236L368.327 152.88L418.648 160.398C429.494 162.094 440.408 164.155 450.961 166.149C456.875 167.266 462.79 168.388 468.713 169.447C528.718 181.16 593.416 197.178 666.578 218.424L740.101 240.277C745.348 241.79 750.701 243.235 756.054 244.68C759.037 245.479 762.011 246.287 764.977 247.103C768.202 247.97 771.453 248.858 774.695 249.746C787.822 253.337 801.396 257.052 814.918 259.691C820.122 260.766 825.262 261.905 830.403 263.049C841.883 265.603 853.754 268.242 865.537 269.883C935.324 282.144 1004.62 286.793 1071.66 283.755C1142.36 280.554 1210.91 268.812 1275.4 248.854C1341.99 228.131 1404.52 197.48 1461.25 157.759C1463.17 156.403 1465.83 156.875 1467.17 158.796C1468.52 160.717 1468.06 163.369 1466.13 164.712C1408.68 204.947 1345.36 235.989 1277.93 256.971C1212.73 277.146 1143.47 289.012 1072.05 292.246C1058.64 292.858 1045.15 293.16 1031.58 293.16C976.671 293.16 920.546 288.175 864.209 278.276C852.24 276.61 840.198 273.933 828.552 271.345C823.454 270.214 818.356 269.079 813.246 268.025C799.451 265.331 785.724 261.574 772.448 257.944C769.21 257.06 765.977 256.176 762.738 255.305C759.76 254.481 756.798 253.686 753.837 252.883C748.433 251.429 743.033 249.971 737.702 248.433L664.182 226.579C591.289 205.41 526.829 189.456 467.147 177.798C461.262 176.744 455.322 175.626 449.382 174.504C438.889 172.519 428.043 170.475 417.358 168.801L367.225 161.308L317.002 155.689C306.352 154.644 295.404 153.913 284.813 153.212C278.753 152.808 272.69 152.408 266.631 151.941C198.826 148.163 131.034 149.557 65.2295 156.11C-1.32839 163.786 -67.7076 177.037 -132.002 195.486C-134.257 196.141 -136.614 194.828 -137.265 192.575C-137.916 190.318 -136.61 187.964 -134.351 187.318C-69.6096 168.737 -2.7666 155.392 64.3232 147.661" fill="white"/>
</mask>
<g mask="url(#mask6)">
<path fill-rule="evenodd" clip-rule="evenodd" d="M1031.58 293.16C976.671 293.16 920.546 288.175 864.209 278.276C852.24 276.61 840.198 273.933 828.552 271.345C823.454 270.214 818.356 269.079 813.246 268.025C799.451 265.331 785.724 261.574 772.448 257.944C769.21 257.06 765.977 256.176 762.738 255.305C759.76 254.481 756.798 253.686 753.837 252.883C748.433 251.429 743.033 249.971 737.702 248.433L664.182 226.579C591.289 205.41 526.829 189.456 467.147 177.798C461.262 176.744 455.322 175.626 449.382 174.504C438.889 172.519 428.043 170.475 417.358 168.801L367.225 161.308L317.002 155.689C306.352 154.644 295.404 153.913 284.813 153.212C278.753 152.808 272.69 152.408 266.631 151.941C198.826 148.163 131.034 149.557 65.2295 156.11C-1.32839 163.786 -67.7076 177.037 -132.002 195.486C-134.257 196.141 -136.614 194.828 -137.265 192.575C-137.916 190.318 -136.61 187.964 -134.351 187.318C-69.6096 168.737 -2.7666 155.392 64.3232 147.661C130.621 141.052 198.86 139.65 267.192 143.462C273.311 143.93 279.345 144.329 285.379 144.729C296.033 145.438 307.05 146.169 317.892 147.236L368.327 152.88L418.648 160.398C429.494 162.094 440.408 164.155 450.961 166.149C456.875 167.266 462.79 168.388 468.713 169.447C528.718 181.16 593.416 197.178 666.578 218.424L740.101 240.277C745.348 241.79 750.701 243.235 756.054 244.68C759.037 245.479 762.011 246.287 764.977 247.103C768.202 247.97 771.453 248.858 774.695 249.746C787.822 253.337 801.396 257.052 814.918 259.691C820.122 260.766 825.262 261.905 830.403 263.049C841.883 265.603 853.754 268.242 865.537 269.883C935.324 282.144 1004.62 286.793 1071.66 283.755C1142.36 280.554 1210.91 268.812 1275.4 248.854C1341.99 228.131 1404.52 197.48 1461.25 157.759C1463.17 156.403 1465.83 156.875 1467.17 158.796C1468.52 160.717 1468.06 163.369 1466.13 164.712C1408.68 204.947 1345.36 235.989 1277.93 256.971C1212.73 277.146 1143.47 289.012 1072.05 292.246C1058.64 292.858 1045.15 293.16 1031.58 293.16" fill="url(#paint5_linear)"/>
</g>
<mask id="mask7" style="mask-type:alpha" maskUnits="userSpaceOnUse" x="-130" y="171" width="1614" height="151">
<path fill-rule="evenodd" clip-rule="evenodd" d="M265.017 171.272C271.029 171.731 276.952 172.127 282.879 172.518C293.295 173.206 304.06 173.92 314.667 174.966L364.121 180.499L413.528 187.886C424.157 189.543 434.862 191.57 445.222 193.525C451.06 194.626 456.902 195.731 462.748 196.777C521.89 208.328 585.781 224.151 658.138 245.159L731.462 266.953C736.806 268.495 742.358 269.996 747.903 271.496C750.911 272.308 753.915 273.119 756.893 273.944L766.594 276.579C780.137 280.285 794.144 284.11 808.13 286.851C813.397 287.943 818.597 289.095 823.8 290.247C835.654 292.886 847.917 295.606 860.107 297.323C931.899 309.933 1003.27 314.731 1072.36 311.582C1145.48 308.275 1216.44 296.108 1283.27 275.419C1352.71 253.799 1417.91 221.818 1477.05 180.363C1478.98 179.012 1481.63 179.479 1482.98 181.4C1484.33 183.321 1483.87 185.969 1481.94 187.32C1422.07 229.281 1356.08 261.653 1285.79 283.536C1218.27 304.442 1146.59 316.733 1072.75 320.073C1058.92 320.702 1044.99 321.017 1031.01 321.017C974.455 321.017 916.709 315.896 858.779 305.717C846.398 303.979 833.969 301.22 821.954 298.551C816.793 297.4 811.631 296.256 806.449 295.185C792.2 292.389 778.04 288.521 764.347 284.777L754.655 282.142C751.668 281.318 748.677 280.506 745.682 279.703C740.082 278.19 734.487 276.677 729.062 275.108L655.739 253.314C583.653 232.383 520.001 216.62 461.182 205.132C455.374 204.095 449.507 202.986 443.635 201.881C433.351 199.934 422.71 197.92 412.243 196.288L363.015 188.931L313.778 183.423C303.362 182.395 292.665 181.685 282.317 180.996C276.361 180.605 270.408 180.21 264.456 179.751C198.225 176.049 131.998 177.426 67.7036 183.806C2.88126 191.294 -61.7964 204.206 -124.457 222.166C-126.717 222.816 -129.074 221.516 -129.721 219.251C-130.372 216.998 -129.065 214.644 -126.806 213.998C-63.6941 195.905 1.43887 182.909 66.7974 175.352" fill="white"/>
</mask>
<g mask="url(#mask7)">
<path fill-rule="evenodd" clip-rule="evenodd" d="M1031.01 321.017C974.455 321.017 916.709 315.896 858.779 305.717C846.398 303.979 833.969 301.22 821.954 298.551C816.793 297.4 811.631 296.256 806.449 295.185C792.2 292.389 778.04 288.521 764.347 284.777L754.655 282.142C751.668 281.318 748.677 280.506 745.682 279.703C740.082 278.19 734.487 276.677 729.062 275.108L655.739 253.314C583.653 232.383 520.001 216.62 461.182 205.132C455.374 204.095 449.507 202.986 443.635 201.881C433.351 199.934 422.71 197.92 412.243 196.288L363.015 188.931L313.778 183.423C303.362 182.395 292.665 181.685 282.317 180.996C276.361 180.605 270.408 180.21 264.456 179.751C198.225 176.049 131.998 177.426 67.7036 183.806C2.88126 191.294 -61.7964 204.206 -124.457 222.166C-126.717 222.816 -129.074 221.516 -129.721 219.251C-130.372 216.998 -129.065 214.644 -126.806 213.998C-63.6941 195.905 1.43887 182.909 66.7974 175.352C131.594 168.922 198.263 167.545 265.017 171.272C271.029 171.731 276.952 172.127 282.879 172.518C293.295 173.206 304.06 173.92 314.667 174.966L364.121 180.499L413.528 187.886C424.157 189.543 434.862 191.57 445.222 193.525C451.06 194.626 456.902 195.731 462.748 196.777C521.89 208.328 585.781 224.151 658.138 245.159L731.462 266.953C736.806 268.495 742.358 269.996 747.903 271.496C750.911 272.308 753.915 273.119 756.893 273.944L766.594 276.579C780.137 280.285 794.144 284.11 808.13 286.851C813.397 287.943 818.597 289.095 823.8 290.247C835.654 292.886 847.917 295.606 860.107 297.323C931.899 309.933 1003.27 314.731 1072.36 311.582C1145.48 308.275 1216.44 296.108 1283.27 275.419C1352.71 253.799 1417.91 221.818 1477.05 180.363C1478.98 179.012 1481.63 179.479 1482.98 181.4C1484.33 183.321 1483.87 185.969 1481.94 187.32C1422.07 229.281 1356.08 261.653 1285.79 283.536C1218.27 304.442 1146.59 316.733 1072.75 320.073C1058.92 320.702 1044.99 321.017 1031.01 321.017" fill="url(#paint6_linear)"/>
</g>
<mask id="mask8" style="mask-type:alpha" maskUnits="userSpaceOnUse" x="-122" y="200" width="1623" height="150">
<path fill-rule="evenodd" clip-rule="evenodd" d="M263.296 200.082C269.317 200.546 275.249 200.941 281.176 201.328C291.239 201.999 301.647 202.683 311.91 203.695L360.383 209.114L408.882 216.364C419.264 217.988 429.736 219.968 439.863 221.881C445.662 222.977 451.458 224.074 457.257 225.111C515.585 236.505 578.67 252.132 650.193 272.893L723.328 294.632C728.783 296.209 734.54 297.769 740.301 299.324C743.322 300.14 746.344 300.96 749.326 301.781L758.994 304.407C772.967 308.228 787.413 312.172 801.859 315.011C807.195 316.12 812.467 317.293 817.739 318.458C829.963 321.173 842.605 323.974 855.195 325.755C929.007 338.722 1002.45 343.652 1073.6 340.413C1149.18 336.988 1222.56 324.391 1291.69 302.979C1364 280.463 1431.87 247.147 1493.44 203.967C1495.36 202.615 1498.01 203.083 1499.36 205.008C1500.72 206.925 1500.25 209.577 1498.33 210.924C1436.05 254.61 1367.37 288.312 1294.22 311.101C1224.38 332.725 1150.29 345.449 1073.98 348.905C1059.74 349.551 1045.39 349.878 1030.99 349.878C972.796 349.878 913.408 344.608 853.859 334.149C841.082 332.347 828.278 329.503 815.892 326.758C810.658 325.598 805.42 324.433 800.169 323.345C785.464 320.455 770.865 316.464 756.751 312.61L747.088 309.983C744.093 309.154 741.084 308.343 738.072 307.531C732.268 305.958 726.46 304.386 720.92 302.784L647.797 281.049C576.543 260.36 513.7 244.797 455.696 233.466C449.934 232.438 444.105 231.337 438.28 230.232C428.221 228.332 417.818 226.364 407.597 224.771L359.277 217.546L311.021 212.148C300.945 211.158 290.609 210.474 280.619 209.811C274.653 209.42 268.692 209.024 262.73 208.565C198.041 204.953 133.374 206.279 70.6205 212.501C7.52278 219.807 -55.4515 232.374 -116.494 249.85C-118.754 250.487 -121.111 249.195 -121.758 246.939C-122.404 244.686 -121.098 242.327 -118.839 241.686C-57.3535 224.078 6.08459 211.417 69.7099 204.052" fill="white"/>
</mask>
<g mask="url(#mask8)">
<path fill-rule="evenodd" clip-rule="evenodd" d="M1030.99 349.878C972.796 349.878 913.408 344.608 853.859 334.149C841.082 332.347 828.278 329.503 815.892 326.758C810.658 325.598 805.42 324.433 800.169 323.345C785.464 320.455 770.865 316.464 756.751 312.61L747.088 309.983C744.093 309.154 741.084 308.343 738.072 307.531C732.268 305.958 726.46 304.386 720.92 302.784L647.797 281.049C576.543 260.36 513.7 244.797 455.696 233.466C449.934 232.438 444.105 231.337 438.28 230.232C428.221 228.332 417.818 226.364 407.597 224.771L359.277 217.546L311.021 212.148C300.945 211.158 290.609 210.474 280.619 209.811C274.653 209.42 268.692 209.024 262.73 208.565C198.041 204.953 133.374 206.279 70.6205 212.501C7.52278 219.807 -55.4515 232.374 -116.494 249.85C-118.754 250.487 -121.111 249.195 -121.758 246.939C-122.404 244.686 -121.098 242.327 -118.839 241.686C-57.3535 224.078 6.08459 211.417 69.7099 204.052C132.969 197.775 198.08 196.444 263.296 200.082C269.317 200.546 275.249 200.941 281.176 201.328C291.239 201.999 301.647 202.683 311.91 203.695L360.383 209.114L408.882 216.364C419.264 217.988 429.736 219.968 439.863 221.881C445.662 222.977 451.458 224.074 457.257 225.111C515.585 236.505 578.67 252.132 650.193 272.893L723.328 294.632C728.783 296.209 734.54 297.769 740.301 299.324C743.322 300.14 746.344 300.96 749.326 301.781L758.994 304.407C772.967 308.228 787.413 312.172 801.859 315.011C807.195 316.12 812.467 317.293 817.739 318.458C829.963 321.173 842.605 323.974 855.195 325.755C929.007 338.722 1002.45 343.652 1073.6 340.413C1149.18 336.988 1222.56 324.391 1291.69 302.979C1364 280.463 1431.87 247.147 1493.44 203.967C1495.36 202.615 1498.01 203.083 1499.36 205.008C1500.72 206.925 1500.25 209.577 1498.33 210.924C1436.05 254.61 1367.37 288.312 1294.22 311.101C1224.38 332.725 1150.29 345.449 1073.98 348.905C1059.74 349.551 1045.39 349.878 1030.99 349.878" fill="url(#paint7_linear)"/>
</g>
<mask id="mask9" style="mask-type:alpha" maskUnits="userSpaceOnUse" x="-114" y="225" width="1631" height="153">
<path fill-rule="evenodd" clip-rule="evenodd" d="M1516.17 227.036C1517.52 228.964 1517.06 231.626 1515.13 232.983C1450.43 278.566 1379.09 313.731 1303.09 337.505C1230.92 359.945 1154.41 373.144 1075.68 376.723C1061.01 377.389 1046.25 377.721 1031.41 377.721C971.591 377.721 910.569 372.295 849.432 361.519C836.221 359.633 823.009 356.69 810.232 353.853C804.956 352.68 799.676 351.507 794.379 350.402C779.177 347.386 764.106 343.252 749.534 339.259L731.161 334.238C725.086 332.587 718.993 330.931 713.287 329.276L640.356 307.511C569.901 286.983 507.871 271.552 450.733 260.35C444.985 259.321 439.173 258.221 433.361 257.116C423.554 255.256 413.419 253.332 403.479 251.775L356.073 244.659L308.798 239.356C298.99 238.379 288.932 237.714 279.206 237.07C273.321 236.681 267.437 236.289 261.553 235.833C198.399 232.304 135.296 233.593 74.0912 239.676C12.6989 246.83 -48.5742 259.104 -107.95 276.147C-110.222 276.778 -112.566 275.485 -113.213 273.22C-113.86 270.955 -112.553 268.592 -110.294 267.947C-50.4719 250.777 11.2565 238.409 73.1806 231.195C134.892 225.065 198.437 223.764 262.119 227.322C268.067 227.778 273.917 228.171 279.767 228.559C289.562 229.207 299.688 229.877 309.691 230.871L357.175 236.199L404.764 243.337C414.865 244.923 425.072 246.86 434.944 248.733C440.726 249.829 446.508 250.93 452.295 251.962C509.755 263.229 572.028 278.715 642.756 299.324L715.687 321.09C721.312 322.724 727.358 324.366 733.387 326.004L751.78 331.025C766.208 334.984 781.13 339.075 796.072 342.036C801.446 343.162 806.76 344.34 812.075 345.526C824.694 348.333 837.748 351.229 850.768 353.094C926.588 366.455 1002.08 371.54 1075.29 368.195C1153.31 364.646 1229.09 351.579 1300.56 329.353C1375.71 305.851 1446.26 271.074 1510.24 225.999" fill="white"/>
</mask>
<g mask="url(#mask9)">
<path fill-rule="evenodd" clip-rule="evenodd" d="M1031.41 377.721C971.591 377.721 910.569 372.295 849.432 361.519C836.221 359.633 823.009 356.69 810.232 353.853C804.956 352.68 799.676 351.507 794.379 350.402C779.177 347.386 764.106 343.252 749.534 339.259L731.161 334.238C725.086 332.587 718.993 330.931 713.287 329.276L640.356 307.511C569.901 286.983 507.871 271.552 450.733 260.35C444.985 259.321 439.173 258.221 433.361 257.116C423.554 255.256 413.419 253.332 403.479 251.775L356.073 244.659L308.798 239.356C298.99 238.379 288.932 237.714 279.206 237.07C273.321 236.681 267.437 236.289 261.553 235.833C198.399 232.304 135.296 233.593 74.0912 239.676C12.6989 246.83 -48.5742 259.104 -107.95 276.147C-110.222 276.778 -112.566 275.485 -113.213 273.22C-113.86 270.955 -112.553 268.592 -110.294 267.947C-50.4719 250.777 11.2565 238.409 73.1806 231.195C134.892 225.065 198.437 223.764 262.119 227.322C268.067 227.778 273.917 228.171 279.767 228.559C289.562 229.207 299.688 229.877 309.691 230.871L357.175 236.199L404.764 243.337C414.865 244.923 425.072 246.86 434.944 248.733C440.726 249.829 446.508 250.93 452.295 251.962C509.755 263.229 572.028 278.715 642.756 299.324L715.687 321.09C721.312 322.724 727.358 324.366 733.387 326.004L751.78 331.025C766.208 334.984 781.13 339.075 796.072 342.036C801.446 343.162 806.76 344.34 812.075 345.526C824.694 348.333 837.748 351.229 850.768 353.094C926.588 366.455 1002.08 371.54 1075.29 368.195C1153.31 364.646 1229.09 351.579 1300.56 329.353C1375.71 305.851 1446.26 271.074 1510.24 225.999C1512.17 224.638 1514.82 225.116 1516.17 227.036C1517.52 228.964 1517.06 231.626 1515.13 232.983C1450.43 278.566 1379.09 313.731 1303.09 337.505C1230.92 359.945 1154.41 373.144 1075.68 376.723C1061.01 377.389 1046.25 377.721 1031.41 377.721" fill="url(#paint8_linear)"/>
</g>
<mask id="mask10" style="mask-type:alpha" maskUnits="userSpaceOnUse" x="-106" y="249" width="1640" height="157">
<path fill-rule="evenodd" clip-rule="evenodd" d="M1532.55 250.88C1533.91 252.798 1533.44 255.441 1531.52 256.791C1464.37 303.861 1390.32 340.17 1311.45 364.705C1236.93 387.758 1157.99 401.303 1076.8 404.973C1061.71 405.66 1046.52 406 1031.26 406C969.786 406 907.111 400.462 844.335 389.46C830.728 387.516 817.134 384.516 803.987 381.614C798.637 380.426 793.283 379.246 787.908 378.126C772.284 375.037 756.813 370.823 741.853 366.746L711.567 358.51C709.196 357.869 706.847 357.228 704.855 356.609L632.179 335.049C562.562 314.872 501.314 299.719 444.963 288.729C439.294 287.724 433.553 286.642 427.812 285.555C418.206 283.744 408.272 281.868 398.543 280.357L352.032 273.411L305.722 268.243C296.206 267.305 286.451 266.66 277.015 266.045C271.18 265.659 265.345 265.273 259.506 264.823C197.899 261.411 136.344 262.655 76.6316 268.536C16.9532 275.465 -42.6358 287.329 -100.403 303.801C-102.667 304.421 -105.017 303.139 -105.664 300.891C-106.311 298.633 -105.004 296.287 -102.744 295.637C-44.5298 279.042 15.5104 267.089 75.7208 260.096C135.94 254.16 197.938 252.908 260.072 256.358C265.975 256.812 271.776 257.194 277.577 257.576C287.081 258.199 296.904 258.844 306.616 259.803L353.139 264.997L399.828 271.964C409.719 273.505 419.721 275.393 429.395 277.222C435.106 278.295 440.818 279.373 446.525 280.391C503.203 291.437 564.691 306.649 634.575 326.906L707.341 348.491C709.29 349.098 711.537 349.709 713.806 350.324L744.092 358.56C758.916 362.596 774.233 366.775 789.606 369.814C795.054 370.946 800.442 372.135 805.826 373.327C818.82 376.195 832.252 379.161 845.68 381.079C923.548 394.721 1001.14 399.911 1076.41 396.495C1156.88 392.859 1235.11 379.437 1308.93 356.6C1386.94 332.329 1460.19 296.41 1526.63 249.844" fill="white"/>
</mask>
<g mask="url(#mask10)">
<path fill-rule="evenodd" clip-rule="evenodd" d="M1031.26 406C969.786 406 907.111 400.462 844.335 389.46C830.728 387.516 817.134 384.516 803.987 381.614C798.637 380.426 793.283 379.246 787.908 378.126C772.284 375.037 756.813 370.823 741.853 366.746L711.567 358.51C709.196 357.869 706.847 357.228 704.855 356.609L632.179 335.049C562.562 314.872 501.314 299.719 444.963 288.729C439.294 287.724 433.553 286.642 427.812 285.555C418.206 283.744 408.272 281.868 398.543 280.357L352.032 273.411L305.722 268.243C296.206 267.305 286.451 266.66 277.015 266.045C271.18 265.659 265.345 265.273 259.506 264.823C197.899 261.411 136.344 262.655 76.6316 268.536C16.9532 275.465 -42.6358 287.329 -100.403 303.801C-102.667 304.421 -105.017 303.139 -105.664 300.891C-106.311 298.633 -105.004 296.287 -102.744 295.637C-44.5298 279.042 15.5104 267.089 75.7208 260.096C135.94 254.16 197.938 252.908 260.072 256.358C265.975 256.812 271.776 257.194 277.577 257.576C287.081 258.199 296.904 258.844 306.616 259.803L353.139 264.997L399.828 271.964C409.719 273.505 419.721 275.393 429.395 277.222C435.106 278.295 440.818 279.373 446.525 280.391C503.203 291.437 564.691 306.649 634.575 326.906L707.341 348.491C709.29 349.098 711.537 349.709 713.806 350.324L744.092 358.56C758.916 362.596 774.233 366.775 789.606 369.814C795.054 370.946 800.442 372.135 805.826 373.327C818.82 376.195 832.252 379.161 845.68 381.079C923.548 394.721 1001.14 399.911 1076.41 396.495C1156.88 392.859 1235.11 379.437 1308.93 356.6C1386.94 332.329 1460.19 296.41 1526.63 249.844C1528.55 248.499 1531.21 248.957 1532.55 250.88C1533.91 252.798 1533.44 255.441 1531.52 256.791C1464.37 303.861 1390.32 340.17 1311.45 364.705C1236.93 387.758 1157.99 401.303 1076.8 404.973C1061.71 405.66 1046.52 406 1031.26 406" fill="url(#paint9_linear)"/>
</g>
</g>
</g>
<defs>
<linearGradient id="paint0_linear" x1="-175.872" y1="158.834" x2="1530.67" y2="158.834" gradientUnits="userSpaceOnUse">
<stop/>
<stop offset="1" stop-color="#AAA893"/>
</linearGradient>
<linearGradient id="paint1_linear" x1="-175.966" y1="186.255" x2="1531.11" y2="186.255" gradientUnits="userSpaceOnUse">
<stop/>
<stop offset="1" stop-color="#AAA893"/>
</linearGradient>
<linearGradient id="paint2_linear" x1="-176.48" y1="214.673" x2="1531.13" y2="214.673" gradientUnits="userSpaceOnUse">
<stop/>
<stop offset="1" stop-color="#AAA893"/>
</linearGradient>
<linearGradient id="paint3_linear" x1="-175.986" y1="242.1" x2="1531.07" y2="242.1" gradientUnits="userSpaceOnUse">
<stop/>
<stop offset="1" stop-color="#AAA893"/>
</linearGradient>
<linearGradient id="paint4_linear" x1="-176.086" y1="270.526" x2="1531.49" y2="270.526" gradientUnits="userSpaceOnUse">
<stop/>
<stop offset="1" stop-color="#AAA893"/>
</linearGradient>
<linearGradient id="paint5_linear" x1="-175.587" y1="297.965" x2="1531.44" y2="297.965" gradientUnits="userSpaceOnUse">
<stop/>
<stop offset="1" stop-color="#AAA893"/>
</linearGradient>
<linearGradient id="paint6_linear" x1="-176.096" y1="325.404" x2="1530.84" y2="325.404" gradientUnits="userSpaceOnUse">
<stop/>
<stop offset="1" stop-color="#AAA893"/>
</linearGradient>
<linearGradient id="paint7_linear" x1="-176.188" y1="353.852" x2="1530.82" y2="353.852" gradientUnits="userSpaceOnUse">
<stop/>
<stop offset="1" stop-color="#AAA893"/>
</linearGradient>
<linearGradient id="paint8_linear" x1="-175.695" y1="381.303" x2="1531.22" y2="381.303" gradientUnits="userSpaceOnUse">
<stop/>
<stop offset="1" stop-color="#AAA893"/>
</linearGradient>
<linearGradient id="paint9_linear" x1="-176.226" y1="409.268" x2="1531.2" y2="409.268" gradientUnits="userSpaceOnUse">
<stop/>
<stop offset="1" stop-color="#AAA893"/>
</linearGradient>
</defs>
</svg>
