<svg width="76" height="77" viewBox="0 0 76 77" fill="none" xmlns="http://www.w3.org/2000/svg">
<rect y="0.0205078" width="76" height="76" rx="38" fill="#F8F8F8"/>
<path fill-rule="evenodd" clip-rule="evenodd" d="M40.2916 29.5181C40.2877 29.5181 40.284 29.5181 40.2804 29.5181C39.9348 29.512 39.6596 29.2271 39.6659 28.8821C39.6855 27.7791 40.1652 26.7046 41.0173 25.8572C41.8696 25.0093 42.9479 24.5337 44.0536 24.5181C44.0749 24.5178 44.0974 24.5176 44.1194 24.5176C44.465 24.5176 44.7451 24.7976 44.7451 25.1426C44.7451 25.4878 44.465 25.7676 44.1194 25.7676C44.1035 25.7676 44.0874 25.7678 44.0717 25.7681C43.292 25.7791 42.5212 26.1252 41.9003 26.7427C41.28 27.3599 40.9308 28.1274 40.9171 28.9043C40.911 29.2456 40.6321 29.5181 40.2916 29.5181V29.5181Z" fill="#00AFA3"/>
<path fill-rule="evenodd" clip-rule="evenodd" d="M44.1197 33.8367C43.9163 33.8367 43.7257 33.7379 43.6084 33.5718L42.2768 31.6863C42.0776 31.4044 42.145 31.0142 42.4273 30.8152C42.7099 30.6163 43.1002 30.6837 43.2994 30.9659L44.1197 32.1275L44.9397 30.9659C45.1389 30.6837 45.5295 30.6163 45.8118 30.8152C46.0941 31.0142 46.1615 31.4041 45.9626 31.6863L44.631 33.5718C44.5137 33.7379 44.323 33.8367 44.1197 33.8367V33.8367Z" fill="#00AFA3"/>
<path fill-rule="evenodd" clip-rule="evenodd" d="M53.3742 54.0206C53.3334 54.0206 53.2928 54.0162 53.2522 54.0082C53.2122 54.0006 53.1726 53.9882 53.1352 53.9725C53.0975 53.9569 53.0614 53.9376 53.0269 53.9149C52.9932 53.8925 52.9607 53.8663 52.9318 53.8375C52.903 53.8087 52.8768 53.777 52.8541 53.7426C52.8316 53.7089 52.8123 53.6725 52.7967 53.6344C52.781 53.5968 52.769 53.5575 52.761 53.5175C52.7529 53.4774 52.749 53.4362 52.749 53.3956C52.749 53.3551 52.7529 53.3138 52.761 53.2738C52.769 53.2338 52.781 53.1945 52.7967 53.1569C52.8123 53.1188 52.8316 53.0824 52.8541 53.0487C52.8768 53.0143 52.903 52.9825 52.9318 52.9537C52.9607 52.9249 52.9932 52.8988 53.0269 52.8763C53.0614 52.8536 53.0975 52.8344 53.1352 52.8187C53.1726 52.8031 53.2122 52.7906 53.2522 52.7831C53.3329 52.767 53.416 52.767 53.4969 52.7831C53.5367 52.7906 53.5763 52.8031 53.6137 52.8187C53.6514 52.8344 53.6875 52.8536 53.722 52.8763C53.7557 52.8988 53.7885 52.9249 53.8171 52.9537C53.8459 52.9825 53.8723 53.0143 53.8948 53.0487C53.9173 53.0824 53.9366 53.1188 53.9522 53.1569C53.9679 53.1945 53.9799 53.2338 53.9879 53.2738C53.996 53.3138 53.9999 53.3551 53.9999 53.3956C53.9999 53.4362 53.996 53.4774 53.9879 53.5175C53.9799 53.5575 53.9679 53.5968 53.9522 53.6344C53.9366 53.6725 53.9173 53.7089 53.8948 53.7426C53.8723 53.777 53.8459 53.8087 53.8171 53.8375C53.7885 53.8663 53.7557 53.8925 53.722 53.9149C53.6875 53.9376 53.6514 53.9569 53.6137 53.9725C53.5763 53.9882 53.5367 54.0006 53.4969 54.0082C53.4561 54.0162 53.4155 54.0206 53.3742 54.0206Z" fill="#00AFA3"/>
<path fill-rule="evenodd" clip-rule="evenodd" d="M40.2451 34.7317C41.0788 35.2917 41.5241 36.0325 42.0564 36.9631V38.6675C42.0564 39.0127 42.3365 39.2925 42.6821 39.2925H45.5569C45.9025 39.2925 46.1826 39.0127 46.1826 38.6675V36.9666C46.7177 36.0334 47.1647 35.2908 48.0038 34.7253C49.9261 33.4299 51.0739 31.2764 51.0739 28.9648C51.0736 25.1357 47.9542 22.0205 44.1195 22.0205C44.0858 22.0205 44.0518 22.0208 44.0183 22.0212C42.2603 22.0459 40.5679 22.7798 39.2532 24.0879C37.9388 25.3958 37.1975 27.0825 37.1664 28.8376C37.1244 31.2058 38.2751 33.4092 40.2451 34.7317ZM44.9311 38.0425H43.3077V37.4116H44.9311V38.0425ZM38.4176 28.8599C38.443 27.4312 39.0533 26.0508 40.1363 24.9734C41.2195 23.8958 42.6044 23.2913 44.0367 23.271C44.0643 23.2708 44.0919 23.2705 44.1195 23.2705C47.2642 23.2705 49.8225 25.825 49.8225 28.9646C49.8225 30.8601 48.8807 32.6262 47.3038 33.689C46.2985 34.3665 45.741 35.2319 45.2025 36.1616H43.0387C42.5032 35.2344 41.9472 34.3684 40.9431 33.6943C39.3273 32.6094 38.3831 30.802 38.4176 28.8599V28.8599Z" fill="#00AFA3"/>
<path fill-rule="evenodd" clip-rule="evenodd" d="M50.687 52.7705H46.4253V47.7637H47.15C47.3768 47.7637 47.5858 47.6411 47.6965 47.4431C47.807 47.2451 47.8016 47.0029 47.6824 46.8103L44.6519 41.9087C44.5377 41.7244 44.3363 41.6121 44.1195 41.6121C43.9027 41.6121 43.7011 41.7244 43.5872 41.9087L40.5565 46.8103C40.4374 47.0032 40.4321 47.2451 40.5425 47.4431C40.653 47.6411 40.862 47.7637 41.0888 47.7637H41.8135V52.7705H39.273V47.7097C39.273 46.6809 38.4349 45.8438 37.405 45.8438H34.3899C34.3686 45.8438 34.3478 45.845 34.3271 45.8469C34.3249 45.8467 34.3224 45.8464 34.3202 45.8462C34.1631 45.7922 33.7632 45.3252 33.7121 43.8496C34.9014 42.9646 35.6029 41.821 35.8605 41.3462V41.3459C36.1861 40.7454 36.4031 39.114 36.5243 37.7954C37.0848 37.384 37.2102 36.8896 37.2102 36.5303V33.947C37.2102 32.4338 36.6874 31.1138 35.6987 30.1294C34.515 28.9512 32.7222 28.3035 30.6476 28.3035C30.6362 28.3035 30.6247 28.3035 30.6132 28.3035C26.6952 28.3169 24.0629 30.6108 24.0629 34.0115V36.5303C24.0629 36.876 24.1775 37.3511 24.6888 37.7512C24.8078 39.3542 25.0813 40.7153 25.4233 41.3459C25.6806 41.821 26.3821 42.9646 27.5717 43.8496C27.5206 45.3252 27.1207 45.7922 26.9636 45.8462C26.9614 45.8464 26.9592 45.8467 26.9567 45.8469C26.9362 45.845 26.9152 45.8438 26.8939 45.8438H23.8681C22.8381 45.8438 22 46.6809 22 47.7097V53.3955C22 53.7407 22.2801 54.0205 22.6257 54.0205H50.687C51.0326 54.0205 51.3127 53.7407 51.3127 53.3955C51.3127 53.0503 51.0326 52.7705 50.687 52.7705V52.7705ZM30.6175 29.5535C32.3687 29.5471 33.8623 30.0664 34.815 31.0149C35.5737 31.77 35.9584 32.7566 35.9584 33.947V35.665C35.8616 35.6724 35.7661 35.7024 35.68 35.7549C34.9387 36.2075 34.0847 36.4468 33.2107 36.4468C30.6468 36.4468 29.1058 35.5496 28.6299 33.7798C28.5597 33.5188 28.3295 33.3323 28.0592 33.3179C27.7896 33.3035 27.54 33.4639 27.4423 33.7158C27.0431 34.7432 26.2774 35.6143 25.3141 36.1492V34.0115C25.3141 30.7346 28.1711 29.562 30.6175 29.5535ZM26.5236 40.7507C26.2887 40.3176 26.0064 38.9692 25.9101 37.2483C26.7316 36.7942 27.4397 36.147 27.9693 35.3757C28.9157 36.8833 30.7271 37.6968 33.2108 37.6968C33.9328 37.6968 34.6443 37.5674 35.3125 37.3179C35.1759 38.9988 34.933 40.4316 34.7602 40.7507C34.5272 41.1802 33.8636 42.2598 32.7349 43.0088C32.5604 43.1245 32.4556 43.3201 32.4556 43.5293C32.4556 45.1003 32.7894 45.9797 33.172 46.4714C32.8838 46.6787 32.5382 46.9333 32.1838 47.208C31.4364 47.7871 30.9534 48.2197 30.6371 48.5515C30.3218 48.2197 29.8403 47.7876 29.0956 47.2085C28.7427 46.9341 28.3983 46.6799 28.1113 46.4727C28.4941 45.9812 28.8287 45.1018 28.8287 43.5295C28.8287 43.3203 28.7236 43.1248 28.5491 43.009C27.4199 42.2598 26.7566 41.1802 26.5236 40.7507V40.7507ZM23.2514 52.7705V47.7097C23.2514 47.3701 23.5281 47.0938 23.868 47.0938H26.8245C27.1002 47.2852 27.7009 47.709 28.3171 48.1875C29.8753 49.3977 30.039 49.7988 30.0449 49.8147C30.1319 50.0669 30.3692 50.2363 30.6364 50.2363C30.9033 50.2363 31.1408 50.0676 31.2276 49.8154C31.234 49.7991 31.3982 49.3975 32.9612 48.1875C33.5796 47.7087 34.1828 47.2849 34.4588 47.094H37.4049C37.7449 47.094 38.0216 47.3701 38.0216 47.71V52.7705H23.2514ZM43.065 52.7705V47.7637H43.5961C43.9417 47.7637 44.2218 47.4839 44.2218 47.1387C44.2218 46.7935 43.9417 46.5137 43.5961 46.5137H42.2107L44.1196 43.4265L46.0282 46.5137H45.7997C45.4541 46.5137 45.174 46.7935 45.174 47.1387V52.7705H43.065Z" fill="#00AFA3"/>
</svg>
