<svg width="76" height="77" viewBox="0 0 76 77" fill="none" xmlns="http://www.w3.org/2000/svg">
<rect y="0.0205078" width="76" height="76" rx="38" fill="#F8F8F8"/>
<path fill-rule="evenodd" clip-rule="evenodd" d="M30.7039 26.9574H34.3558C34.5348 26.9497 34.6926 26.844 34.7591 26.6869C34.8257 26.5299 34.7888 26.3506 34.6647 26.2285L33.1908 24.8329C35.2494 23.2717 37.9016 22.5856 40.5159 22.938C43.1303 23.2904 45.4729 24.6498 46.9861 26.6924C47.1248 26.8789 47.3975 26.924 47.5951 26.7931C47.7928 26.6621 47.8405 26.4048 47.7018 26.2183C46.0407 23.9759 43.4644 22.4883 40.5927 22.1133C37.7209 21.7383 34.8135 22.5099 32.5696 24.2424L31.0128 22.7735C30.8946 22.6559 30.7112 22.6202 30.5533 22.6841C30.3939 22.7498 30.2935 22.9009 30.3002 23.065V26.5117C30.3002 26.7393 30.4627 26.9574 30.7039 26.9574ZM31.1739 24.0603L32.2326 25.0752C32.2333 25.0759 32.2253 25.0766 32.2261 25.0774C32.238 25.0899 32.2465 25.1181 32.2594 25.129L33.3013 26.1328H31.1739V24.0603Z" fill="#00AFA3"/>
<path fill-rule="evenodd" clip-rule="evenodd" d="M47.3379 49.084H43.6858C43.5068 49.0917 43.3491 49.1975 43.2826 49.3545C43.216 49.5116 43.2529 49.6908 43.377 49.8129L44.8512 51.2085C42.7926 52.7698 40.1404 53.4559 37.526 53.1035C34.9116 52.7511 32.569 51.3917 31.0558 49.349C30.9661 49.2284 30.815 49.162 30.6594 49.175C30.5039 49.1879 30.3675 49.2783 30.3016 49.4119C30.2357 49.5455 30.2504 49.7022 30.34 49.8228C32.0012 52.0652 34.5774 53.5528 37.4492 53.9278C40.3209 54.3027 43.2284 53.5312 45.4722 51.7987L47.029 53.268C47.1539 53.3859 47.3418 53.4212 47.5051 53.3574C47.6683 53.2936 47.7748 53.1432 47.7748 52.9765V49.5297C47.7748 49.3021 47.5791 49.084 47.3379 49.084ZM46.9009 51.9811L45.8256 50.9662L45.8238 50.964C45.812 50.9515 45.7993 50.9233 45.7863 50.9124L44.7404 49.9086H46.9009V51.9811Z" fill="#00AFA3"/>
<path fill-rule="evenodd" clip-rule="evenodd" d="M34.1229 47.6409C34.3642 47.6409 34.5234 47.4373 34.5234 47.2096V44.1876C34.5234 44.1762 34.5411 44.1648 34.5401 44.1533C34.4621 43.2658 33.9017 42.48 33.0599 42.0776C33.0446 42.0707 33.0506 42.0638 33.0345 42.0586L31.3926 41.4919V40.9636C31.3856 40.809 31.2908 40.67 31.1446 40.6001C31.1316 40.5932 31.1095 40.5883 31.096 40.583L31.092 40.5823L30.2411 40.2525C31.8088 39.5736 32.8584 38.1407 32.9773 36.5168C33.6519 36.2343 34.0149 35.5361 33.839 34.8598C33.7501 34.5087 33.4946 34.2159 33.1466 34.0662L33.2233 33.0156C33.3674 31.0436 32.1802 29.1997 30.2592 28.412C28.3382 27.6244 26.0999 28.0637 24.6709 29.5089C23.73 30.4519 23.2516 31.7242 23.3519 33.016L23.4286 34.0651C23.0791 34.2144 22.8224 34.5079 22.7333 34.8601C22.5581 35.5372 22.9222 36.2354 23.5975 36.5175C23.7165 38.1438 24.7693 39.5781 26.3407 40.2548L25.5085 40.5783L25.5103 40.5824C25.4963 40.5878 25.4651 40.5933 25.4516 40.6001C25.3054 40.67 25.2106 40.809 25.2037 40.9636V41.4919L23.557 42.0586C23.5437 42.0641 23.5308 42.0704 23.5184 42.0776C22.671 42.4779 22.1027 43.2628 22.0154 44.1534C22.0144 44.1648 22 44.1762 22 44.1877V47.2097C22.0155 47.4475 22.2209 47.6347 22.4733 47.6409H26.7668L27.985 49.164C28.0694 49.2648 28.1978 49.3238 28.3339 49.3242C28.47 49.3247 28.5988 49.2666 28.684 49.1665L29.9018 47.6409H34.1229ZM29.4119 43.8156C29.4734 43.8438 29.5412 43.8579 29.6096 43.8564C29.7474 43.8556 29.8769 43.7936 29.959 43.6891L31.0815 42.2755L31.9543 42.5722C31.5088 42.9982 31.2346 43.5575 31.1787 44.1537C31.1777 44.165 31.174 44.1762 31.174 44.1876V46.8163H29.9998L29.4119 43.8156ZM25.4222 46.8163V44.1877C25.4222 44.1762 25.4243 44.1648 25.4233 44.1533C25.369 43.556 25.0952 42.9955 24.6493 42.5686L25.5141 42.2742L26.6368 43.6866C26.7759 43.8618 27.0359 43.9038 27.2288 43.7823L27.2671 43.7677L26.6689 46.8163H25.4222ZM29.0857 42.6141L30.3534 41.8165L29.5083 42.88L29.0857 42.6141ZM29.281 41.4892L28.2962 42.1186L27.3151 41.4916V40.5542C27.6337 40.6214 27.9591 40.6547 28.2855 40.6535C28.6205 40.6552 28.9546 40.62 29.281 40.5489V41.4892ZM27.5107 42.6141L27.0884 42.88L26.243 41.8165L27.5107 42.6141ZM33.6498 44.2057V46.8163H32.0479V44.2057C32.1207 43.6835 32.3901 43.2083 32.8488 42.9207C33.3075 43.2083 33.6498 43.6829 33.6498 44.2057ZM25.3095 30.0716C26.4861 28.8819 28.329 28.5203 29.9106 29.1689C31.4921 29.8175 32.4696 31.3356 32.351 32.9592L32.303 33.6165L31.9493 32.2406C31.9437 32.2186 31.9361 32.1971 31.9267 32.1763C31.5915 31.4394 30.8401 30.9477 29.9914 30.9098L29.575 30.8924C29.427 30.8865 29.2858 30.9516 29.1997 31.0654C28.4267 32.09 27.1282 32.6414 25.803 32.5077L25.103 32.4366C24.9387 32.4199 24.7743 32.4666 24.6472 32.5661C24.52 32.6655 24.4408 32.8093 24.4277 32.9647L24.32 34.2364L24.3167 34.2352L24.2235 32.9592C24.1408 31.8956 24.5348 30.848 25.3095 30.0716V30.0716ZM24.461 36.2113C24.461 36.0111 24.3085 35.8398 24.0995 35.8052C23.7893 35.7542 23.5632 35.4997 23.5639 35.2025C23.5638 35.1532 23.5701 35.1041 23.5824 35.0561C23.6018 34.9758 23.651 34.9045 23.7211 34.8553C23.7683 34.8944 23.8204 34.928 23.8762 34.9553C23.8882 34.9612 23.9006 34.9665 23.9132 34.9713C24.5505 35.2123 24.7424 35.2412 24.9398 35.1258C25.06 35.0552 25.1377 34.9352 25.1493 34.8021L25.2779 33.2835L25.7103 33.3274C27.2639 33.484 28.7945 32.8797 29.767 31.7256L29.9536 31.7334C30.4546 31.7558 30.9006 32.04 31.1099 32.4702L31.7673 35.0273C31.8039 35.1696 31.9178 35.283 32.0665 35.325C32.2152 35.367 32.3764 35.3314 32.4899 35.2315L32.849 34.9154C32.8612 34.9046 32.8723 34.893 32.8838 34.8817C32.9367 34.9287 32.9737 34.9894 32.9903 35.0561C33.0329 35.2204 33.0016 35.394 32.904 35.5358C32.8064 35.6776 32.6511 35.7751 32.4747 35.8051C32.2652 35.843 32.1138 36.0161 32.1141 36.2174C32.1123 38.2119 30.3976 39.8274 28.2843 39.8257C26.1709 39.8241 24.4592 38.2058 24.461 36.2113V36.2113ZM22.8737 44.2057C22.9423 43.6821 23.2476 43.2122 23.711 42.9172C24.1744 43.2123 24.4797 43.6822 24.5484 44.2057V46.8163H22.8737V44.2057ZM28.3345 48.22L27.4871 47.154L28.2813 43.1204L28.2981 43.1099L28.3986 43.1732L29.1814 47.1543L28.3345 48.22Z" fill="#00AFA3"/>
<path fill-rule="evenodd" clip-rule="evenodd" d="M52.1512 31.3367C50.9652 30.2745 49.3641 29.7262 47.7323 29.8236C44.7439 30.0091 42.318 32.3535 42.2095 35.1603C42.1414 36.7742 42.8176 38.3367 44.0634 39.4441C44.7996 40.1131 45.1492 41.0758 45.0026 42.0304L44.9449 42.4481C44.9164 42.5809 44.9488 42.719 45.0341 42.828C45.1371 42.961 45.3019 43.0388 45.4764 43.037H45.6633V44.2855C45.6576 44.6663 45.8151 45.0331 46.1002 45.3027C46.3853 45.5722 46.7737 45.7216 47.1772 45.7169H49.0276C49.4312 45.7216 49.8196 45.5722 50.1047 45.3027C50.3897 45.0331 50.5473 44.6663 50.5416 44.2855V43.037H50.6654C50.6712 43.037 50.6837 43.0432 50.6895 43.043C50.8416 43.0409 50.9865 42.9814 51.0918 42.8778C51.1971 42.7742 51.2541 42.6352 51.2502 42.4917C51.2502 42.4879 51.2502 42.4849 51.2497 42.481L51.2093 41.7563V41.7545C51.1443 40.8924 51.4864 40.0472 52.1439 39.4456C52.2263 39.3725 52.3076 39.296 52.3857 39.2182C54.6265 36.9804 54.5214 33.4522 52.151 31.3368L52.1512 31.3367ZM49.0275 44.8923H47.1771C46.8398 44.8923 46.5604 44.6862 46.5125 44.4113H49.692C49.6442 44.6862 49.3648 44.8923 49.0275 44.8923ZM49.6678 43.5867H46.537V43.037H49.6678V43.5867ZM48.1025 38.6309C47.8958 38.631 47.7094 38.5135 47.6303 38.3333C47.5512 38.1531 47.5949 37.9456 47.7411 37.8077C47.8872 37.6698 48.107 37.6285 48.2979 37.7031C48.4889 37.7778 48.6134 37.9536 48.6134 38.1487C48.6131 38.4149 48.3845 38.6306 48.1025 38.6309ZM52.808 37.0533C52.5733 37.6476 52.2139 38.1911 51.7514 38.6512C51.6848 38.7175 51.6156 38.7827 51.5445 38.8457C50.6996 39.6117 50.2575 40.6914 50.3371 41.7945L50.3607 42.2124H48.5029V39.3882C49.0802 39.2228 49.4734 38.7185 49.4689 38.149C49.4705 37.8035 49.3264 37.4715 49.0683 37.2263C48.8103 36.9812 48.4595 36.843 48.0933 36.8423C47.3264 36.8422 46.7027 37.4253 46.6954 38.149C46.7067 38.7041 47.0773 39.1959 47.6292 39.3882V42.2124H45.857L45.8685 42.1348C46.0527 40.9181 45.6042 39.6923 44.6638 38.842C43.6009 37.8988 43.024 36.5667 43.0826 35.191C43.175 32.8001 45.2426 30.8039 47.7861 30.6462C49.4875 30.549 51.1255 31.2705 52.1392 32.5637C53.1529 33.857 53.4047 35.5463 52.8083 37.0533H52.808Z" fill="#00AFA3"/>
</svg>
