<svg width="1440" height="221" viewBox="0 0 1440 221" fill="none" xmlns="http://www.w3.org/2000/svg">
<rect width="1440" height="221" fill="url(#paint0_linear)"/>
<mask id="mask0" style="mask-type:alpha" maskUnits="userSpaceOnUse" x="0" y="0" width="1440" height="221">
<rect width="1440" height="221" fill="white"/>
</mask>
<g mask="url(#mask0)">
<g opacity="0.041196">
<mask id="mask1" style="mask-type:alpha" maskUnits="userSpaceOnUse" x="-101" y="-185" width="1649" height="215">
<path fill-rule="evenodd" clip-rule="evenodd" d="M377.4 -184.521C513.74 -174.525 657.937 -137.9 831.197 -69.237L909.704 -37.4672C911.919 -36.528 913.775 -35.8571 915.609 -35.1984L932.914 -28.8493C936.269 -27.6234 939.627 -26.3609 942.986 -25.1045C954.699 -20.7254 966.807 -16.1938 978.757 -13.1016C983.82 -11.6927 988.816 -10.168 993.807 -8.64322C1004.02 -5.52662 1014.57 -2.30632 1024.93 -0.421725C1087.84 14.6368 1149.98 20.376 1209.82 16.6616C1271.47 12.8742 1330.98 -0.92185 1386.7 -24.3299C1441.86 -47.6587 1493.66 -82.0938 1540.67 -126.684C1542.7 -128.593 1545.5 -127.922 1546.91 -125.171C1548.33 -122.408 1547.82 -118.609 1545.8 -116.675C1498.04 -71.3656 1445.4 -36.3816 1389.35 -12.6808C1332.9 11.0383 1272.63 25.0112 1210.22 28.8475C1198.31 29.5855 1186.29 29.9575 1174.21 29.9575C1124.96 29.9575 1074.45 23.8219 1023.56 11.6361C1012.99 9.71486 1002.24 6.42747 991.847 3.25598C986.905 1.74952 981.973 0.243063 977.022 -1.13532C964.775 -4.30071 952.488 -8.89938 940.609 -13.3456C937.269 -14.5959 933.928 -15.8462 930.587 -17.066L913.3 -23.409C911.372 -24.0981 909.394 -24.8239 907.085 -25.7998L828.663 -57.533C656.108 -125.921 512.552 -162.4 376.906 -172.347C297.203 -178.416 217.535 -176.159 140.104 -165.583C60.925 -153.257 -17.9986 -131.795 -94.42 -101.806C-96.8056 -100.885 -99.2854 -102.745 -99.9715 -105.971C-100.658 -109.204 -99.2854 -112.589 -96.9043 -113.522C-20.0076 -143.706 59.4093 -165.297 139.145 -177.708" fill="white"/>
</mask>
<g mask="url(#mask1)">
<path fill-rule="evenodd" clip-rule="evenodd" d="M1174.21 29.9575C1124.96 29.9575 1074.45 23.8219 1023.56 11.6361C1012.99 9.71486 1002.24 6.42747 991.847 3.25598C986.905 1.74952 981.973 0.243063 977.022 -1.13532C964.775 -4.30071 952.488 -8.89938 940.609 -13.3456C937.269 -14.5959 933.928 -15.8462 930.587 -17.066L913.3 -23.409C911.372 -24.0981 909.394 -24.8239 907.085 -25.7998L828.663 -57.533C656.108 -125.921 512.552 -162.4 376.906 -172.347C297.203 -178.416 217.535 -176.159 140.104 -165.583C60.925 -153.257 -17.9986 -131.795 -94.42 -101.806C-96.8056 -100.885 -99.2854 -102.745 -99.9715 -105.971C-100.658 -109.204 -99.2854 -112.589 -96.9043 -113.522C-20.0076 -143.706 59.4093 -165.297 139.145 -177.708C217.1 -188.363 297.238 -190.644 377.4 -184.521C513.74 -174.525 657.937 -137.9 831.197 -69.237L909.704 -37.4672C911.919 -36.528 913.775 -35.8571 915.609 -35.1984L932.914 -28.8493C936.269 -27.6234 939.627 -26.3609 942.986 -25.1045C954.699 -20.7254 966.807 -16.1938 978.757 -13.1016C983.82 -11.6927 988.816 -10.168 993.807 -8.64322C1004.02 -5.52662 1014.57 -2.30632 1024.93 -0.421725C1087.84 14.6368 1149.98 20.376 1209.82 16.6616C1271.47 12.8742 1330.98 -0.92185 1386.7 -24.3299C1441.86 -47.6587 1493.66 -82.0938 1540.67 -126.684C1542.7 -128.593 1545.5 -127.922 1546.91 -125.171C1548.33 -122.408 1547.82 -118.609 1545.8 -116.675C1498.04 -71.3656 1445.4 -36.3816 1389.35 -12.6808C1332.9 11.0383 1272.63 25.0112 1210.22 28.8475C1198.31 29.5855 1186.29 29.9575 1174.21 29.9575" fill="url(#paint1_linear)"/>
</g>
<mask id="mask2" style="mask-type:alpha" maskUnits="userSpaceOnUse" x="-92" y="-145" width="1658" height="215">
<path fill-rule="evenodd" clip-rule="evenodd" d="M375.716 -144.618C509.83 -134.792 651.982 -98.6431 823.071 -30.8707L901.4 0.819858C906.518 2.82644 911.385 4.60125 916.243 6.36997C919.226 7.4556 922.205 8.54122 925.241 9.68174C928.615 10.9137 932.015 12.1823 935.415 13.4509C947.526 17.9764 960.051 22.6544 972.44 25.8808C977.59 27.314 982.681 28.8632 987.768 30.4123C998.349 33.6448 1009.29 36.9749 1020.06 38.951C1085.12 54.5096 1149.46 60.4256 1211.47 56.6015C1275.72 52.6555 1337.8 38.2435 1395.98 13.7864C1454.16 -10.8232 1508.8 -47.1673 1558.38 -94.2396C1560.41 -96.1608 1563.2 -95.4838 1564.62 -92.727C1566.04 -89.9702 1565.54 -86.1645 1563.51 -84.2372C1513.18 -36.4452 1457.71 0.453914 1398.64 25.4355C1339.72 50.2037 1276.88 64.7925 1211.88 68.7874C1199.53 69.5498 1187.09 69.9401 1174.57 69.9401C1123.56 69.9401 1071.3 63.5971 1018.68 51.0026C1007.71 48.99 996.573 45.5989 985.803 42.3176C980.77 40.7807 975.737 39.2498 970.691 37.847C958.014 34.5414 945.319 29.8024 933.042 25.216C929.655 23.9535 926.273 22.691 922.887 21.4468C919.836 20.3062 916.88 19.2267 913.92 18.1472C909.008 16.3663 904.087 14.5732 898.87 12.5239L820.545 -19.1667C650.151 -86.6646 508.641 -122.661 375.223 -132.438C297.104 -138.397 219.058 -136.164 143.236 -125.833C65.8576 -113.769 -11.2964 -92.8002 -86.0237 -63.5066C-88.4011 -62.6039 -90.8907 -64.4458 -91.577 -67.6783C-92.2633 -70.9169 -90.8862 -74.2957 -88.5088 -75.2289C-13.306 -104.712 64.3459 -125.814 142.28 -137.957" fill="white"/>
</mask>
<g mask="url(#mask2)">
<path fill-rule="evenodd" clip-rule="evenodd" d="M1174.57 69.9401C1123.56 69.9401 1071.3 63.5971 1018.68 51.0026C1007.71 48.99 996.573 45.5989 985.803 42.3176C980.77 40.7807 975.737 39.2498 970.691 37.847C958.014 34.5414 945.319 29.8024 933.042 25.216C929.655 23.9535 926.273 22.691 922.887 21.4468C919.836 20.3062 916.88 19.2267 913.92 18.1472C909.008 16.3663 904.087 14.5732 898.87 12.5239L820.545 -19.1667C650.151 -86.6646 508.641 -122.661 375.223 -132.438C297.104 -138.397 219.058 -136.164 143.236 -125.833C65.8576 -113.769 -11.2964 -92.8002 -86.0237 -63.5066C-88.4011 -62.6039 -90.8907 -64.4458 -91.577 -67.6783C-92.2633 -70.9169 -90.8862 -74.2957 -88.5088 -75.2289C-13.306 -104.712 64.3459 -125.814 142.28 -137.957C218.623 -148.375 297.14 -150.607 375.716 -144.618C509.83 -134.792 651.982 -98.6431 823.071 -30.8707L901.4 0.819858C906.518 2.82644 911.385 4.60125 916.243 6.36997C919.226 7.4556 922.205 8.54122 925.241 9.68174C928.615 10.9137 932.015 12.1823 935.415 13.4509C947.526 17.9764 960.051 22.6544 972.44 25.8808C977.59 27.314 982.681 28.8632 987.768 30.4123C998.349 33.6448 1009.29 36.9749 1020.06 38.951C1085.12 54.5096 1149.46 60.4256 1211.47 56.6015C1275.72 52.6555 1337.8 38.2435 1395.98 13.7864C1454.16 -10.8232 1508.8 -47.1673 1558.38 -94.2396C1560.41 -96.1608 1563.2 -95.4838 1564.62 -92.727C1566.04 -89.9702 1565.54 -86.1645 1563.51 -84.2372C1513.18 -36.4452 1457.71 0.453914 1398.64 25.4355C1339.72 50.2037 1276.88 64.7925 1211.88 68.7874C1199.53 69.5498 1187.09 69.9401 1174.57 69.9401" fill="url(#paint2_linear)"/>
</g>
<mask id="mask3" style="mask-type:alpha" maskUnits="userSpaceOnUse" x="-84" y="-104" width="1667" height="216">
<path fill-rule="evenodd" clip-rule="evenodd" d="M373.589 -103.273C505.464 -93.6183 645.569 -57.9633 814.499 8.93077L892.646 40.5359C897.918 42.6096 903.029 44.4759 908.135 46.3361C911.11 47.4217 914.076 48.5073 917.087 49.6296C920.484 50.8677 923.903 52.1485 927.331 53.4232C939.864 58.1011 952.822 62.9376 965.664 66.2982C970.919 67.762 976.106 69.3416 981.293 70.9213C992.246 74.2452 1003.57 77.6912 1014.74 79.7588C1081.93 95.8297 1148.47 101.947 1212.68 97.9704C1279.52 93.8536 1344.17 78.8378 1404.82 53.3378C1466.02 27.4535 1523.5 -10.8057 1575.64 -60.3603C1577.68 -62.2876 1580.48 -61.6167 1581.89 -58.8599C1583.31 -56.097 1582.81 -52.2974 1580.79 -50.364C1527.88 -0.0835931 1469.57 38.7245 1407.48 64.9869C1346.09 90.798 1280.69 105.997 1213.09 110.156C1200.29 110.949 1187.39 111.346 1174.42 111.346C1121.68 111.346 1067.66 104.801 1013.35 91.8043C1001.98 89.7063 990.465 86.2054 979.337 82.8266C974.199 81.2591 969.066 79.6978 963.914 78.2645C950.785 74.8246 937.651 69.9271 924.953 65.1882C921.547 63.9135 918.137 62.6449 914.727 61.4007C911.716 60.2663 908.759 59.1989 905.807 58.1194C900.651 56.2348 895.486 54.3502 890.111 52.2399L811.968 20.6287C643.734 -45.9849 504.275 -81.4934 373.095 -91.0994C296.599 -96.8995 220.17 -94.7466 145.932 -84.6466C70.3331 -72.8511 -5.04996 -52.3644 -78.0639 -23.7844C-80.4375 -22.8635 -82.9324 -24.7176 -83.6189 -27.9561C-84.3054 -31.1947 -82.9324 -34.5675 -80.5497 -35.5067C-7.06017 -64.2758 68.821 -84.8905 144.971 -96.7775" fill="white"/>
</mask>
<g mask="url(#mask3)">
<path fill-rule="evenodd" clip-rule="evenodd" d="M1174.42 111.346C1121.68 111.346 1067.66 104.801 1013.35 91.8043C1001.98 89.7063 990.465 86.2054 979.337 82.8266C974.199 81.2591 969.066 79.6978 963.914 78.2645C950.785 74.8246 937.651 69.9271 924.953 65.1882C921.547 63.9135 918.137 62.6449 914.727 61.4007C911.716 60.2663 908.759 59.1989 905.807 58.1194C900.651 56.2348 895.486 54.3502 890.111 52.2399L811.968 20.6287C643.734 -45.9849 504.275 -81.4934 373.095 -91.0994C296.599 -96.8995 220.17 -94.7466 145.932 -84.6466C70.3331 -72.8511 -5.04996 -52.3644 -78.0639 -23.7844C-80.4375 -22.8635 -82.9324 -24.7176 -83.6189 -27.9561C-84.3054 -31.1947 -82.9324 -34.5675 -80.5497 -35.5067C-7.06017 -64.2758 68.821 -84.8905 144.971 -96.7775C219.744 -106.957 296.635 -109.14 373.589 -103.273C505.464 -93.6183 645.569 -57.9633 814.499 8.93077L892.646 40.5359C897.918 42.6096 903.029 44.4759 908.135 46.3361C911.11 47.4217 914.076 48.5073 917.087 49.6296C920.484 50.8677 923.903 52.1485 927.331 53.4232C939.864 58.1011 952.822 62.9376 965.664 66.2982C970.919 67.762 976.106 69.3416 981.293 70.9213C992.246 74.2452 1003.57 77.6912 1014.74 79.7588C1081.93 95.8297 1148.47 101.947 1212.68 97.9704C1279.52 93.8536 1344.17 78.8378 1404.82 53.3378C1466.02 27.4535 1523.5 -10.8057 1575.64 -60.3603C1577.68 -62.2876 1580.48 -61.6167 1581.89 -58.8599C1583.31 -56.097 1582.81 -52.2974 1580.79 -50.364C1527.88 -0.0835931 1469.57 38.7245 1407.48 64.9869C1346.09 90.798 1280.69 105.997 1213.09 110.156C1200.29 110.949 1187.39 111.346 1174.42 111.346" fill="url(#paint3_linear)"/>
</g>
<mask id="mask4" style="mask-type:alpha" maskUnits="userSpaceOnUse" x="-75" y="-64" width="1675" height="216">
<path fill-rule="evenodd" clip-rule="evenodd" d="M372.221 -63.3637C501.767 -53.8858 639.736 -18.7249 806.409 47.297L884.324 78.8229C889.618 80.8966 894.839 82.8056 900.056 84.7146C903.151 85.849 906.241 86.9834 909.354 88.1483C912.759 89.3925 916.19 90.6733 919.618 91.948C932.577 96.7845 945.975 101.78 959.28 105.28C964.617 106.775 969.884 108.367 975.154 109.971C986.485 113.41 998.192 116.966 1009.77 119.131C1079.07 135.709 1147.78 141.991 1214.13 137.904C1283.51 133.635 1350.68 118.003 1413.76 91.4601C1477.95 64.2889 1538.24 24.1207 1592.92 -27.9223C1594.95 -29.8496 1597.74 -29.1787 1599.17 -26.4219C1600.59 -23.6651 1600.09 -19.8593 1598.06 -17.9321C1542.62 34.8367 1481.51 75.5538 1416.42 103.109C1352.6 129.963 1284.68 145.772 1214.53 150.09C1201.28 150.913 1187.94 151.322 1174.52 151.322C1120.08 151.322 1064.37 144.577 1008.38 131.183C996.6 128.975 984.704 125.365 973.203 121.876C967.982 120.29 962.76 118.711 957.53 117.241C943.934 113.667 930.365 108.604 917.245 103.713C913.831 102.444 910.417 101.17 906.999 99.9194C903.877 98.7423 900.8 97.6201 897.728 96.4979C892.457 94.5706 887.182 92.6372 881.795 90.5269L803.879 59.0011C637.906 -6.74034 500.578 -41.7549 371.728 -51.1839C296.88 -56.8987 222.123 -54.7702 149.531 -44.902C75.7606 -33.3626 2.1916 -13.3761 -69.0583 14.5148C-71.4357 15.454 -73.9253 13.5755 -74.6116 10.3369C-75.2934 7.10445 -73.9208 3.71949 -71.5389 2.79243C0.186521 -25.2814 74.2445 -45.4082 148.572 -57.0268" fill="white"/>
</mask>
<g mask="url(#mask4)">
<path fill-rule="evenodd" clip-rule="evenodd" d="M1174.52 151.322C1120.08 151.322 1064.37 144.577 1008.38 131.183C996.6 128.975 984.704 125.365 973.203 121.876C967.982 120.29 962.76 118.711 957.53 117.241C943.934 113.667 930.365 108.604 917.245 103.713C913.831 102.444 910.417 101.17 906.999 99.9194C903.877 98.7423 900.8 97.6201 897.728 96.4979C892.457 94.5706 887.182 92.6372 881.795 90.5269L803.879 59.0011C637.906 -6.74034 500.578 -41.7549 371.728 -51.1839C296.88 -56.8987 222.123 -54.7702 149.531 -44.902C75.7606 -33.3626 2.1916 -13.3761 -69.0583 14.5148C-71.4357 15.454 -73.9253 13.5755 -74.6116 10.3369C-75.2934 7.10445 -73.9208 3.71949 -71.5389 2.79243C0.186521 -25.2814 74.2445 -45.4082 148.572 -57.0268C221.692 -66.9682 296.921 -69.1029 372.221 -63.3637C501.767 -53.8858 639.736 -18.7249 806.409 47.297L884.324 78.8229C889.618 80.8966 894.839 82.8056 900.056 84.7146C903.151 85.849 906.241 86.9834 909.354 88.1483C912.759 89.3925 916.19 90.6733 919.618 91.948C932.577 96.7845 945.975 101.78 959.28 105.28C964.617 106.775 969.884 108.367 975.154 109.971C986.485 113.41 998.192 116.966 1009.77 119.131C1079.07 135.709 1147.78 141.991 1214.13 137.904C1283.51 133.635 1350.68 118.003 1413.76 91.4601C1477.95 64.2889 1538.24 24.1207 1592.92 -27.9223C1594.95 -29.8496 1597.74 -29.1787 1599.17 -26.4219C1600.59 -23.6651 1600.09 -19.8593 1598.06 -17.9321C1542.62 34.8367 1481.51 75.5538 1416.42 103.109C1352.6 129.963 1284.68 145.772 1214.53 150.09C1201.28 150.913 1187.94 151.322 1174.52 151.322" fill="url(#paint4_linear)"/>
</g>
<mask id="mask5" style="mask-type:alpha" maskUnits="userSpaceOnUse" x="-67" y="-23" width="1685" height="216">
<path fill-rule="evenodd" clip-rule="evenodd" d="M370.523 -22.0192C497.855 -12.706 633.776 21.967 798.265 87.0985L875.998 118.533C881.432 120.674 886.888 122.668 892.34 124.668C895.436 125.803 898.532 126.937 901.633 128.096C905.034 129.346 908.462 130.621 911.894 131.902C925.293 136.891 939.149 142.057 952.933 145.698C958.335 147.21 963.675 148.827 969.01 150.449C980.739 153.999 992.867 157.67 1004.87 159.939C1076.34 177.016 1147.22 183.506 1215.76 179.273C1287.74 174.851 1357.47 158.603 1423.04 131.011C1490.26 102.553 1553.38 60.4823 1610.63 5.95096C1612.66 4.02367 1615.46 4.69457 1616.88 7.44523C1618.3 10.2081 1617.81 14.0078 1615.78 15.9473C1557.76 71.1861 1493.81 113.824 1425.7 142.661C1359.4 170.564 1288.91 186.988 1216.17 191.459C1202.48 192.307 1188.68 192.728 1174.82 192.728C1118.64 192.728 1061.19 185.781 1003.48 171.991C991.265 169.685 978.962 165.953 967.058 162.354C961.768 160.75 956.477 159.146 951.174 157.658C937.102 153.938 923.081 148.711 909.516 143.661C906.106 142.386 902.692 141.118 899.272 139.867C896.163 138.702 893.08 137.574 890.007 136.446C884.497 134.433 878.991 132.408 873.463 130.237L795.73 98.8025C631.945 33.9455 496.67 -0.574993 370.033 -9.83941C296.783 -15.4139 223.654 -13.3525 152.66 -3.71599C80.6927 7.55501 8.90046 27.0536 -60.6617 54.243C-63.0444 55.1579 -65.5302 53.3038 -66.2167 50.0713C-66.8987 46.8266 -65.5257 43.4539 -63.1431 42.5207C6.89028 15.1483 79.1761 -4.49057 151.7 -15.8409" fill="white"/>
</mask>
<g mask="url(#mask5)">
<path fill-rule="evenodd" clip-rule="evenodd" d="M1174.82 192.728C1118.64 192.728 1061.19 185.781 1003.48 171.991C991.265 169.685 978.962 165.953 967.058 162.354C961.768 160.75 956.477 159.146 951.174 157.658C937.102 153.938 923.081 148.711 909.516 143.661C906.106 142.386 902.692 141.118 899.272 139.867C896.163 138.702 893.08 137.574 890.007 136.446C884.497 134.433 878.991 132.408 873.463 130.237L795.73 98.8025C631.945 33.9455 496.67 -0.574993 370.033 -9.83941C296.783 -15.4139 223.654 -13.3525 152.66 -3.71599C80.6927 7.55501 8.90046 27.0536 -60.6617 54.243C-63.0444 55.1579 -65.5302 53.3038 -66.2167 50.0713C-66.8987 46.8266 -65.5257 43.4539 -63.1431 42.5207C6.89028 15.1483 79.1761 -4.49057 151.7 -15.8409C223.218 -25.5566 296.823 -27.6303 370.523 -22.0192C497.855 -12.706 633.776 21.967 798.265 87.0985L875.998 118.533C881.432 120.674 886.888 122.668 892.34 124.668C895.436 125.803 898.532 126.937 901.633 128.096C905.034 129.346 908.462 130.621 911.894 131.902C925.293 136.891 939.149 142.057 952.933 145.698C958.335 147.21 963.675 148.827 969.01 150.449C980.739 153.999 992.867 157.67 1004.87 159.939C1076.34 177.016 1147.22 183.506 1215.76 179.273C1287.74 174.851 1357.47 158.603 1423.04 131.011C1490.26 102.553 1553.38 60.4823 1610.63 5.95096C1612.66 4.02367 1615.46 4.69457 1616.88 7.44523C1618.3 10.2081 1617.81 14.0078 1615.78 15.9473C1557.76 71.1861 1493.81 113.824 1425.7 142.661C1359.4 170.564 1288.91 186.988 1216.17 191.459C1202.48 192.307 1188.68 192.728 1174.82 192.728" fill="url(#paint5_linear)"/>
</g>
<mask id="mask6" style="mask-type:alpha" maskUnits="userSpaceOnUse" x="-58" y="17" width="1693" height="216">
<path fill-rule="evenodd" clip-rule="evenodd" d="M369.163 17.884C375.614 18.5549 381.974 19.1282 388.335 19.7015C399.567 20.72 411.18 21.7691 422.609 23.2999L475.777 31.3994L528.823 42.1886C540.257 44.6221 551.762 47.5801 562.887 50.4406C569.122 52.0446 575.357 53.6548 581.6 55.1734C644.856 71.9823 713.059 94.9696 790.185 125.459L867.691 156.82C873.222 158.991 878.865 161.065 884.508 163.138C887.652 164.285 890.787 165.444 893.914 166.615C897.314 167.859 900.741 169.134 904.159 170.408C917.997 175.562 932.306 180.893 946.561 184.68C952.047 186.223 957.466 187.858 962.884 189.498C974.986 193.164 987.501 196.951 999.922 199.306C1073.49 216.901 1146.54 223.574 1217.21 219.213C1291.74 214.62 1364 197.769 1431.99 169.128C1502.19 139.389 1568.11 95.4026 1627.9 38.4011C1629.93 36.4555 1632.73 37.1325 1634.15 39.8893C1635.57 42.646 1635.08 46.4518 1633.05 48.3791C1572.49 106.119 1505.74 150.666 1434.65 180.777C1365.93 209.729 1292.91 226.757 1217.62 231.399C1203.49 232.277 1189.27 232.71 1174.96 232.71C1117.08 232.71 1057.91 225.556 998.522 211.351C985.904 208.96 973.21 205.118 960.933 201.404C955.559 199.781 950.185 198.153 944.798 196.64C930.256 192.774 915.785 187.382 901.79 182.173C898.377 180.905 894.968 179.636 891.554 178.386C888.414 177.203 885.292 176.062 882.171 174.91C876.474 172.824 870.782 170.732 865.161 168.524L787.659 137.163C710.817 106.783 642.865 83.8876 579.95 67.158C573.746 65.6454 567.484 64.0414 561.222 62.4313C550.161 59.583 538.727 56.6494 527.464 54.2464L474.615 43.4938L421.671 35.4309C410.444 33.9305 398.903 32.8815 387.738 31.8751C381.351 31.2957 374.959 30.7224 368.571 30.0515C297.093 24.6295 225.629 26.63 156.259 36.0347C86.096 47.0495 16.1208 66.0663 -51.6563 92.5422C-54.0337 93.4814 -56.5187 91.5968 -57.205 88.3643C-57.8913 85.1257 -56.5142 81.7469 -54.1324 80.8198C14.1158 54.1549 84.5798 35.0039 155.304 23.9098" fill="white"/>
</mask>
<g mask="url(#mask6)">
<path fill-rule="evenodd" clip-rule="evenodd" d="M1174.96 232.71C1117.08 232.71 1057.91 225.556 998.522 211.351C985.904 208.96 973.21 205.118 960.933 201.404C955.559 199.781 950.185 198.153 944.798 196.64C930.256 192.774 915.785 187.382 901.79 182.173C898.377 180.905 894.968 179.636 891.554 178.386C888.414 177.203 885.292 176.062 882.171 174.91C876.474 172.824 870.782 170.732 865.161 168.524L787.659 137.163C710.817 106.783 642.865 83.8876 579.95 67.158C573.746 65.6454 567.484 64.0414 561.222 62.4313C550.161 59.583 538.727 56.6494 527.464 54.2464L474.615 43.4938L421.671 35.4309C410.444 33.9305 398.903 32.8815 387.738 31.8751C381.351 31.2957 374.959 30.7224 368.571 30.0515C297.093 24.6295 225.629 26.63 156.259 36.0347C86.096 47.0495 16.1208 66.0663 -51.6563 92.5422C-54.0337 93.4814 -56.5187 91.5968 -57.205 88.3643C-57.8913 85.1257 -56.5142 81.7469 -54.1324 80.8198C14.1158 54.1549 84.5798 35.0039 155.304 23.9098C225.194 14.4258 297.129 12.4132 369.163 17.884C375.614 18.5549 381.974 19.1282 388.335 19.7015C399.567 20.72 411.18 21.7691 422.609 23.2999L475.777 31.3994L528.823 42.1886C540.257 44.6221 551.762 47.5801 562.887 50.4406C569.122 52.0446 575.357 53.6548 581.6 55.1734C644.856 71.9823 713.059 94.9696 790.185 125.459L867.691 156.82C873.222 158.991 878.865 161.065 884.508 163.138C887.652 164.285 890.787 165.444 893.914 166.615C897.314 167.859 900.741 169.134 904.159 170.408C917.997 175.562 932.306 180.893 946.561 184.68C952.047 186.223 957.466 187.858 962.884 189.498C974.986 193.164 987.501 196.951 999.922 199.306C1073.49 216.901 1146.54 223.574 1217.21 219.213C1291.74 214.62 1364 197.769 1431.99 169.128C1502.19 139.389 1568.11 95.4026 1627.9 38.4011C1629.93 36.4555 1632.73 37.1325 1634.15 39.8893C1635.57 42.646 1635.08 46.4518 1633.05 48.3791C1572.49 106.119 1505.74 150.666 1434.65 180.777C1365.93 209.729 1292.91 226.757 1217.62 231.399C1203.49 232.277 1189.27 232.71 1174.96 232.71" fill="url(#paint6_linear)"/>
</g>
<mask id="mask7" style="mask-type:alpha" maskUnits="userSpaceOnUse" x="-50" y="57" width="1702" height="216">
<path fill-rule="evenodd" clip-rule="evenodd" d="M366.87 57.7936C373.208 58.4523 379.452 59.0195 385.7 59.5806C396.68 60.5686 408.028 61.5933 419.21 63.0936L471.343 71.0345L523.426 81.6347C534.631 84.0133 545.916 86.9225 556.837 89.7281C562.991 91.3077 569.15 92.8935 575.313 94.3938C637.659 110.971 705.01 133.678 781.288 163.825L858.584 195.101C864.217 197.315 870.07 199.468 875.915 201.621C879.086 202.786 882.253 203.951 885.392 205.134L895.619 208.915C909.896 214.234 924.661 219.723 939.405 223.657C944.957 225.224 950.439 226.877 955.924 228.53C968.42 232.317 981.347 236.221 994.197 238.685C1069.88 256.78 1145.12 263.666 1217.95 259.147C1295.03 254.402 1369.83 236.94 1440.28 207.25C1513.48 176.224 1582.22 130.329 1644.57 70.8394C1646.59 68.8999 1649.39 69.5708 1650.81 72.3275C1652.24 75.0843 1651.75 78.884 1649.72 80.8235C1586.61 141.039 1517.04 187.495 1442.94 218.899C1371.76 248.9 1296.2 266.539 1218.36 271.333C1203.78 272.235 1189.1 272.687 1174.36 272.687C1114.74 272.687 1053.87 265.337 992.798 250.73C979.746 248.236 966.644 244.277 953.978 240.447C948.537 238.794 943.096 237.154 937.633 235.617C922.612 231.604 907.684 226.053 893.251 220.68L883.033 216.899C879.884 215.716 876.731 214.551 873.573 213.398C867.671 211.227 861.773 209.055 856.054 206.805L778.758 175.529C702.768 145.491 635.667 122.87 573.662 106.385C567.54 104.896 561.354 103.304 555.164 101.719C544.323 98.9254 533.106 96.0345 522.072 93.6924L470.176 83.135L418.272 75.2307C407.292 73.7547 396.016 72.7362 385.108 71.7481C378.828 71.187 372.553 70.6198 366.278 69.9611C296.46 64.6489 226.645 66.625 158.868 75.7796C90.5337 86.5261 22.3522 105.055 -43.7032 130.829C-46.0849 131.763 -48.5698 129.896 -49.2516 126.645C-49.9378 123.413 -48.5608 120.034 -46.1791 119.107C20.3518 93.1435 89.0132 74.4927 157.912 63.6486" fill="white"/>
</mask>
<g mask="url(#mask7)">
<path fill-rule="evenodd" clip-rule="evenodd" d="M1174.36 272.687C1114.74 272.687 1053.87 265.337 992.798 250.73C979.746 248.236 966.644 244.277 953.978 240.447C948.537 238.794 943.096 237.154 937.633 235.617C922.612 231.604 907.684 226.053 893.251 220.68L883.033 216.899C879.884 215.716 876.731 214.551 873.573 213.398C867.671 211.227 861.773 209.055 856.054 206.805L778.758 175.529C702.768 145.491 635.667 122.87 573.662 106.385C567.54 104.896 561.354 103.304 555.164 101.719C544.323 98.9254 533.106 96.0345 522.072 93.6924L470.176 83.135L418.272 75.2307C407.292 73.7547 396.016 72.7362 385.108 71.7481C378.828 71.187 372.553 70.6198 366.278 69.9611C296.46 64.6489 226.645 66.625 158.868 75.7796C90.5337 86.5261 22.3522 105.055 -43.7032 130.829C-46.0849 131.763 -48.5698 129.896 -49.2516 126.645C-49.9378 123.413 -48.5608 120.034 -46.1791 119.107C20.3518 93.1435 89.0132 74.4927 157.912 63.6486C226.219 54.4208 296.5 52.4447 366.87 57.7936C373.208 58.4523 379.452 59.0195 385.7 59.5806C396.68 60.5686 408.028 61.5933 419.21 63.0936L471.343 71.0345L523.426 81.6347C534.631 84.0133 545.916 86.9225 556.837 89.7281C562.991 91.3077 569.15 92.8935 575.313 94.3938C637.659 110.971 705.01 133.678 781.288 163.825L858.584 195.101C864.217 197.315 870.07 199.468 875.915 201.621C879.086 202.786 882.253 203.951 885.392 205.134L895.619 208.915C909.896 214.234 924.661 219.723 939.405 223.657C944.957 225.224 950.439 226.877 955.924 228.53C968.42 232.317 981.347 236.221 994.197 238.685C1069.88 256.78 1145.12 263.666 1217.95 259.147C1295.03 254.402 1369.83 236.94 1440.28 207.25C1513.48 176.224 1582.22 130.329 1644.57 70.8394C1646.59 68.8999 1649.39 69.5708 1650.81 72.3275C1652.24 75.0843 1651.75 78.884 1649.72 80.8235C1586.61 141.039 1517.04 187.495 1442.94 218.899C1371.76 248.9 1296.2 266.539 1218.36 271.333C1203.78 272.235 1189.1 272.687 1174.36 272.687" fill="url(#paint7_linear)"/>
</g>
<mask id="mask8" style="mask-type:alpha" maskUnits="userSpaceOnUse" x="-42" y="99" width="1711" height="216">
<path fill-rule="evenodd" clip-rule="evenodd" d="M365.056 99.138C371.403 99.8028 377.656 100.37 383.905 100.925C394.513 101.889 405.484 102.871 416.303 104.322L467.403 112.098L518.529 122.503C529.473 124.833 540.512 127.675 551.188 130.42C557.302 131.993 563.411 133.567 569.525 135.055C631.012 151.407 697.515 173.833 772.912 203.626L850.009 234.823C855.76 237.086 861.829 239.324 867.902 241.556C871.087 242.727 874.271 243.904 877.416 245.082L887.607 248.851C902.337 254.334 917.566 259.994 932.794 264.068C938.419 265.66 943.977 267.343 949.534 269.014C962.421 272.911 975.748 276.931 989.02 279.486C1066.83 298.094 1144.26 305.169 1219.25 300.522C1298.93 295.606 1376.28 277.528 1449.16 246.801C1525.39 214.489 1596.94 166.679 1661.84 104.712C1663.87 102.773 1666.66 103.444 1668.08 106.207C1669.51 108.957 1669.02 112.763 1666.99 114.697C1601.34 177.388 1528.94 225.754 1451.82 258.457C1378.21 289.489 1300.1 307.749 1219.66 312.708C1204.64 313.635 1189.52 314.104 1174.34 314.104C1112.99 314.104 1050.39 306.541 987.612 291.532C974.142 288.946 960.645 284.865 947.587 280.926C942.07 279.26 936.549 277.589 931.013 276.028C915.511 271.881 900.122 266.154 885.243 260.622L875.056 256.853C871.899 255.663 868.727 254.498 865.552 253.334C859.433 251.077 853.311 248.82 847.47 246.521L770.387 215.331C695.272 185.64 629.025 163.306 567.878 147.046C561.805 145.57 555.66 143.99 549.519 142.404C538.915 139.678 527.948 136.854 517.174 134.567L466.236 124.199L415.366 116.453C404.744 115.032 393.849 114.05 383.317 113.099C377.028 112.538 370.744 111.97 364.46 111.312C296.266 106.127 228.095 108.03 161.943 116.959C95.4267 127.444 29.0409 145.478 -35.3085 170.558C-37.6903 171.472 -40.1753 169.618 -40.8571 166.38C-41.5389 163.147 -40.1618 159.762 -37.78 158.841C27.0359 133.573 93.9106 115.404 160.983 104.834" fill="white"/>
</mask>
<g mask="url(#mask8)">
<path fill-rule="evenodd" clip-rule="evenodd" d="M1174.34 314.104C1112.99 314.104 1050.39 306.541 987.612 291.532C974.142 288.946 960.645 284.865 947.587 280.926C942.07 279.26 936.549 277.589 931.013 276.028C915.511 271.881 900.122 266.154 885.243 260.622L875.056 256.853C871.899 255.663 868.727 254.498 865.552 253.334C859.433 251.077 853.311 248.82 847.47 246.521L770.387 215.331C695.272 185.64 629.025 163.306 567.878 147.046C561.805 145.57 555.66 143.99 549.519 142.404C538.915 139.678 527.948 136.854 517.174 134.567L466.236 124.199L415.366 116.453C404.744 115.032 393.849 114.05 383.317 113.099C377.028 112.538 370.744 111.97 364.46 111.312C296.266 106.127 228.095 108.03 161.943 116.959C95.4267 127.444 29.0409 145.478 -35.3085 170.558C-37.6903 171.472 -40.1753 169.618 -40.8571 166.38C-41.5389 163.147 -40.1618 159.762 -37.78 158.841C27.0359 133.573 93.9106 115.404 160.983 104.834C227.669 95.8262 296.307 93.9172 365.056 99.138C371.403 99.8028 377.656 100.37 383.905 100.925C394.513 101.889 405.484 102.871 416.303 104.322L467.403 112.098L518.529 122.503C529.473 124.833 540.512 127.675 551.188 130.42C557.302 131.993 563.411 133.567 569.525 135.055C631.012 151.407 697.515 173.833 772.912 203.626L850.009 234.823C855.76 237.086 861.829 239.324 867.902 241.556C871.087 242.727 874.271 243.904 877.416 245.082L887.607 248.851C902.337 254.334 917.566 259.994 932.794 264.068C938.419 265.66 943.977 267.343 949.534 269.014C962.421 272.911 975.748 276.931 989.02 279.486C1066.83 298.094 1144.26 305.169 1219.25 300.522C1298.93 295.606 1376.28 277.528 1449.16 246.801C1525.39 214.489 1596.94 166.679 1661.84 104.712C1663.87 102.773 1666.66 103.444 1668.08 106.207C1669.51 108.957 1669.02 112.763 1666.99 114.697C1601.34 177.388 1528.94 225.754 1451.82 258.457C1378.21 289.489 1300.1 307.749 1219.66 312.708C1204.64 313.635 1189.52 314.104 1174.34 314.104" fill="url(#paint8_linear)"/>
</g>
<mask id="mask9" style="mask-type:alpha" maskUnits="userSpaceOnUse" x="-33" y="135" width="1720" height="220">
<path fill-rule="evenodd" clip-rule="evenodd" d="M1685.8 137.818C1687.22 140.585 1686.74 144.405 1684.71 146.352C1616.5 211.766 1541.29 262.231 1461.17 296.349C1385.1 328.551 1304.45 347.493 1221.45 352.629C1205.98 353.584 1190.42 354.062 1174.78 354.062C1111.72 354.062 1047.39 346.274 982.944 330.81C969.017 328.104 955.091 323.88 941.621 319.809C936.06 318.125 930.493 316.442 924.909 314.856C908.883 310.528 892.996 304.595 877.634 298.865L858.267 291.659C851.862 289.29 845.439 286.915 839.424 284.54L762.542 253.305C688.271 223.845 622.88 201.702 562.647 185.625C556.587 184.15 550.46 182.57 544.334 180.985C533.995 178.316 523.311 175.554 512.833 173.32L462.859 163.108L413.023 155.499C402.684 154.097 392.081 153.142 381.827 152.217C375.624 151.66 369.421 151.097 363.218 150.442C296.643 145.379 230.122 147.228 165.601 155.958C100.883 166.224 36.2908 183.838 -26.3013 208.295C-28.6964 209.201 -31.1678 207.346 -31.8495 204.096C-32.5313 200.845 -31.1543 197.453 -28.7726 196.529C34.2903 171.887 99.3627 154.139 164.641 143.787C229.696 134.99 296.684 133.122 363.815 138.228C370.085 138.883 376.252 139.447 382.42 140.004C392.745 140.934 403.42 141.895 413.965 143.322L464.02 150.968L514.188 161.21C524.836 163.488 535.596 166.267 546.002 168.955C552.098 170.528 558.193 172.108 564.293 173.589C624.867 189.758 690.513 211.981 765.072 241.556L841.954 272.791C847.884 275.136 854.257 277.493 860.613 279.844L880.003 287.05C895.212 292.731 910.942 298.602 926.694 302.851C932.359 304.467 937.961 306.157 943.564 307.858C956.867 311.887 970.628 316.044 984.353 318.719C1064.28 337.893 1143.86 345.191 1221.04 340.391C1303.28 335.298 1383.17 316.546 1458.51 284.65C1537.73 250.923 1612.1 201.016 1679.55 136.33" fill="white"/>
</mask>
<g mask="url(#mask9)">
<path fill-rule="evenodd" clip-rule="evenodd" d="M1174.78 354.062C1111.72 354.062 1047.39 346.274 982.944 330.81C969.017 328.104 955.091 323.88 941.621 319.809C936.06 318.125 930.493 316.442 924.909 314.856C908.883 310.528 892.996 304.595 877.634 298.865L858.267 291.659C851.862 289.29 845.439 286.915 839.424 284.54L762.542 253.305C688.271 223.845 622.88 201.702 562.647 185.625C556.587 184.15 550.46 182.57 544.334 180.985C533.995 178.316 523.311 175.554 512.833 173.32L462.859 163.108L413.023 155.499C402.684 154.097 392.081 153.142 381.827 152.217C375.624 151.66 369.421 151.097 363.218 150.442C296.643 145.379 230.122 147.228 165.601 155.958C100.883 166.224 36.2908 183.838 -26.3013 208.295C-28.6964 209.201 -31.1678 207.346 -31.8495 204.096C-32.5313 200.845 -31.1543 197.453 -28.7726 196.529C34.2903 171.887 99.3627 154.139 164.641 143.787C229.696 134.99 296.684 133.122 363.815 138.228C370.085 138.883 376.252 139.447 382.42 140.004C392.745 140.934 403.42 141.895 413.965 143.322L464.02 150.968L514.188 161.21C524.836 163.488 535.596 166.267 546.002 168.955C552.098 170.528 558.193 172.108 564.293 173.589C624.867 189.758 690.513 211.981 765.072 241.556L841.954 272.791C847.884 275.136 854.257 277.493 860.613 279.844L880.003 287.05C895.212 292.731 910.942 298.602 926.694 302.851C932.359 304.467 937.961 306.157 943.564 307.858C956.867 311.887 970.628 316.044 984.353 318.719C1064.28 337.893 1143.86 345.191 1221.04 340.391C1303.28 335.298 1383.17 316.546 1458.51 284.65C1537.73 250.923 1612.1 201.016 1679.55 136.33C1681.58 134.377 1684.37 135.063 1685.8 137.818C1687.22 140.585 1686.74 144.405 1684.71 146.352C1616.5 211.766 1541.29 262.231 1461.17 296.349C1385.1 328.551 1304.45 347.493 1221.45 352.629C1205.98 353.584 1190.42 354.062 1174.78 354.062" fill="url(#paint9_linear)"/>
</g>
<mask id="mask10" style="mask-type:alpha" maskUnits="userSpaceOnUse" x="-25" y="170" width="1729" height="225">
<path fill-rule="evenodd" clip-rule="evenodd" d="M1703.07 172.035C1704.5 174.788 1704.01 178.581 1701.98 180.518C1631.19 248.067 1553.14 300.173 1470 335.381C1391.44 368.465 1308.22 387.902 1222.63 393.169C1206.72 394.156 1190.71 394.643 1174.63 394.643C1109.82 394.643 1043.75 386.696 977.571 370.907C963.227 368.118 948.897 363.813 935.038 359.647C929.398 357.942 923.754 356.25 918.087 354.642C901.617 350.209 885.308 344.162 869.538 338.31L837.611 326.491C835.112 325.572 832.635 324.652 830.535 323.763L753.922 292.823C680.534 263.868 615.967 242.123 556.565 226.352C550.588 224.909 544.536 223.356 538.484 221.797C528.357 219.197 517.885 216.506 507.629 214.338L458.599 204.37L409.78 196.953C399.748 195.607 389.465 194.681 379.518 193.798C373.367 193.244 367.216 192.69 361.06 192.045C296.116 187.149 231.227 188.933 168.279 197.373C105.368 207.317 42.5508 224.343 -18.3461 247.981C-20.733 248.87 -23.2096 247.031 -23.8915 243.804C-24.5735 240.565 -23.1961 237.197 -20.8137 236.265C40.5542 212.45 103.847 195.296 167.319 185.261C230.8 176.742 296.157 174.946 361.657 179.897C367.88 180.548 373.995 181.096 380.11 181.644C390.129 182.539 400.484 183.465 410.723 184.841L459.766 192.294L508.984 202.293C519.411 204.504 529.954 207.213 540.153 209.838C546.174 211.378 552.195 212.925 558.211 214.386C617.959 230.237 682.778 252.067 756.448 281.138L833.156 312.114C835.21 312.985 837.579 313.862 839.971 314.745L871.898 326.564C887.524 332.355 903.672 338.353 919.877 342.713C925.62 344.339 931.3 346.044 936.976 347.755C950.674 351.871 964.833 356.128 978.989 358.88C1061.08 378.457 1142.87 385.905 1222.22 381.003C1307.05 375.784 1389.51 356.524 1467.33 323.751C1549.57 288.92 1626.79 237.374 1696.83 170.549" fill="white"/>
</mask>
<g mask="url(#mask10)">
<path fill-rule="evenodd" clip-rule="evenodd" d="M1174.63 394.643C1109.82 394.643 1043.75 386.696 977.571 370.907C963.227 368.118 948.897 363.813 935.038 359.647C929.398 357.942 923.754 356.25 918.087 354.642C901.617 350.209 885.308 344.162 869.538 338.31L837.611 326.491C835.112 325.572 832.635 324.652 830.535 323.763L753.922 292.823C680.534 263.868 615.967 242.123 556.565 226.352C550.588 224.909 544.536 223.356 538.484 221.797C528.357 219.197 517.885 216.506 507.629 214.338L458.599 204.37L409.78 196.953C399.748 195.607 389.465 194.681 379.518 193.798C373.367 193.244 367.216 192.69 361.06 192.045C296.116 187.149 231.227 188.933 168.279 197.373C105.368 207.317 42.5508 224.343 -18.3461 247.981C-20.733 248.87 -23.2096 247.031 -23.8915 243.804C-24.5735 240.565 -23.1961 237.197 -20.8137 236.265C40.5542 212.45 103.847 195.296 167.319 185.261C230.8 176.742 296.157 174.946 361.657 179.897C367.88 180.548 373.995 181.096 380.11 181.644C390.129 182.539 400.484 183.465 410.723 184.841L459.766 192.294L508.984 202.293C519.411 204.504 529.954 207.213 540.153 209.838C546.174 211.378 552.195 212.925 558.211 214.386C617.959 230.237 682.778 252.067 756.448 281.138L833.156 312.114C835.21 312.985 837.579 313.862 839.971 314.745L871.898 326.564C887.524 332.355 903.672 338.353 919.877 342.713C925.62 344.339 931.3 346.044 936.976 347.755C950.674 351.871 964.833 356.128 978.989 358.88C1061.08 378.457 1142.87 385.905 1222.22 381.003C1307.05 375.784 1389.51 356.524 1467.33 323.751C1549.57 288.92 1626.79 237.374 1696.83 170.549C1698.85 168.619 1701.65 169.277 1703.07 172.035C1704.5 174.788 1704.01 178.581 1701.98 180.518C1631.19 248.067 1553.14 300.173 1470 335.381C1391.44 368.465 1308.22 387.902 1222.63 393.169C1206.72 394.156 1190.71 394.643 1174.63 394.643" fill="url(#paint10_linear)"/>
</g>
</g>
</g>
<defs>
<linearGradient id="paint0_linear" x1="5479.15" y1="519.4" x2="5427" y2="-733.828" gradientUnits="userSpaceOnUse">
<stop stop-color="#00AFA3"/>
<stop offset="1" stop-color="#094599"/>
</linearGradient>
<linearGradient id="paint1_linear" x1="-97.9037" y1="39.9442" x2="1701.08" y2="39.9442" gradientUnits="userSpaceOnUse">
<stop stop-color="white"/>
<stop offset="1" stop-color="#AAA893"/>
</linearGradient>
<linearGradient id="paint2_linear" x1="-89.4961" y1="79.927" x2="1719.67" y2="79.927" gradientUnits="userSpaceOnUse">
<stop stop-color="white"/>
<stop offset="1" stop-color="#AAA893"/>
</linearGradient>
<linearGradient id="paint3_linear" x1="-81.5258" y1="121.332" x2="1737.8" y2="121.332" gradientUnits="userSpaceOnUse">
<stop stop-color="white"/>
<stop offset="1" stop-color="#AAA893"/>
</linearGradient>
<linearGradient id="paint4_linear" x1="-98.0229" y1="159.436" x2="1701.51" y2="159.436" gradientUnits="userSpaceOnUse">
<stop stop-color="white"/>
<stop offset="1" stop-color="#AAA893"/>
</linearGradient>
<linearGradient id="paint5_linear" x1="-98.1285" y1="200.229" x2="1701.95" y2="200.229" gradientUnits="userSpaceOnUse">
<stop stop-color="white"/>
<stop offset="1" stop-color="#AAA893"/>
</linearGradient>
<linearGradient id="paint6_linear" x1="-89.274" y1="240.212" x2="1719.64" y2="240.212" gradientUnits="userSpaceOnUse">
<stop stop-color="white"/>
<stop offset="1" stop-color="#AAA893"/>
</linearGradient>
<linearGradient id="paint7_linear" x1="-81.4848" y1="280.189" x2="1736.74" y2="280.189" gradientUnits="userSpaceOnUse">
<stop stop-color="white"/>
<stop offset="1" stop-color="#AAA893"/>
</linearGradient>
<linearGradient id="paint8_linear" x1="-98.2359" y1="319.807" x2="1701.25" y2="319.807" gradientUnits="userSpaceOnUse">
<stop stop-color="white"/>
<stop offset="1" stop-color="#AAA893"/>
</linearGradient>
<linearGradient id="paint9_linear" x1="-89.5196" y1="359.79" x2="1719.12" y2="359.79" gradientUnits="userSpaceOnUse">
<stop stop-color="white"/>
<stop offset="1" stop-color="#AAA893"/>
</linearGradient>
<linearGradient id="paint10_linear" x1="-98.2766" y1="399.333" x2="1701.65" y2="399.333" gradientUnits="userSpaceOnUse">
<stop stop-color="white"/>
<stop offset="1" stop-color="#AAA893"/>
</linearGradient>
</defs>
</svg>
