<svg width="61" height="68" viewBox="0 0 61 68" fill="none" xmlns="http://www.w3.org/2000/svg">
<path fill-rule="evenodd" clip-rule="evenodd" d="M56.2776 42.0512V25.8602C58.9832 25.2139 61 22.7975 61 19.9219C61 16.5532 58.2331 13.8125 54.8323 13.8125C53.0143 13.8125 51.378 14.5961 50.2483 15.8398L36.4364 7.94086C36.6203 7.36233 36.72 6.74714 36.72 6.10938C36.72 2.74072 33.9531 0 30.5523 0C27.1515 0 24.3846 2.74072 24.3846 6.10938C24.3846 6.74727 24.4842 7.36246 24.6681 7.94086L10.7867 15.8796C9.65578 14.6132 8.00485 13.8125 6.16768 13.8125C2.76688 13.8125 0 16.5532 0 19.9219C0 22.8345 2.06886 25.2759 4.82688 25.8841V27.9244C4.82688 28.6578 5.42729 29.2525 6.16768 29.2525C6.90807 29.2525 7.50848 28.6578 7.50848 27.9244V25.8841C8.76548 25.6068 9.87969 24.9498 10.7196 24.0395L17.6655 28.0669C16.8155 29.871 16.3397 31.8812 16.3397 34C16.3397 36.1091 16.8112 38.1107 17.6538 39.9084L10.7345 43.8876C9.89283 42.9691 8.77286 42.3061 7.50848 42.0272V39.9766C7.50848 39.2432 6.90807 38.6484 6.16768 38.6484C5.42729 38.6484 4.82688 39.2432 4.82688 39.9766V42.0273C2.06886 42.6356 0 45.0771 0 47.9895C0 51.3582 2.76688 54.0989 6.16768 54.0989C7.97642 54.0989 9.60577 53.3236 10.7349 52.0909L24.6679 60.0591C24.484 60.6375 24.3845 61.2527 24.3845 61.8906C24.3845 65.2593 27.1514 68 30.5522 68C33.953 68 36.7198 65.2593 36.7198 61.8906C36.7198 61.2527 36.6202 60.6375 36.4363 60.059L50.3018 52.1294C51.4294 53.3394 53.0426 54.0988 54.8322 54.0988C58.233 54.0988 60.9999 51.3581 60.9999 47.9894C61 45.1139 58.9832 42.6975 56.2776 42.0512ZM50.3024 43.8488L43.4505 39.9084C44.2932 38.1107 44.7646 36.1089 44.7646 34C44.7646 31.8814 44.2888 29.871 43.4389 28.0669L50.3177 24.0784C51.1769 24.9933 52.3143 25.6484 53.596 25.9077V42.0035C52.3068 42.2645 51.1633 42.9255 50.3024 43.8488ZM23.556 43.0707C25.4979 44.5438 27.923 45.4219 30.5523 45.4219C33.1816 45.4219 35.6067 44.5438 37.5486 43.0707C37.2871 41.0292 35.5241 39.4453 33.3933 39.4453H27.7111C25.5805 39.4453 23.8174 41.0294 23.556 43.0707ZM33.3973 33.9708C33.3973 35.5247 32.1209 36.7891 30.5522 36.7891C28.9834 36.7891 27.707 35.5247 27.707 33.9708V33.2565C27.707 31.7026 28.9834 30.4382 30.5522 30.4382C32.1209 30.4382 33.3973 31.7026 33.3973 33.2565V33.9708ZM35.144 37.0138C37.2035 37.5517 38.8874 39.0147 39.7133 40.9254C41.1982 39.0026 42.0832 36.6023 42.0832 34C42.0832 27.7019 36.9105 22.5781 30.5523 22.5781C24.1941 22.5781 19.0214 27.7019 19.0214 34C19.0214 36.6023 19.9062 39.0026 21.3911 40.9255C22.2171 39.0147 23.9008 37.5518 25.9603 37.0138C25.3702 36.1431 25.0254 35.0962 25.0254 33.9709V33.2566C25.0254 30.238 27.5047 27.7821 30.5522 27.7821C33.5997 27.7821 36.0789 30.238 36.0789 33.2566V33.9709C36.0789 35.0962 35.7341 36.1429 35.144 37.0138ZM54.8323 16.4688C56.7546 16.4688 58.3184 18.0177 58.3184 19.9219C58.3184 21.826 56.7546 23.375 54.8323 23.375C52.91 23.375 51.3462 21.826 51.3462 19.9219C51.3462 18.0177 52.91 16.4688 54.8323 16.4688ZM48.6646 19.9219C48.6646 19.3068 48.7578 18.713 48.9293 18.1527L35.0925 10.2393C34.2538 11.1431 33.1446 11.7956 31.8932 12.0716V19.9848C36.0799 20.3748 39.7439 22.5708 42.0809 25.7765L48.96 21.7879C48.7688 21.1994 48.6646 20.5725 48.6646 19.9219ZM30.5523 2.65625C32.4746 2.65625 34.0384 4.20524 34.0384 6.10938C34.0384 8.01351 32.4746 9.5625 30.5523 9.5625C28.63 9.5625 27.0662 8.01351 27.0662 6.10938C27.0662 4.20524 28.63 2.65625 30.5523 2.65625ZM2.6816 19.9219C2.6816 21.826 4.24538 23.375 6.16768 23.375C8.08999 23.375 9.65377 21.826 9.65377 19.9219C9.65377 18.0177 8.08999 16.4688 6.16768 16.4688C4.24538 16.4688 2.6816 18.0177 2.6816 19.9219ZM12.0574 21.7374C12.238 21.1637 12.3355 20.5538 12.3355 19.9219C12.3355 19.3254 12.2471 18.7493 12.0856 18.2039L26.0122 10.2393C26.8507 11.1431 27.9603 11.7956 29.2115 12.0716V19.985C25.0248 20.3749 21.3608 22.571 19.0238 25.7766L12.0574 21.7374ZM2.6816 47.9895C2.6816 49.8937 4.24538 51.4427 6.16768 51.4427C8.08999 51.4427 9.65377 49.8937 9.65377 47.9895C9.65377 46.0854 8.08999 44.5364 6.16768 44.5364C4.24538 44.5364 2.6816 46.0854 2.6816 47.9895ZM12.0636 49.7836C12.2399 49.2161 12.3354 48.6136 12.3354 47.9895C12.3354 47.3652 12.2399 46.7626 12.0633 46.1948L19.0075 42.2014C21.3438 45.4191 25.0151 47.6242 29.2114 48.015V55.9284C27.96 56.2044 26.8506 56.8569 26.0121 57.7607L12.0636 49.7836ZM27.0662 61.8906C27.0662 63.7948 28.63 65.3438 30.5523 65.3438C32.4746 65.3438 34.0384 63.7948 34.0384 61.8906C34.0384 59.9865 32.4746 58.4375 30.5523 58.4375C28.63 58.4375 27.0662 59.9865 27.0662 61.8906ZM35.0922 57.7606C34.2537 56.8568 33.1443 56.2043 31.893 55.9283V48.0149C36.0893 47.6242 39.7605 45.419 42.0969 42.2013L48.9528 46.144C48.766 46.7265 48.6645 47.3463 48.6645 47.9894C48.6645 48.6321 48.7659 49.2517 48.9525 49.8339L35.0922 57.7606ZM51.3462 47.9895C51.3462 49.8937 52.91 51.4427 54.8323 51.4427C56.7546 51.4427 58.3184 49.8937 58.3184 47.9895C58.3184 46.0854 56.7546 44.5364 54.8323 44.5364C52.91 44.5364 51.3462 46.0854 51.3462 47.9895Z" fill="#B7BFC9"/>
<path d="M6.5 36C6.8945 36 7.2815 35.8395 7.5605 35.5605C7.8395 35.28 8 34.8945 8 34.5C8 34.1055 7.83965 33.7185 7.5605 33.4395C7.2815 33.159 6.8945 33 6.5 33C6.1055 33 5.7185 33.159 5.43965 33.4395C5.16065 33.7185 5 34.1055 5 34.5C5 34.8945 5.1605 35.28 5.43965 35.5605C5.7185 35.8395 6.10565 36 6.5 36Z" fill="#B7BFC9"/>
</svg>
