<svg width="58" height="67" viewBox="0 0 58 67" fill="none" xmlns="http://www.w3.org/2000/svg">
<path fill-rule="evenodd" clip-rule="evenodd" d="M30.7257 0.422624L56.4236 14.9609C57.4292 15.5244 58.0996 16.6514 57.9879 17.8911V49.1089C57.9879 50.3486 57.3175 51.4756 56.3119 52.0391L30.614 66.5774C29.6084 67.1409 28.3794 67.1409 27.3738 66.5774L1.67595 52.0391C0.67038 51.4756 0 50.3486 0 49.1089V17.8911C0 16.6514 0.67038 15.5244 1.78768 14.9609L27.4856 0.422624C28.4911 -0.140875 29.7202 -0.140875 30.7257 0.422624ZM48.4908 12.9323L45.8093 11.4672V14.7355L48.4908 12.9323ZM36.8709 6.50841L42.0105 9.4386L36.8709 12.1434V6.50841ZM31.2844 15.1863L34.6363 13.3831V7.18461L24.5806 12.7069C23.9102 13.045 23.1281 13.045 22.4577 12.7069L21.3404 12.1434L13.4076 17.1022V22.1737L18.9941 25.3293V21.6102C18.9941 20.8213 19.3293 20.1451 19.9997 19.6943L27.9325 14.7355C28.6029 14.2847 29.4967 14.2847 30.1671 14.6228L31.2844 15.1863ZM21.2287 21.7229L29.1615 16.7641L30.2788 17.3276C30.9492 17.6657 31.7313 17.6657 32.4017 17.3276L43.5747 11.0164V16.0879L37.8765 19.6943L36.7592 19.1308C36.0888 18.7927 35.1949 18.7927 34.5246 19.2435L26.5917 24.2023C25.9214 24.6531 25.5862 25.3293 25.5862 26.1182V29.0484L21.117 26.569V21.7229H21.2287ZM28.4911 30.7389C28.8263 30.9643 29.2733 30.9643 29.6084 30.7389L50.3902 19.0181V14.5101L39.2172 21.7229C38.5468 22.1737 37.653 22.1737 36.9826 21.8356L35.8653 21.2721L27.9325 26.2309V30.4008L28.4911 30.7389ZM52.5131 15.299L54.7477 16.5387L52.5131 17.7784V15.299ZM29.6084 2.33852C29.2733 2.11312 28.8263 2.11312 28.4911 2.33852L3.3519 16.5387L11.173 20.934V17.2149C11.173 16.426 11.5082 15.7498 12.1786 15.299L20.1114 10.3402C20.7818 9.8894 21.6756 9.8894 22.346 10.2275L23.4633 10.791L34.0776 4.93061L29.6084 2.33852ZM2.79325 50.0105C2.45806 49.7851 2.2346 49.447 2.2346 48.9962V25.1039L6.03342 27.0198C6.36861 27.2452 6.7038 27.5833 6.7038 28.0341V29.0484C4.91612 29.7246 4.02228 31.6405 4.69266 33.331C5.36304 35.1341 7.26245 36.0357 8.9384 35.3595C10.6143 34.6833 11.6199 32.7675 10.9495 31.077C10.6143 30.0627 9.83224 29.3865 8.9384 29.0484V28.0341C8.9384 26.7944 8.26802 25.5547 7.03899 24.9912L2.2346 22.6245V18.4546L27.3738 32.6548C27.4366 32.718 27.5346 32.7458 27.648 32.7779C27.7365 32.803 27.8345 32.8307 27.9325 32.8801V45.0517L18.4354 39.8675C18.1003 39.6421 17.8768 39.304 17.8768 38.8532V36.5992C19.6645 35.923 20.5583 34.0071 19.8879 32.3167C19.2176 30.6262 17.3181 29.6119 15.6422 30.2881C13.8545 30.9643 12.9607 32.8802 13.6311 34.5706C13.9662 35.5849 14.7484 36.2611 15.6422 36.5992V38.8532C15.6422 40.0929 16.3126 41.2199 17.4299 41.7834L27.9325 47.5311V58.463L18.4354 53.2788C18.1003 53.0534 17.8768 52.7153 17.8768 52.2645V48.0946C17.8768 46.8549 17.2064 45.8406 16.2008 45.1644L12.2903 42.9104V42.4596C12.2903 40.5437 10.8378 39.0786 8.9384 39.0786C7.03899 39.0786 5.5865 40.5437 5.5865 42.4596C5.5865 44.3755 7.03899 45.8406 8.9384 45.8406C9.83224 45.8406 10.6143 45.5025 11.2847 44.939L15.1953 47.3057C15.5305 47.5311 15.7539 47.8692 15.7539 48.32V52.4899C15.7539 53.7296 16.4243 54.8566 17.5416 55.4201L28.0442 61.1678V64.2107L2.79325 50.0105ZM7.8211 33.4436C8.49148 33.4436 8.9384 32.9929 8.9384 32.3167C8.9384 31.6405 8.49148 31.1897 7.8211 31.1897C7.15072 31.1897 6.7038 31.6405 6.7038 32.3167C6.7038 32.9929 7.15072 33.4436 7.8211 33.4436ZM15.6422 33.4437C15.6422 32.7675 16.0891 32.3167 16.7595 32.3167C17.4299 32.3167 17.8768 32.7675 17.8768 33.4437C17.8768 34.1199 17.4299 34.5706 16.7595 34.5706C16.0891 34.5706 15.6422 34.1199 15.6422 33.4437ZM8.9384 43.5866C9.60878 43.5866 10.0557 43.1358 10.0557 42.4596C10.0557 41.7834 9.60878 41.3326 8.9384 41.3326C8.26802 41.3326 7.8211 41.7834 7.8211 42.4596C7.8211 43.1358 8.26802 43.5866 8.9384 43.5866ZM55.3063 50.0105L30.1671 64.2107V54.4058L40.6697 48.6581C41.787 48.0946 42.4574 46.9676 42.4574 45.7279V41.6707C42.4574 41.2199 42.6809 40.8818 43.1278 40.6564L48.0439 38.177C49.3847 39.4167 51.5075 39.4167 52.7365 38.0643C53.9656 36.7119 53.9656 34.5706 52.6248 33.331C51.2841 32.0913 49.1612 32.0913 47.9322 33.4436C47.2618 34.0071 46.9266 34.796 46.9266 35.6976V36.1484L42.0105 38.6278C40.8932 39.1913 40.1111 40.3183 40.1111 41.6707V45.7279C40.1111 46.1787 39.8876 46.5168 39.5524 46.7422L30.1671 51.8137V40.8818L33.4073 39.1913C34.748 40.431 36.8709 40.431 38.0999 39.0786C39.329 37.7262 39.329 35.5849 37.9882 34.3452C36.6474 33.1056 34.5246 33.1056 33.2955 34.4579C32.7369 35.1341 32.4017 35.923 32.4017 36.8246V37.2754L30.1671 38.4024V32.8801C30.3307 32.8801 30.4344 32.8198 30.5659 32.7432C30.614 32.7151 30.6659 32.685 30.7257 32.6548L55.865 18.4546V40.6564L50.3902 43.4739C49.0495 42.2342 46.9266 42.2342 45.6976 43.5866C44.4685 44.939 44.4685 47.0803 45.8093 48.32C47.1501 49.5597 49.2729 49.5597 50.502 48.2073C51.0606 47.5311 51.3958 46.7422 51.3958 45.8406V45.3898L55.865 43.1358V48.9962C55.865 49.447 55.6415 49.7851 55.3063 50.0105ZM50.2785 34.5706C49.6081 34.5706 49.1612 35.0214 49.1612 35.6976C49.1612 36.3738 49.6081 36.8246 50.2785 36.8246C50.9489 36.8246 51.3958 36.3738 51.3958 35.6976C51.3958 35.0214 50.9489 34.5706 50.2785 34.5706ZM34.6363 36.8246C34.6363 36.1484 35.0832 35.6976 35.7536 35.6976C36.424 35.6976 36.8709 36.1484 36.8709 36.8246C36.8709 37.5008 36.424 37.9516 35.7536 37.9516C35.0832 37.9516 34.6363 37.5008 34.6363 36.8246ZM48.0439 46.9676C48.7143 46.9676 49.1612 46.5168 49.1612 45.8406C49.1612 45.1644 48.7143 44.7136 48.0439 44.7136C47.3735 44.7136 46.9266 45.1644 46.9266 45.8406C46.9266 46.5168 47.3735 46.9676 48.0439 46.9676Z" fill="white"/>
</svg>
