<svg width="61" height="61" viewBox="0 0 61 61" fill="none" xmlns="http://www.w3.org/2000/svg">
<path fill-rule="evenodd" clip-rule="evenodd" d="M61 43.2231V50.7759L58.1079 51.5151C58.101 51.5316 58.0941 51.5482 58.0872 51.5648C58.074 51.5966 58.0606 51.6288 58.0469 51.6611L59.5698 54.228L54.229 59.5688L51.6621 58.0459C51.6138 58.0669 51.5649 58.0869 51.5161 58.1069L50.7769 61H43.2241L42.4849 58.1079C42.4684 58.101 42.4518 58.0941 42.4352 58.0872C42.4034 58.074 42.3712 58.0606 42.3389 58.0469L39.772 59.5698L34.4312 54.229L35.9541 51.6621C35.9331 51.6138 35.9131 51.5649 35.8931 51.5161L33 50.7769V43.2241L35.8921 42.4849C35.899 42.4684 35.9059 42.4518 35.9128 42.4352C35.926 42.4034 35.9394 42.3712 35.9531 42.3389L34.4302 39.772L39.771 34.4312L42.3379 35.9541C42.3862 35.9331 42.4351 35.9131 42.4839 35.8931L43.2231 33H50.7759L51.5151 35.8921C51.5316 35.899 51.5482 35.9059 51.5648 35.9128C51.5966 35.926 51.6288 35.9394 51.6611 35.9531L54.228 34.4302L59.5688 39.771L58.0459 42.3379C58.0669 42.3862 58.0869 42.4351 58.1069 42.4839L61 43.2231ZM53.9131 57.0571L57.0571 53.9131L55.7891 51.7749L56.019 51.2939C56.167 50.9849 56.2998 50.667 56.4141 50.3408L56.5928 49.8369L59 49.2231V44.7759L56.5918 44.1621L56.4131 43.6582C56.2979 43.332 56.165 43.0151 56.0181 42.7051L55.7881 42.2241L57.0562 40.0869L53.9121 36.9429L51.7749 38.2109L51.2939 37.981C50.9849 37.833 50.667 37.7002 50.3408 37.5859L49.8369 37.4072L49.2231 35H44.7759L44.1621 37.4082L43.6582 37.5869C43.332 37.7021 43.0151 37.835 42.7051 37.9819L42.2241 38.2119L40.0869 36.9438L36.9429 40.0879L38.2109 42.2251L37.981 42.7061C37.833 43.0151 37.7002 43.333 37.5859 43.6592L37.4072 44.1631L35 44.7769V49.2241L37.4082 49.8379L37.5869 50.3418C37.7021 50.668 37.835 50.9849 37.9819 51.2949L38.2119 51.7759L36.9438 53.9131L40.0879 57.0571L42.2251 55.7891L42.7061 56.019C43.0151 56.167 43.333 56.2998 43.6592 56.4141L44.1631 56.5928L44.7769 59H49.2241L49.8379 56.5928L50.3418 56.4141C50.668 56.2988 50.9849 56.166 51.2949 56.019L51.7759 55.7891L53.9131 57.0571Z" fill="#B7BFC9"/>
<path fill-rule="evenodd" clip-rule="evenodd" d="M39 47C39 42.5889 42.5889 39 47 39C51.4111 39 55 42.5889 55 47C55 51.4111 51.4111 55 47 55C42.5889 55 39 51.4111 39 47ZM41 47C41 50.3091 43.6909 53 47 53C50.3091 53 53 50.3091 53 47C53 43.6909 50.3091 41 47 41C43.6909 41 41 43.6909 41 47Z" fill="#B7BFC9"/>
<path fill-rule="evenodd" clip-rule="evenodd" d="M43 47C43 44.7939 44.7939 43 47 43C49.2061 43 51 44.7939 51 47C51 49.2061 49.2061 51 47 51C44.7939 51 43 49.2061 43 47ZM45 47C45 48.103 45.897 49 47 49C48.103 49 49 48.103 49 47C49 45.897 48.103 45 47 45C45.897 45 45 45.897 45 47Z" fill="#B7BFC9"/>
<path fill-rule="evenodd" clip-rule="evenodd" d="M25.3252 16.403C25.6602 17.3542 26.2432 18.1929 27 18.8518V19.6735L22.2451 21.4005C20.3042 22.1048 19 23.9274 19 25.9353V31H43V25.9353C43 23.9274 41.6958 22.1048 39.7559 21.3995L35 19.6725V18.8518C35.7568 18.1939 36.3398 17.3552 36.6748 16.403C38.5591 16.0899 40 14.5062 40 12.5938V8.71875C40 3.9119 35.9629 0 31 0C26.0371 0 22 3.9119 22 8.71875V12.5938C22 14.5062 23.4409 16.0899 25.3252 16.403ZM33 20.0755L31 23.3044L29 20.0755V20.0046C29.627 20.2208 30.2979 20.3438 31 20.3438C31.7021 20.3438 32.373 20.2198 33 20.0046V20.0755ZM29.5869 24.7883L27.5708 21.5343L26.29 21.9993L27.584 25.758L29.5869 24.7883ZM41 25.9353V29.0625H21V25.9353C21 24.7301 21.7822 23.6374 22.9468 23.2141L24.417 22.6805L26.416 28.4911L31 26.2707L35.584 28.4911L37.583 22.6805L39.0542 23.215C40.2178 23.6374 41 24.7301 41 25.9353ZM34.416 25.7589L35.71 21.9993L34.4292 21.5343L32.4131 24.7892L34.416 25.7589ZM31 18.4062C28.7939 18.4062 27 16.6684 27 14.5312V10.5905C28.4639 10.441 29.8452 9.92401 31 9.04419C32.1548 9.92496 33.5361 10.441 35 10.5905V14.5312C35 16.6684 33.2061 18.4062 31 18.4062ZM37 10.9263V14.2621C37.5952 13.9258 38 13.3085 38 12.5947C38 11.8809 37.5952 11.2627 37 10.9263ZM31 1.9375C34.8589 1.9375 38 4.97951 38 8.71875V9.25752C37.4092 8.92404 36.7319 8.71875 36 8.71875H35.8281C34.271 8.71875 32.8071 8.13173 31.707 7.06506L31 6.37918L30.293 7.06506C29.1919 8.13173 27.729 8.71875 26.1719 8.71875H26C25.2681 8.71875 24.5908 8.92404 24 9.25752V8.71875C24 4.97951 27.1411 1.9375 31 1.9375ZM25 14.2612V10.9254C24.4048 11.2617 24 11.879 24 12.5928C24 13.3066 24.4048 13.9248 25 14.2612Z" fill="#B7BFC9"/>
<path fill-rule="evenodd" clip-rule="evenodd" d="M20 61H0V35H20V61ZM18 37H2V59H18V37Z" fill="#B7BFC9"/>
<path d="M4 39H16V41H4V39Z" fill="#B7BFC9"/>
<path d="M4 43H6V45H4V43Z" fill="#B7BFC9"/>
<path d="M8 43H16V45H8V43Z" fill="#B7BFC9"/>
<path d="M4 47H16V49H4V47Z" fill="#B7BFC9"/>
<path d="M4 51H16V53H4V51Z" fill="#B7BFC9"/>
<path d="M14 55H16V57H14V55Z" fill="#B7BFC9"/>
<path d="M4 55H12V57H4V55Z" fill="#B7BFC9"/>
<path d="M25.899 44.3519L24.5363 43L20 47.5L24.5363 52L25.899 50.6481L23.6893 48.456H31V46.544H23.6893L25.899 44.3519Z" fill="#B7BFC9"/>
<path d="M10.9274 15.5151C10.9274 14.9801 11.3594 14.5437 11.8912 14.5437H16.3107L14.101 16.7711L15.4637 18.1447L20 13.5723L15.4637 9L14.101 10.3736L16.3107 12.6009H11.8912C10.2974 12.6009 9 13.9086 9 15.5151V33H10.9274V15.5151Z" fill="#B7BFC9"/>
<path d="M47.1502 15.936V28.2535L44.7998 26.0095L43.3504 27.3934L48.1752 32L53 27.3934L51.5506 26.0095L49.2002 28.2535V15.936C49.2002 14.3175 47.8203 13 46.1251 13H41V14.9573H46.1251C46.6907 14.9573 47.1502 15.397 47.1502 15.936Z" fill="#B7BFC9"/>
</svg>
