<svg width="24" height="24" viewBox="0 0 24 24" fill="none" xmlns="http://www.w3.org/2000/svg">
<path fill-rule="evenodd" clip-rule="evenodd" d="M10.75 18.875C10.75 19.9101 9.91014 20.75 8.87498 20.75H3.875C2.83984 20.75 2 19.9101 2 18.875V9.49999C2 6.04685 4.79685 3.25 8.24999 3.25H8.56248C9.08201 3.25 9.49998 3.66798 9.49998 4.1875V6.06249C9.49998 6.58202 9.08201 6.99999 8.56248 6.99999H8.24999C6.87109 6.99999 5.74999 8.12109 5.74999 9.49999V12H8.87498C9.91014 12 10.75 12.8398 10.75 13.875V18.875ZM22 18.875C22 19.9101 21.1601 20.75 20.125 20.75H15.125C14.0898 20.75 13.25 19.9101 13.25 18.875V9.49999C13.25 6.04685 16.0468 3.25 19.5 3.25H19.8125C20.332 3.25 20.75 3.66798 20.75 4.1875V6.06249C20.75 6.58202 20.332 6.99999 19.8125 6.99999H19.5C18.1211 6.99999 17 8.12109 17 9.49999V12H20.125C21.1601 12 22 12.8398 22 13.875V18.875Z" fill="#95A0AB"/>
</svg>
