<?xml version="1.0" encoding="utf-8"?>
<!-- Generator: Adobe Illustrator 16.0.0, SVG Export Plug-In . SVG Version: 6.00 Build 0)  -->
<!DOCTYPE svg PUBLIC "-//W3C//DTD SVG 1.1//EN" "http://www.w3.org/Graphics/SVG/1.1/DTD/svg11.dtd">
<svg version="1.1" id="Layer_1" xmlns="http://www.w3.org/2000/svg" xmlns:xlink="http://www.w3.org/1999/xlink" x="0px" y="0px"
	 width="393.405px" height="56.728px" viewBox="0 0 393.405 56.728" enable-background="new 0 0 393.405 56.728"
	 xml:space="preserve">
<g>
	<polygon fill="#566F7E" points="6.084,17.847 6.084,50.211 26.123,50.211 26.123,55.86 0,55.86 0,17.847 	"/>
	<rect x="31.872" y="17.847" fill="#566F7E" width="6.029" height="38.013"/>
	<g>
		<path fill="#566F7E" d="M53.542,44.184V55.86h-6.084V17.846c5.81,0,11.785-0.055,17.595-0.055c18.138,0,18.192,26.285,0,26.393
			H53.542z M53.542,38.591h11.511c10.046,0,9.992-15.203,0-15.203H53.542V38.591z"/>
		<path fill="#566F7E" d="M121.527,37.015c0,10.266-6.242,19.66-19.44,19.66s-19.44-9.612-19.44-19.604
			c0-11.568,8.092-19.93,19.549-19.93C115.173,17.193,121.527,26.752,121.527,37.015 M102.087,51.083
			c9.449,0,13.414-6.681,13.414-13.958c0-7.004-4.02-14.282-13.305-14.443c-8.796,0-13.523,6.137-13.523,14.443
			C88.78,43.858,92.692,51.083,102.087,51.083"/>
		<path fill="#566F7E" d="M151.444,26.266c-1.789-2.607-5.431-4.183-9.395-4.237c-5.106,0-8.798,2.117-8.798,5.759
			c0,3.692,4.236,4.72,9.235,5.429c7.818,1.085,15.257,3.258,15.257,11.782c-0.054,8.527-7.822,11.729-15.749,11.729
			c-7.276,0-12.87-2.227-16.346-8.633l4.562-3.041c2.715,4.616,7.439,6.246,11.838,6.246c4.559,0,9.61-1.523,9.61-6.302
			c0-4.125-4.396-5.537-9.718-6.245c-7.548-1.032-14.716-2.932-14.716-11.078c-0.055-7.871,7.821-10.912,14.662-10.912
			c5.485,0,10.966,1.301,14.172,6.404L151.444,26.266z"/>
		<polygon fill="#566F7E" points="192.662,55.86 164.586,55.86 164.586,17.849 192.498,17.849 192.498,23.766 170.668,23.766 
			170.668,34.031 191.63,34.031 191.63,39.676 170.668,39.676 170.668,49.885 192.662,49.885 		"/>
		<polygon fill="#566F7E" points="226.707,44.89 226.707,17.847 232.788,17.847 232.788,55.86 228.171,55.86 206.612,29.034 
			206.612,55.86 200.476,55.86 200.476,17.847 205.148,17.847 		"/>
		<polygon fill="#566F7E" points="250.979,23.331 238.489,23.331 238.489,17.846 269.552,17.846 269.552,23.331 257.116,23.331 
			257.116,55.86 250.979,55.86 		"/>
		<rect x="275.246" y="17.847" fill="#566F7E" width="6.031" height="38.013"/>
		<path fill="#566F7E" d="M317.171,47.877h-20.583l-3.585,7.982h-6.459l17.048-38.014h6.628l17.051,38.014h-6.463L317.171,47.877z
			 M306.905,24.254l-8.036,18.083h16.072L306.905,24.254z"/>
		<polygon fill="#566F7E" points="338.617,17.847 338.617,50.211 358.656,50.211 358.656,55.86 332.534,55.86 332.534,17.847 		"/>
		<path fill="#566F7E" d="M387.107,26.266c-1.788-2.607-5.432-4.183-9.395-4.237c-5.104,0-8.798,2.117-8.798,5.759
			c0,3.692,4.237,4.72,9.232,5.429c7.818,1.085,15.258,3.258,15.258,11.782c-0.053,8.527-7.818,11.729-15.746,11.729
			c-7.277,0-12.869-2.227-16.345-8.633l4.561-3.041c2.714,4.616,7.438,6.246,11.838,6.246c4.56,0,9.611-1.523,9.611-6.302
			c0-4.125-4.398-5.537-9.721-6.245c-7.548-1.032-14.717-2.932-14.717-11.078c-0.053-7.871,7.822-10.912,14.664-10.912
			c5.483,0,10.968,1.301,14.173,6.404L387.107,26.266z"/>
		<path fill="#566F7E" d="M115.184,15.935c0,0-0.538-15.665,15.346-15.935C130.53,0,131.66,14.827,115.184,15.935"/>
	</g>
</g>
</svg>
