<svg xmlns="http://www.w3.org/2000/svg" width="393.404" height="56.728" viewBox="0 0 393.404 56.728">
  <g id="logo-liposentials" style="isolation: isolate">
    <path id="Path_4" data-name="Path 4" d="M6.084,17.847V50.211H26.123V55.86H0V17.847Z" fill="#566f7e"/>
    <rect id="Rectangle_5" data-name="Rectangle 5" width="6.029" height="38.013" transform="translate(31.872 17.847)" fill="#566f7e"/>
    <g id="Group_1" data-name="Group 1" style="isolation: isolate">
      <path id="Path_5" data-name="Path 5" d="M53.542,44.184V55.86H47.458V17.846c5.81,0,11.785-.055,17.6-.055,18.138,0,18.192,26.285,0,26.393Zm0-5.593H65.053c10.046,0,9.992-15.2,0-15.2H53.542Z" fill="#566f7e"/>
      <path id="Path_6" data-name="Path 6" d="M121.527,37.015c0,10.266-6.242,19.66-19.44,19.66s-19.44-9.612-19.44-19.6c0-11.568,8.092-19.93,19.549-19.93,12.977.052,19.331,9.611,19.331,19.874m-19.44,14.068c9.449,0,13.414-6.681,13.414-13.958,0-7-4.02-14.282-13.305-14.443-8.8,0-13.523,6.137-13.523,14.443.107,6.733,4.019,13.958,13.414,13.958" fill="#566f7e"/>
      <path id="Path_7" data-name="Path 7" d="M151.444,26.266c-1.789-2.607-5.431-4.183-9.4-4.237-5.106,0-8.8,2.117-8.8,5.759,0,3.692,4.236,4.72,9.235,5.429C150.3,34.3,157.743,36.475,157.743,45c-.054,8.527-7.822,11.729-15.749,11.729-7.276,0-12.87-2.227-16.346-8.633l4.562-3.041c2.715,4.616,7.439,6.246,11.838,6.246,4.559,0,9.61-1.523,9.61-6.3,0-4.125-4.4-5.537-9.718-6.245-7.548-1.032-14.716-2.932-14.716-11.078-.055-7.871,7.821-10.912,14.662-10.912,5.485,0,10.966,1.3,14.172,6.4Z" fill="#566f7e"/>
      <path id="Path_8" data-name="Path 8" d="M192.662,55.86H164.586V17.849H192.5v5.917h-21.83V34.031H191.63v5.645H170.668V49.885h21.994Z" fill="#566f7e"/>
      <path id="Path_9" data-name="Path 9" d="M226.707,44.89V17.847h6.081V55.86h-4.617L206.612,29.034V55.86h-6.136V17.847h4.672Z" fill="#566f7e"/>
      <path id="Path_10" data-name="Path 10" d="M250.979,23.331h-12.49V17.846h31.063v5.485H257.116V55.86h-6.137Z" fill="#566f7e"/>
      <rect id="Rectangle_6" data-name="Rectangle 6" width="6.031" height="38.013" transform="translate(275.246 17.847)" fill="#566f7e"/>
      <path id="Path_11" data-name="Path 11" d="M317.171,47.877H296.588L293,55.859h-6.459l17.048-38.014h6.628l17.051,38.014h-6.463ZM306.9,24.254l-8.036,18.083h16.072Z" fill="#566f7e"/>
      <path id="Path_12" data-name="Path 12" d="M338.617,17.847V50.211h20.039V55.86H332.534V17.847Z" fill="#566f7e"/>
      <path id="Path_13" data-name="Path 13" d="M387.107,26.266c-1.788-2.607-5.432-4.183-9.395-4.237-5.1,0-8.8,2.117-8.8,5.759,0,3.692,4.237,4.72,9.232,5.429C385.964,34.3,393.4,36.475,393.4,45c-.053,8.527-7.818,11.729-15.746,11.729-7.277,0-12.869-2.227-16.345-8.633l4.561-3.041c2.714,4.616,7.438,6.246,11.838,6.246,4.56,0,9.611-1.523,9.611-6.3,0-4.125-4.4-5.537-9.721-6.245-7.548-1.032-14.717-2.932-14.717-11.078-.053-7.871,7.822-10.912,14.664-10.912,5.483,0,10.968,1.3,14.173,6.4Z" fill="#566f7e"/>
      <path id="Path_14" data-name="Path 14" d="M115.184,15.935S114.646.27,130.53,0c0,0,1.13,14.827-15.346,15.935" fill="#566f7e"/>
    </g>
  </g>
</svg>
