<?xml version="1.0" encoding="utf-8"?>
<!-- Generator: Adobe Illustrator 16.0.0, SVG Export Plug-In . SVG Version: 6.00 Build 0)  -->
<!DOCTYPE svg PUBLIC "-//W3C//DTD SVG 1.1//EN" "http://www.w3.org/Graphics/SVG/1.1/DTD/svg11.dtd">
<svg version="1.1" id="Layer_1" xmlns="http://www.w3.org/2000/svg" xmlns:xlink="http://www.w3.org/1999/xlink" x="0px" y="0px"
	 width="409.635px" height="309.76px" viewBox="0 0 409.635 309.76" enable-background="new 0 0 409.635 309.76"
	 xml:space="preserve">
<path fill-rule="evenodd" clip-rule="evenodd" d="M409.635,10.146c0,83.741,0,167.481,0,251.222
	c-2.93,7.79-8.616,10.77-16.814,10.475c-9.972-0.357-19.967-0.085-29.849-0.085c-8.751,27.069-30.496,37.922-49.617,37.983
	c-10.395,0.032-20.018-2.82-28.649-8.644c-10.55-7.116-17.453-16.974-21.085-29.196c-43.367,0-86.545,0-129.868,0
	c-0.563,1.496-1.119,2.982-1.682,4.464c-4.648,12.228-12.744,21.489-24.315,27.516c-27.681,14.421-61.326,1.274-71.822-28.129
	c-1.166-3.265-2.661-4.262-5.927-4.061c-4.383,0.27-8.812-0.169-13.193,0.117C8.619,272.343,2.93,269.158,0,261.368
	c0-37.604,0-75.207,0-112.81c0.857-1.793,1.668-3.609,2.579-5.376c11.58-22.479,23.272-44.902,34.705-67.457
	c3.4-6.708,8.264-9.761,15.857-9.711c29.452,0.195,58.907,0.08,88.36,0.08c1.546,0,3.093,0,4.923,0c0-1.972,0-3.417,0-4.862
	c0-15.459-0.03-30.919,0.013-46.379c0.025-9.171,5.091-14.371,14.215-14.741c1.064-0.043,2.132-0.017,3.198-0.017
	c76.1-0.001,152.2,0.064,228.299-0.095C400.315-0.017,406.398,2.288,409.635,10.146z M382.818,245.25c0-73.126,0-145.685,0-218.17
	c-70.093,0-139.862,0-209.683,0c0,72.798,0,145.258,0,218.174c1.64,0,3.071,0,4.503,0c27.196,0,54.392-0.067,81.586,0.087
	c3.383,0.02,4.69-1.078,5.807-4.195c9.759-27.254,39.808-40.929,66.779-30.376c14.74,5.768,24.583,16.421,30.026,31.27
	c0.47,1.281,2.018,3.008,3.142,3.067C370.811,245.416,376.667,245.25,382.818,245.25z M146.115,245.125c0-26.848,0-53.294,0-79.614
	c-39.976,0-79.643,0-119.387,0c0,26.642,0,52.978,0,79.273c7.157,1.208,7.157,1.208,9.629-5.15
	c12.744-32.78,54.735-43.017,81.303-19.85c7.86,6.853,12.971,15.432,16.055,25.341C137.874,245.125,141.842,245.125,146.115,245.125
	z M146.261,92.806c-0.797-0.115-1.184-0.218-1.571-0.219c-27.864-0.012-55.728,0.023-83.591-0.088
	c-2.408-0.01-3.205,1.209-4.087,2.936c-5.822,11.378-11.689,22.734-17.536,34.1c-1.436,2.792-2.85,5.597-4.489,8.82
	c37.427,0,74.269,0,111.274,0C146.261,123.101,146.261,108.083,146.261,92.806z M84.007,283.118
	c13.584,0.021,24.683-10.951,24.787-24.502c0.104-13.579-11.38-25.048-24.907-24.873c-13.549,0.175-24.665,11.372-24.612,24.792
	C59.328,272.062,70.43,283.098,84.007,283.118z M337.865,258.428c-0.034-13.558-11.09-24.654-24.614-24.705
	c-13.473-0.051-24.601,11.022-24.724,24.603c-0.125,13.721,11.049,24.886,24.821,24.8C326.982,283.04,337.9,272.042,337.865,258.428
	z"/>
<path fill-rule="evenodd" clip-rule="evenodd" d="M259.216,137.809c16.232-14.42,32.867-29.196,49.499-43.973
	c4.884-4.337,9.732-8.713,14.652-13.009c6.494-5.67,14.408-5.522,19.602,0.292c5.181,5.8,4.5,13.755-1.936,19.493
	c-24.377,21.731-48.793,43.417-73.248,65.059c-6.94,6.142-13.911,5.841-20.485-0.777c-10.991-11.064-21.937-22.176-32.842-33.326
	c-6.078-6.215-6.361-14.025-0.86-19.553c5.554-5.583,13.496-5.123,19.879,1.057C241.898,121.224,250.376,129.318,259.216,137.809z"
	/>
</svg>
