<?xml version="1.0" encoding="utf-8"?>
<!-- Generator: Adobe Illustrator 16.0.0, SVG Export Plug-In . SVG Version: 6.00 Build 0)  -->
<!DOCTYPE svg PUBLIC "-//W3C//DTD SVG 1.1//EN" "http://www.w3.org/Graphics/SVG/1.1/DTD/svg11.dtd">
<svg version="1.1" id="Layer_1" xmlns="http://www.w3.org/2000/svg" xmlns:xlink="http://www.w3.org/1999/xlink" x="0px" y="0px"
	 width="409.635px" height="374.842px" viewBox="0 0 409.635 374.842" enable-background="new 0 0 409.635 374.842"
	 xml:space="preserve">
<g>
	<path fill-rule="evenodd" clip-rule="evenodd" d="M0,12.278C3.143,3.179,9.597-0.24,19.08,0.013
		c15.054,0.4,30.127,0.079,45.193,0.119c9.485,0.024,14.564,3.95,16.823,13.192c4.234,17.325,8.34,34.681,12.507,52.022
		c0.309,1.285,0.679,2.554,1.114,4.183c1.896,0,3.736,0,5.577,0c96.791,0,193.582,0.002,290.373-0.008
		c4.438-0.001,9.152-0.218,12.478,3.053c2.65,2.608,4.363,6.171,6.491,9.31c0,2.134,0,4.267,0,6.4
		c-2.673,10.271-5.444,20.519-8,30.817c-9.717,39.143-19.352,78.306-29.046,117.453c-2.577,10.406-7.474,14.214-18.12,14.215
		c-77.731,0.006-155.463,0.006-233.194,0.001c-10.96-0.001-15.729-3.724-18.29-14.427C87.033,169.674,71.103,103,55.174,36.326
		c-1.348-5.639-1.319-5.646-7.144-5.646c-9.466,0-18.948-0.333-28.395,0.093C10.105,31.203,3.357,27.89,0,18.678
		C0,16.544,0,14.412,0,12.278z M374.649,100.431c-90.964,0-181.536,0-272.667,0c9.566,40.04,19.07,79.822,28.587,119.654
		c1.272,0.056,2.193,0.131,3.114,0.131c69.311,0.006,138.621-0.008,207.932,0.057c2.589,0.002,3.613-0.726,4.251-3.348
		c6.766-27.797,13.699-55.554,20.582-83.322C369.164,122.645,371.868,111.684,374.649,100.431z"/>
	<path fill-rule="evenodd" clip-rule="evenodd" d="M189.959,323.991c-0.148,28.298-23.016,50.984-51.254,50.85
		c-28.272-0.136-50.908-23.007-50.768-51.293c0.14-28.208,23.212-50.937,51.411-50.646
		C167.5,273.191,190.104,296.01,189.959,323.991z M159.269,323.711c-0.059-11.146-9.242-20.249-20.4-20.222
		c-11.084,0.027-20.342,9.27-20.369,20.336c-0.027,11.199,9.489,20.608,20.684,20.449
		C150.315,344.117,159.329,334.889,159.269,323.711z"/>
	<path fill-rule="evenodd" clip-rule="evenodd" d="M273.356,323.756c0.08-28.284,22.972-51.024,51.197-50.861
		c28.309,0.164,50.936,23.022,50.767,51.287c-0.167,28.091-22.886,50.661-50.992,50.66
		C296.068,374.841,273.274,351.996,273.356,323.756z M303.987,323.706c-0.071,11.156,8.969,20.41,20.092,20.568
		c11.185,0.159,20.715-9.255,20.695-20.443c-0.019-11.051-9.294-20.313-20.37-20.344
		C313.256,303.458,304.057,312.567,303.987,323.706z"/>
</g>
</svg>
