<svg width="97" height="32" viewBox="0 0 97 32" fill="none" xmlns="http://www.w3.org/2000/svg">
<path d="M0 4C0 1.79086 1.79086 0 4 0H93C95.2091 0 97 1.79086 97 4V28C97 30.2091 95.2091 32 93 32H4C1.79086 32 0 30.2091 0 28V4Z" fill="#DDEFD5"/>
<path d="M46.873 18.1426L49.041 11.4688H50.6699L47.5996 20H46.1641L43.1055 11.4688H44.7285L46.873 18.1426ZM54.0332 20.1172C53.1309 20.1172 52.3984 19.834 51.8359 19.2676C51.2773 18.6973 50.998 17.9395 50.998 16.9941V16.8184C50.998 16.1855 51.1191 15.6211 51.3613 15.125C51.6074 14.625 51.9512 14.2363 52.3926 13.959C52.834 13.6816 53.3262 13.543 53.8691 13.543C54.7324 13.543 55.3984 13.8184 55.8672 14.3691C56.3398 14.9199 56.5762 15.6992 56.5762 16.707V17.2812H52.4336C52.4766 17.8047 52.6504 18.2188 52.9551 18.5234C53.2637 18.8281 53.6504 18.9805 54.1152 18.9805C54.7676 18.9805 55.2988 18.7168 55.709 18.1895L56.4766 18.9219C56.2227 19.3008 55.8828 19.5957 55.457 19.8066C55.0352 20.0137 54.5605 20.1172 54.0332 20.1172ZM53.8633 14.6855C53.4727 14.6855 53.1562 14.8223 52.9141 15.0957C52.6758 15.3691 52.5234 15.75 52.457 16.2383H55.1699V16.1328C55.1387 15.6562 55.0117 15.2969 54.7891 15.0547C54.5664 14.8086 54.2578 14.6855 53.8633 14.6855ZM61.0059 14.9609C60.8184 14.9297 60.625 14.9141 60.4258 14.9141C59.7734 14.9141 59.334 15.1641 59.1074 15.6641V20H57.6836V13.6602H59.043L59.0781 14.3691C59.4219 13.8184 59.8984 13.543 60.5078 13.543C60.7109 13.543 60.8789 13.5703 61.0117 13.625L61.0059 14.9609ZM63.4199 20H61.9961V13.6602H63.4199V20ZM61.9082 12.0137C61.9082 11.7949 61.9766 11.6133 62.1133 11.4688C62.2539 11.3242 62.4531 11.252 62.7109 11.252C62.9688 11.252 63.168 11.3242 63.3086 11.4688C63.4492 11.6133 63.5195 11.7949 63.5195 12.0137C63.5195 12.2285 63.4492 12.4082 63.3086 12.5527C63.168 12.6934 62.9688 12.7637 62.7109 12.7637C62.4531 12.7637 62.2539 12.6934 62.1133 12.5527C61.9766 12.4082 61.9082 12.2285 61.9082 12.0137ZM65.3535 20V14.7148H64.3867V13.6602H65.3535V13.2266C65.3574 12.7305 65.4629 12.3047 65.6699 11.9492C65.877 11.5938 66.1699 11.3262 66.5488 11.1465C66.9277 10.9668 67.3828 10.877 67.9141 10.877C68.2266 10.877 68.5254 10.9102 68.8105 10.9766C69.0996 11.043 69.3984 11.127 69.707 11.2285L69.4902 12.4062C68.9512 12.2188 68.459 12.125 68.0137 12.125C67.5801 12.125 67.2656 12.2207 67.0703 12.4121C66.875 12.5996 66.7773 12.8828 66.7773 13.2617V13.6602H68.0254V14.7148H66.7773V20H65.3535ZM70.3809 20H68.957V13.6602H70.3809V20ZM74.752 20.1172C73.8496 20.1172 73.1172 19.834 72.5547 19.2676C71.9961 18.6973 71.7168 17.9395 71.7168 16.9941V16.8184C71.7168 16.1855 71.8379 15.6211 72.0801 15.125C72.3262 14.625 72.6699 14.2363 73.1113 13.959C73.5527 13.6816 74.0449 13.543 74.5879 13.543C75.4512 13.543 76.1172 13.8184 76.5859 14.3691C77.0586 14.9199 77.2949 15.6992 77.2949 16.707V17.2812H73.1523C73.1953 17.8047 73.3691 18.2188 73.6738 18.5234C73.9824 18.8281 74.3691 18.9805 74.834 18.9805C75.4863 18.9805 76.0176 18.7168 76.4277 18.1895L77.1953 18.9219C76.9414 19.3008 76.6016 19.5957 76.1758 19.8066C75.7539 20.0137 75.2793 20.1172 74.752 20.1172ZM74.582 14.6855C74.1914 14.6855 73.875 14.8223 73.6328 15.0957C73.3945 15.3691 73.2422 15.75 73.1758 16.2383H75.8887V16.1328C75.8574 15.6562 75.7305 15.2969 75.5078 15.0547C75.2852 14.8086 74.9766 14.6855 74.582 14.6855ZM78.1387 16.7832C78.1387 15.8066 78.3652 15.0234 78.8184 14.4336C79.2715 13.8398 79.8789 13.543 80.6406 13.543C81.3125 13.543 81.8555 13.7773 82.2695 14.2461V11H83.6934V20H82.4043L82.334 19.3438C81.9082 19.8594 81.3398 20.1172 80.6289 20.1172C79.8867 20.1172 79.2852 19.8184 78.8242 19.2207C78.3672 18.623 78.1387 17.8105 78.1387 16.7832ZM79.5625 16.9062C79.5625 17.5508 79.6855 18.0547 79.9316 18.418C80.1816 18.7773 80.5352 18.957 80.9922 18.957C81.5742 18.957 82 18.6973 82.2695 18.1777V15.4707C82.0078 14.9629 81.5859 14.709 81.0039 14.709C80.543 14.709 80.1875 14.8926 79.9375 15.2598C79.6875 15.623 79.5625 16.1719 79.5625 16.9062Z" fill="#149137"/>
<path d="M26.7499 10H15.0833C13.9327 10 13 10.9327 13 12.0833V18.75C13 19.75 14.1642 20.8333 14.9738 20.8333H26.7499C27.9004 20.8333 28.8332 19.9006 28.8332 18.75V12.0833C28.8332 10.9327 27.9004 10 26.7499 10Z" fill="white"/>
<path d="M19.9922 13.3323H19.1589C18.9287 13.3323 18.7422 13.1458 18.7422 12.9157C18.7422 12.6855 18.9287 12.499 19.1588 12.499H19.9921C20.2222 12.499 20.4088 12.6856 20.4088 12.9157C20.4088 13.1458 20.2223 13.3323 19.9922 13.3323Z" fill="#90A4AE"/>
<path fill-rule="evenodd" clip-rule="evenodd" d="M25.8592 13.3323H26.6751C26.9052 13.3323 27.0917 13.1458 27.0917 12.9157C27.0917 12.6856 26.9052 12.499 26.6751 12.499H25.8418C25.8359 12.499 25.8301 12.4991 25.8244 12.4994H25.0084C24.7783 12.4994 24.5918 12.6859 24.5918 12.916C24.5918 13.1461 24.7784 13.3327 25.0085 13.3327H25.8418C25.8476 13.3327 25.8534 13.3326 25.8592 13.3323Z" fill="#90A4AE"/>
<path fill-rule="evenodd" clip-rule="evenodd" d="M22.5052 13.3382H23.3289C23.559 13.3382 23.7455 13.1517 23.7455 12.9216C23.7455 12.6914 23.559 12.5049 23.3289 12.5049H22.4956C22.4925 12.5049 22.4895 12.5049 22.4865 12.505H21.6627C21.4326 12.505 21.2461 12.6915 21.2461 12.9216C21.2461 13.1517 21.4327 13.3383 21.6628 13.3383H22.4961C22.4991 13.3383 22.5021 13.3383 22.5052 13.3382Z" fill="#90A4AE"/>
<path d="M22.8482 15.8333H19.149C18.9189 15.8333 18.7324 15.6468 18.7324 15.4167C18.7324 15.1865 18.9189 15 19.149 15L22.7324 15.001C22.9625 15.001 22.899 15.1866 22.899 15.4167C22.899 15.6468 23.0783 15.8333 22.8482 15.8333Z" fill="#90A4AE"/>
<path fill-rule="evenodd" clip-rule="evenodd" d="M20.0039 18.3323H18.7388C18.7366 18.3323 18.7345 18.3324 18.7324 18.3324H15.3991C15.169 18.3324 14.9824 18.1458 14.9824 17.9157C14.9824 17.6856 15.169 17.499 15.3991 17.499H16.6817C16.6838 17.499 16.686 17.499 16.6881 17.499H20.0214C20.0229 17.499 20.0244 17.499 20.0259 17.499H23.3287H23.3417H26.6619C26.8921 17.499 27.0786 17.6856 27.0786 17.9157C27.0786 18.1458 26.8921 18.3323 26.6619 18.3323H23.3417H23.3287H20.0084C20.0069 18.3323 20.0054 18.3323 20.0039 18.3323Z" fill="#90A4AE"/>
<path d="M25.7773 15.8323H22.444C22.2139 15.8323 22.0273 15.6458 22.0273 15.4157C22.0273 15.1855 22.2139 14.999 22.444 14.999H25.7773C26.0074 14.999 26.194 15.1856 26.194 15.4157C26.194 15.6458 26.0074 15.8323 25.7773 15.8323Z" fill="#90A4AE"/>
<path d="M20.082 18.3334H19.2487C19.0186 18.3334 18.832 18.1468 18.832 17.9167C18.832 17.6866 19.0186 17.5 19.2487 17.5H20.082C20.3121 17.5 20.4987 17.6866 20.4987 17.9167C20.4987 18.1468 20.3121 18.3334 20.082 18.3334Z" fill="#90A4AE"/>
<path d="M28.5833 23.1666C31.1145 23.1666 33.1665 21.1146 33.1665 18.5833C33.1665 16.052 31.1145 14 28.5833 14C26.052 14 24 16.052 24 18.5833C24 21.1146 26.052 23.1666 28.5833 23.1666Z" fill="#149037"/>
<path d="M27.5825 20.6669C27.4719 20.6671 27.3658 20.6234 27.2875 20.5453L25.6209 18.8786C25.461 18.7131 25.4656 18.4493 25.6311 18.2894C25.7926 18.1335 26.0486 18.1335 26.21 18.2894L27.5825 19.6611L30.6208 16.6228C30.7863 16.463 31.0501 16.4675 31.21 16.633C31.3659 16.7945 31.3659 17.0505 31.21 17.212L27.8767 20.5453C27.7986 20.6232 27.6928 20.6669 27.5825 20.6669Z" fill="#FAFAFA"/>
<path d="M17.5069 14.8593L16.8838 14.5409C16.8251 14.5108 16.7886 14.4504 16.7886 14.3832V14.1578C16.8035 14.1391 16.8192 14.1179 16.8354 14.0944C16.9162 13.9777 16.981 13.8479 17.0281 13.7078C17.1201 13.6647 17.1799 13.5717 17.1799 13.4667V13.2C17.1799 13.1358 17.1564 13.0736 17.1146 13.025V12.6704C17.1183 12.6337 17.1326 12.4155 16.9782 12.2354C16.8442 12.0792 16.6269 12 16.332 12C16.0372 12 15.8198 12.0792 15.6859 12.2353C15.5314 12.4154 15.5458 12.6337 15.5494 12.6704V13.025C15.5077 13.0736 15.4842 13.1358 15.4842 13.2V13.4667C15.4842 13.5478 15.5203 13.6235 15.5818 13.6739C15.6416 13.9157 15.7666 14.0979 15.8103 14.1564V14.377C15.8103 14.4415 15.7759 14.5007 15.7205 14.5317L15.1387 14.8561C14.9495 14.9616 14.832 15.1639 14.832 15.3841V15.6C14.832 15.9164 15.8132 16 16.332 16C16.8508 16 17.832 15.9164 17.832 15.6V15.3971C17.832 15.1679 17.7074 14.9618 17.5069 14.8593Z" fill="#90A4AE"/>
</svg>
