<?xml version="1.0" encoding="utf-8"?>
<!-- Generator: Adobe Illustrator 16.0.0, SVG Export Plug-In . SVG Version: 6.00 Build 0)  -->
<!DOCTYPE svg PUBLIC "-//W3C//DTD SVG 1.1//EN" "http://www.w3.org/Graphics/SVG/1.1/DTD/svg11.dtd">
<svg version="1.1" id="Layer_1" xmlns="http://www.w3.org/2000/svg" xmlns:xlink="http://www.w3.org/1999/xlink" x="0px" y="0px"
	 width="501.493px" height="505.134px" viewBox="0 0 501.493 505.134" enable-background="new 0 0 501.493 505.134"
	 xml:space="preserve">
<g>
	<path fill-rule="evenodd" clip-rule="evenodd" fill="#F5F5F5" d="M272.407,503.298c70.051-5.592,207.146,1.777,226.9-235.104
		C519.934,20.992,392.786-50.783,194.222,34.176C64.753,89.573-39.647,148.42,14.718,317.917
		C47.579,420.368,63.652,519.963,272.407,503.298z"/>
</g>
<path fill="#0E962A" d="M445.979,255.436c-0.974,7.682-1.689,15.409-2.973,23.042c-3.572,21.205-10.521,41.106-23.424,58.622
	c-12.979,17.62-30.359,29.14-50.671,36.529c-18.315,6.666-37.337,9.811-56.761,10.169c-16.524,0.305-33.081,0.517-49.593-0.072
	c-35.954-1.289-70.573-8.464-102.748-25.314c-26.606-13.934-47.002-34.188-61.168-60.65c-13.66-25.508-20.889-52.959-24.154-81.552
	c-0.895-7.826-1.444-15.69-2.15-23.534c0-8.515,0-17.028,0-25.542c0.24-1.422,0.523-2.834,0.702-4.26
	c0.712-5.657,3.954-9.612,9.607-10.354c5.516-0.729,11.136-0.813,16.722-0.883c27.263-0.345,54.104,2.825,80.321,10.43
	c21.157,6.136,40.935,15.154,58.701,28.405c18.417,13.736,32.188,31.231,42.514,51.579c6.446,12.712,11.395,26.004,14.955,39.813
	c0.347,1.362,0.863,2.677,1.323,4.081c3.493-5.718,6.587-11.371,10.242-16.637c13.857-19.989,33.348-32.297,56.004-39.888
	c21.923-7.344,44.594-9.671,67.605-8.761c9.865,0.391,11.869,2.337,14.944,12.883C445.979,240.839,445.979,248.137,445.979,255.436z
	 M281.688,344.551c0.593-16.039-4.474-47.124-10.993-67.724c-13.768-43.519-41.607-73.538-84.924-88.94
	c-24.184-8.594-49.163-12.331-74.649-13.373c-5.182-0.21-10.376-0.032-15.503-0.032c0,6.742-0.219,13.159,0.04,19.557
	c1.003,25.03,5.164,49.477,13.932,73.039c13.346,35.859,37.002,61.934,72.532,76.944c20.441,8.63,41.807,13.328,63.755,15.706
	c6.33,0.685,12.699,1.038,20.003,1.621c-1.582-1.682-2.439-2.645-3.349-3.552c-26.557-26.572-53.121-53.139-79.68-79.712
	c-1.028-1.033-2.092-2.04-3.001-3.178c-3.009-3.765-3.324-8.907-0.871-12.958c2.458-4.06,7.22-6.447,11.875-5.048
	c2.75,0.827,5.489,2.627,7.549,4.672c26.74,26.56,53.36,53.242,80.012,79.888C279.331,342.376,280.299,343.244,281.688,344.551z
	 M322.435,360.352c12.539-1.053,24.125-3.327,35.423-7.031c25.234-8.277,43.981-23.805,54.209-48.75
	c6.232-15.2,9.47-31.089,10.51-47.432c0.286-4.531,0.043-9.093,0.043-13.724c-0.651-0.048-1.247-0.14-1.847-0.128
	c-17.463,0.307-34.634,2.576-51.244,8.177c-14.496,4.891-27.521,12.24-37.831,23.775c-11.021,12.334-17.531,27.035-21.377,42.918
	c-1.995,8.247-3.154,16.705-4.695,25.062c0.325,0.109,0.65,0.222,0.976,0.328c0.949-0.9,1.923-1.773,2.844-2.694
	c14.873-14.871,29.744-29.744,44.62-44.606c1.031-1.03,2.066-2.074,3.219-2.962c3.679-2.852,8.724-3.147,12.659-0.83
	c4.123,2.43,6.577,7.123,5.233,11.784c-0.79,2.756-2.558,5.522-4.589,7.591c-14.919,15.169-30.018,30.154-45.049,45.208
	C324.621,357.956,323.761,358.935,322.435,360.352z"/>
</svg>
