<?xml version="1.0" encoding="utf-8"?>
<!-- Generator: Adobe Illustrator 16.0.0, SVG Export Plug-In . SVG Version: 6.00 Build 0)  -->
<!DOCTYPE svg PUBLIC "-//W3C//DTD SVG 1.1//EN" "http://www.w3.org/Graphics/SVG/1.1/DTD/svg11.dtd">
<svg version="1.1" id="Layer_1" xmlns="http://www.w3.org/2000/svg" xmlns:xlink="http://www.w3.org/1999/xlink" x="0px" y="0px"
	 width="512.233px" height="469.077px" viewBox="0 0 512.233 469.077" enable-background="new 0 0 512.233 469.077"
	 xml:space="preserve">
<g>
	<path fill-rule="evenodd" clip-rule="evenodd" fill="#F5F5F5" d="M131.534,424.627c58.346,31.997,163.005,109.125,301.824-68.056
		C578.236,171.666,514.951,48.749,313.629,12.718C182.361-10.773,69.14-18.498,24.016,143.905
		C-3.26,242.072-42.333,329.252,131.534,424.627z"/>
</g>
<g>
	<path fill="#4FB2B8" d="M357.952,250.004c-10.925-17.209-21.869-34.408-32.81-51.607l-32.216,18.088
		c8.808,0.804,17.642,3.628,26.467,8.438c1.164,0.634,2.233,1.711,2.954,2.836c16.13,25.247,32.194,50.534,48.298,75.8
		c5.938,9.32,6.864,18.98,1.454,28.731c-5.407,9.751-14.098,14.025-25.146,14.011c-31.789-0.051-63.58-0.019-95.369-0.019
		c-31.888-0.003-63.777,0.033-95.667-0.015c-14.984-0.025-26.137-9.896-27.836-24.539c-0.583-5.015,0.362-9.717,2.486-14.098
		l-20.788,11.67c0.021,4.639,0.833,9.373,2.544,14.201c6.017,17,18.136,27.178,36.011,30.3c0.777,0.141,1.54,0.356,2.308,0.537
		c67.414,0,134.827,0,202.24,0c5.775-1.85,11.928-2.958,17.257-5.68c21.51-10.988,30.214-39.297,18.13-60.266
		C378.772,281.913,368.154,266.073,357.952,250.004z"/>
	<path fill="#4FB2B8" d="M314.931,265.467c0.427-14.575-11.546-26.981-26.536-27.495c-14.556-0.495-26.973,11.422-27.565,26.457
		c-0.577,14.619,11.635,27.278,26.675,27.653C302.096,292.447,314.491,280.418,314.931,265.467z M287.823,274.028
		c-4.914-0.03-8.983-4.15-8.952-9.062c0.031-4.91,4.149-8.979,9.061-8.948c4.911,0.028,8.981,4.15,8.952,9.058
		C296.851,269.99,292.732,274.06,287.823,274.028z"/>
	<path fill="#4FB2B8" d="M224.653,301.063c-0.075-14.758-12.342-26.989-27.063-26.989c-14.846,0.005-27.285,12.549-27.063,27.288
		c0.223,14.833,12.545,26.984,27.214,26.841C212.532,328.06,224.729,315.758,224.653,301.063z M188.585,301.039
		c0.053-4.91,4.194-8.96,9.102-8.906c4.911,0.051,8.963,4.192,8.909,9.101c-0.053,4.91-4.192,8.965-9.102,8.911
		C192.583,310.089,188.531,305.95,188.585,301.039z"/>
	<path fill="#4FB2B8" d="M260.766,301.109c-0.013-4.907-4.122-8.993-9.031-8.977c-4.91,0.014-8.994,4.122-8.979,9.033
		c0.014,4.91,4.122,8.993,9.033,8.979C256.699,310.128,260.783,306.021,260.766,301.109z"/>
	<path fill="#4FB2B8" d="M332.997,301.06c-0.047-4.911-4.179-8.972-9.087-8.927c-4.909,0.045-8.97,4.176-8.926,9.083
		c0.049,4.917,4.179,8.972,9.087,8.929C328.981,310.098,333.042,305.967,332.997,301.06z"/>
	<path fill="#4FB2B8" d="M278.871,319.332c0.076,4.908,4.234,8.946,9.142,8.87c4.908-0.079,8.946-4.237,8.871-9.142
		c-0.079-4.908-4.234-8.946-9.143-8.873C282.833,310.266,278.794,314.424,278.871,319.332z"/>
	<path fill="#4FB2B8" d="M412.437,110.776L307.068,169.93c-2.87-4.521-5.746-9.035-8.611-13.556
		c-0.898-1.421-1.471-3.307-1.483-4.983c-0.125-12.635-0.067-25.271-0.067-37.909c0-0.984,0-1.967,0-3.108
		c6.582-0.425,12.437-2.191,17.307-6.463c8.284-7.263,11.475-16.426,8.854-27.039c-2.744-11.111-10.191-17.834-21.461-20.202
		c-0.572-0.12-1.128-0.337-1.688-0.508c-32.102,0-64.205,0-96.307,0c-5.409,1.219-10.603,2.904-14.777,6.802
		c-8.021,7.488-11.081,16.619-8.187,27.235c3.025,11.094,10.55,17.615,21.885,19.672c1.268,0.23,2.551,0.377,4.088,0.601
		c0,1.142,0,2.225,0,3.308c0,12.437,0.069,24.873-0.074,37.308c-0.021,1.86-0.648,3.957-1.647,5.532
		c-23.247,36.654-46.538,73.279-69.86,109.887l-75.253,42.248l8.135,14.49l344.518-193.412l0.21,0.378l8.138-4.568L412.437,110.776z
		 M278.848,110.614c0,5.349,0,10.755,0,16.16c0,9.326-0.19,18.66,0.115,27.977c0.092,2.847,0.987,5.99,2.466,8.415
		c3.208,5.256,6.49,10.464,9.796,15.659l-111.42,62.55c-2.31-0.005-4.65-0.124-7.033-0.363c0.974-1.577,1.638-2.683,2.331-3.77
		c15.595-24.521,31.165-49.059,46.819-73.542c1.912-2.991,2.823-6.047,2.796-9.606c-0.103-14.436-0.043-28.873-0.043-43.498
		c0.792-0.212,1.528-0.389,2.254-0.604c4.501-1.35,7.263-5.39,6.697-9.775c-0.575-4.444-4.175-7.792-8.843-7.894
		c-6.114-0.132-12.236,0.037-18.35-0.097c-3.859-0.086-6.669-2.082-8.14-5.654c-1.437-3.485-0.903-6.964,1.883-9.385
		c1.75-1.52,4.387-2.822,6.637-2.835c29.983-0.184,59.972-0.152,89.958-0.095c5.203,0.009,9.066,3.937,9.139,8.86
		c0.073,5.041-3.84,9.022-9.178,9.129c-5.214,0.103-10.43,0.025-15.646,0.03c-6.637,0.006-10.559,2.811-11.193,7.998
		C269.282,105.28,272.357,108.891,278.848,110.614z"/>
</g>
</svg>
