<?xml version="1.0" encoding="utf-8"?>
<!-- Generator: Adobe Illustrator 16.0.0, SVG Export Plug-In . SVG Version: 6.00 Build 0)  -->
<!DOCTYPE svg PUBLIC "-//W3C//DTD SVG 1.1//EN" "http://www.w3.org/Graphics/SVG/1.1/DTD/svg11.dtd">
<svg version="1.1" id="Layer_1" xmlns="http://www.w3.org/2000/svg" xmlns:xlink="http://www.w3.org/1999/xlink" x="0px" y="0px"
	 width="509.383px" height="510.494px" viewBox="0 0 509.383 510.494" enable-background="new 0 0 509.383 510.494"
	 xml:space="preserve">
<g>
	<path fill-rule="evenodd" clip-rule="evenodd" fill="#F5F5F5" d="M102.354,69.545c-53.938,41.352-170.03,108.526-49.643,296.868
		c125.64,196.559,270.752,183.019,383.797,13.914c73.714-110.259,124.978-209.815-17.061-308.259
		C333.592,12.572,263.08-53.686,102.354,69.545z"/>
</g>
<g>
	<path fill-rule="evenodd" clip-rule="evenodd" fill="#FF0000" d="M384.778,223.715l-18.402,10.305
		c7.039,19.629,11.497,39.83,10.769,60.925c-1.242,35.948-16.489,64.98-44.739,87.201c-0.681,0.539-1.439,0.98-2.29,1.555
		c1.569-5.436,3.383-10.585,4.524-15.879c2.86-13.257,1.427-26.385-2.107-39.313c-4.504-16.469-11.986-31.545-22.015-45.345
		c-3.883-5.343-10.354-6.548-14.909-2.555c-1.839,1.614-3.067,4.187-3.973,6.551c-1.863,4.894-3.275,9.956-4.977,14.912
		c-0.499,1.462-1.338,2.806-2.05,4.262c-2.114-6.306-3.734-12.479-6.217-18.286c-0.55-1.286-1.123-2.551-1.72-3.794l-17.942,10.048
		c4.472,9.739,6.552,20.299,6.563,31.532c0.003,5.08,0.028,9.93,5.146,12.851c5.185,2.955,9.72,0.686,14.143-1.886
		c8.082-4.7,13.384-11.934,17.827-19.918c0.608-1.093,1.174-2.205,1.799-3.388c0.355,0.233,0.753,0.349,0.874,0.597
		c6.297,12.98,10.656,26.472,10.403,41.096c-0.45,26.191-21.85,48.41-48.059,49.973c-26.839,1.604-50.449-17.721-54.295-43.967
		c-1.81-12.341,2.09-22.939,8.291-33.101c1.545-2.531,3.16-5.042,4.966-7.39c3.148-4.092,5.817-8.354,8.025-12.783l-36.418,20.395
		c-7.876,16.929-7.711,34.342-0.869,52.018c0.365,0.943,0.749,1.877,1.42,3.559c-1.35-0.84-2.173-1.252-2.884-1.809
		c-13.02-10.203-23.231-21.964-30.63-35.31l-17.839,9.99c17.617,32.392,45.406,53.918,82.77,64.518
		c7.194,2.042,14.794,2.405,22.204,3.688c1,0.174,1.989,0.355,2.987,0.355c5.945,0,11.891,0,17.836,0
		c0.992,0,1.978-0.254,2.987-0.347c27.922-2.491,52.848-12.458,73.99-30.762c38.215-33.076,53.006-75.245,46.207-124.937
		C394.005,253.408,390.107,238.298,384.778,223.715z"/>
	<path fill-rule="evenodd" clip-rule="evenodd" fill="#FF0000" d="M437.901,154.945l-67.046,37.639
		c-6.587-12.48-14.158-24.545-22.532-36.255c-2.62-3.665-6.144-5.536-10.642-4.677c-4.777,0.914-7.335,4.146-8.46,8.811
		c-1.257,5.208-2.537,10.432-4.204,15.521c-5.362,16.362-12.155,32.021-23.521,45.273c-1.199,1.401-2.612,2.624-4.227,4.23
		c-0.335-3.503-0.594-6.338-0.877-9.166c-4.206-42.327-21.472-78.595-51.62-108.558c-13.702-13.621-29.251-24.442-46.551-33.442
		c-1.828,0-3.657,0-5.487,0c-7.432,5-8.33,7.271-6.513,15.906c7.049,33.518,5.945,66.397-9.894,97.542
		c-3.546,6.975-8.194,13.473-12.743,19.882c-11.815,16.643-22.355,33.955-28.442,53.607c-6.698,21.621-6.452,43.086-0.709,64.053
		l-58.888,33.06l8.358,14.89l362.574-203.04L437.901,154.945z M341.536,191.142c0.548-1.474,1.099-2.947,1.877-5.04
		c3.372,5.556,6.472,11.087,9.341,16.645l-22.053,12.38C334.953,207.463,338.466,199.416,341.536,191.142z M151.427,303.062
		c-2.561-22.516,3.998-42.747,15.094-61.76c5.628-9.642,12.125-18.799,18.52-27.974c14.449-20.722,22.768-43.73,24.734-68.78
		c0.998-12.689,0.175-25.525,0.175-39.022c2.319,1.719,4.312,3.103,6.206,4.61c34.756,27.691,55.199,63.357,59.645,107.78
		c0.805,8.047,0.899,16.192,0.876,24.294c-0.003,1.099,0.093,2.129,0.264,3.099l-20.566,11.546
		c-6.16-5.646-13.153-10.509-20.935-14.61c-6.81-3.59-13.892-0.732-15.549,6.121c-0.434,1.791-0.225,3.867,0.173,5.709
		c1.597,7.398,2.378,14.792,1.878,22.111l-68.646,38.538C152.508,310.929,151.88,307.045,151.427,303.062z"/>
</g>
</svg>
