<?xml version="1.0" encoding="utf-8"?>
<!-- Generator: Adobe Illustrator 16.0.0, SVG Export Plug-In . SVG Version: 6.00 Build 0)  -->
<!DOCTYPE svg PUBLIC "-//W3C//DTD SVG 1.1//EN" "http://www.w3.org/Graphics/SVG/1.1/DTD/svg11.dtd">
<svg version="1.1" id="Layer_1" xmlns="http://www.w3.org/2000/svg" xmlns:xlink="http://www.w3.org/1999/xlink" x="0px" y="0px"
	 width="510.519px" height="472.43px" viewBox="0 0 510.519 472.43" enable-background="new 0 0 510.519 472.43"
	 xml:space="preserve">
<g>
	<path fill-rule="evenodd" clip-rule="evenodd" fill="#F5F5F5" d="M459.482,115.594c-34.741-55.061-87.709-170.683-290.523-84.938
		C-42.7,120.148-46.849,255.335,108.306,381.65c101.171,82.365,194.384,142.668,310.022,25.119
		C488.225,335.715,563.007,279.661,459.482,115.594z"/>
</g>
<path fill="#369AE0" d="M412.936,189.51l-15.899,8.904c1.944,9.084,2.966,18.505,2.941,28.165
	c-0.188,74.13-59.918,134.23-133.279,134.111c-35.967-0.059-68.639-14.272-92.739-37.353l-15.834,8.867
	c10.747,10.844,23.396,20.29,37.93,28.338c18.491,10.235,38.49,15.664,59.631,17.122c0.766,0.049,1.516,0.27,2.275,0.27
	c5.916,0,11.829,0,17.745,0c5.739,0,11.528-1.058,17.2-2.149c48.319-9.325,83.928-35.948,107.317-78.997
	c9.989-18.383,15.401-38.166,16.89-59.065c0.064-0.853,0.455-1.637,0.455-2.485c0-5.916,0-11.832,0-17.745
	c-1-5.733-1.246-11.514-2.307-17.195C414.576,196.629,413.825,193.039,412.936,189.51z"/>
<path fill="#369AE0" d="M356.25,235.229c2.517,0.039,5.034,0.006,7.753,0.006c-2.089,20.664-9.286,38.712-22.685,55.209
	c-2.178-2.483-3.919-4.936-6.122-6.874c-3.662-3.226-8.738-2.845-12.006,0.535c-3.192,3.306-3.557,8.289-0.343,11.794
	c4.328,4.714,8.877,9.243,13.577,13.585c3.455,3.187,8.665,3.107,11.732-0.409c5.301-6.07,10.727-12.149,15.124-18.863
	c11.391-17.395,17.395-36.658,18.602-57.468c0.497-8.588,0.064-16.967-1.262-25.136l-16.714,9.359
	c0.019,0.177,0.044,0.351,0.062,0.529c-0.342,0-0.668-0.001-1.002-0.002l-16.251,9.101
	C346.84,231.581,350.746,235.146,356.25,235.229z"/>
<path fill="#369AE0" d="M288.822,290.211c-6.238-0.663-12.585-0.538-18.88-0.521c-8.76,0.021-17.568-0.237-26.271,0.561
	c-12.472,1.141-22.423,13.21-22.36,26.088c0.062,12.843,9.897,24.771,22.208,25.934c7.41,0.701,14.942,0.13,22.423,0.13
	c7.679,0,15.409,0.577,23.018-0.13c12.313-1.148,22.145-13.08,22.214-25.922C311.242,303.471,301.278,291.54,288.822,290.211z
	 M283.688,325.129c-11.627,0.039-23.262,0.039-34.89,0c-5.759-0.014-9.739-3.689-9.741-8.856c0-5.168,3.982-8.825,9.738-8.866
	c5.82-0.039,11.631-0.005,17.446-0.005c5.814,0,11.631-0.034,17.446,0.005c5.76,0.039,9.741,3.698,9.741,8.863
	C293.429,321.434,289.447,325.115,283.688,325.129z"/>
<path fill="#369AE0" d="M450.591,150.027l2.124-1.189l-8.329-14.832l-42.955,24.115c-12.585-25.304-31.992-45.888-58.128-61.718
	c-20.021-12.126-41.928-18.554-65.314-20.186c-0.771-0.05-1.521-0.285-2.282-0.285c-5.916,0-11.829,0-17.745,0
	c-5.733,0-11.521,1.069-17.198,2.152c-48.293,9.222-84.503,35.227-108.333,78.218c-10.105,18.225-15.716,37.887-17.228,58.686
	c-0.063,0.859-0.634,1.651-0.634,2.502c0,5.913,0,11.829,0,17.745c1,5.736,1.408,11.528,2.504,17.201
	c3.876,20.053,10.784,37.966,20.518,53.77l-45.087,25.33l7.871,13.991l0.27,0.467L450.591,150.027z M168.505,235.234
	c2.746,0,5.189,0.027,7.634-0.003c5.716-0.075,9.7-3.795,9.638-8.971c-0.063-5.054-3.991-8.68-9.548-8.76
	c-2.512-0.039-5.026-0.006-7.537-0.006c0.249-16.27,11.141-42.118,22.56-53.453c1.582,1.743,3.089,3.571,4.769,5.229
	c4.176,4.106,9.434,4.33,13.141,0.668c3.707-3.665,3.527-8.979-0.547-13.141c-1.683-1.715-3.557-3.242-5.377-4.883
	c16.952-14.591,41.097-22.531,54.726-22.23c0,2.445-0.036,4.896,0.009,7.347c0.093,5.527,3.79,9.454,8.852,9.459
	c5.063,0.005,8.776-3.922,8.871-9.438c0.045-2.538,0.011-5.073,0.011-7.603c14.988-0.146,43.201,11.368,51.873,21.083
	c-14.544,10.335-29.086,20.653-43.608,30.988c-11.316,8.059-22.806,15.883-33.866,24.279c-13.039,9.893-14.726,26.306-4.361,37.546
	c0.451,0.488,0.912,0.953,1.379,1.403l-63.346,35.563C175.079,266.657,170.111,251.759,168.505,235.234z M264.51,234.99
	c-2.321-0.509-4.52-1.907-6.14-4.203c-2.077-2.944-2.144-5.568,0.08-8.396c1.08-1.372,2.406-2.621,3.824-3.637
	c12.958-9.274,25.951-18.488,38.938-27.709c0.446-0.32,0.944-0.563,1.421-0.84c0.144,0.157,0.296,0.315,0.442,0.466
	c-4.488,6.328-8.976,12.652-13.473,18.977c-4.441,6.249-8.828,12.534-13.33,18.737L264.51,234.99z M342.866,165.335
	c4.781,6.026,8.749,12.338,11.938,18.964l-42.276,23.734c1.102-1.552,2.202-3.105,3.304-4.657
	C324.79,190.774,333.749,178.171,342.866,165.335z M132.505,226.341C132.527,152.82,193,93.002,267.078,93.218
	c51.991,0.152,97.014,30.121,118.85,73.607l-15.648,8.785c-0.797-1.607-1.619-3.208-2.496-4.796
	c-12.229-22.128-29.941-38.664-53.005-49.2c-23.724-10.832-48.406-13.473-73.827-7.562c-29.684,6.907-53.4,23.003-70.57,48.089
	c-17.855,26.088-23.735,55.035-17.922,86.147c2.77,14.836,8.052,28.423,15.798,40.738l-15.271,8.573
	C140.009,276.935,132.498,252.505,132.505,226.341z"/>
</svg>
