<svg xmlns="http://www.w3.org/2000/svg" viewBox="0 0 250 250"><circle cx="125" cy="125" r="116.5" fill="#0a6fb6"/><g fill="#fff"><path d="M113.2 144l.8-1.6c.2-.4.5-.8.2-1.3-.1-.1.1-.4.2-.6l1.2-.9c-.1-.4-.3-.8-.4-1.2-.1-.3 0-.6.4-.6.6-.1.9-.4.9-1 0-.2.1-.4.1-.5.1-.4.2-.8.2-1.2-.1-1 .1-1.8.7-2.4.5 0 .8-.1 1.2-.1.1 0 .2-.1.3 0 .5.3 1 0 1.5.1.3.1.6.1.8 0 .5-.1 1 .1 1.4.4-.1 0-.2.1-.3.1.5.6 1 1.1 1.5 1.6 0 .1-.1.1-.1.2-.2-.1-.3-.2-.5-.2-.1-.1-.2-.2-.3-.2l-.3.3-1.5.3c.5.4 1 .7 1.4 1-.1.1-.1.2-.1.3-.4.4-.4.4 0 .7.1.1.3.2.4.3s.2.2.2.3c0 .5.3.8.6 1.1a6.42 6.42 0 0 1 1 1.3c.2.4-.1.7-.3 1-.1.1-.4.3-.4.4.1.3.2.6.4.8l.3.3 2.2 1.8c.4.3.7.7 1.1 1.2-.2.1-.4.2-.6.2-.3.1-.5.2-.8.2-.4 0-.8-.1-1.1-.3-.5-.2-.9-.6-1.3-.8l-.1.1c.2.3.3.6.5 1-1 .1-1.2.9-1.5 1.6-.4 1.2-.7 2.4-.7 3.7v.5c.1-.1.2-.1.3-.1.1.4-.2.8-.6.8-.1 0-.2.1-.3.2-.3.3-.5.7-.8 1.1-.3.3-.6.2-.6-.3 0-.2-.1-.4-.1-.5h-.2l-.3 1.1c-.1.2-.2.5-.3.7-.3.7-.8 1.1-1.4 1.5-.1.1-.2.3-.3.5.3-.1.6-.1.9-.2.1.6-.2.9-.6 1.4.4.1.8.2 1.2.2-.1.3-.2.6-.2.9-.4 0-.6.1-1 .1.4.8.4 1.1-.1 1.6-.1-.1-.2-.3-.3-.4-.3.4-.3.5 0 1.2-.2.4-.4.7-.6 1-.2.5-.5.8-.9 1-1 .4-1.9 1-2.9 1.5-.3.1-.6.3-.9.4v-.9c0-.4-.1-.8-.1-1.2v-1.3c-.2.2-.5.4-.8.6-.2-.3.4-.6-.2-.7-.1.1-.2.2-.4.3-.1-.1-.2-.3-.3-.3s-.2.2-.3.3c-.3.2-.5.4-.8.6-.3.1-.5.1-.4-.3.1-.5-.2-.8-.6-.7-.6.2-.9-.2-1.2-.6l-.3-.3-.3.3-1.1 1.2c-.1.1-.4.1-.6 0-.7-.3-1.2-.2-1.6.3-.1.1-.3.2-.5.4-.2-1.1.2-2.2-.5-3.1-.1.1-.1.2-.2.3-.1.4-.3.5-.8.5-.3-.1-.7.1-1 .3l-.8.3c0-.1-.1-.1-.1-.2.2-.2.4-.3.6-.5 0 0 0-.1-.1-.1-.4.1-.8.3-1.1.4-.3-.5-.3-.5-1.4-.1 0-.1-.1-.3-.1-.4l-.1-2.6c-.1-.5-.3-.9-.5-1.4h-.1c.1-.1.2-.3.3-.4.3-.5.4-1 .1-1.6-.2-.4-.5-.8-.7-1.3-.1-.2-.1-.5-.2-.8-.1.2-.2.3-.3.4-.5 0-.9-.1-1.3-.1.1-.4.1-.4.6-.3.1-.3-.1-.7-.5-.9-.7-.2-.7-.3-.6-1 .1 0 .2.1.3.1s.1.1.2.1c.2-.4-.7-.9.2-1.2-.2-.3-.4-.5-.6-.7-.5-.6-.7-1.2-.7-1.9 0-.3.1-.5.2-.8 0-.1.1-.2.1-.3-.1-.6.2-.9.6-1.1.2-.1.2-.3.4-.4-.3-.4-.5-.1-.6.1l-.1-.1 1.5-2.3.7 1.8v.1l2.5 2.3c.4.3.8.3 1.3.1.7-.4 1.4-.6 2.3-.3.8.2 1.6-.1 2.3-.7.1-.1.2-.3.3-.5.2-.5.5-.8 1-.9.7-.1 1.3-.2 1.8.4.5.5 1.2.7 1.9.7.3 0 .7-.3 1-.4.2-.1.5-.1.7-.2h.2c.7-.7 1.2-.7 1.6-.6zM55.8 89.9c.2.2.4.3.6.5-.1-.5 0-.7.3-1 .2-.2.2-.7.2-1.1s-.1-.9-.2-1.3c1.1-.6 1.3-1.5.5-2.1-.1.2-.2.4-.4.7l-.5-1.6c-.1-.5-.4-1-.8-1.4l-2-2.1c-.1-.1-.3-.3-.3-.5l-.6-2.2c-.3 0-.7.1-.8-.4 1.2-.2 1.2-.4 1-1.6-.2-.7.2-1.5.1-2.3 0-.3.3-.6.5-1 .2 0 .4.1.6.1.5.1 1.1.2 1.6-.2.1-.1.3-.1.4-.1.4.1.6-.1.7-.5v-.3c0-.4.1-.5.5-.4.7.2 1-.1 1-.8 1-.5 1.3-.5 1.6.3l.8-.5c.2.3.5.5.7.9.1.2 0 .5-.1.7-.2.4-.3.8 0 1.3.4.6.9.8 1.6.5.2-.1.4-.2.6-.2.3 0 .5 0 .5.5 0 .3.1.6.2.9.4.8.2 1.5-.1 2.2-.1.4-.2.7-.1 1.1.3.6.3 1.1 0 1.7 0 .1-.1.2-.1.3-.4 1-.2 1.4.9 1.7.5-.4.9-.9 1.4-1.3.4-.4.7-1 1.2-1.3.2-.2.4-.2.6 0l1.5 1c.1 0 .1.1.2.1.4-.1.9-.3 1.3-.4a.55.55 0 0 0 .3-.5c.1-.3.2-.6.7-.6-.1-.2-.1-.3-.2-.4 1.2.1 2.3.3 3.1 1.4.5.7 1.2 1.2 1.7 1.8.3.3.4.8.5 1.2s0 .9 0 1.3c-.1 1.6.8 2.5 2.1 3.3.1.1.2.1.3.1h.1c-.2.5.2.7.5.9.5.3.5.5.3 1.1s-.4 1.3.1 1.9c.3.4 0 1.7-.4 2-.1.1-.2.1-.3.2-.3.3-.5.4-.9 0-.2-.5-.7-.5-1.1-.5-.8 0-1.6.2-2.5.2-.3 0-.5-.2-.8-.2-1.2-.2-2.4.5-2.9 1.6-.3.6-.7 1.1-1.1 1.6-.1.2-.5.2-.8.2l.9 3.3c.1.2.2.4.3.5.5.4.6.9.5 1.4-.2.1-.6-.4-.6.2-.2-.1-.4-.2-.5-.3.2-.4 0-.6-.4-.7-.2 0-.3-.1-.5-.2-.3-.3-.6-.6-1-.9-.3-.2-.6-.2-.8 0-.3.2-.7.2-1.1.1s-.8-.1-1.2-.2l.2-3.3c-.5.3-.9.3-1.4-.1-.1-.1-.2-.1-.3 0-.3.1-.7.2-1 .4-.1 0-.3.1-.4.1-.5.2-.7.5-.5 1s.2 1 .1 1.5-.1 1 0 1.5c.1.7.2 1.2-.3 1.8-.2.3-.2.7-.4 1l-1-3.1c-.1-.2-.2-.4-.4-.6-.4-.6-.7-1.2-.6-2 .1-1.4-.1-2.7-1.2-3.7a26.22 26.22 0 0 1-2.2-2.5c-.3-.4-.5-.9-.4-1.5.3.1.3 0 .4-.2zm20 59.3l-1.6 1.1c-.2.1-.1.7.2.9-.1.1-.2.1-.2.2-.2 1.2.9 2.5 2 2.3h.3c.9 0 1 .1 1.1 1l.4 2.2c.1.4.3.6.7.7s.3.3.2.5c-.1.1-.2.2-.2.3-.2.2-.7.3-.3.7l-.3.5c-.1.1 0 .3 0 .5.1 0 .1 0 .2.1l.9-1.3c0 .1.1.1.1.1.3-.1.6-.1.8-.2h.3c.7.1 1.3.1 1.4 1.1.1.6.3 1.2 1 1.4.1 0 .1.5 0 .7-.2.4-.4.8-.7 1.1a1.08 1.08 0 0 0 0 1.1c.1.1.1.4.1.6-.1.3-.3.5-.3.8-.1.3 0 .7 0 1s.1.5.1.8l-.5 3.9c0 .2-.1.4-.2.7-.8-.3-1-1.2-1.7-1.6 0 .3 0 .5-.1.8-.1.5-.3.6-.8.4-.3-.2-.6-.5-.9-.7-.2-.1-.5-.1-.7-.1 0 .2-.1.5 0 .7 0 .2.2.4.3.7 0 0-.1 0-.1.1l-.7-.7-1.7-2.4c-.2-.2-.4-.4-.6-.5l-2.3-1.8c-.3-.2-.5-.6-.9-.8-.6-.5-1-1.1-1.3-1.9-.2-.4-.5-.9-.9-1.1-.8-.6-1.3-1.2-1.7-2.1-.2-.4-.5-.8-.8-1.2-.6-.6-.8-1.3-.9-2.1 0-.5-.2-1.1-.4-1.5l-1-1.9c0-.1-.1-.2-.1-.3.2-.5-.1-.9-.4-1.3-.2-.4-.5-.7-.8-1-.4-.5-.7-.9-.8-1.5 0-.2-.2-.5-.3-.6-.6-.4-1.1-.8-1.7-1.1l-1.1-3.8c-.1-.4-.1-.9-.2-1.3a1.08 1.08 0 0 0-.3-.7c-.9-.8-1.8-1.7-3-2.1-.2-.1-.4-.4-.5-.6-.1-.3 0-.6-.1-.9s-.3-.5-.5-.8-.6-.5-.8-.8c-.3-.5-.6-1.1-.9-1.7s-.7-.9-1.4-1c-.3-.1-.7-.3-.9-.5l-2.7-3c-.4-.5-.8-1.1-1.1-1.7-.1-.3-.2-.6-.2-.9 0-.7.5-1.1 1.1-.8.4.1.8.4 1.1.7.8.8 1.7 1.1 2.7.8.6-.1 1.1-.3 1.7.2.2.1.6 0 .9 0 .2 0 .4 0 .5.1.6.5 1.2 1 1.5 1.9.1.3.3.5.6.7s.4.4.3.8c-.1.7 0 1 .7 1.2.4.2.8.4 1 .9.1.2.4.3.6.4l1.4.9c.7.6 1.3 1.2 2 1.9a.76.76 0 0 1 .2.4c-.1.5.1.9.5 1.3.1-.1.3-.2.4-.3.1.2.2.4.3.7.2.6.6 1 1.2 1.3.3.1.4.4.6.7.2.2.4.5.5.8.1 0 .1 0 .2-.1l-.6-2c.6 0 1.3.6 1.5 1.1.1.2.1.5.2.7.1.4.4.6.8.6.8.1 1.6.7 1.7 1.5s.6 1.3 1.1 1.8c.2.2.6.3.9.3.4 0 .9 0 1.1.5.1.3-.3.8-.8 1-.3.1-.5.1-.8.1-.1 0-.3.1-.5.2a.99.99 0 0 0 1.3.3c.5-.2 1-.5 1.4-.7.8-.5 1-.5 1.6.2.2-.2.4.1.6.4zm127.7 10.6l-.5 4.9-.5 7c-.1 1.1-.1 2.2-.7 3.2-.3.5-.3 1 .1 1.4.1.1.1.3.1.4l-.9 7.7c0 .1 0 .1-.1.4-.3-.3-.5-.6-.6-.9-.4-.7-.9-1.3-1.5-1.9-.3-.2-.7-.5-.5-1 0 0-.2-.2-.3-.2l-1.8.3c-.2 0-.5.1-.5-.3 0-.1-.2-.2-.2-.2l-1 .7-.1-.1c.1-.2.2-.3.2-.5l.6-1.3c.2-.3.1-.6-.2-.9-.2-.2-.3-.5-.6-.8.6 0 1.1.3 1.6-.3-.1-.1-.3-.2-.4-.1-.5.3-.8-.1-1.2-.3-.2-.1-.3-.3-.5-.4v-.2c.3 0 .5.1.8.1.3.1.5.2.7.3.1 0 .2-.1.3-.1 0-.1-.1-.2-.1-.3-.2-.2-.5-.2-.7-.4-.2-.1-.3-.3-.4-.5-.1-.1-.1-.2-.2-.3-.7-.6-.9-1.4-1.1-2.3 0-.1 0-.3.1-.4.4-.4.1-.4-.2-.5.4-.4.3-.6 0-.6-.2 0-.4.1-.6.2v-1.5h-.1c-.1.1-.1.3-.2.4-.4-.3-.8-.8-1.3-1-1-.5-1.8-1.3-3-1.3-.3 0-.5-.2-.8-.3-1.1-.7-2.2-1.1-3.5-1.1-.8 0-1.4-.4-1.9-.9-.2-.1-.2-.3-.4-.6.3 0 .6-.1.8-.1.1 0 .2-.1.3-.2-.1-.1-.1-.2-.2-.3-.5-.2-.9-.1-1.2.3-.3-.2-.5-.4-.8-.5-.1.2-.2.3-.2.4 0-.1-.1-.2 0-.3 0-.1.1-.1.3-.3h-.6c-.4 0-.6-.1-.7-.5 0-.1-.3-.2-.5-.4 0-.4 0-.9.4-1.4.1-.2.2-.4.3-.7v-.3h-.3c-.4.3-.8.6-.8 1.2 0 .2-.2.3-.3.5h-.1c.1.7-.7 1-.7 1.7 0 .5-.9 1.1-1.3.9-.2-.1-.4-.4-.5-.7s-.2-.7.3-.8c.3-.1.3-.4.2-.7s-.1-.6-.2-.9c-.3.3-.6 0-.8-.3s-.4-.5-.6-.7c-.3-.2-.7-.4-1.2-.6.1-.1.3-.2.4-.3.3-.1.6-.1.9 0 .9.3 1.5.2 2-.6.1-.2.4-.3.6-.3.3-.1.5 0 .5.4 0 .1.1.2.1.3.1-.1.2-.1.3-.2.2-.2.8-.1 1.1.2l.2.2.3-1.1a.76.76 0 0 0 .4-.2c-.1-.5-.4-.9.1-1.3l1.2 3.2c.6-.4.3-1 .5-1.5h.2v1c0 .3.2.5.3.8a.76.76 0 0 1 .2.4c.3 1.2 1.8 1.7 2.7.8l1.9-2.1c.5-.5.9-1 1.2-1.7.1-.1.4-.3.6-.3.7 0 1.3-.1 1.9-.4.4-.2.5-.5.4-.9-.1-.3 0-.4.2-.5.5-.3 1-.6 1.6-.8.3-.1.8 0 1.1.1l5 2.6c.6.3 1.1.6 1.8.4h.3c.6.4 1.5.7 2.5 1zM75.1 69.5c.4-.4.4-.8 0-1.1a4.44 4.44 0 0 0-1.1-.8c-.6-.3-1.3-.1-1.6.5-.1.1-.1.2-.1.3l-1.6-.6c-1-.5-1.3-1.2-1.1-2.3.1-.6-.1-1.1-.6-1.3-.1-.1-.3.1-.4.1l-1.9-2.1c.1-.4.3-.7.4-1.1.1-.3.3-.4.6-.3.3.2.5.3.8.6.6.5 1 .5 1.4-.1.1-.1.2-.3.4-.5.2.3.4.5.7.9.1-.3.2-.5.4-.9.3.3.5.6.7.9.3.3.5.2.6-.1s.2-.5.4-.8c.6.3 1.9 0 2.3-.6.1-.1.1-.4.1-.5-.1-.3 0-.5.3-.6s.6-.3.9-.5c.3.3.7.6 1.1.9.5.4 1 .6 1.6.5.2 0 .4 0 .5.1.3.3.6.3 1 .2.7-.2.9.1.8.8h-.4c-.2 1.1.5 1.9.7 2.9.6-.2.9-.1 1.2.4.1.2.4.3.6.5s.4.3.7.5c.5-.1 1-.1 1.6-.2v.2c-.5.3-1 .6-1.4 1-.1.1-.2.3-.2.5s0 .3-.1.6c-.6-.4-1-.2-1.4.2-.3-.3-.6-.5-1-.3.2.5.3.9.6 1.4-.3-.1-.5-.2-.7-.3.1.3.2.6.2.8 0 .3-.2.6-.3.9-.1.2-.2.4-.3.7-.4 0-.5.1-.6.1-1.3.3-1.3 1.4-1.3 2.3 0 .6 0 1.1-.3 1.7-.1.2 0 .6.1.8.6 1.1 1.3 2.1 2.4 2.8.8.5.8.6.8 1.2-.2.1-.3.2-.4.3l2.4 2.4c.1.1.2.2.3.2.4.4.6.8.2 1.3.5-.3 1-.2 1.2.2.4.8 1.4 1.1 1.7 2 .5-.3.8-.2 1.2.4.4.7.9 1.3 1.3 2 .2.3.5.7.8 1 .4.3.6.5.5 1a.76.76 0 0 0 .2.4c.8 1.2 1 2.6 1.5 4 .1.4 0 .9.1 1.3 0 .4.1.9.2 1.3l.7 1.8c-.7.2-.8.5-.6 1.4-.2 0-.5-.1-.8-.1 1.1.8.8 1.8.5 2.8.1 0 .1 0 .2.1h.2v.1c-.6.4-.6 1.3-1.3 1.7s-1.2 1.1-2 1.3c-.1 0-.1.1-.2.1-.6 1.1-1.9 1.2-2.8 2-.2-.2-.4-.5-.7-.6-.3-.2-.7-.3-1.1-.4 0 0-.2.1-.2.2-.1.5-.1.5-.6.5 0 .6.4.5.9.6-.6.4-1.1 0-1.6.1 0 .1.1.2.1.3-.3 0-.6-.1-1-.1.1.2.2.5.4.7l1.2 1.4c.1.2.1.4.1.7-.2 0-.5 0-.7-.2l-1.2-1.2c-.1-.1-.3-.1-.5-.2.1.2.1.4.2.5l.8 1c.4.5.3.8-.3 1.1-.1.1-.3.1-.4.2-.9.2-1.5.7-1.9 1.5-.2.4-.6.7-.9 1.1l-.3-1c-.1 0-.2 0-.4.1v-2.8c0-.2.1-.4.2-.5.2-.3.4-.5.8-.8 0-.4-.4-.7-.9-.9-.3-.2-.7-.3-1-.5-.2-.1-.2-.4-.3-.6.2-.1.4-.2.5-.2.8 0 1.3-.6 1.3-1.3.6-.1 1.2-.3 1.7-.4.3-.1.5-.1.6.2.3.5.9.5 1.4.6.1-.3.2-.7.1-1 0-.3-.3-.6-.5-.7-.6-.3-.8-.8-.9-1.3s.4-1 .9-.8c.4.1.8.3 1.2.4 0-.5-.1-.8-.1-1.2.9 0 1.6-.5 2.2-1.1.2-.1.4-.3.6-.3.7-.1 1.1-.5 1-1.3l-.3-1.3c0-.4-.1-.8 0-1.1.1-.6.1-1.2-.2-1.8l-.5-1.4c-.1-.3-.2-.6-.2-.9 0-.2.1-.5.2-.7.4-.7.3-1.4.1-2.2.6-.7.5-1.2-.1-1.9-.2-.2-.5-.4-.8-.6-.6-.7-.6-.8 0-1.3.2-.2.3-.4.5-.6l-1.8-1.3-.3-.3c-.1-.1-.3-.3-.5-.3-.6-.1-.7-.2-.9-.8-.1-.5-.3-1.1-.6-1.5-.2-.4-.7-.6-1-1l-2.1-2.4c-.3-.4-.5-.9-1-1.1-.6-.2-.8-.7-.7-1.4a.55.55 0 0 0-.3-.5c-.1-.1-.4-.2-.6-.2-.8-.1-1.3-.5-1.9-.9L73.7 74c.5-.3.6-.4.2-1.2.3.1.6.1.8.1.7.2 1.2-.1 1.6-.6.3-.3.5-.7.5-1.1 0-.2-.2-.6-.4-.8-.3-.3-.8-.4-1-.8.1 0-.1 0-.3-.1z"/><path d="M66.5 78.6c0 .8-.4 1.2-.9 1.6l-.7.7c-.1.1-.4.2-.4.1-.1-.1-.3-.4-.3-.5 0-.3.2-.5.3-.8.2-.6.3-1.2.1-1.8-.1-.3 0-.6.1-1 .2-.7.2-1.4.2-2.1 0-.4-.2-.8-.3-1.2-.2-.9-.9-1.2-1.6-.7-.3.2-.7.3-.9.1-.3-.3-.4-.7-.2-1 .5-.8.2-1.3-.4-1.9-.3-.3-.6-.5-1.1-.1 0-.3 0-.5.1-.8.1-.6.2-.7.8-.8s.7-.2.7-.8c-.1 0-.2 0-.3.1.1-1 .7-1.5 1.6-1.8 0 .2.1.4.1.6.1.4.4.6.7.4.4-.1.6-.1.9.1.2.1.4 0 .7 0 0-.2 0-.4-.1-.6 0-.3-.1-.6-.1-.8.1-.5 0-.9-.3-1.3-.1-.2-.3-.4-.4-.6-.4-.5-.5-1-.1-1.6.3 0 .6 0 .8.1.2 0 .4.1.5.2l1.1 1.2c.3.3.6.7.8 1 .3.5.5.6 1 .1 0 .3.1.6.1.8-.4 1.4.4 2.3 1.5 2.8.6.2 1.1.5 1.8.8.3-.4.5-1.2 1.3-1 .6.1 1.1.5 1.5 1l-.7.7 2.1 1.4c0 .5-.7.6-.4 1.2-.4.3-.9.6-1.4.3h-1c0 .3.1.6.1 1l-.1.1c-.5.4-.4.6.1.9.6.3 1.2.7 1.7 1.1.6.4 1.2.8 1.9.9.4.1.7.2.5.8-.1.2 0 .5.2.6.3.3.8.6 1.1.9.1.1.3.2.3.4.4 1.1 1.3 2 2.1 2.8.6.5 1.1 1 1.6 1.6.1.1.1.3.2.5.1.4.2.7.4 1.1.1.3.4.5.7.4h.3c.2.6.9.6 1.3 1 .2.2.4.3.6.5-.2.1-.3.3-.4.4-.4.4-.4.7 0 1.1l1.2 1.1c.2.2.3.5.1.7-.3.4-.4.7-.1 1.2.2.4-.1.7-.4.9-.3.1-.6.3-.8.5-.6.5-.9.5-1.3-.1-.1-.1-.2-.3-.4-.4-.1-.1-.4 0-.5 0-.1.4-.5.4-.8.5-.2.1-.3.2-.5.3-.3.2-.4.5-.2.8.2.2.5.5.2.8-.1.1-.5-.1-.7-.2-.5-.2-.9-.6-1.4-.5-.1 0-.3-.2-.4-.3a.76.76 0 0 1 .2-.4c.2-.3.6-.5.7-.7.1-.6.1-1.2.1-1.8v-.1c-.6-.4-.2-.8 0-1.2 0-.1 0-.1.1-.2H81c.9-1.1-.2-1.4-.9-2 .2-.1.4-.2.5-.3-.6-.3-1.1-.5-1.5-.9-.8-.6-1.3-1.3-1.3-2.4 0-.6 0-1.3-.1-1.9s-.4-1-.8-1.3c-.4-.4-.9-.8-1.2-1.3-.8-1.3-2-1.7-3.3-1.8-.3 0-.6 0-.6.5 0 .3-.2.7-.4 1-.1.1-.3.2-.5.3-.5.3-.9.1-1.3-.2-.3-.3-.7-.4-1.1-.6-.3-.2-.6-.1-.8.2-.6-.3-.8 0-1.2-.4zm35.9 65.8c-.2-.4-.5-.6-.9-.6-.3 0-.5-.2-.4-.5l.6-.3c-.6-.5-.3-.9-.1-1.3s.6-.6.9-.9c-.3 0-.5 0-.8.1v-.5c.4.1.8.1 1.2.2 0 0 0-.1.1-.1-.1-.1-.2-.2-.4-.3-.4-.3-.4-.6 0-.9s.9-.6 1.4-.8l3.1-.8c.7-.2 1.3-.8 1.6-1.5s.7-1.3 1.2-1.8c.8-.7 1.2-1.6 1.4-2.7 0 0 .1 0 .1-.1.2.2.4.4.5.7.3.6.8 1.1 1.3 1.4.4.2.6.2.8-.3s.4-1.1.1-1.7c-.1-.3-.2-.7.3-1 .1.9.2 1.7 1.3 1.9.2-.8 0-1.6-.3-2.2.4-.3.8-.5 1.1-.8s.2-.6-.1-.8c-.1-.1-.3-.3-.3-.4.1-.2.2-.5.6-.5.6 0 .9-.4 1.2-.8l.3-.6c.2-.5.4-1 .9-1.4s.7-1.1 1-1.7c.2-.3.2-.6.5-.9 0 .5-.1.9-.1 1.5.8-.4.8-1.1 1.3-1.6l.6 1.1c.2.2.5.3.7.5.2.1.4.3.6.5.3.3-.1.4-.2.6-.1.1-.1.3-.1.5 0 .5 0 .5-.6.9.2.1.4.2.5.2.5 0 .9 0 1.3-.4.1-.1.3 0 .4 0v.1c-.1.1-.2.3-.4.3-.2.1-.3.2-.2.5s.3.3.6.2a.76.76 0 0 0 .4-.2c.6-.4.9-.3 1.2.4.1.2.1.4.1.5.6-.3.8-.2 1.3.6l.2-.2c.2 0 .5 0 .7.1.3.2.1.4-.1.6-.6.5-1.3.8-2.1.7-.2 0-.5-.1-.7-.1-.3 0-.6.2-.7.3-.1.3 0 .6.2.9.1.2.3.3.5.4.4.3.4.3.4.8.1 0 .3-.1.4-.1v.1c-.3.4-2.2.5-2.7.1-.2-.1-.3-.2-.6-.4 0 .3-.1.5-.1.7 0 .3-.2.5-.4.3-.7-.6-1.5-.6-2.3-.5-.3 0-.7-.2-1-.3 0 .1-.1.2-.1.4-.5-.1-1-.4-1.5.1-.2-.1-.4-.3-.6-.4-.8.8-1.2 1.8-1.2 2.9 0 .7-.2 1.4-.3 2 0 .3-.2.4-.4.5-.8.1-1 .5-.8 1.3.1.3.1.5.2.8l-1 .7c-.3.3-.5.7-.3 1.2.1.1 0 .4-.1.6-.3.5-.6 1-.8 1.5-.4.1-.7.2-1 .2-.8-.1-1.4.3-2 .6s-1.3-.1-1.7-.6c-1-1-3.1-.7-3.5.7-.2.6-.7.8-1.1.9s-1 .1-1.5 0-1-.1-1.4.1c-.3.1-.6.3-.8.4s-.5 0-.7-.1c-.7-.4-1.3-.9-1.8-1.7 0-.1-.1-.2-.2-.2-.7-.2-.6-.8-.7-1.4.7.4 1.3.8 2.1.4.3.7.9.9 1.6.9.1 0 .3 0 .4.1.6.4 1.2.4 1.9.4z"/><path d="M87.2 92.8c-.6.7-.4 1.4-.2 2.1.1.5.4 1 .6 1.5.3.5.3 1 .1 1.5-.3.6-.3 1.2.1 1.7.3.6.1 1.1-.1 1.5-.4.1-.7.2-.9.3-.7.8-1.6 1.1-2.6 1.2-.1 0-.1 0-.1.1.1.3.1.6.2 1-.2-.1-.3-.1-.4-.1-.8-.3-1.1-.2-1.6.5-.1.1-.1.3-.1.4.1.7.2 1.5 1 1.8.1 0 .1.1.2.1l.1.1c0 .2-.1.4-.1.7-.2-.2-.5-.3-.7-.5-.3-.3-.5-.4-.9-.3-.2.1-.5.2-.7.2-.4.1-.8.2-1.2-.3-.1.4-.2.6-.3.9-.1.6-.2.7-.8.8l-1 .3c-.2 0-.3.1-.5 0-.5-.2-.9-.4-1.3-.6a.76.76 0 0 0-.4.2c-.3.3-.4.3-.7 0 .6-.8.7-1.2.2-1.9-.1-.2-.4-.4-.5-.4-.2 0-.3.3-.5.5-.1.1-.1.3-.2.4s-.4.1-.5.1-.1-.3-.1-.4c0-.4.1-.8 0-1.3 0-.2-.1-.4-.2-.6-.1-.1-.2-.3-.4-.4.2-.1.4-.1.6-.2-.1-.1-.2-.2-.3-.2-.9-.3-1.1-1.1-1.1-1.9 0-.6-.1-1.1-.4-1.6-.4-.6-.7-1.3-1-2-.2-.4-.2-.9-.3-1.4 1-.3 1.4-1.1 1.7-1.9.3-.9 1-1.4 1.9-1.5.3 0 .6.1.9.1.2 0 .5.2.7.1l2.4-.3c.1 0 .3-.1.4 0 .5.3 1.1.4 1.6.9.1.1.4.3.6.3.5-.1.9.2 1.3.5.2.1.4.3.5.3.2 0 .5 0 .7-.2.1-.2.2-.5.1-.7s-.2-.5-.4-.7c.5-.3 1-.5 1.6-.8.9 1.1.9 1.3 3 .1zm49.8 60.1c.5.6 1 .6 1.5.5a.55.55 0 0 0 .5-.3c.2-.5.7-.5 1.1-.5.5 0 1 .1 1.4.1l-1.7 2c-.4.4-.8.7-1.2 1s-.9.6-1.2.9c-.4.4-.5.4-1 .1-.2-.1-.3-.3-.6-.5 0 .5-.1 1-.1 1.5.4-.2.6 0 .8.3.1.2.4.3.5.5.3.4.5.9.7 1.3s.3.8.7 1c.1.1.2.3.3.5.1.3.1.5.2.9-.1.1-.2.3-.3.5h-.3v.1c.1.2.2.3.2.5-.2.8.3 1.3.9 1.7-.1.1-.1.2-.2.3.2.1.4.3.5.4.2.1.4.2.7.3 0 .1.2.4-.4.6-.5.2-1.1.2-1.7.3-.7.2-.9.4-1 1 0 .2-.1.3-.1.6l-1.3-.5c-.1-.1-.2-.5-.2-.7.1-.4.2-.8.4-1.2s0-.7-.4-1c-.5-.4-1-.8-1.4-1.3s-.3-.9 0-1.4c.4-.6.6-1.3.4-2-.1-.5-.4-.7-.9-.7-.8 0-1.5.4-2.1 1-.3.3-.4.7-.2 1.1.5.8.2 1.5.2 2.3l-.2 2.9c-.1.5-.1 1.1-.3 1.6-.3.7-.3 1.3 0 1.9.1.1.1.3.1.5-.5.1-.9.2-1.3.2-.2 0-.3.1-.5.2-.4.2-1.1.1-1.2-.3s-.2-.9 0-1.3c.7-1.1.9-2.4 1-3.6.1-.5-.1-1.1-.2-1.7 0-.3-.1-.6 0-.9 0-.5-.1-.7-.7-.7-.4 0-.9.2-1.4.3-.2-.6-.4-1.2-.1-1.8.1-.1.1-.4 0-.5-.2-.3-.1-.5.1-.7s.4-.3.6-.6.4-.7.6-1.1c.1-.2.1-.3.2-.5.5-.6.6-1.3.6-2.1-.1-1.3.6-2.3 1.3-3.3.1.3.2.5.4.8.3-.4.2-.8.2-1.2l-.2-2c0-.1.1-.1.1-.2.1-.3.3-.6.2-.9 0-.5 0-.9.4-1.2.4-.5.7-1 1-1.6.9.4 1.5.2 1.9-.6.1-.2.2-.4.2-.6.1-.4.3-.4.6-.4.6.1 1.2.1 1.7.7.1.2.4.2.6.3 1.2.1 2.4.3 3.6.7.2.1.4.1.6 0 .7-.4 1.4-.2 2.1-.1.6.1 1.3.1 1.9 0 .4-.1.7-.5 1.1-.7.1-.1.2-.2.4-.3.4-.1.5-.4.7-.7.3-.5.8-.9 1.2-1.3.1-.1.3 0 .4.1.1.2.2.4.1.6-.6 1.3-1.6 2.3-2.3 3.4-.1.2-.3.4-.6.5a4.97 4.97 0 0 1-3.2.5c-.2 0-.4-.1-.5-.2-1-.7-2.2-.8-3.3-.5-.7.1-1.4.2-2.1-.1-.2-.1-.6 0-.9.1-.6.2-1.1.3-1.7.1-1.5-.5-2.2-.2-2.9 1.2-.6 1.2-.7 2.5-.2 3.8.2.5.4.8 1 .9.2 0 .4.4.4.6.1.7.5 1 1.1 1.1.7.2 1 0 1.4-.6l1.3-1.9zm-73.2-29.4a1.38 1.38 0 0 0 .3.4c.2.3.5.5.9.5.3 0 .5.1.7.4.1.2.3.4.5.5.4.2.5.5.3.9-.1.2-.2.4-.1.5 0 .2 0 .6.2.7s.6.1.8 0 .4-.4.6-.6c.2-.3.4-.3.7 0 .5.6.8.5 1.1-.1l.6-1.3c.4 0 .6.3.9.6a7.55 7.55 0 0 0 1.1 1.4c2 1.8 2.8 3.9 2.3 6.6-.1.6-.1 1.1 0 1.7.1.5.1 1 0 1.5-.1.9.1 1.6.8 2.2.7.5 1 1.2 1.2 2.1-1.1.1-2 .5-2.6 1.7l-2.1-1.6c-.2-.2-.5-.4-.8-.5-.8-.2-1.3-.8-1.7-1.4-.1-.2-.3-.3-.4-.4-.4-.3-.9-.5-1.4-.8.4-.8.2-1.4-.2-1.9-.5-.8-1.1-1.5-1.7-2.3.4-.2.4-.4 0-.6-.4-.3-.6-.7-.5-1.2.2-.8 0-1.5-.4-2.2-.2-.4-.3-.8-.4-1.2s0-.8 0-1.2c.1-.9-.1-1.7-.5-2.5s-.5-1.3-.2-1.9zm37 52.1c.6.7 2.2 1.2 3.4 1v1.6c.1-.1.3-.2.4-.3v.1c-.2 1.1-.1 1.1.8 1.6.6.3 1.2.3 1.9.2.8-.1 1.6-.3 2.4 0 .4.1.5.3.4.7l-.3.9c-.2.6-.2 1.3.2 1.8.1.1.1.2.2.3-.1 0-.2 0-.2-.1-.2-.6-.6-.5-1.1-.6-.7-.1-1.2-.3-1.8-.7-.3-.2-.6-.4-.9-.5s-.8-.1-1.1 0c-.7.3-1.3.4-2 .3-.9-.2-1.8-.2-2.7-.4-1.4-.2-2.9-.3-4.2-.9s-2.8-1-4.2-1.4c-.4-.1-.9-.1-1.4-.2-.4 0-.7 0-1 .4-.1.1-.4.2-.6.2-.4-.1-.7-.1-1-.3-1.2-.8-2.6-1.1-4-1.1-.3 0-.5-.1-.8-.2s-.4-.3-.2-.6l.1-.1c.4-.5.3-.7-.3-.9-.9-.3-1.8-.8-2.8-.6.2-.4.2-.8.8-1 .2-.1.4-.6.4-.9.1-.5.3-.9.7-1.2 0 .2 0 .3.1.4.7-.5 1.4-.3 2.1.1.4.2.7.2 1-.1.2-.3.4-.4.7-.2l.9.6c.3.3.6.5 1 .4.2 0 .5.1.6.2.4.2.7.4 1.2 0 .1.3.3.5.4.8.2.3.3.7.5 1 .3.5.7.5 1.2.4.3-.1.5 0 .8 0s.5.1.8.1l2.4.1c.1 0 .3.1.4.1.6.3.9.2 1.2-.4.2-.3.3-.7.5-1.1.3-.7.7-.7 1.1-.1.9 1 1.2 1.1 2 .6z"/><path d="M136.5 94.8c-.6.1-1.1.4-1.3.9-.2.3-.4.5-.8.4-.1 0-.2-.1-.3-.2-.3-.3-.5-.6-.8-.8-.2-.1-.4-.1-.7-.2-.3-.5-.2-.8.2-1.2.2-.2.4-.3.6-.5.5-.4.5-.7 0-1.1a11.94 11.94 0 0 0-1.6-.8l-.1.1c.1.5.2 1 .2 1.5-.1 0-.1.1-.2.1-.1-.2-.3-.3-.4-.5s-.1-.5-.2-.8-.3-.5-.8-.4l-.9-3.7a.76.76 0 0 0-.2-.4c-.4-.4-.3-.8-.3-1.3l.6.6c.2.1.3.3.5.4s.5.1.7.1c.1-.1.2-.4.2-.6 0-.3-.1-.6-.1-.9 0-.6 0-1.3-.1-1.9 0-.5 0-1.1-.2-1.6-.2-.9-.3-1.8 0-2.8l.3-1.8c.4-.4 1.1-.4 1.7-.2s1.2.5 1.5 1.1c.2 0 .5-.1.7 0 .7.1.7.1 1-.5 0-.1.1-.1.1-.2.3.3.3.6.2.9-.3.6-.3 1.2-.2 1.8.1.5.3.9.7 1.3.2.2.3.6.5.8.6.9 0 1.6-.2 2.4 0 .1-.1.2-.1.4 0 .7-.5 1-1 1.2-.8.3-1.2.9-1.1 1.8v.6c-.4 1.1 0 2.1.6 3 .1.2.2.4.2.7-.1.8.3 1.4.7 2.1.2 0 .3 0 .4.2zm6.5 25.4c-.1-.1-.2-.2-.2-.4-.1-.2-.2-.4-.2-.7l-.6.6s0 .1-.1.3l-.4-.4c-.1-.1-.1-.3-.1-.4-.2-.4-.7-.5-.9 0-.4.8-1.1 1.6-1.1 2.6 0 .2-.2.4-.3.5 0 0-.3 0-.3-.1-.1-.2-.1-.4 0-.6.4-.7.6-1.5.6-2.4 0-.5.3-.8.8-.9.3-.1.7-.1 1-.2.6-.1 1-.4 1.1-1 .1-.4.3-.7.7-.8.3-.1.5-.3.8-.4 0 .1.1.3.2.5l.4-.4c.4.4.5.9.5 1.5 0 .2-.3.3-.4.5s-.1.3-.2.5c.2 0 .4 0 .6-.1.4-.3.8-.5 1.3-.6.2 0 .4-.3.5-.5s.1-.4.1-.6c.1-.6.2-.6.7-.4.4.2.8.1.9-.4.1-.4.1-.9.2-1.3 1 .5 1 .5 1.2-.1.2 0 .4.1.6.1.6 0 .8-.2.6-.7-.1-.4-.3-.8-.4-1.3-.1-.3-.1-.7-.2-1.1.5.3.9.6 1.3.9.1.1.1.2.2.4.2.4.4.8.8.7.2.4.3.8.5 1.1s.1.4-.1.6c-.7.5-.7.7 0 1.2.3.2.9.3.4.9 0 0 .1.2.1.3.4.1.3.4.2.7-.2.4-.1.7.2 1 .6.6.6 2.1 0 2.6-.3.3-.6.5-.9.8-.3-.5-.5-1-.7-1.4-.4-.6-.7-.7-1 0l-.8 1.8c-.1.3.1.7.2 1 0 .2.2.3.3.4.7 1 .6 2.3-.3 3.1 0 0-.1.1-.3.2 0-.6 0-1.1-.1-1.5 0-.2-.1-.4-.2-.6-.2.1-.5.2-.6.4-.3.6-.3.6-.9.3l-1.6-.9c-.5-.3-.8-.8-.9-1.3-.1-.3-.1-.6-.2-.9-.1-.5 0-.9.3-1.4.6-.8.4-1.5-.4-2.1-.4-.3-.8-.5-1.2-.8-.3-.2-.6-.2-.7.1-.6.2-.8.6-1 1.1zM63.9 119c-.6-.1-.9.1-.7.6.2.9.7 1.7 1.6 2.1.2.1.4.3.5.4.4.5.8.7 1.4.6h.6c.5 0 .8.2 1.1.6.4.6.8 1.1 1.2 1.6.1.2.2.5.1.7-.1.4-.4.8-.5 1.2-.1 0-.2 0-.2-.1-.7-.8-.9-.8-1.6 0l-.3.3c-.1.1-.3.1-.4.1 0-.1-.1-.3-.1-.4 0-.2.1-.3.2-.5.2-.6.1-.9-.5-1.3-.2-.1-.4-.2-.4-.4-.2-.5-.5-.6-1-.7-.2-.1-.5-.2-.7-.4-.2-.1-.4-.4-.6-.4s-.3.3-.5.5c-.3-.3-.7-.6-1-1-.2-.2-.4-.5-.2-.8 0-.1-.1-.3-.1-.3-.4 0-.3-.3-.4-.5-.1-.3-.3-.5-.4-.8 0 0-.1 0-.1.1v.4c-.1 0-.1 0-.1-.1-.1-.2-.2-.4-.2-.6-.1-.5-.3-.9-.9-.8-.1-.6-.2-1.1-.9-1.3-.1 0-.1-.1-.1-.2s0-.2-.1-.4c-.1-.3-.3-.7-.7-.7s-.6.3-.6.7c-.4-.2-.5-.5-.4-.9.1-1.1.3-2.2.5-3.3l1.3-4.5c.3-1.5 1.5-2.4 2-3.7.1 0 .1.1.2.1l-1.1 3.9h-.4v.1c.3.4.4.8.4 1.3-.1.8-.2 1.6.2 2.3.1.1 0 .3 0 .4-.1.5.1.8.6.8.3 0 .6-.1.9-.2.6-.2.8-.1.9.5l.5 2.2c.1.2.4.4.6.6.1.1.2.2.2.3 0 .7.1 1.3.2 1.9zm109.7 38h-.4c-.4 0-.6-.2-.4-.5.1-.3.3-.5 0-.7-.1-.1 0-.2 0-.4h-.4v-.6h-.1c-.5.6-.5.6-1.2.2-.3-.2-.6-.3-.8-.4l-.1.1c0 .1 0 .2.1.4-.2-.1-.5-.1-.5-.2-.1-.1.1-.3.2-.5s.4-.4.5-.6c.2-.3.3-.6.4-.9l-.1-.1c.2 0 .4-.1.6-.1.8-.2 1.4-.5 2-1 1-.8 2-.8 3-.2.2.1.3.2.5.4.6.5 1.3.8 2.2.7.3 0 .7.1 1.1.1-.3.6-.1 1 .1 1.4.3.5.3.9.1 1.4-.3.6-.4 1.3-.6 2l-3.3.6c-.5.1-1-.1-1.5-.2-.1 0-.3-.1-.4 0-.5.2-.8 0-1.2-.4-.1-.1 0-.2.2-.5zm-94.7-12.8c0 1.5-1.1 2.6-2.5 2.6s-2.3-1-2.3-2.4c0-1.5 1.1-2.6 2.5-2.6s2.4 1 2.3 2.4zm80.6 17.2c-.3.1-.5.2-.8.2.4-.5 1-.8 1.6-.8.5-.1 1-.1 1.5-.1.1 0 .3 0 .4.1.4.3.7.3 1.1 0 .6-.4 1.1-.3 1.7.1.4.3.9.4 1.4.4.5-.1 1 .3 1.1.8.1.4.2.7.5 1s.2.7.1 1.1c-.1-.1-.3-.1-.4-.2-.4-.3-.9-.5-1.3-.8-.3-.2-.6-.4-.9-.7-.5-.5-1.1-.5-1.6-.1-.1.1-.2.1-.3.1-.5-.2-1.1.1-1.4-.6 0-.1-.3-.1-.4-.1-.3.1-.6.3-.8.4s-.4.4-.7.1-.6-.5-.5-1c-.2.3-.2.3-.3.1zm-13 24.1c-.3 0-.4.2-.3.5 0 .2.1.5-.3.4l-.2.2c-.6 1.2-1.3 2.2-2.8 2.4-.3 0-.5.2-.8.3-.4.2-.9.3-1.3.4.1-.5 1-.7.3-1.4l1.2-1.9 1.5.6.6-1.3c0-.1 0-.1.1-.2l1.4-1.1c.1-.1.4.1.6.1-.1 0-.1.1-.2.1.1.5.2.7.2.9zm0 0c.6-.5.6-.9.2-1.4.2-.6.6-.8 1.2-.9l5.4-.9h.8c-.4.6-.8.9-1.3 1.1l-6.1 2.4c-.1 0-.1-.2-.2-.3zm-6.7-74.6s.1-.2.2-.2.1 0 .2-.1c1-.3 1.2-.6 1-1.6a.78.78 0 0 1 .1-.8 2.39 2.39 0 0 0 .2-.9c.1-.4.4-.6.9-.5s.8.4.7.8l-.6 1.6c-.2.6-.3 1.1-.4 1.7-.1.7-.1 1.3.3 2 .1.2.2.5.1.7s-.3.3-.5.4c-.1-.2-.3-.3-.3-.5-.1-.4-.4-.7-.8-.8-.5-.2-1.2-1.1-1.1-1.8zm5.9-10.2h1.6c.4 0 .8.1 1.2.1.1 0 .2.2.2.3 0 .4.2.7.7.7 0 .5-.1 1.1 0 1.6.1.4.3.8.5 1.3.1.3.3.6-.2.9.2.1.3.1.4.2-.3 0-.7.1-1 0-.5-.1-1.2-1.1-1-1.5.1-.3.3-.6.4-1-.5.3-.8 0-1.1-.2-.6-.6-1.4-1.1-1.7-2v-.4zm44.5 81.4c.5-1 .8-2 1.6-2.8.5-.5 1.1-.7 1.8-.8.4-.1 1.1.4 1.3.8 0 .1 0 .3-.1.4-.5.8-1 1.6-1.9 2.1a1.69 1.69 0 0 1-1 .3h-1.7zM138 108.5l.2-3.2c0-.8.3-1.6-.6-2.1.6.3 1.3.4 1.7 1 .3.4.6.6 1 .2.2-.2.4-.1.5.2 0 .1.1.2.2.3.2-.1.3-.2.5-.3 0 .3.1.6.1.9 0 .1-.1.3-.3.4-.4.2-.8.4-.9 1 0 .2-.4.5-.7.5-.6.1-1 .4-1.4.8 0 .2-.1.2-.3.3zm-9.2 75.3c-.2-.7-.1-.9.5-1.2.1 0 .1 0 .2-.1 1.5-1.1 2.9-.5 4.2.3.4.2.7.5 1.1.1a1.39 1.39 0 0 1 1.1-.2c.3 0 .6.3.9.6-1.1.2-2 1-3.2.2v.5c-.6.1-1.1.3-1.6-.1-.2-.2-.6-.2-.9-.2-.6 0-1.2-.1-1.7 0-.2 0-.4.1-.6.1zm33-35.5l-1.8-.6c-.8-.3-1.2-.1-1.1.8.1 1.3.2 2.5.7 3.7-.2-.3-.2-.6-.5-.8-.8-.7-.8-1.6-.6-2.5.1-.3-.1-.6-.3-.9-.3-.5-.4-1 0-1.5.2.1.4.1.5.1.3 0 .5-.2.6-.5.1-.4.2-.6.6-.8.3-.1.6-.4.2-.7.4-.5.8-.9 1.5-1 0 .4.1.7.1 1.1s-.2.6-.5.8a3.04 3.04 0 0 0-.7.5c-.6.5-.5 1.1.2 1.3.6 0 .9.3 1.1 1zm-33.6 37.9c.4-.1.7.1 1 .5.3.3.7.5 1 .8s.6.6.8.9 0 .6-.2.8c-.5.4-1.2.3-1.7-.1-.2-.2-.5-.5-.7-.8-.5-.6-1.2-.9-1.9-.9-.3 0-.6-.1-.9-.3s-.2-.4.1-.5c.1 0 .2-.1.3-.1.7-.2 1.4-.2 2.2-.3zm7-84.6c-.2-.1-.3-.3-.5-.4-.6-.8-1.2-1.6-1.5-2.6-.1-.4-.5-.7-.7-1.1l-.6-.6c1.1-.4 2.6 0 3.2.8s1 2.7.1 3.9zm-50.1 59.8c-.2 0-.3-.1-.5-.2l-1.5-1c-.1-.1-.2-.4-.2-.5.1-.7-.2-1.2-.5-1.8-.2-.5-.7-.6-1.2-.5-.3 0-.6 0-.9-.2.6-.4.9-.8.7-1.5.7 0 .9.9 1.6.8-.1-.2-.2-.3-.2-.4 0-.2.1-.4.1-.6.2.1.5.1.5.3l.3 1.4v.7c.1 1 .5 1.3 1.4 1.5.1 0 .2.1.4.1-.2.7-.7 1.2 0 1.9zm58.3-62.8c.4-.2.7-.5 1 0 0 0 0 .1-.1.1-.7.5-1.3.2-1.9-.2-.1-.1-.3-.1-.4-.2.1-.7-.4-1.1-.8-1.4a4.74 4.74 0 0 1-1-1c-.5-.5-1-1.1-1.9-.9.1-.4.1-.9.3-1 .2-.2.7-.1 1 0 .5.1.8.5.9 1 .1.2.1.5.2.7.1.3.3.6.7.4.4-.1.5-.4.3-.8 0-.1-.1-.2-.1-.2l1.7.6-.8.3c-.4.2-.4.5-.1.7.5.4 1 .8.8 1.5.1.1.2.2.2.4zm12 63.5c-.1.2-.2.3-.3.4 0 0 0 .1.1.1.2.1.4.3.6.4-.2.2-.3.6-.5.7-.4.2-.8.3-1.2.5h-.1c-.7-.1-1.8-1-1.9-1.7-.1-.3-.1-.5.3-.6.8-.2 1.7-.4 2.5-.1 0 .1.2.2.5.3zM123 183.7c-.5.1-1 .3-1.4.4-.2.1-.4.1-.7.2l-1.3.3a.76.76 0 0 0-.4.2c-.4.2-.6.1-.9-.2-.1-.1-.1-.2-.1-.3.1-.4.1-.7.2-1 0-.1.1-.3.2-.3.7-.4 1.4-.7 2.2-.3a.78.78 0 0 1 .4.4c.5.8.6.8 1.5.6.1 0 .2-.1.3-.1v.1zm26-74.5l-.8-.3v.8h-.1l-.3-1c-.1-.4 0-.7 0-1.1 0-.7-.6-1.3-1.3-1.2-.1-.5-.3-1-.5-1.5.4.2.7.4.9.4.3 0 .6-.2.9-.3a.76.76 0 0 0 .2.4c.1.2.2.4.2.6-.1.8.3 1.5.6 2.2.1.2.2.5.3.7 0 .2 0 .3-.1.3zm-22.1 1.4c.1 1-.2 1.8-1 2.5-.6.5-1.1 1.1-1.7 1.7l-2 1.6c.3-.9.7-1.6 1.4-2.1.2-.2.3-.4.5-.5l.3-.3c.3-.2.7-.4.9-.7.6-.7 1.1-1.4 1.6-2.2zm-5.2 71c.5-.4.9-.4 1.2.1.4.6.5.7 1.2.3.3-.2.4.2.5.3l.3.3.3-.3c.1-.1.3-.2.4-.3a.76.76 0 0 1 .2.4c0 .1 0 .3.1.5 0 .1.1.3.1.5-.8-.2-1.4.1-2 .5l-.1-.1c0-.1.1-.3 0-.4 0-.3.1-.4-.4-.5-.7-.2-1.4-.6-1.8-1.3zm-8.9 1.7c-.5-.3-.8-.6-1.2-.9s-.9-.3-1.1-.9c.1 0 .2.1.3.1.6.2 1.2.1 1.8-.1.5-.2 1.5.2 1.7.7 0 .1-.2.4-.3.5-.2.1-.5.2-.7.3-.2 0-.4.2-.5.3zm46.5-42c-.1.1-.1.2-.2.3-.4.5-.4.7 0 1.2.1.2.2.4.2.6 0 .7-.3 1.3-.9 1.8l-.6.6c-.4-1 .5-3.9 1.5-4.5zm-69.4 20.6c-.4-.2-.6-.4-1-.7-.1.2-.1.3-.1.6-.1-.2-.3-.4-.3-.5v-.8c.2-.8.4-1 1.2-.7.7.2 1 .7.6 1.4 0 .2-.2.4-.4.7zm22.3-30.2c.8-.5 1.5-1.1 2.2-1.6l.1.1c-.1.1-.1.2-.2.3-.4.3-.5.7-.5 1.2v1.9c-1-.4-1.3-.9-1.6-1.9zm4.6 52.4c-.4 0-.8-.1-1.1-.1l.3-1.2c.1-.8 1-1.3 1.6-.9.3.2.4.3.2.7-.4.4-.7.9-1 1.5zM106 177c-.2.6-.6.6-1.2 0 .3-.2.6-.4.9-.4 1.1-.1 2.2-.1 3.2-.1.1 0 .2.1.3.1v.1l-2.1.8c-.5.2-.8-.1-1.1-.5zm-50.9-30c-.7-.9-1.3-1.9-1.9-2.8.7-.4.8-.4 1.3.2s1.1 1.2.8 2.1c0 .2-.1.3-.2.5zm91.9-35.7c-.1 0-.3 0-.4.1-.4.1-.9.3-1.3.4-.1 0-.4 0-.5-.1-.1-.2-.2-.5-.1-.7a3.04 3.04 0 0 1 .5-.7c.3-.3.7-.6 1-.3.3.2.4.6.6 1 .2.1.2.2.2.3zm-87.3 44.6c-.1.1-.1.3-.2.3s-.3 0-.4-.1c-.2-.2-.4-.3-.5-.6a4.67 4.67 0 0 1-.5-1c-.1-.2-.1-.5-.1-.8 0-.2.3-.3.4-.4.1.1.3.2.4.4.2.5.4.9.7 1.4 0 .3.1.5.2.8z"/><path d="M180.6 171c.1.2.2.4.2.5 0 .8-.1 1.5-.2 2.3 0 .1-.2.2-.2.2-.4 0-.8-.5-.8-.9.1-.4.1-.8.1-1.2 0-.1 0-.1.1-.2.3-.2.5-.4.8-.7zM143 112.1c.1-1.3.4-2.5 1-3.7.3-.6.5-1.4.7-2.1.2 1.3.3 2.4-.7 3.3-.4.4-.5.9-.6 1.4l-.3 1.1h-.1zm-15.5-1.7c-.1-.3-.2-.5.2-.6.1 0 .1-.3.2-.4s.2-.3.3-.4c.6-.2.9-.6.8-1.2 0-.1 0-.2-.1-.4.4.2.7.4.9.6.3.4.2.7-.3.9s-.8.5-1.1 1c-.1.3-.6.3-.9.5zm13.6 56.5c.1.3.2.5.3.7-1.1.6-.7 1.7-1.1 2.6.1-.1.2-.3.4-.3.1 0 .2 0 .4.1 0 .1-.1.3-.1.3-.6.1-.9.5-1 1-.4-.1-.5-.3-.3-.7.4-.7.6-1.4.7-2.1 0-.5.2-1.1.7-1.6zm27 13.7c-.3-.4-.3-.6.1-.9.1-.1.1-.3.2-.4.1-.6.9-1.6 1.5-1.7-.1.2-.2.4-.2.6 0 .8-.4 1.3-1 1.8-.3.1-.4.4-.6.6zm-23.4-77.3c-.3-.2-.6-.4-.8-.6-.2-.1-.3-.3-.4-.5-.5-.5-.6-.6-1.2-.1-.1-.5-.1-.9-.2-1.4.7.1 2.5 1.8 2.6 2.6zm-5.5 66.9c-.2 0-.4.1-.8.2.2-.3.3-.5.4-.7s.2-.5.2-.7c-.2-.5.1-.8.5-1 .1-.1.3-.1.6-.2l-.3 1.2c-.3.4-.5.7-.6 1.2zm20.1-14.3c-.6.1-1.1.1-1.6.1-.1 0-.4-.1-.4-.3-.1-.1 0-.4.1-.5.2-.1.4-.3.6-.2.5.2 1 .4 1.3.9zm-6.8 23.7c-.5.5-1 .8-1.7.6-.3-.1-.7 0-1.1 0 .2-.4.3-.6.8-.5.3.1.7-.2 1-.3.4 0 .7-.1 1 .2zm-3.2-23c-.2.1-.4.1-.6.1l-1.4.3c-.2 0-.5 0-.6-.1s-.1-.4 0-.6c0-.1.3-.2.4-.2.7.2 1.4.3 2.2.5zm29.9 18.4c-.1-.3-.3-.6-.4-.9.1 0 .1-.1.2-.1.3.3.7.7.6 1.2 0 .3-.3.6-.6.8s-.5.1-.5-.3c0-.5.2-.6.7-.7zm-37.6-23c.4 0 .9-.1 1.3 0 .5.1.6.3.3.7-.1.2-.2.3-.4.5l-.6-.6c-.2-.2-.5-.3-.7-.5.1 0 .1 0 .1-.1zm19-10.7c-.2-.9 0-1.3.9-1.7.3.8 0 1.5-.9 1.7zm-16 40.9c.1-.1.3-.2.4-.4 0-.1-.1-.2-.1-.3h1.6c.1 0 .2.1.3.2-.1.1-.2.2-.3.2l-1.9.3c0 .1 0 0 0 0zm20.8-25.4c.3-.1.7-.3 1-.4.2-.1.5-.3.7.1.1.3-.2.9-.5.8-.4 0-.8-.2-1.2-.3v-.2zm-28-61.4l1-.3c.3.6.5 1.3.8 2l-1.8-1.9c.1.1 0 .1 0 .2zm33 55.3c-.9-.2-.9-.2-1.5-.9l1.4.3c.1.1.2.4.3.5-.1 0-.2 0-.2.1zm15.5 5.3l2.9.3c-1 .7-1.9.1-2.9-.3zm-16.8-1.4c-.2-.4-.7-.7-.4-1.2.1-.1.5-.2.6-.1.4.1.2.8-.2 1.3zm-24.5-59.7c.7.2.8.9.2 1.5-.3-.5-.3-1-.2-1.5zm-26.9 69.8c-.1-.8-.3-1.5.2-2.2-.2.7.4 1.5-.2 2.2zm-46.1-19.3c.5.3.9.6 1.4.8 0 0 0 .1-.1.1-.2 0-.5 0-.7-.1-.7.1-.8-.1-.6-.8zm-3.8-3.4c.3-.2.4-.4.6-.5.1 0 .4.3.4.4-.1.3-.3.5-.4.7-.2-.2-.4-.3-.6-.6zm89.9 10.4c-.2-.4-.3-.7-.4-1 .1-.1.3-.2.5-.3 0 .1.1.3.1.4-.1.7-.1.7.5 1 0 0 .1 0 .1.1v.1c-.1 0-.3-.1-.4-.1-.2-.2-.3-.2-.4-.2zm-42.5-21.8c.1.6.2 1.1.4 1.7-.7-.4-.8-1.2-.4-1.7zm-23.7 4c-.2-.1-.4-.2-.5-.3s-.1-.3-.1-.5c0-.1.2-.3.2-.3.1 0 .3.2.3.3.1.2.1.5.2.8h-.1zm47.9-10.9c-.2.2-.4.5-.6.4-.2 0-.4-.3-.5-.5.3-.3.6-.2 1.1.1zm3.1 31c-.2-.1-.3-.1-.4-.2-.2.3-.3.5-.5.7-.1 0-.1 0-.2-.1l.3-.9c.1-.1.4-.1.5-.1l.3.6zm2.1-54.4c-.7-.5-.7-.7 0-1.2v1.2zm-73.9 44c.6.3.5.7.3 1.3-.4-.4-.4-.8-.3-1.3zm67.9 37.9c.2.7 0 .9-1 1a4.74 4.74 0 0 0 1-1zm-.8-85c-.2.2-.4.4-.4.3-.2-.1-.3-.3-.5-.5.1-.1.2-.3.3-.2.2.1.3.2.6.4zm29.9 53.3c.1-.3.1-.5.1-.6l.1-.1c.1.2.3.5.4.8-.1-.1-.3-.1-.6-.1zm-72.4 3.7c0-.3.1-.6.4-.7.1 0 .2.1.3.1l-.6.6c0 .1-.1 0-.1 0zm35.3-52.5l1.3.6c-.8.1-1.3-.1-1.3-.6zm-45.8 7.8c.3.1.6.2.9.4-.1.1-.2.3-.4.4-.2-.3-.4-.5-.5-.8-.1 0-.1 0 0 0zm-21.7 51.2c.2.3.5.5.2 1l-.3-1h.1zm15.2-10.5c0-.2 0-.3.1-.6l.8.5c-.3.1-.6.1-.9.1zm64.5 36c.4-.2.8-.3 1.1-.5-.1.3-.6.5-1.1.5zm-64.6-35c-.1.1-.2.3-.4.3-.1 0-.2-.1-.4-.2v-.1c.2-.1.4-.1.5-.2.2.1.3.2.3.2zm60.4 40.3l1-.7c0 .1.1.1.1.2-.3.3-.7.3-1.1.5z"/></g></svg>