<svg xmlns="http://www.w3.org/2000/svg" xmlns:xlink="http://www.w3.org/1999/xlink" viewBox="0 0 801.2 328"><style><![CDATA[.AT{fill:#61a1fe}.AU{fill:#61a0fe}.AV{fill:#815bee}.AW{fill:#fefefe}]]></style><path d="M179.5 150.2h-154c-5.5 0-10-4.5-10-10V24.8c0-5.5 4.5-10 10-10h154c5.5 0 10 4.5 10 10v115.3c0 5.6-4.5 10.1-10 10.1zm195.5 3H221c-5.5 0-10-4.5-10-10V27.8c0-5.5 4.5-10 10-10h154c5.5 0 10 4.5 10 10v115.3c0 5.6-4.5 10.1-10 10.1zm195.5 0h-154c-5.5 0-10-4.5-10-10V27.8c0-5.5 4.5-10 10-10h154c5.5 0 10 4.5 10 10v115.3c0 5.6-4.5 10.1-10 10.1zm-391 154h-154c-5.5 0-10-4.5-10-10V181.8c0-5.5 4.5-10 10-10h154c5.5 0 10 4.5 10 10v115.3c0 5.6-4.5 10.1-10 10.1zm195.5 3H221c-5.5 0-10-4.5-10-10V184.8c0-5.5 4.5-10 10-10h154c5.5 0 10 4.5 10 10v115.3c0 5.6-4.5 10.1-10 10.1zm195.5 0h-154c-5.5 0-10-4.5-10-10V184.8c0-5.5 4.5-10 10-10h154c5.5 0 10 4.5 10 10v115.3c0 5.6-4.5 10.1-10 10.1zm197-158h-154c-5.5 0-10-4.5-10-10V26.8c0-5.5 4.5-10 10-10h154c5.5 0 10 4.5 10 10v115.3c0 5.6-4.5 10.1-10 10.1zm0 157h-154c-5.5 0-10-4.5-10-10V183.8c0-5.5 4.5-10 10-10h154c5.5 0 10 4.5 10 10v115.3c0 5.6-4.5 10.1-10 10.1z" fill="#fff"/><path d="M261.7 75.9l25.9-3.5v25l-25.9.1V75.9zm25.9 24.3v25.1l-25.9-3.6V100l25.9.2zm3.2-28.3l34.4-5v30.2l-34.4.3V71.9zm34.4 28.6v30.1l-34.4-4.9v-25.3l34.4.1z" fill="#00adef"/><path d="M429.3 71.7h37l-7 14.8-3 14 10.5 1 1.6 21.6h-39.2l.1-51.4z" fill="#4d66cc"/><path d="M466.2 71.7h29.3v51.5h-27.3l-1-22.2-11 .2 2.5-14.8 7.5-14.7z" fill="#89a1d4"/><g fill="none" stroke-width="3.039"><path d="M467.7 112.1c7.3-.1 12.7-1.8 17-4.4" stroke="#000"/><path d="M440.2 107.5c8.2 4.2 16.8 5.2 25.9 4.6m-18.7-31.9V88" stroke="#09098f"/><path d="M475.6 80.2V88m-3.2-24.2c-8.2 9.7-15.3 22.4-16.1 37.2h12.1c-3 10.1-1.4 21.4 3.2 30.5" stroke="#000"/></g><path d="M101.5 59.9s20.7-.9 31.7 19.9H99.8s-6.3-.2-11.7 7.5c-1.5 3.2-3.2 6.5-1.3 13L72.5 75.6s8.1-14.9 29-15.7z" fill="#ef3f36"/><path d="M132.1 112.7s-9.6 18.4-33 17.5l16.7-29s3.3-5.4-.6-13.9c-2-3-4-6-10.6-7.7h28.6s8.7 14.6-1.1 33.1z" fill="#fcd900"/><path d="M71.1 112.8s-11.2-17.5 1.4-37.4l16.7 29s3 5.6 12.3 6.4c3.6-.3 7.2-.5 12-5.4l-14.3 24.7s-17 .4-28.1-17.3z" fill="#61bc5b"/><path d="M99.1 130.3l4.7-19.6s5.2-.4 9.5-5.2l-14.2 24.8z" fill="#5ab055"/><path d="M85.8 95.3c0-8.7 7-15.7 15.7-15.7s15.7 7 15.7 15.7-7 15.7-15.7 15.7-15.7-7-15.7-15.7z" fill="#fff"/><linearGradient id="A" gradientUnits="userSpaceOnUse" x1="101.415" y1="82.482" x2="101.415" y2="107.599"><stop offset="0" stop-color="#86bbe5"/><stop offset="1" stop-color="#1072ba"/></linearGradient><path d="M88.4 95.3c0-7.2 5.8-13 13-13s13 5.8 13 13-5.8 13-13 13c-7.2.1-13-5.8-13-13z" fill="url(#A)"/><path d="M133.1 79.7l-19.4 5.7s-2.9-4.3-9.2-5.7h28.6z" fill="#eaca05"/><path d="M86.3 99.5l-13.9-24 14.3 14.2s-1.5 3-.9 7.4l.5 2.4z" fill="#df3a32"/><path d="M51.8 240.6h102.1v2.3H51.8zm15.5-16.1h-14a1.47 1.47 0 0 0-1.5 1.5v9.3a1.47 1.47 0 0 0 1.5 1.5h3.9v1.5h6.1v-1.5h3.9a1.47 1.47 0 0 0 1.5-1.5V226c.1-.9-.6-1.5-1.4-1.5zm0 10.7h-14v-9.3h13.9v9.3zm3.8-10.7h7v14.7h-7zm34.1 0H91.3a1.47 1.47 0 0 0-1.5 1.5v9.3a1.47 1.47 0 0 0 1.5 1.5h3.9v1.5h6.1v-1.5h3.9a1.47 1.47 0 0 0 1.5-1.5V226a1.47 1.47 0 0 0-1.5-1.5zm0 10.7H91.3v-9.3h13.9v9.3zm3.8-10.7h7v14.7h-7zm34-.9h-13.9a1.47 1.47 0 0 0-1.5 1.5v9.3a1.47 1.47 0 0 0 1.5 1.5h3.9v1.5h6.1V236h3.9a1.47 1.47 0 0 0 1.5-1.5v-9.3c.1-.8-.6-1.6-1.5-1.6zm0 10.9h-13.9v-9.3H143v9.3zm3.9-10.9h7v14.7h-7zm-95.1 41.8h102.1v2.3H51.8zm15.5-16.3h-14a1.47 1.47 0 0 0-1.5 1.5v9.3a1.47 1.47 0 0 0 1.5 1.5h3.9v1.5h6.1v-1.5h3.9a1.47 1.47 0 0 0 1.5-1.5v-9.3c.1-.8-.6-1.5-1.4-1.5zm0 10.9h-14v-9.3h13.9v9.3zm3.8-10.9h7v14.7h-7zm34.1 0H91.3a1.47 1.47 0 0 0-1.5 1.5v9.3a1.47 1.47 0 0 0 1.5 1.5h3.9v1.5h6.1v-1.5h3.9a1.47 1.47 0 0 0 1.5-1.5v-9.3a1.54 1.54 0 0 0-1.5-1.5zm0 10.9H91.3v-9.3h13.9v9.3zm3.8-10.9h7v14.7h-7zm34-.7h-13.9a1.47 1.47 0 0 0-1.5 1.5v9.3a1.47 1.47 0 0 0 1.5 1.5h3.9v1.5h6.1v-1.5h3.9a1.47 1.47 0 0 0 1.5-1.5v-9.3c.1-.9-.6-1.5-1.5-1.5zm0 10.8h-13.9v-9.3H143v9.3zm3.9-10.8h7v14.7h-7zm-95.1 43.3h102.1v2.3H51.8zm15.5-16.2h-14a1.47 1.47 0 0 0-1.5 1.5v9.3a1.47 1.47 0 0 0 1.5 1.5h3.9v1.5h6.1v-1.5h3.9a1.47 1.47 0 0 0 1.5-1.5V277c.1-.9-.6-1.5-1.4-1.5zm0 10.7h-14V277h13.9v9.2zm3.8-10.7h7v14.7h-7zm34.1 0H91.3a1.47 1.47 0 0 0-1.5 1.5v9.3a1.47 1.47 0 0 0 1.5 1.5h3.9v1.5h6.1v-1.5h3.9a1.47 1.47 0 0 0 1.5-1.5V277a1.47 1.47 0 0 0-1.5-1.5zm0 10.7H91.3V277h13.9v9.2zm3.8-10.7h7v14.7h-7zm34-.8h-13.9a1.47 1.47 0 0 0-1.5 1.5v9.3a1.47 1.47 0 0 0 1.5 1.5h3.9v1.5h6.1V287h3.9a1.47 1.47 0 0 0 1.5-1.5v-9.3c.1-.9-.6-1.5-1.5-1.5zm0 10.8h-13.9v-9.3H143v9.3zm3.9-10.8h7v14.7h-7z" fill="#1a1a1a"/><linearGradient id="B" gradientUnits="userSpaceOnUse" x1="535.828" y1="105.551" x2="546.906" y2="68.169"><stop offset="0"/><stop offset="1" stop-opacity="0"/></linearGradient><path d="M529.1 122.5c-4-1.2-9.7-9.6-11.7-17.4-4-15.1 6.1-27.9 18.1-23 3.3 1.4 3.5 1.4 7.4.1 7-2.3 13.4-.8 15.6 3.5.7 1.3.6 1.6-1.3 3.5-4.9 5-4.4 12.9 1.1 16.8 2.3 1.7 2.4 2.6.6 6.5-4.1 8.8-8.2 11.4-15 9.2-3.5-1.1-4.8-1.1-8.8.3-3 1.1-3.8 1.2-6 .5zm-6.1-28c6-6-10.8 1.1 5.7-5.8 4.1-1.7 1.8-2.4-.2-3-2.5-.8 18.4-3.8 14.3-2.4s-8.2 8.2-11.4 10.6c-9.9 7.3-15.7-5.3-13.4 7.7 1.2 6.7-2.3-3.6.2-7.1 1.5-2 2.4 2.4 4.8 0zm1.4 5.5c1.2-.6-.6-5.7.5-6.6 1.9-1.6 5 .2 9.1-5.5.6-.8 3.9-1.8 9.8 1.9 4.5 2.8-9.1 3.6-13.4 8.7-5.1 5.7-11.2 4-6 1.5zm13.7-18.7c-1.7-2.6 2.4-9.5 6.9-11.6 4.4-2.1 5.6-1.1 4.2 3.7-1.6 5.4-9.2 10.8-11.1 7.9zm-7.1 8.6c1.4-.9.7-.5 1.3-.8 5.5-3.1 2.1.5 1-.5-.9-.8.6.2.4.5-1.2 1.2 1.1-2.9-.4.4-1.4 3-5.7 2.6-2.3.4z" fill="url(#B)"/><path d="M416.3 259.2c.2-.2.3-.2.5-.2h6.6c.2 0 .2-.1.2-.3-.1-1.6-.1-3.3.2-4.9 0-.2 0-.3.2-.4s.3-.1.4-.1h26.3c.2.1.2.2.2.4l-.6 1.9-1.7 5.1c-.1.1-.1.2-.2.3a32.53 32.53 0 0 0 2.3-2.9l3.8-4.6c.1-.2.2-.2.4-.2h26.5c.2 0 .4 0 .5.1s.2.2.2.3l.2 2.6c0 .8.1 1.6 0 2.4 0 .2.1.2.2.2h7.1c.1 0 .2.1.2.2-.2.1-.4 0-.5 0h-6.5c-.5 0-.5 0-.5.5-.2 1.6-.4 3.1-.8 4.5l-.3 1.2c0 .2-.1.2-.2.3s-.2 0-.4 0h-8.1c-.2 0-.2-.1-.4-.1h-37.7c-.2 0-.3 0-.5.1h-8.7c-.2-.1-.2-.2-.2-.3-.5-1.6-.8-3.2-1-4.9 0-.3-.1-.5-.1-.9-.1-.4-.1-.4-.5-.4h-4.6c-1.1.2-1.8.2-2.5.1.1.1 0 .1 0 0z" fill="#8f69f8"/><path d="M416.5 259.3c.1-.1.2-.1.2-.1h6.9c.2 0 .3.1.3.3.2 2.1.5 4.2 1.2 6.2 0 0 0 .1.1.1.1.1.2.2.2.3.6 2 1.5 3.9 2.6 5.7.1.2.2.2.2.5h-11.7v-.1c.2-.5.6-.8 1-1.2l2.3-2.6 2.1-2.4c.1-.2.2-.2.3-.4.3-.3.2-.3 0-.6l-2.6-2.7-2.8-2.9c-.2.1-.4.1-.3-.1z" class="AV"/><path d="M452.1 292.1c-.4 0-.5-.3-.7-.6a9.13 9.13 0 0 0-.8-1.3c-.2.1-.1.2-.1.2 0 .4-.1.9-.1 1.3 0 .2-.2.2-.3.2s-.4.1-.3-.2l.2-2.4c0-.1 0-.2.1-.2.2 0 .5-.1.6.2.3.5.5.9.9 1.4.1.1.1.2.2.2.2-.5.1-.9.2-1.4 0-.2.1-.3.2-.2.2.1.4 0 .3.3-.1.7-.1 1.5-.2 2.2-.1.2-.1.3-.2.3z" class="AT"/><path d="M452.1 228.1h1.6v.1c-.5 0-1 0-1.6-.1z" fill="#8ab9fe"/><path d="M454.5 228.1c-.2.2-.2.2-.4.1 0 0-.1-.1 0-.1h.4z" fill="#c3dbfe"/><path d="M452.1 228.1c-.2.2-.2.2-.4.1 0 0-.1-.1 0-.1h.4z" fill="#b7d4fe"/><path d="M454 228.1c-.1.2-.2.2-.3.1v-.1h.3z" fill="#a4c9fe"/><path d="M451.7 228.1c-.1.2-.2.2-.3.1v-.1h.3z" fill="#dae9fe"/><path d="M428 272.3l-1.3-2.5c-.6-1.3-1.1-2.5-1.5-3.8v-.2h8.7c.2-.1.2 0 .4 0h19.5c.2.1.2 0 .4 0H481c.1.1 0 .2 0 .3a23.4 23.4 0 0 1-2.5 5.6c-.2.2-.2.5-.4.6-.3.5-.5.9-.9 1.3-2.5 3.7-5.7 6.7-9.6 8.9-2.9 1.6-6 2.8-9.3 3.4-2.2.4-4.5.5-6.7.4-4.5-.2-8.6-1.4-12.5-3.6-2.8-1.6-5.2-3.5-7.4-5.8-1.3-1.3-2.3-2.8-3.3-4.4-.3 0-.4-.1-.4-.2z" class="AU"/><path d="M478 272.3l1.4-2.7 1.5-3.7v-.2l.8-3.2c.2-.8.2-1.6.4-2.4 0-.2.1-.5.1-.7s.1-.2.3-.2h7c.1 0 .2-.1.3.1 0 .1-.1.1-.1.2l-2.2 2.4-3.5 4c-.1.1-.2.2 0 .3l5.7 5.9h.1c0 .1.2.1.1.2H478z" class="AV"/><path d="M441.2 288.7c.2-.5.4-.9.5-1.4.1-.2.2-.2.3-.1s.4.1.2.3l-.9 2.2c0 .1-.1.2-.2.2-.2-.1-.4-.1-.5-.3-.2-.5-.2-1.1-.4-1.6 0-.1-.1-.2-.1-.4l-.6 1.4c-.1.2-.2.3-.4.2s-.3-.2-.2-.4c.3-.6.5-1.3.9-2 .1-.1.1-.3.2-.3.2.1.5.1.5.4.2.5.2 1.1.4 1.7.3-.1.3 0 .3.1zm26.4-1.1c-.2-.4-.4-.8-.5-1.2-.1-.2-.1-.3.2-.4.2-.1.3-.2.4.1l.9 2c.1.1.2.2.1.3-.2.1-.3.3-.6.2l-1.6-.9c-.1 0-.1-.1-.2-.1.2.5.5 1 .6 1.4.2.2-.1.2-.2.3-.2.1-.2.2-.3-.1l-1-2.2c-.1-.2-.1-.2.1-.2.2-.2.5-.2.7 0 .3.4.8.6 1.4.8 0 .1 0 .1 0 0z" class="AU"/><path d="M461.6 289.4c0-1.3 1.1-2 2-1.5.1.1.3.1.2.2-.1.2-.2.4-.5.2-.5-.2-.9-.1-1.1.3s-.2.9.2 1.2.9.2 1.2-.1c.2-.1.2-.2.1-.4s-.2-.1-.3 0c-.5.2-.5.2-.5-.2 0-.2 0-.2.2-.2l.9-.3c.2-.1.2 0 .2.2s.1.3.2.4c.2.4.1.7-.3 1-.5.4-1 .5-1.6.2-.7-.1-.9-.6-.9-1z" class="AT"/><path d="M449.4 291.9c-.2 0-.3 0-.4-.1-.2 0-.3-.1-.3-.3s-.2-.2-.3-.3c-.2 0-.4 0-.5-.1-.2-.1-.5 0-.5.2-.1.2-.6.1-.7 0 0-.1 0-.1.1-.2l1.3-2.3c0-.1.1-.1.2-.2.3-.1.7.2.8.5-.1 1.1.1 1.9.3 2.8z" class="AU"/><path d="M459.9 288.6c.8 0 1.4.6 1.4 1.4s-.6 1.4-1.4 1.4-1.5-.7-1.4-1.5c-.1-.7.6-1.3 1.4-1.3zm-16.5 2c-.5-.1-.9-.2-1.3-.7-.2-.2.1-.3.2-.4.2-.2.2-.1.3.1.2.2.5.5.8.5.2 0 .3 0 .4-.2s-.1-.2-.2-.3c-.2-.2-.4-.2-.5-.4-.4-.3-.5-.6-.4-1s.5-.5 1-.5c.4.1.7.2 1 .5.1.1.2.2 0 .2-.2.1-.2.3-.4.1s-.4-.4-.6-.4-.3 0-.3.2c-.1.2 0 .2.2.3.2.2.5.3.6.5.4.3.5.5.3.9-.4.4-.7.6-1.1.6zm10.5-1.4h.9c.2 0 .2.1.2.2s.1.3-.2.3-.5-.2-.5.1c-.1.2 0 .4 0 .6v1.3c0 .2 0 .2-.2.2s-.4.1-.4-.2v-1.8c0-.2-.1-.3-.3-.3h-.2c-.2 0-.3 0-.3-.2s.1-.3.3-.3c.2.2.4.2.7.1 0 .1 0 0 0 0zm-6.8-.3c0 .2-.1.3-.4.2-.5-.2-.5-.2-.6.4-.2.5-.2 1-.4 1.5-.1.3-.2.2-.4.2s-.2-.1-.2-.3c.2-.6.3-1.2.4-1.8.1-.2 0-.2-.2-.2-.1 0-.2-.1-.3-.1-.2 0-.3-.1-.2-.3s.2-.2.4-.2c.5.2 1.1.2 1.6.4.3 0 .4.1.3.2zm9.7 3c-.2.1-.2-.1-.2-.2l-.3-2.3c-.1-.3.2-.2.4-.3s.2.1.2.2c.1.5.2 1.1.2 1.7 0 .2.1.3.3.2s.4-.1.5-.1c.3 0 .4.1.4.4 0 .2-.1.2-.2.2-.3.1-.7.1-1.3.2zm8.9-2.2c-.1.2-.2.2-.4.2-.2.1-.2 0-.2-.1-.3-.8-.5-1.5-.9-2.3-.1-.2.1-.2.2-.3.1 0 .2-.2.3.1.4.8.7 1.6 1 2.4 0-.1 0-.1 0 0zm-26-3.5c0 .1-.1.2-.1.2-.3.7-.7 1.3-1 2-.1.2-.2.2-.4.1s-.2-.2-.2-.4c.4-.7.7-1.4 1-2 .1-.1.1-.2.2-.2.2.1.4.1.5.3z" class="AT"/><path d="M454.7 253.5l-2.8 3.4-3.4 4.2c-.1.1-.1.2-.2.2-.1-.2 0-.2.1-.3l2.4-7.3c0-.1 0-.2.1-.2v-.2l1-3.2c.1-.3.1-.3-.2-.3h-6.6c-.2 0-.4.1-.5-.1s.1-.3.2-.5l6-7.4 6-7.3c.2-.2.3-.4.5-.5.1-.1.2-.2.2-.1.1.1.1.2 0 .2 0 .2-.1.2-.2.3l-3.5 10.6c-.2.4-.2.4.3.4h6.6c.2 0 .4-.1.5.1s-.1.3-.2.4l-5.2 6.3-.9 1.1c-.1.2-.1.2-.2.2z" fill="#fcde00"/><path d="M454.7 253.5c.2-.2.5-.2.7-.2h26a.9.9 0 0 1 .5.1v.1h-27.2zm-3.7 0c-.1 0-.1 0 0 0l-26.9.1v-.1c.1-.1.2-.1.3-.1h25.9c.2 0 .4 0 .7.1z" fill="#9f9dfc"/><path d="M453.4 265.7c-.1.1-.2.1-.2.1h-19.4c.1-.1.2-.1.2-.1h19.4z" fill="#999cfc"/><path d="M472.3 265.8h-18.4c-.1 0-.2.1-.3-.1h18.2c.3 0 .4 0 .5.1z" fill="#9d9efc"/><path d="M451 253.5h-26.9l.6-3.4c1-4.1 2.9-7.8 5.5-11 3.2-3.9 7.1-6.9 11.8-8.8 2.4-1 5-1.6 7.6-2 .5-.1 1.2-.1 1.7-.2h3.1c5.2.3 9.9 1.8 14.3 4.6 4.7 3.1 8.2 7.1 10.7 12.1 1.2 2.5 2 5.2 2.4 8 0 .2.1.4.1.6h-27.1l2.4-3 3.8-4.6.2-.2H454c-.2 0-.3-.1-.2-.3l3.8-11.1v-.2l-12.8 15.7c.1.1.2.1.3.1h6.9c.2 0 .3 0 .2.3-.5 1.1-.8 2.2-1.2 3.4z" fill="#60a0fe"/><g class="AW"><path d="M442.7 276.9c-2.2.1-3.8-1.6-3.9-3.8 0-2 1.2-3.5 3.1-3.8 1.3-.2 2.6 0 3.6.9.2.1.2.2 0 .3-.2.3-.5.5-.8.9-.1.2-.2.2-.3 0-.4-.3-.8-.5-1.3-.6-1.3-.2-2.4.6-2.6 2-.1 1.1.4 2.1 1.3 2.5s1.7.2 2.4-.4c.4-.3.4-.3.7.1l.5.5c.2.2.2.2 0 .3-.4.5-1.5 1.1-2.7 1.1zm8.6-2.5h-1.7c-.2 0-.2.1-.2.3.2.5.6.9 1.2.9s1-.1 1.4-.5c.2-.1.2-.2.3 0 .2.2.4.3.5.5.2.2.2.2 0 .4-.5.5-.9.7-1.6.9-1.5.2-2.8-.3-3.4-1.6-.7-1.7.2-3.8 2-4.2 1.6-.3 3 .5 3.4 2.3.1.3.1.6.1.9 0 .2-.1.3-.3.3-.6-.2-1.2-.2-1.7-.2zm10.2 0h-1.7c-.2 0-.2.1-.2.2.2.5.6.9 1.2.9s1-.1 1.4-.5c.2-.2.2-.1.3 0 .2.2.4.3.5.5.2.2.2.2 0 .4-.9.9-2.4 1.2-3.6.5-1.1-.5-1.7-1.9-1.5-3.1s.9-2.1 2-2.4c1.6-.4 3.1.3 3.4 2.2.1.3.1.6.1.9 0 .2-.1.3-.3.2-.4.2-.9.2-1.6.2z"/><path d="M452.7 271.1h1.6c.2 0 .2.2.2.2l1.1 3.2c0 .1.1.2.2.3.1-.2.1-.2.2-.3l1.1-3.2c.1-.2.2-.3.4-.2h1.2c.3 0 .2.1.2.3l-1.6 4.3c-.2.3-.3.7-.4 1-.1.2-.2.2-.3.2h-1c-.2 0-.2 0-.3-.2l-2.1-5.5-.5-.1zm-6.9 1.8v-3.6c0-.2.1-.3.3-.3h1c.2 0 .3.1.3.3v7.3c0 .2 0 .3-.2.2h-1.1c-.2 0-.2-.1-.2-.3-.1-1.1-.1-2.3-.1-3.6zm19.6-.7c.2-.2.2-.4.4-.5.3-.4.7-.6 1.2-.6.2 0 .2 0 .2.2v1.3c0 .1 0 .2-.2.2-1.2 0-1.6.9-1.6 2v2c0 .2-.1.3-.2.3h-1.1c-.2 0-.2-.1-.2-.2v-5.3c0-.2.1-.2.2-.2h1.3c.2 0 .2.1.2.2-.2 0-.2.2-.2.6z"/></g><path d="M445.5 281.6c-.8 0-1.3-.3-1.6-1-.2-.5-.1-1.3.3-1.7.5-.5 1.2-.6 1.8-.4a1.38 1.38 0 0 1 .4.3c.4.4.4.4-.1.6-.1.1-.2 0-.2-.1-.4-.4-.8-.5-1.3-.1-.4.3-.5.8-.3 1.3s.7.6 1.2.5c.1 0 .2-.1.2-.2.2-.4.5-.2.7-.1s.1.2 0 .2c-.2.5-.6.7-1.1.7zm15.8-.4c-.4.3-.7.4-1.2.2-.4-.2-.5-.6-.5-1s.1-.7.4-1 .8-.3 1.2-.1c.1 0 .1.1.2.1v-.9c0-.2.2-.2.3-.2s.3-.1.3.2v2.7c0 .1 0 .2-.2.2-.1.1-.4.2-.5-.2zm-12.7-.7h-.7c-.2 0-.2.1-.1.2.2.3.5.5 1 .2.2-.2.3 0 .4.2s-.1.2-.2.3c-.8.3-1.8.1-2-.9-.1-.5.1-.9.5-1.1.4-.3.9-.3 1.3-.1s.5.6.5 1.1c0 .2-.1.2-.2.2-.1-.1-.3-.1-.5-.1zm9.9 0h-.5c-.1 0-.2-.1-.2.1 0 .1 0 .2.1.2.2.2.5.3.9.2.2-.2.3 0 .4.2.1.1.1.2-.1.2-.5.3-.9.3-1.4.2-.5-.2-.7-.6-.7-1.1 0-.6.5-1.2 1.2-1.2.6 0 1.2.5 1.2 1.2 0 .2-.1.2-.2.2-.3-.2-.5-.2-.7-.2zm-3.7 1.1c-.2.1-.3-.1-.3-.3V280c0-.2 0-.2-.2-.2s-.2-.2-.2-.3c0-.2.1-.2.2-.2.2 0 .2-.2.2-.3.2-.5.5-.7 1-.5.1 0 .2 0 .2.2-.1.1 0 .3-.2.3h-.2c-.2.1-.2.2-.2.3s.2.1.2.1c.2 0 .2.1.2.2 0 .2 0 .3-.2.3s-.2.1-.2.2v1.3c0 .2 0 .2-.3.2zm-3.1-1.1v-.4c0-.2 0-.3-.2-.3s-.2-.2-.2-.2c0-.1-.1-.3.2-.3s.2-.2.2-.3c0-.2.1-.3.3-.3s.3.1.3.3.1.3.3.3.2.1.2.2c0 .2 0 .3-.2.3s-.3.1-.3.3v.7c0 .2.1.3.2.3.3-.1.2.2.2.3.1.2-.1.2-.2.2-.5.2-.9-.1-.9-.6.1-.2.1-.4.1-.5zm-1.2-1c.2-.2.3-.3.5-.3.1 0 .2-.2.2.1 0 .2.2.4-.2.5h-.2c-.2.1-.4.2-.4.5v1c0 .2-.1.2-.3.2s-.3 0-.3-.3v-1.7c0-.2-.1-.3.2-.3s.5-.1.5.3z" fill="#afcffe"/><path d="M453.2 280.3v-.9c0-.2.2-.2.3-.2s.3-.1.3.2v1.9c0 .2-.2.2-.3.2-.2 0-.3 0-.3-.2v-1zm2.7 0v-.9c0-.2.2-.2.3-.2.2 0 .3-.1.3.2v1.9c0 .2-.2.2-.3.2-.2 0-.3 0-.3-.2.1-.4 0-.7 0-1z" fill="#aecefe"/><path d="M456.6 278.7c0 .2-.2.3-.3.3-.2 0-.3-.2-.3-.4s.2-.3.3-.3.3 0 .3.4zm-2.7-.1c0 .2-.2.3-.3.3-.2 0-.3-.2-.3-.4s.2-.3.3-.3c.1.1.3.1.3.4z" fill="#aecffe"/><path d="M448.3 289.5c.1.4.2.7.2 1 0 .2 0 .2-.2.2-.7-.1-.7-.1-.3-.7.1-.1.1-.3.3-.5z" fill="#fbfdfe"/><path d="M458.9 290c0-.5.4-.9.9-.9s.9.4.9.9-.4.9-.9.9c-.5.1-.9-.3-.9-.9z" class="AW"/><path d="M450.5 273.4h-1c-.2 0-.2-.1-.2-.2.2-.6.6-1 1.2-1s1 .4 1.2 1c.1.2 0 .2-.2.2h-1zm10.2 0h-1c-.2 0-.2 0-.2-.2.2-.6.6-1 1.2-1s1 .3 1.3.9c.1.2 0 .2-.2.2-.3.1-.7.1-1.1.1zm.7 7c0 .5-.2.6-.5.6a.65.65 0 0 1-.6-.6c0-.4.2-.6.6-.7.3 0 .5.2.5.7z" class="AT"/><path d="M448.3 280.1h-.3c-.1 0-.2.1-.2 0-.1-.1 0-.2.1-.2.2-.2.7-.2.9.1.1.1.1.2.1.2 0 .1-.2.1-.2.1-.2-.2-.3-.2-.4-.2zm9.9 0h-.2s-.2.1-.2-.1c-.1-.1.1-.2.2-.3.2-.2.7-.2.9.1.1.2.2.3-.2.2-.3.1-.4.1-.5.1z" fill="#62a1fe"/><path d="M498.6 258.4s0-.1 0 0c.2-.2.4-.2.5-.2h6.8c.2 0 .2-.1.2-.3-.1-1.6-.1-3.4.2-5 0-.2 0-.3.2-.4s.3-.1.5-.1h18.9a.9.9 0 0 1 .5.1c.2.2.1.4.1.5v5.7c.1.9.8 1.6 1.7 1.6h16.4c.7 0 1.3-.3 1.6-.9.2-.3.2-.7.2-1V253c0-.2 0-.4.1-.5.2-.1.2-.1.4-.1H566c.2 0 .3 0 .4.1s.2.2.2.3l.2 2.7c0 .9.1 1.6 0 2.5 0 .2.1.2.2.2h7.5c.1 0 .2.1.2.2-.2.1-.4 0-.5 0h-6.7c-.5 0-.5 0-.5.5l-.8 4.7-.3 1.2c0 .2-.1.2-.2.3-.2.1-.2.1-.4.1H557c-.2 0-.2-.1-.4-.1h-39c-.2 0-.4 0-.5.1h-8.9c-.2-.1-.2-.2-.2-.3-.5-1.6-.9-3.4-1-5.1 0-.3-.1-.5-.1-.9-.1-.4-.1-.5-.5-.5h-7c-.7.1-.7.1-.8 0z" fill="#8f69f8"/><path d="M498.7 258.5c.1-.1.2-.1.2-.1h7c.2 0 .3.1.3.3.2 2.2.5 4.3 1.2 6.4 0 0 0 .1.1.1.1.1.2.2.2.3.7 2 1.6 4.1 2.7 6 .1.2.2.3.2.5h-12v-.1c.3-.5.6-.8 1-1.2l2.3-2.7 2.2-2.5c.1-.2.2-.2.3-.4.3-.3.2-.3 0-.6l-2.7-2.7-2.9-3.1c0-.1-.1-.2-.1-.2z" class="AV"/><path d="M510.6 271.8l-1.4-2.6c-.6-1.3-1.1-2.6-1.6-4v-.2h9c.2-.1.2 0 .4 0h20.1c.2.1.2 0 .4 0h27.7c.1.2 0 .2 0 .4-.6 2-1.5 3.9-2.6 5.8-.2.2-.2.5-.4.6-.3.5-.6.9-.9 1.3-2.6 3.8-6 6.9-9.9 9.2-3 1.7-6.2 2.9-9.6 3.5-2.3.4-4.5.5-6.9.4-4.6-.2-8.9-1.5-12.9-3.7-2.9-1.6-5.4-3.6-7.7-6-1.3-1.4-2.4-2.9-3.4-4.5-.2 0-.3-.1-.3-.2z" class="AU"/><path d="M562.2 271.8l1.5-2.7 1.5-3.8v-.2c.4-1.1.6-2.2.8-3.3.2-.8.2-1.6.4-2.5 0-.2.1-.5.1-.8 0-.2.1-.2.3-.2h7.2c.1 0 .2-.1.3.1 0 .1-.1.1-.1.2-.7.9-1.5 1.6-2.2 2.5l-3.7 4.2c-.1.1-.2.2-.1.4l5.9 6.1h.1c.1.1.1.2.2.2h-.2l-12-.2z" class="AV"/><path d="M546.8 289.5c-.2-.5-.3-1-.5-1.5-.1-.2.1-.3.2-.3.2-.1.3-.2.4.2.2.7.5 1.5.6 2.2 0 .1.2.3 0 .4s-.4.2-.5.1l-1.4-1.1c-.1-.1-.2-.1-.3-.2l.3 1.2c0 .1.1.2.1.3.2.2 0 .3-.2.4s-.3 0-.3-.2l-.6-2.1c0-.2-.2-.3 0-.4s.4-.2.6-.1c.5.3.9.7 1.3 1 0 0 .1.1.3.1zm-13.9 2.3l.2-2.3c0-.2.1-.3.3-.2.4 0 .7.1 1.1.1.5.1.8.3.9.7.1.5-.1.8-.5 1-.2.1-.2.2-.1.2.2.2.2.5.4.8.1.2 0 .2-.2.2-.3 0-.6-.1-.7-.5 0-.2-.2-.3-.2-.5-.1-.2-.2-.2-.4-.2s-.2.2-.2.3v.3c0 .4-.2.5-.5.3-.2.1 0-.1-.1-.2z" class="AU"/><path d="M535.8 290.9v-1.2c0-.2.1-.2.2-.2h1.6c.2 0 .2.1.2.2 0 .2 0 .3-.2.2-.3 0-.6.1-.9 0-.3 0-.2.2-.3.3 0 .2.1.3.3.2h.9c.2 0 .2.1.2.2s0 .3-.2.3h-.9c-.3 0-.2.2-.3.4 0 .2.1.3.3.3h.9c.2 0 .2.1.2.2 0 .2.1.3-.2.3H536c-.2 0-.2-.1-.2-.2v-1zm-8.9-2.8c0 .2-.2.4-.4.3l-.9-.3c-.3-.1-.2.1-.2.2-.1.1-.2.2.1.3l.9.3c.2.1.3.1.2.3s-.2.3-.4.2c-.3-.2-.5-.2-.9-.3-.2-.1-.2.1-.3.2 0 .2-.2.3.1.4l.9.3c.2.1.2.2.2.4-.1.2-.2.2-.3.2-.5-.2-1-.4-1.5-.5-.2-.1-.2-.1-.2-.2l.8-2.3c.1-.2.1-.2.2-.2.5.2 1 .4 1.6.5 0 0 .1 0 .1.2zm4.3 3.8c-.8 0-1.4-.5-1.4-1.1 0-.3.1-.6.1-.9 0-.2.1-.5.2-.8 0-.2.1-.3.3-.2s.4 0 .3.3c-.1.5-.2.9-.2 1.3-.1.4.2.8.5.9.4.1.7-.1.8-.5.1-.5.2-.9.2-1.4 0-.2.1-.3.3-.2.2 0 .4.1.3.3-.1.5-.2 1-.2 1.5-.2.5-.6.8-1.2.8zm-8.2-2.4c-.6-.1-1.1-.3-1.4-.9-.2-.2.1-.3.2-.4.2-.1.2-.1.3.1.2.3.4.5.8.5.2.1.3 0 .4-.2s0-.3-.2-.4c-.2-.2-.5-.3-.6-.5-.3-.3-.3-.5-.2-.9.2-.3.5-.5.9-.5.5.1.9.3 1.3.7.1.1.2.2 0 .3s-.3.3-.5 0c-.2-.2-.3-.4-.6-.5-.2-.1-.3-.1-.4.1s0 .2.2.4a3.04 3.04 0 0 0 .7.5c.2.2.3.5.2.9-.4.7-.7.8-1.1.8zm17.3 2.6c-.2 0-.3-.1-.5-.2-.3-.2-.3-.2-.2-.5.1-.2.2-.2.3-.1.3.2.6.2.9.1.2-.1.2-.2.2-.3s-.2-.2-.3-.2c-.2-.1-.5-.1-.6-.1-.5-.1-.8-.3-.9-.7-.1-.5.2-.8.7-.9.4-.2.9-.1 1.3.1.2.1.2.2.1.3s-.1.4-.3.2-.5-.2-.8-.1c-.2.1-.2.1-.2.2s.2.2.3.2c.2.1.5.1.8.2.5.1.7.3.7.7.1.4-.2.7-.5.9-.4.2-.7.2-1 .2zm-13.6-2.2a1.62 1.62 0 0 1 1.2-1.6c.6-.2 1.3.2 1.6.7.1.1.2.2 0 .3s-.4.2-.5 0c-.2-.4-.5-.5-.9-.4-.4.2-.7.5-.6.9 0 .5.3.8.7.9.2 0 .4 0 .5-.2.3-.2.4.1.5.2.2.2-.1.2-.2.3a1.36 1.36 0 0 1-1.5 0c-.5-.3-.7-.6-.8-1.1zm22.5 0c-.8 0-1.3-.4-1.5-1-.2-.5-.1-1.2.4-1.6s1.1-.5 1.6-.3c.1.1.3.1.2.2-.1.2-.2.5-.5.3-.4-.2-.8-.1-1 .3-.2.5-.2.9.2 1.3.3.3.9.3 1.1 0 .1-.1.2-.2.2-.3 0-.2.1-.2.2-.2.4 0 .5.1.3.4-.2.5-.8.8-1.2.9zm-6.1-.1c.1-.2.2-.5.3-.8.2-.5.2-.5.9-.5-.2.3-.2.7-.4 1-.2.5-.4 1.1-.2 1.7.1.2 0 .3-.2.4s-.3 0-.3-.2c0-.6-.4-1.1-.9-1.6-.2-.2-.5-.5-.8-.7.6-.2.6-.2 1 .2.2.1.3.3.6.5-.1 0-.1 0 0 0z" class="AT"/><path d="M546.3 252.5v6c0 .9-.5 1.7-1.4 1.9-.2 0-.3.1-.5.1h-8.2c-.1-.2-.1-.3-.1-.5v-4.9c0-.5 0-.5.5-.5.1 0 .2 0 .2-.1.1-.1.1-.2.1-.4V253c0-.3.1-.6.4-.8.5-.3.7-.7.8-1.3.2-.9-.5-1.9-1.5-2.1-.2-.1-.4 0-.5-.2v-5.2c0-.5 0-.5.5-.5h7.9c.9.1 1.6.9 1.7 1.8v7.8c.2-.1.2-.1.1 0z" fill="#fcde00"/><path d="M536.3 260.5h-7.9c-1.3 0-2-.7-2-2v-6l-.1-.1v-7.5c0-.9.4-1.4 1.2-1.8.2-.1.4-.2.5-.2h7.8c.5 0 .5 0 .5.5v5.2c0 .2-.2.2-.4.2-.9.2-1.3.7-1.5 1.6-.2.8.2 1.4.8 1.9.3.2.4.5.4.8v1.1c0 .2 0 .2.1.3.5.2.5.2.5.7v4.8c.1.3.1.3.1.5z" fill="#f9cf0b"/><path d="M536.8 265c-.1.1-.2.1-.2.1h-20c.1-.1.2-.1.2-.1h20z" fill="#999cfc"/><path d="M546.3 252.5s0-.1 0 0c.2-.2.4-.2.5-.2h18.7c.2 0 .4 0 .5.1v.1h-19.7zm-20-.1s0 .1 0 0l-19.7.1v-.1c.2-.2.4-.1.5-.1h18.7c.2 0 .4 0 .5.1z" fill="#9f9dfc"/><path d="M556.4 265.1h-18.9c-.2 0-.2.1-.4-.1H556c.1 0 .2 0 .4.1z" fill="#9d9efc"/><path d="M536.3 260.5v-5.4c0-.3-.1-.4-.4-.4-.2 0-.3.1-.4-.1.1-.1.2-.1.2-.1h1.1c.1 0 .2 0 .2.1-.2.2-.3.1-.4.1-.3 0-.4.1-.4.4l.1 5.4z" fill="#f3c918"/><path d="M526.3 252.4h-19.7l.7-3.5c1.1-4.2 3-8 5.7-11.4 3.3-4.1 7.4-7.1 12.2-9.1 2.5-1 5.2-1.6 7.8-2 .5-.1 1.2-.1 1.7-.2h3.2c5.3.3 10.3 1.9 14.8 4.8 4.9 3.1 8.5 7.3 11 12.5 1.3 2.6 2 5.3 2.5 8.2 0 .2.1.5.1.6h-19.9v-7.7c0-.9-.7-1.6-1.6-1.7-.6-.1-1.2 0-1.8 0h-1.1c-.2-.1-.2-.2-.2-.4v-2.7c0-1-.2-2-.7-2.8-.9-1.5-2.3-2.4-4-2.6-2.9-.4-5.6 1.8-5.9 4.7-.1 1.1 0 2.3-.1 3.4 0 .2.1.3-.2.5h-2.9c-.9.1-1.6.9-1.6 1.8v7.6z" class="AU"/><path d="M525.7 276.5c-2.2.1-4-1.6-4-3.9 0-2 1.2-3.6 3.1-4 1.3-.3 2.7 0 3.8.9.2.2.2.2 0 .4-.2.3-.5.5-.8.9-.2.2-.2.2-.3 0-.5-.5-1.3-.8-2-.7-1.1.2-1.8.9-2 2-.2 1.2.4 2.3 1.4 2.7.9.3 1.8.1 2.6-.5.2-.2.3-.2.5 0l.7.7c.2.1.1.2 0 .3-.9.9-1.8 1.3-3 1.2zm8.8-2.5h-1.8c-.2 0-.2.1-.2.2.2.5.7.9 1.3.9.5 0 1-.1 1.4-.5.2-.2.2-.1.3 0 .2.2.4.4.6.5.2.2.2.2 0 .4-.9.9-2 1.1-3.2.7-1.2-.3-1.9-1.2-2-2.4-.2-1.3.2-2.3 1.3-3.1 1.7-1.3 4.1-.2 4.5 1.9.1.3.1.7.1 1 0 .2-.1.2-.2.2-.8.2-1.4.2-2.1.2zm10.7 0h-1.8c-.2 0-.2.1-.2.3.2.5.7.9 1.3.9.5 0 1-.1 1.4-.5.2-.2.2-.2.4 0s.4.3.5.5c.2.2.2.2 0 .3-.5.5-1 .8-1.6.9-1.5.2-2.8-.3-3.4-1.6-.7-1.6 0-3.7 1.6-4.2s3.4 0 3.9 2.2c.1.3.1.6.1.9 0 .2-.1.3-.3.3h-1.9zm-6 .4l1.2-3.6c.1-.2.1-.2.3-.2h1.3c.2 0 .2.1.2.2l-2.2 5.6c-.1.2-.2.2-.3.2h-.1c-.4 0-.9.2-1.2-.1-.2-.2-.3-.7-.5-1.1l-1.8-4.5c-.1-.2-.1-.3.2-.3h1.2c.2 0 .3.1.4.2l1.2 3.4c0 .1-.1.2.1.2zm-8.6-1.9v3.8c0 .2-.1.3-.3.3h-1.2c-.2 0-.2-.1-.2-.2v-7.6c0-.2.1-.2.2-.2h1.2c.2 0 .3.1.2.3.1 1.1.1 2.4.1 3.6zm18.5-.7c.2-.2.2-.4.3-.5.2-.3.5-.5.8-.6.7-.3.8-.2.8.5v.9c0 .2 0 .2-.2.2-1.3.1-1.6.9-1.7 1.9v2.1c0 .2-.1.3-.3.3h-1.1c-.2 0-.2-.1-.2-.2v-5.5c0-.2 0-.2.2-.2h1.3c.2 0 .2.1.2.2-.1.2-.1.5-.1.9z" class="AW"/><g fill="#afcffe"><path d="M528.7 281.4c-.9.1-1.6-.6-1.7-1.3-.2-.9.4-1.7 1.3-2 .6-.2 1.3.1 1.7.5.1.2.1.2-.1.3-.2.2-.4.2-.6-.1-.2-.2-.6-.3-1-.1s-.6.6-.5 1c.1.7.6 1.1 1.3.9.2-.1.3-.2.4-.2.2-.2.2-.2.4-.1.4.2.4.2.1.5-.6.4-1 .6-1.3.6zm16.2-.3c-.4.3-.8.4-1.2.2s-.5-.6-.5-1.1c0-.7.3-1.2.8-1.3.2-.1.4 0 .9.2v-.9c0-.2.1-.2.3-.2s.3-.1.3.2v2.7c0 .1 0 .2-.2.2 0 .1-.3.4-.4 0zm-13.1-.7h-.6c-.2 0-.2.1-.2.2.2.3.6.4 1 .2.2-.2.3 0 .4.2s.1.2-.1.3c-.7.4-1.9.2-2.1-.9-.1-.5.1-.9.5-1.2s.9-.4 1.3-.2c.5.2.6.6.6 1.1 0 .2-.1.2-.2.2s-.4.1-.6.1zm10.2 0h-.6c-.2 0-.2.1-.2.2.2.3.6.4 1 .2.1-.1.2-.2.3 0 .2.2.2.3-.1.4-.9.4-1.8.1-2-.7-.2-.7.2-1.3.9-1.6.6-.2 1.3.2 1.4.9 0 .1.1.2.1.2 0 .2 0 .3-.2.2-.2.1-.4.2-.6.2zm-4.1 0v-.5c0-.2 0-.4-.2-.4s-.1-.2-.1-.3 0-.2.2-.2.2-.1.2-.2c.1-.5.5-.9 1-.7.1 0 .2 0 .2.2-.1.1 0 .3-.2.3s-.2 0-.3.2-.1.3.2.3c.2 0 .3.1.3.3s-.1.3-.3.2c-.2 0-.2.1-.2.2v1.3c0 .2-.2.2-.3.2-.2 0-.3 0-.3-.2-.2-.2-.2-.5-.2-.7zm-3.3-1.4c.3.1.4-.1.4-.4-.1-.3.2-.2.3-.2.2 0 .3 0 .3.2s0 .4.3.4c.2 0 .2.2.2.3s0 .3-.2.2c-.3 0-.3.1-.3.4v.7c0 .2.1.3.2.3.3-.1.2.2.2.3.1.2-.1.2-.2.2-.5.2-.9-.1-.9-.7v-.8c0-.3-.1-.4-.4-.4 0-.1 0-.4.1-.5z"/><path d="M534.5 279.5h-.3c-.2.1-.5.2-.5.5v1.1c0 .2-.1.2-.3.2s-.4.1-.4-.2v-2c0-.2.1-.2.2-.2.2 0 .5-.1.4.3.2-.2.5-.4.8-.4.2.3.2.5.1.7z"/></g><path d="M537.1 280.1v.9c0 .2-.2.2-.3.2-.2 0-.3 0-.3-.2v-2c0-.2.2-.2.3-.2.2 0 .3-.1.3.2v1.1zm2.3 0v-.9c0-.2.2-.2.3-.2.2 0 .3-.1.3.2v2c0 .2-.2.2-.3.2-.2 0-.3 0-.3-.2v-1.1z" fill="#aecefe"/><path d="M537.2 278.3c0 .2-.1.4-.3.4s-.4-.2-.4-.4.1-.4.3-.4.4.1.4.4zm2.1 0c0-.2.2-.4.3-.4.2 0 .4.1.4.4 0 .2-.2.4-.4.4-.1 0-.2-.2-.3-.4z" fill="#aecffe"/><path d="M534.5 279.5v-.6c.1 0 .1.1.2.1v.5h-.2z" fill="#6ca7fe"/><path d="M534 289.9a.9.9 0 0 1 .5.1c.2 0 .3.2.3.4s-.2.4-.3.4c-.2 0-.5 0-.6-.1-.1 0-.1-.1-.1-.2 0-.2 0-.3.1-.5-.2-.2-.1-.1.1-.1z" fill="#fcfdfe"/><path d="M537.1 254.6h-1.6V253a.55.55 0 0 0-.3-.5c-.6-.5-1-1.1-.9-1.9.1-.9.6-1.4 1.4-1.7.2-.1.3-.1.5-.1h.1c1.2.2 1.8.7 2 1.8.1.7-.2 1.3-.8 1.8-.2.2-.4.4-.4.7.1.5 0 1 0 1.5z" fill="#927a11"/><path d="M536.3 248.7l-.1-5.3c0-.3-.1-.4-.4-.4h-8c.2-.1.4-.1.5-.1h2.4c.1-.1.2-.1.3-.1h10.2c.2 0 .2 0 .3.1h2.6a.9.9 0 0 1 .5.1h-7.9c-.5 0-.5-.1-.5.5l.1 5.2z" fill="#f0cd19"/><path d="M531.2 242.9h-.3v-3.1c0-2.7 1.8-4.9 4.5-5.4 3.1-.6 6.1 1.7 6.3 4.9.1 1.3 0 2.5.1 3.8h-.3c-.1-.2-.1-.3-.1-.4v-2.4c0-1.4-.4-2.7-1.3-3.8-.8-.9-1.8-1.4-3-1.6-2.8-.4-5.4 1.6-5.7 4.4-.2 1.1 0 2.3-.1 3.4 0-.1 0 .1-.1.2z" class="AW"/><path d="M533.7 273h-1c-.2 0-.2-.1-.2-.2.2-.6.6-1 1.3-1s1 .4 1.2 1c.1.2 0 .2-.2.2h-1.1zm10.6 0h-1.1c-.2 0-.2-.1-.2-.2.2-.6.6-1 1.2-1.1.6 0 1 .3 1.3 1 .1.2 0 .3-.2.2-.3.1-.6.1-1 .1zm.6 7.1c0 .5-.2.6-.5.6a.65.65 0 0 1-.6-.6c0-.4.2-.7.6-.7.5 0 .5.3.5.7z" class="AT"/><path d="M531.5 279.9h-.3c-.1 0-.2.1-.2-.1-.1-.1 0-.2.1-.2.2-.3.7-.3.9 0 .1.1.1.2.1.2 0 .1-.2 0-.2 0-.2.1-.3.1-.4.1z" fill="#62a1fe"/><path d="M541.7 279.9h-.2s-.2.1-.3-.1c0-.1.1-.2.2-.3.2-.2.7-.2.9.1.1.2.2.3-.2.3h-.4z" class="AT"/><path d="M531.2 242.9v-3.4a5.19 5.19 0 0 1 5.2-5c2.6.1 4.7 2 4.9 4.6.1 1.3 0 2.4.1 3.7h-5.3l-4.9.1z" class="AU"/><g fill="#1a1a1a"><path d="M308.5 229h-25.9c-1.6 0-2.9 1.3-2.9 2.9v17.3c0 1.6 1.3 2.9 2.9 2.9h7.2v2.9h11.5v-3h7.2c1.6 0 2.9-1.3 2.9-2.9v-17.3c-.1-1.5-1.4-2.8-2.9-2.8zm0 20.1h-25.9v-17.3h25.9v17.3zm7.2-20.1h12.9v27.3h-12.9z"/><circle cx="306" cy="270.8" r="9.1"/><path d="M306 281c-6.1 0-18.2 3-18.2 9.1v4.6h36.4v-4.6c.1-6-12.1-9.1-18.2-9.1zm-33.8-1.2a3.08 3.08 0 0 0 3-3V260a3.08 3.08 0 0 0-3-3h-24.3a3.08 3.08 0 0 0-3 3v16.7a3.08 3.08 0 0 0 3 3h-6.1a3.08 3.08 0 0 0 3 3h30.4a3.08 3.08 0 0 0 3-3h-6zM247.9 260h24.3v16.7h-24.3V260zm12.2 21.3a1.6 1.6 0 1 1 0-3.2 1.58 1.58 0 0 1 1.6 1.6c-.1.9-.8 1.6-1.6 1.6zm88.9-20h-12.1a2.22 2.22 0 0 0-2.2 2.2V280a2.22 2.22 0 0 0 2.2 2.2H349a2.22 2.22 0 0 0 2.2-2.2v-16.5c0-1.3-1-2.2-2.2-2.2zm-6.1 19.9c-.7 0-1.3-.6-1.3-1.3s.6-1.3 1.3-1.3 1.3.6 1.3 1.3-.6 1.3-1.3 1.3zm6.5-3.5h-13v-13.9h13v13.9zm360.5-211h-37.7c-3.8 0-6.7 3-6.7 6.7v51.2c0 3.8 3 6.7 6.7 6.7h37.7c3.8 0 6.7-3 6.7-6.7V73.4c0-3.8-3-6.7-6.7-6.7zM691 128.6c-2.2 0-4-1.9-4-4s1.9-4 4-4 4 1.9 4 4-1.8 4-4 4zm20.2-10.7h-40.4V74.8h40.4v43.1z"/></g><linearGradient id="C" gradientUnits="userSpaceOnUse" x1="689.477" y1="100.131" x2="695.985" y2="78.158"><stop offset="0"/><stop offset="1" stop-opacity="0"/></linearGradient><path d="M685.6 110.1c-2.4-.7-5.7-5.6-6.9-10.2-2.4-8.9 3.6-16.4 10.6-13.5 1.9.8 2.1.8 4.4.1 4.1-1.4 7.9-.5 9.2 2.1.4.8.4.9-.8 2.1-2.9 2.9-2.6 7.6.6 9.9 1.4 1 1.4 1.5.4 3.8-2.4 5.2-4.8 6.7-8.8 5.4-2.1-.6-2.8-.6-5.2.2-1.8.5-2.2.6-3.5.1zM682 93.7c3.5-3.5-6.4.6 3.4-3.4 2.4-1 1.1-1.4-.1-1.8-1.5-.5 10.8-2.2 8.4-1.4s-4.8 4.8-6.7 6.2c-5.8 4.3-9.2-3.1-7.9 4.5.7 3.9-1.4-2.1.1-4.2.8-1.1 1.4 1.5 2.8.1zm.8 3.2c.7-.4-.4-3.4.3-3.9 1.1-.9 2.9.1 5.4-3.2.4-.5 2.3-1.1 5.8 1.1 2.6 1.6-5.4 2.1-7.9 5.1-3.1 3.4-6.7 2.4-3.6.9zm8.1-11c-1-1.5 1.4-5.6 4.1-6.8 2.6-1.2 3.3-.6 2.5 2.2-1 3.1-5.5 6.3-6.6 4.6zm-4.2 5.1c.8-.5.4-.3.8-.5 3.2-1.8 1.2.3.6-.3-.5-.5.4.1.2.3-.7.7.6-1.7-.2.2-.9 1.8-3.4 1.6-1.4.3z" fill="url(#C)"/><path d="M653.2 289v-.5c-.1-.4 0-.7 0-1.1v-3.8c.2-.1.3-.1.5-.1h3.3l2.2-.1c.3 0 .6-.1.9.1.1.1.1.3.1.5v2.2c0 .4 0 .4.4.4h37.7c.2 0 .3.2.3.3 0 .2-.2.2-.3.3l-4.5 3s-3.1 1.8-4.6 2.6c-.2.1-.3.2-.5.4h-30.1c-1.5 0-2.8-.5-3.9-1.4-.9-.6-1.3-1.6-1.5-2.8z" fill="#f2b523"/><path d="M722.9 271.2c.4-.1.5-.6.7-.9l2.9-5.1 1.6-3.3 1.7-3.9c0-.1.1-.2.1-.2v31c0 .1 0 .3-.1.4-.1.4-.2.8-.4 1.2-.8 1.5-2.1 2.4-3.7 2.8-.5.1-1 .1-1.6.1h-3.4c-.2-.1-.4-.3-.6-.5l-1-1c-.3-.2-.5-.5-.8-.8-.5-.6-1.1-1.1-1.7-1.6-.7-.8-1.4-1.4-2.1-2.1-.1-.1-.2-.2-.3-.4-.1-.1-.1-.2.1-.2h8.1c.4 0 .4 0 .4-.4V272c0-.4-.1-.6.1-.8z" fill="#f1b21c"/><path d="M729.8 232.6c0-.4 0-.8-.2-1.2 0-.1 0-.3-.1-.4 0-.1 0-.2-.1-.4-.3-.5-.6-1-1-1.4-1-1.1-2.3-1.7-3.7-1.7h-66.3c-1.3 0-2.5.4-3.5 1.2a4.59 4.59 0 0 0-1.7 2.8c-.2.6-.2 1.2-.2 1.7v54.9c0 .1 0 .3.1.4v-4.9c.2-.2.1-.4.1-.6v-34.5c0-.2.1-.3.3-.3.3.1.5.1.8.1h2.4v44.1H728v-30.1c.2-.5.5-1 .7-1.5.4-1 .9-1.9 1.2-2.9v-9.8l-.1-15.5zm-33.6-4.7z" fill="#f2b524"/><path d="M653.2 289c.2.2.2.5.3.8.5 1.4 1.5 2.4 2.8 3 .7.3 1.4.5 2.2.5h30.2c0 .3-.3.3-.6.4h-29.6c-1.9 0-3.4-.8-4.5-2.3-.5-.7-.8-1.5-.8-2.4z" fill="#e89e26"/><path d="M720.6 293.3h4c1.9-.1 3.4-.9 4.4-2.4.3-.4.6-.9.7-1.4 0-.1.1-.2.1-.2-.2 1.3-.8 2.4-1.8 3.2-1 .9-2.3 1.2-3.6 1.2h-19.1c-.3-.2-.4-.3-.2-.5.2-.1.3 0 .5 0H720c.2 0 .4-.1.6.1z" fill="#e69a24"/><path d="M705 293.3c0 .2.2.3.3.4h-17.1c.1-.2.4-.2.6-.4h.1c.1-.1.3-.1.5-.1h15.5l.1.1z" fill="#e89e23"/><path d="M660 276.1v7.4c-2.3.2-4.6.1-6.9.1v-14c.2-.1.3-.1.5-.1h2.9c1 0 2.1-.1 3.1-.2h.4c.1.1.1.3.1.5v5.8c0 .2 0 .4-.1.5z" fill="#f2b527"/><path d="M704.8 293.3h-16.1c.1-.4.5-.4.8-.6 2.4-1.3 4.8-2.7 7-4.3l1.9-1.3s.1 0 .2-.1c.3.1.5.3.7.5l1.7 1.7c.8.9 1.7 1.6 2.5 2.5.4.3.8.8 1.2 1.1.1.2.2.3.1.5z" fill="#f0b31e"/><path d="M701 289.3l-1.3-1.2-1.1-1.1c-.1-.1-.1-.2-.2-.3h.8c.1-.1.3-.1.4-.1h14.3s.1 0 .1.1l.5.5c.1.1 0 .2-.1.3-.3.2-.6.4-1 .4h-3.9c-.5 0-.9.1-1.2.5-.4.4-.9.8-1.5 1-.3.1-.6 0-1 0h-4.4c-.1 0-.3 0-.4-.1z" fill="#e9a023"/><path d="M717 234.1h5.5c.3 0 .5.1.4.4h-23.4c-.1-.1-.1-.3 0-.4s.2-.1.4-.1h16.8s.2 0 .3.1z" fill="#ca9b2c"/><path d="M701 289.3l6-.1c.3-.1.6 0 1 0h8.1c.2 0 .4 0 .6.1.4.3.7.6 1 .9.5.4.9 1.1 1.5 1.5 0 .2-.2.2-.3.2h-3.6c-.4 0-.9-.1-1.3-.1h-10.2c-.1 0-.3 0-.4-.1-.6-.5-1-1.1-1.6-1.6-.3-.1-.6-.4-.8-.8z" fill="#eaa721"/><path d="M703.5 291.8c3.7-.2 7.4 0 11.1-.1 1.4.3 2.8.1 4.2.1.1 0 .3 0 .4-.1.5.5 1 .9 1.5 1.5H705c-.4-.5-.8-.9-1.3-1.3-.2 0-.2 0-.2-.1z" fill="#efae1e"/><path d="M716.6 289.4h-8.8c-.3 0-.6 0-.9-.1.7-.3 1.2-.8 1.7-1.2.2-.2.6-.2.9-.2h3.9c.5 0 .8-.2 1.1-.6l1.3 1.2c.3.3.6.6.8.9z" fill="#e9a122"/><path d="M660 247.8v.1c.1.1.1.3.1.4v20.6c0 .1 0 .3-.1.4-.5.1-.9.1-1.4.1-1.8.2-3.6 0-5.5.1v-21.1c0-.4 0-.4.4-.3.3.1.6.1.9.1 1.6 0 3.2 0 4.8-.3.3 0 .5-.1.8-.1z" fill="#f2b72e"/><path d="M670.8 234.1h3.6c.1.2 0 .3-.1.4h-14.2c-.1-.4.1-.4.4-.4h10.3z" fill="#cda134"/><path d="M681.3 265.5c1.1-.9 2.4-1.6 3.7-2.1 1.3-.4 2.5-.8 3.9-.9.2 0 .5-.1.7-.1.4-.2.8-.1 1.2-.1.9-.1 1.8 0 2.7.1 1.5.2 2.9.5 4.3 1 1.1.4 2.2.9 3.2 1.6l.3.3c.1.1.2.1.3.2a.76.76 0 0 1 .4.2c.8.8 1.5 1.7 1.7 2.8 0 .2.1.4.1.6v3.2c0 .2 0 .3-.1.5h-24.4c-.1-.1-.1-.3-.1-.4v-2.9c0-1.5.8-2.6 1.7-3.6a.78.78 0 0 1 .4-.4z" fill="#f6f7f7"/><path d="M681.3 265.5c-.8.7-1.4 1.4-1.9 2.4-.2.5-.3.9-.3 1.4v3.5h-10c-.3 0-.4-.1-.4-.3v-2.2c0-1.3.6-2.4 1.7-3.2 1.2-.9 2.7-1.5 4.2-1.8 1.2-.3 2.5-.4 3.8-.3 1 .1 2 .2 2.9.5z" fill="#69ba90"/><path d="M703.6 272.8v-3.9c-.1-1.1-.6-2-1.4-2.7-.2-.2-.5-.4-.7-.7.8-.3 1.6-.4 2.4-.5 1.3-.2 2.6-.1 3.9.2 1.2.2 2.3.6 3.3 1.1s2 1.2 2.6 2.2c.3.4.4.9.4 1.4v2.8c-.1.1-.3.1-.4.1h-10.1z" fill="#61ba8c"/><path d="M714.2 285.8v.7c0 .1 0 .2-.1.2h-14.8c-.7 0-.7 0-.7-.7v-2.7h.1c.2-.1.4-.1.5-.1h14.5a.9.9 0 0 1 .5.1c.1.1.1.3.1.5v1.8c0-.1 0 .1-.1.2z" fill="#f1f0ef"/><path d="M699.2 286.7h.5c-.3.1-.4 0-.5 0z" fill="#1f9857"/><path d="M703.7 262c-.6-.3-1.1-.7-1.5-1.2-.6-.9-.9-1.8-.7-2.9.3-1.5 1.1-2.4 2.4-3 1.2-.5 2.3-.3 3.4.3.1 0 .1.1.2.1.5.5 1 .9 1.3 1.6.5 1.3.4 2.5-.3 3.7a3.64 3.64 0 0 1-2.3 1.6 3.6 3.6 0 0 1-2.3-.2h-.2z" fill="#64ba8d"/><path d="M714.2 285.8v-2.2c0-.1.1-.3 0-.4h-15.5a.55.55 0 0 1 .5-.3c.4-.2.9-.3 1.4-.3h2.7c.6 0 1.1 0 1.7-.2h4.1c.3 0 .6.2.8-.2h.3c.6.1 1.2.1 1.8 0h.5c.2.1.5.1.8.1.1 0 .2.1.3.1.1.1.3.1.4.1.6.6 1.1 1.3 1 2.3 0 .4 0 .7-.2 1.1-.1.1-.1.3-.2.3-.5-.1-.3-.3-.4-.4z" fill="#209659"/><path d="M711.8 282.2c-.3.1-.7.1-1 .1s-.5.1-.8-.1h1.8zm1.2 0a.78.78 0 0 1-.8-.1c.3.1.6.1.8.1zm.7.3c-.2 0-.3 0-.4-.1.2-.1.3-.1.4.1z" fill="#1d9c59"/><path d="M722.9 271.2v-36.8c-.2-.2-.5-.1-.7-.1h-61.6c-.2 0-.4 0-.6.1v41.8s-.1 0-.1.1v6.8c0 .1 0 .3.1.4v3c0 .2.1.3.3.3h38.1a1.1 1.1 0 0 0 .8 0v-.1s-.1 0-.1-.1c-.4-.1-.4-.1-.4-.6v-2c0-.3 0-.5-.1-.7h.2c.5-.4 1.1-.5 1.8-.5h3.3c.2 0 .4 0 .6-.1.3-.1.6-.1 1-.1h3.2c.5 0 1 .1 1.4-.2h2.3c.2 0 .5 0 .7.1.1 0 .2.1.3.1s.3 0 .4.1h.1c.1.2.2.3.3.5.6.8.7 1.6.5 2.5-.1.2-.1.4-.4.3-.1.3 0 .6-.1.8v.1h8.5c.3 0 .4-.1.4-.4v-14.7c-.2-.3-.2-.5-.2-.6zm-26.3-17.5c0 1-.3 1.9-.8 2.7a5.38 5.38 0 0 1-2.8 2.1c-.1 0-.2 0-.2.2-.3 0-.5 0-.8.1-.2.1-.5.1-.7 0-.2 0-.4-.1-.6-.1-1.2-.2-2.3-.8-3.1-1.8-.6-.7-.9-1.6-1.2-2.5-.1-.1-.2-.3-.1-.4s.1-.2.1-.3v-.7c.3-2.1 1.4-3.5 3.4-4.3.4-.2.9-.2 1.4-.3a1.1 1.1 0 0 1 .8 0c.6.1 1.2.2 1.8.5 1.6.8 2.5 2 2.8 3.7 0 .1 0 .2.1.3-.2.4-.1.6-.1.8zm7.1 8.2c0-.1-.1-.1-.2-.2-.2-.1-.4-.2-.5-.4-1-1-1.6-2.1-1.3-3.6.2-1.2.9-2.1 1.9-2.7a3.82 3.82 0 0 1 3.6 0c.1.1.2.2.4.1.1.2.3.4.5.5.9.9 1.3 2.1 1 3.4-.4 1.9-2.3 3.3-4.2 3-.4.1-.7 0-1.2-.1zm-11.3-27.2c-.1.1-.1.3-.1.4a30.04 30.04 0 0 1-1.5 5.9c-.9 2.7-2.1 5.2-3.6 7.6-1.7 2.8-3.8 5.3-6.2 7.6-.1.1-.2.2-.2.4s.1.4.2.5c.2.1.2.2.1.4 0 .5.2.9.1 1.3.1.2 0 .4-.1.5-.2.7-.5 1.4-1.1 1.9-1.7 1.4-3.7 1.3-5.2-.2-.1-.1-.2-.3-.4-.3 0-.1 0-.2-.1-.3-.6-.8-.6-1.8-.4-2.7.3-1.6 1.3-2.6 2.8-2.9s2.7.2 3.7 1.3c.1.1.1.2.3.2.2-.3.5-.6.8-.9.4-.4.8-.7 1.1-1.1 1.2-1.2 2.2-2.6 3.2-3.9.5-.6.9-1.3 1.3-2a41.56 41.56 0 0 0 2.4-4.7c.6-1.3 1-2.6 1.5-4l1-4.2c.1-.3.2-.6.1-.8h.3zm16.7 38c-.1 0-.3 0-.4.1 0 0 0-.1-.1-.1h-14.4c-.1 0-.3 0-.4.1l-.1-.1h-20.2c-.1-.1-.3-.1-.4-.1h-3.8c-.4 0-.4 0-.4-.4v-1.9c0-1.2.5-2.2 1.4-3 .6-.5 1.3-.9 2-1.2 2.5-1.1 5.1-1.4 7.7-.9l1.3.3c.4-.1.7-.4 1.1-.7 1.8-1.1 3.7-1.8 5.7-2.2.5-.1 1-.1 1.5-.3l.1-.1h.9c.9-.1 1.8 0 2.7.1s1.9.3 2.8.5c1 .3 2.1.6 3 1.1.7.3 1.4.8 2 1.2v.1c.1.2.2.2.4.2l2.5-.5s1.6-.1 2.3 0c1.4.1 2.8.4 4.1 1 1 .5 2 1.1 2.8 2 .5.6.7 1.3.7 2v2.1c0 .1 0 .3.1.4h.1-.3c-1.5.3-3.1.3-4.7.3z" fill="#32a162"/><path d="M680.7 256.3a.55.55 0 0 1 .3-.5l1.7-1.7 2.4-2.9 1.8-2.6c.9-1.5 1.8-3.1 2.5-4.7.6-1.3 1-2.5 1.5-3.8.3-.9.5-1.8.7-2.8l.5-2.7h.4c0 .5-.1 1-.2 1.6l-.9 3.8c-.4 1.4-.9 2.7-1.5 4l-1.8 3.6-2 3.1c-.9 1.3-2 2.6-3.1 3.8l-1.9 1.9c-.1.1-.2.2-.2.4-.2-.2-.2-.3-.2-.5z" fill="#30a060"/><path d="M695.9 234.1h3.5v.4h-25.2c0-.1.1-.3.1-.4h21.6z" fill="#cc9f30"/><path d="M696.6 253c.2.9 0 1.8-.4 2.7-.6 1.5-1.7 2.4-3.1 2.9-.1 0-.3 0-.4.1-.3 0-.6.1-.8.1h-.8c-1.4-.1-2.5-.6-3.5-1.6-.6-.6-1.1-1.4-1.2-2.3 0-.2-.1-.3-.1-.5-.2-.2.1-.5-.1-.7v-.3c.1-.1 0-.2 0-.4.1-.8.3-1.6.8-2.3.4-.6.8-1.1 1.4-1.4.7-.4 1.4-.8 2.2-.8.2 0 .3-.1.5-.1h.8c.8.1 1.6.3 2.3.8 1 .6 1.7 1.5 2.1 2.6.1.4.3.8.3 1.2z" fill="#f6f7f7"/><path d="M680.7 256.3c.1.1.1.2.2.3.1.2.1.3.2.5.1.1.2.1.1.3 0 .5.2 1 .1 1.5 0 .2 0 .3-.1.4-.3 1.1-.9 2-1.9 2.5-.8.4-1.6.6-2.5.4-1-.2-1.8-.7-2.4-1.5-.7-.9-.8-2-.6-3.1.3-1.4 1.2-2.3 2.5-2.8 1.5-.5 2.9-.1 4 1 .2.2.3.3.4.5z" fill="#6abb90"/><g fill="#30a060"><path d="M686.2 253.8c.1.2.1.5.1.7-.2-.1-.4-.2-.1-.4v-.3zm5.7-5.4h-.8c.2-.1.5-.1.8 0zm-10.6 10.9c0-.1 0-.3.1-.4.2.2.1.4-.1.4zm9.8-.4h.8a1.1 1.1 0 0 1-.8 0z"/><path d="M681.2 257.4c0-.1-.1-.2-.1-.3.1 0 .2 0 .2.1.1.1 0 .2-.1.2zm5-4.3v.4c0-.2-.1-.3 0-.4z"/></g><path d="M714.1 283.2c.1.1.1.3 0 .4v-.4z" fill="#1d9c59"/><g fill="#444"><use xlink:href="#E"/><path d="M71.6 40.6c.3-.3.6-.6 1-.7s.8-.3 1.2-.3.7.1 1.1.2.6.3.8.5.4.5.5.9.2.8.2 1.4v5.1h-1.8v-5.1c0-.5-.1-.9-.4-1.2-.2-.2-.6-.3-1-.3a1.69 1.69 0 0 0-1 .3c-.3.2-.5.4-.6.7v5.7h-1.8V36.4h1.8v4.2zm10.7.8h-.8c-.4 0-.8.1-1 .2s-.4.4-.5.6v5.4h-1.8v-7.9h1.7v.9c.2-.3.4-.6.7-.8a1.69 1.69 0 0 1 1-.3h.3c.1 0 .2 0 .3.1l.1 1.8z"/><use xlink:href="#F"/><use xlink:href="#G"/><path d="M108.3 47.8c-.6 0-1.1-.1-1.6-.3s-.9-.5-1.2-.8-.6-.7-.8-1.2-.3-1-.3-1.5v-.3c0-.6.1-1.2.3-1.7s.4-.9.8-1.3c.3-.4.7-.6 1.1-.8s.9-.3 1.4-.3c.6 0 1.1.1 1.5.3a4.44 4.44 0 0 1 1.1.8c.3.3.5.8.6 1.2a6.96 6.96 0 0 1 .2 1.6v.8h-5.2c0 .3.1.6.2.8.1.3.2.5.4.7s.4.3.6.4.5.2.8.2c.4 0 .8-.1 1.1-.3s.6-.4.8-.7l1 .9c-.1.2-.3.4-.5.6s-.4.3-.7.5c-.3.1-.5.3-.9.3 0 .1-.3.1-.7.1zm-.2-6.8c-.5 0-.9.2-1.2.5s-.5.8-.6 1.4h3.4v-.1c0-.2-.1-.5-.1-.7l-.3-.6c-.1-.2-.3-.3-.5-.4-.2 0-.4-.1-.7-.1zm11.7 2.8c0 .6-.1 1.1-.2 1.6s-.3.9-.6 1.3-.6.6-1 .8-.8.3-1.3.3-.9-.1-1.3-.3-.7-.4-.9-.7l-.1.9h-1.6V36.4h1.8v4.1c.2-.3.5-.5.9-.7s.7-.2 1.2-.2 1 .1 1.3.3c.4.2.7.5 1 .8.3.4.5.8.6 1.3s.2 1 .2 1.6v.2zm-1.8-.2c0-.3 0-.7-.1-1l-.3-.8c-.1-.2-.3-.4-.5-.6-.2-.1-.5-.2-.9-.2s-.8.1-1 .3c-.3.2-.5.4-.6.7v3.3c.1.3.3.6.6.7a1.69 1.69 0 0 0 1 .3c.3 0 .6-.1.8-.2s.4-.3.5-.5.2-.5.3-.8.1-.6.1-1v-.2z"/><use xlink:href="#H"/><use xlink:href="#F" x="46.6"/><path d="M140.9 44.3l-.8.8v2.6h-1.8V36.4h1.8v6.5l.6-.7 2.2-2.5h2.1l-2.9 3.3 3.3 4.6h-2.1l-2.4-3.3zm130.7-.3l1.6-8h1.8l-2.5 10.7h-1.8l-2-7.8-2.1 7.8H265L262.5 36h1.8l1.7 8 2-8h1.6l2 8zm4.7-7.3c0-.3.1-.5.3-.7s.4-.3.7-.3.6.1.7.3.3.4.3.7-.1.5-.3.7-.4.3-.7.3-.6-.1-.7-.3c-.2-.2-.3-.4-.3-.7zm1.9 10h-1.8v-7.9h1.8v7.9z"/><use xlink:href="#I"/><path d="M288.1 42.6c0-.6.1-1.1.2-1.6s.4-.9.6-1.3c.3-.4.6-.6 1-.8s.8-.3 1.3-.3c.4 0 .8.1 1.2.2.3.2.6.4.9.7v-4.1h1.8v11.3h-1.6l-.1-.8c-.3.3-.6.5-.9.7s-.8.3-1.2.3c-.5 0-.9-.1-1.3-.3s-.7-.5-1-.8-.5-.8-.6-1.3-.2-1-.2-1.6v-.3zm1.8.2c0 .4 0 .7.1 1l.3.8c.1.2.3.4.6.6s.5.2.8.2a1.69 1.69 0 0 0 1-.3c.3-.2.5-.4.6-.7V41c-.2-.3-.4-.5-.6-.7s-.6-.3-1-.3c-.3 0-.6.1-.8.2s-.4.3-.6.6-.3.5-.3.8c-.1.3-.1.7-.1 1v.2z"/><use xlink:href="#F" x="213.7" y="-1"/><path d="M312.4 44.2l1.3-5.5h1.7l-2.2 7.9h-1.5l-1.7-5.4-1.7 5.4H307l-2.2-7.9h1.7l1.3 5.4 1.6-5.4h1.3l1.7 5.5zm8.6.3c0-.1 0-.2-.1-.4 0-.1-.1-.2-.2-.3s-.3-.2-.5-.3-.5-.2-.9-.2l-1.2-.3c-.4-.1-.6-.3-.9-.5s-.4-.4-.6-.7c-.1-.3-.2-.5-.2-.9 0-.3.1-.6.2-.9s.3-.5.6-.8.6-.4 1-.5.8-.2 1.3-.2.9.1 1.3.2.7.3 1 .5.5.5.6.8.2.6.2 1H321c0-.2 0-.3-.1-.4s-.1-.3-.3-.4a1.38 1.38 0 0 1-.4-.3c-.2-.1-.4-.1-.6-.1s-.4 0-.6.1-.3.1-.4.2-.2.2-.2.3-.1.2-.1.4 0 .2.1.4.1.2.3.3c.1.1.3.2.5.2.2.1.5.1.8.2l1.2.3c.4.1.7.3.9.5.3.2.4.4.6.7s.2.6.2.9c0 .4-.1.7-.2 1s-.4.5-.6.8c-.3.2-.6.4-1 .5s-.8.2-1.3.2-1-.1-1.4-.2l-1.1-.6c-.3-.2-.5-.5-.6-.8s-.2-.6-.2-1h1.7c0 .2.1.4.2.6a.78.78 0 0 0 .4.4c.2.1.3.2.5.2s.4.1.6.1c.5 0 .8-.1 1.1-.3-.1-.2 0-.4 0-.7zM481.7 36l3.1 8.2 3.1-8.2h2.4v10.7h-1.8v-3.5l.2-4.7-3.1 8.2h-1.3l-3.1-8.2.2 4.7v3.5h-1.8V36h2.1zm15.2 10.7c0-.1-.1-.2-.1-.3s-.1-.3-.1-.4c-.1.1-.2.2-.4.3s-.3.2-.5.3-.4.1-.6.2c-.2 0-.4.1-.6.1-.4 0-.8-.1-1.1-.2s-.6-.3-.9-.5c-.2-.2-.4-.5-.6-.8s-.2-.6-.2-.9c0-.4.1-.8.2-1.1.2-.3.4-.6.7-.8s.7-.4 1.1-.5 1-.2 1.5-.2h1.1v-.5a1.69 1.69 0 0 0-.3-1 1.53 1.53 0 0 0-1-.4c-.2 0-.4 0-.6.1s-.3.1-.4.2l-.3.3c-.1.1-.1.3-.1.4h-1.8c0-.3.1-.6.2-.9.2-.3.4-.5.7-.8.3-.2.6-.4 1-.5s.9-.2 1.4-.2a4.3 4.3 0 0 1 1.2.2c.4.1.7.3 1 .5s.5.5.6.8c.2.3.2.7.2 1.2v3.5c0 .7.1 1.3.3 1.7v.1h-1.6zm-1.9-1.3c.2 0 .4 0 .6-.1s.3-.1.5-.2c.1-.1.3-.2.4-.3l.3-.3V43h-1c-.7 0-1.2.1-1.5.3s-.5.6-.5 1c0 .2 0 .3.1.4s.1.3.2.4.2.2.4.2c.1.1.3.1.5.1zm8.6 0c.2 0 .4 0 .6-.1s.4-.2.5-.3.3-.3.3-.4c.1-.2.1-.3.1-.5h1.7c0 .4-.1.7-.3 1.1-.2.3-.4.6-.7.9s-.6.4-1 .6c-.4.1-.8.2-1.2.2-.6 0-1.1-.1-1.6-.3s-.8-.5-1.1-.9-.5-.8-.7-1.3-.2-1-.2-1.5v-.3c0-.5.1-1.1.2-1.5s.4-.9.7-1.3.7-.7 1.1-.9 1-.3 1.6-.3c.5 0 .9.1 1.3.2s.7.4 1 .6.5.6.7.9.2.8.3 1.2h-1.7c0-.2-.1-.4-.1-.6-.1-.2-.2-.4-.3-.5s-.3-.3-.5-.3c-.2-.1-.4-.1-.6-.1-.4 0-.7.1-.9.2s-.4.3-.6.6-.2.5-.3.8-.1.6-.1.9v.3c0 .3 0 .6.1.9s.1.6.3.8.3.4.6.6c.1.2.4.3.8.3z"/><use xlink:href="#J"/><path d="M680.6 42.4v4h-1.9V35.7h4.1c.6 0 1.2.1 1.7.3s.9.4 1.2.7a4.44 4.44 0 0 1 .8 1.1c.2.4.3.9.3 1.4s-.1 1-.3 1.4-.4.8-.8 1-.7.5-1.2.7-1 .2-1.7.2h-2.2zm0-1.5h2.2c.4 0 .7 0 .9-.1.3-.1.5-.2.6-.4s.3-.4.4-.6.1-.5.1-.7 0-.5-.1-.7-.2-.4-.4-.6-.4-.3-.6-.4c-.3-.1-.6-.2-.9-.2h-2.2v3.7zm12.2 5.4c0-.1-.1-.2-.1-.3s-.1-.3-.1-.4c-.1.1-.2.2-.4.3-.1.1-.3.2-.5.3s-.4.1-.6.2c-.2 0-.4.1-.6.1-.4 0-.8-.1-1.1-.2s-.6-.3-.9-.5c-.2-.2-.4-.5-.6-.8-.1-.3-.2-.6-.2-.9 0-.4.1-.8.2-1.1s.4-.6.7-.8.7-.4 1.1-.5 1-.2 1.5-.2h1.1V41a1.69 1.69 0 0 0-.3-1 1.53 1.53 0 0 0-1-.4c-.2 0-.4 0-.6.1s-.3.1-.4.2l-.3.3c-.1.1-.1.3-.1.4H688c0-.3.1-.6.2-.9.2-.3.4-.5.7-.8.3-.2.6-.4 1-.5s.9-.2 1.4-.2a4.3 4.3 0 0 1 1.2.2c.4.1.7.3 1 .5s.5.5.6.8c.2.3.2.7.2 1.2v3.5c0 .7.1 1.3.3 1.7v.1h-1.8zm-1.9-1.2c.2 0 .4 0 .6-.1s.3-.1.5-.2c.1-.1.3-.2.4-.3l.3-.3v-1.5h-1c-.7 0-1.2.1-1.5.3s-.5.6-.5 1c0 .2 0 .3.1.4s.1.3.2.4.2.2.4.2c.1 0 .3.1.5.1zm5-2.8c0-.6.1-1.1.2-1.6s.4-.9.6-1.3c.3-.4.6-.6 1-.8s.8-.3 1.3-.3c.4 0 .8.1 1.2.2.3.2.6.4.9.7v-4.1h1.8v11.3h-1.6l-.1-.8c-.3.3-.6.5-.9.7s-.8.3-1.2.3c-.5 0-.9-.1-1.3-.3s-.7-.5-1-.8-.5-.8-.6-1.3-.2-1-.2-1.6v-.3zm1.7.2c0 .4 0 .7.1 1l.3.8c.1.2.3.4.6.6s.5.2.8.2a1.69 1.69 0 0 0 1-.3c.3-.2.5-.4.6-.7v-3.4c-.2-.3-.4-.5-.6-.7s-.6-.3-1-.3c-.3 0-.6.1-.8.2s-.4.3-.6.6c-.1.2-.3.5-.3.8-.1.3-.1.7-.1 1v.2z"/><use xlink:href="#E" x="-8.7" y="159.3"/><path d="M60.9 203c0-.6.1-1.1.3-1.6s.4-.9.7-1.3.7-.6 1.2-.8 1-.3 1.5-.3c.6 0 1.1.1 1.6.3s.8.5 1.2.8c.3.4.6.8.7 1.3.2.5.2 1 .2 1.6v.2c0 .6-.1 1.1-.2 1.6s-.4.9-.7 1.3-.7.6-1.2.8-1 .3-1.5.3c-.6 0-1.1-.1-1.6-.3s-.8-.5-1.2-.8c-.3-.4-.6-.8-.7-1.3-.2-.5-.3-1-.3-1.6v-.2zm1.8.1c0 .4 0 .7.1 1l.3.8.6.6c.2.1.5.2.9.2.3 0 .6-.1.9-.2.2-.1.4-.3.6-.6.2-.2.3-.5.3-.8s.1-.7.1-1v-.1c0-.4 0-.7-.1-1l-.3-.8-.6-.6c-.2-.1-.5-.2-.9-.2s-.6.1-.9.2c-.2.1-.4.3-.6.6-.2.2-.3.5-.3.8-.1.3-.1.6-.1 1v.1z"/><use xlink:href="#G" x="-22" y="159.4"/><path d="M89.7 203.1c0 .6-.1 1.1-.2 1.6s-.3.9-.6 1.3-.6.6-1 .8-.8.3-1.3.3a3.73 3.73 0 0 1-1.2-.2c-.3-.1-.6-.4-.9-.6v3.8h-1.8v-11h1.6l.1.8c.3-.3.6-.5.9-.7s.8-.2 1.2-.2c.5 0 .9.1 1.3.3s.7.5 1 .8.5.8.6 1.3.2 1 .2 1.6v.1zM88 203c0-.4 0-.7-.1-1l-.3-.8c-.1-.2-.3-.4-.6-.6s-.5-.2-.8-.2c-.4 0-.7.1-1 .2s-.5.4-.6.7v3.5c.1.3.3.5.6.7a1.69 1.69 0 0 0 1 .3c.3 0 .6-.1.8-.2s.4-.3.6-.6.3-.5.3-.8.1-.7.1-1v-.2zm8 3.2c-.2.3-.6.5-.9.7s-.8.2-1.3.2c-.4 0-.7-.1-1.1-.2-.3-.1-.6-.3-.8-.5s-.4-.5-.5-.9-.2-.8-.2-1.3v-5.1H93v5.1c0 .3 0 .5.1.7s.2.3.3.5c.1.1.2.2.4.2s.3.1.5.1c.5 0 .8-.1 1.1-.2s.5-.4.6-.7v-5.7h1.8v7.9h-1.7l-.1-.8zm5.8-9.1v1.9h1.4v1.3h-1.4v4.4c0 .2 0 .3.1.4s.1.2.2.3.2.1.3.1h1v1.4c-.1 0-.3.1-.5.1s-.4.1-.7.1-.6 0-.8-.1c-.3-.1-.5-.2-.7-.4s-.3-.4-.4-.7-.2-.6-.2-1v-4.5h-1.3v-1.3h1.3v-1.9h1.7zm6.3 10c-.6 0-1.1-.1-1.6-.3s-.9-.5-1.2-.8-.6-.7-.8-1.2-.3-1-.3-1.5v-.3c0-.6.1-1.2.3-1.7s.4-.9.8-1.3c.3-.4.7-.6 1.1-.8s.9-.3 1.4-.3c.6 0 1.1.1 1.5.3a4.44 4.44 0 0 1 1.1.8c.3.3.5.8.6 1.2a6.96 6.96 0 0 1 .2 1.6v.8H106c0 .3.1.6.2.8.1.3.2.5.4.7s.4.3.6.4.5.2.8.2c.4 0 .8-.1 1.1-.3s.6-.4.8-.7l1 .9c-.1.2-.3.4-.5.6s-.4.3-.7.5c-.3.1-.5.3-.9.3 0 .1-.4.1-.7.1zm-.3-6.7c-.5 0-.9.2-1.2.5s-.5.8-.6 1.4h3.4v-.1c0-.2-.1-.5-.1-.7l-.3-.6c-.1-.2-.3-.3-.5-.4-.1-.1-.4-.1-.7-.1z"/><use xlink:href="#K"/><path d="M123.6 205.5h4.8v1.5h-6.7v-10.7h1.9v9.2zm10.9 1.5c0-.1-.1-.2-.1-.3s-.1-.3-.1-.4c-.1.1-.2.2-.4.3s-.3.2-.5.3-.4.1-.6.2c-.2 0-.4.1-.6.1-.4 0-.8-.1-1.1-.2s-.6-.3-.9-.5c-.2-.2-.4-.5-.6-.8s-.2-.6-.2-.9c0-.4.1-.8.2-1.1s.4-.6.7-.8.7-.4 1.1-.5 1-.2 1.5-.2h1.1v-.5a1.69 1.69 0 0 0-.3-1 1.53 1.53 0 0 0-1-.4c-.2 0-.4 0-.6.1s-.3.1-.4.2l-.3.3c-.1.1-.1.3-.1.4h-1.8c0-.3.1-.6.2-.9.2-.3.4-.5.7-.8.3-.2.6-.4 1-.5s.9-.2 1.4-.2a4.3 4.3 0 0 1 1.2.2c.4.1.7.3 1 .5s.5.5.6.8c.2.3.2.7.2 1.2v3.5c0 .7.1 1.3.3 1.7v.1h-1.6zm-2-1.3c.2 0 .4 0 .6-.1s.3-.1.5-.2c.1-.1.3-.2.4-.3l.3-.3v-1.5h-1c-.7 0-1.2.1-1.5.3s-.5.6-.5 1c0 .2 0 .3.1.4s.1.3.2.4.2.2.4.2c.1.1.3.1.5.1zm12.3-2.6c0 .6-.1 1.1-.2 1.6s-.3.9-.6 1.3-.6.6-1 .8-.8.3-1.3.3-.9-.1-1.3-.3-.7-.4-.9-.7l-.1.9h-1.6v-11.3h1.8v4.1c.2-.3.5-.5.9-.7s.7-.2 1.2-.2 1 .1 1.3.3c.4.2.7.5 1 .8.3.4.5.8.6 1.3s.2 1 .2 1.6v.2zm-1.8-.1c0-.3 0-.7-.1-1l-.3-.8c-.1-.2-.3-.4-.5-.6-.2-.1-.5-.2-.9-.2s-.8.1-1 .3c-.3.2-.5.4-.6.7v3.3c.1.3.3.6.6.7a1.69 1.69 0 0 0 1 .3c.3 0 .6-.1.8-.2s.4-.3.5-.5.2-.5.3-.8.1-.6.1-1v-.2zm7.7 1.8c0-.1 0-.2-.1-.4 0-.1-.1-.2-.2-.3s-.3-.2-.5-.3-.5-.2-.9-.2l-1.2-.3c-.4-.1-.6-.3-.9-.5s-.4-.4-.6-.7c-.1-.3-.2-.5-.2-.9 0-.3.1-.6.2-.9s.3-.5.6-.8.6-.4 1-.5.8-.2 1.3-.2.9.1 1.3.2.7.3 1 .5.5.5.6.8.2.6.2 1h-1.8c0-.2 0-.3-.1-.4s-.1-.3-.3-.4-.3-.2-.4-.3c-.2-.1-.4-.1-.6-.1s-.4 0-.6.1-.3.1-.4.2-.2.2-.2.3-.1.2-.1.4 0 .2.1.4.1.2.3.3c.1.1.3.2.5.2.2.1.5.1.8.2l1.2.3c.4.1.7.3.9.5.3.2.4.4.6.7s.2.6.2.9c0 .4-.1.7-.2 1s-.4.5-.6.8c-.3.2-.6.4-1 .5s-.8.2-1.3.2-1-.1-1.4-.2l-1.1-.6c-.3-.2-.5-.5-.6-.8s-.2-.6-.2-1h1.7c0 .2.1.4.2.6a.78.78 0 0 0 .4.4c.2.1.3.2.5.2s.4.1.6.1c.5 0 .8-.1 1.1-.3.1-.1.2-.4.2-.7zm129-4.5H278v-8.6l-2.6.9v-1.5l4.2-1.5h.2v10.7zm3.9-7.1c0-.3.1-.5.3-.7s.4-.3.8-.3c.3 0 .6.1.8.3s.3.4.3.7-.1.5-.3.7-.4.3-.8.3c-.2 0-.3 0-.4-.1s-.2-.1-.3-.2-.2-.2-.2-.3-.2-.2-.2-.4zm0 6.2c0-.3.1-.5.3-.7s.4-.3.8-.3c.3 0 .6.1.8.3s.3.4.3.7-.1.5-.3.7-.4.3-.8.3c-.2 0-.3 0-.4-.1s-.2-.1-.3-.2-.2-.2-.2-.3-.2-.2-.2-.4zm8.6.9h-1.8v-8.6l-2.6.9v-1.5l4.2-1.5h.2v10.7zm12.3 0c0-.1-.1-.2-.1-.3s-.1-.3-.1-.4c-.1.1-.2.2-.4.3s-.3.2-.5.3-.4.1-.6.2c-.2 0-.4.1-.6.1-.4 0-.8-.1-1.1-.2s-.6-.3-.9-.5c-.2-.2-.4-.5-.6-.8s-.2-.6-.2-.9c0-.4.1-.8.2-1.1s.4-.6.7-.8.7-.4 1.1-.5 1-.2 1.5-.2h1.1v-.5a1.69 1.69 0 0 0-.3-1 1.53 1.53 0 0 0-1-.4c-.2 0-.4 0-.6.1s-.3.1-.4.2l-.3.3c-.1.1-.1.3-.1.4h-1.8c0-.3.1-.6.2-.9.2-.3.4-.5.7-.8.3-.2.6-.4 1-.5s.9-.2 1.4-.2a4.3 4.3 0 0 1 1.2.2c.4.1.7.3 1 .5s.5.5.6.8c.2.3.2.7.2 1.2v3.5c0 .7.1 1.3.3 1.7v.1h-1.6zm-1.9-1.2c.2 0 .4 0 .6-.1s.3-.1.5-.2c.1-.1.3-.2.4-.3l.3-.3v-1.5h-1c-.7 0-1.2.1-1.5.3s-.5.6-.5 1c0 .2 0 .3.1.4s.1.3.2.4.2.2.4.2c.1 0 .3.1.5.1z"/><use xlink:href="#I" x="27.8" y="153.7"/><path d="M315.9 196.3c0-.6.1-1.1.2-1.6s.4-.9.6-1.3c.3-.4.6-.6 1-.8s.8-.3 1.3-.3c.4 0 .8.1 1.2.2.3.2.6.4.9.7v-4.1h1.8v11.3h-1.6l-.1-.8c-.3.3-.6.5-.9.7s-.8.3-1.2.3c-.5 0-.9-.1-1.3-.3s-.7-.5-1-.8-.5-.8-.6-1.3-.2-1-.2-1.6v-.3zm1.8.2c0 .4 0 .7.1 1l.3.8c.1.2.3.4.6.6s.5.2.8.2a1.69 1.69 0 0 0 1-.3c.3-.2.5-.4.6-.7v-3.4c-.2-.3-.4-.5-.6-.7s-.6-.3-1-.3c-.3 0-.6.1-.8.2s-.4.3-.6.6-.3.5-.3.8c-.1.3-.1.7-.1 1v.2zm-89.6 17.8v-10.7h3.7c.6 0 1.1.1 1.6.2s.8.3 1.2.5a1.27 1.27 0 0 1 .7.9c.2.4.3.8.3 1.3s-.1.9-.4 1.3-.6.7-1.2.9c.3.1.6.2.8.4s.4.3.6.6c.1.2.3.5.3.7s.1.5.1.8c0 .5-.1 1-.3 1.4s-.4.7-.7 1-.7.5-1.2.6-1 .2-1.5.2h-4zm1.9-6.1h1.8c.6 0 1-.1 1.4-.4.3-.3.5-.6.5-1.1s-.2-.9-.5-1.1-.8-.4-1.4-.4H230v3zm0 1.3v3.3h2.1c.3 0 .6 0 .8-.1l.6-.3c.2-.1.3-.3.4-.5s.1-.4.1-.7c0-.5-.1-.9-.4-1.2s-.7-.5-1.4-.5H230z"/><use xlink:href="#K" x="124.8" y="7.3"/><use xlink:href="#J" x="-432" y="168"/><use xlink:href="#I" x="-33.6" y="167.7"/><path d="M254.6 210.3c0-.6.1-1.1.2-1.6s.4-.9.6-1.3c.3-.4.6-.6 1-.8s.8-.3 1.3-.3a3.73 3.73 0 0 1 1.2.2c.3.2.6.4.9.7l.1-.8h1.6v7.7c0 .5-.1 1-.3 1.4s-.4.8-.7 1c-.3.3-.7.5-1.1.6s-.9.2-1.5.2c-.2 0-.5 0-.7-.1-.3 0-.5-.1-.8-.2s-.5-.2-.8-.4-.5-.4-.6-.6l.8-1.1c.3.3.6.6 1 .7.3.2.7.2 1.1.2.6 0 1.1-.2 1.4-.5s.5-.8.5-1.4v-.5c-.2.3-.5.5-.9.6s-.7.2-1.2.2-.9-.1-1.3-.3-.7-.5-1-.8c-.3-.4-.5-.8-.6-1.3s-.2-1-.2-1.6v.1zm1.7.2c0 .4 0 .7.1 1l.3.8c.1.2.3.4.6.6s.5.2.8.2a1.69 1.69 0 0 0 1-.3c.3-.2.5-.4.6-.7v-3.5c-.2-.3-.4-.5-.6-.7-.3-.2-.6-.2-1-.2-.3 0-.6.1-.8.2s-.4.3-.6.6c-.1.2-.3.5-.3.8-.1.3-.1.7-.1 1v.2zm13.6 1.3l1.6-5.4h1.9l-3.1 9.1-.3.6c-.1.2-.3.4-.5.6s-.4.4-.7.5-.6.2-1 .2h-.5c-.1 0-.3-.1-.4-.1V216h.4c.2 0 .4 0 .6-.1.2 0 .3-.1.4-.2l.3-.3c.1-.1.2-.3.2-.5l.3-.7-2.8-7.9h1.9l1.7 5.5z"/><use xlink:href="#F" x="191.1" y="166.7"/><path d="M287.6 213.6c-.2.3-.6.5-.9.7s-.8.2-1.3.2c-.4 0-.7-.1-1.1-.2-.3-.1-.6-.3-.8-.5s-.4-.5-.5-.9-.2-.8-.2-1.3v-5.1h1.8v5.1c0 .3 0 .5.1.7s.2.3.3.5c.1.1.2.2.4.2s.3.1.5.1c.5 0 .8-.1 1.1-.2s.5-.4.6-.7v-5.7h1.8v7.9h-1.7l-.1-.8z"/><use xlink:href="#K" x="178.5" y="7.3"/><use xlink:href="#H" x="178.9" y="166.7"/><path d="M315.7 211.9l1.3-5.5h1.7l-2.2 7.9H315l-1.7-5.4-1.7 5.4h-1.5l-2.2-7.9h1.7l1.3 5.4 1.6-5.4h1.3l1.9 5.5z"/><use xlink:href="#I" x="39.7" y="167.7"/><path d="M331.6 210.3c0-.6.1-1.1.2-1.6s.4-.9.6-1.3c.3-.4.6-.6 1-.8s.8-.3 1.3-.3c.4 0 .8.1 1.2.2.3.2.6.4.9.7v-4.1h1.8v11.3H337l-.1-.8c-.3.3-.6.5-.9.7s-.8.3-1.2.3c-.5 0-.9-.1-1.3-.3s-.7-.5-1-.8-.5-.8-.6-1.3-.2-1-.2-1.6v-.3zm1.8.2c0 .4 0 .7.1 1l.3.8c.1.2.3.4.6.6s.5.2.8.2a1.69 1.69 0 0 0 1-.3c.3-.2.5-.4.6-.7v-3.4c-.2-.3-.4-.5-.6-.7s-.6-.3-1-.3c-.3 0-.6.1-.8.2s-.4.3-.6.6-.3.5-.3.8c-.1.3-.1.7-.1 1v.2zm10.5 4c-.6 0-1.1-.1-1.6-.3s-.9-.5-1.2-.8-.6-.7-.8-1.2-.3-1-.3-1.5v-.3c0-.6.1-1.2.3-1.7s.4-.9.8-1.3c.3-.4.7-.6 1.1-.8s.9-.3 1.4-.3c.6 0 1.1.1 1.5.3a4.44 4.44 0 0 1 1.1.8c.3.3.5.8.6 1.2a6.96 6.96 0 0 1 .2 1.6v.8h-5.2c0 .3.1.6.2.8.1.3.2.5.4.7s.4.3.6.4.5.2.8.2c.4 0 .8-.1 1.1-.3s.6-.4.8-.7l1 .9c-.1.2-.3.4-.5.6s-.4.3-.7.5c-.3.1-.5.3-.9.3.1 0-.3.1-.7.1zm-.2-6.8c-.5 0-.9.2-1.2.5s-.5.8-.6 1.4h3.4v-.1c0-.2-.1-.5-.1-.7l-.3-.6c-.1-.2-.3-.3-.5-.4s-.4-.1-.7-.1zm7.5 4.4l1.7-5.7h1.8l-2.7 7.9h-1.5l-2.8-7.9h1.8l1.7 5.7z"/><use xlink:href="#J" x="-318.9" y="168"/><path d="M362.9 213.1c.2 0 .4 0 .6-.1s.4-.2.5-.3.3-.3.3-.4c.1-.2.1-.3.1-.5h1.7c0 .4-.1.7-.3 1.1-.2.3-.4.6-.7.9s-.6.4-1 .6c-.4.1-.8.2-1.2.2-.6 0-1.1-.1-1.6-.3s-.8-.5-1.1-.9-.5-.8-.7-1.3-.2-1-.2-1.5v-.3c0-.5.1-1.1.2-1.5s.4-.9.7-1.3.7-.7 1.1-.9 1-.3 1.6-.3c.5 0 .9.1 1.3.2s.7.4 1 .6c.3.3.5.6.7.9.2.4.2.8.3 1.2h-1.7c0-.2-.1-.4-.1-.6-.1-.2-.2-.4-.3-.5s-.3-.3-.5-.3-.4-.1-.6-.1c-.4 0-.7.1-.9.2s-.4.3-.6.6-.2.5-.3.8-.1.6-.1.9v.3c0 .3 0 .6.1.9s.1.6.3.8.3.4.6.6c.1.2.4.3.8.3zm8.1 1.4c-.6 0-1.1-.1-1.6-.3s-.9-.5-1.2-.8-.6-.7-.8-1.2-.3-1-.3-1.5v-.3c0-.6.1-1.2.3-1.7s.4-.9.8-1.3c.3-.4.7-.6 1.1-.8s.9-.3 1.4-.3c.6 0 1.1.1 1.5.3a4.44 4.44 0 0 1 1.1.8c.3.3.5.8.6 1.2a6.96 6.96 0 0 1 .2 1.6v.8H369c0 .3.1.6.2.8.1.3.2.5.4.7s.4.3.6.4.5.2.8.2c.4 0 .8-.1 1.1-.3s.6-.4.8-.7l1 .9c-.1.2-.3.4-.5.6s-.4.3-.7.5c-.3.1-.5.3-.9.3-.1 0-.4.1-.8.1zm-.2-6.8c-.5 0-.9.2-1.2.5s-.5.8-.6 1.4h3.4v-.1c0-.2-.1-.5-.1-.7l-.3-.6c-.1-.2-.3-.3-.5-.4s-.5-.1-.7-.1z"/><use xlink:href="#E" x="412.3" y="159.3"/><path d="M484.1 207h-1.8v-11.3h1.8V207zm5.4.1c-.6 0-1.1-.1-1.6-.3s-.9-.5-1.2-.8-.6-.7-.8-1.2-.3-1-.3-1.5v-.3c0-.6.1-1.2.3-1.7s.4-.9.8-1.3c.3-.4.7-.6 1.1-.8s.9-.3 1.4-.3c.6 0 1.1.1 1.5.3a4.44 4.44 0 0 1 1.1.8c.3.3.5.8.6 1.2a6.96 6.96 0 0 1 .2 1.6v.8h-5.2c0 .3.1.6.2.8.1.3.2.5.4.7s.4.3.6.4.5.2.8.2c.4 0 .8-.1 1.1-.3s.6-.4.8-.7l1 .9c-.1.2-.3.4-.5.6s-.4.3-.7.5c-.3.1-.5.3-.9.3.1.1-.3.1-.7.1zm-.2-6.7c-.5 0-.9.2-1.2.5s-.5.8-.6 1.4h3.4v-.1c0-.2-.1-.5-.1-.7l-.3-.6c-.1-.2-.3-.3-.5-.4-.1-.1-.4-.1-.7-.1zm7.5 4.3l1.7-5.7h1.8l-2.7 7.9H496l-2.8-7.9h1.8l1.8 5.7zm8 2.4c-.6 0-1.1-.1-1.6-.3s-.9-.5-1.2-.8-.6-.7-.8-1.2-.3-1-.3-1.5v-.3c0-.6.1-1.2.3-1.7s.4-.9.8-1.3c.3-.4.7-.6 1.1-.8s.9-.3 1.4-.3c.6 0 1.1.1 1.5.3a4.44 4.44 0 0 1 1.1.8c.3.3.5.8.6 1.2a6.96 6.96 0 0 1 .2 1.6v.8h-5.2c0 .3.1.6.2.8.1.3.2.5.4.7s.4.3.6.4.5.2.8.2c.4 0 .8-.1 1.1-.3s.6-.4.8-.7l1 .9c-.1.2-.3.4-.5.6s-.4.3-.7.5c-.3.1-.5.3-.9.3.1.1-.3.1-.7.1zm-.2-6.7c-.5 0-.9.2-1.2.5s-.5.8-.6 1.4h3.4v-.1c0-.2-.1-.5-.1-.7l-.3-.6c-.1-.2-.3-.3-.5-.4s-.4-.1-.7-.1z"/><use xlink:href="#K" x="396.7"/><path d="M637.1 204.9l-.5.5c-.2.2-.5.3-.8.5s-.7.3-1.1.4a6.96 6.96 0 0 1-1.6.2c-.7 0-1.3-.1-1.8-.3-.6-.2-1-.6-1.4-1s-.7-1-.9-1.6-.3-1.4-.3-2.2v-.7c0-.8.1-1.5.3-2.2.2-.6.5-1.2.9-1.6s.8-.8 1.4-1 1.2-.3 1.8-.3 1.2.1 1.7.3.9.4 1.2.7a4.44 4.44 0 0 1 .8 1.1c.2.4.3.9.4 1.4h-1.8c0-.3-.1-.5-.2-.8s-.2-.4-.4-.6-.4-.3-.7-.4-.6-.1-.9-.1c-.4 0-.8.1-1.1.2-.3.2-.6.4-.8.7s-.4.7-.5 1.1c-.1.5-.2 1-.2 1.5v.7c0 .6.1 1.1.2 1.6s.3.8.5 1.1.5.5.9.7c.3.2.7.2 1.2.2.3 0 .6 0 .8-.1.2 0 .4-.1.6-.2s.3-.1.4-.2.2-.1.2-.2v-2.1H633v-1.4h4v4.1z"/><use xlink:href="#L"/><use xlink:href="#M"/><path d="M655.7 202.3c0-.6.1-1.1.2-1.6s.4-.9.6-1.3c.3-.4.6-.6 1-.8s.8-.3 1.3-.3a3.73 3.73 0 0 1 1.2.2c.3.2.6.4.9.7l.1-.8h1.6v7.7c0 .5-.1 1-.3 1.4s-.4.8-.7 1c-.3.3-.7.5-1.1.6s-.9.2-1.5.2c-.2 0-.5 0-.7-.1-.3 0-.5-.1-.8-.2s-.5-.2-.8-.4-.5-.4-.6-.6l.8-1.1c.3.3.6.6 1 .7.3.2.7.2 1.1.2.6 0 1.1-.2 1.4-.5s.5-.8.5-1.4v-.5c-.2.3-.5.5-.9.6s-.7.2-1.2.2-.9-.1-1.3-.3-.7-.5-1-.8c-.3-.4-.5-.8-.6-1.3s-.2-1-.2-1.6v.1zm1.8.2c0 .4 0 .7.1 1l.3.8c.1.2.3.4.6.6s.5.2.8.2a1.69 1.69 0 0 0 1-.3c.3-.2.5-.4.6-.7v-3.5c-.2-.3-.4-.5-.6-.7-.3-.2-.6-.2-1-.2-.3 0-.6.1-.8.2s-.4.3-.6.6c-.1.2-.3.5-.3.8-.1.3-.1.7-.1 1v.2zm8.9 3.8h-1.8V195h1.8v11.3zm5.5.2c-.6 0-1.1-.1-1.6-.3s-.9-.5-1.2-.8-.6-.7-.8-1.2-.3-1-.3-1.5v-.3c0-.6.1-1.2.3-1.7s.4-.9.8-1.3c.3-.4.7-.6 1.1-.8s.9-.3 1.4-.3c.6 0 1.1.1 1.5.3a4.44 4.44 0 0 1 1.1.8c.3.3.5.8.6 1.2a6.96 6.96 0 0 1 .2 1.6v.8h-5.2c0 .3.1.6.2.8.1.3.2.5.4.7s.4.3.6.4.5.2.8.2c.4 0 .8-.1 1.1-.3s.6-.4.8-.7l1 .9c-.1.2-.3.4-.5.6s-.4.3-.7.5c-.3.1-.5.3-.9.3 0 0-.3.1-.7.1zm-.3-6.8c-.5 0-.9.2-1.2.5s-.5.8-.6 1.4h3.4v-.1c0-.2-.1-.5-.1-.7l-.3-.6c-.1-.2-.3-.3-.5-.4-.1-.1-.4-.1-.7-.1z"/><use xlink:href="#E" x="620.1" y="158.7"/><path d="M691.8 206.3H690V195h1.8v11.3zm6.7 0c0-.1-.1-.2-.1-.3s-.1-.3-.1-.4c-.1.1-.2.2-.4.3-.1.1-.3.2-.5.3s-.4.1-.6.2c-.2 0-.4.1-.6.1-.4 0-.8-.1-1.1-.2s-.6-.3-.9-.5c-.2-.2-.4-.5-.6-.8-.1-.3-.2-.6-.2-.9 0-.4.1-.8.2-1.1s.4-.6.7-.8.7-.4 1.1-.5 1-.2 1.5-.2h1.1v-.5a1.69 1.69 0 0 0-.3-1 1.53 1.53 0 0 0-1-.4c-.2 0-.4 0-.6.1s-.3.1-.4.2l-.3.3c-.1.1-.1.3-.1.4h-1.8c0-.3.1-.6.2-.9.2-.3.4-.5.7-.8.3-.2.6-.4 1-.5s.9-.2 1.4-.2a4.3 4.3 0 0 1 1.2.2c.4.1.7.3 1 .5s.5.5.6.8c.2.3.2.7.2 1.2v3.5c0 .7.1 1.3.3 1.7v.1h-1.6zm-1.9-1.2c.2 0 .4 0 .6-.1s.3-.1.5-.2c.1-.1.3-.2.4-.3l.3-.3v-1.5h-1c-.7 0-1.2.1-1.5.3s-.5.6-.5 1c0 .2 0 .3.1.4s.1.3.2.4.2.2.4.2c.1 0 .3.1.5.1zm9.7-.9c0-.1 0-.2-.1-.4 0-.1-.1-.2-.2-.3s-.3-.2-.5-.3-.5-.2-.9-.2l-1.2-.3c-.3-.1-.6-.3-.9-.5s-.4-.4-.6-.7c-.1-.3-.2-.5-.2-.9 0-.3.1-.6.2-.9s.3-.5.6-.8c.3-.2.6-.4 1-.5s.8-.2 1.3-.2.9.1 1.3.2.7.3 1 .5.5.5.6.8.2.6.2 1h-1.8c0-.2 0-.3-.1-.4s-.1-.3-.3-.4a1.38 1.38 0 0 1-.4-.3c-.2-.1-.4-.1-.6-.1s-.4 0-.6.1-.3.1-.4.2-.2.2-.2.3-.1.2-.1.4 0 .2.1.4.1.2.3.3c.1.1.3.2.5.2.2.1.5.1.8.2l1.2.3c.4.1.7.3.9.5.3.2.4.4.6.7s.2.6.2.9c0 .4-.1.7-.2 1s-.4.5-.6.8c-.3.2-.6.4-1 .5s-.8.2-1.3.2-1-.1-1.4-.2l-1.1-.6c-.3-.2-.5-.5-.6-.8s-.2-.6-.2-1h1.7c0 .2.1.4.2.6a.78.78 0 0 0 .4.4c.2.1.3.2.5.2s.4.1.6.1c.5 0 .8-.1 1.1-.3.1-.2.2-.4.2-.7zm7.8 0c0-.1 0-.2-.1-.4 0-.1-.1-.2-.2-.3s-.3-.2-.5-.3-.5-.2-.9-.2l-1.2-.3c-.3-.1-.6-.3-.9-.5s-.4-.4-.6-.7c-.1-.3-.2-.5-.2-.9 0-.3.1-.6.2-.9s.3-.5.6-.8c.3-.2.6-.4 1-.5s.8-.2 1.3-.2.9.1 1.3.2.7.3 1 .5.5.5.6.8.2.6.2 1H714c0-.2 0-.3-.1-.4s-.1-.3-.3-.4a1.38 1.38 0 0 1-.4-.3c-.2-.1-.4-.1-.6-.1s-.4 0-.6.1-.3.1-.4.2-.2.2-.2.3-.1.2-.1.4 0 .2.1.4.1.2.3.3c.1.1.3.2.5.2.2.1.5.1.8.2l1.2.3c.4.1.7.3.9.5.3.2.4.4.6.7s.2.6.2.9c0 .4-.1.7-.2 1s-.4.5-.6.8c-.3.2-.6.4-1 .5s-.8.2-1.3.2-1-.1-1.4-.2l-1.1-.6c-.3-.2-.5-.5-.6-.8s-.2-.6-.2-1h1.7c0 .2.1.4.2.6a.78.78 0 0 0 .4.4c.2.1.3.2.5.2s.4.1.6.1c.5 0 .8-.1 1.1-.3 0-.2.1-.4.1-.7z"/><use xlink:href="#K" x="604.7" y="-0.7"/><use xlink:href="#M" x="74.9"/><use xlink:href="#L" x="92"/><path d="M741.1 198.4l.1.8c.3-.3.6-.5 1-.7s.8-.3 1.3-.3.9.1 1.3.3a1.96 1.96 0 0 1 .9.9c.3-.4.6-.7 1-.9s.9-.3 1.4-.3c.4 0 .8.1 1.1.2s.6.3.8.5.4.5.5.9.2.8.2 1.3v5.1h-1.8v-5.1c0-.3 0-.5-.1-.7s-.2-.3-.3-.5a.76.76 0 0 0-.4-.2c-.2 0-.4-.1-.6-.1a1.69 1.69 0 0 0-1 .3c-.3.2-.4.5-.5.9v5.5h-1.8v-5.1c0-.3 0-.5-.1-.7s-.2-.3-.3-.5c-.1-.1-.3-.2-.5-.3s-.4-.1-.6-.1c-.4 0-.7.1-.9.2l-.6.6v5.7h-1.8v-7.9h1.7z"/></g><defs ><path id="E" d="M68.4 44.2c0 .5-.2 1-.4 1.4a4.44 4.44 0 0 1-.8 1.1c-.3.3-.8.6-1.3.8s-1.1.3-1.7.3-1.2-.1-1.8-.4c-.5-.2-1-.6-1.4-1s-.7-1-.9-1.6-.3-1.3-.3-2.1v-.9c0-.8.1-1.5.3-2.1s.5-1.2.9-1.6.8-.8 1.4-1c.5-.2 1.1-.4 1.8-.4.6 0 1.2.1 1.7.3s.9.4 1.2.8c.3.3.6.7.8 1.2.2.4.3.9.4 1.5h-1.8c0-.3-.1-.6-.2-.9s-.2-.5-.4-.7-.4-.3-.7-.4-.6-.1-1-.1-.8.1-1.1.2c-.3.2-.6.4-.8.7s-.4.7-.5 1.1-.2.9-.2 1.5v.9c0 .5 0 1 .1 1.5s.2.8.4 1.1.4.6.8.7.7.3 1.1.3.7 0 1-.1.5-.2.7-.4.3-.4.4-.7.2-.6.2-.9h2.1z"/><path id="F" d="M82.9 43.6c0-.6.1-1.1.3-1.6s.4-.9.7-1.3.7-.6 1.2-.8 1-.3 1.5-.3c.6 0 1.1.1 1.6.3s.8.5 1.2.8c.3.4.6.8.7 1.3.2.5.2 1 .2 1.6v.2c0 .6-.1 1.1-.2 1.6s-.4.9-.7 1.3-.7.6-1.2.8-1 .3-1.5.3c-.6 0-1.1-.1-1.6-.3s-.8-.5-1.2-.8c-.3-.4-.6-.8-.7-1.3-.2-.5-.3-1-.3-1.6v-.2zm1.8.2c0 .4 0 .7.1 1l.3.8.6.6c.2.1.5.2.9.2.3 0 .6-.1.9-.2.2-.1.4-.3.6-.6.2-.2.3-.5.3-.8s.1-.7.1-1v-.2c0-.4 0-.7-.1-1l-.3-.8-.6-.6c-.2-.1-.5-.2-.9-.2s-.6.1-.9.2c-.2.1-.4.3-.6.6-.2.2-.3.5-.3.8-.1.3-.1.6-.1 1v.2z"/><path id="G" d="M93.4 39.7l.1.8c.3-.3.6-.5 1-.7s.8-.3 1.3-.3.9.1 1.3.3a1.96 1.96 0 0 1 .9.9c.3-.4.6-.7 1-.9s.9-.3 1.4-.3c.4 0 .8.1 1.1.2s.6.3.8.5.4.5.5.9.2.8.2 1.3v5.1h-1.8v-5.1c0-.3 0-.5-.1-.7s-.2-.3-.3-.5a.76.76 0 0 0-.4-.2c-.2 0-.4-.1-.6-.1a1.69 1.69 0 0 0-1 .3c-.3.2-.4.5-.5.9v5.5h-1.8v-5.1c0-.3 0-.5-.1-.7s-.2-.3-.3-.5c-.1-.1-.3-.2-.5-.3s-.4-.1-.6-.1c-.4 0-.7.1-.9.2s-.4.4-.6.6v5.7h-1.8v-7.9h1.7z"/><path id="H" d="M121 43.6c0-.6.1-1.1.3-1.6s.4-.9.7-1.3.7-.6 1.2-.8 1-.3 1.5-.3c.6 0 1.1.1 1.6.3s.8.5 1.2.8c.3.4.6.8.7 1.3.2.5.2 1 .2 1.6v.2c0 .6-.1 1.1-.2 1.6s-.4.9-.7 1.3-.7.6-1.2.8-1 .3-1.5.3c-.6 0-1.1-.1-1.6-.3s-.8-.5-1.2-.8c-.3-.4-.6-.8-.7-1.3-.2-.5-.3-1-.3-1.6v-.2zm1.7.2c0 .4 0 .7.1 1l.3.8.6.6c.2.1.5.2.9.2.3 0 .6-.1.9-.2.2-.1.4-.3.6-.6.2-.2.3-.5.3-.8s.1-.7.1-1v-.2c0-.4 0-.7-.1-1l-.3-.8-.6-.6c-.2-.1-.5-.2-.9-.2s-.6.1-.9.2c-.2.1-.4.3-.6.6-.2.2-.3.5-.3.8-.1.3-.1.6-.1 1v.2z"/><path id="I" d="M281.8 38.7l.1.9c.3-.3.6-.6 1-.8s.8-.3 1.3-.3c.4 0 .7.1 1 .2s.6.3.8.5.4.5.5.9.2.8.2 1.4v5.1h-1.8v-5.1c0-.3 0-.5-.1-.7s-.2-.3-.3-.5-.3-.2-.4-.3c-.2-.1-.4-.1-.6-.1a1.69 1.69 0 0 0-1 .3c-.3.2-.5.4-.6.7v5.6h-1.8v-7.9h1.7z"/><path id="J" d="M674.7 36.4c0-.3.1-.5.3-.7s.4-.3.7-.3.6.1.7.3.3.4.3.7-.1.5-.3.7-.4.3-.7.3-.6-.1-.7-.3c-.2-.3-.3-.5-.3-.7zm1.9 9.9h-1.8v-7.9h1.8v7.9z"/><path id="K" d="M116.8 200.7h-.8c-.4 0-.8.1-1 .2a1.41 1.41 0 0 0-.6.7v5.4h-1.8v-7.9h1.7v.9c.2-.3.4-.6.7-.8a1.69 1.69 0 0 1 1-.3h.3c.1 0 .2 0 .3.1l.2 1.7z"/><path id="L" d="M638.6 202.3c0-.6.1-1.1.3-1.6s.4-.9.7-1.3.7-.6 1.2-.8 1-.3 1.5-.3c.6 0 1.1.1 1.6.3s.8.5 1.2.8c.3.4.6.8.7 1.3.2.5.2 1 .2 1.6v.2c0 .6-.1 1.1-.2 1.6s-.4.9-.7 1.3-.7.6-1.2.8-1 .3-1.5.3c-.6 0-1.1-.1-1.6-.3s-.8-.5-1.2-.8c-.3-.4-.6-.8-.7-1.3-.2-.5-.3-1-.3-1.6v-.2zm1.8.2c0 .4 0 .7.1 1l.3.8.6.6c.2.1.5.2.9.2.3 0 .6-.1.9-.2.2-.1.4-.3.6-.6.2-.2.3-.5.3-.8.1-.3.1-.7.1-1v-.2c0-.4 0-.7-.1-1l-.3-.8-.6-.6c-.2-.1-.5-.2-.9-.2s-.6.1-.9.2c-.2.1-.4.3-.6.6-.2.2-.3.5-.3.8-.1.3-.1.6-.1 1v.2z"/><path id="M" d="M647.2 202.3c0-.6.1-1.1.3-1.6s.4-.9.7-1.3.7-.6 1.2-.8 1-.3 1.5-.3c.6 0 1.1.1 1.6.3s.8.5 1.2.8c.3.4.6.8.7 1.3.2.5.2 1 .2 1.6v.2c0 .6-.1 1.1-.2 1.6s-.4.9-.7 1.3-.7.6-1.2.8-1 .3-1.5.3c-.6 0-1.1-.1-1.6-.3s-.8-.5-1.2-.8c-.3-.4-.6-.8-.7-1.3-.2-.5-.3-1-.3-1.6v-.2zm1.7.2c0 .4 0 .7.1 1l.3.8.6.6c.2.1.5.2.9.2.3 0 .6-.1.9-.2.2-.1.4-.3.6-.6.2-.2.3-.5.3-.8.1-.3.1-.7.1-1v-.2c0-.4 0-.7-.1-1l-.3-.8-.6-.6c-.2-.1-.5-.2-.9-.2s-.6.1-.9.2c-.2.1-.4.3-.6.6-.2.2-.3.5-.3.8-.1.3-.1.6-.1 1v.2z"/></defs></svg>