<?xml version="1.0" encoding="utf-8"?>
<!-- Generator: Adobe Illustrator 21.1.0, SVG Export Plug-In . SVG Version: 6.00 Build 0)  -->
<svg version="1.1" id="Layer_1" xmlns="http://www.w3.org/2000/svg" xmlns:xlink="http://www.w3.org/1999/xlink" x="0px" y="0px"
	 viewBox="0 0 549 300" style="enable-background:new 0 0 549 300;" xml:space="preserve">
<style type="text/css">
	.st0{fill:#A9A9AA;}
	.st1{fill:#8C8C8C;}
	.st2{fill:#FFFFFF;stroke:#000000;stroke-width:0.1187;stroke-miterlimit:10;}
	.st3{fill:#686868;}
	.st4{fill:#898989;}
	.st5{fill:url(#SVGID_1_);}
	.st6{fill:url(#SVGID_2_);}
	.st7{fill:url(#SVGID_3_);}
	.st8{fill:#808080;}
	.st9{fill:none;stroke:#EF1824;stroke-width:11.4517;stroke-miterlimit:10;}
	.st10{fill:#EF1824;}
</style>
<g>
	<path class="st0" d="M454.9,281.7H91.1c-8.8,0-15.9-7.1-15.9-15.9V39.4c0-17.2,13.9-31.1,31.1-31.1h336.2
		c16.8,0,30.4,13.6,30.4,30.4v225.1C472.8,273.7,464.8,281.7,454.9,281.7z"/>
	<path class="st1" d="M453.8,281.7h-361c-8.7,0-15.8-7.1-15.8-15.8V36.5c0-14.8,12-26.8,26.8-26.8h341c14.8,0,26.8,12,26.8,26.8
		v227.4C471.6,273.8,463.6,281.7,453.8,281.7z"/>
	<path class="st0" d="M457.8,281.7H89.2c-6.8,0-12.2-5.5-12.2-12.2V268h394.7l0,0C471.6,275.6,465.4,281.7,457.8,281.7z"/>
	<rect x="90.7" y="28.7" class="st2" width="366.6" height="229.4"/>
	<circle class="st3" cx="273.4" cy="19.4" r="1.8"/>
	<circle class="st4" cx="273.4" cy="19.4" r="0.7"/>
	
		<linearGradient id="SVGID_1_" gradientUnits="userSpaceOnUse" x1="30.5" y1="20.2" x2="517.6" y2="20.2" gradientTransform="matrix(1 0 0 -1 0 300)">
		<stop  offset="0" style="stop-color:#B3B3B3"/>
		<stop  offset="2.564090e-02" style="stop-color:#FAFAFA"/>
		<stop  offset="0.347" style="stop-color:#F2F2F2"/>
		<stop  offset="0.7299" style="stop-color:#F1F1F1"/>
		<stop  offset="0.9726" style="stop-color:#FFFFFF"/>
		<stop  offset="1" style="stop-color:#BDEAD6"/>
	</linearGradient>
	<rect x="30.5" y="278.4" class="st5" width="487.1" height="2.8"/>
	
		<linearGradient id="SVGID_2_" gradientUnits="userSpaceOnUse" x1="274.05" y1="11.6667" x2="274.05" y2="18.7894" gradientTransform="matrix(1 0 0 -1 0 300)">
		<stop  offset="0" style="stop-color:#4C4C4C"/>
		<stop  offset="4.363298e-03" style="stop-color:#4E4E4E"/>
		<stop  offset="9.994268e-02" style="stop-color:#6B6B6B"/>
		<stop  offset="0.205" style="stop-color:#838383"/>
		<stop  offset="0.3242" style="stop-color:#959596"/>
		<stop  offset="0.4638" style="stop-color:#A2A2A3"/>
		<stop  offset="0.643" style="stop-color:#AAAAAB"/>
		<stop  offset="1" style="stop-color:#CCCCCC"/>
	</linearGradient>
	<path class="st6" d="M30.5,281.2c0,0,11.6,6.9,73,6.9l339.7,0.2c0,0,55.9,0.8,74.4-7.1H30.5z"/>
	
		<linearGradient id="SVGID_3_" gradientUnits="userSpaceOnUse" x1="227.8" y1="19.65" x2="320.5" y2="19.65" gradientTransform="matrix(1 0 0 -1 0 300)">
		<stop  offset="0" style="stop-color:#B3B3B3"/>
		<stop  offset="2.564090e-02" style="stop-color:#FAFAFA"/>
		<stop  offset="0.347" style="stop-color:#F2F2F2"/>
		<stop  offset="0.7299" style="stop-color:#F1F1F1"/>
		<stop  offset="0.9726" style="stop-color:#FFFFFF"/>
		<stop  offset="1" style="stop-color:#B3B3B3"/>
	</linearGradient>
	<path class="st7" d="M316.5,282.3h-84.8c-2.2,0-3.9-1.8-3.9-3.9l0,0h92.7l0,0C320.4,280.5,318.7,282.3,316.5,282.3z"/>
	<rect x="212.1" y="284.7" class="st8" width="3.3" height="1.5"/>
	<rect x="331.8" y="284.7" class="st8" width="3.3" height="1.5"/>
	<g>
		<path d="M136.3,156.3l-3.1,11.1h-10.1l13.3-43.4h12.8l13.4,43.4H152l-3.3-11.1H136.3z M147.2,149l-2.7-9.2
			c-0.8-2.5-1.5-5.8-2.1-8.4h-0.2c-0.6,2.5-1.3,5.9-2,8.4l-2.5,9.2H147.2z"/>
		<path d="M168.3,124.7c3.6-0.6,8.3-0.9,13.3-0.9c8.2,0,13.6,1.5,17.7,4.6c4.5,3.3,7.3,8.7,7.3,16.3c0,8.3-3,14-7.2,17.6
			c-4.5,3.8-11.5,5.6-20,5.6c-5.1,0-8.7-0.3-11.1-0.6C168.3,167.2,168.3,124.7,168.3,124.7z M178.2,160.1c0.9,0.2,2.1,0.2,3.4,0.2
			c8.9,0.1,14.6-4.9,14.6-15.2c0.1-9-5.2-13.8-13.6-13.8c-2.1,0-3.6,0.2-4.5,0.4L178.2,160.1L178.2,160.1z"/>
		<path d="M213.5,157.4c2.6,1.4,6.7,2.7,10.9,2.7c4.5,0,6.8-1.8,6.8-4.7c0-2.7-2.1-4.2-7.2-6.1c-7.2-2.5-11.9-6.5-11.9-12.8
			c0-7.4,6.2-13.1,16.4-13.1c4.9,0,8.5,1,11.1,2.1l-2.1,7.9c-1.8-0.9-4.9-2.1-9.1-2.1c-4.2,0-6.3,1.9-6.3,4.2c0,2.8,2.5,4,8,6.1
			c7.6,2.9,11.2,6.8,11.2,12.9c0,7.2-5.6,13.4-17.5,13.4c-4.9,0-9.9-1.3-12.3-2.6L213.5,157.4z"/>
	</g>
	<g>
		<circle class="st9" cx="182.5" cy="145.7" r="75.9"/>
		
			<rect x="106.5" y="137.9" transform="matrix(0.7757 -0.6311 0.6311 0.7757 -49.3734 148.3281)" class="st10" width="155" height="11.4"/>
	</g>
	<g>
		<path d="M350.6,126.3l-1.3,4.7H345l5.7-18.5h5.5l5.7,18.5h-4.5l-1.4-4.7H350.6z M355.3,123.2l-1.2-3.9c-0.3-1.1-0.7-2.5-0.9-3.6
			h-0.1c-0.3,1.1-0.5,2.5-0.9,3.6l-1.1,3.9H355.3z"/>
		<path d="M364.3,112.8c1.5-0.2,3.5-0.4,5.7-0.4c3.5,0,5.8,0.6,7.6,2c1.9,1.4,3.1,3.7,3.1,7c0,3.5-1.3,6-3.1,7.5
			c-1.9,1.6-4.9,2.4-8.5,2.4c-2.2,0-3.7-0.1-4.7-0.3v-18.2H364.3z M368.5,127.9c0.4,0.1,0.9,0.1,1.5,0.1c3.8,0,6.3-2.1,6.3-6.5
			c0-3.8-2.2-5.9-5.8-5.9c-0.9,0-1.5,0.1-1.9,0.2v12.1H368.5z"/>
	</g>
	<path d="M302.1,149h-5v-3.5h14.2v3.5h-5.1v15H302v-15H302.1z"/>
	<path d="M313.5,145.7c1.3-0.2,3.3-0.4,5.6-0.4c2.7,0,4.7,0.4,6,1.5c1.1,0.9,1.7,2.2,1.7,3.9c0,2.4-1.7,4-3.3,4.6v0.1
		c1.3,0.5,2,1.8,2.5,3.5c0.6,2.1,1.2,4.5,1.5,5.2h-4.3c-0.3-0.5-0.7-2-1.3-4.3c-0.5-2.3-1.3-2.9-3-3h-1.3v7.3h-4.1L313.5,145.7
		L313.5,145.7z M317.7,153.7h1.6c2.1,0,3.3-1,3.3-2.7s-1.2-2.6-3.1-2.6c-1,0-1.6,0.1-1.9,0.1v5.2H317.7z"/>
	<path d="M334.4,159.2l-1.3,4.7h-4.3l5.7-18.5h5.5l5.7,18.5h-4.5l-1.4-4.7H334.4z M339.1,156.1l-1.2-3.9c-0.3-1.1-0.7-2.5-0.9-3.6
		h-0.1c-0.3,1.1-0.5,2.5-0.9,3.6l-1.1,3.9H339.1z"/>
	<path d="M361,163.5c-0.8,0.4-2.5,0.8-4.7,0.8c-6.4,0-9.7-4-9.7-9.2c0-6.3,4.5-9.8,10.1-9.8c2.2,0,3.8,0.4,4.6,0.8l-0.9,3.3
		c-0.9-0.4-2-0.7-3.5-0.7c-3.3,0-5.9,2-5.9,6.1c0,3.7,2.2,6,5.9,6c1.3,0,2.7-0.3,3.5-0.6L361,163.5z"/>
	<path d="M363.7,145.5h4.1v8.2h0.1c0.4-0.7,0.9-1.4,1.3-2l4.2-6.1h5.1l-6.1,7.9l6.5,10.6H374l-4.5-8l-1.6,1.9v6h-4.1L363.7,145.5
		L363.7,145.5z"/>
	<path d="M384.8,145.5V164h-4.2v-18.5H384.8z"/>
	<path d="M388.4,164v-18.5h4.9l3.8,6.8c1.1,1.9,2.2,4.3,3,6.3h0.1c-0.3-2.4-0.4-4.9-0.4-7.7v-5.4h3.8V164h-4.4l-4-7.1
		c-1.1-2-2.3-4.4-3.2-6.5h-0.1c0.1,2.4,0.2,5.1,0.2,8.1v5.6h-3.7V164z"/>
	<path d="M422.8,163.1c-1.3,0.4-3.7,1-6.2,1c-3.4,0-5.8-0.9-7.5-2.5s-2.6-4-2.6-6.7c0-6.1,4.5-9.7,10.6-9.7c2.4,0,4.2,0.5,5.1,0.9
		l-0.9,3.3c-1-0.4-2.3-0.8-4.3-0.8c-3.5,0-6.1,2-6.1,6c0,3.8,2.4,6.1,5.8,6.1c1,0,1.7-0.1,2.1-0.3v-3.9h-2.9v-3.3h6.9V163.1z"/>
	<g>
		<circle class="st9" cx="361.5" cy="145.7" r="75.9"/>
		
			<rect x="285.4" y="137.9" transform="matrix(0.7757 -0.6311 0.6311 0.7757 -9.2231 261.2367)" class="st10" width="155" height="11.4"/>
	</g>
</g>
</svg>
