<svg xmlns="http://www.w3.org/2000/svg" fill="none" viewBox="0 0 488 476">
  <path fill="#000" fill-rule="evenodd" d="M239 .5a701 701 0 0 0-43 7.3 263.3 263.3 0 0 1-32.5 5.4c-4.3.5-17.5.8-29.2.8s-23.5.3-26.2.6c-2.7.4-6.3 1.4-8 2.1-1.8.8-3.6 2.3-4.5 3.7-1 1.6-1.4 3.6-1.4 6 0 2 .5 5.2 1 7.2a53.6 53.6 0 0 0 18 22.8l2 1.5-1.8 1.4c-1 .8-5.8 4-10.7 6.9a470.6 470.6 0 0 0-32 21.8c-4 3.1-11 8.8-15.6 12.6a73.9 73.9 0 0 0-17 17.3 40.1 40.1 0 0 0-3.6 6.7 16 16 0 0 0-1 5.8 21 21 0 0 0 2 6.2c1.7 3.2 2.9 4.4 8.8 8.2 3.8 2.5 7.8 5.4 8.8 6.6a51.2 51.2 0 0 1 9 15.1l4 11a611.6 611.6 0 0 1 13.6 52.8l-2.3-.6c-1.1-.4-5.7-1.6-10.2-2.6a50 50 0 0 0-28.2 1.1 73 73 0 0 0-11 5.7 70.5 70.5 0 0 0-18.2 19 82.5 82.5 0 0 0-5 10.4A78.5 78.5 0 0 0 2.5 311c.7 3 2.3 7.8 3.5 10.8 1.3 3 3.8 8 5.6 11.1a117.2 117.2 0 0 0 19 23 103 103 0 0 0 20.7 14.4 103 103 0 0 0 12 4.7 46 46 0 0 0 13.8 1.9 46 46 0 0 0 13-1.5 69.7 69.7 0 0 0 18.9-8.9c1.8-1.2 5.2-4 7.6-6.4 2.5-2.3 4.6-4 4.7-4l4 7.5a320.1 320.1 0 0 0 24.9 39.1l8 9.4c1.2 1.4 5.6 6.1 9.8 10.4l7.7 7.8 3.1 2.7 5.8 4.6.2.3c3.1 2.5 7 5.6 11.7 9.1 2.7 2 4.9 3.2 7.5 4.9 2.5 1.6 19 9.3 19 9.3l3.9 1.5a181.9 181.9 0 0 0 27.6 8.4 241.7 241.7 0 0 0 43.2 4.5c4.6 0 12.4-1 20.3-2a197 197 0 0 0 25.3-4.6 217.7 217.7 0 0 0 84-41c2.6-2.1 8-7.2 12-11.3l7.4-7.3 9.7 6.7c5.4 3.8 10.7 7 11.7 7.2a14 14 0 0 0 6-1.1c2.6-1 5-2.6 6.8-4.6a34 34 0 0 0 4.5-6.2 22 22 0 0 0 1.9-7.7c.1-2.6 0-6-.5-7.6-.6-2-1.7-3.6-3.5-5a91.2 91.2 0 0 0-9.7-5.9c-4-2-7.5-4-7.9-4.3-.6-.5 0-2.4 1.6-6.6a141.3 141.3 0 0 0 7.5-28.5c.5-3.5.9-13 .9-21 0-12.3-.3-15.5-1.6-21.3a206.5 206.5 0 0 0-12.2-36.1 125 125 0 0 1-4.2-11c0-.4 2.3-1.8 5-3.2a39.3 39.3 0 0 0 17.2-17.1 52 52 0 0 0 3.8-11.3 39 39 0 0 0-3-23.5 49 49 0 0 0-7.5-11.6c0-.2.5-.4 1.1-.4.6 0 2-.5 3.2-1.1 1.2-.6 2.3-1.9 2.5-2.8a5 5 0 0 0-.3-3.1 4.3 4.3 0 0 0-2.1-1.9c-.8-.2-6.5 1-12.8 2.8-6.3 1.8-11.8 3.2-12.3 3.2-.7 0-1-3.7-1-16.1a123.4 123.4 0 0 0-5.3-41.3 189.4 189.4 0 0 0-13.6-32.5A236.6 236.6 0 0 0 413.4 68a203.3 203.3 0 0 0-23.9-24.3c-3.7-3.1-10-8-14-10.6a168.4 168.4 0 0 0-42.7-20 353.7 353.7 0 0 0-35.2-9.7 320 320 0 0 0-11.6-2C281.4.7 271.6.2 261.4 0 252 0 242 0 239 .5Zm52.6 9.9A237.2 237.2 0 0 0 251 7.3a250.3 250.3 0 0 0-33 4.8l-27 6a394 394 0 0 1-20.6 4c-6.2 1-13.3 1.3-34 1.4-14.5 0-28 .4-30 .7-3.5.4-3.8.6-3.8 2.4 0 1.1 1.1 4.2 2.5 7 1.3 2.6 3.8 6.3 5.4 8.2 1.6 1.9 4.9 4.7 7.3 6.3a46 46 0 0 1 6 4.7c.9 1 1.5 2.7 1.5 4 0 1.2-.6 3.2-1.3 4.4-.7 1.2-4 4-7.3 6.1a507 507 0 0 1-13.7 8.8 404.3 404.3 0 0 0-52.4 39.2 56.7 56.7 0 0 0-6.3 7.5 15 15 0 0 0-2.7 6.2c0 1.2.4 3 1 4 .6 1.3 3 3.1 6.8 5.2 3.2 1.7 7.5 4.6 9.4 6.3A51.2 51.2 0 0 1 72 165.3a273 273 0 0 1 6.1 18.6A688.6 688.6 0 0 1 89 226.4l2.4 11.2 5.3 5.2c2.8 2.8 7 7.4 9.1 10a126.9 126.9 0 0 1 15.3 25c2.3 4.6 5.1 10.8 6.2 13.7 1 3 2.7 8.5 3.6 12.4 1.4 5.7 1.7 8.9 1.7 15.7a51.1 51.1 0 0 1-4 23c-.9 2-1.6 4.1-1.6 4.6 0 .4 2.7 5.8 6 11.8 3.4 6 8.9 15.1 12.2 20.2a287 287 0 0 0 24.8 32.5c3.5 3.7 9 9.3 12.3 12.3a214 214 0 0 0 25.9 19.4 210.2 210.2 0 0 0 30.6 14.4 185 185 0 0 0 30.2 7.3 227.3 227.3 0 0 0 44.9.8 265 265 0 0 0 35.6-6.8l4.3-1.4-4 .3-13.8.8a199.7 199.7 0 0 1-39.2-2.6 152.2 152.2 0 0 1-29-8.9 98.5 98.5 0 0 1-35-28.6 81 81 0 0 1-5-8.9 71 71 0 0 1-3.7-10.4 32.9 32.9 0 0 1-1-12.4c.2-3.7 1.4-10.4 2.8-16l3.6-13.8a70.1 70.1 0 0 0 2.6-18.5 51.4 51.4 0 0 0-4.7-21.4 46.5 46.5 0 0 0-6-9 29.7 29.7 0 0 0-7.3-5.7c-2.2-1-8.4-2.8-14.7-4a123.7 123.7 0 0 1-32.8-10.7c-4-2-9.6-5.5-12.6-7.7a90 90 0 0 1-10.2-9.3c-3.3-3.5-5.7-7-7.6-11a74 74 0 0 1-4-10.6c-1-3.8-1.3-7.6-1.3-15.3 0-5.8.4-12.1 1-14.6a123.8 123.8 0 0 1 37.4-63.3 205.2 205.2 0 0 1 26.2-20 172.9 172.9 0 0 1 46.2-18.6c5-1 10.6-1.6 19.8-1.8a98 98 0 0 1 19.5.7l19.6 3.5a190.5 190.5 0 0 0 48.6 5c14.3 0 17-.2 25.7-1.9a107.7 107.7 0 0 0 29-9l7.8-4.4c1.7-1.2 4.5-3.5 6.2-5 1.6-1.6 3.3-4 3.8-5.3.7-2.2.5-2.7-2.6-7.8a218.3 218.3 0 0 0-19.2-25.4 189.6 189.6 0 0 0-26.5-23.8 203 203 0 0 0-14.6-9.2A205 205 0 0 0 308.4 14c-4.8-1.2-12.3-2.8-16.8-3.5Zm143 112.7a152 152 0 0 0-5-12.1c-1.3-3-2.7-5.5-3-5.5a14 14 0 0 0-3.3 2.9 53.4 53.4 0 0 1-7.1 5.7 105.1 105.1 0 0 1-39.4 15.1 165.8 165.8 0 0 1-63.5.4c-5.1-.7-12.5-2-16.4-2.8l-16.1-2.9a126.3 126.3 0 0 0-33.6-.4 126.5 126.5 0 0 0-19.5 4.8 136.6 136.6 0 0 0-44.5 25.2 148.5 148.5 0 0 0-24.6 25.9 119.2 119.2 0 0 0-14.8 28.3c-1.1 3.6-2.6 9.1-3.1 12.3a95.6 95.6 0 0 0 0 26.3c.5 2.7 2.1 7.1 3.5 10a47.6 47.6 0 0 0 16.5 18c3.4 2.6 8.8 5.8 11.8 7.4a107.1 107.1 0 0 0 28.6 9l12.7 2.8a43.8 43.8 0 0 1 12.2 6.8 45.7 45.7 0 0 1 11.7 18.5c1 3.1 2.3 8 2.8 10.8a73.8 73.8 0 0 1-4 34.7 69 69 0 0 0-4.1 24.5c0 8.2 0 9.2 2.1 14.3a72 72 0 0 0 5.6 10.6 80.9 80.9 0 0 0 19.7 19.4c3.2 2 8 5 10.8 6.3 2.8 1.3 7.8 3.5 11.3 4.7a135 135 0 0 0 30.8 6.3 327.6 327.6 0 0 0 40.6-.5 159.4 159.4 0 0 0 27-5.8c3.7-1.2 9.6-3.5 13.2-5.2a135 135 0 0 0 26.2-17.3c4-3.1 9.8-8.3 13.2-11.4 5.3-5 5.9-5.9 5-6.8a10513.3 10513.3 0 0 0-62.4-43.4c-.4-.2-3 1.2-6 3.1a93.6 93.6 0 0 0-18.3 16.8c-2.7 3.2-4.3 4.6-5.4 4.6-1 0-2-.6-2.4-1.5-.7-1.2-.4-2 1.5-5.4a88 88 0 0 1 27.1-25.2c.5-.2.3-4-.5-11.2A573.6 573.6 0 0 0 365 300l-3.2-15c-.4-1.5-1-2.7-1.3-2.7l-4.4.7c-2.6.5-6.1.5-11.2 0-4.2-.5-10-1.4-13-2.1-3-.8-6.7-2-8.2-2.8a20.3 20.3 0 0 1-9.2-8.5 12 12 0 0 1-2-6.8 16.5 16.5 0 0 1 5.8-12.3 22.4 22.4 0 0 1 15.1-4.1c3 .2 7.6.7 10.4 1.3 2.7.6 7.2 1.3 10 1.5l5 .5 5.6-3.7a93 93 0 0 1 9.4-5.5c3-1.3 4.6-1.6 7.3-1.4 2.5.3 4.3 1 6.2 2.5a19 19 0 0 1 4.2 5.3c.8 1.7 1.7 4.6 1.9 6.5a16 16 0 0 1-1.2 7.5c-1 3-2.7 5.2-6.5 9a37 37 0 0 1-11.6 8.2 23 23 0 0 0-6.5 3.9l2 8.9a384.5 384.5 0 0 1 6 28.3c.7 3.7 1.7 12 2.3 18.5l1.3 11.9a63.5 63.5 0 0 1 13.6-1.3c4 0 9 .3 11.2.8 3 .5 10 3.9 28.3 13.8 23.9 12.8 24.3 13 25.2 11.5a120.4 120.4 0 0 0 9.3-52.4 157.8 157.8 0 0 0-5.3-27c-1-3.7-3.7-11.6-6-17.7l-5.8-15.2-1.7-4.2-4.5-.2c-2.5-.1-6.2-.6-8.1-1a47.6 47.6 0 0 1-16-8 43.5 43.5 0 0 1-12-17c-.9-2.2-1.8-6.2-2.2-8.9a35 35 0 0 1 0-9.4 66.8 66.8 0 0 1 2.1-10c0-.2-1.1-1-2.5-1.5a10 10 0 0 1-3.6-3.5 16 16 0 0 1-1.2-6.3c0-2.1.4-4.8.8-5.9.5-1 1.5-2.2 2.4-2.5.9-.4 2.1-.5 2.7-.3.6.2 1.4.9 2 1.5.4.6.8 3 .8 5.3v4.2l4.5-.4 17-2.7 12.5-2.2.5-4.7a258.4 258.4 0 0 0-1.1-31.3 167 167 0 0 0-7.4-30Zm39 79.8a39.8 39.8 0 0 0-5.3-7.3c-1.7-2-3.7-3.5-4.2-3.4a392.7 392.7 0 0 1-35 7.9l-13.2 2.3-1 2.5c-.7 1.4-1.5 3.8-1.9 5.3a40.6 40.6 0 0 0 .6 17.3 44 44 0 0 0 3.6 7.9 34.8 34.8 0 0 0 11.4 10.9 30 30 0 0 0 18.2 3.9 23 23 0 0 0 11.9-3c3-1.4 6.7-4 8.8-6a37 37 0 0 0 9.4-18.5c.7-4.2.6-6-.3-10.5-.6-3-2-7.2-3-9.3Zm-402 33.7a79.2 79.2 0 0 0-18.1-3.2 41.3 41.3 0 0 0-17.7 4.6c-3.7 1.9-7 4.4-11 8.5a36 36 0 0 0-9 12.4 83.3 83.3 0 0 0-4.8 12.4 79.4 79.4 0 0 0-1.5 26.4 99 99 0 0 0 2.6 12.7 91 91 0 0 0 4.7 12.1c1.6 3.3 4.5 8.2 6.4 11a113.4 113.4 0 0 0 19 19.9 78.3 78.3 0 0 0 20.3 11.9c4.4 1.6 6 1.8 13.8 1.8 6.7 0 9.9-.3 12.8-1.3a121 121 0 0 0 10.1-4.5 52.3 52.3 0 0 0 19.2-16.8c1.6-2.4 3.5-6.4 4.3-9a68.2 68.2 0 0 0 .9-25.2c-.7-3.5-2.3-9.7-3.6-13.9a215.7 215.7 0 0 0-16.5-34.4 77 77 0 0 0-9.2-10.3 111 111 0 0 0-11.8-9.7 51 51 0 0 0-10.9-5.4Zm314.3 18c0-2.3-.5-4.1-1.6-5.8-1.4-2-2.1-2.4-4.5-2.5-2.2-.2-4.4.7-11.3 4.3-5.3 2.8-10 4.8-12 5a47 47 0 0 1-12.8-1 115 115 0 0 0-12.5-1.4c-2 0-4.5.6-6.4 1.6a9.2 9.2 0 0 0-4.5 4.3c-1.1 2.3-1.2 3.1-.5 5.5.5 1.6 1.9 3.6 3.4 4.9 1.5 1.1 4.6 2.7 7 3.5a72.6 72.6 0 0 0 20.6 3c3.5.1 8.1-.3 10.3-.8 2.1-.5 5.6-1.7 7.7-2.6a57 57 0 0 0 8.2-4.9c2.5-1.7 5.5-4.6 6.7-6.5 1.7-2.5 2.2-4.1 2.2-6.6ZM471 392l-20-11c-11.2-6-21-10.8-21.8-10.8-1 0-2.5.5-3.5 1-1 .6-2.9 2.7-4.1 4.6-1.2 1.9-2.2 4-2.2 4.6 0 .6 7.7 6.4 19.3 14.5l20.3 14c.5.3 1 0 1.3-.8l2.5-6c1.3-2.7 3.3-5.7 5.2-7.4l3-2.8Zm-87.4-35 28.5 19.5c.4-3.2 6.2-9 9-11.5-4.9-2.8-15.2-8.6-17.1-8.9-12.6-1.5-18.8 0-20.4.9Zm86.5 47.5c1-1.5 6-7 8-5.5s.5 6.5-1 9.2c-3 5.4-8 6.8-9.1 5.8-1.2-1 1.3-8 2.1-9.5Z" clip-rule="evenodd"/>
  <path fill="#FFD9B8" d="M274.5 8.3a237.2 237.2 0 0 1 33.9 5.6 259.9 259.9 0 0 1 34 11.3 186.7 186.7 0 0 1 31 17.1A189.6 189.6 0 0 1 419 91.5c3.1 5 3.3 5.6 2.6 7.8a18 18 0 0 1-3.8 5.2 55.5 55.5 0 0 1-14 9.5 107.7 107.7 0 0 1-29 9c-8.7 1.7-11.4 2-25.7 2a197.3 197.3 0 0 1-48.6-5.1c-7-1.3-15.9-3-19.6-3.5-5-.8-10-1-19.5-.7a108.3 108.3 0 0 0-35.3 6.1 172.9 172.9 0 0 0-30.7 14.4 205.2 205.2 0 0 0-26.2 20A151.7 151.7 0 0 0 148 181a123.8 123.8 0 0 0-16.3 38.3c-.5 2.5-.9 8.8-1 14.6 0 7.7.4 11.5 1.4 15.3a74 74 0 0 0 4 10.7c1.9 3.8 4.3 7.4 7.6 11a90 90 0 0 0 10.2 9.2 109 109 0 0 0 27 13.7c4 1.4 12.3 3.5 18.4 4.7 6.3 1.2 12.5 3 14.7 4 2 1 5.2 3.4 7.2 5.7 2 2.1 4.7 6.2 6.1 9a51.4 51.4 0 0 1 4 31c-.4 2.5-1.3 6.5-1.9 8.9l-3.6 13.8c-1.4 5.6-2.6 12.3-2.9 16a34 34 0 0 0 1.1 12.4 71 71 0 0 0 3.6 10.4 81 81 0 0 0 5 9 91.2 91.2 0 0 0 48.4 33.5c4.5 1.4 11.5 3.2 15.7 4a199.7 199.7 0 0 0 53.1 1.8l3.9-.4-4.3 1.4a265 265 0 0 1-35.7 6.8 227.3 227.3 0 0 1-45-.8 185 185 0 0 1-30.2-7.3 186.6 186.6 0 0 1-30.4-14.4 193.8 193.8 0 0 1-25.9-19.4 217 217 0 0 1-37-44.8 381.5 381.5 0 0 1-18.3-32c0-.5.7-2.6 1.7-4.7a51.1 51.1 0 0 0 3.9-23c0-6.7-.3-10-1.7-15.6-1-3.9-2.6-9.5-3.6-12.4a162.7 162.7 0 0 0-21.5-38.6 136 136 0 0 0-9.1-10.1l-5.3-5.2-2.4-11.2A688.6 688.6 0 0 0 78.2 184a273 273 0 0 0-6.1-18.7 51.2 51.2 0 0 0-13.2-20.8c-2-1.7-6.2-4.6-9.4-6.3-3.8-2-6.2-3.9-6.8-5.1-.6-1.1-1-3-1-4a15 15 0 0 1 2.7-6.3c1.6-2.3 4.4-5.7 6.3-7.5 1.8-1.8 8-7 13.7-11.6A404.3 404.3 0 0 1 103 76c4.3-2.6 10.5-6.5 13.7-8.7 3.3-2.2 6.6-5 7.3-6.1.7-1.2 1.3-3.2 1.3-4.4 0-1.3-.6-3-1.6-4-.9-1-3.6-3-6-4.7a44.8 44.8 0 0 1-7.2-6.3c-1.6-1.9-4-5.6-5.4-8.3a23.3 23.3 0 0 1-2.5-6.9c0-1.8.3-2 3.7-2.4 2-.3 15.6-.6 30-.7 20.8-.1 28-.4 34.1-1.4a394 394 0 0 0 20.6-4l27-6a250.3 250.3 0 0 1 33-4.8h8.9l14.5 1Z"/>
  <path fill="#000" fill-rule="evenodd" d="M265.6 198.1a6 6 0 0 0-1.7 3.9 7 7 0 0 1-1.6 4c-1.1 1.3-2.8 2-5.2 2.5a54 54 0 0 1-12 0l-28.4-3a232 232 0 0 0-21.5-1.7c-.8.2-2 1-2.4 1.9a5 5 0 0 0-.4 3c.3 1 1.3 2 2.3 2.5 1 .4 2.6.8 3.5.8 1.7 0 1.7 0-1 4.7a44 44 0 0 0-4 9.7 41.3 41.3 0 0 0 2.6 27.1c1 2.4 3.4 6 5.1 8.2a43.5 43.5 0 0 0 17 12 36.6 36.6 0 0 0 19 2 52 52 0 0 0 9-2 46.2 46.2 0 0 0 15.5-10.8c1.8-2 4.4-6 5.7-8.7a50.6 50.6 0 0 0 4.6-17.6 53 53 0 0 0-4.3-17.6l-2-4 2.6-2.8a15.7 15.7 0 0 0 4.4-11.1c0-1.8-.4-2.8-1.6-3.6a6 6 0 0 0-2.5-1.1c-.5 0-1.7.8-2.7 1.7Zm-17 18.7c-5.5-.2-16-1-23.4-1.9l-15.3-1.5c-1.2 0-2.4 1-4 3a47.2 47.2 0 0 0-3.5 5.5 51 51 0 0 0-2.2 6 35.1 35.1 0 0 0 .4 18 45 45 0 0 0 3.6 8 38.7 38.7 0 0 0 11.4 10.8 30 30 0 0 0 18.2 3.9 23 23 0 0 0 11.9-2.9c3-1.4 6.7-4.1 8.8-6.1a37 37 0 0 0 9.4-18.5c.7-4.2.6-5.9-.3-10.5-.6-3-2-7.2-3.2-9.4l-2-3.9-9.9-.5Z" clip-rule="evenodd"/>
  <path fill="#000" d="M37.5 278.7c-1.3.3-2.7 1-3 1.6-.4.5-.6 1.3-.6 1.7 0 .4.5 1.2 1.2 1.8.7.6 4 1.4 7.6 1.9 3.5.4 8.5 1.4 11.1 2.2 2.6.8 7.1 3 10.1 5s9.3 7.3 14 11.9l8.6 8.3-3.5 1.1c-1.9.6-4.6 1.9-6 2.7a37.2 37.2 0 0 0-9.8 10.5 14 14 0 0 0-.7 4.1c0 1.3.5 3 1.1 3.9.9 1.2 1.4 1.4 2.4.9.7-.4 1.8-2.1 2.4-3.8a14 14 0 0 1 4-5.4c1.6-1.3 4.4-3 6.2-3.8 3-1.3 4.1-1.4 11.2-1 6.7.5 8 .4 8.9-.5.7-1 .4-1.7-2.2-4.9l-9.3-11a102.4 102.4 0 0 0-21.4-20c-2.7-1.7-7-3.9-9.3-4.8a58.7 58.7 0 0 0-18-3 30 30 0 0 0-5 .6Z"/>
  <path fill="#fff" d="M225.2 214.9c7.4.8 18 1.7 23.3 2l10 .4 2 4c1 2 2.5 6.3 3.1 9.3 1 4.6 1 6.3.3 10.5-.5 2.9-2 7.2-3.3 10a37 37 0 0 1-6.1 8.5c-2 2-5.9 4.7-8.8 6.1a23 23 0 0 1-11.8 3 30 30 0 0 1-24.4-8.6c-1.7-1.5-4-4.4-5.3-6.3a43 43 0 0 1-3.6-7.8 35.1 35.1 0 0 1 1.8-24c.7-1.4 2.3-4 3.5-5.6 1.6-2 2.8-3 4-3l15.3 1.5Zm243.1-19.3a35 35 0 0 1 5.2 7.3 45 45 0 0 1 3.1 9.3c1 4.6 1 6.3.3 10.5-.5 2.8-2 7.1-3.3 10a37 37 0 0 1-6.1 8.4c-2 2-5.9 4.7-8.8 6.1a23 23 0 0 1-11.8 3 30 30 0 0 1-24.4-8.6c-1.7-1.5-4-4.3-5.3-6.2-1.2-2-2.8-5.5-3.6-7.9a35.4 35.4 0 0 1 1.2-22.6l1-2.5 13.2-2.3a392.7 392.7 0 0 0 35-7.9c.6 0 2.6 1.5 4.3 3.4Z"/>
  <path fill="#C6FFB9" fill-rule="evenodd" d="M429.7 111a159.8 159.8 0 0 1 12.4 42 258.4 258.4 0 0 1 1.1 31.4l-.5 4.7-12.5 2.2-17 2.7-4.5.4v-4.2c0-2.3-.4-4.7-.9-5.3a5.2 5.2 0 0 0-2-1.5c-.5-.2-1.7 0-2.6.3-.9.3-2 1.4-2.4 2.5-.4 1.1-.7 3.8-.8 6 0 2.3.5 4.8 1.2 6.2a9.3 9.3 0 0 0 3.6 3.5c1.4.6 2.5 1.3 2.5 1.5l-.7 3c-.4 1.3-1 4.5-1.4 7a35 35 0 0 0 0 9.4c.4 2.7 1.3 6.7 2.1 9a43.5 43.5 0 0 0 12 17 47.6 47.6 0 0 0 16 8c2 .3 5.7.8 8.2 1l4.5.1 1.7 4.2c1 2.3 3.5 9.2 5.8 15.2s5 14 6 17.8a157.8 157.8 0 0 1 5.3 27c.4 4 .4 9.6 0 14.1a130.3 130.3 0 0 1-9.4 38.2c-.8 1.5-1.2 1.3-25.1-11.5-18.4-10-25.3-13.3-28.3-13.8a78.2 78.2 0 0 0-24.8.5c0-.1-.7-5.5-1.3-12a353 353 0 0 0-2.2-18.4 373.2 373.2 0 0 0-8.1-37.2c0-.4 2.9-2.2 6.5-4a37 37 0 0 0 11.6-8.1c3.8-3.8 5.4-6 6.5-9a16 16 0 0 0-.8-14 19 19 0 0 0-4.1-5.3 10.5 10.5 0 0 0-6.2-2.5c-2.7-.2-4.3 0-7.3 1.4a93 93 0 0 0-9.4 5.5l-5.6 3.7-5-.5c-2.8-.2-7.3-1-10-1.5a81 81 0 0 0-10.3-1.3 22.4 22.4 0 0 0-15.2 4.1 16.5 16.5 0 0 0-5.8 12.3c0 2.6.6 4.5 2 6.8 1 1.8 2.9 4.1 4.1 5.2 1.3 1 3.5 2.5 5 3.3 1.6.8 5.3 2 8.3 2.8 3 .7 8.8 1.6 13 2a41.4 41.4 0 0 0 15.6-.6c.3 0 1 1.2 1.3 2.6a463.6 463.6 0 0 1 7 36.4c.8 5 2 13.8 2.7 19.9.8 7.2 1 11 .5 11.2a81.6 81.6 0 0 0-18 14.3 88 88 0 0 0-9 11c-2 3.2-2.3 4.1-1.6 5.3a3 3 0 0 0 2.4 1.5c1.1 0 2.7-1.4 5.4-4.6 2-2.5 5.8-6.6 8.4-9 2.6-2.4 7.1-5.9 10-7.8 2.8-1.9 5.5-3.3 5.8-3a10513.3 10513.3 0 0 1 62.4 43.3c1 1 .4 1.7-5 6.8a206.4 206.4 0 0 1-26.6 21.4 135 135 0 0 1-12.7 7.3 123.4 123.4 0 0 1-40.2 11 327.6 327.6 0 0 1-40.6.4A135 135 0 0 1 282 444c-3.5-1.1-8.5-3.3-11.3-4.6a88 88 0 0 1-21.8-15.3 80.9 80.9 0 0 1-8.7-10.4 70.7 70.7 0 0 1-5.6-10.6c-2-5-2.2-6-2.1-14.3 0-8.5.1-9.6 4-24.5 3.3-12.3 4.2-17.1 4.5-22.7.2-3.8 0-9.3-.4-12a57 57 0 0 0-8.1-21.6 45.7 45.7 0 0 0-6.4-7.7 39.7 39.7 0 0 0-12.2-6.8c-1.1-.3-6.9-1.6-12.7-2.7a107.1 107.1 0 0 1-28.6-9c-3-1.7-8.4-5-11.8-7.4a47.6 47.6 0 0 1-16.5-18.2c-1.4-2.8-3-7.2-3.5-10a77.3 77.3 0 0 1 0-26.2c.5-3.2 2-8.7 3.2-12.4a119.2 119.2 0 0 1 39.3-54.1 160.5 160.5 0 0 1 29.2-19 136.6 136.6 0 0 1 25.2-9.2l9.6-1.8a128.2 128.2 0 0 1 33.6.4c5 .8 12.2 2 16.1 2.9a352.2 352.2 0 0 0 34.4 4.9 165.8 165.8 0 0 0 45.4-2.5 136 136 0 0 0 29.3-9.5 53.4 53.4 0 0 0 17.2-11.3c1.6-1.6 3.1-2.9 3.4-2.9.3 0 1.7 2.5 3 5.5Zm-165.8 91c0-1.3.7-2.8 1.7-3.9 1-1 2.2-1.7 2.7-1.7a6 6 0 0 1 2.5 1c1.2.9 1.6 1.9 1.6 3.7a21 21 0 0 1-.9 5.4c-.4 1.6-2 4.2-3.5 5.7l-2.6 2.8 2 4a46.2 46.2 0 0 1 4.3 17.6 50.4 50.4 0 0 1-4.6 17.6 42.2 42.2 0 0 1-5.7 8.7 46.2 46.2 0 0 1-15.5 10.8 52 52 0 0 1-9 2.1c-3.5.5-7 .5-10.1 0-2.7-.3-6.7-1.3-9-2a43.5 43.5 0 0 1-17-12 49.4 49.4 0 0 1-8-16.4 49 49 0 0 1-.9-9c0-2.7.6-7.2 1.3-10a44 44 0 0 1 4-9.7c2.7-4.7 2.7-4.7 1-4.7-1 0-2.5-.4-3.5-.8a5 5 0 0 1-2.3-2.5 5 5 0 0 1 .4-3c.5-.8 1.6-1.7 2.4-2 1-.1 10.6.7 21.5 1.9l28.4 2.8c5.4.5 9.8.5 12 .1 2.4-.4 4-1.3 5.2-2.5a7 7 0 0 0 1.6-4ZM61 234a51 51 0 0 1 21.5 8c3 2 8.3 6.3 11.9 9.7a77 77 0 0 1 9.2 10.3 215.7 215.7 0 0 1 16.5 34.4c1.3 4.2 3 10.4 3.6 14a65.2 65.2 0 0 1-.9 25.1 37.2 37.2 0 0 1-12.2 18c-3.3 3-7.3 5.8-11.3 7.8-3.4 1.7-8 3.7-10 4.5-3 1-6.2 1.3-12.9 1.3-7.9 0-9.4-.2-14-1.9A78.3 78.3 0 0 1 32 344a82.2 82.2 0 0 1-15.1-21.4 91 91 0 0 1-4.7-12 99 99 0 0 1-2.6-12.8 76.4 76.4 0 0 1 1.6-26.6c.7-3.2 2.9-8.7 4.6-12.4 2.7-5.4 4.3-7.7 9-12.4 4.1-4.1 7.4-6.6 11-8.5a41.3 41.3 0 0 1 25.2-4Zm-26.5 46.3c.3-.6 1.7-1.3 3-1.6a30 30 0 0 1 13 0c3.1.5 7.6 1.6 10 2.4 2.4 1 6.6 3.1 9.3 5a102.4 102.4 0 0 1 21.4 19.8l9.3 11c2.6 3.2 3 4 2.2 4.9-.8.9-2.2 1-8.9.6-7-.5-8.3-.4-11.2 1-1.8.7-4.6 2.4-6.1 3.7a14 14 0 0 0-4 5.4c-.7 1.7-1.8 3.4-2.5 3.8-1 .5-1.5.3-2.4-1a7.9 7.9 0 0 1-1.1-3.8c0-1.2.3-3.1.7-4.1a37.2 37.2 0 0 1 9.8-10.5c1.4-.8 4.1-2 6-2.7l3.5-1.1-8.6-8.3a116 116 0 0 0-14-11.9 50 50 0 0 0-10-5c-2.7-.8-7.7-1.8-11.2-2.2a23 23 0 0 1-7.6-1.9c-.7-.6-1.3-1.4-1.2-1.8 0-.4.2-1.2.6-1.7Z" clip-rule="evenodd"/>
  <path fill="#FEFFB9" d="M384.4 248.8a9.8 9.8 0 0 1 1.6 5.8c0 2.5-.5 4-2.2 6.6a31.3 31.3 0 0 1-6.7 6.5 57 57 0 0 1-8.2 4.9c-2.1 1-5.6 2-7.7 2.6a58 58 0 0 1-10.3.9 72.6 72.6 0 0 1-20.6-3 35 35 0 0 1-7-3.6 11 11 0 0 1-3.4-5c-.7-2.3-.6-3 .5-5.4 1-1.9 2.3-3.2 4.5-4.3 1.9-1 4.5-1.6 6.4-1.6 1.8 0 7.4.6 12.5 1.5a47 47 0 0 0 12.7 1c2.1-.3 6.8-2.3 12-5 7-3.7 9.2-4.6 11.4-4.4 2.4 0 3.1.5 4.5 2.5Z"/>
  <path fill="#F9B66E" d="M412.1 376.5 383.6 357c1.6-1 7.8-2.4 20.4-.9 1.9.3 12.2 6 17.1 8.9-2.8 2.5-8.6 8.3-9 11.5Z"/>
  <path fill="#fff" d="m451 381.1 20 10.9-3 2.8a25.6 25.6 0 0 0-5.2 7.5l-2.5 5.9c-.3.8-.8 1-1.3.7l-20.3-14c-11.6-8-19.3-13.8-19.3-14.4 0-.7 1-2.7 2.2-4.6 1.2-2 3-4 4-4.5a9 9 0 0 1 3.6-1c.9 0 10.6 4.8 21.7 10.7Z"/>
  <path fill="#F97A6E" d="M478.1 399c-2-1.5-7 4-8 5.5-.9 1.5-3.3 8.5-2.1 9.5 1.1 1 6-.4 9.1-5.8 1.5-2.7 3-7.7 1-9.2Z"/>
</svg>
