<svg xmlns="http://www.w3.org/2000/svg" fill="none" viewBox="0 0 521 475">
  <path fill="#E5E5E5" fill-rule="evenodd" d="M268 7.6c2.7.5 2.6.5-2.2 1a231.7 231.7 0 0 0-86.8 30 288.2 288.2 0 0 0-31 21.2 275.9 275.9 0 0 0-34 33.4c-3.9 4.7-10 12.9-13.4 18.1A213.1 213.1 0 0 0 81 150.2c-1.5 4.2-3.4 10.8-4.3 14.6a21 21 0 0 1-2.2 6.4 51 51 0 0 1-2.7-6.3 54 54 0 0 0-11.2-18.3c-2-2-5.7-4.9-8-6.2l-6.4-3.6c-1.1-.7-2.6-2-3.2-3a9 9 0 0 1-1.3-4.3c0-1.7.7-3.6 2.7-6.5a56 56 0 0 1 6.3-7.6c2-2 7.4-6.6 12-10.4A624.4 624.4 0 0 1 94 81.8c3.5-2.4 10.4-6.8 15.4-9.8 4.9-3 10.4-6.7 12.2-8.3 1.8-1.5 3.4-3.7 3.6-4.8a8 8 0 0 0-.2-3.8c-.4-1-2.3-3-4.1-4.2a86.2 86.2 0 0 1-8.5-7.4 43.8 43.8 0 0 1-6.9-8.5 49 49 0 0 1-2.7-6.6c-.7-2.6-.7-3.2 0-3.7.6-.3 3.6-.8 6.8-1 3.1-.2 17-.5 31-.7 18.9-.2 26.8-.5 32-1.4 3.8-.6 10.6-2 15-2.9l25.3-5.6C222.5 11 233 9 236 8.4l8.5-1a249.5 249.5 0 0 1 23.5.2Zm43.3 8.6a201 201 0 0 1 36.2 8.9c5.1 1.8 13 5.2 17.7 7.6a199.3 199.3 0 0 1 29.1 18.2A176.8 176.8 0 0 1 417.8 74a146 146 0 0 1 11 16.7c0 .2-5.5-2.4-12.3-5.7a255 255 0 0 0-19.7-8.8 247 247 0 0 0-48.3-12c-4.5-.6-13.9-.9-28.4-.8-18.8 0-23 .2-32 1.6-5.6.9-14.5 2.6-19.8 3.7a290.6 290.6 0 0 0-43 14 265.5 265.5 0 0 0-29 15.3 245.9 245.9 0 0 0-25.7 18 254.5 254.5 0 0 0-29.8 29 236 236 0 0 0-23.9 36c-2.5 4.8-6 12.5-7.8 17-1.8 4.5-4.3 12.1-5.7 17l-2.4 8.9-4.1 2.6-7.4 4.6c-1.8 1-3.4 2.2-3.7 2.6-.2.4-1.3.1-2.5-.6-2-1.2-2.3-1.8-3.1-7a175 175 0 0 1-1-23.2 94 94 0 0 1 2.4-28c1.3-5.9 3.5-14.3 5-18.8a182.5 182.5 0 0 1 31.8-56.8 257.4 257.4 0 0 1 34.3-34A290.2 290.2 0 0 1 189 41a268.8 268.8 0 0 1 35.6-15.6 222.2 222.2 0 0 1 44-10 276.5 276.5 0 0 1 42.7.7Zm33.7 55a256.3 256.3 0 0 1 34.4 6.8 201 201 0 0 1 18.5 6.5 187 187 0 0 1 17.4 7.9c5.5 3 6.8 4 7 5.5a9 9 0 0 1-1.5 4.2c-1 1.4-3.6 4-6 5.8a82.8 82.8 0 0 1-9.2 5.8 111 111 0 0 1-28.3 9.4c-4.7 1-13 2-18.3 2.5-7.4.6-12.5.6-21 0a330.9 330.9 0 0 1-41.1-5.8c-7.9-1.5-18.2-3.1-22.9-3.6-6.6-.6-10.7-.6-18 0-5.1.5-12.7 1.6-16.9 2.5-4 1-10.5 2.7-14.2 4a165.3 165.3 0 0 0-33.6 16.9 225 225 0 0 0-14.2 10.3 179.8 179.8 0 0 0-24 24.6l-7.3 11c-1.9 3.2-4.6 8.4-6 11.7a37.1 37.1 0 0 1-3.7 6.8c-.5.4-5.7 3.5-11.5 6.7l-13 7.3-2.3 1.4 1.1-3.8a262.4 262.4 0 0 1 8.5-22.9 181.3 181.3 0 0 1 39.6-56.2c5.6-5.5 13.4-12.6 17.4-15.8a277.5 277.5 0 0 1 33.1-22 285.2 285.2 0 0 1 28-12.9 244.6 244.6 0 0 1 59.4-14.6 281.5 281.5 0 0 1 48.6 0Zm85.5 41a156.3 156.3 0 0 1 9.2 26.1 151 151 0 0 1 3.6 20l.4 3.3-9.4.8a4441.9 4441.9 0 0 0-51.7 4.7 5485 5485 0 0 1-36.9 3.5 2321.7 2321.7 0 0 1-36.6 3.6A11060 11060 0 0 0 180 188.4l-13.5 1.5c-2.3.3-6.1 1.8-10.9 4.2l-7.7 3.9a160.3 160.3 0 0 1 9-16 138 138 0 0 1 30.3-31.7 160 160 0 0 1 25.6-16 132.8 132.8 0 0 1 30.1-10.2c6-1.4 9.7-1.7 20.2-1.7 11 0 14 .3 22.4 2L305 128a252.1 252.1 0 0 0 42 3.9c6.2 0 14.6-.4 18.7-1a164.4 164.4 0 0 0 27.6-6.1 98.3 98.3 0 0 0 23.2-11 47.9 47.9 0 0 0 10.3-8.8c.2 0 2 3.2 3.8 7.1Zm68.4 55.2c1.3 1 3 3.4 4 5.3 1 2 2.2 5.4 2.8 7.6.6 2.1 1.8 7.2 2.6 11.3a420.8 420.8 0 0 1 5 39c.6 8.7.7 13 0 16.7-.6 4.2-1 5.3-3 6.9a30 30 0 0 1-8 3.7 138.2 138.2 0 0 1-21 4.7l-15.6 1.7-24.9 2.2c-7.6.6-18 1-23 1-7.4 0-9.8-.2-12.1-1.3a18 18 0 0 1-5.4-4.4 118 118 0 0 1-4.8-6.5 34 34 0 0 1-3.3-6.3c-.6-1.7-2.6-4.6-4.5-6.6-1.8-2-4.4-5.4-5.7-7.7a16 16 0 0 0-4.8-5.2c-2.2-1.3-3-1.2-21.3.6-18.2 1.8-19 2-20.8 3.7a24 24 0 0 0-3.6 7.3c-1.9 5.4-1.9 5.4-5 6.2-1.7.5-4.2 1.4-5.4 2a17 17 0 0 0-7.1 8.1c-.5 1.3-1 3.7-1 5.3 0 1.7.7 4.3 1.4 6 .7 1.5 1.8 3.2 2.4 3.7.7.6 1.2 1.3 1.2 1.6 0 .3-1 .9-2.3 1.3a425.8 425.8 0 0 1-48.1 8.2 1067 1067 0 0 1-47.6 4.3c-7.2.7-17.3 1-22.4.9-7.3-.3-9.9-.6-12-1.7-1.6-.7-3.6-2.4-4.4-3.8-1-1.3-2.4-4.8-3.3-7.8-1-3-2.5-9-3.3-13.3-1-4.6-2.4-9.3-3.5-11.3a11 11 0 0 0-5.3-5.2c-2.4-1.3-5-1.9-8.3-2-2.8-.2-6.4.1-9.1.8a160 160 0 0 0-12.6 4.3 226.8 226.8 0 0 0-24 11s-2-2.3-4-5.1-6.5-7.9-9.8-11.1c-4.6-4.7-5.8-6.2-5-6.6a4708.8 4708.8 0 0 1 36.9-20.8l21.9-11.7 13.7-7.1 8.6-1.1 12.6-1.4 12.7-1.5a2786.4 2786.4 0 0 1 70-7.8 56029.6 56029.6 0 0 1 72.4-7.4 645.1 645.1 0 0 1 22-2.1 1572.6 1572.6 0 0 1 33.7-3.2 2464.7 2464.7 0 0 1 36.6-3.2 216666 216666 0 0 1 38.7-3.4c3.3-.3 10-.5 14.9-.5 8.3 0 9 0 11.2 1.7Zm-30 12.6a884.7 884.7 0 0 0-38 3.1l-24.8 2.4c-8 .8-12.2 1.5-13.7 2.4-1.1.7-2.8 2.8-3.9 5-1.6 3.2-1.8 4.3-1.5 9.2a36 36 0 0 0 3 12.2 286.7 286.7 0 0 0 16 32 62 62 0 0 0 5.8 7.2l3.2 3.4h6.6c3.6 0 16.3-1 28.3-2.1l30.6-3.3c5.1-.6 10.5-1.7 12.7-2.6 2.2-1 4.6-2.5 5.4-3.6 1.4-1.8 1.5-2.8 1.4-10.3-.1-4.6-.8-12.3-1.6-17.2l-3.2-19.5c-1-5.8-2.5-12-3.2-13.6a8.6 8.6 0 0 0-3.5-4c-1.6-1-4-1.2-9.5-1-4 0-8.6.1-10.1.3Zm16.6 10c.4 1.4 1.9 8.9 3.2 16.5 1.4 7.6 2.9 18.2 3.2 23.6.4 5.4.5 10.2.3 10.8-.2.5-1.8 1.3-3.7 1.7-1.8.5-8.7 1.4-15.4 2.2a1280 1280 0 0 1-49.2 4.5c-5 .3-5.4.2-7-1.5-1-1-3.1-4-4.8-6.5-1.7-2.6-4.7-8-6.7-12s-5.2-11-7-15.3c-2.8-6.8-3.3-8.6-3.3-13 0-3.6.3-5.4 1-6.2.8-.7 6.9-1.6 22.7-3.2 12-1.2 28-2.6 35.5-3.1 7.6-.6 17.6-1 22.2-1.1h8.3l.7 2.6Zm-193 5.5a6415.1 6415.1 0 0 1-38.7 4 1248.1 1248.1 0 0 0-54.9 6.8 37 37 0 0 0-9.4 2.4 9.6 9.6 0 0 0-3.3 4c-.8 1.8-1 5-1 12A191.5 191.5 0 0 0 188 256a89 89 0 0 0 3 11.9c1 2.5 2.3 4.5 3.7 5.6 1.2 1 3.5 2.1 5 2.7 2 .6 5.7.9 10.7.8a674.8 674.8 0 0 0 58.3-5.6 448 448 0 0 0 25.7-4.5 39 39 0 0 0 10-3.2c.8-.7 2-2.4 2.6-3.7a252.4 252.4 0 0 0 7.8-30.8 97.1 97.1 0 0 0 .4-22.8c-.4-2-1.6-5-2.5-6.5-1-1.4-2.7-3-3.7-3.6-1.1-.5-3.8-1.1-5.9-1.3-2.1-.2-7 0-10.7.5Zm13 8.7c.6.7 1.4 2.7 1.8 4.4a56.8 56.8 0 0 1 0 18 237.8 237.8 0 0 1-7.4 29.6 8 8 0 0 1-1.8 2.5c-.5.3-4.3 1.3-8.5 2.2-4.3.9-13.8 2.4-21 3.4A776.7 776.7 0 0 1 219 269c-10.4.7-14.2.7-16.6 0a7.2 7.2 0 0 1-4.4-3 26 26 0 0 1-2.1-5.8 187.5 187.5 0 0 1-2.8-33.2c0-7.8.2-11.4.8-12.2.6-.9 2.6-1.5 5.9-2a2475.2 2475.2 0 0 1 49.3-6 2138.1 2138.1 0 0 1 47.3-3.8c6.7 0 8 .1 9 1.2ZM71 236c3.2 1 8 3.4 10.9 5.2a92.3 92.3 0 0 1 18.5 16c3 3.6 6.1 8.6 10.1 16.4a134.8 134.8 0 0 1 12.6 31.6c1 4 2 9.9 2.2 13 .3 4.4 0 7.4-1.1 13.1a49 49 0 0 1-3 10.1l-1.5 2.7-2.6-2.8a18 18 0 0 0-13.8-5.9c-3 0-5.4.5-7.7 1.6a20.2 20.2 0 0 0-9.7 10.8 20.2 20.2 0 0 0 .3 13c.6 1.6 1.6 3.3 2.2 4 .8.8.8 1.3.3 1.7-.4.2-4.1.8-8.2 1.2-4.1.4-7.7.6-7.9.4-.2-.3.1-1.2.7-2 .7-1 1.2-3.1 1.2-5.2 0-1.9-.5-4.5-1.1-5.8-.7-1.3-2.4-3.2-4-4.3a15 15 0 0 0-5.9-2.2c-2.5-.3-3.8 0-6.3 1.4-1.7 1-4.1 3-5.3 4.4a11 11 0 0 0-2.3 3.2c0 .4-.3.7-.7.7-.5 0-2.7-1.4-5-3.2a101.8 101.8 0 0 1-25.2-28.8 81.1 81.1 0 0 1-9-24.8c-.4-2.5-.8-8.6-.8-13.5a56 56 0 0 1 5.8-27.2 53.8 53.8 0 0 1 13.5-18 52.3 52.3 0 0 1 14.7-8 41 41 0 0 1 16.8-1.3c3 .3 8 1.4 11.3 2.5Zm304.4 2 .8 2a44.2 44.2 0 0 0-9 4.7c-3 2.1-6.4 4.2-7.5 4.6-1.2.5-3.5.6-6.4.3l-9.7-1.4c-3-.5-5.6-1.1-6-1.4-.3-.3 0-2.1.6-4.1 1.2-3.4 1.3-3.6 4.3-4a369.3 369.3 0 0 1 26.7-2.4c5.1 0 5.4 0 6.2 1.7Zm8.3 9.8a9.7 9.7 0 0 1 2.8 5.3c.4 2.3.2 3.7-1 6.2-.9 1.7-3.1 4.5-5 6.2a50 50 0 0 1-18.9 9.8 47 47 0 0 1-9.4 1.4 102.4 102.4 0 0 1-22.6-3.7c-2.2-.8-5-2.4-6.2-3.5-1.3-1.1-2.8-3-3.3-4.2a9.1 9.1 0 0 1-.4-4.5 9.3 9.3 0 0 1 2.4-4.2c1-1 2.8-2.2 4-2.6a45 45 0 0 1 15 0l8.1 1.4c4.4.6 6.2.5 9.6-.4a50 50 0 0 0 9.9-4.3c3-1.8 6.7-3.7 8.1-4.2 1.5-.5 3-1 3.6-1 .5 0 2 1 3.3 2.3ZM161 251.6c1.9.8 3 1.9 4 3.7a73 73 0 0 1 2.6 9.2c.7 3.7 2.1 9 3 12a17 17 0 0 1 1.3 5.2 104.5 104.5 0 0 1-12-7.5 55 55 0 0 1-13.7-14 18.8 18.8 0 0 1-2.8-5.5c0-.9 1.1-1.7 4-2.7a29 29 0 0 1 7.5-1.4c1.8 0 4.6.4 6 1Zm-24.3 9a58.7 58.7 0 0 0 12.5 15.5c2.4 2 6.3 5 8.6 6.5a109.3 109.3 0 0 0 23 11.2c3.4 1.1 10.5 3 15.8 4 5.3 1 11.5 2.4 13.8 3.2 2.4.7 5.9 2.5 7.8 4a36.2 36.2 0 0 1 11 15.6 47.1 47.1 0 0 1 3.2 21.5c-.1 3.3-.9 8.6-1.6 11.7-.7 3.1-2.5 10.2-4 15.6-2 7.3-2.7 12-3 17.5a43.4 43.4 0 0 0 4.7 23.8 77 77 0 0 0 5.3 9.1 96.4 96.4 0 0 0 26 23.1 108.2 108.2 0 0 0 27.5 11c4 1 10.4 2.3 14.5 2.9a242.5 242.5 0 0 0 56 0c1-.3.5 0-1.1.7a263.5 263.5 0 0 1-30 7.3 207.3 207.3 0 0 1-43.2 2.3A238 238 0 0 1 265 465a214 214 0 0 1-13.4-2.8l-13-4a180.9 180.9 0 0 1-31.2-15c-3.7-2.2-9.8-6.4-13.5-9.2a195 195 0 0 1-25.5-23.7 306 306 0 0 1-37.2-54.1l-4.9-9 1.5-3a52.4 52.4 0 0 0 4.5-23.4 86 86 0 0 0-.8-13.9c-.5-2.3-1.9-7.4-3.1-11.3-1.3-4-4.7-12-7.8-18.1-3-6-5.3-11.1-5-11.2l9.4-4.4a101 101 0 0 1 9.6-4.3c.4 0 1.4 1.4 2.2 3Zm260.5 9.4c1.1 1 3.5 2.7 5.3 3.5 2.6 1.2 4.9 1.5 12.4 1.7 5.1 0 16-.4 24.2-1.1 10.4-1 15-1 15.4-.6a248.8 248.8 0 0 1 8.4 24.8c1.1 4.4 2.7 11.7 3.5 16.4.8 4.6 1.4 11 1.4 14.2a116.1 116.1 0 0 1-12 50.4c-2 4-5.5 10.3-8 14a111 111 0 0 1-14 16.3c-5.3 5.2-13 12-17 15a125.6 125.6 0 0 1-29.7 17.5c-4.1 1.7-11.1 4-15.4 5-4.4 1.2-12 2.6-17.1 3.3a188 188 0 0 1-23.5 1.2 186.8 186.8 0 0 1-36.5-3.4 121 121 0 0 1-22.4-7.7 108 108 0 0 1-12-6.7 85 85 0 0 1-17.9-16.4c-1.5-2.2-3.9-5.7-5-7.9-1.3-2.1-3-6.1-3.9-8.8-1.3-4-1.6-6.5-1.6-12.1 0-6.3.6-9 4.2-22.7l4.2-15.6v-11.4c0-8.9-.2-12.4-1.2-16a49.2 49.2 0 0 0-10.2-19.1 39 39 0 0 0-7.1-6.2c-1.7-1-3-2-3-2a1423.8 1423.8 0 0 1 31.8-3.2c5.3-.5 15.4-1.4 22.4-2.2a454.9 454.9 0 0 0 37.7-6c4.4-.9 8.9-2.1 10-2.8 1.1-.6 2.6-1.5 3.2-2 1-.6 2-.5 5.2.5a94.3 94.3 0 0 0 26.2 3.1l6.4-.2.6 2.1 3 14a545.8 545.8 0 0 1 5.8 32.5l.4 2.4-7.7-.5a140.8 140.8 0 0 1-27.2-4.4c-3.3-1-11-4.2-17-7.1-8.4-4.2-11.6-5.4-14-5.4a8 8 0 0 0-5 1.3 14 14 0 0 0-3.3 4c-.7 1.5-1.5 4.7-1.7 7.1-.2 2.5 0 6.3.5 8.5a45 45 0 0 0 3.2 9 51.1 51.1 0 0 0 17.4 18.4 75 75 0 0 0 22.2 9.7 83.3 83.3 0 0 0 24.9 1.1 87.5 87.5 0 0 0 34-11.5 73 73 0 0 0 8.4-6.1c2.2-2 3.5-3.7 3.5-4.7 0-.9-.4-2-.9-2.4-.4-.5-1.5-.9-2.3-.9-.8 0-2.2.5-3 1.1-1.6 1.1-1.6 1-1.6-2.2 0-1.9.6-4.4 1.5-6.2a26.4 26.4 0 0 1 9.4-11.3c2-1.3 5-3.6 6.7-5 1.6-1.6 3-3.4 3-4 0-.7-.4-1.6-.9-2-.4-.5-1.4-1-2-1a36 36 0 0 0-7.6 3.6c-3.4 2-8 4.3-10.1 5a84.6 84.6 0 0 1-19.7 4.6c-5 .6-5.2.5-5.2-1a338.8 338.8 0 0 0-6.7-37.3c-1.7-7-3-13-2.8-13.3.2-.3.8-.6 1.3-.6s3.1-1 5.8-2.4a46.4 46.4 0 0 0 14.6-11.6l2.4-3 1.7 2.3c1 1.3 2.8 3.2 4 4.4Zm-361 9.6c-1.2.5-1.5 1.2-1.3 2.7.2 1.9.4 2 6.2 2.8 3.3.4 8.1 1.3 10.7 2 2.5.6 6.4 2.1 8.7 3.3 2.2 1.2 6.4 4.1 9.2 6.5 2.8 2.3 8 7 11.3 10.3 3.4 3.3 6 6.3 5.8 6.6-.2.3-1 .6-1.9.6-.8 0-3.2.8-5.3 1.8a33 33 0 0 0-7.6 5.5c-2.6 2.6-4 4.7-4.3 6.3-.2 1.3-.3 3.7-.2 5.2.2 2.3.5 2.9 1.7 3 1.2.2 1.8-.4 2.7-2.9.7-1.8 2.5-4.3 4-5.7a23.6 23.6 0 0 1 10.7-5.8c1.4-.2 5 0 7.8.3 3 .4 6 .6 7 .4.8-.3 1.5-.9 1.5-1.4 0-.5-2.5-4-5.5-7.6a275 275 0 0 0-14-15.2c-5-5-10.8-10-14-12-2.9-2-7.5-4.3-10.2-5.2a44 44 0 0 0-13.1-2c-4.6 0-8.9.1-9.8.5Zm279.1 49.2a121 121 0 0 0 14.9 6.5c3.4 1 9 2.5 12.7 3.3a149.1 149.1 0 0 0 34.5 2.1 147.3 147.3 0 0 0 19.1-2.7 7 7 0 0 1-1 2.6c-.8 1.7-2 2.7-4 3.5-1.6.6-3.7 1.7-4.8 2.4-1.2.8-2 2-2 3s.5 2 1.1 2.5c.7.6 2.2.8 4.6.5l3.6-.5v2.5c0 2.4-.2 2.6-5.2 5a95.7 95.7 0 0 1-10 4.3c-2.7 1-7.7 2.3-11 3a79 79 0 0 1-28.8-.5c-3.2-.8-7.7-2.4-10.1-3.6a50.7 50.7 0 0 1-15.1-10.3l-2.5-2.6 3.6 1.4a60 60 0 0 0 16.9 3.4 3 3 0 0 0 2.3-2.3c.3-1.5 0-2.2-1.2-3.2-.8-.7-2-1.3-2.5-1.3a95.2 95.2 0 0 1-20-6.9l-6.5-3.3-.5-3a23.8 23.8 0 0 1 .8-9.7c.2-.3.8-.6 1.4-.6.5 0 4.9 2 9.7 4.5Zm-207.1 14.7a11.7 11.7 0 0 1 5.8 6.2c.5 1.2 1 3.3 1 4.5 0 1.2-.6 3.3-1.2 4.7a14 14 0 0 1-3.5 4.2 13 13 0 0 1-5.2 2.2 14 14 0 0 1-5.2-.4c-1.3-.5-3.4-1.9-4.6-3.1a13.8 13.8 0 0 1-3-5 12.4 12.4 0 0 1 1.2-8.7c.4-.8 1.4-2 2.2-2.7.8-.7 2.6-1.8 4.1-2.3a11 11 0 0 1 4.9-.5c1.1.2 2.7.6 3.5 1Zm234 7.3a4 4 0 0 0-.8 2.3c0 .8.4 1.9.9 2.3.5.5 1.7.9 2.8.9a5 5 0 0 0 3-1.1c.6-.6 1.1-1.5 1.1-2s-.5-1.5-1.2-2.1c-.8-.7-2.1-1.2-3.1-1.2s-2.1.4-2.6.9Zm-277.1 6.6c.9.6 1.6 1.8 1.6 2.7a29 29 0 0 1-3.6 7.6L59 375c-.4.7-1.2 1.3-1.7 1.3s-1.5-.7-2.3-1.5c-.8-.9-1.2-2.5-1.2-4.4a20.3 20.3 0 0 1 5.3-12.3c1.2-1 2.6-1.7 3.3-1.7.7 0 2 .5 2.8 1.1Z" clip-rule="evenodd"/>
  <path fill="#FEFFB9" d="M397.2 270c1.1 1 3.5 2.7 5.3 3.5 2.6 1.2 4.9 1.5 12.4 1.7 5.1 0 16-.4 24.2-1.1 10.4-1 15-1 15.4-.6a248.8 248.8 0 0 1 8.4 24.8c1.1 4.4 2.7 11.7 3.5 16.4.8 4.6 1.4 11 1.4 14.2a116.1 116.1 0 0 1-12 50.4c-2 4-5.5 10.3-8 14a111 111 0 0 1-14 16.3c-5.3 5.2-13 12-17 15a125.6 125.6 0 0 1-29.7 17.5c-4.1 1.7-11.1 4-15.4 5-4.4 1.2-12 2.6-17.1 3.3a188 188 0 0 1-23.5 1.2 186.8 186.8 0 0 1-36.5-3.4 121 121 0 0 1-22.4-7.7 108 108 0 0 1-12-6.7 85 85 0 0 1-17.9-16.4c-1.5-2.2-3.9-5.7-5-7.9-1.3-2.1-3-6.1-3.9-8.8-1.3-4-1.6-6.5-1.6-12.1 0-6.3.6-9 4.2-22.7l4.2-15.6v-11.4c0-8.9-.2-12.4-1.2-16a49.2 49.2 0 0 0-10.2-19.1 39 39 0 0 0-7.1-6.2c-1.7-1-3-2-3-2a1423.8 1423.8 0 0 1 31.8-3.2c5.3-.5 15.4-1.4 22.4-2.2a454.9 454.9 0 0 0 37.7-6c4.4-.9 8.9-2.1 10-2.8 1.1-.6 2.6-1.5 3.2-2 1-.6 2-.5 5.2.5a94.3 94.3 0 0 0 26.2 3.1l6.4-.2.6 2.1 3 14a545.8 545.8 0 0 1 5.8 32.5l.4 2.4-7.7-.5a140.8 140.8 0 0 1-27.2-4.4c-3.3-1-11-4.2-17-7.1-8.4-4.2-11.6-5.4-14-5.4a8 8 0 0 0-5 1.3 14 14 0 0 0-3.3 4c-.7 1.5-1.5 4.7-1.7 7.1-.2 2.5 0 6.3.5 8.5a45 45 0 0 0 3.2 9 51.1 51.1 0 0 0 17.4 18.4 75 75 0 0 0 22.2 9.7 83.3 83.3 0 0 0 24.9 1.1 87.5 87.5 0 0 0 34-11.5 73 73 0 0 0 8.4-6.1c2.2-2 3.5-3.7 3.5-4.7 0-.9-.4-2-.9-2.4-.4-.5-1.5-.9-2.3-.9-.8 0-2.2.5-3 1.1-1.6 1.1-1.6 1-1.6-2.2 0-1.9.6-4.4 1.5-6.2a26.4 26.4 0 0 1 9.4-11.3c2-1.3 5-3.6 6.7-5 1.6-1.6 3-3.4 3-4 0-.7-.4-1.6-.9-2-.4-.5-1.4-1-2-1a36 36 0 0 0-7.6 3.6c-3.4 2-8 4.3-10.1 5a84.6 84.6 0 0 1-19.7 4.6c-5 .6-5.2.5-5.2-1a338.8 338.8 0 0 0-6.7-37.3c-1.7-7-3-13-2.8-13.3.2-.3.8-.6 1.3-.6s3.1-1 5.8-2.4a46.4 46.4 0 0 0 14.6-11.6l2.4-3 1.7 2.3c1 1.3 2.8 3.2 4 4.4Z"/>
  <path fill="#fff" fill-rule="evenodd" d="M315.3 328.8a121 121 0 0 0 14.9 6.5c3.4 1 9 2.5 12.7 3.3a149.1 149.1 0 0 0 34.5 2.1 147.3 147.3 0 0 0 19.1-2.7 7 7 0 0 1-1 2.6c-.8 1.7-2 2.7-4 3.5-1.6.6-3.7 1.7-4.8 2.4-1.2.8-2 2-2 3s.5 2 1.1 2.5c.7.6 2.2.8 4.6.5l3.6-.5v2.5c0 2.4-.2 2.6-5.2 5a95.7 95.7 0 0 1-10 4.3c-2.7 1-7.7 2.3-11 3a79 79 0 0 1-28.8-.5c-3.2-.8-7.7-2.4-10.1-3.6a50.7 50.7 0 0 1-15.1-10.3l-2.5-2.6 3.6 1.4a60 60 0 0 0 16.9 3.4 3 3 0 0 0 2.3-2.3c.3-1.5 0-2.2-1.2-3.2-.8-.7-2-1.3-2.5-1.3a95.2 95.2 0 0 1-20-6.9l-6.5-3.3-.5-3a23.8 23.8 0 0 1 .8-9.7c.2-.3.8-.6 1.4-.6.5 0 4.9 2 9.7 4.5Zm26.1 24.3c0-.8.4-1.9.9-2.3.5-.5 1.6-.9 2.6-.9s2.3.5 3 1.2c.8.6 1.4 1.6 1.4 2 0 .6-.6 1.5-1.2 2a5 5 0 0 1-3 1.2c-1 0-2.3-.4-2.8-.9-.5-.4-.9-1.5-.9-2.3Z" clip-rule="evenodd"/>
  <path fill="#FFD9B8" d="M136.7 260.6a58.7 58.7 0 0 0 12.5 15.5c2.4 2 6.3 5 8.6 6.5a109.3 109.3 0 0 0 23 11.2c3.4 1.1 10.5 3 15.8 4 5.3 1 11.5 2.4 13.8 3.2 2.4.7 5.9 2.5 7.8 4a36.2 36.2 0 0 1 11 15.6 47.1 47.1 0 0 1 3.2 21.5c-.1 3.3-.9 8.6-1.6 11.7-.7 3.1-2.5 10.2-4 15.6-2 7.3-2.7 12-3 17.5a43.4 43.4 0 0 0 4.7 23.8 77 77 0 0 0 5.3 9.1 96.4 96.4 0 0 0 26 23.1 108.2 108.2 0 0 0 27.5 11c4 1 10.4 2.3 14.5 2.9a242.5 242.5 0 0 0 56 0c1-.3.5 0-1.1.7a263.5 263.5 0 0 1-30 7.3 207.3 207.3 0 0 1-43.2 2.3A238 238 0 0 1 265 465a214 214 0 0 1-13.4-2.8l-13-4a180.9 180.9 0 0 1-31.2-15c-3.7-2.2-9.8-6.4-13.5-9.2a195 195 0 0 1-25.5-23.7 306 306 0 0 1-37.2-54.1l-4.9-9 1.5-3a52.4 52.4 0 0 0 4.5-23.4 86 86 0 0 0-.8-13.9c-.5-2.3-1.9-7.4-3.1-11.3-1.3-4-4.7-12-7.8-18.1-3-6-5.3-11.1-5-11.2l9.4-4.4a101 101 0 0 1 9.6-4.3c.4 0 1.4 1.4 2.2 3Z"/>
  <path fill="#fff" fill-rule="evenodd" d="M498.9 167.4c1.3 1 3 3.4 4 5.3 1 2 2.2 5.4 2.8 7.6.6 2.1 1.8 7.2 2.6 11.3a420.8 420.8 0 0 1 5 39c.6 8.7.7 13 0 16.7-.6 4.2-1 5.3-3 6.9a30 30 0 0 1-8 3.7 138.2 138.2 0 0 1-21 4.7l-15.6 1.7-24.9 2.2c-7.6.6-18 1-23 1-7.4 0-9.8-.2-12.1-1.3a18 18 0 0 1-5.4-4.4 118 118 0 0 1-4.8-6.5 34 34 0 0 1-3.3-6.3c-.6-1.7-2.6-4.6-4.5-6.6-1.8-2-4.4-5.4-5.7-7.7a16 16 0 0 0-4.8-5.2c-2.2-1.3-3-1.2-21.3.6-18.2 1.8-19 2-20.8 3.7a24 24 0 0 0-3.6 7.3c-1.9 5.4-1.9 5.4-5 6.2-1.7.5-4.2 1.4-5.4 2a17 17 0 0 0-7.1 8.1c-.5 1.3-1 3.7-1 5.3 0 1.7.7 4.3 1.4 6 .7 1.5 1.8 3.2 2.4 3.7.7.6 1.2 1.3 1.2 1.6 0 .3-1 .9-2.3 1.3a425.8 425.8 0 0 1-48.1 8.2 1067 1067 0 0 1-47.6 4.3c-7.2.7-17.3 1-22.4.9-7.3-.3-9.9-.6-12-1.7-1.6-.7-3.6-2.4-4.4-3.8-1-1.3-2.4-4.8-3.3-7.8-1-3-2.5-9-3.3-13.3-1-4.6-2.4-9.3-3.5-11.3a11 11 0 0 0-5.3-5.2c-2.4-1.3-5-1.9-8.3-2-2.8-.2-6.4.1-9.1.8a160 160 0 0 0-12.6 4.3 226.8 226.8 0 0 0-24 11s-2-2.3-4-5.1-6.5-7.9-9.8-11.1c-4.6-4.7-5.8-6.2-5-6.6a4708.8 4708.8 0 0 1 36.9-20.8l21.9-11.7 13.7-7.1 8.6-1.1 12.6-1.4 12.7-1.5a2786.4 2786.4 0 0 1 70-7.8 56029.6 56029.6 0 0 1 72.4-7.4 645.1 645.1 0 0 1 22-2.1 1572.6 1572.6 0 0 1 33.7-3.2 2464.7 2464.7 0 0 1 36.6-3.2 216666 216666 0 0 1 38.7-3.4c3.3-.3 10-.5 14.9-.5 8.3 0 9 0 11.2 1.7ZM455 181a240.2 240.2 0 0 1 24-1.3c5.5-.2 7.9 0 9.5 1 1.3.6 2.7 2.2 3.5 4a108 108 0 0 1 3.2 13.6l3.2 19.5c.8 5 1.5 12.6 1.6 17.2.1 7.5 0 8.5-1.4 10.3-.8 1.1-3.2 2.7-5.4 3.6-2.2.9-7.6 2-12.7 2.6l-30.6 3.3a472 472 0 0 1-28.3 2H415l-3.2-3.3a62 62 0 0 1-5.8-7.3 286.7 286.7 0 0 1-15.9-32 36 36 0 0 1-3-12.1c-.4-4.9-.2-6 1.4-9.3 1-2.1 2.8-4.2 4-5 1.4-.8 5.5-1.5 13.6-2.3l24.8-2.4c7.2-.8 18-1.7 24.1-2.1Zm-181.4 16.6a633 633 0 0 0 18.8-2c3.8-.6 8.6-.8 10.7-.6 2.1.2 4.8.8 5.9 1.3 1 .5 2.7 2.2 3.7 3.6 1 1.5 2 4.4 2.5 6.5a66.9 66.9 0 0 1-.4 22.8A252.4 252.4 0 0 1 307 260c-.6 1.3-1.8 3-2.5 3.7-.8.6-5.3 2.1-10 3.2a488.7 488.7 0 0 1-59.6 8.5 405 405 0 0 1-24.5 1.6c-5 0-8.8-.2-10.6-.8-1.6-.6-3.9-1.8-5.1-2.7-1.4-1-2.8-3.1-3.7-5.6a89 89 0 0 1-3-12 211.1 211.1 0 0 1-2.9-31.3c0-6.9.3-10 1.1-12 .6-1.4 2-3.1 3.3-3.9a37 37 0 0 1 9.4-2.4 1139.9 1139.9 0 0 1 54.9-6.9l19.8-1.8Z" clip-rule="evenodd"/>
  <path fill="#FFD7EC" d="M485.5 190c.4 1.4 1.9 8.9 3.2 16.5 1.4 7.6 2.9 18.2 3.2 23.6.4 5.4.5 10.2.3 10.8-.2.5-1.8 1.3-3.7 1.7-1.8.5-8.7 1.4-15.4 2.2a1280 1280 0 0 1-49.2 4.5c-5 .3-5.4.2-7-1.5-1-1-3.1-4-4.8-6.5-1.7-2.6-4.7-8-6.7-12s-5.2-11-7-15.3c-2.8-6.8-3.3-8.6-3.3-13 0-3.6.3-5.4 1-6.2.8-.7 6.9-1.6 22.7-3.2 12-1.2 28-2.6 35.5-3.1 7.6-.6 17.6-1 22.2-1.1h8.3l.7 2.6Z"/>
  <path fill="#C6FFB9" d="M383.7 247.9a9.7 9.7 0 0 1 2.8 5.3c.4 2.3.2 3.7-1 6.2-.9 1.7-3.1 4.5-5 6.2a50 50 0 0 1-18.9 9.8 47 47 0 0 1-9.4 1.4 102.4 102.4 0 0 1-22.6-3.7c-2.2-.8-5-2.4-6.2-3.5-1.3-1.1-2.8-3-3.3-4.2a9.1 9.1 0 0 1-.4-4.5 9.3 9.3 0 0 1 2.4-4.2c1-1 2.8-2.2 4-2.6a45 45 0 0 1 15 0l8.1 1.4c4.4.6 6.2.5 9.6-.4a50 50 0 0 0 9.9-4.3c3-1.8 6.7-3.7 8.1-4.2 1.5-.5 3-1 3.6-1 .5 0 2 1 3.3 2.3Z"/>
  <path fill="#CEF0FF" d="M305.4 204.2c.7.7 1.5 2.7 1.9 4.4a56.8 56.8 0 0 1 0 18 237.8 237.8 0 0 1-7.4 29.6 8 8 0 0 1-1.8 2.5c-.5.3-4.3 1.3-8.5 2.2-4.3.9-13.8 2.4-21 3.4A776.7 776.7 0 0 1 219 269c-10.4.7-14.2.7-16.6 0a7.2 7.2 0 0 1-4.4-3 26 26 0 0 1-2.1-5.8 187.5 187.5 0 0 1-2.8-33.2c0-7.8.2-11.4.8-12.2.6-.9 2.6-1.5 5.9-2a2475.2 2475.2 0 0 1 49.3-6 2138.1 2138.1 0 0 1 47.3-3.8c6.7 0 8 .1 9 1.2Z"/>
  <path fill="#FEFFB9" d="M430.5 112.1a156.3 156.3 0 0 1 9.2 26.2 151 151 0 0 1 3.6 20l.4 3.3-9.4.8a4441.9 4441.9 0 0 0-51.7 4.7 5485 5485 0 0 1-36.9 3.5 2321.7 2321.7 0 0 1-36.6 3.6A11060 11060 0 0 0 180 188.4l-13.5 1.5c-2.3.3-6.1 1.8-10.9 4.2l-7.7 3.9a160.3 160.3 0 0 1 9-16 138 138 0 0 1 30.3-31.7 160 160 0 0 1 25.6-16 132.8 132.8 0 0 1 30.1-10.2c6-1.4 9.7-1.7 20.2-1.7 11 0 14 .3 22.4 2L305 128a252.1 252.1 0 0 0 42 3.9c6.2 0 14.6-.4 18.7-1a164.4 164.4 0 0 0 27.6-6.1 98.3 98.3 0 0 0 23.2-11 47.9 47.9 0 0 0 10.3-8.8c.2 0 2 3.2 3.8 7.1Z"/>
  <path fill="#FFD9B8" d="M345 71.3a229.6 229.6 0 0 1 34.4 6.8 187 187 0 0 1 36 14.4c5.4 2.9 6.7 4 6.8 5.4.2 1-.5 2.9-1.4 4.2-1 1.4-3.6 4-6 5.8a82.8 82.8 0 0 1-9.2 5.8 111 111 0 0 1-28.3 9.4c-4.7 1-13 2-18.3 2.5-7.4.6-12.5.6-21 0a330.9 330.9 0 0 1-41.1-5.8c-7.9-1.5-18.2-3.1-22.9-3.6-6.6-.6-10.7-.6-18 0-5.1.5-12.7 1.6-16.9 2.5-4 1-10.5 2.7-14.2 4a165.3 165.3 0 0 0-33.6 16.9 225 225 0 0 0-14.2 10.3 179.8 179.8 0 0 0-24 24.6l-7.3 11c-1.9 3.2-4.6 8.4-6 11.7a37.1 37.1 0 0 1-3.7 6.8c-.5.4-5.7 3.5-11.5 6.7l-13 7.3-2.3 1.4 1.1-3.8a262.4 262.4 0 0 1 8.5-22.9 181.3 181.3 0 0 1 39.6-56.2c5.6-5.5 13.4-12.6 17.4-15.8a277.5 277.5 0 0 1 33.1-22 285.2 285.2 0 0 1 28-12.9 244.6 244.6 0 0 1 59.4-14.6 281.5 281.5 0 0 1 48.6 0Z"/>
  <path fill="#C6FFB9" d="M311.3 16.2a201 201 0 0 1 36.2 8.9c5.1 1.8 13 5.2 17.7 7.6a199.3 199.3 0 0 1 29.1 18.2A176.8 176.8 0 0 1 417.8 74a146 146 0 0 1 11 16.7c0 .2-5.5-2.4-12.3-5.7a255 255 0 0 0-19.7-8.8 247 247 0 0 0-48.3-12c-4.5-.6-13.9-.9-28.4-.8-18.8 0-23 .2-32 1.6-5.6.9-14.5 2.6-19.8 3.7a290.6 290.6 0 0 0-43 14 265.5 265.5 0 0 0-29 15.3 245.9 245.9 0 0 0-25.7 18 254.5 254.5 0 0 0-29.8 29 236 236 0 0 0-23.9 36c-2.5 4.8-6 12.5-7.8 17-1.8 4.5-4.3 12.1-5.7 17l-2.4 8.9-4.1 2.6-7.4 4.6c-1.8 1-3.4 2.2-3.7 2.6-.2.4-1.3.1-2.5-.6-2-1.2-2.3-1.8-3.1-7a175 175 0 0 1-1-23.2 94 94 0 0 1 2.4-28c1.3-5.9 3.5-14.3 5-18.8a182.5 182.5 0 0 1 31.8-56.8 257.4 257.4 0 0 1 34.3-34A290.2 290.2 0 0 1 189 41a268.8 268.8 0 0 1 35.6-15.6 222.2 222.2 0 0 1 44-10 276.5 276.5 0 0 1 42.7.7Z"/>
  <path fill="#FFD9B8" d="M268 7.6c2.7.5 2.6.5-2.2 1a231.7 231.7 0 0 0-86.8 30 288.2 288.2 0 0 0-31 21.2 275.9 275.9 0 0 0-34 33.4c-3.9 4.7-10 12.9-13.4 18.1A213.1 213.1 0 0 0 81 150.2c-1.5 4.2-3.4 10.8-4.3 14.6a21 21 0 0 1-2.2 6.4 51 51 0 0 1-2.7-6.3 54 54 0 0 0-11.2-18.3c-2-2-5.7-4.9-8-6.2l-6.4-3.6c-1.1-.7-2.6-2-3.2-3a9 9 0 0 1-1.3-4.3c0-1.7.7-3.6 2.7-6.5a56 56 0 0 1 6.3-7.6c2-2 7.4-6.6 12-10.4A624.4 624.4 0 0 1 94 81.8c3.5-2.4 10.4-6.8 15.4-9.8 4.9-3 10.4-6.7 12.2-8.3 1.8-1.5 3.4-3.7 3.6-4.8a8 8 0 0 0-.2-3.8c-.4-1-2.3-3-4.1-4.2a86.2 86.2 0 0 1-8.5-7.4 43.8 43.8 0 0 1-6.9-8.5 49 49 0 0 1-2.7-6.6c-.7-2.6-.7-3.2 0-3.7.6-.3 3.6-.8 6.8-1 3.1-.2 17-.5 31-.7 18.9-.2 26.8-.5 32-1.4 3.8-.6 10.6-2 15-2.9l25.3-5.6C222.5 11 233 9 236 8.4l8.5-1a249.5 249.5 0 0 1 23.5.2Z"/>
  <path fill="#FEFFB9" fill-rule="evenodd" d="M71 236c3.2 1.1 8 3.5 10.9 5.3a92.3 92.3 0 0 1 18.5 16c3 3.6 6.1 8.6 10.1 16.4a134.8 134.8 0 0 1 12.6 31.6c1 4 2 9.9 2.2 13 .3 4.4 0 7.4-1.1 13.1a49 49 0 0 1-3 10.1l-1.5 2.7-2.6-2.8a18 18 0 0 0-13.8-5.9c-3 0-5.4.5-7.7 1.6a20.2 20.2 0 0 0-9.7 10.8 20.2 20.2 0 0 0 .3 13c.6 1.6 1.6 3.3 2.2 4 .8.8.8 1.3.3 1.7-.4.2-4.1.8-8.2 1.2-4.1.4-7.7.6-7.9.4-.2-.3.1-1.2.7-2 .7-1 1.2-3.1 1.2-5.2 0-1.9-.5-4.5-1.1-5.8-.7-1.3-2.4-3.2-4-4.3a15 15 0 0 0-5.9-2.2c-2.5-.3-3.8 0-6.3 1.4-1.7 1-4.1 3-5.3 4.4a11 11 0 0 0-2.3 3.2c0 .4-.3.7-.7.7-.5 0-2.7-1.4-5-3.2a101.8 101.8 0 0 1-25.2-28.8 81.1 81.1 0 0 1-9-24.8c-.4-2.5-.8-8.6-.8-13.5a56 56 0 0 1 5.8-27.2 53.8 53.8 0 0 1 13.5-18 52.3 52.3 0 0 1 14.7-8 41 41 0 0 1 16.8-1.3c3 .3 8 1.4 11.3 2.5Zm-36.1 46.3c-.2-1.5.1-2.2 1.4-2.7.9-.4 5.2-.6 9.8-.4 6 .2 9.5.7 13 2 2.8.8 7.4 3.1 10.4 5 3 2 9 7.2 14 12.1a275 275 0 0 1 14 15.2c3 3.7 5.4 7 5.4 7.6 0 .5-.7 1.1-1.6 1.4-.8.2-4 0-6.9-.4-2.9-.4-6.4-.5-7.8-.2a23.6 23.6 0 0 0-10.7 5.7c-1.5 1.4-3.3 4-4 5.7-1 2.5-1.5 3.1-2.7 3-1.2-.2-1.5-.8-1.7-3-.1-1.6 0-4 .2-5.3.3-1.6 1.7-3.7 4.3-6.3a33 33 0 0 1 7.6-5.5c2-1 4.5-1.8 5.3-1.8.9 0 1.7-.3 2-.6.1-.3-2.5-3.3-5.9-6.6a190 190 0 0 0-11.3-10.3c-2.8-2.4-7-5.3-9.2-6.5a46.2 46.2 0 0 0-8.7-3.3c-2.6-.7-7.4-1.6-10.7-2-5.8-.8-6-1-6.2-2.8Z" clip-rule="evenodd"/>
  <path fill="#BCC6D3" d="M108.2 343.5a11.7 11.7 0 0 1 5.8 6.2c.5 1.2 1 3.3 1 4.5 0 1.2-.6 3.3-1.2 4.7a14 14 0 0 1-3.5 4.2 13 13 0 0 1-5.2 2.2 14 14 0 0 1-5.2-.4c-1.3-.5-3.4-1.9-4.6-3.1a13.8 13.8 0 0 1-3-5 12.4 12.4 0 0 1 1.2-8.7c.4-.8 1.4-2 2.2-2.7.8-.7 2.6-1.8 4.1-2.3a11 11 0 0 1 4.9-.5c1.1.2 2.7.6 3.5 1ZM65 357.4c1 .6 1.7 1.8 1.7 2.7a29 29 0 0 1-3.6 7.6L59 375c-.4.7-1.2 1.3-1.7 1.3s-1.5-.7-2.3-1.5c-.8-.9-1.2-2.5-1.2-4.4a20.3 20.3 0 0 1 5.3-12.3c1.2-1 2.6-1.7 3.3-1.7.7 0 2 .5 2.8 1.1Z"/>
  <path fill="#FEFFB9" d="m375.4 238.1.8 2a44.2 44.2 0 0 0-9 4.7c-3 2.1-6.4 4.2-7.5 4.6-1.2.5-3.5.6-6.4.3l-9.7-1.4c-3-.5-5.6-1.1-6-1.4-.3-.3 0-2.1.6-4.1 1.2-3.4 1.3-3.6 4.3-4a369.3 369.3 0 0 1 26.7-2.4c5.1 0 5.4 0 6.2 1.7Z"/>
  <path fill="#000" fill-rule="evenodd" d="M243.5.7c-3.8.3-11.1 1.2-16.4 2-5.2.9-17.5 3-27.3 5l-22 4.2-10 1.5c-3 .4-18.6 1-34.4 1.3l-28.7.4L101 17c-2 1-4.3 2.9-5.2 4.3-1.5 2.1-1.6 3-1.3 7 .2 3.2 1 6 3 9.9 2.1 4.4 4 6.8 10 12.8 6 5.9 7.3 7.5 6.6 8.3-.4.5-6 4.2-12.5 8.2a421.9 421.9 0 0 0-50.2 36.8A55.2 55.2 0 0 0 36 122.4a17.1 17.1 0 0 0-2 7.3c0 1.9.6 4.4 1.6 6.4 1 1.9 2.5 4 3.4 4.9.9.8 3.9 3 6.6 4.7 2.8 1.7 6.5 4.8 8.3 6.8 1.8 2 4.3 5.8 5.7 8.4 1.4 2.7 3.5 7.6 4.7 10.9 1.2 3.3 3.2 9.9 4.6 14.5 2.5 8.2 2.6 9 2.5 19.2 0 5.9.3 13.3.8 16.6.5 3.3.7 6.1.5 6.3-.3.2-3-.1-6-.8-3-.7-8-1.4-11.1-1.6-4-.3-7-.1-10.3.7a69.4 69.4 0 0 0-21.7 11 66.7 66.7 0 0 0-19.3 28.1c-.9 2.7-2.1 7.7-2.7 11a93.5 93.5 0 0 0 2.2 37.6 94.5 94.5 0 0 0 13 26A110.8 110.8 0 0 0 40 363.1c6 4.1 6 4.2 6 7.2 0 1.7.6 4.3 1.2 5.7.6 1.5 1.8 3.4 2.6 4.3.9 1 2.5 2.2 3.7 2.8 1.5.7 3 .9 5.9.5 3.3-.4 4.3-.9 7.3-3.8l3.4-3.3H79c7.5 0 9.4-.3 14-2 3.5-1.2 7.2-2 10.7-2a21 21 0 0 0 7.8-1.6 21.8 21.8 0 0 0 8.6-8.4c.7-1.4 1.3-3 1.3-3.7 0-.6.3-1 .6-1s2.7 3.8 5.3 8.5c2.6 4.6 4.8 8.8 4.8 9l11.5 16.7c3 4.4 6.7 9.5 8.2 11.4l23.9 26.2a195.3 195.3 0 0 0 41.6 28.3c3.3 1.6 8.4 3.8 11.2 5a173.1 173.1 0 0 0 39.4 10.2l12 1.4h15a201.9 201.9 0 0 0 41.3-4.3c4.7-1 12.2-2.8 16.7-4.1 4.5-1.4 8.5-2.4 8.9-2.3l9.2-3.3 8.5-3.7a231.1 231.1 0 0 0 45.4-26.7 167.5 167.5 0 0 0 22-21.3 146.7 146.7 0 0 0 15.5-23.3c1.8-3.3 4.4-9.3 5.9-13.2a137.4 137.4 0 0 0 6.8-29.1c.4-4 .7-12.4.7-18.9 0-9-.3-13.4-1.4-19a166.2 166.2 0 0 0-8.1-27.2l-2.5-6.2 7.2-.8a302.2 302.2 0 0 0 31.7-5.4c3.7-1 7.8-2.4 9.2-3.1 1.4-.7 3.4-2.2 4.4-3.3 1.1-1.2 2.5-3.5 3.1-5.3.7-1.7 1.4-5.6 1.6-8.6.2-3 0-10-.5-15.6a572.9 572.9 0 0 0-5-39.3 86.3 86.3 0 0 0-6-21.6 27.6 27.6 0 0 0-3.5-5.6 28 28 0 0 0-3.4-3c-1-.8-3.4-1.7-5.2-2-1.9-.4-7.6-.4-13 0a1242.6 1242.6 0 0 0-30.7 2.2c-1.7.2-1.8 0-2.6-7a162.2 162.2 0 0 0-12.5-45.4l-3.4-7 1.2-3c1-2.7 1-3.6.3-6.1-.5-1.7-2.1-5.3-3.7-8s-5.2-8-8-11.7A159.4 159.4 0 0 0 371.3 28a200.2 200.2 0 0 0-38-14.7c-7.8-2.4-18.4-5.4-23.5-6.7a211.2 211.2 0 0 0-66.3-6Zm22.3 8c4.8-.6 5-.6 2.2-1.1a249.5 249.5 0 0 0-23.4-.1 76 76 0 0 0-8.6 1c-3.1.4-13.5 2.5-23 4.6l-25.4 5.6a392 392 0 0 1-15 3c-5.2.8-13.1 1.1-32 1.3-14 .2-27.9.5-31 .7-3.2.2-6.2.7-6.7 1-.8.5-.8 1.1 0 3.7a49 49 0 0 0 2.6 6.6c1 1.9 4 5.7 6.9 8.5 2.8 2.7 6.6 6 8.5 7.4 1.8 1.3 3.7 3.2 4 4.2a8 8 0 0 1 .3 3.8c-.2 1.1-1.8 3.3-3.6 4.8-1.8 1.6-7.3 5.3-12.2 8.3a446.9 446.9 0 0 0-58.8 43.4 56 56 0 0 0-6.3 7.6c-2 2.9-2.7 4.8-2.7 6.5 0 1.4.6 3.3 1.3 4.3.6 1 2 2.3 3.2 3l6.4 3.6a44.3 44.3 0 0 1 14.3 14.4c1.5 2.4 3.7 7 4.9 10a56 56 0 0 0 2.7 6.4c.3.3 1.3-2.6 2.2-6.4.9-3.8 2.8-10.4 4.3-14.6a213.1 213.1 0 0 1 19.7-38.9c3.5-5.2 9.5-13.4 13.4-18a275.9 275.9 0 0 1 34-33.4 288.2 288.2 0 0 1 31-21.2 260.6 260.6 0 0 1 54.9-23.5 263 263 0 0 1 32-6.6Zm64 11a257 257 0 0 0-18.5-3.5c-7.5-1-13-1.4-23.4-1.3-7.4 0-16.2.3-19.4.6a169.6 169.6 0 0 0-28 5.3 321 321 0 0 0-16 4.7A268.8 268.8 0 0 0 189 41a314.5 314.5 0 0 0-36.4 24.1 257.4 257.4 0 0 0-34.3 34c-4 5-9.1 12-11.6 15.7a226.9 226.9 0 0 0-14 25.6c-2 4-4.7 11-6.2 15.6-1.5 4.5-3.7 13-5 18.8a94 94 0 0 0-2.4 28c0 11.5.3 19.4 1 23.2.8 5.2 1.1 5.8 3 7 1.3.7 2.4 1 2.6.6.3-.4 2-1.6 3.7-2.6l7.4-4.6 4.1-2.6 2.4-8.9c1.4-4.9 4-12.5 5.7-17 1.8-4.5 5.3-12.2 7.8-17a236.5 236.5 0 0 1 24-36 264.9 264.9 0 0 1 29.7-29 245.9 245.9 0 0 1 54.9-33.1 315 315 0 0 1 43-14 174.1 174.1 0 0 1 51.8-5.4c14.4 0 23.8.2 28.3.9a247 247 0 0 1 48.3 12 255 255 0 0 1 19.7 8.7 159 159 0 0 0 12.3 5.7c0-.3-1.5-2.8-3.2-5.7a146 146 0 0 0-7.8-11 157.7 157.7 0 0 0-70.2-49c-5-1.8-13-4.2-17.8-5.3Zm33.3 54.4c-4.7-1-12.8-2.2-18.1-2.8a281.5 281.5 0 0 0-48.6 0 315.9 315.9 0 0 0-28.4 4.9 309.5 309.5 0 0 0-31 9.6 285.2 285.2 0 0 0-27.9 13 278.7 278.7 0 0 0-33.2 21.9 258.2 258.2 0 0 0-32.7 32.5 243.7 243.7 0 0 0-17.5 26 181.3 181.3 0 0 0-15.3 36.4l-1 3.8 2.3-1.4c1.2-.8 7-4 12.9-7.3 5.8-3.2 11-6.3 11.5-6.7a33 33 0 0 0 3.6-6.8 125.9 125.9 0 0 1 37.4-47.3 175.6 175.6 0 0 1 32-20.5c5-2.5 12.2-5.5 15.8-6.7 3.7-1.3 10.1-3 14.2-4 4.2-.9 11.8-2 17-2.5 7.2-.6 11.3-.6 17.9 0 4.7.5 15 2 22.9 3.6 7.9 1.6 17.9 3.3 22.2 3.9a419 419 0 0 0 19 1.9c8.4.6 13.5.6 20.9 0a151 151 0 0 0 34.3-6.9c4-1.4 9.6-3.7 12.3-5 2.6-1.4 6.8-4 9.2-5.8 2.4-1.8 5-4.4 6-5.8 1-1.3 1.6-3.2 1.4-4.2-.1-1.5-1.4-2.5-6.9-5.5A187 187 0 0 0 379.4 78c-4.3-1.2-11.6-3-16.3-4Zm72.9 51.3a156.3 156.3 0 0 0-9.3-20.4 47.9 47.9 0 0 1-10.3 8.8 98.3 98.3 0 0 1-36.6 14.6c-3.7.8-10.1 2-14.2 2.5a176.9 176.9 0 0 1-40.3 0 348.7 348.7 0 0 1-40-6.6 90.8 90.8 0 0 0-22.3-1.9 83 83 0 0 0-20.3 1.6c-4 1-10.8 2.7-14.9 4a149.2 149.2 0 0 0-29.8 14.6c-3.7 2.4-8.6 6-11 7.7a138 138 0 0 0-30.3 31.7 160.3 160.3 0 0 0-8.9 16l7.7-3.9c4.8-2.4 8.6-4 11-4.2a2213 2213 0 0 1 32.6-3.7 61356 61356 0 0 1 90.5-9.9 11060 11060 0 0 1 74.2-7.4 5485 5485 0 0 0 38-3.6 3378.7 3378.7 0 0 0 32.5-2.9l9.4-.8-.4-3.3-1.1-8.3a151 151 0 0 0-6.2-24.6Zm66.9 47.3c-1-2-2.7-4.3-4-5.3-2.2-1.6-2.9-1.7-11.2-1.7-4.9 0-11.6.2-15 .5A14395.3 14395.3 0 0 0 290 183.4a56029.6 56029.6 0 0 0-75.7 8.2 2786.4 2786.4 0 0 0-27.6 3.2l-12.6 1.4-8.6 1-13.7 7.2a1793.1 1793.1 0 0 0-44 24L93 236.9c-.8.4.4 2 5 6.6a120.1 120.1 0 0 1 13.8 16.2 226.8 226.8 0 0 1 24-11 160 160 0 0 1 12.6-4.3c2.7-.7 6.3-1 9.1-.9 3.3.2 5.9.8 8.3 2a11 11 0 0 1 5.3 5.3c1.1 2 2.6 6.7 3.5 11.3.8 4.4 2.3 10.4 3.3 13.3.9 3 2.4 6.5 3.3 7.8.8 1.4 2.8 3 4.3 3.8 2.2 1 4.8 1.4 12.1 1.7 5.1.1 15.2-.2 22.4-.9a8656.7 8656.7 0 0 0 47.6-4.3 425.8 425.8 0 0 0 48.1-8.2c1.3-.4 2.3-1 2.3-1.3 0-.3-.5-1-1.2-1.6-.6-.5-1.7-2.2-2.4-3.8-.7-1.6-1.3-4.2-1.3-5.9 0-1.6.4-4 .9-5.3a17 17 0 0 1 7.1-8.1c1.2-.6 3.7-1.5 5.4-2 3.1-.8 3.1-.8 5-6.2 1-3 2.6-6.3 3.6-7.3 1.8-1.8 2.6-2 20.8-3.7 18.3-1.8 19-1.9 21.3-.6 1.4.7 3.3 2.9 4.8 5.3a58 58 0 0 0 5.7 7.6c1.9 2 3.9 5 4.5 6.6a34 34 0 0 0 3.3 6.3 118 118 0 0 0 4.8 6.5 18 18 0 0 0 5.4 4.4c2.3 1 4.7 1.3 12 1.3 5.1 0 15.5-.4 23.1-1a1320.4 1320.4 0 0 0 40.5-4 138.2 138.2 0 0 0 21-4.7 30 30 0 0 0 8-3.6c2-1.6 2.4-2.7 3-6.9.7-3.7.6-8 0-16.7a406.7 406.7 0 0 0-5-39c-.8-4-2-9.2-2.6-11.3-.6-2.2-1.9-5.6-2.8-7.6Zm-421 68.6a55.7 55.7 0 0 0-11-5.2 62 62 0 0 0-11.2-2.5 41 41 0 0 0-16.8 1.2 52.3 52.3 0 0 0-14.7 8.1 53.8 53.8 0 0 0-17.7 30 56 56 0 0 0-1.6 15.2c0 5 .4 11 .9 13.5a81.1 81.1 0 0 0 17 36.9 101.8 101.8 0 0 0 17 16.7 24 24 0 0 0 5 3.2c.5 0 .8-.3.8-.7 0-.3 1-1.8 2.3-3.2 1.2-1.4 3.6-3.3 5.3-4.4 2.5-1.4 3.8-1.7 6.3-1.4a15 15 0 0 1 6 2.2c1.5 1.1 3.2 3 3.9 4.3.6 1.3 1 4 1 5.8 0 2-.4 4.2-1 5.1-.7 1-1 1.8-.8 2 .2.3 3.8.1 7.9-.3 4-.4 7.8-1 8.2-1.2.5-.4.5-.9-.3-1.7-.6-.7-1.6-2.4-2.2-4a20.2 20.2 0 0 1-.3-13 19.5 19.5 0 0 1 9.6-10.8c2.4-1 4.9-1.6 7.7-1.6a18 18 0 0 1 13.9 5.9l2.6 2.8 1.5-2.7a49 49 0 0 0 3-10c1.2-5.8 1.4-8.8 1.1-13.2a98.4 98.4 0 0 0-6.5-26.8c-1.4-3.6-5-11.6-8.3-17.8-4-7.8-7.1-12.8-10.1-16.4a92.3 92.3 0 0 0-18.5-16Zm294.3-1.1-.8-2c-.8-1.8-1-1.9-6.2-1.8a227.7 227.7 0 0 0-26.7 2.3c-3 .5-3.1.7-4.3 4-.6 2-.9 3.9-.6 4.2.4.3 3 1 6 1.4l9.7 1.4c3 .3 5.2.2 6.4-.3 1.1-.4 4.5-2.5 7.6-4.5a44.2 44.2 0 0 1 9-4.7Zm10.3 13c-.3-2-1.3-3.8-2.8-5.3-1.3-1.3-2.8-2.3-3.3-2.3s-2.1.5-3.6 1c-1.4.5-5 2.4-8.1 4.2a50 50 0 0 1-9.9 4.3c-3.4.9-5.2 1-9.6.4-2.9-.4-6.6-1-8.1-1.5a45 45 0 0 0-15 .1c-1.2.4-3 1.6-4 2.6s-2.1 3-2.4 4.2c-.2 1.4 0 3.3.4 4.5.5 1.2 2 3 3.3 4.2a24 24 0 0 0 6.2 3.5 102.4 102.4 0 0 0 22.7 3.7 47 47 0 0 0 28.2-11.2c1.9-1.7 4.1-4.5 5-6.2a8.7 8.7 0 0 0 1-6.2Zm-221.6 2c-.8-1.7-2-2.8-4-3.6-1.4-.6-4.2-1-6-1a29 29 0 0 0-7.5 1.4c-2.9 1-4 1.8-4 2.7 0 .7 1.2 3.1 2.7 5.5a55 55 0 0 0 13.7 14 104.5 104.5 0 0 0 12 7.5c.3 0-.2-2.3-1.2-5.3-.9-2.9-2.3-8.2-3-11.9a57 57 0 0 0-2.7-9.2ZM141.5 268c-1.8-2.4-4-5.7-4.8-7.4-.8-1.6-1.8-3-2.2-3-.4 0-4.7 2-9.6 4.3l-9.4 4.4c-.3.1 2 5.1 5 11.2 3 6 6.5 14.2 7.8 18a70.8 70.8 0 0 1 3.9 25.3 52.4 52.4 0 0 1-4.4 23.4l-1.6 3 5 9a328 328 0 0 0 37.2 54 195 195 0 0 0 39 33 198 198 0 0 0 31 15l13.1 4c3.2.8 9.2 2 13.4 2.8a238 238 0 0 0 18.6 2.1 207.3 207.3 0 0 0 43.2-2.3 263.5 263.5 0 0 0 30-7.3c1.6-.6 2-1 1-.8l-11.3 1.2a242.5 242.5 0 0 1-44.6-1.1 144.4 144.4 0 0 1-28.8-7.5 108.2 108.2 0 0 1-22.7-12.7 112.9 112.9 0 0 1-16.5-16.8 59.5 59.5 0 0 1-9.2-20c-1-4-1.1-7.3-.8-13 .3-5.4 1-10.1 3-17.4 1.5-5.4 3.3-12.5 4-15.6a89 89 0 0 0 1.7-11.7 50.2 50.2 0 0 0-3.2-21.5 36.2 36.2 0 0 0-11-15.6c-2-1.5-5.5-3.3-7.9-4-2.3-.8-8.5-2.3-13.8-3.3-5.3-1-12.4-2.8-15.9-4a119 119 0 0 1-22.9-11c-2.3-1.6-6.2-4.6-8.6-6.6a59 59 0 0 1-7.7-8Zm261 5.5a23.3 23.3 0 0 1-9.3-8l-1.7-2.2-2.4 3a46.4 46.4 0 0 1-20.4 14 2 2 0 0 0-1.3.6c-.2.3 1 6.3 2.8 13.3a338.8 338.8 0 0 1 6.7 37.2c0 1.6.1 1.7 5.2 1.2a84.6 84.6 0 0 0 19.7-4.6c2.2-.8 6.7-3.1 10.1-5 3.4-2 6.8-3.6 7.5-3.6.7 0 1.7.4 2.1.8.5.5.9 1.4.9 2 0 .7-1.4 2.5-3 4a58.1 58.1 0 0 1-6.7 5c-2 1.3-4.5 3.7-5.7 5.4a56.6 56.6 0 0 0-3.7 6c-.9 1.8-1.5 4.3-1.5 6.2 0 3.3 0 3.3 1.6 2.2.8-.6 2.2-1.1 3-1.1.8 0 1.9.4 2.3.9.5.4.9 1.5.9 2.4 0 1-1.3 2.7-3.5 4.7a65.3 65.3 0 0 1-18.3 11.2 87.5 87.5 0 0 1-49 5.3 75 75 0 0 1-22.2-9.7 51.1 51.1 0 0 1-17.3-18.5 45 45 0 0 1-3.3-8.9c-.5-2.2-.7-6-.5-8.5a24 24 0 0 1 1.7-7 14 14 0 0 1 3.3-4.1 8 8 0 0 1 5-1.3c2.4 0 5.6 1.2 14 5.4 6 3 13.7 6.1 17 7a140.8 140.8 0 0 0 27.2 4.5l7.7.5-.4-2.4-1.9-11.5a545.8 545.8 0 0 0-7-35l-.5-2-6.4.1a104.3 104.3 0 0 1-26.2-3c-3.2-1-4.2-1.1-5.2-.4l-3.2 2c-1.1.6-5.6 1.8-10 2.7a341 341 0 0 1-37.7 6c-7 .8-17 1.7-22.3 2.2a1423.8 1423.8 0 0 0-31.8 3.2 39 39 0 0 1 16.4 17.7c1.4 2.7 3 7 3.8 9.6 1 3.6 1.2 7.1 1.2 16v11.4L236 366a77.2 77.2 0 0 0-4.2 22.7c0 5.6.3 8.1 1.6 12a61.9 61.9 0 0 0 9 16.8 85 85 0 0 0 41.9 28c3.1 1 7.7 2.2 10.3 2.8a186.8 186.8 0 0 0 36.6 3.4c9.3 0 17.3-.4 23.4-1.2 5-.7 12.7-2.1 17-3.2 4.4-1.1 11.4-3.4 15.5-5a125.6 125.6 0 0 0 29.8-17.5c4-3 11.6-9.9 16.9-15.1a111 111 0 0 0 14-16.3c2.5-3.7 6-10 8-14a144.2 144.2 0 0 0 9.4-27.3 116.1 116.1 0 0 0 2.6-23.1c0-3.2-.6-9.6-1.4-14.3a221.2 221.2 0 0 0-8.5-32.2c-1.6-4.5-3.1-8.5-3.4-8.9-.4-.5-5-.3-15.4.6-8.2.7-19.1 1.2-24.2 1-7.5-.1-9.8-.4-12.4-1.6Zm-72.3 61.8c-3.4-1.1-10-4-14.9-6.5a74.7 74.7 0 0 0-9.7-4.5c-.6 0-1.2.3-1.4.6-.2.4-.5 2-.8 3.6-.3 1.6-.3 4.3 0 6l.5 3.1 6.6 3.3a95.2 95.2 0 0 0 20 6.9c.4 0 1.6.6 2.4 1.3 1.3 1 1.5 1.7 1.2 3.2a3 3 0 0 1-2.4 2.3 56.9 56.9 0 0 1-16.8-3.4l-3.6-1.4 2.4 2.6a50.7 50.7 0 0 0 15.2 10.3 52.6 52.6 0 0 0 24.3 5.1 79 79 0 0 0 25.6-4 93 93 0 0 0 10-4.2c5-2.5 5.2-2.7 5.2-5.1V352l-3.6.5c-2.4.3-3.9.1-4.6-.5-.6-.5-1-1.6-1-2.5 0-1 .7-2.2 1.9-3 1-.7 3.2-1.8 4.8-2.4 2-.8 3.2-1.8 4-3.5a7 7 0 0 0 1-2.6 147.3 147.3 0 0 1-19.1 2.7c-6.2.6-11.3.6-18.3 0-5.3-.4-12.6-1.4-16.2-2.1-3.6-.8-9.3-2.3-12.7-3.3Zm-218.9 10.4c-1-.9-2.3-1.9-3-2.2l-3.6-1a11 11 0 0 0-4.9.6c-1.5.5-3.3 1.6-4.1 2.3-.8.7-1.8 2-2.2 2.7-.4.8-1 2.5-1.3 3.8-.3 1.3-.2 3.5.2 5 .4 1.4 1.7 3.6 2.9 4.9a14 14 0 0 0 4.6 3c1.3.5 3.7.7 5.2.5a13 13 0 0 0 5.2-2.2 14 14 0 0 0 3.5-4.2c.6-1.4 1.2-3.5 1.2-4.7 0-1.2-.5-3.3-1-4.6-.6-1.3-1.8-3-2.7-4ZM66.7 360c0-.9-.7-2.1-1.6-2.7a6.1 6.1 0 0 0-2.8-1.1c-.7 0-2.1.8-3.3 1.8-1.1 1-2.8 3.4-3.7 5.5a21 21 0 0 0-1.6 6.7c0 2 .4 3.5 1.2 4.4.8.8 1.8 1.5 2.3 1.5.5 0 1.3-.6 1.7-1.3l4.2-7.2a29 29 0 0 0 3.6-7.6Z" clip-rule="evenodd"/>
  <path fill="#000" d="M36.3 279.6c-1.3.5-1.6 1.2-1.4 2.7.2 1.9.4 2 6.2 2.8 3.3.4 8.1 1.3 10.7 2 2.5.6 6.4 2.1 8.7 3.3 2.2 1.2 6.4 4.1 9.2 6.5 2.8 2.3 8 7 11.3 10.3 3.4 3.3 6 6.3 5.8 6.6-.2.3-1 .6-1.9.6-.8 0-3.2.8-5.3 1.8a33 33 0 0 0-7.6 5.5c-2.6 2.6-4 4.7-4.3 6.3-.2 1.3-.3 3.7-.2 5.2.2 2.3.5 2.9 1.7 3 1.2.2 1.8-.4 2.7-2.9.7-1.8 2.5-4.3 4-5.7a23.6 23.6 0 0 1 10.7-5.8c1.4-.2 5 0 7.8.3 3 .4 6 .6 7 .4.8-.3 1.5-.9 1.5-1.4 0-.5-2.5-4-5.5-7.6a275 275 0 0 0-14-15.2c-5-5-10.8-10-14-12-2.9-2-7.5-4.3-10.2-5.2a44 44 0 0 0-13.1-2c-4.6 0-8.9.1-9.8.5Z"/>
  <path fill="#000" fill-rule="evenodd" d="M292.4 195.5a6415.1 6415.1 0 0 1-38.7 4 1248.1 1248.1 0 0 0-54.8 6.8 37 37 0 0 0-9.4 2.4 9.6 9.6 0 0 0-3.3 4c-.8 1.8-1 5-1 12A191.5 191.5 0 0 0 188 256a89 89 0 0 0 3 11.9c1 2.5 2.3 4.5 3.7 5.6 1.2 1 3.5 2.1 5 2.7 2 .6 5.7.9 10.7.8a674.8 674.8 0 0 0 58.3-5.6 448 448 0 0 0 25.7-4.5 39 39 0 0 0 10-3.2c.8-.7 2-2.4 2.6-3.7a252.4 252.4 0 0 0 7.8-30.8 97.1 97.1 0 0 0 .4-22.8c-.4-2-1.6-5-2.5-6.5-1-1.4-2.7-3-3.7-3.6-1.1-.5-3.8-1.1-5.9-1.3-2.1-.2-7 0-10.7.5Zm14.9 13.1c-.4-1.7-1.2-3.7-1.9-4.4-1-1-2.3-1.3-9-1.2-4.3 0-10.3.4-13.2.7l-14.5 1.3-19.6 1.8a1218.4 1218.4 0 0 0-49.3 6c-3.3.5-5.3 1.1-5.9 2-.6.8-.8 4.4-.8 12.2a223.9 223.9 0 0 0 2.8 33.2 22 22 0 0 0 2.1 5.7 7 7 0 0 0 4.4 3.1c2.4.7 6.2.7 16.6 0a776.7 776.7 0 0 0 49.5-4.7c7.3-1 16.8-2.5 21-3.4l8.6-2.2a8 8 0 0 0 1.8-2.5 237.8 237.8 0 0 0 7.4-29.7 45 45 0 0 0 0-17.9ZM468.9 180a884.7 884.7 0 0 0-38 3.1l-24.8 2.4c-8 .8-12.2 1.5-13.7 2.4-1.1.7-2.8 2.8-3.9 5-1.6 3.2-1.8 4.3-1.5 9.2a36 36 0 0 0 3 12.2 286.7 286.7 0 0 0 16 32 62 62 0 0 0 5.8 7.2l3.2 3.4h6.6c3.6 0 16.3-1 28.3-2.1l30.6-3.3c5.1-.6 10.5-1.7 12.7-2.6 2.2-1 4.6-2.5 5.4-3.6 1.4-1.8 1.5-2.8 1.4-10.3-.1-4.6-.8-12.3-1.6-17.2l-3.2-19.5c-1-5.8-2.5-12-3.2-13.6a8.6 8.6 0 0 0-3.5-4c-1.6-1-4-1.2-9.5-1-4 0-8.6.1-10.1.3Zm19.8 26.5c-1.3-7.6-2.8-15-3.2-16.5l-.7-2.7-8.3.1c-4.6 0-14.6.5-22.2 1-7.6.6-23.6 2-35.5 3.2-15.8 1.6-22 2.5-22.7 3.2-.7.8-1 2.6-1 6.2 0 4.4.5 6.2 3.3 13 1.8 4.4 5 11.3 7 15.3s5 9.4 6.7 12a68 68 0 0 0 4.8 6.5c1.6 1.7 2 1.8 7 1.5a1186.9 1186.9 0 0 0 64.6-6.7c1.9-.4 3.5-1.2 3.7-1.7.2-.6.1-5.4-.3-10.8-.3-5.4-1.8-16-3.2-23.6Z" clip-rule="evenodd"/>
  <path fill="#000" d="M342.3 350.8c-.5.4-.9 1.5-.9 2.3 0 .8.4 1.9.9 2.3.5.5 1.7.9 2.8.9a5 5 0 0 0 3-1.1c.6-.6 1.1-1.5 1.1-2s-.5-1.5-1.2-2.1c-.8-.7-2.1-1.2-3.1-1.2s-2.1.4-2.6.9Z"/>
</svg>
