<svg width="10" height="10" viewBox="0 0 10 10" fill="none" xmlns="http://www.w3.org/2000/svg">
<path d="M4.44755 5.00002L0.114419 0.66686C-0.0381393 0.514301 -0.0381393 0.266958 0.114419 0.114419C0.266977 -0.0381201 0.51432 -0.0381396 0.666859 0.114419L5.00001 4.44758L9.33314 0.114419C9.4857 -0.0381396 9.73304 -0.0381396 9.88558 0.114419C10.0381 0.266977 10.0381 0.514321 9.88558 0.66686L5.55245 5L9.88558 9.33316C10.0381 9.48572 10.0381 9.73307 9.88558 9.88561C9.80931 9.96187 9.70933 10 9.60935 10C9.50937 10 9.40941 9.96187 9.33312 9.88561L5.00001 5.55246L0.666879 9.88561C0.59061 9.96187 0.490629 10 0.390649 10C0.290668 10 0.190708 9.96187 0.114419 9.88561C-0.0381393 9.73305 -0.0381393 9.4857 0.114419 9.33316L4.44755 5.00002Z" fill="white"/>
</svg>
