<?xml version="1.0" encoding="utf-8"?>
<!-- Generator: Adobe Illustrator 24.1.0, SVG Export Plug-In . SVG Version: 6.00 Build 0)  -->
<svg version="1.1" id="Layer_1" xmlns="http://www.w3.org/2000/svg" xmlns:xlink="http://www.w3.org/1999/xlink" x="0px" y="0px"
	 viewBox="0 0 250 250" style="enable-background:new 0 0 250 250;" xml:space="preserve">
<style type="text/css">
	.st0{fill:#65A0F8;}
	.st1{fill:#FFFFFF;}
</style>
<circle class="st0" cx="125" cy="125" r="116.5"/>
<g>
	<path class="st1" d="M124.4,84.6c8.3,0,15-6.7,15-15s-6.7-15-15-15s-15,6.7-15,15S116.1,84.6,124.4,84.6z M124.4,92
		c-10,0-30,5-30,15v7.5h60V107C154.4,97.1,134.4,92,124.4,92z"/>
	<path class="st1" d="M77.7,148.6c8.3,0,15-6.7,15-15s-6.7-15-15-15s-15,6.7-15,15S69.4,148.6,77.7,148.6z M77.7,156.1
		c-10,0-30,5-30,15v7.5h60v-7.5C107.6,161.1,87.7,156.1,77.7,156.1z"/>
	<path class="st1" d="M168.7,149.1c8.3,0,15-6.7,15-15s-6.7-15-15-15s-15,6.7-15,15S160.4,149.1,168.7,149.1z M168.7,156.6
		c-10,0-30,5-30,15v7.5h60v-7.5C198.7,161.6,178.7,156.6,168.7,156.6z"/>
</g>
</svg>
