<?xml version="1.0" encoding="utf-8"?>
<!-- Generator: Adobe Illustrator 21.1.0, SVG Export Plug-In . SVG Version: 6.00 Build 0)  -->
<svg version="1.1" id="Vector" xmlns="http://www.w3.org/2000/svg" xmlns:xlink="http://www.w3.org/1999/xlink" x="0px" y="0px"
	 viewBox="0 0 1200 1200" style="enable-background:new 0 0 1200 1200;" xml:space="preserve">
<style type="text/css">
	.st0{fill:#DE8E68;}
	.st1{fill:#FCC486;}
	.st2{fill:#56CAD8;}
	.st3{fill:#FED385;}
	.st4{fill:#D37C59;}
	.st5{fill:#FD8369;}
	.st6{fill:#74D5DE;}
	.st7{fill:#DFDFDF;}
	.st8{fill:#F3F3F3;}
	.st9{fill:#FFFFFF;}
	.st10{fill:#FED892;}
	.st11{fill:#39B54A;}
</style>
<title>Artboard 1</title>
<rect x="1068.3" y="957.3" class="st0" width="29.3" height="22.8"/>
<path class="st1" d="M1011.2,370.3c-3.3-2.5-28.4-38.4-34.7-63.8s-6.9,74.6-6.9,74.6l15.7,13.8L1011.2,370.3z"/>
<polygon class="st2" points="1007.9,738.5 973.8,798.1 965.3,612.8 1019.6,614.6 "/>
<path class="st3" d="M1043.1,360.8c86.3,18.2,59.5,217.2,42.8,233.5s-140.1,19.3-152,5.7S934.8,337.9,1043.1,360.8z"/>
<path class="st4" d="M1055.3,382.9c-1,6.6-40.1,1.9-38.4-7.2l9.9-53l38.4,7.2C1065.2,329.9,1056.3,376.3,1055.3,382.9z"/>
<ellipse transform="matrix(0.1841 -0.9829 0.9829 0.1841 556.754 1263.766)" class="st0" cx="1039.6" cy="296.5" rx="54.2" ry="39"/>
<path class="st5" d="M1010.5,208.5c10.3,0,14.6,7,41,7c12.9,0,39,2.7,39,36c0,22.3,13,24,13,38c0,7-6.2,24-22,24c-7,0-14-12-14-16
	s4-7,4-10c0.1-14.5-46.7-22.5-49.8-35.5c-3.4,3.1-11.2,12.7-14.1,18.9c-4-2-3.5-5.4-8-8.4c-3.8-2.6-15.8-9.3-15.8-22.6
	C983.7,233.3,990.5,208.5,1010.5,208.5z"/>
<circle class="st0" cx="1072.9" cy="306.5" r="12.5"/>
<polygon class="st6" points="1083.2,596.3 1102.8,959.3 1067,959.3 971.7,618.4 971.7,597.6 "/>
<rect x="73" y="208.9" class="st7" width="904.5" height="667.5"/>
<rect x="73" y="287.2" class="st8" width="904.5" height="667.5"/>
<path class="st0" d="M1023.3,465.1c-8.3,4.3-20.4,10.5-28.7,26.8c-10.5-1.9-62.5-11.3-99.7-10.7c-3.5,7.5-9.4,19.3-7,20.9
	s78.8,33.5,132.4,28.7c7,0.5,35.2-26,36.1-28.1S1023.3,465.1,1023.3,465.1z"/>
<ellipse transform="matrix(0.2783 -0.9605 0.9605 0.2783 164.1405 1194.0812)" class="st0" cx="876.7" cy="487.8" rx="16.3" ry="24.3"/>
<ellipse class="st0" cx="899.7" cy="172.7" rx="25.8" ry="22.1"/>
<polygon class="st7" points="627.9,416.4 296.2,416.4 296.2,954.7 749.9,954.7 749.9,538.4 "/>
<circle class="st9" cx="419.4" cy="622.1" r="52.7"/>
<rect x="500.3" y="662.7" class="st9" width="179" height="14.2"/>
<rect x="366.7" y="726" class="st9" width="312.6" height="14.2"/>
<rect x="366.7" y="789.2" class="st9" width="312.6" height="14.2"/>
<path class="st8" d="M678.3,163.7H953c13.6,0,24.5,11,24.5,24.5V289c0,13.6-11,24.5-24.5,24.5H678.3c-13.6,0-24.5-11-24.5-24.5
	V188.3C653.8,174.7,664.8,163.7,678.3,163.7z"/>
<path class="st8" d="M653.8,188.3c0,11.3-34.8,99-220.4,99c0,18.9,230.1,9.4,230.1,9.4l3.4-106.5L653.8,188.3z"/>
<path class="st10" d="M1102,415.7c23,25.9-33.5,100.4-44.4,97.4c-12.8-3.6-51.9-40.2-52.2-52.8S1073.6,383.7,1102,415.7z"/>
<polygon points="1068.3,974.2 1068.3,992.8 1114.3,1051.2 1128,1044.5 1099.9,974.2 "/>
<circle class="st11" cx="420.1" cy="622.2" r="38.2"/>
<path class="st9" d="M395.8,621c0,7.9,2.1,14.1,6.3,18.7c4.4,4.7,10.4,7,18.1,7c3.9,0,7.5-0.7,10.7-2c4-1.7,7.6-5.1,10.8-10.2
	l5.2,2.4c-3.6,6.9-9.3,11.6-16.8,14c-2.9,0.9-6.2,1.4-9.8,1.4c-8.7,0-15.9-2.9-21.5-8.6c-5.7-5.7-8.6-12.9-8.6-21.5
	c0-8.7,2.8-15.9,8.4-21.5c5.7-5.7,12.9-8.6,21.6-8.6c8.6,0,15.7,2.7,21.3,8c5.7,5.3,8.6,12.3,8.6,20.8H395.8z M435.4,602.6
	c-4.4-3.2-9.5-4.7-15.2-4.7c-12,0-19.8,5.8-23.6,17.5h47C442.7,610.1,440,605.8,435.4,602.6z"/>
</svg>
