<?xml version="1.0" encoding="utf-8"?>
<!-- Generator: Adobe Illustrator 21.1.0, SVG Export Plug-In . SVG Version: 6.00 Build 0)  -->
<svg version="1.1" id="Vector" xmlns="http://www.w3.org/2000/svg" xmlns:xlink="http://www.w3.org/1999/xlink" x="0px" y="0px"
	 viewBox="0 0 1622.2 1075.9" style="enable-background:new 0 0 1622.2 1075.9;" xml:space="preserve">
<style type="text/css">
	.st0{fill:#ED7562;}
	.st1{fill:#D37C59;}
	.st2{fill:#FCC486;}
	.st3{fill:#FED385;}
	.st4{fill:#DE8E68;}
	.st5{fill:#FED892;}
	.st6{fill:#FD8369;}
	.st7{fill:none;stroke:#ED7562;stroke-width:3.2005;stroke-linecap:round;stroke-linejoin:round;}
	.st8{fill:#56CAD8;}
	.st9{fill:#74D5DE;}
	.st10{fill:none;stroke:#FD8369;stroke-width:3.2005;stroke-linecap:round;stroke-linejoin:round;}
	.st11{fill:none;stroke:#DFDFDF;stroke-width:6.4297;stroke-miterlimit:10;}
	.st12{fill:#DFDFDF;}
	.st13{fill:none;stroke:#A4A4A4;stroke-width:1.6289;stroke-linecap:round;stroke-linejoin:round;}
	.st14{fill:#6BD5E1;}
	.st15{fill:#E49D75;}
	.st16{fill:#D38D6A;}
	.st17{fill:none;stroke:#E0E0E0;stroke-width:1.0859;stroke-linecap:round;stroke-linejoin:round;}
	.st18{fill:#E0E0E0;}
	.st19{fill:#5FC5D1;}
	.st20{fill:#FFC78E;}
	.st21{fill:#FFD98E;}
	.st22{fill:#A4A4A4;}
	.st23{fill:#F2F2F2;}
	.st24{fill:#FFE4AD;}
	.st25{fill:none;stroke:#6BD5E1;stroke-width:3.2578;stroke-linecap:round;stroke-linejoin:round;}
	.st26{fill:none;stroke:#A4A4A4;stroke-width:3.2578;stroke-linecap:round;stroke-linejoin:round;}
	.st27{fill:#E5B9A8;}
	.st28{fill:none;stroke:#FD8369;stroke-width:1.8874;stroke-linecap:round;stroke-miterlimit:10;}
	.st29{fill:#676868;}
	.st30{fill:#777777;}
	.st31{fill:#FFFFFF;}
	.st32{fill:#D8AA9C;}
</style>
<title>Artboard 1</title>
<g>
	<g>
		<path class="st0" d="M896.2,718.1h76.9l-51.6,187.1h-131v-6.7h97.1L896.2,718.1z"/>
		<path class="st1" d="M830.1,749.1c-3.5,1.1-20.8,15.9-23.8,33.7c-3.1-0.4-21.5-1.1-29.2-1.4c-2.5-3.9-7.8-6.6-13.9-6.6
			c-8.6,0-15.5,5.3-15.5,11.7c0,0.1,0,0.3,0,0.4h30.9c0-0.1,0-0.3,0-0.4c0-1.6-0.5-3.2-1.3-4.7l26.9,4.3l31.9,3.3l3.3-27.9
			L830.1,749.1z"/>
		<path class="st2" d="M856.6,729.3c0-2.2-5.6-4.8-9.7-4.8c-11,0-29.5,20-29.5,22.5c0,2.5,13.4,13.7,23.6,14.4
			C851.3,762,856.6,729.3,856.6,729.3z"/>
		<path class="st3" d="M883.9,713.3c62.1,0,47.9,140.2,40,146.1c-7.9,5.9-76.8,6.5-81.3,0.5C838.1,854,810.3,713.3,883.9,713.3z"/>
		<path class="st1" d="M894.8,686.4H870v33.2c0,5.3,24.8,5.3,24.8,0V686.4z"/>
		
			<ellipse transform="matrix(0.1575 -0.9875 0.9875 0.1575 77.8218 1431.2054)" class="st4" cx="877.7" cy="670" rx="36.4" ry="24.5"/>
		<path d="M935.8,616.3c12,0,24,6.4,39.2,6.4c12,0,23.2-4.8,37.6-4.8c25.6,0,33.6,16.8,33.6,27.2c0,26.4-21.6,36.8-37.6,36.8
			c-25.6,0-28.8-17.6-59.2-17.6c-29.6,0-25.6-24-32-24c-3.2,0-5.2,0.4-6.4,1.6s-7.2-3.2-7.2-4.8
			C903.8,635.5,911.8,616.3,935.8,616.3z"/>
		<path d="M882.2,625.1c-28.3,0-34.2,21.5-34.2,27.7s3.9,10.8,5.9,11c1.2-7.4,7.2-17.7,7.5-17.9c1.6,1.6,7.5,6.7,13.6,7.2
			c5.1,0.3,10,1.8,14.3,4.4c0.4,2.1,1.1,4,2.3,5.8c1.6,2.6,4.1,4.7,7,5.7c0.7,1.8,1.1,3.7,1.2,5.6c0,8.5-0.8,12-1.6,14.4
			c13,0,19.2-13.4,19.2-30.4C917.4,630.7,892.7,625.1,882.2,625.1z"/>
		<circle class="st4" cx="899.8" cy="674.8" r="6.9"/>
		<path class="st4" d="M876.6,765c-2.8,0.7-14,7.6-20.7,19.6c-6.6-1.2-33.5-7.9-57.3-7.9c-2.2,0-8.1-1.8-10.4-1.8
			c-14,0-16.9,7.6-16.9,9.8s0.5,2.3,0.9,2.3c48,0,60.1,20.3,87.1,20.3c8.7,0,26.7-6.3,37.6-22.5C893.1,771.7,876.6,765,876.6,765z"
			/>
		<path class="st5" d="M923.8,737.7c15,14.6-22.9,54.8-29,54.2c-6.1-0.6-28-23.7-28.2-30.7C866.4,754.3,909.3,723.6,923.8,737.7z"/>
		<rect x="616" y="788.7" class="st6" width="338.6" height="10.9"/>
		<g>
			<line class="st7" x1="920.1" y1="990" x2="868.1" y2="902.5"/>
			<line class="st7" x1="942.7" y1="990" x2="890.7" y2="902.5"/>
			<line class="st7" x1="776.7" y1="990" x2="828.7" y2="902.5"/>
			
				<rect x="768.3" y="984.3" transform="matrix(0.9881 -0.1537 0.1537 0.9881 -143.0576 130.9744)" class="st4" width="14.7" height="13.2"/>
			
				<rect x="679.8" y="969.1" transform="matrix(0.5446 -0.8387 0.8387 0.5446 -506.3979 1020.3173)" class="st4" width="13.2" height="14.7"/>
			<path class="st8" d="M744.7,840.9c-10.8,0-64.5,125.1-64.5,129.6c0,4.6,11.7,9.8,13.4,9.8c2.7-2.5,54.1-76.8,59.4-82
				C758.4,893.1,744.7,840.9,744.7,840.9z"/>
			<path class="st9" d="M923.8,866.3c0-3.4,0.6-7.4-1.5-8.3c-50.9-21-125.4-23.7-136.9-23.7s-45.1,1.2-45.1,10.8
				c0,34.7,19.3,141.6,23.3,145.6c1.9,1.9,18.1,0.6,20.1-1.4c-0.1-8.8,5-97.2,0.3-107.9c42.8,15.7,91.4,23.1,104.2,23.1
				C925.3,904.4,923.8,870.4,923.8,866.3z"/>
			<polygon points="690.2,984.4 677.3,975.8 642.5,968.5 639.2,974 680.2,999.3 			"/>
			<polygon points="785.2,992.8 769.9,995.2 739.4,1013.4 740.6,1019.7 787.9,1010.6 			"/>
			<line class="st10" x1="936.4" y1="962.6" x2="936.4" y2="796.5"/>
			<line class="st10" x1="655.1" y1="962.6" x2="655.1" y2="796.5"/>
			<line class="st10" x1="912.7" y1="995.9" x2="912.7" y2="796.5"/>
			<line class="st10" x1="630" y1="995.9" x2="630" y2="796.5"/>
			<line class="st7" x1="799.8" y1="990" x2="851.8" y2="902.5"/>
		</g>
		<rect x="740.3" y="786.7" class="st9" width="56.2" height="2"/>
		<rect x="677.9" y="655.8" class="st9" width="122.8" height="89.1"/>
		<polygon class="st8" points="722,728.1 705.1,788.7 734.8,788.7 751.2,728.1 		"/>
	</g>
	<g>
		<polyline class="st11" points="788.2,149.8 788.2,622.3 822.4,622.3 		"/>
		<path class="st12" d="M958.9,157.5c31.9-24.7,32.4-65.3,1.3-90.6c-22.6-18.3-56.7-24.2-86.9-14.9C839.5,10.9,770.2-0.6,718.5,26.2
			c-18.6,9.6-33.2,23.5-41.8,39.7c-41.3-13.3-88.3,2.6-105.1,35.4c-9.4,18.4-7.5,39.2,5.1,56.3L958.9,157.5z"/>
		<polyline class="st11" points="590,157.4 590,260.1 193,260.1 193,357.7 		"/>
		<polyline class="st11" points="1346,356.7 1346,259.1 949,259.1 949,156.4 		"/>
	</g>
	<g>
		<title>gamer-colour</title>
		<polygon points="1388.9,647.9 1382.1,665.1 1345.3,648.7 1349,641.3 1375.8,642.1 		"/>
		<g>
			<line class="st13" x1="1387.5" y1="483.7" x2="1387.5" y2="619.4"/>
			<path class="st14" d="M1442.9,341.3h4c3.6,0,6.5,2.9,6.5,6.5v10.9c0,3.6-2.9,6.5-6.5,6.5h-4c-3.6,0-6.5-2.9-6.5-6.5v-10.9
				C1436.3,344.2,1439.3,341.3,1442.9,341.3z"/>
			<path class="st15" d="M1379.3,631.7c-0.6,1.5-4.7,10.7-4.7,10.7l13.3,5.1l4-13.2L1379.3,631.7z"/>
			<polygon class="st15" points="1455.4,618.7 1458.1,628.8 1446.2,634.6 1438.3,626.4 			"/>
			<path class="st16" d="M1438.3,425.6c-1.4,1.6-12.7,15.1-13.5,16.2c-0.8,1.1-33.9,11.1-35.6,11.6c-1.7,0.5-8,3.2-9.8,3.2
				s-7.4-1.9-9.8-1.5c-2.3,0.4-9.8,4.8-9.1,6.5c0.7,1.7,81.6-4.1,81.6-4.1l8.8-27.4L1438.3,425.6z"/>
			<line class="st17" x1="1454.1" y1="552.1" x2="1433.6" y2="657.9"/>
			<polygon class="st18" points="1529.8,379.4 1576.3,379.4 1532.2,552.1 1447.1,552.1 1447.1,540.9 1494.7,509.2 			"/>
			<path class="st19" d="M1433.6,542.2c2.4,4.8,22.3,72.4,22.8,76.4c-2.5,2.7-13.5,8.6-18.2,9c-8-6.3-30.2-58.8-30.2-58.8
				S1415.5,525.1,1433.6,542.2z"/>
			<path class="st14" d="M1529.4,477.8c1.7,2.1,7.3,32.3,8.1,40.2c1.3,12.3-22.6,30.4-56.3,30.4c-11.1,0-48-2.5-58.5-6.5
				c-0.5,6.7-27.2,90.2-30.2,93.2c-5,1.3-12.3-1.4-14.1-3.3s12.7-117.2,16.8-124.7c4.1-7.4,87.3-13,87.3-13L1529.4,477.8z"/>
			<path class="st20" d="M1471.7,391.3c15.6,9.1-7.7,48.9-10.7,50c-4.7-0.5-21.1-10.1-24.2-17.2
				C1436.2,419.8,1458.3,383.5,1471.7,391.3z"/>
			<path class="st21" d="M1480.3,374.8c26.1,0,51.3,99.7,50.2,103.7c-2.1,8.2-44.9,23.1-51.8,16.7
				C1461.5,478.9,1429.4,374.8,1480.3,374.8z"/>
			<line class="st17" x1="1527.3" y1="552.1" x2="1547.8" y2="657.9"/>
			<polygon points="1458.3,627.5 1467.4,643.6 1431.5,661.8 1428.1,654.4 1445.6,634 			"/>
			<path class="st16" d="M1474.2,363.8c0.6,3.3,4.3,13.3,6,15.1s-7.1,12.5-16.9,10.5c-0.3-3.4-1.4-12.8-3-14.4
				S1474.2,363.8,1474.2,363.8z"/>
			
				<ellipse transform="matrix(0.9507 -0.3102 0.3102 0.9507 -36.3704 469.2168)" class="st15" cx="1457" cy="349" rx="20.2" ry="27.4"/>
			<path class="st6" d="M1441,311.7c10.8,0,38.6,19.2,38.6,38.6c0,10.4-1.8,13-2.5,13s-7.4-5.2-7.4-8.9s-1.3-9.3-2.6-9.3
				c-2.2,0-2.5,2.4-8,2.4c-2.1,0-6-2.5-6-5.4c-4.4,0.1-4.4,1.5-10.5,1.5c-6.9,0-23.8-3.5-23.8-8.8c0-3.6,4.7-6.1,9.4-5.2
				c-3.2-1.7-6-5.2-6-7.5c0-3.2,4.1-5.5,7.2-5.5c3.7,0,7,1.6,8.6,3.1C1436.7,317.5,1437.9,311.7,1441,311.7z"/>
			<circle class="st15" cx="1466.2" cy="350.5" r="5.6"/>
			<rect x="1163.7" y="475.8" class="st22" width="281.6" height="7.9"/>
			<polygon class="st18" points="1421.1,463 1304.5,463 1304.2,463 1187.7,463 1163.7,475.7 1304.2,475.7 1304.5,475.7 1445,475.7 
							"/>
			<line class="st13" x1="1199.2" y1="483.7" x2="1199.2" y2="649.2"/>
			<line class="st13" x1="1221.5" y1="483.7" x2="1221.5" y2="619.4"/>
			<line class="st13" x1="1409.9" y1="483.7" x2="1409.9" y2="649.2"/>
			<rect x="1329.8" y="463.8" class="st22" width="49.9" height="3.4"/>
			<rect x="1267.3" y="459.6" class="st22" width="9.6" height="11.4"/>
			<ellipse class="st23" cx="1366.8" cy="469" rx="11.2" ry="5.2"/>
			<path class="st15" d="M1446.2,431c-1.6,1.8-11.6,16.1-12.7,17.6c-22.8,2.7-52.9,10-54,10c-1.1,0-13.8-4.1-15.5-3.8
				c-1.7,0.3-5.2,6.4-5,7.6s10.1,7.3,21.6,7.1c2.2-0.1,2.9-1.3,5.1-1.3c2.3,0,53.8,4,62.7-0.7c4.9-2.5,18.5-21.8,18.5-23.2
				C1466.9,443,1446.2,431,1446.2,431z"/>
			<path class="st24" d="M1478.7,396c15.6,9.1-7.7,48.9-10.7,50c-4.7-0.5-21.1-10.1-24.2-17.2C1443.2,424.4,1465.4,388.2,1478.7,396
				z"/>
			<rect x="1259.2" y="318.4" class="st18" width="4.6" height="147.3"/>
			<polygon class="st22" points="1263.8,318.4 1263.8,392.1 1263.8,465.8 1285.4,457.8 1285.4,392.1 1285.4,326.3 			"/>
			<path class="st14" d="M1463.8,341.3h4c3.6,0,6.5,2.9,6.5,6.5v10.9c0,3.6-2.9,6.5-6.5,6.5h-4c-3.6,0-6.5-2.9-6.5-6.5v-10.9
				C1457.3,344.2,1460.2,341.3,1463.8,341.3z"/>
			<path class="st25" d="M1466.2,344.3c0-3,1-20.8-8.9-26"/>
			<path class="st26" d="M1465.8,365.2c0,1.7-0.7,11.6-8.1,11.6"/>
		</g>
	</g>
	
		<rect x="246.2" y="622.4" transform="matrix(0.9868 -0.1619 0.1619 0.9868 -98.1598 49.5466)" class="st27" width="17.3" height="9"/>
	
		<rect x="160.1" y="601" transform="matrix(0.6121 -0.7908 0.7908 0.6121 -416.8004 365.8899)" class="st27" width="9" height="13.5"/>
	<line class="st28" x1="193.7" y1="472.8" x2="193.7" y2="623.2"/>
	<path class="st29" d="M178,547.1c0,7.4-17.2,51.4-17.2,53.3s9,8.6,13,8.6c3.1,0,41.3-61,40.9-63.3C210.9,526,178,539.7,178,547.1z"
		/>
	<line class="st28" x1="221.4" y1="472.8" x2="221.4" y2="640.2"/>
	<path class="st30" d="M133.3,567.8c19,0,68.2-25.6,72.1-28.3c1.1,5.4,39.9,84.6,39.9,84.6s15.5-2.2,17.8-2.8
		c0-2.2-23.4-127.2-51.9-127.2C162.4,494.2,93,522,93,526.8C93,546.4,112.5,567.8,133.3,567.8z"/>
	
		<rect x="74.8" y="415.4" transform="matrix(0.9733 -0.2294 0.2294 0.9733 -112.8721 31.7338)" class="st6" width="10.6" height="171.9"/>
	
		<rect x="92.1" y="564.5" transform="matrix(0.9733 -0.2294 0.2294 0.9733 -126.9263 47.6656)" class="st6" width="98.9" height="10.6"/>
	<rect x="168.9" y="380.5" class="st12" width="52.5" height="35.5"/>
	<polygon class="st12" points="182.9,403.8 182.9,392.8 159.3,398.3 	"/>
	<circle class="st31" cx="207.1" cy="398.3" r="2.7"/>
	<circle class="st31" cx="195.2" cy="398.3" r="2.7"/>
	<circle class="st31" cx="183.2" cy="398.3" r="2.7"/>
	<path class="st9" d="M154.7,504.9c-4.4,10.4-52.8,26.1-63.2,19.5c-5.9-3.7-16-53.2-16-102.5c0-10.7,6-25.8,20.4-25.8
		C149.1,396.1,159.8,492.9,154.7,504.9z"/>
	<path class="st32" d="M100,370.3c0,0,11.3,9.8,10.7,14.5s-0.3,12.9,0.3,17.9c-6.9,5.7-21.4,0-23-2.5c4.4-10.1,5-26.1,4.7-28
		L100,370.3z"/>
	<ellipse class="st27" cx="114.3" cy="360.7" rx="16.5" ry="26.9"/>
	<path class="st5" d="M135.6,322.5c4.4,2.5,14.8,2.8,14.8,14.5c0,4.4-2.5,16.7-20.8,16.7c0,0-1.3-5.7-2.8-8.5
		c-1.9,0-6.1-0.5-10.4,1.7c-4.6,2.4-6.7,6.6-8.1,9.9c-8.9,20-3.4,31.5-12.3,39.3c-3.7,3.2-5.9,2.4-11.5,7.6
		c-6.2,5.7-7.3,10.3-9.4,9.9c-3.1-0.6-4.5-11.5-3.3-21.2c1-8,2.7-7.1,5.7-18.9c2.8-11.4,2.1-16.1,6.1-27.8c1.3-3.8,2-5.8,3.3-8
		c1.9-3.3,4.8-6.7,16.4-14.5c8.8-5.9,13.3-8.8,16.4-8.8C126.7,314.3,130.5,319.6,135.6,322.5z"/>
	<circle class="st27" cx="100.5" cy="363.5" r="5.8"/>
	<path class="st27" d="M87.4,468.7c0.6,7.2,17.9,36.8,24.9,36.8c6.9,0,62.9-36.5,65.7-38.1c2.8-1.6,23.3-0.9,23.3-5.7
		c0-2.5-4.4-7.9-21.1-7.9c-8.5,0-53.8,20.4-58.5,22.3c-0.6-9.4-5.3-19.8-6.3-21.7"/>
	<path class="st8" d="M120.1,454.6c-1.9,4.1-27.1,17.3-34,17c-6.9-0.3-16.9-47.9-1.9-55C99.4,409.3,122,450.5,120.1,454.6z"/>
	<rect x="185.9" y="468.7" class="st6" width="160.4" height="6.3"/>
	<line class="st28" x1="336.6" y1="472.8" x2="336.6" y2="640.2"/>
	<line class="st28" x1="307.6" y1="472.8" x2="307.6" y2="623.2"/>
	<rect x="192.5" y="465.3" class="st12" width="36.2" height="3.5"/>
	
		<rect x="212.2" y="443.4" transform="matrix(0.3363 -0.9418 0.9418 0.3363 -260.8795 517.7303)" class="st12" width="49.3" height="1"/>
	<line class="st28" x1="89.3" y1="646.1" x2="111.2" y2="580.3"/>
	<line class="st28" x1="184.9" y1="643.3" x2="134.4" y2="576.2"/>
	<line class="st28" x1="219" y1="635.2" x2="168.5" y2="568.2"/>
	<line class="st28" x1="122.4" y1="640.2" x2="144.3" y2="574.3"/>
	<polygon points="249.4,648.4 296.4,640.8 295.2,636.8 265.4,628.6 246.5,631.8 	"/>
	<polygon points="149.3,614.4 179.4,646.8 181.4,644.1 169.6,615.2 158.6,604.5 	"/>
</g>
</svg>
