<?xml version="1.0" encoding="utf-8"?>
<!-- Generator: Adobe Illustrator 21.1.0, SVG Export Plug-In . SVG Version: 6.00 Build 0)  -->
<svg version="1.1" id="Layer_1" xmlns="http://www.w3.org/2000/svg" xmlns:xlink="http://www.w3.org/1999/xlink" x="0px" y="0px"
	 viewBox="0 0 250 250" style="enable-background:new 0 0 250 250;" xml:space="preserve">
<style type="text/css">
	.st0{fill:#F2F2F2;}
	.st1{fill:#FD8369;}
</style>
<path class="st0" d="M210.7,154.5c-14.3,33.3-21.7,68.2-41.2,77.6c-19.4,9.4-51-6.7-82.5-26.6c-31.6-19.9-63.1-43.4-68.4-72.8
	s15.7-64.7,44.2-87.7s64.4-33.6,99.7-29.5s70.3,23,77.1,48.3C246.4,89.5,225.1,121.2,210.7,154.5z"/>
<g>
	<path class="st1" d="M113.2,144l0.8-1.6c0.2-0.4,0.5-0.8,0.2-1.3c-0.1-0.1,0.1-0.4,0.2-0.6l1.2-0.9c-0.1-0.4-0.3-0.8-0.4-1.2
		c-0.1-0.3,0-0.6,0.4-0.6c0.6-0.1,0.9-0.4,0.9-1c0-0.2,0.1-0.4,0.1-0.5c0.1-0.4,0.2-0.8,0.2-1.2c-0.1-1,0.1-1.8,0.7-2.4
		c0.5,0,0.8-0.1,1.2-0.1c0.1,0,0.2-0.1,0.3,0c0.5,0.3,1,0,1.5,0.1c0.3,0.1,0.6,0.1,0.8,0c0.5-0.1,1,0.1,1.4,0.4
		c-0.1,0-0.2,0.1-0.3,0.1c0.5,0.6,1,1.1,1.5,1.6c0,0.1-0.1,0.1-0.1,0.2c-0.2-0.1-0.3-0.2-0.5-0.2c-0.1-0.1-0.2-0.2-0.3-0.2l-0.3,0.3
		l-1.5,0.3c0.5,0.4,1,0.7,1.4,1c-0.1,0.1-0.1,0.2-0.1,0.3c-0.4,0.4-0.4,0.4,0,0.7c0.1,0.1,0.3,0.2,0.4,0.3s0.2,0.2,0.2,0.3
		c0,0.5,0.3,0.8,0.6,1.1c0.4,0.4,0.7,0.8,1,1.3c0.2,0.4-0.1,0.7-0.3,1c-0.1,0.1-0.4,0.3-0.4,0.4c0.1,0.3,0.2,0.6,0.4,0.8l0.3,0.3
		l2.2,1.8c0.4,0.3,0.7,0.7,1.1,1.2c-0.2,0.1-0.4,0.2-0.6,0.2c-0.3,0.1-0.5,0.2-0.8,0.2c-0.4,0-0.8-0.1-1.1-0.3
		c-0.5-0.2-0.9-0.6-1.3-0.8l-0.1,0.1c0.2,0.3,0.3,0.6,0.5,1c-1,0.1-1.2,0.9-1.5,1.6c-0.4,1.2-0.7,2.4-0.7,3.7v0.5
		c0.1-0.1,0.2-0.1,0.3-0.1c0.1,0.4-0.2,0.8-0.6,0.8c-0.1,0-0.2,0.1-0.3,0.2c-0.3,0.3-0.5,0.7-0.8,1.1c-0.3,0.3-0.6,0.2-0.6-0.3
		c0-0.2-0.1-0.4-0.1-0.5h-0.2l-0.3,1.1c-0.1,0.2-0.2,0.5-0.3,0.7c-0.3,0.7-0.8,1.1-1.4,1.5c-0.1,0.1-0.2,0.3-0.3,0.5
		c0.3-0.1,0.6-0.1,0.9-0.2c0.1,0.6-0.2,0.9-0.6,1.4c0.4,0.1,0.8,0.2,1.2,0.2c-0.1,0.3-0.2,0.6-0.2,0.9c-0.4,0-0.6,0.1-1,0.1
		c0.4,0.8,0.4,1.1-0.1,1.6c-0.1-0.1-0.2-0.3-0.3-0.4c-0.3,0.4-0.3,0.5,0,1.2c-0.2,0.4-0.4,0.7-0.6,1c-0.2,0.5-0.5,0.8-0.9,1
		c-1,0.4-1.9,1-2.9,1.5c-0.3,0.1-0.6,0.3-0.9,0.4v-0.9c0-0.4-0.1-0.8-0.1-1.2v-1.3c-0.2,0.2-0.5,0.4-0.8,0.6
		c-0.2-0.3,0.4-0.6-0.2-0.7c-0.1,0.1-0.2,0.2-0.4,0.3c-0.1-0.1-0.2-0.3-0.3-0.3s-0.2,0.2-0.3,0.3c-0.3,0.2-0.5,0.4-0.8,0.6
		c-0.3,0.1-0.5,0.1-0.4-0.3c0.1-0.5-0.2-0.8-0.6-0.7c-0.6,0.2-0.9-0.2-1.2-0.6l-0.3-0.3l-0.3,0.3l-1.1,1.2c-0.1,0.1-0.4,0.1-0.6,0
		c-0.7-0.3-1.2-0.2-1.6,0.3c-0.1,0.1-0.3,0.2-0.5,0.4c-0.2-1.1,0.2-2.2-0.5-3.1c-0.1,0.1-0.1,0.2-0.2,0.3c-0.1,0.4-0.3,0.5-0.8,0.5
		c-0.3-0.1-0.7,0.1-1,0.3l-0.8,0.3c0-0.1-0.1-0.1-0.1-0.2c0.2-0.2,0.4-0.3,0.6-0.5c0,0,0-0.1-0.1-0.1c-0.4,0.1-0.8,0.3-1.1,0.4
		c-0.3-0.5-0.3-0.5-1.4-0.1c0-0.1-0.1-0.3-0.1-0.4l-0.1-2.6c-0.1-0.5-0.3-0.9-0.5-1.4h-0.1c0.1-0.1,0.2-0.3,0.3-0.4
		c0.3-0.5,0.4-1,0.1-1.6c-0.2-0.4-0.5-0.8-0.7-1.3c-0.1-0.2-0.1-0.5-0.2-0.8c-0.1,0.2-0.2,0.3-0.3,0.4c-0.5,0-0.9-0.1-1.3-0.1
		c0.1-0.4,0.1-0.4,0.6-0.3c0.1-0.3-0.1-0.7-0.5-0.9c-0.7-0.2-0.7-0.3-0.6-1c0.1,0,0.2,0.1,0.3,0.1s0.1,0.1,0.2,0.1
		c0.2-0.4-0.7-0.9,0.2-1.2c-0.2-0.3-0.4-0.5-0.6-0.7c-0.5-0.6-0.7-1.2-0.7-1.9c0-0.3,0.1-0.5,0.2-0.8c0-0.1,0.1-0.2,0.1-0.3
		c-0.1-0.6,0.2-0.9,0.6-1.1c0.2-0.1,0.2-0.3,0.4-0.4c-0.3-0.4-0.5-0.1-0.6,0.1l-0.1-0.1l1.5-2.3l0.7,1.8v0.1l2.5,2.3
		c0.4,0.3,0.8,0.3,1.3,0.1c0.7-0.4,1.4-0.6,2.3-0.3c0.8,0.2,1.6-0.1,2.3-0.7c0.1-0.1,0.2-0.3,0.3-0.5c0.2-0.5,0.5-0.8,1-0.9
		c0.7-0.1,1.3-0.2,1.8,0.4c0.5,0.5,1.2,0.7,1.9,0.7c0.3,0,0.7-0.3,1-0.4c0.2-0.1,0.5-0.1,0.7-0.2h0.2
		C112.3,143.9,112.8,143.9,113.2,144L113.2,144z M55.8,89.9c0.2,0.2,0.4,0.3,0.6,0.5c-0.1-0.5,0-0.7,0.3-1c0.2-0.2,0.2-0.7,0.2-1.1
		s-0.1-0.9-0.2-1.3c1.1-0.6,1.3-1.5,0.5-2.1c-0.1,0.2-0.2,0.4-0.4,0.7L56.3,84c-0.1-0.5-0.4-1-0.8-1.4l-2-2.1
		c-0.1-0.1-0.3-0.3-0.3-0.5l-0.6-2.2c-0.3,0-0.7,0.1-0.8-0.4c1.2-0.2,1.2-0.4,1-1.6c-0.2-0.7,0.2-1.5,0.1-2.3c0-0.3,0.3-0.6,0.5-1
		c0.2,0,0.4,0.1,0.6,0.1c0.5,0.1,1.1,0.2,1.6-0.2c0.1-0.1,0.3-0.1,0.4-0.1c0.4,0.1,0.6-0.1,0.7-0.5v-0.3c0-0.4,0.1-0.5,0.5-0.4
		c0.7,0.2,1-0.1,1-0.8c1-0.5,1.3-0.5,1.6,0.3l0.8-0.5c0.2,0.3,0.5,0.5,0.7,0.9c0.1,0.2,0,0.5-0.1,0.7c-0.2,0.4-0.3,0.8,0,1.3
		c0.4,0.6,0.9,0.8,1.6,0.5c0.2-0.1,0.4-0.2,0.6-0.2c0.3,0,0.5,0,0.5,0.5c0,0.3,0.1,0.6,0.2,0.9c0.4,0.8,0.2,1.5-0.1,2.2
		c-0.1,0.4-0.2,0.7-0.1,1.1c0.3,0.6,0.3,1.1,0,1.7c0,0.1-0.1,0.2-0.1,0.3c-0.4,1-0.2,1.4,0.9,1.7c0.5-0.4,0.9-0.9,1.4-1.3
		c0.4-0.4,0.7-1,1.2-1.3c0.2-0.2,0.4-0.2,0.6,0l1.5,1c0.1,0,0.1,0.1,0.2,0.1c0.4-0.1,0.9-0.3,1.3-0.4c0.2-0.1,0.3-0.3,0.3-0.5
		c0.1-0.3,0.2-0.6,0.7-0.6c-0.1-0.2-0.1-0.3-0.2-0.4c1.2,0.1,2.3,0.3,3.1,1.4c0.5,0.7,1.2,1.2,1.7,1.8c0.3,0.3,0.4,0.8,0.5,1.2
		s0,0.9,0,1.3c-0.1,1.6,0.8,2.5,2.1,3.3c0.1,0.1,0.2,0.1,0.3,0.1h0.1c-0.2,0.5,0.2,0.7,0.5,0.9c0.5,0.3,0.5,0.5,0.3,1.1
		s-0.4,1.3,0.1,1.9c0.3,0.4,0,1.7-0.4,2c-0.1,0.1-0.2,0.1-0.3,0.2c-0.3,0.3-0.5,0.4-0.9,0C78.6,93,78.1,93,77.7,93
		c-0.8,0-1.6,0.2-2.5,0.2c-0.3,0-0.5-0.2-0.8-0.2c-1.2-0.2-2.4,0.5-2.9,1.6c-0.3,0.6-0.7,1.1-1.1,1.6c-0.1,0.2-0.5,0.2-0.8,0.2
		l0.9,3.3c0.1,0.2,0.2,0.4,0.3,0.5c0.5,0.4,0.6,0.9,0.5,1.4c-0.2,0.1-0.6-0.4-0.6,0.2c-0.2-0.1-0.4-0.2-0.5-0.3
		c0.2-0.4,0-0.6-0.4-0.7c-0.2,0-0.3-0.1-0.5-0.2c-0.3-0.3-0.6-0.6-1-0.9c-0.3-0.2-0.6-0.2-0.8,0c-0.3,0.2-0.7,0.2-1.1,0.1
		s-0.8-0.1-1.2-0.2l0.2-3.3c-0.5,0.3-0.9,0.3-1.4-0.1c-0.1-0.1-0.2-0.1-0.3,0c-0.3,0.1-0.7,0.2-1,0.4c-0.1,0-0.3,0.1-0.4,0.1
		c-0.5,0.2-0.7,0.5-0.5,1s0.2,1,0.1,1.5s-0.1,1,0,1.5c0.1,0.7,0.2,1.2-0.3,1.8c-0.2,0.3-0.2,0.7-0.4,1l-1-3.1
		c-0.1-0.2-0.2-0.4-0.4-0.6c-0.4-0.6-0.7-1.2-0.6-2c0.1-1.4-0.1-2.7-1.2-3.7c-0.8-0.8-1.5-1.6-2.2-2.5c-0.3-0.4-0.5-0.9-0.4-1.5
		C55.7,90.2,55.7,90.1,55.8,89.9L55.8,89.9z M75.8,149.2l-1.6,1.1c-0.2,0.1-0.1,0.7,0.2,0.9c-0.1,0.1-0.2,0.1-0.2,0.2
		c-0.2,1.2,0.9,2.5,2,2.3h0.3c0.9,0,1,0.1,1.1,1l0.4,2.2c0.1,0.4,0.3,0.6,0.7,0.7s0.3,0.3,0.2,0.5c-0.1,0.1-0.2,0.2-0.2,0.3
		c-0.2,0.2-0.7,0.3-0.3,0.7l-0.3,0.5c-0.1,0.1,0,0.3,0,0.5c0.1,0,0.1,0,0.2,0.1l0.9-1.3c0,0.1,0.1,0.1,0.1,0.1
		c0.3-0.1,0.6-0.1,0.8-0.2h0.3c0.7,0.1,1.3,0.1,1.4,1.1c0.1,0.6,0.3,1.2,1,1.4c0.1,0,0.1,0.5,0,0.7c-0.2,0.4-0.4,0.8-0.7,1.1
		c-0.2,0.3-0.2,0.8,0,1.1c0.1,0.1,0.1,0.4,0.1,0.6c-0.1,0.3-0.3,0.5-0.3,0.8c-0.1,0.3,0,0.7,0,1s0.1,0.5,0.1,0.8l-0.5,3.9
		c0,0.2-0.1,0.4-0.2,0.7c-0.8-0.3-1-1.2-1.7-1.6c0,0.3,0,0.5-0.1,0.8c-0.1,0.5-0.3,0.6-0.8,0.4c-0.3-0.2-0.6-0.5-0.9-0.7
		c-0.2-0.1-0.5-0.1-0.7-0.1c0,0.2-0.1,0.5,0,0.7c0,0.2,0.2,0.4,0.3,0.7c0,0-0.1,0-0.1,0.1l-0.7-0.7l-1.7-2.4
		c-0.2-0.2-0.4-0.4-0.6-0.5l-2.3-1.8c-0.3-0.2-0.5-0.6-0.9-0.8c-0.6-0.5-1-1.1-1.3-1.9c-0.2-0.4-0.5-0.9-0.9-1.1
		c-0.8-0.6-1.3-1.2-1.7-2.1c-0.2-0.4-0.5-0.8-0.8-1.2c-0.6-0.6-0.8-1.3-0.9-2.1c0-0.5-0.2-1.1-0.4-1.5l-1-1.9c0-0.1-0.1-0.2-0.1-0.3
		c0.2-0.5-0.1-0.9-0.4-1.3c-0.2-0.4-0.5-0.7-0.8-1c-0.4-0.5-0.7-0.9-0.8-1.5c0-0.2-0.2-0.5-0.3-0.6c-0.6-0.4-1.1-0.8-1.7-1.1
		l-1.1-3.8c-0.1-0.4-0.1-0.9-0.2-1.3c0-0.3-0.1-0.5-0.3-0.7c-0.9-0.8-1.8-1.7-3-2.1c-0.2-0.1-0.4-0.4-0.5-0.6
		c-0.1-0.3,0-0.6-0.1-0.9s-0.3-0.5-0.5-0.8s-0.6-0.5-0.8-0.8c-0.3-0.5-0.6-1.1-0.9-1.7s-0.7-0.9-1.4-1c-0.3-0.1-0.7-0.3-0.9-0.5
		l-2.7-3c-0.4-0.5-0.8-1.1-1.1-1.7c-0.1-0.3-0.2-0.6-0.2-0.9c0-0.7,0.5-1.1,1.1-0.8c0.4,0.1,0.8,0.4,1.1,0.7
		c0.8,0.8,1.7,1.1,2.7,0.8c0.6-0.1,1.1-0.3,1.7,0.2c0.2,0.1,0.6,0,0.9,0c0.2,0,0.4,0,0.5,0.1c0.6,0.5,1.2,1,1.5,1.9
		c0.1,0.3,0.3,0.5,0.6,0.7s0.4,0.4,0.3,0.8c-0.1,0.7,0,1,0.7,1.2c0.4,0.2,0.8,0.4,1,0.9c0.1,0.2,0.4,0.3,0.6,0.4l1.4,0.9
		c0.7,0.6,1.3,1.2,2,1.9c0.1,0.1,0.2,0.2,0.2,0.4c-0.1,0.5,0.1,0.9,0.5,1.3c0.1-0.1,0.3-0.2,0.4-0.3c0.1,0.2,0.2,0.4,0.3,0.7
		c0.2,0.6,0.6,1,1.2,1.3c0.3,0.1,0.4,0.4,0.6,0.7c0.2,0.2,0.4,0.5,0.5,0.8c0.1,0,0.1,0,0.2-0.1l-0.6-2c0.6,0,1.3,0.6,1.5,1.1
		c0.1,0.2,0.1,0.5,0.2,0.7c0.1,0.4,0.4,0.6,0.8,0.6c0.8,0.1,1.6,0.7,1.7,1.5s0.6,1.3,1.1,1.8c0.2,0.2,0.6,0.3,0.9,0.3
		c0.4,0,0.9,0,1.1,0.5c0.1,0.3-0.3,0.8-0.8,1c-0.3,0.1-0.5,0.1-0.8,0.1c-0.1,0-0.3,0.1-0.5,0.2c0.3,0.4,0.9,0.6,1.3,0.3
		c0.5-0.2,1-0.5,1.4-0.7c0.8-0.5,1-0.5,1.6,0.2C75.4,148.6,75.6,148.9,75.8,149.2L75.8,149.2z M203.5,159.8l-0.5,4.9l-0.5,7
		c-0.1,1.1-0.1,2.2-0.7,3.2c-0.3,0.5-0.3,1,0.1,1.4c0.1,0.1,0.1,0.3,0.1,0.4l-0.9,7.7c0,0.1,0,0.1-0.1,0.4c-0.3-0.3-0.5-0.6-0.6-0.9
		c-0.4-0.7-0.9-1.3-1.5-1.9c-0.3-0.2-0.7-0.5-0.5-1c0,0-0.2-0.2-0.3-0.2l-1.8,0.3c-0.2,0-0.5,0.1-0.5-0.3c0-0.1-0.2-0.2-0.2-0.2
		l-1,0.7l-0.1-0.1c0.1-0.2,0.2-0.3,0.2-0.5l0.6-1.3c0.2-0.3,0.1-0.6-0.2-0.9c-0.2-0.2-0.3-0.5-0.6-0.8c0.6,0,1.1,0.3,1.6-0.3
		c-0.1-0.1-0.3-0.2-0.4-0.1c-0.5,0.3-0.8-0.1-1.2-0.3c-0.2-0.1-0.3-0.3-0.5-0.4v-0.2c0.3,0,0.5,0.1,0.8,0.1c0.3,0.1,0.5,0.2,0.7,0.3
		c0.1,0,0.2-0.1,0.3-0.1c0-0.1-0.1-0.2-0.1-0.3c-0.2-0.2-0.5-0.2-0.7-0.4c-0.2-0.1-0.3-0.3-0.4-0.5c-0.1-0.1-0.1-0.2-0.2-0.3
		c-0.7-0.6-0.9-1.4-1.1-2.3c0-0.1,0-0.3,0.1-0.4c0.4-0.4,0.1-0.4-0.2-0.5c0.4-0.4,0.3-0.6,0-0.6c-0.2,0-0.4,0.1-0.6,0.2v-1.5h-0.1
		c-0.1,0.1-0.1,0.3-0.2,0.4c-0.4-0.3-0.8-0.8-1.3-1c-1-0.5-1.8-1.3-3-1.3c-0.3,0-0.5-0.2-0.8-0.3c-1.1-0.7-2.2-1.1-3.5-1.1
		c-0.8,0-1.4-0.4-1.9-0.9c-0.2-0.1-0.2-0.3-0.4-0.6c0.3,0,0.6-0.1,0.8-0.1c0.1,0,0.2-0.1,0.3-0.2c-0.1-0.1-0.1-0.2-0.2-0.3
		c-0.5-0.2-0.9-0.1-1.2,0.3c-0.3-0.2-0.5-0.4-0.8-0.5c-0.1,0.2-0.2,0.3-0.2,0.4c0-0.1-0.1-0.2,0-0.3c0-0.1,0.1-0.1,0.3-0.3h-0.6
		c-0.4,0-0.6-0.1-0.7-0.5c0-0.1-0.3-0.2-0.5-0.4c0-0.4,0-0.9,0.4-1.4c0.1-0.2,0.2-0.4,0.3-0.7V161H179c-0.4,0.3-0.8,0.6-0.8,1.2
		c0,0.2-0.2,0.3-0.3,0.5h-0.1c0.1,0.7-0.7,1-0.7,1.7c0,0.5-0.9,1.1-1.3,0.9c-0.2-0.1-0.4-0.4-0.5-0.7s-0.2-0.7,0.3-0.8
		c0.3-0.1,0.3-0.4,0.2-0.7s-0.1-0.6-0.2-0.9c-0.3,0.3-0.6,0-0.8-0.3s-0.4-0.5-0.6-0.7c-0.3-0.2-0.7-0.4-1.2-0.6
		c0.1-0.1,0.3-0.2,0.4-0.3c0.3-0.1,0.6-0.1,0.9,0c0.9,0.3,1.5,0.2,2-0.6c0.1-0.2,0.4-0.3,0.6-0.3c0.3-0.1,0.5,0,0.5,0.4
		c0,0.1,0.1,0.2,0.1,0.3c0.1-0.1,0.2-0.1,0.3-0.2c0.2-0.2,0.8-0.1,1.1,0.2l0.2,0.2l0.3-1.1c0.2,0,0.3-0.1,0.4-0.2
		c-0.1-0.5-0.4-0.9,0.1-1.3l1.2,3.2c0.6-0.4,0.3-1,0.5-1.5h0.2v1c0,0.3,0.2,0.5,0.3,0.8c0.1,0.1,0.2,0.2,0.2,0.4
		c0.3,1.2,1.8,1.7,2.7,0.8l1.9-2.1c0.5-0.5,0.9-1,1.2-1.7c0.1-0.1,0.4-0.3,0.6-0.3c0.7,0,1.3-0.1,1.9-0.4c0.4-0.2,0.5-0.5,0.4-0.9
		c-0.1-0.3,0-0.4,0.2-0.5c0.5-0.3,1-0.6,1.6-0.8c0.3-0.1,0.8,0,1.1,0.1l5,2.6c0.6,0.3,1.1,0.6,1.8,0.4h0.3
		C201.6,159.2,202.5,159.5,203.5,159.8L203.5,159.8z M75.1,69.5c0.4-0.4,0.4-0.8,0-1.1c-0.3-0.3-0.7-0.6-1.1-0.8
		c-0.6-0.3-1.3-0.1-1.6,0.5c-0.1,0.1-0.1,0.2-0.1,0.3l-1.6-0.6c-1-0.5-1.3-1.2-1.1-2.3c0.1-0.6-0.1-1.1-0.6-1.3
		c-0.1-0.1-0.3,0.1-0.4,0.1l-1.9-2.1c0.1-0.4,0.3-0.7,0.4-1.1c0.1-0.3,0.3-0.4,0.6-0.3c0.3,0.2,0.5,0.3,0.8,0.6
		c0.6,0.5,1,0.5,1.4-0.1c0.1-0.1,0.2-0.3,0.4-0.5c0.2,0.3,0.4,0.5,0.7,0.9c0.1-0.3,0.2-0.5,0.4-0.9c0.3,0.3,0.5,0.6,0.7,0.9
		c0.3,0.3,0.5,0.2,0.6-0.1s0.2-0.5,0.4-0.8c0.6,0.3,1.9,0,2.3-0.6c0.1-0.1,0.1-0.4,0.1-0.5c-0.1-0.3,0-0.5,0.3-0.6s0.6-0.3,0.9-0.5
		c0.3,0.3,0.7,0.6,1.1,0.9c0.5,0.4,1,0.6,1.6,0.5c0.2,0,0.4,0,0.5,0.1c0.3,0.3,0.6,0.3,1,0.2c0.7-0.2,0.9,0.1,0.8,0.8h-0.4
		C81.1,62.2,81.8,63,82,64c0.6-0.2,0.9-0.1,1.2,0.4c0.1,0.2,0.4,0.3,0.6,0.5s0.4,0.3,0.7,0.5c0.5-0.1,1-0.1,1.6-0.2v0.2
		c-0.5,0.3-1,0.6-1.4,1c-0.1,0.1-0.2,0.3-0.2,0.5s0,0.3-0.1,0.6c-0.6-0.4-1-0.2-1.4,0.2c-0.3-0.3-0.6-0.5-1-0.3
		c0.2,0.5,0.3,0.9,0.6,1.4c-0.3-0.1-0.5-0.2-0.7-0.3c0.1,0.3,0.2,0.6,0.2,0.8c0,0.3-0.2,0.6-0.3,0.9c-0.1,0.2-0.2,0.4-0.3,0.7
		c-0.4,0-0.5,0.1-0.6,0.1c-1.3,0.3-1.3,1.4-1.3,2.3c0,0.6,0,1.1-0.3,1.7c-0.1,0.2,0,0.6,0.1,0.8c0.6,1.1,1.3,2.1,2.4,2.8
		c0.8,0.5,0.8,0.6,0.8,1.2c-0.2,0.1-0.3,0.2-0.4,0.3l2.4,2.4c0.1,0.1,0.2,0.2,0.3,0.2c0.4,0.4,0.6,0.8,0.2,1.3
		c0.5-0.3,1-0.2,1.2,0.2c0.4,0.8,1.4,1.1,1.7,2c0.5-0.3,0.8-0.2,1.2,0.4c0.4,0.7,0.9,1.3,1.3,2c0.2,0.3,0.5,0.7,0.8,1
		c0.4,0.3,0.6,0.5,0.5,1c0,0.2,0.1,0.3,0.2,0.4c0.8,1.2,1,2.6,1.5,4c0.1,0.4,0,0.9,0.1,1.3c0,0.4,0.1,0.9,0.2,1.3l0.7,1.8
		c-0.7,0.2-0.8,0.5-0.6,1.4c-0.2,0-0.5-0.1-0.8-0.1c1.1,0.8,0.8,1.8,0.5,2.8c0.1,0,0.1,0,0.2,0.1H94v0.1c-0.6,0.4-0.6,1.3-1.3,1.7
		s-1.2,1.1-2,1.3c-0.1,0-0.1,0.1-0.2,0.1c-0.6,1.1-1.9,1.2-2.8,2c-0.2-0.2-0.4-0.5-0.7-0.6c-0.3-0.2-0.7-0.3-1.1-0.4
		c0,0-0.2,0.1-0.2,0.2c-0.1,0.5-0.1,0.5-0.6,0.5c0,0.6,0.4,0.5,0.9,0.6c-0.6,0.4-1.1,0-1.6,0.1c0,0.1,0.1,0.2,0.1,0.3
		c-0.3,0-0.6-0.1-1-0.1c0.1,0.2,0.2,0.5,0.4,0.7l1.2,1.4c0.1,0.2,0.1,0.4,0.1,0.7c-0.2,0-0.5,0-0.7-0.2l-1.2-1.2
		c-0.1-0.1-0.3-0.1-0.5-0.2c0.1,0.2,0.1,0.4,0.2,0.5l0.8,1c0.4,0.5,0.3,0.8-0.3,1.1c-0.1,0.1-0.3,0.1-0.4,0.2
		c-0.9,0.2-1.5,0.7-1.9,1.5c-0.2,0.4-0.6,0.7-0.9,1.1l-0.3-1c-0.1,0-0.2,0-0.4,0.1v-2.8c0-0.2,0.1-0.4,0.2-0.5
		c0.2-0.3,0.4-0.5,0.8-0.8c0-0.4-0.4-0.7-0.9-0.9c-0.3-0.2-0.7-0.3-1-0.5c-0.2-0.1-0.2-0.4-0.3-0.6c0.2-0.1,0.4-0.2,0.5-0.2
		c0.8,0,1.3-0.6,1.3-1.3c0.6-0.1,1.2-0.3,1.7-0.4c0.3-0.1,0.5-0.1,0.6,0.2c0.3,0.5,0.9,0.5,1.4,0.6c0.1-0.3,0.2-0.7,0.1-1
		c0-0.3-0.3-0.6-0.5-0.7c-0.6-0.3-0.8-0.8-0.9-1.3s0.4-1,0.9-0.8c0.4,0.1,0.8,0.3,1.2,0.4c0-0.5-0.1-0.8-0.1-1.2
		c0.9,0,1.6-0.5,2.2-1.1c0.2-0.1,0.4-0.3,0.6-0.3c0.7-0.1,1.1-0.5,1-1.3l-0.3-1.3c0-0.4-0.1-0.8,0-1.1c0.1-0.6,0.1-1.2-0.2-1.8
		L87.4,95c-0.1-0.3-0.2-0.6-0.2-0.9c0-0.2,0.1-0.5,0.2-0.7c0.4-0.7,0.3-1.4,0.1-2.2c0.6-0.7,0.5-1.2-0.1-1.9
		c-0.2-0.2-0.5-0.4-0.8-0.6c-0.6-0.7-0.6-0.8,0-1.3c0.2-0.2,0.3-0.4,0.5-0.6l-1.8-1.3L85,85.2c-0.1-0.1-0.3-0.3-0.5-0.3
		c-0.6-0.1-0.7-0.2-0.9-0.8c-0.1-0.5-0.3-1.1-0.6-1.5c-0.2-0.4-0.7-0.6-1-1l-2.1-2.4c-0.3-0.4-0.5-0.9-1-1.1
		c-0.6-0.2-0.8-0.7-0.7-1.4c0-0.2-0.1-0.4-0.3-0.5c-0.1-0.1-0.4-0.2-0.6-0.2c-0.8-0.1-1.3-0.5-1.9-0.9L73.7,74
		c0.5-0.3,0.6-0.4,0.2-1.2c0.3,0.1,0.6,0.1,0.8,0.1c0.7,0.2,1.2-0.1,1.6-0.6c0.3-0.3,0.5-0.7,0.5-1.1c0-0.2-0.2-0.6-0.4-0.8
		c-0.3-0.3-0.8-0.4-1-0.8C75.5,69.6,75.3,69.6,75.1,69.5z"/>
	<path class="st1" d="M66.5,78.6c0,0.8-0.4,1.2-0.9,1.6l-0.7,0.7c-0.1,0.1-0.4,0.2-0.4,0.1c-0.1-0.1-0.3-0.4-0.3-0.5
		c0-0.3,0.2-0.5,0.3-0.8c0.2-0.6,0.3-1.2,0.1-1.8c-0.1-0.3,0-0.6,0.1-1c0.2-0.7,0.2-1.4,0.2-2.1c0-0.4-0.2-0.8-0.3-1.2
		c-0.2-0.9-0.9-1.2-1.6-0.7c-0.3,0.2-0.7,0.3-0.9,0.1c-0.3-0.3-0.4-0.7-0.2-1c0.5-0.8,0.2-1.3-0.4-1.9c-0.3-0.3-0.6-0.5-1.1-0.1
		c0-0.3,0-0.5,0.1-0.8c0.1-0.6,0.2-0.7,0.8-0.8s0.7-0.2,0.7-0.8c-0.1,0-0.2,0-0.3,0.1c0.1-1,0.7-1.5,1.6-1.8c0,0.2,0.1,0.4,0.1,0.6
		c0.1,0.4,0.4,0.6,0.7,0.4c0.4-0.1,0.6-0.1,0.9,0.1c0.2,0.1,0.4,0,0.7,0c0-0.2,0-0.4-0.1-0.6c0-0.3-0.1-0.6-0.1-0.8
		c0.1-0.5,0-0.9-0.3-1.3c-0.1-0.2-0.3-0.4-0.4-0.6c-0.4-0.5-0.5-1-0.1-1.6c0.3,0,0.6,0,0.8,0.1c0.2,0,0.4,0.1,0.5,0.2l1.1,1.2
		c0.3,0.3,0.6,0.7,0.8,1c0.3,0.5,0.5,0.6,1,0.1c0,0.3,0.1,0.6,0.1,0.8c-0.4,1.4,0.4,2.3,1.5,2.8c0.6,0.2,1.1,0.5,1.8,0.8
		c0.3-0.4,0.5-1.2,1.3-1c0.6,0.1,1.1,0.5,1.5,1l-0.7,0.7l2.1,1.4c0,0.5-0.7,0.6-0.4,1.2c-0.4,0.3-0.9,0.6-1.4,0.3h-1
		c0,0.3,0.1,0.6,0.1,1l-0.1,0.1c-0.5,0.4-0.4,0.6,0.1,0.9c0.6,0.3,1.2,0.7,1.7,1.1c0.6,0.4,1.2,0.8,1.9,0.9c0.4,0.1,0.7,0.2,0.5,0.8
		c-0.1,0.2,0,0.5,0.2,0.6c0.3,0.3,0.8,0.6,1.1,0.9c0.1,0.1,0.3,0.2,0.3,0.4c0.4,1.1,1.3,2,2.1,2.8c0.6,0.5,1.1,1,1.6,1.6
		c0.1,0.1,0.1,0.3,0.2,0.5c0.1,0.4,0.2,0.7,0.4,1.1c0.1,0.3,0.4,0.5,0.7,0.4h0.3c0.2,0.6,0.9,0.6,1.3,1c0.2,0.2,0.4,0.3,0.6,0.5
		c-0.2,0.1-0.3,0.3-0.4,0.4c-0.4,0.4-0.4,0.7,0,1.1l1.2,1.1c0.2,0.2,0.3,0.5,0.1,0.7c-0.3,0.4-0.4,0.7-0.1,1.2
		c0.2,0.4-0.1,0.7-0.4,0.9c-0.3,0.1-0.6,0.3-0.8,0.5c-0.6,0.5-0.9,0.5-1.3-0.1c-0.1-0.1-0.2-0.3-0.4-0.4c-0.1-0.1-0.4,0-0.5,0
		c-0.1,0.4-0.5,0.4-0.8,0.5c-0.2,0.1-0.3,0.2-0.5,0.3c-0.3,0.2-0.4,0.5-0.2,0.8c0.2,0.2,0.5,0.5,0.2,0.8c-0.1,0.1-0.5-0.1-0.7-0.2
		c-0.5-0.2-0.9-0.6-1.4-0.5c-0.1,0-0.3-0.2-0.4-0.3c0-0.2,0.1-0.3,0.2-0.4c0.2-0.3,0.6-0.5,0.7-0.7c0.1-0.6,0.1-1.2,0.1-1.8v-0.1
		c-0.6-0.4-0.2-0.8,0-1.2c0-0.1,0-0.1,0.1-0.2H81c0.9-1.1-0.2-1.4-0.9-2c0.2-0.1,0.4-0.2,0.5-0.3c-0.6-0.3-1.1-0.5-1.5-0.9
		c-0.8-0.6-1.3-1.3-1.3-2.4c0-0.6,0-1.3-0.1-1.9s-0.4-1-0.8-1.3c-0.4-0.4-0.9-0.8-1.2-1.3c-0.8-1.3-2-1.7-3.3-1.8
		c-0.3,0-0.6,0-0.6,0.5c0,0.3-0.2,0.7-0.4,1c-0.1,0.1-0.3,0.2-0.5,0.3c-0.5,0.3-0.9,0.1-1.3-0.2c-0.3-0.3-0.7-0.4-1.1-0.6
		c-0.3-0.2-0.6-0.1-0.8,0.2C67.1,78.7,66.9,79,66.5,78.6L66.5,78.6z M102.4,144.4c-0.2-0.4-0.5-0.6-0.9-0.6c-0.3,0-0.5-0.2-0.4-0.5
		l0.6-0.3c-0.6-0.5-0.3-0.9-0.1-1.3s0.6-0.6,0.9-0.9c-0.3,0-0.5,0-0.8,0.1v-0.5c0.4,0.1,0.8,0.1,1.2,0.2c0,0,0-0.1,0.1-0.1
		c-0.1-0.1-0.2-0.2-0.4-0.3c-0.4-0.3-0.4-0.6,0-0.9s0.9-0.6,1.4-0.8l3.1-0.8c0.7-0.2,1.3-0.8,1.6-1.5s0.7-1.3,1.2-1.8
		c0.8-0.7,1.2-1.6,1.4-2.7c0,0,0.1,0,0.1-0.1c0.2,0.2,0.4,0.4,0.5,0.7c0.3,0.6,0.8,1.1,1.3,1.4c0.4,0.2,0.6,0.2,0.8-0.3
		s0.4-1.1,0.1-1.7c-0.1-0.3-0.2-0.7,0.3-1c0.1,0.9,0.2,1.7,1.3,1.9c0.2-0.8,0-1.6-0.3-2.2c0.4-0.3,0.8-0.5,1.1-0.8s0.2-0.6-0.1-0.8
		c-0.1-0.1-0.3-0.3-0.3-0.4c0.1-0.2,0.2-0.5,0.6-0.5c0.6,0,0.9-0.4,1.2-0.8l0.3-0.6c0.2-0.5,0.4-1,0.9-1.4s0.7-1.1,1-1.7
		c0.2-0.3,0.2-0.6,0.5-0.9c0,0.5-0.1,0.9-0.1,1.5c0.8-0.4,0.8-1.1,1.3-1.6l0.6,1.1c0.2,0.2,0.5,0.3,0.7,0.5c0.2,0.1,0.4,0.3,0.6,0.5
		c0.3,0.3-0.1,0.4-0.2,0.6c-0.1,0.1-0.1,0.3-0.1,0.5c0,0.5,0,0.5-0.6,0.9c0.2,0.1,0.4,0.2,0.5,0.2c0.5,0,0.9,0,1.3-0.4
		c0.1-0.1,0.3,0,0.4,0v0.1c-0.1,0.1-0.2,0.3-0.4,0.3c-0.2,0.1-0.3,0.2-0.2,0.5s0.3,0.3,0.6,0.2c0.2,0,0.3-0.1,0.4-0.2
		c0.6-0.4,0.9-0.3,1.2,0.4c0.1,0.2,0.1,0.4,0.1,0.5c0.6-0.3,0.8-0.2,1.3,0.6l0.2-0.2c0.2,0,0.5,0,0.7,0.1c0.3,0.2,0.1,0.4-0.1,0.6
		c-0.6,0.5-1.3,0.8-2.1,0.7c-0.2,0-0.5-0.1-0.7-0.1c-0.3,0-0.6,0.2-0.7,0.3c-0.1,0.3,0,0.6,0.2,0.9c0.1,0.2,0.3,0.3,0.5,0.4
		c0.4,0.3,0.4,0.3,0.4,0.8c0.1,0,0.3-0.1,0.4-0.1v0.1c-0.3,0.4-2.2,0.5-2.7,0.1c-0.2-0.1-0.3-0.2-0.6-0.4c0,0.3-0.1,0.5-0.1,0.7
		c0,0.3-0.2,0.5-0.4,0.3c-0.7-0.6-1.5-0.6-2.3-0.5c-0.3,0-0.7-0.2-1-0.3c0,0.1-0.1,0.2-0.1,0.4c-0.5-0.1-1-0.4-1.5,0.1
		c-0.2-0.1-0.4-0.3-0.6-0.4c-0.8,0.8-1.2,1.8-1.2,2.9c0,0.7-0.2,1.4-0.3,2c0,0.3-0.2,0.4-0.4,0.5c-0.8,0.1-1,0.5-0.8,1.3
		c0.1,0.3,0.1,0.5,0.2,0.8l-1,0.7c-0.3,0.3-0.5,0.7-0.3,1.2c0.1,0.1,0,0.4-0.1,0.6c-0.3,0.5-0.6,1-0.8,1.5c-0.4,0.1-0.7,0.2-1,0.2
		c-0.8-0.1-1.4,0.3-2,0.6s-1.3-0.1-1.7-0.6c-1-1-3.1-0.7-3.5,0.7c-0.2,0.6-0.7,0.8-1.1,0.9s-1,0.1-1.5,0s-1-0.1-1.4,0.1
		c-0.3,0.1-0.6,0.3-0.8,0.4s-0.5,0-0.7-0.1c-0.7-0.4-1.3-0.9-1.8-1.7c0-0.1-0.1-0.2-0.2-0.2c-0.7-0.2-0.6-0.8-0.7-1.4
		c0.7,0.4,1.3,0.8,2.1,0.4c0.3,0.7,0.9,0.9,1.6,0.9c0.1,0,0.3,0,0.4,0.1C101.1,144.4,101.7,144.4,102.4,144.4L102.4,144.4z"/>
	<path class="st1" d="M87.2,92.8c-0.6,0.7-0.4,1.4-0.2,2.1c0.1,0.5,0.4,1,0.6,1.5c0.3,0.5,0.3,1,0.1,1.5c-0.3,0.6-0.3,1.2,0.1,1.7
		c0.3,0.6,0.1,1.1-0.1,1.5c-0.4,0.1-0.7,0.2-0.9,0.3c-0.7,0.8-1.6,1.1-2.6,1.2c-0.1,0-0.1,0-0.1,0.1c0.1,0.3,0.1,0.6,0.2,1
		c-0.2-0.1-0.3-0.1-0.4-0.1c-0.8-0.3-1.1-0.2-1.6,0.5c-0.1,0.1-0.1,0.3-0.1,0.4c0.1,0.7,0.2,1.5,1,1.8c0.1,0,0.1,0.1,0.2,0.1
		l0.1,0.1c0,0.2-0.1,0.4-0.1,0.7c-0.2-0.2-0.5-0.3-0.7-0.5c-0.3-0.3-0.5-0.4-0.9-0.3c-0.2,0.1-0.5,0.2-0.7,0.2
		c-0.4,0.1-0.8,0.2-1.2-0.3c-0.1,0.4-0.2,0.6-0.3,0.9c-0.1,0.6-0.2,0.7-0.8,0.8l-1,0.3c-0.2,0-0.3,0.1-0.5,0
		c-0.5-0.2-0.9-0.4-1.3-0.6c-0.2,0-0.3,0.1-0.4,0.2c-0.3,0.3-0.4,0.3-0.7,0c0.6-0.8,0.7-1.2,0.2-1.9c-0.1-0.2-0.4-0.4-0.5-0.4
		c-0.2,0-0.3,0.3-0.5,0.5c-0.1,0.1-0.1,0.3-0.2,0.4s-0.4,0.1-0.5,0.1s-0.1-0.3-0.1-0.4c0-0.4,0.1-0.8,0-1.3c0-0.2-0.1-0.4-0.2-0.6
		c-0.1-0.1-0.2-0.3-0.4-0.4c0.2-0.1,0.4-0.1,0.6-0.2c-0.1-0.1-0.2-0.2-0.3-0.2c-0.9-0.3-1.1-1.1-1.1-1.9c0-0.6-0.1-1.1-0.4-1.6
		c-0.4-0.6-0.7-1.3-1-2c-0.2-0.4-0.2-0.9-0.3-1.4c1-0.3,1.4-1.1,1.7-1.9c0.3-0.9,1-1.4,1.9-1.5c0.3,0,0.6,0.1,0.9,0.1
		c0.2,0,0.5,0.2,0.7,0.1l2.4-0.3c0.1,0,0.3-0.1,0.4,0c0.5,0.3,1.1,0.4,1.6,0.9c0.1,0.1,0.4,0.3,0.6,0.3c0.5-0.1,0.9,0.2,1.3,0.5
		c0.2,0.1,0.4,0.3,0.5,0.3c0.2,0,0.5,0,0.7-0.2c0.1-0.2,0.2-0.5,0.1-0.7s-0.2-0.5-0.4-0.7c0.5-0.3,1-0.5,1.6-0.8
		C85.1,93.8,85.1,94,87.2,92.8L87.2,92.8z M137,152.9c0.5,0.6,1,0.6,1.5,0.5c0.2,0,0.4-0.1,0.5-0.3c0.2-0.5,0.7-0.5,1.1-0.5
		c0.5,0,1,0.1,1.4,0.1l-1.7,2c-0.4,0.4-0.8,0.7-1.2,1s-0.9,0.6-1.2,0.9c-0.4,0.4-0.5,0.4-1,0.1c-0.2-0.1-0.3-0.3-0.6-0.5
		c0,0.5-0.1,1-0.1,1.5c0.4-0.2,0.6,0,0.8,0.3c0.1,0.2,0.4,0.3,0.5,0.5c0.3,0.4,0.5,0.9,0.7,1.3s0.3,0.8,0.7,1
		c0.1,0.1,0.2,0.3,0.3,0.5c0.1,0.3,0.1,0.5,0.2,0.9c-0.1,0.1-0.2,0.3-0.3,0.5h-0.3v0.1c0.1,0.2,0.2,0.3,0.2,0.5
		c-0.2,0.8,0.3,1.3,0.9,1.7c-0.1,0.1-0.1,0.2-0.2,0.3c0.2,0.1,0.4,0.3,0.5,0.4c0.2,0.1,0.4,0.2,0.7,0.3c0,0.1,0.2,0.4-0.4,0.6
		c-0.5,0.2-1.1,0.2-1.7,0.3c-0.7,0.2-0.9,0.4-1,1c0,0.2-0.1,0.3-0.1,0.6l-1.3-0.5c-0.1-0.1-0.2-0.5-0.2-0.7c0.1-0.4,0.2-0.8,0.4-1.2
		s0-0.7-0.4-1c-0.5-0.4-1-0.8-1.4-1.3s-0.3-0.9,0-1.4c0.4-0.6,0.6-1.3,0.4-2c-0.1-0.5-0.4-0.7-0.9-0.7c-0.8,0-1.5,0.4-2.1,1
		c-0.3,0.3-0.4,0.7-0.2,1.1c0.5,0.8,0.2,1.5,0.2,2.3l-0.2,2.9c-0.1,0.5-0.1,1.1-0.3,1.6c-0.3,0.7-0.3,1.3,0,1.9
		c0.1,0.1,0.1,0.3,0.1,0.5c-0.5,0.1-0.9,0.2-1.3,0.2c-0.2,0-0.3,0.1-0.5,0.2c-0.4,0.2-1.1,0.1-1.2-0.3s-0.2-0.9,0-1.3
		c0.7-1.1,0.9-2.4,1-3.6c0.1-0.5-0.1-1.1-0.2-1.7c0-0.3-0.1-0.6,0-0.9c0-0.5-0.1-0.7-0.7-0.7c-0.4,0-0.9,0.2-1.4,0.3
		c-0.2-0.6-0.4-1.2-0.1-1.8c0.1-0.1,0.1-0.4,0-0.5c-0.2-0.3-0.1-0.5,0.1-0.7s0.4-0.3,0.6-0.6s0.4-0.7,0.6-1.1
		c0.1-0.2,0.1-0.3,0.2-0.5c0.5-0.6,0.6-1.3,0.6-2.1c-0.1-1.3,0.6-2.3,1.3-3.3c0.1,0.3,0.2,0.5,0.4,0.8c0.3-0.4,0.2-0.8,0.2-1.2
		l-0.2-2c0-0.1,0.1-0.1,0.1-0.2c0.1-0.3,0.3-0.6,0.2-0.9c0-0.5,0-0.9,0.4-1.2c0.4-0.5,0.7-1,1-1.6c0.9,0.4,1.5,0.2,1.9-0.6
		c0.1-0.2,0.2-0.4,0.2-0.6c0.1-0.4,0.3-0.4,0.6-0.4c0.6,0.1,1.2,0.1,1.7,0.7c0.1,0.2,0.4,0.2,0.6,0.3c1.2,0.1,2.4,0.3,3.6,0.7
		c0.2,0.1,0.4,0.1,0.6,0c0.7-0.4,1.4-0.2,2.1-0.1c0.6,0.1,1.3,0.1,1.9,0c0.4-0.1,0.7-0.5,1.1-0.7c0.1-0.1,0.2-0.2,0.4-0.3
		c0.4-0.1,0.5-0.4,0.7-0.7c0.3-0.5,0.8-0.9,1.2-1.3c0.1-0.1,0.3,0,0.4,0.1c0.1,0.2,0.2,0.4,0.1,0.6c-0.6,1.3-1.6,2.3-2.3,3.4
		c-0.1,0.2-0.3,0.4-0.6,0.5c-1,0.5-2.1,0.7-3.2,0.5c-0.2,0-0.4-0.1-0.5-0.2c-1-0.7-2.2-0.8-3.3-0.5c-0.7,0.1-1.4,0.2-2.1-0.1
		c-0.2-0.1-0.6,0-0.9,0.1c-0.6,0.2-1.1,0.3-1.7,0.1c-1.5-0.5-2.2-0.2-2.9,1.2c-0.6,1.2-0.7,2.5-0.2,3.8c0.2,0.5,0.4,0.8,1,0.9
		c0.2,0,0.4,0.4,0.4,0.6c0.1,0.7,0.5,1,1.1,1.1c0.7,0.2,1,0,1.4-0.6L137,152.9L137,152.9z M63.8,123.5c0.1,0.2,0.2,0.3,0.3,0.4
		c0.2,0.3,0.5,0.5,0.9,0.5c0.3,0,0.5,0.1,0.7,0.4c0.1,0.2,0.3,0.4,0.5,0.5c0.4,0.2,0.5,0.5,0.3,0.9c-0.1,0.2-0.2,0.4-0.1,0.5
		c0,0.2,0,0.6,0.2,0.7s0.6,0.1,0.8,0s0.4-0.4,0.6-0.6c0.2-0.3,0.4-0.3,0.7,0c0.5,0.6,0.8,0.5,1.1-0.1l0.6-1.3c0.4,0,0.6,0.3,0.9,0.6
		c0.3,0.5,0.7,1,1.1,1.4c2,1.8,2.8,3.9,2.3,6.6c-0.1,0.6-0.1,1.1,0,1.7c0.1,0.5,0.1,1,0,1.5c-0.1,0.9,0.1,1.6,0.8,2.2
		c0.7,0.5,1,1.2,1.2,2.1c-1.1,0.1-2,0.5-2.6,1.7l-2.1-1.6c-0.2-0.2-0.5-0.4-0.8-0.5c-0.8-0.2-1.3-0.8-1.7-1.4
		c-0.1-0.2-0.3-0.3-0.4-0.4c-0.4-0.3-0.9-0.5-1.4-0.8c0.4-0.8,0.2-1.4-0.2-1.9c-0.5-0.8-1.1-1.5-1.7-2.3c0.4-0.2,0.4-0.4,0-0.6
		c-0.4-0.3-0.6-0.7-0.5-1.2c0.2-0.8,0-1.5-0.4-2.2c-0.2-0.4-0.3-0.8-0.4-1.2s0-0.8,0-1.2c0.1-0.9-0.1-1.7-0.5-2.5
		S63.5,124.1,63.8,123.5L63.8,123.5z M100.8,175.6c0.6,0.7,2.2,1.2,3.4,1v1.6c0.1-0.1,0.3-0.2,0.4-0.3v0.1c-0.2,1.1-0.1,1.1,0.8,1.6
		c0.6,0.3,1.2,0.3,1.9,0.2c0.8-0.1,1.6-0.3,2.4,0c0.4,0.1,0.5,0.3,0.4,0.7l-0.3,0.9c-0.2,0.6-0.2,1.3,0.2,1.8
		c0.1,0.1,0.1,0.2,0.2,0.3c-0.1,0-0.2,0-0.2-0.1c-0.2-0.6-0.6-0.5-1.1-0.6c-0.7-0.1-1.2-0.3-1.8-0.7c-0.3-0.2-0.6-0.4-0.9-0.5
		s-0.8-0.1-1.1,0c-0.7,0.3-1.3,0.4-2,0.3c-0.9-0.2-1.8-0.2-2.7-0.4c-1.4-0.2-2.9-0.3-4.2-0.9s-2.8-1-4.2-1.4
		c-0.4-0.1-0.9-0.1-1.4-0.2c-0.4,0-0.7,0-1,0.4c-0.1,0.1-0.4,0.2-0.6,0.2c-0.4-0.1-0.7-0.1-1-0.3c-1.2-0.8-2.6-1.1-4-1.1
		c-0.3,0-0.5-0.1-0.8-0.2s-0.4-0.3-0.2-0.6l0.1-0.1c0.4-0.5,0.3-0.7-0.3-0.9c-0.9-0.3-1.8-0.8-2.8-0.6c0.2-0.4,0.2-0.8,0.8-1
		c0.2-0.1,0.4-0.6,0.4-0.9c0.1-0.5,0.3-0.9,0.7-1.2c0,0.2,0,0.3,0.1,0.4c0.7-0.5,1.4-0.3,2.1,0.1c0.4,0.2,0.7,0.2,1-0.1
		c0.2-0.3,0.4-0.4,0.7-0.2l0.9,0.6c0.3,0.3,0.6,0.5,1,0.4c0.2,0,0.5,0.1,0.6,0.2c0.4,0.2,0.7,0.4,1.2,0c0.1,0.3,0.3,0.5,0.4,0.8
		c0.2,0.3,0.3,0.7,0.5,1c0.3,0.5,0.7,0.5,1.2,0.4c0.3-0.1,0.5,0,0.8,0s0.5,0.1,0.8,0.1l2.4,0.1c0.1,0,0.3,0.1,0.4,0.1
		c0.6,0.3,0.9,0.2,1.2-0.4c0.2-0.3,0.3-0.7,0.5-1.1c0.3-0.7,0.7-0.7,1.1-0.1C99.7,176,100,176.1,100.8,175.6L100.8,175.6z"/>
	<path class="st1" d="M136.5,94.8c-0.6,0.1-1.1,0.4-1.3,0.9c-0.2,0.3-0.4,0.5-0.8,0.4c-0.1,0-0.2-0.1-0.3-0.2
		c-0.3-0.3-0.5-0.6-0.8-0.8c-0.2-0.1-0.4-0.1-0.7-0.2c-0.3-0.5-0.2-0.8,0.2-1.2c0.2-0.2,0.4-0.3,0.6-0.5c0.5-0.4,0.5-0.7,0-1.1
		c-0.5-0.3-1-0.6-1.6-0.8l-0.1,0.1c0.1,0.5,0.2,1,0.2,1.5c-0.1,0-0.1,0.1-0.2,0.1c-0.1-0.2-0.3-0.3-0.4-0.5s-0.1-0.5-0.2-0.8
		s-0.3-0.5-0.8-0.4l-0.9-3.7c0-0.2-0.1-0.3-0.2-0.4c-0.4-0.4-0.3-0.8-0.3-1.3l0.6,0.6c0.2,0.1,0.3,0.3,0.5,0.4s0.5,0.1,0.7,0.1
		c0.1-0.1,0.2-0.4,0.2-0.6c0-0.3-0.1-0.6-0.1-0.9c0-0.6,0-1.3-0.1-1.9c0-0.5,0-1.1-0.2-1.6c-0.2-0.9-0.3-1.8,0-2.8l0.3-1.8
		c0.4-0.4,1.1-0.4,1.7-0.2s1.2,0.5,1.5,1.1c0.2,0,0.5-0.1,0.7,0c0.7,0.1,0.7,0.1,1-0.5c0-0.1,0.1-0.1,0.1-0.2
		c0.3,0.3,0.3,0.6,0.2,0.9c-0.3,0.6-0.3,1.2-0.2,1.8c0.1,0.5,0.3,0.9,0.7,1.3c0.2,0.2,0.3,0.6,0.5,0.8c0.6,0.9,0,1.6-0.2,2.4
		c0,0.1-0.1,0.2-0.1,0.4c0,0.7-0.5,1-1,1.2c-0.8,0.3-1.2,0.9-1.1,1.8v0.6c-0.4,1.1,0,2.1,0.6,3c0.1,0.2,0.2,0.4,0.2,0.7
		c-0.1,0.8,0.3,1.4,0.7,2.1C136.3,94.6,136.4,94.6,136.5,94.8L136.5,94.8z M143,120.2c-0.1-0.1-0.2-0.2-0.2-0.4
		c-0.1-0.2-0.2-0.4-0.2-0.7l-0.6,0.6c0,0,0,0.1-0.1,0.3l-0.4-0.4c-0.1-0.1-0.1-0.3-0.1-0.4c-0.2-0.4-0.7-0.5-0.9,0
		c-0.4,0.8-1.1,1.6-1.1,2.6c0,0.2-0.2,0.4-0.3,0.5c0,0-0.3,0-0.3-0.1c-0.1-0.2-0.1-0.4,0-0.6c0.4-0.7,0.6-1.5,0.6-2.4
		c0-0.5,0.3-0.8,0.8-0.9c0.3-0.1,0.7-0.1,1-0.2c0.6-0.1,1-0.4,1.1-1c0.1-0.4,0.3-0.7,0.7-0.8c0.3-0.1,0.5-0.3,0.8-0.4
		c0,0.1,0.1,0.3,0.2,0.5l0.4-0.4c0.4,0.4,0.5,0.9,0.5,1.5c0,0.2-0.3,0.3-0.4,0.5s-0.1,0.3-0.2,0.5c0.2,0,0.4,0,0.6-0.1
		c0.4-0.3,0.8-0.5,1.3-0.6c0.2,0,0.4-0.3,0.5-0.5s0.1-0.4,0.1-0.6c0.1-0.6,0.2-0.6,0.7-0.4c0.4,0.2,0.8,0.1,0.9-0.4
		c0.1-0.4,0.1-0.9,0.2-1.3c1,0.5,1,0.5,1.2-0.1c0.2,0,0.4,0.1,0.6,0.1c0.6,0,0.8-0.2,0.6-0.7c-0.1-0.4-0.3-0.8-0.4-1.3
		c-0.1-0.3-0.1-0.7-0.2-1.1c0.5,0.3,0.9,0.6,1.3,0.9c0.1,0.1,0.1,0.2,0.2,0.4c0.2,0.4,0.4,0.8,0.8,0.7c0.2,0.4,0.3,0.8,0.5,1.1
		s0.1,0.4-0.1,0.6c-0.7,0.5-0.7,0.7,0,1.2c0.3,0.2,0.9,0.3,0.4,0.9c0,0,0.1,0.2,0.1,0.3c0.4,0.1,0.3,0.4,0.2,0.7
		c-0.2,0.4-0.1,0.7,0.2,1c0.6,0.6,0.6,2.1,0,2.6c-0.3,0.3-0.6,0.5-0.9,0.8c-0.3-0.5-0.5-1-0.7-1.4c-0.4-0.6-0.7-0.7-1,0l-0.8,1.8
		c-0.1,0.3,0.1,0.7,0.2,1c0,0.2,0.2,0.3,0.3,0.4c0.7,1,0.6,2.3-0.3,3.1c0,0-0.1,0.1-0.3,0.2c0-0.6,0-1.1-0.1-1.5
		c0-0.2-0.1-0.4-0.2-0.6c-0.2,0.1-0.5,0.2-0.6,0.4c-0.3,0.6-0.3,0.6-0.9,0.3l-1.6-0.9c-0.5-0.3-0.8-0.8-0.9-1.3
		c-0.1-0.3-0.1-0.6-0.2-0.9c-0.1-0.5,0-0.9,0.3-1.4c0.6-0.8,0.4-1.5-0.4-2.1c-0.4-0.3-0.8-0.5-1.2-0.8c-0.3-0.2-0.6-0.2-0.7,0.1
		C143.4,119.3,143.2,119.7,143,120.2L143,120.2z M63.9,119c-0.6-0.1-0.9,0.1-0.7,0.6c0.2,0.9,0.7,1.7,1.6,2.1
		c0.2,0.1,0.4,0.3,0.5,0.4c0.4,0.5,0.8,0.7,1.4,0.6h0.6c0.5,0,0.8,0.2,1.1,0.6c0.4,0.6,0.8,1.1,1.2,1.6c0.1,0.2,0.2,0.5,0.1,0.7
		c-0.1,0.4-0.4,0.8-0.5,1.2c-0.1,0-0.2,0-0.2-0.1c-0.7-0.8-0.9-0.8-1.6,0l-0.3,0.3c-0.1,0.1-0.3,0.1-0.4,0.1c0-0.1-0.1-0.3-0.1-0.4
		c0-0.2,0.1-0.3,0.2-0.5c0.2-0.6,0.1-0.9-0.5-1.3c-0.2-0.1-0.4-0.2-0.4-0.4c-0.2-0.5-0.5-0.6-1-0.7c-0.2-0.1-0.5-0.2-0.7-0.4
		c-0.2-0.1-0.4-0.4-0.6-0.4s-0.3,0.3-0.5,0.5c-0.3-0.3-0.7-0.6-1-1c-0.2-0.2-0.4-0.5-0.2-0.8c0-0.1-0.1-0.3-0.1-0.3
		c-0.4,0-0.3-0.3-0.4-0.5c-0.1-0.3-0.3-0.5-0.4-0.8c0,0-0.1,0-0.1,0.1v0.4c-0.1,0-0.1,0-0.1-0.1c-0.1-0.2-0.2-0.4-0.2-0.6
		c-0.1-0.5-0.3-0.9-0.9-0.8c-0.1-0.6-0.2-1.1-0.9-1.3c-0.1,0-0.1-0.1-0.1-0.2s0-0.2-0.1-0.4c-0.1-0.3-0.3-0.7-0.7-0.7
		s-0.6,0.3-0.6,0.7c-0.4-0.2-0.5-0.5-0.4-0.9c0.1-1.1,0.3-2.2,0.5-3.3l1.3-4.5c0.3-1.5,1.5-2.4,2-3.7c0.1,0,0.1,0.1,0.2,0.1
		l-1.1,3.9h-0.4v0.1c0.3,0.4,0.4,0.8,0.4,1.3c-0.1,0.8-0.2,1.6,0.2,2.3c0.1,0.1,0,0.3,0,0.4c-0.1,0.5,0.1,0.8,0.6,0.8
		c0.3,0,0.6-0.1,0.9-0.2c0.6-0.2,0.8-0.1,0.9,0.5l0.5,2.2c0.1,0.2,0.4,0.4,0.6,0.6c0.1,0.1,0.2,0.2,0.2,0.3
		C63.7,117.8,63.8,118.4,63.9,119L63.9,119z M173.6,157h-0.4c-0.4,0-0.6-0.2-0.4-0.5c0.1-0.3,0.3-0.5,0-0.7c-0.1-0.1,0-0.2,0-0.4
		h-0.4v-0.6h-0.1c-0.5,0.6-0.5,0.6-1.2,0.2c-0.3-0.2-0.6-0.3-0.8-0.4l-0.1,0.1c0,0.1,0,0.2,0.1,0.4c-0.2-0.1-0.5-0.1-0.5-0.2
		c-0.1-0.1,0.1-0.3,0.2-0.5s0.4-0.4,0.5-0.6c0.2-0.3,0.3-0.6,0.4-0.9l-0.1-0.1c0.2,0,0.4-0.1,0.6-0.1c0.8-0.2,1.4-0.5,2-1
		c1-0.8,2-0.8,3-0.2c0.2,0.1,0.3,0.2,0.5,0.4c0.6,0.5,1.3,0.8,2.2,0.7c0.3,0,0.7,0.1,1.1,0.1c-0.3,0.6-0.1,1,0.1,1.4
		c0.3,0.5,0.3,0.9,0.1,1.4c-0.3,0.6-0.4,1.3-0.6,2l-3.3,0.6c-0.5,0.1-1-0.1-1.5-0.2c-0.1,0-0.3-0.1-0.4,0c-0.5,0.2-0.8,0-1.2-0.4
		C173.3,157.4,173.4,157.3,173.6,157L173.6,157z M78.9,144.2c0,1.5-1.1,2.6-2.5,2.6s-2.3-1-2.3-2.4c0-1.5,1.1-2.6,2.5-2.6
		S79,142.8,78.9,144.2z M159.5,161.4c-0.3,0.1-0.5,0.2-0.8,0.2c0.4-0.5,1-0.8,1.6-0.8c0.5-0.1,1-0.1,1.5-0.1c0.1,0,0.3,0,0.4,0.1
		c0.4,0.3,0.7,0.3,1.1,0c0.6-0.4,1.1-0.3,1.7,0.1c0.4,0.3,0.9,0.4,1.4,0.4c0.5-0.1,1,0.3,1.1,0.8c0.1,0.4,0.2,0.7,0.5,1
		s0.2,0.7,0.1,1.1c-0.1-0.1-0.3-0.1-0.4-0.2c-0.4-0.3-0.9-0.5-1.3-0.8c-0.3-0.2-0.6-0.4-0.9-0.7c-0.5-0.5-1.1-0.5-1.6-0.1
		c-0.1,0.1-0.2,0.1-0.3,0.1c-0.5-0.2-1.1,0.1-1.4-0.6c0-0.1-0.3-0.1-0.4-0.1c-0.3,0.1-0.6,0.3-0.8,0.4s-0.4,0.4-0.7,0.1
		s-0.6-0.5-0.5-1C159.6,161.6,159.6,161.6,159.5,161.4L159.5,161.4z M146.5,185.5c-0.3,0-0.4,0.2-0.3,0.5c0,0.2,0.1,0.5-0.3,0.4
		l-0.2,0.2c-0.6,1.2-1.3,2.2-2.8,2.4c-0.3,0-0.5,0.2-0.8,0.3c-0.4,0.2-0.9,0.3-1.3,0.4c0.1-0.5,1-0.7,0.3-1.4l1.2-1.9l1.5,0.6
		l0.6-1.3c0-0.1,0-0.1,0.1-0.2l1.4-1.1c0.1-0.1,0.4,0.1,0.6,0.1c-0.1,0-0.1,0.1-0.2,0.1C146.4,185.1,146.5,185.3,146.5,185.5z
		 M146.5,185.5c0.6-0.5,0.6-0.9,0.2-1.4c0.2-0.6,0.6-0.8,1.2-0.9l5.4-0.9h0.8c-0.4,0.6-0.8,0.9-1.3,1.1l-6.1,2.4
		C146.6,185.8,146.6,185.6,146.5,185.5L146.5,185.5z M139.8,110.9c0,0,0.1-0.2,0.2-0.2s0.1,0,0.2-0.1c1-0.3,1.2-0.6,1-1.6
		c-0.1-0.3-0.1-0.6,0.1-0.8c0.1-0.3,0.2-0.6,0.2-0.9c0.1-0.4,0.4-0.6,0.9-0.5s0.8,0.4,0.7,0.8l-0.6,1.6c-0.2,0.6-0.3,1.1-0.4,1.7
		c-0.1,0.7-0.1,1.3,0.3,2c0.1,0.2,0.2,0.5,0.1,0.7s-0.3,0.3-0.5,0.4c-0.1-0.2-0.3-0.3-0.3-0.5c-0.1-0.4-0.4-0.7-0.8-0.8
		C140.4,112.5,139.7,111.6,139.8,110.9L139.8,110.9z M145.7,100.7h1.6c0.4,0,0.8,0.1,1.2,0.1c0.1,0,0.2,0.2,0.2,0.3
		c0,0.4,0.2,0.7,0.7,0.7c0,0.5-0.1,1.1,0,1.6c0.1,0.4,0.3,0.8,0.5,1.3c0.1,0.3,0.3,0.6-0.2,0.9c0.2,0.1,0.3,0.1,0.4,0.2
		c-0.3,0-0.7,0.1-1,0c-0.5-0.1-1.2-1.1-1-1.5c0.1-0.3,0.3-0.6,0.4-1c-0.5,0.3-0.8,0-1.1-0.2c-0.6-0.6-1.4-1.1-1.7-2L145.7,100.7
		L145.7,100.7z M190.2,182.1c0.5-1,0.8-2,1.6-2.8c0.5-0.5,1.1-0.7,1.8-0.8c0.4-0.1,1.1,0.4,1.3,0.8c0,0.1,0,0.3-0.1,0.4
		c-0.5,0.8-1,1.6-1.9,2.1c-0.3,0.2-0.6,0.3-1,0.3H190.2L190.2,182.1z M138,108.5l0.2-3.2c0-0.8,0.3-1.6-0.6-2.1
		c0.6,0.3,1.3,0.4,1.7,1c0.3,0.4,0.6,0.6,1,0.2c0.2-0.2,0.4-0.1,0.5,0.2c0,0.1,0.1,0.2,0.2,0.3c0.2-0.1,0.3-0.2,0.5-0.3
		c0,0.3,0.1,0.6,0.1,0.9c0,0.1-0.1,0.3-0.3,0.4c-0.4,0.2-0.8,0.4-0.9,1c0,0.2-0.4,0.5-0.7,0.5c-0.6,0.1-1,0.4-1.4,0.8
		C138.3,108.4,138.2,108.4,138,108.5z M128.8,183.8c-0.2-0.7-0.1-0.9,0.5-1.2c0.1,0,0.1,0,0.2-0.1c1.5-1.1,2.9-0.5,4.2,0.3
		c0.4,0.2,0.7,0.5,1.1,0.1c0.3-0.2,0.7-0.3,1.1-0.2c0.3,0,0.6,0.3,0.9,0.6c-1.1,0.2-2,1-3.2,0.2v0.5c-0.6,0.1-1.1,0.3-1.6-0.1
		c-0.2-0.2-0.6-0.2-0.9-0.2c-0.6,0-1.2-0.1-1.7,0C129.2,183.7,129,183.8,128.8,183.8L128.8,183.8z M161.8,148.3l-1.8-0.6
		c-0.8-0.3-1.2-0.1-1.1,0.8c0.1,1.3,0.2,2.5,0.7,3.7c-0.2-0.3-0.2-0.6-0.5-0.8c-0.8-0.7-0.8-1.6-0.6-2.5c0.1-0.3-0.1-0.6-0.3-0.9
		c-0.3-0.5-0.4-1,0-1.5c0.2,0.1,0.4,0.1,0.5,0.1c0.3,0,0.5-0.2,0.6-0.5c0.1-0.4,0.2-0.6,0.6-0.8c0.3-0.1,0.6-0.4,0.2-0.7
		c0.4-0.5,0.8-0.9,1.5-1c0,0.4,0.1,0.7,0.1,1.1s-0.2,0.6-0.5,0.8c-0.3,0.1-0.5,0.3-0.7,0.5c-0.6,0.5-0.5,1.1,0.2,1.3
		C161.3,147.3,161.6,147.6,161.8,148.3L161.8,148.3z M128.2,186.2c0.4-0.1,0.7,0.1,1,0.5c0.3,0.3,0.7,0.5,1,0.8s0.6,0.6,0.8,0.9
		s0,0.6-0.2,0.8c-0.5,0.4-1.2,0.3-1.7-0.1c-0.2-0.2-0.5-0.5-0.7-0.8c-0.5-0.6-1.2-0.9-1.9-0.9c-0.3,0-0.6-0.1-0.9-0.3
		s-0.2-0.4,0.1-0.5c0.1,0,0.2-0.1,0.3-0.1C126.7,186.3,127.4,186.3,128.2,186.2L128.2,186.2z M135.2,101.6c-0.2-0.1-0.3-0.3-0.5-0.4
		c-0.6-0.8-1.2-1.6-1.5-2.6c-0.1-0.4-0.5-0.7-0.7-1.1l-0.6-0.6c1.1-0.4,2.6,0,3.2,0.8S136.1,100.4,135.2,101.6z M85.1,161.4
		c-0.2,0-0.3-0.1-0.5-0.2l-1.5-1c-0.1-0.1-0.2-0.4-0.2-0.5c0.1-0.7-0.2-1.2-0.5-1.8c-0.2-0.5-0.7-0.6-1.2-0.5c-0.3,0-0.6,0-0.9-0.2
		c0.6-0.4,0.9-0.8,0.7-1.5c0.7,0,0.9,0.9,1.6,0.8c-0.1-0.2-0.2-0.3-0.2-0.4c0-0.2,0.1-0.4,0.1-0.6c0.2,0.1,0.5,0.1,0.5,0.3l0.3,1.4
		v0.7c0.1,1,0.5,1.3,1.4,1.5c0.1,0,0.2,0.1,0.4,0.1C84.9,160.2,84.4,160.7,85.1,161.4z M143.4,98.6c0.4-0.2,0.7-0.5,1,0
		c0,0,0,0.1-0.1,0.1c-0.7,0.5-1.3,0.2-1.9-0.2c-0.1-0.1-0.3-0.1-0.4-0.2c0.1-0.7-0.4-1.1-0.8-1.4c-0.4-0.3-0.7-0.6-1-1
		c-0.5-0.5-1-1.1-1.9-0.9c0.1-0.4,0.1-0.9,0.3-1c0.2-0.2,0.7-0.1,1,0c0.5,0.1,0.8,0.5,0.9,1c0.1,0.2,0.1,0.5,0.2,0.7
		c0.1,0.3,0.3,0.6,0.7,0.4c0.4-0.1,0.5-0.4,0.3-0.8c0-0.1-0.1-0.2-0.1-0.2l1.7,0.6l-0.8,0.3c-0.4,0.2-0.4,0.5-0.1,0.7
		c0.5,0.4,1,0.8,0.8,1.5C143.3,98.3,143.4,98.4,143.4,98.6L143.4,98.6z M155.4,162.1c-0.1,0.2-0.2,0.3-0.3,0.4c0,0,0,0.1,0.1,0.1
		c0.2,0.1,0.4,0.3,0.6,0.4c-0.2,0.2-0.3,0.6-0.5,0.7c-0.4,0.2-0.8,0.3-1.2,0.5H154c-0.7-0.1-1.8-1-1.9-1.7c-0.1-0.3-0.1-0.5,0.3-0.6
		c0.8-0.2,1.7-0.4,2.5-0.1C154.9,161.9,155.1,162,155.4,162.1L155.4,162.1z M123,183.7c-0.5,0.1-1,0.3-1.4,0.4
		c-0.2,0.1-0.4,0.1-0.7,0.2l-1.3,0.3c-0.2,0-0.3,0.1-0.4,0.2c-0.4,0.2-0.6,0.1-0.9-0.2c-0.1-0.1-0.1-0.2-0.1-0.3
		c0.1-0.4,0.1-0.7,0.2-1c0-0.1,0.1-0.3,0.2-0.3c0.7-0.4,1.4-0.7,2.2-0.3c0.2,0.1,0.3,0.2,0.4,0.4c0.5,0.8,0.6,0.8,1.5,0.6
		c0.1,0,0.2-0.1,0.3-0.1L123,183.7L123,183.7z M149,109.2l-0.8-0.3v0.8h-0.1l-0.3-1c-0.1-0.4,0-0.7,0-1.1c0-0.7-0.6-1.3-1.3-1.2
		c-0.1-0.5-0.3-1-0.5-1.5c0.4,0.2,0.7,0.4,0.9,0.4c0.3,0,0.6-0.2,0.9-0.3c0,0.2,0.1,0.3,0.2,0.4c0.1,0.2,0.2,0.4,0.2,0.6
		c-0.1,0.8,0.3,1.5,0.6,2.2c0.1,0.2,0.2,0.5,0.3,0.7C149.1,109.1,149.1,109.2,149,109.2L149,109.2z M126.9,110.6
		c0.1,1-0.2,1.8-1,2.5c-0.6,0.5-1.1,1.1-1.7,1.7l-2,1.6c0.3-0.9,0.7-1.6,1.4-2.1c0.2-0.2,0.3-0.4,0.5-0.5l0.3-0.3
		c0.3-0.2,0.7-0.4,0.9-0.7C125.9,112.1,126.4,111.4,126.9,110.6z M121.7,181.6c0.5-0.4,0.9-0.4,1.2,0.1c0.4,0.6,0.5,0.7,1.2,0.3
		c0.3-0.2,0.4,0.2,0.5,0.3l0.3,0.3l0.3-0.3c0.1-0.1,0.3-0.2,0.4-0.3c0.1,0.1,0.2,0.2,0.2,0.4c0,0.1,0,0.3,0.1,0.5
		c0,0.1,0.1,0.3,0.1,0.5c-0.8-0.2-1.4,0.1-2,0.5l-0.1-0.1c0-0.1,0.1-0.3,0-0.4c0-0.3,0.1-0.4-0.4-0.5
		C122.8,182.7,122.1,182.3,121.7,181.6z M112.8,183.3c-0.5-0.3-0.8-0.6-1.2-0.9s-0.9-0.3-1.1-0.9c0.1,0,0.2,0.1,0.3,0.1
		c0.6,0.2,1.2,0.1,1.8-0.1c0.5-0.2,1.5,0.2,1.7,0.7c0,0.1-0.2,0.4-0.3,0.5c-0.2,0.1-0.5,0.2-0.7,0.3
		C113.1,183,112.9,183.2,112.8,183.3L112.8,183.3z M159.3,141.3c-0.1,0.1-0.1,0.2-0.2,0.3c-0.4,0.5-0.4,0.7,0,1.2
		c0.1,0.2,0.2,0.4,0.2,0.6c0,0.7-0.3,1.3-0.9,1.8l-0.6,0.6C157.4,144.8,158.3,141.9,159.3,141.3L159.3,141.3z M89.9,161.9
		c-0.4-0.2-0.6-0.4-1-0.7c-0.1,0.2-0.1,0.3-0.1,0.6c-0.1-0.2-0.3-0.4-0.3-0.5v-0.8c0.2-0.8,0.4-1,1.2-0.7c0.7,0.2,1,0.7,0.6,1.4
		C90.3,161.4,90.1,161.6,89.9,161.9z M112.2,131.7c0.8-0.5,1.5-1.1,2.2-1.6l0.1,0.1c-0.1,0.1-0.1,0.2-0.2,0.3
		c-0.4,0.3-0.5,0.7-0.5,1.2v1.9C112.8,133.2,112.5,132.7,112.2,131.7z M116.8,184.1c-0.4,0-0.8-0.1-1.1-0.1l0.3-1.2
		c0.1-0.8,1-1.3,1.6-0.9c0.3,0.2,0.4,0.3,0.2,0.7C117.4,183,117.1,183.5,116.8,184.1z M106,177c-0.2,0.6-0.6,0.6-1.2,0
		c0.3-0.2,0.6-0.4,0.9-0.4c1.1-0.1,2.2-0.1,3.2-0.1c0.1,0,0.2,0.1,0.3,0.1v0.1l-2.1,0.8C106.6,177.7,106.3,177.4,106,177L106,177z
		 M55.1,147c-0.7-0.9-1.3-1.9-1.9-2.8c0.7-0.4,0.8-0.4,1.3,0.2s1.1,1.2,0.8,2.1C55.3,146.7,55.2,146.8,55.1,147z M147,111.3
		c-0.1,0-0.3,0-0.4,0.1c-0.4,0.1-0.9,0.3-1.3,0.4c-0.1,0-0.4,0-0.5-0.1c-0.1-0.2-0.2-0.5-0.1-0.7c0.1-0.3,0.3-0.5,0.5-0.7
		c0.3-0.3,0.7-0.6,1-0.3c0.3,0.2,0.4,0.6,0.6,1C147,111.1,147,111.2,147,111.3z M59.7,155.9c-0.1,0.1-0.1,0.3-0.2,0.3
		s-0.3,0-0.4-0.1c-0.2-0.2-0.4-0.3-0.5-0.6c-0.2-0.3-0.4-0.6-0.5-1c-0.1-0.2-0.1-0.5-0.1-0.8c0-0.2,0.3-0.3,0.4-0.4
		c0.1,0.1,0.3,0.2,0.4,0.4c0.2,0.5,0.4,0.9,0.7,1.4C59.5,155.4,59.6,155.6,59.7,155.9L59.7,155.9z"/>
	<path class="st1" d="M180.6,171c0.1,0.2,0.2,0.4,0.2,0.5c0,0.8-0.1,1.5-0.2,2.3c0,0.1-0.2,0.2-0.2,0.2c-0.4,0-0.8-0.5-0.8-0.9
		c0.1-0.4,0.1-0.8,0.1-1.2c0-0.1,0-0.1,0.1-0.2C180.1,171.5,180.3,171.3,180.6,171L180.6,171z M143,112.1c0.1-1.3,0.4-2.5,1-3.7
		c0.3-0.6,0.5-1.4,0.7-2.1c0.2,1.3,0.3,2.4-0.7,3.3c-0.4,0.4-0.5,0.9-0.6,1.4L143,112.1L143,112.1L143,112.1z M127.5,110.4
		c-0.1-0.3-0.2-0.5,0.2-0.6c0.1,0,0.1-0.3,0.2-0.4s0.2-0.3,0.3-0.4c0.6-0.2,0.9-0.6,0.8-1.2c0-0.1,0-0.2-0.1-0.4
		c0.4,0.2,0.7,0.4,0.9,0.6c0.3,0.4,0.2,0.7-0.3,0.9s-0.8,0.5-1.1,1C128.3,110.2,127.8,110.2,127.5,110.4L127.5,110.4z M141.1,166.9
		c0.1,0.3,0.2,0.5,0.3,0.7c-1.1,0.6-0.7,1.7-1.1,2.6c0.1-0.1,0.2-0.3,0.4-0.3c0.1,0,0.2,0,0.4,0.1c0,0.1-0.1,0.3-0.1,0.3
		c-0.6,0.1-0.9,0.5-1,1c-0.4-0.1-0.5-0.3-0.3-0.7c0.4-0.7,0.6-1.4,0.7-2.1C140.4,168,140.6,167.4,141.1,166.9L141.1,166.9z
		 M168.1,180.6c-0.3-0.4-0.3-0.6,0.1-0.9c0.1-0.1,0.1-0.3,0.2-0.4c0.1-0.6,0.9-1.6,1.5-1.7c-0.1,0.2-0.2,0.4-0.2,0.6
		c0,0.8-0.4,1.3-1,1.8C168.4,180.1,168.3,180.4,168.1,180.6L168.1,180.6z M144.7,103.3c-0.3-0.2-0.6-0.4-0.8-0.6
		c-0.2-0.1-0.3-0.3-0.4-0.5c-0.5-0.5-0.6-0.6-1.2-0.1c-0.1-0.5-0.1-0.9-0.2-1.4C142.8,100.8,144.6,102.5,144.7,103.3L144.7,103.3z
		 M139.2,170.2c-0.2,0-0.4,0.1-0.8,0.2c0.2-0.3,0.3-0.5,0.4-0.7s0.2-0.5,0.2-0.7c-0.2-0.5,0.1-0.8,0.5-1c0.1-0.1,0.3-0.1,0.6-0.2
		l-0.3,1.2C139.5,169.4,139.3,169.7,139.2,170.2L139.2,170.2z M159.3,155.9c-0.6,0.1-1.1,0.1-1.6,0.1c-0.1,0-0.4-0.1-0.4-0.3
		c-0.1-0.1,0-0.4,0.1-0.5c0.2-0.1,0.4-0.3,0.6-0.2C158.5,155.2,159,155.4,159.3,155.9L159.3,155.9z M152.5,179.6
		c-0.5,0.5-1,0.8-1.7,0.6c-0.3-0.1-0.7,0-1.1,0c0.2-0.4,0.3-0.6,0.8-0.5c0.3,0.1,0.7-0.2,1-0.3C151.9,179.4,152.2,179.3,152.5,179.6
		z M149.3,156.6c-0.2,0.1-0.4,0.1-0.6,0.1l-1.4,0.3c-0.2,0-0.5,0-0.6-0.1s-0.1-0.4,0-0.6c0-0.1,0.3-0.2,0.4-0.2
		C147.8,156.3,148.5,156.4,149.3,156.6L149.3,156.6z M179.2,175c-0.1-0.3-0.3-0.6-0.4-0.9c0.1,0,0.1-0.1,0.2-0.1
		c0.3,0.3,0.7,0.7,0.6,1.2c0,0.3-0.3,0.6-0.6,0.8s-0.5,0.1-0.5-0.3C178.5,175.2,178.7,175.1,179.2,175z M141.6,152
		c0.4,0,0.9-0.1,1.3,0c0.5,0.1,0.6,0.3,0.3,0.7c-0.1,0.2-0.2,0.3-0.4,0.5l-0.6-0.6C142,152.4,141.7,152.3,141.6,152
		C141.6,152.1,141.6,152.1,141.6,152L141.6,152z M160.6,141.3c-0.2-0.9,0-1.3,0.9-1.7C161.8,140.4,161.5,141.1,160.6,141.3z
		 M144.6,182.2c0.1-0.1,0.3-0.2,0.4-0.4c0-0.1-0.1-0.2-0.1-0.3h1.6c0.1,0,0.2,0.1,0.3,0.2c-0.1,0.1-0.2,0.2-0.3,0.2L144.6,182.2
		C144.6,182.3,144.6,182.2,144.6,182.2z M165.4,156.8c0.3-0.1,0.7-0.3,1-0.4c0.2-0.1,0.5-0.3,0.7,0.1c0.1,0.3-0.2,0.9-0.5,0.8
		c-0.4,0-0.8-0.2-1.2-0.3V156.8L165.4,156.8z M137.4,95.4l1-0.3c0.3,0.6,0.5,1.3,0.8,2l-1.8-1.9C137.5,95.3,137.4,95.3,137.4,95.4z
		 M170.4,150.7c-0.9-0.2-0.9-0.2-1.5-0.9l1.4,0.3c0.1,0.1,0.2,0.4,0.3,0.5C170.5,150.6,170.4,150.6,170.4,150.7L170.4,150.7z
		 M185.9,156l2.9,0.3C187.8,157,186.9,156.4,185.9,156z M169.1,154.6c-0.2-0.4-0.7-0.7-0.4-1.2c0.1-0.1,0.5-0.2,0.6-0.1
		C169.7,153.4,169.5,154.1,169.1,154.6L169.1,154.6z M144.6,94.9c0.7,0.2,0.8,0.9,0.2,1.5C144.5,95.9,144.5,95.4,144.6,94.9z
		 M117.7,164.7c-0.1-0.8-0.3-1.5,0.2-2.2C117.7,163.2,118.3,164,117.7,164.7z M71.6,145.4c0.5,0.3,0.9,0.6,1.4,0.8
		c0,0,0,0.1-0.1,0.1c-0.2,0-0.5,0-0.7-0.1C71.5,146.3,71.4,146.1,71.6,145.4z M67.8,142c0.3-0.2,0.4-0.4,0.6-0.5
		c0.1,0,0.4,0.3,0.4,0.4c-0.1,0.3-0.3,0.5-0.4,0.7C68.2,142.4,68,142.3,67.8,142L67.8,142z M157.7,152.4c-0.2-0.4-0.3-0.7-0.4-1
		c0.1-0.1,0.3-0.2,0.5-0.3c0,0.1,0.1,0.3,0.1,0.4c-0.1,0.7-0.1,0.7,0.5,1c0,0,0.1,0,0.1,0.1v0.1c-0.1,0-0.3-0.1-0.4-0.1
		C157.9,152.4,157.8,152.4,157.7,152.4L157.7,152.4z M115.2,130.6c0.1,0.6,0.2,1.1,0.4,1.7C114.9,131.9,114.8,131.1,115.2,130.6z
		 M91.5,134.6c-0.2-0.1-0.4-0.2-0.5-0.3s-0.1-0.3-0.1-0.5c0-0.1,0.2-0.3,0.2-0.3c0.1,0,0.3,0.2,0.3,0.3
		C91.5,134,91.5,134.3,91.5,134.6L91.5,134.6z M139.4,123.7c-0.2,0.2-0.4,0.5-0.6,0.4c-0.2,0-0.4-0.3-0.5-0.5
		C138.6,123.3,138.9,123.4,139.4,123.7z M142.5,154.7c-0.2-0.1-0.3-0.1-0.4-0.2c-0.2,0.3-0.3,0.5-0.5,0.7c-0.1,0-0.1,0-0.2-0.1
		l0.3-0.9c0.1-0.1,0.4-0.1,0.5-0.1L142.5,154.7L142.5,154.7z M144.6,100.3c-0.7-0.5-0.7-0.7,0-1.2V100.3z M70.7,144.3
		c0.6,0.3,0.5,0.7,0.3,1.3C70.6,145.2,70.6,144.8,70.7,144.3z M138.6,182.2c0.2,0.7,0,0.9-1,1C138,182.9,138.3,182.6,138.6,182.2z
		 M137.8,97.2c-0.2,0.2-0.4,0.4-0.4,0.3c-0.2-0.1-0.3-0.3-0.5-0.5c0.1-0.1,0.2-0.3,0.3-0.2C137.4,96.9,137.5,97,137.8,97.2
		L137.8,97.2z M167.7,150.5c0.1-0.3,0.1-0.5,0.1-0.6l0.1-0.1c0.1,0.2,0.3,0.5,0.4,0.8C168.2,150.5,168,150.5,167.7,150.5
		L167.7,150.5z M95.3,154.2c0-0.3,0.1-0.6,0.4-0.7c0.1,0,0.2,0.1,0.3,0.1l-0.6,0.6C95.4,154.3,95.3,154.2,95.3,154.2L95.3,154.2z
		 M130.6,101.7l1.3,0.6C131.1,102.4,130.6,102.2,130.6,101.7z M84.8,109.5c0.3,0.1,0.6,0.2,0.9,0.4c-0.1,0.1-0.2,0.3-0.4,0.4
		C85.1,110,84.9,109.8,84.8,109.5C84.7,109.5,84.7,109.5,84.8,109.5z M63.1,160.7c0.2,0.3,0.5,0.5,0.2,1L63.1,160.7L63.1,160.7z
		 M78.3,150.2c0-0.2,0-0.3,0.1-0.6l0.8,0.5C78.9,150.2,78.6,150.2,78.3,150.2z M142.8,186.2c0.4-0.2,0.8-0.3,1.1-0.5
		C143.8,186,143.3,186.2,142.8,186.2z M78.2,151.2c-0.1,0.1-0.2,0.3-0.4,0.3c-0.1,0-0.2-0.1-0.4-0.2v-0.1c0.2-0.1,0.4-0.1,0.5-0.2
		C78.1,151.1,78.2,151.2,78.2,151.2z M138.6,191.5l1-0.7c0,0.1,0.1,0.1,0.1,0.2C139.4,191.3,139,191.3,138.6,191.5z"/>
</g>
</svg>
