<?xml version="1.0" encoding="utf-8"?>
<!-- Generator: Adobe Illustrator 21.1.0, SVG Export Plug-In . SVG Version: 6.00 Build 0)  -->
<svg version="1.1" id="Layer_1" xmlns="http://www.w3.org/2000/svg" xmlns:xlink="http://www.w3.org/1999/xlink" x="0px" y="0px"
	 viewBox="0 0 1664 1432" style="enable-background:new 0 0 1664 1432;" xml:space="preserve">
<style type="text/css">
	.st0{fill:#F3F3F3;}
	.st1{fill:#E1E1E1;}
	.st2{fill:#FFFFFF;}
	.st3{fill:#DE8E68;}
	.st4{fill:#FEBF92;}
	.st5{fill:#FED892;}
	.st6{fill:none;stroke:#000000;stroke-width:0.95;stroke-miterlimit:10;}
	.st7{fill:none;stroke:#000000;stroke-width:1.0746;stroke-linecap:round;stroke-miterlimit:10;}
	.st8{fill:#74D5DE;}
	.st9{fill:#FECC92;}
	.st10{fill:#D38466;}
	.st11{fill:#FD8369;}
	.st12{fill:#0C365B;}
	.st13{fill:none;stroke:#A4A4A4;stroke-width:2.1444;stroke-linecap:round;stroke-linejoin:round;}
	.st14{fill:#D8AB98;}
	.st15{fill:#E8B79E;}
	.st16{fill:none;stroke:#E0E0E0;stroke-width:1.4296;stroke-linecap:round;stroke-linejoin:round;}
	.st17{fill:#E0E0E0;}
	.st18{fill:#5FC5D1;}
	.st19{fill:#6BD5E1;}
	.st20{fill:#FFC78E;}
	.st21{fill:#FFD98E;}
	.st22{fill:#A4A4A4;}
	.st23{fill:#F2F2F2;}
	.st24{fill:#FFE4AD;}
	.st25{fill:#84594C;}
	.st26{fill:#896259;}
	.st27{fill:#595750;}
	.st28{fill:#686660;}
	.st29{fill:#19C3CC;}
	.st30{fill:#1CE4F9;}
	.st31{fill:#996B59;}
	.st32{fill:#DFDFDF;}
	.st33{fill:#8FEDF2;}
	.st34{fill:#4C3208;}
	.st35{fill:#C96E55;}
	.st36{fill:#D1764E;}
	.st37{fill:#D67F61;}
</style>
<rect x="410" y="43" class="st0" width="837.6" height="569"/>
<rect x="410" y="43" class="st1" width="837.6" height="54.6"/>
<rect x="457.5" y="131.4" class="st2" width="290.9" height="157.6"/>
<rect x="457.5" y="326.4" class="st2" width="290.9" height="157.6"/>
<rect x="800.9" y="230.8" class="st1" width="399.4" height="15.2"/>
<rect x="800.9" y="273.7" class="st1" width="399.4" height="15.2"/>
<rect x="800.9" y="316.6" class="st1" width="399.4" height="15.2"/>
<rect x="800.9" y="359.5" class="st1" width="399.4" height="15.2"/>
<path class="st3" d="M1181.3,430c-9.1,8.1-27.3,28.4-28.8,31c-4.6-2.2-52.5-27.4-56.1-29s-11.2-14.3-13.8-14.3
	c-1.5,0-2.9,2.9-2.9,4.9c0,3.4,1.6,6,2.6,7.1c-3.4-0.5-33.4-2.8-33.4-0.8c0,5.2,33.6,12.1,36.2,13.5s57.3,52,76.3,52
	c7.4,0,40.1-22.2,40.1-24.6c3.1-2.1,7.9-5.2,7.9-5.2V447l-11.4-8.3C1198,438.6,1183.1,428.4,1181.3,430z"/>
<path class="st4" d="M1180.1,424.2c2-16.2,39.3-53,56.4-36.6c14.9,14.3-12.1,65.4-19,67.4C1209.7,455.8,1179.6,435.2,1180.1,424.2z"
	/>
<path class="st5" d="M1293.9,390.5c19-8,45.6,36,42.6,52c0,7-39,22-45,18S1274.9,398.5,1293.9,390.5z"/>
<path class="st6" d="M1211.7,449.6"/>
<path class="st7" d="M1264.7,340.5"/>
<g>
	<rect x="1280.2" y="854.2" class="st3" width="15.3" height="23.2"/>
	<path class="st8" d="M1217.3,548.6l62.8,305.5h16.1l5.7-272.5c0-4.7-0.4-34.3-0.4-38.1C1283.3,548.8,1244.5,553,1217.3,548.6z"/>
	<polygon points="1280.2,877.4 1295.5,877.4 1295.5,894 1253.3,894 	"/>
</g>
<path class="st9" d="M1252.3,367c47,0,63.4,39.1,63.4,51.8c0,12.7-14.7,90.2-14.1,124.7c0.1,5.7-84.3,10.8-95.8,2.5
	C1200.4,542.1,1188.8,367,1252.3,367z"/>
<path class="st3" d="M1336.5,442.5c13.3,20.4,12.5,67.4,12.5,74.5c0,7.1-49.6,70.9-53.9,70.9c-2.6-2.6-9.8-10.5-9.8-12.9
	c2.3-4.2,31.8-68.7,37.1-73.3c-2.4-2.9-23.5-36-24.4-41.5C1316.5,457.1,1334.4,449.3,1336.5,442.5z"/>
<path class="st5" d="M1336.5,442.5c3-16-21.3-62.4-42.6-52c-18.5,9.1-8.4,66-2.4,70C1298.7,463.6,1333.7,453.1,1336.5,442.5z"/>
<path class="st10" d="M1240.3,357.4c-1,3.1-1.5,12.7-0.4,17c0.1,0.2,20,1.7,22.2-1.8c0.1-2.9,4.9-28.7,11.4-36.7
	c0.6-0.9-0.7-3.4-0.7-3.4l-23.1,9.6L1240.3,357.4"/>
<path class="st11" d="M1270.2,334.7c1.5,2,3.4,2.9,5.1,2.9c3.8,0,12.6-3.5,12.6-16c0-9-8.8-13.6-8.8-17.9c0-4.1,1.1-4.2,1.1-7.6
	c0-1.7-1.7-7.3-7-7.3c-3,0-4.1,2.5-7.1,2.5c-3.3,0-6.3-6.4-11.3-6.4c-3.4,0-6.6,3.2-10.2,3.2c-4.1,0-6.9-6.1-12.6-6.1
	c-5.9,0-8,5.3-10.3,5.3c-2.9,0-3.4-0.8-6.3-0.8c-1.8,0-7.3,3.2-7.3,9c0,4.1,1.7,10.8,10.2,10.8c5,0,7.8,7.9,12.2,7.9
	c1.7,0,3.2-1.4,3.6-0.7c1.7,3,5.2,11.2,5.2,11.2l15.9,8.9L1270.2,334.7z"/>
<path class="st3" d="M1266.7,330.6c0,1.4-0.5,1.7-2.6,1.7c-1,0-2.4-1.3-2.4-2.7c0-3.3,2.4-4,2.4-8.3c0-7.3-19.1-11.1-25.8-14.9l0,0
	c-2.4,2.4-4.1,5.5-4.8,9l-4.3,22.1c-1.9,9.6,4.4,18.9,13.9,20.8s18.9-4.4,20.8-13.9l0.7-3.8l0,0c0.4,0.1,0.8,0.2,1.1,0.2
	c2.5,0,4.4-2.3,4.4-5.1C1270.3,333.1,1266.7,328.5,1266.7,330.6z"/>
<g>
	
		<rect x="1226.9" y="854.4" transform="matrix(0.1165 -0.9932 0.9932 0.1165 238.0335 1991.7627)" class="st3" width="23.2" height="15.3"/>
	<path class="st8" d="M1205.4,538.8l26.8,310.7l16,1.9l37.4-270c0.5-4.7,3.6-34.1,4-37.9C1270.9,546.7,1231.9,546.4,1205.4,538.8z"
		/>
	<polygon points="1229.6,872.7 1244.8,874.5 1242.8,891 1200.9,886.1 	"/>
</g>
<title>gamer-colour</title>
<g>
	<polygon class="st12" points="407.4,982 398.4,1004.7 350,983.1 354.9,973.4 390.1,974.4 	"/>
	<line class="st13" x1="405.5" y1="765.9" x2="405.5" y2="944.5"/>
	<path class="st14" d="M394.7,960.7c-0.8,2-6.2,14.1-6.2,14.1l17.5,6.7l5.3-17.4L394.7,960.7z"/>
	<polygon class="st14" points="494.9,943.6 498.5,956.9 482.8,964.5 472.4,953.7 	"/>
	<path class="st15" d="M472.4,689.4c-1.8,2.1-16.7,19.9-17.8,21.3c-1.1,1.4-44.6,14.6-46.9,15.3c-2.2,0.7-10.5,4.2-12.9,4.2
		s-9.7-2.5-12.9-2c-3,0.5-12.9,6.3-12,8.6c0.9,2.2,107.4-5.4,107.4-5.4l11.6-36.1L472.4,689.4z"/>
	<line class="st16" x1="493.2" y1="855.9" x2="466.2" y2="995.2"/>
	<polygon class="st17" points="592.9,628.6 654.1,628.6 596,855.9 484,855.9 484,841.2 546.7,799.5 	"/>
	<path class="st18" d="M466.2,842.9c3.2,6.3,29.4,95.3,30,100.6c-3.3,3.6-17.8,11.3-24,11.8c-10.5-8.3-39.8-77.4-39.8-77.4
		S442.4,820.4,466.2,842.9z"/>
	<path class="st19" d="M592.4,758.1c2.2,2.8,9.6,42.5,10.7,52.9c1.7,16.2-29.8,40-74.1,40c-14.6,0-63.2-3.3-77-8.6
		c-0.7,8.8-35.8,118.7-39.8,122.7c-6.6,1.7-16.2-1.8-18.6-4.3c-2.4-2.5,16.7-154.3,22.1-164.2c5.4-9.7,114.9-17.1,114.9-17.1
		L592.4,758.1z"/>
	<path class="st20" d="M516.4,644.2c20.5,12-10.1,64.4-14.1,65.8c-6.2-0.7-27.8-13.3-31.9-22.6C469.7,681.8,498.8,634,516.4,644.2z"
		/>
	<path class="st21" d="M527.7,622.5c34.4,0,67.5,131.3,66.1,136.5c-2.8,10.8-59.1,30.4-68.2,22C503,759.6,460.7,622.5,527.7,622.5z"
		/>
	<line class="st16" x1="589.6" y1="855.9" x2="616.6" y2="995.2"/>
	<polygon class="st12" points="498.8,955.2 510.7,976.4 463.5,1000.3 459,990.6 482,963.7 	"/>
	<path class="st14" d="M519.7,608c0.8,4.3,5.7,17.5,7.9,19.9c2.2,2.4-9.3,16.5-22.2,13.8c-0.4-4.5-1.8-16.9-3.9-19
		C499.3,620.7,519.7,608,519.7,608z"/>
	
		<ellipse transform="matrix(0.9507 -0.3102 0.3102 0.9507 -158.0634 183.2357)" class="st15" cx="497.1" cy="588.6" rx="26.6" ry="36.1"/>
	<path d="M476,539.4c14.2,0,50.8,25.3,50.8,50.8c0,13.7-2.4,17.1-3.3,17.1c-0.9,0-9.7-6.8-9.7-11.7s-1.7-12.2-3.4-12.2
		c-2.9,0-3.3,3.2-10.5,3.2c-2.8,0-7.9-3.3-7.9-7.1c-5.8,0.1-5.8,2-13.8,2c-9.1,0-31.3-4.6-31.3-11.6c0-4.7,6.2-8,12.4-6.8
		c-4.2-2.2-7.9-6.8-7.9-9.9c0-4.2,5.4-7.2,9.5-7.2c4.9,0,9.2,2.1,11.3,4.1C470.3,547.1,471.9,539.4,476,539.4z"/>
	<circle class="st14" cx="509.2" cy="590.5" r="7.4"/>
	<rect x="110.9" y="755.5" class="st22" width="370.7" height="10.4"/>
	<polygon class="st17" points="449.8,738.6 296.3,738.6 295.9,738.6 142.5,738.6 110.9,755.4 295.9,755.4 296.3,755.4 481.2,755.4 	
		"/>
	<line class="st13" x1="157.6" y1="765.9" x2="157.6" y2="983.8"/>
	<line class="st13" x1="187" y1="765.9" x2="187" y2="944.5"/>
	<line class="st13" x1="435" y1="765.9" x2="435" y2="983.8"/>
	<rect x="329.6" y="739.7" class="st22" width="65.7" height="4.5"/>
	<rect x="247.3" y="734.2" class="st22" width="12.6" height="15"/>
	<ellipse class="st23" cx="378.3" cy="746.5" rx="14.7" ry="6.8"/>
	<path class="st14" d="M482.8,696.5c-2.1,2.4-15.3,21.2-16.7,23.2c-30,3.6-69.6,13.2-71.1,13.2c-1.4,0-18.2-5.4-20.4-5
		c-2.2,0.4-6.8,8.4-6.6,10c0.3,1.6,13.3,9.6,28.4,9.3c2.9-0.1,3.8-1.7,6.7-1.7c3,0,70.8,5.3,82.5-0.9c6.5-3.3,24.4-28.7,24.4-30.5
		C510.1,712.3,482.8,696.5,482.8,696.5z"/>
	<path class="st24" d="M525.6,650.4c20.5,12-10.1,64.4-14.1,65.8c-6.2-0.7-27.8-13.3-31.9-22.6C478.9,687.8,508.1,640.2,525.6,650.4
		z"/>
	<rect x="236.6" y="548.3" class="st17" width="6.1" height="193.9"/>
	<polygon class="st22" points="242.7,548.3 242.7,645.3 242.7,742.3 271.1,731.8 271.1,645.3 271.1,558.7 	"/>
</g>
<g>
	<polygon class="st12" points="1362.5,1074.9 1353.5,1097.5 1305.1,1075.9 1310,1066.2 1345.3,1067.2 	"/>
	<line class="st13" x1="1360.7" y1="858.7" x2="1360.7" y2="1037.4"/>
	<path class="st25" d="M1349.9,1053.5c-0.8,2-6.2,14.1-6.2,14.1l17.5,6.7l5.3-17.4L1349.9,1053.5z"/>
	<polygon class="st25" points="1450,1036.4 1453.6,1049.7 1437.9,1057.4 1427.5,1046.6 	"/>
	<path class="st26" d="M1427.5,782.2c-1.8,2.1-16.7,19.9-17.8,21.3c-1.1,1.4-44.6,14.6-46.9,15.3c-2.2,0.7-10.5,4.2-12.9,4.2
		s-9.7-2.5-12.9-2c-3,0.5-12.9,6.3-12,8.6c0.9,2.2,107.4-5.4,107.4-5.4l11.6-36.1L1427.5,782.2z"/>
	<line class="st16" x1="1448.3" y1="948.8" x2="1421.3" y2="1088"/>
	<polygon class="st17" points="1548,721.4 1609.2,721.4 1551.2,948.8 1439.1,948.8 1439.1,934 1501.8,892.3 	"/>
	<path class="st27" d="M1421.3,935.7c3.2,6.3,29.4,95.3,30,100.6c-3.3,3.6-17.8,11.3-24,11.8c-10.5-8.3-39.8-77.4-39.8-77.4
		S1397.5,913.2,1421.3,935.7z"/>
	<path class="st28" d="M1547.5,850.9c2.2,2.8,9.6,42.5,10.7,52.9c1.7,16.2-29.8,40-74.1,40c-14.6,0-63.2-3.3-77-8.6
		c-0.7,8.8-35.8,118.7-39.8,122.7c-6.6,1.7-16.2-1.8-18.6-4.3c-2.4-2.5,16.7-154.3,22.1-164.2c5.4-9.7,114.9-17.1,114.9-17.1
		L1547.5,850.9z"/>
	<path class="st29" d="M1471.5,737.1c20.5,12-10.1,64.4-14.1,65.8c-6.2-0.7-27.8-13.3-31.9-22.6
		C1424.8,774.6,1453.9,726.8,1471.5,737.1z"/>
	<path class="st30" d="M1482.8,715.3c34.4,0,67.5,131.3,66.1,136.5c-2.8,10.8-59.1,30.4-68.2,22
		C1458.1,852.4,1415.8,715.3,1482.8,715.3z"/>
	<line class="st16" x1="1544.7" y1="948.8" x2="1571.7" y2="1088"/>
	<polygon class="st12" points="1453.9,1048 1465.8,1069.2 1418.6,1093.2 1414.1,1083.4 1437.1,1056.6 	"/>
	<path class="st25" d="M1474.8,700.9c0.8,4.3,5.7,17.5,7.9,19.9c2.2,2.4-9.3,16.5-22.2,13.8c-0.4-4.5-1.8-16.9-3.9-19
		S1474.8,700.9,1474.8,700.9z"/>
	
		<ellipse transform="matrix(0.9507 -0.3102 0.3102 0.9507 -139.7454 484.0823)" class="st31" cx="1452.2" cy="681.4" rx="26.6" ry="36.1"/>
	<rect x="1066" y="848.3" class="st22" width="370.7" height="10.4"/>
	<g>
		<rect x="1279.2" y="830.3" class="st32" width="71.9" height="5.7"/>
		<polygon class="st32" points="1278.6,833.6 1245.7,758.2 1247.5,757.6 1280.5,833.1 		"/>
	</g>
	<polygon class="st17" points="1404.9,831.5 1251.4,831.5 1251,831.5 1097.6,831.5 1066,848.2 1251,848.2 1251.4,848.2 
		1436.4,848.2 	"/>
	<line class="st13" x1="1112.8" y1="858.7" x2="1112.8" y2="1076.6"/>
	<line class="st13" x1="1142.1" y1="858.7" x2="1142.1" y2="1037.4"/>
	<line class="st13" x1="1390.1" y1="858.7" x2="1390.1" y2="1076.6"/>
	<rect x="1284.7" y="832.5" class="st22" width="65.7" height="4.5"/>
	<ellipse class="st23" cx="1333.4" cy="839.4" rx="14.7" ry="6.8"/>
	<path class="st25" d="M1437.9,789.3c-2.1,2.4-15.3,21.2-16.7,23.2c-30,3.6-69.6,13.2-71.1,13.2c-1.4,0-18.2-5.4-20.4-5
		c-2.2,0.4-6.8,8.4-6.6,10c0.3,1.6,13.3,9.6,28.4,9.3c2.9-0.1,3.8-1.7,6.7-1.7c3,0,70.8,5.3,82.5-0.9c6.5-3.3,24.4-28.7,24.4-30.5
		C1465.2,805.1,1437.9,789.3,1437.9,789.3z"/>
	<path class="st33" d="M1480.7,743.3c20.5,12-10.1,64.4-14.1,65.8c-6.2-0.7-27.8-13.3-31.9-22.6C1434,780.6,1463.2,733,1480.7,743.3
		z"/>
	<path class="st34" d="M1449,638.5c3.8,0.1,8.3,2.4,17.2,7.2c12.3,6.7,15.5,9.8,17.7,12.9c1.5,2.1,2.4,4,4,7.7
		c5.1,11.3,4.8,16,8.7,27.1c4.1,11.5,5.7,10.4,7.4,18.3c2.1,9.5,1.7,20.5-1.3,21.4c-2.1,0.6-3.6-3.9-10.3-9
		c-6.1-4.7-8.2-3.6-12.2-6.5c-9.6-6.9-5.2-18.9-15.9-38c-1.7-3.2-4.2-7.1-9-9.1c-4.5-1.8-8.6-0.9-10.5-0.7c-1.2,2.9-2,8.7-2,8.7
		c-2,1.6-8.9,6.8-18,5.9c-2.3-0.2-9.9-0.9-12.5-6c-1.6-3-0.1-7.7,3-17c1.8-5.6,2.8-8.4,4.5-10.5c0.9-1.1,3.1-3.5,13-7.5
		C1441.1,640.1,1445.3,638.4,1449,638.5z"/>
</g>
<g>
	<polygon class="st12" points="823.2,1329 814.3,1351.7 765.8,1330.1 770.7,1320.4 806,1321.4 	"/>
	<line class="st13" x1="821.4" y1="1112.9" x2="821.4" y2="1291.5"/>
	<path class="st14" d="M810.6,1307.7c-0.8,2-6.2,14.1-6.2,14.1l17.5,6.7l5.3-17.4L810.6,1307.7z"/>
	<polygon class="st14" points="910.8,1290.6 914.3,1303.9 898.7,1311.5 888.3,1300.7 	"/>
	<path class="st15" d="M888.3,1036.4c-1.8,2.1-16.7,19.9-17.8,21.3c-1.1,1.4-44.6,14.6-46.9,15.3c-2.2,0.7-10.5,4.2-12.9,4.2
		c-2.4,0-9.7-2.5-12.9-2c-3,0.5-12.9,6.3-12,8.6c0.9,2.2,107.4-5.4,107.4-5.4l11.6-36.1L888.3,1036.4z"/>
	<line class="st16" x1="909.1" y1="1202.9" x2="882.1" y2="1342.2"/>
	<polygon class="st17" points="1008.7,975.6 1070,975.6 1011.9,1202.9 899.9,1202.9 899.9,1188.2 962.5,1146.4 	"/>
	<path class="st27" d="M882.1,1189.9c3.2,6.3,29.4,95.3,30,100.6c-3.3,3.6-17.8,11.3-24,11.8c-10.5-8.3-39.8-77.4-39.8-77.4
		S858.3,1167.4,882.1,1189.9z"/>
	<path class="st28" d="M1008.2,1105.1c2.2,2.8,9.6,42.5,10.7,52.9c1.7,16.2-29.8,40-74.1,40c-14.6,0-63.2-3.3-77-8.6
		c-0.7,8.8-35.8,118.7-39.8,122.7c-6.6,1.7-16.2-1.8-18.6-4.3c-2.4-2.5,16.7-154.3,22.1-164.2c5.4-9.7,114.9-17.1,114.9-17.1
		L1008.2,1105.1z"/>
	<path class="st35" d="M932.3,991.2c20.5,12-10.1,64.4-14.1,65.8c-6.2-0.7-27.8-13.3-31.9-22.6C885.5,1028.8,914.6,981,932.3,991.2z
		"/>
	<path class="st36" d="M943.6,969.5c34.4,0,67.5,131.3,66.1,136.5c-2.8,10.8-59.1,30.4-68.2,22
		C918.8,1106.6,876.6,969.5,943.6,969.5z"/>
	<line class="st16" x1="1005.4" y1="1202.9" x2="1032.4" y2="1342.2"/>
	<polygon class="st12" points="914.6,1302.2 926.6,1323.4 879.3,1347.3 874.9,1337.6 897.9,1310.7 	"/>
	<path class="st14" d="M935.5,955c0.8,4.3,5.7,17.5,7.9,19.9c2.2,2.4-9.3,16.5-22.2,13.8c-0.4-4.5-1.8-16.9-3.9-19
		C915.1,967.7,935.5,955,935.5,955z"/>
	
		<ellipse transform="matrix(0.9507 -0.3102 0.3102 0.9507 -245.1856 329.3484)" class="st15" cx="913" cy="935.6" rx="26.6" ry="36.1"/>
	<circle class="st14" cx="925" cy="937.5" r="7.4"/>
	<rect x="526.8" y="1102.5" class="st22" width="370.7" height="10.4"/>
	<polygon class="st17" points="865.6,1085.6 712.1,1085.6 711.7,1085.6 558.4,1085.6 526.8,1102.3 711.7,1102.3 712.1,1102.3 
		897.1,1102.3 	"/>
	<line class="st13" x1="573.5" y1="1112.9" x2="573.5" y2="1330.8"/>
	<line class="st13" x1="602.9" y1="1112.9" x2="602.9" y2="1291.5"/>
	<line class="st13" x1="850.9" y1="1112.9" x2="850.9" y2="1330.8"/>
	<rect x="745.4" y="1086.7" class="st22" width="65.7" height="4.5"/>
	<rect x="663.2" y="1081.2" class="st22" width="12.6" height="15"/>
	<ellipse class="st23" cx="794.2" cy="1093.5" rx="14.7" ry="6.8"/>
	<path class="st14" d="M898.7,1043.5c-2.1,2.4-15.3,21.2-16.7,23.2c-30,3.6-69.6,13.2-71.1,13.2c-1.4,0-18.2-5.4-20.4-5
		c-2.2,0.4-6.8,8.4-6.6,10c0.3,1.6,13.3,9.6,28.4,9.3c2.9-0.1,3.8-1.7,6.7-1.7c3,0,70.8,5.3,82.5-0.9c6.5-3.3,24.4-28.7,24.4-30.5
		C925.9,1059.3,898.7,1043.5,898.7,1043.5z"/>
	<path class="st37" d="M941.5,997.4c20.5,12-10.1,64.4-14.1,65.8c-6.2-0.7-27.8-13.3-31.9-22.6C894.7,1034.8,924,987.2,941.5,997.4z
		"/>
	<rect x="652.5" y="895.3" class="st17" width="6.1" height="193.9"/>
	<polygon class="st22" points="658.6,895.3 658.6,992.3 658.6,1089.3 687,1078.8 687,992.3 687,905.7 	"/>
	<path class="st5" d="M909.8,892.7c3.8,0.1,8.3,2.4,17.2,7.2c12.3,6.7,15.5,9.8,17.7,12.9c1.5,2.1,2.4,4,4,7.7
		c5.1,11.3,4.8,16,8.7,27.1c4.1,11.5,5.7,10.4,7.4,18.3c2.1,9.5,1.7,20.5-1.3,21.4c-2.1,0.6-3.6-3.9-10.3-9
		c-6.1-4.7-8.2-3.6-12.2-6.5c-9.6-6.9-5.2-18.9-15.9-38c-1.7-3.2-4.2-7.1-9-9.1c-4.5-1.8-8.6-0.9-10.5-0.7c-1.2,2.9-2,8.7-2,8.7
		c-2,1.6-8.9,6.8-18,5.9c-2.3-0.2-9.9-0.9-12.5-6c-1.6-3-0.1-7.7,3-17c1.8-5.6,2.8-8.4,4.5-10.5c0.9-1.1,3.1-3.5,13-7.5
		C901.9,894.3,906,892.6,909.8,892.7z"/>
</g>
</svg>
