<?xml version="1.0" encoding="utf-8"?>
<!-- Generator: Adobe Illustrator 24.1.1, SVG Export Plug-In . SVG Version: 6.00 Build 0)  -->
<svg version="1.1" id="Layer_1" xmlns="http://www.w3.org/2000/svg" xmlns:xlink="http://www.w3.org/1999/xlink" x="0px" y="0px"
	 viewBox="0 0 890.7 830.7" style="enable-background:new 0 0 890.7 830.7;" xml:space="preserve">
<style type="text/css">
	.st0{fill:#F3F3F3;}
	.st1{fill:#E1E1E1;}
	.st2{fill:#FD8369;}
	.st3{fill:#FFFFFF;}
	.st4{fill:none;stroke:#000000;stroke-width:0.95;stroke-miterlimit:10;}
	.st5{fill:none;stroke:#000000;stroke-width:1.0746;stroke-linecap:round;stroke-miterlimit:10;}
	.st6{fill:#DE8E68;}
	.st7{fill:#56CAD8;}
	.st8{fill:#74D5DE;}
	.st9{fill:#FCC486;}
	.st10{fill:#FED385;}
	.st11{fill:#D37C59;}
	.st12{fill:#DFDFDF;}
	.st13{fill:#F2F2F2;}
	.st14{fill:#FED892;}
	.st15{font-family:'ArialMT';}
	.st16{font-size:56.3486px;}
	.st17{fill:none;stroke:#000000;stroke-width:2.5;stroke-linecap:round;stroke-linejoin:round;stroke-miterlimit:10;}
</style>
<g id="Background">
	<rect x="47.2" y="43" class="st0" width="727.7" height="717.3"/>
	<rect x="47.2" y="43" class="st1" width="727.7" height="54.6"/>
	<circle class="st2" cx="85.6" cy="71" r="8.6"/>
	<circle class="st2" cx="113.3" cy="71" r="8.6"/>
	<circle class="st2" cx="141" cy="71" r="8.6"/>
	<rect x="82.8" y="137.4" class="st3" width="290.9" height="157.6"/>
	<rect x="82.8" y="332.4" class="st3" width="290.9" height="157.6"/>
	<rect x="444.5" y="332.4" class="st3" width="290.9" height="339.9"/>
	<rect x="424.2" y="148.8" class="st1" width="399.4" height="15.2"/>
	<rect x="424.2" y="191.7" class="st1" width="399.4" height="15.2"/>
	<rect x="424.2" y="234.6" class="st1" width="399.4" height="15.2"/>
	<rect x="424.2" y="277.5" class="st1" width="399.4" height="15.2"/>
</g>
<path class="st4" d="M739,449.6"/>
<path class="st5" d="M792,340.5"/>
<g>
	<rect x="165.9" y="779.2" class="st6" width="13.3" height="9.1"/>
	<rect x="250.3" y="779.2" class="st6" width="15.5" height="9.1"/>
	<path class="st7" d="M249.8,573c0.4,6.9,16.6,206.2,16.6,206.2h-16.6l-43.1-149.7c0,0,11.2-59.9,12-59.7
		C222.4,570.7,242.6,574.3,249.8,573z"/>
	<path class="st8" d="M225.6,571.3L181,780.8h-16c0,0-1.4-229.6,0-229.6C180,557.5,208.3,567.9,225.6,571.3z"/>
	<path class="st6" d="M261.2,457.2c2.6,1.1,16.2,12.4,21.9,19.8c4.3-3.2,53-43.6,54-45.9c1.9-1.1,6,5.1,0,10.2
		c4.1-0.2,28.4-0.8,28.4,0c0,0.8,5.3,3-30.5,8.7c-4.7,5.7-47.7,56.2-54.6,56.2s-35.4-27.6-36.6-32.5
		C242.7,468.8,261.2,457.2,261.2,457.2z"/>
	<path class="st9" d="M224.1,434.8c-11.1,10.4,9.3,41.6,15.1,43c7.3,1.8,24.1-12.1,27.7-21.8C268.5,451.4,233.3,426.3,224.1,434.8z"
		/>
	<path class="st10" d="M204.1,419.7c-62,0-47.9,119.6-44,127.8c4,8.2,83.3,31.9,89.6,25.5C256,566.6,267.5,419.7,204.1,419.7z"/>
	<path class="st11" d="M214.8,403.6H196v27.2c0,3.5,18.7,3.5,18.7,0V403.6z"/>
	<ellipse class="st6" cx="205.2" cy="377.5" rx="21.4" ry="35.8"/>
	<path d="M201.6,333.7c-10.8,0-25,5.2-35.4,5.2c-9.4,0-26.4-6.8-35.4-6.8c-5.7,0-32.8,2.7-32.8,24.5c0,9.8,10.4,19.3,12.5,21.9
		c2.1,2.6,5.9,17.2,15.6,17.2c13.6,0,23-9.9,35.4-9.9c8.6,0,10.8,2.1,15.1,2.1c3.1,0,7.8-1.5,7.8-1.6c0-1.6-0.3-15.1,1.6-17.3
		c2.6-3.1,35.8,1.5,35.8-9.5c2.3,2.1,4.5,10.9,4.5,12.8c1.5-1.6,7.1-8.3,7.1-15.6C233.4,350,228.7,333.7,201.6,333.7z"/>
	
		<rect x="129.5" y="529.4" transform="matrix(0.9972 -7.463147e-02 7.463147e-02 0.9972 -41.5744 13.1128)" class="st12" width="50.4" height="66.8"/>
	
		<rect x="134.7" y="534.3" transform="matrix(0.9972 -7.463147e-02 7.463147e-02 0.9972 -41.921 13.5188)" class="st13" width="50.4" height="66.8"/>
	<ellipse class="st6" cx="157" cy="588.9" rx="9.9" ry="14"/>
	<path class="st6" d="M150.7,471.4c-1.3,2.9-9.9,35.5-8.1,63.3c1.8,27.8,6.6,43.5,6.6,45.7s15.9,1.3,15.9,0s-4.1-40.9-3.2-47.9
		c0.9-7,12.8-47.7,12.5-52.7S150.7,471.4,150.7,471.4z"/>
	<path class="st14" d="M174,436.7c-14.2-4.5-31,27.9-29.4,33.5c2,7.1,21.9,14.8,31.8,13.2C181.1,482.7,185.7,440.5,174,436.7z"/>
	<polygon points="165.2,786.2 165.2,790.2 149.4,819.9 159.7,819.9 180.3,801.2 180.3,786.2 	"/>
	<polygon points="249.8,785.6 249.8,800.6 293.8,800.6 293.8,794.7 265.9,785.6 	"/>
	<circle class="st12" cx="80.8" cy="451.9" r="35.6"/>
	<polygon class="st12" points="131.4,426.1 88.6,434.7 99.1,455.5 	"/>
	<polygon class="st12" points="272.1,372 314.2,383.6 314.2,360.3 	"/>
	<text transform="matrix(1 0 0 1 69.1527 471.17)" class="st3 st15 st16">?</text>
	<rect x="288.1" y="341.7" class="st12" width="81.2" height="56.6"/>
	<circle class="st3" cx="310.4" cy="370" r="3.9"/>
	<circle class="st3" cx="328.7" cy="370" r="3.9"/>
	<circle class="st3" cx="347.1" cy="370" r="3.9"/>
	<path class="st17" d="M174.1,537.6c0.2,1.8-1.2,3.3-3,3.4l0,0c-1.8,0.2-3.3-1.2-3.4-3l-0.8-10.6c-0.2-1.8,1.2-3.3,3-3.4l0,0
		c1.8-0.2,3.3,1.2,3.4,3l0.4,5.6"/>
</g>
</svg>
