<?xml version="1.0" encoding="utf-8"?>
<!-- Generator: Adobe Illustrator 24.0.2, SVG Export Plug-In . SVG Version: 6.00 Build 0)  -->
<svg version="1.1" id="Vector" xmlns="http://www.w3.org/2000/svg" xmlns:xlink="http://www.w3.org/1999/xlink" x="0px" y="0px"
	 viewBox="0 0 1200 1200" style="enable-background:new 0 0 1200 1200;" xml:space="preserve">
<style type="text/css">
	.st0{fill:none;stroke:#ED7562;stroke-width:6.0567;stroke-linecap:round;stroke-linejoin:round;}
	.st1{fill:#ED7562;}
	.st2{fill:#DE8E68;}
	.st3{fill:#56CAD8;}
	.st4{fill:#D37C59;}
	.st5{fill:#FCC486;}
	.st6{fill:#FED385;}
	.st7{fill:#FED892;}
	.st8{fill:#FD8369;}
	.st9{fill:#74D5DE;}
	.st10{fill:none;stroke:#FD8369;stroke-width:6.0567;stroke-linecap:round;stroke-linejoin:round;}
</style>
<title>Artboard 1</title>
<g>
	<line class="st0" x1="776.4" y1="909.9" x2="678" y2="744.4"/>
	<line class="st0" x1="819" y1="909.9" x2="720.6" y2="744.4"/>
	<line class="st0" x1="504.9" y1="909.9" x2="603.3" y2="744.4"/>
	<path class="st1" d="M731.1,395.5h145.5l-97.7,354.1H531.1v-12.6h183.8L731.1,395.5z"/>
	
		<rect x="489.1" y="899.1" transform="matrix(0.9881 -0.1537 0.1537 0.9881 -134.115 88.1294)" class="st2" width="27.9" height="24.9"/>
	
		<rect x="321.6" y="870.4" transform="matrix(0.5446 -0.8387 0.8387 0.5446 -589.6121 682.8697)" class="st2" width="24.9" height="27.9"/>
	<path class="st3" d="M444.3,627.8c-20.4,0-122,236.7-122,245.3s22.1,18.5,25.3,18.5c5.1-4.7,102.4-145.4,112.5-155.2
		C470.2,726.6,444.3,627.8,444.3,627.8z"/>
	<path class="st4" d="M606.1,454.1c-6.7,2.1-39.4,30.1-45.1,63.7c-5.8-0.7-40.7-2.2-55.2-2.7c-4.8-7.4-14.8-12.5-26.4-12.5
		c-16.2,0-29.3,9.9-29.3,22.2c0,0.3,0,0.5,0,0.8h58.5c0-0.3,0-0.5,0-0.8c0-3.1-0.9-6.1-2.4-8.8L557,524l60.4,6.3l6.2-52.8
		L606.1,454.1z"/>
	<path class="st5" d="M656.2,416.6c0-4.3-10.6-9.1-18.4-9.1c-20.8,0-55.9,37.9-55.9,42.6c0,4.8,25.3,25.9,44.7,27.2
		S656.2,416.6,656.2,416.6z"/>
	<path class="st6" d="M707.8,386.2c117.4,0,90.6,265.3,75.7,276.5c-14.9,11.2-145.4,12.2-153.9,1S568.5,386.2,707.8,386.2z"/>
	<path class="st4" d="M728.4,335.5h-46.9v62.9c0,10,46.9,10.1,46.9,0V335.5z"/>
	<ellipse transform="matrix(0.1575 -0.9875 0.9875 0.1575 285.8133 943.7606)" class="st2" cx="696" cy="304.4" rx="69" ry="46.4"/>
	<path d="M806.1,202.7c22.7,0,45.4,12.1,74.2,12.1c22.7,0,43.9-9.1,71.2-9.1c48.5,0,63.6,31.8,63.6,51.5c0,50-40.9,69.7-71.2,69.7
		c-48.5,0-54.5-33.3-112-33.3c-56,0-48.5-45.4-60.6-45.4c-6.1,0-9.8,0.8-12.1,3c-2.3,2.3-13.6-6.1-13.6-9.1
		C745.5,239.1,760.7,202.7,806.1,202.7z"/>
	<path d="M704.6,219.4c-53.6,0-64.8,40.7-64.8,52.5s7.4,20.5,11.2,20.8c2.4-14.1,13.6-33.5,14.2-33.9c3,3,14.2,12.7,25.7,13.6
		c9.6,0.5,18.9,3.4,27,8.4c0.7,3.9,2.1,7.6,4.3,11c3.1,5,7.8,8.8,13.3,10.8c1.3,3.4,2.1,7,2.3,10.6c0,16.2-1.5,22.7-3,27.3
		c24.7,0,36.3-25.4,36.3-57.5C771.3,230,724.5,219.4,704.6,219.4z"/>
	<circle class="st2" cx="737.9" cy="313.5" r="13.1"/>
	<path class="st2" d="M694,484.2c-5.3,1.3-26.5,14.4-39.2,37.1c-12.5-2.3-63.3-15-108.4-15c-4.2,0-15.2-3.5-19.7-3.5
		c-26.5,0-32,14.3-32,18.5c0,4.2,0.9,4.3,1.7,4.3c90.9,0,113.7,38.3,164.8,38.3c16.5,0,50.6-12,71.2-42.7
		C725.3,496.8,694,484.2,694,484.2z"/>
	<path class="st7" d="M783.3,432.5c28.4,27.5-43.4,103.8-54.9,102.7c-11.5-1.1-53-44.8-53.4-58.1
		C674.7,463.8,755.9,405.9,783.3,432.5z"/>
	<rect x="200.8" y="529" class="st8" width="640.8" height="20.7"/>
	<path class="st9" d="M783.3,675.9c0-6.5,1.1-14.1-2.9-15.7C684,620.5,543,615.3,521.2,615.3c-21.7,0-85.3,2.2-85.3,20.4
		c0,65.7,36.6,267.9,44,275.5c3.5,3.6,34.3,1.2,38.1-2.7c-0.3-16.7,9.4-184,0.6-204.2c81,29.7,172.9,43.7,197.1,43.7
		C786.1,747.9,783.3,683.6,783.3,675.9z"/>
	<polygon points="341.3,899.3 316.8,883 251,869.3 244.8,879.6 322.3,927.5 	"/>
	<polygon points="521,915.3 492,919.8 434.3,954.2 436.7,966.1 526.2,948.9 	"/>
	<line class="st10" x1="807.2" y1="858.1" x2="807.2" y2="543.9"/>
	<line class="st10" x1="274.8" y1="858.1" x2="274.8" y2="543.9"/>
	<line class="st10" x1="762.2" y1="921.1" x2="762.2" y2="543.9"/>
	<line class="st10" x1="227.2" y1="921.1" x2="227.2" y2="543.9"/>
	<line class="st0" x1="548.7" y1="909.9" x2="647.1" y2="744.4"/>
	<rect x="436" y="525.2" class="st9" width="106.4" height="3.8"/>
	<rect x="318" y="277.5" class="st9" width="232.3" height="168.7"/>
	<polygon class="st3" points="401.5,414.4 369.4,529 425.6,529 456.7,414.4 	"/>
</g>
</svg>
