<?xml version="1.0" encoding="utf-8"?>
<!-- Generator: Adobe Illustrator 21.1.0, SVG Export Plug-In . SVG Version: 6.00 Build 0)  -->
<svg version="1.1" id="Layer_1" xmlns="http://www.w3.org/2000/svg" xmlns:xlink="http://www.w3.org/1999/xlink" x="0px" y="0px"
	 viewBox="0 0 1428 1340" style="enable-background:new 0 0 1428 1340;" xml:space="preserve">
<style type="text/css">
	.st0{fill:#F2F2F2;}
	.st1{fill:#DE8E68;}
	.st2{fill:#FEBF92;}
	.st3{fill:#FED892;}
	.st4{fill:none;stroke:#000000;stroke-width:1.5223;stroke-miterlimit:10;}
	.st5{fill:none;stroke:#000000;stroke-width:1.7219;stroke-linecap:round;stroke-miterlimit:10;}
	.st6{fill:#74D5DE;}
	.st7{fill:#FECC92;}
	.st8{fill:#D38466;}
	.st9{fill:#FD8369;}
	.st10{fill:#495B5B;}
	.st11{fill:#3F5051;}
	.st12{fill:#56CAD8;}
	.st13{fill:#FCC486;}
	.st14{fill:#FED385;}
	.st15{fill:#D37C59;}
	.st16{fill:#CCCCCC;}
	.st17{fill:#FFFFFF;}
	.st18{fill:none;stroke:#D8D8D8;stroke-width:1.5852;stroke-linecap:round;stroke-miterlimit:10;}
	.st19{fill:#DC8E6C;}
	.st20{fill:#D8D8D8;}
	.st21{fill:none;stroke:#D14D37;stroke-width:0.639;stroke-linecap:round;stroke-linejoin:round;}
	.st22{fill:none;stroke:#3A3A3A;stroke-width:1.2781;stroke-linecap:round;stroke-miterlimit:10;}
	.st23{fill:#3A3A3A;}
	.st24{fill:none;stroke:#56CAD8;stroke-width:4.4733;stroke-linecap:round;stroke-miterlimit:10;}
	.st25{fill:#E49D75;}
	.st26{fill:#0D5154;}
	.st27{fill:#9850D8;}
	.st28{fill:#125959;}
	.st29{fill:#9836DD;}
	.st30{fill:#D38D6A;}
	.st31{fill:#5B7070;}
	.st32{fill:#4F6263;}
	.st33{fill:#3288CE;}
	.st34{fill:#3E91E5;}
	.st35{fill:#87550C;}
</style>
<title>gamer-colour</title>
<g>
	<path class="st0" d="M1402.9,292.3c37.2,127-59.4,303.9-97.3,465.5s-17.4,307.6-76.8,406.6s-199.1,151.2-321,133.2
		c-121.9-18-225.3-105.6-380-171.2S166.7,1018.2,84.3,899.5s-41.1-312.9,66.8-431.6s282.7-162.7,439.3-226.1S886.4,94.4,1041,91
		S1366.1,165,1402.9,292.3z"/>
	<g>
		<g>
			<path class="st1" d="M834.5,475.7c-15.2,12.5-45.5,43.8-48,47.8c-7.7-3.4-87.4-42.2-93.4-44.7s-18.7-22-23-22
				c-2.5,0-4.8,4.5-4.8,7.6c0,5.2,2.7,9.3,4.3,10.9c-5.7-0.8-55.6-4.3-55.6-1.2c0,8,56,18.7,60.3,20.8c4.3,2.2,95.4,80.2,127.1,80.2
				c12.3,0,66.8-34.2,66.8-37.9c5.2-3.2,13.2-8,13.2-8v-27.1l-19-12.8C862.3,488.9,837.5,473.2,834.5,475.7z"/>
			<path class="st2" d="M832.5,466.7c3.3-25,65.5-81.7,93.9-56.4c24.8,22-20.2,100.8-31.6,103.9
				C881.8,515.5,831.7,483.7,832.5,466.7z"/>
			<path class="st3" d="M1022,414.8c31.6-12.3,75.9,55.5,70.9,80.2c0,10.8-65,33.9-74.9,27.8C1008,516.5,990.4,427.1,1022,414.8z"/>
			<path class="st4" d="M885.1,505.9"/>
			<path class="st5" d="M973.4,337.7"/>
			<g>
				<rect x="999.2" y="1129.7" class="st1" width="25.5" height="35.8"/>
				<path class="st6" d="M894.5,658.5l104.6,471h26.8l9.5-420.1c0-7.2-0.7-52.9-0.7-58.7C1004.4,658.8,939.8,665.3,894.5,658.5z"/>
				<polygon points="999.2,1165.5 1024.7,1165.5 1024.7,1191.1 954.4,1191.1 				"/>
			</g>
			<path class="st7" d="M952.8,378.5c78.3,0,105.6,60.3,105.6,79.9c0,19.6-24.5,139.1-23.5,192.3c0.2,8.8-140.4,16.7-159.5,3.9
				C866.3,648.5,847,378.5,952.8,378.5z"/>
			<path class="st1" d="M1093,495c22.2,31.5,20.8,103.9,20.8,114.9s-82.6,109.3-89.8,109.3c-4.3-4-16.3-16.2-16.3-19.9
				c3.8-6.5,53-105.9,61.8-113c-4-4.5-39.1-55.5-40.6-64C1059.7,517.5,1089.5,505.4,1093,495z"/>
			<path class="st3" d="M1093,495c5-24.7-35.5-96.2-70.9-80.2c-30.8,14-14,101.8-4,107.9C1030,527.5,1088.3,511.3,1093,495z"/>
			<path class="st8" d="M932.8,363.7c-1.7,4.8-2.5,19.6-0.7,26.2c0.2,0.3,33.3,2.6,37-2.8c0.2-4.5,8.2-44.2,19-56.6
				c1-1.4-1.2-5.2-1.2-5.2l-38.5,14.8L932.8,363.7"/>
			<path class="st9" d="M982.6,328.8c2.5,3.1,5.7,4.5,8.5,4.5c6.3,0,21-5.4,21-24.7c0-13.9-14.7-21-14.7-27.6
				c0-6.3,1.8-6.5,1.8-11.7c0-2.6-2.8-11.3-11.7-11.3c-5,0-6.8,3.9-11.8,3.9c-5.5,0-10.5-9.9-18.8-9.9c-5.7,0-11,4.9-17,4.9
				c-6.8,0-11.5-9.4-21-9.4c-9.8,0-13.3,8.2-17.2,8.2c-4.8,0-5.7-1.2-10.5-1.2c-3,0-12.2,4.9-12.2,13.9c0,6.3,2.8,16.7,17,16.7
				c8.3,0,13,12.2,20.3,12.2c2.8,0,5.3-2.2,6-1.1c2.8,4.6,8.7,17.3,8.7,17.3l26.5,13.7L982.6,328.8z"/>
			<path class="st1" d="M976.7,322.4c0,2.2-0.8,2.6-4.3,2.6c-1.7,0-4-2-4-4.2c0-5.1,4-6.2,4-12.8c0-11.3-31.8-17.1-43-23l0,0
				c-4,3.7-6.8,8.5-8,13.9l-7.2,34.1c-3.2,14.8,7.3,29.1,23.1,32.1c15.8,2.9,31.5-6.8,34.6-21.4l1.2-5.9l0,0
				c0.7,0.2,1.3,0.3,1.8,0.3c4.2,0,7.3-3.5,7.3-7.9C982.7,326.3,976.7,319.2,976.7,322.4z"/>
			<g>
				<polygon class="st1" points="919.4,1122.7 944.7,1125.5 940.2,1161 914.9,1158.2 				"/>
				<path class="st6" d="M874.7,643.5l44.6,479.1l26.6,2.9l62.3-416.2c0.9-7.2,6-52.6,6.7-58.4C983.8,655.6,918.8,655.1,874.7,643.5
					z"/>
				<polygon points="914.9,1158.2 940.2,1161 937,1186.4 867.2,1178.8 				"/>
			</g>
			<title>gamer-colour</title>
		</g>
		<g>
			<rect x="647.8" y="1133.7" class="st1" width="28.9" height="35.8"/>
			<path class="st10" d="M636.5,654.7c0,5.9-0.8,51.5-0.8,58.7l10.8,420.1h30.4l118.6-471C744.2,669.3,670.9,662.8,636.5,654.7z"/>
			<polygon points="727.5,1195 647.8,1195 647.8,1169.4 676.7,1169.4 			"/>
			<polygon class="st1" points="772.3,1162.2 743.6,1165 738.5,1129.5 767.2,1126.7 			"/>
			<path class="st11" d="M658.9,654.8c0.8,5.8,6.6,51.2,7.6,58.4l70.6,416.2l30.2-2.9L818,647.5
				C767.9,659.1,694.2,659.6,658.9,654.8z"/>
			<polygon points="826.5,1182.8 747.3,1190.4 743.6,1165 772.3,1162.2 			"/>
		</g>
		<g>
			<rect x="418.5" y="1165.8" class="st1" width="23.1" height="15.9"/>
			<rect x="565.5" y="1165.8" class="st1" width="27" height="15.9"/>
			<path class="st12" d="M564.5,807c0.6,12,28.8,358.8,28.8,358.8h-28.8l-74.9-260.5c0,0,19.5-104.2,20.8-103.9
				C516.8,803,552.1,809.3,564.5,807z"/>
			<path class="st6" d="M522.4,804l-77.7,364.6H417c0,0-2.4-399.6,0-399.6C443.1,780.1,492.4,798.2,522.4,804z"/>
			<path class="st1" d="M584.4,605.6c4.4,1.9,28.2,21.6,38.2,34.5c7.4-5.5,92.3-75.9,94-79.8c3.4-1.9,10.5,8.9,0,17.7
				c7.2-0.3,49.5-1.4,49.5,0s9.2,5.3-53,15.2c-8.2,10-82.9,97.8-95.1,97.8s-61.6-48-63.7-56.6C552.2,625.7,584.4,605.6,584.4,605.6z
				"/>
			<path class="st13" d="M519.8,566.5c-19.4,18,16.1,72.4,26.2,74.8c12.8,3.1,42-21.1,48.2-37.9C597,595.5,535.8,551.7,519.8,566.5z
				"/>
			<path class="st14" d="M485,540.2c-107.8,0-83.4,208.2-76.5,222.4c6.9,14.2,145,55.6,155.9,44.4
				C575.3,795.9,595.3,540.2,485,540.2z"/>
			<path class="st15" d="M503.6,512.2H471v47.4c0,6.1,32.6,6.1,32.6,0V512.2z"/>
			<ellipse class="st1" cx="486.9" cy="466.9" rx="37.2" ry="62.4"/>
			<path d="M480.8,390.6c-18.8,0-43.6,9.1-61.6,9.1c-16.3,0-45.9-11.8-61.6-11.8c-10,0-57.1,4.6-57.1,42.6
				c0,17.1,18.1,33.5,21.8,38.1c3.6,4.5,10.2,29.9,27.2,29.9c23.7,0,40-17.2,61.6-17.2c15,0,18.9,3.6,26.3,3.6
				c5.4,0,13.6-2.5,13.6-2.7c0-2.8-0.5-26.3,2.7-30.1c4.5-5.4,62.3,2.6,62.3-16.5c4.1,3.6,7.9,19,7.9,22.2
				c2.6-2.7,12.4-14.5,12.4-27.2C536,419,527.9,390.6,480.8,390.6z"/>
			<ellipse class="st1" cx="403" cy="834.8" rx="17.3" ry="24.4"/>
			<path class="st1" d="M392,630.3c-2.3,5.1-17.2,61.7-14,110.1c3.2,48.4,11.4,75.7,11.4,79.5c0,3.8,27.7,2.3,27.7,0
				c0-2.3-7.2-71.1-5.6-83.4c1.5-12.2,22.3-83,21.8-91.7S392,630.3,392,630.3z"/>
			<path class="st3" d="M432.7,570c-24.7-7.9-54,48.6-51.2,58.4c3.5,12.3,38.1,25.7,55.4,23C445,650,453,576.5,432.7,570z"/>
			<polygon points="417.3,1178.1 417.3,1185 389.8,1236.7 407.7,1236.7 443.6,1204.2 443.6,1178.1 			"/>
			<polygon points="564.6,1177 564.6,1203.2 641.2,1203.2 641.2,1192.8 592.6,1177 			"/>
		</g>
		<path class="st16" d="M707.8,429c135.8-4.5,129.4,319.2,114.8,332.9c-14.7,13.7-197,15.9-209.1,1.6S573.4,433.5,707.8,429z"/>
		<path class="st17" d="M729.2,431c-13.8-3.8-30.7-1.8-40.2,0.8c5.9,17.9,33.7,237.1,36.3,341.3c9.7-0.2,24-0.5,35.7-1.2
			C760.3,692.3,755.2,516.6,729.2,431z"/>
		<path class="st18" d="M716.3,459.8c13.2,68.3,26.4,223.7,28.3,294.1"/>
		<path class="st15" d="M729.5,445.3c0,6.4-36.3,6.4-36.3-0.6s-4.9-59.1-4.9-59.1l36.2-3.1C724.5,382.6,729.5,441.2,729.5,445.3z"/>
		<path d="M773.9,395.9c0.3-3.6,0.5-7.2,0.5-11c0-49.5-28.6-89.7-63.8-89.7c-35.2,0-63.8,40.1-63.8,89.7c0,5.6,0.4,11.1,1.1,16.6
			L773.9,395.9z"/>
		<path class="st19" d="M761.7,346.1c-7.8-3.2-15.4-6.6-21.6-12.9c-16.1,18.2-44.4,39.6-54.7,46.5c4.1,27.3,19.9,47.6,38.7,47.6
			c22,0,39.8-27.7,39.8-61.8c0-6.5-0.7-13-2-19.4L761.7,346.1z"/>
		<ellipse cx="683.1" cy="284.1" rx="17" ry="17.5"/>
		<ellipse class="st19" cx="689.9" cy="373.2" rx="9.2" ry="9.5"/>
		<path class="st19" d="M713.5,620c10.6-0.6,22-10.9,32.7-10.9c12.8,0,21.8,8.3,21.8,18.7c0,22-16.7,28.3-23.1,28.3
			c-10.6,0-12.4-1.7-14.4-3.1c-3.2,0.8-8,4.9-20.6,4.9S713.5,620,713.5,620z"/>
		<path class="st20" d="M638.9,456.5c-55.3-13.3-75.4,183.8-66.6,200.9c8.8,17,134,11.4,141,10c2-8,4.4-45.7,2-50.2
			c-3.4-1.4-63.8-2.2-63.8-2.2c1.6-6.4,21.2-87.8,21.9-97.1C676.4,474.3,669.9,464,638.9,456.5z"/>
		<polyline class="st18" points="694.1,450.7 710.6,457 716.3,452.2 722.3,457 730.5,448.4 		"/>
		<ellipse class="st0" cx="830.4" cy="271.4" rx="7.4" ry="7.6"/>
		<g>
			<path class="st15" d="M1013.8,1137.9c-0.1,3-8.1,62.6-8.1,62.6l-9.3,6.9h32.5c0,0,6.2-28.6,27.4-49.6c1.2-3.2-17-17.4-17-17.4
				L1013.8,1137.9z"/>
			<path class="st15" d="M864.3,1117.5c-5.6-0.1-11.3-0.1-17.2-0.1c-4.2,0-8.3,0.5-8.3,1.6s6.4,16.9,7.2,17.7
				c0.8,0.8,8.6,1.8,8.6,6.3c0,2.2-0.8,11.3-10.8,11.3c-13.2,0-40.8-45.1-40.8-59.4c4.4-1.7,40.5-8.8,40.5-8.8"/>
			<path class="st1" d="M926.2,1120.9c122.7,12,157.8,51.9,157.8,76.3c0,2-9.7,8.6-9.7,10.1h35.7c0.6-1.9,2.6-18.5,2.6-37.7
				c0-58.9-53.7-120.1-65.2-120.1c-3.8,0-15,3.8-49.2,3.8c-177.1,0-97.8-92-163-92c-21.2,0-32.8,27.4-42.7,27.4c-2.5,0-19.5-3-21-3
				c-1.6,0-7,2.4-7,7.5c0,40.2,34.8,42.3,49.6,51.6c7.4,4.7,24.9,34.4,29.5,41.1c6.3,10.2,73.6,114.9,73.6,114.9l-9.6,6.5h40.1
				L926.2,1120.9"/>
			<path class="st14" d="M838.9,978.7c4.3-1.3,28.5-2.4,39.9,3.1c0,23-6,54.4-25.4,52.3C836.7,1032.4,828,1005.4,838.9,978.7z"/>
			<path class="st9" d="M797.9,1018.5c1.9,3.5,17.2,25.6,27.4,21.7c6.8-2.6-1.9-23.5-5.9-28.4
				C816.9,1013.2,804.8,1017.8,797.9,1018.5z"/>
			<path class="st21" d="M810.1,1015.7c1,1.8,2.6,4.7,5.2,8.6"/>
			<path class="st22" d="M766,1006.4c7.2,12.4,29.9,18.2,55.6,4.3"/>
			<ellipse class="st23" cx="772.8" cy="986.4" rx="5.1" ry="2.3"/>
			<ellipse class="st23" cx="816" cy="983.8" rx="2.6" ry="4.9"/>
			<path class="st1" d="M1064.1,1068.5c18.4,0,39.1-31,39.1-46.3c0-31.4-28.6-42.9-38.3-42.9c-21.7,0-27.2,21.6-27.2,23.6
				c0,2,0.9,4.9,1.4,4.9c0.5,0,3.4-1.5,5.5-1.5c18.7,0,20.5,14.2,20.5,16.5c0,18.6-17.8,27.7-20.8,27.7
				C1041.3,1050.5,1057,1068.5,1064.1,1068.5z"/>
			<path class="st24" d="M830.3,1065.3c7.3-2.4,40.1-17.5,56.4-40.3"/>
		</g>
		<g>
			<path class="st25" d="M1082.1,668.4c3.3,3.3,36.3,22.6,42.5,24.3s31.8-51.7,31.8-51.7l-42.3-25.1
				C1104,620.5,1077.5,644.3,1082.1,668.4z"/>
			<path d="M1202.8,412.3c25.6,0,46.3,27.4,46.3,58.4c0,7.3-2,23.5-0.9,33.7c2.2,20,28.7,50.1,28.7,72.7c0,41.5-55.9,44.5-74.2,44.5
				c-18.3,0-60.3-41.5-60.3-55.9c0-14.4,13.9-54.1,13.9-61.9C1156.4,495.9,1175.9,412.3,1202.8,412.3z"/>
			<path class="st26" d="M1121.8,759.5v406.2h35.5l45.4-195.3C1202.7,970.4,1207.4,737.6,1121.8,759.5z"/>
			<path class="st27" d="M1181.1,572.4c17,17-14.4,83.7-25.8,85c-7.7,0.9-54.1-36-54.1-46.3C1101.1,594.7,1158.5,549.9,1181.1,572.4
				z"/>
			<path class="st28" d="M1268.7,763.7v402h-39.1l-77.5-398.1C1152.1,759.7,1261.2,756.1,1268.7,763.7z"/>
			<path class="st29" d="M1208,554c80.7,0,70.5,199,66,206.9c-6.4,11.3-123.8,24-156.3-5.6C1108,746.5,1099.9,554,1208,554z"/>
			<polygon points="1154,1216.2 1070,1216.2 1070,1208.1 1123.5,1184.3 1154,1184.3 			"/>
			<polygon points="1218.1,1216.2 1278.4,1216.2 1266.4,1188.7 1228.9,1188.7 			"/>
			<rect x="1124.2" y="1165.7" class="st25" width="28.9" height="18.5"/>
			<rect x="1231.9" y="1165.7" class="st25" width="32.5" height="23"/>
			<path class="st30" d="M1229.3,505c-5.5,8.3-9.8,52.3-7.5,69.5c-3.2,4.5-31.3,5.2-35.8,0.7c2.3-7.6,4-28.2,2.6-41.6
				C1197.5,521.8,1229.3,505,1229.3,505z"/>
			<path class="st25" d="M1197.4,629.3c-4.3,3.8-19.3,24-22.3,27.5c-3.3-5.6-44.5-85.4-47.8-88.3c-3.3-2.9-22.2,5.3-22.9,10.8
				c-0.7,5.4,20.4,100.3,48.5,132.2c3.8,4.3,22.6,4.7,27.4,4s59.7-49.5,62.4-54.5S1197.4,629.3,1197.4,629.3z"/>
			<ellipse class="st25" cx="1194.7" cy="482.6" rx="47.1" ry="58.8"/>
			<path d="M1146.5,472.8c-3.9-36.5,29.4-60.4,56.4-60.4C1183.8,433.1,1168.5,471.6,1146.5,472.8z"/>
			<path d="M1173.1,433c-2.9,4.6,14.9,52.3,49.9,52.3C1285.6,483.3,1205.3,382.9,1173.1,433z"/>
			<circle class="st25" cx="1232" cy="487" r="12.9"/>
			
				<ellipse transform="matrix(0.9677 -0.2522 0.2522 0.9677 -105.17 298.8443)" class="st25" cx="1113.2" cy="559.7" rx="19.6" ry="33.3"/>
			<path class="st27" d="M1272.6,583.5c17,17-14.4,83.7-25.8,85c-7.7,0.9-54.1-36-54.1-46.3C1192.6,605.7,1250,560.9,1272.6,583.5z"
				/>
		</g>
		<g>
			
				<rect x="153.5" y="1138.5" transform="matrix(0.8004 -0.5994 0.5994 0.8004 -658.7277 331.2054)" class="st1" width="29.1" height="32.6"/>
			<rect x="209.2" y="1188.5" class="st1" width="35.5" height="23.1"/>
			<path class="st31" d="M214,1088.3c0,0-47.6,39.3-47.6,44.5s15.4,35.1,19.1,35.1c3.7,0,203.8-163.5,203.8-168.4
				s-71.7-249.7-71.7-249.7L214,1088.3z"/>
			<path class="st32" d="M208,1191.4h38.5c0,0,66.4-402.9,71.1-441.8c-67.8,18.8-121.6,3.5-132.1-4l22.2,443.4L208,1191.4z"/>
			<path class="st1" d="M323.5,671c19-7.7,82.6-72.2,86.5-76.9c43.6-11.3,45.5-29.7,45.5-32.4c0-2.8,1.3-12-14.3-12
				c-15.6,0-110.8,63-119.8,67.9C321.4,617.6,323.3,650.7,323.5,671z"/>
			<path class="st33" d="M183.1,741.8c7.4,23.1,128,16.9,134.5,7.8c6.5-9.1,48-325.2-70.2-325.2
				C152.9,424.4,178.2,726.5,183.1,741.8z"/>
			<path class="st1" d="M175.1,551.9c-1.2,4.7-8.2,99.9-5.3,119.1s60.8,142,60.8,142l15.8-20.4c0,0-22.5-118-26.6-139.1
				c10.8-28.6,18.3-88.2,18.1-97C237.9,556.5,176.3,547.2,175.1,551.9z"/>
			<path class="st34" d="M246.2,562.5c-7.1,7.9-70,1.6-75.9-6.7c-5.9-8.3,4-102.1,39.3-101.3C246.9,455.2,253.4,554.5,246.2,562.5z"
				/>
			<path class="st15" d="M236.5,439.9c0,7.4,39.3,7.9,39.3,0v-61.7h-39.3V439.9z"/>
			
				<ellipse transform="matrix(0.9984 -5.686708e-02 5.686708e-02 0.9984 -19.4382 15.6577)" class="st1" cx="265.4" cy="349.4" rx="37" ry="63.6"/>
			<path class="st35" d="M316.3,350.5c-6.1,0-12.3-1.8-14.1-2.6c-0.5-9.9-2.4-19.6-5.5-29c-6.1,0-46.3,4.4-46.3,22.8
				c0,5.3,1.8,7,1.8,14.9c0,3.5-11.4,14.9-23.7,14.9s-28.1-17.6-28.1-32.5c0-15.8,20.2-16.7,20.2-31.6c0-3.5,3.5-34.3,28.1-34.3
				c7.9,0,14.1,3.5,28.1,3.5c23.7,0,27.2-10.5,42.2-10.5c7.9,0,22.8,7,22.8,22c0,8.8-2.6,15.8-2.6,22c0,7,3.5,14.1,3.5,20.2
				C342.6,345.2,320.7,350.5,316.3,350.5z"/>
			<circle class="st1" cx="235.1" cy="373.8" r="9.2"/>
			<polygon points="208.5,1242 306.8,1242 306.8,1232.9 246.2,1209 208.5,1209 			"/>
			<polygon points="123.9,1166.8 178,1239 184.7,1234 168.9,1176.3 148.2,1148.6 			"/>
		</g>
	</g>
</g>
</svg>
