<?xml version="1.0" encoding="utf-8"?>
<!-- Generator: Adobe Illustrator 24.1.1, SVG Export Plug-In . SVG Version: 6.00 Build 0)  -->
<svg version="1.1" id="Vector" xmlns="http://www.w3.org/2000/svg" xmlns:xlink="http://www.w3.org/1999/xlink" x="0px" y="0px"
	 viewBox="0 0 709.2 515" style="enable-background:new 0 0 709.2 515;" xml:space="preserve">
<style type="text/css">
	.st0{fill:#F2CBC0;}
	.st1{fill:#495B5B;}
	.st2{fill:#3F5051;}
	.st3{fill:#CCCCCC;}
	.st4{fill:#FFFFFF;}
	.st5{fill:none;stroke:#D8D8D8;stroke-width:1.5852;stroke-linecap:round;stroke-miterlimit:10;}
	.st6{fill:#EFB9AC;}
	.st7{fill:#D8D8D8;}
	.st8{fill:none;stroke:#ED7562;stroke-width:4;stroke-linecap:round;stroke-linejoin:round;}
	.st9{fill:#ED7562;}
	.st10{fill:#56CAD8;}
	.st11{fill:#DBAD9E;}
	.st12{fill:#53A0E5;}
	.st13{fill:#3D8CE2;}
	.st14{fill:#EABAA7;}
	.st15{fill:#74D5DE;}
	.st16{fill:#87550C;}
	.st17{fill:#D995E5;}
	.st18{fill:#E4A6ED;}
	.st19{fill:#C18D53;}
	.st20{fill:none;stroke:#FD8369;stroke-width:4;stroke-linecap:round;stroke-linejoin:round;}
	.st21{fill:#FD8369;}
	.st22{fill:#95E1E5;}
</style>
<g>
	<rect x="123" y="732.7" class="st0" width="25.1" height="31.2"/>
	<path class="st1" d="M113.2,315.3c0,5.2-0.7,44.9-0.7,51.2l9.4,366.1h26.5l103.4-410.4C207.1,328,143.2,322.4,113.2,315.3z"/>
	<polygon points="192.6,786.1 123,786.1 123,763.8 148.2,763.8 	"/>
	<polygon class="st0" points="231.6,757.6 206.5,760 202.1,729.1 227.2,726.6 	"/>
	<path class="st2" d="M132.7,315.4c0.7,5.1,5.7,44.6,6.7,51l61.5,362.8l26.3-2.5L271.3,309C227.7,319.1,163.5,319.6,132.7,315.4z"/>
	<polygon points="278.8,775.6 209.8,782.2 206.5,760 231.6,757.6 	"/>
	<path class="st3" d="M175.3,118.6c118.4-3.9,112.7,278.2,100.1,290.2c-12.9,11.9-171.7,13.9-182.3,1.4
		C82.6,397.7,58.2,122.5,175.3,118.6z"/>
	<path class="st4" d="M194,120.4c-12.1-3.3-26.7-1.6-35.1,0.7c5.2,15.6,29.4,206.6,31.7,297.5c8.5-0.2,21-0.5,31.1-1
		C221.1,348.1,216.7,194.9,194,120.4z"/>
	<path class="st5" d="M182.7,145.4c11.5,59.5,23,195,24.7,256.3"/>
	<path class="st6" d="M194.2,132.8c0,5.5-31.7,5.5-31.7-0.6c0-6.1-4.3-51.5-4.3-51.5l31.6-2.7C189.8,78.1,194.2,129.2,194.2,132.8z"
		/>
	<path d="M232.9,89.7c0.2-3.2,0.5-6.3,0.5-9.6c0-43.2-24.9-78.2-55.6-78.2c-30.7,0-55.6,34.9-55.6,78.2c0,4.8,0.3,9.7,1,14.4
		L232.9,89.7z"/>
	<path class="st0" d="M222.3,46.3c-6.8-2.8-13.4-5.7-18.8-11.3c-14,15.9-38.7,34.5-47.7,40.6c3.6,23.8,17.4,41.5,33.7,41.5
		c19.2,0,34.7-24.1,34.7-53.9c0-5.6-0.6-11.4-1.7-16.9L222.3,46.3z"/>
	<ellipse class="st6" cx="159.7" cy="70" rx="8" ry="8.2"/>
	<path class="st6" d="M180.3,285.1c9.2-0.6,19.2-9.5,28.5-9.5c11.2,0,19.1,7.2,19.1,16.3c0,19.2-14.5,24.7-20.2,24.7
		c-9.2,0-10.8-1.5-12.5-2.7c-2.8,0.7-7,4.3-17.9,4.3C166.2,318.1,180.3,285.1,180.3,285.1z"/>
	<path class="st7" d="M115.3,142.6C67.1,131,49.6,302.8,57.3,317.7c7.7,14.8,116.8,9.9,122.9,8.7c1.7-7,3.8-39.8,1.7-43.7
		c-2.9-1.2-55.6-1.9-55.6-1.9c1.4-5.5,18.5-76.5,19.1-84.7C148,158,142.3,149.1,115.3,142.6z"/>
	<polyline class="st5" points="163.4,137.5 177.8,143 182.7,138.9 187.9,143 195.1,135.5 	"/>
</g>
<g>
	<line class="st8" x1="357.5" y1="618.5" x2="284.2" y2="741.7"/>
	<line class="st8" x1="325.7" y1="618.5" x2="252.4" y2="741.7"/>
	<line class="st8" x1="413" y1="618.5" x2="486.3" y2="741.7"/>
	<path class="st9" d="M330,612.9h136.9v9.4H282.3l-72.7-263.6h108.3L330,612.9z"/>
	<rect x="478.4" y="732.6" transform="matrix(0.1537 -0.9881 0.9881 0.1537 -321.4203 1110.7269)" width="18.6" height="20.7"/>
	<rect x="603.1" y="713.5" transform="matrix(0.8387 -0.5446 0.5446 0.8387 -294.6862 450.6906)" width="20.7" height="18.6"/>
	<path class="st10" d="M519.7,612.5c7.6,7.3,80,112.1,83.8,115.5c2.4,0,18.8-7.3,18.8-13.8c0-6.4-75.6-182.6-90.9-182.6
		C531.4,531.7,512.1,605.2,519.7,612.5z"/>
	<path class="st11" d="M397.9,419.8l4.6,39.2l45-4.7l37.9-6.1c-1.1,2-1.8,4.3-1.8,6.5c0,0.2,0,0.5,0,0.6h43.6c0-0.2,0-0.5,0-0.6
		c0-9.1-9.8-16.6-21.9-16.6c-8.7,0-16.1,3.8-19.6,9.4c-10.8,0.5-36.7,1.5-41.1,2c-4.3-25-28.6-45.9-33.6-47.5L397.9,419.8z"/>
	<path class="st12" d="M395.7,419.7c14.4-0.9,33.3-16.7,33.3-20.3c0-3.6-26.2-31.7-41.6-31.7c-5.7,0-13.6,3.6-13.6,6.8
		C373.7,374.5,381.3,420.6,395.7,419.7z"/>
	<path class="st13" d="M393.4,558.4c-6.3,8.3-103.5,7.6-114.5-0.8c-11-8.3-31-205.8,56.4-205.8C439,351.8,399.7,550.1,393.4,558.4z"
		/>
	<path class="st11" d="M319.9,360.9c0,7.4,34.9,7.4,34.9,0v-46.8h-34.9V360.9z"/>
	
		<ellipse transform="matrix(0.9875 -0.1575 0.1575 0.9875 -41.5255 57.822)" class="st14" cx="344.1" cy="290.9" rx="34.5" ry="51.3"/>
	<circle class="st11" cx="312.8" cy="297.7" r="9.7"/>
	<path class="st14" d="M316.9,452.4c15.3,22.9,40.7,31.8,53,31.8c38.1,0,55-28.5,122.6-28.5c0.6,0,1.2-0.1,1.2-3.3
		s-4.2-13.8-23.8-13.8c-3.3,0-11.5,2.6-14.7,2.6c-33.6,0-71.4,9.5-80.7,11.2c-9.5-16.9-25.3-26.6-29.2-27.6
		C345.5,424.7,322.3,434.2,316.9,452.4z"/>
	<path class="st12" d="M359.6,419.6c-0.3,9.9-31.2,42.4-39.8,43.3c-8.6,0.9-62-55.9-40.9-76.4C299.4,366.5,360,409.6,359.6,419.6z"
		/>
	<path class="st15" d="M329.3,621.2c18,0,86.5-10.5,146.8-32.6c-6.5,15.1,0.7,139.7,0.5,152.1c2.8,2.8,25.7,4.6,28.4,2
		c5.5-5.6,32.8-156.1,32.8-205.1c0-13.5-47.3-15.2-63.5-15.2c-16.1,0-121.2,3.8-192.9,33.4c-3,1.2-2.1,6.9-2.1,11.7
		C279.1,573.2,277,621.1,329.3,621.2z"/>
	<polygon points="622.3,754.8 680,719.2 675.4,711.5 626.3,721.7 608.2,733.8 	"/>
	<polygon points="470.5,770.7 537.2,783.6 538.9,774.8 495.9,749.1 474.4,745.7 	"/>
	<line class="st8" x1="380.5" y1="618.5" x2="453.7" y2="741.7"/>
	<rect x="458.4" y="455.3" class="st15" width="79.2" height="2.8"/>
	<path class="st16" d="M380.9,282.7c-5.6,0-11.4-1.5-13.1-2c-0.5-7.9-2.3-15.6-5.1-23c-5.6,0-42.9,3.5-42.9,18.1
		c0,4.2,1.7,5.5,1.7,11.8c0,2.8-10.6,11.8-22,11.8c-11.4,0-26-14-26-25.8c0-12.5,18.7-13.3,18.7-25.1c0-2.8,3.3-27.3,26-27.3
		c7.3,0,13.1,2.8,26,2.8c22,0,25.3-8.3,39.2-8.3c7.3,0,21.2,5.5,21.2,17.5c0,7-2.4,12.5-2.4,17.5c0,5.5,3.3,11.2,3.3,16
		C405.3,278.5,385,282.7,380.9,282.7z"/>
</g>
<g>
	<line class="st8" x1="148.2" y1="617.3" x2="75" y2="740.6"/>
	<line class="st8" x1="116.5" y1="617.3" x2="43.2" y2="740.6"/>
	<line class="st8" x1="203.8" y1="617.3" x2="277" y2="740.6"/>
	<path class="st9" d="M120.7,611.8h136.9v9.4H73.1L0.3,357.6h108.3L120.7,611.8z"/>
	<rect x="269.1" y="731.4" transform="matrix(0.1537 -0.9881 0.9881 0.1537 -497.3498 902.9337)" width="18.6" height="20.7"/>
	<rect x="393.9" y="712.3" transform="matrix(0.8387 -0.5446 0.5446 0.8387 -327.8011 336.5527)" width="20.7" height="18.6"/>
	<path class="st10" d="M310.4,611.4c7.6,7.3,80,112.1,83.8,115.5c2.4,0,18.8-7.3,18.8-13.8c0-6.4-75.6-182.6-90.9-182.6
		C322.2,530.6,302.8,604.1,310.4,611.4z"/>
	<path class="st11" d="M188.6,418.7l4.6,39.2l45-4.7l37.9-6.1c-1.1,2-1.8,4.3-1.8,6.5c0,0.2,0,0.5,0,0.6h43.6c0-0.2,0-0.5,0-0.6
		c0-9.1-9.8-16.6-21.9-16.6c-8.7,0-16.1,3.8-19.6,9.4c-10.8,0.5-36.7,1.5-41.1,2c-4.3-25-28.6-45.9-33.6-47.5L188.6,418.7z"/>
	<path class="st17" d="M186.4,418.5c14.4-0.9,33.3-16.7,33.3-20.3c0-3.6-26.2-31.7-41.6-31.7c-5.7,0-13.6,3.6-13.6,6.8
		C164.4,373.3,171.9,419.4,186.4,418.5z"/>
	<path class="st18" d="M184.2,557.3c-6.3,8.3-103.5,7.6-114.5-0.8s-31-205.8,56.4-205.8C229.8,350.7,190.5,549,184.2,557.3z"/>
	<path class="st11" d="M110.6,359.8c0,7.4,34.9,7.4,34.9,0V313h-34.9C110.6,313,110.6,359.8,110.6,359.8z"/>
	
		<ellipse transform="matrix(0.9875 -0.1575 0.1575 0.9875 -43.9631 24.8381)" class="st14" cx="134.7" cy="289.8" rx="34.5" ry="51.3"/>
	<circle class="st11" cx="103.6" cy="296.6" r="9.7"/>
	<path class="st14" d="M107.7,451.2c15.3,22.9,40.7,31.8,53,31.8c38.1,0,55-28.5,122.6-28.5c0.6,0,1.2-0.1,1.2-3.3
		s-4.2-13.8-23.8-13.8c-3.3,0-11.5,2.6-14.7,2.6c-33.6,0-71.4,9.5-80.7,11.2c-9.5-16.9-25.3-26.6-29.2-27.6
		C136.2,423.6,113,433.1,107.7,451.2z"/>
	<path class="st17" d="M150.4,418.4c-0.3,9.9-31.2,42.4-39.8,43.3c-8.6,0.9-62-55.9-40.9-76.4C90.2,365.3,150.6,408.5,150.4,418.4z"
		/>
	<path class="st15" d="M120,620.1c18,0,86.5-10.5,146.8-32.6c-6.5,15.1,0.7,139.7,0.5,152.1c2.8,2.8,25.7,4.6,28.4,2
		c5.5-5.6,32.8-156.1,32.8-205.1c0-13.5-47.3-15.2-63.5-15.2S143.7,525.2,72,554.7c-3,1.2-2.1,6.9-2.1,11.7
		C69.8,572.1,67.8,620,120,620.1z"/>
	<polygon points="412.9,753.7 470.7,718.1 466,710.3 417.1,720.5 398.8,732.7 	"/>
	<polygon points="261.2,769.6 327.8,782.4 329.6,773.6 286.7,747.9 265,744.6 	"/>
	<line class="st8" x1="171.1" y1="617.3" x2="244.4" y2="740.6"/>
	<rect x="249.1" y="454.2" class="st15" width="79.2" height="2.8"/>
	<path class="st19" d="M171.6,281.6c-5.6,0-11.4-1.5-13.1-2c-0.5-7.9-2.3-15.6-5.1-23c-5.6,0-42.9,3.5-42.9,18.1
		c0,3,0.9,4.6,1.4,7.7c0.3,2,0.3,3.7,0.3,4.2c0.6,15.9,7.7,39.1-1.5,49.5c-6.9,7.8-23.1,8.7-32.9,1.5c-10.8-7.9-10.5-22.9-10.4-28.2
		c0.2-10.6,4.1-12.2,8.9-29.6c5.3-19.2,1.6-20.7,6.5-32.2c1.9-4.5,10.5-27.3,26-27.3c7.3,0,13.1,2.8,26,2.8c2,0,7.7-0.2,15-1.7
		c15.3-2.9,16.7-7.3,24.2-6.7c9.6,0.8,19.5,8.8,21.2,17.5c1.1,6.2-2.4,8-2.4,17.5c0,5.5,3.3,11.2,3.3,16
		C196,277.4,175.6,281.6,171.6,281.6z"/>
</g>
<g>
	<line class="st20" x1="61.7" y1="459.4" x2="61.7" y2="757.9"/>
	<line class="st20" x1="111.8" y1="459.4" x2="111.8" y2="817.6"/>
</g>
<rect x="42.6" y="457.5" class="st21" width="714" height="19.6"/>
<line class="st20" x1="674.2" y1="471.8" x2="674.2" y2="770.1"/>
<line class="st20" x1="727.2" y1="471.8" x2="727.2" y2="830"/>
<polygon class="st22" points="504.7,458.4 562.5,458.4 602.5,344 553.6,344 "/>
<g>
	<rect x="367.3" y="218.8" class="st15" width="258.8" height="160.2"/>
	<polygon class="st10" points="471.6,348.8 506.3,457.5 568.8,457.5 533.1,348.8 	"/>
</g>
</svg>
