<?xml version="1.0" encoding="utf-8"?>
<!-- Generator: Adobe Illustrator 21.1.0, SVG Export Plug-In . SVG Version: 6.00 Build 0)  -->
<svg version="1.1" id="Layer_1" xmlns="http://www.w3.org/2000/svg" xmlns:xlink="http://www.w3.org/1999/xlink" x="0px" y="0px"
	 viewBox="0 0 702.5 521.9" style="enable-background:new 0 0 702.5 521.9;" xml:space="preserve">
<style type="text/css">
	.st0{fill:#F2F2F2;}
	.st1{fill:#FFD98E;}
	.st2{fill:none;stroke:#FF8364;stroke-width:4.9154;stroke-linecap:round;stroke-linejoin:round;}
	.st3{fill:#D18C65;}
	.st4{fill:#E49D75;}
	.st5{fill:#87D8BA;}
	.st6{fill:#9AE8CE;}
	.st7{fill:#B0FFE7;}
	.st8{fill:#D38D6A;}
	.st9{fill:#FD8369;}
	.st10{fill:#DBA48F;}
	.st11{fill:#CB9DD6;}
	.st12{fill:#DEB3E8;}
	.st13{fill:#E5C3ED;}
	.st14{fill:#EAB03D;}
	.st15{fill:#EAB094;}
	.st16{fill:#EAA934;}
</style>
<path class="st0" d="M643.9,271.9c10.5,63.2,5.4,120.8-25.9,153.1c-31.1,32.4-88.5,39.5-156.6,57.6
	c-68.1,18.2-147.3,47.3-213.5,21.6c-66.3-25.8-119.7-106.1-146.1-191.4S75.6,137.8,119.9,84s132.5-71.3,216.7-67.5
	S500.9,45.6,554,92.7S633.3,208.6,643.9,271.9z"/>
<g>
	<path d="M344.7,121.5c45,0,69.2,31.8,73.7,64.2c4.6,33.1-0.6,60.4,0.7,100.4c0.9,26.9,12.1,44.9,19.3,68.9s-184.5,30-183.4,7.6
		c1.1-22.4,14.9-45.4,15.3-73.4c0.5-28.5-3.3-45.6-2.8-92C267.9,160.6,299.6,121.5,344.7,121.5z"/>
	<path class="st1" d="M159.7,522.8c-1.7-22.5,7.8-102.9,37.1-162.9c109.7-64.2,247.3-33.6,301.8,0c18.4,19.8,31.7,151.3,27.7,160.7"
		/>
	<path class="st2" d="M223,520.7c1.7-14.6,4.5-38.2,8.9-60"/>
	<path class="st2" d="M466.3,520.7c-1.7-14.6-4.5-38.2-8.9-60"/>
	<path class="st3" d="M275,225.9c0-7.1,5.5-12.9,12.2-12.9c6.7,0,12.2,5.8,12.2,12.9c0,7.1-5.4,12.9-12.2,12.9
		C280.5,238.8,275,233,275,225.9C275,225.9,275,225.9,275,225.9z"/>
	<path class="st3" d="M386.9,225.9c0-7.1,5.5-12.9,12.2-12.9c6.7,0,12.2,5.8,12.2,12.9c0,7.1-5.5,12.9-12.2,12.9c0,0,0,0,0,0
		C392.4,238.8,386.9,233,386.9,225.9z"/>
	<path class="st3" d="M317.1,274.4H369c0,0,0.2,56.7,0,79c0,9.2-51.9,8.2-51.9,0L317.1,274.4z"/>
	<path class="st4" d="M290.6,220.2c0-42.1,24.2-76.2,54.1-76.2c29.9,0,54.1,34.1,54.1,76.2s-24.2,76.2-54.1,76.2
		S290.6,262.3,290.6,220.2z"/>
	<path d="M373.9,138.5c-13.7,33.8-70.7,66.7-94.6,74.4C275.4,192.8,300,106.9,373.9,138.5z"/>
	<path d="M343.4,137.5c-10.4,4.2,23.4,61.4,63.9,75.5C423.9,188.1,385.8,136.3,343.4,137.5z"/>
	<path d="M344.7,122.2c45,0,69.2,31.8,73.7,64.2c4.6,33.1-0.6,60.4,0.7,100.4c0.9,26.9,12.1,44.9,19.3,68.9s-184.5,30-183.4,7.6
		c1.1-22.5,14.9-45.4,15.3-73.4c0.5-28.5-3.3-45.6-2.8-92C267.9,161.3,299.6,122.2,344.7,122.2z"/>
	<path class="st1" d="M159.7,523.4c-1.7-22.5,7.8-102.9,37.1-162.9c109.7-64.2,247.3-33.7,301.8,0c18.4,19.8,31.7,151.3,27.7,160.7"
		/>
	<path class="st2" d="M223,521.3c1.7-14.6,4.5-38.2,8.9-60"/>
	<path class="st2" d="M466.3,521.3c-1.7-14.6-4.5-38.2-8.9-60"/>
	<path class="st3" d="M275,226.5c0-7.1,5.5-12.9,12.2-12.9c6.7,0,12.2,5.8,12.2,12.9c0,7.1-5.4,12.9-12.2,12.9
		C280.5,239.4,275,233.7,275,226.5C275,226.5,275,226.5,275,226.5z"/>
	<path class="st3" d="M386.9,226.5c0-7.1,5.5-12.9,12.2-12.9c6.7,0,12.2,5.8,12.2,12.9c0,7.1-5.5,12.9-12.2,12.9c0,0,0,0,0,0
		C392.4,239.4,386.9,233.6,386.9,226.5z"/>
	<path class="st3" d="M317.1,275.1H369c0,0,0.2,56.7,0,79c0,9.2-51.9,8.1-51.9,0L317.1,275.1z"/>
	<path class="st4" d="M290.6,220.9c0-42.1,24.2-76.2,54.1-76.2c29.9,0,54.1,34.1,54.1,76.2c0,42.1-24.2,76.2-54.1,76.2
		S290.6,263,290.6,220.9z"/>
	<path d="M373.9,139.2c-13.7,33.8-70.7,66.7-94.6,74.4C275.4,193.5,300,107.6,373.9,139.2z"/>
	<path d="M343.4,138.1c-10.4,4.2,23.4,61.4,63.9,75.5C423.9,188.7,385.8,137,343.4,138.1z"/>
</g>
<title>student-colour</title>
<g>
	<path class="st4" d="M505,519.7c3.5-21,11.4-86.1-27-86.7c-3.8,11.4-11.5,60.5-9.1,86.7H505z"/>
	<path class="st5" d="M529.6,348.4c37.8,8.1,21.8,87.6,15.5,99.7c-12.5,10-57.9,4.2-74-14.8C468.6,423.7,488.8,339.6,529.6,348.4z"
		/>
	<path class="st6" d="M665.3,519.7c3.8-43.5-1.9-191.1-78.7-191.1c-78.7,0-102.8,100.4-93.9,191.1H665.3z"/>
	<path class="st4" d="M711.1,519.7c-2.3-20.9-15.7-80-20.5-89.6c0,0-54.7,10.1-54.7,13.7c0,3.2,13.4,58.1,18.9,75.9L711.1,519.7z"/>
	<path class="st7" d="M635.3,346.9c36.6-12.4,63.5,64.1,64.3,77.8c-5.7,15-47.6,33.1-71.2,25.1C621.4,442.8,595.8,360.3,635.3,346.9
		z"/>
	<path class="st8" d="M611,277c-2,6.9-9.6,46.6-4.2,67.5c-3.9,5.2-42.3,6.5-46.9,0.7c2.5-9.2,6.7-35.3,5-44.4
		C563.3,291.6,611,277,611,277z"/>
	<ellipse class="st4" cx="569" cy="260.7" rx="52.4" ry="60"/>
	<path class="st9" d="M529.7,240c6.9,0.1,45.9-3,51.3-0.6c5.5,2.4,6.3,12.7,17.2,13.8c8.2,0.7,15,15.1,21.5,22.7
		c1.1-5,1.7-10.1,1.7-15.2c0-33.1-23.5-60-52.4-60c-21.4,0-39.7,14.6-47.9,35.6C523.5,238.5,526.5,239.8,529.7,240z"/>
</g>
<g>
	<path class="st10" d="M237.4,522.2c2.4-26.2-5.3-75.2-9.1-86.7c-38.4,0.6-30.6,65.7-27,86.7H237.4z"/>
	<path class="st11" d="M235.3,435.9c-16.2,19-61.5,24.9-74,14.8c-6.4-12.2-22.3-91.6,15.5-99.7C217.6,342.2,237.7,426.3,235.3,435.9
		z"/>
	<path class="st12" d="M213.6,522.2c8.9-90.7-15.2-191.1-93.9-191.1c-76.8,0-82.5,147.6-78.7,191.1H213.6z"/>
	<path class="st10" d="M51.5,522.3c5.6-17.8,18.9-72.7,18.9-75.9c0-3.6-54.7-13.7-54.7-13.7c-4.7,9.7-18.2,68.7-20.5,89.6
		L51.5,522.3z"/>
	<path class="st13" d="M78,452.4c-23.6,8.1-65.5-10.1-71.2-25.1c0.7-13.7,27.7-90.2,64.3-77.8C110.6,362.9,84.9,445.4,78,452.4z"/>
	<path class="st14" d="M123.2,202.4c-8.5-9-43.4,2.2-63.3,24.6c-33.1,37.1-19.2,98.6-12.4,99.4c6.8,0.8,6.4-58.5,42.7-75.7
		c7.5-3.6,17-5.4,25.1-15.2C123.8,225.3,129.1,208.5,123.2,202.4z"/>
	<path class="st10" d="M141.4,303.3c-1.7,9.2,2.5,35.3,5,44.4c-4.6,5.7-43,4.4-46.9-0.7c5.4-20.9-2.2-60.6-4.2-67.5
		C95.4,279.6,143.1,294.2,141.4,303.3z"/>
	<ellipse class="st15" cx="137.3" cy="263.2" rx="52.4" ry="60"/>
	<path class="st16" d="M185.2,238.9c-8.2-21-26.5-35.6-47.9-35.6c-28.1,0-43.4,26.3-44.8,28.9c-6.7,12-7.6,25-7.6,31.1
		c0,6.3,0.9,11.5,1.7,15.2c6.5-7.6,13.4-22,21.5-22.7c10.9-1,11.7-11.3,17.2-13.8c5.5-2.4,44.4,0.7,51.3,0.6
		C179.9,242.4,182.9,241.1,185.2,238.9z"/>
</g>
</svg>
