<?xml version="1.0" encoding="utf-8"?>
<!-- Generator: Adobe Illustrator 24.1.1, SVG Export Plug-In . SVG Version: 6.00 Build 0)  -->
<svg version="1.1" id="Vector" xmlns="http://www.w3.org/2000/svg" xmlns:xlink="http://www.w3.org/1999/xlink" x="0px" y="0px"
	 viewBox="0 0 472.9 269" style="enable-background:new 0 0 472.9 269;" xml:space="preserve">
<style type="text/css">
	.st0{fill:none;stroke:#ED7562;stroke-width:4;stroke-linecap:round;stroke-linejoin:round;}
	.st1{fill:#ED7562;}
	.st2{fill:#DE8E68;}
	.st3{fill:#56CAD8;}
	.st4{fill:#D37C59;}
	.st5{fill:#FCC486;}
	.st6{fill:#FED385;}
	.st7{fill:#FED892;}
	.st8{fill:#FD8369;}
	.st9{fill:#74D5DE;}
	.st10{fill:none;stroke:#FD8369;stroke-width:4;stroke-linecap:round;stroke-linejoin:round;}
</style>
<line class="st0" x1="392.8" y1="469" x2="327.8" y2="359.6"/>
<line class="st0" x1="420.9" y1="469" x2="356" y2="359.6"/>
<line class="st0" x1="213.5" y1="469" x2="278.5" y2="359.6"/>
<path class="st1" d="M362.9,129.2H459L394.5,363H230.8v-8.3h121.4L362.9,129.2z"/>
<rect x="203" y="461.9" transform="matrix(0.9881 -0.1537 0.1537 0.9881 -69.74 38.2047)" class="st2" width="18.4" height="16.5"/>
<rect x="92.4" y="442.9" transform="matrix(0.5446 -0.8387 0.8387 0.5446 -333.3418 290.2767)" class="st2" width="16.5" height="18.4"/>
<path class="st3" d="M173.5,282.7c-13.5,0-80.6,156.3-80.6,162s14.6,12.2,16.7,12.2c3.3-3.1,67.6-96,74.3-102.5
	S173.5,282.7,173.5,282.7z"/>
<path class="st4" d="M280.3,167.9c-4.4,1.4-26,19.9-29.8,42.1c-3.8-0.5-26.9-1.4-36.5-1.8c-3.1-4.9-9.8-8.3-17.4-8.3
	c-10.7,0-19.4,6.6-19.4,14.7c0,0.2,0,0.3,0,0.5h38.7c0-0.2,0-0.3,0-0.5c0-2-0.6-4.1-1.6-5.8l33.6,5.4l39.9,4.2l4.1-34.8L280.3,167.9
	z"/>
<path class="st5" d="M313.4,143.2c0-2.8-7-6-12.1-6c-13.7,0-36.9,25-36.9,28.1s16.7,17.1,29.5,18S313.4,143.2,313.4,143.2z"/>
<path class="st6" d="M347.5,123.1c77.5,0,59.8,175.2,50,182.6s-96,8.1-101.6,0.7S255.5,123.1,347.5,123.1z"/>
<path class="st4" d="M361.1,89.6h-31v41.5c0,6.6,31,6.6,31,0V89.6z"/>
<ellipse transform="matrix(0.1575 -0.9875 0.9875 0.1575 217.9966 393.6777)" class="st2" cx="339.7" cy="69.1" rx="45.5" ry="30.6"/>
<path d="M345.4,12.9c-35.4,0-42.8,26.9-42.8,34.7s4.9,13.5,7.4,13.7c1.6-9.3,9-22.1,9.3-22.4c2,2,9.4,8.4,17,9
	c6.3,0.3,12.5,2.2,17.8,5.6c0.4,2.6,1.4,5,2.9,7.2c2,3.3,5.1,5.8,8.8,7.2c0.9,2.2,1.4,4.6,1.5,7c0,10.7-1,15-2,18
	c-9.3,12.5-10.8,27.6-4.3,38.3c5.1,8.3,16.4,15.8,24.1,12.7c9.6-3.9,7.8-32.3,4.2-89C388.9,47.5,395.4,12.9,345.4,12.9z"/>
<circle class="st2" cx="367.3" cy="75.1" r="8.6"/>
<path class="st2" d="M338.4,187.8c-3.5,0.8-17.5,9.5-25.9,24.5c-8.3-1.5-41.8-9.9-71.6-9.9c-2.8,0-10.1-2.3-13-2.3
	c-17.5,0-21.1,9.4-21.1,12.2s0.6,2.9,1.1,2.9c60,0,75.1,25.3,108.8,25.3c10.9,0,33.4-7.9,47-28.2C359,196.2,338.4,187.8,338.4,187.8
	z"/>
<path class="st7" d="M397.4,153.7c18.7,18.2-28.7,68.5-36.3,67.8s-35-29.6-35.3-38.4S379.3,136.1,397.4,153.7z"/>
<rect x="12.7" y="217.4" class="st8" width="423.2" height="13.7"/>
<path class="st9" d="M397.3,314.4c0-4.3,0.8-9.3-1.9-10.4c-63.6-26.2-156.8-29.6-171.1-29.6s-56.3,1.5-56.3,13.5
	c0,43.4,24.2,176.9,29.1,181.9c2.3,2.3,22.7,0.8,25.2-1.8c-0.2-11,6.2-121.5,0.4-134.9c53.5,19.6,114.2,28.9,130.2,28.9
	C399.2,362,397.3,319.5,397.3,314.4z"/>
<polygon points="105.4,462 89.3,451.2 45.8,442.1 41.7,449 92.9,480.6 "/>
<polygon points="224.1,472.5 205,475.5 166.8,498.3 168.4,506.1 227.5,494.7 "/>
<line class="st10" x1="413.1" y1="434.8" x2="413.1" y2="227.2"/>
<line class="st10" x1="61.5" y1="434.8" x2="61.5" y2="227.2"/>
<line class="st10" x1="383.4" y1="476.4" x2="383.4" y2="227.2"/>
<line class="st10" x1="30.1" y1="476.4" x2="30.1" y2="227.2"/>
<line class="st0" x1="242.4" y1="469" x2="307.4" y2="359.6"/>
<rect x="168" y="214.9" class="st9" width="70.3" height="2.5"/>
<rect x="90" y="51.3" class="st9" width="153.4" height="111.4"/>
<polygon class="st3" points="145.2,141.8 124,217.4 161.1,217.4 181.6,141.8 "/>
</svg>
