<?xml version="1.0" encoding="utf-8"?>
<!-- Generator: Adobe Illustrator 21.1.0, SVG Export Plug-In . SVG Version: 6.00 Build 0)  -->
<svg version="1.1" id="Layer_1" xmlns="http://www.w3.org/2000/svg" xmlns:xlink="http://www.w3.org/1999/xlink" x="0px" y="0px"
	 viewBox="0 0 702.5 521.9" style="enable-background:new 0 0 702.5 521.9;" xml:space="preserve">
<style type="text/css">
	.st0{fill:#F2F2F2;}
	.st1{fill:#FFD98E;}
	.st2{fill:none;stroke:#FF8364;stroke-width:5.4789;stroke-linecap:round;stroke-linejoin:round;}
	.st3{fill:#D18C65;}
	.st4{fill:#E49D75;}
	.st5{fill:#D37E53;}
	.st6{fill:#8FC5FF;}
	.st7{fill:none;stroke:#2181EA;stroke-width:5.4789;stroke-linecap:round;stroke-linejoin:round;}
	.st8{fill:#DDC0B6;}
	.st9{fill:#EDD3C8;}
</style>
<path class="st0" d="M640.8,273.9c10.5,63.2,5.4,120.8-25.9,153.1c-31.1,32.4-88.5,39.5-156.6,57.6
	c-68.1,18.2-147.3,47.3-213.5,21.6c-66.3-25.8-119.7-106.1-146.1-191.4S72.5,139.8,116.8,86s132.5-71.3,216.7-67.5
	s164.3,29.1,217.4,76.2S630.2,210.6,640.8,273.9z"/>
<g>
	<path class="st1" d="M131.8,522.8c-2-23.4,9.3-106.9,44.4-169.3c131.1-66.7,295.6-34.9,360.8,0c22,20.6,37.9,157.2,33.1,167"/>
	<path class="st2" d="M207.5,520.6c2-15.2,5.4-39.7,10.6-62.4"/>
	<path class="st2" d="M498.3,520.6c-2-15.2-5.4-39.7-10.6-62.4"/>
	<path class="st3" d="M252.9,214.5c0-9,8-16.4,17.8-16.4s17.8,7.4,17.8,16.4c0,9-7.9,16.4-17.8,16.4
		C260.9,230.9,252.9,223.5,252.9,214.5L252.9,214.5z"/>
	<path class="st3" d="M416.3,214.5c0-9,8-16.4,17.8-16.4s17.8,7.4,17.8,16.4c0,9-8,16.4-17.8,16.4l0,0
		C424.3,230.9,416.3,223.5,416.3,214.5z"/>
	<path class="st3" d="M320,264.6h62c0,0,0.2,58.9,0,82.1c0,9.6-62,8.5-62,0V264.6z"/>
	<path class="st4" d="M275.7,207.3c0-53.4,35.3-96.7,79-96.7s79,43.3,79,96.7s-35.3,96.7-79,96.7S275.7,260.7,275.7,207.3z"/>
	<path class="st5" d="M397.3,103.6c-20,42.9-103.2,84.6-138.1,94.4C253.5,172.5,289.4,63.5,397.3,103.6z"/>
	<path class="st5" d="M352.8,102.3c-15.2,5.3,34.2,77.9,93.3,95.8C470.3,166.5,414.6,100.8,352.8,102.3z"/>
	<path class="st6" d="M131.8,523.4c-2-23.4,9.3-106.9,44.4-169.3c131.1-66.7,295.6-35,360.8,0c22,20.6,37.9,157.2,33.1,167"/>
	<path class="st7" d="M207.5,521.2c2-15.2,5.4-39.7,10.6-62.4"/>
	<path class="st7" d="M498.3,521.2c-2-15.2-5.4-39.7-10.6-62.4"/>
	<path class="st8" d="M252.9,215.2c0-9,8-16.4,17.8-16.4s17.8,7.4,17.8,16.4c0,9-7.9,16.4-17.8,16.4
		C260.9,231.6,252.9,224.4,252.9,215.2L252.9,215.2z"/>
	<path class="st8" d="M416.3,215.2c0-9,8-16.4,17.8-16.4s17.8,7.4,17.8,16.4c0,9-8,16.4-17.8,16.4l0,0
		C424.3,231.6,416.3,224.3,416.3,215.2z"/>
	<path class="st8" d="M320,265.3h62c0,0,0.2,58.9,0,82.1c0,9.6-62,8.4-62,0V265.3z"/>
	<path class="st9" d="M275.7,208.1c0-53.4,35.3-96.7,79-96.7s79,43.3,79,96.7s-35.3,96.7-79,96.7S275.7,261.6,275.7,208.1z"/>
	<path class="st5" d="M401.7,112.1c-20,42.9-103.2,84.6-138.1,94.4C257.9,181,293.8,72,401.7,112.1z"/>
	<path class="st5" d="M349.8,109.4c-15.2,5.3,34.2,77.9,93.3,95.8C467.3,173.6,411.7,108,349.8,109.4z"/>
</g>
<title>student-colour</title>
</svg>
