<?xml version="1.0" encoding="utf-8"?>
<!-- Generator: Adobe Illustrator 24.1.1, SVG Export Plug-In . SVG Version: 6.00 Build 0)  -->
<svg version="1.1" id="Vector" xmlns="http://www.w3.org/2000/svg" xmlns:xlink="http://www.w3.org/1999/xlink" x="0px" y="0px"
	 viewBox="0 0 984.9 679.1" style="enable-background:new 0 0 984.9 679.1;" xml:space="preserve">
<style type="text/css">
	.st0{fill:#E8E8E8;}
	.st1{fill:#DFDFDF;}
	.st2{fill:#F3F3F3;}
	.st3{fill:none;stroke:#F3F3F3;stroke-width:4;stroke-linecap:round;stroke-linejoin:round;}
	.st4{fill:#DE8E68;}
	.st5{fill:#56CAD8;}
	.st6{fill:#74D5DE;}
	.st7{fill:#89AA74;}
	.st8{fill:#9DBF88;}
	.st9{fill:#FD8369;}
	.st10{fill:#9B9998;}
	.st11{fill:#232322;}
	.st12{fill:#EAB19B;}
	.st13{fill:#603D0E;}
	.st14{fill:#4C7AE0;}
	.st15{fill:#D68A1A;}
	.st16{fill:#E2C54B;}
	.st17{fill:#663323;}
	.st18{fill:#331E03;}
	.st19{fill:#9B4F1C;}
</style>
<rect x="21.2" y="26.6" class="st0" width="929.8" height="558"/>
<g>
	<g>
		<rect x="650.9" y="461.7" class="st1" width="218.9" height="42.2"/>
		<circle class="st2" cx="854.1" cy="477.5" r="7.4"/>
		<line class="st3" x1="726.5" y1="477.5" x2="840.5" y2="477.5"/>
	</g>
	<g>
		<rect x="650.9" y="304.3" class="st1" width="218.9" height="42.2"/>
		<circle class="st2" cx="854.1" cy="320.2" r="7.4"/>
		<line class="st3" x1="726.5" y1="320.2" x2="840.5" y2="320.2"/>
	</g>
	<g>
		<rect x="650.9" y="377.2" class="st1" width="218.9" height="42.2"/>
		<circle class="st2" cx="854.1" cy="393" r="7.4"/>
		<line class="st3" x1="726.5" y1="393" x2="840.5" y2="393"/>
	</g>
</g>
<circle class="st2" cx="657.7" cy="380.6" r="6.7"/>
<path class="st4" d="M553.8,312.6c4,3.3,32.7,25.1,44.5,38.9c10.9,3,58.2,21,99.5,27.3c-0.1,5.8-3.1,25.3-3.1,25.3
	s-99.5-12.4-111.5-15.7s-58.8-31.7-69-42.4C527.8,331.6,553.8,312.6,553.8,312.6z"/>
<ellipse class="st4" cx="708.5" cy="392.3" rx="22.3" ry="16.5"/>
<polygon class="st5" points="394.1,462 394.1,679.1 467.8,679.1 431,464.4 "/>
<g>
	<g>
		<rect x="71.5" y="243.8" class="st1" width="218.9" height="42.2"/>
		<circle class="st2" cx="274.8" cy="259.6" r="7.4"/>
		<line class="st3" x1="147.1" y1="259.6" x2="261.1" y2="259.6"/>
	</g>
	<g>
		<rect x="71.5" y="86.5" class="st1" width="218.9" height="42.2"/>
		<circle class="st2" cx="274.8" cy="102.3" r="7.4"/>
		<line class="st3" x1="147.1" y1="102.3" x2="261.1" y2="102.3"/>
	</g>
	<g>
		<rect x="71.5" y="159.4" class="st1" width="218.9" height="42.2"/>
		<circle class="st2" cx="274.8" cy="175.2" r="7.4"/>
		<line class="st3" x1="147.1" y1="175.2" x2="261.1" y2="175.2"/>
	</g>
</g>
<polygon class="st6" points="517.8,470.6 517.8,679.1 458.5,679.1 410.6,459.8 "/>
<path class="st4" d="M378.9,319.4c-3.4,3.7-12.9,15.4-15.4,19.9c-6.5-5.6-114.5-104.9-117-104.9c-2.4,0-4.3,1.9-4.5,4.2
	c0,13.2,9.6,13.8,21.5,26.5c25,44.9,84.9,126.2,100.5,126.2c9,0,46.6-36.7,46.6-41.5S378.9,319.4,378.9,319.4z"/>
<path class="st7" d="M431.3,265.4c-25-15.1-64.8,40.3-64,49.5s37.5,36.2,52.8,33.2C430.2,346.1,457.5,281.1,431.3,265.4z"/>
<path class="st8" d="M466.3,247.4c74.2,0,69.3,210.2,56.2,220.8c-16.3,13.2-122.5,1-128.4-6.2S383.8,247.4,466.3,247.4z"/>
<path class="st4" d="M487.1,259.8c0,6.2-34.4,7.5-34.4,0v-42.2h34.4V259.8z"/>
<ellipse transform="matrix(0.3676 -0.93 0.93 0.3676 108.3593 558.2944)" class="st4" cx="464.7" cy="199.5" rx="41.4" ry="30.8"/>
<ellipse transform="matrix(0.5822 -0.8131 0.8131 0.5822 29.5382 487.5365)" class="st4" cx="489.1" cy="215" rx="9.8" ry="6.9"/>
<path class="st9" d="M521.1,194.4c0-5.7-5.3-12-6.4-19.3c-0.5-3.6,0.6-18.8-3.7-24c-8.8-10.6-14.1-8.5-20.8-11
	c-11.8-4.3-16.3-11.5-26.1-11.5c-11.1,0-15.5,5.7-23.5,5.7c-9.1,0-16.5-4.2-29.2-4.2c-6.8,0-15.6,8.9-15.6,16.7
	c0,18.5,17.2,15.8,17.2,20.3c0,3.1-1,5.6-1,9.9c0,5.6,7.3,8.9,11.5,8.9c12.7,0,14.4-1.5,14.4-1.5c2.5-5,5.7-9.7,9.6-13.8
	c0.5-0.5,8.8,5.3,22.2,5.7c11,0.4,18.8,2.5,18.8,7.6c0,3.6-1.3,14.4-1.3,17.5s1.2,5,1.8,5s1.1-1,5.3-1c4.5,0,4.9,5.6,5.7,5.6
	C504.6,211.2,521.1,207.5,521.1,194.4z"/>
<path class="st7" d="M500,268.5c25-15.1,64.8,40.3,64,49.5s-37.5,36.2-52.8,33.2C501.1,349.3,473.9,284.3,500,268.5z"/>
<path class="st4" d="M266.1,262.8c-10.3,6.7-13.3,20.4-6.6,30.8c6.7,10.4,20.4,13.3,30.8,6.6c3.1-2,5.6-4.7,7.4-7.9L266.1,262.8z"/>
<rect x="29" y="616" class="st10" width="158" height="86.1"/>
<path class="st11" d="M101.2,545.8c25.6,0,46.3,27.4,46.3,58.4c0,7.3-2,23.5-0.9,33.7c2.2,20,28.7,50.1,28.7,72.7
	c0,41.5-55.9,44.5-74.2,44.5c-18.3,0-60.3-41.5-60.3-55.9s13.9-54.1,13.9-61.9C54.8,629.5,74.3,545.8,101.2,545.8z"/>
<rect x="211.6" y="624.5" class="st10" width="158" height="86.1"/>
<rect x="267.4" y="637.3" class="st12" width="30.3" height="30.3"/>
<path class="st13" d="M270,559.5c1.9-0.9,25-11.6,43,1c22.3,15.6,13.5,50.8,13,52.5c-3.7,14-12,22.2-22,32
	c-7.8,7.7-13.9,10.5-19.7,10.5c-0.5,0-1,0-1.3,0c-8.6-0.5-14.8-5-18-7.5c-20.8-15.4-23-37.5-23-37.5
	C239.9,589.9,251,568.6,270,559.5z"/>
<ellipse class="st14" cx="282" cy="697.8" rx="77.9" ry="30.2"/>
<g>
	<rect x="589.1" y="624.5" class="st10" width="158" height="86.1"/>
	<rect x="645" y="650.5" class="st12" width="30.3" height="17.1"/>
	<path class="st15" d="M647.6,553c12.3-6.6,30.7-7.8,43,1c10.5,7.5,12.7,24.6,17,58.8c3.2,25.3,1.2,30.3-0.9,33.7
		C697,662,672.8,662,661.6,662c-11.6,0-37.6,0-46.8-16.1c-5.3-9.3-1.9-20.1,4.8-41.9C628.4,575.3,632.9,560.8,647.6,553z"/>
	<ellipse class="st16" cx="659.6" cy="697.8" rx="77.9" ry="30.2"/>
</g>
<rect x="794.5" y="616.4" class="st10" width="158" height="86.1"/>
<rect x="850.4" y="642.4" class="st17" width="34.6" height="25.2"/>
<path class="st18" d="M853,544.9c12.3-6.6,30.7-7.8,43,1c10.5,7.5,12.7,24.6,17,58.8c3.2,25.3,2,30.1-0.9,33.7
	c-2.7,3.4-7.8,6.9-44.1,6.6c-28.5-0.2-42.8-0.5-47.8-7.2c-5.9-7.9-2.2-19.2,4.8-41.9C833.8,567.2,838.3,552.7,853,544.9z"/>
<ellipse class="st19" cx="865" cy="687.4" rx="77.9" ry="32.4"/>
</svg>
