<?xml version="1.0" encoding="utf-8"?>
<!-- Generator: Adobe Illustrator 21.1.0, SVG Export Plug-In . SVG Version: 6.00 Build 0)  -->
<svg version="1.1" id="Layer_1" xmlns="http://www.w3.org/2000/svg" xmlns:xlink="http://www.w3.org/1999/xlink" x="0px" y="0px"
	 viewBox="0 0 1099.9 997.1" style="enable-background:new 0 0 1099.9 997.1;" xml:space="preserve">
<style type="text/css">
	.st0{fill:#F8F8F8;}
	.st1{fill:#74D5DE;}
	.st2{fill:none;stroke:#FED892;stroke-width:6;stroke-linecap:round;stroke-miterlimit:10;}
	.st3{fill:#DE8E68;}
	.st4{fill:#D37C59;}
	.st5{fill:#FED892;}
	.st6{fill:#ED6E58;}
	.st7{fill:#FD8369;}
	.st8{fill:#FFFFFF;}
	.st9{fill:#C7FCFF;}
</style>
<title>storefront-colour</title>
<g>
	<path class="st0" d="M263.7,137.3C158.1,168,62.5,268.1,69.7,366c7,97.9,117.2,193.5,187.1,309.7
		c69.7,116.5,99.5,253.7,180.5,308.2c80.8,54.5,212.8,26.1,319.3-30.9C863,896,943.8,810.6,994,713c50-97.9,69.5-208,37.9-295.9
		c-31.4-87.9-113.6-153.3-193.9-188.5c-80.6-35-159.4-39.3-256.4-61.1C484.4,145.7,369,106.6,263.7,137.3z"/>
	<path class="st1" d="M37,760.1c0-55,23-63,23-97c0-138,46-161,76-161c57,0,50.6,59.9,64,80c30,45,43,78,43,109c0,126-52,201-96,201
		C99,892.1,37,824.2,37,760.1z"/>
	<line class="st2" x1="145" y1="670.1" x2="145" y2="975.1"/>
	<line class="st2" x1="145" y1="749.1" x2="192" y2="702.1"/>
	<line class="st2" x1="145" y1="826.1" x2="103.5" y2="784.6"/>
	<rect x="233.1" y="227.1" class="st3" width="726.2" height="726"/>
	<rect x="212.1" y="916.1" class="st4" width="768.1" height="37"/>
	<rect x="181" y="403.1" class="st5" width="824" height="15"/>
	<rect x="181" y="202.1" class="st5" width="824" height="35"/>
	<rect x="184" y="214.8" class="st6" width="817.6" height="19.9"/>
	<polygon class="st7" points="1001.6,214.8 936.7,133.5 248.9,133.5 184,214.8 	"/>
	<g>
		<rect x="512" y="750" class="st6" width="153" height="203.1"/>
		<rect x="520" y="754" class="st1" width="137" height="199.1"/>
	</g>
	<g>
		<rect x="255" y="268.1" class="st5" width="107" height="135"/>
		<rect x="260" y="272.4" class="st8" width="97" height="130.7"/>
		<rect x="451" y="268.1" class="st5" width="107" height="135"/>
		<rect x="456" y="272.4" class="st8" width="97" height="130.7"/>
		<rect x="647" y="268.1" class="st5" width="107" height="135"/>
		<rect x="652" y="272.4" class="st8" width="97" height="130.7"/>
		<polygon class="st9" points="357,293.5 260,390.5 260,403.1 264,403.1 357,310.1 		"/>
		<polygon class="st9" points="332,272.1 260,344.1 260,380.7 357,283.7 357,272.1 		"/>
		<polygon class="st9" points="553,293.5 456,390.5 456,403.1 460,403.1 553,310.1 		"/>
		<polygon class="st9" points="528,272.1 456,344.1 456,380.7 553,283.7 553,272.1 		"/>
		<polygon class="st9" points="749,293.5 652,390.5 652,403.1 656,403.1 749,310.1 		"/>
		<polygon class="st9" points="724,272.1 652,344.1 652,380.7 749,283.7 749,272.1 		"/>
		<rect x="828" y="268.1" class="st5" width="107" height="135"/>
		<rect x="833" y="272.4" class="st8" width="97" height="130.7"/>
		<polygon class="st9" points="930,293.5 833,390.5 833,403.1 837,403.1 930,310.1 		"/>
		<polygon class="st9" points="905,272.1 833,344.1 833,380.7 930,283.7 930,272.1 		"/>
	</g>
	<g>
		<rect x="254" y="479.1" class="st5" width="107" height="135"/>
		<rect x="259" y="483.4" class="st8" width="97" height="130.7"/>
		<rect x="450" y="479.1" class="st5" width="107" height="135"/>
		<rect x="455" y="483.4" class="st8" width="97" height="130.7"/>
		<rect x="646" y="479.1" class="st5" width="107" height="135"/>
		<rect x="651" y="483.4" class="st8" width="97" height="130.7"/>
		<polygon class="st9" points="356,504.5 259,601.5 259,614.1 263,614.1 356,521.1 		"/>
		<polygon class="st9" points="331,483.1 259,555.1 259,591.7 356,494.7 356,483.1 		"/>
		<polygon class="st9" points="552,504.5 455,601.5 455,614.1 459,614.1 552,521.1 		"/>
		<polygon class="st9" points="527,483.1 455,555.1 455,591.7 552,494.7 552,483.1 		"/>
		<polygon class="st9" points="748,504.5 651,601.5 651,614.1 655,614.1 748,521.1 		"/>
		<polygon class="st9" points="723,483.1 651,555.1 651,591.7 748,494.7 748,483.1 		"/>
		<rect x="827" y="479.1" class="st5" width="107" height="135"/>
		<rect x="832" y="483.4" class="st8" width="97" height="130.7"/>
		<polygon class="st9" points="929,504.5 832,601.5 832,614.1 836,614.1 929,521.1 		"/>
		<polygon class="st9" points="904,483.1 832,555.1 832,591.7 929,494.7 929,483.1 		"/>
	</g>
	<rect x="175" y="614.1" class="st5" width="824" height="15"/>
	<g>
		<g>
			<rect x="254" y="728.1" class="st5" width="107" height="135"/>
			<rect x="259" y="732.4" class="st8" width="97" height="130.7"/>
			<polygon class="st9" points="356,753.5 259,850.5 259,863.1 263,863.1 356,770.1 			"/>
			<polygon class="st9" points="331,732.1 259,804.1 259,840.7 356,743.7 356,732.1 			"/>
		</g>
		<g>
			<rect x="391" y="729.1" class="st5" width="107" height="135"/>
			<rect x="396" y="733.4" class="st8" width="97" height="130.7"/>
			<polygon class="st9" points="493,754.5 396,851.5 396,864.1 400,864.1 493,771.1 			"/>
			<polygon class="st9" points="468,733.1 396,805.1 396,841.7 493,744.7 493,733.1 			"/>
		</g>
	</g>
	<g>
		<g>
			<rect x="685" y="727.1" class="st5" width="107" height="135"/>
			<rect x="690" y="731.4" class="st8" width="97" height="130.7"/>
			<polygon class="st9" points="787,752.5 690,849.5 690,862.1 694,862.1 787,769.1 			"/>
			<polygon class="st9" points="762,731.1 690,803.1 690,839.7 787,742.7 787,731.1 			"/>
		</g>
		<g>
			<rect x="822" y="728.1" class="st5" width="107" height="135"/>
			<rect x="827" y="732.4" class="st8" width="97" height="130.7"/>
			<polygon class="st9" points="924,753.5 827,850.5 827,863.1 831,863.1 924,770.1 			"/>
			<polygon class="st9" points="899,732.1 827,804.1 827,840.7 924,743.7 924,732.1 			"/>
		</g>
	</g>
	<rect x="585" y="42.5" class="st1" width="15" height="119.5"/>
	<rect x="584" y="52" class="st3" width="94" height="60"/>
</g>
</svg>
