<?xml version="1.0" encoding="utf-8"?>
<!-- Generator: Adobe Illustrator 24.1.0, SVG Export Plug-In . SVG Version: 6.00 Build 0)  -->
<svg version="1.1" id="Layer_1" xmlns="http://www.w3.org/2000/svg" xmlns:xlink="http://www.w3.org/1999/xlink" x="0px" y="0px"
	 viewBox="0 0 702.5 889.5" style="enable-background:new 0 0 702.5 889.5;" xml:space="preserve">
<style type="text/css">
	.st0{fill:#F2F2F2;}
	.st1{fill-rule:evenodd;clip-rule:evenodd;}
	.st2{fill-rule:evenodd;clip-rule:evenodd;fill:#FFD98E;}
	.st3{fill:none;stroke:#FF8364;stroke-width:5.73;stroke-linecap:round;stroke-linejoin:round;}
	.st4{fill-rule:evenodd;clip-rule:evenodd;fill:#D18C65;}
	.st5{fill-rule:evenodd;clip-rule:evenodd;fill:#FF8364;}
	.st6{fill:none;stroke:#FFD98E;stroke-width:2.83;stroke-linecap:round;stroke-linejoin:round;}
	.st7{fill-rule:evenodd;clip-rule:evenodd;fill:#6BD5E1;}
	.st8{fill-rule:evenodd;clip-rule:evenodd;fill:#DFDFDF;}
	.st9{fill:none;stroke:#6BD5E1;stroke-width:3.11;stroke-linecap:round;stroke-linejoin:round;}
	.st10{fill:none;stroke:#FF8364;stroke-width:3.11;stroke-linecap:round;stroke-linejoin:round;}
	.st11{fill-rule:evenodd;clip-rule:evenodd;fill:#1B3C87;}
	.st12{fill:none;stroke:#FFD98E;stroke-width:4.23;stroke-linecap:round;stroke-linejoin:round;}
	.st13{fill-rule:evenodd;clip-rule:evenodd;fill:#E49D75;}
</style>
<g id="Layer_2_1_">
	<g id="Layer_1-2">
		<path class="st0" d="M623.1,143.1c52.3,64.8,86.2,135.8,78.3,199.1c-7.8,63.1-57.3,118.6-109.7,195.5
			c-52.3,77.1-107.8,175.9-187.8,200.5c-80.1,24.6-184.6-24.8-266.9-101.9S-5.5,454.6,0.4,355.8s77.7-191.7,160-256.4
			S335.6-2,417.5,9S570.5,78.3,623.1,143.1z"/>
		<path class="st1" d="M334.8,433.5c54,0,83,36.1,88.4,72.7c5.5,37.5-0.8,68.5,0.8,113.8c1.1,30.5,14.5,50.9,23.1,78.1
			s-221.2,34.1-219.8,8.6s17.8-51.5,18.4-83.2c0.6-32.3-4-51.7-3.4-104.3C242.8,477.8,280.8,433.5,334.8,433.5z"/>
		<path class="st2" d="M113.1,888.3c-2.1-25.5,9.3-116.6,44.5-184.6c131.5-72.8,296.5-38.1,361.8,0c22.1,22.4,38.1,171.5,33.2,182.2
			"/>
		<path class="st3" d="M189,885.9c2.1-16.6,5.4-43.3,10.7-68"/>
		<path class="st3" d="M480.7,885.9c-2.1-16.6-5.4-43.3-10.7-68"/>
		<path class="st4" d="M251.3,551.7c0-8.1,6.5-14.6,14.6-14.6c8.1,0,14.6,6.5,14.6,14.6c0,8.1-6.5,14.6-14.6,14.6
			C257.9,566.4,251.4,559.8,251.3,551.7C251.3,551.7,251.3,551.7,251.3,551.7z"/>
		<path class="st4" d="M385.5,551.7c0-8.1,6.5-14.6,14.6-14.6c8.1,0,14.6,6.5,14.6,14.6c0,8.1-6.5,14.6-14.6,14.6c0,0,0,0,0,0
			C392.1,566.3,385.5,559.8,385.5,551.7z"/>
		<path class="st5" d="M393.1,299.9c-14.8-11.5-18.4,1.4-20.7,9s-2.1,21.1,9.4,20.9c10.1,9.1,19.6-2.7,22.5-8.7
			S414.3,302.1,393.1,299.9z"/>
		<path class="st6" d="M402.8,291.7c-5.1,1.8-8,4.2-9.6,8.5"/>
		<path class="st7" d="M296.8,368.2c0-9.5,7.7-17.1,17.1-17.1c9.5,0,17.1,7.7,17.1,17.1c0,9.5-7.6,17.1-17.1,17.1
			C304.5,385.3,296.8,377.7,296.8,368.2C296.8,368.2,296.8,368.2,296.8,368.2z"/>
		<path class="st8" d="M178.1,375.7l47.5-12l19.2,75.8l-47.5,12L178.1,375.7z"/>
		<path class="st5" d="M188.1,384.1l32.7-8.3l2.5,9.9l-32.7,8.3L188.1,384.1z"/>
		<path class="st9" d="M193.4,404.8l32.7-8.3"/>
		<path class="st9" d="M196.1,415.6l32.7-8.3"/>
		<path class="st9" d="M199,426.8l32.7-8.3"/>
		<path class="st9" d="M201.7,437.7l12.8-3.3"/>
		<path class="st9" d="M229.3,430.7l5.1-1.3"/>
		<path class="st8" d="M146.7,203.7l122.8-58.5l38.4,80.6l-122.8,58.5L146.7,203.7z"/>
		<path class="st10" d="M189.1,266.5l12.2-35.8l22.8,4.3l8.9-44.1l22,3.7l6.4-31.1"/>
		<path class="st2" d="M197.1,233c-1.5-3.2-0.2-6.9,3-8.4c3.2-1.5,6.9-0.2,8.4,3c1.5,3.2,0.2,6.9-3,8.4
			C202.3,237.5,198.6,236.2,197.1,233C197.1,233,197.1,233,197.1,233z"/>
		<path class="st2" d="M227.6,194.6c-1.5-3.2-0.2-6.9,3-8.4c3.2-1.5,6.9-0.2,8.4,3c1.5,3.2,0.2,6.9-3,8.4
			C232.9,199.1,229.2,197.8,227.6,194.6C227.7,194.6,227.7,194.6,227.6,194.6z"/>
		<path class="st2" d="M460.3,262.6c0-12,9.7-21.7,21.7-21.7c12,0,21.7,9.7,21.7,21.7c0,12-9.7,21.7-21.7,21.7c0,0,0,0,0,0
			C470,284.3,460.3,274.6,460.3,262.6z"/>
		<path class="st10" d="M518.7,258.8c3.7,13.3-4,27.1-17.3,30.8c-2.2,0.6-4.4,0.9-6.7,0.9c-1.6,0-3.3-0.2-4.9-0.5"/>
		<path class="st2" d="M468.9,279.1l-8.3,14.9l34.4,5.5l-3.8-17.4"/>
		<path class="st11" d="M476.9,262.6c0-2.8,2.3-5.1,5.1-5.1s5.1,2.3,5.1,5.1s-2.3,5.1-5.1,5.1l0,0
			C479.2,267.7,476.9,265.4,476.9,262.6z"/>
		<path class="st2" d="M512.2,257.5c0-2.8,2.3-5.1,5.1-5.1c2.8,0,5.1,2.3,5.1,5.1c0,2.8-2.3,5.1-5.1,5.1l0,0
			C514.5,262.6,512.2,260.3,512.2,257.5z"/>
		<path class="st5" d="M100.9,99.5l32.1,8.7l-31.6,117l-32.1-8.6L100.9,99.5z"/>
		<path class="st12" d="M79.5,178.7l17.7,4.8"/>
		<path class="st12" d="M73.9,199.5l17.7,4.8"/>
		<path class="st12" d="M85.1,158l17.7,4.8"/>
		<path class="st12" d="M90.7,137.2l17.7,4.8"/>
		<path class="st12" d="M96.3,116.5l17.7,4.8"/>
		<path class="st8" d="M431.4,75.2l121.2,29.3l-20,82.6l-121.1-29.3L431.4,75.2z"/>
		<path class="st5" d="M503.9,164.8c1.7-7,8.7-11.3,15.8-9.6c7,1.7,11.3,8.7,9.6,15.8c-1.7,7-8.7,11.3-15.8,9.6c0,0,0,0,0,0
			C506.5,178.8,502.2,171.8,503.9,164.8z"/>
		<path class="st5" d="M507.8,175.5l-8.7,22.7l12.2-2.8l7.8,7.3l1.6-24.7"/>
		<path class="st9" d="M438.6,96.6l95.7,23.1"/>
		<path class="st9" d="M433,119.3l57.8,13.9"/>
		<path class="st7" d="M239.1,86.5l-13-14.1l18.7-4.2l18.7-4.2l-5.7,18.3l-5.7,18.3L239.1,86.5z"/>
		<path class="st2" d="M497.4,381.9l-17.8,7.1l2.7-19l2.7-19l15.1,11.9l15.1,11.9L497.4,381.9z"/>
		<path class="st10" d="M351.2,153c0-5.1,4.2-9.3,9.3-9.3c5.1,0,9.3,4.2,9.3,9.3c0,5.1-4.2,9.3-9.3,9.3l0,0
			C355.4,162.3,351.2,158.1,351.2,153z"/>
		<path class="st2" d="M91.4,308.8c0-5.1,4.2-9.3,9.3-9.3s9.3,4.2,9.3,9.3c0,5.1-4.2,9.3-9.3,9.3h0
			C95.6,318.1,91.4,313.9,91.4,308.8z"/>
		<path class="st4" d="M301.8,606.8H364c0,0,0.3,64.3,0,89.5c0,10.4-62.2,9.2-62.2,0L301.8,606.8z"/>
		<path class="st13" d="M270,545.3c0-47.7,29-86.4,64.8-86.4s64.8,38.7,64.8,86.4s-29,86.4-64.8,86.4S270,593,270,545.3z"/>
		<path class="st1" d="M369.8,452.7c-16.5,38.3-84.7,75.6-113.4,84.4C251.9,514.2,281.3,416.9,369.8,452.7z"/>
		<path class="st1" d="M333.4,451.5c-12.5,4.8,28.1,69.6,76.6,85.6C429.9,508.9,384.1,450.2,333.4,451.5z"/>
		<path class="st2" d="M426.1,17.1c0-9.5,7.7-17.1,17.1-17.1s17.1,7.7,17.1,17.1s-7.7,17.1-17.1,17.1c0,0,0,0,0,0
			C433.7,34.3,426.1,26.6,426.1,17.1C426.1,17.1,426.1,17.1,426.1,17.1z"/>
		<path class="st9" d="M130.6,467.6c0-8.8,7.2-16,16-16s16,7.2,16,16s-7.2,16-16,16S130.6,476.4,130.6,467.6z"/>
		<path class="st10" d="M485.1,460.8c0-5.1,4.2-9.3,9.3-9.3c5.1,0,9.3,4.2,9.3,9.3c0,5.1-4.2,9.3-9.3,9.3c0,0,0,0,0,0
			C489.3,470.1,485.1,466,485.1,460.8C485.1,460.8,485.1,460.8,485.1,460.8z"/>
		<path class="st0" d="M623.1,143.8c52.3,64.7,86.2,135.8,78.3,199C693.5,406,644,461.4,591.6,538.4
			c-52.3,77.1-107.8,175.9-187.8,200.5c-80.1,24.6-184.6-24.8-266.9-101.9S-5.5,455.3,0.4,356.5s77.7-191.6,160-256.4
			S335.6-1.2,417.5,9.7S570.5,79.1,623.1,143.8z"/>
		<path class="st1" d="M334.8,434.2c54,0,83,36.1,88.4,72.7c5.5,37.5-0.8,68.5,0.8,113.8c1.1,30.5,14.5,50.9,23.1,78.1
			s-221.2,34.1-219.8,8.6s17.8-51.5,18.4-83.2c0.6-32.3-4-51.7-3.4-104.3C242.8,478.5,280.8,434.2,334.8,434.2z"/>
		<path class="st2" d="M113.1,889c-2.1-25.5,9.3-116.6,44.5-184.6c131.5-72.8,296.5-38.2,361.8,0c22.1,22.4,38.1,171.5,33.2,182.2"
			/>
		<path class="st3" d="M189,886.6c2.1-16.6,5.4-43.3,10.7-68"/>
		<path class="st3" d="M480.7,886.6c-2.1-16.6-5.4-43.3-10.7-68"/>
		<path class="st4" d="M251.3,552.5c0-8.1,6.5-14.6,14.6-14.6c8.1,0,14.6,6.5,14.6,14.6c0,8.1-6.5,14.6-14.6,14.6
			C257.9,567.1,251.4,560.6,251.3,552.5C251.3,552.5,251.3,552.5,251.3,552.5z"/>
		<path class="st4" d="M385.5,552.5c0-8.1,6.5-14.6,14.6-14.6c8.1,0,14.6,6.5,14.6,14.6c0,8.1-6.5,14.6-14.6,14.6c0,0,0,0,0,0
			C392.1,567.1,385.5,560.5,385.5,552.5z"/>
		<path class="st5" d="M393.1,300.6c-14.8-11.5-18.4,1.4-20.7,9s-2.1,21.1,9.4,20.9c10.1,9.1,19.6-2.7,22.5-8.6
			S414.3,302.9,393.1,300.6z"/>
		<path class="st6" d="M402.8,292.4c-5.1,1.8-8,4.2-9.6,8.5"/>
		<path class="st7" d="M296.8,368.9c0-9.5,7.7-17.1,17.1-17.1c9.5,0,17.1,7.7,17.1,17.1c0,9.5-7.6,17.1-17.1,17.1
			C304.5,386.1,296.8,378.4,296.8,368.9C296.8,369,296.8,368.9,296.8,368.9z"/>
		<path class="st8" d="M178.1,376.5l47.5-12l19.2,75.8l-47.5,12L178.1,376.5z"/>
		<path class="st5" d="M188.1,384.8l32.7-8.3l2.5,9.9l-32.7,8.3L188.1,384.8z"/>
		<path class="st9" d="M193.4,405.5l32.7-8.3"/>
		<path class="st9" d="M196.1,416.3l32.7-8.3"/>
		<path class="st9" d="M199,427.6l32.7-8.3"/>
		<path class="st9" d="M201.7,438.4l12.8-3.3"/>
		<path class="st9" d="M229.3,431.4l5.1-1.3"/>
		<path class="st8" d="M146.7,204.4l122.8-58.5l38.4,80.6L185.1,285L146.7,204.4z"/>
		<path class="st10" d="M189.1,267.2l12.2-35.8l22.8,4.2l8.9-44.1l22,3.7l6.4-31.1"/>
		<path class="st2" d="M197.1,233.8c-1.5-3.2-0.2-6.9,3-8.4c3.2-1.5,6.9-0.2,8.4,3c1.5,3.2,0.2,6.9-3,8.4
			C202.3,238.3,198.6,236.9,197.1,233.8z"/>
		<path class="st2" d="M227.6,195.4c-1.5-3.2-0.2-6.9,3-8.4c3.2-1.5,6.9-0.2,8.4,3c1.5,3.2,0.2,6.9-3,8.4
			C232.9,199.9,229.2,198.5,227.6,195.4C227.7,195.4,227.7,195.4,227.6,195.4z"/>
		<path class="st2" d="M460.3,263.3c0-12,9.7-21.7,21.7-21.7c12,0,21.7,9.7,21.7,21.7c0,12-9.7,21.7-21.7,21.7c0,0-0.1,0-0.1,0
			C470,285,460.4,275.3,460.3,263.3z"/>
		<path class="st10" d="M518.7,259.6c0.6,2.2,0.9,4.5,0.9,6.8c0,13.8-11.2,25-24.9,25c-1.6,0-3.3-0.2-4.9-0.5"/>
		<path class="st2" d="M468.9,279.8l-8.3,14.9l34.4,5.5l-3.8-17.4"/>
		<path class="st11" d="M476.9,263.3c0-2.8,2.3-5.1,5.1-5.1s5.1,2.3,5.1,5.1s-2.3,5.1-5.1,5.1l0,0
			C479.2,268.5,476.9,266.2,476.9,263.3z"/>
		<path class="st2" d="M512.2,258.2c0-2.8,2.3-5.1,5.1-5.1c2.8,0,5.1,2.3,5.1,5.1c0,2.8-2.3,5.1-5.1,5.1l0,0
			C514.5,263.3,512.2,261,512.2,258.2z"/>
		<path class="st5" d="M100.9,100.2l32.1,8.7l-31.6,117l-32.1-8.7L100.9,100.2z"/>
		<path class="st12" d="M79.5,179.5l17.7,4.8"/>
		<path class="st12" d="M73.9,200.2l17.7,4.8"/>
		<path class="st12" d="M85.1,158.7l17.7,4.8"/>
		<path class="st12" d="M90.7,138l17.7,4.8"/>
		<path class="st12" d="M96.3,117.2L114,122"/>
		<path class="st8" d="M431.4,76l121.2,29.2l-20,82.6l-121.1-29.3L431.4,76z"/>
		<path class="st5" d="M503.9,165.5c1.7-7,8.7-11.3,15.8-9.6c7,1.7,11.3,8.7,9.6,15.8c-1.7,7-8.7,11.3-15.8,9.6c0,0,0,0,0,0
			C506.5,179.6,502.2,172.5,503.9,165.5z"/>
		<path class="st5" d="M507.8,176.3L499,199l12.2-2.8l7.8,7.3l1.6-24.8"/>
		<path class="st9" d="M438.6,97.4l95.7,23.1"/>
		<path class="st9" d="M433,120.1l57.8,13.9"/>
		<path class="st7" d="M239.1,87.2l-13-14.1l18.7-4.2l18.7-4.2L257.9,83l-5.7,18.3L239.1,87.2z"/>
		<path class="st2" d="M497.4,382.6l-17.8,7.1l2.7-19l2.7-19l15.1,11.9l15.1,11.9L497.4,382.6z"/>
		<path class="st10" d="M351.2,153.8c0-5.1,4.2-9.3,9.3-9.3c5.1,0,9.3,4.2,9.3,9.3c0,5.1-4.2,9.3-9.3,9.3l0,0
			C355.4,163.1,351.2,158.9,351.2,153.8z"/>
		<path class="st2" d="M91.4,309.5c0-5.1,4.2-9.3,9.3-9.3s9.3,4.2,9.3,9.3c0,5.1-4.2,9.3-9.3,9.3h0
			C95.6,318.8,91.4,314.7,91.4,309.5z"/>
		<path class="st4" d="M301.8,607.5H364c0,0,0.3,64.3,0,89.5c0,10.4-62.2,9.2-62.2,0L301.8,607.5z"/>
		<path class="st13" d="M270,546.1c0-47.7,29-86.4,64.8-86.4s64.8,38.7,64.8,86.4s-29,86.4-64.8,86.4S270,593.8,270,546.1z"/>
		<path class="st1" d="M369.8,453.5c-16.5,38.3-84.7,75.6-113.4,84.4C251.9,515,281.3,417.7,369.8,453.5z"/>
		<path class="st1" d="M333.4,452.3c-12.5,4.7,28.1,69.6,76.6,85.6C429.9,509.6,384.1,450.9,333.4,452.3z"/>
		<path class="st2" d="M426.1,17.9c0-9.5,7.7-17.1,17.1-17.2c9.5,0,17.1,7.7,17.2,17.1S452.7,35,443.2,35c0,0,0,0,0,0
			C433.7,35,426.1,27.3,426.1,17.9z"/>
		<path class="st9" d="M130.6,468.3c0-8.8,7.2-16,16-16s16,7.2,16,16s-7.2,16-16,16S130.6,477.1,130.6,468.3z"/>
		<path class="st10" d="M485.1,461.6c0-5.1,4.2-9.3,9.3-9.3c5.1,0,9.3,4.2,9.3,9.3c0,5.1-4.2,9.3-9.3,9.3c0,0,0,0,0,0
			C489.3,470.9,485.1,466.7,485.1,461.6C485.1,461.6,485.1,461.6,485.1,461.6z"/>
	</g>
</g>
</svg>
