<?xml version="1.0" encoding="utf-8"?>
<!-- Generator: Adobe Illustrator 21.1.0, SVG Export Plug-In . SVG Version: 6.00 Build 0)  -->
<svg version="1.1" id="Layer_1" xmlns="http://www.w3.org/2000/svg" xmlns:xlink="http://www.w3.org/1999/xlink" x="0px" y="0px"
	 viewBox="0 0 250 250" style="enable-background:new 0 0 250 250;" xml:space="preserve">
<style type="text/css">
	.st0{clip-path:url(#SVGID_2_);}
	.st1{fill:#F2F2F2;}
	.st2{fill:none;stroke:#A4A4A4;stroke-width:0.7795;stroke-linecap:round;stroke-linejoin:round;}
	.st3{fill:#6BD5E1;}
	.st4{fill:#E49D75;}
	.st5{fill:#D38D6A;}
	.st6{fill:none;stroke:#E0E0E0;stroke-width:0.5197;stroke-linecap:round;stroke-linejoin:round;}
	.st7{fill:#E0E0E0;}
	.st8{fill:#5FC5D1;}
	.st9{fill:#FFC78E;}
	.st10{fill:#FFD98E;}
	.st11{fill:#FD8369;}
	.st12{fill:#A4A4A4;}
	.st13{fill:#FFE4AD;}
	.st14{fill:none;stroke:#6BD5E1;stroke-width:1.559;stroke-linecap:round;stroke-linejoin:round;}
	.st15{fill:none;stroke:#A4A4A4;stroke-width:1.559;stroke-linecap:round;stroke-linejoin:round;}
</style>
<g>
	<defs>
		<circle id="SVGID_1_" cx="125" cy="125" r="116.5"/>
	</defs>
	<clipPath id="SVGID_2_">
		<use xlink:href="#SVGID_1_"  style="overflow:visible;"/>
	</clipPath>
	<g id="Layer_2_1_" class="st0">
		<g id="vector">
			<path class="st1" d="M159.8,89.3c15.7,20.8,34.9,37.7,33.9,53.2s-22.3,29.4-45.8,42.1c-23.6,12.7-49.4,24-69.6,16.9
				s-34.8-32.7-39-58.6s1.8-52.1,17-72.7s39.3-35.7,57.5-31S144.1,68.5,159.8,89.3z"/>
			<line class="st2" x1="129.4" y1="143.9" x2="129.4" y2="208.9"/>
			<path class="st3" d="M155.9,75.8h1.9c1.7,0,3.1,1.4,3.1,3.1v5.2c0,1.7-1.4,3.1-3.1,3.1h-1.9c-1.7,0-3.1-1.4-3.1-3.1v-5.2
				C152.8,77.2,154.1,75.8,155.9,75.8z"/>
			<path class="st4" d="M125.5,214.8c-0.3,0.7-2.3,5.1-2.3,5.1l6.4,2.4l1.9-6.3L125.5,214.8z"/>
			<polygon class="st4" points="161.9,208.5 163.2,213.3 157.5,216.1 153.7,212.2 			"/>
			<path class="st5" d="M153.7,116.1c-0.7,0.8-6.1,7.2-6.4,7.7c-0.4,0.5-16.2,5.3-17,5.5s-3.8,1.5-4.7,1.5s-3.6-0.9-4.7-0.7
				s-4.7,2.3-4.4,3.1c0.3,0.8,39-2,39-2l4.2-13.1L153.7,116.1z"/>
			<line class="st6" x1="161.3" y1="176.6" x2="151.4" y2="227.3"/>
			<polygon class="st7" points="197.5,94 219.7,94 198.6,176.6 157.9,176.6 157.9,171.3 180.7,156.1 			"/>
			<path class="st8" d="M151.4,171.9c1.1,2.3,10.7,34.7,10.9,36.5c-1.2,1.3-6.5,4.1-8.7,4.3c-3.8-3-14.5-28.2-14.5-28.2
				S142.8,163.7,151.4,171.9z"/>
			<path class="st3" d="M197.3,141.1c0.8,1,3.5,15.5,3.9,19.2c0.6,5.9-10.8,14.5-26.9,14.5c-5.3,0-23-1.2-28-3.1
				c-0.3,3.2-13,43.2-14.5,44.6c-2.4,0.6-5.9-0.7-6.8-1.6c-0.9-0.9,6.1-56.1,8.1-59.7c2-3.6,41.8-6.2,41.8-6.2L197.3,141.1z"/>
			<path class="st9" d="M169.7,99.7c7.5,4.4-3.7,23.4-5.1,23.9c-2.3-0.3-10.1-4.8-11.6-8.2C152.7,113.3,163.3,96,169.7,99.7z"/>
			<path class="st10" d="M173.8,91.8c12.5,0,24.5,47.7,24,49.6c-1,3.9-21.5,11.1-24.8,8C164.8,141.6,149.5,91.8,173.8,91.8z"/>
			<line class="st6" x1="196.3" y1="176.6" x2="206.1" y2="227.3"/>
			<polygon points="130.1,222.5 126.8,230.7 109.2,222.9 110.9,219.4 123.8,219.7 			"/>
			<polygon points="163.3,212.7 167.6,220.5 150.4,229.2 148.8,225.6 157.2,215.9 			"/>
			<path class="st5" d="M170.8,86.5c0.3,1.6,2.1,6.3,2.9,7.2c0.8,0.9-3.4,6-8.1,5c-0.1-1.6-0.7-6.1-1.4-6.9
				C163.5,91.1,170.8,86.5,170.8,86.5z"/>
			
				<ellipse transform="matrix(0.9507 -0.3102 0.3102 0.9507 -16.6027 54.3818)" class="st4" cx="162.7" cy="79.4" rx="9.7" ry="13.1"/>
			<path class="st11" d="M155,61.6c5.2,0,18.5,9.2,18.5,18.4c0,5-0.9,6.2-1.2,6.2s-3.5-2.5-3.5-4.3s-0.6-4.4-1.2-4.4
				c-1,0-1.2,1.2-3.8,1.2c-1,0-2.9-1.2-2.9-2.6c-2.1,0-2.1,0.7-5,0.7c-3.3,0-11.4-1.7-11.4-4.2c0-1.7,2.3-2.9,4.5-2.5
				c-1.5-0.8-2.9-2.5-2.9-3.6c0-1.5,1.9-2.6,3.5-2.6c1.8,0,3.3,0.8,4.1,1.5C152.9,64.4,153.5,61.6,155,61.6z"/>
			<circle class="st4" cx="167" cy="80.2" r="2.7"/>
			<rect x="22.3" y="140.1" class="st12" width="134.8" height="3.8"/>
			<polygon class="st7" points="145.5,134 89.7,134 89.5,134 33.7,134 22.3,140.1 89.5,140.1 89.7,140.1 156.9,140.1 			"/>
			<line class="st2" x1="39.3" y1="143.9" x2="39.3" y2="223.1"/>
			<line class="st2" x1="49.9" y1="143.9" x2="49.9" y2="208.9"/>
			<line class="st2" x1="140.1" y1="143.9" x2="140.1" y2="223.1"/>
			<rect x="101.8" y="134.4" class="st12" width="23.9" height="1.6"/>
			<rect x="71.9" y="132.4" class="st12" width="4.6" height="5.4"/>
			<ellipse class="st1" cx="119.5" cy="136.9" rx="5.4" ry="2.5"/>
			<path class="st4" d="M157.5,118.7c-0.8,0.8-5.6,7.7-6.1,8.4c-10.9,1.3-25.3,4.8-25.9,4.8c-0.5,0-6.6-1.9-7.4-1.8
				c-0.8,0.1-2.5,3.1-2.4,3.7s4.8,3.5,10.3,3.4c1-0.1,1.4-0.6,2.5-0.6s25.7,1.9,30-0.3c2.3-1.2,8.9-10.4,8.9-11.1
				S157.5,118.7,157.5,118.7z"/>
			<path class="st13" d="M173,101.9c7.5,4.4-3.7,23.4-5.1,23.9c-2.3-0.3-10.1-4.8-11.6-8.2C156,115.5,166.6,98.2,173,101.9z"/>
			<rect x="68" y="64.8" class="st7" width="2.2" height="70.5"/>
			<polygon class="st12" points="70.2,64.8 70.2,100.1 70.2,135.3 80.5,131.5 80.5,100.1 80.5,68.6 			"/>
			<path class="st3" d="M165.9,75.8h1.9c1.7,0,3.1,1.4,3.1,3.1v5.2c0,1.7-1.4,3.1-3.1,3.1h-1.9c-1.7,0-3.1-1.4-3.1-3.1v-5.2
				C162.8,77.2,164.2,75.8,165.9,75.8z"/>
			<path class="st14" d="M167,77.2c0-1.4,0.5-9.9-4.3-12.4"/>
			<path class="st15" d="M166.8,87.2c0,0.8-0.3,5.5-3.9,5.5"/>
		</g>
	</g>
</g>
</svg>
