<svg xmlns="http://www.w3.org/2000/svg" fill="none" viewBox="0 0 994 994">
  <path fill="#000" fill-rule="evenodd" d="M509.7 89.8c-4.3.3-11 1-14.9 1.7a232.2 232.2 0 0 0-44.7 12.8 293.8 293.8 0 0 0-65.7 39 821.5 821.5 0 0 0-23.1 18.8 2033 2033 0 0 1-29 24.1c-7.3 6-19.9 16.7-28 23.8l-20.6 18a148 148 0 0 1-10.4 8.2l-10 6.2c-4.7 2.6-6 3.8-7.4 6.4a9.6 9.6 0 0 0-1.3 6.5 25 25 0 0 0 2.2 6.9c1 2 3.6 5.3 5.7 7.5 2.2 2 7 5.8 10.7 8.3l6.8 4.4-6.7 6.8a77.8 77.8 0 0 0-15 18.7 58.6 58.6 0 0 0-4 9.6 21.6 21.6 0 0 0-1.1 9c.2 2 1 5 1.8 6.5a20.4 20.4 0 0 0 8.5 8.3c1 .6 5 1.9 8.7 3 3.7 1 9 2.9 11.7 4.2a60.4 60.4 0 0 1 18 13.9c1.7 2.1 3.8 5.1 4.7 6.7.9 1.5 2.5 6.2 3.6 10.3a812.1 812.1 0 0 1 7 30.3 123.1 123.1 0 0 0-12.4-3.1 50 50 0 0 0-28.2 1 73.1 73.1 0 0 0-11 5.7 70.8 70.8 0 0 0-18.7 19.8 45.7 45.7 0 0 0-5.4 13.2 72.7 72.7 0 0 0-3.2 27 90.4 90.4 0 0 0 5 25.6 103.2 103.2 0 0 0 10.8 20.1 129 129 0 0 0 21.5 21.9 92.4 92.4 0 0 0 22.2 12c2.8 1 8 2.1 11.4 2.6 4.8.6 7.8.6 12.3 0 3.3-.5 7.6-1.5 9.7-2.2A74.4 74.4 0 0 0 346 546a73 73 0 0 0 8-6.8c2.6-2.6 4.9-4.5 5-4.4l4 7.4a340.5 340.5 0 0 0 18.9 30.5l4 5.6-2.5 5a67.4 67.4 0 0 0-6.5 23.3l-.5 4.7-5.4 2.3a981 981 0 0 0-26 12.5 558 558 0 0 0-32.4 17.1 588.3 588.3 0 0 0-22.4 14.3c-5.8 4-12.7 9.3-15.2 11.8-2.6 2.5-7.2 6.5-10.3 9a179 179 0 0 0-14.2 13 318 318 0 0 0-27.3 32 1095 1095 0 0 0-41 61.4 437.4 437.4 0 0 0-33.2 64 264.9 264.9 0 0 0-11.8 35.3c-.8 3.3-2 9.9-2.5 14.5-.8 5.8-1.1 14-1.1 25.3a426.5 426.5 0 0 0 3.6 55.7l1.4 14c0 .3 1.4.5 3.2.5h3.2l-.4-2.3a1562.1 1562.1 0 0 1-4-40 449.8 449.8 0 0 1 0-51 218.6 218.6 0 0 1 14.7-50.7 505 505 0 0 1 23.4-46.9c4.1-7.2 10.1-17.3 13.3-22.5 3.2-5.2 6.3-9.5 6.8-9.5s5 2.1 9.9 4.7c6.3 3.3 9.4 4.5 10.6 4.3.8-.3 2.7-2 4-3.8 1.4-1.9 5.7-8.3 9.5-14.4a338.7 338.7 0 0 1 23-31.6l6.7-7.4c1.1-1 2.6-3 3.3-4.5.8-1.5 1.2-3.3 1-4a19 19 0 0 0-5.2-4.9l-8.4-6-3.8-2.4 8.4-8.1a231 231 0 0 1 11.2-10.5c2.9-2.2 3-2.3 5-1.2 1.2.5 4.7 3 7.9 5.3a142.7 142.7 0 0 1 25 25.3c3.8 5.1 7.6 11.4 11 18.4a190 190 0 0 1 7.9 18.1 235.9 235.9 0 0 1 8.1 34c.8 5.4 1.4 13.3 1.5 17.6v8l-5.7 6.4a872.3 872.3 0 0 0-16.5 19.8 320.4 320.4 0 0 1-33.6 35.8 37 37 0 0 0-6.5 7c-.8 1.5-.6 2.6.8 6.7 1 3 1.8 6.5 1.8 9 0 2.3-.7 6-1.5 8.5-.8 2.4-2.8 6.7-4.4 9.6-2.7 5-2.8 5.5-2 7.5a559 559 0 0 1 16.7 54 319 319 0 0 1 4.4 20.5c.3.9 1.1 1.2 3.5 1.2 2.2 0 3.2-.3 3.2-1a438.3 438.3 0 0 0-11.7-47c-2.6-8.3-5.7-18-7.1-21.7l-2.5-6.7 2.5-4.7a45.3 45.3 0 0 0 5.7-16.7 39 39 0 0 0-.8-10.8l-1.2-6.7 4.8-4.5c4.3-4 5-4.4 5.4-3.2.3.7 2.2 10.7 4.2 22.2a1240.4 1240.4 0 0 0 10 51.9c.8 3.8.7 4-1 5.7-1 1-2.3 3.6-3 5.6-.8 2.7-1 6.8-1 14.6 0 7 .2 11 .7 11.3.4.3.5 1 .3 1.7l-2.2 5.6-1.6 4.4h7l.8-3.2c.5-1.9 1.2-3.2 1.8-3.2.6 0 2.3.7 3.8 1.4a64.5 64.5 0 0 0 18.2 4.8c3.2.2 7.9.2 16.2.1h18.5l-9.2-1a267.8 267.8 0 0 1-34.6-6.8 106 106 0 0 1-8.8-3.4c-4.3-2-4.4-2-4.8-5.4a65 65 0 0 1 .3-16c.4-2.4 1-4.9 1.4-5.3.5-.7 2-.6 5.8.5a563.9 563.9 0 0 0 88.6 13.3 1241.8 1241.8 0 0 0 56.3 2.2h9v8.8c0 4.8.4 9.7.9 11 .7 2 1 2.2 3.7 2.2h.2c2.8 0 3.2-.2 2.7-1.2-.3-.7-.7-5.6-.9-11-.2-7.8 0-10.4 1-13.3.6-2 1.9-4.5 2.8-5.7 1-1 3.4-2.7 5.5-3.6 3.6-1.5 4.1-1.6 22.9-1.2 15.3.3 19.8.6 22.4 1.5a20 20 0 0 1 5.8 3.8c1.4 1.5 3 4 3.3 5.5.5 1.6.8 6.8.8 11.6 0 6-.3 9.4-1 11.1l-1 2.5h30.7l12.4-2.9a120 120 0 0 1 12.7-2.5c.1.1-.2 1.4-.8 2.8l-1 2.6h6.8l1.2-3.9c.9-2.7 1.7-4 2.8-4.3l4.8-1.9c2.2-.9 4-2.4 5.3-4.2 1-1.5 2-2.6 2.2-2.5.2.2 2.3-.5 4.7-1.4l9.9-4.3 6.3-2.7v-8.6s-5 2.2-9.3 4.3l-7.8 3.7 1-3.6a30 30 0 0 0 1.1-7.3 17 17 0 0 0-.8-5.4 8.2 8.2 0 0 0-1.9-2.3c-.8-.6-.5-2.2 2-10 1.5-5 4-13.8 5.2-19.4l2.4-10.2 1 2.8a260 260 0 0 0 4 10.5l3 7.7v24a2642.2 2642.2 0 0 0 .5 31.4l.4 7.6h5.2l-.2-65.7-2.1-4.6c-1.2-2.5-3.8-9.2-6-14.8l-3.7-10.2 1.2-11.1a398.8 398.8 0 0 0 1.9-68.2 812 812 0 0 0-5-54.3 1028.5 1028.5 0 0 0-7.1-39 379.6 379.6 0 0 0-11.8-41.4c.2-.2 4.4 3.7 9.4 8.5s13.6 13.8 19.3 20c5.6 6.3 13 15 16.2 19.3 3.3 4.3 6 8 6 8.3 0 .2-2.4 4-5.4 8.3a44 44 0 0 0-5.3 9.3c0 .8.4 2.2.8 3 .5.9 2.7 4 4.9 6.9a332 332 0 0 1 18 27.3c2.3 4 4.6 7.5 5.3 8 .6.5 1.7.9 2.4.9s3.7-2.3 6.6-5c3-2.9 5.5-5 5.6-4.9l4.2 9.2a531.6 531.6 0 0 1 15.5 39.7 447.8 447.8 0 0 1 17.2 66.4 1528 1528 0 0 1 7.5 45c.8 5.7 1.8 15.6 2.2 22 .4 6.5 1 13 1.2 14.4.3 2.5.6 2.7 2.7 2.7 1.3 0 2.5-.4 2.7-.9a402.1 402.1 0 0 0-5.9-60.1 1012.7 1012.7 0 0 0-9.3-47.2 469.7 469.7 0 0 0-10.8-38.4c-1.5-4.4-2.2-7.5-1.8-8.1.3-.6 1.7-8 3.1-16.3l3.6-20.6 2.9-12.7a227.3 227.3 0 0 1 11-32.8 196.8 196.8 0 0 1 15.5-28.3 74 74 0 0 1 16-18.4 77.4 77.4 0 0 1 21.3-11.5 102.5 102.5 0 0 1 36.6-.4l16 2.2a32.8 32.8 0 0 0 16.6-3.2A36.1 36.1 0 0 0 873 684c1.1-2.2 2.6-5.7 3.2-7.8a41.8 41.8 0 0 0 0-19.3 53 53 0 0 0-3.3-8 47.4 47.4 0 0 0-17-17 93.6 93.6 0 0 0-43-13.3c-6.4-.6-11-.6-17.4 0-4.8.4-11.6 1.4-15.3 2.2a151.6 151.6 0 0 0-28.7 9.8 156 156 0 0 0-14 7.6 147.1 147.1 0 0 0-25.5 20.5c-2.8 3-7 8-9.4 11a125.7 125.7 0 0 0-19.4 39.2 202 202 0 0 0-8 34.5 43 43 0 0 0-.7 9.3c.3.7.2.9-.2.4l-4.2-6a412.5 412.5 0 0 0-23-30.2 567.7 567.7 0 0 0-35.6-36.4 246 246 0 0 0-13.5-10.3c-4.2-3-11.1-8.3-15.3-11.7a95.6 95.6 0 0 0-9.7-7.4c-2-1-2-1-.3-1 1 0 5.2-1 9.5-2a269 269 0 0 0 35.3-12c5-2 12.5-5.7 16.6-8a236.5 236.5 0 0 0 31-20.7 164.6 164.6 0 0 0 22.3-22.7c2.6-3.1 6.5-8.9 8.9-12.7a132 132 0 0 0 12.7-29.4 140 140 0 0 0 3.2-14.5c.6-3.9 1.3-12.7 1.5-19.7a76 76 0 0 0-.3-15.2 131 131 0 0 1-1.9-9.4c-.6-3.7-2.7-11.4-4.6-17a346 346 0 0 0-11.9-30.3c-.2-.5.9-1.2 2.4-1.7s4.3-1.8 6.3-3 4.9-3.2 6.5-4.5a43.1 43.1 0 0 0 11.3-17l1.3-3.9 2.7.5c2 .3 3 .1 4.1-.8.8-.7 1.4-2 1.4-2.9 0-.9-.4-2-1-2.4a260 260 0 0 0-22.2-6.3c-20.8-5.4-21.2-5.5-21-7.2l1.3-13.8c1-9.2 1.1-15.4.8-27a156.8 156.8 0 0 0-4.7-37.7 179 179 0 0 0-9.3-24.3l-3.7-7.8 2.6-5.1a109.9 109.9 0 0 0 8.7-26.4 110 110 0 0 0 1.2-18.7c0-10.7-.2-12.8-1.9-18.9-1-3.7-3.1-10-4.7-13.8a131.5 131.5 0 0 0-14.5-25.5 234.4 234.4 0 0 0-24.8-28.4c-4.8-4.6-12.4-11-16.9-14.5-4.5-3.4-11.8-8.3-16.2-11a218.8 218.8 0 0 0-31-15 192.3 192.3 0 0 0-33.5-8.4 165.7 165.7 0 0 0-30.4-1.1Zm21 7.1c5.3.4 13.3 1.5 17.8 2.4a185 185 0 0 1 32 10.2 171.3 171.3 0 0 1 55.7 38.8c5.2 5.2 12.2 13.2 15.7 17.8a143.8 143.8 0 0 1 16.3 26 93.2 93.2 0 0 1 7.2 21.8 90 90 0 0 1-.2 27.5 90.2 90.2 0 0 1-13.5 36.5c-1.6 2.7-4.6 6-8 8.8a69 69 0 0 1-10 7 95 95 0 0 1-22 8 150.3 150.3 0 0 1-33.7 4 236.4 236.4 0 0 1-46-4.9l-19.1-3.6c-4.3-.8-9.9-1.2-19.2-1.2a110.4 110.4 0 0 0-45.8 8.6 174 174 0 0 0-13.8 6.4 177.1 177.1 0 0 0-27.4 18.2 192 192 0 0 0-14 13.2 131.2 131.2 0 0 0-21.8 30.5c-2 3.7-4.3 9.1-5.3 12a77.3 77.3 0 0 0-4.8 28.5c0 5 .4 11 1 13.9a46.5 46.5 0 0 0 7.2 17.5c1.4 1.9 2.4 3.7 2.2 4-.2.4 1.6 2.5 4 4.7a105.6 105.6 0 0 0 22 14.6c3.4 1.5 6.5 2.8 7 2.8.4 0 .7.3.7.5l-1.5 4.5c-1 2.6-1.6 6.2-1.9 10.7-.2 5 0 7.8.8 10.7a32 32 0 0 0 3.5 7.4c1.5 2.2 3.7 4.3 6.2 5.8 3 1.8 4.7 2.3 7.5 2.3 2 0 5-.5 6.8-1.1 1.8-.6 4.3-2 5.7-3.1 1.4-1.2 3.5-4 4.7-6.3a43.8 43.8 0 0 0 4.4-16.6c0-1.8.4-3.6.8-3.8.4-.3 2 .4 3.7 1.5 1.5 1.1 4 3.7 5.6 5.6a54.8 54.8 0 0 1 8.1 17.4 60 60 0 0 1-.7 27.3c-.9 4-2.7 11-4 15.6a63.8 63.8 0 0 0-2.6 17.4c-.3 6.8 0 10 .8 13.5a66 66 0 0 0 4 10.3 75.3 75.3 0 0 0 15.7 20.3 106.4 106.4 0 0 0 49 23.2 173.4 173.4 0 0 0 41.1 2.8 250.8 250.8 0 0 0 29.7-2.4 325.3 325.3 0 0 1-25.4 7.5 272 272 0 0 1-16.7 3.3 210.4 210.4 0 0 1-38 1.7 210 210 0 0 1-18.9-2.1 181.9 181.9 0 0 1-32-8.6 191 191 0 0 1-15-6.8 196 196 0 0 1-27.9-17.8A202.4 202.4 0 0 1 399 582c-3.2-4-8-10.4-10.9-14.4a367.9 367.9 0 0 1-20.8-33.9l-3.7-7.1 1.9-4.6a67 67 0 0 0 2.7-8.9 93 93 0 0 0 0-27.6 143.5 143.5 0 0 0-32.4-60.6c-7.2-7.5-7.3-7.7-8.1-12.2l-2.6-13.8c-1-5.1-2.8-12.3-4-16a98 98 0 0 0-4.7-11.7 93.8 93.8 0 0 0-5.1-8.9 72.4 72.4 0 0 0-25.3-21.5 72 72 0 0 0-10.3-3.7c-3.7-1-8-2.6-9.6-3.6-1.8-1-3.4-2.7-4.2-4.3a9.3 9.3 0 0 1-.8-5.6 40.8 40.8 0 0 1 6.9-16.1c1.9-2.9 7.3-9.2 12-14.2 5.5-5.9 8.6-9.9 9-11.2.2-1.4 0-2.7-.7-3.8-.6-1-3.6-3.2-6.8-5-3.1-1.9-7.4-4.7-9.5-6.3a27 27 0 0 1-8.2-8.8c-.4-.8-.8-2.5-.8-3.6s.6-2.5 1.2-3.1a197.8 197.8 0 0 0 18.5-12.6 563 563 0 0 0 20.5-17.6 1676.4 1676.4 0 0 1 40-34.3 1248 1248 0 0 0 22.8-19 602 602 0 0 1 24.5-20 370.1 370.1 0 0 1 40.5-26.5 256.8 256.8 0 0 1 32.7-14.7 222 222 0 0 1 30-7.8 170.8 170.8 0 0 1 25-2.7c1.4 0 6.9.2 12.1.6Zm138 194.3a186 186 0 0 1 10.4 31.7 194 194 0 0 1 2.2 14 216 216 0 0 1-.4 40l-1 10c0 .2-.5.3-1 .3a153.2 153.2 0 0 1-23.6-8.2 52.4 52.4 0 0 1-7.4-4.3c-1.2-1-3.1-3.3-4.3-5-1.7-2.4-2.6-3.1-4.1-3.1-1 0-2.3.4-2.8.8-.5.5-.9 1.7-.9 2.6 0 1 .7 2.8 1.5 4.1.8 1.3 3.2 4 5.4 5.9l4 3.5-1.3 5.5c-.9 3.8-1.1 7.1-.9 10.9a52 52 0 0 0 2 10 47.5 47.5 0 0 0 9.7 15.7 40 40 0 0 0 25.4 11.2l5 .4 3.8 9.6c2 5.3 5.3 14.2 7.3 20a217 217 0 0 1 5.7 21.2c1.8 9 2.2 12.6 2.3 20.5 0 5.3-.4 12-.9 15a136 136 0 0 1-13.3 39.7c-1.8 3.3-5 8.4-7 11.3-2 3-7.2 9-11.7 13.6a210.1 210.1 0 0 1-15 13.6 137.6 137.6 0 0 1-26.6 17.2 161 161 0 0 1-13 5.3 157 157 0 0 1-50.1 7.1 169 169 0 0 1-36-3.6 111.5 111.5 0 0 1-35.9-15.4A70.4 70.4 0 0 1 475 590a52.4 52.4 0 0 1-6-17.5c-.5-2.5-.4-6.3 0-9.4a136 136 0 0 1 2.8-13 713 713 0 0 0 3.9-15.2 62 62 0 0 0 1.8-17 54 54 0 0 0-1.4-15 44.5 44.5 0 0 0-11-20.3c-2.7-3-5.9-5.3-8.8-6.7l-4.4-2.2v-3.3c0-1.8.3-4.3.6-5.6a25 25 0 0 1 2.9-5.5c1.2-1.8 2.1-4 2.1-4.7 0-1 .4-1.4 1-1.1a41.3 41.3 0 0 0 33.7-4.4 47 47 0 0 0 13.4-14.7 48 48 0 0 0 3.4-8.6 48.5 48.5 0 0 0 0-19.7 52 52 0 0 0-3.6-9l-2.6-4.9 2-2.4a43 43 0 0 0 3.2-5.6c.7-1.6 1.4-3.8 1.4-4.8s-.6-2.4-1.4-3.1c-1.2-1-1.8-1.2-3.2-.5-1 .4-2.5 2.3-3.6 4.7-1 2.1-3.3 5.3-5 7.1a77.7 77.7 0 0 1-9.8 7.5 567.2 567.2 0 0 1-33.5 17.8c-14.8 7.5-27.5 14-28.2 14.7-.7.6-1.3 1.6-1.3 2.2 0 .7.7 1.8 1.5 2.5 1.3 1.3 1.5 1.3 5.3-.2l4-1.4.6 1.7a42.4 42.4 0 0 0 9 12.4l2.8 2.5-5.3 1.7a46.3 46.3 0 0 0-19 12.5c-1.8 2-3.7 3.8-4.2 3.8s-4.1-1.6-8-3.5a77.2 77.2 0 0 1-20.5-14.3 63.3 63.3 0 0 1-10.2-20.2 61 61 0 0 1-1.1-24.4 106.5 106.5 0 0 1 33.2-60.9 162 162 0 0 1 11.6-10.5 160.4 160.4 0 0 1 28.4-18c4.7-2.3 11.6-5.1 15.3-6.4a93.7 93.7 0 0 1 31.3-5.5c8.5-.3 13.3 0 18 .7l19.6 3.6c7.2 1.4 17.6 3 23 3.6a182 182 0 0 0 39.8 1.1 177.5 177.5 0 0 0 32.8-6.5c3.8-1.2 9.3-3.2 12.2-4.6a96.2 96.2 0 0 0 19-12.3 7 7 0 0 1 2.6-2.1 25 25 0 0 1 3.5 6.2Zm-5.2 99a505 505 0 0 0 26.3 7.3 1545.9 1545.9 0 0 1 24.4 6.3c1.7.4 1.9.7 1.5 2.4-.3 1-1.6 4-3 6.7a31.8 31.8 0 0 1-14.6 14 44.1 44.1 0 0 1-9.1 3c-4 .6-6.1.6-10.1 0a33.9 33.9 0 0 1-27.5-27.7 35.3 35.3 0 0 1 1.3-15.2c.2-.4.9-.4 1.5-.1l9.3 3.3Zm-163.8 10a35.2 35.2 0 0 1 4 15.2c0 2-.3 5.3-.8 7.4-.4 2-1.9 6-3.3 8.6a32.2 32.2 0 0 1-14.6 14 43 43 0 0 1-9.2 2.9c-3.9.7-6 .7-10 0a33.4 33.4 0 0 1-18.2-9.3 42.3 42.3 0 0 1-5.9-7.6l-2-3.7 23.3-11.8a421.6 421.6 0 0 0 34.1-18.7c.5 0 1.7 1.3 2.6 3ZM302 413a97 97 0 0 1 8.6 2.5 57.7 57.7 0 0 1 18.6 12.2 131 131 0 0 1 8.8 8.7c2 2.3 5.8 7.9 8.3 12.5a154.7 154.7 0 0 1 13 29.5 67.6 67.6 0 0 1 3.9 21.6 50.5 50.5 0 0 1-6 23.5 60 60 0 0 1-6.5 8.1A65 65 0 0 1 332 544a74 74 0 0 1-8.2 2.8c-1.8.5-6.5 1-10.3 1-6 0-7.7-.3-12.7-2a85.3 85.3 0 0 1-11.3-5.3 105.8 105.8 0 0 1-23.5-19.7 102.8 102.8 0 0 1-14.4-23A96.5 96.5 0 0 1 248 487a67.9 67.9 0 0 1-.4-36 61 61 0 0 1 12.4-24 50.4 50.4 0 0 1 14.7-11.3c2-.9 5.3-2 7.5-2.7a46.7 46.7 0 0 1 19.9 0Zm310.9 7.1a49 49 0 0 0-7.5 4.2l-7.2 4.4c-2 1-3.4 1.1-7.2.8-2.7-.3-7-1-9.9-1.5-2.8-.6-8-1-11.6-1a21 21 0 0 0-9.3 1.3 16.8 16.8 0 0 0-8.1 8.1c-.5 1-.8 3.8-.8 6 0 3.4.4 4.7 2 7.1 1 1.6 3.3 4 5 5.1a32 32 0 0 0 6.9 3.6 76.3 76.3 0 0 0 25.7 3.4c4.5 0 8.2 0 8.4.2l2 7.4a407.3 407.3 0 0 1 7.6 40.7l.9 6.7-2.4 1.8a123.6 123.6 0 0 0-19 20c-1.9 2.9-5.3 8.6-7.6 12.6-3.6 6.3-4 7.6-3.5 9.2.5 1.4 1.2 2 2.8 2.1 1.2.1 2.6-.2 3-.7.4-.5 2.6-4.3 4.8-8.4a87.8 87.8 0 0 1 24.7-29.9 49 49 0 0 1 9-4.9c2.1-.8 6-1.6 8.6-1.9 3.7-.3 5.9 0 9.7 1.2 3.8 1 6 2.3 8.8 4.8 2 1.9 4.8 5 6 7.1 1.4 2 3.1 4 3.9 4.5 1 .5 1.8.5 2.8 0 1-.5 1.4-1.5 1.4-3s-1-3.8-2.6-6.2a36.8 36.8 0 0 0-12.3-11.7c-2-1-5.3-2.4-7.3-3a39 39 0 0 0-16.5 0 58 58 0 0 0-6.3 2.1c-1.5.7-3 1-3 1-.3-.3-.8-3.9-1.4-8A330.6 330.6 0 0 0 607 472c-1.3-5.5-2.4-10.5-2.4-11.1 0-.7 1.4-1.7 4-2.7a45 45 0 0 0 16.3-11c1.4-1.6 3.2-4.2 3.9-5.7.8-1.9 1.3-4.5 1.3-7.4 0-3.3-.4-5.5-1.4-7.7-.9-1.7-2.6-4-4-5a10.1 10.1 0 0 0-5.8-2c-1.8-.2-4.5.1-6 .7Zm7.9 5.8c.8.6 2 2 2.6 3.1.6 1.2 1 3.5 1 5.2 0 2.3-.5 4-2.1 6.4a27.4 27.4 0 0 1-4.8 5.4c-1.4 1-4.2 3-6.2 4.2-2 1.2-6 3-9.2 4-4.7 1.7-7 2-12.8 2a59.4 59.4 0 0 1-24.2-4.4c-2.8-1.3-5.1-3-6.4-4.7a8.5 8.5 0 0 1-2-5.4c0-1.6.6-3.5 1.4-4.6a15 15 0 0 1 11.3-5.2c2 0 7.3.6 11.8 1.5 5 1 9.6 1.3 12.1 1.1 2.4-.2 5.7-1.2 8.2-2.4l9-4.7c2.7-1.4 5.7-2.6 6.8-2.6 1 0 2.6.5 3.5 1Zm-172.4 31c-.8 1-2 3-2.6 4.8-.8 2.2-1.4 7.1-1.8 15.6a68 68 0 0 1-2.1 17.4 17 17 0 0 1-4.2 7.5c-2 2-3.4 2.8-5.9 3.1a9 9 0 0 1-5-.3c-.8-.5-2.5-1.7-3.5-2.7-1.1-1-2.6-3.5-3.4-5.6-.9-2.4-1.4-5.6-1.4-8.2a33 33 0 0 1 3.1-14 48 48 0 0 1 9.9-12c1.6-1.3 5.2-3.5 7.9-4.8 3-1.5 6-2.4 7.8-2.4h2.8l-1.6 1.6ZM273.1 460a3 3 0 0 0 .2 2.3c.5.8 2.4 1.3 5.8 1.7a49.6 49.6 0 0 1 25.7 9.8 211.4 211.4 0 0 1 20.6 19.7l-1.4.1a25 25 0 0 0-12.9 6.3 28 28 0 0 0-5 6.1 15 15 0 0 0-1.3 4.8c0 1 .2 2.4.4 3 .3.6 1 1.1 1.6 1.1.8 0 1.7-1.2 2.5-3.2 1-2.2 2.6-4.2 5-6.1 2-1.6 4.7-3.3 6-4 2-.7 4.6-1 10.8-.8 6.8.2 8.2.1 8.3-.8.2-.6-3-4.9-7-9.6a288 288 0 0 0-12.6-13.8 71.4 71.4 0 0 0-18-13.6 40.8 40.8 0 0 0-20.6-4.1c-6.5 0-7.8.1-8.1 1.1Zm355.8 77.4a9.6 9.6 0 0 0-4.2 2.7c-.8 1.3-.9 2-.3 3.2.6 1 1.5 1.4 2.8 1.4 1 0 4-.6 6.7-1.3 2.7-.7 5.2-1.7 5.5-2.3.4-.5.7-1.4.7-1.8 0-.5-.5-1.4-1.1-2-.7-.7-2.3-1-4.1-1a23 23 0 0 0-6 1.1ZM396 590.5c2.6 3.1 7 7.9 9.5 10.6a198.2 198.2 0 0 0 28.8 24 206 206 0 0 0 38 18.9 211.2 211.2 0 0 0 32 7.7c6.5 1 12.2 1.3 27.4 1.2 13 0 21.3-.4 26-1.1 6-1 7-1 7.3 0a65.3 65.3 0 0 1-.6 27.7c-.6 1.1-2.6 3.2-4.5 4.5a60 60 0 0 1-7 4.3c-1.9 1-5.6 2.4-8.3 3.3a76.4 76.4 0 0 1-28.4 2.2 185 185 0 0 1-14.7-1.8 178.8 178.8 0 0 1-49.9-17.5 235 235 0 0 1-19.1-11 271 271 0 0 1-14.8-10.7c-3.7-3-10-8.6-14-12.6a101.9 101.9 0 0 1-18.2-23.6c-2.1-4-2.7-5.8-2.7-8.9a57.4 57.4 0 0 1 5.4-20.9c1-1.7 2.1-3 2.4-2.6l5.4 6.3Zm-15.5 29.8 1.6 3.1-1.6.5a388 388 0 0 0-76.5 38.3 372.6 372.6 0 0 0-22.8 16 7 7 0 0 1-2.2-1.5l-1.6-1.4 1.7-1.4 9.7-7.7a256.6 256.6 0 0 1 54.6-33.1 738.9 738.9 0 0 1 34.8-16c.5 0 1.5 1.4 2.3 3.2Zm438.9 5.7a102 102 0 0 1 25 7.5 54.2 54.2 0 0 1 17.9 12.5c1.7 1.9 4 5.4 5.1 7.8a27.6 27.6 0 0 1 2.6 16.7 36 36 0 0 1-2.3 8 28.4 28.4 0 0 1-9.5 11.3c-1.5.9-3.8 2-5.3 2.5s-4.7.9-7.2.9-9.7-1-16.1-2c-9.3-1.6-14-2-23-2-10.4 0-12 .2-17.8 2a81 81 0 0 0-11.5 4.4 80.1 80.1 0 0 0-21 16 134.4 134.4 0 0 0-20 29.8 240 240 0 0 0-15 37.3 283.3 283.3 0 0 0-8.2 38.2c-1.1 6.8-1.8 9.4-2.2 8.5l-5.2-12.7a333.2 333.2 0 0 0-21-42.6c-4-6.6-6-10.4-5.6-11 .3-.6 1-5.2 1.7-10.2a211 211 0 0 1 8.3-37.8 129 129 0 0 1 18.4-37.2c2.8-3.7 7-8.8 9.4-11.2a137.3 137.3 0 0 1 45.9-30c3-1.2 7.8-2.8 10.7-3.6a110.3 110.3 0 0 1 45.8-3.1Zm-418.3 19.3c9.8 9.7 10 10.1 8.2 10.5l-6.7 1.8c-2.6.8-9 3.2-14.2 5.4a501.7 501.7 0 0 0-42.5 20.9c-4.9 2.8-12.5 7.5-17 10.4a218 218 0 0 0-12.6 8.8 26.7 26.7 0 0 1-5 3.5c-.4 0-2.3-2-4.3-4.5a143.3 143.3 0 0 0-18.2-18l-2.7-2.3 7-5.1a347.7 347.7 0 0 1 71.6-39.7 483 483 0 0 1 14.6-5.4l6.7-2.4 2.5 3c1.3 1.7 7 7.6 12.6 13.1Zm185.3 23.8a94 94 0 0 1 12 11c.9 1.2 2.9 5.5 4.5 9.7 1.7 4.1 3 7.8 3 8.2 0 .4-2.5-1.2-5.5-3.5-3-2.2-9-6.5-13.5-9.5-4.3-3-9.7-6.3-11.9-7.3-3.6-1.6-3.9-1.9-3.4-3.7.3-1 .5-5.1.5-9v-7.3l1.8 1.3 12.5 10Zm-159.7-2.8c4.2 2.9 11 7 15.1 9.4a229.9 229.9 0 0 0 36.2 16l10.3 3.4 1.2 7.3c.7 4 1.6 12.8 2 19.4a643.8 643.8 0 0 0 2.8 33.4 1304.2 1304.2 0 0 1 4.4 144 1057.6 1057.6 0 0 1-4 48l-.5 4-5.6.4a23.1 23.1 0 0 0-15.8 7c-1 1.4-2.4 3.8-3.3 5.5l-1.5 3.1-18-.4a804 804 0 0 1-79.3-5.5A467.3 467.3 0 0 1 314 950c-1.6-.6-2-1.7-4.8-13.7l-4.4-19.9-5-28.4c-2-11.8-3.7-22-3.9-22.4-.2-.6 2.3-4 5.4-7.5a621 621 0 0 0 15.3-18.4 857.6 857.6 0 0 1 20.5-24.8c2.1-2.7 3.7-5 4-6 .6-1.9.7-5.3.4-11.6a219.1 219.1 0 0 0-4.4-31.8 199.2 199.2 0 0 0-10.7-32.6 157 157 0 0 0-11.3-20.5c-1-1.4-.7-1.7 10.8-9.3 6.6-4.3 15.6-9.9 20.1-12.4a438.8 438.8 0 0 1 34.1-17c4.9-2.2 12.9-5.5 17.8-7.3a105 105 0 0 1 13.8-4.3c2.8-.5 5.5-1 6.2-1a44 44 0 0 1 8.9 5.1Zm153 21a381 381 0 0 1 19 12.9l10 7.4 1.4 4.3c.7 2.4 2.3 8.8 3.5 14.2a738.9 738.9 0 0 1 10 60 674.8 674.8 0 0 1 3.3 45.4 384.1 384.1 0 0 1-2.2 51 355.4 355.4 0 0 1-6.8 37.3c-1.1 4.7-3.4 12.6-5 17.6a48 48 0 0 1-3.8 10c-.5.5-4.6 2-9 3.2a603.3 603.3 0 0 1-47.2 9.6l-10.9 1.6-3-3a22.4 22.4 0 0 0-9.9-5.9l-1.8-.7 1.2-7a3828 3828 0 0 0 5.7-40 2099.2 2099.2 0 0 0 6.4-67.7 506 506 0 0 0 0-48.7 488.6 488.6 0 0 0-3.3-42.9 530.2 530.2 0 0 0-6.2-37l-1.7-8.7 4-.4a65.9 65.9 0 0 0 22.4-6c3.1-1.5 7-4 8.7-5.4a18 18 0 0 0 4.1-4.6c.6-1.2 1.4-2 1.7-2 .3 0 4.6 2.4 9.4 5.4ZM507 698.5c4.8.7 8.7 1.4 8.7 1.6 0 .2-2.3 2-5 4-2.8 1.8-7 5.1-9.3 7.3a24.7 24.7 0 0 1-4.5 3.6c0-.2-.6-4-1-8.4a94 94 0 0 0-1.4-9.2c-.3-.8 0-.9 1.7-.6 1.1.3 6 1 10.8 1.7Zm18.3 16.2a368 368 0 0 1 5.6 30.8c-.2.2-1.3-.5-2.6-1.5s-7-4.7-12.6-8.3c-5.7-3.6-11.7-7.7-13.3-9-1.7-1.4-3-3-3-3.7 0-.7 1.6-2.9 3.7-4.9a136.7 136.7 0 0 1 19-14.4c.3 0 1.7 5 3.2 11Zm-274-6a71 71 0 0 1 7.2 4.9l2.5 2-5.3 6.2a284.9 284.9 0 0 0-28.3 38.6 261 261 0 0 1-7.6 11.9l-1.6 2-8.2-4.2a61.7 61.7 0 0 1-8.3-4.7 703.3 703.3 0 0 1 27-39.4c3.8-5 9-11.6 11.7-14.7 2.6-3 5-5.5 5.5-5.5s3 1.3 5.5 2.9Zm9.6 22.9-9.2 11.1c-2 2.6-4 5.3-4.4 6.1-.5 1-.5 1.9 0 2.6.3.7 2.4 2.4 4.5 3.8s9.8 7.7 17 13.9a117 117 0 0 0 14.5 11.3c.6 0 2-.6 3.1-1.3 1-.7 5.2-4.8 9.2-9.3l9-10 1.7-2-3.6-4.3a213.7 213.7 0 0 0-23.6-21.8 89.3 89.3 0 0 0-7.6-5.9c-.8-.4-2.3-.8-3.2-.8-1.3 0-3.2 1.6-7.4 6.6Zm28.3 16.8c8 7.7 9 9 8.2 10a302.6 302.6 0 0 1-14.2 15.6c-.3 0-4.8-3.8-10-8.4-5.1-4.6-11.5-10-14.1-12.2a24.5 24.5 0 0 1-4.8-4.4 24 24 0 0 1 3-4.7c1.8-2.2 5.2-6.2 7.6-8.8l4.4-4.8 5.4 4.4c3 2.5 9.6 8.4 14.5 13.3Zm222.8-7.7a164 164 0 0 1 14.9 10.8c1.8 1.8 3 3.5 3 4.6 0 .9-.5 2.6-1.2 3.9-.6 1.2-2 3.3-3 4.6-1 1.3-4.8 5-8.5 8.1a420 420 0 0 0-10.9 9.6l-4 4-.4-7.8a4069 4069 0 0 0-3.3-46.2 2570.2 2570.2 0 0 1 13.3 8.4Zm156.6 14.6A521.9 521.9 0 0 1 686 784c1 2 1.7 4.2 1.5 4.9a27 27 0 0 1-4.2 5l-3.8 3.7-2.7-4.8a254 254 0 0 0-17-25.8 246 246 0 0 1-4.5-6.1l-1.5-2.2 4.2-6.2c2.4-3.3 4.4-6.1 4.6-6.1.2 0 3 4 6.2 9ZM535 783.6c.4 7.4.8 19.7.8 27.3v13.8l-3-3.4c-1.6-1.9-7.1-6.9-12.3-11a170 170 0 0 1-11.9-10.7 15.6 15.6 0 0 1-3-4.6c-.4-1.3 0-2.5 1.4-4.3 1.1-1.4 6.3-6.3 11.5-10.8 5.2-4.5 10.7-9.7 12.2-11.5l2.6-3.4.5 2.5c.2 1.4.8 8.7 1.2 16Zm-7.7 41.4a36 36 0 0 1 4 5.3c1 1.9.9 2.2-1 5-1 1.6-7 8-13.5 14.4-11 10.9-11.6 11.3-11.6 9.2a2643.2 2643.2 0 0 0-1.8-51l-.4-4.2 10.7 9c5.9 5 12 10.5 13.6 12.3Zm7.5 20.1a36393 36393 0 0 1-5.1 51.4l-.5 3-4.6-5.8-8.2-10a53.2 53.2 0 0 1-5.2-7.8c-1-2-1.7-4.6-1.7-6 0-1.3.3-3 .8-3.9a553.2 553.2 0 0 1 24.7-25.3l-.2 4.4ZM508 882.7c1.3 2 4.2 5.8 6.4 8.4 2.2 2.5 5.8 7 8 9.8 2.2 2.9 4 5.8 4 6.4 0 .6-5.4 6.5-12.1 13L502 932l.5-7.2c0-1.4.2-3.3.4-5.3l.7-11.1c.4-5.1.7-12.6.7-16.7a75.7 75.7 0 0 1 1.1-12.8l2.5 3.7Zm17.6 44a391.4 391.4 0 0 1-4.4 24.5c-.2.2-1.2.4-2.3.4h-5c-2.3-.2-3.4-.8-6.1-3.5-2.7-2.6-3.4-3.8-3.4-5.6 0-1.6.9-3.5 2.6-5.8 1.4-1.8 6.3-7 10.8-11.3 4.6-4.4 8.5-8 8.7-8 .2 0-.2 4.2-.9 9.4Zm-24.4 24c.3.4.1.7-.3.7s-.7-.3-.7-.7c0-.4.1-.7.3-.7.1 0 .5.3.7.7Zm111.5 7.5a38.3 38.3 0 0 1-6.7 18.3c-1.8 2.1-3.2 2.9-8 4.3a477.9 477.9 0 0 1-53 11.8c-.3 0-.4-5.8-.4-13l.1-12.9 11.3-1.6a619.6 619.6 0 0 0 48.2-9.7c3.1-1 6.3-1.7 7.1-1.6 1.3 0 1.4.6 1.4 4.4Zm-126 8.3a9.4 9.4 0 0 0-3.4 4.1 59 59 0 0 0-.9 11.8c0 5.1.2 9.9.4 10.5.3.7 1.3 1.1 2.9 1.1h2.4v-8.7c0-4.8.3-10 .7-11.4.6-2 1.1-2.6 2-2.5.6.2 1.6 1.1 2.1 2.2.5 1 1.2 4.5 1.6 7.8.4 3.2.7 7.4.7 9.2v3.4h2.8c2.8 0 2.9 0 2.8-2.7l-.6-10c-.4-4.2-1.2-8.4-2-10.2a16 16 0 0 0-2.8-4.3 8.9 8.9 0 0 0-3.9-1.6c-1.7-.3-3 0-4.8 1.3Zm34.9.3c-1.3.6-3.1 2.3-4 3.7-1 1.4-2 4.3-2.4 6.5-.4 2.1-1 6.8-1.3 10.4l-.4 6.6h5.6l.5-6.8c.3-3.7 1-8.4 1.7-10.4s1.8-4 2.5-4.4c.8-.5 1.4-.5 2 0 .4.5 1 2 1.4 3.6.3 1.5.6 6.2.6 10.4v7.6h5.7v-7.2c0-4-.3-9.3-.8-11.8-.5-3.2-1.3-5.2-2.6-6.6a8.5 8.5 0 0 0-4-2.4 8 8 0 0 0-4.5.8Z" clip-rule="evenodd"/>
  <path fill="#352B54" fill-rule="evenodd" d="M494.8 91.5a165.7 165.7 0 0 1 45.4-.6 191.7 191.7 0 0 1 33.5 8.4 218.8 218.8 0 0 1 31 15c4.4 2.7 11.7 7.6 16.2 11a227.7 227.7 0 0 1 31.9 30.4c3.4 4.1 7.8 9.8 9.8 12.5a131.5 131.5 0 0 1 14.5 25.5c1.6 3.8 3.7 10 4.7 13.8 1.7 6 1.9 8.2 1.9 18.9 0 8.5-.4 14-1.2 18.7a109.9 109.9 0 0 1-8.6 26.4l-2.7 5.1 3.7 7.8a179 179 0 0 1 9.3 24.3c.8 2.8 2 9 2.9 13.9 60.3-11.6 206-16.9 306.9 54.3V.5L0 0v369c24.7 38.3 108 106.1 243.3 71.4.2-1 1.8-4.3 3.6-7.3s5.6-8 8.4-11a68 68 0 0 1 10.3-8.8 71 71 0 0 1 11-5.6c4.8-2 7-2.4 13-2.6a50 50 0 0 1 15.2 1.5 123.1 123.1 0 0 1 12.4 3.1 812.1 812.1 0 0 0-7-30.4 59 59 0 0 0-3.6-10.2c-1-1.6-3-4.6-4.7-6.7a60.4 60.4 0 0 0-18-13.9 88 88 0 0 0-11.7-4.3 70 70 0 0 1-8.7-2.9 20.4 20.4 0 0 1-8.5-8.3c-.8-1.5-1.6-4.5-1.8-6.5-.3-2.7 0-5.2 1.1-9a58.6 58.6 0 0 1 9.4-17.7c1.6-2.1 6-6.9 9.6-10.6l6.7-6.8-6.8-4.4a82.1 82.1 0 0 1-10.7-8.3 36.6 36.6 0 0 1-5.7-7.5c-1-2-2-5.1-2.2-7-.2-2.5 0-4 1.3-6.4 1.4-2.6 2.7-3.8 7.4-6.4l10-6.2c2.4-1.7 7-5.3 10.4-8.2l20.7-18c8-7.1 20.6-17.8 28-23.8l28.9-24c8.6-7.3 19-15.8 23-19a448.7 448.7 0 0 1 31-21.1 293.2 293.2 0 0 1 34.8-17.8l12-4.4a276.8 276.8 0 0 1 32.7-8.4ZM257.5 148c1.6-19-4.4-33-8.4-33-7 0-10.2 21.8-10.5 33-10.8.8-32.5 4-32.5 10s21.7 9.1 32.5 10c.9 11 4.1 32.8 10.5 32.8s8.3-21.9 8.4-32.9c11.4-.8 34.2-4 34.2-10s-22.8-9.1-34.2-10Zm563 55.4a78.5 78.5 0 1 0 0-157 78.5 78.5 0 0 0 0 157Z" clip-rule="evenodd"/>
  <path fill="#4A428A" d="m241.5 446.3 1.8-6C108 475.2 24.7 407.4 0 369.2v221.4c40.1 25.4 172.1 62 379.1 4.6 1-3.7 2.9-9 4.3-11.8l2.5-5-4-5.6a320.5 320.5 0 0 1-22.9-37.9c-.1-.1-2.4 1.8-5 4.4a73 73 0 0 1-8 6.8 82.6 82.6 0 0 1-14.8 7.3c-2 .7-6.4 1.7-9.7 2.2-4.5.6-7.5.6-12.3 0a71 71 0 0 1-11.3-2.6 79.2 79.2 0 0 1-22.3-12 120.8 120.8 0 0 1-21.5-21.9 111.6 111.6 0 0 1-10.8-20c-1-2.8-2.5-7.7-3.2-11-.7-3.4-1.5-10-1.8-14.6a72.7 72.7 0 0 1 3.2-27Z"/>
  <path fill="#352B54" fill-rule="evenodd" d="M377 606.6c.2-2.6 1.2-7.8 2.1-11.5-207 57.3-339 20.8-379.1-4.6V994h141.8c-1.8 0-3.2-.2-3.2-.5l-1.4-14a426.5 426.5 0 0 1-3.6-55.7c0-11.2.3-19.5 1-25.3a183 183 0 0 1 2.6-14.5 264.9 264.9 0 0 1 21.6-57.3 437.4 437.4 0 0 1 23.4-42 1095 1095 0 0 1 41-61.5 318 318 0 0 1 27.4-32c4.6-4.6 11-10.5 14-13a116 116 0 0 0 10.4-9c2.5-2.4 9.4-7.7 15.2-11.7 6-4 16-10.4 22.4-14.3a558 558 0 0 1 32.3-17.1 981 981 0 0 1 26-12.5l5.5-2.3.5-4.7Zm-259.4 78.7c0-5.2-18.4-7.9-27.6-8.5-.5-9.2-2.8-27.5-8-27.5s-7.5 18.3-8 27.5c-9.1.6-27.5 3.3-27.5 8.5s18.4 7.1 27.5 7.5c.4 9.1 2.4 27.4 8 27.4s7.7-18.3 8-27.4c9.2-.4 27.6-2.3 27.6-7.5Zm0 83.4c0 2.8 10 4.2 15 4.5.1 5.2 1.4 15.5 5 15.5s4.5-10.3 4.5-15.5c5.5-.1 16.5-1.3 16.5-4.5s-11-4.3-16.5-4.5c-.2-5.3-1.3-16-4.5-16s-4.7 10.7-5 16c-5 .4-15 1.7-15 4.5Zm627.1 224.4c-.2.5-1.4.9-2.7.9h252V621.3C932.8 494.6 781.4 483 713.4 493.1a202.5 202.5 0 0 1-1.2 34.9 140 140 0 0 1-8.6 29.5 132 132 0 0 1-16.1 27.2 164.6 164.6 0 0 1-22.4 22.6 215 215 0 0 1-31 20.8 263.6 263.6 0 0 1-34.8 15c-5.1 1.6-12.8 3.9-17.1 5-4.3 1-8.6 1.8-9.5 1.8-1.7 0-1.7 0 .3 1.1 1.2.6 5.5 4 9.7 7.4A316 316 0 0 0 598 670a246 246 0 0 1 13.5 10.3 567.7 567.7 0 0 1 35.7 36.4 352.8 352.8 0 0 1 27.1 36.2 43.5 43.5 0 0 1 1-9.7 202 202 0 0 1 14-50.6c1.6-3.5 4.4-8.8 6-11.9a125.7 125.7 0 0 1 16.7-22.2 147.1 147.1 0 0 1 25.5-20.5 156 156 0 0 1 28.7-13.6c4-1.3 10.3-3 14-3.8 3.7-.8 10.5-1.8 15.3-2.2 6.4-.6 11-.6 17.4 0a137 137 0 0 1 17 2.8 93.6 93.6 0 0 1 26 10.5 47.4 47.4 0 0 1 17 17 53 53 0 0 1 3.3 8 41.8 41.8 0 0 1 0 19.3c-.6 2.1-2 5.6-3.2 7.8a36.1 36.1 0 0 1-13.4 13.4c-2.2 1.1-6 2.4-8.5 2.9-2.5.4-6.1.6-8.1.3l-16-2.2a102.5 102.5 0 0 0-36.7.4 81.2 81.2 0 0 0-21.3 11.5 74 74 0 0 0-16 18.4 196.8 196.8 0 0 0-26.6 61A389.7 389.7 0 0 0 720 823c-1.4 8.3-2.8 15.7-3.1 16.3-.4.6.3 3.7 1.8 8.1a512.7 512.7 0 0 1 20 85.6c1.6 9.2 3.4 21.1 4 26.6a402.1 402.1 0 0 1 2 33.5Zm128.7-111s-2.9-28.4-8.5-28.4-7.6 19-8 28.5c-9.5.7-28.5 3.3-28.5 8.5s18.7 7.8 28 8.5c.5 9.3 3 28 8.5 28 5.6 0 8-18.7 8.5-28 9.5-.3 28.6-2.5 28.6-8.5s-19-8.2-28.6-8.5Z" clip-rule="evenodd"/>
  <path fill="#756CBB" d="M865 853.7c5.5 0 8.4 28.5 8.4 28.5 9.5.3 28.6 2.5 28.6 8.5s-19 8.2-28.6 8.5c-.5 9.3-2.9 28-8.5 28s-8-18.7-8.5-28c-9.3-.7-28-3.3-28-8.5s19-7.8 28.5-8.5c.4-9.5 2.4-28.5 8-28.5Z"/>
  <path fill="#FEFFB9" d="M530.7 97a154 154 0 0 1 17.8 2.3 185 185 0 0 1 32 10.2 171.3 171.3 0 0 1 55.7 38.8c5.2 5.2 12.2 13.2 15.7 17.8a143.8 143.8 0 0 1 16.3 26 93.2 93.2 0 0 1 7.2 21.8 90 90 0 0 1-.2 27.5 90.2 90.2 0 0 1-13.5 36.5c-1.6 2.7-4.6 6-8 8.8a69 69 0 0 1-10 7 95 95 0 0 1-22 8 150.3 150.3 0 0 1-33.7 4 236.4 236.4 0 0 1-46-4.9l-19.1-3.6c-4.3-.8-9.9-1.2-19.2-1.2a110.4 110.4 0 0 0-45.8 8.6 174 174 0 0 0-13.8 6.4 177.1 177.1 0 0 0-27.4 18.2 192 192 0 0 0-14 13.2 131.2 131.2 0 0 0-21.8 30.5c-2 3.7-4.3 9.1-5.3 12a77.3 77.3 0 0 0-4.8 28.5c0 5 .4 11 1 13.9a46.5 46.5 0 0 0 7.2 17.5c1.4 1.9 2.4 3.7 2.2 4-.2.4 1.6 2.5 4 4.7a105.6 105.6 0 0 0 22 14.6c3.4 1.5 6.5 2.8 7 2.8.4 0 .7.3.7.5l-1.5 4.5c-1 2.6-1.6 6.2-1.9 10.7-.2 5 0 7.8.8 10.7a32 32 0 0 0 3.5 7.4c1.5 2.2 3.7 4.3 6.2 5.8 3 1.8 4.7 2.3 7.5 2.3 2 0 5-.5 6.8-1.1 1.8-.6 4.3-2 5.7-3.1 1.4-1.2 3.5-4 4.7-6.3a43.8 43.8 0 0 0 4.4-16.6c0-1.8.4-3.6.8-3.8.4-.3 2 .4 3.7 1.5 1.5 1.1 4 3.7 5.6 5.6a54.8 54.8 0 0 1 8.1 17.4 60 60 0 0 1-.7 27.3c-.9 4-2.7 11-4 15.6a63.8 63.8 0 0 0-2.6 17.4c-.3 6.8 0 10 .8 13.5a66 66 0 0 0 4 10.3 75.3 75.3 0 0 0 15.7 20.3 106.4 106.4 0 0 0 49 23.2 173.4 173.4 0 0 0 41.1 2.8 250.8 250.8 0 0 0 29.7-2.4 325.3 325.3 0 0 1-25.4 7.5 272 272 0 0 1-16.7 3.3 210.4 210.4 0 0 1-38 1.7 210 210 0 0 1-18.9-2.1 181.9 181.9 0 0 1-32-8.6 191 191 0 0 1-15-6.8 196 196 0 0 1-27.9-17.8A202.4 202.4 0 0 1 399 582c-3.2-4-8-10.4-10.9-14.4a367.9 367.9 0 0 1-20.8-33.9l-3.7-7.1 1.9-4.6a67 67 0 0 0 2.7-8.9 93 93 0 0 0 0-27.6 143.5 143.5 0 0 0-32.4-60.6c-7.2-7.5-7.3-7.7-8.1-12.2l-2.6-13.8c-1-5.1-2.8-12.3-4-16a98 98 0 0 0-4.7-11.7 93.8 93.8 0 0 0-5.1-8.9 72.4 72.4 0 0 0-25.3-21.5 72 72 0 0 0-10.3-3.7c-3.7-1-8-2.6-9.6-3.6-1.8-1-3.4-2.7-4.2-4.3a9.3 9.3 0 0 1-.8-5.6 40.8 40.8 0 0 1 6.9-16.1c1.9-2.9 7.3-9.2 12-14.2 5.5-5.9 8.6-9.9 9-11.2.2-1.4 0-2.7-.7-3.8-.6-1-3.6-3.2-6.8-5-3.1-1.9-7.4-4.7-9.5-6.3a27 27 0 0 1-8.2-8.8c-.4-.8-.8-2.5-.8-3.6s.6-2.5 1.2-3.1a197.8 197.8 0 0 0 18.5-12.6 563 563 0 0 0 20.5-17.6 1676.4 1676.4 0 0 1 40-34.3 1248 1248 0 0 0 22.8-19 602 602 0 0 1 24.5-20 370.1 370.1 0 0 1 40.5-26.5 256.8 256.8 0 0 1 32.7-14.7 222 222 0 0 1 30-7.8 170.8 170.8 0 0 1 25-2.7c1.4 0 6.9.2 12.1.6Z"/>
  <path fill="#4A428A" d="M711.5 483.7c.6 3.7 1.5 8 2 9.4 68-10 219.3 1.5 280.5 128.2V377c-100.9-71.2-246.6-65.9-307-54.3 1 5.8 1.6 14 1.9 23.8.3 11.6.1 17.8-.8 27l-1.4 13.8c0 1.7.3 1.8 21.1 7.2a260 260 0 0 1 22.2 6.3c.6.4 1 1.5 1 2.4 0 .9-.6 2.2-1.4 2.9-1 1-2 1.1-4.1.8l-2.7-.5-1.3 4a46 46 0 0 1-11.3 16.9 68.3 68.3 0 0 1-6.5 4.5c-2 1.2-4.8 2.5-6.3 3s-2.6 1.2-2.4 1.7l4.4 10.4a346 346 0 0 1 7.5 19.9c1.9 5.6 4 13.3 4.6 17Z"/>
  <path fill="#756CBB" d="M249.1 115c4 0 10 14 8.4 33 11.4.8 34.2 4 34.2 10s-22.8 9.1-34.2 10c-.1 11-2 32.8-8.4 32.8s-9.6-21.9-10.5-32.9c-10.8-.8-32.5-4-32.5-10s21.7-9.1 32.5-10c.3-11.1 3.5-33 10.5-33ZM90 676.8c9.2.6 27.6 3.3 27.6 8.5s-18.4 7.1-27.6 7.5c-.3 9.1-2.4 27.4-8 27.4s-7.6-18.3-8-27.4c-9.1-.4-27.5-2.3-27.5-7.5s18.4-7.9 27.5-8.5c.5-9.2 2.8-27.5 8-27.5s7.5 18.3 8 27.5Zm42.6 96.4c-5-.3-15-1.7-15-4.5s10-4.1 15-4.5c.3-5.3 1.8-16 5-16s4.3 10.7 4.5 16c5.5.2 16.5 1.3 16.5 4.5s-11 4.4-16.5 4.5c0 5.2-1 15.5-4.5 15.5-3.6 0-4.9-10.3-5-15.5Z"/>
  <path fill="#BDFEE9" fill-rule="evenodd" d="M302 413a97 97 0 0 1 8.6 2.5 57.7 57.7 0 0 1 18.6 12.2 131 131 0 0 1 8.8 8.7c2 2.3 5.8 7.9 8.3 12.5a154.7 154.7 0 0 1 13 29.5 67.6 67.6 0 0 1 3.9 21.6 50.5 50.5 0 0 1-6 23.5 60 60 0 0 1-6.5 8.1A65 65 0 0 1 332 544a74 74 0 0 1-8.2 2.8c-1.8.5-6.5 1-10.3 1-6 0-7.7-.3-12.7-2a85.3 85.3 0 0 1-11.3-5.3 105.8 105.8 0 0 1-23.5-19.7 102.8 102.8 0 0 1-14.4-23A96.5 96.5 0 0 1 248 487a67.9 67.9 0 0 1-.4-36 61 61 0 0 1 12.4-24 50.4 50.4 0 0 1 14.7-11.3c2-.9 5.3-2 7.5-2.7a46.7 46.7 0 0 1 19.9 0Zm-28.7 49.3a3 3 0 0 1-.2-2.3c.3-1 1.6-1.2 8-1.1 4.3 0 9.7.4 12.2 1a46.4 46.4 0 0 1 16.8 8.3c2.4 1.7 6.7 5.5 9.7 8.4 3 3 8.6 9.1 12.6 13.8 4 4.7 7.2 9 7 9.6-.1.9-1.5 1-8.3.8-6.2-.1-8.8 0-10.7.9-1.4.6-4.2 2.3-6.2 3.9-2.3 1.9-4 3.9-4.9 6-.8 2-1.7 3.3-2.5 3.3-.6 0-1.3-.5-1.6-1.1-.2-.6-.4-2-.4-3s.6-3.2 1.3-4.8a28 28 0 0 1 5-6.1 23.7 23.7 0 0 1 14.3-6.5 211.4 211.4 0 0 0-20.6-19.7 49.6 49.6 0 0 0-25.7-9.8c-3.4-.3-5.3-.8-5.8-1.6Zm395.3-171.1a186 186 0 0 1 10.5 31.7 194 194 0 0 1 2.2 14 216 216 0 0 1-.4 40l-1 10c0 .2-.5.3-1 .3a153.2 153.2 0 0 1-23.6-8.2 52.4 52.4 0 0 1-7.4-4.3c-1.2-1-3.1-3.3-4.3-5-1.7-2.4-2.6-3.1-4.1-3.1-1 0-2.3.4-2.8.8-.5.5-.9 1.7-.9 2.6 0 1 .7 2.8 1.5 4.1.8 1.3 3.2 4 5.4 5.9l4 3.5-1.3 5.5c-.9 3.8-1.1 7.1-.9 10.9a52 52 0 0 0 2 10 47.5 47.5 0 0 0 9.7 15.7 40 40 0 0 0 25.4 11.2l5 .4 3.8 9.6c2 5.3 5.3 14.2 7.3 20a217 217 0 0 1 5.7 21.2c1.8 9 2.2 12.6 2.3 20.5 0 5.3-.4 12-.9 15a136 136 0 0 1-13.3 39.7c-1.8 3.3-5 8.4-7 11.3-2 3-7.2 9-11.7 13.6a210.1 210.1 0 0 1-15 13.6 137.6 137.6 0 0 1-26.6 17.2 161 161 0 0 1-13 5.3 157 157 0 0 1-50.1 7.1 169 169 0 0 1-36-3.6 111.5 111.5 0 0 1-35.9-15.4A70.4 70.4 0 0 1 475 590a52.4 52.4 0 0 1-6-17.5c-.5-2.5-.4-6.3 0-9.4a136 136 0 0 1 2.8-13 713 713 0 0 0 3.9-15.2 62 62 0 0 0 1.8-17 54 54 0 0 0-1.4-15 44.5 44.5 0 0 0-11-20.3c-2.7-3-5.9-5.3-8.8-6.7l-4.4-2.2v-3.3c0-1.8.3-4.3.6-5.6a25 25 0 0 1 2.9-5.5c1.2-1.8 2.1-4 2.1-4.7 0-1 .4-1.4 1-1.1a41.3 41.3 0 0 0 33.7-4.4 47 47 0 0 0 13.4-14.7 48 48 0 0 0 3.4-8.6 48.5 48.5 0 0 0 0-19.7 52 52 0 0 0-3.6-9l-2.6-4.9 2-2.4a43 43 0 0 0 3.2-5.6c.7-1.6 1.4-3.8 1.4-4.8s-.6-2.4-1.4-3.1c-1.2-1-1.8-1.2-3.2-.5-1 .4-2.5 2.3-3.6 4.7-1 2.1-3.3 5.3-5 7.1a77.7 77.7 0 0 1-9.8 7.5 567.2 567.2 0 0 1-33.5 17.8c-14.8 7.5-27.5 14-28.2 14.7-.7.6-1.3 1.6-1.3 2.2 0 .7.7 1.8 1.5 2.5 1.3 1.3 1.5 1.3 5.3-.2l4-1.4.6 1.7a42.4 42.4 0 0 0 9 12.4l2.8 2.5-5.3 1.7a46.3 46.3 0 0 0-19 12.5c-1.8 2-3.7 3.8-4.2 3.8s-4.1-1.6-8-3.5a77.2 77.2 0 0 1-20.5-14.3 63.3 63.3 0 0 1-10.2-20.2 61 61 0 0 1-1.1-24.4 106.5 106.5 0 0 1 33.2-60.9 162 162 0 0 1 11.6-10.5 160.4 160.4 0 0 1 28.4-18c4.7-2.3 11.6-5.1 15.3-6.4a93.7 93.7 0 0 1 31.3-5.5c8.5-.3 13.3 0 18 .7l19.6 3.6c7.2 1.4 17.6 3 23 3.6a182 182 0 0 0 39.8 1.1 177.5 177.5 0 0 0 32.8-6.5c3.8-1.2 9.3-3.2 12.2-4.6a96.2 96.2 0 0 0 19-12.3 7 7 0 0 1 2.6-2.1 25 25 0 0 1 3.5 6.2Zm-63.2 133a49 49 0 0 1 7.5-4.1c1.5-.6 4.2-.9 6-.8 2.3.2 4.2 1 5.8 2.2 1.4 1 3.1 3.2 4 4.9 1 2.2 1.4 4.4 1.4 7.7 0 2.9-.5 5.5-1.3 7.4-.7 1.5-2.5 4.1-4 5.8a45 45 0 0 1-16.2 11c-2.6 1-4 1.9-4 2.6 0 .6 1 5.6 2.4 11a330.6 330.6 0 0 1 6.4 33.2c.6 4.3 1.1 8 1.3 8.1.2.2 1.6-.2 3-.9a38 38 0 0 1 22.8-2.1c2 .6 5.4 2 7.5 3a36.8 36.8 0 0 1 12.2 11.7c1.7 2.4 2.6 4.7 2.6 6.1 0 1.6-.4 2.6-1.4 3-1 .6-1.8.6-2.8 0a17 17 0 0 1-3.8-4.4 42 42 0 0 0-6.1-7c-2.9-2.6-5-3.8-8.8-5-3.8-1.1-6-1.4-9.7-1-2.5.2-6.5 1-8.7 1.8a49 49 0 0 0-8.8 5 84 84 0 0 0-17.8 18.1 199 199 0 0 0-7 11.7 138 138 0 0 1-4.8 8.4c-.4.5-1.8.8-3 .7-1.6-.1-2.3-.7-2.8-2-.6-1.7 0-3 3.5-9.3a97 97 0 0 1 17.7-24.4c3.5-3.6 7.5-7.2 8.9-8.2l2.4-1.8-.9-6.7a585.9 585.9 0 0 0-7.6-40.7 76 76 0 0 0-2-7.4c-.2-.1-4-.2-8.4-.2s-11-.4-14.9-1a35.4 35.4 0 0 1-17.8-6 24.9 24.9 0 0 1-5-5.1 10.7 10.7 0 0 1-1.9-7c0-2.3.3-5 .8-6.1a16.8 16.8 0 0 1 8-8.1c2.2-1 4.6-1.4 9.4-1.4 3.6 0 8.9.5 11.6 1 2.8.7 7.2 1.3 9.9 1.6 3.8.3 5.3.2 7.2-.8l7.2-4.4Zm19.3 116c.6-1 2.5-2.2 4.2-2.8a23 23 0 0 1 6-1.1c1.8 0 3.4.3 4 1 .7.6 1.2 1.5 1.2 2 0 .4-.3 1.3-.7 1.8-.3.6-2.8 1.6-5.5 2.3a43 43 0 0 1-6.7 1.3c-1.3 0-2.2-.5-2.8-1.4-.6-1.2-.5-1.9.3-3.2Z" clip-rule="evenodd"/>
  <path fill="#fff" d="M663.5 390.2a505 505 0 0 0 26.3 7.3 1545.9 1545.9 0 0 1 24.4 6.3c1.7.4 1.9.7 1.5 2.4-.3 1-1.6 4-3 6.7a31.8 31.8 0 0 1-14.6 14 44.1 44.1 0 0 1-9.1 3c-4 .6-6.1.6-10.1 0a33.9 33.9 0 0 1-27.5-27.7 35.3 35.3 0 0 1 1.3-15.2c.2-.4.9-.4 1.5-.1l9.3 3.3Zm-163.8 9.9a35.2 35.2 0 0 1 4 15.3c0 2-.3 5.3-.8 7.4-.4 2-1.9 6-3.3 8.6a32.2 32.2 0 0 1-14.6 14 43 43 0 0 1-9.2 2.9c-3.9.7-6 .7-10 0a33.4 33.4 0 0 1-18.2-9.3 42.3 42.3 0 0 1-5.9-7.6l-2-3.7 23.3-11.8a421.6 421.6 0 0 0 34.1-18.7c.5 0 1.7 1.3 2.6 3Z"/>
  <path fill="#FF9FAB" d="M620.8 425.9c.8.6 2 2 2.6 3.1.6 1.2 1 3.5 1 5.2 0 2.3-.5 4-2.1 6.4a27.4 27.4 0 0 1-4.8 5.4c-1.4 1-4.2 3-6.2 4.2-2 1.2-6 3-9.2 4-4.7 1.7-7 2-12.8 2a59.4 59.4 0 0 1-24.2-4.4c-2.8-1.3-5.1-3-6.4-4.7a8.5 8.5 0 0 1-2-5.4c0-1.6.6-3.5 1.4-4.6a15 15 0 0 1 11.3-5.2c2 0 7.3.6 11.8 1.5 5 1 9.6 1.3 12.1 1.1 2.4-.2 5.7-1.2 8.2-2.4l9-4.7c2.7-1.4 5.7-2.6 6.8-2.6 1 0 2.6.5 3.5 1Z"/>
  <path fill="#FFD7EC" d="M819.5 626a102 102 0 0 1 25 7.5 54.2 54.2 0 0 1 17.9 12.5c1.7 1.9 4 5.4 5.1 7.8a27.6 27.6 0 0 1 2.6 16.7 36 36 0 0 1-2.3 8 28.4 28.4 0 0 1-9.5 11.3c-1.5.9-3.8 2-5.3 2.5s-4.7.9-7.2.9-9.7-1-16.1-2c-9.3-1.6-14-2-23-2-10.4 0-12 .2-17.8 2a81 81 0 0 0-11.5 4.4 80.1 80.1 0 0 0-21 16 134.4 134.4 0 0 0-20 29.8 240 240 0 0 0-15 37.3 283.3 283.3 0 0 0-8.2 38.2c-1.1 6.8-1.8 9.4-2.2 8.5l-5.2-12.7a333.2 333.2 0 0 0-21-42.6c-4-6.6-6-10.4-5.6-11 .3-.6 1-5.2 1.7-10.2a211 211 0 0 1 8.3-37.8 129 129 0 0 1 18.4-37.2c2.8-3.7 7-8.8 9.4-11.2a137.3 137.3 0 0 1 45.9-30c3-1.2 7.8-2.8 10.7-3.6a110.3 110.3 0 0 1 45.8-3.1Z"/>
  <path fill="#CEF0FF" d="M448.4 457c-.8.8-2 3-2.6 4.7-.8 2.2-1.4 7.1-1.8 15.6a68 68 0 0 1-2.1 17.4 17 17 0 0 1-4.2 7.5c-2 2-3.4 2.8-5.9 3.1a9 9 0 0 1-5-.3c-.8-.5-2.5-1.7-3.5-2.7-1.1-1-2.6-3.5-3.4-5.6-.9-2.4-1.4-5.6-1.4-8.2a33 33 0 0 1 3.1-14 48 48 0 0 1 9.9-12c1.6-1.3 5.2-3.5 7.9-4.8 3-1.5 6-2.4 7.8-2.4h2.8l-1.6 1.6Z"/>
  <path fill="#E1EAF4" d="M396 590.5c2.7 3.1 7 7.9 9.6 10.6a198.2 198.2 0 0 0 28.8 24 206 206 0 0 0 38 18.9 211.2 211.2 0 0 0 32 7.7c6.5 1 12.2 1.3 27.4 1.2 13 0 21.3-.4 26-1.1 6-1 7-1 7.3 0a65.3 65.3 0 0 1-.6 27.7c-.6 1.1-2.6 3.2-4.5 4.5a60 60 0 0 1-7 4.3c-1.9 1-5.6 2.4-8.3 3.3a76.4 76.4 0 0 1-28.4 2.2 185 185 0 0 1-14.7-1.8 178.8 178.8 0 0 1-49.9-17.5 235 235 0 0 1-19.1-11 271 271 0 0 1-14.8-10.7c-3.7-3-10-8.6-14-12.6a101.9 101.9 0 0 1-18.2-23.6c-2.1-4-2.7-5.8-2.7-8.9a57.4 57.4 0 0 1 5.4-20.9c1-1.7 2.1-3 2.4-2.6l5.4 6.3Z"/>
  <path fill="#FFD9B8" d="M598.7 700.2c-5.6-4.1-14-10-18.9-13-4.8-3-9-5.5-9.4-5.5-.3 0-1 1-1.7 2-.5 1.2-2.4 3.3-4 4.7a50.2 50.2 0 0 1-20.9 9.6c-3.5.8-8.1 1.6-10.3 1.8l-4 .4 1.7 8.7a982 982 0 0 1 6.2 37 488.6 488.6 0 0 1 3.4 42.8c22.3 1.8 70.7 9 85.3 24a359.6 359.6 0 0 0-2.4-26.7 506.8 506.8 0 0 0-13.5-74l-1.4-4.4-10-7.4ZM442 675.7c-4.2-2.3-11-6.5-15.2-9.4a44 44 0 0 0-9-5.1l-6 1c-2.8.5-9 2.4-14 4.3a452.8 452.8 0 0 0-35.1 15.4 332.7 332.7 0 0 0-36.7 21.3c-11.6 7.6-12 7.9-11 9.3l4.5 7a157 157 0 0 1 17.6 46.1 219.1 219.1 0 0 1 4.4 31.8c.3 6.3.2 9.7-.4 11.6-.3 1-1.9 3.3-4 6 40.4-10.7 129-31 159.8-26.2a2006.1 2006.1 0 0 0-2.5-33.6l-1.3-14.6c-.4-3.7-1-12.2-1.5-18.8-.4-6.6-1.3-15.4-2-19.4l-1.2-7.3-10.3-3.4a229.9 229.9 0 0 1-36.2-16Z"/>
  <path fill="#CEF0FF" d="M401.2 645.3c9.8 9.7 10 10.1 8.2 10.5l-6.7 1.8c-2.6.8-9 3.2-14.2 5.4a501.7 501.7 0 0 0-42.5 20.9c-4.9 2.8-12.5 7.5-17 10.4a218 218 0 0 0-12.6 8.8 26.7 26.7 0 0 1-5 3.5c-.4 0-2.3-2-4.3-4.5a143.3 143.3 0 0 0-18.2-18l-2.7-2.3 7-5.1a347.7 347.7 0 0 1 71.6-39.7 483 483 0 0 1 14.6-5.4l6.7-2.4 2.5 3c1.3 1.7 7 7.6 12.6 13.1Z"/>
  <path fill="#FFD9B8" d="m380.6 620.3 1.6 3.1-1.6.5a388 388 0 0 0-76.5 38.3 372.6 372.6 0 0 0-22.8 16 7 7 0 0 1-2.2-1.5l-1.6-1.4 1.7-1.4 9.7-7.7a256.6 256.6 0 0 1 54.6-33.1 738.9 738.9 0 0 1 34.8-16c.5 0 1.5 1.4 2.3 3.2Z"/>
  <path fill="#FFD7EC" d="M251.5 708.7a71 71 0 0 1 7.1 4.9l2.5 2-5.3 6.2a284.9 284.9 0 0 0-28.3 38.6 261 261 0 0 1-7.6 11.9l-1.6 2-8.2-4.2a61.7 61.7 0 0 1-8.3-4.7 703.3 703.3 0 0 1 27-39.4c3.8-5 9-11.6 11.7-14.7 2.6-3 5-5.5 5.5-5.5s3 1.3 5.5 2.9Z"/>
  <path fill="#FEFFB9" d="M289.3 748.4c8 7.7 9 9 8.2 10a302.6 302.6 0 0 1-14.2 15.6c-.3 0-4.8-3.8-10-8.4-5.1-4.6-11.5-10-14.1-12.2a24.5 24.5 0 0 1-4.8-4.4 24 24 0 0 1 3-4.7c1.8-2.2 5.2-6.2 7.6-8.8l4.4-4.8 5.4 4.4c3 2.5 9.6 8.4 14.5 13.3Z"/>
  <path fill="#FFD7EC" d="M668.7 755.3A521.9 521.9 0 0 1 686 784c1 2 1.7 4.2 1.5 4.9a27 27 0 0 1-4.2 5l-3.8 3.7-2.7-4.8a254 254 0 0 0-17-25.8 246 246 0 0 1-4.5-6.1l-1.5-2.2 4.2-6.2c2.4-3.3 4.4-6.1 4.6-6.1.2 0 3 4 6.2 9Zm-43.5 209.2 9.2-4.3V931l-3-7.6a260 260 0 0 1-4-10.5l-1-2.8-2.4 10.2c-1.3 5.6-3.7 14.3-5.3 19.4-2.4 7.8-2.7 9.4-1.9 10 .6.4 1.4 1.4 1.9 2.3.4.9.8 3.3.8 5.4a30.4 30.4 0 0 1-2.1 10.9l7.8-3.7Z"/>
  <path fill="#CEF0FF" d="m354.2 992.8 9.2 1 108.6.2c-2.7 0-3-.2-3.7-2.2a51 51 0 0 1-.8-11V972h-9a979.3 979.3 0 0 1-77.7-4c-5.6-.5-15-1.6-20.6-2.4a569.3 569.3 0 0 1-46.7-9.1c-3.9-1-5.3-1.2-5.8-.5-.4.4-1 2.9-1.4 5.4a65.6 65.6 0 0 0-.3 16c.4 3.3.5 3.3 4.8 5.3 2.4 1 6.4 2.6 8.8 3.4a267.8 267.8 0 0 0 34.6 6.7Zm258.5-34.6a38.3 38.3 0 0 1-6.7 18.3c-1.8 2.1-3.2 2.9-8 4.3a477.9 477.9 0 0 1-53 11.8c-.3 0-.4-5.8-.4-13l.1-12.9 11.3-1.6a619.6 619.6 0 0 0 48.2-9.7c3.1-1 6.3-1.7 7.1-1.6 1.3 0 1.4.6 1.4 4.4Z"/>
  <path fill="#E1EAF4" d="M525.4 714.7a368 368 0 0 1 5.6 30.8c-.2.2-1.3-.5-2.6-1.5s-7-4.7-12.6-8.3c-5.7-3.6-11.7-7.7-13.3-9-1.7-1.4-3-3-3-3.7 0-.7 1.6-2.9 3.7-4.9a136.7 136.7 0 0 1 19-14.4c.3 0 1.7 5 3.2 11Zm-13.4 26a164 164 0 0 1 15 10.8c1.8 1.8 3 3.5 3 4.6 0 .9-.5 2.6-1.2 3.9-.6 1.2-2 3.3-3 4.6-1 1.3-4.8 5-8.5 8.1a420 420 0 0 0-10.9 9.6l-4 4-.4-7.8a4069 4069 0 0 0-3.3-46.2 2570.2 2570.2 0 0 1 13.3 8.4Zm22.9 42.9c.4 7.4.8 19.7.8 27.3v13.8l-3-3.4c-1.6-1.9-7.1-6.9-12.3-11a170 170 0 0 1-11.9-10.7 15.6 15.6 0 0 1-3-4.6c-.4-1.3 0-2.5 1.4-4.3 1.1-1.4 6.3-6.3 11.5-10.8 5.2-4.5 10.7-9.7 12.2-11.5l2.6-3.4.5 2.5c.2 1.4.8 8.7 1.2 16Zm-7.7 41.4a36 36 0 0 1 4 5.3c1 1.9.9 2.2-1 5-1 1.6-7 8-13.5 14.4-11 10.9-11.6 11.3-11.6 9.2a2643.2 2643.2 0 0 0-1.8-51l-.4-4.2 10.7 9c5.9 5 12 10.5 13.6 12.3Zm7.5 20.1a36393 36393 0 0 1-5.1 51.4l-.5 3-4.6-5.8-8.2-10a53.2 53.2 0 0 1-5.2-7.8c-1-2-1.7-4.6-1.7-6 0-1.3.3-3 .8-3.9a553.2 553.2 0 0 1 24.7-25.3l-.2 4.4ZM508 882.7c1.3 2 4.2 5.8 6.4 8.4 2.2 2.5 5.8 7 8 9.8 2.2 2.9 4 5.8 4 6.4 0 .6-5.4 6.5-12.1 13L502 932l.5-7.2.4-5.3.7-11.1c.4-5.1.7-12.6.7-16.7a75.7 75.7 0 0 1 1.1-12.8l2.5 3.7Zm17.6 44.1a391.4 391.4 0 0 1-4.4 24.4c-.2.2-1.2.4-2.3.4h-5c-2.3-.2-3.4-.8-6.1-3.5-2.7-2.6-3.4-3.8-3.4-5.6 0-1.6.9-3.5 2.6-5.8 1.4-1.8 6.3-7 10.8-11.3 4.6-4.4 8.5-8 8.7-8 .2 0-.2 4.2-.9 9.4Z"/>
  <path fill="#CEF0FF" d="M474.9 992.8c.5 1 .1 1.2-2.7 1.2h13.5c-1.6 0-2.6-.4-2.9-1.1a89 89 0 0 1 .6-22.3 9.4 9.4 0 0 1 3.3-4.1c1.8-1.3 3-1.6 4.8-1.3 1.4.2 3 1 3.9 1.6.8.7 2 2.6 2.8 4.3.8 1.8 1.6 6 2 10.3l.6 10c0 2.6 0 2.6-2.8 2.6h15.5l.4-6.6c.3-3.6.9-8.3 1.3-10.4.4-2.2 1.4-5 2.3-6.5 1-1.4 2.8-3 4-3.7a8 8 0 0 1 4.6-.8c1.2.2 3 1.2 4 2.4 1.3 1.4 2 3.4 2.6 6.6.5 2.5.8 7.8.8 11.8v7.2h3l1-2.5c.7-1.7 1-5.1 1-11.1 0-4.8-.3-10-.8-11.6-.4-1.6-1.9-4-3.3-5.5a20 20 0 0 0-5.8-3.8c-2.6-1-7-1.2-22.4-1.5-18.8-.4-19.3-.3-23 1.2a22 22 0 0 0-5.4 3.6c-.9 1.2-2.2 3.7-2.9 5.7-1 3-1.1 5.5-.9 13.3.2 5.4.6 10.3.9 11Z"/>
  <path fill="#fff" d="M499.2 853.1a1401.1 1401.1 0 0 0-2.3-64.3c-30.8-4.7-119.4 15.5-159.8 26.2-1.2 1.5-2.5 3.2-4 4.8a857.6 857.6 0 0 0-16.5 20c-5.2 6.6-12 14.8-15.3 18.4-3.1 3.6-5.6 7-5.4 7.5.2.5 2 10.6 4 22.4 2 11.9 4.2 24.6 5 28.4.7 3.8 2.7 12.7 4.3 20 2.8 12 3.2 13 4.8 13.6a628.8 628.8 0 0 0 34 7.6 467.3 467.3 0 0 0 46 6.1 804 804 0 0 0 56.2 3l17.9.4 1.5-3c.9-1.8 2.4-4.2 3.3-5.5a23.1 23.1 0 0 1 15.8-7l5.6-.5.5-4a1808 1808 0 0 0 4-48c.5-9.2.7-25.3.4-46Zm127.4 5.7a384.1 384.1 0 0 0-.5-46.1c-14.6-15-63-22.2-85.3-24a768 768 0 0 1 0 48.8 1300.8 1300.8 0 0 1-12.2 107.8l-1.2 7 1.8.6 4.4 1.8c1.5.6 4 2.5 5.6 4.1l3 3 10.8-1.6a603.3 603.3 0 0 0 47.2-9.6c4.4-1.2 8.5-2.7 9-3.2.6-.6 2.3-5 3.9-10a540 540 0 0 0 5-17.6 354.3 354.3 0 0 0 6.7-37.2c.6-5.3 1.4-16 1.8-23.8Z"/>
  <path fill="#fff" d="m638.2 923.7 2 4.6.3 65.7H742c-2.1 0-2.4-.2-2.7-2.7a201 201 0 0 1-1.2-14.3 373.5 373.5 0 0 0-5.4-43l-4.2-24.1a447.8 447.8 0 0 0-37-115.3c-.1-.1-2.6 2-5.6 4.8a26 26 0 0 1-6.6 5.1c-.7 0-1.8-.4-2.4-.9-.7-.5-3-4-5.2-8a298.9 298.9 0 0 0-18.1-27.3c-2.2-3-4.4-6-4.9-6.9-.4-.8-.8-2.2-.8-3 0-.8 2.4-5 5.3-9.3 3-4.3 5.4-8 5.4-8.3 0-.3-2.7-4-6-8.3a370.2 370.2 0 0 0-35.5-39.3c-5-4.8-9.2-8.7-9.4-8.5a248 248 0 0 1 6.4 20.4 379.6 379.6 0 0 1 9.7 43.3l2.8 16.7a852.2 852.2 0 0 1 5 54.3 398.8 398.8 0 0 1-1.9 68.2l-1.2 11 3.8 10.3c2 5.6 4.7 12.3 5.9 14.8Z"/>
  <path fill="#fff" fill-rule="evenodd" d="m144.6 991.7.4 2.3h147.4c-2.4 0-3.2-.3-3.5-1.2l-1.5-7.3a319 319 0 0 0-8.5-33.4 586.2 586.2 0 0 0-11.1-33.8c-.8-2-.7-2.6 2-7.5 1.6-2.9 3.6-7.2 4.4-9.6a33 33 0 0 0 1.5-8.5c0-2.5-.7-6-1.8-9-1.4-4.1-1.6-5.2-.8-6.8a37 37 0 0 1 6.5-6.9 320.4 320.4 0 0 0 33.6-35.8c6-7.3 13.3-16.2 16.5-19.8l5.7-6.4v-8a147.4 147.4 0 0 0-5-35.6c-1.1-4.7-3.2-11.9-4.6-16a190 190 0 0 0-7.8-18 120.9 120.9 0 0 0-44-49.1c-2-1-2.1-1-5 1.2a231 231 0 0 0-11.2 10.5l-8.4 8.1 3.8 2.5c2 1.3 5.8 4 8.4 6 2.6 1.9 5 4 5.2 4.8.2.7-.2 2.5-1 4-.7 1.5-2.2 3.5-3.3 4.5l-6.7 7.4c-2.6 3.2-7.3 9-10.4 13.2-3 4-8.7 12.4-12.6 18.4-3.8 6-8.1 12.5-9.5 14.4a13.3 13.3 0 0 1-4 3.8c-1.2.2-4.3-1-10.6-4.3-5-2.6-9.4-4.7-10-4.7-.4 0-3.5 4.3-6.7 9.5s-9.2 15.3-13.3 22.5a505 505 0 0 0-23.4 46.8 218.6 218.6 0 0 0-14.7 50.7 449.8 449.8 0 0 0 2.2 74.9l1.8 16.2Zm107.2-249 9.2-11.1c4.2-5 6-6.6 7.4-6.6 1 0 2.4.4 3.2.8a289.4 289.4 0 0 1 31.2 27.7l3.6 4.2-1.7 2-9 10.1c-4 4.5-8.1 8.6-9.2 9.3-1 .7-2.5 1.3-3.1 1.3-.7 0-7.2-5.1-14.4-11.3a343 343 0 0 0-17.1-13.9 20.3 20.3 0 0 1-4.5-3.8c-.5-.7-.5-1.7 0-2.6.4-.8 2.4-3.5 4.4-6Z" clip-rule="evenodd"/>
  <path fill="#352B54" d="M295.6 993c0 .7-1 1-3.2 1h4.7l1.6-4.4 2.2-5.6c.2-.7.1-1.4-.3-1.7-.5-.3-.8-4.4-.8-11.3 0-7.8.3-11.9 1.2-14.6.6-2 1.9-4.6 2.9-5.6 1.7-1.7 1.8-2 1-5.7l-3.6-17.5c-1.5-7.4-4.4-22.9-6.4-34.4s-3.9-21.5-4.2-22.2c-.4-1.2-1.1-.7-5.4 3.2l-4.8 4.5 1.2 6.7c.8 4.5 1 8.1.8 10.8a45.3 45.3 0 0 1-5.7 16.7l-2.5 4.7 2.5 6.7a713.2 713.2 0 0 1 13.8 45.7 438.3 438.3 0 0 1 5 23Zm302.9-2.9-1.2 3.9h38l-.4-7.6c-.2-2.6-.3-9.5-.4-17.6l-6.3 2.7a246 246 0 0 1-9.9 4.3 17 17 0 0 1-4.7 1.4c-.2-.1-1.2 1-2.2 2.5a12.3 12.3 0 0 1-5.3 4.2l-4.8 1.9c-1.1.3-2 1.6-2.8 4.3Z"/>
  <path fill="#CEF0FF" d="M586.5 669c5.8 5 11.3 9.8 12 11 .9 1.3 2.9 5.6 4.5 9.8 1.7 4.1 3 7.8 3 8.2 0 .4-2.5-1.2-5.5-3.5-3-2.2-9-6.5-13.5-9.5-4.3-3-9.7-6.3-11.9-7.3-3.6-1.6-3.9-1.9-3.4-3.7.3-1 .5-5.1.5-9v-7.3l1.8 1.3 12.5 10Z"/>
  <path fill="#fff" d="m304.9 990.8-.8 3.2 24.6-.2a64.5 64.5 0 0 1-18.1-4.7c-1.6-.8-3.3-1.5-3.9-1.5-.6 0-1.3 1.3-1.8 3.2Z"/>
  <path fill="#CEF0FF" d="M488 985.3v8.7h7.2v-3.4c0-1.8-.3-6-.7-9.2-.4-3.3-1-6.8-1.6-7.8-.5-1-1.5-2-2.1-2.2-.9-.1-1.4.6-2 2.5a69 69 0 0 0-.7 11.4Zm31.6 1.9-.5 6.8h8.8v-7.6c0-4.2-.4-8.9-.7-10.4-.4-1.5-1-3.1-1.4-3.5-.6-.6-1.2-.6-2 0-.7.3-1.8 2.3-2.5 4.3s-1.4 6.7-1.7 10.4Z"/>
  <path fill="#fff" d="m579.6 991.1-12.4 2.9h23.2l1.1-2.6c.6-1.4 1-2.7.8-2.8-.2-.2-6 1-12.7 2.5ZM899 125a78.5 78.5 0 1 1-157-.1 78.5 78.5 0 0 1 157 0Z"/>
</svg>
