<svg xmlns="http://www.w3.org/2000/svg" fill="none" viewBox="0 0 994 994">
  <g clip-path="url(#a)">
    <path fill="#FFD7EC" d="M0 0h994v994H0z"/>
    <path fill="#000" fill-rule="evenodd" d="M484.7 180.7a322 322 0 0 0-18 2.4 997 997 0 0 0-29 5.4c-9.6 2-21.1 4-25.6 4.6-5.5.8-17.4 1.3-37 1.6-23.5.5-29.1.8-31.2 1.7a15 15 0 0 0-4.5 3.5c-2 2.2-2 2.6-1.6 7.5.3 3.8 1 6.4 2.7 10a43 43 0 0 0 10.1 12.5l7.8 7.7-2 1.7c-1 .9-4.6 3.3-8 5.4a389.7 389.7 0 0 0-52.2 37.7 119 119 0 0 0-11.3 10.7c-2 2.3-4.5 6-5.6 8.3a16 16 0 0 0-.7 14c.7 1.4 2.2 3.4 3.3 4.5 1.1 1 4 3 6.3 4.5 2.4 1.4 5.7 4 7.3 5.6a44 44 0 0 1 10.6 17.4c1.3 3.3 3.8 10.9 5.6 16.7a762.6 762.6 0 0 1 11.7 46c0 1.2-.2 1.2-2.4.3a126 126 0 0 0-9.8-2.7 61.6 61.6 0 0 0-15.5-1.6c-7.5 0-8.7.2-14 2.3a67.6 67.6 0 0 0-19 12 70.3 70.3 0 0 0-11.2 15.5 77 77 0 0 0-3.9 9.2 88 88 0 0 0-2.7 11 93.6 93.6 0 0 0 2.2 37.5 94.2 94.2 0 0 0 11 23.2 115.5 115.5 0 0 0 33 30.5c3 1.8 8.7 4.3 12.4 5.5a39 39 0 0 0 16.3 2.3 41 41 0 0 0 14.9-1.6c3-1 7-2.5 8.9-3.5a66.6 66.6 0 0 0 16.2-11.7c2.3-2.3 4.2-4.1 4.3-4l4.2 7.7 5.8 10.4 1.8 3-3.7.4a56.6 56.6 0 0 0-26.5 10.7 69.8 69.8 0 0 0-23.1 31 154.7 154.7 0 0 0-9.4 32.4c-1.3 7.5-1.7 8.7-2.9 8.7a170.9 170.9 0 0 0-26.5 6 124 124 0 0 0-37.2 20.8A134 134 0 0 0 226 687a106.7 106.7 0 0 0-16.7 37c-.6 3-1.4 7.5-1.6 10.2l-.5 4.8-8.5 4.3a181 181 0 0 0-14.6 8.3 103 103 0 0 0-30.3 31.6 97 97 0 0 0-6 12 115.8 115.8 0 0 0-4.6 65.1l1.6 6.5-4.9 4.6a77.6 77.6 0 0 0-9.2 11 139.6 139.6 0 0 0-13.6 27.8 77 77 0 0 0-4.2 26c0 7.3.3 11.3 1.6 17a149.8 149.8 0 0 0 10.4 29.7l3.3 6.6-2.3 2.4-2.4 2.5h4.6c4.4 0 5-.2 9.3-3.1 2.5-1.7 7-4 9.9-5.1 2.8-1.1 5.8-2.6 6.5-3.2 1-.8 1.2-1.7.9-2.7a3.3 3.3 0 0 0-2.2-2c-1-.2-3.5.2-5.8.8-2.2.7-6 2.1-8.2 3.3-2.3 1.1-4.5 1.9-4.9 1.7-.3-.3-1.7-2.6-3-5.3a123.7 123.7 0 0 1-9-26.6 74.4 74.4 0 0 1 3-40.8 118.5 118.5 0 0 1 15.3-28.7c1.8-2.3 5.5-6 8.4-8.3a31 31 0 0 1 10-5.7 42 42 0 0 0 6.5-2.6c.8-.5 1.5-1.6 1.5-2.3 0-.8-.5-2-1.1-2.6-.9-.8-1.9-1-3.8-.7a55 55 0 0 0-6.4 1.9l-4 1.2-1.2-4.8a96.7 96.7 0 0 1-2.4-26.6c.2-5.7 1-13.1 1.9-17.3.8-4 2.3-9.5 3.3-12.4a105.3 105.3 0 0 1 11.5-22.2 96.8 96.8 0 0 1 20.4-20.1c3.5-2.5 9.5-6 13.4-8 4-2 9-3.9 11.3-4.3 3.3-.7 5.2-.6 10 .4 3.3.6 6.7 1.1 7.5 1.1.9 0 1.7-.6 2-1.6.4-.9.4-2 0-2.7-.3-.7-2.6-1.9-5-2.7-2.5-.8-5.7-1.6-7.1-1.9-2.2-.4-2.7-.8-2.7-2a114.5 114.5 0 0 1 10.8-36c2-4 5.6-9.9 8-13a120.6 120.6 0 0 1 34.3-29.8l4.8-2.8 4.6 1.2a92.3 92.3 0 0 1 24.6 11.8 95.6 95.6 0 0 1 18.8 17.6c2.1 2.7 3.4 3.7 4.4 3.6a4 4 0 0 0 2.1-1.4c.6-1 .5-1.7-.1-3a78.6 78.6 0 0 0-16.4-17.7 93.5 93.5 0 0 0-22.4-13.5l-5.7-2.5 2.2-.8a102.9 102.9 0 0 1 18.4-4.6l8.7-1.5c2-.4 2.4-.2 3.8 2.7a57 57 0 0 0 5.3 7.7 327.3 327.3 0 0 0 34.7 33.5 293.2 293.2 0 0 0 58 35.6c8 4 18 8.6 22.3 10.3a259.2 259.2 0 0 0 29.3 9.6 127 127 0 0 0 38.5 4.6c7.6 0 15.4-.3 17.2-.6 2.2-.4 3.6-.3 3.9.2.2.4.5 4.6.6 9.3 0 4.8.3 9 .6 9.5.3.4 1.5.8 2.6.8 1.8 0 2.3-.4 3.2-2.5.5-1.3 1-4.4 1-6.9s-.4-6.2-1-8.2c-.7-2.8-.7-3.9-.2-4l7.6-1.9a139 139 0 0 0 13.5-4 134.3 134.3 0 0 0 28.5-15 99.4 99.4 0 0 0 22.7-22.7c2-3.1 4-5.8 4.2-5.8.2 0 1.4 3.3 2.7 7.3 1.2 4 2.7 9.3 3.3 11.9l2.1 12c.6 4.1 1.3 12.4 1.6 18.3l.4 10.8-1.7.4-11.3 2.2-12.3 2.5c-2.5.7-2.7.9-2.5 3l.3 2.3 5-.1c2.7 0 9.1-.8 14.3-1.7a49 49 0 0 1 10.2-1c.5.3 1.9 2.7 3.2 5.5 1.2 2.8 3.3 8.4 4.5 12.4a207.4 207.4 0 0 1 6.5 33.1c.5 4.3 1 14.5 1 22.5 0 9.7-.3 15-.8 15.5-.4.4-5 1-10 1.3-6 .4-9.7 1-10.4 1.5-.7.5-1.2 1.7-1.2 2.6 0 1 .7 2 1.6 2.5 1 .5 4.6.7 10.8.5l9.3-.2.4 4.2a272.6 272.6 0 0 1-.4 39.2 246.6 246.6 0 0 1-7.2 32.8c-1 3-3.2 8.4-5 12-1.8 3.6-3.8 7-4.4 7.5-.8.7-4.6 1.3-11.5 2-5.6.4-10.8 1-11.5 1.4-.7.4-1.2 1.5-1.2 2.5 0 1.2.5 2 2 2.5 1.2.5 5 .6 10.5.3l8.6-.5-1 5.2c-.5 2.8-1.5 6.9-2 9a66 66 0 0 1-5.2 12.3c-.2.3 1.6.6 4 .6h4.2l2.2-6c1.2-3.3 2.8-9.6 3.7-14 1.1-6 2-9 3.8-12a118 118 0 0 0 14.1-37.3 156 156 0 0 0 4.2-38.3c0-7-.3-16-.8-20-.5-5.3-.5-8.3 0-10.7.4-1.9.7-8.5.7-14.8 0-6.3-.5-16.2-1.1-22a225.5 225.5 0 0 0-6.4-34.8c-1-3.4-2.8-8.6-4-11.6-1.1-3-3-6.8-4-8.3-2-2.7-2-3-2.5-15.5-.3-7-1.1-16.9-1.9-21.8a158.7 158.7 0 0 0-7.2-29 59.6 59.6 0 0 0-3.1-7.5c-.8-1.2-.9-2.6-.4-6a26 26 0 0 1 1-4.7c.1-.2 1.2 1.4 2.3 3.4l3.5 6.6c1.3 2.6 2 3.1 8.5 5.7 3.9 1.6 9.5 4.2 12.4 5.7a110 110 0 0 1 25 19.3 151 151 0 0 1 11.2 13 129 129 0 0 1 17 33.2 77 77 0 0 1 2.6 10.2c.5 3.6.5 3.7-1.2 3.2l-4.2-1.2c-1.8-.4-2.9-.3-4 .5-1 .5-1.7 1.4-1.6 1.9 0 .5.2 1.2.5 1.6a22 22 0 0 0 5.1 3 85.8 85.8 0 0 1 30.2 24.6 137.9 137.9 0 0 1 12.7 20 149.8 149.8 0 0 1 9.7 26.9 107 107 0 0 1 1.9 45c-.5 2.6-1.2 4.7-1.6 4.7l-4.3-.6c-2.7-.4-4.3-.3-6.2.5-2 .8-2.6 1.5-2.6 2.8 0 1 .4 2 .9 2.4.5.4 2.7 1 4.9 1.1 2.2.3 5 1 6.5 1.7 1.4.7 4 3 5.9 5.2a72 72 0 0 1 14.9 29.7c1 3.7 2.3 11.4 3.2 17A96 96 0 0 1 767 986l-.3 8.4h3.3c3.2 0 3.3-.1 3.8-2.2a135.4 135.4 0 0 0-1-26.8 130.5 130.5 0 0 0-7.4-30.2 63 63 0 0 0-11.7-19.2l-4-4.3.9-4.3a120.7 120.7 0 0 0-6.3-67.8 157.8 157.8 0 0 0-14.3-28l-3.3-5 1.7-8c1-4.5 2.6-11 3.6-14.6a231 231 0 0 1 13.4-34.9c3-5.9 8-14.7 11.1-19.6 4-6 8-10.9 12.4-15.2 4-4 8.6-7.7 12.2-9.8a65.1 65.1 0 0 1 22.9-8.4c3-.4 8-.6 11.4-.4 3.3.3 11.8 1.3 18.8 2.3a106 106 0 0 0 19 1.6c5-.3 6.8-.7 10.7-2.6 3-1.5 5.9-3.6 8.2-6.2a41 41 0 0 0 5.7-8.3 42 42 0 0 0 3.6-16.3 37 37 0 0 0-10.9-25.3 61 61 0 0 0-27-16 86 86 0 0 0-34.9-5 89 89 0 0 0-22.3 1.6 155.1 155.1 0 0 0-32 11 162.4 162.4 0 0 0-29.6 19.8c-3.2 2.8-8 7.6-10.6 10.5a132 132 0 0 0-9.3 12.2 150.5 150.5 0 0 0-20.1 49.4c-1 4-1.8 7.3-2 7.3-.3 0-2-2.2-4-4.8a140.3 140.3 0 0 0-26-25.2 137.7 137.7 0 0 0-25-13.7c-2-.8-3.4-1.8-3.7-2.7a57.5 57.5 0 0 0-8.5-13.9l-2.3-2.6-.3-14.6-.4-14.6 5-2a238.6 238.6 0 0 0 31.6-15.9c4.3-2.7 11-7.3 14.9-10.1a194.9 194.9 0 0 0 30.8-31.2 149 149 0 0 0 14.7-27 129 129 0 0 0 6.1-22.2c.6-3.4 1.4-11.3 1.8-17.4a116.9 116.9 0 0 0-3.5-39.5l4-2a62.3 62.3 0 0 0 17.1-12.9c3.1-3.3 5.4-6.6 7.6-11.3a142 142 0 0 0 5.3-13 136.8 136.8 0 0 0 6.3-46.6c-.3-8-.8-11.3-2.3-16.3-1-3.4-3-8.6-4.4-11.5-1.6-3.4-4-7-6.8-10a30.1 30.1 0 0 0-10.8-7.7 72 72 0 0 0-10.7-4.2 104.7 104.7 0 0 0-21-2.6h-4.9l-.3-2.3-1.2-8a148.5 148.5 0 0 0-22.5-58.8c-2.5-3.8-6.2-9.3-8.3-12.2a184.7 184.7 0 0 0-23.5-26.2A208.2 208.2 0 0 0 613 210a159.5 159.5 0 0 0-36.3-16 271.7 271.7 0 0 0-31.1-9 239.3 239.3 0 0 0-29.8-4.2 195.6 195.6 0 0 0-31 0Zm38.7 6.7c4.8.6 12 1.7 16 2.5a263 263 0 0 1 34.2 9.5 189.8 189.8 0 0 1 38 18.6c4.1 2.7 10.4 7.4 13.9 10.3a214.4 214.4 0 0 1 24.5 25c2.4 3.2 7 9.6 10 14.2s5.6 8.8 5.6 9.4c0 .6-.7 2.3-1.4 3.8-.8 1.6-3.3 4.2-5.7 6a87.6 87.6 0 0 1-40 16.4c-5 1-13 2-17.8 2.4a196.8 196.8 0 0 1-37.4-1.7c-4.9-.7-15.1-2.4-22.8-4a374 374 0 0 0-21.3-3.5 115.3 115.3 0 0 0-31.7 1 146.3 146.3 0 0 0-26 7.3 171.9 171.9 0 0 0-28.4 15.1c-4 2.8-10.2 7.4-13.7 10.2-3.4 3-9.6 8.8-13.8 13.2-4.3 4.5-9.9 11.3-12.7 15.5a135.6 135.6 0 0 0-13.7 26.3c-1 2.9-2.5 8.5-3.3 12.5-1 5-1.5 9.9-1.5 16.1 0 5.8.4 10.7 1.1 14.2l1.4 6.7c0 1-2 2.2-9.9 5.8a216 216 0 0 1-10.3 4.5c-.2 0-2.3-2.8-4.6-6.2a133 133 0 0 0-11.8-14c-7.3-7.6-7.5-7.9-8.4-12.4a658.8 658.8 0 0 0-15-59 148 148 0 0 0-5.3-13.9c-1.4-2.8-3.9-7-5.7-9.4a39.2 39.2 0 0 0-14.6-11.7 32.7 32.7 0 0 1-5.9-4 9.3 9.3 0 0 1-1.6-4.1c-.3-2.3 0-3.6 1.6-6.5 1.2-2.1 4.8-6.3 8.5-9.9 3.5-3.4 11.7-10.2 18.2-15.2s15.2-11.5 19.5-14.5c4.3-2.9 12.5-8.2 18.4-11.8 5.8-3.6 12.2-8 14-9.8 2.6-2.4 3.4-3.7 3.4-5.4 0-1.2-.7-3-1.5-4s-3.3-3.1-5.5-4.6a48.3 48.3 0 0 1-11.8-12.2 34.8 34.8 0 0 1-3.3-7 14 14 0 0 1-1-4.8c.1-.4 1.1-1 2.3-1.3 1-.3 15.9-.7 32.8-1 27.3-.5 32-.8 39.5-2.2 4.6-.8 15.2-3 23.4-5l25.5-5.6c5.9-1.2 13.9-2.5 17.8-2.8 3.9-.4 12-.6 18.1-.4 6 .2 15 .8 19.7 1.4Zm155.3 117c1.4 3.8 3.1 9.5 3.9 12.5a172 172 0 0 1 3.4 19.6c-.1.1-4.7 1-10.2 1.8a175 175 0 0 0-33.2 8c-2.6 1-7.3 3.2-10.4 4.8l-5.6 2.9-8.5-.8a227.1 227.1 0 0 0-34.7 0 289 289 0 0 0-40.2 6.8l-10.5 2.5-4.5-1.1a166.5 166.5 0 0 0-37-4.5 141.8 141.8 0 0 0-56 8.2 61.7 61.7 0 0 0-20.6 13.2 46.4 46.4 0 0 0-12 20.4c-.8 2.7-1.1 6.8-1.1 12.6 0 7.4-.2 8.6-1.2 8.6-.6 0-2.2 1-3.5 2.4-1.4 1.3-2.4 3.1-2.4 4 0 1.1-1 2-4.6 3.6-2.6 1.2-5 2-5.3 1.8-.3-.3-1.2-2.8-2-5.6-.9-3.6-1.2-7.7-1.2-13.7a67.1 67.1 0 0 1 4.7-25.9c1.2-3.3 4-9.7 6.3-14.3a132.8 132.8 0 0 1 21.5-29.1c3.3-3.3 8.4-8 11.3-10.4a165 165 0 0 1 29.8-19.2c4.8-2.4 11.7-5.3 15.3-6.5a194 194 0 0 1 12.8-3.6c3.4-.7 9.6-1.7 14-2.1a88.7 88.7 0 0 1 29.8 1.8l18.8 3.4c5.3 1 14.5 2.3 20.5 3 8.4 1 14.5 1.1 27 .8 10.2-.2 18.2-.8 22-1.5a133.2 133.2 0 0 0 27.3-7.5 71 71 0 0 0 22.8-13.8l4.3-4.3 3.4 7a159 159 0 0 1 5.8 14.1Zm35.5 40.7A57 57 0 0 1 725 349a36.2 36.2 0 0 1 16.6 15.8 75 75 0 0 1 4.9 15.6c.4 2.4.7 7.6.7 11.8a153.5 153.5 0 0 1-2.9 27.7c-.8 4-2.4 10.1-3.6 13.5a68.2 68.2 0 0 1-11.5 21.4c-2 2.5-5.3 5.6-7.3 6.8a71.2 71.2 0 0 1-17.3 7.8 54 54 0 0 1-14.5 1.3c-9.1 0-10.5-.2-16-2-3.3-1.2-7.8-3-10-4.1l-.3-.1a114.6 114.6 0 0 1-23.1-16.9l-6.2-6 .4-5.6a20 20 0 0 0-.6-7.8c-.5-1.2-1.5-3.2-2.3-4.2a12 12 0 0 0-3.6-3.2l-1.8-.8-3.3-.8c-2.7-.4-2.9-.6-4.6-5-1-2.5-2.3-6.2-2.8-8.2a78.7 78.7 0 0 1-1.4-20.2 44.2 44.2 0 0 1 10.9-21 52.2 52.2 0 0 1 22.4-12.7 210.5 210.5 0 0 1 40-8.2 116 116 0 0 1 26.4 1.2Zm-95 14.7c.2.2-1 2-2.6 4.1a60.5 60.5 0 0 0-9 18.4c-.2 0-1.5-1-2.8-2.1a42.5 42.5 0 0 0-5.4-3.9c-1.7-1-5.1-2.3-7.6-3-3-.7-5.7-1-7.8-.7a30 30 0 0 0-7.2 2.4 35.7 35.7 0 0 0-8.6 6.8c-4.1 4.1-5 4.7-5.3 3.6a40.7 40.7 0 0 0-16.4-17.2c-1.3-.6-2.3-1.3-2.3-1.6 0-.2 5-1.4 11.2-2.7a317.6 317.6 0 0 1 33.1-4.6 291.1 291.1 0 0 1 30.7.5Zm-120.8 4a164.9 164.9 0 0 1 34.7 6.5 61 61 0 0 1 7.8 3.3l3.7 2.3a39 39 0 0 1 12 12.9 42.3 42.3 0 0 1 2.6 22.1 83.5 83.5 0 0 1-9 26.7c-2.1 4.1-6 10.2-8.4 13.5A125.3 125.3 0 0 1 514 477c-4.6 3-11 6.7-14.5 8.2a56.4 56.4 0 0 1-25.4 5.3 34 34 0 0 1-14.9-2 65 65 0 0 1-20.9-12.5 116.4 116.4 0 0 1-13.2-14.8 124.7 124.7 0 0 1-15.5-39.5 55.6 55.6 0 0 1-.4-19.6 40.2 40.2 0 0 1 22.7-27.6 74 74 0 0 1 10-4.2 232.8 232.8 0 0 1 33.6-6.5 308 308 0 0 1 14.4-.5c2.4 0 5.5.3 8.4.5ZM596 382c1.9 1 5.2 3.5 7.4 5.6 4 3.6 4 3.8 4 7.3a65.6 65.6 0 0 0 4.5 21.1l2.2 5.7-2 1.5c-1.1.9-4 2.8-6.3 4.2a14.6 14.6 0 0 1-7.4 2.5c-1.6 0-6.2-.6-10.3-1.4a86 86 0 0 0-13.7-1.4 22 22 0 0 0-9.4 1.4c-1.6.7-3 1.1-3 .9 0-.3 1-3.9 2.3-8 2-6.7 2.2-8.4 2.3-17.2v-9.7l3.2-4.4a41 41 0 0 1 5.7-6.3c1.4-1 3.3-2.4 4.3-2.9s2.9-1.1 4.2-1.4c1.4-.2 3.9-.2 5.6.2a26 26 0 0 1 6.4 2.3Zm-287 31.6a68 68 0 0 1 9.3 3.2 75.5 75.5 0 0 1 20.3 15 85 85 0 0 1 8.7 10 195 195 0 0 1 15.5 31.5 132.2 132.2 0 0 1 5.7 24.4 56.9 56.9 0 0 1-4.2 22.7 52.6 52.6 0 0 1-13.6 16 76 76 0 0 1-20.6 10.3 64 64 0 0 1-11.3 1.2c-6 0-7.9-.2-12.3-1.8a83 83 0 0 1-19.3-10.3 115.6 115.6 0 0 1-22-22.8c-2.3-3.3-5-8-6.2-10.3a99.7 99.7 0 0 1-7-20.2 74.4 74.4 0 0 1 2.3-36.3 56.6 56.6 0 0 1 16.6-24.5 56 56 0 0 1 16-8.4 50.1 50.1 0 0 1 22 .3ZM626.6 427c1.1 1 2.4 3.2 2.8 4.7a8 8 0 0 1-.2 5.4c-.5 1.4-2 4-3.2 5.5a37.7 37.7 0 0 1-7.1 6.1 58 58 0 0 1-9.6 5 43.4 43.4 0 0 1-23.5 2.2 87.5 87.5 0 0 1-12.9-2.6c-2.4-.8-5.6-2.5-7.2-3.9a14 14 0 0 1-3.7-5c-.6-1.8-.6-3 0-4.9a11 11 0 0 1 2.9-4.2c1.1-1 3.2-2 4.7-2.6 1.6-.5 4.5-.7 7.6-.4 2.8.2 7.8.9 11 1.5 3.8.7 7.7 1 10.3.8 2.2-.2 5.6-1.1 7.4-2l8.9-4.7c3-1.6 6.5-3 7.7-3a6 6 0 0 1 4.1 2Zm-228.4 9.8c1.3 1.3 3 2 5.2 2.3l3.3.4 3.4 7.8a143 143 0 0 0 5.7 12l2.3 4.1-3.8-1.9a87 87 0 0 1-17.9-12.3 60.6 60.6 0 0 1-6.3-6.8c-1.1-1.5-2-3-2-3.4 0-.3 1.6-1.4 3.7-2.3l4-1.8c.2 0 1.3.9 2.4 2Zm-14.7 9.2c1.5 2.1 4.6 5.7 7 7.8a101 101 0 0 0 20 13.6c2.3 1.1 6.6 3 9.5 4 4.4 1.8 6.3 3 11 7.5 3.1 3 7.3 6.6 9.3 8a77 77 0 0 0 18 8.9 87 87 0 0 0 9 2l4.5.4 1.4 4.4a51 51 0 0 1 1.4 27.4c-.4 2.2-2.2 9.2-4 15.7a71.9 71.9 0 0 0-3.5 20.9 44 44 0 0 0 .8 13.8c.7 2.6 2.5 7.2 4 10.4a75.9 75.9 0 0 0 17.5 21.8c3 2.5 7.3 5.7 9.4 7a116.4 116.4 0 0 0 53.6 17c5.6.6 14.1.7 25.2.4a251 251 0 0 0 29-2.2 263.3 263.3 0 0 1-31.6 8.9 247 247 0 0 1-15.7 2.5 207 207 0 0 1-43.8 0 186 186 0 0 1-47-13 174.3 174.3 0 0 1-35.7-22c-3-2.3-8.2-7-11.7-10.3a218.1 218.1 0 0 1-26-30.5 351.4 351.4 0 0 1-22-35.2l-4.5-8.4 1.6-3.7a58.3 58.3 0 0 0 4-20.4c.4-5.8.2-9.5-.6-14.4a125 125 0 0 0-3.4-13.4 143 143 0 0 0-6-15.1 31.8 31.8 0 0 1-3.3-8.6 178.3 178.3 0 0 1 19.4-9.1 16 16 0 0 1 3.2 3.9Zm175.6 4.9c.8 1 2.8 2.9 4.3 4s4.1 2.5 5.8 3.1c1.7.6 5.4 1.6 8 2.2a92 92 0 0 0 16 1.4l11 .2 1.3 4.1c.7 2.3 2.2 9 3.4 14.9l3.5 19.5c.8 4.8 1.5 9.7 1.5 10.9v2l-9.1-.4c-5-.2-11.8-1-15-1.6-3.4-.6-9.2-2.1-12.9-3.3-3.7-1.2-11.1-4.4-16.5-7.1-8.8-4.6-10-5-13-4.7-1.7.2-3.9 1-4.7 1.7-.8.8-2 2.6-2.8 4.2-.9 2-1.3 4.5-1.3 8.6 0 4 .4 7 1.4 9.9.8 2.2 2.3 5.6 3.3 7.4a56.7 56.7 0 0 0 16 16 81 81 0 0 0 9.4 5.3c2.5 1.2 7 2.8 9.8 3.5a63.9 63.9 0 0 0 25.4 2 96 96 0 0 0 24-5.7 62.3 62.3 0 0 0 20.2-12c1.9-1.5 3.4-3.5 3.4-4.1 0-.7-.5-1.7-1-2.1-.7-.5-1.9-.8-2.7-.6-1 .2-2.2.6-2.9.9-1 .4-1.2.1-1.2-2.2 0-1.6.9-4.7 2-7.1a36 36 0 0 1 4.7-7.3 29 29 0 0 1 5.2-4.5 63 63 0 0 0 5.3-3.6 11 11 0 0 0 3-3.5c.3-.7 0-1.8-.4-2.4-.4-.5-1.4-1-2.2-1-.7 0-2.5.8-4 1.7-1.5 1-5 2.8-7.6 4.2a73.6 73.6 0 0 1-22.4 6.6c-5.5.8-7.4.9-7.8.2-.3-.4-.7-3-1-5.9a301 301 0 0 0-6.4-33.8c-1.4-5.6-2.5-10.7-2.5-11.4 0-.8 1.3-1.7 4-2.7a54.7 54.7 0 0 0 15.1-9.6l1.7-1.8 6.8 6.6a117 117 0 0 0 13.4 11c3.6 2.4 9 5.4 11.7 6.8 2.8 1.3 7.2 3.1 9.8 4 2.5.8 7.5 2 11 2.5a42.4 42.4 0 0 0 18.7-.5c2-.4 3.9-.6 4-.5l2 9c1.1 4.9 2.3 12 2.7 15.9.5 5 .5 9.6 0 15.3a147 147 0 0 1-2.2 14.4c-.7 3.4-2.3 9.2-3.6 12.9a137.5 137.5 0 0 1-13.8 28.3 121 121 0 0 1-23.2 25.1 186.3 186.3 0 0 1-27.5 19.4 120.8 120.8 0 0 1-23.1 9.1 164.6 164.6 0 0 1-38 5 156.2 156.2 0 0 1-38.6-2.6 110.8 110.8 0 0 1-37.6-15 83.3 83.3 0 0 1-17.6-16 62 62 0 0 1-10.6-20.7 47.6 47.6 0 0 1 1.3-23.5l4-15.3a65 65 0 0 0 2.3-17.7 63.9 63.9 0 0 0-2.3-21.8c-.3-1 .3-1.2 3.3-1.6a77.2 77.2 0 0 0 28-9.8 144.8 144.8 0 0 0 23.4-17.8 111.3 111.3 0 0 0 17.8-21.6l3.4-5.4.8 3.2c.4 1.8 1.5 4 2.4 5.2Zm-280.7 9.6c-.3.8-.1 2 .4 2.5.4.6 2 1 3.6 1a55.3 55.3 0 0 1 18 4.1c2.2 1 6.1 3.3 8.5 5.1a174 174 0 0 1 13.3 11.9l8.9 8.6-3 .4a35 35 0 0 0-5.8 1.8 34 34 0 0 0-6.6 4.7c-2 2-4 4.6-4.7 6.4-.8 2-1 4-.7 5.6.3 1.7.8 2.5 1.7 2.5.7 0 1.6-1.2 2.5-3.2.7-1.7 2.6-4.3 4.2-5.7 1.6-1.3 4.3-3 6-4 2.3-1 4.2-1.4 7.8-1.2l8.3.2c2.7 0 3.6-.2 3.8-1 .1-.6-3-4.9-7-9.6a342 342 0 0 0-12.6-13.7 72.9 72.9 0 0 0-18.1-13.7A44 44 0 0 0 286 459c-6.7 0-7.3 0-7.7 1.4Zm277.4 46.4a107.4 107.4 0 0 0 25 9.7 167 167 0 0 0 16 2.8 138.4 138.4 0 0 0 36.6-1.3c3.5-.8 6.5-1.3 6.6-1.2.1.1-.4 1.5-1.2 3-1.1 2.2-2.2 3-5.3 4.3a18 18 0 0 0-4.8 2.7c-.4.5-.6 1.8-.4 2.7.3 1 1.1 1.9 1.9 2 .8.3 2.5.2 3.7-.2a8 8 0 0 1 2.4-.5l.6 2.8.5 2.6-5.7 3a96.4 96.4 0 0 1-11 4.5 106 106 0 0 1-12.5 3 72 72 0 0 1-26.6-.7A67.7 67.7 0 0 1 565 539a62.3 62.3 0 0 1-8.3-6.5c-2.5-2.3-3.8-4-3-3.7l6.7 2.3c3 1 7.3 1.9 9.6 2 3.4.4 4.5.2 5.3-.7.7-.9.7-1.6.2-2.8-.6-1.2-2.2-2-7.6-3.5-3.7-1-9.5-3-12.8-4.5a38 38 0 0 1-7.9-4.3c-1.8-1.6-1.8-2-1.6-7.4.2-4 .6-5.9 1.3-6.3a3 3 0 0 1 2.2-.3 69 69 0 0 1 6.5 3.4ZM586 530a3 3 0 0 0-1.3 2.4c0 .9.5 2 1.1 2.5.6.5 1.8.7 2.8.5.9-.3 1.8-1.1 2-2 .3-.9 0-2-1-2.8-.7-.8-1.5-1.4-1.8-1.4-.3 0-1.1.4-1.8.8Zm-199.4 41.6a304 304 0 0 0 9 12c1.7 2.1 2.3 3.2 1.4 3a83 83 0 0 1-7.5-4.9c-4.7-3.2-6.8-4.2-8.3-4-1.7.1-2 .5-2.2 2.4-.2 1.8.2 2.6 2.5 4.3a245.2 245.2 0 0 0 23.4 14.4c4.5 2.4 8.6 5.3 11.6 8 2.5 2.5 7.1 6.5 10.1 9a195 195 0 0 0 50.1 28.1 211.7 211.7 0 0 0 28.1 7.2c4 .6 7.6 1.5 8.1 1.9a17 17 0 0 1 2.6 4c1 1.8 2.2 5.7 2.8 8.6a149 149 0 0 1 1.8 12.7 1829.4 1829.4 0 0 1 2.9 47.2c.4 9.9.4 16 0 16.3-.4.4-6.9 1-14.4 1.2-8.1.4-16.3.3-20-.1a208.9 208.9 0 0 1-25.3-4.6 221.2 221.2 0 0 1-47-18.1 403.3 403.3 0 0 1-38-21.6c-5.3-3.6-13.9-9.8-18.9-13.9a312 312 0 0 1-34.5-34 39.3 39.3 0 0 1-4-6.7c-.5-1.2-1-4-1-6.3s.8-7.4 1.7-11.4a170.2 170.2 0 0 1 10.3-29.3 56.4 56.4 0 0 1 23.8-27.4 62.5 62.5 0 0 1 23.8-6.7c.6 0 3.8 4 7.1 8.7Zm-18.4-.5c-.5 1-.5 1.9 0 2.8.4.8 1.4 1.6 2.2 1.9 1 .3 2 0 3-1 1.2-1.3 1.3-1.8.6-3.3-.6-1.3-1.3-1.8-3-1.8-1.3 0-2.3.5-2.8 1.4Zm456.2 55a102 102 0 0 1 25 7.5 54.3 54.3 0 0 1 17.9 12.6c1.7 1.8 4 5.3 5.1 7.7a27.7 27.7 0 0 1 2.6 16.7 36 36 0 0 1-2.4 8A28.4 28.4 0 0 1 863 690c-1.4 1-3.8 2.1-5.3 2.6a27 27 0 0 1-7.2.9c-2.4 0-9.6-1-16-2-9.3-1.6-14-2-23-2-10.4 0-12 .2-17.8 2-3.5 1-8.6 3-11.4 4.4a80.2 80.2 0 0 0-21 16 128.5 128.5 0 0 0-19.7 29 237.2 237.2 0 0 0-14.6 36 257.3 257.3 0 0 0-5.7 22c-.2.6-1.9-.6-4.4-3a98.2 98.2 0 0 0-9.1-7.8l-5-3.8-.5-5c-.2-2.9-1.6-8.6-3.3-13.7a160 160 0 0 0-7.2-17.4 58.4 58.4 0 0 1-4.2-10.2c0-.8.7-4.7 1.5-8.7a178.8 178.8 0 0 1 13.4-38.5c3.1-6.2 7-12.6 10.5-17.3 3.1-4.1 8.2-9.9 11.2-12.8a161.4 161.4 0 0 1 21.8-17 177.4 177.4 0 0 1 22.5-11 144.6 144.6 0 0 1 25.2-6.7 146.6 146.6 0 0 1 30.6.2ZM605.5 647a219.3 219.3 0 0 1-.3 33c-.6 6.7-1 8.5-3.3 12.9a80.8 80.8 0 0 1-16.7 21.4 117.8 117.8 0 0 1-24 16.3 130.5 130.5 0 0 1-24.5 8.9 26 26 0 0 1-6 1c-.2-.2-.7-8.2-1.2-17.9l-2-34.1c-.6-9.2-1.6-19.2-2.2-22.4a71 71 0 0 0-3.1-12.4c0-.3 5-.4 11.1-.2 6.2 0 15.4-.2 20.5-.6 5-.5 12.9-1.4 17.3-2.2a276 276 0 0 0 33.5-8.4c.2 0 .6 2 .9 4.7Zm-272 55.7c-.5.5-1 1.4-1 2a3 3 0 0 0 1.1 2.1 4 4 0 0 0 2.7.6c1-.1 1.7-.8 1.8-1.9a4 4 0 0 0-.6-2.6 3 3 0 0 0-2-1c-.7 0-1.6.3-2 .8Zm17.4 30.4c-1.1.7-1.2 1.7-.8 10.5a112.6 112.6 0 0 1-3 31.3 191.8 191.8 0 0 1-10.6 32.9c-1.7 3.7-4.4 9.2-6 12a145.3 145.3 0 0 1-15.2 20.4l-2.5 2.4-.5-2.7a80 80 0 0 0-4.3-15.1c-.8-1.2-1.6-1.6-3-1.4-1.5.2-2 .7-2.1 2.2-.1 1.1.5 5 1.4 8.5 1.3 5.3 1.6 8.5 1.5 16.9a79.5 79.5 0 0 1-4.2 26.8 109.2 109.2 0 0 1-14.3 27.3c-1 1.2-1.4.9-6.1-4-3.3-3.6-5.6-5.4-6.6-5.4-.9 0-2 .5-2.7 1.1-.6.6-1 1.4-1 1.7 0 .4 2.2 3.3 5 6.5a76.9 76.9 0 0 1 18.2 33.9c1.5 5.8 1.8 8.4 1.8 17.5a48.2 48.2 0 0 1-3.7 22.7c-.2.1-2.3-.9-4.5-2.3a20 20 0 0 0-7.2-2.8c-2.7-.3-3.3-.2-4 1-.4.9-.5 2-.3 2.6.3.6 3 2.7 6.2 4.5 3.2 1.9 7.8 5.4 10.3 7.8 4.4 4.4 4.7 4.5 8.4 4.5 2 0 3.8-.3 3.8-.7 0-.3-1.5-2.6-3.3-5l-3.3-4.5 1.5-4.3a83 83 0 0 0 2.6-9.9c.6-3 1-9 1-13.3 0-4.3.4-7.8.7-7.8.4 0 2.7.7 5.2 1.4a379.8 379.8 0 0 0 25 6.3 423.2 423.2 0 0 0 48.5 7.2 397.4 397.4 0 0 0 50.9 2.5c6.5-.2 12.1-.5 12.5-.7.4-.2.7-1.2.7-2.1 0-1-.4-2-.9-2.3-.5-.3-10-.8-21.1-1-11.1-.3-25.8-1-32.7-1.6a446.7 446.7 0 0 1-53.6-7.9c-6.1-1.4-16.4-4-22.6-5.7-6.3-1.8-12-3.6-12.8-4.1-.8-.5-2-3.2-3-6.9-1-3.3-3.5-9.6-5.7-14l-4-8 1.5-1.6a155.3 155.3 0 0 0 12.3-20.9A115.5 115.5 0 0 0 312 864c.4-3 .8-7.3.9-9.5.1-3.4.4-4 1.7-4.1.9-.1 3-1.9 4.8-3.8 3.1-3.5 3.3-3.6 4.6-2.4.7.6 4.8 2.1 9 3.3a420.2 420.2 0 0 0 42.2 9 1015.2 1015.2 0 0 0 55 7.6 506 506 0 0 0 25.6 1.5c10.6.4 14.6.3 15.8-.4 1.1-.6 1.6-1.4 1.4-2.4 0-.9-1-2-2.2-2.5-1.5-.7-7.1-1.2-18.8-1.6a448.7 448.7 0 0 1-71.8-8.1 677.4 677.4 0 0 1-42.3-9.2l-10.1-2.9c-.6-.2.5-2.4 3.2-6.5a190 190 0 0 0 6.5-10.4 160 160 0 0 0 14.6-38.9c1-4 2.3-9.4 2.8-12 .6-3.3 1.1-4.5 1.9-4.4l5.6.8a751 751 0 0 0 40.2 3.6 2365.3 2365.3 0 0 0 87.6 1.8c3.5-.6 4-.9 4.1-2.6.2-1.3-.2-2.1-1-2.6-.7-.4-11.9-.9-24.7-1.1a2333 2333 0 0 1-68.6-2.6 248.7 248.7 0 0 1-35.5-4.3 40 40 0 0 1-7.1-1.9c-.3-.3-.7-5-.8-10.5-.2-6.6-.7-10.6-1.3-12-.6-1.2-1.5-2.2-2.1-2.3a4 4 0 0 0-2.3.5Zm212 37.4a4 4 0 0 0-1.2 1.8c-.2.7.1 1.9.9 2.8 1.1 1.4 1.6 1.5 3.3 1 1.7-.7 2-1.2 2-3.3 0-2.2-.2-2.4-2-2.6-1.2-.1-2.5 0-3 .3Zm-38.8 4.3c-.3.2-.5 1.6-.5 3s.6 6.5 1.4 11.4a204.2 204.2 0 0 1 1.5 41.2c-.5 4.5-1.7 12.2-2.6 17.2-1.4 6.8-1.6 9.4-1 10.5.5.9 1.5 1.4 2.9 1.4 1.7 0 2.3-.4 3.1-2.5.6-1.3 1.7-6.4 2.5-11.2a304 304 0 0 0 2.3-19.1c.6-8 .6-13 0-21.3a253 253 0 0 0-2.3-19.4c-.8-4.6-2-9.2-2.5-10-.6-1-1.8-1.7-2.7-1.7-1 0-1.9.2-2.1.5Zm140.6 5.9c-1 .7-2 2-2.2 2.8-.2 1 .1 2 1 2.9.8.8 1.6 1.4 1.9 1.3.3 0 2-.7 3.7-1.6 2.2-1 3.3-2 3.5-3.2a4 4 0 0 0-.7-2.6c-.4-.6-1.9-1-3.1-1-1.3 0-3.1.6-4.1 1.4Zm-371.4 22.8c-.8 1.1-.9 2-.4 3.3.4 1 1.4 3 2.2 4.3 1.2 2 1.8 2.3 3.7 2 1.8 0 2.2-.5 2.4-2.2.2-1-.1-3-.6-4.2a15 15 0 0 0-2-3.5 4 4 0 0 0-2.6-1.2c-1 0-2.1.6-2.7 1.5Zm294 57.5a3 3 0 0 0-1.2 2.3c0 .9.3 2 .8 2.4.5.5 2 .9 3.5.9 2 0 3-.4 3.8-1.6.6-.9 1-1.8 1-2 0-.4-.4-1-1-1.7-.6-.6-2.2-1.1-3.4-1-1.2 0-2.8.3-3.5.7Zm-66.6 3.5c-1.3 1.3-1.4 1.9-.9 6.2a310.8 310.8 0 0 1-.7 47.3 188.8 188.8 0 0 1-7.9 32.1 116 116 0 0 0-2.5 8.3c0 .2.5.9 1 1.5.7.6 1.8 1.1 2.6 1.1s2-1 2.8-2.3c.8-1.3 2.4-5.3 3.6-9a196.3 196.3 0 0 0 8.5-73 65.3 65.3 0 0 0-1.5-11 6 6 0 0 0-2.1-2c-1.1-.5-1.7-.4-2.9.8Zm-268 16.7c-.6.7-1 2-1 3 .3 1.4 1.1 2.3 3.7 3.7 2.6 1.4 3.6 1.6 4.6 1a4 4 0 0 0 1.4-2.5c.2-1.2-.4-2.4-1.7-3.6-1.1-1-2.8-2.1-3.9-2.4a3 3 0 0 0-3 .8ZM706.4 914c-1.6.7-3 1.9-3.4 2.5-.2.8 0 2 .7 3 .6.9 1.5 1.6 2 1.6s2.4-.5 4.2-1c1.9-.7 3.7-1.9 4.1-2.6.6-1 .5-1.8-.4-3.1-.6-1-1.8-1.8-2.7-1.8-.8 0-2.9.7-4.5 1.4Zm-134.8 48.3c-1 1.2-1.1 1.8-.5 3.2.6 1.4 1.4 1.8 3 1.8 1.2 0 2.8-.3 3.6-.7a3 3 0 0 0 1.4-2.4c0-.9-.4-2-.9-2.4-.5-.5-1.8-.9-3-.9a5 5 0 0 0-3.6 1.4Zm-320 4.3c-1 1.5-1.1 2-.3 3.2.5.8 2.5 1.8 4.4 2.3 2 .5 4.6.8 6 .7 2.2-.2 2.5-.4 2.5-2.2a4 4 0 0 0-1.8-3.4 14 14 0 0 0-5.8-1.8c-3.6-.4-4-.2-5 1.2Zm257.2 2.4a20 20 0 0 0-1.6 6.2 118 118 0 0 1-2.4 11.8c-1 3.6-1.7 6.7-1.7 7 0 .1 1.6.3 3.5.3 2 0 3.6-.3 3.6-.6l1.4-5.6a109 109 0 0 0 2.1-11c.7-4.9.7-5.9-.3-7.4-.6-1-1.7-1.7-2.4-1.7-.8 0-1.7.5-2.2 1Z" clip-rule="evenodd"/>
    <path fill="#CEF0FF" d="M523.4 187.4c4.8.6 12 1.7 16 2.5a263 263 0 0 1 34.2 9.5 189.8 189.8 0 0 1 38 18.6c4.1 2.7 10.4 7.4 13.9 10.3a214.4 214.4 0 0 1 24.5 25c2.4 3.2 7 9.6 10 14.2s5.6 8.8 5.6 9.4c0 .6-.7 2.3-1.4 3.8-.8 1.6-3.3 4.2-5.7 6a87.6 87.6 0 0 1-40 16.4c-5 1-13 2-17.8 2.4a196.8 196.8 0 0 1-37.4-1.7c-4.9-.7-15.1-2.4-22.8-4a374 374 0 0 0-21.3-3.5 115.3 115.3 0 0 0-31.7 1 146.3 146.3 0 0 0-26 7.3 171.9 171.9 0 0 0-28.4 15.1c-4 2.8-10.2 7.4-13.7 10.2-3.4 3-9.6 8.8-13.8 13.2-4.3 4.5-9.9 11.3-12.7 15.5a135.6 135.6 0 0 0-13.7 26.3c-1 2.9-2.5 8.5-3.3 12.5-1 5-1.5 9.9-1.5 16.1 0 5.8.4 10.7 1.1 14.2l1.4 6.7c0 1-2 2.2-9.9 5.8a216 216 0 0 1-10.3 4.5c-.2 0-2.3-2.8-4.6-6.2a133 133 0 0 0-11.8-14c-7.3-7.6-7.5-7.9-8.4-12.4a658.8 658.8 0 0 0-15-59 148 148 0 0 0-5.3-13.9c-1.4-2.8-3.9-7-5.7-9.4a39.2 39.2 0 0 0-14.6-11.7 32.7 32.7 0 0 1-5.9-4 9.3 9.3 0 0 1-1.6-4.1c-.3-2.3 0-3.6 1.6-6.5 1.2-2.1 4.8-6.3 8.5-9.9 3.5-3.4 11.7-10.2 18.2-15.2s15.2-11.5 19.5-14.5c4.3-2.9 12.5-8.2 18.4-11.8 5.8-3.6 12.2-8 14-9.8 2.6-2.4 3.4-3.7 3.4-5.4 0-1.2-.7-3-1.5-4s-3.3-3.1-5.5-4.6a48.3 48.3 0 0 1-11.8-12.2 34.8 34.8 0 0 1-3.3-7 14 14 0 0 1-1-4.8c.1-.4 1.1-1 2.3-1.3 1-.3 15.9-.7 32.8-1 27.3-.5 32-.8 39.5-2.2 4.6-.8 15.2-3 23.4-5l25.5-5.6c5.9-1.2 13.9-2.5 17.8-2.8 3.9-.4 12-.6 18.1-.4 6 .2 15 .8 19.7 1.4Zm-140 258.5c1.5 2.1 4.6 5.7 7 7.8a101 101 0 0 0 20 13.6c2.3 1.1 6.6 3 9.5 4 4.4 1.8 6.3 3 11 7.5 3.1 3 7.3 6.6 9.3 8a77 77 0 0 0 18 8.9 87 87 0 0 0 9 2l4.5.4 1.4 4.4a51 51 0 0 1 1.4 27.4c-.4 2.2-2.2 9.2-4 15.7a71.9 71.9 0 0 0-3.5 20.9 44 44 0 0 0 .8 13.8c.7 2.6 2.5 7.2 4 10.4a75.9 75.9 0 0 0 17.5 21.8c3 2.5 7.3 5.7 9.4 7a116.4 116.4 0 0 0 53.6 17c5.6.6 14.1.7 25.2.4a251 251 0 0 0 29-2.2 263.3 263.3 0 0 1-31.6 8.9 247 247 0 0 1-15.7 2.5 207 207 0 0 1-43.8 0 186 186 0 0 1-47-13 174.3 174.3 0 0 1-35.7-22c-3-2.3-8.2-7-11.7-10.3a218.1 218.1 0 0 1-26-30.5 351.4 351.4 0 0 1-22-35.2l-4.5-8.4 1.6-3.7a58.3 58.3 0 0 0 4-20.4c.4-5.8.2-9.5-.6-14.4a125 125 0 0 0-3.4-13.4 143 143 0 0 0-6-15.1 31.8 31.8 0 0 1-3.3-8.6 178.3 178.3 0 0 1 19.4-9.1 16 16 0 0 1 3.2 3.9Z"/>
    <path fill="#fff" d="M678.7 304.3c1.4 4 3.1 9.6 3.9 12.6a172 172 0 0 1 3.4 19.6c-.1.1-4.7 1-10.2 1.8a175 175 0 0 0-33.2 8c-2.6 1-7.3 3.2-10.4 4.8l-5.6 2.9-8.5-.8a227.1 227.1 0 0 0-34.7 0 289 289 0 0 0-40.2 6.8l-10.5 2.5-4.5-1.1a166.5 166.5 0 0 0-37-4.5 141.8 141.8 0 0 0-56 8.2 61.7 61.7 0 0 0-20.6 13.2 46.4 46.4 0 0 0-12 20.4c-.8 2.7-1.1 6.8-1.1 12.6 0 7.4-.2 8.6-1.2 8.6-.6 0-2.2 1-3.5 2.4-1.4 1.3-2.4 3.1-2.4 4 0 1.1-1 2-4.6 3.6-2.6 1.2-5 2-5.3 1.8-.3-.3-1.2-2.8-2-5.6-.9-3.6-1.2-7.7-1.2-13.7a67.1 67.1 0 0 1 4.7-25.9c1.2-3.3 4-9.7 6.3-14.3a132.8 132.8 0 0 1 21.5-29.1c3.3-3.3 8.4-8 11.3-10.4a165 165 0 0 1 29.8-19.2c4.8-2.4 11.7-5.3 15.3-6.5a194 194 0 0 1 12.8-3.6c3.4-.7 9.6-1.7 14-2.1a88.7 88.7 0 0 1 29.8 1.8l18.8 3.4c5.3 1 14.5 2.3 20.5 3 8.4 1 14.5 1.1 27 .8 10.2-.2 18.2-.8 22-1.5a133.2 133.2 0 0 0 27.3-7.5 71 71 0 0 0 22.8-13.8l4.3-4.3 3.4 7a159 159 0 0 1 5.8 14.1Z"/>
    <path fill="#fff" d="M619.2 359.8c.2.2-1 2-2.6 4.1a60.5 60.5 0 0 0-9 18.4c-.2 0-1.5-1-2.8-2.1a42.5 42.5 0 0 0-5.4-3.9c-1.7-1-5.1-2.3-7.6-3-3-.7-5.7-1-7.8-.7a30 30 0 0 0-7.2 2.4 35.7 35.7 0 0 0-8.6 6.8c-4.1 4.1-5 4.7-5.3 3.6a40.7 40.7 0 0 0-16.4-17.2c-1.3-.6-2.3-1.3-2.3-1.6 0-.2 5-1.4 11.2-2.7a317.6 317.6 0 0 1 33.1-4.6 291.1 291.1 0 0 1 30.7.5Z"/>
    <path fill="#fff" d="M596 382c1.8 1 5.1 3.4 7.3 5.5 4 3.6 4 3.8 4 7.3a65.6 65.6 0 0 0 4.5 21.1l2.2 5.7-2 1.5c-1.1.9-4 2.8-6.3 4.2a14.6 14.6 0 0 1-7.4 2.5c-1.6 0-6.2-.6-10.3-1.4a86 86 0 0 0-13.7-1.4 22 22 0 0 0-9.4 1.4c-1.6.7-3 1.1-3 .9 0-.3 1-3.9 2.3-8 2-6.7 2.2-8.4 2.3-17.2v-9.7l3.2-4.4a41 41 0 0 1 5.7-6.3c1.4-1 3.3-2.4 4.3-2.9s2.9-1.1 4.2-1.4c1.4-.2 3.9-.2 5.6.2a26 26 0 0 1 6.4 2.3Zm-37 68.8c.8 1 2.8 2.9 4.3 4s4.1 2.5 5.8 3.1c1.7.6 5.4 1.6 8 2.2a92 92 0 0 0 16 1.4l11 .2 1.3 4.1c.7 2.3 2.2 9 3.4 14.9l3.5 19.5c.8 4.8 1.5 9.7 1.5 10.9v2l-9.1-.4c-5-.2-11.8-1-15-1.6-3.4-.6-9.2-2.1-12.9-3.3-3.7-1.2-11.1-4.4-16.5-7.1-8.8-4.6-10-5-13-4.7-1.7.2-3.9 1-4.7 1.7-.8.8-2 2.6-2.8 4.2-.9 2-1.3 4.5-1.3 8.6 0 4 .4 7 1.4 9.9.8 2.2 2.3 5.6 3.3 7.4a56.7 56.7 0 0 0 16 16 81 81 0 0 0 9.4 5.3c2.5 1.2 7 2.8 9.8 3.5a63.9 63.9 0 0 0 25.4 2 96 96 0 0 0 24-5.7 62.3 62.3 0 0 0 20.2-12c1.9-1.5 3.4-3.5 3.4-4.1 0-.7-.5-1.7-1-2.1-.7-.5-1.9-.8-2.7-.6-1 .2-2.2.6-2.9.9-1 .4-1.2.1-1.2-2.2 0-1.6.9-4.7 2-7.1a36 36 0 0 1 4.7-7.3 29 29 0 0 1 5.2-4.5 63 63 0 0 0 5.3-3.6 11 11 0 0 0 3-3.5c.3-.7 0-1.8-.4-2.4-.4-.5-1.4-1-2.2-1-.7 0-2.5.8-4 1.7-1.5 1-5 2.8-7.6 4.2a73.6 73.6 0 0 1-22.4 6.6c-5.5.8-7.4.9-7.8.2-.3-.4-.7-3-1-5.9a301 301 0 0 0-6.4-33.8c-1.4-5.6-2.5-10.7-2.5-11.4 0-.8 1.3-1.7 4-2.7a54.7 54.7 0 0 0 15.1-9.6l1.7-1.8 6.8 6.6a117 117 0 0 0 13.4 11c3.6 2.4 9 5.4 11.7 6.8 2.8 1.3 7.2 3.1 9.8 4 2.5.8 7.5 2 11 2.5a42.4 42.4 0 0 0 18.7-.5c2-.4 3.9-.6 4-.5l2 9c1.1 4.9 2.3 12 2.7 15.9.5 5 .5 9.6 0 15.3a147 147 0 0 1-2.2 14.4c-.7 3.4-2.3 9.2-3.6 12.9a137.5 137.5 0 0 1-13.8 28.3 121 121 0 0 1-23.2 25.1 186.3 186.3 0 0 1-27.5 19.4 120.8 120.8 0 0 1-23.1 9.1 164.6 164.6 0 0 1-38 5 156.2 156.2 0 0 1-38.6-2.6 110.8 110.8 0 0 1-37.6-15 83.3 83.3 0 0 1-17.6-16 62 62 0 0 1-10.6-20.7 47.6 47.6 0 0 1 1.3-23.5l4-15.3a65 65 0 0 0 2.3-17.7 63.9 63.9 0 0 0-2.3-21.8c-.3-1 .3-1.2 3.3-1.6a77.2 77.2 0 0 0 28-9.8 144.8 144.8 0 0 0 23.4-17.8 111.3 111.3 0 0 0 17.8-21.6l3.4-5.4.8 3.2c.4 1.8 1.5 4 2.4 5.2Z"/>
    <path fill="#fff" fill-rule="evenodd" d="M555.8 506.8a107.4 107.4 0 0 0 25 9.7c4.2 1 11.4 2.3 15.8 2.8a138.4 138.4 0 0 0 36.7-1.3c3.5-.8 6.5-1.3 6.6-1.2.1.1-.4 1.5-1.2 3-1.1 2.2-2.2 3-5.3 4.3a18 18 0 0 0-4.8 2.7c-.4.5-.6 1.8-.4 2.7.3 1 1.1 1.9 1.9 2 .8.3 2.5.2 3.7-.2a8 8 0 0 1 2.4-.5l.6 2.8.5 2.6-5.7 3a96.4 96.4 0 0 1-11 4.5 106 106 0 0 1-12.5 3 72 72 0 0 1-26.6-.7 67.7 67.7 0 0 1-16.5-7 62.3 62.3 0 0 1-8.3-6.5c-2.5-2.3-3.8-4-3-3.7l6.7 2.3c3 1 7.3 1.9 9.6 2 3.4.4 4.5.2 5.3-.7.7-.9.7-1.6.2-2.8-.6-1.2-2.2-2-7.6-3.5-3.7-1-9.5-3-12.8-4.5a38 38 0 0 1-7.9-4.3c-1.8-1.6-1.8-2-1.6-7.4.2-4 .6-5.9 1.3-6.3a3 3 0 0 1 2.2-.3 69 69 0 0 1 6.5 3.4Zm28.8 25.6c0-1 .6-2 1.3-2.4l1.8-.8c.3 0 1.1.6 1.9 1.4.8.8 1.2 2 1 2.8-.3.9-1.2 1.7-2.1 2-1 .2-2.2 0-2.8-.5-.6-.5-1-1.6-1-2.5ZM308.8 413.5a68 68 0 0 1 9.4 3.2 75.5 75.5 0 0 1 20.3 15 85 85 0 0 1 8.7 10 195 195 0 0 1 15.5 31.5 132.2 132.2 0 0 1 5.7 24.4 56.9 56.9 0 0 1-4.2 22.7 52.6 52.6 0 0 1-13.6 16 76 76 0 0 1-20.6 10.3 64 64 0 0 1-11.3 1.2c-6 0-7.9-.2-12.3-1.8a83 83 0 0 1-19.3-10.3 115.6 115.6 0 0 1-22-22.8c-2.3-3.3-5-8-6.2-10.3a99.7 99.7 0 0 1-7-20.2 74.4 74.4 0 0 1 2.3-36.3 56.6 56.6 0 0 1 16.6-24.5 56 56 0 0 1 16-8.4 50.1 50.1 0 0 1 22 .3Zm-30.1 49.4a3 3 0 0 1-.4-2.5c.4-1.3 1-1.5 7.7-1.4a44 44 0 0 1 29.3 9.4c2.4 1.7 6.7 5.5 9.6 8.4 2.9 2.9 8.5 9 12.5 13.7 4 4.7 7.2 9 7 9.6 0 .8-1 1-3.7 1l-8.3-.2a14 14 0 0 0-7.8 1.3c-1.7.8-4.4 2.6-6 4a17.9 17.9 0 0 0-4.2 5.6c-.9 2-1.8 3.2-2.5 3.2-.9 0-1.4-.8-1.7-2.5-.3-1.6-.1-3.6.7-5.6.7-1.8 2.6-4.5 4.7-6.4 2-1.8 5-4 6.6-4.7 1.6-.7 4.3-1.5 5.9-1.8l2.9-.4-8.9-8.6a174 174 0 0 0-13.3-11.9c-2.4-1.8-6.3-4-8.6-5a56.7 56.7 0 0 0-17.9-4.2c-1.6 0-3.2-.4-3.6-1Z" clip-rule="evenodd"/>
    <path fill="#FEFFB9" fill-rule="evenodd" d="M386.5 571.6a304 304 0 0 0 9 12c1.7 2.1 2.3 3.2 1.4 3a83 83 0 0 1-7.5-4.9c-4.7-3.2-6.8-4.2-8.3-4-1.7.1-2 .5-2.2 2.4-.2 1.8.2 2.6 2.5 4.3a245.2 245.2 0 0 0 23.4 14.4c4.5 2.4 8.6 5.3 11.6 8 2.5 2.5 7.1 6.5 10.1 9a195 195 0 0 0 50.1 28.1 211.7 211.7 0 0 0 28.1 7.2c4 .6 7.6 1.5 8.1 1.9a17 17 0 0 1 2.6 4c1 1.8 2.2 5.7 2.8 8.6a149 149 0 0 1 1.8 12.7 1829.4 1829.4 0 0 1 2.9 47.2c.4 9.9.4 16 0 16.3-.4.4-6.9 1-14.4 1.2-8.1.4-16.3.3-20-.1a208.9 208.9 0 0 1-25.3-4.6 221.2 221.2 0 0 1-47-18.1 403.3 403.3 0 0 1-38-21.6c-5.3-3.6-13.9-9.8-18.9-13.9a312 312 0 0 1-34.5-34 39.3 39.3 0 0 1-4-6.7c-.5-1.2-1-4-1-6.3s.8-7.4 1.7-11.4a170.2 170.2 0 0 1 10.3-29.3 56.4 56.4 0 0 1 23.8-27.4 62.5 62.5 0 0 1 23.8-6.7c.6 0 3.8 4 7.1 8.7Zm-18.4 2.3c-.5-1-.5-1.8 0-2.8.5-1 1.5-1.4 2.9-1.4 1.6 0 2.3.5 3 1.8.6 1.5.5 2-.7 3.3-1 1-2 1.3-3 1a4.4 4.4 0 0 1-2.2-1.9Z" clip-rule="evenodd"/>
    <path fill="#FEFFB9" fill-rule="evenodd" d="M137.5 991.2c-4.3 2.9-5 3-9.3 3h172.9c-3.7 0-4 0-8.4-4.4a62 62 0 0 0-10.3-7.8c-3.2-1.8-6-3.9-6.2-4.5-.2-.6 0-1.7.4-2.5.6-1.3 1.2-1.4 4-1.1a20 20 0 0 1 7.1 2.8c2.2 1.4 4.3 2.4 4.5 2.3a48.2 48.2 0 0 0 3.7-22.7c0-9-.3-11.7-1.8-17.5a76.9 76.9 0 0 0-18.2-33.9c-2.8-3.2-5-6.1-5-6.5 0-.3.4-1 1-1.7.7-.6 1.8-1.1 2.7-1.1 1 0 3.3 1.8 6.6 5.3 4.7 5 5 5.3 6 4.1.7-.7 2.3-3 3.8-5.3a109.2 109.2 0 0 0 13.7-33c.7-3.7 1.1-9 1.1-15.8 0-8.4-.2-11.6-1.5-16.9-1-3.6-1.5-7.4-1.4-8.5.2-1.5.6-2 2.1-2.2 1.4-.2 2.2.3 3 1.4.6 1 1.7 4 2.5 7s1.6 6.6 1.8 8l.5 2.8 2.5-2.4a145.3 145.3 0 0 0 15.1-20.4 153.5 153.5 0 0 0 16.7-45 112.6 112.6 0 0 0 3-31.3c-.4-8.7-.3-9.7.8-10.4a4 4 0 0 1 2.3-.5c.6 0 1.5 1.1 2 2.3a40 40 0 0 1 1.4 12c.1 5.5.5 10.2.8 10.5.2.3 3.5 1.1 7.2 1.9a248.7 248.7 0 0 0 35.4 4.3 1311.5 1311.5 0 0 0 68.6 2.6c12.8.2 24 .7 24.7 1.1.8.5 1.2 1.3 1 2.6-.2 1.7-.6 2-4 2.6a1815.4 1815.4 0 0 1-87.8-1.8 751 751 0 0 1-40-3.6l-5.7-.8c-.8-.1-1.3 1.1-2 4.4a239 239 0 0 1-7 26.8 194.7 194.7 0 0 1-10.3 24.1A190 190 0 0 1 331 832c-2.7 4.1-3.8 6.3-3.2 6.5a419.1 419.1 0 0 0 52.4 12 958.2 958.2 0 0 0 44.7 6.5c5.7.6 17.8 1.4 27 1.7 11.8.4 17.4 1 18.9 1.6 1.1.5 2.1 1.6 2.2 2.5.2 1-.3 1.8-1.4 2.4-1.2.7-5.2.8-15.8.4a506 506 0 0 1-80.6-9 420.2 420.2 0 0 1-42.2-9.1 38.8 38.8 0 0 1-9-3.3c-1.3-1.2-1.5-1-4.6 2.4-1.7 2-3.9 3.7-4.8 3.8-1.3.2-1.6.7-1.7 4.1a104.1 104.1 0 0 1-21 55.9l-1.4 1.5 4 8c2.2 4.5 4.7 10.8 5.7 14.1 1 3.7 2.2 6.4 3 6.9a472.2 472.2 0 0 0 35.5 9.8 446.7 446.7 0 0 0 53.5 7.9c6.9.6 21.6 1.3 32.7 1.6 11.1.3 20.6.7 21.1 1 .5.3.9 1.4.9 2.3 0 1-.3 1.9-.7 2.1-.4.2-6 .5-12.6.7a397.4 397.4 0 0 1-50.8-2.5A423.2 423.2 0 0 1 319 953a379.8 379.8 0 0 1-15-4c-.3 0-.6 3.4-.6 7.7 0 4.2-.5 10.2-1 13.3a83 83 0 0 1-2.7 9.9l-1.5 4.3 3.3 4.5c1.8 2.4 3.3 4.7 3.3 5 0 .4-1.7.7-3.8.7h205.4c-2 0-3.5-.2-3.5-.4l1.7-7c1-3.6 2-8.9 2.4-11.7a20 20 0 0 1 1.6-6.2c.5-.5 1.4-1 2.2-1 .7 0 1.8.8 2.4 1.7 1 1.5 1 2.5.3 7.5a109 109 0 0 1-3.5 16.5c0 .3-1.6.6-3.6.6H610c-2.4 0-4.2-.3-4-.6l2.1-4.5a66 66 0 0 0 5.1-16.8l1-5.2-8.6.5c-5.6.3-9.3.2-10.6-.3-1.4-.6-2-1.3-2-2.5 0-1 .6-2.1 1.3-2.5.7-.3 5.9-1 11.5-1.5 7-.6 10.7-1.2 11.5-1.9.6-.5 2.6-4 4.4-7.5 1.8-3.6 4-9 5-12a191.6 191.6 0 0 0 7.2-32.8 272.6 272.6 0 0 0 .5-39.2l-.5-4.2-9.3.2c-6.2.2-9.8 0-10.8-.5a3 3 0 0 1-1.6-2.5c0-1 .5-2 1.2-2.6.7-.6 4.5-1.1 10.4-1.5 5-.3 9.6-.9 10-1.3.5-.5.8-5.8.8-15.5 0-8-.5-18.2-1-22.5a207.4 207.4 0 0 0-6.5-33.2c-1.2-4-3.3-9.5-4.5-12.3a25.1 25.1 0 0 0-3.2-5.5c-.4-.3-5 .2-10.2 1a135 135 0 0 1-14.4 1.7h-5l-.2-2.2c-.2-2.1 0-2.3 2.5-3l12.3-2.5 11.3-2.2 1.7-.4-.4-10.8a211.2 211.2 0 0 0-3.7-30.3 193.9 193.9 0 0 0-6-19.2c-.2 0-2.1 2.7-4.3 5.8a99.4 99.4 0 0 1-36.8 31.4c-4.2 2.1-10.6 5-14.3 6.3a139 139 0 0 1-21 5.9c-.6.1-.6 1.2.1 4 .6 2 1 5.7 1 8.2 0 2.5-.5 5.6-1 7-.9 2-1.4 2.4-3.2 2.4-1.1 0-2.3-.4-2.6-.8a47 47 0 0 1-.6-9.5c-.1-4.7-.4-9-.6-9.3-.3-.5-1.7-.6-3.9-.2-1.8.3-9.6.6-17.2.6a127 127 0 0 1-22.7-1.4 228 228 0 0 1-30-7.4 311 311 0 0 1-15.1-5.4 492 492 0 0 1-45.8-22.6L371.6 702c-4.8-3.2-12.3-8.7-16.6-12.1a327.3 327.3 0 0 1-34.8-33.5c-2-2.6-4.5-6-5.3-7.7-1.4-2.9-1.7-3-3.8-2.7l-8.7 1.5A157.3 157.3 0 0 0 284 652l-2.2.8 5.7 2.5c3.1 1.3 8.2 4 11.2 5.8a90.6 90.6 0 0 1 27.5 25.5c.7 1.2.8 2 .3 2.9-.5.6-1.4 1.2-2.2 1.4-1 .1-2.3-1-4.4-3.6a102.4 102.4 0 0 0-18.8-17.6c-3.1-2-8.9-5.3-12.8-7.2-4-1.9-9.3-4-11.8-4.6l-4.6-1.2-4.8 2.8a120.6 120.6 0 0 0-34.3 29.8 107.3 107.3 0 0 0-14.1 27.4 114.5 114.5 0 0 0-4.7 21.5c0 1.3.5 1.7 2.7 2.1 1.4.3 4.6 1.1 7 2 2.5.7 4.8 1.9 5.2 2.6.3.6.3 1.8 0 2.7-.4 1-1.2 1.6-2.1 1.6-.8 0-4.2-.5-7.5-1.1-4.8-1-6.7-1-10-.4-2.3.4-7.4 2.4-11.3 4.3-3.9 2-10 5.5-13.4 8a96.8 96.8 0 0 0-20.4 20 105.3 105.3 0 0 0-11.5 22.3 115 115 0 0 0-3.3 12.4 128.8 128.8 0 0 0-1.5 33.3 139.7 139.7 0 0 0 3.3 15.4l4-1.2a55 55 0 0 1 6.3-1.9c2-.3 2.9-.1 3.8.7.6.7 1.1 1.8 1.1 2.6 0 .7-.7 1.8-1.5 2.3a42 42 0 0 1-6.5 2.6 31 31 0 0 0-10 5.7 57.8 57.8 0 0 0-14 16.7 118.5 118.5 0 0 0-13 32 74.4 74.4 0 0 0 .3 29.1 140.9 140.9 0 0 0 9 26.6c1.3 2.7 2.7 5 3 5.3.4.2 2.6-.6 4.9-1.7 2.3-1.2 6-2.6 8.2-3.3 2.3-.6 4.9-1 5.8-.8 1 .3 1.9 1.1 2.2 2 .3 1 0 1.9-.9 2.7-.7.6-3.7 2-6.5 3.2a59.3 59.3 0 0 0-9.9 5Zm195-286.5a3 3 0 0 1 1-2c.4-.6 1.3-1 2-1a3 3 0 0 1 2 1c.5.6.8 1.8.6 2.7-.1 1.1-.7 1.8-1.8 2a4 4 0 0 1-2.7-.7 3 3 0 0 1-1-2Zm229.2 67.5c.3-.7.8-1.5 1.2-1.8.5-.3 1.8-.4 3-.3 1.8.2 2 .4 2 2.6 0 2.1-.3 2.6-2 3.2-1.7.6-2.2.5-3.3-.9-.8-1-1.1-2.1-.9-2.8Zm-38.1 5.5c0-1.4.2-2.8.5-3 .2-.3 1.2-.5 2-.5 1 0 2.2.7 2.8 1.6.6 1 1.7 5.5 2.5 10.1a253 253 0 0 1 2.3 19.4c.6 8.3.6 13.4 0 21.3a304 304 0 0 1-2.3 19.1c-.8 4.8-1.9 9.9-2.5 11.2-.8 2-1.4 2.5-3.1 2.5-1.4 0-2.4-.5-3-1.4-.5-1.1-.3-3.7 1-10.5 1-5 2.2-12.7 2.7-17.2a204.2 204.2 0 0 0-1.4-41.2c-.9-4.9-1.5-10-1.5-11.4Zm-230.7 29c-.5-1.4-.4-2.2.4-3.3.6-.9 1.8-1.5 2.7-1.5a4 4 0 0 1 2.6 1.2 15 15 0 0 1 2 3.5 9 9 0 0 1 .6 4.2c-.2 1.7-.6 2.1-2.4 2.3-1.9.2-2.5-.2-3.7-2.1a31 31 0 0 1-2.2-4.3Zm293.2 56.5c0-.9.5-2 1.2-2.3.7-.4 2.3-.8 3.5-.8 1.2 0 2.8.5 3.4 1.1.6.6 1 1.3 1 1.6a6 6 0 0 1-1 2.1c-.8 1.2-1.8 1.6-3.8 1.6-1.4 0-3-.4-3.5-.9a4 4 0 0 1-.8-2.4Zm-66.3 7.4c-.5-4.3-.4-5 1-6.3 1-1.1 1.7-1.2 2.8-.7a6 6 0 0 1 2 2c.4.8 1.1 5.6 1.6 10.9.5 5.7.7 14 .4 20.5a196.3 196.3 0 0 1-9 52.5 59.4 59.4 0 0 1-3.5 9.1c-.8 1.3-2 2.3-2.8 2.3a4 4 0 0 1-2.5-1.1c-.6-.6-1.1-1.3-1.1-1.5a329.8 329.8 0 0 0 7.1-24c1.1-4.4 2.6-11.8 3.3-16.4a328.8 328.8 0 0 0 .7-47.3Zm-268 13.5a4 4 0 0 1 1-3c.8-.9 1.8-1 3-.8 1 .3 2.8 1.3 3.9 2.4 1.3 1.2 1.9 2.4 1.7 3.6 0 1-.7 2-1.4 2.5-1 .6-2 .4-4.6-1-2.6-1.4-3.4-2.3-3.6-3.7ZM571 965.5c-.6-1.4-.6-2 .5-3.2a5 5 0 0 1 3.5-1.4c1.3 0 2.6.4 3.1.9.5.4.9 1.5.9 2.4 0 .9-.7 2-1.4 2.4-.8.4-2.4.7-3.6.7-1.6 0-2.4-.4-3-1.8Zm-319.8 4.3c-.8-1.3-.8-1.7.2-3.2 1-1.4 1.5-1.6 5.1-1.2 2.2.2 4.7 1 5.8 1.8a4 4 0 0 1 1.8 3.4c0 1.8-.3 2-2.5 2.2-1.4.1-4-.2-6-.7-2-.5-3.9-1.5-4.4-2.3Z" clip-rule="evenodd"/>
    <path fill="#FEFFB9" fill-rule="evenodd" d="m616.5 988.3-2.2 6h152.4l.3-8.4a96 96 0 0 0-1.2-18.7 106.5 106.5 0 0 0-7.2-29.2 72 72 0 0 0-11-17.6 26.3 26.3 0 0 0-5.8-5.2c-1.4-.7-4.3-1.4-6.5-1.7a20 20 0 0 1-5-1c-.4-.4-.8-1.5-.8-2.5 0-1.3.6-2 2.6-2.8 1.9-.8 3.5-1 6.2-.5l4.3.6c.4 0 1.1-2 1.6-4.6a107 107 0 0 0-1.9-45 170.9 170.9 0 0 0-9.7-27 137.9 137.9 0 0 0-12.7-20c-2.4-3.1-6.5-7.6-9-10a85.8 85.8 0 0 0-21.1-14.7 22 22 0 0 1-5.2-2.9c-.3-.4-.5-1.1-.5-1.6s.7-1.4 1.5-2c1.2-.7 2.3-.8 4.1-.4l4.2 1.2c1.7.5 1.7.4 1.2-3.2a77 77 0 0 0-2.6-10.2 145.2 145.2 0 0 0-17-33.2 151 151 0 0 0-11.2-13 110 110 0 0 0-25-19.3c-3-1.5-8.5-4-12.4-5.7-6.5-2.6-7.2-3.1-8.5-5.7l-3.5-6.6c-1-2-2.2-3.6-2.3-3.4a26 26 0 0 0-1 4.7c-.5 3.4-.4 4.8.4 6 .5.8 2 4.1 3.1 7.4a158.7 158.7 0 0 1 9 50.9c.5 12.5.6 12.8 2.5 15.5a45 45 0 0 1 4.2 8.3 171.6 171.6 0 0 1 10.3 46.4c.6 5.8 1 15.7 1.1 22 0 6.3-.3 13-.7 14.8-.5 2.4-.5 5.4 0 10.6a237.3 237.3 0 0 1-.3 41.4 174 174 0 0 1-7.3 33 118 118 0 0 1-9.9 21.3c-1.7 3-2.7 6-3.8 12-.9 4.4-2.5 10.7-3.7 14Zm46-204.9c.2-.8 1.2-2 2.2-2.8 1-.8 2.8-1.5 4-1.5 1.3 0 2.8.5 3.2 1 .5.6.8 1.8.7 2.7-.2 1.2-1.3 2.2-3.5 3.2-1.7.9-3.4 1.6-3.7 1.6-.3 0-1.1-.5-1.9-1.3-.9-.9-1.2-2-1-2.9ZM703 916.5c.3-.6 1.8-1.8 3.4-2.5a15 15 0 0 1 4.5-1.4c1 0 2 .8 2.7 1.8.9 1.3 1 2 .4 3-.4.8-2.2 2-4 2.6-1.9.6-3.8 1.1-4.3 1.1s-1.4-.7-2-1.6c-.7-1-1-2.2-.7-3Z" clip-rule="evenodd"/>
    <path fill="#CEF0FF" d="M824.3 626.1a102 102 0 0 1 25 7.5 54.3 54.3 0 0 1 17.9 12.6c1.7 1.8 4 5.3 5.1 7.7a27.7 27.7 0 0 1 2.6 16.7 36 36 0 0 1-2.4 8A28.4 28.4 0 0 1 863 690c-1.4 1-3.8 2.1-5.3 2.6a27 27 0 0 1-7.2.9c-2.4 0-9.6-1-16-2-9.3-1.6-14-2-23-2-10.4 0-12 .2-17.8 2-3.5 1-8.6 3-11.4 4.4a80.2 80.2 0 0 0-21 16 128.5 128.5 0 0 0-19.7 29 237.2 237.2 0 0 0-14.6 36 257.3 257.3 0 0 0-5.7 22c-.2.6-1.9-.6-4.4-3a98.2 98.2 0 0 0-9.1-7.8l-5-3.8-.5-5c-.2-2.9-1.6-8.6-3.3-13.7a160 160 0 0 0-7.2-17.4 58.4 58.4 0 0 1-4.2-10.2c0-.8.7-4.7 1.5-8.7a178.8 178.8 0 0 1 13.4-38.5c3.1-6.2 7-12.6 10.5-17.3 3.1-4.1 8.2-9.9 11.2-12.8a161.4 161.4 0 0 1 21.8-17 177.4 177.4 0 0 1 22.5-11 144.6 144.6 0 0 1 25.2-6.7 146.6 146.6 0 0 1 30.6.2Z"/>
    <path fill="#FEFFB9" d="M605.5 647a219.3 219.3 0 0 1-.3 33c-.6 6.6-1 8.4-3.3 12.8a80.8 80.8 0 0 1-16.7 21.4 117.8 117.8 0 0 1-24 16.3 130.5 130.5 0 0 1-24.5 8.9 26 26 0 0 1-6 1c-.2-.2-.7-8.2-1.2-17.9l-2-34.1c-.6-9.2-1.6-19.2-2.2-22.4a71 71 0 0 0-3.1-12.4c0-.3 5-.4 11.1-.2 6.2 0 15.4-.2 20.5-.6 5-.5 12.9-1.4 17.3-2.2a276 276 0 0 0 33.5-8.4c.2 0 .6 2 .9 4.7Z"/>
    <path fill="#FFD9B8" d="M626.5 426.9c1.1 1 2.4 3.2 2.8 4.7a8 8 0 0 1-.2 5.4c-.5 1.4-2 4-3.2 5.5a37.7 37.7 0 0 1-7.1 6.1 58 58 0 0 1-9.6 5 43.4 43.4 0 0 1-23.5 2.2 87.5 87.5 0 0 1-12.9-2.6c-2.4-.8-5.6-2.5-7.2-3.9a14 14 0 0 1-3.7-5c-.6-1.8-.6-3 0-4.9a11 11 0 0 1 2.9-4.2c1.1-1 3.2-2 4.7-2.6 1.6-.5 4.5-.7 7.6-.4 2.8.2 7.8.9 11 1.5 3.8.7 7.7 1 10.3.8 2.2-.2 5.6-1.1 7.4-2l8.9-4.7c3-1.6 6.5-3 7.7-3a6 6 0 0 1 4.1 2Z"/>
    <path fill="#FEFFB9" d="M409.7 421.7a112.5 112.5 0 0 0 7 22.7l73.3-81.1-4-.1a182.9 182.9 0 0 0-44 7.1 59.9 59.9 0 0 0-18.8 9.8 45.3 45.3 0 0 0-11.2 14c-1 2.4-2.3 6-2.7 8a55.6 55.6 0 0 0 .4 19.6Z"/>
    <path fill="#fff" d="M515.4 366a217.6 217.6 0 0 0-25.4-2.7l-73.4 81a120.6 120.6 0 0 0 8.6 16.9 91.5 91.5 0 0 0 13.2 14.8l94.7-105.7-3.5-1.2c-3.5-1-9.9-2.4-14.2-3.2Z"/>
    <path fill="#FEFFB9" d="M540.9 373.6c-2-1-5-2.3-7.8-3.3L438.4 476c3.8 3.4 7 6 10 7.6l96.2-107.7c-1.3-1-2.6-1.7-3.7-2.3Zm15.6 15.2a39 39 0 0 0-6.3-8.2L455 486.8a65 65 0 0 0 4.4 1.7c5.1 1.8 6.7 2 15 2a56.4 56.4 0 0 0 25.3-5.3 113.8 113.8 0 0 0 42.2-34 113.3 113.3 0 0 0 14.4-27.5 95 95 0 0 0 3-12.8 39.3 39.3 0 0 0-2.7-22.1Z"/>
    <path fill="#fff" d="M550.2 380.6a45.7 45.7 0 0 0-5.6-4.7l-96.3 107.7c1.8 1 4.2 2.1 6.6 3.2l95.3-106.2Z"/>
    <path fill="#FEFFB9" d="M618.7 414.2c1.7 4.4 2 4.6 4.6 5l3.3.8 68.4-76.4a116 116 0 0 0-21.3 2 215.3 215.3 0 0 0-25.9 6.4 52.2 52.2 0 0 0-22.4 12.7 37.9 37.9 0 0 0-7.3 10.5 39.3 39.3 0 0 0-3.5 10.6 55.6 55.6 0 0 0 1.3 20.2c.5 2 1.8 5.7 2.8 8.2Z"/>
    <path fill="#fff" d="M725 349a61.5 61.5 0 0 0-10.8-4 89.3 89.3 0 0 0-19.2-1.4L626.6 420l1.8.8c1.3.7 2.9 2 3.6 3.2.8 1 1.8 3 2.3 4.2.6 1.6.8 4.2.6 7.8l-.4 5.5 6.2 6.1c1.7 1.7 4.2 3.9 6.6 5.9l87.8-97.7a36 36 0 0 0-10-6.8Z"/>
    <path fill="#FEFFB9" d="M741 363.5c-1-2-3.6-5.4-6-7.7l-87.7 97.7a86.8 86.8 0 0 0 9.4 6.7l85-95.4-.7-1.3Zm6.2 28.7a91 91 0 0 0-.7-11.8c-.4-2-1.2-5.2-2-7.7l-80.7 91.8h.3c2.2 1.2 6.7 3 10 4.1 5.5 1.9 6.9 2 16 2a54 54 0 0 0 14.5-1.2 71.2 71.2 0 0 0 17.3-7.8c2-1.2 5.2-4.3 7.3-6.8a68.2 68.2 0 0 0 11.5-21.4 121.4 121.4 0 0 0 5.8-27.4c.4-3.5.7-9.7.7-13.8Z"/>
    <path fill="#fff" d="M744.3 371.6a75 75 0 0 0-2.7-6.8l-84.9 95.4a113 113 0 0 0 7.1 4.3l80.8-91.8-.3-1ZM140.8 827.3c.6-6.9 1.6-13.5 2.9-18.6-24-25-85.7-61-146.7-42.2v227.8h126.6l2.4-2.5 2.3-2.4-3.3-6.6a149.8 149.8 0 0 1-10.5-29.7 69.6 69.6 0 0 1-1.5-17 77 77 0 0 1 9.8-39.5c2-4.3 5.7-10.7 8-14.2 2.4-3.6 6.5-8.5 9.2-11l5-4.7-1.7-6.5a89.7 89.7 0 0 1-2.5-32.9Zm633.4 155a80 80 0 0 1-.4 9.8l221.7 2.2V841c-115.2-40.4-162.1 33.8-171.2 75.9a44.5 44.5 0 0 0-64 8c1.5 2.4 3.8 7 5.1 10.2a109 109 0 0 1 4.2 13.3 192.6 192.6 0 0 1 4.6 33.9Z"/>
    <circle cx="232" cy="362" r="16" fill="#fff"/>
    <circle cx="793.5" cy="827.5" r="18.5" fill="#fff"/>
    <circle cx="161.5" cy="162.5" r="22.5" fill="#fff"/>
    <circle cx="569.5" cy="67.5" r="22.5" fill="#fff"/>
    <circle cx="903" cy="426" r="30" fill="#fff"/>
    <circle cx="83" cy="631" r="30" fill="#fff"/>
  </g>
  <defs>
    <clipPath id="a">
      <path fill="#fff" d="M0 0h994v994H0z"/>
    </clipPath>
  </defs>
</svg>
