<svg xmlns="http://www.w3.org/2000/svg" width="636.967" height="646.177" viewBox="0 0 636.967 646.177">
  <g id="Group_62" data-name="Group 62" transform="translate(-1283.533 -282.118)">
    <g id="Group_60" data-name="Group 60">
      <path id="Path_93" data-name="Path 93" d="M1920,682.054V282.618H1606.622c-178.161,0-322.589,144.428-322.589,322.589s144.428,322.588,322.589,322.588H1920Z" fill="none" stroke="#fff" stroke-linecap="round" stroke-linejoin="round" stroke-width="1"/>
      <g id="Group_59" data-name="Group 59">
        <rect id="Rectangle_34" data-name="Rectangle 34" width="332.405" height="401.361" transform="translate(1920 439.004) rotate(90)" fill="none" stroke="#fff" stroke-linecap="round" stroke-linejoin="round" stroke-width="1"/>
        <path id="Path_94" data-name="Path 94" d="M1518.639,493.865a111.4,111.4,0,0,0,0,222.683Z" fill="none" stroke="#fff" stroke-linecap="round" stroke-linejoin="round" stroke-width="1"/>
      </g>
    </g>
    <g id="Group_61" data-name="Group 61">
      <path id="Path_95" data-name="Path 95" d="M1614.888,555.361a106.553,106.553,0,0,1,11.5,44.359" fill="none" stroke="#fff" stroke-linecap="round" stroke-linejoin="round" stroke-width="1"/>
      <path id="Path_96" data-name="Path 96" d="M1578.287,512.681a115.688,115.688,0,0,1,29.5,30.449" fill="none" stroke="#fff" stroke-linecap="round" stroke-linejoin="round" stroke-width="1"/>
      <path id="Path_97" data-name="Path 97" d="M1518.639,493.865a96.9,96.9,0,0,1,47.148,11.2" fill="none" stroke="#fff" stroke-linecap="round" stroke-linejoin="round" stroke-width="1"/>
      <path id="Path_98" data-name="Path 98" d="M1615.3,654.733a113.99,113.99,0,0,0,11.01-42.556" fill="none" stroke="#fff" stroke-linecap="round" stroke-linejoin="round" stroke-width="1"/>
      <path id="Path_99" data-name="Path 99" d="M1577.192,698.7a109.63,109.63,0,0,0,31.227-31.721" fill="none" stroke="#fff" stroke-linecap="round" stroke-linejoin="round" stroke-width="1"/>
      <path id="Path_100" data-name="Path 100" d="M1518.639,716.548a106.05,106.05,0,0,0,46.84-11.1" fill="none" stroke="#fff" stroke-linecap="round" stroke-linejoin="round" stroke-width="1"/>
    </g>
  </g>
</svg>
