<svg xmlns="http://www.w3.org/2000/svg" width="34.101" height="34.119" viewBox="0 0 34.101 34.119">
  <path id="Path_230" data-name="Path 230" d="M173.746,9586.907v.015h1.137v-.015a17.055,17.055,0,0,0,0-34.09v-.015h-1.137v.015a17.053,17.053,0,0,0,0,34.089Zm-12.071-7.378h4.508a13.4,13.4,0,0,0,3.423,5.544,15.99,15.99,0,0,1-7.932-5.545Zm28.546-10.235h-6.246a30.316,30.316,0,0,0-1.156-7.961h4.93a15.816,15.816,0,0,1,2.473,7.96Zm-16.475,10.235v6.225c-2.886-.289-5.01-2.771-6.336-6.225Zm-6.734-1.138a28.523,28.523,0,0,1-1.22-7.961h7.954v7.961Zm7.871,7.364v-6.227h6.352c-.189.493-.388.972-.607,1.422-1.017,2.073-2.823,4.52-5.745,4.8Zm0-7.364v-7.961h7.948a28.394,28.394,0,0,1-1.2,7.961Zm9.092-7.961h6.248a15.831,15.831,0,0,1-2.462,7.961h-4.942A30.282,30.282,0,0,0,183.975,9570.431Zm-1.137-1.137h-7.955v-7.961h6.734A28.489,28.489,0,0,1,182.838,9569.294Zm-7.955-9.1v-6.226c2.886.289,5.011,2.773,6.336,6.226Zm-1.137-6.226v6.226H167.41c1.326-3.451,3.45-5.936,6.336-6.225Zm0,7.363v7.961h-7.954a28.525,28.525,0,0,1,1.22-7.962Zm-9.085,7.961h-6.255a15.816,15.816,0,0,1,2.474-7.961h4.933a29.921,29.921,0,0,0-1.152,7.962Zm-.007,1.137a30.28,30.28,0,0,0,1.157,7.961H160.88a15.823,15.823,0,0,1-2.473-7.961Zm21.191,10.412a15.807,15.807,0,0,1-6.831,4.242,13.382,13.382,0,0,0,3.436-5.554h4.514a16.017,16.017,0,0,1-1.119,1.314Zm1.11-20.646h-4.5a13.379,13.379,0,0,0-3.423-5.542,15.977,15.977,0,0,1,7.926,5.541Zm-17.337-5.547a11.651,11.651,0,0,0-2.639,3.626,18.781,18.781,0,0,0-.8,1.921h-4.508a15.973,15.973,0,0,1,7.943-5.548Z" transform="translate(-157.241 -9552.803)" fill="#fff"/>
</svg>
