<svg xmlns="http://www.w3.org/2000/svg" width="39.294" height="39.286" viewBox="0 0 39.294 39.286">
  <g id="Group_105" data-name="Group 105" transform="translate(-1938.334 -11780.854)">
    <g id="Group_104" data-name="Group 104">
      <g id="Group_103" data-name="Group 103">
        <path id="Path_121" data-name="Path 121" d="M1957.33,11820.123v.017h1.309v-.017a19.638,19.638,0,0,0,0-39.253v-.017h-1.31v.017a19.637,19.637,0,0,0,0,39.253Zm-13.9-8.5h5.191a15.432,15.432,0,0,0,3.941,6.383,18.4,18.4,0,0,1-9.132-6.383Zm32.869-11.786h-7.192a34.894,34.894,0,0,0-1.331-9.167h5.677a18.211,18.211,0,0,1,2.848,9.167Zm-18.969,11.786v7.168c-3.323-.333-5.769-3.193-7.295-7.168Zm-7.754-1.31a32.811,32.811,0,0,1-1.405-9.166h9.158v9.166Zm9.063,8.479v-7.169h7.314c-.217.567-.447,1.119-.7,1.637-1.172,2.387-3.251,5.2-6.615,5.532Zm0-8.479v-9.166h9.152a32.728,32.728,0,0,1-1.38,9.166Zm10.469-9.166h7.194a18.226,18.226,0,0,1-2.834,9.166h-5.691a34.887,34.887,0,0,0,1.331-9.166Zm-1.309-1.311h-9.16v-9.167h7.754a32.823,32.823,0,0,1,1.405,9.167Zm-9.16-10.476v-7.168c3.323.333,5.77,3.192,7.3,7.168Zm-1.309-7.168v7.168h-7.295C1951.561,11785.391,1954.007,11782.531,1957.33,11782.2Zm0,8.478v9.167h-9.159a32.884,32.884,0,0,1,1.405-9.167Zm-10.461,9.167h-7.2a18.206,18.206,0,0,1,2.848-9.167h5.681a34.422,34.422,0,0,0-1.327,9.167Zm-.008,1.31a34.854,34.854,0,0,0,1.332,9.167h-5.677a18.211,18.211,0,0,1-2.848-9.167Zm24.4,11.988a18.218,18.218,0,0,1-7.866,4.885,15.389,15.389,0,0,0,3.956-6.4h5.2a18.436,18.436,0,0,1-1.289,1.513Zm1.278-23.774h-5.185a15.416,15.416,0,0,0-3.941-6.382,18.4,18.4,0,0,1,9.126,6.382Zm-19.962-6.388a13.48,13.48,0,0,0-3.039,4.176,21.634,21.634,0,0,0-.916,2.212h-5.191a18.4,18.4,0,0,1,9.145-6.388Z" fill="#fff"/>
      </g>
    </g>
  </g>
</svg>
