<svg xmlns="http://www.w3.org/2000/svg" width="1921" height="646.177" viewBox="0 0 1921 646.177">
  <g id="Group_137" data-name="Group 137" transform="translate(0.5 -282.118)">
    <g id="Group_58" data-name="Group 58">
      <g id="Group_56" data-name="Group 56">
        <path id="Path_85" data-name="Path 85" d="M0,528.359V927.795H313.378c178.161,0,322.589-144.428,322.589-322.589S491.539,282.618,313.378,282.618H0Z" fill="none" stroke="#fff" stroke-linecap="round" stroke-linejoin="round" stroke-width="1"/>
        <g id="Group_55" data-name="Group 55">
          <rect id="Rectangle_33" data-name="Rectangle 33" width="332.405" height="401.361" transform="translate(0 771.409) rotate(-90)" fill="none" stroke="#fff" stroke-linecap="round" stroke-linejoin="round" stroke-width="1"/>
          <path id="Path_86" data-name="Path 86" d="M401.361,716.548a111.4,111.4,0,0,0,0-222.683Z" fill="none" stroke="#fff" stroke-linecap="round" stroke-linejoin="round" stroke-width="1"/>
        </g>
      </g>
      <g id="Group_57" data-name="Group 57">
        <path id="Path_87" data-name="Path 87" d="M305.112,655.052a106.558,106.558,0,0,1-11.5-44.359" fill="none" stroke="#fff" stroke-linecap="round" stroke-linejoin="round" stroke-width="1"/>
        <path id="Path_88" data-name="Path 88" d="M341.713,697.732a115.688,115.688,0,0,1-29.5-30.449" fill="none" stroke="#fff" stroke-linecap="round" stroke-linejoin="round" stroke-width="1"/>
        <path id="Path_89" data-name="Path 89" d="M401.361,716.548a96.91,96.91,0,0,1-47.148-11.2" fill="none" stroke="#fff" stroke-linecap="round" stroke-linejoin="round" stroke-width="1"/>
        <path id="Path_90" data-name="Path 90" d="M304.7,555.68a113.993,113.993,0,0,0-11.01,42.556" fill="none" stroke="#fff" stroke-linecap="round" stroke-linejoin="round" stroke-width="1"/>
        <path id="Path_91" data-name="Path 91" d="M342.808,511.716a109.648,109.648,0,0,0-31.227,31.722" fill="none" stroke="#fff" stroke-linecap="round" stroke-linejoin="round" stroke-width="1"/>
        <path id="Path_92" data-name="Path 92" d="M401.361,493.865a106.051,106.051,0,0,0-46.84,11.1" fill="none" stroke="#fff" stroke-linecap="round" stroke-linejoin="round" stroke-width="1"/>
      </g>
    </g>
    <g id="Group_62" data-name="Group 62">
      <g id="Group_60" data-name="Group 60">
        <path id="Path_93" data-name="Path 93" d="M1920,682.054V282.618H1606.622c-178.161,0-322.589,144.428-322.589,322.589s144.428,322.588,322.589,322.588H1920Z" fill="none" stroke="#fff" stroke-linecap="round" stroke-linejoin="round" stroke-width="1"/>
        <g id="Group_59" data-name="Group 59">
          <rect id="Rectangle_34" data-name="Rectangle 34" width="332.405" height="401.361" transform="translate(1920 439.004) rotate(90)" fill="none" stroke="#fff" stroke-linecap="round" stroke-linejoin="round" stroke-width="1"/>
          <path id="Path_94" data-name="Path 94" d="M1518.639,493.865a111.4,111.4,0,0,0,0,222.683Z" fill="none" stroke="#fff" stroke-linecap="round" stroke-linejoin="round" stroke-width="1"/>
        </g>
      </g>
      <g id="Group_61" data-name="Group 61">
        <path id="Path_95" data-name="Path 95" d="M1614.888,555.361a106.553,106.553,0,0,1,11.5,44.359" fill="none" stroke="#fff" stroke-linecap="round" stroke-linejoin="round" stroke-width="1"/>
        <path id="Path_96" data-name="Path 96" d="M1578.287,512.681a115.688,115.688,0,0,1,29.5,30.449" fill="none" stroke="#fff" stroke-linecap="round" stroke-linejoin="round" stroke-width="1"/>
        <path id="Path_97" data-name="Path 97" d="M1518.639,493.865a96.9,96.9,0,0,1,47.148,11.2" fill="none" stroke="#fff" stroke-linecap="round" stroke-linejoin="round" stroke-width="1"/>
        <path id="Path_98" data-name="Path 98" d="M1615.3,654.733a113.99,113.99,0,0,0,11.01-42.556" fill="none" stroke="#fff" stroke-linecap="round" stroke-linejoin="round" stroke-width="1"/>
        <path id="Path_99" data-name="Path 99" d="M1577.192,698.7a109.63,109.63,0,0,0,31.227-31.721" fill="none" stroke="#fff" stroke-linecap="round" stroke-linejoin="round" stroke-width="1"/>
        <path id="Path_100" data-name="Path 100" d="M1518.639,716.548a106.05,106.05,0,0,0,46.84-11.1" fill="none" stroke="#fff" stroke-linecap="round" stroke-linejoin="round" stroke-width="1"/>
      </g>
    </g>
  </g>
</svg>
