<svg width="347" height="500" viewBox="0 0 347 500" fill="none" xmlns="http://www.w3.org/2000/svg">
<path fill-rule="evenodd" clip-rule="evenodd" d="M141.91 0.638047C137.853 1.06728 134.005 1.74337 133.165 2.1741C132.341 2.59734 130.265 3.01509 128.553 3.10253C126.84 3.18948 124.479 3.50928 123.306 3.8126C122.132 4.11641 118.924 5.05383 116.176 5.89582C113.427 6.7378 108.982 8.29834 106.297 9.36319C103.612 10.428 99.4269 12.2979 96.9969 13.5181C94.5669 14.7389 90.355 17.0195 87.6372 18.5865C84.9198 20.1536 81.2346 22.4521 79.4482 23.6939C77.6618 24.9361 74.5137 27.1917 72.4525 28.7058C70.3913 30.2204 66.1189 33.7617 62.9583 36.5755C59.7978 39.3892 55.3915 43.5667 53.1668 45.8583C50.9422 48.1504 47.5678 51.8246 45.668 54.0233C43.7681 56.2219 39.9575 61.0564 37.1992 64.7667C34.4414 68.4769 31.0509 73.3114 29.6658 75.5101C28.2801 77.7087 25.8871 81.6623 24.3486 84.2952C22.8095 86.9285 19.8873 92.4377 17.854 96.5376C15.8208 100.638 13.857 104.78 13.4897 105.741C13.1219 106.703 12.6477 107.722 12.4359 108.005C12.2235 108.288 11.337 110.312 10.4661 112.502C9.59512 114.692 7.9891 118.846 6.89727 121.732C5.80544 124.617 4.70562 127.652 4.45327 128.474C4.20093 129.297 3.99456 130.765 3.99456 131.736C3.99456 132.707 4.34184 133.998 4.76658 134.604C5.34872 135.435 5.40869 135.947 5.01043 136.691C4.72011 137.234 3.80317 139.655 2.97268 142.072C2.14219 144.489 1.13431 148.603 0.732559 151.214C0.27634 154.182 0.00200809 159.706 9.31718e-06 165.957C-0.00198946 171.726 0.317814 178.701 0.755046 182.447C1.17179 186.019 1.98779 191.526 2.56843 194.687C3.14907 197.847 4.29387 203.244 5.11187 206.679C5.92987 210.115 6.89178 214.275 7.25006 215.924C7.60784 217.573 8.24145 220.046 8.65819 221.42C9.07493 222.795 9.98188 225.943 10.6745 228.416C11.3665 230.89 12.5123 234.595 13.2199 236.65C13.927 238.705 15.0992 241.283 15.8243 242.379L17.143 244.371L15.8138 248.137C15.0827 250.207 14.1783 254.263 13.8035 257.148C13.4293 260.034 13.0885 265.768 13.0465 269.891C13.0045 274.013 13.3168 280.629 13.7401 284.592C14.1638 288.555 15.0902 294.514 15.7988 297.834C16.5074 301.153 17.2799 304.769 17.5152 305.869C17.7511 306.968 18.4107 309.441 18.9813 311.365C19.552 313.289 20.4514 316.325 20.9801 318.111C21.5093 319.897 22.6121 323.27 23.4316 325.606C24.393 328.346 25.4709 330.401 26.4682 331.395C27.7415 332.665 28.0653 333.46 28.2996 335.893C28.456 337.518 29.1481 340.984 29.8372 343.595C30.5268 346.206 31.2798 349.129 31.5117 350.091C31.7435 351.053 32.9852 354.539 34.2715 357.837C35.5577 361.135 37.2466 366.194 38.0246 369.08C38.8027 371.965 40.5906 377.587 41.9982 381.572C43.4058 385.557 44.9584 389.942 45.4486 391.316C45.9388 392.69 46.9312 395.037 47.6532 396.531C48.3758 398.026 48.9669 399.424 48.9669 399.639C48.9669 399.853 50.7753 403.69 52.986 408.165C55.1961 412.639 57.7305 417.65 58.6175 419.299C59.5045 420.948 61.1105 423.871 62.1873 425.795C63.2636 427.719 64.6648 429.988 65.3004 430.839C65.936 431.689 66.4562 432.564 66.4562 432.782C66.4562 433 67.6814 434.665 69.179 436.483C70.6766 438.3 74.128 441.922 76.8488 444.533C79.5696 447.144 83.1224 450.413 84.7444 451.797C86.366 453.181 89.1547 455.429 90.9411 456.794C92.7275 458.158 94.3016 459.393 94.439 459.537C94.5764 459.682 97.1623 461.549 100.185 463.686C103.209 465.824 107.498 468.741 109.717 470.169C111.936 471.597 114.718 473.328 115.899 474.015C117.08 474.702 119.536 476.705 121.358 478.466C123.18 480.226 126.399 483.076 128.511 484.799C130.623 486.521 133.884 488.929 135.757 490.15C137.629 491.371 140.736 493.155 142.659 494.115C144.583 495.075 147.956 496.446 150.155 497.162C152.353 497.877 155.726 498.752 157.65 499.106C160.004 499.539 166.052 499.749 176.139 499.749C186.346 499.749 192.325 499.539 194.877 499.089C196.939 498.725 201.548 497.856 205.121 497.158C208.694 496.458 214.765 494.988 218.613 493.89C222.46 492.791 228.194 490.878 231.355 489.64C234.515 488.401 239.596 486.209 242.646 484.77C245.696 483.331 250.453 480.884 253.217 479.332C255.981 477.78 259.628 475.47 261.32 474.198C263.013 472.925 266.354 469.946 268.744 467.578C271.134 465.21 274.329 461.698 275.843 459.774C277.358 457.85 279.434 455.039 280.458 453.527C281.482 452.014 283.587 449.316 285.136 447.53C286.685 445.745 289.216 442.852 290.76 441.103C292.303 439.355 294.092 437.331 294.734 436.606C295.377 435.882 296.404 434.727 297.016 434.04C297.629 433.353 299.794 430.879 301.828 428.543C303.861 426.207 305.653 424.183 305.809 424.046C305.965 423.909 309.26 420.198 313.131 415.801C317.002 411.404 320.809 407.131 321.593 406.307C322.377 405.482 323.704 403.908 324.542 402.809C325.381 401.71 327.097 399.124 328.357 397.063C329.618 395.001 331.498 391.31 332.537 388.859C333.575 386.408 335.082 382.136 335.886 379.364C336.689 376.594 337.769 371.516 338.284 368.08C338.8 364.645 339.669 358.911 340.216 355.338C340.763 351.765 341.459 346.256 341.762 343.096C342.065 339.935 342.639 334.876 343.036 331.853C343.434 328.829 344.095 322.533 344.504 317.861C344.914 313.189 345.595 303.52 346.017 296.374C346.44 289.229 346.865 278.773 346.962 273.139C347.059 267.505 346.964 259.297 346.752 254.9C346.54 250.503 346.002 243.644 345.557 239.659C345.112 235.674 344.332 230.615 343.823 228.416C343.315 226.217 342.431 222.82 341.86 220.866C341.29 218.912 340.016 215.764 339.029 213.871C338.042 211.977 336.64 209.805 335.912 209.045L334.588 207.662L335.696 200.8C336.305 197.025 337.03 191.014 337.306 187.441C337.582 183.868 337.775 178.022 337.734 174.449C337.694 170.876 337.359 164.693 336.99 160.708C336.622 156.723 335.857 150.089 335.291 145.967C334.725 141.844 333.583 135.548 332.754 131.975C331.925 128.403 330.806 123.68 330.268 121.482C329.538 118.503 329.37 116.642 329.608 114.179C329.801 112.174 329.685 109.814 329.314 108.182C328.977 106.702 328.258 104.255 327.716 102.743C327.173 101.232 325.15 97.2252 323.22 93.8403C321.291 90.4554 318.678 86.183 317.416 84.3461C316.153 82.5093 314.43 80.0428 313.587 78.864C312.745 77.6857 311.606 76.1057 311.056 75.3532C310.506 74.6001 309.158 72.8662 308.059 71.499C306.96 70.1324 304.515 67.2152 302.626 65.0165C300.737 62.8179 296.801 58.5755 293.88 55.5888C290.96 52.6021 286.635 48.4422 284.27 46.3445C281.906 44.2468 278.87 41.6184 277.525 40.5041C276.179 39.3897 273.232 37.0962 270.975 35.4077C268.718 33.7192 264.645 30.879 261.924 29.0961C259.203 27.3137 255.291 24.8582 253.23 23.6399C251.17 22.4217 246.248 19.8313 242.293 17.883C238.339 15.9346 233.304 13.6346 231.105 12.7716C228.906 11.9086 224.634 10.3171 221.611 9.23526C218.588 8.15343 214.878 6.96266 213.366 6.58939C211.854 6.21612 208.903 5.45309 206.807 4.89393C204.712 4.33478 200.327 3.39235 197.063 2.80072C193.8 2.20858 188.993 1.38359 186.383 0.967844C183.074 0.441168 176.715 0.16034 165.395 0.0419131C153.268 -0.0850089 147.321 0.0658983 141.91 0.638047ZM175.389 10.8038C178.55 11.0756 184.509 11.7567 188.631 12.3164C192.754 12.876 199.612 14.2097 203.872 15.2806C208.132 16.3514 213.978 18.0084 216.864 18.9628C219.75 19.9177 223.797 21.3703 225.858 22.1913C227.919 23.0123 232.754 25.1945 236.602 27.0408C240.449 28.8867 244.947 31.2008 246.596 32.1822C248.245 33.1641 251.393 35.0844 253.591 36.4505C255.79 37.8162 260.624 41.1876 264.335 43.9419C268.045 46.6968 272.767 50.4265 274.828 52.2304C276.889 54.0347 280.568 57.4247 283.004 59.7637C285.439 62.1033 290.164 67.1652 293.504 71.0128C296.844 74.8605 300.366 79.0204 301.331 80.2571C302.295 81.4939 304.067 83.8549 305.268 85.5039L307.452 88.5021L305.256 86.4453C304.049 85.3135 301.262 83.0449 299.063 81.4034C296.865 79.7614 293.717 77.5238 292.068 76.4305C290.419 75.3372 287.607 73.6342 285.819 72.6468C284.031 71.6589 280.446 69.917 277.851 68.7752C275.257 67.6334 270.311 65.9859 266.861 65.1134C261.004 63.6329 260.022 63.5289 252.092 63.5494C244.458 63.5689 243.066 63.7108 238.351 64.9505C235.465 65.7096 231.192 67.1452 228.856 68.1411C226.52 69.137 223.26 70.733 221.611 71.6879C219.962 72.6428 217.151 74.4437 215.365 75.6894C213.578 76.9347 209.981 79.7969 207.37 82.0495C204.759 84.3022 199.812 89.0552 196.376 92.6121C192.941 96.1689 188.264 101.699 185.983 104.902C183.702 108.106 180.401 113.484 178.648 116.854C176.895 120.224 174.576 125.567 173.496 128.727C172.415 131.888 171.141 136.722 170.665 139.471C170.129 142.569 168.872 146.841 167.358 150.714C166.015 154.149 164.364 158.759 163.689 160.958C163.014 163.156 162.125 166.304 161.715 167.953C161.304 169.602 160.615 173.375 160.184 176.338C159.752 179.301 159.399 183.82 159.399 186.38V191.035L155.776 190.327C153.784 189.937 150.773 189.719 149.086 189.842L146.02 190.066L145.707 187.709C145.535 186.412 145.053 184.042 144.637 182.442C144.22 180.843 143.019 177.715 141.967 175.493C140.916 173.27 139.781 170.552 139.446 169.452C139.11 168.353 138.202 165.767 137.428 163.706C136.654 161.645 135.226 157.485 134.254 154.462C133.282 151.438 131.593 145.929 130.501 142.219C129.409 138.509 127.835 133 127.004 129.977C126.173 126.953 125.338 123.581 125.147 122.481C124.957 121.382 124.279 118.234 123.642 115.485C123.004 112.737 121.805 106.104 120.977 100.745C120.149 95.3853 119.215 88.5226 118.9 85.4939C118.549 82.114 118.412 74.5876 118.545 66.0059C118.74 53.4051 118.896 51.3089 120.132 44.7789C120.885 40.7939 122.409 34.835 123.517 31.5371C124.625 28.2391 126.439 23.8543 127.548 21.7931C128.657 19.7318 130.065 17.3708 130.677 16.5463C131.289 15.7218 133.038 14.4206 134.562 13.6551C136.086 12.8895 138.644 12.037 140.246 11.7617C141.848 11.4859 145.633 11.0756 148.656 10.8508C151.679 10.6254 157.638 10.411 161.898 10.3746C166.157 10.3386 172.229 10.5315 175.389 10.8038ZM121.89 18.8594C120.766 21.0935 118.964 25.3883 117.884 28.4035C116.803 31.4186 115.265 37.1801 114.465 41.2061C113.665 45.2327 112.737 51.21 112.403 54.489C112.001 58.4385 111.893 64.6807 112.085 72.9776C112.245 79.8674 112.713 87.9774 113.126 91.0005C113.539 94.0237 114.339 99.5328 114.904 103.243C115.47 106.953 116.731 113.587 117.708 117.984C118.686 122.381 120.48 129.689 121.696 134.224C122.912 138.759 124.683 145.055 125.632 148.215C126.581 151.376 128.917 158.459 130.824 163.956C132.73 169.452 135.203 175.973 136.321 178.447C137.438 180.92 138.584 183.956 138.869 185.193C139.154 186.429 139.392 188.369 139.399 189.503L139.411 191.563L135.987 192.664C134.105 193.27 131.596 194.406 130.412 195.19L128.261 196.614L127.174 193.504C126.576 191.793 125.28 188.718 124.294 186.669C123.307 184.62 121.385 181.258 120.022 179.196C118.659 177.135 115.932 173.425 113.961 170.952C111.99 168.479 108.4 164.431 105.985 161.957C103.569 159.483 99.6928 155.324 97.3707 152.713C95.0491 150.102 92.027 146.841 90.6558 145.467C89.2842 144.093 86.7937 141.732 85.1207 140.22C83.4482 138.709 80.644 136.297 78.89 134.86C77.1356 133.423 73.7892 130.936 71.4531 129.333C69.1171 127.73 65.7441 125.61 63.9577 124.621C62.1713 123.632 58.4611 121.927 55.7128 120.831C52.9645 119.735 48.1419 118.335 44.9954 117.72C40.4357 116.827 38.3065 116.66 34.5018 116.896C31.8769 117.058 28.0248 117.622 25.9421 118.148C23.8594 118.675 21.6817 119.36 21.103 119.669C20.5239 119.979 19.8228 120.233 19.5445 120.233C19.2662 120.233 19.5615 118.827 20.2006 117.11C20.8397 115.392 21.9725 112.637 22.7186 110.988C23.4641 109.339 25.6138 104.908 27.4946 101.14C29.376 97.3726 32.536 91.5262 34.5168 88.1483C36.4976 84.7699 38.8167 80.9942 39.6701 79.7574C40.5236 78.5207 41.4465 77.1301 41.7214 76.6673C41.9962 76.2041 43.6702 73.8431 45.4411 71.4206C47.212 68.9976 51.5134 63.7548 54.9987 59.7697C58.4846 55.7847 62.657 51.2809 64.271 49.7619C65.885 48.2423 69.4543 45.0872 72.2027 42.7502C74.951 40.4131 78.4363 37.5918 79.9479 36.4805C81.4595 35.3692 83.8205 33.6812 85.1947 32.7293C86.5688 31.7774 90.0647 29.6187 92.9629 27.9318C95.8616 26.2448 100.359 23.8533 102.957 22.6175C105.555 21.3813 109.255 19.7608 111.179 19.0158C113.103 18.2712 116.7 17.03 119.174 16.258C121.647 15.4859 123.73 14.8413 123.801 14.8258C123.873 14.8103 123.013 16.6252 121.89 18.8594ZM265.834 71.5035C268.719 72.2501 272.992 73.6717 275.328 74.6621C277.664 75.6525 280.924 77.2345 282.573 78.1769C284.222 79.1198 286.808 80.6844 288.32 81.6543C289.831 82.6237 292.652 84.595 294.587 86.0341C296.522 87.4737 300.267 90.5753 302.908 92.9274C305.549 95.2789 309.956 99.7442 312.7 102.85C316.128 106.73 317.885 109.15 318.314 110.584C318.781 112.14 318.804 113.205 318.406 114.771C317.953 116.559 318.06 117.51 319.127 121.175C319.817 123.543 321.276 129.527 322.369 134.474C323.463 139.421 324.69 146.279 325.096 149.714C325.501 153.15 326.055 158.209 326.327 160.958C326.598 163.706 326.828 170.452 326.838 175.948C326.847 181.445 326.619 187.966 326.33 190.439C326.041 192.913 325.803 195.345 325.801 195.845C325.797 196.598 325.436 196.463 323.673 195.048C322.505 194.111 320.46 192.609 319.128 191.71C317.797 190.812 314.537 189.221 311.883 188.176C309.23 187.131 305.597 185.999 303.81 185.659C302.024 185.321 297.302 185.072 293.317 185.107C289.332 185.143 284.385 185.382 282.324 185.639C280.262 185.897 275.99 186.485 272.829 186.947C269.616 187.416 265.541 187.686 263.585 187.559C261.131 187.399 257.815 186.557 252.475 184.736C248.289 183.309 242.33 181.478 239.234 180.666C236.137 179.855 231.569 179.049 229.082 178.876C226.393 178.687 223.221 178.792 221.258 179.134C219.442 179.45 215.855 180.396 213.287 181.235C210.72 182.074 207.78 183.307 206.755 183.976C205.731 184.646 204.785 185.193 204.654 185.193C204.523 185.193 201.785 186.801 198.569 188.767C195.352 190.734 191.35 192.771 189.676 193.294C188.002 193.817 185.058 194.582 183.135 194.993C181.211 195.404 178.096 195.739 176.212 195.737C174.07 195.735 171.601 195.338 169.615 194.677C167.324 193.915 166.343 193.318 166.088 192.53C165.894 191.93 165.752 189.078 165.773 186.192C165.794 183.306 166.186 178.584 166.644 175.699C167.102 172.813 168.385 167.416 169.494 163.706C170.603 159.996 171.835 156.326 172.232 155.55C172.816 154.409 173.089 154.254 173.667 154.733C174.06 155.059 175.001 155.222 175.76 155.095C176.518 154.968 179.386 154.253 182.134 153.505C184.882 152.758 192.078 150.454 198.124 148.386C204.171 146.318 210.468 144.219 212.117 143.722C213.766 143.225 217.139 142.462 219.612 142.027C222.086 141.591 226.92 140.89 230.356 140.469C233.791 140.047 239.3 139.57 242.598 139.409C246.949 139.196 249.929 139.336 253.461 139.918C256.138 140.359 259.334 140.72 260.564 140.72C262.318 140.72 262.92 140.496 263.357 139.68C263.816 138.822 263.68 138.285 262.577 136.619C261.841 135.508 258.732 132.07 255.666 128.979C252.601 125.888 248.893 122.547 247.426 121.554C245.958 120.561 243.147 119.252 241.179 118.646C238.549 117.836 236.277 117.536 232.604 117.514C229.856 117.498 225.583 117.793 223.11 118.171C220.636 118.548 216.701 119.272 214.365 119.778C212.029 120.285 207.982 121.285 205.371 122C202.76 122.715 199.162 123.861 197.376 124.546C195.589 125.232 192.666 126.389 190.88 127.117C189.093 127.845 185.591 129.479 183.096 130.748L178.561 133.055L180.194 128.713C181.093 126.326 182.556 122.935 183.445 121.178C184.334 119.421 185.95 116.522 187.037 114.736C188.123 112.95 190.608 109.352 192.561 106.741C194.513 104.13 199.4 98.7038 203.421 94.6828C207.443 90.6617 212.48 85.9831 214.617 84.2857C216.753 82.5882 219.763 80.3886 221.305 79.3972C222.847 78.4063 226.029 76.6444 228.375 75.4816C230.721 74.3188 234.311 72.8697 236.354 72.2615C238.397 71.6529 241.424 70.8469 243.082 70.4696C245.141 70.0009 248.392 69.841 253.341 69.9645C259.192 70.1104 261.597 70.4067 265.834 71.5035ZM46.9946 124.666C49.0709 125.184 52.4438 126.318 54.49 127.187C56.5368 128.056 58.661 129.024 59.2106 129.337C59.7603 129.651 61.4468 130.61 62.9583 131.469C64.4699 132.328 67.3931 134.239 69.4543 135.717C71.5156 137.195 74.4388 139.417 75.9504 140.655C77.4619 141.893 80.4416 144.576 82.5723 146.617C86.256 150.146 86.3665 150.314 84.8209 150.048C83.927 149.895 80.3851 149.507 76.9497 149.186C73.5143 148.865 67.6679 148.721 63.9577 148.865C60.2475 149.01 55.413 149.385 53.2143 149.698C51.0157 150.012 48.0925 150.484 46.7183 150.747C45.3442 151.011 42.4219 151.954 40.2248 152.844C37.0463 154.131 35.5981 155.091 33.1407 157.539C31.4417 159.232 29.7153 161.266 29.3045 162.06C28.8943 162.855 28.1107 164.843 27.5646 166.479C27.0179 168.114 26.3228 170.386 26.02 171.527C25.7172 172.668 25.241 175.366 24.9627 177.523C24.6838 179.68 24.5889 182.259 24.7518 183.253C24.9632 184.548 25.4104 185.228 26.3253 185.644C27.3627 186.117 27.8339 186.075 28.8318 185.421C29.5079 184.978 30.8855 183.884 31.8934 182.991C32.9018 182.097 34.8401 180.61 36.2013 179.688C37.5624 178.765 40.0564 177.277 41.7434 176.382C43.4303 175.487 47.4888 174.087 50.7613 173.273C54.0343 172.458 58.2862 171.556 60.21 171.268C62.1338 170.979 66.5186 170.479 69.954 170.155C74.2179 169.754 78.6582 169.704 83.9454 169.997C88.2053 170.234 93.0319 170.399 94.6714 170.365C97.2663 170.31 97.8059 170.123 98.8388 168.923C99.7008 167.92 99.9641 167.125 99.8012 166.013C99.5948 164.61 99.9101 164.834 103.596 168.717C105.807 171.045 109.114 174.974 110.946 177.447C112.778 179.921 115.168 183.417 116.259 185.217C117.348 187.017 119.07 190.471 120.083 192.892C121.097 195.314 122.059 198.451 122.221 199.864L122.516 202.432L120.096 204.254C118.764 205.257 116.804 206.437 115.74 206.878C114.676 207.319 112.835 207.679 111.649 207.679C110.463 207.679 107.736 207.236 105.589 206.694C103.441 206.153 99.7732 205.131 97.4372 204.423C95.1011 203.716 90.8657 202.916 88.0254 202.645C84.588 202.318 81.2461 202.324 78.0316 202.661C75.3752 202.94 72.3026 203.421 71.2033 203.731C70.1039 204.041 67.6564 205.058 65.7646 205.992C63.8728 206.926 61.4213 208.355 60.3175 209.167C59.2131 209.979 55.2521 213.655 51.5144 217.336C47.2155 221.57 43.8016 224.49 42.2211 225.283C40.8469 225.973 39.1605 226.703 38.4734 226.904C37.7863 227.106 35.4837 228.279 33.357 229.512C31.2298 230.744 28.3821 232.837 27.0279 234.163L24.5669 236.573L24.0647 235.243C23.7884 234.511 22.8854 231.777 22.058 229.166C21.2305 226.555 19.9538 222.282 19.2202 219.671C18.4867 217.061 17.6871 214.137 17.4438 213.175C17.2004 212.214 16.335 208.503 15.52 204.931C14.705 201.358 13.4757 194.949 12.7882 190.689C12.1006 186.429 11.2766 180.695 10.9578 177.947C10.639 175.199 10.3886 169.546 10.4021 165.386C10.4156 161.225 10.6804 156.391 10.9913 154.642C11.3021 152.894 12.0101 149.665 12.5643 147.466C13.119 145.267 14.3407 142.07 15.2796 140.361C16.4789 138.178 16.9866 136.613 16.9866 135.096C16.9866 133.087 17.2329 132.692 20.5729 129.345C23.5415 126.371 24.6823 125.582 27.1938 124.768C28.8628 124.227 30.7906 123.675 31.4777 123.542C32.1648 123.408 35.088 123.395 37.9737 123.512C40.8594 123.629 44.9189 124.149 46.9946 124.666ZM218.113 160.53C217.289 160.626 215.377 160.957 213.866 161.266C212.354 161.576 209.543 162.521 207.619 163.365C205.696 164.21 202.458 166.139 200.423 167.652C198.363 169.186 195.753 171.725 194.529 173.388C193.237 175.142 192.393 176.797 192.48 177.404C192.562 177.972 193.025 178.512 193.509 178.604C194.058 178.709 195.939 177.329 198.506 174.938C201.476 172.172 203.736 170.577 206.62 169.211C208.819 168.17 212.477 166.955 214.75 166.512C217.023 166.068 221.344 165.705 224.352 165.705C227.696 165.705 231.746 166.078 234.777 166.666C237.504 167.194 241.503 168.351 243.665 169.236C245.827 170.121 248.31 171.375 249.185 172.023C250.06 172.67 250.904 173.2 251.059 173.2C251.215 173.2 251.343 172.906 251.343 172.547C251.343 172.189 250.787 171.142 250.108 170.222C249.429 169.301 247.799 167.783 246.485 166.847C245.172 165.912 243.085 164.691 241.848 164.136C240.612 163.579 238.476 162.699 237.101 162.179C235.727 161.66 233.029 161.008 231.105 160.731C229.181 160.454 225.808 160.257 223.61 160.293C221.411 160.328 218.938 160.435 218.113 160.53ZM72.2971 185.739C70.7006 185.973 67.498 186.937 65.1815 187.881C62.8644 188.825 60.0111 190.335 58.8404 191.235C57.6701 192.135 55.9227 193.674 54.9582 194.654C53.9933 195.634 52.3568 197.598 51.322 199.019C50.2871 200.44 48.9964 202.892 48.4542 204.469C47.9116 206.046 47.4748 207.919 47.4838 208.632C47.4993 209.887 47.5218 209.896 48.2019 208.928C48.5882 208.378 49.5366 207.036 50.3096 205.944C51.0826 204.853 53.5831 202.117 55.8657 199.864C58.8084 196.96 61.135 195.191 63.8608 193.784C65.9755 192.693 69.3239 191.437 71.3017 190.995C73.28 190.552 76.5675 190.19 78.6067 190.19C80.6465 190.19 84.3122 190.526 86.7532 190.938C89.1942 191.349 92.7031 192.266 94.5509 192.976C96.3993 193.685 98.3106 194.189 98.7983 194.096C99.2865 194.003 99.7537 193.453 99.8367 192.874C99.9336 192.198 99.4554 191.373 98.5 190.569C97.682 189.881 94.9157 188.634 92.3528 187.797C89.7898 186.961 85.9342 186.033 83.7845 185.734C81.6344 185.437 78.8236 185.22 77.5384 185.254C76.2527 185.287 73.8941 185.505 72.2971 185.739ZM234.154 187.653C236.929 188.182 240.527 189.172 242.148 189.852C243.77 190.533 246.052 191.345 247.22 191.658C248.388 191.971 249.344 192.399 249.344 192.609C249.344 192.819 246.59 194.352 243.223 196.015C239.856 197.679 235.865 199.465 234.353 199.986C232.033 200.785 230.162 200.931 222.36 200.917C213.712 200.901 212.684 200.797 206.416 199.297C202.731 198.416 199.63 197.608 199.524 197.502C199.418 197.396 201.872 195.844 204.975 194.054C208.078 192.263 211.63 190.283 212.866 189.653C214.103 189.024 216.464 188.116 218.113 187.636C219.778 187.151 222.89 186.747 225.11 186.727C227.309 186.708 231.379 187.124 234.154 187.653ZM300.075 191.425C302.191 191.831 305.528 192.893 307.489 193.787C309.451 194.681 312.405 196.275 314.054 197.328C315.703 198.381 318.662 200.689 320.63 202.456C324.176 205.642 324.203 205.684 323.686 207.371C323.398 208.306 323.311 209.662 323.492 210.383C323.674 211.104 324.772 212.664 325.934 213.848C327.351 215.294 328.518 217.22 329.483 219.71L330.921 223.419L330.625 232.414C330.463 237.361 329.782 245.568 329.112 250.652C328.443 255.737 327.198 262.932 326.347 266.643C325.495 270.353 324.205 275.469 323.479 278.011C322.753 280.553 322.022 282.626 321.854 282.618C321.687 282.61 320.8 281.294 319.885 279.694C318.969 278.094 317.044 275.437 315.607 273.789C314.17 272.142 311.434 269.378 309.527 267.646C307.62 265.916 304.935 263.67 303.561 262.657C302.186 261.644 299.844 259.962 298.356 258.92C296.868 257.878 294.507 256.343 293.109 255.51C291.712 254.676 288.545 252.849 286.071 251.447C283.598 250.046 279.888 248.083 277.826 247.084C275.765 246.086 272.392 244.482 270.331 243.519C268.27 242.556 264.672 240.974 262.336 240.004C260 239.034 256.627 237.652 254.84 236.933C253.054 236.214 248.827 234.613 245.447 233.374C242.067 232.135 234.534 229.575 228.707 227.686C222.881 225.796 215.977 223.644 213.366 222.902C210.755 222.16 205.808 220.79 202.373 219.856C198.937 218.922 193.704 217.606 190.743 216.93C187.782 216.255 183.799 215.046 181.891 214.245C179.983 213.443 177.467 212.032 176.3 211.108C175.132 210.184 173.448 208.641 172.557 207.679C171.666 206.717 170.332 204.827 169.592 203.479L168.247 201.028L169.444 201.406C170.103 201.615 175.139 201.961 180.636 202.177C186.133 202.393 192.429 202.924 194.627 203.357C196.826 203.79 201.098 204.723 204.122 205.43C207.145 206.136 211.192 207.075 213.116 207.515C215.368 208.031 219.105 208.328 223.61 208.351C230.362 208.386 230.762 208.329 235.103 206.711C237.576 205.79 239.825 204.87 240.1 204.668C240.374 204.465 243.073 203.058 246.096 201.541C249.119 200.024 253.138 198.085 255.025 197.232C256.914 196.38 259.724 195.358 261.272 194.962C262.819 194.565 267.458 193.752 271.58 193.154C275.703 192.556 281.886 191.786 285.322 191.442C288.757 191.099 292.616 190.789 293.897 190.754C295.179 190.718 297.958 191.021 300.075 191.425ZM157.859 197.515C160.398 198.413 160.618 198.625 161.418 200.951C161.887 202.316 162.864 204.538 163.589 205.89C164.314 207.243 165.519 209.154 166.267 210.138C167.015 211.121 168.251 212.539 169.014 213.288C169.777 214.037 171.646 215.569 173.166 216.692C174.686 217.815 177.45 219.381 179.309 220.172C181.167 220.963 184.249 221.972 186.159 222.415C188.068 222.858 192.779 224.023 196.626 225.004C200.474 225.985 206.32 227.567 209.618 228.52C212.916 229.472 218.088 231.025 221.111 231.968C224.134 232.912 229.081 234.491 232.104 235.477C235.128 236.463 239.737 238.06 242.348 239.026C244.959 239.992 248.669 241.421 250.593 242.202C252.517 242.984 255.215 244.06 256.589 244.593C257.964 245.126 260.701 246.242 262.673 247.072C264.644 247.902 269.142 249.988 272.667 251.708C276.191 253.428 281.886 256.454 285.322 258.433C288.757 260.41 292.692 262.789 294.066 263.718C295.441 264.647 298.379 266.789 300.596 268.477C302.813 270.165 306.524 273.564 308.841 276.031C311.158 278.498 314.143 282.325 315.474 284.535C317.635 288.124 317.901 288.889 317.972 291.714C318.04 294.396 317.764 295.52 316.154 299.123C315.111 301.459 312.894 306.115 311.229 309.471C309.563 312.826 306.961 317.661 305.447 320.214C303.933 322.768 301.336 326.881 299.676 329.354C298.016 331.828 294.729 336.325 292.372 339.348C290.015 342.371 284.26 348.686 279.583 353.381C274.907 358.076 269.803 362.981 268.242 364.28L265.404 366.643L258.998 361.585C255.475 358.803 251.625 355.81 250.444 354.933C249.263 354.056 247.689 352.868 246.946 352.292C246.204 351.715 243.235 349.663 240.349 347.731C237.464 345.799 232.84 342.87 230.076 341.222C227.31 339.574 222.841 337.074 220.142 335.667C217.443 334.259 213.409 332.327 211.178 331.372C208.946 330.417 204.905 328.838 202.199 327.863C199.492 326.887 194.658 325.485 191.455 324.748C186.286 323.558 184.652 323.41 176.888 323.433C168.594 323.458 167.899 323.537 163.397 324.96C160.786 325.786 158.256 326.63 157.775 326.837C157.003 327.168 156.901 326.892 156.901 324.481C156.901 322.978 156.763 320.743 156.595 319.516L156.288 317.283L160.218 314.731C162.378 313.327 166.831 310.206 170.112 307.795L176.077 303.412L181.355 303.098C184.729 302.897 187.203 302.487 188.212 301.962C189.081 301.511 190.262 300.544 190.836 299.815C191.517 298.949 191.879 297.761 191.879 296.394C191.879 294.859 191.579 294.027 190.755 293.276C190.136 292.713 189.139 291.999 188.539 291.69C187.939 291.38 186.411 291.128 185.145 291.128C183.611 291.128 181.725 291.65 179.491 292.694C177.647 293.556 174.79 295.291 173.141 296.549C171.492 297.807 168.344 300.535 166.145 302.611C163.946 304.687 160.911 307.421 159.399 308.686C157.888 309.952 155.931 311.353 155.052 311.801C154.172 312.248 153.092 312.614 152.652 312.614C152.211 312.614 151.024 312.053 150.013 311.366C149.003 310.68 147.074 309.049 145.727 307.743C144.38 306.437 142.44 304.132 141.415 302.621C140.39 301.109 138.813 298.188 137.911 296.129C137.009 294.07 135.718 289.798 135.041 286.635C133.993 281.738 133.803 279.474 133.764 271.39C133.729 263.979 133.969 260.141 134.86 253.9C135.487 249.503 136.884 242.278 137.963 237.843C139.042 233.41 140.386 228.463 140.95 226.85C141.515 225.238 142.305 222.345 142.706 220.421C143.108 218.497 143.986 213.888 144.659 210.177C145.331 206.467 145.886 201.929 145.894 200.094C145.906 197.042 146.004 196.734 147.032 196.51C147.65 196.375 149.73 196.33 151.654 196.411C153.578 196.492 156.37 196.988 157.859 197.515ZM139.272 202.807C139.115 205.349 138.293 210.69 137.445 214.675C136.597 218.66 135.352 223.607 134.68 225.668C134.007 227.729 132.646 232.788 131.655 236.911C130.663 241.033 129.375 247.554 128.79 251.402C127.945 256.963 127.722 260.807 127.698 270.14C127.675 279.456 127.854 282.865 128.569 286.63C129.064 289.241 129.828 292.502 130.268 293.876C130.708 295.25 131.8 297.985 132.693 299.953C133.586 301.921 135.233 304.88 136.352 306.527C137.47 308.175 139.501 310.668 140.865 312.068C142.228 313.468 143.181 314.613 142.982 314.613C142.782 314.613 141.359 314.285 139.819 313.884C138.278 313.482 135.139 312.281 132.843 311.213C130.547 310.146 127.099 308.193 125.182 306.872C122.775 305.214 121.036 304.396 119.565 304.231C118.256 304.083 117.142 304.232 116.679 304.616C116.265 304.96 115.926 305.899 115.926 306.702C115.926 307.596 116.413 308.65 117.182 309.418C117.873 310.109 119.845 311.333 121.565 312.138C123.286 312.943 125.813 313.752 127.18 313.935C128.548 314.117 130.792 314.888 132.166 315.648C133.54 316.408 135.901 317.411 137.413 317.877C138.924 318.344 142.41 318.868 145.158 319.043L150.155 319.36V324.357V329.354L143.659 329.663C140.086 329.832 136.038 330.237 134.664 330.561C133.29 330.886 130.746 331.588 129.01 332.121C127.274 332.654 124.405 333.9 122.633 334.891C120.861 335.882 117.767 338.338 115.756 340.348C112.917 343.187 111.621 344.99 109.954 348.421C108.773 350.851 107.485 353.402 107.092 354.089C106.698 354.776 105.272 357.587 103.921 360.335C102.479 363.271 100.806 367.805 99.8652 371.328C98.3441 377.023 98.2641 377.776 98.2656 386.319C98.2666 394.475 98.3911 395.776 99.5948 400.275C100.325 403.004 100.811 405.349 100.673 405.486C100.535 405.624 99.1326 405.214 97.5561 404.576C95.9791 403.938 92.2154 402.282 89.1922 400.896C86.1691 399.51 82.3464 397.6 80.6974 396.653C79.0484 395.705 76.4625 394.128 74.951 393.148C73.4394 392.169 70.5162 390.142 68.455 388.645C66.3937 387.148 62.2318 383.426 59.2066 380.374C56.181 377.323 52.5617 373.14 51.1636 371.078C49.5816 368.746 48.3753 366.293 47.969 364.582C47.6098 363.071 46.8837 360.822 46.3555 359.586C45.8269 358.349 44.6406 355.313 43.7187 352.84C42.7967 350.366 41.3516 345.649 40.5076 342.357C39.6636 339.065 38.9731 335.647 38.9731 334.761C38.9731 333.876 38.7192 331.96 38.4089 330.503C38.0986 329.047 37.5365 327.411 37.1597 326.869C36.7829 326.327 36.4761 325.091 36.4781 324.121C36.4796 323.151 36.9238 319.396 37.465 315.775C38.0062 312.154 38.9256 307.769 39.5087 306.031C40.0919 304.293 41.581 300.847 42.8177 298.373C44.0549 295.9 46.5489 291.638 48.3603 288.902C50.1722 286.168 53.6406 281.629 56.0676 278.817C58.4951 276.005 62.3317 271.981 64.5928 269.875C66.8544 267.768 70.7286 264.428 73.202 262.454C75.6755 260.479 79.723 257.493 82.1965 255.819C84.67 254.144 88.6466 251.622 91.0331 250.214C93.4201 248.806 95.5278 247.654 95.7172 247.654C95.9061 247.654 97.5511 246.602 99.3725 245.317C101.194 244.032 103.367 242.402 104.201 241.694C105.035 240.987 106.609 239.734 107.699 238.91C108.788 238.085 111.669 235.499 114.101 233.163C116.532 230.827 119.822 227.175 121.411 225.049C123 222.922 124.8 219.886 125.41 218.303C126.022 216.719 126.96 214.343 127.496 213.022C128.032 211.701 128.627 208.894 128.819 206.784L129.168 202.949L131.416 201.71C132.653 201.028 134.902 199.961 136.413 199.339C137.925 198.717 139.251 198.203 139.36 198.197C139.469 198.19 139.429 200.265 139.272 202.807ZM94.0877 210.692C97.1668 211.249 100.871 211.98 102.32 212.316L104.954 212.926L99.5713 216.462C96.6112 218.408 92.2778 220.808 89.9418 221.796C87.6057 222.785 83.8955 223.969 81.6968 224.429C78.2594 225.149 76.2117 225.206 67.0873 224.842L56.4748 224.419L60.4534 220.329C62.6415 218.079 65.4198 215.56 66.6276 214.729C67.8353 213.898 70.4832 212.65 72.512 211.955C74.5402 211.261 77.0996 210.487 78.199 210.235C79.2983 209.984 82.0636 209.756 84.3437 209.728C86.6238 209.7 91.0086 210.134 94.0877 210.692ZM120.441 213.55C119.642 215.513 118.727 217.607 118.407 218.204C118.087 218.802 116.834 220.594 115.621 222.189C114.409 223.783 111.452 226.928 109.05 229.177C106.648 231.426 102.209 235.127 99.1861 237.401C96.1629 239.674 91.7062 242.601 89.2822 243.904C86.8581 245.208 82.3609 247.963 79.2883 250.027C76.2157 252.092 71.5655 255.472 68.9547 257.541C66.3438 259.61 61.1614 264.359 57.4382 268.095C53.7155 271.831 49.668 276.211 48.4438 277.829C47.22 279.447 45.8813 281.265 45.4691 281.869C45.0568 282.474 43.4738 284.86 41.9507 287.173C40.4277 289.486 38.4414 292.81 37.5365 294.56C36.6315 296.311 35.038 299.833 33.9946 302.387C32.9513 304.941 31.819 308.193 31.4787 309.613C31.1379 311.033 30.6817 312.009 30.4653 311.78C30.2489 311.552 29.6108 309.791 29.0477 307.867C28.4845 305.943 27.2073 300.322 26.2094 295.375C25.1331 290.038 24.1941 283.536 23.9003 279.385C23.6285 275.537 23.5515 269.353 23.7299 265.643C23.9083 261.933 24.2841 257.886 24.5659 256.649C24.8472 255.412 25.6582 252.601 26.3673 250.403C27.2618 247.63 28.5535 245.15 30.5827 242.308C32.1917 240.054 34.6817 237.214 36.1158 235.996C38.5288 233.948 39.077 233.725 43.4703 232.997C46.0812 232.564 49.722 232.082 51.5608 231.926C53.4002 231.77 59.2466 232.008 64.5529 232.456C69.8596 232.903 76.2252 233.167 78.6987 233.042C82.5058 232.849 83.848 232.528 87.4433 230.95C89.7794 229.925 93.1523 228.167 94.9387 227.042C96.7251 225.918 100.665 223.036 103.694 220.639C106.723 218.241 110.678 215.469 112.48 214.478C114.284 213.487 116.089 212.676 116.491 212.676C116.894 212.676 118.225 212.034 119.448 211.249C120.671 210.464 121.722 209.858 121.783 209.901C121.843 209.945 121.239 211.587 120.441 213.55ZM178.706 265.864C177.369 266.223 176.085 266.825 175.853 267.2C175.621 267.576 175.615 268.068 175.84 268.293C176.065 268.518 178.586 268.757 181.441 268.824C186.151 268.934 186.915 269.09 189.681 270.512C191.358 271.374 193.89 273.264 195.309 274.713C196.728 276.161 198.391 278.367 199.006 279.615C199.798 281.221 200.119 282.758 200.106 284.881C200.096 286.53 199.896 288.667 199.662 289.629L199.236 291.377L200.724 289.987C201.542 289.222 202.747 287.535 203.401 286.239C204.258 284.54 204.581 283.085 204.56 281.024L204.53 278.166L206.575 279.669C207.699 280.495 210.373 282.763 212.517 284.708C214.662 286.653 216.52 288.14 216.646 288.014C216.773 287.887 216.548 286.996 216.146 286.035C215.744 285.073 214.368 283.001 213.089 281.429C211.808 279.858 209.114 277.294 207.1 275.731C205.086 274.168 201.364 271.441 198.83 269.672C195.992 267.691 193.25 266.204 191.692 265.8C190.301 265.439 187.357 265.159 185.149 265.177C182.942 265.196 180.042 265.505 178.706 265.864ZM111.742 278.033C110.403 278.809 108.67 280.33 107.891 281.413C107.112 282.496 105.535 284.936 104.385 286.836C103.236 288.735 101.408 292.558 100.322 295.331C99.237 298.103 97.9329 302.503 97.4237 305.108C96.915 307.712 96.5912 309.936 96.7041 310.049C96.817 310.162 97.1318 309.67 97.4032 308.956C97.675 308.241 98.6999 305.718 99.6803 303.349C100.661 300.98 102.321 297.337 103.37 295.254L105.275 291.466L105.604 293.111C105.785 294.015 106.625 295.964 107.47 297.442C108.315 298.919 109.439 300.359 109.968 300.642C110.787 301.081 110.926 300.988 110.911 300.015C110.901 299.386 110.572 298.311 110.179 297.624C109.736 296.848 109.458 294.915 109.447 292.521C109.435 289.762 109.737 287.844 110.509 285.775C111.103 284.184 112.294 282.208 113.155 281.384C114.017 280.559 115.233 279.48 115.857 278.986C116.481 278.492 116.904 277.817 116.795 277.487C116.687 277.157 116.053 276.826 115.388 276.753C114.722 276.68 113.082 277.256 111.742 278.033ZM188.818 330.873C192.288 331.57 197.038 332.829 199.375 333.671C201.711 334.512 205.688 336.08 208.214 337.156C210.74 338.232 214.642 340.401 216.887 341.978C219.131 343.555 221.594 345.294 222.36 345.844C223.125 346.394 225.856 348.463 228.428 350.442C231 352.421 233.751 354.863 234.542 355.868C235.334 356.873 236.009 358.048 236.042 358.479C236.075 358.91 235.337 359.785 234.403 360.425C233.468 361.064 231.781 361.839 230.655 362.146C229.339 362.507 226.285 362.601 222.111 362.41C218.538 362.246 212.242 361.643 208.119 361.069C203.997 360.495 196.852 359.896 192.242 359.736C186.836 359.55 182.225 359.663 179.25 360.056C176.714 360.392 173.307 361.001 171.677 361.411C170.048 361.822 167.604 362.721 166.245 363.409C164.721 364.181 163.341 364.551 162.639 364.375C162.014 364.218 160.479 363.133 159.229 361.963C157.32 360.177 156.69 359.073 155.305 355.088C153.81 350.786 153.655 349.803 153.654 344.595C153.653 340.463 153.864 338.429 154.407 337.354C154.876 336.424 156.397 335.148 158.434 333.975C160.33 332.883 163.69 331.578 166.424 330.872C170.028 329.941 172.485 329.647 176.825 329.628C181.001 329.61 184.183 329.941 188.818 330.873ZM147.735 337.224C147.581 337.842 147.303 339.846 147.117 341.675C146.924 343.572 147.031 346.729 147.366 349.023C147.69 351.235 148.614 354.997 149.421 357.384C150.228 359.771 151.342 362.493 151.896 363.432C152.45 364.371 152.903 365.239 152.903 365.36C152.903 365.482 152.567 365.582 152.156 365.582C151.744 365.582 150.002 366.061 148.283 366.646C146.564 367.232 143.134 368.921 140.661 370.4C138.187 371.878 134.518 374.117 132.507 375.374C130.495 376.631 127.295 378.202 125.395 378.866C123.495 379.53 121.431 380.071 120.807 380.068C120.184 380.065 118.549 379.539 117.174 378.899C115.573 378.154 114.174 377.014 113.285 375.732C112.409 374.467 111.711 372.576 111.394 370.602C111.053 368.484 111.056 366.281 111.406 363.771C111.689 361.734 112.7 358.048 113.653 355.581C114.606 353.115 116.271 349.802 117.352 348.22C118.434 346.638 119.961 344.759 120.745 344.044C121.53 343.329 123.521 341.93 125.17 340.936C126.819 339.942 129.705 338.657 131.585 338.08C133.464 337.504 135.937 336.848 137.081 336.621C138.225 336.395 141.153 336.185 143.588 336.155C147.94 336.101 148.01 336.119 147.735 337.224ZM241.643 367.456C242.645 369.586 244.348 373.802 245.426 376.825C246.505 379.848 248.181 386.257 249.15 391.066C250.297 396.758 251.092 402.515 251.427 407.556C251.709 411.816 251.859 420.705 251.761 427.311L251.581 439.321L249.051 442.801C247.658 444.716 245.575 447.004 244.421 447.886C243.267 448.768 241.485 449.723 240.462 450.007C239.438 450.291 234.216 450.527 228.856 450.53C223.497 450.534 214.165 450.763 208.119 451.041C202.073 451.318 193.865 451.88 189.88 452.288C185.895 452.697 180.723 453.344 178.387 453.727C176.051 454.11 173.991 454.278 173.81 454.1C173.628 453.923 173.114 451.452 172.667 448.609C172.221 445.766 171.856 440.64 171.856 437.218C171.856 433.796 172.102 429.601 172.404 427.896C172.705 426.191 173.389 423.305 173.924 421.485C174.799 418.502 175.044 418.144 176.4 417.873C177.227 417.707 179.081 417.032 180.52 416.372C182.002 415.692 184.58 413.76 186.471 411.911C188.306 410.117 190.376 407.785 191.069 406.729C191.762 405.672 194.03 402.455 196.109 399.58C198.187 396.705 199.803 394.119 199.701 393.834C199.598 393.548 199.054 393.365 198.491 393.426C197.928 393.487 196.441 394.229 195.186 395.076C193.931 395.923 192.769 396.835 192.604 397.102C192.439 397.37 190.535 398.478 188.374 399.564C186.214 400.651 182.05 402.451 179.121 403.565C176.193 404.678 172.862 405.716 171.72 405.87L169.643 406.151L166.946 402.009C165.462 399.731 163.383 395.794 162.324 393.26C160.6 389.135 160.398 388.205 160.398 384.387C160.398 382.041 160.639 378.998 160.934 377.624C161.229 376.251 162.09 374.27 162.849 373.223C163.922 371.742 165.212 370.892 168.654 369.396C171.142 368.316 174.954 367.146 177.358 366.726C179.711 366.315 184.671 365.971 188.381 365.962C192.092 365.953 197.376 366.212 200.124 366.538C202.872 366.864 207.487 367.467 210.378 367.878C213.269 368.289 217.901 368.671 220.669 368.727L225.704 368.83L221.721 373.077C219.531 375.413 217.2 378.112 216.541 379.074C215.883 380.035 214.674 381.823 213.855 383.047C213.037 384.27 212.367 385.469 212.367 385.712C212.367 385.955 213.257 385.448 214.345 384.586C215.434 383.724 219.215 380.276 222.749 376.924C226.282 373.571 230.283 369.98 231.638 368.942C232.994 367.904 235.228 366.288 236.602 365.349C237.976 364.412 239.262 363.631 239.46 363.614C239.658 363.597 240.64 365.326 241.643 367.456ZM153.224 378.701C153.278 384.077 153.542 386.737 154.3 389.567C154.852 391.628 156.076 395.001 157.019 397.063C157.961 399.124 159.642 402.307 160.755 404.135L162.777 407.461L160.558 407.793C159.338 407.976 156.359 407.971 153.938 407.782C150.828 407.539 149.433 407.606 149.182 408.012C148.987 408.328 149.246 409.249 149.759 410.058C150.271 410.866 151.88 412.417 153.336 413.502C154.912 414.678 157.594 415.997 159.964 416.761C162.154 417.468 164.851 418.191 165.957 418.367C167.827 418.666 167.944 418.78 167.634 419.993C167.451 420.71 166.976 422.759 166.58 424.546C166.184 426.332 165.729 430.829 165.569 434.539C165.361 439.38 165.501 442.838 166.064 446.782C166.497 449.805 166.993 452.975 167.169 453.827L167.489 455.375L163.069 456.443C160.638 457.03 157.076 457.951 155.152 458.488C153.228 459.025 150.338 460.048 148.729 460.761C147.12 461.473 144.849 462.187 143.682 462.347C142.491 462.51 141.106 462.395 140.526 462.085C139.958 461.78 139.346 460.862 139.166 460.045C138.987 459.227 138.34 457.82 137.728 456.917C137.118 456.015 134.805 451.904 132.589 447.781C130.373 443.659 127.297 437.676 125.752 434.485C124.208 431.294 122.024 426.459 120.898 423.741C119.773 421.023 118.562 417.9 118.206 416.8C117.851 415.701 116.994 413.34 116.302 411.554C115.609 409.767 114.232 405.495 113.24 402.059C112.25 398.624 111.005 393.452 110.474 390.567C109.944 387.681 109.394 384.477 109.251 383.446C109.109 382.416 109.061 381.572 109.142 381.572C109.225 381.572 110.166 382.27 111.235 383.123C112.304 383.976 116.438 386.234 120.423 388.14C124.408 390.046 128.512 392.054 129.542 392.6C131.004 393.375 131.416 393.441 131.416 392.898C131.416 392.514 130.942 391.597 130.362 390.86C129.782 390.123 128.191 388.768 126.825 387.848C125.46 386.929 124.529 386.07 124.756 385.939C124.984 385.809 126.407 385.305 127.918 384.819C129.43 384.332 132.241 383.011 134.165 381.883C136.088 380.756 139.759 378.407 142.322 376.664C144.885 374.921 147.92 373.069 149.067 372.548C150.215 372.026 151.604 371.596 152.154 371.591C153.103 371.583 153.156 371.936 153.224 378.701Z" fill="#FBFAF2"/>
</svg>
