<svg xmlns="http://www.w3.org/2000/svg" fill="none" viewBox="0 0 362 337">
  <path fill="#fff" d="M110.3 183.2c1 .8 2.8 1.4 3.8 1.4s1.8.5 1.8 1.1c0 .6 1.4 4 3 7.6 1.8 3.6 3 6.7 2.7 6.9a59 59 0 0 1-16.1-11.6c-3.7-4-3.8-4.4-2-5.6 1-.8 2.5-1.4 3.3-1.3.9 0 2.4.6 3.5 1.5Z"/>
  <path fill="#000" d="M193.9 6.6c5.4.5 13.2 1.7 17.6 2.5 13 3 25.6 7.4 37.7 13a128 128 0 0 1 32 23.1c3.6 3.7 9.2 10.4 12.3 15 4 6 5.4 8.7 5 10.3-.4 1.1-2.1 3.2-3.8 4.6a50 50 0 0 1-8 5 86.4 86.4 0 0 1-23.2 8 109 109 0 0 1-34.7.5c-4.6-.6-12-2-16.4-3-4.4-1-12-2.4-16.7-3a64 64 0 0 0-17.8 0c-5 .6-12 2-15.4 3.2a125.8 125.8 0 0 0-44.8 26.7 86.7 86.7 0 0 0-24.4 42.2c-1 5-1.4 9.7-1 14.4.3 3.9.8 8.3 1.2 9.8.6 2.5.2 2.9-5.8 5.7a43 43 0 0 1-7.4 3c-.7 0-2.4-1.9-4-4.2a91.4 91.4 0 0 0-8-9.8c-5-5.3-5.3-6-7.7-16.5-1.9-8-4-16-6.2-24-2-7-4.8-15.2-6-18.2a49.7 49.7 0 0 0-5.2-8.9 30 30 0 0 0-8-6.6c-3-1.6-5.8-3.9-6.4-5-.6-1-.8-3-.5-4.2.3-1.2 2.3-4.3 4.6-6.8 2.2-2.6 8-7.7 12.7-11.5 9.5-7.5 19.5-14.3 29.8-20.6 5-3 9.8-6.4 10.8-7.5 1.3-1.4 1.6-2.5 1-3.7-.6-.9-3.2-3.3-5.9-5.3a28 28 0 0 1-7.9-9.5c-2.4-4.9-2.7-6-1.5-6.7.8-.5 9.3-1 19-1 9.6 0 21.5-.5 26.4-1 4.9-.6 16.8-2.9 26.5-5a121.8 121.8 0 0 1 50.2-5h-.1Z"/>
  <path fill="#000" fill-rule="evenodd" d="M24.2 200.4c-.3-.6 0-1.4.8-1.9.8-.6 4.3-.7 7.9-.4 3.8.3 8.5 1.6 11.5 3 2.7 1.4 7.5 4.8 10.5 7.7 3 2.9 7.8 8 10.7 11.3 2.9 3.3 5.2 6.6 5.2 7.4 0 1.1-1 1.2-5 .7-4.1-.5-6-.3-9.5 1.5a14.7 14.7 0 0 0-6 5c-.8 1.6-1.9 2.9-2.4 2.9-.6 0-1-1.4-1-3.1 0-2.3.9-4 3.5-6.5 2-1.8 4.9-3.7 6.6-4.1 1.6-.5 2.9-1.3 2.8-1.8-.2-.5-3.8-4.3-8.2-8.3a62.6 62.6 0 0 0-12.1-9.2 38 38 0 0 0-9.4-2.5c-2.9-.4-5.5-1.2-5.9-1.7Zm217.5 51.4c-.6-.5-.7-1.5-.4-2.1.4-.6 1.6-1.1 2.6-1.1 1.1 0 2 .7 2 1.5 0 .9-.7 1.9-1.6 2.2-.9.3-2 .1-2.6-.5Z" clip-rule="evenodd"/>
  <path fill="#fff" d="M304.2 78.4c.9 2 2.7 6.6 4 10.2 2.7 7.1 4.6 14.5 5.7 22 0 .5-2.2 1.2-4.8 1.5-2.6.4-9.4 1.8-15.2 3.2-5.7 1.4-13 3.7-16 5-5.2 2.5-6.5 2.6-24.5 2.8-14.3-.3-28.5 1.5-42.2 5.5-6 1.9-6.1 1.9-14-.3-8.1-2-16.5-2.7-24.8-2.1-15.4 0-18 .3-26.5 2.7-5.2 1.5-12 3.9-15 5.4-3 1.5-7.8 5-10.6 7.8a26 26 0 0 0-7 10.6c-1 3-1.8 8-1.9 11.3 0 5-.5 6.2-2.3 7.4-1.2.8-2.1 1.6-2.2 2.7-.1 1.1-.6 1.7-1.3 2.3-.7.6-2.4 1.4-3.9 1.7-2.6.7-2.7.5-3.9-5.1-1-4.5-1-7.7-.1-13.6.6-4.2 2.4-11 4-15.2a80.3 80.3 0 0 1 21.7-31 113.5 113.5 0 0 1 40-23.6 91.8 91.8 0 0 1 43-.6c7.7 1.5 19.7 3.2 26.8 3.8 9.8.9 15.2.9 23 0 5.7-.7 13.6-2.1 17.6-3.2a78 78 0 0 0 24-12.5c1.4-1.4 3-2.5 3.6-2.5.7 0 1.9 1.7 2.8 3.8Z"/>
  <path fill="#000" fill-rule="evenodd" d="m164.9 2.2-22 4.6c-18.6 3.8-20.7 4-44.5 4.7-18.7.5-25.8 1.1-28 2.2-2.6 1.2-3 2-3.3 6.1-.2 3.2.3 6 1.6 8.5 1.1 2.1 4.3 6 7 8.8 4 3.7 4.9 5.2 4 6.2-.6.7-1.5 1.3-2.1 1.3-.6 0-5.8 3-11.6 6.7-6 3.7-14.3 9.6-19 13-4.4 3.7-10.8 9-14 12-3.3 3-6 6.5-8 10.5-2 4.3-2 5.6-1.1 8.5.8 2.5 2.8 4.6 7.1 7.5 3.6 2.4 7.2 6 9 8.8a82 82 0 0 1 6 14c1.6 5.3 4.6 15.8 6.5 23.4 2 7.7 3.3 14.1 3 14.4-3 0-6-.4-8.8-1.2-4.8-1-10.2-1.5-13-1.1-2.6.3-7.2 1.7-10.2 3.1-3 1.5-7.6 4.6-10 7a53 53 0 0 0-7.5 9.6 54 54 0 0 0-5.8 28.8c.2 4.7 1.4 11.6 2.6 15.3a68.2 68.2 0 0 0 32.7 37.5c7.5 3.7 8.1 3.8 18.3 3.8 9.5 0 11.1-.3 16.2-2.7 3-1.6 7.7-4.7 10.3-7 2.6-2.2 4.8-3.9 5-3.7l5.5 9.7c2.9 5.1 8.2 13.2 11.7 18l9.9 13.3c1.9 2.5 6 6.9 9.3 9.7 9 8 18.8 14.9 29.5 20.4 4.3 2.1 11.7 5.2 16.5 6.8 4.8 1.6 13 3.7 18.2 4.6a127 127 0 0 0 26 1.2c14.4 0 28.8-2.2 42.5-6.8 10.7-3.6 21-8.2 30.8-13.8a105.9 105.9 0 0 0 44.7-49.5 90.5 90.5 0 0 0 5.6-38.6 188 188 0 0 0-1.2-15.6c-.6-3-.2-3.3 5.4-6.8a45 45 0 0 0 8.8-7c1.5-1.7 4-5.9 5.5-9.2a97 97 0 0 0 4.9-14c1.1-4.4 2.3-13 2.6-19 1.1-9.6-.5-19.3-4.8-28a35.6 35.6 0 0 0-4.7-6.8c-2.1-2-4.5-3.8-7.1-5.1-2.4-1.2-5-2.2-7.5-3a68 68 0 0 0-10.5-1.5l-7.5-.6-.8-4-3.3-14a98.6 98.6 0 0 0-6.6-18 121 121 0 0 0-23.6-33.3A219 219 0 0 0 270.8 29a124 124 0 0 0-31.6-16.5C234.4 11 224.5 8 217.4 6 207.2 2.8 197 1 186 1c-10.5 0-19.2.9-21.1 1.2Zm46.6 6.9c-4.4-.8-12.2-2-17.6-2.5h.1a121.8 121.8 0 0 0-50.2 5c-9.7 2.1-21.6 4.4-26.5 5-4.9.5-16.8 1-26.4 1-9.7 0-18.2.5-19 1-1.2.7-.9 1.8 1.5 6.7a28 28 0 0 0 7.9 9.5c2.7 2 5.3 4.4 5.9 5.3.6 1.2.3 2.3-1 3.7-1 1.1-5.8 4.5-10.8 7.5a301.4 301.4 0 0 0-29.8 20.6c-4.7 3.8-10.5 8.9-12.7 11.5a23.4 23.4 0 0 0-4.6 6.8c-.3 1.2-.1 3.2.5 4.2.6 1.1 3.4 3.4 6.4 5 3 1.7 5.7 4 8 6.6a53 53 0 0 1 5.2 8.9c1.2 3 4 11.2 6 18.2 2.2 8 4.3 16 6.2 24 2.4 10.5 2.7 11.2 7.7 16.5 2.9 3 5.6 6.4 8 9.8 1.6 2.3 3.3 4.2 4 4.2a43 43 0 0 0 7.4-3c6-2.8 6.4-3.2 5.8-5.7-.4-1.5-.9-5.9-1.2-9.8-.4-4.7 0-9.4 1-14.4a86.7 86.7 0 0 1 24.4-42.2 125.8 125.8 0 0 1 44.8-26.7 90 90 0 0 1 15.4-3.2 64 64 0 0 1 17.8 0c4.7.6 12.3 2 16.7 3 4.4 1 11.8 2.4 16.4 3a109 109 0 0 0 34.7-.5 84 84 0 0 0 23.2-8 50 50 0 0 0 8-5c1.7-1.4 3.4-3.5 3.8-4.6.4-1.6-1-4.3-5-10.3-3.1-4.6-8.7-11.3-12.3-15a124.7 124.7 0 0 0-32-23.1 191 191 0 0 0-37.7-13Zm96.7 79.5c-1.3-3.6-3.1-8.2-4-10.2-.9-2.1-2.1-3.8-2.8-3.8-.6 0-2.2 1.1-3.6 2.5a78 78 0 0 1-24 12.5c-4 1.1-11.9 2.5-17.6 3.2-7.8.9-13.2.9-23 0-7.1-.6-19.1-2.3-26.8-3.8a91.8 91.8 0 0 0-43 .6 113.5 113.5 0 0 0-40 23.6c-9.6 8.5-17 19-21.7 31-1.6 4.2-3.4 11-4 15.2-.9 5.9-.9 9.1.1 13.6 1.2 5.6 1.3 5.8 3.9 5.1 1.5-.3 3.2-1.1 3.9-1.7.7-.6 1.2-1.2 1.3-2.3.1-1.1 1-1.9 2.2-2.7 1.8-1.2 2.3-2.4 2.3-7.4.1-3.3.9-8.3 1.9-11.3a26 26 0 0 1 7-10.6c2.8-2.8 7.6-6.3 10.6-7.8s9.8-3.9 15-5.4a74.6 74.6 0 0 1 26.5-2.7c8.3-.6 16.7.1 24.8 2.1 7.9 2.2 8 2.2 14 .3 13.7-4 28-5.8 42.2-5.5 18-.2 19.3-.3 24.5-2.8 3-1.3 10.3-3.6 16-5 5.8-1.4 12.6-2.8 15.2-3.2 2.6-.3 4.8-1 4.8-1.5-1.1-7.5-3-14.9-5.7-22Zm39.1 35.4a39 39 0 0 0-8-4.9v-.1a48.7 48.7 0 0 0-16.4-2 89 89 0 0 0-35.8 5.2c-4.2 1.4-9.7 4-12.3 6a36.6 36.6 0 0 0-7.1 7.1 65.8 65.8 0 0 0-3.6 6.7c-.7 1.5-1.2 5.5-1.2 9 .2 6.3 1.6 12.5 4.1 18.3l1 .7a8 8 0 0 0 2.6.9c1.9.4 3.5 1.5 4.7 3 1.5 2 2 4.2 2 7.5-.1 4.4.2 5 5.1 9.7l2.1 1.9c3.4 3.2 7.3 5.9 11.5 8a36.5 36.5 0 0 0 22.8 5.4 55 55 0 0 0 13.2-2.7 34 34 0 0 0 9.7-6c2.2-2.2 5.1-5.8 6.5-8.2a80 80 0 0 0 5.2-13.4 91 91 0 0 0 2.5-35.6c-.3-1.2-.7-2.7-1.3-4.2a28.7 28.7 0 0 0-7.3-12.3Zm-84.4 9.5c1.6-2.6 2.6-5 2.2-5.3a229 229 0 0 0-26.2 0l-12.7 2c-5.5.9-10.7 2.1-11.5 2.6-1.1.8-1.1 1.1.2 1.5a41 41 0 0 1 10.7 10.8c1.1 1.9 1.3 1.9 4.4-1.3 1.8-1.9 4.6-4 6.2-4.9 2-1 4.7-1.4 8.3-1 3.3.2 6.5 1.2 9.3 3 2.2 1.5 4.2 2.7 4.5 2.7a35.4 35.4 0 0 1 4.6-10.1Zm-56 2.7c-3.8-1.2-7.6-2.2-11.5-3v-.1a145 145 0 0 0-34-1.8c-8.2 1.3-16.3 3.2-24.3 5.5-7.6 3.5-14 9.1-18.5 16.2a22 22 0 0 0-2 11.2c0 4 .8 9.8 1.7 13 1 3 2.1 5.9 3.4 8.7 3 7.2 7 14 12 20a40.5 40.5 0 0 0 18.5 13.4c3.5 1.1 7.2 1.4 13.5 1 5.2 0 10.4-1 15.2-3a74.2 74.2 0 0 0 15-9.4 71 71 0 0 0 27-40c.6-3.1 1-8.1.6-11.1-.3-3-1.6-7.1-3-9.5a26 26 0 0 0-5.3-6.2c-2.6-2-5.4-3.6-8.3-4.9Zm47.7 11.2a26.2 26.2 0 0 0-6.4-4.4 17 17 0 0 0-5.5-1.4c-1.3 0-3.7.9-5.4 1.9a27.7 27.7 0 0 0-8.2 8.5c-.5 1-.7 3.7-.5 6 .3 2.3-.3 7.2-1.1 10.9l-1.6 7.2c0 .2 2.3.2 5.1-.2 4.5-.2 9 0 13.5.8 6.6 1 8.9 1 10.6 0 1.6-.9 3.2-1.9 4.7-3l2.4-1.9-2.1-7.3a54.4 54.4 0 0 1-2.2-10.7c0-2.5-.9-4.2-3.3-6.4ZM58.6 172a66.1 66.1 0 0 0-8.4-4.3h-.1c-2.6-1-6.8-2-9.2-2.3-2.5-.3-6.4-.1-8.7.3-2.3.4-5.9 1.7-8 2.7a38 38 0 0 0-13.9 13.7c-4.2 7.8-6 16.7-5.2 25.5.3 5 1.2 10.1 2.7 15a66.2 66.2 0 0 0 31.9 35.8c6.8 3.3 7.7 3.4 15 3a29 29 0 0 0 13.8-3.6c4.2-2.3 8-5.2 11.2-8.7 3-3 5.3-6.7 6.7-10.7.8-2.8 1.5-7.5 1.5-10.5a63.2 63.2 0 0 0-8.6-30A59 59 0 0 0 58.6 172Zm214.6 8.7c0-1.6-.6-3.7-1.3-4.5h.1c-.8-.9-2.6-1.5-4-1.5-1.4.1-5 1.4-7.8 3.1a22.4 22.4 0 0 1-9 3.1c-2.1 0-7.5-.3-12-.8-6.9-.6-8.7-.5-10.7.8a8.6 8.6 0 0 0-3.2 3.7 6 6 0 0 0 1 4.5c.9 1.4 2.8 3.1 4.3 3.9a48 48 0 0 0 10.6 2.6 33.7 33.7 0 0 0 21.5-2.9c2-1 5.2-3.5 7.1-5.5 2.4-2.4 3.4-4.5 3.4-6.5Zm-159.1 3.9c-1 0-2.8-.6-3.8-1.4a6.5 6.5 0 0 0-3.5-1.5c-.8-.1-2.3.5-3.3 1.3-1.8 1.2-1.7 1.6 2 5.6a59 59 0 0 0 16.1 11.6c.3-.2-.9-3.3-2.7-6.9-1.6-3.6-3-7-3-7.6 0-.6-.8-1.1-1.8-1.1Zm-6 13.6c-3.2-2.3-7-5.9-8.5-7.9-1.6-2-3.4-3.6-4-3.6a37 37 0 0 0-7 3 26.8 26.8 0 0 0-5.7 3.4c0 .2 1.3 3.3 3 7 1.6 3.7 3.7 9.4 4.6 12.8.9 3.5 1.6 9.8 1.6 14.4 0 4.9-.8 10.5-1.8 13.9-1.7 5.5-1.7 5.6.6 10.2a220.9 220.9 0 0 0 19 30.2 137.3 137.3 0 0 0 31.4 31.1c15.4 10 32.8 16.6 51 19 19.8 2 39.8 0 58.8-5.9.4-.4-8-.7-18.5-.7-15 0-21-.4-27.2-1.8a106 106 0 0 1-18.2-6.7c-11.5-5-20.8-14-26.2-25.4-2.4-5.7-3.2-9-3.2-14a98 98 0 0 1 3-18.7c1.8-7.3 3-14.8 3-18.4 0-3.3-.6-7.8-1.3-10-1.1-3.7-1.4-4-6-4.7-8.6-1.8-16.6-6-23-12-3.4-3.3-7.5-6-12.4-8-4-1.6-9.9-4.9-13-7.2Zm125.2-.1c-3.3-.9-6.8-2.8-8.3-4.3a23.3 23.3 0 0 1-3.6-4.5c-.9-1.5-1.4-1.1-4 3-7 9.3-15.4 17.5-24.8 24.3-4.6 2.8-9.5 5-14.7 6.6l-9.8 3c-.8.2-.8 1.3 0 4.1.5 2.1.8 7.8.5 12.8-.3 5-1.7 13.4-3.2 19a44.3 44.3 0 0 0-2.3 16c1.3 9.7 6 18.7 13.3 25.3 8.6 7.4 19 12.7 30 15.3 5.3 1.4 12.6 2.2 22 2.6 14 .8 28.2-1 41.7-5.1a103 103 0 0 0 15.2-7.3c5.6-3.3 11.7-8.3 19.7-16.3a60 60 0 0 0 16.7-22c2.9-5.8 5.9-13.4 6.9-17a78 78 0 0 0 1.7-19 93 93 0 0 0-1.2-17.6l-1.4-5.1h-9.6c-8.6 0-10.5-.3-17-3.1a66.8 66.8 0 0 1-22.1-14.6l-4.5-4.5-3.7 3a44 44 0 0 1-11 6.4c-.3.3.4 4.9 1.7 10.3 1.3 5.3 2.9 13.5 3.5 18.1.7 4.6 1.7 8.5 2.4 8.8a52 52 0 0 0 22.2-6.2c3.9-2.1 6.9-3.2 7.4-2.7a2 2 0 0 1 .3 2.3c-.3.7-2.6 2.9-5 4.7a29.8 29.8 0 0 0-6.4 6.5c-1.1 1.8-2 4.4-2 5.9 0 2.2.3 2.5 2.6 2 2.2-.4 2.5-.1 2.2 1.9-.2 1.6-2.3 3.8-6.6 6.6a62.6 62.6 0 0 1-13 6.4c-9.4 3-19.4 3.6-29.2 2a42 42 0 0 1-28.5-20.4 22.6 22.6 0 0 1-2.5-10.2c0-3.8.6-6 2-7.8 1.2-1.5 3.1-2.7 4.3-2.7 1.1 0 5.7 1.8 10.1 4 4.7 2.3 9.6 4.2 14.6 5.6 3.5.9 10.1 1.7 14.5 1.9h8l-.4-3.5a295.7 295.7 0 0 0-6.1-30.9c-.5-1-3.1-1.5-8.8-1.6a68 68 0 0 1-13.8-2Zm5.6 41.2c-3.6-1-10.3-3.5-14.9-5.7l-8.5-4c-.2 0-.6.3-1 .7-.3.4-.6 2.6-.6 5v4.4l6.2 2.9c3.5 1.5 8 3.2 10 3.5 2.1.4 4.2 1.3 4.8 2 .7.9.5 1.6-.5 2.5-1.1.9-2.7.8-7.5-.4l-6.7-1.6c-.3 0 0 .7.7 1.6a39.3 39.3 0 0 0 16.2 9.6 50 50 0 0 0 25.5.3 61 61 0 0 0 11.3-4c3.4-1.7 5-3.1 5-4.5 0-1.5-.7-2-3-2-1.6 0-3.1-.3-3.4-.8-.3-.4-.2-1.3.1-1.8.5-.6 2.2-1.8 4-2.8 1.8-.9 3.3-2.3 3.3-3.1 0-1.2-1-1.3-4.8-.7-2.6.4-10.3.6-17.2.6a82 82 0 0 1-19-1.7Z" clip-rule="evenodd"/>
  <path fill="#CFF0FF" d="M194 6.6c5.3.5 13.1 1.7 17.5 2.5 13 3 25.6 7.4 37.7 13a128 128 0 0 1 32 23.1c3.6 3.7 9.2 10.4 12.3 15 4 6 5.4 8.7 5 10.3-.4 1.1-2.1 3.2-3.8 4.6-2.5 2-5.2 3.6-8 5a86.4 86.4 0 0 1-23.2 8 109 109 0 0 1-34.7.5c-4.6-.6-12-2-16.4-3-4.4-1-12-2.4-16.7-3a64 64 0 0 0-17.8 0c-5 .6-12 2-15.4 3.2a125.8 125.8 0 0 0-44.8 26.7 86.7 86.7 0 0 0-24.4 42.2c-1 5-1.4 9.7-1 14.4.3 3.9.8 8.3 1.2 9.8.6 2.5.2 2.9-5.8 5.7a43 43 0 0 1-7.4 3c-.7 0-2.4-1.9-4-4.2a91.4 91.4 0 0 0-8-9.8c-5-5.3-5.3-6-7.7-16.5-1.9-8-4-16-6.2-24-2-7-4.8-15.2-6-18.2a49.7 49.7 0 0 0-5.2-8.9 30 30 0 0 0-8-6.6c-3-1.6-5.8-3.9-6.4-5-.6-1-.8-3-.5-4.2.3-1.2 2.3-4.3 4.6-6.8 2.2-2.6 8-7.7 12.7-11.5 9.5-7.5 19.5-14.3 29.8-20.6 5-3 9.8-6.4 10.8-7.5 1.3-1.4 1.6-2.5 1-3.7-.6-.9-3.2-3.3-5.9-5.3a28 28 0 0 1-7.9-9.5c-2.4-4.9-2.7-6-1.5-6.7.8-.5 9.3-1 19-1 9.6 0 21.5-.5 26.4-1 4.9-.6 16.8-2.9 26.5-5a121.8 121.8 0 0 1 50.2-5ZM99.6 190.3c1.5 2 5.3 5.6 8.5 7.9 3.1 2.3 9 5.6 13 7.2 4.9 2 9 4.7 12.4 8 6.4 6 14.4 10.2 23 12 4.6.7 4.9 1 6 4.7.7 2.2 1.3 6.7 1.3 10 0 3.6-1.2 11.1-3 18.4a98 98 0 0 0-3 18.7c0 5 .8 8.3 3.2 14a52.1 52.1 0 0 0 26.2 25.4c5.8 2.8 12 5 18.2 6.7 6.2 1.4 12.2 1.8 27.2 1.8 10.5 0 18.9.3 18.5.7-19 6-39 8-58.8 5.9-18.2-2.4-35.6-9-51-19a137.3 137.3 0 0 1-31.4-31.1 221 221 0 0 1-19-30.2c-2.3-4.6-2.3-4.7-.6-10.2 1-3.4 1.8-9 1.8-13.9 0-4.6-.7-10.9-1.6-14.4-.9-3.4-3-9.1-4.6-12.8-1.7-3.7-3-6.8-3-7 0-.3 2.6-1.8 5.7-3.4a37 37 0 0 1 7-3c.6 0 2.4 1.6 4 3.6Z"/>
  <path fill="#fff" fill-rule="evenodd" d="M50.1 167.7c2.6 1 6.4 3 8.5 4.3a59 59 0 0 1 20.7 25.9 63.2 63.2 0 0 1 8.6 30c0 3-.7 7.7-1.5 10.5a28 28 0 0 1-6.7 10.7c-3.2 3.5-7 6.4-11.2 8.7-4.2 2.3-9 3.5-13.8 3.6-7.3.4-8.2.3-15-3a66.2 66.2 0 0 1-31.9-35.8c-1.5-4.9-2.4-10-2.7-15-.8-8.8 1-17.7 5.2-25.5a37.7 37.7 0 0 1 13.9-13.7c2.1-1 5.7-2.3 8-2.7 2.3-.4 6.2-.6 8.7-.3 2.4.3 6.6 1.3 9.2 2.3Zm-25.9 32.7c-.3-.6 0-1.4.8-2 .8-.5 4.3-.6 7.9-.3 3.8.3 8.5 1.6 11.5 3a58 58 0 0 1 10.5 7.7c3 3 7.8 8 10.7 11.3 3 3.3 5.3 6.6 5.3 7.4 0 1-1.1 1.2-5.1.7-4.1-.5-6-.3-9.5 1.5-2.4 1-4.5 2.8-6 5-.8 1.6-2 3-2.5 3s-1-1.5-1-3.2c0-2.3 1-4 3.6-6.5 2-1.8 5-3.7 6.6-4.1 1.6-.5 3-1.3 2.8-1.8a66 66 0 0 0-8.2-8.3 62.6 62.6 0 0 0-12.1-9.2 38 38 0 0 0-9.4-2.5c-2.9-.4-5.5-1.2-5.9-1.7Z" clip-rule="evenodd"/>
  <path fill="#fff" d="M304.2 78.4c.9 2 2.7 6.6 4 10.2 2.7 7.1 4.6 14.5 5.7 22 0 .5-2.2 1.2-4.8 1.5-2.6.4-9.4 1.8-15.2 3.2-5.7 1.4-13 3.7-16 5-5.2 2.5-6.5 2.6-24.5 2.8-14.3-.3-28.5 1.5-42.2 5.5-6 1.9-6.1 1.9-14-.3-8.1-2-16.5-2.7-24.8-2.1-15.4 0-18 .3-26.5 2.7-5.2 1.5-12 3.9-15 5.4-3 1.5-7.8 5-10.6 7.8a26 26 0 0 0-7 10.6c-1 3-1.8 8-1.9 11.3 0 5-.5 6.2-2.3 7.4-1.2.8-2.2 2-2.2 2.7 0 .7-.6 1.7-1.3 2.3-.7.6-2.4 1.4-3.9 1.7-2.6.7-2.7.5-3.9-5.1-1-4.5-1-7.7-.1-13.6.6-4.2 2.4-11 4-15.2a80.3 80.3 0 0 1 21.7-31 113.5 113.5 0 0 1 40-23.6 91.8 91.8 0 0 1 43-.6c7.7 1.5 19.7 3.2 26.8 3.8 9.8.9 15.2.9 23 0 5.7-.7 13.6-2.1 17.6-3.2a78 78 0 0 0 24-12.5c1.4-1.4 3-2.5 3.6-2.5.7 0 1.9 1.7 2.8 3.8ZM225 193.8c1.5 1.5 5 3.4 8.3 4.3a68 68 0 0 0 13.8 2c5.7.1 8.3.6 8.8 1.6a296 296 0 0 1 6.1 30.9l.4 3.5h-8c-4.4-.2-11-1-14.5-1.9-5-1.4-9.9-3.3-14.6-5.6-4.4-2.2-9-4-10.1-4-1.2 0-3.1 1.2-4.3 2.7-1.4 1.8-2 4-2 7.8 0 3.5.8 6.7 2.5 10.2a42 42 0 0 0 28.5 20.4c9.8 1.6 19.8 1 29.2-2 3.6-1.2 9.5-4 13-6.4 4.3-2.8 6.4-5 6.6-6.6.3-2 0-2.3-2.2-1.9-2.3.5-2.6.2-2.6-2 0-1.5.9-4.1 2-5.9 1-1.7 3.9-4.6 6.4-6.5 2.4-1.8 4.7-4 5-4.7a2 2 0 0 0-.3-2.3c-.5-.5-3.5.6-7.4 2.7a51.8 51.8 0 0 1-22.2 6.2c-.7-.3-1.7-4.2-2.4-8.8-.6-4.6-2.2-12.8-3.5-18.1-1.3-5.4-2-10-1.7-10.3a44 44 0 0 0 11-6.4l3.7-3 4.5 4.5a66.8 66.8 0 0 0 22.1 14.6c6.5 2.8 8.4 3.1 17 3.1h9.6l1.4 5.1a93 93 0 0 1 1.2 17.6 78 78 0 0 1-1.7 19c-1 3.6-4 11.2-6.9 17a60 60 0 0 1-16.7 22c-8 8-14.1 13-19.7 16.3a103 103 0 0 1-15.2 7.3 120.4 120.4 0 0 1-41.7 5.1c-9.4-.4-16.7-1.2-22-2.6a71.1 71.1 0 0 1-30-15.3 41.7 41.7 0 0 1-13.3-25.3c-.3-4.5.2-8.4 2.3-16 1.5-5.6 2.9-14 3.2-19 .3-5 0-10.7-.5-12.8-.8-2.8-.8-3.9 0-4.1l9.8-3c5.2-1.6 10-3.8 14.7-6.6 9.4-6.8 17.8-15 24.8-24.3 2.6-4.1 3.1-4.5 4-3 .5 1 2.1 3 3.6 4.5Zm23.2-50.8c1.7.7 4.6 2.7 6.4 4.4 2.4 2.2 3.3 3.9 3.3 6.4 0 1.8 1 6.6 2.2 10.7l2.1 7.3-2.4 1.9c-1.5 1.1-3 2.1-4.7 3-1.7 1-4 1-10.6 0-4.5-.8-9-1-13.5-.8-2.8.4-5.1.4-5.1.2l1.6-7.2c.8-3.7 1.4-8.6 1.1-10.9-.2-2.3 0-5 .5-6 2-3.4 4.9-6.3 8.2-8.5 1.7-1 4.1-1.9 5.4-1.9 1.2 0 3.7.6 5.5 1.4Z"/>
  <path fill="#fff" d="M265.1 128.2c.4.3-.6 2.7-2.2 5.3a35.4 35.4 0 0 0-4.6 10.1c-.3 0-2.3-1.2-4.5-2.7-2.8-1.8-6-2.8-9.3-3-3.6-.4-6.3 0-8.3 1-1.6.9-4.4 3-6.2 4.9-3.1 3.2-3.3 3.2-4.4 1.3a41 41 0 0 0-10.7-10.8c-1.3-.4-1.3-.7-.2-1.5.8-.5 6-1.7 11.5-2.6l12.7-2a229 229 0 0 1 26.2 0Z"/>
  <path fill="#fff" fill-rule="evenodd" d="M224 233.6c4.6 2.2 11.3 4.7 14.9 5.7a82 82 0 0 0 19 1.7c6.9 0 14.6-.2 17.2-.6 3.8-.6 4.8-.5 4.8.7 0 .8-1.5 2.2-3.3 3.1-1.8 1-3.5 2.2-4 2.8-.3.5-.4 1.4-.1 1.8.3.5 1.8.8 3.4.8 2.3 0 3 .5 3 2 0 1.4-1.6 2.8-5 4.5a61 61 0 0 1-11.3 4 50 50 0 0 1-25.5-.3 39.3 39.3 0 0 1-16.2-9.6c-.7-.9-1-1.6-.7-1.6l6.7 1.6c4.8 1.2 6.4 1.3 7.5.4 1-.9 1.2-1.6.5-2.5-.6-.7-2.7-1.6-4.8-2-2-.3-6.5-2-10-3.5l-6.2-2.9v-4.4c0-2.4.3-4.6.6-5 .4-.4.8-.7 1-.7l8.5 4Zm17.7 18.2c-.6-.5-.7-1.5-.4-2 .4-.7 1.6-1.2 2.6-1.2 1.1 0 2 .7 2 1.5 0 .9-.7 1.9-1.6 2.2-.9.3-2 .1-2.6-.5Z" clip-rule="evenodd"/>
  <path fill="#FEDAB6" d="M272 176.2c.6.8 1.2 2.9 1.2 4.5 0 2-1 4.1-3.4 6.5-1.9 2-5.1 4.5-7.1 5.5s-6 2.4-8.8 3c-3.6.8-7 .7-12.7-.1a48 48 0 0 1-10.6-2.6c-1.5-.8-3.4-2.5-4.3-3.9a6 6 0 0 1-1-4.5 8.6 8.6 0 0 1 3.2-3.7c2-1.3 3.8-1.4 10.7-.8 4.5.5 9.9.8 12 .8 2.2 0 5.7-1.3 9-3.1 2.8-1.7 6.4-3 7.8-3.1 1.4 0 3.2.6 4 1.5Z"/>
  <path fill="#FEFFB9" d="M116.6 164.2c0 4 .8 9.8 1.7 13 .6 2 2 5.3 3.3 8.7l49.9-54.7c-4.5 0-8.9-.2-10.1 0l-11 2c-4.5 1-9 2.1-13.3 3.6-7.6 3.5-14 9.1-18.5 16.2a21 21 0 0 0-2 11.2Zm90.3-27.9c-.8-.4-2.2-.8-3.9-1.3l-66.1 74.3a78 78 0 0 0 6.6 5.7l68.5-76-5.1-2.7Zm16.7 20.5a32 32 0 0 0-3-9.5c-1.3-2-3.5-4.6-5.4-6.2l-67.7 76.2 4.7 2c3.6 1.1 7.2 1.4 13.5 1 6.3-.2 10.5-1.1 15.2-3a74.2 74.2 0 0 0 15-9.5c4.6-3.7 10.6-9.4 13.2-12.7A84.4 84.4 0 0 0 223 168c.7-3.1 1-8.1.7-11l-.1-.2Zm40.9 5.9c.9 3 2 6 2.6 6.6l.9.7 50.5-53a93.2 93.2 0 0 0-31.5 5.2c-4.1 1.4-9.6 4-12.2 6a33.7 33.7 0 0 0-10.7 13.7c-.7 1.6-1.2 5.6-1.2 9 0 3.5.7 8.8 1.6 11.8Zm87.5-32.3a28.7 28.7 0 0 0-4.7-6.4l-62.8 69c2 1.7 4.5 3.6 6.8 5.1l60.8-67.7h-.1Zm4.6 26.2c.4-7 .1-12.4-.7-16-.3-1.3-.7-2.8-1.3-4.3L296 201a36.5 36.5 0 0 0 22.8 5.4 56 56 0 0 0 13.2-2.7 34 34 0 0 0 9.7-6c2.2-2.2 5.1-5.8 6.5-8.2a80 80 0 0 0 8.4-32.9Z"/>
  <path fill="#fff" d="M124.1 191.3a75.8 75.8 0 0 0 12.8 18L203 135l-7.6-1.9c-8-1.4-16.2-2-24.4-2l-49.4 54.8 2.5 5.4Zm90.1-51L212 139l-68.7 76a35 35 0 0 0 4.2 2.4l67.7-76.2a14 14 0 0 0-1-.8v-.1Zm132.2-17.1c-1.7-1.3-5-3.2-7-4.1-5.3-1.6-11-2.3-16.5-2-1.7-.1-3.3-.2-4.8-.1L268 170a8 8 0 0 0 2.6.8 9 9 0 0 1 4.7 3.1c1.5 2 2 4.2 2 7.5-.1 4.4.2 5 5.1 9.7l2.1 1.9 62.8-69-.9-.8Zm-55.1 74.9 4.7 3 58.6-64.8c-.8-2.2-1.7-4.4-2.5-6l-60.8 67.8Z"/>
</svg>
