<svg xmlns="http://www.w3.org/2000/svg" fill="none" viewBox="0 0 152 146">
  <path fill="#000" fill-rule="evenodd" d="M11 5v5H0v51.9l5.3.3 5.2.3.3 5.3.3 5.2 17.7-.2 17.7-.3.3-5.3.3-5.2H57V10H47V0H11v5Zm88.8 5.3-.3 10.2-5.3.3-5.2.3V42H79l-.2 10.3-.3 10.2-5.3.3-5.2.3V84H58l-.2 10.3-.3 10.2-5.3.3-5.2.3V126H37v20h15v-21h10l.2-10.3.3-10.2 5.3-.3 5.2-.3V83h10V62h11V41h10l.2-10.3.3-10.2 5.3-.3 5.2-.3V0h-14.9l-.3 10.3ZM42 36.5v26.6l-13.3-.3-13.2-.3-.3-26.3L15 10h27v26.5Zm63 42V84H94v50.9l5.3.3 5.2.3.3 5.3.3 5.2H141l.3-5.3.3-5.2 5.3-.3 5.2-.3V84h-11V73h-36v5.5Zm31 31V136h-26V83h26v26.5Z" clip-rule="evenodd"/>
</svg>
