<svg xmlns="http://www.w3.org/2000/svg" width="30.52" height="30.52" viewBox="0 0 30.52 30.52">
  <path id="Path_224" data-name="Path 224" d="M1656.238,1388.195a15.26,15.26,0,1,0,15.26,15.26,15.26,15.26,0,0,0-15.26-15.26Zm-7.731,15.773.064-.1,3.971-6.211a.137.137,0,0,1,.238.019c.662,1.486,1.236,3.335.968,4.486a6.918,6.918,0,0,1-.782,1.706,2.92,2.92,0,0,1-.149.253.134.134,0,0,1-.113.058h-4.081a.135.135,0,0,1-.116-.211Zm17.692,2.136a.137.137,0,0,1-.082.128,4.906,4.906,0,0,0-1.8,1.224c-1.117,1.554-1.968,3.775-3.875,3.775h-7.954a5.111,5.111,0,0,1-5.1-5.121v-.091a.136.136,0,0,1,.138-.135h4.431a.153.153,0,0,1,.147.168,1.494,1.494,0,0,0,.158.852,1.559,1.559,0,0,0,1.4.867h2.194v-1.713h-2.17a.139.139,0,0,1-.112-.219c.024-.037.048-.074.079-.116.2-.293.5-.745.79-1.261a10.1,10.1,0,0,0,.547-1.092c.03-.067.055-.138.082-.2.043-.119.085-.232.116-.342.031-.094.058-.192.082-.283a4.432,4.432,0,0,0,.1-1c0-.137-.006-.28-.018-.415s-.025-.3-.043-.448c-.012-.131-.036-.263-.061-.4-.033-.2-.076-.4-.125-.595l-.018-.076c-.037-.138-.071-.266-.113-.4-.125-.428-.266-.846-.418-1.236-.055-.156-.116-.306-.18-.452-.092-.226-.187-.43-.272-.623-.046-.088-.082-.167-.119-.25s-.086-.183-.131-.271c-.031-.068-.067-.132-.092-.193l-.268-.494a.087.087,0,0,1,.1-.128l1.679.454h.012l.22.064.244.068.088.024v-.995a.867.867,0,0,1,.864-.873.837.837,0,0,1,.607.257.873.873,0,0,1,.254.616v1.48l.18.049a.26.26,0,0,1,.039.021c.043.031.107.08.187.141.064.049.131.11.21.174.162.131.357.3.568.491.055.049.11.1.162.15.271.253.576.549.869.879.083.094.162.186.245.287s.167.2.241.3q.15.2.3.412c.043.067.094.137.134.2a6.4,6.4,0,0,1,.327.553c.042.085.085.18.122.271a3.768,3.768,0,0,1,.256.76.841.841,0,0,1,.037.168v.012a1.4,1.4,0,0,1,.03.235,2.632,2.632,0,0,1-.042.785c-.025.109-.055.213-.092.326a3.012,3.012,0,0,1-.125.324,4.435,4.435,0,0,1-.336.637c-.043.077-.1.156-.143.232s-.113.156-.162.229a3.515,3.515,0,0,1-.22.281,3.085,3.085,0,0,1-.21.266c-.1.125-.2.241-.312.354a2.717,2.717,0,0,1-.2.216,2.19,2.19,0,0,1-.2.2c-.107.107-.193.186-.266.256l-.174.156a.13.13,0,0,1-.092.036h-1.336v1.713h1.681a1.566,1.566,0,0,0,1.023-.379,12.454,12.454,0,0,0,1.037-1.019.118.118,0,0,1,.065-.04l4.642-1.343a.136.136,0,0,1,.173.131v.983Z" transform="translate(-1640.978 -1388.195)" fill="#fff"/>
</svg>
