<svg xmlns="http://www.w3.org/2000/svg" width="37.211" height="26.768" viewBox="0 0 37.211 26.768">
  <path id="Path_225" data-name="Path 225" d="M1722.836,1393.784a15.753,15.753,0,0,0-8.953-3.345l-.446.509a21.2,21.2,0,0,1,7.933,4.047,25.977,25.977,0,0,0-9.59-3.059,26.952,26.952,0,0,0-6.436.064,3.148,3.148,0,0,0-.542.064,23.891,23.891,0,0,0-7.232,2.007c-1.179.541-1.88.924-1.88.924s2.644-2.517,8.379-4.174l-.318-.382a15.753,15.753,0,0,0-8.953,3.345,42.666,42.666,0,0,0-4.588,18.575s2.676,4.62,9.717,4.843c0,0,1.179-1.434,2.135-2.644a9.913,9.913,0,0,1-5.576-3.76s.319.223.893.542a.423.423,0,0,0,.127.1c.1.064.191.1.287.16a18.643,18.643,0,0,0,2.326,1.083,26.669,26.669,0,0,0,4.683,1.37,22.329,22.329,0,0,0,8.252.032,20.961,20.961,0,0,0,4.62-1.37,18.217,18.217,0,0,0,3.664-1.88,10.05,10.05,0,0,1-5.767,3.791c.956,1.211,2.1,2.581,2.1,2.581,7.042-.223,9.75-4.843,9.75-4.843a42.669,42.669,0,0,0-4.585-18.58Zm-19.977,15.612a3.549,3.549,0,1,1,3.252-3.537,3.549,3.549,0,0,1-3.252,3.537Zm11.629,0a3.549,3.549,0,1,1,3.25-3.536,3.416,3.416,0,0,1-3.25,3.54Z" transform="translate(-1690.21 -1390.439)" fill="#fff"/>
</svg>
