<svg xmlns="http://www.w3.org/2000/svg" width="33.51" height="27.234" viewBox="0 0 33.51 27.234">
  <path id="Path_226" data-name="Path 226" d="M1756.725,1417.44c12.649,0,19.565-10.479,19.565-19.565q0-.447-.019-.889a14.008,14.008,0,0,0,3.43-3.561,13.7,13.7,0,0,1-3.949,1.083,6.907,6.907,0,0,0,3.024-3.8,13.78,13.78,0,0,1-4.367,1.669,6.883,6.883,0,0,0-11.718,6.271,19.52,19.52,0,0,1-14.174-7.184,6.883,6.883,0,0,0,2.129,9.18,6.832,6.832,0,0,1-3.114-.86v.088a6.88,6.88,0,0,0,5.517,6.741,6.864,6.864,0,0,1-3.1.118,6.884,6.884,0,0,0,6.423,4.776,13.912,13.912,0,0,1-10.181,2.848,19.467,19.467,0,0,0,10.541,3.089" transform="translate(-1746.191 -1390.21)" fill="#fff"/>
</svg>
