<svg xmlns="http://www.w3.org/2000/svg" width="29.731" height="29.731" viewBox="0 0 29.731 29.731">
  <g id="Group_135" data-name="Group 135" transform="translate(-1796.746 -1388.955)">
    <path id="Path_227" data-name="Path 227" d="M1811.612,1391.633c3.969,0,4.439.015,6.007.087a8.209,8.209,0,0,1,2.76.512,4.923,4.923,0,0,1,2.821,2.821,8.208,8.208,0,0,1,.512,2.76c.072,1.568.087,2.038.087,6.007s-.015,4.44-.087,6.007a8.213,8.213,0,0,1-.512,2.761,4.924,4.924,0,0,1-2.821,2.821,8.241,8.241,0,0,1-2.76.512c-1.568.071-2.038.086-6.007.086s-4.44-.015-6.007-.086a8.232,8.232,0,0,1-2.76-.512,4.922,4.922,0,0,1-2.822-2.821,8.267,8.267,0,0,1-.512-2.761c-.071-1.567-.086-2.037-.086-6.007s.015-4.439.086-6.007a8.264,8.264,0,0,1,.512-2.76,4.922,4.922,0,0,1,2.822-2.821,8.2,8.2,0,0,1,2.76-.512c1.567-.072,2.038-.087,6.007-.087m0-2.678c-4.037,0-4.544.017-6.129.089a10.92,10.92,0,0,0-3.609.691,7.6,7.6,0,0,0-4.347,4.348,10.891,10.891,0,0,0-.691,3.608c-.073,1.586-.09,2.092-.09,6.129s.017,4.544.09,6.129a10.9,10.9,0,0,0,.691,3.609,7.6,7.6,0,0,0,4.347,4.348,10.925,10.925,0,0,0,3.609.69c1.585.073,2.092.09,6.129.09s4.543-.017,6.129-.09a10.921,10.921,0,0,0,3.608-.69,7.6,7.6,0,0,0,4.348-4.348,10.914,10.914,0,0,0,.691-3.609c.072-1.585.089-2.091.089-6.129s-.017-4.543-.089-6.129a10.912,10.912,0,0,0-.691-3.608,7.6,7.6,0,0,0-4.348-4.348,10.914,10.914,0,0,0-3.608-.691C1816.155,1388.972,1815.649,1388.955,1811.612,1388.955Z" fill="#fff"/>
    <path id="Path_228" data-name="Path 228" d="M1811.612,1396.187a7.633,7.633,0,1,0,7.634,7.633,7.633,7.633,0,0,0-7.634-7.633Zm0,12.589a4.956,4.956,0,1,1,4.955-4.956,4.956,4.956,0,0,1-4.955,4.956Z" fill="#fff"/>
    <circle id="Ellipse_11" data-name="Ellipse 11" cx="1.784" cy="1.784" r="1.784" transform="translate(1817.763 1394.101)" fill="#fff"/>
  </g>
</svg>
