<?xml version="1.0" encoding="utf-8"?>
<!-- Generator: Adobe Illustrator 24.0.2, SVG Export Plug-In . SVG Version: 6.00 Build 0)  -->
<svg version="1.1" id="Слой_1" xmlns="http://www.w3.org/2000/svg" xmlns:xlink="http://www.w3.org/1999/xlink" x="0px" y="0px"
	 viewBox="0 0 377.46 377.41" style="enable-background:new 0 0 377.46 377.41;" xml:space="preserve">
<g>
	<g>
		<path d="M70.59,179.75c-6.6,0-13.19,0-19.79-0.02c-29.38-0.05-50.73-21.34-50.77-50.62C0,100.52,0,74.8,0.04,50.5
			C0.09,21.31,21.34,0.09,50.57,0.04c25.6-0.04,52.05-0.04,78.62,0l0,0c29.26,0.05,50.52,21.26,50.56,50.44
			c0.04,29.9,0.03,60.3,0.01,89.69l-0.01,16.97c-0.01,13.92-8.68,22.58-22.64,22.59c-12.91,0.01-25.81,0.01-38.71,0.01l-15.93,0
			l-15.94,0C81.21,179.74,75.9,179.75,70.59,179.75z M89.67,18.01c-13.18,0-26.23,0.01-39.07,0.03
			c-19.14,0.03-32.53,13.4-32.56,32.5c-0.04,24.28-0.04,49.97,0,78.55c0.03,19.49,13.21,32.61,32.8,32.64
			c11.9,0.02,23.79,0.02,35.69,0.01l15.94,0l15.94,0c12.9,0,25.8,0,38.7-0.01c3.96,0,4.66-0.69,4.66-4.6l0.01-16.97
			c0.01-29.39,0.03-59.78-0.01-89.66c-0.03-19.08-13.42-32.43-32.59-32.46C115.94,18.02,102.74,18.01,89.67,18.01z"/>
	</g>
	<g>
		<path d="M306.77,179.75c-5.39,0-10.78,0-16.17-0.01l-16.15-0.01l-15.92,0c-12.78,0-25.57,0.01-38.35-0.01h0
			c-13.64-0.01-22.46-8.8-22.47-22.39l-0.01-17.49c-0.01-29.35-0.03-59.69,0.02-89.54c0.02-13.96,5.12-26.73,14.36-35.94
			c9.23-9.21,22.01-14.29,35.99-14.32c26.21-0.06,52.79-0.06,79,0c29.11,0.06,50.29,21.2,50.35,50.26c0.05,24.38,0.06,50.22,0,78.99
			c-0.05,29.16-21.32,50.38-50.56,50.44C320.17,179.74,313.47,179.75,306.77,179.75z M274.45,161.74l16.16,0.01
			c12.07,0.01,24.14,0.01,36.21-0.01c19.16-0.04,32.56-13.4,32.6-32.48c0.05-28.74,0.05-54.56,0-78.92
			c-0.04-18.98-13.36-32.26-32.39-32.3c-26.19-0.05-52.74-0.05-78.93,0c-19.04,0.04-32.36,13.32-32.39,32.29
			c-0.04,29.83-0.03,60.17-0.02,89.51l0.01,17.49c0,3.61,0.8,4.39,4.49,4.4c12.78,0.01,25.55,0.01,38.33,0.01L274.45,161.74z"/>
	</g>
	<g>
		<path d="M288.43,377.4c-13.07,0-26.41-0.01-39.93-0.03c-29.4-0.04-50.76-21.32-50.79-50.6c-0.03-28.34-0.02-56.69-0.01-85.03
			l0.01-21.25c0-14.06,8.74-22.81,22.8-22.81c13.02-0.01,26.05-0.01,39.08,0l15.19,0l15.92-0.01c12.04,0,24.08-0.01,36.12,0.01
			c29.29,0.06,50.58,21.41,50.61,50.77c0.03,26.86,0.03,53.18,0,78.23c-0.04,29.33-21.36,50.66-50.69,50.7
			C314.3,377.39,301.5,377.4,288.43,377.4z M244.38,215.67c-7.96,0-15.91,0-23.87,0.01c-4.14,0-4.81,0.68-4.81,4.82l-0.01,21.25
			c-0.01,28.33-0.02,56.67,0.01,85c0.02,19.49,13.21,32.6,32.81,32.62c27.04,0.04,53.35,0.04,78.19,0
			c19.54-0.03,32.69-13.18,32.71-32.72c0.03-25.04,0.03-51.34,0-78.18c-0.02-19.57-13.14-32.75-32.65-32.79h0
			c-12.02-0.03-24.05-0.02-36.07-0.01l-15.93,0.01l-15.2,0C254.52,215.67,249.45,215.67,244.38,215.67z"/>
	</g>
	<g>
		<path d="M88.31,377.41c-13.35,0-25.87-0.01-38.04-0.04c-13.95-0.03-26.71-5.14-35.92-14.39c-9.2-9.24-14.29-22.02-14.31-35.99
			c-0.05-27.05-0.05-53.62,0-78.99c0.06-29.07,21.21-50.23,50.29-50.32c12.07-0.04,24.33-0.03,36.19-0.02
			c5.41,0,10.82,0.01,16.23,0.01l14.07,0c13.4,0,26.8,0,40.2,0c14.02,0.01,22.73,8.78,22.74,22.88l0.01,22.69
			c0.01,27.87,0.02,55.73-0.01,83.6c-0.03,29.23-21.26,50.48-50.47,50.53C114.57,377.4,101.06,377.41,88.31,377.41z M70.33,215.66
			c-6.65,0-13.33,0.01-19.95,0.03c-19.01,0.06-32.31,13.36-32.34,32.35c-0.05,25.34-0.05,51.9,0,78.92
			c0.04,19.04,13.31,32.37,32.28,32.41c23.77,0.06,48.85,0.06,78.93,0c19.12-0.04,32.48-13.42,32.5-32.55
			c0.03-27.86,0.02-55.71,0.01-83.57l-0.01-22.69c0-4.43-0.9-4.88-4.75-4.88c-13.4-0.01-26.79-0.01-40.19,0l-14.07,0
			c-5.42,0-10.83,0-16.24-0.01C81.18,215.66,75.77,215.66,70.33,215.66z"/>
	</g>
</g>
</svg>
