<?xml version="1.0" encoding="utf-8"?>
<!-- Generator: Adobe Illustrator 24.0.2, SVG Export Plug-In . SVG Version: 6.00 Build 0)  -->
<svg version="1.1" id="Слой_1" xmlns="http://www.w3.org/2000/svg" xmlns:xlink="http://www.w3.org/1999/xlink" x="0px" y="0px"
	 viewBox="0 0 33.5 42.98" style="enable-background:new 0 0 33.5 42.98;" xml:space="preserve">
<style type="text/css">
	.st0{fill:#28272A;}
</style>
<path class="st0" d="M31.51,34.74L12.39,21.89L31.61,8.16c2.02-1.44,2.49-4.25,1.05-6.28c-1.45-2.02-4.26-2.49-6.28-1.05l-24.5,17.5
	c-0.09,0.06-0.15,0.14-0.23,0.2c-0.13,0.11-0.26,0.21-0.37,0.33c-0.12,0.12-0.21,0.25-0.31,0.38c-0.06,0.08-0.14,0.15-0.2,0.24
	c-0.02,0.02-0.02,0.05-0.04,0.08c-0.09,0.14-0.17,0.3-0.24,0.45c-0.06,0.12-0.12,0.23-0.17,0.35c-0.05,0.14-0.09,0.28-0.12,0.42
	c-0.04,0.14-0.09,0.28-0.11,0.43c-0.02,0.13-0.03,0.27-0.04,0.4C0.02,21.76,0,21.91,0,22.07c0,0.14,0.03,0.29,0.04,0.43
	c0.02,0.14,0.02,0.28,0.05,0.42c0.03,0.14,0.08,0.27,0.12,0.41c0.04,0.14,0.08,0.29,0.14,0.42c0.05,0.12,0.12,0.22,0.18,0.34
	c0.08,0.15,0.16,0.31,0.26,0.45c0.02,0.02,0.03,0.05,0.04,0.07c0.13,0.18,0.27,0.34,0.42,0.5c0.03,0.03,0.07,0.06,0.1,0.1
	c0.2,0.19,0.41,0.37,0.63,0.52c0,0,0,0,0,0l0,0c0.01,0.01,0.03,0.02,0.04,0.03l24.46,16.45c0.77,0.52,1.64,0.77,2.51,0.77
	c1.45,0,2.87-0.7,3.74-1.99C34.12,38.93,33.57,36.13,31.51,34.74z"/>
</svg>
