<?xml version="1.0" encoding="utf-8"?>
<!-- Generator: Adobe Illustrator 24.0.2, SVG Export Plug-In . SVG Version: 6.00 Build 0)  -->
<svg version="1.1" id="Слой_1" xmlns="http://www.w3.org/2000/svg" xmlns:xlink="http://www.w3.org/1999/xlink" x="0px" y="0px"
	 viewBox="0 0 445.15 368.37" style="enable-background:new 0 0 445.15 368.37;" xml:space="preserve">
<path d="M396.7,21.86h-45.87V0h-18v21.86H112.33V0h-18v21.86H48.45C21.74,21.86,0,43.6,0,70.32v249.6
	c0,26.72,21.74,48.45,48.45,48.45H396.7c26.72,0,48.45-21.74,48.45-48.45V70.32C445.15,43.6,423.41,21.86,396.7,21.86z M48.45,39.86
	h45.87v21.86h18V39.86h220.49v21.86h18V39.86h45.87c16.79,0,30.45,13.66,30.45,30.45v34.07H18V70.32
	C18,53.52,31.66,39.86,48.45,39.86z M396.7,350.37H48.45c-16.79,0-30.45-13.66-30.45-30.45V122.39h409.15v197.53
	C427.15,336.71,413.49,350.37,396.7,350.37z"/>
</svg>
