<?xml version="1.0" encoding="utf-8"?>
<!-- Generator: Adobe Illustrator 24.0.2, SVG Export Plug-In . SVG Version: 6.00 Build 0)  -->
<svg version="1.1" id="Слой_1" xmlns="http://www.w3.org/2000/svg" xmlns:xlink="http://www.w3.org/1999/xlink" x="0px" y="0px"
	 viewBox="0 0 2500 711" style="enable-background:new 0 0 2500 711;" xml:space="preserve">
<style type="text/css">
	.st0{fill:#FFFFFF;}
	.st1{fill:#FF3D2E;}
</style>
<g>
	<path class="st0" d="M650.78,0h113.76v711H650.78V0z M1162.7,484.19c0,108.81-91.49,117.49-118.71,117.49
		c-68,0-80.37-63.65-80.37-102.04V227.52H849.86v271.55c0,67.4,21.16,123.03,58.25,160.12c32.76,32.79,81.85,50.71,135.03,50.71
		c37.71,0,91.12-11.75,119.56-37.71V711h113.76V227.52H1162.7V484.19z M1503.98,56.88h-113.76v170.64h-85.32v113.76h85.32V711
		h113.76V341.28h85.32V227.52h-85.32V56.88z M1947.56,566.44c-24.77,22.27-57.48,34.61-93.37,34.61
		c-79.12,0-137.22-58.1-137.22-137.88s56.25-135.43,137.22-135.43c35.27,0,68.6,11.75,93.99,34.01l17.26,14.85l76.7-76.67
		l-19.2-17.32c-45.13-40.75-105.06-63.62-168.79-63.62c-142.2,0-245.47,102.61-245.47,243.59c0,140.38,105.74,246.66,245.47,246.66
		c64.93,0,125.48-22.87,170.04-64.27l18.54-17.32l-77.9-76.62L1947.56,566.44z M2448.19,269.67
		c-32.76-32.76-71.16-50.68-124.34-50.68c-37.71,0-80.43,11.75-108.87,37.68V0h-113.76v711h113.76V444.66
		c0-108.81,77.3-117.46,104.52-117.46c68,0,66.12,63.68,66.12,102.01V711h113.76V429.81
		C2499.38,362.41,2485.31,306.78,2448.19,269.67"/>
</g>
<path class="st1" d="M1850.44,382.18c45.42,0,82.25,36.82,82.25,82.25s-36.82,82.25-82.25,82.25c-45.42,0-82.25-36.82-82.25-82.25
	S1805.02,382.18,1850.44,382.18"/>
<path class="st0" d="M491.52,532.43c-43.26,44.51-102.01,68.63-163.84,68.63c-126.73,0-218.87-99.54-218.87-236.17
	c0-137.25,92.15-236.79,218.87-236.79c61.23,0,119.33,24.09,163.25,68l17.29,17.32l76.05-76.05l-16.69-17.32
	C504.52,55.12,419.2,19.91,327.68,19.91C140.97,19.91,0.62,168.28,0.62,365.48c0,196.61,140.98,344.38,327.06,344.38
	c92.15,0,177.47-35.83,240.52-100.76l16.69-17.32l-75.42-77.27L491.52,532.43z"/>
</svg>
