<?xml version="1.0" encoding="utf-8"?>
<!-- Generator: Adobe Illustrator 24.0.2, SVG Export Plug-In . SVG Version: 6.00 Build 0)  -->
<svg version="1.1" id="Слой_1" xmlns="http://www.w3.org/2000/svg" xmlns:xlink="http://www.w3.org/1999/xlink" x="0px" y="0px"
	 viewBox="0 0 283.39 337.51" style="enable-background:new 0 0 283.39 337.51;" xml:space="preserve">
<g>
	<path d="M141.7,175.92c48.5,0,87.96-39.46,87.96-87.96S190.2,0,141.7,0C93.2,0,53.74,39.46,53.74,87.96S93.2,175.92,141.7,175.92z
		 M141.7,18c38.58,0,69.96,31.38,69.96,69.96s-31.38,69.96-69.96,69.96s-69.96-31.38-69.96-69.96S103.12,18,141.7,18z"/>
	<path d="M141.7,195.81C63.57,195.81,0,259.38,0,337.51h18c0-68.21,55.49-123.7,123.7-123.7s123.7,55.49,123.7,123.7h18
		C283.39,259.38,219.83,195.81,141.7,195.81z"/>
</g>
</svg>
