<?xml version="1.0" encoding="utf-8"?>
<!-- Generator: Adobe Illustrator 24.0.2, SVG Export Plug-In . SVG Version: 6.00 Build 0)  -->
<svg version="1.1" id="Слой_1" xmlns="http://www.w3.org/2000/svg" xmlns:xlink="http://www.w3.org/1999/xlink" x="0px" y="0px"
	 viewBox="0 0 287.27 345.92" style="enable-background:new 0 0 287.27 345.92;" xml:space="preserve">
<g>
	<path d="M256.58,157.92h-51.17V34.88C205.41,15.65,189.77,0,170.53,0H34.88C15.65,0,0,15.65,0,34.88v276.16
		c0,19.23,15.65,34.88,34.88,34.88H74.3h56.82H188h17.41h51.17c16.92,0,30.69-13.77,30.69-30.69V188.6
		C287.27,171.68,273.5,157.92,256.58,157.92z M91.71,328.51v-81.55c0-6.07,4.93-11,11-11s11,4.93,11,11v81.55H91.71z M188,328.51
		h-56.88v-81.55c0-15.67-12.75-28.41-28.41-28.41S74.3,231.29,74.3,246.96v81.55H34.88c-9.63,0-17.47-7.84-17.47-17.47V34.88
		c0-9.63,7.84-17.47,17.47-17.47h135.65c9.63,0,17.47,7.84,17.47,17.47v123.04V328.51z M269.85,315.24
		c0,7.32-5.95,13.27-13.27,13.27h-51.17V175.33h51.17c7.32,0,13.27,5.95,13.27,13.27V315.24z"/>
	<rect x="57.99" y="82.53" width="89.43" height="17.41"/>
	<rect x="57.99" y="142.53" width="89.43" height="17.41"/>
</g>
</svg>
