<?xml version="1.0" encoding="utf-8"?>
<!-- Generator: Adobe Illustrator 24.0.2, SVG Export Plug-In . SVG Version: 6.00 Build 0)  -->
<svg version="1.1" id="Слой_1" xmlns="http://www.w3.org/2000/svg" xmlns:xlink="http://www.w3.org/1999/xlink" x="0px" y="0px"
	 viewBox="0 0 238.72 352.31" style="enable-background:new 0 0 238.72 352.31;" xml:space="preserve">
<g>
	<path d="M119.36,0C53.54,0,0,53.54,0,119.36c0,63.15,107.66,216.39,112.25,222.88l7.11,10.08l7.11-10.08
		c4.58-6.49,112.25-159.73,112.25-222.88C238.72,53.54,185.17,0,119.36,0z M119.36,321.88c-9.98-14.65-29.03-43.27-47.89-75.21
		c-44.68-75.65-54.06-110.99-54.06-127.32c0-56.21,45.73-101.95,101.95-101.95s101.95,45.73,101.95,101.95
		c0,16.33-9.38,51.67-54.06,127.32C148.38,278.61,129.34,307.24,119.36,321.88z"/>
	<path d="M128.99,63.33c-14.48-2.46-29.61,1.08-41.5,9.71c-11.37,8.25-18.94,20.34-21.33,34.05c-2.46,14.16,0.94,28.81,9.59,41.26
		c10,14.39,26.27,22.03,43.11,22.03c11.1,0,22.45-3.32,32.4-10.22v0c11.58-8.03,19.16-20.4,21.35-34.84
		c2.16-14.25-1.22-28.69-9.53-40.66C155.2,73.3,143.09,65.72,128.99,63.33z M154.81,122.62c-1.44,9.49-6.34,17.57-13.81,22.75
		c-16.61,11.52-39.72,8.18-50.47-7.29c-11.85-17.06-8.61-38.75,7.53-50.47c6.4-4.64,13.9-7.07,21.63-7.07
		c2.08,0,4.18,0.18,6.28,0.53c9.29,1.58,17.21,6.5,22.31,13.85C153.96,103.1,156.28,112.94,154.81,122.62z"/>
</g>
</svg>
