<?xml version="1.0" encoding="utf-8"?>
<!-- Generator: Adobe Illustrator 24.0.2, SVG Export Plug-In . SVG Version: 6.00 Build 0)  -->
<svg version="1.1" id="Слой_1" xmlns="http://www.w3.org/2000/svg" xmlns:xlink="http://www.w3.org/1999/xlink" x="0px" y="0px"
	 viewBox="0 0 364.74 366.36" style="enable-background:new 0 0 364.74 366.36;" xml:space="preserve">
<g>
	<path d="M219.83,366.36c-3.44,0-6.65-1.77-8.48-4.71l-33.84-54.26c-4.5-7.21-12.25-11.52-20.75-11.52H44.46
		C19.94,295.87,0,275.93,0,251.41V44.46C0,19.94,19.94,0,44.46,0h275.82c24.51,0,44.46,19.94,44.46,44.46v206.96
		c0,24.51-19.94,44.46-44.46,44.46h-41.95c-9.02,0-17.27,4.93-21.54,12.88l-28.14,52.34c-1.69,3.14-4.92,5.14-8.49,5.26
		C220.05,366.36,219.94,366.36,219.83,366.36z M44.46,20C30.97,20,20,30.97,20,44.46v206.96c0,13.49,10.97,24.46,24.46,24.46h112.29
		c15.45,0,29.55,7.83,37.72,20.93l24.71,39.63l19.98-37.15c7.76-14.44,22.77-23.41,39.16-23.41h41.95
		c13.49,0,24.46-10.97,24.46-24.46V44.46c0-13.49-10.97-24.46-24.46-24.46H44.46z"/>
</g>
<g>
	<path d="M233.6,250.62c-0.16,0-0.32,0-0.48-0.01c-12.47-0.59-25.58-4.53-40.06-12.04c-29.92-15.51-56.37-37.84-80.85-68.27
		c-14.32-17.79-24.27-34.96-30.41-52.48c-3.08-8.81-6.39-20.55-4.53-33.31c1.18-8.08,4.48-14.87,9.82-20.19
		c2.02-2.01,4.04-4.04,6.05-6.06c3.4-3.41,6.91-6.93,10.43-10.38c11.99-11.74,29.39-11.88,41.38-0.32
		c9.19,8.86,18,17.67,26.19,26.18c6.84,7.11,9.7,16.36,7.83,25.38c-1.88,9.1-8.24,16.53-17.45,20.39
		c-6.01,2.52-7.35,5.38-5.28,11.32c3.98,11.45,11.8,21.43,23.89,30.5c5.13,3.85,11.04,7.15,17.11,9.55c2.06,0.81,4.15,0.81,5.9,0
		c1.75-0.81,3.04-2.33,3.74-4.4c3.09-9.1,10.94-16.09,20.47-18.24c9.77-2.2,19.57,0.88,26.91,8.45c4.57,4.71,9.35,9.45,13.96,14.03
		c3.55,3.52,7.22,7.16,10.81,10.8c11.86,12.03,11.95,29.57,0.21,41.7c-3.99,4.13-8.1,8.2-12.08,12.13
		c-1.66,1.64-3.31,3.28-4.96,4.93c-9.2,9.19-20.72,10.29-28.58,10.31C233.62,250.62,233.61,250.62,233.6,250.62z M124.48,59
		c-2.36,0-4.74,1.06-6.91,3.19c-3.43,3.36-6.9,6.84-10.25,10.2c-2.03,2.04-4.07,4.08-6.11,6.12c-2.27,2.26-3.58,5.08-4.14,8.89
		c-1.22,8.4,1.14,16.75,3.61,23.81c5.37,15.33,14.24,30.56,27.11,46.55c22.71,28.22,47.08,48.84,74.48,63.05
		c11.76,6.1,22.08,9.3,31.55,9.8c7.01-0.05,11.15-1.36,14.27-4.47c1.67-1.66,3.34-3.32,5.01-4.98c3.9-3.87,7.93-7.86,11.78-11.84
		c4.18-4.32,4.15-9.46-0.08-13.75c-3.51-3.56-7.14-7.16-10.65-10.64c-4.69-4.65-9.53-9.46-14.24-14.31
		c-3.09-3.19-6.14-3.31-8.16-2.86c-2.75,0.62-5.07,2.64-5.92,5.16c-2.47,7.28-7.54,13-14.28,16.12c-6.77,3.13-14.46,3.29-21.65,0.45
		c-7.7-3.04-15.22-7.24-21.76-12.15c-15.38-11.54-25.45-24.6-30.78-39.93c-5.51-15.84,0.79-29.76,16.43-36.33
		c3.08-1.29,5.07-3.42,5.6-6c0.52-2.5-0.43-5.15-2.66-7.47c-8.01-8.33-16.64-16.96-25.66-25.65C129.02,59.99,126.75,59,124.48,59z"
		/>
</g>
</svg>
