<?xml version="1.0" encoding="utf-8"?>
<!-- Generator: Adobe Illustrator 24.0.2, SVG Export Plug-In . SVG Version: 6.00 Build 0)  -->
<svg version="1.1" id="Слой_1" xmlns="http://www.w3.org/2000/svg" xmlns:xlink="http://www.w3.org/1999/xlink" x="0px" y="0px"
	 viewBox="0 0 32.03 30.04" style="enable-background:new 0 0 32.03 30.04;" xml:space="preserve">
<style type="text/css">
	.st0{fill:#29272A;}
</style>
<path class="st0" d="M13,0c7.18,0,13,5.82,13,13c0,2.62-0.79,5.17-2.26,7.33l8,8c0.39,0.39,0.39,1.02,0.01,1.41c0,0,0,0-0.01,0.01
	c-0.36,0.36-0.92,0.39-1.32,0.08l-0.1-0.08l-7.84-7.85c-4.92,5.23-13.14,5.49-18.38,0.58S-1.39,9.33,3.52,4.1C5.98,1.48,9.41,0,13,0
	z M13,2C6.92,2,2,6.92,2,13s4.92,11,11,11s11-4.92,11-11S19.07,2,13,2z M12,4c0.55,0,1,0.45,1,1s-0.45,1-1,1c-3.31,0-6,2.69-6,6
	c0,0.55-0.45,1-1,1s-1-0.45-1-1C4,7.58,7.58,4,12,4z"/>
</svg>
