<?xml version="1.0" encoding="utf-8"?>
<!-- Generator: Adobe Illustrator 24.0.2, SVG Export Plug-In . SVG Version: 6.00 Build 0)  -->
<svg version="1.1" id="Слой_1" xmlns="http://www.w3.org/2000/svg" xmlns:xlink="http://www.w3.org/1999/xlink" x="0px" y="0px"
	 viewBox="0 0 585.28 90.5" style="enable-background:new 0 0 585.28 90.5;" xml:space="preserve">
<style type="text/css">
	.st0{fill:#D7A521;}
</style>
<g>
	<polygon class="st0" points="62.26,29.8 95.11,34.63 71.29,57.77 76.84,90.5 47.48,75 18.06,90.4 23.73,57.68 0,34.46 32.87,29.75 
		47.61,0 	"/>
	<polygon class="st0" points="184.8,29.8 217.65,34.63 193.83,57.77 199.39,90.5 170.02,75 140.61,90.4 146.28,57.68 122.54,34.46 
		155.41,29.75 170.16,0 	"/>
	<polygon class="st0" points="307.34,29.8 340.19,34.63 316.37,57.77 321.93,90.5 292.57,75 263.15,90.4 268.82,57.68 245.09,34.46 
		277.95,29.75 292.7,0 	"/>
	<polygon class="st0" points="429.89,29.8 462.74,34.63 438.92,57.77 444.47,90.5 415.11,75 385.69,90.4 391.37,57.68 367.63,34.46 
		400.5,29.75 415.24,0 	"/>
	<polygon class="st0" points="552.43,29.8 585.28,34.63 561.46,57.77 567.02,90.5 537.65,75 508.24,90.4 513.91,57.68 490.17,34.46 
		523.04,29.75 537.79,0 	"/>
</g>
</svg>
