<?xml version="1.0" encoding="utf-8"?>
<!-- Generator: Adobe Illustrator 24.0.2, SVG Export Plug-In . SVG Version: 6.00 Build 0)  -->
<svg version="1.1" id="Слой_1" xmlns="http://www.w3.org/2000/svg" xmlns:xlink="http://www.w3.org/1999/xlink" x="0px" y="0px"
	 viewBox="0 0 343.8 343.8" style="enable-background:new 0 0 343.8 343.8;" xml:space="preserve">
<g>
	<path d="M320.51,85.44l-15.04,8.77c13.69,23.48,20.92,50.35,20.92,77.69c0,85.19-69.3,154.49-154.49,154.49
		S17.41,257.09,17.41,171.9S86.71,17.41,171.9,17.41c30.57,0,60.12,8.91,85.46,25.77l9.64-14.5C238.8,9.92,205.91,0,171.9,0
		C77.11,0,0,77.11,0,171.9c0,94.79,77.11,171.9,171.9,171.9c94.79,0,171.9-77.11,171.9-171.9
		C343.8,141.48,335.75,111.58,320.51,85.44z"/>
	<path d="M88.45,113.94l-14.26,9.99l90.58,129.28c1.63,2.33,4.29,3.71,7.13,3.71c0.08,0,0.16,0,0.23,0
		c2.92-0.08,5.61-1.62,7.15-4.09L318.4,29.9l-14.77-9.22L171.48,232.44L88.45,113.94z"/>
</g>
</svg>
