<svg width="318" height="38" viewBox="0 0 318 38" fill="none" xmlns="http://www.w3.org/2000/svg">
<path d="M10.4518 24.482V32.0541C10.4518 33.1899 10.6078 34.0228 10.8418 34.6285C11.0758 35.1586 11.5438 35.5372 12.1678 35.6886C12.7918 35.8401 13.8057 35.9915 15.2097 35.9915V36.9759C11.5438 36.9002 8.81383 36.8244 7.01987 36.8244C5.5379 36.8244 3.66593 36.8244 1.40397 36.9002H0V36.0672C1.01398 35.9915 1.71597 35.9158 2.18396 35.6886C2.65195 35.5372 2.96394 35.1586 3.11994 34.7043C3.27594 34.2499 3.35394 33.417 3.35394 32.2812V10.7767C3.35394 9.64085 3.27594 8.88365 3.11994 8.3536C2.96394 7.89928 2.65195 7.5964 2.18396 7.36924C1.71597 7.2178 1.01398 7.14208 0 7.06636V6.15771C1.48197 6.23344 3.82193 6.30916 6.78587 6.30916L11.7778 6.23343C12.4018 6.23343 13.0258 6.15771 13.8057 6.15771C17.8617 6.15771 20.9036 6.91492 23.0096 8.50504C25.1155 10.0195 26.2075 12.1396 26.2075 14.7141C26.2075 16.3042 25.8175 17.8186 24.9595 19.2573C24.1015 20.696 22.6976 21.9075 20.7476 22.8919C18.7976 23.8763 16.1457 24.3306 12.8698 24.3306H10.4518V24.482ZM11.4658 7.36924C11.0758 7.5964 10.8418 7.89928 10.6858 8.42932C10.5298 8.95937 10.4518 9.71657 10.4518 10.7767V23.6491H12.4018C14.8197 23.6491 16.4577 22.8919 17.3937 21.3775C18.3297 19.8631 18.7976 17.8186 18.7976 15.2442C18.7976 12.4425 18.4077 10.3981 17.5497 9.03509C16.6917 7.67212 15.2877 7.06636 13.2597 7.06636C12.4018 7.06636 11.8558 7.14208 11.4658 7.36924Z" fill="#BADFD6"/>
<path d="M59.6689 35.0074C58.8889 35.916 58.0309 36.5218 57.0949 36.9761C56.1589 37.3547 55.067 37.5819 53.741 37.5819C52.025 37.5819 50.621 37.2033 49.6851 36.5218C48.6711 35.8403 48.0471 34.6288 47.7351 32.8872L46.9551 28.5712C46.5651 26.451 46.0971 24.9366 45.5511 23.8765C45.0052 22.8921 44.0692 22.3621 42.8212 22.3621H39.7793V32.3572C39.7793 33.493 39.8572 34.2502 40.0132 34.7802C40.1692 35.3103 40.4812 35.6132 40.9492 35.7646C41.4172 35.916 42.1192 36.0675 43.1332 36.1432V36.9761C41.4952 36.9004 39.3113 36.8247 36.3473 36.8247C33.1494 36.8247 30.8094 36.9004 29.2495 36.9761V36.1432C30.2634 36.0675 30.9654 35.9918 31.4334 35.7646C31.9014 35.6132 32.2134 35.2346 32.3694 34.7802C32.5254 34.3259 32.6034 33.493 32.6034 32.3572V10.7769C32.6034 9.64109 32.5254 8.88389 32.3694 8.35385C32.2134 7.89953 31.9014 7.52092 31.4334 7.36948C30.9654 7.21804 30.2634 7.0666 29.2495 6.99088V6.15796C30.7314 6.23368 33.0714 6.3094 36.0353 6.3094L41.0272 6.23368C41.6512 6.23368 42.2752 6.15796 43.0552 6.15796C47.1891 6.15796 50.2311 6.83944 52.337 8.12669C54.443 9.41393 55.457 11.3069 55.457 13.73C55.457 15.7744 54.677 17.5917 53.117 19.1819C51.557 20.772 48.9831 21.7563 45.3951 22.1349C48.0471 22.3621 50.0751 22.9679 51.401 23.8008C52.727 24.7094 53.585 26.0724 53.975 27.814L54.989 32.2815C55.223 33.4173 55.535 34.2502 55.8469 34.7045C56.1589 35.1588 56.6269 35.386 57.1729 35.386C57.5629 35.386 57.8749 35.2346 58.1089 35.1588C58.3429 35.0074 58.6549 34.7802 58.9669 34.4016L59.6689 35.0074ZM40.7932 7.36948C40.4032 7.59664 40.1692 7.89953 40.0132 8.42957C39.8572 8.95961 39.7793 9.71681 39.7793 10.7769V21.4535H41.7292C44.1472 21.4535 45.8631 20.8477 46.7211 19.5605C47.6571 18.2732 48.0471 16.5316 48.0471 14.26C48.0471 11.9127 47.5791 10.0954 46.7211 8.88389C45.8631 7.67236 44.4592 7.0666 42.5092 7.0666C41.7292 7.0666 41.1832 7.14232 40.7932 7.36948Z" fill="#BADFD6"/>
<path d="M85.7204 7.44525C88.0603 8.65678 89.9323 10.4741 91.2583 12.8214C92.5842 15.1687 93.2082 17.9704 93.2082 21.2264C93.2082 24.4066 92.5063 27.2083 91.1803 29.707C89.8543 32.1301 87.9823 34.0988 85.5644 35.4618C83.1464 36.8247 80.4165 37.5062 77.3745 37.5062C74.1766 37.5062 71.4466 36.9005 69.1067 35.6132C66.7667 34.4017 64.8948 32.5844 63.5688 30.2371C62.2428 27.8897 61.6188 25.0881 61.6188 21.8321C61.6188 18.6519 62.3208 15.8502 63.6468 13.3514C64.9728 10.8527 66.8447 8.95966 69.2627 7.59669C71.6806 6.23373 74.4106 5.55225 77.4525 5.55225C80.5725 5.55225 83.3024 6.23373 85.7204 7.44525ZM72.8506 8.27818C71.6026 9.56542 70.6667 11.3827 69.9647 13.6543C69.2627 16.0016 68.9507 18.6519 68.9507 21.605C68.9507 24.6338 69.3407 27.284 70.1207 29.5556C70.9007 31.8272 71.9146 33.6445 73.2406 34.856C74.5666 36.0675 75.9706 36.749 77.5305 36.749C79.1685 36.749 80.6505 36.1433 81.8985 34.7803C83.1464 33.493 84.0824 31.6758 84.7844 29.4041C85.4864 27.0568 85.7984 24.4066 85.7984 21.4535C85.7984 18.4247 85.4084 15.7745 84.6284 13.5029C83.8484 11.2313 82.8344 9.4897 81.5085 8.20246C80.1825 6.99093 78.7785 6.30945 77.2185 6.30945C75.5806 6.38517 74.0986 6.99093 72.8506 8.27818Z" fill="#BADFD6"/>
<path d="M125.344 6.15796V6.99088C124.564 7.21804 123.862 7.82381 123.16 8.65673C122.458 9.48965 121.834 10.7012 121.21 12.1399L111.772 36.9004C111.46 36.9004 110.914 36.8247 110.212 36.8247C109.51 36.8247 109.042 36.8247 108.73 36.9004L97.2642 9.86825C96.8742 8.88389 96.4062 8.20241 95.9382 7.74809C95.4702 7.29376 94.9242 7.0666 94.4562 7.0666V6.15796C96.2502 6.23368 98.5122 6.3094 101.242 6.3094C104.284 6.3094 106.546 6.23368 108.028 6.15796V6.99088C106.858 7.0666 106.078 7.14232 105.61 7.36948C105.142 7.59664 104.908 7.97525 104.908 8.58101C104.908 9.03533 105.064 9.71681 105.454 10.6255L113.332 30.0856L118.87 15.6987C119.728 13.5028 120.118 11.6855 120.118 10.3983C120.118 9.26249 119.806 8.42957 119.182 7.89953C118.558 7.36948 117.622 7.0666 116.374 7.0666V6.15796C118.402 6.23368 120.274 6.3094 121.99 6.3094C123.316 6.3094 124.408 6.3094 125.344 6.15796Z" fill="#BADFD6"/>
<path d="M152.097 36.9004C150.069 36.8247 146.637 36.749 141.879 36.749C135.405 36.749 130.491 36.8247 127.294 36.9004V36.0675C128.307 35.9918 129.009 35.916 129.477 35.6889C129.945 35.5374 130.257 35.1588 130.413 34.7045C130.569 34.2502 130.647 33.4173 130.647 32.2815V10.7769C130.647 9.64109 130.569 8.88389 130.413 8.35385C130.257 7.89953 129.945 7.52092 129.477 7.36948C129.009 7.21804 128.307 7.0666 127.294 6.99088V6.15796C130.491 6.23368 135.405 6.3094 141.879 6.3094C146.247 6.3094 149.367 6.23368 151.239 6.15796C151.005 8.58101 150.927 10.7012 150.927 12.5942C150.927 13.8814 151.005 14.8658 151.083 15.5473H150.069C149.601 12.4427 148.821 10.2469 147.651 9.03533C146.481 7.82381 144.843 7.14232 142.737 7.14232H140.865C139.929 7.14232 139.305 7.21804 138.837 7.36948C138.447 7.52092 138.135 7.82381 137.979 8.20241C137.823 8.65673 137.745 9.26249 137.745 10.2469V20.9991H139.149C140.709 20.9991 141.957 20.4691 142.737 19.3333C143.595 18.1975 144.141 16.8345 144.453 15.3201H145.467C145.389 16.5316 145.311 17.8946 145.311 19.409V21.5292C145.311 22.9679 145.389 25.088 145.545 27.6625H144.531C143.907 23.8765 142.113 21.9078 139.071 21.9078H137.667V32.8115C137.667 33.7201 137.745 34.4016 137.901 34.856C138.057 35.3103 138.369 35.5374 138.759 35.6889C139.149 35.8403 139.851 35.916 140.787 35.916H142.971C145.077 35.916 146.793 35.2346 148.119 33.7959C149.445 32.3572 150.303 30.0099 150.849 26.6782H151.863C151.785 27.6625 151.707 28.8741 151.707 30.3127C151.785 32.9629 151.863 35.1588 152.097 36.9004Z" fill="#BADFD6"/>
<path d="M186.026 7.0666C185.012 7.21804 184.311 7.4452 183.843 7.82381C183.375 8.20241 183.063 8.73245 182.907 9.48965C182.751 10.2469 182.673 11.3827 182.673 12.8213V37.0518L181.581 36.9761L180.411 37.0518L160.989 13.1999V29.8584C160.989 31.6 161.067 32.8115 161.223 33.6444C161.379 34.4774 161.769 35.0074 162.393 35.386C163.017 35.7646 163.953 35.9918 165.279 36.1432V36.9761C164.109 36.9004 162.471 36.8247 160.443 36.8247C158.805 36.8247 157.479 36.9004 156.543 36.9761V36.1432C157.557 35.9918 158.259 35.7646 158.727 35.386C159.195 35.0074 159.507 34.4774 159.663 33.7202C159.819 32.9629 159.897 31.8271 159.897 30.3885V10.7769C159.897 9.64109 159.819 8.88389 159.663 8.35385C159.507 7.89953 159.195 7.52092 158.727 7.36948C158.259 7.21804 157.557 7.0666 156.543 6.99088V6.15796C157.479 6.23368 158.805 6.3094 160.443 6.3094C161.925 6.3094 163.251 6.23368 164.265 6.15796L181.581 26.8296V13.2757C181.581 11.5341 181.503 10.3226 181.347 9.48965C181.191 8.65673 180.801 8.12669 180.177 7.74809C179.553 7.36948 178.617 7.14232 177.291 6.99088V6.15796C178.461 6.23368 180.099 6.3094 182.127 6.3094C183.765 6.3094 185.09 6.23368 186.026 6.15796V7.0666Z" fill="#BADFD6"/>
<path d="M210.206 6.30945C211.454 6.83949 212.702 7.52097 213.872 8.42962C214.184 8.65678 214.496 8.80822 214.73 8.80822C215.354 8.80822 215.744 7.9753 215.9 6.23373H216.914C216.758 8.20246 216.758 11.6856 216.758 16.7589H215.744C215.51 14.6387 215.12 12.9728 214.652 11.837C214.184 10.7012 213.482 9.71686 212.39 8.88394C211.61 8.20246 210.752 7.67242 209.816 7.29381C208.802 6.91521 207.788 6.76377 206.696 6.76377C203.654 6.76377 201.47 8.20246 199.988 11.0041C198.506 13.8815 197.804 17.4403 197.804 21.6807C197.804 25.921 198.584 29.4041 200.066 32.2815C201.548 35.0832 203.888 36.5219 206.852 36.5219C207.866 36.5219 208.88 36.3704 209.894 35.9918C210.908 35.6132 211.766 35.0832 212.39 34.4017C213.482 33.5688 214.262 32.5844 214.73 31.3729C215.198 30.1613 215.51 28.3441 215.744 25.9967H216.758C216.758 31.2214 216.836 34.856 216.914 36.9005H215.9C215.822 35.9918 215.666 35.3103 215.51 34.9317C215.354 34.5531 215.12 34.326 214.808 34.326C214.574 34.326 214.262 34.4774 213.872 34.7046C212.546 35.6132 211.22 36.3704 210.05 36.8247C208.802 37.2791 207.32 37.5062 205.604 37.5062C202.406 37.5062 199.676 36.9005 197.336 35.6132C194.996 34.4017 193.124 32.5844 191.798 30.2371C190.472 27.8897 189.848 25.0881 189.848 21.8321C189.848 18.6519 190.55 15.8502 191.876 13.3514C193.202 10.8527 195.074 8.95966 197.492 7.59669C199.91 6.23373 202.64 5.55225 205.682 5.55225C207.398 5.55225 208.958 5.85513 210.206 6.30945Z" fill="#BADFD6"/>
<path d="M252.403 7.36948C251.935 7.52092 251.623 7.89953 251.467 8.35385C251.311 8.88389 251.233 9.64109 251.233 10.7769V32.2815C251.233 33.4173 251.311 34.1745 251.467 34.7045C251.623 35.2346 251.935 35.5374 252.403 35.6889C252.871 35.8403 253.573 35.9918 254.587 36.0675V36.9004C253.105 36.8247 250.843 36.749 247.801 36.749C244.759 36.749 242.419 36.8247 240.781 36.9004V36.0675C241.795 35.9918 242.497 35.916 242.965 35.6889C243.433 35.5374 243.745 35.1588 243.901 34.7045C244.057 34.2502 244.135 33.4173 244.135 32.2815V21.9078H232.28V32.3572C232.28 33.493 232.358 34.2502 232.514 34.7802C232.67 35.3103 232.982 35.6132 233.45 35.7646C233.918 35.916 234.62 36.0675 235.634 36.1432V36.9761C233.996 36.9004 231.812 36.8247 228.848 36.8247C225.65 36.8247 223.31 36.9004 221.75 36.9761V36.1432C222.764 36.0675 223.466 35.9918 223.934 35.7646C224.402 35.6132 224.714 35.2346 224.87 34.7802C225.026 34.3259 225.104 33.493 225.104 32.3572V10.7769C225.104 9.64109 225.026 8.88389 224.87 8.35385C224.714 7.89953 224.402 7.52092 223.934 7.36948C223.466 7.21804 222.764 7.0666 221.75 6.99088V6.15796C223.232 6.23368 225.65 6.3094 228.848 6.3094C231.734 6.3094 233.996 6.23368 235.634 6.15796V6.99088C234.62 7.0666 233.918 7.14232 233.45 7.36948C232.982 7.52092 232.67 7.89953 232.514 8.35385C232.358 8.88389 232.28 9.64109 232.28 10.7769V20.9991H244.135V10.7769C244.135 9.64109 244.057 8.88389 243.901 8.35385C243.745 7.89953 243.433 7.52092 242.965 7.36948C242.497 7.21804 241.795 7.0666 240.781 6.99088V6.15796C242.419 6.23368 244.759 6.3094 247.801 6.3094C250.843 6.3094 253.105 6.23368 254.587 6.15796V6.99088C253.573 7.14232 252.871 7.21804 252.403 7.36948Z" fill="#BADFD6"/>
<path d="M283.291 36.9004C281.263 36.8247 277.831 36.749 273.073 36.749C266.599 36.749 261.685 36.8247 258.487 36.9004V36.0675C259.501 35.9918 260.203 35.916 260.671 35.6889C261.139 35.5374 261.451 35.1588 261.607 34.7045C261.763 34.2502 261.841 33.4173 261.841 32.2815V10.7769C261.841 9.64109 261.763 8.88389 261.607 8.35385C261.451 7.89953 261.139 7.52092 260.671 7.36948C260.203 7.21804 259.501 7.0666 258.487 6.99088V6.15796C261.685 6.23368 266.599 6.3094 273.073 6.3094C277.441 6.3094 280.561 6.23368 282.433 6.15796C282.199 8.58101 282.121 10.7012 282.121 12.5942C282.121 13.8814 282.199 14.8658 282.277 15.5473H281.263C280.795 12.4427 280.015 10.2469 278.845 9.03533C277.675 7.82381 276.037 7.14232 273.931 7.14232H272.059C271.123 7.14232 270.499 7.21804 270.031 7.36948C269.641 7.52092 269.329 7.82381 269.173 8.20241C269.017 8.65673 268.939 9.26249 268.939 10.2469V20.9991H270.343C271.903 20.9991 273.151 20.4691 273.931 19.3333C274.711 18.1975 275.335 16.8345 275.647 15.3201H276.661C276.583 16.5316 276.505 17.8946 276.505 19.409V21.5292C276.505 22.9679 276.583 25.088 276.739 27.6625H275.725C275.101 23.8765 273.307 21.9078 270.265 21.9078H268.861V32.8115C268.861 33.7201 268.939 34.4016 269.095 34.856C269.251 35.3103 269.563 35.5374 269.953 35.6889C270.343 35.8403 271.045 35.916 271.981 35.916H274.165C276.271 35.916 277.987 35.2346 279.313 33.7959C280.639 32.3572 281.497 30.0099 282.043 26.6782H283.057C282.979 27.6625 282.901 28.8741 282.901 30.3127C282.979 32.9629 283.057 35.1588 283.291 36.9004Z" fill="#BADFD6"/>
<path d="M318 35.0074C317.22 35.916 316.362 36.5218 315.426 36.9761C314.49 37.3547 313.398 37.5819 312.072 37.5819C310.356 37.5819 308.952 37.2033 308.016 36.5218C307.002 35.8403 306.378 34.6288 306.066 32.8872L305.286 28.5712C304.896 26.451 304.428 24.9366 303.882 23.8765C303.336 22.8164 302.4 22.3621 301.152 22.3621H298.266V32.3572C298.266 33.493 298.344 34.2502 298.5 34.7802C298.656 35.3103 298.968 35.6132 299.436 35.7646C299.904 35.916 300.606 36.0675 301.62 36.1432V36.9761C299.982 36.9004 297.798 36.8247 294.834 36.8247C291.636 36.8247 289.296 36.9004 287.737 36.9761V36.1432C288.75 36.0675 289.452 35.9918 289.92 35.7646C290.388 35.6132 290.7 35.2346 290.856 34.7802C291.012 34.3259 291.09 33.493 291.09 32.3572V10.7769C291.09 9.64109 291.012 8.88389 290.856 8.35385C290.7 7.89953 290.388 7.52092 289.92 7.36948C289.452 7.21804 288.75 7.0666 287.737 6.99088V6.15796C289.218 6.23368 291.558 6.3094 294.522 6.3094L299.514 6.23368C300.138 6.23368 300.762 6.15796 301.542 6.15796C305.676 6.15796 308.718 6.83944 310.824 8.12669C312.93 9.41393 313.944 11.3069 313.944 13.73C313.944 15.7744 313.164 17.5917 311.604 19.1819C310.044 20.772 307.47 21.7563 303.882 22.1349C306.534 22.3621 308.562 22.9679 309.888 23.8008C311.214 24.7094 312.072 26.0724 312.462 27.814L313.476 32.2815C313.71 33.4173 314.022 34.2502 314.334 34.7045C314.646 35.1588 315.114 35.386 315.66 35.386C316.05 35.386 316.284 35.2346 316.596 35.1588C316.83 35.0074 317.142 34.7802 317.454 34.4016L318 35.0074ZM299.202 7.36948C298.812 7.59664 298.578 7.89953 298.422 8.42957C298.266 8.95961 298.188 9.71681 298.188 10.7769V21.4535H300.138C302.556 21.4535 304.272 20.8477 305.13 19.5605C306.066 18.2732 306.456 16.5316 306.456 14.26C306.456 11.9127 305.988 10.0954 305.13 8.88389C304.272 7.67236 302.868 7.0666 300.918 7.0666C300.138 7.0666 299.514 7.14232 299.202 7.36948Z" fill="#BADFD6"/>
<path d="M68.4047 23.1192C68.5607 22.362 69.0287 22.1349 69.6527 22.2863C70.2767 22.5135 70.5106 22.8921 70.4327 23.4221L69.7307 27.2081C71.6806 25.6937 73.4746 24.4065 75.2686 23.1949C77.0625 22.0591 78.5445 21.4534 79.6365 21.4534C80.8845 21.4534 81.7424 21.832 82.1324 22.6649C82.6004 23.4978 82.9124 24.255 83.2244 24.9365C83.6144 25.9209 84.1604 26.8295 84.9404 27.8139C85.7204 28.7982 87.1243 29.2526 89.1523 29.2526C91.1023 29.2526 93.6762 28.7225 97.0301 27.7382C100.384 26.7538 104.674 24.9365 110.134 22.2106C110.68 21.9834 111.148 22.2106 111.382 22.7406C111.616 23.3464 111.538 23.8007 110.992 24.1036C105.298 26.8295 100.774 28.7982 97.3421 29.8583C93.9102 30.9184 91.1803 31.4485 89.1523 31.4485C87.8263 31.4485 86.7343 31.297 85.7984 30.9941C84.9404 30.6912 84.2384 30.2369 83.6144 29.6312C83.0684 29.0254 82.6004 28.4196 82.2884 27.8139C81.9764 27.2081 81.7424 26.5266 81.4304 25.9209C80.9625 24.4065 80.3385 23.725 79.5585 23.725C78.4665 23.725 77.2185 24.255 75.6586 25.3908C74.0986 26.5266 71.8366 28.3439 68.7167 30.9184C68.5607 31.1456 68.1707 31.297 67.7027 31.297C67.2347 31.3727 67.0007 31.1456 67.1567 30.6155L68.4047 23.1192Z" fill="#333333"/>
<path d="M120.82 23.1193C120.664 23.6494 120.274 23.8765 119.65 23.8008C119.104 23.7251 118.792 23.4222 118.792 22.7407C118.87 22.2864 118.87 21.8321 118.636 21.302C118.48 20.772 118.012 20.4691 117.31 20.4691C116.53 20.4691 115.75 20.6963 114.892 21.1506C114.034 21.6049 113.176 22.2107 112.474 22.9679C111.694 23.7251 111.07 24.4823 110.524 25.2395C109.978 26.0724 109.744 26.8296 109.744 27.5111C109.744 27.9654 109.9 28.1169 110.29 28.0412C110.68 27.9654 111.148 27.814 111.772 27.4354C112.396 27.0568 113.098 26.6025 113.878 25.9967C114.658 25.3909 115.438 24.7852 116.218 24.028C116.764 23.4979 117.31 23.2708 117.7 23.4222C118.09 23.4979 118.48 23.8008 118.87 24.2551C120.196 25.7695 121.678 26.7539 123.316 27.2839C124.954 27.814 126.436 28.1169 127.762 28.1169C130.18 28.1169 132.832 27.5111 135.639 26.3753C138.447 25.2395 141.099 23.8008 143.517 22.2107C144.297 21.9078 144.765 22.0592 144.999 22.5893C145.233 23.1951 145.077 23.4222 144.609 23.8765C142.113 25.5424 139.305 27.2839 136.263 28.4955C133.144 29.707 130.336 30.3128 127.762 30.3128C125.812 30.3128 124.018 29.9342 122.224 29.2527C120.43 28.5712 118.792 27.5111 117.232 25.9967C114.814 28.5712 112.63 30.0099 110.68 30.3128C108.73 30.6156 107.716 29.707 107.716 27.5868C107.716 26.6025 108.028 25.6181 108.652 24.4823C109.276 23.3465 110.056 22.3621 111.07 21.4535C112.006 20.5448 113.098 19.7876 114.268 19.1819C115.438 18.5761 116.452 18.1975 117.466 18.1975C119.026 18.1975 119.962 18.8033 120.43 19.9391C120.82 21.302 120.976 22.2864 120.82 23.1193Z" fill="#333333"/>
<path d="M190.94 22.9679C191.096 22.4379 191.564 22.2864 192.188 22.5136C192.812 22.7407 193.046 23.1193 192.968 23.6494C192.422 25.7695 192.578 27.4354 193.514 28.7226C194.45 30.0099 195.854 30.6156 197.726 30.6156C199.52 30.6156 201.548 30.3885 203.81 30.0099C205.994 29.5556 208.256 29.0255 210.518 28.2683C212.78 27.5111 215.042 26.6782 217.226 25.6181C219.41 24.6337 221.438 23.4979 223.31 22.3621C223.856 21.9078 224.402 21.9835 224.792 22.5893C225.182 23.1951 225.104 23.7251 224.48 24.2551C222.53 25.5424 220.424 26.6782 218.162 27.7383C215.822 28.7984 213.482 29.707 211.142 30.4642C208.802 31.2214 206.462 31.8272 204.122 32.2058C201.782 32.6601 199.676 32.8115 197.804 32.8115C195.074 32.8115 193.124 31.9029 191.72 30.1613C190.316 28.4955 190.082 26.0724 190.94 22.9679Z" fill="#333333"/>
<path d="M192.578 13.6544C194.06 11.6856 194.762 18.1976 192.578 18.0461C190.94 17.8947 191.018 15.6231 192.578 13.6544Z" fill="#333333"/>
<path d="M258.877 22.5135C258.643 21.9077 257.707 22.5135 256.927 22.8164C254.275 24.1036 251.623 25.3151 248.737 26.451C245.929 27.5868 243.277 28.1925 240.859 28.1925C239.533 28.1925 238.052 27.9654 236.414 27.3596C234.776 26.8296 233.294 25.8452 231.968 24.3308C231.578 23.8765 231.188 23.6493 230.798 23.4979C230.408 23.4221 229.94 23.5736 229.316 24.1036C228.536 24.8608 227.756 25.5423 226.976 26.0723C226.196 26.6781 225.494 27.1324 224.87 27.511C224.246 27.8896 223.7 28.1168 223.388 28.1168C222.998 28.1925 222.842 27.9654 222.842 27.5868C222.842 26.8296 223.076 26.0723 223.622 25.3151C224.168 24.4822 224.792 23.725 225.572 23.0435C226.352 22.2863 227.132 21.6806 227.99 21.2262C228.848 20.7719 229.706 20.5448 230.408 20.5448C231.11 20.5448 231.5 20.8476 231.734 21.3777C231.734 21.4534 231.812 21.6049 231.812 21.6806C231.968 22.1349 232.358 22.8921 232.982 22.7407C233.762 22.5892 233.84 20.9234 233.06 19.4847C232.514 18.7275 231.656 18.3489 230.408 18.3489C229.472 18.3489 228.38 18.6518 227.21 19.3332C226.04 19.939 225.026 20.7719 224.012 21.6049C223.076 22.5135 222.218 23.4979 221.594 24.6337C220.97 25.7695 220.658 26.7538 220.658 27.7382C220.658 29.8584 221.672 30.767 223.622 30.4641C225.572 30.1612 227.756 28.7226 230.174 26.1481C231.734 27.6625 233.372 28.7226 235.166 29.404C236.96 30.0855 238.832 30.4641 240.703 30.4641C243.277 30.4641 246.163 29.8584 249.205 28.6468C252.247 27.4353 254.977 25.7695 257.473 24.0279C258.175 23.5736 259.111 23.0435 258.877 22.5135Z" fill="#333333"/>
<path d="M192.032 23.195C191.876 22.5135 191.408 22.362 190.628 22.8164C186.572 25.1637 183.297 26.7538 180.879 27.6625C178.461 28.5711 175.887 29.0254 173.313 29.0254C171.129 29.0254 169.491 27.9653 168.399 25.8452C167.307 23.725 166.839 20.7719 166.839 17.0616C166.839 12.8213 167.541 7.59658 168.867 1.46323C169.023 0.857468 168.867 0.403146 168.243 0.100265C167.619 -0.126896 167.229 0.0245445 166.995 0.630307C165.045 5.40069 162.939 9.5653 160.677 13.1999C158.415 16.8345 156.153 19.7875 153.813 22.2106C151.473 24.6336 149.289 26.3752 147.183 27.5867C145.077 28.7983 143.127 29.404 141.411 29.404C141.021 29.404 140.865 29.1769 140.865 28.7983C140.865 28.0411 141.255 27.2081 141.957 26.2995C142.347 25.7695 142.893 25.3151 143.439 24.8608H143.361C144.297 24.1036 145.467 23.4978 146.559 22.9678C149.757 21.5291 153.111 20.9234 153.111 20.0904C153.111 19.8633 152.877 19.6361 152.643 19.5604C152.253 19.4089 151.707 19.3332 151.239 19.4089C150.069 19.5604 148.821 19.7875 147.651 20.3176C145.701 21.1505 144.765 21.6048 143.439 22.4378C142.035 23.2707 140.787 24.5579 140.007 25.618C139.227 26.7538 138.759 27.8139 138.759 28.874C138.759 29.7069 138.993 30.3884 139.461 30.9184C139.929 31.4485 140.553 31.7514 141.333 31.7514C144.531 31.7514 148.275 30.0098 152.565 26.4509C156.933 22.8921 161.067 17.2131 165.123 9.48958C164.811 12.2155 164.655 14.79 164.655 17.1373C164.655 21.4534 165.357 24.9365 166.683 27.511C168.009 30.0855 170.193 31.297 173.157 31.297C175.887 31.297 178.539 30.8427 181.113 29.8583C183.687 28.874 187.118 27.2081 191.33 24.7851C191.954 24.4065 192.11 23.8764 192.032 23.195Z" fill="#333333"/>
<path d="M152.643 19.5602C152.955 19.1059 153.423 18.7273 152.409 18.5758C151.395 18.4244 150.615 18.0458 150.537 18.4244C150.459 18.7273 150.459 19.1816 150.459 19.1816L150.537 19.5602C150.771 19.4845 151.005 19.4845 151.317 19.4845C151.707 19.4087 152.253 19.4087 152.643 19.5602Z" fill="white"/>
</svg>
