<svg width="302" height="261" viewBox="0 0 302 261" fill="none" xmlns="http://www.w3.org/2000/svg">
<mask id="mask0" style="mask-type:alpha" maskUnits="userSpaceOnUse" x="30" y="0" width="272" height="259">
<mask id="mask1" style="mask-type:alpha" maskUnits="userSpaceOnUse" x="0" y="0" width="302" height="261">
<rect y="0.165161" width="302" height="260" fill="url(#paint0_linear)"/>
</mask>
<g mask="url(#mask1)">
<path d="M883.073 150.168C885.261 133.389 908.344 45.0131 815.266 22.0171C765.48 9.71706 687.416 75.7469 620.86 78.8969C526.924 83.3439 388.211 7.64197 310.281 0.676971C232.408 -6.28403 128.848 6.962 64.4653 67.957C-25.0467 178.357 88.7737 227.4 129.113 229.081C169.452 230.762 242.893 152.527 310.129 174.381C377.365 196.235 496.476 267.83 620.86 257.746C745.244 247.662 878.03 188.823 883.073 150.168Z" fill="url(#paint1_radial)"/>
</g>
</mask>
<g mask="url(#mask0)">
<rect y="1.16516" width="302" height="260" fill="url(#paint2_linear)"/>
</g>
<path d="M158.889 99.478H103.577C102.851 99.4781 102.131 99.3351 101.46 99.0572C100.789 98.7792 100.18 98.3718 99.6663 97.8581C99.1528 97.3445 98.7456 96.7347 98.4679 96.0636C98.1902 95.3925 98.0475 94.6732 98.0479 93.947V71.822C98.0475 71.0957 98.1902 70.3764 98.4679 69.7053C98.7456 69.0342 99.1528 68.4244 99.6663 67.9108C100.18 67.3971 100.789 66.9897 101.46 66.7117C102.131 66.4338 102.851 66.2908 103.577 66.291H158.889C159.615 66.2906 160.335 66.4334 161.006 66.7112C161.677 66.989 162.287 67.3964 162.801 67.9101C163.314 68.4237 163.722 69.0336 164 69.7049C164.277 70.3761 164.42 71.0955 164.42 71.822V93.947C164.42 94.6734 164.277 95.3928 164 96.064C163.722 96.7353 163.314 97.3452 162.801 97.8588C162.287 98.3725 161.677 98.7799 161.006 99.0577C160.335 99.3356 159.615 99.4783 158.889 99.478V99.478Z" fill="#FFD580"/>
<path d="M195.987 45.786C195.474 45.2721 194.864 44.8645 194.193 44.5864C193.522 44.3083 192.802 44.1652 192.076 44.1652C191.35 44.1652 190.63 44.3083 189.959 44.5864C189.288 44.8645 188.679 45.2721 188.165 45.786L181.013 52.938L173.861 45.786C172.823 44.7521 171.417 44.1722 169.952 44.1737C168.487 44.1751 167.083 44.7578 166.047 45.7937C165.011 46.8296 164.428 48.2342 164.427 49.6992C164.425 51.1643 165.005 52.57 166.039 53.608L177.103 64.67C177.616 65.1838 178.226 65.5914 178.897 65.8695C179.568 66.1476 180.287 66.2907 181.014 66.2907C181.74 66.2907 182.459 66.1476 183.13 65.8695C183.801 65.5914 184.411 65.1838 184.924 64.67L195.986 53.608C196.5 53.0946 196.908 52.4849 197.186 51.8138C197.464 51.1428 197.607 50.4234 197.607 49.697C197.607 48.9705 197.464 48.2512 197.186 47.5801C196.908 46.909 196.5 46.2994 195.986 45.786H195.987Z" fill="#F24973"/>
<path d="M184.925 64.666L195.987 53.608C197.021 52.57 197.601 51.1643 197.599 49.6993C197.598 48.2342 197.015 46.8296 195.979 45.7937C194.943 44.7578 193.539 44.1752 192.074 44.1737C190.609 44.1723 189.203 44.7521 188.165 45.786L181.017 52.938V66.291C181.743 66.291 182.463 66.1474 183.133 65.8685C183.804 65.5897 184.413 65.181 184.925 64.666V64.666Z" fill="#D92C49"/>
<path d="M203.139 99.478H158.889C158.163 99.4781 157.443 99.3351 156.772 99.0572C156.101 98.7792 155.492 98.3718 154.978 97.8581C154.465 97.3445 154.058 96.7347 153.78 96.0636C153.502 95.3925 153.359 94.6733 153.36 93.947V60.759C153.359 60.0327 153.502 59.3134 153.78 58.6423C154.058 57.9712 154.465 57.3614 154.978 56.8478C155.492 56.3341 156.101 55.9267 156.772 55.6488C157.443 55.3708 158.163 55.2278 158.889 55.228H203.139C203.865 55.2276 204.585 55.3704 205.256 55.6482C205.927 55.926 206.537 56.3334 207.051 56.8471C207.564 57.3608 207.972 57.9706 208.25 58.6419C208.527 59.3131 208.67 60.0325 208.67 60.759V93.947C208.67 94.6734 208.527 95.3928 208.25 96.0641C207.972 96.7353 207.564 97.3452 207.051 97.8589C206.537 98.3725 205.927 98.7799 205.256 99.0577C204.585 99.3356 203.865 99.4784 203.139 99.478V99.478Z" fill="#8AE68A"/>
<path d="M203.139 55.228H181.016V99.478H203.141C203.868 99.4784 204.587 99.3356 205.258 99.0578C205.929 98.7799 206.539 98.3725 207.053 97.8589C207.567 97.3452 207.974 96.7353 208.252 96.0641C208.53 95.3928 208.673 94.6734 208.672 93.947V60.759C208.673 60.0323 208.53 59.3128 208.252 58.6414C207.974 57.9701 207.566 57.3601 207.052 56.8464C206.538 56.3327 205.928 55.9253 205.257 55.6476C204.585 55.3699 203.866 55.2273 203.139 55.228V55.228Z" fill="#60BF80"/>
<path d="M75.2061 88.414L66.1661 55.228H47.5281C46.8017 55.228 46.0825 55.0849 45.4114 54.8069C44.7404 54.529 44.1307 54.1216 43.6171 53.608C43.1035 53.0944 42.6961 52.4846 42.4181 51.8136C42.1401 51.1425 41.9971 50.4233 41.9971 49.697C41.9971 48.9706 42.1401 48.2514 42.4181 47.5803C42.6961 46.9093 43.1035 46.2995 43.6171 45.7859C44.1307 45.2723 44.7404 44.8649 45.4114 44.587C46.0825 44.309 46.8017 44.166 47.5281 44.166H70.3901C71.6038 44.1661 72.7839 44.5654 73.7483 45.3023C74.7127 46.0392 75.4081 47.0729 75.7271 48.244L87.7831 92.494L75.2061 88.414Z" fill="#80334D"/>
<path d="M192.077 187.978H103.577C102.158 187.98 100.792 187.435 99.7624 186.458C98.7329 185.481 98.1185 184.145 98.0463 182.727C97.9741 181.31 98.4496 179.918 99.3745 178.842C100.299 177.765 101.603 177.085 103.015 176.942C103.738 176.87 104.44 176.656 105.08 176.313C105.72 175.97 106.286 175.503 106.745 174.941C107.205 174.378 107.549 173.731 107.758 173.035C107.967 172.34 108.037 171.61 107.963 170.887C107.8 169.435 107.076 168.105 105.946 167.18C104.816 166.255 103.368 165.807 101.913 165.934C97.6784 166.362 93.7697 168.4 90.9954 171.628C88.221 174.856 86.7931 179.027 87.0068 183.278C87.2205 187.529 89.0594 191.536 92.1434 194.469C95.2275 197.403 99.3208 199.039 103.577 199.04H192.077C193.544 199.04 194.951 198.457 195.988 197.42C197.026 196.383 197.608 194.976 197.608 193.509C197.608 192.042 197.026 190.635 195.988 189.598C194.951 188.561 193.544 187.978 192.077 187.978V187.978Z" fill="#80334D"/>
<path d="M192.076 187.978H158.891V199.04H192.078C193.545 199.04 194.952 198.457 195.989 197.42C197.026 196.383 197.609 194.976 197.609 193.509C197.609 192.042 197.026 190.635 195.989 189.598C194.952 188.561 193.545 187.978 192.078 187.978H192.076Z" fill="#59243F"/>
<path d="M103.577 176.808C102.364 176.809 101.184 176.411 100.22 175.674C99.2551 174.938 98.5596 173.905 98.2402 172.735L75.1992 88.416H225.264C226.068 88.4149 226.862 88.5892 227.591 88.9265C228.32 89.2639 228.967 89.7562 229.487 90.3692C230.006 90.9822 230.386 91.7012 230.599 92.4759C230.812 93.2506 230.853 94.0625 230.72 94.855L219.658 161.229C219.46 162.43 218.87 163.532 217.982 164.363C217.093 165.195 215.955 165.71 214.743 165.829C88.0582 178.36 104.905 176.808 103.577 176.808Z" fill="#F24973"/>
<path d="M225.264 88.416H158.891V171.362C173.416 169.919 191.677 168.109 214.743 165.827C215.954 165.708 217.093 165.193 217.982 164.361C218.87 163.53 219.46 162.428 219.658 161.227L230.72 94.852C230.853 94.0598 230.811 93.2482 230.597 92.4738C230.384 91.6995 230.005 90.9809 229.485 90.3682C228.966 89.7556 228.319 89.2635 227.59 88.9263C226.861 88.5892 226.067 88.415 225.264 88.416V88.416Z" fill="#D92C49"/>
<path d="M192.077 221.165C188.795 221.165 185.587 220.192 182.858 218.368C180.129 216.545 178.002 213.953 176.746 210.921C175.49 207.889 175.161 204.553 175.802 201.334C176.442 198.115 178.022 195.158 180.343 192.837C182.664 190.517 185.621 188.936 188.84 188.296C192.059 187.655 195.395 187.984 198.427 189.24C201.459 190.496 204.051 192.623 205.874 195.352C207.698 198.081 208.671 201.289 208.671 204.571C208.666 208.97 206.916 213.188 203.805 216.299C200.694 219.41 196.476 221.16 192.077 221.165V221.165Z" fill="#59243F"/>
<path d="M191.896 209.666C194.934 209.666 197.396 207.203 197.396 204.166C197.396 201.128 194.934 198.666 191.896 198.666C188.858 198.666 186.396 201.128 186.396 204.166C186.396 207.203 188.858 209.666 191.896 209.666Z" fill="#D9E5FF"/>
<path d="M114.64 221.165C111.358 221.165 108.15 220.192 105.421 218.368C102.692 216.545 100.565 213.953 99.309 210.921C98.0531 207.889 97.7245 204.553 98.3648 201.334C99.005 198.115 100.585 195.158 102.906 192.837C105.227 190.517 108.184 188.936 111.403 188.296C114.622 187.655 117.958 187.984 120.99 189.24C124.022 190.496 126.614 192.623 128.437 195.352C130.261 198.081 131.234 201.289 131.234 204.571C131.229 208.97 129.479 213.188 126.368 216.299C123.257 219.41 119.039 221.16 114.64 221.165V221.165Z" fill="#80334D"/>
<path d="M114.897 209.666C117.935 209.666 120.397 207.203 120.397 204.166C120.397 201.128 117.935 198.666 114.897 198.666C111.859 198.666 109.397 201.128 109.397 204.166C109.397 207.203 111.859 209.666 114.897 209.666Z" fill="#ECF2FF"/>
<path d="M192.077 143.728C191.351 143.728 190.631 143.585 189.96 143.307C189.289 143.029 188.68 142.622 188.166 142.108C187.653 141.594 187.246 140.985 186.968 140.314C186.69 139.642 186.547 138.923 186.548 138.197V116.072C186.548 114.605 187.131 113.198 188.168 112.161C189.205 111.124 190.612 110.541 192.079 110.541C193.546 110.541 194.953 111.124 195.99 112.161C197.027 113.198 197.61 114.605 197.61 116.072V138.197C197.61 138.924 197.467 139.643 197.189 140.314C196.912 140.986 196.504 141.596 195.99 142.11C195.476 142.623 194.866 143.031 194.195 143.308C193.523 143.586 192.803 143.729 192.077 143.728V143.728Z" fill="#D9E5FF"/>
<path d="M125.702 143.728C124.976 143.728 124.256 143.585 123.585 143.307C122.914 143.029 122.305 142.622 121.791 142.108C121.278 141.594 120.871 140.985 120.593 140.314C120.315 139.642 120.172 138.923 120.173 138.197V116.072C120.173 114.605 120.756 113.198 121.793 112.161C122.83 111.124 124.237 110.541 125.704 110.541C127.171 110.541 128.578 111.124 129.615 112.161C130.652 113.198 131.235 114.605 131.235 116.072V138.197C131.235 138.924 131.092 139.643 130.814 140.314C130.536 140.986 130.129 141.596 129.615 142.11C129.101 142.623 128.491 143.031 127.82 143.308C127.148 143.586 126.428 143.729 125.702 143.728V143.728Z" fill="#ECF2FF"/>
<path d="M158.889 143.728C158.163 143.728 157.443 143.585 156.772 143.307C156.101 143.029 155.492 142.622 154.978 142.108C154.465 141.594 154.058 140.985 153.78 140.314C153.502 139.642 153.359 138.923 153.36 138.197V116.072C153.36 114.605 153.943 113.198 154.98 112.161C156.017 111.124 157.424 110.541 158.891 110.541C160.358 110.541 161.765 111.124 162.802 112.161C163.839 113.198 164.422 114.605 164.422 116.072V138.197C164.422 138.924 164.279 139.643 164.001 140.314C163.724 140.986 163.316 141.596 162.802 142.11C162.288 142.623 161.678 143.031 161.007 143.308C160.335 143.586 159.615 143.729 158.889 143.728V143.728Z" fill="#ECF2FF"/>
<path d="M164.42 138.197V116.072C164.42 115.346 164.278 114.626 164 113.955C163.722 113.284 163.315 112.674 162.802 112.161C162.288 111.647 161.679 111.24 161.008 110.962C160.337 110.684 159.617 110.541 158.891 110.541V143.728C159.617 143.728 160.337 143.585 161.008 143.307C161.679 143.029 162.288 142.622 162.802 142.108C163.315 141.594 163.722 140.985 164 140.314C164.278 139.642 164.42 138.923 164.42 138.197V138.197Z" fill="#D9E5FF"/>
<defs>
<linearGradient id="paint0_linear" x1="1.12504e-06" y1="130.165" x2="302" y2="130.165" gradientUnits="userSpaceOnUse">
<stop stop-color="#9F3373"/>
<stop offset="1" stop-color="#753A88"/>
</linearGradient>
<radialGradient id="paint1_radial" cx="0" cy="0" r="1" gradientUnits="userSpaceOnUse" gradientTransform="translate(448.099 168.022) rotate(180) scale(428.096 129.857)">
<stop stop-color="#1C1C1C"/>
<stop offset="1" stop-color="#30383B"/>
</radialGradient>
<linearGradient id="paint2_linear" x1="1.12504e-06" y1="131.165" x2="302" y2="131.165" gradientUnits="userSpaceOnUse">
<stop stop-color="#9F3373"/>
<stop offset="1" stop-color="#753A88"/>
</linearGradient>
</defs>
</svg>
