<svg xmlns="http://www.w3.org/2000/svg" width="136.739" height="156.611" viewBox="0 0 136.739 156.611">
  <g id="gift-box" transform="translate(-32.482 0)">
    <path id="Path_287" data-name="Path 287" d="M151.7,246.688l-14.866-5.414a4.292,4.292,0,0,0-1.56-.275H40.023a4.543,4.543,0,0,0-4.588,4.588v64.541A13.746,13.746,0,0,0,49.2,323.893h91.764a13.746,13.746,0,0,0,13.765-13.765V251A4.552,4.552,0,0,0,151.7,246.688Z" transform="translate(-2.05 -167.282)" fill="#fc1a40"/>
    <path id="Path_288" data-name="Path 288" d="M290.082,251v59.127a13.746,13.746,0,0,1-13.765,13.765H230.435V241h40.193a4.29,4.29,0,0,1,1.56.275l14.866,5.414A4.552,4.552,0,0,1,290.082,251Z" transform="translate(-137.403 -167.282)" fill="#c60034"/>
    <path id="Path_289" data-name="Path 289" d="M238.069,29.912A18.575,18.575,0,0,0,225.5,16.606a18.282,18.282,0,0,0-17.8,3.854L197.05,29.82l-2.11-14.04A18.589,18.589,0,0,0,183.653,1.373a17.423,17.423,0,0,0-3.579-1.01,18.249,18.249,0,0,0-14.5,3.212,18.527,18.527,0,0,0,4.588,32.484l9.911,3.579,12.2,4.5h.092l21.2,7.8a19.689,19.689,0,0,0,6.423,1.1,18.7,18.7,0,0,0,18.078-23.125Z" transform="translate(-87.041)" fill="#fe9923"/>
    <path id="Path_290" data-name="Path 290" d="M282.741,49.088a18.556,18.556,0,0,1-12.389,4.772,19.691,19.691,0,0,1-6.423-1.1l-21.2-7.8h-.092l-12.2-4.5V1.187a17.442,17.442,0,0,1,3.579,1.01A18.589,18.589,0,0,1,245.3,16.6l2.11,14.04,10.645-9.36a18.282,18.282,0,0,1,17.8-3.854,18.594,18.594,0,0,1,6.883,31.659Z" transform="translate(-137.403 -0.824)" fill="#fe8821"/>
    <path id="Path_291" data-name="Path 291" d="M168.371,106.6l-6.24,17.252a4.647,4.647,0,0,1-4.313,2.936,4.29,4.29,0,0,1-1.56-.275l-47.443-17.252L104.5,95.04,93.032,97.609,82.939,99.9,35.5,82.651a4.67,4.67,0,0,1-2.753-5.873l6.332-17.251a13.679,13.679,0,0,1,17.619-8.259L93.033,64.482l2.478.917s9.91,17.986,10.186,17.986c.184,0,4.129-2.2,7.984-4.313s7.708-4.313,7.708-4.313l38.724,14.131a13.91,13.91,0,0,1,7.8,7.158A13.582,13.582,0,0,1,168.371,106.6Z" transform="translate(0 -34.996)" fill="#ff3e75"/>
    <path id="Path_292" data-name="Path 292" d="M305.774,138.519l-6.24,17.252a4.647,4.647,0,0,1-4.313,2.936,4.29,4.29,0,0,1-1.56-.275L246.218,141.18l-4.313-14.223-11.471,2.569V96.4l2.478.917S242.823,115.3,243.1,115.3c.184,0,4.129-2.2,7.984-4.313s7.708-4.313,7.708-4.313l38.724,14.131a13.91,13.91,0,0,1,7.8,7.158A13.582,13.582,0,0,1,305.774,138.519Z" transform="translate(-137.403 -66.912)" fill="#fc1a40"/>
    <g id="Group_424" data-name="Group 424" transform="translate(79.268 30.404)">
      <path id="Path_293" data-name="Path 293" d="M185.435,241v82.894h27.529V241Z" transform="translate(-185.435 -197.686)" fill="#fcbf29"/>
      <path id="Path_294" data-name="Path 294" d="M210.007,99.4l-2.478,6.791L197.435,133.9l10.094,3.671L219,141.7l4.313,1.56,12.572-34.5Z" transform="translate(-193.764 -99.398)" fill="#fcbf29"/>
    </g>
    <g id="Group_425" data-name="Group 425" transform="translate(93.032 30.404)">
      <rect id="Rectangle_135" data-name="Rectangle 135" width="13.765" height="82.894" transform="translate(0.001 43.313)" fill="#fe9923"/>
      <path id="Path_295" data-name="Path 295" d="M258.79,108.758l-12.572,34.5-4.313-1.56-11.471-4.129V106.189l2.478-6.791Z" transform="translate(-230.435 -99.398)" fill="#fe9923"/>
    </g>
  </g>
</svg>
