<svg xmlns="http://www.w3.org/2000/svg" xmlns:xlink="http://www.w3.org/1999/xlink" width="70.529" height="70.518" viewBox="0 0 70.529 70.518">
  <defs>
    <filter id="Icon_awesome-instagram" x="0" y="0" width="70.529" height="70.518" filterUnits="userSpaceOnUse">
      <feOffset dy="3" input="SourceAlpha"/>
      <feGaussianBlur stdDeviation="3" result="blur"/>
      <feFlood flood-color="#544a4a" flood-opacity="0.302"/>
      <feComposite operator="in" in2="blur"/>
      <feComposite in="SourceGraphic"/>
    </filter>
  </defs>
  <g transform="matrix(1, 0, 0, 1, 0, 0)" filter="url(#Icon_awesome-instagram)">
    <path id="Icon_awesome-instagram-2" data-name="Icon awesome-instagram" d="M26.262,16.523A13.465,13.465,0,1,0,39.727,29.988,13.444,13.444,0,0,0,26.262,16.523Zm0,22.219a8.754,8.754,0,1,1,8.754-8.754A8.77,8.77,0,0,1,26.262,38.742Zm17.156-22.77a3.141,3.141,0,1,1-3.141-3.141A3.133,3.133,0,0,1,43.418,15.973Zm8.918,3.188c-.2-4.207-1.16-7.934-4.242-11s-6.8-4.031-11-4.242c-4.336-.246-17.332-.246-21.668,0-4.2.2-7.922,1.16-11,4.23s-4.031,6.8-4.242,11C-.07,23.484-.07,36.48.176,40.816c.2,4.207,1.16,7.934,4.242,11s6.8,4.031,11,4.242c4.336.246,17.332.246,21.668,0,4.207-.2,7.934-1.16,11-4.242s4.031-6.8,4.242-11C52.582,36.48,52.582,23.5,52.336,19.16Zm-5.6,26.309a8.863,8.863,0,0,1-4.992,4.992c-3.457,1.371-11.66,1.055-15.48,1.055s-12.035.3-15.48-1.055a8.863,8.863,0,0,1-4.992-4.992c-1.371-3.457-1.055-11.66-1.055-15.48s-.3-12.035,1.055-15.48a8.863,8.863,0,0,1,4.992-4.992c3.457-1.371,11.66-1.055,15.48-1.055s12.035-.3,15.48,1.055a8.863,8.863,0,0,1,4.992,4.992c1.371,3.457,1.055,11.66,1.055,15.48S48.105,42.023,46.734,45.469Z" transform="translate(9.01 2.27)" fill="#343434"/>
  </g>
</svg>
