<svg xmlns="http://www.w3.org/2000/svg" xmlns:xlink="http://www.w3.org/1999/xlink" width="78" height="66.731" viewBox="0 0 78 66.731">
  <defs>
    <filter id="Icon_awesome-twitter" x="0" y="0" width="78" height="66.731" filterUnits="userSpaceOnUse">
      <feOffset dy="3" input="SourceAlpha"/>
      <feGaussianBlur stdDeviation="3" result="blur"/>
      <feFlood flood-color="#544a4a" flood-opacity="0.302"/>
      <feComposite operator="in" in2="blur"/>
      <feComposite in="SourceGraphic"/>
    </filter>
  </defs>
  <g transform="matrix(1, 0, 0, 1, 0, 0)" filter="url(#Icon_awesome-twitter)">
    <path id="Icon_awesome-twitter-2" data-name="Icon awesome-twitter" d="M53.832,17.779c.038.533.038,1.066.038,1.6,0,16.256-12.373,34.987-34.987,34.987A34.75,34.75,0,0,1,0,48.845,25.439,25.439,0,0,0,2.97,49a24.627,24.627,0,0,0,15.266-5.254,12.319,12.319,0,0,1-11.5-8.528,15.508,15.508,0,0,0,2.322.19,13.006,13.006,0,0,0,3.236-.419A12.3,12.3,0,0,1,2.436,22.919v-.152a12.384,12.384,0,0,0,5.558,1.561A12.315,12.315,0,0,1,4.188,7.881,34.954,34.954,0,0,0,29.543,20.749a13.882,13.882,0,0,1-.3-2.817A12.309,12.309,0,0,1,50.52,9.518a24.21,24.21,0,0,0,7.8-2.97,12.264,12.264,0,0,1-5.406,6.777A24.652,24.652,0,0,0,60,11.421a26.434,26.434,0,0,1-6.167,6.358Z" transform="translate(9 0.37)" fill="#343434"/>
  </g>
</svg>
