<svg xmlns="http://www.w3.org/2000/svg" viewBox="0 0 558.5 536.5">
  <g data-name="Group 104">
    <path d="M69.3 0h49.1l71 243.5h-32.8l-8.6-28a16.3 16.3 0 0 0-16.1-12h-76a16.6 16.6 0 0 0-16.4 12l-8.1 28H0ZM67 177h53.3c14.8 0 13.5-12.6 12.6-16.2L97.5 33c-.7-2.5-2-4.5-4.3-4.5-2.5 0-3.7 2-4.2 4.5L54.6 160.8c-1 3.8-2.3 16.2 12.5 16.2Z" data-name="Path 140"/>
    <path d="M212 0h75.7c56 0 92.5 30.6 92.5 85.9 0 51-36.4 83.5-92.5 83.5h-30.1c-8.6 0-14.8 6.3-14.8 15v59H212Zm44.6 143.2H283c40.5 0 66.3-22.1 66.3-58 0-36.9-25.8-59-66.3-59h-26.4c-8.5 0-13.8 4.9-13.8 12.2V131c0 7.3 5.3 12.2 13.8 12.2Z" data-name="Path 141"/>
    <path d="M405.2 0h153.3v26.2h-109c-8 0-13.4 4.7-13.4 12v22.3c0 7.4 5.4 12.4 13.5 12.4h109v26.3H450.7c-8.8 0-14.7 5.8-14.7 14.7v88.7c0 8.8 5.9 14.6 14.7 14.6h107.7v26.3H405.2Z" data-name="Path 142"/>
    <path d="M122.6 426v26.5H.3V426Z" data-name="Path 143"/>
    <path d="M147.2 450.7v-80.3c0-51 36.3-85.3 90.6-85.3 54.2 0 90.4 34.3 90.4 85.3v80.3c0 51.4-36.2 85.8-90.4 85.8-54.3 0-90.6-34.4-90.6-85.8Zm90.6 58.4c35.6 0 59.7-24.2 59.7-60.4v-76c0-36-24.1-60.2-59.7-60.2-35.7 0-59.6 24.2-59.6 60.3v75.9c0 36.2 24 60.4 59.6 60.4Z" data-name="Path 144"/>
    <path d="M361.2 289h31v202.7c0 9.1 5.4 14.6 14.5 14.6h106v26.2H361.2Z" data-name="Path 145"/>
  </g>
</svg>
