<svg xmlns="http://www.w3.org/2000/svg" width="1344.21" height="310.092" viewBox="0 0 1344.21 310.092">
  <g id="Group_83" data-name="Group 83" transform="translate(-287.895 -1692.893)">
    <path id="Path_87" data-name="Path 87" d="M373.3,1697.809h60.625l87.457,300.26H481.037l-10.65-34.409c-.819-3.072-5.325-14.951-19.867-14.951h-93.6c-14.951,0-19.252,11.879-20.276,14.951l-10.036,34.409H287.895Zm-2.663,218.334h65.746c18.229,0,16.591-15.566,15.567-20.072l-43.831-157.5c-.82-3.072-2.458-5.53-5.326-5.53-3.072,0-4.506,2.458-5.12,5.53l-42.4,157.5C354.051,1900.782,352.412,1916.143,370.641,1916.143Z"/>
    <path id="Path_88" data-name="Path 88" d="M549.241,1697.809h93.4c69.228,0,114.083,37.686,114.083,105.89,0,62.878-44.855,103.022-114.083,103.022H605.566c-10.651,0-18.229,7.783-18.229,18.434v72.914h-38.1Zm55.1,176.551H636.9c49.975,0,81.721-27.24,81.721-71.481,0-45.469-31.746-72.709-81.721-72.709H604.337c-10.446,0-17,5.939-17,14.951v114.288C587.337,1868.421,593.891,1874.36,604.337,1874.36Z"/>
    <path id="Path_89" data-name="Path 89" d="M787.647,1697.809H976.693v32.361H842.333c-10.036,0-16.59,5.735-16.59,14.746v27.446c0,9.217,6.554,15.361,16.59,15.361h134.36v32.361H843.767c-10.855,0-18.024,7.169-18.024,18.229v109.372c0,10.855,7.169,18.023,18.024,18.023H976.693v32.361H787.647Z"/>
    <path id="Path_90" data-name="Path 90" d="M1150.991,1866.782v32.566H1000.247v-32.566Z"/>
    <path id="Path_91" data-name="Path 91" d="M1181.3,1897.095v-98.926c0-62.879,44.855-105.276,111.83-105.276,66.77,0,111.42,42.4,111.42,105.276v98.926c0,63.493-44.65,105.89-111.42,105.89C1226.159,2002.985,1181.3,1960.588,1181.3,1897.095Zm111.83,72.095c43.83,0,73.529-29.9,73.529-74.553v-93.6c0-44.445-29.7-74.348-73.529-74.348-44.036,0-73.529,29.9-73.529,74.348v93.6C1219.6,1939.287,1249.1,1969.19,1293.134,1969.19Z"/>
    <path id="Path_92" data-name="Path 92" d="M1445.312,1697.809h38.1v249.876c0,11.264,6.759,18.023,18.024,18.023H1632.1v32.361H1445.312Z"/>
  </g>
</svg>
