<svg xmlns="http://www.w3.org/2000/svg" viewBox="0 0 1344.2 310.1">
  <g data-name="Group 83">
    <path d="M85.4 5H146l87.5 300.2H193l-10.6-34.4a20 20 0 0 0-19.9-15H69c-15 0-19.2 11.9-20.3 15l-10 34.4H0Zm-2.7 218.2h65.8c18.2 0 16.6-15.5 15.6-20L120.2 45.7c-.8-3-2.4-5.6-5.3-5.6-3 0-4.5 2.5-5.1 5.6L67.4 203.2c-1.2 4.7-2.9 20 15.3 20Z" data-name="Path 87"/>
    <path d="M261.3 5h93.4C424 5 468.8 42.5 468.8 110.7c0 62.9-44.8 103-114 103h-37.1a17.7 17.7 0 0 0-18.3 18.5v72.9h-38Zm55.1 176.5H349c50 0 81.7-27.3 81.7-71.5 0-45.5-31.7-72.7-81.7-72.7h-32.6c-10.4 0-17 6-17 15v114.2c0 9 6.6 15 17 15Z" data-name="Path 88"/>
    <path d="M499.8 5h189v32.3H554.4c-10 0-16.6 5.7-16.6 14.7v27.5c0 9.2 6.6 15.3 16.6 15.3h134.4v32.4h-133c-10.8 0-18 7.2-18 18.2v109.4c0 10.8 7.2 18 18 18h133v32.4h-189Z" data-name="Path 89"/>
    <path d="M863.1 173.9v32.6H712.4v-32.6Z" data-name="Path 90"/>
    <path d="M893.4 204.2v-99C893.4 42.5 938.3 0 1005.2 0c66.8 0 111.5 42.4 111.5 105.3v98.9c0 63.5-44.7 105.9-111.5 105.9-67 0-111.8-42.4-111.8-105.9Zm111.8 72.1c43.9 0 73.6-29.9 73.6-74.6v-93.6c0-44.4-29.7-74.3-73.6-74.3-44 0-73.5 29.9-73.5 74.3v93.6c0 44.7 29.5 74.6 73.5 74.6Z" data-name="Path 91"/>
    <path d="M1157.4 5h38.1v249.8c0 11.3 6.8 18 18 18h130.7v32.4h-186.8Z" data-name="Path 92"/>
  </g>
</svg>
