<svg xmlns="http://www.w3.org/2000/svg" width="1063.73" height="290.488" viewBox="0 0 1063.73 290.488">
  <g id="Group_69" data-name="Group 69" transform="translate(-197.044 -3617.896)">
    <path id="Path_65" data-name="Path 65" d="M198.044,3623.469H233.1l103.467,60.022c11.623,6.86,20.007,1.334,20.007-12v-48.018h35.633v279.342H356.579V3746.562c0-9.146-3.62-15.243-11.623-20.007l-91.463-53.163c-11.623-6.669-20.007-1.334-20.007,12v217.414H198.044Z" fill="none" stroke="#fff" stroke-miterlimit="10" stroke-width="2"/>
    <path id="Path_66" data-name="Path 66" d="M436.99,3623.469H612.866v30.106h-125c-9.336,0-15.434,5.336-15.434,13.72v25.533c0,8.575,6.1,14.291,15.434,14.291h125v30.107H489.2c-10.1,0-16.768,6.669-16.768,16.958v148.627H436.99Z" fill="none" stroke="#fff" stroke-miterlimit="10" stroke-width="2"/>
    <path id="Path_67" data-name="Path 67" d="M682.987,3653.575H622.965v-30.106H815.417v30.106H753.871c-9.718,0-17.15,7.051-17.15,17.15v232.086H701.47V3671.868C701.47,3661.2,693.848,3653.575,682.987,3653.575Z" fill="none" stroke="#fff" stroke-miterlimit="10" stroke-width="2"/>
    <path id="Path_68" data-name="Path 68" d="M890.684,3808.871v-92.034c0-58.5,41.729-97.941,104.038-97.941,62.119,0,103.658,39.443,103.658,99.275v21.722h-35.251v-21.722c0-40.015-27.629-67.835-68.407-67.835-40.967,0-68.406,27.82-68.406,69.169v87.08c0,41.539,27.439,69.359,68.406,69.359,40.778,0,68.407-27.82,68.407-68.216v-21.341h35.251v21.341c0,60.213-41.539,99.656-103.658,99.656C932.413,3907.384,890.684,3867.941,890.684,3808.871Zm232.848-127.1c0-36.966,27.439-61.928,68.407-61.928,40.587,0,67.835,24.962,67.835,61.928v52.591c0,36.967-27.248,61.928-67.835,61.928-40.968,0-68.407-24.961-68.407-61.928Zm68.407,86.7c21.913,0,36.394-14.672,36.394-36.2v-48.018c0-21.722-14.481-36.2-36.394-36.2-22.1,0-36.966,14.292-36.966,36.2v48.018C1154.973,3754.184,1169.835,3768.475,1191.939,3768.475Zm0,92.035c12.576,0,23.247,10.289,23.247,22.865a23.438,23.438,0,1,1-46.875,0C1168.311,3870.8,1178.982,3860.51,1191.939,3860.51Z" fill="none" stroke="#fff" stroke-miterlimit="10" stroke-width="2"/>
  </g>
</svg>
