<svg xmlns="http://www.w3.org/2000/svg" viewBox="0 0 1252.9 290.5">
  <g fill="none" stroke="#fff" stroke-miterlimit="10" stroke-width="2" data-name="Group 70">
    <path d="M80.8 5.6h56.4l81.3 279.3H181l-9.9-32c-.8-2.9-5-14-18.5-14h-87c-14 0-18 11.1-19 14l-9.3 32h-36Zm-2.5 203.1h61.2c17 0 15.4-14.5 14.5-18.7L113.2 43.5c-.8-2.9-2.3-5.2-5-5.2-2.8 0-4.2 2.3-4.7 5.2L64 190c-1.1 4.4-2.7 18.7 14.3 18.7Z" data-name="Path 69"/>
    <path d="M244.5 5.6h86.9c64.4 0 106 35 106 98.5 0 58.5-41.6 95.8-106 95.8h-34.5c-10 0-17 7.3-17 17.2v67.8h-35.4Zm51.2 164.2H326c46.5 0 76-25.3 76-66.5 0-42.3-29.5-67.6-76-67.6h-30.3c-9.7 0-15.8 5.5-15.8 13.9v106.3c0 8.4 6.1 14 15.8 14Z" data-name="Path 70"/>
    <path d="M466.3 5.6H642v30H517c-9.3 0-15.4 5.4-15.4 13.8v25.5c0 8.6 6.1 14.3 15.4 14.3h125v30.1H518.5c-10.1 0-16.8 6.7-16.8 17V238c0 10.1 6.7 16.8 16.8 16.8H642V285H466.3Z" data-name="Path 71"/>
    <path d="M804.3 162.8V193H664v-30.3Z" data-name="Path 72"/>
    <path d="M832.5 191V99c0-58.6 41.7-98 104-98 62.1 0 103.7 39.4 103.7 98v92c0 59-41.6 98.5-103.7 98.5-62.3 0-104-39.5-104-98.5Zm104 67c40.8 0 68.4-27.8 68.4-69.3v-87c0-41.4-27.6-69.3-68.4-69.3-41 0-68.4 27.9-68.4 69.2v87c0 41.6 27.5 69.4 68.4 69.4Z" data-name="Path 73"/>
    <path d="M1078.1 5.6h35.4V238c0 10.5 6.3 16.8 16.8 16.8H1252V285h-174Z" data-name="Path 74"/>
  </g>
</svg>
