<svg xmlns="http://www.w3.org/2000/svg" width="1252.886" height="290.488" viewBox="0 0 1252.886 290.488">
  <g id="Group_70" data-name="Group 70" transform="translate(-515.01 -4112.477)">
    <path id="Path_69" data-name="Path 69" d="M595.792,4118.05h56.4l81.364,279.342H696.02l-9.909-32.012c-.762-2.858-4.954-13.91-18.483-13.91h-87.08c-13.91,0-17.911,11.052-18.864,13.91l-9.337,32.012H516.334Zm-2.477,203.123h61.166c16.958,0,15.434-14.481,14.481-18.673l-40.777-146.531c-.762-2.858-2.287-5.145-4.954-5.145-2.858,0-4.192,2.287-4.764,5.145L579.024,4302.5C577.881,4306.882,576.356,4321.173,593.315,4321.173Z" fill="none" stroke="#fff" stroke-miterlimit="10" stroke-width="2"/>
    <path id="Path_70" data-name="Path 70" d="M759.472,4118.05h86.89c64.405,0,106.135,35.061,106.135,98.513,0,58.5-41.73,95.845-106.135,95.845H811.873c-9.909,0-16.959,7.241-16.959,17.149v67.835H759.472ZM810.729,4282.3h30.3c46.494,0,76.029-25.343,76.029-66.5,0-42.3-29.535-67.645-76.029-67.645h-30.3c-9.718,0-15.815,5.526-15.815,13.91v106.326C794.914,4276.776,801.011,4282.3,810.729,4282.3Z" fill="none" stroke="#fff" stroke-miterlimit="10" stroke-width="2"/>
    <path id="Path_71" data-name="Path 71" d="M981.269,4118.05h175.875v30.106h-125c-9.336,0-15.434,5.336-15.434,13.72v25.533c0,8.575,6.1,14.291,15.434,14.291h125v30.107H1033.479c-10.1,0-16.768,6.669-16.768,16.958v101.753c0,10.1,6.669,16.768,16.768,16.768h123.665v30.106H981.269Z" fill="none" stroke="#fff" stroke-miterlimit="10" stroke-width="2"/>
    <path id="Path_72" data-name="Path 72" d="M1319.3,4275.251v30.3H1179.057v-30.3Z" fill="none" stroke="#fff" stroke-miterlimit="10" stroke-width="2"/>
    <path id="Path_73" data-name="Path 73" d="M1347.5,4303.452v-92.034c0-58.5,41.73-97.941,104.039-97.941,62.119,0,103.658,39.443,103.658,97.941v92.034c0,59.07-41.539,98.513-103.658,98.513C1389.231,4401.965,1347.5,4362.522,1347.5,4303.452Zm104.039,67.073c40.777,0,68.407-27.82,68.407-69.359v-87.08c0-41.349-27.63-69.169-68.407-69.169-40.968,0-68.406,27.82-68.406,69.169v87.08C1383.134,4342.705,1410.572,4370.525,1451.54,4370.525Z" fill="none" stroke="#fff" stroke-miterlimit="10" stroke-width="2"/>
    <path id="Path_74" data-name="Path 74" d="M1593.117,4118.05h35.442v232.468c0,10.48,6.288,16.768,16.768,16.768H1766.9v30.106H1593.117Z" fill="none" stroke="#fff" stroke-miterlimit="10" stroke-width="2"/>
  </g>
</svg>
