<svg xmlns="http://www.w3.org/2000/svg" width="781.709" height="139.531" viewBox="0 0 781.709 139.531">
  <g id="Group_94" data-name="Group 94" transform="translate(-967.2 -4663.148)">
    <path id="Path_93" data-name="Path 93" d="M967.2,4665h70.415c17.071,0,28.853,11.318,28.853,27.647s-11.782,27.739-28.853,27.739h-18.74c-3.247,0-4.639,1.484-4.639,3.432a6.1,6.1,0,0,0,1.3,3.34l48.521,73.848h-19.947l-49.541-76.167c-1.02-1.484-2.6-4.453-5.752-4.453-3.71,0-4.36,2.969-4.36,5.195v75.425H967.2Zm25.791,40.728h41.377c9.185,0,14.844-5.1,14.844-13.081,0-8.072-5.659-12.989-14.844-12.989H992.991c-5.288,0-8.535,2.134-8.535,7.329v11.04C984.456,4703.6,987.8,4705.731,992.991,4705.731Z"/>
    <path id="Path_94" data-name="Path 94" d="M1079.456,4665h85.63v14.658h-60.859c-4.546,0-7.515,2.6-7.515,6.68v12.432c0,4.174,2.969,6.958,7.515,6.958h60.859v14.658h-60.21c-4.917,0-8.164,3.247-8.164,8.257v49.541c0,4.917,3.247,8.164,8.164,8.164h60.21v14.658h-85.63Z"/>
    <path id="Path_95" data-name="Path 95" d="M1283.187,4665l-26.07,114.39c-.649,2.226-1.3,7.514,4.268,7.514h8.721c3.8,0,5.2-3.061,5.844-5.288L1304.617,4665h17.72l-34.7,136.006h-79.785L1173.065,4665h18.647l28.945,116.987c.557,2.041,1.949,4.917,5.659,4.917h8.721c5.01,0,4.917-5.1,4.361-7.514L1212.772,4665h18.461l14.473,71.157c.278,1.485,1.021,3.34,2.876,3.34,1.763,0,2.505-1.855,2.876-3.34L1265.374,4665Z"/>
    <path id="Path_96" data-name="Path 96" d="M1355.364,4665h27.461l39.615,136.006h-18.277l-4.824-15.586a9.1,9.1,0,0,0-9-6.772h-42.4a9.276,9.276,0,0,0-9.184,6.772l-4.546,15.586h-17.534Zm-1.206,98.9h29.781c8.256,0,7.514-7.051,7.05-9.092l-19.853-71.343c-.371-1.392-1.113-2.5-2.412-2.5-1.392,0-2.041,1.113-2.32,2.5l-19.2,71.343C1346.644,4756.942,1345.9,4763.9,1354.158,4763.9Z"/>
    <path id="Path_97" data-name="Path 97" d="M1435.057,4665h70.415c17.07,0,28.852,11.318,28.852,27.647s-11.782,27.739-28.852,27.739h-18.74c-3.248,0-4.639,1.484-4.639,3.432a6.1,6.1,0,0,0,1.3,3.34l48.52,73.848h-19.946l-49.541-76.167c-1.021-1.484-2.6-4.453-5.752-4.453-3.711,0-4.36,2.969-4.36,5.195v75.425h-17.256Zm25.791,40.728h41.377c9.184,0,14.843-5.1,14.843-13.081,0-8.072-5.659-12.989-14.843-12.989h-41.377c-5.288,0-8.535,2.134-8.535,7.329v11.04C1452.313,4703.6,1455.652,4705.731,1460.848,4705.731Z"/>
    <path id="Path_98" data-name="Path 98" d="M1640.921,4715.936V4749.8c0,30.244-20.6,51.211-50.469,51.211h-43.139V4665h41.84C1619.861,4665,1640.921,4685.692,1640.921,4715.936Zm-68.652,70.415h15.678c21.245,0,35.811-15.215,35.811-37.666v-31.45c0-22.452-15.029-37.574-37.11-37.574h-14.379c-4.454,0-7.7,2.783-7.7,6.773v93.144C1564.568,4783.568,1567.815,4786.351,1572.269,4786.351Z"/>
    <path id="Path_99" data-name="Path 99" d="M1654,4757.962v-6.123h17.256v5.752c0,18.369,11.968,29.966,30.893,29.966,17.906,0,29.317-9.741,29.41-25.327.092-14.287-9.556-23.1-25.513-23.379l-10.947-.279c-24.678-.556-39.615-13.916-39.615-36.738,0-23.286,18-38.686,45-38.686,28.666,0,46.293,15.586,46.293,40.82v5.937H1729.52v-5.566c0-15.864-11.412-25.884-29.224-25.884-16.514,0-27.554,9.092-27.554,22.915,0,12.8,9.278,20.6,24.864,20.874l10.947.279c25.049.556,40.356,14.936,40.356,38.686,0,25.7-18.183,41.47-46.943,41.47C1672.278,4802.679,1654,4785.609,1654,4757.962Z"/>
  </g>
</svg>
