<svg xmlns="http://www.w3.org/2000/svg" width="1564.834" height="286.442" viewBox="0 0 1564.834 286.442">
  <g id="Group_71" data-name="Group 71" transform="translate(-177.451 -5971.709)">
    <path id="Path_75" data-name="Path 75" d="M177.451,5976.25h143.6c34.812,0,58.84,23.082,58.84,56.38s-24.028,56.57-58.84,56.57H282.833c-6.622,0-9.46,3.027-9.46,7,0,2.081.946,4.351,2.649,6.811l98.949,150.6H334.294l-101.03-155.329c-2.081-3.027-5.3-9.081-11.73-9.081-7.568,0-8.892,6.054-8.892,10.595V6253.61H177.451Zm52.6,83.057h84.381c18.73,0,30.271-10.406,30.271-26.677,0-16.46-11.541-26.487-30.271-26.487H230.048c-10.785,0-17.406,4.351-17.406,14.946V6043.6C212.642,6054.955,219.453,6059.307,230.048,6059.307Z"/>
    <path id="Path_76" data-name="Path 76" d="M398.053,6160.337v-91.381c0-58.083,41.434-97.247,103.3-97.247,61.677,0,102.922,39.164,102.922,97.247v91.381c0,58.651-41.245,97.814-102.922,97.814C439.487,6258.151,398.053,6218.988,398.053,6160.337Zm103.3,66.6c40.487,0,67.921-27.623,67.921-68.867V6071.6c0-41.056-27.434-68.678-67.921-68.678-40.677,0-67.922,27.622-67.922,68.678v86.462C433.432,6199.311,460.677,6226.934,501.354,6226.934Z"/>
    <path id="Path_77" data-name="Path 77" d="M695.279,5976.25h56l80.787,277.36H794.795l-9.838-31.784c-.757-2.838-4.919-13.812-18.352-13.812H680.143c-13.811,0-17.784,10.974-18.73,13.812l-9.271,31.784H616.384Zm-2.46,201.682h60.732c16.838,0,15.325-14.379,14.379-18.541L727.442,6013.9c-.757-2.838-2.271-5.108-4.919-5.108-2.838,0-4.163,2.27-4.73,5.108l-39.164,145.491C677.494,6163.743,675.981,6177.932,692.819,6177.932Z"/>
    <path id="Path_78" data-name="Path 78" d="M1048.695,6080.118v69.057c0,61.677-42,104.435-102.922,104.435H857.8V5976.25h85.327C1005.748,5976.25,1048.695,6018.441,1048.695,6080.118Zm-140,143.6h31.974c43.326,0,73.029-31.029,73.029-76.814v-64.137c0-45.785-30.649-76.624-75.678-76.624H908.691c-9.082,0-15.7,5.676-15.7,13.811v189.952C892.988,6218.042,899.609,6223.718,908.691,6223.718Z"/>
    <path id="Path_79" data-name="Path 79" d="M1086.345,5976.25h35.19L1173,6033.955c3.783,4.162,7.946,6.054,11.919,6.054s8.135-2.081,11.919-6.054l51.083-57.705h35.758v277.36h-35.191V6046.82c0-7.379-4.162-11.541-9.27-11.541-2.838,0-6.244,1.7-9.271,5.3l-44.65,51.271h-.567l-44.84-50.515c-3.027-3.594-6.432-5.108-9.459-5.108-4.919,0-8.893,3.973-8.893,11.352V6253.61h-35.19Z"/>
    <path id="Path_80" data-name="Path 80" d="M1388.111,5976.25h56l80.787,277.36h-37.272l-9.838-31.784c-.757-2.838-4.919-13.812-18.352-13.812h-86.462c-13.811,0-17.784,10.974-18.73,13.812l-9.271,31.784h-35.758Zm-2.459,201.682h60.732c16.838,0,15.324-14.379,14.378-18.541L1420.275,6013.9c-.757-2.838-2.271-5.108-4.919-5.108-2.838,0-4.163,2.27-4.73,5.108l-39.164,145.491C1370.327,6163.743,1368.814,6177.932,1385.652,6177.932Z"/>
    <path id="Path_81" data-name="Path 81" d="M1550.63,5976.25H1636.9c63.948,0,105.382,34.812,105.382,97.814,0,58.083-41.434,95.165-105.382,95.165h-34.244c-9.838,0-16.839,7.19-16.839,17.028v67.353h-35.19Zm50.894,163.086h30.082c46.163,0,75.489-25.163,75.489-66.029,0-42-29.326-67.164-75.489-67.164h-30.082c-9.649,0-15.7,5.487-15.7,13.811v105.571C1585.82,6133.85,1591.875,6139.336,1601.524,6139.336Z"/>
  </g>
</svg>
