<svg xmlns="http://www.w3.org/2000/svg" viewBox="0 0 1564.8 286.4">
  <g data-name="Group 71">
    <path d="M0 4.5h143.6c34.8 0 58.8 23.1 58.8 56.4s-24 56.6-58.8 56.6h-38.2c-6.6 0-9.5 3-9.5 7 0 2 1 4.3 2.7 6.8l99 150.6h-40.8l-101-155.3c-2-3-5.3-9.1-11.7-9.1-7.6 0-9 6-9 10.6v153.8H0Zm52.6 83.1H137c18.7 0 30.3-10.4 30.3-26.7 0-16.4-11.6-26.5-30.3-26.5H52.6c-10.8 0-17.4 4.4-17.4 15v22.5c0 11.3 6.8 15.7 17.4 15.7Z" data-name="Path 75"/>
    <path d="M220.6 188.6V97.2C220.6 39.2 262 0 323.9 0c61.7 0 103 39.2 103 97.2v91.4c0 58.7-41.3 97.8-103 97.8-61.9 0-103.3-39.1-103.3-97.8Zm103.3 66.6c40.5 0 68-27.6 68-68.8V99.9c0-41-27.5-68.7-68-68.7-40.7 0-68 27.6-68 68.7v86.5c0 41.2 27.3 68.8 68 68.8Z" data-name="Path 76"/>
    <path d="M517.8 4.5h56L654.6 282h-37.3l-9.8-31.8c-.8-2.8-5-13.8-18.3-13.8h-86.5a19 19 0 0 0-18.7 13.8l-9.3 31.8h-35.8Zm-2.4 201.7H576c16.8 0 15.3-14.4 14.4-18.5L550 42.2c-.8-2.8-2.3-5.1-5-5.1-2.8 0-4 2.3-4.7 5l-39.1 145.6c-1.2 4.3-2.7 18.5 14.2 18.5Z" data-name="Path 77"/>
    <path d="M871.2 108.4v69c0 61.7-42 104.5-102.9 104.5h-88V4.5h85.4c62.6 0 105.5 42.2 105.5 104ZM731.2 252h32c43.3 0 73-31 73-76.8v-64.1c0-45.8-30.6-76.7-75.6-76.7h-29.4c-9 0-15.7 5.7-15.7 13.8v190c0 8.1 6.7 13.8 15.7 13.8Z" data-name="Path 78"/>
    <path d="M908.9 4.5H944l51.4 57.7c3.8 4.2 8 6.1 12 6.1s8.1-2 11.9-6l51-57.8h35.8V282H1071V75.1c0-7.4-4.1-11.5-9.2-11.5-2.9 0-6.3 1.7-9.3 5.3l-44.7 51.2h-.5l-44.9-50.5c-3-3.6-6.4-5-9.4-5-5 0-9 3.9-9 11.3v206h-35Z" data-name="Path 79"/>
    <path d="M1210.7 4.5h56l80.7 277.4h-37.2l-9.9-31.8a18.5 18.5 0 0 0-18.3-13.8h-86.5a19 19 0 0 0-18.7 13.8l-9.3 31.8h-35.7Zm-2.5 201.7h60.7c16.9 0 15.4-14.4 14.4-18.5l-40.5-145.5c-.7-2.8-2.2-5.1-4.9-5.1-2.8 0-4.2 2.3-4.7 5L1194 187.8c-1.1 4.3-2.6 18.5 14.2 18.5Z" data-name="Path 80"/>
    <path d="M1373.2 4.5h86.2c64 0 105.4 34.9 105.4 97.9 0 58-41.4 95.1-105.4 95.1h-34.2c-9.8 0-16.8 7.2-16.8 17V282h-35.2Zm50.9 163.1h30c46.2 0 75.5-25.1 75.5-66 0-42-29.3-67.2-75.4-67.2H1424c-9.7 0-15.7 5.5-15.7 13.8v105.6c0 8.3 6 13.8 15.7 13.8Z" data-name="Path 81"/>
  </g>
</svg>
