<svg xmlns="http://www.w3.org/2000/svg" width="433.067" height="139.81" viewBox="0 0 433.067 139.81">
  <g id="Group_72" data-name="Group 72" transform="translate(-736.506 -11256.905)">
    <path id="Path_82" data-name="Path 82" d="M736.506,11258.854h85.63v14.658H761.277c-4.546,0-7.515,2.6-7.515,6.681v12.431c0,4.174,2.969,6.957,7.515,6.957h60.859v14.659h-60.21c-4.917,0-8.164,3.248-8.164,8.257v72.364H736.506Z"/>
    <path id="Path_83" data-name="Path 83" d="M853.865,11258.854h27.461l39.614,136.007H902.664l-4.825-15.586a9.1,9.1,0,0,0-9-6.774h-42.4a9.277,9.277,0,0,0-9.185,6.774l-4.546,15.586H815.178Zm-1.206,98.9h29.78c8.257,0,7.515-7.05,7.051-9.091l-19.854-71.344c-.371-1.392-1.113-2.5-2.412-2.5-1.392,0-2.041,1.113-2.319,2.5l-19.2,71.344C845.144,11350.791,844.4,11357.75,852.659,11357.75Z"/>
    <path id="Path_84" data-name="Path 84" d="M926.97,11348.75v-44.066c0-28.481,20.318-47.778,50.654-47.778,30.152,0,50.655,19.3,50.655,47.778v44.066a45.527,45.527,0,0,1-8.907,27.555l12.061,18.556h-18.74l-5.01-7.33c-7.978,6.03-18.184,9.185-30.059,9.185C947.288,11396.715,926.97,11377.51,926.97,11348.75Zm49.912,32.379c6.494,0,13.36-1.67,17.534-5.381a5.452,5.452,0,0,0,2.041-4.175,7.753,7.753,0,0,0-1.3-4.269l-42.769-64.848h18.74l35.254,51.954c1.113,1.669,2.412,1.854,3.155.834a8.315,8.315,0,0,0,1.391-4.639v-44.623c0-20.134-13.452-33.771-33.306-33.771-19.946,0-33.305,13.637-33.305,33.771v41.562C944.319,11368.141,957.678,11381.129,976.882,11381.129Z"/>
    <path id="Path_85" data-name="Path 85" d="M1044.421,11275.739a11.342,11.342,0,1,1,19.854-7.7,22.454,22.454,0,0,1-1.021,5.846l-7.885,30.151H1044.7l4.082-15.864C1050.173,11282.7,1047.761,11279.635,1044.421,11275.739Z"/>
    <path id="Path_86" data-name="Path 86" d="M1074.665,11351.813v-6.123h17.256v5.752c0,18.368,11.968,29.965,30.894,29.965,17.905,0,29.316-9.741,29.409-25.327.093-14.287-9.556-23.1-25.513-23.378l-10.947-.28c-24.678-.556-39.614-13.916-39.614-36.738,0-23.284,18-38.686,44.995-38.686,28.667,0,46.294,15.586,46.294,40.821v5.937h-17.256v-5.565c0-15.865-11.411-25.886-29.224-25.886-16.513,0-27.553,9.093-27.553,22.916,0,12.8,9.277,20.6,24.863,20.873l10.947.279c25.049.557,40.357,14.936,40.357,38.686,0,25.7-18.184,41.472-46.944,41.472C1092.942,11396.53,1074.665,11379.459,1074.665,11351.813Z"/>
  </g>
</svg>
