<svg xmlns="http://www.w3.org/2000/svg" viewBox="0 0 433.1 139.8">
  <g data-name="Group 72">
    <path d="M0 2h85.6v14.6H24.8c-4.6 0-7.5 2.6-7.5 6.7v12.4c0 4.2 3 7 7.5 7h60.8v14.6H25.4c-4.9 0-8.1 3.3-8.1 8.3V138H0Z" data-name="Path 82"/>
    <path d="M117.4 2h27.4l39.6 136h-18.2l-4.9-15.6a9.1 9.1 0 0 0-9-6.8H110a9.3 9.3 0 0 0-9.2 6.8L96.2 138H78.7Zm-1.2 98.8h29.7c8.3 0 7.5-7 7-9l-19.8-71.4c-.3-1.4-1-2.5-2.4-2.5s-2 1.1-2.3 2.5l-19.2 71.4c-.6 2-1.3 9 7 9Z" data-name="Path 83"/>
    <path d="M190.5 91.8v-44C190.5 19.3 210.8 0 241 0s50.7 19.3 50.7 47.8v44a45.5 45.5 0 0 1-9 27.6L295 138h-18.7l-5-7.4c-8 6-18.2 9.2-30 9.2-30.4 0-50.7-19.2-50.7-48Zm49.9 32.4c6.5 0 13.3-1.6 17.5-5.4a5.5 5.5 0 0 0 2-4.1 7.8 7.8 0 0 0-1.2-4.3l-42.8-64.8h18.7L270 97.5c1 1.7 2.4 1.9 3.1.8a8.3 8.3 0 0 0 1.4-4.6V49.1c0-20.2-13.4-33.8-33.3-33.8-20 0-33.3 13.6-33.3 33.8v41.5c0 20.6 13.4 33.6 32.6 33.6Z" data-name="Path 84"/>
    <path d="M308 18.8a11.3 11.3 0 1 1 19.8-7.7 22.5 22.5 0 0 1-1 5.9l-8 30.1h-10.6l4-15.8c1.5-5.5-1-8.6-4.3-12.5Z" data-name="Path 85"/>
    <path d="M338.2 95v-6.2h17.2v5.7c0 18.4 12 30 31 30 17.8 0 29.2-9.7 29.3-25.3.1-14.3-9.5-23.1-25.5-23.4l-11-.3c-24.6-.5-39.6-13.9-39.6-36.7 0-23.3 18-38.7 45-38.7C413.3 0 431 15.7 431 40.9v6h-17.2v-5.6c0-15.9-11.4-25.9-29.2-25.9-16.6 0-27.6 9-27.6 23 0 12.7 9.3 20.5 24.9 20.8l11 .3c25 .5 40.3 14.9 40.3 38.7 0 25.7-18.2 41.4-47 41.4-29.7 0-48-17-48-44.7Z" data-name="Path 86"/>
  </g>
</svg>
