<?xml version="1.0" encoding="utf-8"?>
<!-- Generator: Adobe Illustrator 16.0.0, SVG Export Plug-In . SVG Version: 6.00 Build 0)  -->
<!DOCTYPE svg PUBLIC "-//W3C//DTD SVG 1.1//EN" "http://www.w3.org/Graphics/SVG/1.1/DTD/svg11.dtd">
<svg version="1.1" id="Layer_1" xmlns="http://www.w3.org/2000/svg" xmlns:xlink="http://www.w3.org/1999/xlink" x="0px" y="0px"
	 width="479.854px" height="403.208px" viewBox="0 0 479.854 403.208" enable-background="new 0 0 479.854 403.208"
	 xml:space="preserve">
<g>
	<path fill="#FFFFFF" d="M375.001,182.167c0.825,0.307,1.614,0.643,2.612,1.069c0.527,0.225,1.118,0.477,1.807,0.764l4.694,1.956
		l-16.063,5.945c-7.819,2.894-15.395,5.696-22.966,8.505c-3.701,1.373-7.401,2.75-11.102,4.127
		c-10.088,3.752-20.521,7.635-30.811,11.381c-0.799,0.291-2.382,0.778-4.019,0.778c-0.818,0-1.565-0.12-2.223-0.36
		c-1.859-0.679-3.716-1.357-5.57-2.037l-32.154,18.052l26.037,9.646v126.566l-2.621-0.855c-0.465-0.152-0.908-0.291-1.336-0.427
		c-0.906-0.286-1.762-0.557-2.617-0.873l-33.9-12.555c-17.383-6.438-34.768-12.878-52.154-19.31
		c-2.101-0.776-4.936-1.826-4.921-6.146c0.06-18.575,0.082-37.34,0.09-55.949l-28.007,15.724l0.001,7.922
		c0.007,17.744,0.014,36.093-0.061,54.14c-0.007,1.742,0.233,2.093,1.836,2.685c18.672,6.875,37.335,13.773,55.998,20.674
		c26.071,9.64,53.03,19.605,79.57,29.336c1.369,0.5,3.821,0.326,5.778-0.393c38.354-14.098,77.314-28.529,114.992-42.486
		l21.105-7.817V175.799c-4.978-1.82-9.954-3.638-14.932-5.455c-10.981-4.01-21.963-8.023-32.935-12.061l-32.044,17.99
		C364.395,178.236,369.699,180.199,375.001,182.167z M406.005,207.739c0.438-0.16,0.886-0.292,1.471-0.459
		c0.276-0.078,0.588-0.168,0.948-0.275l2.574-0.771l-0.001,65.902c-0.001,18.55-0.003,37.1,0.018,55.648
		c0.003,2.108,0.008,4.996-3.903,6.428c-22.39,8.193-45.119,16.621-67.103,24.771c-7.319,2.714-14.641,5.43-21.962,8.141
		c-0.469,0.172-0.903,0.25-1.406,0.342c-0.235,0.043-0.51,0.092-0.837,0.16l-2.413,0.51v-26.352
		c0.001-31.504,0.001-63.007-0.011-94.51l-0.001-0.352c-0.011-1.984-0.025-4.983,3.931-6.43
		c22.563-8.248,45.468-16.736,67.617-24.945L406.005,207.739z"/>
	<path fill="#FFFFFF" d="M469.039,89.214l10.813-6.071l-11.096-19.764l-132.725,74.512l-17.429-6.466
		c-1.008-0.373-2.009-0.768-3.085-1.192l-2.931-1.146l-0.004-21.761c-0.007-17.812-0.014-36.23,0.063-54.347
		c0.007-1.741-0.233-2.092-1.839-2.683c-18.654-6.868-37.301-13.761-55.945-20.655c-26.088-9.645-53.064-19.618-79.621-29.354
		c-1.369-0.503-3.823-0.328-5.778,0.392c-38.3,14.078-77.206,28.489-114.831,42.426l-21.267,7.877v176.425
		c4.984,1.823,9.969,3.645,14.955,5.465c12.318,4.498,24.636,8.996,36.939,13.531c11.551,4.26,23.093,8.545,34.636,12.826L0,326.54
		l10.813,19.264l0.282,0.502L469.039,89.214z M187.79,221.116v-10.23c0-0.442,0.042-0.842,0.096-1.346
		c0.026-0.252,0.057-0.541,0.088-0.889l0.231-2.609l15.925,5.899L187.79,221.116z M303.894,155.934l-67.705,38.01
		c-0.931-0.344-1.852-0.686-2.786-1.032l-19.272-7.137l17.124-6.367c9.17-3.411,17.956-6.678,26.744-9.938
		c3.881-1.44,7.764-2.873,11.646-4.305c7.342-2.708,14.935-5.509,22.379-8.313C296.153,155.296,299.986,155.007,303.894,155.934z
		 M280.248,82.488c0.433-0.16,0.815-0.211,1.259-0.271c0.201-0.027,0.442-0.059,0.746-0.11l2.331-0.392l0.006,11.098
		c0.013,11.547,0.022,22.453-0.146,33.598c-0.035,2.361-2.893,4.408-4.412,4.979c-21.635,8.114-43.662,16.268-64.965,24.154
		l-10.604,3.926c-3.205,1.188-6.414,2.364-9.814,3.612l-7.669,2.816l0.004-21.814c0.006-7.368,0.012-14.986-0.032-22.475
		c-0.013-2.248,0.272-4.756,3.841-6.065c22.721-8.327,45.793-16.877,68.104-25.146L280.248,82.488z M93.373,59.078
		c0.412-0.216,0.773-0.418,1.104-0.604c0.716-0.402,1.335-0.749,2.059-1.017l2.223-0.825c23.175-8.598,47.139-17.489,70.746-26.135
		c2.06-0.755,4.533-0.868,6.266-0.233c21.394,7.827,43.107,15.889,64.104,23.685l10.354,3.844c0.447,0.166,0.846,0.358,1.446,0.648
		c0.337,0.162,0.75,0.362,1.294,0.615l4.338,2.023l-62.301,23.103c-1.628,0.604-3.254,1.213-4.88,1.823
		c-4.534,1.701-9.222,3.459-13.896,5.052c-1.063,0.362-2.283,0.563-3.435,0.563l0,0c-1.037,0-1.985-0.155-2.816-0.459
		c-21.096-7.73-42.509-15.686-63.217-23.378L95.53,63.609c-0.351-0.131-0.688-0.289-1.18-0.523
		c-0.242-0.116-0.528-0.253-0.889-0.419l-3.694-1.703L93.373,59.078z M93.931,219.741c-9.296-3.455-18.908-7.027-28.383-10.474
		c-2.207-0.804-4.248-2.06-4.24-5.771c0.068-30.558,0.068-61.628,0.068-91.677l0.002-25.86c0-0.394,0.035-0.788,0.088-1.335
		c0.025-0.256,0.054-0.552,0.084-0.913l0.212-2.587l3.709,1.308c0.881,0.308,1.705,0.596,2.524,0.899l20.378,7.54
		c21.409,7.925,43.547,16.12,65.35,24.093c3.223,1.179,5.366,2.903,5.348,7.488c-0.118,30.085-0.108,60.676-0.1,90.26l0.004,24.576
		l-7.039,3.951L93.931,219.741z"/>
</g>
</svg>
