<?xml version="1.0" encoding="utf-8"?>
<!-- Generator: Adobe Illustrator 16.0.0, SVG Export Plug-In . SVG Version: 6.00 Build 0)  -->
<!DOCTYPE svg PUBLIC "-//W3C//DTD SVG 1.1//EN" "http://www.w3.org/Graphics/SVG/1.1/DTD/svg11.dtd">
<svg version="1.1" id="Layer_1" xmlns="http://www.w3.org/2000/svg" xmlns:xlink="http://www.w3.org/1999/xlink" x="0px" y="0px"
	 width="409.635px" height="254.885px" viewBox="0 0 409.635 254.885" enable-background="new 0 0 409.635 254.885"
	 xml:space="preserve">
<path fill-rule="evenodd" clip-rule="evenodd" d="M409.635,113.823c-1.067,8.424-1.85,16.896-3.259,25.263
	c-3.915,23.25-11.536,45.063-25.681,64.268c-14.23,19.321-33.283,31.95-55.549,40.051c-20.081,7.306-40.934,10.756-62.23,11.149
	c-18.118,0.335-36.268,0.568-54.369-0.081c-39.421-1.416-77.379-9.279-112.648-27.75c-29.169-15.277-51.527-37.484-67.062-66.494
	c-14.974-27.965-22.9-58.062-26.479-89.408C1.379,62.242,0.776,53.62,0,45.018c0-9.334,0-18.668,0-28.002
	c0.261-1.557,0.577-3.107,0.773-4.671C1.549,6.144,5.106,1.808,11.298,0.994c6.051-0.796,12.218-0.89,18.338-0.967
	c29.891-0.376,59.314,3.097,88.06,11.436c23.191,6.727,44.879,16.613,64.356,31.141c20.189,15.058,35.29,34.237,46.608,56.544
	c7.07,13.937,12.491,28.513,16.393,43.651c0.384,1.491,0.948,2.935,1.453,4.475c3.831-6.265,7.223-12.467,11.229-18.242
	c15.195-21.913,36.561-35.407,61.402-43.73c24.031-8.052,48.885-10.603,74.115-9.605c10.816,0.428,13.011,2.563,16.383,14.125
	C409.635,97.822,409.635,105.823,409.635,113.823z M229.517,211.524c0.651-17.583-4.901-51.663-12.049-74.248
	c-15.097-47.707-45.616-80.621-93.109-97.505C97.85,30.348,70.466,26.249,42.524,25.109c-5.68-0.232-11.378-0.034-17-0.034
	c0,7.39-0.24,14.424,0.042,21.437c1.103,27.442,5.665,54.245,15.279,80.076c14.632,39.315,40.567,67.902,79.516,84.354
	c22.411,9.468,45.834,14.616,69.898,17.223c6.941,0.752,13.921,1.141,21.932,1.779c-1.736-1.846-2.676-2.901-3.673-3.898
	c-29.116-29.131-58.239-58.256-87.356-87.387c-1.129-1.131-2.296-2.241-3.291-3.485c-3.299-4.127-3.642-9.765-0.953-14.206
	c2.695-4.451,7.913-7.068,13.019-5.533c3.014,0.906,6.014,2.877,8.274,5.12c29.318,29.117,58.502,58.37,87.724,87.584
	C226.939,209.141,227.997,210.09,229.517,211.524z M274.195,228.849c13.743-1.154,26.443-3.646,38.831-7.71
	c27.665-9.075,48.218-26.093,59.432-53.446c6.83-16.662,10.382-34.084,11.521-52.001c0.316-4.965,0.048-9.967,0.048-15.045
	c-0.713-0.052-1.37-0.151-2.025-0.139c-19.149,0.336-37.97,2.826-56.181,8.966c-15.893,5.359-30.172,13.416-41.472,26.062
	c-12.083,13.523-19.224,29.638-23.439,47.053c-2.188,9.045-3.463,18.312-5.15,27.477c0.357,0.12,0.716,0.241,1.074,0.361
	c1.04-0.984,2.104-1.945,3.115-2.957c16.31-16.3,32.609-32.607,48.922-48.903c1.129-1.128,2.265-2.271,3.522-3.245
	c4.037-3.126,9.566-3.45,13.882-0.91c4.521,2.661,7.211,7.808,5.74,12.917c-0.869,3.023-2.805,6.056-5.034,8.323
	c-16.354,16.628-32.907,33.062-49.39,49.564C276.586,226.222,275.645,227.293,274.195,228.849z"/>
</svg>
