<?xml version="1.0" encoding="utf-8"?>
<!-- Generator: Adobe Illustrator 16.0.0, SVG Export Plug-In . SVG Version: 6.00 Build 0)  -->
<!DOCTYPE svg PUBLIC "-//W3C//DTD SVG 1.1//EN" "http://www.w3.org/Graphics/SVG/1.1/DTD/svg11.dtd">
<svg version="1.1" id="Layer_1" xmlns="http://www.w3.org/2000/svg" xmlns:xlink="http://www.w3.org/1999/xlink" x="0px" y="0px"
	 width="492.981px" height="317.394px" viewBox="0 0 492.981 317.394" enable-background="new 0 0 492.981 317.394"
	 xml:space="preserve">
<path fill-rule="evenodd" clip-rule="evenodd" fill="#FFFFFF" d="M482.841,14.173C457.869,6.64,432.419,1.916,406.373,0.55
	c-39.144-2.055-77.559,1.235-114.01,16.992c-19.109,8.261-36.349,19.681-48.431,36.846c-26.938,38.271-29.634,78.425-6.859,119.744
	c1.449,2.629,1.707,4.669,0.669,7.552c-5.849,16.251-11.417,32.603-17.083,48.919c-0.384,1.106-0.781,2.208-1.376,3.89
	c-2.986-3.418-5.741-6.137-7.917-9.261c-0.958-1.375-1.3-3.688-0.954-5.376c1.317-6.409,3.733-12.655,4.478-19.107
	c3.669-31.786-6.79-58.093-32.109-77.864c-17.734-13.848-38.703-19.666-60.706-21.779c-38.867-3.732-76.322,2.451-112.536,16.85
	c-4.233,1.683-7.672,3.864-9.542,8.116c0,1.926,0,3.852,0,5.777c3.072,2.674,5.904,5.705,9.258,7.958
	c13.292,8.934,24.833,19.808,31.55,34.306c6.087,13.14,10.388,27.149,14.896,40.966c7.131,21.854,19.353,39.553,40.745,49.176
	c28.762,12.939,56.6,9.521,82.811-7.304c6.889-4.421,12.798-10.37,19.381-15.802c19.475,22.342,34.941,47.356,44.469,76.245
	c6.441-1.617,12.597-3.163,19.188-4.818c-0.713-2.341-1.102-4.383-1.934-6.226c-5.386-11.957-9.404-24.873-16.713-35.525
	c-7.962-11.603-7.957-22.321-3.83-34.553c4.583-13.584,8.662-27.338,13.16-41.655c2.107,1.666,3.237,2.525,4.33,3.428
	c27.457,22.685,58.858,31.488,93.836,24.995c35.107-6.516,60.162-26.696,72.834-60.146c5.509-14.543,7.991-30.302,11.15-45.652
	c6.866-33.366,23.052-60.825,50.105-81.761c2.845-2.201,5.176-5.064,7.746-7.621c0-1.926,0-3.852,0-5.777
	C490.933,17.734,487.451,15.564,482.841,14.173z M193.556,207.218c-31.419-28.48-66.629-49.403-106.196-64.123
	c-1.219,3.139-2.378,6.055-3.483,8.991c-1.121,2.98-2.189,5.981-3.5,9.577c38.704,14.803,73.69,35.291,103.72,64.257
	c-10.803,13.842-24.753,22.117-41.654,24.892c-23.463,3.85-43.846-2.008-58.091-22.078c-4.533-6.388-7.259-14.199-10.051-21.645
	c-4.154-11.072-7.18-22.577-11.51-33.574c-5.841-14.837-15.336-27.314-27.057-38.098c-1.062-0.977-2.095-1.988-3.113-3.01
	c-0.211-0.211-0.298-0.545-0.755-1.428c35.529-10.488,71.152-15.224,107.451-6.609c19.942,4.732,37.114,14.274,47.769,32.753
	C195.973,172.542,197.877,189.006,193.556,207.218z M434.53,63.053c-12.438,19.161-17.303,41.125-21.563,63.253
	c-1.931,10.029-4.044,20.205-7.704,29.686c-10.298,26.679-30.273,42.615-58.25,47.452c-32.203,5.567-60.213-3.49-83.322-26.9
	c-0.323-0.328-0.534-0.769-0.935-1.358c28.052-54.646,68.887-93.843,130.969-107.834c-1.39-6.517-2.711-12.707-4.148-19.446
	c-63.605,14.122-107.846,52.678-139.447,108.31c-5.647-11.432-8.042-22.98-8.029-34.819c0.029-26.603,9.062-49.611,29.291-67.487
	c14.709-12.998,32.22-20.839,50.966-25.917c31.993-8.668,64.564-9.825,97.326-6.188c13.812,1.534,27.5,4.171,40.751,6.23
	C451.371,40.187,442.248,51.164,434.53,63.053z"/>
</svg>
