<?xml version="1.0" encoding="utf-8"?>
<!-- Generator: Adobe Illustrator 16.0.0, SVG Export Plug-In . SVG Version: 6.00 Build 0)  -->
<!DOCTYPE svg PUBLIC "-//W3C//DTD SVG 1.1//EN" "http://www.w3.org/Graphics/SVG/1.1/DTD/svg11.dtd">
<svg version="1.1" id="Layer_1" xmlns="http://www.w3.org/2000/svg" xmlns:xlink="http://www.w3.org/1999/xlink" x="0px" y="0px"
	 width="479.854px" height="403.208px" viewBox="0 0 479.854 403.208" enable-background="new 0 0 479.854 403.208"
	 xml:space="preserve">
<g>
	<path d="M375.001,182.167c0.825,0.307,1.614,0.643,2.612,1.069c0.528,0.225,1.118,0.477,1.807,0.764l4.694,1.956l-16.062,5.945
		c-7.82,2.894-15.395,5.696-22.966,8.505c-3.701,1.373-7.401,2.75-11.102,4.127c-10.088,3.753-20.521,7.635-30.81,11.382
		c-0.799,0.291-2.382,0.778-4.019,0.778c-0.818,0-1.565-0.121-2.222-0.36c-1.86-0.679-3.716-1.358-5.571-2.037l-32.154,18.051
		l26.037,9.646v126.566l-2.621-0.855c-0.465-0.152-0.908-0.292-1.336-0.427c-0.906-0.286-1.762-0.557-2.617-0.873l-33.901-12.555
		c-17.383-6.439-34.767-12.878-52.154-19.309c-2.101-0.777-4.936-1.826-4.921-6.146c0.06-18.575,0.082-37.34,0.09-55.949
		l-28.007,15.724l0.001,7.921c0.007,17.745,0.014,36.093-0.061,54.14c-0.007,1.742,0.233,2.093,1.836,2.684
		c18.672,6.875,37.335,13.774,55.998,20.675c26.071,9.639,53.03,19.605,79.57,29.335c1.369,0.501,3.821,0.327,5.778-0.393
		c38.354-14.097,77.315-28.529,114.993-42.486l21.105-7.817V175.799c-4.977-1.82-9.954-3.638-14.932-5.455
		c-10.981-4.01-21.962-8.023-32.934-12.061l-32.044,17.99C364.395,178.236,369.699,180.199,375.001,182.167z M406.005,207.739
		c0.437-0.161,0.886-0.292,1.471-0.459c0.276-0.079,0.587-0.168,0.948-0.276l2.574-0.771l-0.001,65.902
		c-0.001,18.55-0.003,37.1,0.018,55.649c0.003,2.108,0.007,4.996-3.904,6.428c-22.389,8.193-45.119,16.621-67.102,24.771
		c-7.32,2.714-14.641,5.429-21.962,8.14c-0.469,0.173-0.903,0.251-1.406,0.342c-0.236,0.043-0.51,0.092-0.837,0.161l-2.413,0.509
		v-26.351c0.001-31.504,0.001-63.007-0.011-94.51l-0.001-0.352c-0.011-1.984-0.026-4.983,3.931-6.43
		c22.563-8.248,45.467-16.736,67.617-24.945L406.005,207.739z"/>
	<path d="M469.039,89.214l10.814-6.071l-11.096-19.764l-132.725,74.512l-17.428-6.466c-1.008-0.373-2.009-0.768-3.085-1.192
		l-2.931-1.146l-0.004-21.761c-0.007-17.812-0.014-36.23,0.062-54.347c0.007-1.741-0.233-2.092-1.838-2.683
		c-18.654-6.868-37.301-13.761-55.946-20.655c-26.088-9.645-53.064-19.618-79.621-29.354c-1.369-0.503-3.823-0.328-5.778,0.392
		c-38.3,14.078-77.206,28.489-114.831,42.426l-21.267,7.877v176.425c4.984,1.823,9.969,3.644,14.955,5.464
		c12.318,4.498,24.636,8.996,36.939,13.532c11.551,4.259,23.093,8.545,34.636,12.826L0,326.54l10.813,19.263l0.282,0.502
		L469.039,89.214z M187.79,221.115v-10.229c0-0.443,0.042-0.842,0.096-1.347c0.026-0.251,0.057-0.54,0.088-0.888l0.231-2.609
		l15.925,5.899L187.79,221.115z M303.894,155.934l-67.705,38.01c-0.931-0.344-1.852-0.686-2.786-1.032l-19.272-7.137l17.124-6.367
		c9.17-3.411,17.956-6.678,26.744-9.938c3.881-1.44,7.764-2.873,11.647-4.305c7.342-2.708,14.934-5.509,22.378-8.313
		C296.154,155.296,299.986,155.007,303.894,155.934z M280.248,82.488c0.432-0.16,0.815-0.211,1.259-0.271
		c0.201-0.027,0.442-0.059,0.746-0.11l2.331-0.392l0.006,11.098c0.012,11.547,0.023,22.453-0.145,33.598
		c-0.036,2.361-2.893,4.408-4.413,4.979c-21.634,8.114-43.662,16.268-64.965,24.154l-10.604,3.926
		c-3.205,1.187-6.414,2.364-9.814,3.612l-7.669,2.816l0.004-21.814c0.006-7.368,0.012-14.986-0.032-22.475
		c-0.013-2.248,0.272-4.756,3.841-6.065c22.721-8.327,45.793-16.877,68.105-25.146L280.248,82.488z M93.373,59.078
		c0.412-0.216,0.773-0.418,1.104-0.604c0.716-0.402,1.335-0.749,2.059-1.017l2.223-0.825c23.175-8.598,47.139-17.489,70.746-26.135
		c2.06-0.755,4.533-0.868,6.266-0.233c21.394,7.827,43.107,15.889,64.104,23.685l10.355,3.844c0.447,0.166,0.845,0.358,1.446,0.648
		c0.336,0.162,0.75,0.362,1.294,0.615l4.337,2.023l-62.3,23.103c-1.628,0.604-3.254,1.213-4.88,1.823
		c-4.534,1.701-9.222,3.459-13.896,5.052c-1.063,0.362-2.283,0.563-3.435,0.563c0,0,0,0,0,0c-1.037,0-1.985-0.155-2.816-0.459
		c-21.096-7.73-42.509-15.686-63.217-23.378L95.53,63.609c-0.351-0.131-0.688-0.289-1.18-0.523
		c-0.242-0.116-0.528-0.253-0.889-0.419l-3.694-1.703L93.373,59.078z M93.931,219.741c-9.296-3.455-18.908-7.027-28.383-10.474
		c-2.207-0.804-4.248-2.059-4.24-5.77c0.068-30.558,0.068-61.629,0.068-91.677l0.002-25.86c0-0.394,0.035-0.788,0.088-1.335
		c0.025-0.256,0.054-0.552,0.084-0.913l0.212-2.587l3.709,1.308c0.881,0.308,1.705,0.596,2.524,0.899l20.378,7.54
		c21.409,7.925,43.547,16.12,65.35,24.093c3.223,1.179,5.366,2.903,5.348,7.488c-0.118,30.085-0.108,60.676-0.1,90.26l0.004,24.576
		l-7.039,3.952L93.931,219.741z"/>
</g>
</svg>
