<?xml version="1.0" encoding="utf-8"?>
<!-- Generator: Adobe Illustrator 16.0.0, SVG Export Plug-In . SVG Version: 6.00 Build 0)  -->
<!DOCTYPE svg PUBLIC "-//W3C//DTD SVG 1.1//EN" "http://www.w3.org/Graphics/SVG/1.1/DTD/svg11.dtd">
<svg version="1.1" id="Layer_1" xmlns="http://www.w3.org/2000/svg" xmlns:xlink="http://www.w3.org/1999/xlink" x="0px" y="0px"
	 width="383.952px" height="313.72px" viewBox="0 0 383.952 313.72" enable-background="new 0 0 383.952 313.72"
	 xml:space="preserve">
<g>
	<path fill-rule="evenodd" clip-rule="evenodd" d="M383.952,159.805c-2.992,6.481-8.119,8.684-15.101,8.34
		c-7.975-0.392-15.984-0.187-23.974-0.007c-1.531,0.034-3.428,0.765-4.499,1.833c-46.154,46.047-92.233,92.171-138.324,138.28
		c-7.294,7.297-12.856,7.288-20.148-0.008c-46.089-46.113-92.169-92.235-138.323-138.282c-1.07-1.067-2.971-1.789-4.503-1.824
		c-7.989-0.179-16-0.385-23.975,0.008c-6.982,0.344-12.112-1.854-15.105-8.34c0-2,0-3.999,0-5.999
		c2.992-6.493,8.129-8.908,15.112-8.303c3.549,0.307,7.147,0.054,11.189,0.054c-10.9-22.919-13.557-46.322-7.309-70.425
		c6.301-24.305,20.305-43.312,40.741-57.847c32.809-23.334,93.277-27.5,132.492,16.621c17.122-18.545,37.979-30.139,63.223-33.125
		c25.341-2.998,48.665,2.606,69.637,17.21c17.75,12.362,30.412,28.794,37.462,49.269c9.131,26.517,7.185,52.533-4.86,78.296
		c4.009,0,7.607,0.25,11.157-0.054c6.978-0.597,12.125,1.797,15.108,8.303C383.952,155.806,383.952,157.805,383.952,159.805z
		 M191.037,170.479c0.951-1.563,1.666-2.68,2.325-3.831c11.168-19.494,22.329-38.993,33.493-58.489
		c5.71-9.972,15.313-10.275,21.434-0.651c7.504,11.799,15.012,23.597,22.41,35.462c1.194,1.915,2.475,2.657,4.767,2.643
		c17.618-0.102,35.236-0.098,52.854-0.004c2.265,0.012,3.603-0.678,4.816-2.602c10.039-15.9,14.115-33.116,11.957-51.836
		c-6.552-56.857-71.552-87.732-119.31-56.217c-9.26,6.111-16.895,14.713-25.156,22.298c-5.604,5.145-11.846,5.28-17.242-0.01
		c-4.283-4.198-8.413-8.556-12.769-12.676c-18.167-17.18-39.724-24.466-64.542-21.351C49.578,30.31,19.682,94.828,50.581,142.658
		c1.37,2.122,2.802,2.998,5.385,2.964c11.618-0.149,23.241-0.17,34.859,0.01c2.832,0.044,4.117-0.876,5.182-3.45
		c8.678-20.978,17.429-41.926,26.386-62.785c1.167-2.718,3.182-5.542,5.583-7.164c5.692-3.844,12.595-1.232,16.082,5.619
		c9.789,19.238,19.521,38.506,29.281,57.759C179.14,147.054,184.952,158.492,191.037,170.479z M191.327,285
		c39.108-39.108,78.237-78.236,116.947-116.946c-12.663,0-26.284-0.136-39.899,0.063c-5.885,0.086-9.958-2.16-12.924-7.203
		c-3.479-5.918-7.305-11.633-10.986-17.431c-1.992-3.137-3.998-6.265-6.216-9.739c-0.898,1.487-1.551,2.521-2.158,3.579
		c-11.429,19.928-22.911,39.823-34.232,59.812c-2.687,4.744-5.804,8.561-11.756,8.367c-5.762-0.187-8.674-3.998-11.045-8.771
		c-7.66-15.426-15.513-30.756-23.302-46.116c-6.992-13.788-13.998-27.569-21.243-41.836c-0.727,1.574-1.273,2.668-1.746,3.794
		c-6.525,15.528-13.037,31.063-19.562,46.591c-2.908,6.92-5.898,8.884-13.497,8.891c-7.374,0.007-14.748-0.007-22.122,0.012
		c-1.043,0.003-2.085,0.142-2.987,0.207C113.839,207.511,152.957,246.628,191.327,285z"/>
</g>
</svg>
