<?xml version="1.0" encoding="utf-8"?>
<!-- Generator: Adobe Illustrator 16.0.0, SVG Export Plug-In . SVG Version: 6.00 Build 0)  -->
<!DOCTYPE svg PUBLIC "-//W3C//DTD SVG 1.1//EN" "http://www.w3.org/Graphics/SVG/1.1/DTD/svg11.dtd">
<svg version="1.1" id="Layer_1" xmlns="http://www.w3.org/2000/svg" xmlns:xlink="http://www.w3.org/1999/xlink" x="0px" y="0px"
	 width="409.635px" height="254.885px" viewBox="0 0 409.635 254.885" enable-background="new 0 0 409.635 254.885"
	 xml:space="preserve">
<path fill="#FFFFFF" d="M409.635,113.823c-1.066,8.424-1.85,16.896-3.259,25.263c-3.915,23.25-11.536,45.063-25.681,64.269
	c-14.23,19.32-33.283,31.949-55.549,40.051c-20.081,7.306-40.935,10.756-62.23,11.148c-18.118,0.336-36.269,0.568-54.369-0.08
	c-39.421-1.416-77.379-9.279-112.648-27.75c-29.169-15.277-51.527-37.484-67.062-66.494c-14.974-27.965-22.9-58.063-26.479-89.409
	C1.379,62.242,0.776,53.62,0,45.018c0-9.334,0-18.668,0-28.002c0.261-1.557,0.577-3.107,0.773-4.671
	C1.549,6.144,5.106,1.808,11.298,0.994c6.051-0.796,12.218-0.89,18.338-0.967c29.891-0.376,59.314,3.097,88.06,11.436
	c23.191,6.727,44.879,16.613,64.356,31.141c20.189,15.058,35.29,34.237,46.608,56.544c7.069,13.937,12.491,28.513,16.394,43.651
	c0.383,1.491,0.947,2.935,1.452,4.476c3.831-6.266,7.224-12.467,11.229-18.242c15.195-21.913,36.561-35.407,61.401-43.73
	c24.031-8.052,48.886-10.603,74.115-9.604c10.816,0.428,13.011,2.563,16.383,14.125C409.635,97.822,409.635,105.823,409.635,113.823
	z M229.517,211.524c0.651-17.584-4.9-51.664-12.049-74.248c-15.097-47.708-45.616-80.621-93.109-97.505
	C97.85,30.348,70.466,26.249,42.524,25.109c-5.68-0.232-11.378-0.034-17-0.034c0,7.39-0.24,14.424,0.042,21.437
	c1.103,27.442,5.665,54.245,15.279,80.076c14.632,39.315,40.567,67.902,79.516,84.354c22.411,9.468,45.834,14.615,69.898,17.223
	c6.941,0.752,13.921,1.141,21.932,1.779c-1.735-1.846-2.676-2.901-3.672-3.898c-29.117-29.131-58.24-58.256-87.356-87.387
	c-1.129-1.131-2.296-2.241-3.291-3.485c-3.299-4.127-3.642-9.765-0.953-14.206c2.695-4.451,7.913-7.068,13.019-5.533
	c3.014,0.906,6.014,2.877,8.274,5.12c29.318,29.117,58.502,58.37,87.724,87.584C226.938,209.142,227.997,210.09,229.517,211.524z
	 M274.194,228.849c13.744-1.154,26.443-3.646,38.832-7.709c27.665-9.076,48.218-26.094,59.432-53.447
	c6.83-16.661,10.382-34.084,11.521-52c0.316-4.965,0.049-9.967,0.049-15.045c-0.713-0.052-1.37-0.151-2.025-0.139
	c-19.148,0.336-37.97,2.826-56.181,8.966c-15.894,5.359-30.172,13.416-41.473,26.062c-12.082,13.523-19.224,29.638-23.438,47.053
	c-2.188,9.045-3.464,18.313-5.15,27.477c0.357,0.121,0.716,0.242,1.074,0.361c1.04-0.984,2.104-1.945,3.115-2.957
	c16.31-16.3,32.608-32.607,48.922-48.902c1.129-1.129,2.265-2.271,3.521-3.245c4.037-3.126,9.566-3.45,13.883-0.91
	c4.521,2.661,7.211,7.808,5.739,12.917c-0.868,3.023-2.805,6.056-5.033,8.322c-16.354,16.629-32.907,33.063-49.391,49.564
	C276.586,226.222,275.646,227.293,274.194,228.849z"/>
</svg>
