<?xml version="1.0" encoding="utf-8"?>
<!-- Generator: Adobe Illustrator 16.0.0, SVG Export Plug-In . SVG Version: 6.00 Build 0)  -->
<!DOCTYPE svg PUBLIC "-//W3C//DTD SVG 1.1//EN" "http://www.w3.org/Graphics/SVG/1.1/DTD/svg11.dtd">
<svg version="1.1" id="Layer_1" xmlns="http://www.w3.org/2000/svg" xmlns:xlink="http://www.w3.org/1999/xlink" x="0px" y="0px"
	 width="479.854px" height="409.635px" viewBox="0 0 479.854 409.635" enable-background="new 0 0 479.854 409.635"
	 xml:space="preserve">
<g>
	<path fill="#FFFFFF" d="M396.332,257.658c-14.521-22.875-29.067-45.734-43.607-68.597L309.9,213.102
		c11.709,1.071,23.45,4.825,35.181,11.218c1.545,0.842,2.97,2.275,3.925,3.771c21.442,33.558,42.797,67.173,64.2,100.756
		c7.894,12.387,9.124,25.227,1.935,38.188c-7.19,12.963-18.741,18.646-33.427,18.622c-42.255-0.064-84.511-0.022-126.766-0.022
		c-42.388-0.001-84.776,0.047-127.165-0.021c-19.918-0.032-34.742-13.152-37.001-32.617c-0.774-6.666,0.483-12.917,3.306-18.735
		l-27.632,15.513c0.028,6.162,1.109,12.452,3.382,18.875c7.997,22.594,24.105,36.124,47.867,40.277
		c1.033,0.181,2.046,0.471,3.068,0.71c89.608,0,179.216,0,268.823,0c7.677-2.459,15.856-3.932,22.94-7.551
		c28.59-14.605,40.161-52.231,24.1-80.106C424.011,300.071,409.894,279.02,396.332,257.658z"/>
	<path fill="#FFFFFF" d="M339.149,278.215c0.57-19.374-15.346-35.866-35.271-36.548c-19.35-0.661-35.856,15.179-36.643,35.165
		c-0.766,19.435,15.466,36.26,35.459,36.759C322.087,314.074,338.564,298.084,339.149,278.215z M303.115,289.594
		c-6.529-0.041-11.938-5.517-11.898-12.042c0.042-6.529,5.517-11.939,12.043-11.898c6.529,0.04,11.939,5.517,11.898,12.042
		C315.117,284.225,309.642,289.636,303.115,289.594z"/>
	<path fill="#FFFFFF" d="M219.15,325.529c-0.1-19.618-16.405-35.878-35.973-35.874c-19.734,0.004-36.269,16.676-35.974,36.272
		c0.297,19.714,16.676,35.866,36.174,35.675C203.038,361.409,219.25,345.06,219.15,325.529z M171.207,325.5
		c0.072-6.528,5.574-11.915,12.098-11.843c6.528,0.071,11.915,5.574,11.843,12.098c-0.072,6.529-5.574,11.915-12.098,11.844
		C176.521,337.527,171.135,332.025,171.207,325.5z"/>
	<path fill="#FFFFFF" d="M267.154,325.592c-0.021-6.527-5.481-11.955-12.007-11.935c-6.527,0.021-11.955,5.48-11.935,12.007
		s5.48,11.954,12.007,11.935C261.746,337.579,267.174,332.118,267.154,325.592z"/>
	<path fill="#FFFFFF" d="M363.162,325.522c-0.06-6.529-5.553-11.925-12.076-11.864c-6.53,0.06-11.925,5.553-11.865,12.077
		c0.062,6.529,5.554,11.924,12.077,11.864C357.827,337.539,363.223,332.046,363.162,325.522z"/>
	<path fill="#FFFFFF" d="M291.217,349.809c0.101,6.526,5.63,11.893,12.15,11.792c6.525-0.101,11.892-5.63,11.791-12.15
		c-0.101-6.526-5.629-11.892-12.149-11.791C296.481,337.76,291.116,343.29,291.217,349.809z"/>
	<path fill="#FFFFFF" d="M468.758,72.593l-140.061,78.63c-3.813-6.008-7.637-12.009-11.443-18.021
		c-1.195-1.887-1.955-4.394-1.977-6.622c-0.162-16.795-0.089-33.593-0.089-50.39c0-1.307,0-2.614,0-4.131
		c8.752-0.565,16.531-2.913,23.005-8.589c11.014-9.656,15.253-21.836,11.769-35.942c-3.648-14.768-13.547-23.705-28.525-26.853
		c-0.763-0.16-1.499-0.448-2.248-0.676c-42.67,0-85.34,0-128.011,0c-7.189,1.62-14.095,3.861-19.643,9.042
		c-10.659,9.953-14.729,22.09-10.88,36.202c4.021,14.746,14.022,23.413,29.089,26.148c1.685,0.307,3.39,0.502,5.434,0.799
		c0,1.517,0,2.958,0,4.398c0,16.531,0.091,33.062-0.099,49.59c-0.028,2.474-0.862,5.26-2.189,7.353
		c-30.9,48.722-61.861,97.406-92.861,146.064L0,335.753l10.813,19.263l457.944-257.09l0.281,0.502l10.814-6.071L468.758,72.593z
		 M291.187,72.378c0,7.11,0,14.295,0,21.48c0,12.398-0.252,24.804,0.151,37.188c0.124,3.785,1.313,7.962,3.28,11.187
		c4.263,6.985,8.627,13.908,13.021,20.813l-148.102,83.145c-3.07-0.01-6.184-0.164-9.35-0.483c1.296-2.098,2.179-3.566,3.099-5.012
		c20.729-32.596,41.427-65.21,62.235-97.754c2.542-3.976,3.751-8.037,3.717-12.767c-0.139-19.188-0.058-38.378-0.058-57.82
		c1.05-0.281,2.032-0.515,2.997-0.804c5.981-1.794,9.652-7.162,8.9-12.991c-0.764-5.907-5.549-10.359-11.753-10.494
		c-8.128-0.176-16.265,0.049-24.393-0.129c-5.131-0.112-8.865-2.767-10.821-7.515c-1.91-4.633-1.201-9.258,2.503-12.475
		c2.325-2.019,5.833-3.75,8.822-3.769c39.856-0.244,79.716-0.202,119.574-0.125c6.918,0.013,12.051,5.233,12.149,11.777
		c0.1,6.7-5.105,11.994-12.201,12.135c-6.93,0.138-13.863,0.035-20.796,0.041c-8.824,0.008-14.038,3.734-14.879,10.631
		C278.473,65.287,282.558,70.088,291.187,72.378z"/>
</g>
</svg>
