<svg xmlns="http://www.w3.org/2000/svg" width="438.003" height="334.991" viewBox="0 0 438.003 334.991">
  <g id="Logo_clutch" data-name="Logo clutch" transform="translate(-258.01 -96.004)">
    <path id="bg" d="M477.012,430.995l-219-83.748v-167.5L477.012,96l219,83.747v167.5Z" fill="#002d39"/>
    <g id="Clutch_logo" data-name="Clutch logo" transform="translate(337.932 222)">
      <g id="Group_2" data-name="Group 2">
        <path id="Path_4" data-name="Path 4" d="M71.882,0H84.447V78H71.882Zm56.544,53.118c0,11.937-10.106,12.889-13.112,12.889-7.511,0-8.877-6.983-8.877-11.195V24.96H93.871V54.75c0,7.394,2.337,13.5,6.434,17.566,3.619,3.6,9.041,5.563,14.915,5.563,4.165,0,10.065-1.289,13.206-4.137V78h12.565V24.96H128.426Zm37.7-46.878H153.556V24.96h-9.424V37.44h9.424V78h12.565V37.44h9.424V24.96h-9.424Zm49,55.9a15.321,15.321,0,0,1-10.313,3.8,14.677,14.677,0,0,1-15.157-15.126c0-8.752,6.214-14.857,15.157-14.857a15.706,15.706,0,0,1,10.382,3.731l1.907,1.629,8.472-8.411-2.12-1.9A27.835,27.835,0,0,0,204.8,24.024c-15.707,0-27.113,11.257-27.113,26.723,0,15.4,11.679,27.06,27.113,27.06a27.538,27.538,0,0,0,18.782-7.051l2.048-1.9-8.6-8.405Zm55.3-32.557a18.276,18.276,0,0,0-13.734-5.56c-4.165,0-8.884,1.289-12.025,4.134V0H232.089V78h12.565V48.781c0-11.937,8.538-12.886,11.544-12.886,7.511,0,7.3,6.986,7.3,11.191V78h12.565V47.153c0-7.394-1.555-13.5-5.654-17.569" fill="#fff"/>
      </g>
      <path id="Path_5" data-name="Path 5" d="M204.389,41.927A9.023,9.023,0,1,1,195.3,50.95a9.054,9.054,0,0,1,9.085-9.023" fill="#ff3d2e"/>
      <path id="Path_6" data-name="Path 6" d="M54.29,58.409a25.173,25.173,0,0,1-18.1,7.529c-14,0-24.176-10.92-24.176-25.909,0-15.057,10.178-25.977,24.176-25.977a25.461,25.461,0,0,1,18.031,7.46l1.91,1.9,8.4-8.343-1.844-1.9a36.692,36.692,0,0,0-26.5-10.985C15.571,2.184.068,18.461.068,40.1c0,21.569,15.572,37.78,36.125,37.78A36.8,36.8,0,0,0,62.76,66.821l1.844-1.9-8.331-8.477Z" fill="#fff"/>
    </g>
  </g>
</svg>
