<svg width="21" height="21" viewBox="0 0 21 21" fill="none" xmlns="http://www.w3.org/2000/svg">
<path fill-rule="evenodd" clip-rule="evenodd" d="M0.487793 10.5829C0.487793 5.07508 4.97071 0.609741 10.5002 0.609741C16.0296 0.609741 20.5126 5.07508 20.5126 10.5829C20.5126 16.0906 16.0296 20.556 10.5002 20.556C4.97071 20.556 0.487793 16.0906 0.487793 10.5829ZM7.78649 7.86276V14.6097H5.63445V7.86276H7.78649ZM7.92833 5.77549C7.92833 6.42293 7.46121 6.94102 6.71075 6.94102H6.71068H6.6967C5.97448 6.94102 5.50748 6.42296 5.50748 5.77549C5.50748 5.11346 5.98886 4.60974 6.72499 4.60974C7.46123 4.60974 7.91435 5.11345 7.92833 5.77549ZM11.1297 14.6097H8.97765L8.97769 14.6096C8.97769 14.6096 9.00594 8.49572 8.97769 7.86262H11.1297V8.81792C11.4157 8.3582 11.9277 7.70436 13.0692 7.70436C14.4851 7.70436 15.5469 8.66863 15.5469 10.741V14.6097H13.3949V11.0002C13.3949 10.0932 13.0834 9.47449 12.3047 9.47449C11.7102 9.47449 11.3561 9.89177 11.2005 10.2947C11.1437 10.4388 11.1297 10.6402 11.1297 10.8419V14.6097Z" fill="white"/>
</svg>
