<?xml version="1.0" encoding="utf-8"?>
<!-- Generator: Adobe Illustrator 21.1.0, SVG Export Plug-In . SVG Version: 6.00 Build 0)  -->
<svg version="1.1" id="Layer_1" xmlns="http://www.w3.org/2000/svg" xmlns:xlink="http://www.w3.org/1999/xlink" x="0px" y="0px"
	 viewBox="0 0 300 300" style="enable-background:new 0 0 300 300;" xml:space="preserve">
<style type="text/css">
	.st0{fill:#0A6FB6;}
</style>
<g>
	<g>
		<path class="st0" d="M77.7,271.2c-1.1,0-2.2-0.1-3.3-0.3c-14-2.2-22.5-18.3-22.8-18.9l-1.3-2.5l2.3-1.7c0.6-0.5,15.3-11,28.9-6.8
			c7.3,2.3,12.6,8.2,15.9,17.7l0.7,2l-1.5,1.5C90.5,268.2,84.1,271.2,77.7,271.2z M59,251.5c2.7,4.1,8.7,11.7,16.5,12.9
			c4.8,0.8,9.9-1.1,15-5.6c-2.6-6.3-6.2-10.2-10.9-11.6C72,244.9,63.2,249.1,59,251.5z"/>
		<path class="st0" d="M45.9,231.7c-2.2,0-4.3-0.3-6.3-1c-13.5-4.4-19.4-21.5-19.6-22.2l-0.9-2.7l2.5-1.3c0.7-0.4,16.9-8.6,29.6-2.3
			c6.8,3.4,11.2,10.1,13,20l0.4,2l-1.7,1.2C56.9,229.7,51.3,231.7,45.9,231.7z M27.3,209.2c2,4.4,6.8,12.9,14.3,15.3
			c4.7,1.5,9.9,0.4,15.6-3.2c-1.6-6.6-4.6-11-9-13.2C41.1,204.7,31.8,207.4,27.3,209.2z"/>
		<path class="st0" d="M46.4,188.5c-4.9,0-9.3-1.3-12.9-4c-11.5-8.3-11.8-26.4-11.8-27.2v-2.8l2.8-0.5c0.8-0.1,18.7-2.9,28.8,7
			c5.5,5.3,7.5,13,6.2,23l-0.3,2.1l-2,0.6C53.3,187.9,49.7,188.5,46.4,188.5z M28.4,160.2c0.6,4.9,2.5,14.4,8.9,19
			c4,2.9,9.3,3.5,15.9,1.8c0.5-6.8-1-11.9-4.5-15.3C43,160.1,33.3,159.9,28.4,160.2z"/>
		<path class="st0" d="M53.9,141c-8.4,0-14.9-2.6-19.3-7.7c-9.2-10.7-5.4-28.5-5.2-29.2l0.6-2.7l2.8,0.2c0.8,0.1,18.8,1.5,26.5,13.4
			c4.1,6.4,4.3,14.4,0.7,23.8l-0.7,1.9l-2.1,0.2C56.1,140.9,55,141,53.9,141z M35.3,108.4c-0.6,4.9-0.9,14.5,4.3,20.5
			c3.2,3.7,8.3,5.5,15,5.4c2.1-6.4,1.8-11.8-0.8-15.9C49.5,111.8,40.1,109.3,35.3,108.4z"/>
	</g>
	<g>
		<path class="st0" d="M222.3,271.2c-6.4,0-12.8-3-18.9-9l-1.5-1.5l0.7-2c3.3-9.5,8.7-15.4,15.9-17.7c13.5-4.2,28.2,6.4,28.9,6.8
			l2.3,1.7l-1.3,2.5c-0.4,0.7-8.8,16.7-22.8,18.9C224.5,271.1,223.4,271.2,222.3,271.2z M209.5,258.9c5.1,4.5,10.1,6.3,15,5.6
			c7.8-1.2,13.8-8.9,16.5-12.9c-4.2-2.5-13-6.6-20.5-4.3C215.8,248.8,212.1,252.7,209.5,258.9z"/>
		<path class="st0" d="M254.1,231.7c-5.4,0-11.1-2.1-16.9-6.3l-1.7-1.2l0.4-2c1.8-9.9,6.2-16.6,13-20c12.7-6.2,28.9,1.9,29.6,2.3
			l2.5,1.3l-0.9,2.7c-0.2,0.7-6.2,17.9-19.6,22.2C258.4,231.4,256.3,231.7,254.1,231.7z M242.8,221.3c5.7,3.6,11,4.7,15.6,3.2
			c7.5-2.4,12.3-10.9,14.3-15.3c-4.6-1.8-13.8-4.5-21-1C247.4,210.3,244.4,214.8,242.8,221.3z"/>
		<path class="st0" d="M253.6,188.5c-3.3,0-6.9-0.6-10.8-1.8l-2-0.6l-0.3-2.1c-1.3-10,0.8-17.7,6.2-23c10.2-9.9,28.1-7.1,28.8-7
			l2.8,0.5v2.8c0,0.8-0.3,18.9-11.8,27.2C262.9,187.2,258.5,188.5,253.6,188.5z M246.8,181c6.6,1.7,11.9,1.1,15.9-1.8
			c6.4-4.6,8.3-14.2,8.9-19c-4.9-0.3-14.6,0-20.3,5.5C247.8,169.1,246.3,174.3,246.8,181z"/>
		<path class="st0" d="M246.1,141c-1.1,0-2.1,0-3.2-0.1l-2.1-0.2l-0.7-1.9c-3.6-9.4-3.4-17.4,0.7-23.8c7.6-11.9,25.7-13.4,26.5-13.4
			l2.8-0.2l0.6,2.7c0.2,0.8,4,18.5-5.2,29.2C261,138.4,254.5,141,246.1,141z M245.4,134.4c6.8,0.1,11.8-1.7,15-5.4
			c5.2-6,4.8-15.7,4.3-20.5c-4.8,0.9-14.2,3.3-18.4,10C243.6,122.6,243.4,128,245.4,134.4z"/>
	</g>
	<path class="st0" d="M222.1,218.8h-55.7c-1.8,0-3.3-1.5-3.3-3.3s1.5-3.3,3.3-3.3h52.4V35.3H81.2v176.9h52.4c1.8,0,3.3,1.5,3.3,3.3
		s-1.5,3.3-3.3,3.3H77.9c-1.8,0-3.3-1.5-3.3-3.3V32.1c0-1.8,1.5-3.3,3.3-3.3H222c1.8,0,3.3,1.5,3.3,3.3v183.5
		C225.3,217.3,223.9,218.8,222.1,218.8z"/>
	<rect x="120.5" y="74.7" class="st0" width="59" height="6.6"/>
	<rect x="107.4" y="110.7" class="st0" width="85.2" height="6.6"/>
	<rect x="107.4" y="140.2" class="st0" width="85.2" height="6.6"/>
	<rect x="107.4" y="110.7" class="st0" width="85.2" height="6.6"/>
	<rect x="107.4" y="169.7" class="st0" width="85.2" height="6.6"/>
	<g>
		<path class="st0" d="M155.5,247.8c-2.4,0-4.7-1-6.4-2.6c-1.5,1.1-3.4,1.7-5.3,1.7c-3.5,0-6.6-2-8.1-4.9c-0.9,0.3-1.9,0.5-2.9,0.5
			c-4.8,0-8.7-3.7-9.1-8.4c-4.3-0.8-7.5-4.5-7.5-9c0-1.3,0.3-2.6,0.8-3.7c-2.4-1.6-3.9-4.4-3.9-7.5c0-2.4,0.9-4.5,2.4-6.2
			c-1.1-1.5-1.7-3.4-1.7-5.3c0-3.9,2.4-7.1,5.8-8.5c-0.1-0.5-0.1-1.1-0.1-1.6c0-5.2,4.5-9.4,9.7-9.1c1.2-3.7,4.6-6.3,8.7-6.3
			c1.3,0,2.5,0.3,3.6,0.8c1.6-2.5,4.5-4.2,7.6-4.2c2.6,0,4.9,1.1,6.6,2.8c1.4-0.9,3.1-1.4,4.9-1.4c4.3,0,7.8,2.9,8.8,6.9
			c5.2-0.3,9.8,3.8,9.8,9.1c0,0.6-0.1,1.3-0.2,1.9c3.5,1.2,6.1,4.6,6.1,8.6c0,1.7-0.5,3.3-1.3,4.7c2.1,1.7,3.4,4.3,3.4,7.1
			c0,3.4-1.9,6.4-4.7,8c0.4,1,0.6,2.2,0.6,3.3c0,4.6-3.4,8.3-7.7,9c0,0.1,0,0.1,0,0.2c0,5-4.1,9.1-9.1,9.1c-0.9,0-1.7-0.1-2.5-0.4
			C162.5,245.6,159.3,247.8,155.5,247.8z M149.5,237.4c0.1,0,0.2,0,0.2,0c1.2,0.1,2.3,1,2.6,2.2c0.4,1.5,1.7,2.5,3.2,2.5
			c1.8,0,3.3-1.5,3.3-3.3c0-0.2,0-0.5-0.1-0.7c-0.2-1.3,0.4-2.6,1.6-3.2c1.2-0.6,2.6-0.2,3.5,0.8c0.6,0.8,1.6,1.2,2.5,1.2
			c1.8,0,3.3-1.5,3.3-3.3c0-0.7-0.2-1.3-0.6-1.9c-0.6-0.9-0.7-2.1-0.2-3c0.4-0.8,1.1-1.3,1.9-1.5c0.7-0.2,1.4-0.1,2,0.2
			c0.4,0.2,0.9,0.3,1.4,0.3c1.8,0,3.3-1.5,3.3-3.3c0-1.1-0.5-2.1-1.4-2.7c-1.1-0.7-1.5-2.1-1.1-3.4c0.5-1.2,1.7-2,3-1.9h0.3
			c1.8,0,3.3-1.5,3.3-3.3c0-1.7-1.3-3.1-3-3.3c-1.5-0.1-2.7-1.4-2.7-2.9c0-1.1,0.7-2.2,1.7-2.7c1.2-0.5,1.9-1.7,1.9-3
			c0-1.8-1.5-3.3-3.3-3.3c-0.3,0-0.6,0-0.9,0.1c-1.2,0.3-2.4-0.2-3.1-1.2c-0.1-0.1-0.2-0.3-0.2-0.4c-0.6-1.1-0.3-2.5,0.6-3.4
			c0.7-0.6,1-1.5,1-2.4c0-1.8-1.5-3.3-3.3-3.3c-0.7,0-1.3,0.2-1.9,0.6c-1,0.7-2.4,0.7-3.4,0s-1.4-2-1.1-3.2c0.1-0.3,0.1-0.6,0.1-1
			c0-1.8-1.5-3.3-3.3-3.3c-1.2,0-2.3,0.7-2.9,1.8c-0.6,1.1-1.7,1.7-2.9,1.5c-1.2-0.1-2.2-1-2.5-2.2c-0.4-1.5-1.7-2.5-3.2-2.5
			c-1.8,0-3.2,1.4-3.3,3.2c0,1.3-0.9,2.4-2.1,2.7c-1.2,0.4-2.5-0.1-3.2-1.1c-0.6-0.9-1.6-1.4-2.7-1.4c-1.8,0-3.3,1.5-3.3,3.3
			c0,0.2,0,0.3,0.1,0.5c0.2,1.1-0.3,2.3-1.2,2.9c-0.9,0.6-2.2,0.7-3.2,0.1c-0.5-0.3-1.1-0.5-1.7-0.5c-1.8,0-3.3,1.5-3.3,3.3
			c0,1,0.4,1.7,0.8,2.1c0.8,0.9,0.9,2.2,0.3,3.3s-1.8,1.6-3,1.5c-1.9-0.3-3.7,1.3-3.7,3.2c0,1.3,0.7,2.4,1.9,3
			c1.1,0.5,1.7,1.6,1.7,2.8c-0.1,1.2-0.9,2.2-2,2.6c-1.4,0.4-2.3,1.7-2.3,3.1c0,1.7,1.3,3.1,3,3.3c1.2,0.1,2.2,1,2.6,2.1
			c0.3,1.2-0.1,2.4-1.1,3.1c-0.9,0.6-1.4,1.6-1.4,2.7c0,2.1,2,3.8,4.2,3.2c1.1-0.3,2.2,0,3,0.8s1,2,0.6,3c-0.2,0.4-0.2,0.8-0.2,1.2
			c0,1.8,1.5,3.3,3.3,3.3c1,0,1.9-0.5,2.6-1.2c0.8-1,2.2-1.4,3.4-0.9s1.9,1.7,1.8,3c0,0.1,0,0.2,0,0.3c0,1.8,1.5,3.3,3.3,3.3
			c1.3,0,2.5-0.8,3-2C147.3,238,148.4,237.4,149.5,237.4z M174.5,195.3L174.5,195.3L174.5,195.3z"/>
		<path class="st0" d="M150.3,230.9c-11.2,0-20.3-9.1-20.3-20.3s9.1-20.3,20.3-20.3s20.3,9.1,20.3,20.3
			C170.6,221.8,161.5,230.9,150.3,230.9z M150.3,196.2c-8,0-14.5,6.5-14.5,14.5s6.5,14.5,14.5,14.5s14.5-6.5,14.5-14.5
			C164.7,202.7,158.3,196.2,150.3,196.2z"/>
	</g>
	<path class="st0" d="M168.9,274c-0.6,0-1.1-0.2-1.6-0.5l-15.9-10.6l-15.9,10.6c-0.9,0.6-2,0.7-3,0.1c-0.9-0.5-1.5-1.5-1.5-2.6
		v-31.4c0-1.6,1.3-2.9,2.9-2.9c1.6,0,2.9,1.3,2.9,2.9v26l12.9-8.6c1-0.7,2.3-0.7,3.2,0l12.9,8.6v-26c0-1.6,1.3-2.9,2.9-2.9
		c1.6,0,2.9,1.3,2.9,2.9V271c0,1.1-0.6,2.1-1.5,2.6C169.8,273.9,169.3,274,168.9,274z"/>
</g>
</svg>
