<?xml version="1.0" encoding="utf-8"?>
<!-- Generator: Adobe Illustrator 21.1.0, SVG Export Plug-In . SVG Version: 6.00 Build 0)  -->
<svg version="1.1" id="Layer_1" xmlns="http://www.w3.org/2000/svg" xmlns:xlink="http://www.w3.org/1999/xlink" x="0px" y="0px"
	 viewBox="0 0 527 373" style="enable-background:new 0 0 527 373;" xml:space="preserve">
<style type="text/css">
	.st0{fill:#B2DBFB;}
	.st1{fill:#4D4D4D;}
	.st2{fill:#FFFFFF;}
</style>
<rect x="-2" y="-2" class="st0" width="532" height="378"/>
<g>
	<g>
		<path class="st1" d="M236.8,200.3H207c-1.8,0-3.3,1.5-3.3,3.3v19.9c0,1.8,1.5,3.3,3.3,3.3h8.3v3.3h13.2v-3.3h8.3
			c1.8,0,3.3-1.5,3.3-3.3v-19.9C240.1,201.8,238.6,200.3,236.8,200.3z M236.8,223.5H207v-19.9h29.8V223.5z"/>
		<rect x="245.1" y="200.3" class="st1" width="14.9" height="31.5"/>
	</g>
	<g>
		<circle class="st1" cx="234" cy="248.5" r="10.5"/>
		<path class="st1" d="M234,260.3c-7,0-21,3.5-21,10.5v5.3h42v-5.3C255,263.8,241,260.3,234,260.3z"/>
	</g>
</g>
<g>
	<g>
		<path class="st1" d="M469.8,200.3H440c-1.8,0-3.3,1.5-3.3,3.3v19.9c0,1.8,1.5,3.3,3.3,3.3h8.3v3.3h13.2v-3.3h8.3
			c1.8,0,3.3-1.5,3.3-3.3v-19.9C473.1,201.8,471.6,200.3,469.8,200.3z M469.8,223.5H440v-19.9h29.8V223.5z"/>
		<rect x="478.1" y="200.3" class="st1" width="14.9" height="31.5"/>
	</g>
	<g>
		<circle class="st1" cx="467" cy="248.5" r="10.5"/>
		<path class="st1" d="M467,260.3c-7,0-21,3.5-21,10.5v5.3h42v-5.3C488,263.8,474,260.3,467,260.3z"/>
	</g>
</g>
<g>
	<g>
		<path class="st1" d="M356.8,11.3H327c-1.8,0-3.3,1.5-3.3,3.3v19.9c0,1.8,1.5,3.3,3.3,3.3h8.3v3.3h13.2v-3.3h8.3
			c1.8,0,3.3-1.5,3.3-3.3V14.6C360.1,12.8,358.6,11.3,356.8,11.3z M356.8,34.5H327V14.7h29.8V34.5z"/>
		<rect x="365.1" y="11.3" class="st1" width="14.9" height="31.5"/>
	</g>
	<g>
		<circle class="st1" cx="354" cy="59.5" r="10.5"/>
		<path class="st1" d="M354,71.3c-7,0-21,3.5-21,10.5V87h42v-5.3C375,74.8,361,71.3,354,71.3z"/>
	</g>
</g>
<g>
	<g>
		<path class="st1" d="M356.8,261.3H327c-1.8,0-3.3,1.5-3.3,3.3v19.9c0,1.8,1.5,3.3,3.3,3.3h8.3v3.3h13.2v-3.3h8.3
			c1.8,0,3.3-1.5,3.3-3.3v-19.9C360.1,262.8,358.6,261.3,356.8,261.3z M356.8,284.5H327v-19.9h29.8V284.5z"/>
		<rect x="365.1" y="261.3" class="st1" width="14.9" height="31.5"/>
	</g>
	<g>
		<circle class="st1" cx="354" cy="309.5" r="10.5"/>
		<path class="st1" d="M354,321.3c-7,0-21,3.5-21,10.5v5.3h42v-5.3C375,324.8,361,321.3,354,321.3z"/>
	</g>
</g>
<g>
	<g>
		<path class="st1" d="M234.8,59.3H205c-1.8,0-3.3,1.5-3.3,3.3v19.9c0,1.8,1.5,3.3,3.3,3.3h8.3v3.3h13.2v-3.3h8.3
			c1.8,0,3.3-1.5,3.3-3.3V62.6C238.1,60.8,236.6,59.3,234.8,59.3z M234.8,82.5H205V62.7h29.8V82.5z"/>
		<rect x="243.1" y="59.3" class="st1" width="14.9" height="31.5"/>
	</g>
	<g>
		<circle class="st1" cx="232" cy="107.5" r="10.5"/>
		<path class="st1" d="M232,119.3c-7,0-21,3.5-21,10.5v5.3h42v-5.3C253,122.8,239,119.3,232,119.3z"/>
	</g>
</g>
<g>
	<g>
		<path class="st1" d="M469.8,52.3H440c-1.8,0-3.3,1.5-3.3,3.3v19.9c0,1.8,1.5,3.3,3.3,3.3h8.3v3.3h13.2v-3.3h8.3
			c1.8,0,3.3-1.5,3.3-3.3V55.6C473.1,53.8,471.6,52.3,469.8,52.3z M469.8,75.5H440V55.7h29.8V75.5z"/>
		<rect x="478.1" y="52.3" class="st1" width="14.9" height="31.5"/>
	</g>
	<g>
		<circle class="st1" cx="467" cy="100.5" r="10.5"/>
		<path class="st1" d="M467,112.3c-7,0-21,3.5-21,10.5v5.3h42v-5.3C488,115.8,474,112.3,467,112.3z"/>
	</g>
</g>
<path class="st2" d="M300,166.8l10.2,10.2c25.3-25.3,66.3-25.3,91.6,0l10.2-10.2C381.1,135.9,331,135.9,300,166.8z M340.7,207.5
	l15.3,15.3l15.3-15.3C362.9,199.1,349.2,199.1,340.7,207.5z M320.4,187.2l10.2,10.2c14.1-14.1,36.9-14.1,50.9,0l10.2-10.2
	C372,167.5,340.1,167.5,320.4,187.2z"/>
<g>
	<path class="st1" d="M122.1,163l-26.9,20.5c-0.4,0-0.8-0.1-1.1-0.1c-5.6,0-10.2,4.6-10.2,10.2c0,5.6,4.6,10.2,10.2,10.2
		s10.2-4.6,10.2-10.2c0-0.4,0-0.8-0.1-1.1l20.5-26.9L122.1,163z"/>
	<path class="st1" d="M94,112c-39.4,0-71.4,32-71.4,71.4c0,11,2.5,21.3,6.9,30.6H41c-4.9-8.5-7.7-18-8.1-28.1H43v-5.1H32.9
		c0.4-9.2,2.8-18,6.9-25.9l8.8,5.1l2.5-4.4l-8.8-5c2.4-3.7,5.2-7.2,8.4-10.4c3.3-3.2,6.8-6.1,10.6-8.4l5,8.7l4.4-2.6l-5-8.7
		c7.9-4.1,16.6-6.5,25.8-6.9v10.1h5.1v-10.1c9.1,0.4,17.8,2.7,25.8,6.9l-5,8.7l4.4,2.5l5-8.7c3.8,2.4,7.3,5.2,10.6,8.4
		c3.2,3.2,6,6.7,8.4,10.4l-8.7,5l2.6,4.4l8.8-5.1c4.2,7.9,6.6,16.8,6.9,25.9H145v5.1h10.1c-0.4,10-3.2,19.6-8.1,28.1h11.5
		c4.4-9.3,6.9-19.6,6.9-30.6C165.4,144,133.4,112,94,112z"/>
</g>
</svg>
