<?xml version="1.0" encoding="utf-8"?>
<!-- Generator: Adobe Illustrator 21.1.0, SVG Export Plug-In . SVG Version: 6.00 Build 0)  -->
<svg version="1.1" id="Layer_1" xmlns="http://www.w3.org/2000/svg" xmlns:xlink="http://www.w3.org/1999/xlink" x="0px" y="0px"
	 viewBox="0 0 300 300" style="enable-background:new 0 0 300 300;" xml:space="preserve">
<style type="text/css">
	.st0{fill:#0A6FB6;}
</style>
<g>
	<g>
		<rect x="146.1" y="208.3" class="st0" width="7.7" height="73.9"/>
		<path class="st0" d="M188.8,282.2h-7.7V133.1l46.2-55.7l-13.5-44.9c-0.5-1.7-1.7-3.2-3.3-4c-1.6-0.8-3.5-1.1-5.2-0.5
			c-1.7,0.5-3.2,1.7-4.1,3.5c-0.8,1.7-0.9,3.6-0.3,5.3l12,37l-30.6,21.8h-64.6L87,73.8l11.9-36.9c0.7-1.9,0.5-3.9-0.3-5.5
			c-0.8-1.7-2.3-2.9-4.1-3.5c-1.7-0.5-3.6-0.4-5.2,0.5c-1.6,0.8-2.8,2.3-3.3,4L72.6,77.4l46.2,55.7v149.1h-7.7V135.9l-47-56.6
			l14.7-48.9c1.1-3.7,3.6-6.8,7.1-8.7c3.5-1.9,7.5-2.3,11.1-1.1c3.9,1.2,6.9,3.9,8.8,7.5c1.7,3.6,2,7.7,0.7,11.5L96.2,70.9L120.1,88
			h59.7l23.9-17.1l-10.2-31.4c-1.3-3.6-1.1-7.7,0.7-11.4c1.7-3.6,4.9-6.3,8.8-7.5c3.7-1.2,7.7-0.8,11.1,1.1c3.5,1.9,6,4.9,7.1,8.7
			l14.7,48.9l-47,56.6v146.3H188.8z"/>
		<path class="st0" d="M149.9,80.1c-16.3,0-27.2-12.6-27.2-31.1s11-31.1,27.2-31.1s27.2,12.6,27.2,31.1
			C177.2,67.7,166.2,80.1,149.9,80.1z M149.9,25.7c-14.3,0-19.4,12.6-19.4,23.4s5.1,23.4,19.4,23.4s19.4-12.6,19.4-23.4
			S164.2,25.7,149.9,25.7z"/>
		<g>
			<rect x="146.1" y="122.8" class="st0" width="7.7" height="7.7"/>
			<rect x="146.1" y="146.2" class="st0" width="7.7" height="7.7"/>
			<rect x="146.1" y="169.4" class="st0" width="7.7" height="7.7"/>
		</g>
	</g>
</g>
</svg>
