<?xml version="1.0" encoding="utf-8"?>
<!-- Generator: Adobe Illustrator 21.1.0, SVG Export Plug-In . SVG Version: 6.00 Build 0)  -->
<svg version="1.1" id="Layer_1" xmlns="http://www.w3.org/2000/svg" xmlns:xlink="http://www.w3.org/1999/xlink" x="0px" y="0px"
	 viewBox="0 0 500 400" style="enable-background:new 0 0 500 400;" xml:space="preserve">
<style type="text/css">
	.st0{opacity:0.2;fill:#1A1A1A;}
	.st1{fill:#D4EBFF;}
	.st2{opacity:0.2;}
	.st3{fill:#1A1A1A;}
	.st4{fill:#34AD07;}
	.st5{fill:#161F3A;}
	.st6{fill:#235CAF;}
	.st7{fill:#1D5291;}
	.st8{fill:#DDA57A;}
	.st9{fill:#F6B58A;}
	.st10{fill:#FFC997;}
	.st11{fill:#E0A67E;}
	.st12{fill:#FAFFFF;}
	.st13{fill:#E9B088;}
	.st14{fill:#593631;}
	.st15{fill:#3A3533;}
	.st16{fill:#323742;}
	.st17{fill:#D1D1D1;}
	.st18{fill:#4A5256;}
	.st19{fill:#B4B9BF;}
	.st20{fill:#3E4452;}
	.st21{fill:#2A2A2A;}
	.st22{fill:#3D3D3D;}
	.st23{fill:#AEACB3;}
	.st24{fill:#CDCED3;}
	.st25{fill:#25540A;}
	.st26{fill:#1D3D09;}
	.st27{fill:#A56E49;}
	.st28{fill:#BA835D;}
	.st29{fill:#325E15;}
	.st30{fill:#996644;}
	.st31{fill-rule:evenodd;clip-rule:evenodd;fill:#AEACB3;}
	.st32{fill-rule:evenodd;clip-rule:evenodd;fill:#FFFFFF;}
	.st33{fill:#2E2F30;}
	.st34{fill:#D19D79;}
	.st35{fill:#7A5513;}
	.st36{fill:#6B470E;}
	.st37{fill:#E2A983;}
	.st38{fill:#DB9B71;}
	.st39{fill:#CE8A28;}
	.st40{fill:#DDA03E;}
	.st41{fill:none;stroke:#161412;stroke-width:0.305;stroke-miterlimit:10;}
	.st42{fill:#3A150A;}
	.st43{fill:#AAA9A9;}
	.st44{fill-rule:evenodd;clip-rule:evenodd;fill:#808080;}
	.st45{fill:#666666;}
	.st46{fill:#808080;}
	.st47{fill:#49190E;}
</style>
<g>
	<path class="st0" d="M309.8,141.4c-2.9-14.9-15.9-26-31.6-26c-5,0-9.9,1.2-14.1,3.2c-5.9-4.7-13.3-7.4-21.4-7.4
		c-13.3,0-24.8,7.5-30.5,18.5c-13.9,1.4-24.6,13.2-24.6,27.4c0,15.1,12.3,27.6,27.6,27.6h59.7c1.8,0,3.5-0.2,5.2-0.6h28.2
		c11.8,0,21.5-9.6,21.5-21.5C329.8,151.4,321,142.2,309.8,141.4z"/>
	<path class="st1" d="M301.4,136.5c-2.9-14.9-15.9-26-31.6-26c-5,0-9.9,1.2-14.1,3.2c-5.9-4.7-13.3-7.4-21.4-7.4
		c-13.3,0-24.8,7.5-30.5,18.5c-13.9,1.4-24.6,13.2-24.6,27.4c0,15.1,12.3,27.6,27.6,27.6h59.7c1.8,0,3.5-0.2,5.2-0.6h28.2
		c11.8,0,21.5-9.6,21.5-21.5C321.4,146.5,312.6,137.3,301.4,136.5z"/>
	<g class="st2">
		<path class="st3" d="M259.4,138l-2.5-4.2c-0.3-0.5-0.1-1.3,0.5-1.6l2-1.1c-5.4-2.3-11.8-2.2-17.3,1.1s-8.6,8.8-9.2,14.7l2-1.1
			c0.6-0.3,1.4-0.2,1.7,0.3l2.5,4.2c0.3,0.5,0.1,1.3-0.5,1.6l-4.7,2.8c0.4,1.1,0.9,2.4,1.6,3.6c2.2,3.8,5.6,6.6,9.4,8l-0.8-1.3
			c-0.3-0.6-0.2-1.4,0.4-1.8l23.4-13.8c0.6-0.3,1.4-0.1,1.7,0.4l0.8,1.3c0.5-4-0.2-8.3-2.4-12.1c-0.6-1.1-1.4-2.2-2.3-3.2l-4.7,2.6
			C260.4,138.7,259.6,138.5,259.4,138z M247.6,139.3c-0.3-0.5-0.1-1.3,0.5-1.6l5.3-3.1c0.6-0.3,1.4-0.2,1.7,0.3l2.5,4.2
			c0.3,0.5,0.1,1.3-0.5,1.6l-5.3,3.1c-0.6,0.3-1.4,0.2-1.7-0.3L247.6,139.3z M238.5,144.6c-0.3-0.5-0.1-1.3,0.5-1.6l5.3-3.1
			c0.6-0.3,1.4-0.2,1.7,0.3l2.5,4.2c0.3,0.5,0.1,1.3-0.5,1.6l-5.3,3.1c-0.6,0.3-1.4,0.2-1.7-0.3L238.5,144.6z M248.8,155.5
			c0.3,0.5,0.1,1.3-0.5,1.6l-5.3,3.2c-0.6,0.3-1.4,0.2-1.7-0.3l-2.5-4.2c-0.3-0.5-0.1-1.3,0.5-1.6l5.3-3.1c0.6-0.3,1.4-0.2,1.7,0.3
			L248.8,155.5z M257.8,150.2c0.3,0.5,0.1,1.3-0.5,1.6l-5.3,3.1c-0.6,0.3-1.4,0.2-1.7-0.3l-2.5-4.2c-0.3-0.5-0.1-1.3,0.5-1.6
			l5.3-3.1c0.6-0.3,1.4-0.2,1.7,0.3L257.8,150.2z M264.4,140.5l2.5,4.2c0.3,0.5,0.1,1.3-0.5,1.6l-5.3,3.1c-0.6,0.3-1.4,0.2-1.7-0.3
			l-2.5-4.2c-0.3-0.5-0.1-1.3,0.5-1.6l5.3-3.1C263.4,139.9,264.1,140,264.4,140.5z"/>
		<path class="st3" d="M261.4,164.5c3.2-1.9,5.6-4.5,7.2-7.5l-17.2,10.1C254.7,167.3,258.2,166.4,261.4,164.5z"/>
	</g>
	<g>
		<path class="st4" d="M258,137.2l-2.5-4.2c-0.3-0.5-0.1-1.3,0.5-1.6l2-1.1c-5.4-2.3-11.8-2.2-17.3,1.1c-5.5,3.3-8.6,8.8-9.2,14.7
			l2-1.1c0.6-0.3,1.4-0.2,1.7,0.3l2.5,4.2c0.3,0.5,0.1,1.3-0.5,1.6l-4.7,2.8c0.4,1.1,0.9,2.4,1.6,3.6c2.2,3.8,5.6,6.6,9.4,8
			l-0.8-1.3c-0.3-0.6-0.2-1.4,0.4-1.8l23.4-13.8c0.6-0.3,1.4-0.1,1.7,0.4l0.8,1.3c0.5-4-0.2-8.3-2.4-12.1c-0.6-1.1-1.4-2.2-2.3-3.2
			l-4.7,2.6C259,137.8,258.2,137.7,258,137.2z M246.1,138.4c-0.3-0.5-0.1-1.3,0.5-1.6l5.3-3.1c0.6-0.3,1.4-0.2,1.7,0.3l2.5,4.2
			c0.3,0.5,0.1,1.3-0.5,1.6l-5.3,3.1c-0.6,0.3-1.4,0.2-1.7-0.3L246.1,138.4z M237.1,143.8c-0.3-0.5-0.1-1.3,0.5-1.6l5.3-3.1
			c0.6-0.3,1.4-0.2,1.7,0.3l2.5,4.2c0.3,0.5,0.1,1.3-0.5,1.6l-5.3,3.1c-0.6,0.3-1.4,0.2-1.7-0.3L237.1,143.8z M247.4,154.6
			c0.3,0.5,0.1,1.3-0.5,1.6l-5.3,3.2c-0.6,0.3-1.4,0.2-1.7-0.3l-2.5-4.2c-0.3-0.5-0.1-1.3,0.5-1.6l5.3-3.1c0.6-0.3,1.4-0.2,1.7,0.3
			L247.4,154.6z M256.4,149.4c0.3,0.5,0.1,1.3-0.5,1.6l-5.3,3.1c-0.6,0.3-1.4,0.2-1.7-0.3l-2.5-4.2c-0.3-0.5-0.1-1.3,0.5-1.6
			l5.3-3.1c0.6-0.3,1.4-0.2,1.7,0.3L256.4,149.4z M263,139.7l2.5,4.2c0.3,0.5,0.1,1.3-0.5,1.6l-5.3,3.1c-0.6,0.3-1.4,0.2-1.7-0.3
			l-2.5-4.2c-0.3-0.5-0.1-1.3,0.5-1.6l5.3-3.1C262,139,262.7,139.1,263,139.7z"/>
		<path class="st4" d="M260,163.7c3.2-1.9,5.6-4.5,7.2-7.5L250,166.3C253.3,166.5,256.8,165.6,260,163.7z"/>
	</g>
	<g>
		<g>
			<circle class="st0" cx="250.6" cy="194.8" r="4.5"/>
			<circle class="st1" cx="249.2" cy="193.4" r="4.5"/>
		</g>
		<g>
			<circle class="st0" cx="250.6" cy="208.4" r="4.5"/>
			<circle class="st1" cx="249.2" cy="207" r="4.5"/>
		</g>
		<g>
			<circle class="st0" cx="250.6" cy="222.1" r="4.5"/>
			<circle class="st1" cx="249.2" cy="220.6" r="4.5"/>
		</g>
	</g>
	<g>
		<g>
			
				<ellipse transform="matrix(0.7644 -0.6447 0.6447 0.7644 11.5275 247.3856)" class="st0" cx="344.3" cy="107.9" rx="4.5" ry="4.5"/>
			
				<ellipse transform="matrix(0.7644 -0.6447 0.6447 0.7644 12.8558 247.0244)" class="st1" cx="344.5" cy="105.9" rx="4.5" ry="4.5"/>
		</g>
		<g>
			
				<ellipse transform="matrix(0.7644 -0.6447 0.6447 0.7644 3.4179 242.7439)" class="st0" cx="333.9" cy="116.7" rx="4.5" ry="4.5"/>
			
				<ellipse transform="matrix(0.7644 -0.6447 0.6447 0.7644 4.7461 242.3826)" class="st1" cx="334.1" cy="114.7" rx="4.5" ry="4.5"/>
		</g>
		<g>
			
				<ellipse transform="matrix(0.7644 -0.6447 0.6447 0.7644 -4.6918 238.1021)" class="st0" cx="323.5" cy="125.5" rx="4.5" ry="4.5"/>
			
				<ellipse transform="matrix(0.7644 -0.6447 0.6447 0.7644 -3.3635 237.7409)" class="st1" cx="323.6" cy="123.5" rx="4.5" ry="4.5"/>
		</g>
	</g>
	<g>
		<g>
			
				<ellipse transform="matrix(0.6877 -0.726 0.726 0.6877 -27.3559 145.8934)" class="st0" cx="155.9" cy="104.7" rx="4.5" ry="4.5"/>
			
				<ellipse transform="matrix(0.6877 -0.726 0.726 0.6877 -28.0212 144.4549)" class="st1" cx="153.9" cy="104.8" rx="4.5" ry="4.5"/>
		</g>
		<g>
			
				<ellipse transform="matrix(0.6877 -0.726 0.726 0.6877 -31.0668 155.9913)" class="st0" cx="165.8" cy="114.1" rx="4.5" ry="4.5"/>
			
				<ellipse transform="matrix(0.6877 -0.726 0.726 0.6877 -31.7321 154.5529)" class="st1" cx="163.8" cy="114.2" rx="4.5" ry="4.5"/>
		</g>
		<g>
			
				<ellipse transform="matrix(0.6877 -0.726 0.726 0.6877 -34.7777 166.0893)" class="st0" cx="175.7" cy="123.5" rx="4.5" ry="4.5"/>
			
				<ellipse transform="matrix(0.6877 -0.726 0.726 0.6877 -35.443 164.6509)" class="st1" cx="173.7" cy="123.5" rx="4.5" ry="4.5"/>
		</g>
	</g>
</g>
<g>
	<path class="st5" d="M231.2,326.2c-4.4-4-5.6-10.4-8.4-22.9c-0.5-2-1.7-8.1-2.2-16.4c-0.6-10.1-0.9-15.2,0.7-18.4
		c6.8-13.3,46.4-14.9,55.9,1.3c2.5,4.2,0.7,14.3-2.7,34.6c-2.9,17-4.4,19.6-6.4,21.7C259.4,334.9,240.8,335,231.2,326.2z"/>
	<path class="st6" d="M262.3,317.9c0.6-16.1-1.4-31-1.9-34.9c-0.1-0.7-0.4-1.3-1-1.7c-5.1-4.1-10.6-3.7-10.6-3.7s-5.5-0.5-10.5,3.6
		c-0.6,0.5-0.9,1.1-1,1.9c-0.5,4-2,18.8-1.4,34.9C236,317.9,246.9,321.3,262.3,317.9z"/>
	<g>
		<path class="st7" d="M248.9,278.3c4.3,0,8.4,2.3,11.5,4.7c0-0.1-0.1-0.2-0.1-0.3c-0.1-0.7-0.4-1.3-1-1.7
			c-5.1-4.2-10.6-3.7-10.6-3.7s-5.5-0.5-10.5,3.7c-0.6,0.5-0.9,1.1-1,1.9c0,0.1,0,0.2-0.1,0.3C240.4,280.6,244.4,278.3,248.9,278.3z
			"/>
	</g>
	<path class="st7" d="M254,278.5c0-0.2-0.1-0.4-0.1-0.6c-2.9-1-5.1-0.7-5.1-0.7s-2.1-0.2-5,0.7c-0.1,0.2-0.1,0.4-0.1,0.6
		c0,1.6,2.3,2.9,5.2,2.9C251.7,281.4,254,280.1,254,278.5z"/>
	<path class="st8" d="M245.7,278c-0.2,1.1,0.5,1.5,1.5,1.9c0.7,0.2,1.4,0.3,2.2,0.3c0.7,0,1.3-0.1,1.9-0.3c1.1-0.3,1.8-0.8,1.6-1.9
		l-0.4-2.9h-6.4L245.7,278z"/>
	<path class="st9" d="M253,278l-0.4-2.8h-6.4l-0.2,1.5C247.9,277.5,250.4,278,253,278z"/>
	<path class="st8" d="M239.7,260.2c0,0-1.5-3.3-3.6-1.7c-1.9,1.5,0.3,9.6,3.4,7.1L239.7,260.2z"/>
	<path class="st9" d="M239.1,260.5c0,0-1.1-2.7-2.6-1.4c-1.3,1.1,0.3,7.2,2.5,5.1L239.1,260.5z"/>
	<path class="st10" d="M237.6,262c0,0.5,0.4,0.8,0.8,0.7c0.5-0.1,0.8-0.4,0.8-0.8s-0.4-0.8-0.8-0.7
		C237.9,261.2,237.6,261.6,237.6,262z"/>
	<path class="st11" d="M236.8,259.4c-0.8,0.7-0.6,3.3,0.2,4.7c-1-1.3-1.4-4.1-0.5-4.9c0.6-0.6,1.2-0.4,1.6,0
		C237.7,259,237.3,259,236.8,259.4z"/>
	<path class="st8" d="M261.9,258.5c-2.1-1.6-3.6,1.7-3.6,1.7l0.2,5.4C261.6,268.2,263.8,259.9,261.9,258.5z"/>
	<path class="st8" d="M260.2,253c0.7,2.1,1.1,5,1.7,7.7c0.5,2.7,2,11.5-6,14.6c-7.9,3.2-15.2-1.5-16.7-7.2
		c-1.7-6.4-0.8-10.4,0.5-14.6c1.9-5.5,6.3-7.3,10.9-7.4C255,246.2,258.7,248.4,260.2,253z"/>
	<path class="st12" d="M245.3,268.2c0.3,1.3,1.6,4.7,5.2,4.8c3.9,0.1,4.7-5,4.7-5C249.5,269.6,245.3,268.2,245.3,268.2z"/>
	<path class="st13" d="M250.7,261.8c0,0,0.1,3.2,1.8,3.6c0,0-0.5,1.6-1.8,1.5c0,0,0.5-0.2,1-1.3
		C251.7,265.6,250.3,264.4,250.7,261.8z"/>
	<g>
		<g>
			<g>
				<path class="st8" d="M224.2,302.7c-1.2-9,6.3-16.3,7.8-17.8l4.5,8c-2.8,2.6-5.7,7.1-5.4,9.3c0.1,0.7,1,1.7,2.4,2.6
					c6.3,4,11.3,4.1,11.4,4.1l0.5,4.7l-0.5-4.7l1,9.4c-0.3,0-6.7,0-14.7-5.1c-3.4-2.2-5.2-4.7-6.1-7.1
					C224.6,304.8,224.3,303.6,224.2,302.7z"/>
			</g>
		</g>
	</g>
	<path class="st14" d="M264.7,255.4c-1.1-4.3-4.7-14.2-14.2-14.2c-9.6,0-13.1,9.9-14.2,14.2c-1.1,4.3-1.8,10.1,0.5,13.6
		c2.3,3.5,7.6,4.6,7.6,4.6s-1.7-1.9-3.1-6.7c-1.4-4.8-1.1-9.2-0.2-10.1c0.4-0.3,1.2-0.2,2.3,0.1c0.1,0,0.6-0.6,0.6-0.6l0.2,0.8
		c0.1,0,0.1,0,0.2,0l0.8-1.2c0,0,0.4,1.5,0.5,1.6c1.4,0.3,3.1,0.7,4.8,0.7c4.6-0.1,8.5-2.2,9.5-1.4c0.9,0.9,1.2,5.3-0.2,10.1
		c-1.4,4.8-3.1,6.7-3.1,6.7s5.3-1.1,7.6-4.6C266.5,265.5,265.8,259.7,264.7,255.4z"/>
	<path class="st6" d="M226.8,285.8c-1,2.7,3.4,9.3,8.5,8.5c2.2-0.4,3.4-2.8,5.6-7.3c1.7-3.5,3.4-6.8,2.3-7.9
		c-0.9-0.9-2.6,0.4-11.3,3.9C228.1,284.5,227.2,284.8,226.8,285.8z"/>
	<g>
		<g>
			<g>
				<path class="st8" d="M273.7,306.8c-1,2.4-2.7,5-6.1,7.1c-7.9,5.1-14.4,5.1-14.7,5.1l1-9.4l-0.5,4.7l0.5-4.7
					c0.1,0,5.1-0.1,11.4-4.1c1.4-0.9,2.3-1.9,2.4-2.6c0.3-2.2-2.6-6.7-5.4-9.3l4.5-8c1.5,1.4,9,8.8,7.8,17.8
					C274.5,304.3,274.2,305.5,273.7,306.8z"/>
			</g>
		</g>
	</g>
	<path class="st6" d="M272,287.9c1,3.2-3.4,11.3-8.5,10.3c-2.2-0.5-3.4-3.3-5.6-8.9c-1.7-4.2-3.4-8.2-2.3-9.6
		c0.9-1,2.6,0.5,11.3,4.8C270.7,286.3,271.6,286.6,272,287.9z"/>
	<g>
		<path class="st15" d="M248.5,261.8c-0.3-0.6-0.6-1.1-1.1-1.5c-0.2-0.2-0.5-0.3-0.8-0.4c-0.2-0.1-0.3-0.1-0.5-0.1
			c-0.2,0-0.3,0-0.5,0c-0.3,0-0.6,0.1-0.9,0.2s-0.5,0.3-0.7,0.5c-0.5,0.5-0.7,1-1,1.5c-0.1-0.6,0-1.2,0.4-1.9
			c0.2-0.3,0.5-0.6,0.8-0.7c0.4-0.2,0.8-0.3,1.2-0.3c0.5-0.1,0.9,0,1.4,0.1c0.4,0.1,0.8,0.3,1,0.7
			C248.4,260.5,248.6,261.1,248.5,261.8z"/>
	</g>
	<g>
		<path class="st15" d="M258,261.6c-0.3-0.5-0.6-1-1-1.4c-0.5-0.3-1-0.5-1.6-0.4c-0.3,0-0.6,0.1-0.8,0.2s-0.5,0.3-0.7,0.5
			c-0.4,0.4-0.7,0.9-1,1.4c-0.1-0.6,0-1.1,0.3-1.7c0.2-0.3,0.5-0.5,0.8-0.7c0.3-0.2,0.7-0.3,1.2-0.3c0.8-0.1,1.7,0.2,2.2,0.7
			C258,260.5,258.2,261.1,258,261.6z"/>
	</g>
	<path class="st16" d="M260.7,328.2h-23.3c-2.3,0-4.2-1.9-4.2-4.2v0c0-2.3,1.9-4.2,4.2-4.2h23.3c2.3,0,4.2,1.9,4.2,4.2v0
		C264.9,326.3,263,328.2,260.7,328.2z"/>
	<g>
		<rect x="191.5" y="312.4" class="st17" width="118.6" height="3.4"/>
		<rect x="198.2" y="316.1" class="st18" width="105.6" height="5.2"/>
		<rect x="299.1" y="321.3" class="st18" width="4.6" height="64.1"/>
		<rect x="198.2" y="321.3" class="st18" width="4.6" height="64.1"/>
	</g>
	<g>
		<g>
			<path class="st17" d="M268.7,368.5h-4.1c0-6.4-6.5-11.7-14.4-11.7c-7.9,0-14.4,5.4-14.4,11.7h-4.4c0-8.5,8.5-15.5,18.8-15.5
				C260.2,353,268.7,359.9,268.7,368.5z"/>
		</g>
		<rect x="247.1" y="330.6" class="st19" width="4.1" height="30.4"/>
		<rect x="226.7" y="331.2" class="st17" width="45.2" height="3.6"/>
		<rect x="229.9" y="327.5" class="st5" width="37.9" height="4.4"/>
		<ellipse class="st5" cx="233.1" cy="368.5" rx="4.4" ry="4"/>
		<ellipse class="st5" cx="233.1" cy="368.5" rx="2.2" ry="2"/>
		<ellipse class="st5" cx="266.5" cy="368.5" rx="4.4" ry="4"/>
		<ellipse class="st5" cx="266.5" cy="368.5" rx="2.2" ry="2"/>
	</g>
	<g>
		<g>
			<path class="st20" d="M248.3,344.5c2.7-14.3,2-17.7,0-20c-0.4-0.4-2.6-3-5.9-2.9c-2.4,0-4.9,1.4-5.9,3.5c-1,2-0.3,4.1,0,5.3
				c1.5,5.4-0.3,5.4,0.6,15.3c0.4,4.4,1.3,9.7,1.9,14.4h7C246.9,351.9,248.3,344.5,248.3,344.5z"/>
			<path class="st21" d="M239.5,370.4c-0.5,2.2-1.2,3.5-1.2,3.5c-0.8,1.4-1.3,1.7-1.8,2.9c-0.2,0.6-0.8,2.3,0,3.5
				c0.7,1.1,2.3,1.1,5.3,1.2c3.2,0,5.1,0.1,5.9-1.2c0.8-1.2,0.2-3,0-3.5c-0.5-1.4-1.1-1.6-1.8-2.9c-0.2-0.4-0.6-1.5-0.6-3.5
				c0-3.2,0.3-6.8,0.7-10.4h-7C239.6,364.4,239.9,368.3,239.5,370.4z"/>
			<path class="st22" d="M237.3,380.5c-0.2-0.7,2.3-2.1,4.9-2.1c2.6,0,5.1,1.4,4.9,2.1c-0.2,0.9-4.6,0.7-5.8,0.7
				C239.6,381.2,237.5,381.1,237.3,380.5z"/>
			<path class="st22" d="M241.6,369.1c-0.2,1.2-0.4,1.9-0.4,1.9c-0.2,0.8-0.4,0.9-0.6,1.6c-0.1,0.3-0.3,1.2,0,1.9
				c0.2,0.6,0.7,0.6,1.7,0.6c1,0,1.6,0,1.9-0.6c0.3-0.7,0.1-1.6,0-1.9c-0.2-0.7-0.4-0.8-0.6-1.6c-0.1-0.2-0.2-0.8-0.2-1.9
				c0-1.7,0.1-3.7,0.2-5.5h-2.3C241.6,365.9,241.7,367.9,241.6,369.1z"/>
		</g>
		<g>
			<path class="st20" d="M249.8,344.5c-2.7-14.3-2-17.7,0-20c0.4-0.4,2.6-3,5.9-2.9c2.4,0,4.9,1.4,5.9,3.5c1,2,0.3,4.1,0,5.3
				c-1.5,5.4,0.3,5.4-0.6,15.3c-0.4,4.4-1.3,9.7-1.9,14.4h-7C251.2,351.9,249.8,344.5,249.8,344.5z"/>
			<path class="st21" d="M258.6,370.4c0.5,2.2,1.2,3.5,1.2,3.5c0.8,1.4,1.3,1.7,1.8,2.9c0.2,0.6,0.8,2.3,0,3.5
				c-0.7,1.1-2.3,1.1-5.3,1.2c-3.2,0-5.1,0.1-5.9-1.2c-0.8-1.2-0.2-3,0-3.5c0.5-1.4,1.1-1.6,1.8-2.9c0.2-0.4,0.6-1.5,0.6-3.5
				c0-3.2-0.3-6.8-0.7-10.4h7C258.5,364.4,258.2,368.3,258.6,370.4z"/>
			<path class="st22" d="M260.7,380.5c0.2-0.7-2.3-2.1-4.9-2.1c-2.6,0-5.1,1.4-4.9,2.1c0.2,0.9,4.6,0.7,5.8,0.7
				C258.5,381.2,260.6,381.1,260.7,380.5z"/>
			<path class="st22" d="M256.5,369.1c0.2,1.2,0.4,1.9,0.4,1.9c0.2,0.8,0.4,0.9,0.6,1.6c0.1,0.3,0.3,1.2,0,1.9
				c-0.2,0.6-0.7,0.6-1.7,0.6c-1,0-1.6,0-1.9-0.6c-0.3-0.7-0.1-1.6,0-1.9c0.2-0.7,0.4-0.8,0.6-1.6c0.1-0.2,0.2-0.8,0.2-1.9
				c0-1.7-0.1-3.7-0.2-5.5h2.3C256.4,365.9,256.3,367.9,256.5,369.1z"/>
		</g>
	</g>
	<g>
		<rect x="228.8" y="309.8" class="st23" width="41" height="2.1"/>
		<polyline class="st24" points="230.3,311.2 267.7,311.2 272.7,287.2 227.4,287.2 230.3,310.5 		"/>
	</g>
</g>
<g>
	<path class="st5" d="M51.4,128.4c-4.4-4-5.6-10.4-8.4-22.9c-0.5-2-1.7-8.1-2.2-16.4c-0.6-10.1-0.9-15.2,0.7-18.4
		c6.8-13.3,46.4-14.9,55.9,1.3c2.5,4.2,0.7,14.3-2.7,34.6c-2.9,17-4.4,19.6-6.4,21.7C79.5,137.1,61,137.2,51.4,128.4z"/>
	<g>
		<path class="st25" d="M83.9,119.4c0.6-16.1-1.4-31-1.9-34.9c-0.1-0.7-0.4-1.3-1-1.7c-5.1-4.1-10.6-3.7-10.6-3.7s-5.5-0.5-10.5,3.6
			c-0.6,0.5-0.9,1.1-1,1.9c-0.5,4-2,18.8-1.4,34.9C57.6,119.4,68.5,122.8,83.9,119.4z"/>
		<g>
			<path class="st26" d="M70.5,79.7c4.3,0,8.4,2.3,11.5,4.7c0-0.1-0.1-0.2-0.1-0.3c-0.1-0.7-0.4-1.3-1-1.7
				c-5.1-4.2-10.6-3.7-10.6-3.7s-5.5-0.5-10.5,3.7c-0.6,0.5-0.9,1.1-1,1.9c0,0.1,0,0.2-0.1,0.3C62,82,66,79.7,70.5,79.7z"/>
		</g>
		<path class="st26" d="M75.6,80c0-0.2-0.1-0.4-0.1-0.6c-2.9-1-5.1-0.7-5.1-0.7s-2.1-0.2-5,0.7c-0.1,0.2-0.1,0.4-0.1,0.6
			c0,1.6,2.3,2.9,5.2,2.9C73.3,82.9,75.6,81.6,75.6,80z"/>
		<path class="st27" d="M67.3,79.5c-0.2,1.1,0.5,1.5,1.5,1.9c0.7,0.2,1.4,0.3,2.2,0.3c0.7,0,1.3-0.1,1.9-0.3
			c1.1-0.3,1.8-0.8,1.6-1.9l-0.4-2.9h-6.4L67.3,79.5z"/>
		<path class="st28" d="M74.5,79.5l-0.4-2.8h-6.4l-0.2,1.5C69.5,79,71.9,79.4,74.5,79.5z"/>
		<g>
			<g>
				<g>
					<path class="st29" d="M45.8,104.1c-1.2-9,6.3-16.3,7.8-17.8l4.5,8c-2.8,2.6-5.7,7.1-5.4,9.3c0.1,0.7,1,1.7,2.4,2.6
						c6.3,4,11.3,4.1,11.4,4.1L67,115l-0.5-4.7l1,9.4c-0.3,0-6.7,0-14.7-5.1c-3.4-2.2-5.2-4.7-6.1-7.1
						C46.2,106.3,45.9,105.1,45.8,104.1z"/>
				</g>
			</g>
		</g>
		<path class="st25" d="M48.4,87.3c-1,2.7,3.4,9.3,8.5,8.5c2.2-0.4,3.4-2.8,5.6-7.3c1.7-3.5,3.4-6.8,2.3-7.9
			c-0.9-0.9-2.6,0.4-11.3,3.9C49.7,86,48.8,86.3,48.4,87.3z"/>
		<g>
			<g>
				<g>
					<path class="st29" d="M95.3,108.3c-1,2.4-2.7,5-6.1,7.1c-7.9,5.1-14.4,5.1-14.7,5.1l1-9.4l-0.5,4.7l0.5-4.7
						c0.1,0,5.1-0.1,11.4-4.1c1.4-0.9,2.3-1.9,2.4-2.6c0.3-2.2-2.6-6.7-5.4-9.3l4.5-8c1.5,1.4,9,8.8,7.8,17.8
						C96.1,105.8,95.8,106.9,95.3,108.3z"/>
				</g>
			</g>
		</g>
		<path class="st25" d="M93.6,89.3c1,3.2-3.4,11.3-8.5,10.3c-2.2-0.5-3.4-3.3-5.6-8.9c-1.7-4.2-3.4-8.2-2.3-9.6
			c0.9-1,2.6,0.5,11.3,4.8C92.3,87.8,93.2,88.1,93.6,89.3z"/>
		<g>
			<path class="st30" d="M60.3,60.8c0,0-1.6-3.4-3.7-1.7c-1.9,1.5,0.3,9.8,3.5,7.2L60.3,60.8z"/>
			<path class="st27" d="M59.7,61.2c0,0-1.1-2.8-2.6-1.4c-1.3,1.1,0.3,7.3,2.5,5.2L59.7,61.2z"/>
			<path class="st28" d="M58.1,62.7c0,0.5,0.4,0.8,0.9,0.7c0.5-0.1,0.8-0.4,0.8-0.9s-0.4-0.8-0.9-0.7C58.5,61.8,58.1,62.2,58.1,62.7
				z"/>
			<path class="st28" d="M57.4,60c-0.8,0.7-0.6,3.3,0.2,4.8c-1-1.3-1.4-4.2-0.5-4.9c0.6-0.6,1.2-0.4,1.6,0
				C58.3,59.6,57.8,59.6,57.4,60z"/>
			<path class="st30" d="M83,59.1c-2.1-1.7-3.7,1.7-3.7,1.7l0.2,5.5C82.6,68.9,84.8,60.6,83,59.1z"/>
			<path class="st27" d="M80,53.5c0.6,2.1,1.1,5.1,1.6,7.9c0.5,2.7,1.9,11.7-5.7,14.9c-7.6,3.3-14.7-1.5-16.1-7.4
				c-1.7-6.6-0.8-10.6,0.5-14.8c1.8-5.6,6-7.5,10.5-7.5C75,46.5,78.6,48.8,80,53.5z"/>
			<path class="st12" d="M66.1,69c0.3,1.3,1.7,4.8,5.3,4.9c4,0.1,4.8-5.1,4.8-5.1C70.3,70.4,66.1,69,66.1,69z"/>
			<path class="st28" d="M71.5,62.4c0,0,0.1,3.3,1.8,3.7c0,0-0.5,1.6-1.8,1.6c0,0,0.5-0.2,1-1.3C72.5,66.4,71.1,65.1,71.5,62.4z"/>
			<g>
				<path class="st15" d="M68.9,55.1c-1,0.1-1.9,0.1-2.8,0.2c-0.5,0.1-0.9,0.2-1.3,0.3c-0.4,0.1-0.8,0.3-1.3,0.6
					c0.2-0.5,0.5-0.9,1-1.2c0.5-0.3,0.9-0.5,1.4-0.6c0.5-0.1,1-0.1,1.6,0.1C68,54.7,68.5,54.9,68.9,55.1z"/>
			</g>
			<g>
				<path class="st15" d="M74.1,55.7c0.3-0.3,0.7-0.6,1.1-0.7c0.5-0.2,0.9-0.2,1.4-0.2s0.9,0.2,1.3,0.5c0.4,0.2,0.7,0.6,1,1
					c-0.5-0.1-0.9-0.3-1.2-0.3c-0.4-0.1-0.7-0.2-1.1-0.2C75.8,55.7,75,55.7,74.1,55.7z"/>
			</g>
			<g>
				<g>
					<path class="st15" d="M69.3,61.7c-0.3-0.6-0.6-1.1-1.1-1.5c-0.2-0.2-0.5-0.3-0.8-0.4c-0.2-0.1-0.3-0.1-0.5-0.1
						c-0.2,0-0.3,0-0.5,0c-0.3,0-0.6,0.1-0.9,0.2c-0.3,0.1-0.5,0.3-0.7,0.5c-0.5,0.5-0.7,1-1,1.6c-0.1-0.6,0-1.3,0.4-1.9
						c0.2-0.3,0.5-0.6,0.9-0.7c0.4-0.2,0.8-0.3,1.3-0.3c0.5-0.1,0.9,0,1.4,0.1c0.4,0.1,0.8,0.3,1,0.7C69.2,60.4,69.3,61.1,69.3,61.7
						z"/>
				</g>
			</g>
			<g>
				<g>
					<path class="st15" d="M79,61.5c-0.3-0.5-0.6-1-1-1.4c-0.5-0.3-1-0.5-1.6-0.4c-0.3,0-0.6,0.1-0.8,0.2c-0.2,0.1-0.5,0.3-0.7,0.5
						c-0.4,0.4-0.7,0.9-1,1.4c-0.1-0.6,0-1.1,0.3-1.7c0.2-0.3,0.5-0.5,0.8-0.7s0.7-0.3,1.2-0.3c0.8-0.1,1.8,0.2,2.2,0.7
						C79,60.4,79.1,61,79,61.5z"/>
				</g>
			</g>
			<path class="st15" d="M81.2,49.8c-1.1-2.8-3.9-6.5-10.8-6.5c-6.9,0-9.6,3.6-10.8,6.5c-1.1,2.8-1,8.3-1,9.2c0,0.8,0.4,0.9,0.6,1.4
				c0.3,0.5,0.1,2.2,0.3,2.5c0.2,0.3,0.7,0.7,0.9,0.6c0.2-0.1,0.1-1.6,0-3.1c-0.1-1.6,0.6-3.6,1-4.3c0.5-0.6-0.1-1.6-0.3-2.2
				c-0.2-0.6,0.6-3.6,1.5-4.1c0.9-0.5,3.2,1.2,7.7,1.2c4.5,0,6.8-1.7,7.7-1.2c0.9,0.5,1.7,3.5,1.5,4.1c-0.2,0.6-0.8,1.6-0.3,2.2
				c0.5,0.6,1.1,2.7,1,4.3c-0.1,1.6-0.2,3.1,0,3.1c0.2,0.1,0.7-0.3,0.9-0.6c0.2-0.3,0-1.9,0.3-2.5c0.3-0.5,0.6-0.6,0.6-1.4
				C82.2,58.1,82.3,52.6,81.2,49.8z"/>
		</g>
	</g>
	<path class="st7" d="M81.5,131.1H58.2c-2.3,0-4.2-1.9-4.2-4.2v0c0-2.3,1.9-4.2,4.2-4.2h23.3c2.3,0,4.2,1.9,4.2,4.2v0
		C85.8,129.2,83.9,131.1,81.5,131.1z"/>
	<g>
		<rect x="12.4" y="115.3" class="st17" width="118.6" height="3.4"/>
		<rect x="19" y="119" class="st18" width="105.6" height="5.2"/>
		<rect x="120" y="124.2" class="st18" width="4.6" height="64.1"/>
		<rect x="19" y="124.2" class="st18" width="4.6" height="64.1"/>
	</g>
	<g>
		<g>
			<path class="st17" d="M89.6,171.3h-4.1c0-6.4-6.5-11.7-14.4-11.7s-14.4,5.4-14.4,11.7h-4.4c0-8.5,8.5-15.5,18.8-15.5
				C81,155.9,89.6,162.8,89.6,171.3z"/>
		</g>
		<rect x="68" y="133.4" class="st19" width="4.1" height="30.4"/>
		<rect x="47.6" y="134.1" class="st17" width="45.2" height="3.6"/>
		<rect x="50.8" y="130.4" class="st5" width="37.9" height="4.4"/>
		<ellipse class="st5" cx="54" cy="171.3" rx="4.4" ry="4"/>
		<ellipse class="st5" cx="54" cy="171.3" rx="2.2" ry="2"/>
		<ellipse class="st5" cx="87.4" cy="171.3" rx="4.4" ry="4"/>
		<ellipse class="st5" cx="87.4" cy="171.3" rx="2.2" ry="2"/>
	</g>
	<g>
		<path class="st7" d="M67.7,147.4c2.7-14.3,2-17.7,0-20c-0.4-0.4-2.6-3-5.9-2.9c-2.4,0-4.9,1.4-5.9,3.5c-1,2-0.3,4.1,0,5.3
			c1.5,5.4-0.3,5.4,0.6,15.3c0.4,4.4,1.3,9.7,1.9,14.4h7C66.4,154.8,67.7,147.4,67.7,147.4z"/>
		<path class="st21" d="M58.9,173.2c-0.5,2.2-1.2,3.5-1.2,3.5c-0.8,1.4-1.3,1.7-1.8,2.9c-0.2,0.6-0.8,2.3,0,3.5
			c0.7,1.1,2.3,1.1,5.3,1.2c3.2,0,5.1,0.1,5.9-1.2c0.8-1.2,0.2-3,0-3.5c-0.5-1.4-1.1-1.6-1.8-2.9c-0.2-0.4-0.6-1.5-0.6-3.5
			c0-3.2,0.3-6.8,0.7-10.4h-7C59,167.3,59.4,171.1,58.9,173.2z"/>
		<path class="st22" d="M57.5,181.3c-0.1,0.7,2,2.1,4.2,2.1c2.2,0,4.4-1.4,4.2-2.1c-0.2-0.9-4-0.7-4.9-0.7
			C59.5,180.7,57.6,180.7,57.5,181.3z"/>
		<path class="st7" d="M64.8,173.2c0-3.2,0.3-6.8,0.7-10.4h-7c0.6,4.4,0.9,8.2,0.5,10.4c-0.1,0.3-0.2,0.7-0.2,1h6.1
			C64.8,173.9,64.8,173.6,64.8,173.2z"/>
	</g>
	<g>
		<path class="st7" d="M72.8,147.4c-2.7-14.3-2-17.7,0-20c0.4-0.4,2.6-3,5.9-2.9c2.4,0,4.9,1.4,5.9,3.5c1,2,0.3,4.1,0,5.3
			c-1.5,5.4,0.3,5.4-0.6,15.3c-0.4,4.4-1.3,9.7-1.9,14.4h-7C74.2,154.8,72.8,147.4,72.8,147.4z"/>
		<path class="st21" d="M81.6,173.2c0.5,2.2,1.2,3.5,1.2,3.5c0.8,1.4,1.3,1.7,1.8,2.9c0.2,0.6,0.8,2.3,0,3.5
			c-0.7,1.1-2.3,1.1-5.3,1.2c-3.2,0-5.1,0.1-5.9-1.2c-0.8-1.2-0.2-3,0-3.5c0.5-1.4,1.1-1.6,1.8-2.9c0.2-0.4,0.6-1.5,0.6-3.5
			c0-3.2-0.3-6.8-0.7-10.4h7C81.5,167.3,81.2,171.1,81.6,173.2z"/>
		<path class="st22" d="M83,181.3c0.1,0.7-2,2.1-4.2,2.1c-2.2,0-4.4-1.4-4.2-2.1c0.2-0.9,4-0.7,4.9-0.7
			C81.1,180.7,82.9,180.7,83,181.3z"/>
		<path class="st7" d="M75.7,173.2c0-3.2-0.3-6.8-0.7-10.4h7c-0.6,4.4-0.9,8.2-0.5,10.4c0.1,0.3,0.2,0.7,0.2,1h-6.1
			C75.7,173.9,75.7,173.6,75.7,173.2z"/>
	</g>
	<g>
		<path class="st31" d="M83.7,115.1H57.9c-0.5,0-0.9-0.4-0.9-0.9l0,0c0-0.5,0.4-0.9,0.9-0.9h25.8c0.5,0,0.9,0.4,0.9,0.9l0,0
			C84.6,114.7,84.2,115.1,83.7,115.1z"/>
		<path class="st32" d="M55.4,97.3v12.3c0,2.4,2,4.3,4.5,4.3H82c2.5,0,4.5-2,4.5-4.3V97.3c0-2.4-2-4.3-4.5-4.3H59.9
			C57.4,92.9,55.4,94.9,55.4,97.3z"/>
	</g>
</g>
<g>
	<g>
		<path class="st5" d="M400.5,103.4c-4.4-4-5.6-10.4-8.4-22.9c-0.5-2-1.7-8.1-2.2-16.4c-0.6-10.1-0.9-15.2,0.7-18.4
			c6.8-13.3,46.4-14.9,55.9,1.3c2.5,4.2,0.7,14.3-2.7,34.6c-2.9,17-4.4,19.6-6.4,21.7C428.6,112.2,410.1,112.3,400.5,103.4z"/>
		<path class="st33" d="M429.8,106.1H408c-2.8,0-5-2.3-5-5v-1.9c0-2.8,2.3-5,5-5h21.7c2.8,0,5,2.3,5,5v1.9
			C434.8,103.9,432.5,106.1,429.8,106.1z"/>
		<g>
			<path class="st34" d="M429.9,32c-2.1-1.7-3.7,1.7-3.7,1.7l0.2,5.5C429.5,41.9,431.8,33.5,429.9,32z"/>
			<g>
				<path class="st35" d="M430.8,92.3c0.6-16.1-1.4-31-1.9-34.9c-0.1-0.7-0.4-1.3-1-1.7c-5.1-4.1-10.6-3.7-10.6-3.7
					s-5.5-0.5-10.5,3.6c-0.6,0.5-0.9,1.1-1,1.9c-0.5,4-2,18.8-1.4,34.9C404.5,92.3,415.4,95.7,430.8,92.3z"/>
				<g>
					<path class="st36" d="M417.4,52.7c4.3,0,8.4,2.3,11.5,4.7c0-0.1-0.1-0.2-0.1-0.3c-0.1-0.7-0.4-1.3-1-1.7
						c-5.1-4.2-10.6-3.7-10.6-3.7s-5.5-0.5-10.5,3.7c-0.6,0.5-0.9,1.1-1,1.9c0,0.1,0,0.2-0.1,0.3C408.9,55,412.9,52.7,417.4,52.7z"
						/>
				</g>
				<path class="st36" d="M422.5,53c0-0.2-0.1-0.4-0.1-0.6c-2.9-1-5.1-0.7-5.1-0.7s-2.1-0.2-5,0.7c-0.1,0.2-0.1,0.4-0.1,0.6
					c0,1.6,2.3,2.9,5.2,2.9C420.2,55.8,422.5,54.5,422.5,53z"/>
				<path class="st37" d="M414.2,52.4c-0.2,1.1,0.5,1.5,1.5,1.9c0.7,0.2,1.4,0.3,2.2,0.3c0.7,0,1.3-0.1,1.9-0.3
					c1.1-0.3,1.8-0.8,1.6-1.9l-0.4-2.9h-6.4L414.2,52.4z"/>
				<path class="st34" d="M421.5,52.4l-0.4-2.8h-6.4l-0.2,1.5C416.4,51.9,418.9,52.4,421.5,52.4z"/>
				<g>
					<g>
						<g>
							<path class="st37" d="M392.7,77.1c-1.2-9,6.3-16.3,7.8-17.8l4.5,8c-2.8,2.6-5.7,7.1-5.4,9.3c0.1,0.7,1,1.7,2.4,2.6
								c6.3,4,11.3,4.1,11.4,4.1l0.5,4.7l-0.5-4.7l1,9.4c-0.3,0-6.7,0-14.7-5.1c-3.4-2.2-5.2-4.7-6.1-7.1
								C393.1,79.2,392.8,78,392.7,77.1z"/>
						</g>
					</g>
				</g>
				<path class="st35" d="M395.3,60.2c-1,2.7,3.4,9.3,8.5,8.5c2.2-0.4,3.4-2.8,5.6-7.3c1.7-3.5,3.4-6.8,2.3-7.9
					c-0.9-0.9-2.6,0.4-11.3,3.9C396.6,58.9,395.7,59.2,395.3,60.2z"/>
				<g>
					<g>
						<g>
							<path class="st37" d="M442.2,81.2c-1,2.4-2.7,5-6.1,7.1c-7.9,5.1-14.4,5.1-14.7,5.1l1-9.4l-0.5,4.7l0.5-4.7
								c0.1,0,5.1-0.1,11.4-4.1c1.4-0.9,2.3-1.9,2.4-2.6c0.3-2.2-2.6-6.7-5.4-9.3l4.5-8c1.5,1.4,9,8.8,7.8,17.8
								C443,78.7,442.7,79.9,442.2,81.2z"/>
						</g>
					</g>
				</g>
				<path class="st35" d="M440.5,62.3c1,3.2-3.4,11.3-8.5,10.3c-2.2-0.5-3.4-3.3-5.6-8.9c-1.7-4.2-3.4-8.2-2.3-9.6
					c0.9-1,2.6,0.5,11.3,4.8C439.2,60.7,440.1,61.1,440.5,62.3z"/>
				<path class="st34" d="M407.2,33.8c0,0-1.6-3.4-3.7-1.7c-1.9,1.5,0.3,9.8,3.5,7.2L407.2,33.8z"/>
				<path class="st37" d="M406.6,34.1c0,0-1.1-2.8-2.6-1.4c-1.3,1.1,0.3,7.3,2.5,5.2L406.6,34.1z"/>
				<path class="st38" d="M405,35.6c0,0.5,0.4,0.8,0.9,0.7c0.5-0.1,0.8-0.4,0.8-0.9c0-0.5-0.4-0.8-0.9-0.7
					C405.4,34.8,405,35.2,405,35.6z"/>
				<path class="st38" d="M404.3,32.9c-0.8,0.7-0.6,3.3,0.2,4.8c-1-1.3-1.4-4.2-0.5-4.9c0.6-0.6,1.2-0.4,1.6,0
					C405.2,32.5,404.8,32.5,404.3,32.9z"/>
				<path class="st37" d="M426.9,26.4c0.6,2.1,1.1,5.1,1.6,7.9c0.5,2.7,1.9,11.7-5.7,14.9c-7.6,3.3-14.7-1.5-16.1-7.4
					c-1.7-6.6-0.8-10.6,0.5-14.8c1.8-5.6,6-7.5,10.5-7.5C421.9,19.5,425.5,21.7,426.9,26.4z"/>
				<path class="st12" d="M413,41.9c0.3,1.3,1.7,4.8,5.3,4.9c4,0.1,4.8-5.1,4.8-5.1C417.2,43.4,413,41.9,413,41.9z"/>
				<path class="st38" d="M418.4,35.4c0,0,0.1,3.3,1.8,3.7c0,0-0.5,1.6-1.8,1.6c0,0,0.5-0.2,1-1.3C419.4,39.3,418,38,418.4,35.4z"/>
				<g>
					<path class="st39" d="M415.8,28.1c-1,0.1-1.9,0.1-2.8,0.2c-0.5,0.1-0.9,0.2-1.3,0.3s-0.8,0.3-1.3,0.6c0.2-0.5,0.5-0.9,1-1.2
						s0.9-0.5,1.4-0.6c0.5-0.1,1-0.1,1.6,0.1C414.9,27.6,415.4,27.8,415.8,28.1z"/>
				</g>
				<g>
					<path class="st39" d="M421,28.7c0.3-0.3,0.7-0.6,1.1-0.7c0.5-0.2,0.9-0.2,1.4-0.2c0.5,0.1,0.9,0.2,1.3,0.5c0.4,0.2,0.7,0.6,1,1
						c-0.5-0.1-0.9-0.3-1.2-0.3c-0.4-0.1-0.7-0.2-1.1-0.2C422.7,28.6,421.9,28.7,421,28.7z"/>
				</g>
				<g>
					<g>
						<path class="st15" d="M416.2,34.6c-0.3-0.6-0.6-1.1-1.1-1.5c-0.2-0.2-0.5-0.3-0.8-0.4c-0.2-0.1-0.3-0.1-0.5-0.1
							c-0.2,0-0.3,0-0.5,0c-0.3,0-0.6,0.1-0.9,0.2c-0.3,0.1-0.5,0.3-0.7,0.5c-0.5,0.5-0.7,1-1,1.6c-0.1-0.6,0-1.3,0.4-1.9
							c0.2-0.3,0.5-0.6,0.9-0.7c0.4-0.2,0.8-0.3,1.3-0.3c0.5-0.1,0.9,0,1.4,0.1c0.4,0.1,0.8,0.3,1,0.7
							C416.1,33.3,416.3,34,416.2,34.6z"/>
					</g>
				</g>
				<g>
					<g>
						<path class="st15" d="M425.9,34.5c-0.3-0.5-0.6-1-1-1.4c-0.5-0.3-1-0.5-1.6-0.4c-0.3,0-0.6,0.1-0.8,0.2
							c-0.2,0.1-0.5,0.3-0.7,0.5c-0.4,0.4-0.7,0.9-1,1.4c-0.1-0.6,0-1.1,0.3-1.7c0.2-0.3,0.5-0.5,0.8-0.7c0.3-0.2,0.7-0.3,1.2-0.3
							c0.8-0.1,1.8,0.2,2.2,0.7C425.9,33.3,426,34,425.9,34.5z"/>
					</g>
				</g>
				<path class="st40" d="M427.4,35.6c1.2-6-1-10.6-2.6-10.8c-1.6-0.2-2.4,3.2-6.5,3c1.1-0.4,2-1.4,2-1.4s-2.4,0.4-4.5-0.1
					c-2.6-0.5-4.3-2.2-5.8-1.6c-1.3,0.6-2,1.5-2.2,2.6c-0.3-0.2-0.4-0.5-0.4-0.5s-1.8,2.8-1.1,8.2c-2.1-3.1-2.2-6.6-2.2-6.6
					s-0.3-0.1-0.8,0.4c0.4-10,9.4-12.8,9.4-12.8s-0.4-0.2-1.5,0.1c1.2-0.8,7.6-0.4,7.8-0.5c0.2-0.2,0.1-0.6-0.7-0.7
					c3.1-1.5,5.5,1.9,5.7,2c0.3,0,0.7,0.1,0.8-0.8c0.9,1.1,0,2.4,0,2.4s1.6-0.9,3.8-0.2c-2,0.3-3,0.9-3,0.9s5.4-0.6,5.7,5.8
					c-0.4-0.7-0.7-0.8-0.7-0.8S432,27.8,427.4,35.6z"/>
				<g>
					<g>
						<ellipse class="st41" cx="413.2" cy="33.8" rx="4.8" ry="3.3"/>
						<ellipse class="st41" cx="423.9" cy="33.8" rx="4.8" ry="3.3"/>
					</g>
					<line class="st41" x1="417.8" y1="34" x2="419.3" y2="34"/>
				</g>
			</g>
		</g>
		<g>
			<rect x="361.4" y="90.3" class="st17" width="118.6" height="3.4"/>
			<rect x="368.1" y="94.1" class="st18" width="105.6" height="5.2"/>
			<rect x="469.1" y="99.3" class="st18" width="4.6" height="64.1"/>
			<rect x="368.1" y="99.3" class="st18" width="4.6" height="64.1"/>
		</g>
		<g>
			<g>
				<path class="st17" d="M438.6,146.4h-4.1c0-6.4-6.5-11.7-14.4-11.7s-14.4,5.4-14.4,11.7h-4.4c0-8.5,8.5-15.5,18.8-15.5
					C430.1,130.9,438.6,137.9,438.6,146.4z"/>
			</g>
			<rect x="417" y="108.5" class="st19" width="4.1" height="30.4"/>
			<rect x="396.6" y="109.1" class="st17" width="45.2" height="3.6"/>
			<rect x="399.8" y="105.4" class="st5" width="37.9" height="4.4"/>
			<ellipse class="st5" cx="403" cy="146.4" rx="4.4" ry="4"/>
			<ellipse class="st5" cx="403" cy="146.4" rx="2.2" ry="2"/>
			<ellipse class="st5" cx="436.4" cy="146.4" rx="4.4" ry="4"/>
			<ellipse class="st5" cx="436.4" cy="146.4" rx="2.2" ry="2"/>
		</g>
		<path class="st33" d="M416.8,122.4c2.7-14.3,2-17.7,0-20c-0.4-0.4-2.6-3-5.9-2.9c-2.4,0-4.9,1.4-5.9,3.5c-1,2-0.3,4.1,0,5.3
			c1.5,5.4-0.3,5.4,0.6,15.3c0.4,4.4,1.3,9.7,1.9,14.4h7C415.4,129.8,416.8,122.4,416.8,122.4z"/>
		<path class="st42" d="M408,148.3c-0.5,2.2-1.2,3.5-1.2,3.5c-0.8,1.4-1.3,1.7-1.8,2.9c-0.2,0.6-0.8,2.3,0,3.5
			c0.7,1.1,2.3,1.1,5.3,1.2c3.2,0,5.1,0.1,5.9-1.2c0.8-1.2,0.2-3,0-3.5c-0.5-1.4-1.1-1.6-1.8-2.9c-0.2-0.4-0.6-1.5-0.6-3.5
			c0-3.2,0.3-6.8,0.7-10.4h-7C408.1,142.4,408.4,146.2,408,148.3z"/>
		<path class="st33" d="M413.8,148.3c0-3.2,0.3-6.8,0.7-10.4h-7c0.6,4.4,0.9,8.2,0.5,10.4c-0.1,0.3-0.2,0.7-0.2,1h6.1
			C413.9,149,413.8,148.7,413.8,148.3z"/>
		<path class="st43" d="M447.5,89.9H391c-0.4,0-0.7-0.3-0.7-0.7l0,0c0-0.4,0.3-0.7,0.7-0.7h56.6c0.4,0,0.7,0.3,0.7,0.7l0,0
			C448.2,89.6,447.9,89.9,447.5,89.9z"/>
		<path class="st33" d="M421.8,122.4c-2.7-14.3-2-17.7,0-20c0.4-0.4,2.6-3,5.9-2.9c2.4,0,4.9,1.4,5.9,3.5c1,2,0.3,4.1,0,5.3
			c-1.5,5.4,0.3,5.4-0.6,15.3c-0.4,4.4-1.3,9.7-1.9,14.4h-7C423.2,129.8,421.8,122.4,421.8,122.4z"/>
		<path class="st42" d="M430.6,148.3c0.5,2.2,1.2,3.5,1.2,3.5c0.8,1.4,1.3,1.7,1.8,2.9c0.2,0.6,0.8,2.3,0,3.5
			c-0.7,1.1-2.3,1.1-5.3,1.2c-3.2,0-5.1,0.1-5.9-1.2c-0.8-1.2-0.2-3,0-3.5c0.5-1.4,1.1-1.6,1.8-2.9c0.2-0.4,0.6-1.5,0.6-3.5
			c0-3.2-0.3-6.8-0.7-10.4h7C430.5,142.4,430.2,146.2,430.6,148.3z"/>
		<path class="st33" d="M424.8,148.3c0-3.2-0.3-6.8-0.7-10.4h7c-0.6,4.4-0.9,8.2-0.5,10.4c0.1,0.3,0.2,0.7,0.2,1h-6.1
			C424.8,149,424.8,148.7,424.8,148.3z"/>
		<g>
			<path class="st44" d="M432.7,90.1h-25.8c-0.5,0-0.9-0.4-0.9-0.9l0,0c0-0.5,0.4-0.9,0.9-0.9h25.8c0.5,0,0.9,0.4,0.9,0.9l0,0
				C433.6,89.7,433.2,90.1,432.7,90.1z"/>
			<path class="st45" d="M449.3,85.6h-60.8c-2.7,0-5-2.2-5-5v-31c0-2.7,2.2-5,5-5h60.8c2.7,0,5,2.2,5,5v31
				C454.3,83.4,452,85.6,449.3,85.6z"/>
			<polygon class="st46" points="415.5,69.4 422.5,69.4 427,89.2 412.9,89.2 			"/>
		</g>
		<path class="st43" d="M385,89.9h-5.7c-0.6,0-1.1-0.5-1.1-1.1s0.5-1.1,1.1-1.1c0.5-0.3,1.7-0.8,3.2-0.7c1.1,0.1,2,0.4,2.5,0.7
			c0.6,0,1.1,0.5,1.1,1.1C386,89.4,385.6,89.9,385,89.9z"/>
	</g>
	<path class="st47" d="M406.5,156.4c-0.1,0.7,2,2.1,4.2,2.1c2.2,0,4.4-1.4,4.2-2.1c-0.2-0.9-4-0.7-4.9-0.7
		C408.5,155.7,406.7,155.8,406.5,156.4z"/>
	<path class="st47" d="M432.1,156.4c0.1,0.7-2,2.1-4.2,2.1c-2.2,0-4.4-1.4-4.2-2.1c0.2-0.9,4-0.7,4.9-0.7
		C430.1,155.7,431.9,155.8,432.1,156.4z"/>
</g>
</svg>
