<?xml version="1.0" encoding="utf-8"?>
<!-- Generator: Adobe Illustrator 21.1.0, SVG Export Plug-In . SVG Version: 6.00 Build 0)  -->
<svg version="1.1" id="Layer_1" xmlns="http://www.w3.org/2000/svg" xmlns:xlink="http://www.w3.org/1999/xlink" x="0px" y="0px"
	 viewBox="0 0 200 200" style="enable-background:new 0 0 200 200;" xml:space="preserve">
<style type="text/css">
	.st0{fill:#1B91CC;}
	.st1{fill:none;}
	.st2{fill:#045F8C;}
	.st3{fill:#666666;}
	.st4{fill:#C85000;}
	.st5{fill:#646464;}
	.st6{fill:#6E6E6E;}
	.st7{fill:#B3B3B3;}
	.st8{fill:#999999;}
	.st9{opacity:0.3;fill:#FFFFFF;enable-background:new    ;}
	.st10{fill:#CCAE9A;}
	.st11{fill:#C1A18B;}
	.st12{fill:#662E05;}
	.st13{fill:#FF7800;}
	.st14{fill:#300F03;}
	.st15{fill:#BC9B84;}
	.st16{fill:#B29079;}
	.st17{fill:#1D600D;}
	.st18{fill:#A37F66;}
	.st19{fill:#1C1A1A;}
	.st20{fill:#9B7861;}
	.st21{fill:#E6E6E6;}
	.st22{fill:#F0F0F0;}
	.st23{fill:#006478;}
	.st24{fill:#FFD7AF;}
	.st25{fill:#F5CDA5;}
	.st26{fill:#FED9AE;}
	.st27{fill:#FFE1B9;}
	.st28{fill:#415532;}
	.st29{fill:#4B5F3C;}
	.st30{fill:#3F3125;}
</style>
<g>
	<circle class="st0" cx="100" cy="100" r="97"/>
</g>
<path class="st1" d="M256.5,184h-9c-0.5,0-1,0.5-1,1v16c0,0.5,0.5,1,1,1h9c0.5,0,1-0.5,1-1v-16C257.5,184.5,257,184,256.5,184z"/>
<path class="st1" d="M269.5,209h-9c-0.5,0-1,0.5-1,1v16c0,0.5,0.5,1,1,1h9c0.5,0,1-0.5,1-1v-16C270.5,209.5,270,209,269.5,209z"/>
<path class="st1" d="M256.5,209h-9c-0.5,0-1,0.5-1,1v16c0,0.5,0.5,1,1,1h9c0.5,0,1-0.5,1-1v-16C257.5,209.5,257,209,256.5,209z"/>
<path class="st1" d="M269.5,184h-3h-6c-0.5,0-1,0.5-1,1v16c0,0.5,0.5,1,1,1h9c0.5,0,1-0.5,1-1v-4v-12C270.5,184.5,270,184,269.5,184
	z"/>
<path class="st1" d="M347.5,209h-9c-0.5,0-1,0.5-1,1v16c0,0.5,0.5,1,1,1h9c0.5,0,1-0.5,1-1v-16C348.5,209.5,348,209,347.5,209z"/>
<path class="st1" d="M360.5,209h-9c-0.5,0-1,0.5-1,1v16c0,0.5,0.5,1,1,1h9c0.5,0,1-0.5,1-1v-16C361.5,209.5,361,209,360.5,209z"/>
<path class="st1" d="M360.5,184h-9c-0.5,0-1,0.5-1,1v16c0,0.5,0.5,1,1,1h9c0.5,0,1-0.5,1-1v-16C361.5,184.5,361,184,360.5,184z"/>
<path class="st1" d="M347.5,184h-9c-0.5,0-1,0.5-1,1v16c0,0.5,0.5,1,1,1h9c0.5,0,1-0.5,1-1v-16C348.5,184.5,348,184,347.5,184z"/>
<g>
	<path class="st2" d="M186,129h-3.4v-3.3c0-0.5-0.4-1.1-1.1-1.1h-4.3l-1.1-4c-0.4-1.3-1.2-2.5-2.4-3.2l-6.6-4.1V91.8
		c0.1-0.3,0.1-0.6,0.2-0.9c1-5.3,1.1-8.6-0.2-9.9v-0.6c3-6.8,2.2-12.1,0-15.7V47.1h-0.1h-50.8H65.6v12.8c-3.1,1.3-5.5,4.1-6.2,7.5
		c-2.7-3.2-7-5.3-13.4-5.3c-12.8,0-18,10.6-15.6,22c-1.2,1.1-1.2,4.2-0.2,9.2c0.9,5,2.8,3.5,3.1,3.2c0.9,3.8,2.4,6.8,4.4,9v2.2v3.2
		c-0.1-0.2-0.1-0.4-0.1-0.4l-13.7,9.3c-0.9,0.6-1.5,1.5-1.9,2.6l-4,12.5H45h0.8h5l-0.2,1h27.8h0.1h27.8l-0.1-0.2h8.8h0.8h28.4l0-0.1
		h5.7h0.1l0.1,0.1l0.1-0.1h29.9L180,135h6V129z M54.9,110.6V105c1.8-2.2,3.3-5.3,4.1-9l0,0.4c0,0,0.1,0.1,0.2,0.2
		c0.5,3.8,3,7,6.4,8.5v9.9l-2.3,1.4L54.9,110.6z"/>
	<g>
		<g>
			<path class="st3" d="M179.6,128.8h-10c-0.6,0-1.1-0.4-1.1-1.1v-3.9c0-0.5,0.4-1.1,1.1-1.1h10c0.6,0,1.1,0.5,1.1,1.1v3.9
				C180.6,128.4,180.2,128.8,179.6,128.8z"/>
			<path class="st3" d="M163.5,132.8h-54.2c-0.5,0-1.1-0.5-1.1-1.1v-5.9c0-0.6,0.5-1.1,1.1-1.1h54.2c0.5,0,1.1,0.4,1.1,1.1v5.9
				C164.6,132.3,164.2,132.8,163.5,132.8z"/>
			<rect x="124.8" y="127.1" class="st4" width="59.3" height="5.9"/>
			<rect x="106.4" y="115.6" class="st5" width="16.1" height="9.6"/>
			<rect x="63.6" y="45.1" class="st5" width="101.5" height="73.2"/>
			<rect x="114.4" y="45.1" class="st6" width="50.9" height="73.2"/>
			<rect x="67.3" y="48.7" class="st7" width="94.3" height="64.1"/>
			<rect x="72.6" y="53.6" class="st8" width="83.9" height="5"/>
			<rect x="72.6" y="63.6" class="st8" width="83.9" height="5"/>
			<rect x="72.6" y="73.5" class="st8" width="83.2" height="5"/>
			<rect x="72.6" y="83.4" class="st8" width="54.4" height="5"/>
			<rect x="72.6" y="93.2" class="st8" width="54.4" height="5"/>
			<rect x="72.6" y="103.1" class="st8" width="54.4" height="5"/>
			<rect x="133.7" y="83.4" class="st8" width="22.3" height="24.7"/>
			<rect x="98.9" y="122.9" class="st5" width="31.1" height="4.6"/>
			<polygon class="st9" points="93.4,48.7 67.3,75 67.3,58.3 76.8,48.7 			"/>
			<polygon class="st9" points="161.6,81 161.6,95.8 144.4,113 129.7,113 			"/>
		</g>
		<g>
			<g>
				<path class="st10" d="M57,94.4c0,0,2.2,2.3,3.2-3.2c1.1-5.7,1-8.9-0.9-9.6c-1.3-0.4-1.7,0.6-1.7,0.6L57,94.4z"/>
				<g>
					<path class="st10" d="M31.3,94.4c0,0-2.2,2.3-3.2-3.2c-1.1-5.7-1-8.9,0.9-9.6c1.3-0.4,1.7,0.6,1.7,0.6L31.3,94.4z"/>
					<path class="st10" d="M35.7,102.6v6.8c0,1.7,0.9,3.2,2.3,4.1c2.4,1.7,6.1,4.1,6.3,4.1c0.1,0,3.8-2.4,6.4-4.1
						c1.4-0.9,2.3-2.4,2.3-4.2v-7.1L35.7,102.6z"/>
					<path class="st11" d="M35.7,105.7c2.3,2.6,5.2,4,8.4,4c3.3,0,6.4-1.5,8.7-4.3v-3.1l-17.1,0.4V105.7z"/>
					<path class="st11" d="M44.1,107.4c7.8,0,13.8-8.2,13.8-21.7c0-16.8-5-20.8-13.8-20.8s-13.8,4-13.8,20.8
						C30.3,99.3,36.3,107.4,44.1,107.4z"/>
					<path class="st10" d="M44.2,65.1v42.5c7.7-0.1,13.7-8.3,13.7-21.7C57.9,69,52.9,65.1,44.2,65.1z"/>
					<path class="st12" d="M43.9,60.1c-14.9,0-19.5,14.4-13.8,27.7h1.7c0,0-1.3-10.2,4.1-16.3c0,0-1.9,9.3,8.3,9.3
						c0,0-6.4-6-2.8-9.4c0,0,2,8.4,11.4,8.4c0,0-3.2-2.7-1.9-7.7c0,0,6.4,9.6,6.1,15.7h1.5C63.6,74.9,61.2,60.1,43.9,60.1z"/>
					<path class="st13" d="M68.2,120.3c-0.4-1-1-1.9-1.9-2.6l-13.7-9.3c0,0-1.9,6.8-8.5,6.8c-6.5,0-8.5-6.8-8.5-6.8l-13.7,9.3
						c-0.9,0.6-1.5,1.5-1.9,2.6l-4,12.5h27.1h0.8h28.1L68.2,120.3z"/>
				</g>
			</g>
			<g>
				<g>
					<rect x="101.2" y="115.7" class="st5" width="16.3" height="9.6"/>
					<rect x="93.6" y="123.2" class="st5" width="31.5" height="4.6"/>
					<path class="st14" d="M113.8,64c2.6-3.1,22.3,0.4,20.1,24.2c-0.8,9.3-11.2,13.4-11.2,13.4h-8.9V64z"/>
					<path class="st15" d="M113.8,120.4l8.5-6.6c0,0-1.2-1.6-1.7-6.6h-6.8l0,0h-6.6c-0.5,5.1-1.7,6.6-1.7,6.6L113.8,120.4
						L113.8,120.4L113.8,120.4L113.8,120.4L113.8,120.4z"/>
					<path class="st16" d="M120.5,107h-6.6l0,0h-6.6c0,0.5-0.1,1-0.1,1.4c2,1.6,4.3,2.5,6.9,2.5c2.5,0,4.8-0.9,6.9-2.5
						C120.6,108,120.6,107.5,120.5,107z"/>
					<path class="st14" d="M114,64c-2.6-3.1-22.3,0.4-20.1,24.2c0.8,9.3,11.2,13.4,11.2,13.4h8.9V64z"/>
					<path class="st16" d="M113.8,109.4c7.8,0,13.9-8.2,13.9-21.9c0-17.1-5-21-13.9-21c-8.9,0-13.9,3.9-13.9,21
						C100,101.1,106,109.4,113.8,109.4z"/>
					<path class="st15" d="M114,66.5v42.9c7.8-0.1,13.7-8.3,13.7-21.9C127.8,70.5,122.8,66.6,114,66.5z"/>
					<path class="st15" d="M126.9,96.2c0,0,2.1,2.3,3.1-3.1c1.2-5.9,1-9-0.9-9.6c-1.3-0.4-1.7,0.7-1.7,0.7L126.9,96.2z"/>
					<path class="st14" d="M113.8,74.4c-3.9,0-7.8-3-9.8-2.1c-2,1-4,2.6-3.5,16.8c0,0-8.9-11.6,2.2-20.1c3.1-2.3,9.4-3.9,11.1-3.9
						l0,0V74.4z"/>
					<path class="st14" d="M114,74.4c3.9,0,7.8-3,9.8-2.1c2,1,4,2.6,3.5,16.8c0,0,8.9-11.6-2.2-20.1c-3.1-2.3-9.4-3.9-11.1-3.9l0,0
						L114,74.4z"/>
					<path class="st17" d="M138.3,121.2c-0.4-1.2-1.2-2.2-2.3-2.9l-15.1-8.3c0,0-0.3,5.7-6.9,5.7s-7.3-5.7-7.3-5.7l-14.7,8.3
						c-1,0.7-2,1.7-2.3,2.9l-3.9,12.4h27.4h0.8h28.4L138.3,121.2z"/>
				</g>
				<path class="st15" d="M101.1,96.2c0,0-2.1,2.3-3.1-3.1c-1.2-5.9-1-9,0.9-9.6c1.3-0.4,1.7,0.7,1.7,0.7L101.1,96.2z"/>
			</g>
			<path class="st18" d="M70.7,91c0,0-2.3,2.5-3.5-3.4c-1.2-6.3-1.2-9.8,1-10.5c1.4-0.5,1.8,0.7,1.8,0.7L70.7,91z"/>
			<g>
				<path class="st19" d="M85.8,104h-18c-6,0-10.7-4.9-10.7-10.7V67.8c0-6,4.9-10.7,10.7-10.7h18c6,0,10.7,4.9,10.7,10.7v25.4
					C96.7,99.1,91.8,104,85.8,104z"/>
				<path class="st18" d="M76.4,118.2l9.2-7.3c0,0-1.3-1.7-1.8-7.3h-7.3l0,0h-7.3c-0.6,5.5-1.8,7.3-1.8,7.3L76.4,118.2L76.4,118.2
					L76.4,118.2L76.4,118.2L76.4,118.2z"/>
				<path class="st20" d="M83.6,103.7h-7.3l0,0h-7.3c-0.1,0.6-0.1,1.1-0.2,1.6c2.2,1.7,4.7,2.7,7.4,2.7s5.3-0.9,7.4-2.7
					C83.8,104.8,83.7,104.3,83.6,103.7z"/>
				<path class="st20" d="M76.4,106.2c8.5,0,15.1-9,15.1-23.8c0-18.5-5.4-22.9-15.1-22.9s-15.1,4.3-15.1,22.9
					C61.3,97.3,67.9,106.2,76.4,106.2z"/>
				<path class="st18" d="M90.6,91.9c0,0,2.3,2.5,3.5-3.4c1.2-6.3,1.2-9.8-1-10.5c-1.4-0.5-1.7,0.7-1.7,0.7L90.6,91.9z"/>
				<path class="st18" d="M76.6,59.6v46.6c8.4-0.1,15-9.1,15-23.8C91.5,64,86.2,59.7,76.6,59.6z"/>
				<path class="st19" d="M76.3,55.6c-17.3,0-18.5,16.9-17.8,23c0.4,3,2.8,6,2.8,6s0.6-8.3,6-10.6c5.3-2.4,13.1-1.1,17-6.8
					c4.4,6.8,6.4,9.6,7.3,17.3C96.4,79.5,100.3,55.8,76.3,55.6z"/>
				<polygon class="st21" points="76.4,114.3 64.3,112.6 76.4,133.8 88.6,112.6 				"/>
				<polygon class="st22" points="68.7,107 67.3,107.8 64.3,112.6 73.3,124.2 76.4,114.3 68.4,108 				"/>
				<polygon class="st22" points="84.2,107 85.6,107.8 88.6,112.6 79.6,124.2 76.4,114.3 84.4,108 				"/>
				<path class="st23" d="M64.3,112.6L53.8,119c-1.2,0.7-2.1,1.9-2.5,3.4l-2.8,11.5h27.9L64.3,112.6z"/>
				<path class="st23" d="M88.6,112.6l10.5,6.3c1.2,0.7,2.1,1.9,2.5,3.4l2.8,11.5H76.4L88.6,112.6z"/>
			</g>
			<g>
				<g>
					<path class="st24" d="M163,114.2c-3.9-2.3-5.5-9-5.6-9.4v-4.6l-18.5,0.5v4.1c0,0-1.6,7.1-5.7,9.5c-2.2,1.3,2.2,5.4,6.7,9l1.7,4
						l6.5,6.3l5-6.4l1.7-2.7C159.8,120.6,165.4,115.6,163,114.2z"/>
					<path class="st24" d="M134.4,92.3c0,0-2.3,2.5-3.4-3.4c-1.2-6.2-1.1-9.6,1-10.3c1.3-0.4,1.8,0.7,1.8,0.7L134.4,92.3z"/>
					<path class="st24" d="M139.1,101v4.4c0,1.6,0.7,3.1,1.9,4.1l3.8,3.1c1.9,1.6,4.8,1.6,6.7,0l3.9-3.1c1.3-1,2-2.5,2-4.2v-4.8
						L139.1,101z"/>
					<path class="st25" d="M139.1,104.2c2.5,2.8,5.6,4.3,9,4.3c3.6,0,6.9-1.6,9.4-4.6v-3.3l-18.4,0.4L139.1,104.2L139.1,104.2z"/>
					<path class="st26" d="M148.1,106.3c8.4,0,14.9-8.8,14.9-23.4c0-18.2-5.3-22.4-14.9-22.4c-9.5,0-14.9,4.2-14.9,22.4
						C133.2,97.5,139.7,106.3,148.1,106.3z"/>
					<path class="st24" d="M162,92.3c0,0,2.3,2.5,3.4-3.4c1.2-6.2,1.1-9.6-1-10.3c-1.3-0.4-1.8,0.7-1.8,0.7L162,92.3z"/>
					<path class="st27" d="M148.3,60.4v45.8c8.3-0.1,14.6-8.9,14.6-23.4C163,64.8,157.7,60.5,148.3,60.4z"/>
					<path class="st28" d="M178.1,133.5l-3.9-14.7c-0.4-1.3-1.2-2.5-2.4-3.2l-13.6-8.4L148,118.9l-10.2-11.7l-13.6,8.4
						c-1.2,0.7-2,1.9-2.4,3.2l-3.9,14.7h30l0,0L178.1,133.5L178.1,133.5z"/>
					<polygon class="st29" points="148.1,123.8 135,109.3 135.9,108.5 148.1,122.2 160.5,108.5 161.3,109.2 					"/>
				</g>
				<path class="st30" d="M134.3,86c-6.1-2.9-10.5-30.2,11.6-30.2c6.1,0,8.5,2.8,8.5,2.8c4.6-4.2,21.1,5.8,7.6,25.7
					c0,0,1.3-9.3-3.7-13.2c-3.6-2.8-4.1-4.8-4.1-4.8s-2.4,4.3-9.4,6.1C137.9,74.1,136,78.6,134.3,86z"/>
			</g>
		</g>
	</g>
</g>
</svg>
