<?xml version="1.0" encoding="utf-8"?>
<!-- Generator: Adobe Illustrator 21.1.0, SVG Export Plug-In . SVG Version: 6.00 Build 0)  -->
<svg version="1.1" id="Layer_1" xmlns="http://www.w3.org/2000/svg" xmlns:xlink="http://www.w3.org/1999/xlink" x="0px" y="0px"
	 viewBox="0 0 200 200" style="enable-background:new 0 0 200 200;" xml:space="preserve">
<style type="text/css">
	.st0{fill:#0A6FB6;}
</style>
<g>
	<g>
		<g>
			<rect x="97.9" y="117.8" class="st0" width="4.2" height="39.7"/>
			<path class="st0" d="M120.9,157.5h-4.2V77.3l24.9-29.9l-7.3-24.1c-0.3-0.9-0.9-1.7-1.8-2.2c-0.9-0.5-1.9-0.6-2.8-0.3
				c-1,0.3-1.7,1-2.2,1.9c-0.5,0.9-0.5,1.9-0.2,2.9l6.4,19.9l-16.4,11.7H82.6L66.2,45.4l6.4-19.8c0.4-1,0.3-2.1-0.1-3
				c-0.5-0.9-1.2-1.6-2.2-1.9c-0.9-0.3-1.9-0.2-2.8,0.3c-0.9,0.5-1.5,1.2-1.8,2.2l-7.3,24.1l24.9,29.9v80.2h-4.2V78.8L53.8,48.3
				L61.7,22c0.6-2,2-3.7,3.8-4.7c1.9-1,4-1.2,6-0.6c2.1,0.6,3.7,2.1,4.7,4c1,1.9,1.1,4.1,0.3,6.2l-5.4,16.8L83.9,53h32.1l12.8-9.2
				l-5.5-16.9c-0.7-2-0.6-4.2,0.4-6.1c1-1.9,2.6-3.4,4.7-4c2-0.6,4.1-0.4,6,0.6c1.9,1,3.2,2.6,3.8,4.7l7.9,26.3l-25.3,30.5V157.5z"
				/>
			<path class="st0" d="M100,48.8c-8.8,0-14.6-6.7-14.6-16.7c0-10,5.9-16.7,14.6-16.7S114.6,22,114.6,32
				C114.6,42.1,108.8,48.8,100,48.8z M100,19.5c-7.7,0-10.5,6.8-10.5,12.5c0,5.8,2.7,12.5,10.5,12.5c7.7,0,10.5-6.8,10.5-12.5
				C110.5,26.3,107.7,19.5,100,19.5z"/>
			<g>
				<rect x="97.9" y="71.8" class="st0" width="4.2" height="4.2"/>
				<rect x="97.9" y="84.3" class="st0" width="4.2" height="4.2"/>
				<rect x="97.9" y="96.9" class="st0" width="4.2" height="4.2"/>
			</g>
		</g>
	</g>
	<g>
		<path class="st0" d="M129.3,184.7h-4.2v-18.8H74.9v18.8h-4.2v-20.9c0-1.2,0.9-2.1,2.1-2.1h54.4c1.2,0,2.1,0.9,2.1,2.1V184.7z"/>
		<path class="st0" d="M185.7,184.7h-4.2v-12.5h-52.3v12.5h-4.2V170c0-1.2,0.9-2.1,2.1-2.1h56.5c1.2,0,2.1,0.9,2.1,2.1V184.7z"/>
		<path class="st0" d="M74.9,184.7h-4.2v-8.4H18.5v8.4h-4.2v-10.5c0-1.2,0.9-2.1,2.1-2.1h56.5c1.2,0,2.1,0.9,2.1,2.1V184.7z"/>
	</g>
	<g>
		<rect x="160.6" y="119.9" class="st0" width="4.2" height="43.9"/>
		<g>
			<path class="st0" d="M192,126.1h-6.3V122h2.1V83.7c0-10-8.3-18.2-18.5-18.2h-13.4c-10.2,0-18.3,8-18.3,18.2V122h1.8v4.2h-6V83.7
				c0-12.3,10.1-22.4,22.5-22.4h13.4c12.5,0,22.7,10,22.7,22.4V126.1z"/>
			<polygon class="st0" points="181.5,163.8 177.4,163.8 177.4,88.5 183.6,88.5 183.6,92.7 181.5,92.7 			"/>
			<path class="st0" d="M162.7,57.1c-7.5,0-12.5-5.9-12.5-14.6c0-8.8,5-14.6,12.5-14.6c7.5,0,12.5,5.9,12.5,14.6
				C175.3,51.3,170.2,57.1,162.7,57.1z M162.7,32c-6.2,0-8.4,5.4-8.4,10.5c0,5.1,2.2,10.5,8.4,10.5c6.2,0,8.4-5.4,8.4-10.5
				C171.1,37.4,168.9,32,162.7,32z"/>
			<polygon class="st0" points="148.1,163.8 143.9,163.8 143.9,92.7 141.8,92.7 141.8,88.5 148.1,88.5 			"/>
		</g>
	</g>
	<g>
		<rect x="35.2" y="124" class="st0" width="4.2" height="43.9"/>
		<g>
			<path class="st0" d="M66.5,130.3h-6.3v-4.2h2.1V87.9c0-10-8.3-18.2-18.5-18.2H30.5c-10.2,0-18.3,8-18.3,18.2v38.3H14v4.2H8V87.9
				c0-12.3,10.1-22.4,22.5-22.4h13.4c12.5,0,22.7,10,22.7,22.4V130.3z"/>
			<polygon class="st0" points="56.1,168 51.9,168 51.9,92.7 58.2,92.7 58.2,96.9 56.1,96.9 			"/>
			<path class="st0" d="M37.3,61.3c-7.5,0-12.5-5.9-12.5-14.6c0-8.8,5-14.6,12.5-14.6c7.5,0,12.5,5.9,12.5,14.6
				C49.8,55.4,44.8,61.3,37.3,61.3z M37.3,36.2c-6.2,0-8.4,5.4-8.4,10.5c0,5.1,2.2,10.5,8.4,10.5c6.2,0,8.4-5.4,8.4-10.5
				C45.6,41.6,43.4,36.2,37.3,36.2z"/>
			<polygon class="st0" points="22.6,168 18.5,168 18.5,96.9 16.4,96.9 16.4,92.7 22.6,92.7 			"/>
		</g>
	</g>
</g>
</svg>
