<?xml version="1.0" encoding="utf-8"?>
<!-- Generator: Adobe Illustrator 21.1.0, SVG Export Plug-In . SVG Version: 6.00 Build 0)  -->
<svg version="1.1" id="Layer_1" xmlns="http://www.w3.org/2000/svg" xmlns:xlink="http://www.w3.org/1999/xlink" x="0px" y="0px"
	 viewBox="0 0 190 200" style="enable-background:new 0 0 190 200;" xml:space="preserve">
<style type="text/css">
	.st0{fill:none;stroke:#444444;stroke-width:13;stroke-miterlimit:10;}
	.st1{fill:#7C7C7C;}
	.st2{fill:#282828;}
</style>
<rect x="20" y="85" class="st0" width="116" height="102"/>
<g>
	<path class="st1" d="M11.1,118.9L59,89.6l23.4,45.1c0,0,10.3-33.7,37.6-70.4s56.2-51.1,56.2-51.1s-1.5,24.8-0.5,38.7
		s3.9,26.8,3.9,26.8s-28.3,12.9-57.6,49.1s-38.6,54.6-38.6,54.6s-18.1-24.8-36.6-39.7S11.1,118.9,11.1,118.9z"/>
</g>
<path class="st2" d="M8.8,107.6l48.6-29.3l23.8,45.1c0,0,10.4-33.7,38.2-70.4s57-51.1,57-51.1S175,26.8,176,40.7s4,26.8,4,26.8
	s-28.8,12.9-58.5,49.1s-39.2,54.6-39.2,54.6S63.9,146.3,45,131.4S8.8,107.6,8.8,107.6z"/>
</svg>
