<?xml version="1.0" encoding="utf-8"?>
<!-- Generator: Adobe Illustrator 21.1.0, SVG Export Plug-In . SVG Version: 6.00 Build 0)  -->
<svg version="1.1" id="Layer_1" xmlns="http://www.w3.org/2000/svg" xmlns:xlink="http://www.w3.org/1999/xlink" x="0px" y="0px"
	 viewBox="0 0 200 200" style="enable-background:new 0 0 200 200;" xml:space="preserve">
<style type="text/css">
	.st0{fill:#0A6FB6;}
</style>
<g>
	<g>
		<g>
			<path class="st0" d="M65.2,159.1H36.9c-15-0.5-25.8-11.4-25.8-25.8v-67h5.2v67c0,11.5,8.7,20.2,20.7,20.6l28.3,0V159.1z"/>
			<rect x="57.5" y="156.5" class="st0" width="5.2" height="22.8"/>
			<rect x="31.7" y="156.5" class="st0" width="5.2" height="23.2"/>
			<path class="st0" d="M91,180l-5.2-43.8c-0.6-5-5.7-8-10.3-8H52.3V97.5l5.2,5.2V123h18c8,0,14.6,5.4,15.4,12.6l5.2,43.8L91,180z"
				/>
			<path class="st0" d="M75.5,180.1l-4.8-33.9H40.7c-9,0-16.7-7-16.7-15.3V80.7c0-5.3,2.8-11.5,6.9-15.5c2.7-2.7,5.7-4,8.6-4l10.6,0
				c4,0.5,6.1,2.4,7.1,3.9l15.5,19.2H89c6.1,0,9.7,6.6,9.7,12.9v5.2H67.3c-2.8,0-6.7-0.8-9-3.2L45.7,85.9l3.8-3.5l12.5,13.3
				c0.9,0.9,3.2,1.6,5.3,1.6h26.3c0-3.7-1.9-7.7-4.5-7.7H70.2L52.9,68c-0.6-0.9-1.7-1.5-3.4-1.7l-10.1,0c-1.6,0-3.3,0.9-5,2.5
				c-3.1,3-5.3,8-5.3,11.9v50.2c0,5.4,5.4,10.2,11.5,10.2h34.5l5.5,38.3L75.5,180.1z"/>
			<path class="st0" d="M42,56c-9.2,0-15.5-7.2-15.5-18s6.2-18,15.5-18c9.2,0,15.5,7.2,15.5,18S51.3,56,42,56z M42,25.1
				c-7.6,0-10.3,6.7-10.3,12.9S34.4,50.9,42,50.9c7.6,0,10.3-6.7,10.3-12.9S49.6,25.1,42,25.1z"/>
		</g>
		<rect x="103.9" y="97.2" class="st0" width="85" height="5.2"/>
	</g>
	<polygon class="st0" points="181.2,179.7 176,179.7 176,102.4 170.9,102.4 170.9,179.7 165.7,179.7 165.7,97.2 181.2,97.2 	"/>
	<g>
		<path class="st0" d="M116.8,92.2c-1.4,0-2.6-1.1-2.6-2.6c0-1.4,1.1-2.6,2.6-2.6l32-0.2l17.2-32.2c0.7-1.3,2.2-1.7,3.5-1.1
			c1.3,0.7,1.7,2.2,1.1,3.5l-17.9,33.6c-0.4,0.8-1.3,1.4-2.3,1.4L116.8,92.2C116.8,92.2,116.8,92.2,116.8,92.2z"/>
		
			<rect x="147.7" y="89.5" transform="matrix(1.119930e-02 -0.9999 0.9999 1.119930e-02 56.5252 241.3195)" class="st0" width="5.2" height="5.2"/>
		
			<rect x="114.1" y="89.5" transform="matrix(1.124929e-02 -0.9999 0.9999 1.124929e-02 23.3206 207.7724)" class="st0" width="5.2" height="5.2"/>
	</g>
</g>
</svg>
