<?xml version="1.0" encoding="utf-8"?>
<!-- Generator: Adobe Illustrator 21.1.0, SVG Export Plug-In . SVG Version: 6.00 Build 0)  -->
<svg version="1.1" id="Layer_1" xmlns="http://www.w3.org/2000/svg" xmlns:xlink="http://www.w3.org/1999/xlink" x="0px" y="0px"
	 viewBox="0 0 200 200" style="enable-background:new 0 0 200 200;" xml:space="preserve">
<style type="text/css">
	.st0{fill:#0A6FB6;}
</style>
<g>
	<g>
		<g>
			<path class="st0" d="M66.2,157.5H38.6c-14.6-0.5-25.1-11-25.1-25.1V67.2h5v65.2c0,11.2,8.5,19.7,20.1,20.1l27.5,0V157.5z"/>
			<rect x="58.6" y="155" class="st0" width="5" height="22.1"/>
			<rect x="33.6" y="155" class="st0" width="5" height="22.6"/>
			<path class="st0" d="M91.2,177.8l-5-42.6c-0.6-4.9-5.5-7.8-10-7.8H53.6V97.5l5,5v19.8h17.6c7.8,0,14.2,5.3,15,12.3l5,42.6
				L91.2,177.8z"/>
			<path class="st0" d="M76.2,177.9L71.5,145H42.3C33.5,145,26,138.1,26,130V81.2c0-5.1,2.7-11.2,6.7-15.1c2.6-2.6,5.5-3.8,8.4-3.9
				l10.3,0c3.9,0.5,5.9,2.3,6.9,3.8l15.1,18.7h15.9c5.9,0,9.4,6.4,9.4,12.5v5H68.2c-2.8,0-6.5-0.8-8.8-3.1l-12.2-13l3.7-3.4L63,95.7
				c0.9,0.9,3.1,1.6,5.2,1.6h25.6c0-3.6-1.8-7.5-4.4-7.5H71L54.2,68.9c-0.6-0.9-1.7-1.4-3.3-1.7l-9.8,0c-1.6,0-3.2,0.8-4.8,2.4
				c-3,3-5.2,7.8-5.2,11.6V130c0,5.3,5.2,9.9,11.2,9.9h33.6l5.3,37.3L76.2,177.9z"/>
			<path class="st0" d="M43.6,57.2c-9,0-15-7.1-15-17.6s6-17.6,15-17.6c9,0,15,7.1,15,17.6S52.6,57.2,43.6,57.2z M43.6,27.1
				c-7.4,0-10,6.5-10,12.5s2.6,12.5,10,12.5c7.4,0,10-6.5,10-12.5S51,27.1,43.6,27.1z"/>
		</g>
		<rect x="103.8" y="97.3" class="st0" width="82.7" height="5"/>
	</g>
	<polygon class="st0" points="179,177.5 174,177.5 174,102.3 168.9,102.3 168.9,177.5 163.9,177.5 163.9,97.3 179,97.3 	"/>
	<g>
		<path class="st0" d="M116.4,92.4c-1.4,0-2.5-1.1-2.5-2.5c0-1.4,1.1-2.5,2.5-2.5l31.1-0.2l16.7-31.4c0.6-1.2,2.2-1.7,3.4-1
			c1.2,0.7,1.7,2.2,1,3.4L151.2,91c-0.4,0.8-1.3,1.3-2.2,1.3L116.4,92.4C116.4,92.4,116.4,92.4,116.4,92.4z"/>
		
			<rect x="146.4" y="89.8" transform="matrix(1.119930e-02 -0.9999 0.9999 1.119930e-02 54.9641 240.17)" class="st0" width="5" height="5"/>
		
			<rect x="113.8" y="89.8" transform="matrix(1.124929e-02 -0.9999 0.9999 1.124929e-02 22.6587 207.5312)" class="st0" width="5" height="5"/>
	</g>
</g>
</svg>
