<?xml version="1.0" encoding="utf-8"?>
<!-- Generator: Adobe Illustrator 21.1.0, SVG Export Plug-In . SVG Version: 6.00 Build 0)  -->
<svg version="1.1" id="Layer_1" xmlns="http://www.w3.org/2000/svg" xmlns:xlink="http://www.w3.org/1999/xlink" x="0px" y="0px"
	 viewBox="0 0 609 362" style="enable-background:new 0 0 609 362;" xml:space="preserve">
<style type="text/css">
	.st0{fill:#FFFFFF;}
	.st1{fill:#DC3E00;}
	.st2{fill:#6AA413;}
	.st3{fill:#009FB8;}
	.st4{fill:#D7A120;}
	.st5{fill:#00ADEF;}
	.st6{fill:#4D66CC;}
	.st7{fill:#89A1D4;}
	.st8{fill:none;stroke:#000000;stroke-width:3.0385;}
	.st9{fill:none;stroke:#09098F;stroke-width:3.0385;}
	.st10{fill:none;}
	.st11{fill:#EF3F36;}
	.st12{fill:#FCD900;}
	.st13{fill:#61BC5B;}
	.st14{fill:#5AB055;}
	.st15{fill:url(#SVGID_1_);}
	.st16{fill:#EACA05;}
	.st17{fill:#DF3A32;}
	.st18{fill:#1A1A1A;}
	.st19{fill:url(#path3638_1_);}
</style>
<g>
	<g>
		<path class="st0" d="M174,166.2H20c-5.5,0-10-4.5-10-10V40.8c0-5.5,4.5-10,10-10h154c5.5,0,10,4.5,10,10v115.3
			C184,161.7,179.5,166.2,174,166.2z"/>
		<path class="st0" d="M381.5,169.2h-154c-5.5,0-10-4.5-10-10V43.8c0-5.5,4.5-10,10-10h154c5.5,0,10,4.5,10,10v115.3
			C391.5,164.7,387,169.2,381.5,169.2z"/>
		<path class="st0" d="M589,169.2H435c-5.5,0-10-4.5-10-10V43.8c0-5.5,4.5-10,10-10h154c5.5,0,10,4.5,10,10v115.3
			C599,164.7,594.5,169.2,589,169.2z"/>
	</g>
	<g>
		<path class="st0" d="M174,328.2H20c-5.5,0-10-4.5-10-10V202.8c0-5.5,4.5-10,10-10h154c5.5,0,10,4.5,10,10v115.3
			C184,323.7,179.5,328.2,174,328.2z"/>
		<path class="st0" d="M381.5,331.2h-154c-5.5,0-10-4.5-10-10V205.8c0-5.5,4.5-10,10-10h154c5.5,0,10,4.5,10,10v115.3
			C391.5,326.7,387,331.2,381.5,331.2z"/>
		<path class="st0" d="M589,331.2H435c-5.5,0-10-4.5-10-10V205.8c0-5.5,4.5-10,10-10h154c5.5,0,10,4.5,10,10v115.3
			C599,326.7,594.5,331.2,589,331.2z"/>
	</g>
</g>
<g>
	<g id="_x23_dc3e00ff">
		<path class="st1" d="M51,59h1.9c3.9,0.2,7.8,1.5,10.8,4c-0.4,1.5-0.9,3-1.3,4.5c-1.5,5.2-3,10.4-4.5,15.7c0,0.1-0.1,0.1-0.2,0.1
			c-2.7-1.7-5.6-3.2-8.8-3.8c-1.7-0.4-3.5-0.1-5.1,0.2c-3,0.6-6,1.4-8.8,2.5c0.1-0.4,0.2-0.8,0.3-1.3c1.8-6.4,3.7-12.8,5.6-19.3
			C44,60.1,47.5,59.2,51,59z"/>
	</g>
	<g id="_x23_6aa413ff">
		<path class="st2" d="M66.8,65.5c0-0.1,0.1-0.2,0.1-0.3c2.6,2,5.8,3.3,9,3.9c2.7,0.5,5.4,0,8.1-0.6c2-0.5,3.9-1.1,5.8-1.9
			c-1.9,6.8-3.9,13.6-5.9,20.4c-2.5,1.1-5.1,2-7.8,2.4c-2.4,0.4-4.8,0.6-7.2,0.2c-3-0.6-5.8-2-8.1-4.1
			C62.9,78.7,64.8,72.1,66.8,65.5z"/>
	</g>
	<g id="_x23_009fb8ff">
		<path class="st3" d="M42.6,83.1c2.7-0.4,5.4-0.1,8,0.8c2.2,0.7,4.3,1.8,6.2,3.1c-2,6.9-4,13.7-6,20.6c-2.3-1.4-4.8-2.7-7.4-3.4
			c-1.3-0.4-2.7-0.6-4.1-0.5c-2.5,0.2-5,0.5-7.4,1.1c-1.4,0.3-2.7,0.8-4,1.4v-0.5l0.1,0.4c0.1-0.4,0.2-0.8,0.3-1.2
			c1.8-6.4,3.7-12.8,5.5-19.2C36.7,84.5,39.6,83.6,42.6,83.1z"/>
	</g>
	<g id="_x23_d7a120ff">
		<path class="st4" d="M54.2,109c1.9-6.6,3.8-13.3,5.8-20c1.9,1.2,3.9,2.2,6,3c1.4,0.5,2.8,0.9,4.2,1c2.4,0,4.9-0.2,7.3-0.8
			c1.9-0.5,3.7-1.1,5.5-1.8c-0.6,1.9-1.1,3.7-1.7,5.6c-1.4,4.9-2.8,9.8-4.2,14.8c-3.4,1.5-7.1,2.6-10.9,2.8h-1.6
			c-1.9-0.1-3.9-0.6-5.7-1.4c-1.7-0.7-3.2-1.7-4.7-2.7C54,109.4,54.2,109.2,54.2,109z"/>
	</g>
</g>
<path class="st5" d="M97.5,65.2l25.9-3.5l0,25l-25.9,0.1L97.5,65.2L97.5,65.2z M123.4,89.5l0,25.1L97.5,111l0-21.7L123.4,89.5
	L123.4,89.5z M126.6,61.2l34.4-5v30.2l-34.4,0.3V61.2L126.6,61.2z M161,89.8l0,30.1l-34.4-4.9l0-25.3L161,89.8z"/>
<g>
	<path d="M45.3,145.8l0.2,1.1l0.2-1l1.7-6h0.9l1.6,6l0.2,1l0.2-1.1l1.3-5.8h1.1l-2.1,8.5h-1l-1.8-6.2l-0.1-0.7l-0.1,0.7l-1.8,6.2h-1
		l-2.1-8.5H44L45.3,145.8z"/>
	<path d="M54,140.5c0-0.2,0.1-0.3,0.2-0.4s0.3-0.2,0.5-0.2s0.4,0.1,0.5,0.2s0.2,0.3,0.2,0.4s-0.1,0.3-0.2,0.4s-0.3,0.2-0.5,0.2
		s-0.4-0.1-0.5-0.2S54,140.7,54,140.5z M55.1,148.5h-1.1v-6.3h1.1V148.5z"/>
	<path d="M57.9,142.2l0,0.8c0.2-0.3,0.5-0.5,0.8-0.7s0.7-0.2,1.1-0.2c0.3,0,0.6,0,0.8,0.1s0.5,0.2,0.6,0.4s0.3,0.4,0.4,0.7
		s0.1,0.6,0.1,1.1v4.2h-1.1v-4.2c0-0.2,0-0.5-0.1-0.6s-0.1-0.3-0.2-0.4s-0.2-0.2-0.4-0.2s-0.3-0.1-0.5-0.1c-0.4,0-0.7,0.1-0.9,0.3
		s-0.5,0.4-0.6,0.7v4.5h-1.1v-6.3H57.9z"/>
	<path d="M63.2,145.3c0-0.5,0.1-0.9,0.2-1.3s0.3-0.7,0.5-1s0.5-0.5,0.8-0.7s0.6-0.2,1-0.2c0.4,0,0.7,0.1,1,0.2s0.5,0.3,0.8,0.6v-3.3
		h1.1v9h-1l-0.1-0.7c-0.2,0.3-0.5,0.5-0.8,0.6s-0.6,0.2-1,0.2c-0.4,0-0.7-0.1-1-0.2s-0.6-0.4-0.8-0.7s-0.4-0.6-0.5-1
		s-0.2-0.8-0.2-1.3V145.3z M64.3,145.4c0,0.3,0,0.6,0.1,0.9s0.2,0.5,0.3,0.7s0.3,0.4,0.5,0.5s0.5,0.2,0.8,0.2c0.2,0,0.4,0,0.5-0.1
		s0.3-0.1,0.4-0.2s0.2-0.2,0.3-0.3s0.2-0.2,0.2-0.4v-2.9c-0.1-0.1-0.2-0.2-0.2-0.4s-0.2-0.2-0.3-0.3s-0.3-0.1-0.4-0.2
		S66.2,143,66,143c-0.3,0-0.6,0.1-0.8,0.2s-0.4,0.3-0.5,0.5s-0.2,0.5-0.3,0.7s-0.1,0.6-0.1,0.9V145.4z"/>
	<path d="M70,145.3c0-0.5,0.1-0.9,0.2-1.3s0.3-0.7,0.6-1s0.5-0.5,0.9-0.7s0.8-0.2,1.2-0.2c0.4,0,0.9,0.1,1.2,0.2s0.7,0.4,0.9,0.7
		s0.4,0.6,0.6,1s0.2,0.8,0.2,1.3v0.1c0,0.5-0.1,0.9-0.2,1.3s-0.3,0.7-0.6,1s-0.6,0.5-0.9,0.7s-0.8,0.2-1.2,0.2s-0.8-0.1-1.2-0.2
		s-0.7-0.4-0.9-0.7s-0.4-0.6-0.6-1s-0.2-0.8-0.2-1.3V145.3z M71.1,145.4c0,0.3,0,0.6,0.1,0.9s0.2,0.5,0.3,0.7s0.3,0.4,0.6,0.5
		s0.5,0.2,0.8,0.2c0.3,0,0.6-0.1,0.8-0.2s0.4-0.3,0.6-0.5s0.3-0.5,0.3-0.7s0.1-0.6,0.1-0.9v-0.1c0-0.3,0-0.6-0.1-0.9
		s-0.2-0.5-0.3-0.7s-0.3-0.4-0.6-0.5s-0.5-0.2-0.8-0.2c-0.3,0-0.6,0.1-0.8,0.2s-0.4,0.3-0.6,0.5s-0.3,0.5-0.3,0.7s-0.1,0.6-0.1,0.9
		V145.4z"/>
	<path d="M82.7,147l1.2-4.8H85l-1.8,6.3h-0.9l-1.5-4.8l-1.5,4.8h-0.9l-1.8-6.3h1.1l1.2,4.7l1.5-4.7h0.9L82.7,147z"/>
	<path d="M89.8,146.8c0-0.1,0-0.2-0.1-0.3s-0.1-0.2-0.2-0.3s-0.3-0.2-0.4-0.3s-0.4-0.2-0.8-0.2c-0.4-0.1-0.7-0.2-0.9-0.3
		s-0.5-0.2-0.7-0.4s-0.3-0.3-0.5-0.5s-0.2-0.4-0.2-0.7c0-0.3,0.1-0.5,0.2-0.7s0.3-0.4,0.5-0.6s0.4-0.3,0.7-0.4s0.6-0.1,1-0.1
		c0.4,0,0.7,0.1,1,0.2s0.6,0.2,0.8,0.4s0.4,0.4,0.5,0.6s0.2,0.5,0.2,0.8h-1.1c0-0.1,0-0.3-0.1-0.4s-0.1-0.2-0.3-0.4
		s-0.3-0.2-0.4-0.3s-0.4-0.1-0.6-0.1c-0.2,0-0.4,0-0.6,0.1s-0.3,0.1-0.4,0.2s-0.2,0.2-0.2,0.3s-0.1,0.2-0.1,0.3s0,0.2,0.1,0.3
		s0.1,0.2,0.2,0.3s0.3,0.1,0.4,0.2s0.4,0.1,0.7,0.2c0.4,0.1,0.7,0.2,1,0.3s0.5,0.2,0.7,0.4s0.3,0.3,0.4,0.5s0.1,0.4,0.1,0.7
		c0,0.3-0.1,0.5-0.2,0.8s-0.3,0.4-0.5,0.6s-0.5,0.3-0.8,0.4s-0.6,0.1-1,0.1c-0.4,0-0.8-0.1-1.1-0.2s-0.6-0.3-0.8-0.5
		s-0.4-0.4-0.5-0.7s-0.2-0.5-0.2-0.8h1.1c0,0.2,0.1,0.4,0.2,0.6s0.2,0.3,0.4,0.4s0.3,0.2,0.5,0.2s0.3,0.1,0.5,0.1
		c0.2,0,0.4,0,0.6-0.1s0.3-0.1,0.4-0.2s0.2-0.2,0.3-0.3S89.8,146.9,89.8,146.8z"/>
	<path d="M95.5,148.5V140h2.4c0.6,0,1.1,0.1,1.5,0.3s0.9,0.5,1.2,0.8s0.6,0.8,0.8,1.3s0.3,1.1,0.3,1.7v0.5c0,0.6-0.1,1.2-0.3,1.7
		s-0.4,0.9-0.8,1.3s-0.7,0.6-1.2,0.8s-1,0.3-1.6,0.3H95.5z M96.6,140.9v6.7h1.2c0.5,0,0.9-0.1,1.2-0.2s0.6-0.4,0.9-0.6
		s0.4-0.6,0.5-1s0.2-0.8,0.2-1.3V144c0-0.5-0.1-0.9-0.2-1.3s-0.3-0.7-0.5-1s-0.5-0.5-0.8-0.6s-0.7-0.2-1.1-0.2H96.6z"/>
	<path d="M105.8,148.6c-0.4,0-0.8-0.1-1.2-0.2s-0.7-0.4-0.9-0.6s-0.4-0.6-0.6-1s-0.2-0.8-0.2-1.2v-0.2c0-0.5,0.1-1,0.2-1.4
		s0.4-0.7,0.6-1s0.6-0.5,0.9-0.6s0.7-0.2,1-0.2c0.5,0,0.8,0.1,1.2,0.2s0.6,0.4,0.8,0.7s0.4,0.6,0.5,1s0.2,0.8,0.2,1.2v0.5H104
		c0,0.3,0.1,0.6,0.1,0.8s0.2,0.5,0.4,0.7s0.4,0.3,0.6,0.4s0.5,0.2,0.8,0.2c0.4,0,0.7-0.1,1-0.2s0.5-0.4,0.7-0.6l0.7,0.5
		c-0.1,0.2-0.2,0.3-0.4,0.5s-0.3,0.3-0.5,0.4s-0.4,0.2-0.7,0.3S106.1,148.6,105.8,148.6z M105.7,142.9c-0.2,0-0.4,0-0.6,0.1
		s-0.3,0.2-0.5,0.3s-0.3,0.3-0.4,0.6s-0.2,0.5-0.2,0.8h3.2v-0.1c0-0.2,0-0.4-0.1-0.6s-0.1-0.4-0.3-0.6s-0.3-0.3-0.5-0.4
		S105.9,142.9,105.7,142.9z"/>
	<path d="M113.2,146.8c0-0.1,0-0.2-0.1-0.3s-0.1-0.2-0.2-0.3s-0.3-0.2-0.4-0.3s-0.4-0.2-0.8-0.2c-0.4-0.1-0.7-0.2-0.9-0.3
		s-0.5-0.2-0.7-0.4s-0.3-0.3-0.5-0.5s-0.2-0.4-0.2-0.7c0-0.3,0.1-0.5,0.2-0.7s0.3-0.4,0.5-0.6s0.4-0.3,0.7-0.4s0.6-0.1,1-0.1
		c0.4,0,0.7,0.1,1,0.2s0.6,0.2,0.8,0.4s0.4,0.4,0.5,0.6s0.2,0.5,0.2,0.8h-1.1c0-0.1,0-0.3-0.1-0.4s-0.1-0.2-0.3-0.4
		s-0.3-0.2-0.4-0.3s-0.4-0.1-0.6-0.1c-0.2,0-0.4,0-0.6,0.1s-0.3,0.1-0.4,0.2s-0.2,0.2-0.2,0.3s-0.1,0.2-0.1,0.3s0,0.2,0.1,0.3
		s0.1,0.2,0.2,0.3s0.3,0.1,0.4,0.2s0.4,0.1,0.7,0.2c0.4,0.1,0.7,0.2,1,0.3s0.5,0.2,0.7,0.4s0.3,0.3,0.4,0.5s0.1,0.4,0.1,0.7
		c0,0.3-0.1,0.5-0.2,0.8s-0.3,0.4-0.5,0.6s-0.5,0.3-0.8,0.4s-0.6,0.1-1,0.1c-0.4,0-0.8-0.1-1.1-0.2s-0.6-0.3-0.8-0.5
		s-0.4-0.4-0.5-0.7s-0.2-0.5-0.2-0.8h1.1c0,0.2,0.1,0.4,0.2,0.6s0.2,0.3,0.4,0.4s0.3,0.2,0.5,0.2s0.3,0.1,0.5,0.1
		c0.2,0,0.4,0,0.6-0.1s0.3-0.1,0.4-0.2s0.2-0.2,0.3-0.3S113.2,146.9,113.2,146.8z"/>
	<path d="M117.5,145.6l-0.7,0.7v2.2h-1.1v-9h1.1v5.4l0.6-0.7l2-2.1h1.3l-2.5,2.6l2.8,3.7h-1.3L117.5,145.6z"/>
	<path d="M123.3,140.6v1.5h1.2v0.8h-1.2v3.9c0,0.2,0,0.3,0.1,0.4s0.1,0.2,0.2,0.2s0.1,0.1,0.2,0.1s0.2,0,0.3,0s0.2,0,0.3,0
		s0.2,0,0.2,0v0.9c-0.1,0-0.2,0-0.3,0.1s-0.3,0-0.5,0c-0.2,0-0.4,0-0.6-0.1s-0.3-0.2-0.5-0.3s-0.2-0.3-0.3-0.5s-0.1-0.5-0.1-0.8V143
		H121v-0.8h1.2v-1.5H123.3z"/>
	<path d="M125.3,145.3c0-0.5,0.1-0.9,0.2-1.3s0.3-0.7,0.6-1s0.5-0.5,0.9-0.7s0.8-0.2,1.2-0.2c0.4,0,0.9,0.1,1.2,0.2s0.7,0.4,0.9,0.7
		s0.4,0.6,0.6,1s0.2,0.8,0.2,1.3v0.1c0,0.5-0.1,0.9-0.2,1.3s-0.3,0.7-0.6,1s-0.6,0.5-0.9,0.7s-0.8,0.2-1.2,0.2s-0.8-0.1-1.2-0.2
		s-0.7-0.4-0.9-0.7s-0.4-0.6-0.6-1s-0.2-0.8-0.2-1.3V145.3z M126.4,145.4c0,0.3,0,0.6,0.1,0.9s0.2,0.5,0.3,0.7s0.3,0.4,0.6,0.5
		s0.5,0.2,0.8,0.2c0.3,0,0.6-0.1,0.8-0.2s0.4-0.3,0.6-0.5s0.3-0.5,0.3-0.7s0.1-0.6,0.1-0.9v-0.1c0-0.3,0-0.6-0.1-0.9
		s-0.2-0.5-0.3-0.7s-0.3-0.4-0.6-0.5s-0.5-0.2-0.8-0.2c-0.3,0-0.6,0.1-0.8,0.2s-0.4,0.3-0.6,0.5s-0.3,0.5-0.3,0.7s-0.1,0.6-0.1,0.9
		V145.4z"/>
	<path d="M137.8,145.4c0,0.5-0.1,0.9-0.2,1.3s-0.3,0.7-0.5,1s-0.5,0.5-0.8,0.7s-0.7,0.2-1,0.2c-0.4,0-0.7-0.1-1-0.2
		s-0.6-0.3-0.8-0.5v3.1h-1.1v-8.8h1l0.1,0.7c0.2-0.3,0.5-0.5,0.8-0.6s0.7-0.2,1.1-0.2c0.4,0,0.8,0.1,1.1,0.2s0.6,0.4,0.8,0.7
		s0.4,0.6,0.5,1s0.2,0.8,0.2,1.3V145.4z M136.7,145.3c0-0.3,0-0.6-0.1-0.9s-0.2-0.5-0.3-0.7s-0.3-0.4-0.5-0.5s-0.5-0.2-0.8-0.2
		c-0.2,0-0.4,0-0.5,0.1s-0.3,0.1-0.4,0.2s-0.2,0.2-0.3,0.3s-0.2,0.2-0.2,0.3v3c0.1,0.1,0.2,0.2,0.2,0.3s0.2,0.2,0.3,0.3
		s0.3,0.1,0.4,0.2s0.3,0.1,0.5,0.1c0.3,0,0.5-0.1,0.8-0.2s0.4-0.3,0.5-0.5s0.2-0.5,0.3-0.7s0.1-0.6,0.1-0.9V145.3z"/>
</g>
<g>
	<path d="M252.9,140l2.8,7l2.8-7h1.5v8.5h-1.1v-3.3l0.1-3.6l-2.8,6.9h-0.9l-2.8-6.9l0.1,3.6v3.3h-1.1V140H252.9z"/>
	<path d="M265.7,148.5c0-0.1-0.1-0.2-0.1-0.3s0-0.2-0.1-0.4c-0.1,0.1-0.2,0.2-0.3,0.3s-0.3,0.2-0.4,0.3s-0.3,0.1-0.5,0.2
		s-0.4,0.1-0.6,0.1c-0.3,0-0.6,0-0.9-0.1s-0.5-0.2-0.7-0.4s-0.3-0.4-0.4-0.6s-0.2-0.5-0.2-0.7c0-0.3,0.1-0.6,0.2-0.9
		s0.3-0.5,0.6-0.7s0.5-0.3,0.9-0.4s0.7-0.1,1.2-0.1h1.1v-0.5c0-0.4-0.1-0.7-0.3-0.9s-0.6-0.3-1-0.3c-0.2,0-0.4,0-0.6,0.1
		s-0.3,0.1-0.4,0.2s-0.2,0.2-0.3,0.3s-0.1,0.2-0.1,0.4h-1.1c0-0.2,0.1-0.5,0.2-0.7s0.3-0.4,0.5-0.6s0.5-0.3,0.8-0.4s0.7-0.2,1-0.2
		c0.3,0,0.7,0,1,0.1s0.5,0.2,0.7,0.4s0.4,0.4,0.5,0.7s0.2,0.6,0.2,0.9v2.9c0,0.2,0,0.4,0.1,0.7s0.1,0.4,0.2,0.6v0.1H265.7z
		 M263.9,147.7c0.2,0,0.4,0,0.6-0.1s0.3-0.1,0.5-0.2s0.3-0.2,0.4-0.3s0.2-0.2,0.2-0.4v-1.3h-0.9c-0.6,0-1.1,0.1-1.4,0.3
		s-0.5,0.5-0.5,0.9c0,0.2,0,0.3,0.1,0.4s0.1,0.2,0.2,0.3s0.2,0.2,0.4,0.2S263.7,147.7,263.9,147.7z"/>
	<path d="M270.9,147.7c0.2,0,0.4,0,0.6-0.1s0.3-0.1,0.5-0.3s0.2-0.2,0.3-0.4s0.1-0.3,0.1-0.5h1c0,0.3-0.1,0.5-0.2,0.8
		s-0.3,0.5-0.5,0.7s-0.5,0.3-0.8,0.5s-0.6,0.2-1,0.2c-0.5,0-0.9-0.1-1.2-0.3s-0.6-0.4-0.9-0.7s-0.4-0.6-0.5-1s-0.2-0.8-0.2-1.2v-0.2
		c0-0.4,0.1-0.8,0.2-1.2s0.3-0.7,0.5-1s0.5-0.5,0.9-0.7s0.8-0.3,1.2-0.3c0.4,0,0.7,0.1,1,0.2s0.6,0.3,0.8,0.5s0.4,0.4,0.5,0.7
		s0.2,0.6,0.2,0.9h-1c0-0.2-0.1-0.4-0.1-0.5s-0.2-0.3-0.3-0.4s-0.3-0.2-0.5-0.3s-0.4-0.1-0.6-0.1c-0.3,0-0.6,0.1-0.8,0.2
		s-0.4,0.3-0.5,0.5s-0.2,0.5-0.3,0.7s-0.1,0.5-0.1,0.8v0.2c0,0.3,0,0.6,0.1,0.8s0.1,0.5,0.3,0.7s0.3,0.4,0.5,0.5
		S270.5,147.7,270.9,147.7z"/>
	<path d="M277.7,148.5V140h2.4c0.6,0,1.1,0.1,1.5,0.3s0.9,0.5,1.2,0.8s0.6,0.8,0.8,1.3s0.3,1.1,0.3,1.7v0.5c0,0.6-0.1,1.2-0.3,1.7
		s-0.4,0.9-0.8,1.3s-0.7,0.6-1.2,0.8s-1,0.3-1.6,0.3H277.7z M278.9,140.9v6.7h1.2c0.5,0,0.9-0.1,1.2-0.2s0.6-0.4,0.9-0.6
		s0.4-0.6,0.5-1s0.2-0.8,0.2-1.3V144c0-0.5-0.1-0.9-0.2-1.3s-0.3-0.7-0.5-1s-0.5-0.5-0.8-0.6s-0.7-0.2-1.1-0.2H278.9z"/>
	<path d="M288.1,148.6c-0.4,0-0.8-0.1-1.2-0.2s-0.7-0.4-0.9-0.6s-0.4-0.6-0.6-1s-0.2-0.8-0.2-1.2v-0.2c0-0.5,0.1-1,0.2-1.4
		s0.4-0.7,0.6-1s0.6-0.5,0.9-0.6s0.7-0.2,1-0.2c0.5,0,0.8,0.1,1.2,0.2s0.6,0.4,0.8,0.7s0.4,0.6,0.5,1s0.2,0.8,0.2,1.2v0.5h-4.3
		c0,0.3,0.1,0.6,0.1,0.8s0.2,0.5,0.4,0.7s0.4,0.3,0.6,0.4s0.5,0.2,0.8,0.2c0.4,0,0.7-0.1,1-0.2s0.5-0.4,0.7-0.6l0.7,0.5
		c-0.1,0.2-0.2,0.3-0.4,0.5s-0.3,0.3-0.5,0.4s-0.4,0.2-0.7,0.3S288.4,148.6,288.1,148.6z M287.9,142.9c-0.2,0-0.4,0-0.6,0.1
		s-0.3,0.2-0.5,0.3s-0.3,0.3-0.4,0.6s-0.2,0.5-0.2,0.8h3.2v-0.1c0-0.2,0-0.4-0.1-0.6s-0.1-0.4-0.3-0.6s-0.3-0.3-0.5-0.4
		S288.2,142.9,287.9,142.9z"/>
	<path d="M295.5,146.8c0-0.1,0-0.2-0.1-0.3s-0.1-0.2-0.2-0.3s-0.3-0.2-0.4-0.3s-0.4-0.2-0.8-0.2c-0.4-0.1-0.7-0.2-0.9-0.3
		s-0.5-0.2-0.7-0.4s-0.3-0.3-0.5-0.5s-0.2-0.4-0.2-0.7c0-0.3,0.1-0.5,0.2-0.7s0.3-0.4,0.5-0.6s0.4-0.3,0.7-0.4s0.6-0.1,1-0.1
		c0.4,0,0.7,0.1,1,0.2s0.6,0.2,0.8,0.4s0.4,0.4,0.5,0.6s0.2,0.5,0.2,0.8h-1.1c0-0.1,0-0.3-0.1-0.4s-0.1-0.2-0.3-0.4
		s-0.3-0.2-0.4-0.3s-0.4-0.1-0.6-0.1c-0.2,0-0.4,0-0.6,0.1s-0.3,0.1-0.4,0.2s-0.2,0.2-0.2,0.3s-0.1,0.2-0.1,0.3s0,0.2,0.1,0.3
		s0.1,0.2,0.2,0.3s0.3,0.1,0.4,0.2s0.4,0.1,0.7,0.2c0.4,0.1,0.7,0.2,1,0.3s0.5,0.2,0.7,0.4s0.3,0.3,0.4,0.5s0.1,0.4,0.1,0.7
		c0,0.3-0.1,0.5-0.2,0.8s-0.3,0.4-0.5,0.6s-0.5,0.3-0.8,0.4s-0.6,0.1-1,0.1c-0.4,0-0.8-0.1-1.1-0.2s-0.6-0.3-0.8-0.5
		s-0.4-0.4-0.5-0.7s-0.2-0.5-0.2-0.8h1.1c0,0.2,0.1,0.4,0.2,0.6s0.2,0.3,0.4,0.4s0.3,0.2,0.5,0.2s0.3,0.1,0.5,0.1
		c0.2,0,0.4,0,0.6-0.1s0.3-0.1,0.4-0.2s0.2-0.2,0.3-0.3S295.5,146.9,295.5,146.8z"/>
	<path d="M299.8,145.6l-0.7,0.7v2.2H298v-9h1.1v5.4l0.6-0.7l2-2.1h1.3l-2.5,2.6l2.8,3.7H302L299.8,145.6z"/>
	<path d="M305.5,140.6v1.5h1.2v0.8h-1.2v3.9c0,0.2,0,0.3,0.1,0.4s0.1,0.2,0.2,0.2s0.1,0.1,0.2,0.1s0.2,0,0.3,0s0.2,0,0.3,0
		s0.2,0,0.2,0v0.9c-0.1,0-0.2,0-0.3,0.1s-0.3,0-0.5,0c-0.2,0-0.4,0-0.6-0.1s-0.3-0.2-0.5-0.3s-0.2-0.3-0.3-0.5s-0.1-0.5-0.1-0.8V143
		h-1.2v-0.8h1.2v-1.5H305.5z"/>
	<path d="M307.6,145.3c0-0.5,0.1-0.9,0.2-1.3s0.3-0.7,0.6-1s0.5-0.5,0.9-0.7s0.8-0.2,1.2-0.2c0.4,0,0.9,0.1,1.2,0.2s0.7,0.4,0.9,0.7
		s0.4,0.6,0.6,1s0.2,0.8,0.2,1.3v0.1c0,0.5-0.1,0.9-0.2,1.3s-0.3,0.7-0.6,1s-0.6,0.5-0.9,0.7s-0.8,0.2-1.2,0.2s-0.8-0.1-1.2-0.2
		s-0.7-0.4-0.9-0.7s-0.4-0.6-0.6-1s-0.2-0.8-0.2-1.3V145.3z M308.7,145.4c0,0.3,0,0.6,0.1,0.9s0.2,0.5,0.3,0.7s0.3,0.4,0.6,0.5
		s0.5,0.2,0.8,0.2c0.3,0,0.6-0.1,0.8-0.2s0.4-0.3,0.6-0.5s0.3-0.5,0.3-0.7s0.1-0.6,0.1-0.9v-0.1c0-0.3,0-0.6-0.1-0.9
		s-0.2-0.5-0.3-0.7s-0.3-0.4-0.6-0.5s-0.5-0.2-0.8-0.2c-0.3,0-0.6,0.1-0.8,0.2s-0.4,0.3-0.6,0.5s-0.3,0.5-0.3,0.7s-0.1,0.6-0.1,0.9
		V145.4z"/>
	<path d="M320.1,145.4c0,0.5-0.1,0.9-0.2,1.3s-0.3,0.7-0.5,1s-0.5,0.5-0.8,0.7s-0.7,0.2-1,0.2c-0.4,0-0.7-0.1-1-0.2
		s-0.6-0.3-0.8-0.5v3.1h-1.1v-8.8h1l0.1,0.7c0.2-0.3,0.5-0.5,0.8-0.6s0.7-0.2,1.1-0.2c0.4,0,0.8,0.1,1.1,0.2s0.6,0.4,0.8,0.7
		s0.4,0.6,0.5,1s0.2,0.8,0.2,1.3V145.4z M319,145.3c0-0.3,0-0.6-0.1-0.9s-0.2-0.5-0.3-0.7s-0.3-0.4-0.5-0.5s-0.5-0.2-0.8-0.2
		c-0.2,0-0.4,0-0.5,0.1s-0.3,0.1-0.4,0.2s-0.2,0.2-0.3,0.3s-0.2,0.2-0.2,0.3v3c0.1,0.1,0.2,0.2,0.2,0.3s0.2,0.2,0.3,0.3
		s0.3,0.1,0.4,0.2s0.3,0.1,0.5,0.1c0.3,0,0.5-0.1,0.8-0.2s0.4-0.3,0.5-0.5s0.2-0.5,0.3-0.7s0.1-0.6,0.1-0.9V145.3z"/>
	<path d="M324.6,149.2h-0.9l3.6-9.3h0.9L324.6,149.2z"/>
	<path d="M332.3,140.5c0-0.2,0.1-0.3,0.2-0.4s0.3-0.2,0.5-0.2s0.4,0.1,0.5,0.2s0.2,0.3,0.2,0.4s-0.1,0.3-0.2,0.4s-0.3,0.2-0.5,0.2
		s-0.4-0.1-0.5-0.2S332.3,140.7,332.3,140.5z M333.5,148.5h-1.1v-6.3h1.1V148.5z"/>
	<path d="M336.5,145.2v3.3h-1.1V140h3.1c0.5,0,0.9,0.1,1.3,0.2s0.7,0.3,0.9,0.5s0.4,0.5,0.6,0.8s0.2,0.7,0.2,1
		c0,0.4-0.1,0.8-0.2,1.1s-0.3,0.6-0.6,0.8s-0.6,0.4-0.9,0.5s-0.8,0.2-1.3,0.2H336.5z M336.5,144.2h2c0.3,0,0.6,0,0.8-0.1
		s0.4-0.2,0.6-0.3s0.3-0.3,0.3-0.5s0.1-0.4,0.1-0.7c0-0.2,0-0.4-0.1-0.6s-0.2-0.4-0.3-0.5s-0.3-0.3-0.6-0.4s-0.5-0.1-0.8-0.1h-2
		V144.2z"/>
	<path d="M346.7,148.5c0-0.1-0.1-0.2-0.1-0.3s0-0.2-0.1-0.4c-0.1,0.1-0.2,0.2-0.3,0.3s-0.3,0.2-0.4,0.3s-0.3,0.1-0.5,0.2
		s-0.4,0.1-0.6,0.1c-0.3,0-0.6,0-0.9-0.1s-0.5-0.2-0.7-0.4s-0.3-0.4-0.4-0.6s-0.2-0.5-0.2-0.7c0-0.3,0.1-0.6,0.2-0.9
		s0.3-0.5,0.6-0.7s0.5-0.3,0.9-0.4s0.7-0.1,1.2-0.1h1.1v-0.5c0-0.4-0.1-0.7-0.3-0.9s-0.6-0.3-1-0.3c-0.2,0-0.4,0-0.6,0.1
		s-0.3,0.1-0.4,0.2s-0.2,0.2-0.3,0.3s-0.1,0.2-0.1,0.4h-1.1c0-0.2,0.1-0.5,0.2-0.7s0.3-0.4,0.5-0.6s0.5-0.3,0.8-0.4s0.7-0.2,1-0.2
		c0.3,0,0.7,0,1,0.1s0.5,0.2,0.7,0.4s0.4,0.4,0.5,0.7s0.2,0.6,0.2,0.9v2.9c0,0.2,0,0.4,0.1,0.7s0.1,0.4,0.2,0.6v0.1H346.7z
		 M344.9,147.7c0.2,0,0.4,0,0.6-0.1s0.3-0.1,0.5-0.2s0.3-0.2,0.4-0.3s0.2-0.2,0.2-0.4v-1.3h-0.9c-0.6,0-1.1,0.1-1.4,0.3
		s-0.5,0.5-0.5,0.9c0,0.2,0,0.3,0.1,0.4s0.1,0.2,0.2,0.3s0.2,0.2,0.4,0.2S344.7,147.7,344.9,147.7z"/>
	<path d="M349,145.3c0-0.5,0.1-0.9,0.2-1.3s0.3-0.7,0.5-1s0.5-0.5,0.8-0.7s0.6-0.2,1-0.2c0.4,0,0.7,0.1,1,0.2s0.5,0.3,0.8,0.6v-3.3
		h1.1v9h-1l-0.1-0.7c-0.2,0.3-0.5,0.5-0.8,0.6s-0.6,0.2-1,0.2c-0.4,0-0.7-0.1-1-0.2s-0.6-0.4-0.8-0.7s-0.4-0.6-0.5-1
		s-0.2-0.8-0.2-1.3V145.3z M350.1,145.4c0,0.3,0,0.6,0.1,0.9s0.2,0.5,0.3,0.7s0.3,0.4,0.5,0.5s0.5,0.2,0.8,0.2c0.2,0,0.4,0,0.5-0.1
		s0.3-0.1,0.4-0.2s0.2-0.2,0.3-0.3s0.2-0.2,0.2-0.4v-2.9c-0.1-0.1-0.2-0.2-0.2-0.4s-0.2-0.2-0.3-0.3s-0.3-0.1-0.4-0.2
		s-0.3-0.1-0.5-0.1c-0.3,0-0.6,0.1-0.8,0.2s-0.4,0.3-0.5,0.5s-0.2,0.5-0.3,0.7s-0.1,0.6-0.1,0.9V145.4z"/>
</g>
<g>
	<title>Layer 1</title>
	<g id="Layer_1_1_">
		<path id="svg_1" class="st6" d="M238.8,64.7h37l-7,14.8l-3,14l10.5,1l1.6,21.6h-39.2V64.7L238.8,64.7z"/>
		<path id="svg_2" class="st7" d="M275.7,64.7H305v51.5h-27.3L276.7,94l-11,0.2l2.5-14.8L275.7,64.7z"/>
		<path id="svg_3" class="st8" d="M277.2,105.1c7.3-0.1,12.7-1.8,17-4.4"/>
		<path id="svg_4" class="st9" d="M249.7,100.5c8.2,4.2,16.8,5.2,25.9,4.6"/>
		<path id="svg_5" class="st9" d="M256.9,73.2V81"/>
		<path id="svg_6" class="st8" d="M285.1,73.2V81"/>
		<path id="svg_7" class="st8" d="M281.9,56.8c-8.2,9.7-15.3,22.4-16.1,37.2h12.1c-3,10.1-1.4,21.4,3.2,30.5"/>
	</g>
</g>
<rect x="672.3" y="145" class="st10" width="115" height="141.3"/>
<g>
	<path d="M487.8,145.8c0,0.4-0.1,0.8-0.3,1.1s-0.4,0.6-0.6,0.9s-0.6,0.4-1,0.6s-0.8,0.2-1.3,0.2c-0.5,0-1-0.1-1.4-0.3
		s-0.8-0.5-1.1-0.8s-0.5-0.8-0.7-1.2s-0.2-1-0.2-1.6v-0.9c0-0.6,0.1-1.1,0.2-1.6s0.4-0.9,0.7-1.2s0.7-0.6,1.1-0.8s0.9-0.3,1.4-0.3
		c0.5,0,0.9,0.1,1.3,0.2s0.7,0.3,0.9,0.6s0.5,0.6,0.6,0.9s0.3,0.7,0.3,1.2h-1.1c0-0.3-0.1-0.6-0.2-0.8s-0.2-0.4-0.4-0.6
		s-0.4-0.3-0.6-0.4s-0.5-0.1-0.8-0.1c-0.4,0-0.7,0.1-1,0.2s-0.5,0.4-0.7,0.6s-0.3,0.6-0.4,1s-0.1,0.8-0.1,1.2v0.9
		c0,0.4,0,0.8,0.1,1.2s0.2,0.7,0.4,1s0.4,0.5,0.7,0.7s0.6,0.2,1,0.2c0.4,0,0.7,0,0.9-0.1s0.5-0.2,0.6-0.4s0.3-0.4,0.4-0.6
		s0.2-0.5,0.2-0.8H487.8z"/>
	<path d="M490.2,142.9c0.2-0.3,0.5-0.5,0.8-0.7s0.7-0.2,1.1-0.2c0.3,0,0.6,0,0.8,0.1s0.5,0.2,0.6,0.4s0.3,0.4,0.4,0.7
		s0.1,0.6,0.1,1.1v4.2H493v-4.2c0-0.2,0-0.5-0.1-0.6s-0.1-0.3-0.2-0.4s-0.2-0.2-0.4-0.2s-0.3-0.1-0.5-0.1c-0.4,0-0.7,0.1-0.9,0.3
		s-0.5,0.4-0.6,0.7v4.5h-1.1v-9h1.1V142.9z"/>
	<path d="M498.8,143.1c-0.1,0-0.2,0-0.3,0s-0.2,0-0.3,0c-0.4,0-0.7,0.1-0.9,0.2s-0.4,0.4-0.5,0.7v4.5h-1.1v-6.3h1.1l0,0.7
		c0.2-0.3,0.4-0.5,0.6-0.6s0.5-0.2,0.9-0.2c0.1,0,0.2,0,0.3,0s0.2,0,0.2,0.1V143.1z"/>
	<path d="M499.4,145.3c0-0.5,0.1-0.9,0.2-1.3s0.3-0.7,0.6-1s0.5-0.5,0.9-0.7s0.8-0.2,1.2-0.2c0.4,0,0.9,0.1,1.2,0.2s0.7,0.4,0.9,0.7
		s0.4,0.6,0.6,1s0.2,0.8,0.2,1.3v0.1c0,0.5-0.1,0.9-0.2,1.3s-0.3,0.7-0.6,1s-0.6,0.5-0.9,0.7s-0.8,0.2-1.2,0.2s-0.8-0.1-1.2-0.2
		s-0.7-0.4-0.9-0.7s-0.4-0.6-0.6-1s-0.2-0.8-0.2-1.3V145.3z M500.5,145.4c0,0.3,0,0.6,0.1,0.9s0.2,0.5,0.3,0.7s0.3,0.4,0.6,0.5
		s0.5,0.2,0.8,0.2c0.3,0,0.6-0.1,0.8-0.2s0.4-0.3,0.6-0.5s0.3-0.5,0.3-0.7s0.1-0.6,0.1-0.9v-0.1c0-0.3,0-0.6-0.1-0.9
		s-0.2-0.5-0.3-0.7s-0.3-0.4-0.6-0.5s-0.5-0.2-0.8-0.2c-0.3,0-0.6,0.1-0.8,0.2s-0.4,0.3-0.6,0.5s-0.3,0.5-0.3,0.7s-0.1,0.6-0.1,0.9
		V145.4z"/>
	<path d="M507.5,142.2l0,0.7c0.2-0.3,0.5-0.5,0.8-0.6s0.7-0.2,1.1-0.2c0.4,0,0.8,0.1,1.1,0.2s0.6,0.4,0.7,0.8
		c0.2-0.3,0.5-0.6,0.8-0.7s0.7-0.3,1.2-0.3c0.3,0,0.6,0,0.9,0.1s0.5,0.2,0.7,0.4s0.3,0.4,0.4,0.7s0.1,0.6,0.1,1v4.2h-1.1v-4.2
		c0-0.3,0-0.5-0.1-0.7s-0.2-0.3-0.3-0.4s-0.3-0.2-0.4-0.2s-0.4-0.1-0.6-0.1c-0.2,0-0.4,0-0.6,0.1s-0.3,0.2-0.4,0.3s-0.2,0.3-0.3,0.4
		s-0.1,0.3-0.1,0.5v4.2h-1.1v-4.2c0-0.2,0-0.5-0.1-0.6s-0.2-0.3-0.3-0.4s-0.3-0.2-0.4-0.2s-0.4-0.1-0.6-0.1c-0.4,0-0.7,0.1-0.9,0.3
		s-0.4,0.4-0.5,0.7v4.6h-1.1v-6.3H507.5z"/>
	<path d="M519.7,148.6c-0.4,0-0.8-0.1-1.2-0.2s-0.7-0.4-0.9-0.6s-0.4-0.6-0.6-1s-0.2-0.8-0.2-1.2v-0.2c0-0.5,0.1-1,0.2-1.4
		s0.4-0.7,0.6-1s0.6-0.5,0.9-0.6s0.7-0.2,1-0.2c0.5,0,0.8,0.1,1.2,0.2s0.6,0.4,0.8,0.7s0.4,0.6,0.5,1s0.2,0.8,0.2,1.2v0.5h-4.3
		c0,0.3,0.1,0.6,0.1,0.8s0.2,0.5,0.4,0.7s0.4,0.3,0.6,0.4s0.5,0.2,0.8,0.2c0.4,0,0.7-0.1,1-0.2s0.5-0.4,0.7-0.6l0.7,0.5
		c-0.1,0.2-0.2,0.3-0.4,0.5s-0.3,0.3-0.5,0.4s-0.4,0.2-0.7,0.3S520,148.6,519.7,148.6z M519.5,142.9c-0.2,0-0.4,0-0.6,0.1
		s-0.3,0.2-0.5,0.3s-0.3,0.3-0.4,0.6s-0.2,0.5-0.2,0.8h3.2v-0.1c0-0.2,0-0.4-0.1-0.6s-0.1-0.4-0.3-0.6s-0.3-0.3-0.5-0.4
		S519.8,142.9,519.5,142.9z"/>
	<path d="M533.1,144.5c0,0.6-0.1,1.2-0.2,1.7s-0.4,0.9-0.7,1.3s-0.7,0.6-1.1,0.8s-0.9,0.3-1.4,0.3c-0.5,0-1-0.1-1.4-0.3
		s-0.8-0.5-1.1-0.8s-0.5-0.8-0.7-1.3s-0.3-1.1-0.3-1.7V144c0-0.6,0.1-1.2,0.3-1.7s0.4-0.9,0.7-1.3s0.7-0.6,1.1-0.8s0.9-0.3,1.4-0.3
		c0.5,0,1,0.1,1.4,0.3s0.8,0.5,1.1,0.8s0.5,0.8,0.7,1.3s0.2,1.1,0.2,1.7V144.5z M532,144c0-0.5-0.1-1-0.2-1.3s-0.3-0.7-0.5-1
		s-0.4-0.5-0.7-0.6s-0.6-0.2-1-0.2c-0.3,0-0.7,0.1-0.9,0.2s-0.5,0.3-0.7,0.6s-0.4,0.6-0.5,1s-0.2,0.8-0.2,1.3v0.6
		c0,0.5,0.1,1,0.2,1.4s0.3,0.7,0.5,1s0.4,0.5,0.7,0.6s0.6,0.2,0.9,0.2c0.4,0,0.7-0.1,1-0.2s0.5-0.3,0.7-0.6s0.3-0.6,0.4-1
		s0.2-0.8,0.2-1.4V144z"/>
	<path d="M539.3,146.3c0-0.2,0-0.4-0.1-0.5s-0.2-0.3-0.3-0.4s-0.4-0.2-0.6-0.4s-0.6-0.2-1-0.3c-0.4-0.1-0.8-0.3-1.1-0.4
		s-0.6-0.3-0.9-0.5s-0.4-0.4-0.6-0.7s-0.2-0.6-0.2-0.9s0.1-0.6,0.2-0.9s0.3-0.5,0.6-0.7s0.6-0.4,0.9-0.5s0.8-0.2,1.2-0.2
		c0.5,0,0.9,0.1,1.3,0.2s0.7,0.3,0.9,0.6s0.5,0.5,0.6,0.8s0.2,0.6,0.2,1h-1.1c0-0.2,0-0.5-0.1-0.7s-0.2-0.4-0.3-0.5
		s-0.4-0.3-0.6-0.3s-0.5-0.1-0.8-0.1c-0.3,0-0.6,0-0.8,0.1s-0.4,0.2-0.6,0.3s-0.3,0.3-0.3,0.4s-0.1,0.4-0.1,0.6c0,0.2,0,0.3,0.1,0.5
		s0.2,0.3,0.4,0.4s0.4,0.2,0.6,0.3s0.6,0.2,0.9,0.3c0.5,0.1,0.9,0.3,1.3,0.5s0.6,0.4,0.9,0.6s0.4,0.4,0.5,0.7s0.2,0.6,0.2,0.9
		c0,0.3-0.1,0.7-0.2,0.9s-0.3,0.5-0.6,0.7s-0.6,0.4-0.9,0.5s-0.8,0.2-1.2,0.2c-0.3,0-0.5,0-0.8-0.1s-0.5-0.1-0.8-0.2
		s-0.5-0.2-0.7-0.4s-0.4-0.3-0.5-0.5s-0.3-0.4-0.4-0.6s-0.1-0.5-0.1-0.8h1.1c0,0.3,0.1,0.5,0.2,0.8s0.3,0.4,0.5,0.5s0.4,0.2,0.7,0.3
		s0.5,0.1,0.8,0.1c0.6,0,1-0.1,1.4-0.4S539.3,146.8,539.3,146.3z"/>
</g>
<path class="st11" d="M512,53.9c0,0,20.7-0.9,31.7,19.9h-33.4c0,0-6.3-0.2-11.7,7.5c-1.5,3.2-3.2,6.5-1.3,13
	c-2.7-4.6-14.3-24.7-14.3-24.7S491.1,54.7,512,53.9L512,53.9z"/>
<path class="st12" d="M542.6,106.7c0,0-9.6,18.4-33,17.5c2.9-5,16.7-29,16.7-29s3.3-5.4-0.6-13.9c-2-3-4-6-10.6-7.7
	c5.3,0,28.6,0,28.6,0S552.4,88.2,542.6,106.7z"/>
<path class="st13" d="M481.6,106.8c0,0-11.2-17.5,1.4-37.4c2.9,5,16.7,29,16.7,29s3,5.6,12.3,6.4c3.6-0.3,7.2-0.5,12-5.4
	c-2.6,4.6-14.3,24.7-14.3,24.7S492.7,124.5,481.6,106.8L481.6,106.8z"/>
<path class="st14" d="M509.6,124.3l4.7-19.6c0,0,5.2-0.4,9.5-5.2C521.1,104.3,509.6,124.3,509.6,124.3L509.6,124.3z"/>
<path class="st0" d="M496.3,89.3c0-8.7,7-15.7,15.7-15.7s15.7,7,15.7,15.7c0,8.7-7,15.7-15.7,15.7C503.3,105,496.3,98,496.3,89.3
	L496.3,89.3z"/>
<linearGradient id="SVGID_1_" gradientUnits="userSpaceOnUse" x1="-0.2883" y1="363.7777" x2="-0.2883" y2="363.7505" gradientTransform="matrix(923.3912 0 0 -923.3912 778.1639 335985.5938)">
	<stop  offset="0" style="stop-color:#86BBE5"/>
	<stop  offset="1" style="stop-color:#1072BA"/>
</linearGradient>
<path class="st15" d="M498.9,89.3c0-7.2,5.8-13,13-13c7.2,0,13,5.8,13,13c0,7.2-5.8,13-13,13C504.7,102.4,498.9,96.5,498.9,89.3z"/>
<path class="st16" d="M543.6,73.7l-19.4,5.7c0,0-2.9-4.3-9.2-5.7C520.5,73.7,543.6,73.7,543.6,73.7L543.6,73.7z"/>
<path class="st17" d="M496.8,93.5c-2.7-4.7-13.9-24-13.9-24l14.3,14.2c0,0-1.5,3-0.9,7.4L496.8,93.5L496.8,93.5z"/>
<path class="st10" d="M31,186h34v34H31V186z"/>
<g>
	<path d="M61.8,308.8c0,0.4-0.1,0.8-0.3,1.1s-0.4,0.6-0.6,0.9s-0.6,0.4-1,0.6s-0.8,0.2-1.3,0.2c-0.5,0-1-0.1-1.4-0.3
		s-0.8-0.5-1.1-0.8s-0.5-0.8-0.7-1.2s-0.2-1-0.2-1.6v-0.9c0-0.6,0.1-1.1,0.2-1.6s0.4-0.9,0.7-1.2s0.7-0.6,1.1-0.8s0.9-0.3,1.4-0.3
		c0.5,0,0.9,0.1,1.3,0.2s0.7,0.3,0.9,0.6s0.5,0.6,0.6,0.9s0.3,0.7,0.3,1.2h-1.1c0-0.3-0.1-0.6-0.2-0.8s-0.2-0.4-0.4-0.6
		s-0.4-0.3-0.6-0.4s-0.5-0.1-0.8-0.1c-0.4,0-0.7,0.1-1,0.2s-0.5,0.4-0.7,0.6s-0.3,0.6-0.4,1s-0.1,0.8-0.1,1.2v0.9
		c0,0.4,0,0.8,0.1,1.2s0.2,0.7,0.4,1s0.4,0.5,0.7,0.7s0.6,0.2,1,0.2c0.4,0,0.7,0,0.9-0.1s0.5-0.2,0.6-0.4s0.3-0.4,0.4-0.6
		s0.2-0.5,0.2-0.8H61.8z"/>
	<path d="M62.8,308.3c0-0.5,0.1-0.9,0.2-1.3s0.3-0.7,0.6-1s0.5-0.5,0.9-0.7s0.8-0.2,1.2-0.2c0.4,0,0.9,0.1,1.2,0.2s0.7,0.4,0.9,0.7
		s0.4,0.6,0.6,1s0.2,0.8,0.2,1.3v0.1c0,0.5-0.1,0.9-0.2,1.3s-0.3,0.7-0.6,1s-0.6,0.5-0.9,0.7s-0.8,0.2-1.2,0.2s-0.8-0.1-1.2-0.2
		s-0.7-0.4-0.9-0.7s-0.4-0.6-0.6-1s-0.2-0.8-0.2-1.3V308.3z M63.9,308.4c0,0.3,0,0.6,0.1,0.9s0.2,0.5,0.3,0.7s0.3,0.4,0.6,0.5
		s0.5,0.2,0.8,0.2c0.3,0,0.6-0.1,0.8-0.2s0.4-0.3,0.6-0.5s0.3-0.5,0.3-0.7s0.1-0.6,0.1-0.9v-0.1c0-0.3,0-0.6-0.1-0.9
		s-0.2-0.5-0.3-0.7s-0.3-0.4-0.6-0.5s-0.5-0.2-0.8-0.2c-0.3,0-0.6,0.1-0.8,0.2s-0.4,0.3-0.6,0.5s-0.3,0.5-0.3,0.7s-0.1,0.6-0.1,0.9
		V308.4z"/>
	<path d="M71,305.2l0,0.7c0.2-0.3,0.5-0.5,0.8-0.6s0.7-0.2,1.1-0.2c0.4,0,0.8,0.1,1.1,0.2s0.6,0.4,0.7,0.8c0.2-0.3,0.5-0.6,0.8-0.7
		s0.7-0.3,1.2-0.3c0.3,0,0.6,0,0.9,0.1s0.5,0.2,0.7,0.4s0.3,0.4,0.4,0.7s0.1,0.6,0.1,1v4.2h-1.1v-4.2c0-0.3,0-0.5-0.1-0.7
		s-0.2-0.3-0.3-0.4s-0.3-0.2-0.4-0.2s-0.4-0.1-0.6-0.1c-0.2,0-0.4,0-0.6,0.1s-0.3,0.2-0.4,0.3s-0.2,0.3-0.3,0.4s-0.1,0.3-0.1,0.5
		v4.2h-1.1v-4.2c0-0.2,0-0.5-0.1-0.6s-0.2-0.3-0.3-0.4s-0.3-0.2-0.4-0.2s-0.4-0.1-0.6-0.1c-0.4,0-0.7,0.1-0.9,0.3s-0.4,0.4-0.5,0.7
		v4.6H70v-6.3H71z"/>
	<path d="M85.8,308.4c0,0.5-0.1,0.9-0.2,1.3s-0.3,0.7-0.5,1s-0.5,0.5-0.8,0.7s-0.7,0.2-1,0.2c-0.4,0-0.7-0.1-1-0.2s-0.6-0.3-0.8-0.5
		v3.1h-1.1v-8.8h1l0.1,0.7c0.2-0.3,0.5-0.5,0.8-0.6s0.7-0.2,1.1-0.2c0.4,0,0.8,0.1,1.1,0.2s0.6,0.4,0.8,0.7s0.4,0.6,0.5,1
		s0.2,0.8,0.2,1.3V308.4z M84.8,308.3c0-0.3,0-0.6-0.1-0.9s-0.2-0.5-0.3-0.7s-0.3-0.4-0.5-0.5s-0.5-0.2-0.8-0.2
		c-0.2,0-0.4,0-0.5,0.1s-0.3,0.1-0.4,0.2s-0.2,0.2-0.3,0.3s-0.2,0.2-0.2,0.3v3c0.1,0.1,0.2,0.2,0.2,0.3s0.2,0.2,0.3,0.3
		s0.3,0.1,0.4,0.2s0.3,0.1,0.5,0.1c0.3,0,0.5-0.1,0.8-0.2s0.4-0.3,0.5-0.5s0.2-0.5,0.3-0.7s0.1-0.6,0.1-0.9V308.3z"/>
	<path d="M91.1,310.9c-0.2,0.2-0.5,0.4-0.8,0.5s-0.7,0.2-1.1,0.2c-0.3,0-0.6,0-0.8-0.1s-0.5-0.2-0.7-0.4s-0.3-0.4-0.4-0.7
		s-0.1-0.7-0.1-1.1v-4.1h1.1v4.1c0,0.3,0,0.5,0.1,0.7s0.2,0.3,0.3,0.4s0.2,0.2,0.4,0.2s0.3,0.1,0.4,0.1c0.4,0,0.8-0.1,1.1-0.3
		s0.5-0.4,0.6-0.7v-4.6h1.1v6.3h-1L91.1,310.9z"/>
	<path d="M95.3,303.6v1.5h1.2v0.8h-1.2v3.9c0,0.2,0,0.3,0.1,0.4s0.1,0.2,0.2,0.2s0.1,0.1,0.2,0.1s0.2,0,0.3,0s0.2,0,0.3,0
		s0.2,0,0.2,0v0.9c-0.1,0-0.2,0-0.3,0.1s-0.3,0-0.5,0c-0.2,0-0.4,0-0.6-0.1s-0.3-0.2-0.5-0.3s-0.2-0.3-0.3-0.5s-0.1-0.5-0.1-0.8V306
		h-1.2v-0.8h1.2v-1.5H95.3z"/>
	<path d="M100.4,311.6c-0.4,0-0.8-0.1-1.2-0.2s-0.7-0.4-0.9-0.6s-0.4-0.6-0.6-1s-0.2-0.8-0.2-1.2v-0.2c0-0.5,0.1-1,0.2-1.4
		s0.4-0.7,0.6-1s0.6-0.5,0.9-0.6s0.7-0.2,1-0.2c0.5,0,0.8,0.1,1.2,0.2s0.6,0.4,0.8,0.7s0.4,0.6,0.5,1s0.2,0.8,0.2,1.2v0.5h-4.3
		c0,0.3,0.1,0.6,0.1,0.8s0.2,0.5,0.4,0.7s0.4,0.3,0.6,0.4s0.5,0.2,0.8,0.2c0.4,0,0.7-0.1,1-0.2s0.5-0.4,0.7-0.6l0.7,0.5
		c-0.1,0.2-0.2,0.3-0.4,0.5s-0.3,0.3-0.5,0.4s-0.4,0.2-0.7,0.3S100.7,311.6,100.4,311.6z M100.3,305.9c-0.2,0-0.4,0-0.6,0.1
		s-0.3,0.2-0.5,0.3s-0.3,0.3-0.4,0.6s-0.2,0.5-0.2,0.8h3.2v-0.1c0-0.2,0-0.4-0.1-0.6s-0.1-0.4-0.3-0.6s-0.3-0.3-0.5-0.4
		S100.5,305.9,100.3,305.9z"/>
	<path d="M107.2,306.1c-0.1,0-0.2,0-0.3,0s-0.2,0-0.3,0c-0.4,0-0.7,0.1-0.9,0.2s-0.4,0.4-0.5,0.7v4.5h-1.1v-6.3h1.1l0,0.7
		c0.2-0.3,0.4-0.5,0.6-0.6s0.5-0.2,0.9-0.2c0.1,0,0.2,0,0.3,0s0.2,0,0.2,0.1V306.1z"/>
	<path d="M112.4,310.6h4v0.9h-5.2V303h1.1V310.6z"/>
	<path d="M121.5,311.5c0-0.1-0.1-0.2-0.1-0.3s0-0.2-0.1-0.4c-0.1,0.1-0.2,0.2-0.3,0.3s-0.3,0.2-0.4,0.3s-0.3,0.1-0.5,0.2
		s-0.4,0.1-0.6,0.1c-0.3,0-0.6,0-0.9-0.1s-0.5-0.2-0.7-0.4s-0.3-0.4-0.4-0.6s-0.2-0.5-0.2-0.7c0-0.3,0.1-0.6,0.2-0.9
		s0.3-0.5,0.6-0.7s0.5-0.3,0.9-0.4s0.7-0.1,1.2-0.1h1.1v-0.5c0-0.4-0.1-0.7-0.3-0.9s-0.6-0.3-1-0.3c-0.2,0-0.4,0-0.6,0.1
		s-0.3,0.1-0.4,0.2s-0.2,0.2-0.3,0.3s-0.1,0.2-0.1,0.4h-1.1c0-0.2,0.1-0.5,0.2-0.7s0.3-0.4,0.5-0.6s0.5-0.3,0.8-0.4s0.7-0.2,1-0.2
		c0.3,0,0.7,0,1,0.1s0.5,0.2,0.7,0.4s0.4,0.4,0.5,0.7s0.2,0.6,0.2,0.9v2.9c0,0.2,0,0.4,0.1,0.7s0.1,0.4,0.2,0.6v0.1H121.5z
		 M119.7,310.7c0.2,0,0.4,0,0.6-0.1s0.3-0.1,0.5-0.2s0.3-0.2,0.4-0.3s0.2-0.2,0.2-0.4v-1.3h-0.9c-0.6,0-1.1,0.1-1.4,0.3
		s-0.5,0.5-0.5,0.9c0,0.2,0,0.3,0.1,0.4s0.1,0.2,0.2,0.3s0.2,0.2,0.4,0.2S119.5,310.7,119.7,310.7z"/>
	<path d="M129.5,308.4c0,0.5-0.1,0.9-0.2,1.3s-0.3,0.7-0.5,1s-0.5,0.5-0.8,0.7s-0.7,0.2-1,0.2c-0.4,0-0.8-0.1-1.1-0.2
		s-0.6-0.4-0.8-0.6l-0.1,0.7h-1v-9h1.1v3.4c0.2-0.3,0.5-0.5,0.8-0.6s0.6-0.2,1-0.2c0.4,0,0.8,0.1,1.1,0.2s0.6,0.4,0.8,0.7
		s0.4,0.6,0.5,1s0.2,0.8,0.2,1.3V308.4z M128.4,308.3c0-0.3,0-0.6-0.1-0.9s-0.2-0.5-0.3-0.7s-0.3-0.4-0.5-0.5s-0.5-0.2-0.8-0.2
		c-0.2,0-0.4,0-0.5,0.1s-0.3,0.1-0.4,0.2s-0.2,0.2-0.3,0.3s-0.2,0.3-0.2,0.4v2.7c0.1,0.1,0.2,0.3,0.2,0.4s0.2,0.2,0.3,0.3
		s0.3,0.2,0.4,0.2s0.3,0.1,0.5,0.1c0.3,0,0.5-0.1,0.8-0.2s0.4-0.3,0.5-0.5s0.2-0.5,0.3-0.7s0.1-0.6,0.1-0.9V308.3z"/>
	<path d="M134.6,309.8c0-0.1,0-0.2-0.1-0.3s-0.1-0.2-0.2-0.3s-0.3-0.2-0.4-0.3s-0.4-0.2-0.8-0.2c-0.4-0.1-0.7-0.2-0.9-0.3
		s-0.5-0.2-0.7-0.4s-0.3-0.3-0.5-0.5s-0.2-0.4-0.2-0.7c0-0.3,0.1-0.5,0.2-0.7s0.3-0.4,0.5-0.6s0.4-0.3,0.7-0.4s0.6-0.1,1-0.1
		c0.4,0,0.7,0.1,1,0.2s0.6,0.2,0.8,0.4s0.4,0.4,0.5,0.6s0.2,0.5,0.2,0.8h-1.1c0-0.1,0-0.3-0.1-0.4s-0.1-0.2-0.3-0.4
		s-0.3-0.2-0.4-0.3s-0.4-0.1-0.6-0.1c-0.2,0-0.4,0-0.6,0.1s-0.3,0.1-0.4,0.2s-0.2,0.2-0.2,0.3s-0.1,0.2-0.1,0.3s0,0.2,0.1,0.3
		s0.1,0.2,0.2,0.3s0.3,0.1,0.4,0.2s0.4,0.1,0.7,0.2c0.4,0.1,0.7,0.2,1,0.3s0.5,0.2,0.7,0.4s0.3,0.3,0.4,0.5s0.1,0.4,0.1,0.7
		c0,0.3-0.1,0.5-0.2,0.8s-0.3,0.4-0.5,0.6s-0.5,0.3-0.8,0.4s-0.6,0.1-1,0.1c-0.4,0-0.8-0.1-1.1-0.2s-0.6-0.3-0.8-0.5
		s-0.4-0.4-0.5-0.7s-0.2-0.5-0.2-0.8h1.1c0,0.2,0.1,0.4,0.2,0.6s0.2,0.3,0.4,0.4s0.3,0.2,0.5,0.2s0.3,0.1,0.5,0.1
		c0.2,0,0.4,0,0.6-0.1s0.3-0.1,0.4-0.2s0.2-0.2,0.3-0.3S134.6,309.9,134.6,309.8z"/>
</g>
<g>
	<path d="M264.8,311.5h-1.1v-7.2l-2.2,0.8v-1l3.1-1.2h0.2V311.5z"/>
	<path d="M268,310.9c0-0.2,0.1-0.3,0.2-0.5s0.3-0.2,0.5-0.2s0.4,0.1,0.5,0.2s0.2,0.3,0.2,0.5c0,0.2-0.1,0.3-0.2,0.5
		s-0.3,0.2-0.5,0.2s-0.4-0.1-0.5-0.2S268,311.1,268,310.9z M268,305.8c0-0.2,0.1-0.3,0.2-0.5s0.3-0.2,0.5-0.2s0.4,0.1,0.5,0.2
		s0.2,0.3,0.2,0.5c0,0.2-0.1,0.3-0.2,0.5s-0.3,0.2-0.5,0.2s-0.4-0.1-0.5-0.2S268,305.9,268,305.8z"/>
	<path d="M274.4,311.5h-1.1v-7.2l-2.2,0.8v-1l3.1-1.2h0.2V311.5z"/>
	<path d="M283.6,308c0-0.6,0-1.1,0.1-1.6s0.2-1,0.4-1.4s0.3-0.8,0.5-1.2s0.4-0.7,0.6-0.9s0.4-0.5,0.6-0.7s0.4-0.3,0.6-0.4l0.2,0.7
		c-0.2,0.2-0.5,0.4-0.7,0.7s-0.5,0.7-0.6,1.1s-0.4,1-0.5,1.6s-0.2,1.3-0.2,2v0.1c0,0.7,0.1,1.4,0.2,2s0.3,1.1,0.5,1.6
		s0.4,0.8,0.6,1.2s0.5,0.6,0.7,0.8l-0.2,0.7c-0.2-0.1-0.4-0.2-0.6-0.4s-0.4-0.4-0.6-0.7s-0.4-0.6-0.6-0.9s-0.4-0.7-0.5-1.1
		s-0.3-0.9-0.4-1.4S283.6,308.7,283.6,308L283.6,308z"/>
	<path d="M294.5,307.5c0,0.6-0.1,1.2-0.2,1.7s-0.4,0.9-0.7,1.3s-0.7,0.6-1.1,0.8s-0.9,0.3-1.4,0.3c-0.5,0-1-0.1-1.4-0.3
		s-0.8-0.5-1.1-0.8s-0.5-0.8-0.7-1.3s-0.3-1.1-0.3-1.7V307c0-0.6,0.1-1.2,0.3-1.7s0.4-0.9,0.7-1.3s0.7-0.6,1.1-0.8s0.9-0.3,1.4-0.3
		c0.5,0,1,0.1,1.4,0.3s0.8,0.5,1.1,0.8s0.5,0.8,0.7,1.3s0.2,1.1,0.2,1.7V307.5z M293.4,307c0-0.5-0.1-1-0.2-1.3s-0.3-0.7-0.5-1
		s-0.4-0.5-0.7-0.6s-0.6-0.2-1-0.2c-0.3,0-0.7,0.1-0.9,0.2s-0.5,0.3-0.7,0.6s-0.4,0.6-0.5,1s-0.2,0.8-0.2,1.3v0.6
		c0,0.5,0.1,1,0.2,1.4s0.3,0.7,0.5,1s0.4,0.5,0.7,0.6s0.6,0.2,0.9,0.2c0.4,0,0.7-0.1,1-0.2s0.5-0.3,0.7-0.6s0.3-0.6,0.4-1
		s0.2-0.8,0.2-1.4V307z"/>
	<path d="M297,305.2l0,0.8c0.2-0.3,0.5-0.5,0.8-0.7s0.7-0.2,1.1-0.2c0.3,0,0.6,0,0.8,0.1s0.5,0.2,0.6,0.4s0.3,0.4,0.4,0.7
		s0.1,0.6,0.1,1.1v4.2h-1.1v-4.2c0-0.2,0-0.5-0.1-0.6s-0.1-0.3-0.2-0.4s-0.2-0.2-0.4-0.2s-0.3-0.1-0.5-0.1c-0.4,0-0.7,0.1-0.9,0.3
		s-0.5,0.4-0.6,0.7v4.5H296v-6.3H297z"/>
	<path d="M305.2,311.6c-0.4,0-0.8-0.1-1.2-0.2s-0.7-0.4-0.9-0.6s-0.4-0.6-0.6-1s-0.2-0.8-0.2-1.2v-0.2c0-0.5,0.1-1,0.2-1.4
		s0.4-0.7,0.6-1s0.6-0.5,0.9-0.6s0.7-0.2,1-0.2c0.5,0,0.8,0.1,1.2,0.2s0.6,0.4,0.8,0.7s0.4,0.6,0.5,1s0.2,0.8,0.2,1.2v0.5h-4.3
		c0,0.3,0.1,0.6,0.1,0.8s0.2,0.5,0.4,0.7s0.4,0.3,0.6,0.4s0.5,0.2,0.8,0.2c0.4,0,0.7-0.1,1-0.2s0.5-0.4,0.7-0.6l0.7,0.5
		c-0.1,0.2-0.2,0.3-0.4,0.5s-0.3,0.3-0.5,0.4s-0.4,0.2-0.7,0.3S305.6,311.6,305.2,311.6z M305.1,305.9c-0.2,0-0.4,0-0.6,0.1
		s-0.3,0.2-0.5,0.3s-0.3,0.3-0.4,0.6s-0.2,0.5-0.2,0.8h3.2v-0.1c0-0.2,0-0.4-0.1-0.6s-0.1-0.4-0.3-0.6s-0.3-0.3-0.5-0.4
		S305.4,305.9,305.1,305.9z"/>
	<path d="M313.4,303.6v1.5h1.2v0.8h-1.2v3.9c0,0.2,0,0.3,0.1,0.4s0.1,0.2,0.2,0.2s0.1,0.1,0.2,0.1s0.2,0,0.3,0s0.2,0,0.3,0
		s0.2,0,0.2,0v0.9c-0.1,0-0.2,0-0.3,0.1s-0.3,0-0.5,0c-0.2,0-0.4,0-0.6-0.1s-0.3-0.2-0.5-0.3s-0.2-0.3-0.3-0.5s-0.1-0.5-0.1-0.8V306
		h-1.2v-0.8h1.2v-1.5H313.4z"/>
	<path d="M315.5,308.3c0-0.5,0.1-0.9,0.2-1.3s0.3-0.7,0.6-1s0.5-0.5,0.9-0.7s0.8-0.2,1.2-0.2c0.4,0,0.9,0.1,1.2,0.2s0.7,0.4,0.9,0.7
		s0.4,0.6,0.6,1s0.2,0.8,0.2,1.3v0.1c0,0.5-0.1,0.9-0.2,1.3s-0.3,0.7-0.6,1s-0.6,0.5-0.9,0.7s-0.8,0.2-1.2,0.2s-0.8-0.1-1.2-0.2
		s-0.7-0.4-0.9-0.7s-0.4-0.6-0.6-1s-0.2-0.8-0.2-1.3V308.3z M316.6,308.4c0,0.3,0,0.6,0.1,0.9s0.2,0.5,0.3,0.7s0.3,0.4,0.6,0.5
		s0.5,0.2,0.8,0.2c0.3,0,0.6-0.1,0.8-0.2s0.4-0.3,0.6-0.5s0.3-0.5,0.3-0.7s0.1-0.6,0.1-0.9v-0.1c0-0.3,0-0.6-0.1-0.9
		s-0.2-0.5-0.3-0.7s-0.3-0.4-0.6-0.5s-0.5-0.2-0.8-0.2c-0.3,0-0.6,0.1-0.8,0.2s-0.4,0.3-0.6,0.5s-0.3,0.5-0.3,0.7s-0.1,0.6-0.1,0.9
		V308.4z"/>
	<path d="M332.3,307.5c0,0.6-0.1,1.2-0.2,1.7s-0.4,0.9-0.7,1.3s-0.7,0.6-1.1,0.8s-0.9,0.3-1.4,0.3c-0.5,0-1-0.1-1.4-0.3
		s-0.8-0.5-1.1-0.8s-0.5-0.8-0.7-1.3s-0.3-1.1-0.3-1.7V307c0-0.6,0.1-1.2,0.3-1.7s0.4-0.9,0.7-1.3s0.7-0.6,1.1-0.8s0.9-0.3,1.4-0.3
		c0.5,0,1,0.1,1.4,0.3s0.8,0.5,1.1,0.8s0.5,0.8,0.7,1.3s0.2,1.1,0.2,1.7V307.5z M331.2,307c0-0.5-0.1-1-0.2-1.3s-0.3-0.7-0.5-1
		s-0.4-0.5-0.7-0.6s-0.6-0.2-1-0.2c-0.3,0-0.7,0.1-0.9,0.2s-0.5,0.3-0.7,0.6s-0.4,0.6-0.5,1s-0.2,0.8-0.2,1.3v0.6
		c0,0.5,0.1,1,0.2,1.4s0.3,0.7,0.5,1s0.4,0.5,0.7,0.6s0.6,0.2,0.9,0.2c0.4,0,0.7-0.1,1-0.2s0.5-0.3,0.7-0.6s0.3-0.6,0.4-1
		s0.2-0.8,0.2-1.4V307z"/>
	<path d="M334.8,305.2l0,0.8c0.2-0.3,0.5-0.5,0.8-0.7s0.7-0.2,1.1-0.2c0.3,0,0.6,0,0.8,0.1s0.5,0.2,0.6,0.4s0.3,0.4,0.4,0.7
		s0.1,0.6,0.1,1.1v4.2h-1.1v-4.2c0-0.2,0-0.5-0.1-0.6s-0.1-0.3-0.2-0.4s-0.2-0.2-0.4-0.2s-0.3-0.1-0.5-0.1c-0.4,0-0.7,0.1-0.9,0.3
		s-0.5,0.4-0.6,0.7v4.5h-1.1v-6.3H334.8z"/>
	<path d="M343.1,311.6c-0.4,0-0.8-0.1-1.2-0.2s-0.7-0.4-0.9-0.6s-0.4-0.6-0.6-1s-0.2-0.8-0.2-1.2v-0.2c0-0.5,0.1-1,0.2-1.4
		s0.4-0.7,0.6-1s0.6-0.5,0.9-0.6s0.7-0.2,1-0.2c0.5,0,0.8,0.1,1.2,0.2s0.6,0.4,0.8,0.7s0.4,0.6,0.5,1s0.2,0.8,0.2,1.2v0.5h-4.3
		c0,0.3,0.1,0.6,0.1,0.8s0.2,0.5,0.4,0.7s0.4,0.3,0.6,0.4s0.5,0.2,0.8,0.2c0.4,0,0.7-0.1,1-0.2s0.5-0.4,0.7-0.6l0.7,0.5
		c-0.1,0.2-0.2,0.3-0.4,0.5s-0.3,0.3-0.5,0.4s-0.4,0.2-0.7,0.3S343.4,311.6,343.1,311.6z M342.9,305.9c-0.2,0-0.4,0-0.6,0.1
		s-0.3,0.2-0.5,0.3s-0.3,0.3-0.4,0.6s-0.2,0.5-0.2,0.8h3.2v-0.1c0-0.2,0-0.4-0.1-0.6s-0.1-0.4-0.3-0.6s-0.3-0.3-0.5-0.4
		S343.2,305.9,342.9,305.9z"/>
	<path d="M349.3,308.1c0,0.6,0,1.1-0.1,1.6s-0.2,1-0.4,1.4s-0.3,0.8-0.5,1.1s-0.4,0.6-0.6,0.9s-0.4,0.5-0.6,0.7s-0.4,0.3-0.6,0.4
		l-0.2-0.7c0.2-0.2,0.5-0.4,0.7-0.7s0.5-0.7,0.6-1.2s0.4-1,0.5-1.6s0.2-1.3,0.2-2V308c0-0.7-0.1-1.4-0.2-2s-0.3-1.1-0.5-1.6
		s-0.4-0.8-0.7-1.2s-0.5-0.6-0.7-0.7l0.2-0.7c0.2,0.1,0.4,0.2,0.6,0.4s0.4,0.4,0.6,0.7s0.4,0.6,0.6,0.9s0.4,0.7,0.5,1.2
		s0.3,0.9,0.4,1.4S349.3,307.5,349.3,308.1L349.3,308.1z"/>
</g>
<g>
	<path d="M451.5,311.5V303h2.8c0.4,0,0.8,0,1.2,0.1s0.6,0.2,0.9,0.4s0.4,0.4,0.6,0.7s0.2,0.6,0.2,1s-0.1,0.8-0.3,1.1
		s-0.5,0.5-0.9,0.7c0.2,0.1,0.5,0.2,0.6,0.3s0.3,0.3,0.5,0.5s0.2,0.4,0.3,0.6s0.1,0.4,0.1,0.7c0,0.4-0.1,0.8-0.2,1.1
		s-0.3,0.6-0.6,0.8s-0.5,0.4-0.9,0.5s-0.7,0.2-1.2,0.2H451.5z M452.6,306.6h1.7c0.2,0,0.5,0,0.7-0.1s0.4-0.2,0.5-0.3
		s0.3-0.3,0.3-0.4s0.1-0.4,0.1-0.6c0-0.5-0.1-0.8-0.4-1s-0.7-0.3-1.2-0.3h-1.7V306.6z M452.6,307.5v3.1h1.9c0.3,0,0.5,0,0.7-0.1
		s0.4-0.2,0.5-0.3s0.3-0.3,0.3-0.5s0.1-0.4,0.1-0.6s0-0.4-0.1-0.6s-0.2-0.4-0.3-0.5s-0.3-0.2-0.5-0.3s-0.5-0.1-0.7-0.1H452.6z"/>
	<path d="M461.9,306.1c-0.1,0-0.2,0-0.3,0s-0.2,0-0.3,0c-0.4,0-0.7,0.1-0.9,0.2s-0.4,0.4-0.5,0.7v4.5h-1.1v-6.3h1.1l0,0.7
		c0.2-0.3,0.4-0.5,0.6-0.6s0.5-0.2,0.9-0.2c0.1,0,0.2,0,0.3,0s0.2,0,0.2,0.1V306.1z"/>
	<path d="M462.9,303.5c0-0.2,0.1-0.3,0.2-0.4s0.3-0.2,0.5-0.2s0.4,0.1,0.5,0.2s0.2,0.3,0.2,0.4s-0.1,0.3-0.2,0.4s-0.3,0.2-0.5,0.2
		s-0.4-0.1-0.5-0.2S462.9,303.7,462.9,303.5z M464,311.5h-1.1v-6.3h1.1V311.5z"/>
	<path d="M466.8,305.2l0,0.8c0.2-0.3,0.5-0.5,0.8-0.7s0.7-0.2,1.1-0.2c0.3,0,0.6,0,0.8,0.1s0.5,0.2,0.6,0.4s0.3,0.4,0.4,0.7
		s0.1,0.6,0.1,1.1v4.2h-1.1v-4.2c0-0.2,0-0.5-0.1-0.6s-0.1-0.3-0.2-0.4s-0.2-0.2-0.4-0.2s-0.3-0.1-0.5-0.1c-0.4,0-0.7,0.1-0.9,0.3
		s-0.5,0.4-0.6,0.7v4.5h-1.1v-6.3H466.8z"/>
	<path d="M472.1,308.3c0-0.5,0.1-0.9,0.2-1.3s0.3-0.7,0.5-1s0.5-0.5,0.8-0.7s0.7-0.2,1-0.2c0.4,0,0.8,0.1,1,0.2s0.6,0.3,0.8,0.6
		l0.1-0.7h1v6.2c0,0.4-0.1,0.8-0.2,1.1s-0.3,0.6-0.6,0.8s-0.5,0.4-0.8,0.5s-0.7,0.2-1.1,0.2c-0.2,0-0.4,0-0.6-0.1s-0.4-0.1-0.6-0.2
		s-0.4-0.2-0.6-0.3s-0.4-0.3-0.5-0.5l0.6-0.7c0.1,0.2,0.3,0.3,0.4,0.4s0.3,0.2,0.4,0.3s0.3,0.1,0.4,0.1s0.3,0,0.4,0
		c0.3,0,0.5,0,0.7-0.1s0.4-0.2,0.5-0.3s0.3-0.3,0.3-0.5s0.1-0.5,0.1-0.7v-0.6c-0.2,0.2-0.5,0.4-0.8,0.6s-0.6,0.2-1,0.2
		c-0.4,0-0.7-0.1-1-0.2s-0.6-0.4-0.8-0.7s-0.4-0.6-0.5-1s-0.2-0.8-0.2-1.3V308.3z M473.2,308.4c0,0.3,0,0.6,0.1,0.9s0.2,0.5,0.3,0.7
		s0.3,0.4,0.5,0.5s0.5,0.2,0.8,0.2c0.2,0,0.4,0,0.5-0.1s0.3-0.1,0.4-0.2s0.2-0.2,0.3-0.3s0.2-0.2,0.2-0.4v-2.9
		c-0.1-0.1-0.2-0.2-0.2-0.4s-0.2-0.2-0.3-0.3s-0.3-0.1-0.4-0.2s-0.3-0.1-0.5-0.1c-0.3,0-0.6,0.1-0.8,0.2s-0.4,0.3-0.5,0.5
		s-0.2,0.5-0.3,0.7s-0.1,0.6-0.1,0.9V308.4z"/>
	<path d="M484.9,307.3l2.2-4.3h1.3l-2.9,5.3v3.2h-1.1v-3.2l-2.9-5.3h1.3L484.9,307.3z"/>
	<path d="M488.6,308.3c0-0.5,0.1-0.9,0.2-1.3s0.3-0.7,0.6-1s0.5-0.5,0.9-0.7s0.8-0.2,1.2-0.2c0.4,0,0.9,0.1,1.2,0.2s0.7,0.4,0.9,0.7
		s0.4,0.6,0.6,1s0.2,0.8,0.2,1.3v0.1c0,0.5-0.1,0.9-0.2,1.3s-0.3,0.7-0.6,1s-0.6,0.5-0.9,0.7s-0.8,0.2-1.2,0.2s-0.8-0.1-1.2-0.2
		s-0.7-0.4-0.9-0.7s-0.4-0.6-0.6-1s-0.2-0.8-0.2-1.3V308.3z M489.7,308.4c0,0.3,0,0.6,0.1,0.9s0.2,0.5,0.3,0.7s0.3,0.4,0.6,0.5
		s0.5,0.2,0.8,0.2c0.3,0,0.6-0.1,0.8-0.2s0.4-0.3,0.6-0.5s0.3-0.5,0.3-0.7s0.1-0.6,0.1-0.9v-0.1c0-0.3,0-0.6-0.1-0.9
		s-0.2-0.5-0.3-0.7s-0.3-0.4-0.6-0.5s-0.5-0.2-0.8-0.2c-0.3,0-0.6,0.1-0.8,0.2s-0.4,0.3-0.6,0.5s-0.3,0.5-0.3,0.7s-0.1,0.6-0.1,0.9
		V308.4z"/>
	<path d="M499.7,310.9c-0.2,0.2-0.5,0.4-0.8,0.5s-0.7,0.2-1.1,0.2c-0.3,0-0.6,0-0.8-0.1s-0.5-0.2-0.7-0.4s-0.3-0.4-0.4-0.7
		s-0.1-0.7-0.1-1.1v-4.1h1.1v4.1c0,0.3,0,0.5,0.1,0.7s0.2,0.3,0.3,0.4s0.2,0.2,0.4,0.2s0.3,0.1,0.4,0.1c0.4,0,0.8-0.1,1.1-0.3
		s0.5-0.4,0.6-0.7v-4.6h1.1v6.3h-1L499.7,310.9z"/>
	<path d="M505.4,306.1c-0.1,0-0.2,0-0.3,0s-0.2,0-0.3,0c-0.4,0-0.7,0.1-0.9,0.2s-0.4,0.4-0.5,0.7v4.5h-1.1v-6.3h1.1l0,0.7
		c0.2-0.3,0.4-0.5,0.6-0.6s0.5-0.2,0.9-0.2c0.1,0,0.2,0,0.3,0s0.2,0,0.2,0.1V306.1z"/>
	<path d="M516.1,307.5c0,0.6-0.1,1.2-0.2,1.7s-0.4,0.9-0.7,1.3s-0.7,0.6-1.1,0.8s-0.9,0.3-1.4,0.3c-0.5,0-1-0.1-1.4-0.3
		s-0.8-0.5-1.1-0.8s-0.5-0.8-0.7-1.3s-0.3-1.1-0.3-1.7V307c0-0.6,0.1-1.2,0.3-1.7s0.4-0.9,0.7-1.3s0.7-0.6,1.1-0.8s0.9-0.3,1.4-0.3
		c0.5,0,1,0.1,1.4,0.3s0.8,0.5,1.1,0.8s0.5,0.8,0.7,1.3s0.2,1.1,0.2,1.7V307.5z M515,307c0-0.5-0.1-1-0.2-1.3s-0.3-0.7-0.5-1
		s-0.4-0.5-0.7-0.6s-0.6-0.2-1-0.2c-0.3,0-0.7,0.1-0.9,0.2s-0.5,0.3-0.7,0.6s-0.4,0.6-0.5,1s-0.2,0.8-0.2,1.3v0.6
		c0,0.5,0.1,1,0.2,1.4s0.3,0.7,0.5,1s0.4,0.5,0.7,0.6s0.6,0.2,0.9,0.2c0.4,0,0.7-0.1,1-0.2s0.5-0.3,0.7-0.6s0.3-0.6,0.4-1
		s0.2-0.8,0.2-1.4V307z"/>
	<path d="M523.3,310l1.2-4.8h1.1l-1.8,6.3h-0.9l-1.5-4.8l-1.5,4.8h-0.9l-1.8-6.3h1.1l1.2,4.7l1.5-4.7h0.9L523.3,310z"/>
	<path d="M527.7,305.2l0,0.8c0.2-0.3,0.5-0.5,0.8-0.7s0.7-0.2,1.1-0.2c0.3,0,0.6,0,0.8,0.1s0.5,0.2,0.6,0.4s0.3,0.4,0.4,0.7
		s0.1,0.6,0.1,1.1v4.2h-1.1v-4.2c0-0.2,0-0.5-0.1-0.6s-0.1-0.3-0.2-0.4s-0.2-0.2-0.4-0.2s-0.3-0.1-0.5-0.1c-0.4,0-0.7,0.1-0.9,0.3
		s-0.5,0.4-0.6,0.7v4.5h-1.1v-6.3H527.7z"/>
	<path d="M536.4,311.5V303h2.4c0.6,0,1.1,0.1,1.5,0.3s0.9,0.5,1.2,0.8s0.6,0.8,0.8,1.3s0.3,1.1,0.3,1.7v0.5c0,0.6-0.1,1.2-0.3,1.7
		s-0.4,0.9-0.8,1.3s-0.7,0.6-1.2,0.8s-1,0.3-1.6,0.3H536.4z M537.6,303.9v6.7h1.2c0.5,0,0.9-0.1,1.2-0.2s0.6-0.4,0.9-0.6
		s0.4-0.6,0.5-1s0.2-0.8,0.2-1.3V307c0-0.5-0.1-0.9-0.2-1.3s-0.3-0.7-0.5-1s-0.5-0.5-0.8-0.6s-0.7-0.2-1.1-0.2H537.6z"/>
	<path d="M546.8,311.6c-0.4,0-0.8-0.1-1.2-0.2s-0.7-0.4-0.9-0.6s-0.4-0.6-0.6-1s-0.2-0.8-0.2-1.2v-0.2c0-0.5,0.1-1,0.2-1.4
		s0.4-0.7,0.6-1s0.6-0.5,0.9-0.6s0.7-0.2,1-0.2c0.5,0,0.8,0.1,1.2,0.2s0.6,0.4,0.8,0.7s0.4,0.6,0.5,1s0.2,0.8,0.2,1.2v0.5h-4.3
		c0,0.3,0.1,0.6,0.1,0.8s0.2,0.5,0.4,0.7s0.4,0.3,0.6,0.4s0.5,0.2,0.8,0.2c0.4,0,0.7-0.1,1-0.2s0.5-0.4,0.7-0.6l0.7,0.5
		c-0.1,0.2-0.2,0.3-0.4,0.5s-0.3,0.3-0.5,0.4s-0.4,0.2-0.7,0.3S547.1,311.6,546.8,311.6z M546.6,305.9c-0.2,0-0.4,0-0.6,0.1
		s-0.3,0.2-0.5,0.3s-0.3,0.3-0.4,0.6s-0.2,0.5-0.2,0.8h3.2v-0.1c0-0.2,0-0.4-0.1-0.6s-0.1-0.4-0.3-0.6s-0.3-0.3-0.5-0.4
		S546.9,305.9,546.6,305.9z"/>
	<path d="M552.5,310l1.6-4.9h1.1l-2.3,6.3h-0.8l-2.3-6.3h1.1L552.5,310z"/>
	<path d="M556.2,303.5c0-0.2,0.1-0.3,0.2-0.4s0.3-0.2,0.5-0.2s0.4,0.1,0.5,0.2s0.2,0.3,0.2,0.4s-0.1,0.3-0.2,0.4s-0.3,0.2-0.5,0.2
		s-0.4-0.1-0.5-0.2S556.2,303.7,556.2,303.5z M557.4,311.5h-1.1v-6.3h1.1V311.5z"/>
	<path d="M561.7,310.7c0.2,0,0.4,0,0.6-0.1s0.3-0.1,0.5-0.3s0.2-0.2,0.3-0.4s0.1-0.3,0.1-0.5h1c0,0.3-0.1,0.5-0.2,0.8
		s-0.3,0.5-0.5,0.7s-0.5,0.3-0.8,0.5s-0.6,0.2-1,0.2c-0.5,0-0.9-0.1-1.2-0.3s-0.6-0.4-0.9-0.7s-0.4-0.6-0.5-1s-0.2-0.8-0.2-1.2v-0.2
		c0-0.4,0.1-0.8,0.2-1.2s0.3-0.7,0.5-1s0.5-0.5,0.9-0.7s0.8-0.3,1.2-0.3c0.4,0,0.7,0.1,1,0.2s0.6,0.3,0.8,0.5s0.4,0.4,0.5,0.7
		s0.2,0.6,0.2,0.9h-1c0-0.2-0.1-0.4-0.1-0.5s-0.2-0.3-0.3-0.4s-0.3-0.2-0.5-0.3s-0.4-0.1-0.6-0.1c-0.3,0-0.6,0.1-0.8,0.2
		s-0.4,0.3-0.5,0.5s-0.2,0.5-0.3,0.7s-0.1,0.5-0.1,0.8v0.2c0,0.3,0,0.6,0.1,0.8s0.1,0.5,0.3,0.7s0.3,0.4,0.5,0.5
		S561.3,310.7,561.7,310.7z"/>
	<path d="M568.1,311.6c-0.4,0-0.8-0.1-1.2-0.2s-0.7-0.4-0.9-0.6s-0.4-0.6-0.6-1s-0.2-0.8-0.2-1.2v-0.2c0-0.5,0.1-1,0.2-1.4
		s0.4-0.7,0.6-1s0.6-0.5,0.9-0.6s0.7-0.2,1-0.2c0.5,0,0.8,0.1,1.2,0.2s0.6,0.4,0.8,0.7s0.4,0.6,0.5,1s0.2,0.8,0.2,1.2v0.5h-4.3
		c0,0.3,0.1,0.6,0.1,0.8s0.2,0.5,0.4,0.7s0.4,0.3,0.6,0.4s0.5,0.2,0.8,0.2c0.4,0,0.7-0.1,1-0.2s0.5-0.4,0.7-0.6l0.7,0.5
		c-0.1,0.2-0.2,0.3-0.4,0.5s-0.3,0.3-0.5,0.4s-0.4,0.2-0.7,0.3S568.4,311.6,568.1,311.6z M567.9,305.9c-0.2,0-0.4,0-0.6,0.1
		s-0.3,0.2-0.5,0.3s-0.3,0.3-0.4,0.6s-0.2,0.5-0.2,0.8h3.2v-0.1c0-0.2,0-0.4-0.1-0.6s-0.1-0.4-0.3-0.6s-0.3-0.3-0.5-0.4
		S568.2,305.9,567.9,305.9z"/>
</g>
<rect x="30.9" y="228" class="st18" width="126.2" height="2.9"/>
<g>
	<path class="st18" d="M50,208H32.8c-1.1,0-1.9,0.9-1.9,1.9v11.5c0,1.1,0.9,1.9,1.9,1.9h4.8v1.9h7.6v-1.9H50c1.1,0,1.9-0.9,1.9-1.9
		l0-11.5C51.9,208.8,51.1,208,50,208z M50,221.3H32.8v-11.5H50V221.3z"/>
	<rect x="54.8" y="208" class="st18" width="8.6" height="18.2"/>
</g>
<g>
	<path class="st18" d="M96.9,208H79.7c-1.1,0-1.9,0.9-1.9,1.9v11.5c0,1.1,0.9,1.9,1.9,1.9h4.8v1.9h7.6v-1.9h4.8
		c1.1,0,1.9-0.9,1.9-1.9l0-11.5C98.8,208.8,97.9,208,96.9,208z M96.9,221.3H79.7v-11.5h17.2V221.3z"/>
	<rect x="101.6" y="208" class="st18" width="8.6" height="18.2"/>
</g>
<g>
	<path class="st18" d="M143.7,207h-17.2c-1.1,0-1.9,0.9-1.9,1.9v11.5c0,1.1,0.9,1.9,1.9,1.9h4.8v1.9h7.6v-1.9h4.8
		c1.1,0,1.9-0.9,1.9-1.9l0-11.5C145.6,207.9,144.8,207,143.7,207z M143.7,220.4h-17.2v-11.5h17.2V220.4z"/>
	<rect x="148.5" y="207" class="st18" width="8.6" height="18.2"/>
</g>
<g>
	<rect x="30.9" y="258.6" class="st18" width="126.2" height="2.9"/>
	<g>
		<path class="st18" d="M50,238.5H32.8c-1.1,0-1.9,0.9-1.9,1.9v11.5c0,1.1,0.9,1.9,1.9,1.9h4.8v1.9h7.6v-1.9H50
			c1.1,0,1.9-0.9,1.9-1.9l0-11.5C51.9,239.4,51.1,238.5,50,238.5z M50,251.9H32.8v-11.5H50V251.9z"/>
		<rect x="54.8" y="238.5" class="st18" width="8.6" height="18.2"/>
	</g>
	<g>
		<path class="st18" d="M96.9,238.5H79.7c-1.1,0-1.9,0.9-1.9,1.9v11.5c0,1.1,0.9,1.9,1.9,1.9h4.8v1.9h7.6v-1.9h4.8
			c1.1,0,1.9-0.9,1.9-1.9l0-11.5C98.8,239.4,97.9,238.5,96.9,238.5z M96.9,251.9H79.7v-11.5h17.2V251.9z"/>
		<rect x="101.6" y="238.5" class="st18" width="8.6" height="18.2"/>
	</g>
	<g>
		<path class="st18" d="M143.7,237.6h-17.2c-1.1,0-1.9,0.9-1.9,1.9V251c0,1.1,0.9,1.9,1.9,1.9h4.8v1.9h7.6v-1.9h4.8
			c1.1,0,1.9-0.9,1.9-1.9l0-11.5C145.6,238.4,144.8,237.6,143.7,237.6z M143.7,251h-17.2v-11.5h17.2V251z"/>
		<rect x="148.5" y="237.6" class="st18" width="8.6" height="18.2"/>
	</g>
</g>
<g>
	<rect x="30.9" y="291.1" class="st18" width="126.2" height="2.9"/>
	<g>
		<path class="st18" d="M50,271.1H32.8c-1.1,0-1.9,0.9-1.9,1.9v11.5c0,1.1,0.9,1.9,1.9,1.9h4.8v1.9h7.6v-1.9H50
			c1.1,0,1.9-0.9,1.9-1.9l0-11.5C51.9,271.9,51.1,271.1,50,271.1z M50,284.4H32.8V273H50V284.4z"/>
		<rect x="54.8" y="271.1" class="st18" width="8.6" height="18.2"/>
	</g>
	<g>
		<path class="st18" d="M96.9,271.1H79.7c-1.1,0-1.9,0.9-1.9,1.9v11.5c0,1.1,0.9,1.9,1.9,1.9h4.8v1.9h7.6v-1.9h4.8
			c1.1,0,1.9-0.9,1.9-1.9l0-11.5C98.8,271.9,97.9,271.1,96.9,271.1z M96.9,284.4H79.7V273h17.2V284.4z"/>
		<rect x="101.6" y="271.1" class="st18" width="8.6" height="18.2"/>
	</g>
	<g>
		<path class="st18" d="M143.7,270.1h-17.2c-1.1,0-1.9,0.9-1.9,1.9v11.5c0,1.1,0.9,1.9,1.9,1.9h4.8v1.9h7.6v-1.9h4.8
			c1.1,0,1.9-0.9,1.9-1.9l0-11.5C145.6,270.9,144.8,270.1,143.7,270.1z M143.7,283.5h-17.2V272h17.2V283.5z"/>
		<rect x="148.5" y="270.1" class="st18" width="8.6" height="18.2"/>
	</g>
</g>
<g>
	<path class="st18" d="M304.8,216.3H275c-1.8,0-3.3,1.5-3.3,3.3v19.9c0,1.8,1.5,3.3,3.3,3.3h8.3v3.3h13.2v-3.3h8.3
		c1.8,0,3.3-1.5,3.3-3.3l0-19.9C308.1,217.8,306.6,216.3,304.8,216.3z M304.8,239.5H275v-19.9h29.8V239.5z"/>
	<rect x="313.1" y="216.3" class="st18" width="14.9" height="31.5"/>
</g>
<g>
	<circle class="st18" cx="302" cy="264.5" r="10.5"/>
	<path class="st18" d="M302,276.3c-7,0-21,3.5-21,10.5v5.3h42v-5.3C323,279.8,309,276.3,302,276.3z"/>
</g>
<g>
	<circle class="st18" cx="511" cy="264.5" r="10.5"/>
	<path class="st18" d="M511,276.3c-7,0-21,3.5-21,10.5v5.3h42v-5.3C532,279.8,518,276.3,511,276.3z"/>
</g>
<path class="st18" d="M546.5,222h-14c-1.4,0-2.5,1.1-2.5,2.5v19c0,1.4,1.1,2.5,2.5,2.5h14c1.4,0,2.5-1.1,2.5-2.5v-19
	C549,223.1,547.9,222,546.5,222z M539.5,245c-0.8,0-1.5-0.7-1.5-1.5s0.7-1.5,1.5-1.5s1.5,0.7,1.5,1.5S540.3,245,539.5,245z M547,241
	h-15v-16h15V241z"/>
<path class="st18" d="M497,244.9c1.9,0,3.5-1.6,3.5-3.5l0-19.3c0-1.9-1.6-3.5-3.5-3.5h-28c-1.9,0-3.5,1.6-3.5,3.5v19.3
	c0,1.9,1.6,3.5,3.5,3.5h-7c0,1.9,1.6,3.5,3.5,3.5h35c1.9,0,3.5-1.6,3.5-3.5H497z M469,222.1h28v19.3h-28V222.1z M483,246.6
	c-1,0-1.8-0.8-1.8-1.8s0.8-1.8,1.8-1.8s1.8,0.8,1.8,1.8S484,246.6,483,246.6z"/>
<g>
	<title>Layer 1</title>
	<g id="layer1">
		
			<linearGradient id="path3638_1_" gradientUnits="userSpaceOnUse" x1="0.2884" y1="362.9467" x2="0.3044" y2="363.0139" gradientTransform="matrix(692.424 0 0 -861.892 145.5913 312929.6563)">
			<stop  offset="0" style="stop-color:#000000"/>
			<stop  offset="1" style="stop-color:#000000;stop-opacity:0"/>
		</linearGradient>
		<path id="path3638" class="st19" d="M338.6,115.5c-4-1.2-9.7-9.6-11.7-17.4c-4-15.1,6.1-27.9,18.1-23c3.3,1.4,3.5,1.4,7.4,0.1
			c7-2.3,13.4-0.8,15.6,3.5c0.7,1.3,0.6,1.6-1.3,3.5c-4.9,5-4.4,12.9,1.1,16.8c2.3,1.7,2.4,2.6,0.6,6.5c-4.1,8.8-8.2,11.4-15,9.2
			c-3.5-1.1-4.8-1.1-8.8,0.3C341.6,116.1,340.8,116.2,338.6,115.5L338.6,115.5L338.6,115.5z M332.5,87.5c6-6-10.8,1.1,5.7-5.8
			c4.1-1.7,1.8-2.4-0.2-3c-2.5-0.8,18.4-3.8,14.3-2.4c-4.1,1.4-8.2,8.2-11.4,10.6c-9.9,7.3-15.7-5.3-13.4,7.7
			c1.2,6.7-2.3-3.6,0.2-7.1C329.2,85.5,330.1,89.9,332.5,87.5L332.5,87.5z M333.9,93c1.2-0.6-0.6-5.7,0.5-6.6c1.9-1.6,5,0.2,9.1-5.5
			c0.6-0.8,3.9-1.8,9.8,1.9c4.5,2.8-9.1,3.6-13.4,8.7C334.8,97.2,328.7,95.5,333.9,93z M347.6,74.3c-1.7-2.6,2.4-9.5,6.9-11.6
			c4.4-2.1,5.6-1.1,4.2,3.7C357.1,71.8,349.5,77.2,347.6,74.3L347.6,74.3z M340.5,82.9c1.4-0.9,0.7-0.5,1.3-0.8
			c5.5-3.1,2.1,0.5,1-0.5c-0.9-0.8,0.6,0.2,0.4,0.5c-1.2,1.2,1.1-2.9-0.4,0.4C341.4,85.5,337.1,85.1,340.5,82.9L340.5,82.9z"/>
	</g>
</g>
</svg>
