<?xml version="1.0" encoding="utf-8"?>
<!-- Generator: Adobe Illustrator 21.1.0, SVG Export Plug-In . SVG Version: 6.00 Build 0)  -->
<svg version="1.1" id="Layer_1" xmlns="http://www.w3.org/2000/svg" xmlns:xlink="http://www.w3.org/1999/xlink" x="0px" y="0px"
	 viewBox="0 0 549 400" style="enable-background:new 0 0 549 400;" xml:space="preserve">
<style type="text/css">
	.st0{fill:#838384;}
	.st1{fill:#FFFFFF;}
	.st2{fill:#707070;}
	.st3{fill:#8C6338;}
	.st4{fill:#7F5936;}
	.st5{fill:#3D3D3D;}
	.st6{fill:#3A3A3A;}
	.st7{fill:#515151;}
	.st8{fill:#302E2D;}
	.st9{fill:#68473C;}
	.st10{fill:#235CAF;}
	.st11{fill:#143D66;}
	.st12{fill:#1D5291;}
	.st13{fill:#5D6057;}
	.st14{fill:#444444;}
	.st15{fill:#031133;}
	.st16{fill:#D1D1D1;}
	.st17{fill:#4A5256;}
	.st18{fill:#161F3A;}
	.st19{fill:#B4B9BF;}
	.st20{fill:#EDD1B7;}
	.st21{fill:#DDB99B;}
	.st22{fill:#AA421D;}
	.st23{fill:#749E19;}
	.st24{fill:#3E4917;}
	.st25{fill:#59750A;}
	.st26{fill:#231F20;}
	.st27{fill:#DDA57A;}
	.st28{fill:#666666;}
	.st29{fill:#262626;}
	.st30{fill:#4B4A4F;}
	.st31{fill:#454547;}
	.st32{fill:#105E30;}
	.st33{fill:#A9E0D3;}
	.st34{fill:#F6B58A;}
	.st35{fill:#FFC997;}
	.st36{fill:#E0A67E;}
	.st37{fill:#FAFFFF;}
	.st38{fill:#E9B088;}
	.st39{fill:#3A3533;}
	.st40{fill:#DDCBB1;}
	.st41{fill:#CEBBA1;}
	.st42{fill:#B2287E;}
	.st43{fill:#F9A0CB;}
	.st44{fill:#BC5B93;}
	.st45{fill:#EA8BBD;}
	.st46{fill:#724514;}
	.st47{fill:#0F0F0E;}
	.st48{fill:#593631;}
</style>
<g>
	<path class="st0" d="M377.9,135.4H171.1c-3.9,0-7-3.1-7-7V16c0-3.9,3.1-7,7-7h206.7c3.9,0,7,3.1,7,7v112.5
		C384.8,132.3,381.7,135.4,377.9,135.4z"/>
	<path class="st1" d="M376.2,129.6H172.8V21.2c0-3.5,2.9-6.4,6.4-6.4h190.6c3.5,0,6.4,2.9,6.4,6.4L376.2,129.6L376.2,129.6z"/>
	<path class="st0" d="M373.2,139.1H175.8c-1.6,0-2.9-1.3-2.9-2.9V131c0-1.6,1.3-2.9,2.9-2.9h197.5c1.6,0,2.9,1.3,2.9,2.9v5.2
		C376.2,137.8,374.9,139.1,373.2,139.1z"/>
	<path class="st2" d="M386.6,135.6H162.4c-3.3,0-6-2-6-4.5l0,0c0-2.5,2.7-4.5,6-4.5h224.1c3.3,0,6,2,6,4.5l0,0
		C392.6,133.5,389.9,135.6,386.6,135.6z"/>
	<path class="st3" d="M76.5,199.2c4.9,1.4,10.5,6,10.8,14.8c0.2,5.6-0.2,9.1-1.3,13.9c1.7,1,2.1,3.2,1.7,4.9
		c-0.2,0.9-2.9-0.5-2.9-0.5c-0.5,2-0.9,3-1.6,5.7c-2.1,7.3-18.7,0.2-18.7,0.2s-9.3-2.5-10.8-10.3C52.2,220.3,52.7,192.6,76.5,199.2z
		"/>
	<polygon class="st4" points="64.9,246.7 68.1,239.5 59.4,236.1 53.8,244.5 	"/>
	<g>
		<ellipse transform="matrix(0.2701 -0.9628 0.9628 0.2701 -154.574 246.1203)" class="st5" cx="85" cy="225" rx="1.5" ry="0.7"/>
		
			<ellipse transform="matrix(0.2686 -0.9633 0.9633 0.2686 -153.8105 246.0244)" class="st1" cx="85.1" cy="224.3" rx="0.5" ry="0.2"/>
	</g>
	<g>
		<path class="st6" d="M86.2,218.9c-1.6-1.6-4-1.5-5.8-0.2c-0.4,0.3-0.9-0.4-0.5-0.7c2.1-1.5,4.9-1.6,6.8,0.3
			C87.2,218.6,86.6,219.2,86.2,218.9L86.2,218.9z"/>
	</g>
	<path class="st7" d="M81.4,223.6c-0.6,2.3,0.1,4.5,1.7,5c1.6,0.4,3.4-1.1,4-3.4c0.6-2.3-0.2-4.5-1.7-5
		C83.9,219.7,82,221.3,81.4,223.6z M82.1,223.8c0.5-1.8,1.9-2.9,3.1-2.6c1.2,0.3,1.8,2,1.3,3.8s-1.9,2.9-3.1,2.6
		C82.2,227.2,81.6,225.5,82.1,223.8z"/>
	<polygon class="st7" points="65.1,221.8 81.6,224.7 81.7,223.9 65.3,220.9 	"/>
	<path class="st8" d="M73.8,214.1c-7.7-0.9-8.8,6.3-8.6,8.6c0,0-3.5-3.9-5.6,0c-2.7,5,5,5.9,5,5.9s-3,6.7-7.6,7
		c0,0-6.7-6.5-8.3-19.4c-2-15.1,13.8-22.8,26.6-20.3c12.9,2.5,9.4,17.2,24,6.4C99.2,202.4,99.5,217.2,73.8,214.1z"/>
	<path class="st4" d="M63.7,223.9c0,0-0.7-1.9-1.4-0.9s-0.4,2.3,0.7,3.2C62.9,226.2,62.5,222.7,63.7,223.9z"/>
	<path class="st9" d="M79.6,233.5c1.2,1.1,2.6,2.1,4.2,2.8c-0.1,0.3-0.2,0.6-0.3,1c-1.7-0.8-3.3-1.9-4.6-3.1
		C78.3,233.8,79.1,233,79.6,233.5z"/>
	<path class="st3" d="M53.3,308h38.5c9.1,0,16.6-2.2,16.6,21.8c0.1,23.4-3.1,47.5-3.1,47.5l-9.1-2.3c-6.6-26.1-3.1-50.8-3.1-50.8
		H53.3c-2.9,0-5.2-2.2-5.2-4.9V313C48.1,310.2,50.5,308,53.3,308z"/>
	<path class="st10" d="M53.2,241.5c1.5,2.1,4.3,2.6,7,2.6c6.1,0,12.7,2.6,13.9,8.5c2.2,10.9,7.5,38.4-2.1,54.9
		c-1.4,2.4-27.4,4.9-27.4,4.9C50.3,281.4,41.3,241.5,53.2,241.5z"/>
	<path class="st11" d="M69.2,255.4c1.9-1,3.9-0.6,6,0.9c1.4,8.1,3.2,21,2.2,33.1C66.4,268.4,63.9,258.2,69.2,255.4z"/>
	<path class="st3" d="M114.1,291.7c0-1.9-1.6-3.5-3.5-3.5h-3.9v-2.9c0-1.9,1.6-3.5,3.5-3.5h4.2c1.9,0,3.5,1.6,3.5,3.5v3.8
		c0,1.9-1.6,3.5-3.5,3.5h-0.3C114.1,292.6,114.1,291.7,114.1,291.7z"/>
	<g>
		<path class="st12" d="M108.3,280H86.5c-2.6,0-4.7,2.1-4.7,4.7s2.1,4.7,4.7,4.7h21.8V280z"/>
	</g>
	<path class="st12" d="M80.8,287.2c1.1,2.2,4,3,6.4,1.8l0,0c2.4-1.2,3.5-4,2.4-6.2l-13.7-27.2c-1.1-2.2-4-3-6.4-1.8l0,0
		c-1,0.5-1.8,1.3-2.3,2.3c-0.6,1.2-0.7,2.7-0.1,3.9L80.8,287.2z"/>
	<path class="st1" d="M96.3,375l9.1,2.3c0,0,0.8-5.7,1.5-14.3h-13C94.5,366.9,95.3,370.9,96.3,375z"/>
	<g>
		<path class="st13" d="M96.1,379.8c1.5,0,20,0.3,21,0.3s1.1-1.9,1.1-1.9l-23.4-0.3C94.7,377.8,94.6,379.7,96.1,379.8z"/>
		<path class="st14" d="M96.6,371.8c0,0,2,1.4,4.7,1.4c2.9,0,6.6-1.3,8.9-1.2c4.4,0.2,7.9,1.9,7.8,4.1v1.9c0,0,0,0,0,0.1l-23.4-0.3
			c0,0,0,0,0-0.1v-1.9C94.8,373.6,94.4,371.7,96.6,371.8z"/>
	</g>
	<path class="st15" d="M109.2,333.2c-0.1-28-8.1-25.5-17.9-25.5H49.9c-3.1,0-5.6,2.6-5.6,5.8v7.4c0,3.2,2.5,5.8,5.6,5.8h42.7
		c0,0-0.6,4.5-0.8,11.9h17.4C109.2,336.7,109.3,334.9,109.2,333.2z"/>
	<rect x="88.6" y="291.4" class="st16" width="93" height="4.9"/>
	<rect x="93.7" y="296.3" class="st17" width="82.9" height="7.4"/>
	<rect x="173" y="303.7" class="st17" width="3.6" height="76.8"/>
	<rect x="93.7" y="303.7" class="st17" width="3.6" height="76.8"/>
	<g>
		<polygon class="st17" points="138.6,291.6 149,250.3 150.8,250.6 140.3,292 		"/>
		<rect x="101.2" y="289.2" class="st17" width="39.3" height="2.3"/>
	</g>
	<path class="st18" d="M38,267.3v39.9h2.9c2.3,0,4.2-1.7,4.5-4l2.6-23.6c0.2-1.4,0.1-2.9-0.3-4.3L44.5,263h-2.2
		C40,263,38,264.9,38,267.3z"/>
	<rect x="65.2" y="332.8" class="st19" width="5.2" height="33.8"/>
	<rect x="33.7" y="270" class="st16" width="4.1" height="64.7"/>
	<rect x="33.7" y="331" class="st16" width="41.9" height="3.7"/>
	<rect x="37.8" y="324.5" class="st18" width="51.2" height="6.5"/>
	<g>
		<path class="st16" d="M87.3,376.3h-4.4c0-7.4-6.8-13.4-15.1-13.4s-15.1,6-15.1,13.4h-4.4c0-9.8,8.7-17.8,19.5-17.8
			C78.6,358.6,87.3,366.6,87.3,376.3z"/>
	</g>
	<circle class="st18" cx="50.5" cy="376.3" r="4.7"/>
	<circle class="st18" cx="50.5" cy="376.3" r="2.2"/>
	<circle class="st18" cx="85.3" cy="376.3" r="4.7"/>
	<circle class="st18" cx="85.3" cy="376.3" r="2.2"/>
	<path class="st20" d="M410.2,196.7c4.9,1.4,10.5,6,10.8,14.8c0.2,5.6-0.2,9.1-1.3,13.9c1.7,1,2.1,3.2,1.7,4.9
		c-0.2,0.9-2.9-0.5-2.9-0.5c-0.5,2-0.9,3-1.6,5.7c-2.1,7.3-18.7,0.2-18.7,0.2s-9.3-2.5-10.8-10.3
		C385.8,217.8,386.4,190.1,410.2,196.7z"/>
	<polygon class="st21" points="398.6,244.2 401.8,237 393,233.6 387.5,242 	"/>
	<g>
		
			<ellipse transform="matrix(0.2701 -0.9628 0.9628 0.2701 91.4271 565.5689)" class="st5" cx="418.7" cy="222.5" rx="1.5" ry="0.7"/>
		
			<ellipse transform="matrix(0.2686 -0.9633 0.9633 0.2686 92.7521 565.6331)" class="st1" cx="418.8" cy="221.7" rx="0.5" ry="0.2"/>
	</g>
	<g>
		<path class="st22" d="M419.9,216.4c-1.6-1.6-4-1.5-5.8-0.2c-0.4,0.3-0.9-0.4-0.5-0.7c2.1-1.5,4.9-1.6,6.8,0.3
			C420.8,216.1,420.3,216.7,419.9,216.4L419.9,216.4z"/>
	</g>
	<path class="st22" d="M407.4,211.6c-7.7-0.9-8.8,6.3-8.6,8.6c0,0-3.5-3.9-5.6,0c-2.7,5,5,5.9,5,5.9s-3,6.7-7.6,7
		c0,0-6.7-6.5-8.3-19.4c-2-15.1,13.8-22.8,26.6-20.3c12.9,2.5,9.4,17.2,24,6.4C432.9,199.9,433.2,214.7,407.4,211.6z"/>
	<path class="st4" d="M397.3,221.4c0,0-0.7-1.9-1.4-0.9c-0.7,1-0.4,2.3,0.7,3.2C396.6,223.7,396.1,220.2,397.3,221.4z"/>
	<path class="st9" d="M413.2,231c1.2,1.1,2.6,2.1,4.2,2.8c-0.1,0.3-0.2,0.6-0.3,1c-1.7-0.8-3.3-1.9-4.6-3.1
		C412,231.3,412.7,230.5,413.2,231z"/>
	<path class="st20" d="M387,305.5h38.5c9.1,0,16.6-2.2,16.6,21.8c0.1,23.4-3.1,47.5-3.1,47.5l-9.1-2.3c-6.6-26.1-3.1-50.8-3.1-50.8
		H387c-2.9,0-5.2-2.2-5.2-4.9v-6.3C381.8,307.7,384.1,305.5,387,305.5z"/>
	<path class="st23" d="M386.9,239c1.5,2.1,4.3,2.6,7,2.6c6.1,0,12.7,2.6,13.9,8.5c2.2,10.9,7.5,38.4-2.1,54.9
		c-1.4,2.4-27.4,4.9-27.4,4.9C384,278.9,375,239,386.9,239z"/>
	<path class="st24" d="M402.8,252.9c1.9-1,3.9-0.6,6,0.9c1.4,8.1,3.2,21,2.2,33.1C400.1,265.9,397.6,255.7,402.8,252.9z"/>
	<path class="st20" d="M447.8,289.2c0-1.9-1.6-3.5-3.5-3.5h-3.9v-2.9c0-1.9,1.6-3.5,3.5-3.5h4.2c1.9,0,3.5,1.6,3.5,3.5v3.8
		c0,1.9-1.6,3.5-3.5,3.5h-0.3L447.8,289.2L447.8,289.2z"/>
	<g>
		<path class="st25" d="M442,277.5h-21.8c-2.6,0-4.7,2.1-4.7,4.7s2.1,4.7,4.7,4.7H442V277.5z"/>
	</g>
	<path class="st25" d="M414.5,284.7c1.1,2.2,4,3,6.4,1.8l0,0c2.4-1.2,3.5-4,2.4-6.2l-13.7-27.2c-1.1-2.2-4-3-6.4-1.8l0,0
		c-1,0.5-1.8,1.3-2.3,2.3c-0.6,1.2-0.7,2.7-0.1,3.9L414.5,284.7z"/>
	<path class="st1" d="M430,372.5l9.1,2.3c0,0,0.8-5.7,1.5-14.3h-13.1C428.2,364.4,428.9,368.4,430,372.5z"/>
	<g>
		<path class="st12" d="M429.8,377.3c1.5,0,20,0.3,21,0.3s1.1-1.9,1.1-1.9l-23.4-0.3C428.4,375.3,428.3,377.2,429.8,377.3z"/>
		<path class="st12" d="M430.3,369.3c0,0,2,1.4,4.7,1.4c2.9,0,6.6-1.3,8.9-1.2c4.4,0.2,7.9,1.9,7.8,4.1v1.9c0,0,0,0,0,0.1l-23.4-0.3
			c0,0,0,0,0-0.1v-1.9C428.4,371.1,428.1,369.2,430.3,369.3z"/>
	</g>
	<path class="st26" d="M442.9,330.7c-0.1-28-8.1-25.5-17.9-25.5h-41.4c-3.1,0-5.6,2.6-5.6,5.8v7.4c0,3.2,2.5,5.8,5.6,5.8h42.7
		c0,0-0.6,4.5-0.8,11.9h17.4C442.9,334.2,442.9,332.4,442.9,330.7z"/>
	<rect x="422.3" y="288.9" class="st16" width="93" height="4.9"/>
	<rect x="427.3" y="293.8" class="st17" width="82.9" height="7.4"/>
	<rect x="506.7" y="301.2" class="st17" width="3.6" height="76.8"/>
	<rect x="427.3" y="301.2" class="st17" width="3.6" height="76.8"/>
	<path class="st18" d="M371.7,264.8v39.9h2.9c2.3,0,4.2-1.7,4.5-4l2.6-23.6c0.2-1.4,0.1-2.9-0.3-4.3l-3.1-12.4H376
		C373.6,260.5,371.7,262.4,371.7,264.8z"/>
	<rect x="398.9" y="330.3" class="st19" width="5.2" height="33.8"/>
	<rect x="367.4" y="267.5" class="st16" width="4.1" height="64.7"/>
	<rect x="367.4" y="328.5" class="st16" width="41.9" height="3.7"/>
	<rect x="371.5" y="322" class="st18" width="51.2" height="6.5"/>
	<g>
		<path class="st16" d="M421,373.8h-4.4c0-7.4-6.8-13.4-15.1-13.4c-8.3,0-15.1,6-15.1,13.4H382c0-9.8,8.7-17.8,19.5-17.8
			C412.2,356.1,421,364.1,421,373.8z"/>
	</g>
	<circle class="st18" cx="384.2" cy="373.8" r="4.7"/>
	<circle class="st18" cx="384.2" cy="373.8" r="2.2"/>
	<circle class="st18" cx="418.9" cy="373.8" r="4.7"/>
	<circle class="st18" cx="418.9" cy="373.8" r="2.2"/>
	<g>
		<path class="st27" d="M245.4,87.8c0,0,4.7-1.6,4.1-7.8c-0.3-3.5,0.9-4.7-1-4.6c-0.9,0-2.5,2.2-2.3,4.2s-1.7,3.4-1.7,3.4
			L245.4,87.8z"/>
		<g>
			<path class="st27" d="M243.6,89c-1.6,1-3.8,1-5.3-0.1c-1.1-0.9-2.3-2-3-3.5c-1.9-3.6,1.4-4.4,3.3-6.6c2-2.2,4.2-2.9,6.3,0.2
				c2.2,3,3,6.2,2.3,7.8L243.6,89z"/>
			<path class="st27" d="M245.1,79.3c0,0-2.7-5.6-3.8-8s-2.1-5-3.3-4.1c-1,0.8,2.7,9.6,3.4,11.3L245.1,79.3z"/>
			<path class="st27" d="M242.4,78.7c0,0-3.6-4.9-5.1-6.9c-1.5-2.1-3-4.5-4-3.1c-0.9,1.2,5.2,10,6.2,11.3L242.4,78.7z"/>
			<path class="st27" d="M239.8,81c0,0-3.4-4.1-4.8-5.8c-1.4-1.7-2.9-3.8-3.7-2.6c-0.7,1,5.1,8.5,6,9.7L239.8,81z"/>
			<path class="st27" d="M237.8,83.1c0,0-3.5-3.5-4.9-5s-2.9-3.3-3.6-1.7c-0.7,1.4,5.2,7.8,6.2,8.8L237.8,83.1z"/>
		</g>
	</g>
	<g>
		<path class="st28" d="M287.4,229.5c-0.2-0.5-0.5-1-0.9-1.4c-1-1.1-3.2-3-6.4-2.4c-5.7,1.1-9.3,4.9-12.9,6.4
			c-3,1.2-3.7,2.9-3.1,5.3c0.2,0.7,0.8,1.3,1.5,1.3c2.1,0.2,6.8,0.1,14.3-2.4C288.6,233.4,288.2,231.4,287.4,229.5z"/>
	</g>
	<g>
		<path class="st29" d="M287.8,231.1c-1.4,1-3.9,2.2-8.1,3.6c-7.9,2.6-12.9,2.7-15,2.5c-0.2,0-0.4-0.1-0.5-0.1c0,0.1,0,0.2,0.1,0.3
			c0,0.1,0.1,0.2,0.1,0.3c0.1,0.2,0.2,0.3,0.3,0.5c0.1,0.1,0.2,0.3,0.4,0.4c0.2,0.1,0.5,0.2,0.7,0.2c2.1,0.2,6.8,0.1,14.3-2.4
			C286.2,234.2,287.7,232.5,287.8,231.1z"/>
	</g>
	<g>
		<path class="st30" d="M277.2,226.8c0.4-7.1,0.3-14.4,0.2-21.6c-0.1-7.2-0.4-14.5-0.7-21.7c-0.6-14.5-1.5-29.1-2.7-43.5l19.3-0.4
			c-0.6,14.8-1.4,29.4-2.5,44.1c-0.5,7.3-1.1,14.7-1.9,22c-0.8,7.4-1.6,14.7-2.9,22.1L277.2,226.8z"/>
	</g>
	<g>
		<path class="st28" d="M300.4,228.8c0.3-0.5,0.6-0.9,1-1.3c1.1-1,3.5-2.6,6.6-1.7c5.6,1.7,8.7,6,12,7.8c2.8,1.6,3.3,3.3,2.5,5.6
			c-0.3,0.7-0.9,1.2-1.7,1.2c-2.1-0.1-6.8-0.7-13.9-4.1C298.8,232.5,299.4,230.6,300.4,228.8z"/>
	</g>
	<g>
		<path class="st29" d="M299.8,230.4c1.3,1.2,3.7,2.6,7.6,4.5c7.5,3.5,12.5,4.1,14.7,4.2c0.2,0,0.4,0,0.6-0.1c0,0.1-0.1,0.2-0.1,0.3
			s-0.1,0.2-0.1,0.3c-0.1,0.2-0.2,0.3-0.3,0.4c-0.1,0.1-0.3,0.2-0.4,0.3c-0.2,0.1-0.5,0.2-0.8,0.2c-2.1-0.1-6.8-0.7-13.9-4.1
			C301.1,233.6,299.7,231.8,299.8,230.4z"/>
	</g>
	<g>
		<path class="st31" d="M300.8,227.9c-1.3-7.4-2.2-14.7-3.1-22.1c-0.9-7.3-1.6-14.7-2.2-22c-1.3-14.7-2.4-29.3-3.3-44l20.4,0.1
			c-0.9,14.4-1.6,29-2.1,43.6c-0.2,7.3-0.4,14.5-0.5,21.8c-0.1,7.2,0,14.5,0.3,21.6L300.8,227.9z"/>
	</g>
	<g>
		<g>
			<g>
				<path class="st32" d="M265,115.1c-3.3,0-7.3-1.2-11.9-5.2c-10.8-9.4-15-19.7-15.2-20.1l11.1-4.4l-5.5,2.2l5.5-2.2
					c0,0.1,3.4,8.1,11.9,15.5c1.9,1.7,3.6,2.5,4.5,2.2c2.7-0.9,5.8-8.4,6.8-14.5l11.8,2c-0.6,3.3-3.9,19.9-14.6,23.7
					C268.3,114.8,266.8,115.1,265,115.1z"/>
			</g>
		</g>
	</g>
	<g>
		<path class="st27" d="M359.6,88c0.5,1.1,1.6,1.8,2.8,1.7c1.6-0.1,4-0.4,5.9-1.6c3.5-2.1,1.1-4.6,0.5-7.6s-2.2-4.7-5.7-3.1
			c-3.4,1.6-5.9,3.9-6,5.7L359.6,88z"/>
		<g>
			<path class="st27" d="M362.7,77.6c0,0,1.1-0.5,2.5-1.8c1.6-1.3,3.7-1.8,4.2-0.4c0.5,1.2-2.6,3.8-3.7,4.6L362.7,77.6z"/>
			<path class="st27" d="M363.5,80.2c0,0,1.1-0.5,2.5-1.8c1.6-1.3,3.7-1.8,4.2-0.4c0.5,1.2-2.6,3.8-3.7,4.6L363.5,80.2z"/>
			<path class="st27" d="M364.4,83.1c0,0,1.1-0.5,2.5-1.8c1.6-1.3,3.7-1.8,4.2-0.4c0.5,1.2-2.6,3.8-3.7,4.6L364.4,83.1z"/>
			<path class="st27" d="M365.2,85.6c0,0,1.1-0.5,2.5-1.8c1.6-1.3,3.7-1.8,4.2-0.4c0.5,1.2-2.6,3.8-3.7,4.6L365.2,85.6z"/>
			<path class="st27" d="M357.2,83.2c0,0-0.5-4.3,1.3-7.4s1.5-4.5,3.2-3.5c0.8,0.5,1.1,3.2-0.1,4.8s-0.3,3.8-0.3,3.8L357.2,83.2z"/>
		</g>
	</g>
	<g>
		<g>
			<g>
				<path class="st32" d="M322.7,102.8c-15.7-1.4-25.4-13.1-25.9-13.7l9.3-7.5c0.5,0.5,11,13.1,27.2,8.2c11.9-3.6,23.2-9.4,23.3-9.5
					l5.5,10.6c-0.5,0.3-12.5,6.4-25.4,10.3C331.6,102.8,327,103.2,322.7,102.8z"/>
			</g>
		</g>
	</g>
	<path class="st33" d="M316.9,150.9c1.1-28.5-2.4-55-3.4-61.9c-0.2-1.2-0.7-2.3-1.7-3c-9-7.3-18.8-6.5-18.8-6.5s-9.7-0.8-18.6,6.4
		c-1,0.8-1.6,2-1.8,3.3c-0.8,7.1-3.5,33.4-2.4,61.8C270.3,150.9,289.7,156.9,316.9,150.9z"/>
	<g>
		<path class="st32" d="M293.2,80.6c7.7,0,14.8,4.1,20.4,8.4c0-0.2-0.1-0.4-0.1-0.5c-0.2-1.2-0.7-2.3-1.7-3
			c-9-7.4-18.8-6.6-18.8-6.6s-9.7-0.8-18.6,6.5c-1,0.8-1.6,2-1.8,3.3c0,0.2,0,0.4-0.1,0.6C278.1,84.7,285.3,80.6,293.2,80.6z"/>
	</g>
	<path class="st32" d="M302.3,81.1c0-0.3-0.1-0.7-0.2-1c-5.2-1.7-9.1-1.3-9.1-1.3s-3.8-0.3-8.8,1.2c-0.1,0.4-0.2,0.7-0.2,1.1
		c0,2.8,4.1,5.1,9.2,5.1C298.2,86.2,302.3,83.9,302.3,81.1z"/>
	<path class="st27" d="M287.6,80.2c-0.3,1.9,0.8,2.7,2.6,3.3c1.2,0.4,2.5,0.6,3.9,0.6c1.2,0,2.3-0.2,3.4-0.5c2-0.6,3.2-1.4,2.9-3.4
		l-0.7-5.1h-11.4L287.6,80.2z"/>
	<path class="st34" d="M300.4,80.2l-0.7-5h-11.4l-0.4,2.7C291.5,79.3,295.8,80.1,300.4,80.2z"/>
	<path class="st27" d="M276.9,48.6c0,0-2.7-5.9-6.4-3c-3.3,2.6,0.6,17.1,6.1,12.5L276.9,48.6z"/>
	<path class="st34" d="M275.8,49.2c0,0-2-4.8-4.6-2.5c-2.3,2,0.5,12.7,4.4,9L275.8,49.2z"/>
	<path class="st35" d="M273.1,51.8c0,0.8,0.7,1.4,1.5,1.3c0.8-0.1,1.4-0.7,1.4-1.5s-0.7-1.4-1.5-1.3C273.7,50.3,273.1,51,273.1,51.8
		z"/>
	<path class="st36" d="M271.8,47.1c-1.4,1.2-1.1,5.8,0.4,8.3c-1.8-2.3-2.4-7.3-0.9-8.6c1.1-1,2.1-0.7,2.8,0
		C273.4,46.4,272.6,46.4,271.8,47.1z"/>
	<path class="st27" d="M316.3,45.5c-3.7-2.9-6.4,3-6.4,3l0.3,9.5C315.7,62.7,319.6,48.1,316.3,45.5z"/>
	<path class="st27" d="M311.2,35.8c1.1,3.7,1.9,8.9,2.8,13.7c0.8,4.7,3.3,20.3-10,25.9c-13.3,5.7-25.5-2.6-28-12.8
		c-2.9-11.4-1.4-18.5,0.9-25.8c3.2-9.7,10.5-13,18.3-13.1C302.5,23.7,308.7,27.6,311.2,35.8z"/>
	<path class="st37" d="M286.9,62.8c0.6,2.3,2.9,8.4,9.2,8.5c7,0.1,8.4-8.8,8.4-8.8C294.2,65.3,286.9,62.8,286.9,62.8z"/>
	<path class="st38" d="M296.4,51.4c0,0,0.2,5.7,3.2,6.4c0,0-0.8,2.8-3.2,2.7c0,0,0.8-0.4,1.8-2.3C298.1,58.2,295.6,56,296.4,51.4z"
		/>
	<g>
		<path class="st39" d="M291.8,38.7c-1.8,0.1-3.3,0.2-4.9,0.4c-0.8,0.1-1.5,0.3-2.2,0.5s-1.4,0.6-2.3,1c0.3-0.8,0.9-1.6,1.7-2.1
			c0.8-0.5,1.6-0.8,2.5-1c0.9-0.1,1.8-0.1,2.7,0.1C290.3,37.9,291.1,38.2,291.8,38.7z"/>
	</g>
	<g>
		<path class="st39" d="M300.9,39.7c0.5-0.6,1.3-1,2-1.3c0.8-0.3,1.6-0.4,2.4-0.3c0.8,0.1,1.6,0.3,2.3,0.8c0.7,0.4,1.3,1,1.7,1.7
			c-0.8-0.2-1.5-0.5-2.1-0.6c-0.7-0.2-1.3-0.3-2-0.3C303.8,39.6,302.5,39.7,300.9,39.7z"/>
	</g>
	<g>
		<g>
			<path class="st39" d="M292.5,50.1c-0.5-1-1.1-1.9-1.9-2.6c-0.4-0.3-0.9-0.5-1.4-0.7c-0.3-0.1-0.5-0.1-0.8-0.2c-0.3,0-0.6,0-0.8,0
				c-0.6,0-1.1,0.2-1.6,0.4s-0.9,0.5-1.3,0.9c-0.8,0.8-1.3,1.7-1.7,2.7c-0.2-1.1,0-2.2,0.7-3.3c0.4-0.5,0.9-1,1.5-1.3
				c0.7-0.3,1.4-0.5,2.2-0.6c0.8-0.1,1.6,0,2.4,0.2c0.7,0.2,1.4,0.6,1.8,1.2C292.4,47.8,292.6,49,292.5,50.1z"/>
		</g>
	</g>
	<g>
		<g>
			<path class="st39" d="M309.4,49.8c-0.5-0.9-1-1.8-1.8-2.4c-0.8-0.5-1.7-0.8-2.8-0.7c-0.5,0-1,0.2-1.4,0.4
				c-0.4,0.2-0.8,0.5-1.2,0.8c-0.7,0.7-1.2,1.6-1.7,2.5c-0.2-1,0-2,0.6-3c0.3-0.5,0.8-0.9,1.4-1.2c0.6-0.3,1.3-0.5,2.1-0.6
				c1.4-0.2,3.1,0.3,3.9,1.2C309.4,47.8,309.6,48.9,309.4,49.8z"/>
		</g>
	</g>
	<path class="st40" d="M246.5,198.2c4.9,1.4,10.5,6,10.8,14.8c0.2,5.6-0.2,9.1-1.3,13.9c1.7,1,2.1,3.2,1.7,4.9
		c-0.2,0.9-2.9-0.5-2.9-0.5c-0.5,2-0.9,3-1.6,5.7c-2.1,7.3-18.7,0.2-18.7,0.2s-9.3-2.5-10.8-10.3
		C222.2,219.3,222.7,191.6,246.5,198.2z"/>
	<polygon class="st41" points="234.9,245.7 238.1,238.5 229.4,235.1 223.8,243.5 	"/>
	<g>
		<ellipse transform="matrix(0.2701 -0.9628 0.9628 0.2701 -29.5425 409.0709)" class="st5" cx="255" cy="224" rx="1.5" ry="0.7"/>
		
			<ellipse transform="matrix(0.2686 -0.9633 0.9633 0.2686 -28.4932 409.057)" class="st1" cx="255.1" cy="223.3" rx="0.5" ry="0.2"/>
	</g>
	<g>
		<path class="st6" d="M256.2,217.9c-1.6-1.6-4-1.5-5.8-0.2c-0.4,0.3-0.9-0.4-0.5-0.7c2.1-1.5,4.9-1.6,6.8,0.3
			C257.2,217.6,256.6,218.2,256.2,217.9L256.2,217.9z"/>
	</g>
	<path class="st7" d="M251.4,222.6c-0.6,2.3,0.1,4.5,1.7,5c1.6,0.4,3.4-1.1,4-3.4c0.6-2.3-0.2-4.5-1.7-5
		C253.9,218.7,252,220.3,251.4,222.6z M252.1,222.8c0.5-1.8,1.9-2.9,3.1-2.6c1.2,0.3,1.8,2,1.3,3.8s-1.9,2.9-3.1,2.6
		C252.2,226.2,251.6,224.5,252.1,222.8z"/>
	<polygon class="st7" points="235.1,220.8 251.6,223.7 251.7,222.9 235.3,219.9 	"/>
	<path class="st4" d="M233.7,222.9c0,0-0.7-1.9-1.4-0.9s-0.4,2.3,0.7,3.2C232.9,225.2,232.5,221.7,233.7,222.9z"/>
	<path class="st9" d="M249.6,232.5c1.2,1.1,2.6,2.1,4.2,2.8c-0.1,0.3-0.2,0.6-0.3,1c-1.7-0.8-3.3-1.9-4.6-3.1
		C248.3,232.8,249.1,232,249.6,232.5z"/>
	<path class="st42" d="M220.3,307h40.6c9.6,0,17.5-2.2,17.5,21.8c0.1,23.4-3.3,47.5-3.3,47.5l-9.6-2.3c-6.9-26.1-3.3-50.8-3.3-50.8
		h-41.8c-3,0-5.5-2.2-5.5-4.9V312C214.9,309.2,217.3,307,220.3,307z"/>
	<path class="st43" d="M223.2,240.5c1.5,2.1,4.3,2.6,7,2.6c6.1,0,12.7,2.6,13.9,8.5c2.2,10.9,7.5,38.4-2.1,54.9
		c-1.4,2.4-27.4,4.9-27.4,4.9C220.3,280.4,211.3,240.5,223.2,240.5z"/>
	<path class="st44" d="M239.2,254.4c1.9-1,3.9-0.6,6,0.9c1.4,8.1,3.2,21,2.2,33.1C236.4,267.4,233.9,257.2,239.2,254.4z"/>
	<path class="st40" d="M284.1,290.7c0-1.9-1.6-3.5-3.5-3.5h-3.9v-2.9c0-1.9,1.6-3.5,3.5-3.5h4.2c1.9,0,3.5,1.6,3.5,3.5v3.8
		c0,1.9-1.6,3.5-3.5,3.5h-0.3L284.1,290.7L284.1,290.7z"/>
	<g>
		<path class="st45" d="M278.3,279h-21.8c-2.6,0-4.7,2.1-4.7,4.7s2.1,4.7,4.7,4.7h21.8V279z"/>
	</g>
	<path class="st45" d="M250.8,286.2c1.1,2.2,4,3,6.4,1.8l0,0c2.4-1.2,3.5-4,2.4-6.2l-13.7-27.2c-1.1-2.2-4-3-6.4-1.8l0,0
		c-1,0.5-1.8,1.3-2.3,2.3c-0.6,1.2-0.7,2.7-0.1,3.9L250.8,286.2z"/>
	<g>
		<path class="st46" d="M266.1,378.8c1.5,0,20,0.3,21,0.3s1.1-1.9,1.1-1.9l-23.4-0.3C264.7,376.8,264.6,378.7,266.1,378.8z"/>
		<path class="st46" d="M266.6,370.8c0,0,2,1.4,4.7,1.4c2.9,0,6.6-1.3,8.9-1.2c4.4,0.2,7.9,1.9,7.8,4.1v1.9c0,0,0,0,0,0.1l-23.4-0.3
			c0,0,0,0,0-0.1v-1.9C264.8,372.6,264.4,370.7,266.6,370.8z"/>
	</g>
	<rect x="258.6" y="290.4" class="st16" width="93" height="4.9"/>
	<rect x="263.7" y="295.3" class="st17" width="82.9" height="7.4"/>
	<rect x="343" y="302.7" class="st17" width="3.6" height="76.8"/>
	<rect x="263.7" y="302.7" class="st17" width="3.6" height="76.8"/>
	<path class="st18" d="M208,266.3v39.9h2.9c2.3,0,4.2-1.7,4.5-4l2.6-23.6c0.2-1.4,0.1-2.9-0.3-4.3l-3.1-12.4h-2.2
		C210,262,208,263.9,208,266.3z"/>
	<rect x="235.2" y="331.8" class="st19" width="5.2" height="33.8"/>
	<rect x="203.7" y="269" class="st16" width="4.1" height="64.7"/>
	<rect x="203.7" y="330" class="st16" width="41.9" height="3.7"/>
	<rect x="207.8" y="323.5" class="st18" width="51.2" height="6.5"/>
	<g>
		<path class="st16" d="M257.3,375.3h-4.4c0-7.4-6.8-13.4-15.1-13.4s-15.1,6-15.1,13.4h-4.4c0-9.8,8.7-17.8,19.5-17.8
			C248.6,357.6,257.3,365.6,257.3,375.3z"/>
	</g>
	<circle class="st18" cx="220.5" cy="375.3" r="4.7"/>
	<circle class="st18" cx="220.5" cy="375.3" r="2.2"/>
	<circle class="st18" cx="255.3" cy="375.3" r="4.7"/>
	<circle class="st18" cx="255.3" cy="375.3" r="2.2"/>
	<path class="st47" d="M249.3,207.9c0,0,6.2,0.6,6.8,6c0.5,5.4,2.7,6.6,5.7,5.8c0,0-2.4-0.9-1.1-5.6c1.3-4.7,5.5-16.8-9.9-20.8
		s-17.3,0-17.1,2.9c0,0-3.6-4.6-9.7,1.5c-6,6-4.9,11.4-4.9,11.4s-10.2-6.6-17,0.2c-6.8,6.9,2.5,26.6-8.4,32c0,0,21.7-1.7,24.9-24.1
		c0,0-1.7,12.7,9.5,17.5c0,0,3.1-4,3.5-9.2c0,0-4.5-0.8-3.4-4.8c1.1-3.9,4.5-2.8,5.6,0.1c0,0,1.6,2.3,3.7,1.5
		c2.1-0.8,2.9-5.4,2.9-8.4C240.3,214,247.5,212.8,249.3,207.9z"/>
	<g>
		<path class="st43" d="M220.3,209.2c-0.1,2.9-0.3,5.8-0.6,8.6c-0.1,1.5-2.5,1.4-2.4-0.1c0.3-2.9,0.5-5.8,0.6-8.6
			C217.9,207.6,220.3,207.7,220.3,209.2L220.3,209.2z"/>
	</g>
	<path class="st48" d="M310.6,23.7c2.1,1,3.8,4.4,4.9,7c0.8,2,1,4.1,0.5,6.2l-3.2,13.1c0,0-0.9-4.8-1.1-8.8
		c-0.8-11.2-5-12.1-9.4-12.1c-2.3,0-8,1.4-8,1.4h-0.1c0,0-5.7-1.4-8-1.4c-4.5,0-8.7,1-9.4,12.1c-0.3,4-1.1,8.8-1.1,8.8l-3.1-13
		c-0.5-2.1-0.3-4.3,0.5-6.3c1.1-2.6,2.8-5.9,4.8-6.9C288.7,19,298.7,18.3,310.6,23.7z"/>
	<g>
		<polygon class="st17" points="308.3,290.9 318.7,249.6 320.4,250 310,291.3 		"/>
		<rect x="270.9" y="288.5" class="st17" width="39.3" height="2.3"/>
	</g>
	<g>
		<polygon class="st17" points="471.6,289.6 482,248.3 483.8,248.6 473.3,290 		"/>
		<rect x="434.2" y="287.2" class="st17" width="39.3" height="2.3"/>
	</g>
</g>
</svg>
