<?xml version="1.0" encoding="utf-8"?>
<!-- Generator: Adobe Illustrator 21.1.0, SVG Export Plug-In . SVG Version: 6.00 Build 0)  -->
<svg version="1.1" id="Layer_1" xmlns="http://www.w3.org/2000/svg" xmlns:xlink="http://www.w3.org/1999/xlink" x="0px" y="0px"
	 viewBox="0 0 200 200" style="enable-background:new 0 0 200 200;" xml:space="preserve">
<style type="text/css">
	.st0{fill:#0A6FB6;}
</style>
<g>
	<g>
		<g>
			<polygon class="st0" points="115.5,178.5 110.3,178.5 110.3,157.9 105.2,157.9 105.2,152.8 115.5,152.8 			"/>
			<polygon class="st0" points="177.3,178.5 172.1,178.5 172.1,152.8 182.5,152.8 182.5,157.9 177.3,157.9 			"/>
			<path class="st0" d="M195.3,178.5h-5.2v-30.9c0-17.7-12.5-36.1-33.3-36.1h-26.1c-20.9,0-33.3,18.3-33.3,36.1v30.9h-5.2v-30.9
				c0-23.1,16.9-41.2,38.5-41.2h26.1c21.6,0,38.5,18.1,38.5,41.2V178.5z"/>
			<path class="st0" d="M143.8,101.2c-13.4,0-23.2-10.8-23.2-25.8c0-5.3,1.2-10.3,3.6-14.4l4.5,2.5c-1.9,3.4-2.9,7.5-2.9,11.9
				c0,12.1,7.4,20.6,18,20.6c10.6,0,18-8.5,18-20.6c0-4.6-1.1-8.9-3.2-12.3l4.4-2.7c2.6,4.3,3.9,9.5,3.9,15
				C167,90.4,157.2,101.2,143.8,101.2z"/>
		</g>
		<path class="st0" d="M143.7,59.1c-0.3,0-0.5,0-0.8-0.1l-33.5-10.3c-1.1-0.3-1.8-1.3-1.8-2.5c0-1.1,0.7-2.1,1.8-2.5l33.5-10.3
			c0.5-0.2,1-0.2,1.5,0l33.5,10.3c1.1,0.3,1.8,1.3,1.8,2.5c0,1.1-0.7,2.1-1.8,2.5L144.5,59C144.2,59.1,144,59.1,143.7,59.1z
			 M119,46.3l24.7,7.6l24.7-7.6l-24.7-7.6L119,46.3z"/>
		<path class="st0" d="M143.7,69.5c-13.6,0-19.6-5.6-19.8-5.9l-0.8-0.8V51.4h5.2v9c1.8,1.2,6.7,3.8,15.5,3.8
			c8.9,0,13.7-2.6,15.5-3.8v-9.1h5.2v11.4l-0.8,0.8C163.3,63.8,157.5,69.5,143.7,69.5z"/>
		<path class="st0" d="M172,66.9c-1.4,0-2.6-1.2-2.6-2.6V48.8c0-1.4,1.2-2.6,2.6-2.6c1.4,0,2.6,1.2,2.6,2.6v15.5
			C174.6,65.7,173.5,66.9,172,66.9z"/>
		<path class="st0" d="M150.2,124.4h-10.3c-1.2,0-2.3-0.9-2.5-2.1l-2.6-12.9c-0.2-0.8,0-1.5,0.5-2.1c0.5-0.6,1.2-0.9,2-0.9h15.5
			c0.8,0,1.5,0.3,2,0.9c0.5,0.6,0.7,1.4,0.5,2.1l-2.6,12.9C152.5,123.6,151.5,124.4,150.2,124.4z M142,119.3h6.1l1.5-7.7h-9.2
			L142,119.3z"/>
		<path class="st0" d="M150.2,152.8c-1.4,0-2.6-1.2-2.6-2.6v-28.3c0-1.4,1.2-2.6,2.6-2.6c1.4,0,2.6,1.2,2.6,2.6v28.3
			C152.8,151.6,151.7,152.8,150.2,152.8z"/>
		<path class="st0" d="M139.9,152.8c-1.4,0-2.6-1.2-2.6-2.6v-28.3c0-1.4,1.2-2.6,2.6-2.6c1.4,0,2.6,1.2,2.6,2.6v28.3
			C142.5,151.6,141.4,152.8,139.9,152.8z"/>
		<path class="st0" d="M141.2,155.4c-1,0-1.9-0.6-2.3-1.4l-16.8-33.5c-0.4-0.8-0.4-1.7,0.1-2.5l6.3-10.3c0.7-1.2,2.3-1.6,3.5-0.9
			c1.2,0.7,1.6,2.3,0.9,3.5l-5.5,9.1l15.4,30.8l4.5,0l15.5-30.9l-4.3-8.5c-0.6-1.3-0.1-2.8,1.2-3.5c1.3-0.6,2.8-0.1,3.5,1.2l4.8,9.7
			c0.4,0.7,0.4,1.6,0,2.3l-16.7,33.5c-0.4,0.9-1.3,1.4-2.3,1.4L141.2,155.4L141.2,155.4z"/>
	</g>
	<g>
		<g>
			<polygon class="st0" points="25.3,155.4 20.1,155.4 20.1,137.3 16.7,137.3 16.7,132.2 25.3,132.2 			"/>
			<polygon class="st0" points="82,155.4 76.8,155.4 76.8,132.2 87.9,132.2 87.9,137.3 82,137.3 			"/>
			<path class="st0" d="M9.8,155.4H4.7v-28.5c0-21.4,15.7-38.2,35.6-38.2h24c14.8,0,27.4,8.9,32.9,23.2c0.6,1.5,1.1,3.1,1.5,4.7
				l-5,1.3c-0.4-1.4-0.8-2.8-1.3-4.1C87.7,101.5,77,93.9,64.4,93.9h-24c-14.8,0-30.5,11.6-30.5,33V155.4z"/>
			<path class="st0" d="M52.3,84.4c-12.5,0-21.6-10.1-21.6-23.9c0-4.9,1.1-9.5,3.3-13.4c0.7-1.2,2.3-1.7,3.5-1
				c1.2,0.7,1.7,2.3,1,3.5c-1.7,3.1-2.7,6.8-2.7,10.8c0,11.1,6.7,18.8,16.4,18.8s16.4-7.7,16.4-18.8c0-4.2-1-8.1-2.9-11.3
				c-0.7-1.2-0.3-2.8,0.9-3.5c1.2-0.7,2.8-0.3,3.5,0.9c2.4,4,3.6,8.8,3.6,13.9C73.9,74.3,64.8,84.4,52.3,84.4z"/>
		</g>
		<path class="st0" d="M52.2,45.6c-0.3,0-0.5,0-0.8-0.1L20.6,36c-1.1-0.3-1.8-1.3-1.8-2.5c0-1.1,0.7-2.1,1.8-2.5l30.9-9.5
			c0.5-0.2,1-0.2,1.5,0l30.9,9.5c1.1,0.3,1.8,1.3,1.8,2.5c0,1.1-0.7,2.1-1.8,2.5L53,45.5C52.7,45.6,52.5,45.6,52.2,45.6z M30.1,33.5
			l22.1,6.8l22.1-6.8l-22.1-6.8L30.1,33.5z"/>
		<path class="st0" d="M52.2,55.1c-12.6,0-18.2-5.3-18.4-5.5c-0.5-0.5-0.8-1.2-0.8-1.8v-9.5c0-1.4,1.2-2.6,2.6-2.6
			c1.4,0,2.6,1.2,2.6,2.6v8.2c1.7,1.1,6.1,3.4,14,3.4c8,0,12.4-2.3,14-3.4v-8.2c0-1.4,1.2-2.6,2.6-2.6c1.4,0,2.6,1.2,2.6,2.6v9.5
			c0,0.7-0.3,1.3-0.8,1.8C70.4,49.8,65,55.1,52.2,55.1z"/>
		<path class="st0" d="M78.3,52.7c-1.4,0-2.6-1.2-2.6-2.6V35.9c0-1.4,1.2-2.6,2.6-2.6c1.4,0,2.6,1.2,2.6,2.6v14.2
			C80.9,51.6,79.8,52.7,78.3,52.7z"/>
		<path class="st0" d="M58.3,105.7h-9.5c-1.2,0-2.3-0.9-2.5-2.1l-2.4-11.9c-0.2-0.8,0-1.5,0.5-2.1c0.5-0.6,1.2-0.9,2-0.9h14.2
			c0.8,0,1.5,0.3,2,0.9c0.5,0.6,0.7,1.4,0.5,2.1l-2.4,11.9C60.6,104.9,59.5,105.7,58.3,105.7z M50.9,100.6h5.3l1.3-6.7h-8
			L50.9,100.6z"/>
		<path class="st0" d="M58.3,131.8c-1.4,0-2.6-1.2-2.6-2.6v-26.1c0-1.4,1.2-2.6,2.6-2.6c1.4,0,2.6,1.2,2.6,2.6v26.1
			C60.8,130.7,59.7,131.8,58.3,131.8z"/>
		<path class="st0" d="M48.8,131.8c-1.4,0-2.6-1.2-2.6-2.6v-26.1c0-1.4,1.2-2.6,2.6-2.6c1.4,0,2.6,1.2,2.6,2.6v26.1
			C51.4,130.7,50.2,131.8,48.8,131.8z"/>
		<path class="st0" d="M50,134.2c-1,0-1.9-0.6-2.3-1.4l-15.4-30.9c-0.4-0.8-0.4-1.7,0.1-2.5l5.8-9.5c0.7-1.2,2.3-1.6,3.5-0.9
			c1.2,0.7,1.6,2.3,0.9,3.5l-5,8.3l14.1,28.2l3.9,0l14.1-28.3L65.8,93c-0.6-1.3-0.1-2.8,1.2-3.5c1.3-0.6,2.8-0.1,3.5,1.2l4.4,8.9
			c0.4,0.7,0.4,1.6,0,2.3l-15.4,30.9c-0.4,0.9-1.3,1.4-2.3,1.4L50,134.2C50,134.2,50,134.2,50,134.2z"/>
	</g>
</g>
</svg>
