<?xml version="1.0" encoding="utf-8"?>
<!-- Generator: Adobe Illustrator 21.1.0, SVG Export Plug-In . SVG Version: 6.00 Build 0)  -->
<svg version="1.1" id="Layer_1" xmlns="http://www.w3.org/2000/svg" xmlns:xlink="http://www.w3.org/1999/xlink" x="0px" y="0px"
	 viewBox="0 0 200 200" style="enable-background:new 0 0 200 200;" xml:space="preserve">
<style type="text/css">
	.st0{fill:none;stroke:#0A6FB6;stroke-width:4;stroke-miterlimit:10;}
</style>
<path class="st0" d="M172.1,169.6l-1.8-30.9c3.6-12.5,6-21.4,6.4-25.6c0.6-6.5,1.2-23,1.1-25.9c0-2.5,1.6-13.3,2.2-16.8
	c0.5-2.4-1.1-14.8-1.5-16.3c-1.2-4.9-8-5.2-8.3,0.7c0,0.7-0.8,13.3-0.8,13.3c-0.7,2.2-1.4,10.6-1.5,11.3c-0.1-2.2-0.2-12.3-0.1-19
	c0.1-7-6.2-24.1-6.7-25.5c-1.7-5.5-10.2-6-10.3,1c0,0.7,4.3,13.9,4,23.4c0,1.4-1.6,12.9-1.7,13.8c-0.2-1.9-1-13.9-1.3-17
	c-0.5-5-5.7-24-6.4-25.6c-3.3-7.7-10.6-5-11.7-0.3c-0.4,1.5,3.6,15.3,4.3,25.9c0.2,3,0,14.5-0.1,16c-0.8-2.3-6.1-11.8-6.8-14.3
	c-1.3-4.8-5.1-11.4-6.5-14.9c-3.2-8.1-9.4-11.1-11-3.6c-0.6,3.8,0.3,9.7,4,20.3c5.4,15,7,18.3,2.2,42c-0.4-1.1-6.6-32.1-16.5-27.7
	c-3.6,1.7,0.6,7.2,0.2,18.6c0,0,4.1,12.1,7.3,22.6c1.6,5.1,10.1,17.4,19.3,24.3l2.6,36c0,4.4,4.3,8.1,9.5,8.3c0,0,15.2,1.2,17.5,1.2
	h3.2C168.3,184.7,172.3,174,172.1,169.6z"/>
<path class="st0" d="M24.1,169.6l1.8-30.9c-3.6-12.5-6-21.4-6.4-25.6c-0.6-6.5-1.2-23-1.1-25.9c0-2.5-1.6-13.3-2.2-16.8
	c-0.5-2.4,1.1-14.8,1.5-16.3c1.2-4.9,8-5.2,8.3,0.7c0,0.7,0.8,13.3,0.8,13.3c0.7,2.2,1.4,10.6,1.5,11.3c0.1-2.2,0.2-12.3,0.1-19
	c-0.1-7,6.2-24.1,6.7-25.5c1.7-5.5,10.2-6,10.3,1c0,0.7-4.3,13.9-4,23.4c0,1.4,1.6,12.9,1.7,13.8c0.2-1.9,1-13.9,1.3-17
	c0.5-5,5.7-24,6.4-25.6c3.3-7.7,10.6-5,11.7-0.3c0.4,1.5-3.6,15.3-4.3,25.9c-0.2,3,0,14.5,0.1,16c0.8-2.3,6.1-11.8,6.8-14.3
	c1.3-4.8,5.1-11.4,6.5-14.9c3.2-8.1,9.4-11.1,11-3.6c0.6,3.8-0.3,9.7-4,20.3c-5.4,15-7,18.3-2.2,42c0.4-1.1,6.6-32.1,16.5-27.7
	c3.6,1.7-0.6,7.2-0.2,18.6c0,0-4.1,12.1-7.3,22.6c-1.6,5.1-10.1,17.4-19.3,24.3l-2.6,36c0,4.4-4.3,8.1-9.5,8.3
	c0,0-15.2,1.2-17.5,1.2h-3.2C28,184.7,24,174,24.1,169.6z"/>
</svg>
