<?xml version="1.0" encoding="utf-8"?>
<!-- Generator: Adobe Illustrator 21.1.0, SVG Export Plug-In . SVG Version: 6.00 Build 0)  -->
<svg version="1.1" id="Layer_1" xmlns="http://www.w3.org/2000/svg" xmlns:xlink="http://www.w3.org/1999/xlink" x="0px" y="0px"
	 viewBox="0 0 200 200" style="enable-background:new 0 0 200 200;" xml:space="preserve">
<style type="text/css">
	.st0{fill:#1B91CC;}
	.st1{fill:none;}
	.st2{fill:#006478;}
	.st3{fill:#045F8C;}
	.st4{fill:#666666;}
	.st5{fill:#C85000;}
	.st6{fill:#646464;}
	.st7{fill:#6E6E6E;}
	.st8{fill:#B3B3B3;}
	.st9{fill:#999999;}
	.st10{opacity:0.3;fill:#FFFFFF;}
	.st11{fill:#CCAE9A;}
	.st12{fill:#C1A18B;}
	.st13{fill:#662E05;}
	.st14{fill:#FF7800;}
	.st15{fill:#300F03;}
	.st16{fill:#BC9B84;}
	.st17{fill:#B29079;}
	.st18{fill:#DC5000;}
	.st19{fill:#1C1A1A;}
	.st20{fill:#A37F66;}
	.st21{fill:#9B7861;}
	.st22{fill:#E6E6E6;}
	.st23{fill:#F0F0F0;}
</style>
<g>
	<circle class="st0" cx="100" cy="100" r="97"/>
</g>
<path class="st1" d="M256.5,184h-9c-0.5,0-1,0.5-1,1v16c0,0.5,0.5,1,1,1h9c0.5,0,1-0.5,1-1v-16C257.5,184.5,257,184,256.5,184z"/>
<path class="st1" d="M269.5,209h-9c-0.5,0-1,0.5-1,1v16c0,0.5,0.5,1,1,1h9c0.5,0,1-0.5,1-1v-16C270.5,209.5,270,209,269.5,209z"/>
<path class="st1" d="M256.5,209h-9c-0.5,0-1,0.5-1,1v16c0,0.5,0.5,1,1,1h9c0.5,0,1-0.5,1-1v-16C257.5,209.5,257,209,256.5,209z"/>
<path class="st1" d="M269.5,184h-3h-6c-0.5,0-1,0.5-1,1v16c0,0.5,0.5,1,1,1h9c0.5,0,1-0.5,1-1v-4v-12C270.5,184.5,270,184,269.5,184
	z"/>
<path class="st1" d="M347.5,209h-9c-0.5,0-1,0.5-1,1v16c0,0.5,0.5,1,1,1h9c0.5,0,1-0.5,1-1v-16C348.5,209.5,348,209,347.5,209z"/>
<path class="st1" d="M360.5,209h-9c-0.5,0-1,0.5-1,1v16c0,0.5,0.5,1,1,1h9c0.5,0,1-0.5,1-1v-16C361.5,209.5,361,209,360.5,209z"/>
<path class="st1" d="M360.5,184h-9c-0.5,0-1,0.5-1,1v16c0,0.5,0.5,1,1,1h9c0.5,0,1-0.5,1-1v-16C361.5,184.5,361,184,360.5,184z"/>
<path class="st1" d="M347.5,184h-9c-0.5,0-1,0.5-1,1v16c0,0.5,0.5,1,1,1h9c0.5,0,1-0.5,1-1v-16C348.5,184.5,348,184,347.5,184z"/>
<rect x="-506.1" y="38.9" class="st2" width="34.2" height="4.9"/>
<path class="st3" d="M177.7,135H175v-2.1c0-0.7-0.6-1.3-1.3-1.3h-6.8c-0.7,0-1.3,0.6-1.3,1.3v2.1h-3.1v-0.5c0-0.7-0.6-1.3-1.3-1.3
	h-14.6l-0.9-3c-0.3-0.9-0.8-1.6-1.6-2.1H163V71.2h-39.6h-17.6v-0.9c0-7.4-5.6-13.6-12.7-14.7c-2.6-0.9-5.7-1.5-9.5-1.5
	c-3.4,0-6.2,0.6-8.5,1.6c-7,1.2-12.4,7.3-12.4,14.6v21.5c0,7.6,5.8,13.9,13.1,14.7c-0.1,0.6-0.1,1.1-0.2,1.6
	c-0.1,0.7-0.2,1.4-0.3,1.9l-1.5,0.7l-3.3,5.3l-11.3,6.9l-4.4-3v-4c0.3-0.4,0.7-0.8,1-1.3c0,0,0,0,0,0c0.2-0.4,0.5-0.7,0.7-1.1
	c0,0,0-0.1,0-0.1c0.2-0.4,0.4-0.8,0.6-1.2c0-0.1,0.1-0.1,0.1-0.2c0.2-0.4,0.3-0.8,0.4-1.2c0-0.1,0.1-0.3,0.1-0.4
	c0.1-0.4,0.2-0.7,0.3-1.1c0-0.2,0.1-0.4,0.1-0.6c0-0.1,0-0.1,0-0.2l0,0.5c0,0,1.7,1.8,2.5-2.5c0.7-3.6,0.8-5.9,0-6.9
	c2-8.9-1-17.5-12.7-17.5c-10,0-14.1,8.3-12.2,17.3c-1,0.9-0.9,3.3-0.2,7.2c0.7,3.7,2.1,2.8,2.4,2.5c0.7,2.9,1.9,5.3,3.4,7v1.7v2.2
	l-10.7,7.3c-0.7,0.5-1.2,1.2-1.5,2l-3.1,9.8h21.2H48h5.4l0,0.1h30.4h21.8l-0.1,0.4h21h0.6h21.8l0,0h29V135z M75.2,110.2
	c-0.1,0.3-0.1,0.7-0.2,0.9l0,0L75.2,110.2z"/>
<path class="st4" d="M171.1,133.5h-7.4c-0.6,0-1-0.4-1-1v-2.7c0-0.5,0.4-1,1-1h7.4c0.6,0,1,0.5,1,1v2.7
	C172.1,133.1,171.7,133.5,171.1,133.5z"/>
<path class="st4" d="M158.6,136.6h-41.8c-0.6,0-1-0.4-1-1v-4.3c0-0.6,0.4-1,1-1h41.8c0.6,0,1,0.4,1,1v4.3
	C159.6,136.2,159.2,136.6,158.6,136.6z"/>
<rect x="128.6" y="132.2" class="st5" width="46.1" height="4.6"/>
<rect x="114.3" y="123.2" class="st6" width="12.5" height="7.4"/>
<rect x="81.1" y="68.4" class="st6" width="79" height="56.9"/>
<rect x="120.5" y="68.4" class="st7" width="39.6" height="56.9"/>
<rect x="83.9" y="71.3" class="st8" width="73.4" height="49.9"/>
<rect x="88.1" y="75.1" class="st9" width="65.3" height="3.9"/>
<rect x="88.1" y="82.8" class="st9" width="65.3" height="3.9"/>
<rect x="88.1" y="90.4" class="st9" width="64.8" height="3.9"/>
<rect x="88.1" y="98.1" class="st9" width="42.3" height="3.9"/>
<rect x="88.1" y="105.8" class="st9" width="42.3" height="3.9"/>
<rect x="88.1" y="113.5" class="st9" width="42.3" height="3.9"/>
<rect x="135.6" y="98.1" class="st9" width="17.3" height="19.3"/>
<rect x="108.5" y="128.9" class="st6" width="24.2" height="3.5"/>
<polygon class="st10" points="104.3,71.3 83.9,91.6 83.9,78.7 91.3,71.3 "/>
<polygon class="st10" points="157.3,96.3 157.3,107.8 143.9,121.2 132.4,121.2 "/>
<path class="st11" d="M35.1,106.3c0,0-1.7,1.8-2.5-2.5c-0.9-4.5-0.8-7,0.7-7.5c1-0.3,1.3,0.5,1.3,0.5L35.1,106.3z"/>
<path class="st11" d="M38.5,112.7v5.3c0,1.3,0.7,2.5,1.8,3.2c1.9,1.3,4.8,3.2,4.9,3.2c0.1,0,3-1.9,5-3.2c1.1-0.7,1.8-1.9,1.8-3.3
	v-5.6L38.5,112.7z"/>
<path class="st12" d="M38.5,115.1c1.8,2,4.1,3.1,6.6,3.1c2.6,0,5-1.2,6.8-3.4v-2.4l-13.4,0.3V115.1z"/>
<path class="st12" d="M45.1,116.5c6.1,0,10.8-6.4,10.8-17c0-13.2-3.9-16.3-10.8-16.3c-6.9,0-10.8,3.1-10.8,16.3
	C34.3,110.1,39,116.5,45.1,116.5z"/>
<path class="st11" d="M55.2,106.3c0,0,1.7,1.8,2.5-2.5c0.9-4.5,0.8-7-0.7-7.5c-1-0.3-1.3,0.5-1.3,0.5L55.2,106.3z"/>
<path class="st11" d="M45.2,83.3v33.3c6-0.1,10.7-6.5,10.7-17C55.9,86.4,52,83.3,45.2,83.3z"/>
<path class="st13" d="M45,79.4c-11.7,0-15.3,11.3-10.8,21.7h1.3c0,0-1-8,3.2-12.8c0,0-1.5,7.3,6.5,7.3c0,0-5-4.7-2.2-7.4
	c0,0,1.6,6.6,8.9,6.6c0,0-2.5-2.1-1.5-6c0,0,5,7.5,4.8,12.3h1.2C60.4,91,58.5,79.4,45,79.4z"/>
<path class="st14" d="M64,126.6c-0.3-0.8-0.8-1.5-1.5-2l-10.7-7.3c0,0-1.5,5.3-6.7,5.3c-5.1,0-6.7-5.3-6.7-5.3l-10.7,7.3
	c-0.7,0.5-1.2,1.2-1.5,2l-3.1,9.8h21.2h0.6h22L64,126.6z"/>
<path class="st15" d="M124,83.5c2-2.4,17.1,0.3,15.4,18.6c-0.6,7.1-8.6,10.3-8.6,10.3H124V83.5z"/>
<path class="st15" d="M136,87.8c1.3-3.8,13.6-4.9,13.6,9.8c0,5.5-2.9,6.7-2.9,11.9c0,5.2,4.3,5.7,5.4,4.4c0,0-10.5,10.5-16.5-4.5
	L136,87.8z"/>
<path class="st15" d="M112,87.8c-1.3-3.8-13.6-4.9-13.6,9.8c0,5.5,2.9,6.7,2.9,11.9c0,5.2-4.3,5.7-5.4,4.4c0,0,10.5,10.5,16.5-4.5
	L112,87.8z"/>
<path class="st16" d="M124,126.8l6.5-5.1c0,0-0.9-1.2-1.3-5.1H124l0,0h-5.1c-0.4,3.9-1.3,5.1-1.3,5.1L124,126.8L124,126.8L124,126.8
	L124,126.8L124,126.8z"/>
<path class="st17" d="M129.1,116.5H124l0,0h-5.1c0,0.4-0.1,0.8-0.1,1.1c1.5,1.2,3.3,1.9,5.3,1.9c1.9,0,3.7-0.7,5.3-1.9
	C129.2,117.3,129.2,116.9,129.1,116.5z"/>
<path class="st15" d="M124.1,83.5c-2-2.4-17.1,0.3-15.4,18.6c0.6,7.1,8.6,10.3,8.6,10.3h6.8V83.5z"/>
<path class="st17" d="M124,118.3c6,0,10.7-6.3,10.7-16.8c0-13.1-3.8-16.1-10.7-16.1c-6.8,0-10.7,3-10.7,16.1
	C113.4,112,118,118.3,124,118.3z"/>
<path class="st16" d="M124.1,85.4v32.9c6-0.1,10.5-6.4,10.5-16.8C134.7,88.5,130.9,85.5,124.1,85.4z"/>
<path class="st16" d="M114.2,108.2c0,0-1.6,1.8-2.4-2.4c-0.9-4.5-0.8-6.9,0.7-7.4c1-0.3,1.3,0.5,1.3,0.5L114.2,108.2z"/>
<path class="st16" d="M134,108.2c0,0,1.6,1.8,2.4-2.4c0.9-4.5,0.8-6.9-0.7-7.4c-1-0.3-1.3,0.5-1.3,0.5L134,108.2z"/>
<path class="st15" d="M124,91.5c-3,0-6-2.3-7.5-1.6c-1.5,0.8-3.1,2-2.7,12.9c0,0-6.8-8.9,1.7-15.4c2.4-1.8,7.2-3,8.5-3l0,0L124,91.5
	z"/>
<path class="st15" d="M124.1,91.5c3,0,6-2.3,7.5-1.6c1.5,0.8,3.1,2,2.7,12.9c0,0,6.8-8.9-1.7-15.4c-2.4-1.8-7.2-3-8.5-3l0,0
	L124.1,91.5z"/>
<path class="st18" d="M142.8,127.4c-0.3-0.9-0.9-1.7-1.8-2.2l-11.6-6.4c0,0-0.2,4.4-5.3,4.4c-5.1,0-5.6-4.4-5.6-4.4l-11.3,6.4
	c-0.8,0.5-1.5,1.3-1.8,2.2l-3,9.5h21h0.6h21.8L142.8,127.4z"/>
<path class="st19" d="M91.1,104H71.5c-6.5,0-11.7-5.3-11.7-11.7V64.5c0-6.5,5.3-11.7,11.7-11.7h19.6c6.5,0,11.7,5.3,11.7,11.7v27.7
	C102.9,98.7,97.6,104,91.1,104z"/>
<path class="st20" d="M80.8,119.5l10-7.9c0,0-1.4-1.9-2-7.9h-7.9l0,0h-7.9c-0.6,6-2,7.9-2,7.9L80.8,119.5L80.8,119.5L80.8,119.5
	L80.8,119.5L80.8,119.5z"/>
<path class="st21" d="M88.7,103.7h-7.9l0,0h-7.9c-0.1,0.6-0.1,1.2-0.2,1.7c2.4,1.9,5.1,2.9,8.1,2.9c3,0,5.8-1,8.1-2.9
	C88.9,104.9,88.8,104.3,88.7,103.7z"/>
<path class="st20" d="M65.6,90.8c0,0-2.5,2.7-3.8-3.7c-1.3-6.9-1.3-10.7,1.1-11.4c1.5-0.5,2,0.8,2,0.8L65.6,90.8z"/>
<path class="st21" d="M80.8,106.4c9.3,0,16.5-9.8,16.5-25.9c0-20.2-5.9-24.9-16.5-24.9c-10.6,0-16.5,4.7-16.5,24.9
	C64.4,96.7,71.5,106.4,80.8,106.4z"/>
<path class="st20" d="M96.3,90.8c0,0,2.5,2.7,3.8-3.7c1.3-6.9,1.3-10.7-1.1-11.4c-1.5-0.5-1.9,0.8-1.9,0.8L96.3,90.8z"/>
<path class="st20" d="M81,55.6v50.8c9.2-0.1,16.3-9.9,16.3-25.9C97.3,60.4,91.5,55.7,81,55.6z"/>
<path class="st19" d="M80.7,51.3c-18.8,0-20.2,18.4-19.4,25.1c0.4,3.3,3,6.5,3,6.5s0.7-9,6.5-11.5c5.8-2.6,14.3-1.2,18.5-7.4
	c4.8,7.4,7,10.5,7.9,18.9C102.6,77.3,106.9,51.5,80.7,51.3z"/>
<polygon class="st22" points="80.8,115.2 67.6,113.4 80.8,136.5 94.1,113.4 "/>
<polygon class="st23" points="72.4,107.3 70.9,108.1 67.6,113.4 77.4,126 80.8,115.2 72.1,108.3 "/>
<polygon class="st23" points="89.3,107.3 90.8,108.1 94.1,113.4 84.3,126 80.8,115.2 89.5,108.3 "/>
<path class="st2" d="M67.6,113.4l-11.4,6.9c-1.3,0.8-2.3,2.1-2.7,3.7l-3,12.5h30.4L67.6,113.4z"/>
<path class="st2" d="M94.1,113.4l11.4,6.9c1.3,0.8,2.3,2.1,2.7,3.7l3,12.5H80.8L94.1,113.4z"/>
</svg>
