<?xml version="1.0" encoding="utf-8"?>
<!-- Generator: Adobe Illustrator 21.1.0, SVG Export Plug-In . SVG Version: 6.00 Build 0)  -->
<svg version="1.1" id="Layer_1" xmlns="http://www.w3.org/2000/svg" xmlns:xlink="http://www.w3.org/1999/xlink" x="0px" y="0px"
	 viewBox="0 0 744 627.9" style="enable-background:new 0 0 744 627.9;" xml:space="preserve">
<style type="text/css">
	.st0{opacity:0.1;}
	.st1{fill:#F7EF61;}
	.st2{opacity:0.25;}
	.st3{stroke:#000000;stroke-width:3.767;stroke-miterlimit:10;}
	.st4{fill:#4492CE;stroke:#4492CE;stroke-width:3.767;stroke-miterlimit:10;}
	.st5{fill:#38AC4A;}
	.st6{fill:#26A9E0;}
	.st7{fill:#F05A28;}
	.st8{fill:#29B473;}
	.st9{fill:#EC1C24;}
</style>
<g>
	<g class="st0">
		<g id="layer1">
			<path id="path2182" d="M539.7,514.2l-6.3,50.1l-49.1-15.2l-18.8,47l-43.7-26.7l-30.2,40.9L356,573.8l-39.6,32.3l-25.2-44
				l-46.6,21.6l-13.2-48.8l-50.6,9.6l-0.4-50.5l-51.4-3l12.4-49l-49.1-15.4l24.5-44.4l-43.6-26.9l35-37.1l-35.4-36.7l43.3-27.4
				L91,210l48.9-16l-13-48.8l51.4-3.6l-0.2-50.5l50.7,9.1l12.7-48.9l46.8,21.1L313,28.1l40,31.8L388.1,23l30.6,40.6l43.4-27.2
				l19.4,46.8l49-15.8l6.9,50l51.4-3.3l-6,50.1l50.7,9.3l-18.6,47.1l46.7,21.3l-30,41.1l39.8,32L632,347.6l30.4,40.7l-46.5,21.9
				l19.1,46.9l-50.5,9.9l6.6,50L539.7,514.2z"/>
		</g>
	</g>
	<g>
		<g id="layer1_1_">
			<path id="path2182_1_" class="st1" d="M541.3,501.4l-6.3,50.1l-49.1-15.2l-18.8,47l-43.7-26.7l-30.2,40.9L357.5,561l-39.6,32.3
				l-25.2-44l-46.6,21.6l-13.2-48.8l-50.6,9.6l-0.4-50.5l-51.4-3l12.4-49l-49.1-15.4l24.5-44.4l-43.6-26.9l35-37.1l-35.4-36.7
				l43.3-27.4l-25-44.1l48.9-16l-13-48.8l51.4-3.6l-0.2-50.5l50.7,9.1l12.7-48.9l46.8,21.1l24.7-44.3l40,31.8l35.2-36.9l30.6,40.6
				l43.4-27.2l19.4,46.8l49-15.8l6.9,50l51.4-3.3l-6,50.1l50.7,9.3l-18.6,47.1l46.7,21.3l-30,41.1l39.8,32l-39.4,32.5l30.4,40.7
				l-46.5,21.9l19.1,46.9l-50.5,9.9l6.6,50L541.3,501.4z"/>
		</g>
	</g>
</g>
<g>
	<path d="M257.2,465.2c0.9,0,1.7-0.1,2.5-0.4s1.5-0.7,2.1-1.2s1.1-1.1,1.5-1.8c0.4-0.7,0.6-1.4,0.7-2.3h4.7
		c-0.1,1.3-0.4,2.5-1.1,3.7s-1.5,2.2-2.5,3.1s-2.3,1.6-3.6,2.1c-1.4,0.5-2.8,0.8-4.4,0.8c-2.2,0-4.1-0.4-5.7-1.2
		c-1.6-0.8-3-1.8-4.1-3.2c-1.1-1.3-1.9-2.9-2.4-4.6c-0.5-1.8-0.8-3.6-0.8-5.6v-1.1c0-2,0.3-3.8,0.8-5.6c0.5-1.8,1.3-3.3,2.4-4.6
		c1.1-1.3,2.4-2.4,4-3.2c1.6-0.8,3.5-1.2,5.7-1.2c1.7,0,3.3,0.3,4.7,0.8c1.4,0.5,2.6,1.3,3.6,2.2c1,0.9,1.8,2.1,2.4,3.4
		s0.9,2.7,1,4.2H264c-0.1-0.9-0.3-1.7-0.6-2.5c-0.4-0.8-0.8-1.5-1.4-2.1s-1.3-1-2.1-1.4c-0.8-0.3-1.7-0.5-2.7-0.5
		c-1.5,0-2.8,0.3-3.8,0.9s-1.8,1.4-2.5,2.4c-0.6,1-1.1,2.1-1.3,3.4c-0.3,1.2-0.4,2.5-0.4,3.8v1.1c0,1.3,0.1,2.6,0.4,3.8
		c0.3,1.2,0.7,2.4,1.3,3.4s1.4,1.8,2.5,2.4C254.3,464.9,255.6,465.2,257.2,465.2z"/>
	<path d="M292.4,465.8c-0.9,1.1-2.1,1.9-3.5,2.5s-3.1,0.9-5.1,0.9c-1.4,0-2.7-0.2-3.9-0.6c-1.2-0.4-2.2-1-3-1.9s-1.5-2-2-3.4
		s-0.7-3-0.7-5v-18.9h5v18.9c0,1.3,0.2,2.4,0.5,3.3s0.7,1.5,1.2,2s1.1,0.8,1.7,1s1.3,0.3,2,0.3c2,0,3.7-0.4,4.9-1.2
		c1.2-0.8,2.1-1.8,2.7-3.1v-21.2h5v29.2h-4.7L292.4,465.8z"/>
	<path d="M319,444c-0.4-0.1-0.8-0.1-1.2-0.1c-0.4,0-0.8,0-1.3,0c-1.7,0-3.1,0.4-4.2,1.1c-1.1,0.8-1.9,1.8-2.4,3v20.7h-5v-29.2h4.9
		l0.1,3.4c0.8-1.2,1.7-2.2,2.8-2.9c1.1-0.7,2.5-1.1,4.1-1.1c0.4,0,0.8,0,1.2,0.1c0.5,0.1,0.8,0.2,1,0.3V444z"/>
	<path d="M337.7,444c-0.4-0.1-0.8-0.1-1.2-0.1c-0.4,0-0.8,0-1.3,0c-1.7,0-3.1,0.4-4.2,1.1c-1.1,0.8-1.9,1.8-2.4,3v20.7h-5v-29.2h4.9
		l0.1,3.4c0.8-1.2,1.7-2.2,2.8-2.9c1.1-0.7,2.5-1.1,4.1-1.1c0.4,0,0.8,0,1.2,0.1c0.5,0.1,0.8,0.2,1,0.3V444z"/>
	<path d="M342.3,431.8c0-0.8,0.2-1.5,0.7-2.1s1.2-0.8,2.2-0.8s1.7,0.3,2.2,0.8c0.5,0.6,0.8,1.2,0.8,2.1c0,0.8-0.3,1.5-0.8,2
		s-1.2,0.8-2.2,0.8s-1.7-0.3-2.2-0.8S342.3,432.6,342.3,431.8z M347.7,468.7h-5v-29.2h5V468.7z"/>
	<path d="M367.4,465.2c0.9,0,1.7-0.1,2.5-0.4s1.5-0.7,2.1-1.2s1.1-1.1,1.5-1.8c0.4-0.7,0.6-1.4,0.7-2.3h4.7
		c-0.1,1.3-0.4,2.5-1.1,3.7c-0.6,1.2-1.5,2.2-2.5,3.1s-2.3,1.6-3.6,2.1c-1.4,0.5-2.8,0.8-4.4,0.8c-2.2,0-4.1-0.4-5.7-1.2
		c-1.6-0.8-3-1.8-4.1-3.2c-1.1-1.3-1.9-2.9-2.4-4.6c-0.5-1.8-0.8-3.6-0.8-5.6v-1.1c0-2,0.3-3.8,0.8-5.6c0.5-1.8,1.3-3.3,2.4-4.6
		c1.1-1.3,2.4-2.4,4-3.2c1.6-0.8,3.5-1.2,5.7-1.2c1.7,0,3.3,0.3,4.7,0.8c1.4,0.5,2.6,1.3,3.6,2.2c1,0.9,1.8,2.1,2.4,3.4
		s0.9,2.7,1,4.2h-4.7c-0.1-0.9-0.3-1.7-0.6-2.5c-0.4-0.8-0.8-1.5-1.4-2.1s-1.3-1-2.1-1.4c-0.8-0.3-1.7-0.5-2.7-0.5
		c-1.5,0-2.8,0.3-3.8,0.9s-1.8,1.4-2.5,2.4c-0.6,1-1.1,2.1-1.3,3.4c-0.3,1.2-0.4,2.5-0.4,3.8v1.1c0,1.3,0.1,2.6,0.4,3.8
		c0.3,1.2,0.7,2.4,1.3,3.4c0.6,1,1.4,1.8,2.5,2.4C364.5,464.9,365.8,465.2,367.4,465.2z"/>
	<path d="M402.6,465.8c-0.9,1.1-2.1,1.9-3.5,2.5s-3.1,0.9-5.1,0.9c-1.4,0-2.7-0.2-3.9-0.6c-1.2-0.4-2.2-1-3-1.9s-1.5-2-2-3.4
		s-0.7-3-0.7-5v-18.9h5v18.9c0,1.3,0.2,2.4,0.5,3.3s0.7,1.5,1.2,2s1.1,0.8,1.7,1s1.3,0.3,2,0.3c2,0,3.7-0.4,4.9-1.2
		c1.2-0.8,2.1-1.8,2.7-3.1v-21.2h5v29.2h-4.7L402.6,465.8z"/>
	<path d="M420.5,468.7h-5v-41.4h5V468.7z"/>
	<path d="M446.5,465.8c-0.9,1.1-2.1,1.9-3.5,2.5s-3.1,0.9-5.1,0.9c-1.4,0-2.7-0.2-3.9-0.6c-1.2-0.4-2.2-1-3-1.9s-1.5-2-2-3.4
		s-0.7-3-0.7-5v-18.9h5v18.9c0,1.3,0.2,2.4,0.5,3.3s0.7,1.5,1.2,2s1.1,0.8,1.7,1s1.3,0.3,2,0.3c2,0,3.7-0.4,4.9-1.2
		c1.2-0.8,2.1-1.8,2.7-3.1v-21.2h5v29.2h-4.7L446.5,465.8z"/>
	<path d="M463.6,439.5l0.1,3.2c1-1.2,2.2-2.1,3.7-2.8c1.4-0.7,3.1-1,5-1s3.6,0.4,5,1.1s2.6,1.9,3.3,3.6c1-1.4,2.2-2.5,3.8-3.4
		c1.6-0.9,3.4-1.3,5.5-1.3c1.6,0,2.9,0.2,4.2,0.6c1.2,0.4,2.2,1,3.1,1.9c0.8,0.9,1.5,2,1.9,3.3s0.6,2.9,0.6,4.7v19.2h-5v-19.2
		c0-1.2-0.1-2.2-0.4-3s-0.7-1.5-1.3-1.9c-0.5-0.5-1.2-0.8-2-1s-1.6-0.3-2.6-0.3s-1.9,0.2-2.7,0.5c-0.8,0.3-1.5,0.8-2,1.3
		c-0.6,0.5-1,1.2-1.3,1.9c-0.3,0.7-0.5,1.5-0.6,2.4v19.4h-5v-19.2c0-1.1-0.1-2.1-0.4-2.9s-0.7-1.5-1.3-2c-0.5-0.5-1.2-0.9-2-1.1
		s-1.6-0.4-2.6-0.4c-1.8,0-3.2,0.4-4.3,1.2c-1.1,0.8-1.9,1.8-2.4,3v21.3h-5v-29.2L463.6,439.5L463.6,439.5z"/>
</g>
<g>
	<g>
		<g class="st2">
			<g>
				<path class="st3" d="M287.8,237.5v-6.2h36.6v6.2h-14.9v57.3h-6.8v-57.3L287.8,237.5L287.8,237.5z"/>
				<path class="st3" d="M328.6,247.8h6.7l17,36.1l16.5-36.1h6.8l-29.5,64.1h-6.7l9.5-20.7L328.6,247.8z"/>
				<path class="st3" d="M384.8,247.8h6.4v8.6c2.5-3.3,5.4-5.7,8.7-7.4c3.3-1.6,6.9-2.5,10.9-2.5c7,0,13,2.4,18,7.2
					c5,4.8,7.5,10.6,7.5,17.3c0,6.9-2.5,12.8-7.4,17.6c-4.9,4.8-10.9,7.2-17.9,7.2c-3.9,0-7.5-0.8-10.8-2.3
					c-3.3-1.6-6.3-3.9-8.9-6.9v25.2h-6.4v-64H384.8z M410.3,252.4c-5.5,0-10.1,1.8-13.9,5.5c-3.8,3.6-5.6,8.2-5.6,13.6
					c0,3.6,0.8,6.8,2.5,9.6c1.7,2.8,4.1,5.1,7.2,6.8c3.1,1.7,6.4,2.5,9.9,2.5c3.4,0,6.6-0.8,9.6-2.5s5.4-4,7.2-7
					c1.8-3,2.7-6.2,2.7-9.5s-0.9-6.5-2.7-9.5c-1.8-3-4.1-5.3-7.1-7C417.1,253.2,413.8,252.4,410.3,252.4z"/>
				<path class="st3" d="M457.4,286.8c3.8,3.3,8.4,5,13.7,5c5.7,0,10.6-1.9,14.6-5.7c0.5-0.5,1-1,1.5-1.5l4.3,1.5
					c-0.8,1-1.7,2-2.7,3c-4.9,4.6-10.8,6.9-17.7,6.9c-6.9,0-12.8-2.3-17.6-6.9c-4.9-4.6-7.3-10.2-7.3-16.8c0-6.5,2.4-12.1,7.3-16.7
					c4.9-4.6,10.8-6.9,17.6-6.9c5.9,0,11.1,1.7,15.5,5c0.7,0.6,1.5,1.2,2.2,1.9c0.3,0.3,0.5,0.5,0.8,0.8l-3.1,2.9L457.4,286.8z
					 M483.4,256.6c-3.5-2.6-7.7-3.9-12.4-3.9c-5.7,0-10.5,1.9-14.5,5.7c-4,3.8-6,8.4-6,13.8c0,4.5,1.4,8.4,4.1,11.7L483.4,256.6z"/>
				<path class="st3" d="M534.4,252.9l-4.1,4c-3.4-3.1-6.7-4.7-10-4.7c-2.1,0-3.8,0.6-5.3,1.9c-1.5,1.3-2.2,2.8-2.2,4.5
					c0,1.5,0.6,3,1.8,4.4c1.2,1.4,3.8,3.1,7.6,5c4.7,2.3,8,4.6,9.7,6.7c1.7,2.2,2.5,4.6,2.5,7.4c0,3.9-1.4,7.1-4.3,9.8
					c-2.9,2.7-6.4,4-10.7,4c-2.9,0-5.6-0.6-8.2-1.8c-2.6-1.2-4.7-2.8-6.4-4.9l4-4.3c3.2,3.5,6.7,5.2,10.3,5.2c2.5,0,4.7-0.8,6.5-2.3
					c1.8-1.6,2.7-3.4,2.7-5.5c0-1.7-0.6-3.3-1.8-4.6c-1.2-1.3-3.9-3-8-5c-4.5-2.2-7.5-4.3-9.1-6.5c-1.6-2.1-2.4-4.6-2.4-7.3
					c0-3.6,1.3-6.5,3.8-8.9c2.6-2.4,5.8-3.5,9.7-3.5C525.2,246.6,529.8,248.7,534.4,252.9z"/>
				<path class="st3" d="M545,247.8h6.7l17,36.1l16.5-36.1h6.8l-29.5,64.1h-6.7l9.5-20.7L545,247.8z"/>
			</g>
			<g>
				<path d="M231.2,229.3l-7.4-12.5c-0.9-1.6-0.2-3.7,1.5-4.7l6-3.6c-15.9-7-34.8-6.5-50.8,3.1c-16.1,9.5-25.6,25.8-27.1,43.1l6-3.6
					c1.8-1,4-0.6,4.9,0.9l7.4,12.5c0.9,1.6,0.2,3.7-1.5,4.7l-14,8.3c1.2,3.6,2.8,7.1,4.8,10.4c6.6,11.2,16.6,19.2,27.8,23.6
					l-2.2-3.8c-1.1-1.8-0.5-4.1,1.3-5.1l69.1-40.9c1.8-1,4.1-0.4,5.1,1.4l2.2,3.7c1.6-11.9-0.7-24.5-7.3-35.7
					c-2-3.4-4.3-6.5-6.8-9.2l-14,8.3C234.3,231.3,232.1,230.9,231.2,229.3z M196.7,232.9c-0.9-1.6-0.2-3.7,1.5-4.7l15.4-9.1
					c1.8-1,4-0.6,4.9,0.9l7.4,12.5c0.9,1.6,0.2,3.7-1.5,4.7l-15.4,9.1c-1.8,1-4,0.6-4.9-0.9L196.7,232.9z M169.8,248.8
					c-0.9-1.6-0.2-3.7,1.5-4.7l15.4-9.1c1.8-1,4-0.6,4.9,0.9l7.4,12.5c0.9,1.6,0.2,3.7-1.5,4.7l-15.4,9.1c-1.8,1-4,0.6-4.9-0.9
					L169.8,248.8z M200.2,281c0.9,1.6,0.2,3.7-1.5,4.7l-15.4,9.1c-1.8,1-4,0.6-4.9-0.9l-7.4-12.5c-0.9-1.6-0.2-3.7,1.5-4.7l15.4-9.1
					c1.8-1,4-0.6,4.9,0.9L200.2,281z M226.6,265.3c0.9,1.6,0.2,3.7-1.5,4.7l-15.4,9.1c-1.8,1-4,0.6-4.9-0.9l-7.4-12.5
					c-0.9-1.6-0.2-3.7,1.5-4.7l15.4-9.1c1.8-1,4-0.6,4.9,0.9L226.6,265.3z M246.4,236.7l7.4,12.5c0.9,1.6,0.2,3.7-1.5,4.7l-15.4,9.1
					c-1.8,1-4,0.6-4.9-0.9l-7.4-12.5c-0.9-1.6-0.2-3.7,1.5-4.7l15.4-9.1C243.3,234.8,245.5,235.2,246.4,236.7z"/>
				<path d="M237.4,307.6c9.3-5.5,16.4-13.3,21-22.2l-50.6,29.9C217.9,315.6,228.1,313.1,237.4,307.6z"/>
			</g>
		</g>
		<g>
			<g>
				<path class="st4" d="M286.3,232.1v-6.2H323v6.2h-14.9v57.3h-6.8v-57.3L286.3,232.1L286.3,232.1z"/>
				<path class="st4" d="M327.2,242.4h6.7l17,36.1l16.5-36.1h6.8l-29.5,64.1H338l9.5-20.7L327.2,242.4z"/>
				<path class="st4" d="M383.4,242.4h6.4v8.6c2.5-3.3,5.4-5.7,8.7-7.4c3.3-1.6,6.9-2.5,10.9-2.5c7,0,13,2.4,18,7.2
					s7.5,10.6,7.5,17.3c0,6.9-2.5,12.8-7.4,17.6c-4.9,4.8-10.9,7.2-17.9,7.2c-3.9,0-7.5-0.8-10.8-2.3c-3.3-1.6-6.3-3.9-8.9-6.9v25.2
					h-6.4v-64H383.4z M408.8,247c-5.5,0-10.1,1.8-13.9,5.5c-3.8,3.6-5.6,8.2-5.6,13.6c0,3.6,0.8,6.8,2.5,9.6
					c1.7,2.8,4.1,5.1,7.2,6.8c3.1,1.7,6.4,2.5,9.9,2.5c3.4,0,6.6-0.8,9.6-2.5s5.4-4,7.2-7c1.8-3,2.7-6.2,2.7-9.5s-0.9-6.5-2.7-9.5
					c-1.8-3-4.1-5.3-7.1-7S412.4,247,408.8,247z"/>
				<path class="st4" d="M455.9,281.4c3.8,3.3,8.4,5,13.7,5c5.7,0,10.6-1.9,14.6-5.7c0.5-0.5,1-1,1.5-1.5l4.3,1.5
					c-0.8,1-1.7,2-2.7,3c-4.9,4.6-10.8,6.9-17.7,6.9c-6.9,0-12.8-2.3-17.6-6.9c-4.9-4.6-7.3-10.2-7.3-16.8c0-6.5,2.4-12.1,7.3-16.7
					c4.9-4.6,10.8-6.9,17.6-6.9c5.9,0,11.1,1.7,15.5,5c0.7,0.6,1.5,1.2,2.2,1.9c0.3,0.3,0.5,0.5,0.8,0.8l-3.1,2.9L455.9,281.4z
					 M482,251.2c-3.5-2.6-7.7-3.9-12.4-3.9c-5.7,0-10.5,1.9-14.5,5.7c-4,3.8-6,8.4-6,13.8c0,4.5,1.4,8.4,4.1,11.7L482,251.2z"/>
				<path class="st4" d="M533,247.6l-4.1,4c-3.4-3.1-6.7-4.7-10-4.7c-2.1,0-3.8,0.6-5.3,1.9c-1.5,1.3-2.2,2.8-2.2,4.5
					c0,1.5,0.6,3,1.8,4.4c1.2,1.4,3.8,3.1,7.6,5c4.7,2.3,8,4.6,9.7,6.7c1.7,2.2,2.5,4.6,2.5,7.4c0,3.9-1.4,7.1-4.3,9.8
					c-2.9,2.7-6.4,4-10.7,4c-2.9,0-5.6-0.6-8.2-1.8c-2.6-1.2-4.7-2.8-6.4-4.9l4-4.3c3.2,3.5,6.7,5.2,10.3,5.2c2.5,0,4.7-0.8,6.5-2.3
					c1.8-1.6,2.7-3.4,2.7-5.5c0-1.7-0.6-3.3-1.8-4.6c-1.2-1.3-3.9-3-8-5c-4.5-2.2-7.5-4.3-9.1-6.5c-1.6-2.1-2.4-4.6-2.4-7.3
					c0-3.6,1.3-6.5,3.8-8.9c2.6-2.4,5.8-3.5,9.7-3.5C523.8,241.2,528.4,243.3,533,247.6z"/>
				<path class="st4" d="M543.6,242.4h6.7l17,36.1l16.5-36.1h6.8l-29.5,64.1h-6.7l9.5-20.7L543.6,242.4z"/>
			</g>
			<g>
				<path class="st5" d="M229.8,224l-7.4-12.5c-0.9-1.6-0.2-3.7,1.5-4.7l6-3.6c-15.9-7-34.8-6.5-50.8,3.1
					c-16.1,9.5-25.6,25.8-27.1,43.1l6-3.6c1.8-1,4-0.6,4.9,0.9l7.4,12.5c0.9,1.6,0.2,3.7-1.5,4.7l-14,8.3c1.2,3.6,2.8,7.1,4.8,10.4
					c6.6,11.2,16.6,19.2,27.8,23.6l-2.2-3.8c-1.1-1.8-0.5-4.1,1.3-5.1l69.1-40.9c1.8-1,4.1-0.4,5.1,1.4l2.2,3.7
					c1.6-11.9-0.7-24.5-7.3-35.7c-2-3.4-4.3-6.5-6.8-9.2l-14,8.3C232.9,225.9,230.7,225.5,229.8,224z M195.3,227.5
					c-0.9-1.6-0.2-3.7,1.5-4.7l15.4-9.1c1.8-1,4-0.6,4.9,0.9l7.4,12.5c0.9,1.6,0.2,3.7-1.5,4.7l-15.4,9.1c-1.8,1-4,0.6-4.9-0.9
					L195.3,227.5z M168.3,243.5c-0.9-1.6-0.2-3.7,1.5-4.7l15.4-9.1c1.8-1,4-0.6,4.9,0.9l7.4,12.5c0.9,1.6,0.2,3.7-1.5,4.7l-15.4,9.1
					c-1.8,1-4,0.6-4.9-0.9L168.3,243.5z M198.7,275.6c0.9,1.6,0.2,3.7-1.5,4.7l-15.4,9.1c-1.8,1-4,0.6-4.9-0.9l-7.4-12.5
					c-0.9-1.6-0.2-3.7,1.5-4.7l15.4-9.1c1.8-1,4-0.6,4.9,0.9L198.7,275.6z M225.2,259.9c0.9,1.6,0.2,3.7-1.5,4.7l-15.4,9.1
					c-1.8,1-4,0.6-4.9-0.9l-7.4-12.5c-0.9-1.6-0.2-3.7,1.5-4.7l15.4-9.1c1.8-1,4-0.6,4.9,0.9L225.2,259.9z M245,231.4l7.4,12.5
					c0.9,1.6,0.2,3.7-1.5,4.7l-15.4,9.1c-1.8,1-4,0.6-4.9-0.9l-7.4-12.5c-0.9-1.6-0.2-3.7,1.5-4.7l15.4-9.1
					C241.9,229.4,244,229.8,245,231.4z"/>
				<path class="st5" d="M235.9,302.2c9.3-5.5,16.4-13.3,21-22.2l-50.5,30C216.4,310.2,226.6,307.7,235.9,302.2z"/>
			</g>
		</g>
	</g>
	<g>
		<g class="st2">
			<g>
				<path d="M432.8,335.1v16.5l16.6-16.5h17.8l-18.4,18.3l18,29.7h-14.7l-12.4-20.5l-7,6.9V383h-12.4c0-10.7,0-26.7,0-48h12.5V335.1
					z"/>
				<path d="M476.9,335.1h0.3c2.7,0.1,4.5,1.3,5.6,3.6c0.5,1.2,0.6,2.5,0.4,4s-0.7,2.5-1.5,3.2c-0.6,0.8-1.6,1.3-3,1.7
					c-1.4,0.3-2.7,0.2-4-0.2c-2.4-0.9-3.7-2.7-3.9-5.3v-1.2C471.2,337.2,473.2,335.3,476.9,335.1z M470.8,352.7h12.4V383h-12.4
					V352.7z"/>
				<path d="M515.2,335.1h12.5c0,2.9,0,10.9,0,24s0,21.1,0,24h-12.5c0,0-0.1-0.1,0-0.3c0-0.1,0-0.2,0-0.3c-2.8,0.6-5.8,0.7-8.9,0.3
					c-3.1-0.4-5.5-1.2-7.3-2.5c-1-0.7-2-1.4-2.7-2.2c-0.8-0.7-1.5-1.6-2.2-2.6s-1.2-2.1-1.5-3.4s-0.5-2.7-0.5-4.3
					c0-1.6,0.2-3,0.5-4.3s0.8-2.4,1.5-3.4s1.4-1.9,2.1-2.6c0.8-0.7,1.7-1.5,2.8-2.2c1.7-1.2,4.2-2.1,7.3-2.5
					c3.1-0.4,6.1-0.3,8.9,0.3V335.1z M509.8,362.7c-1.6,0.1-2.9,0.6-3.7,1.5c-0.9,0.9-1.3,2.2-1.3,3.8c0.1,1.6,0.5,2.9,1.4,3.7
					c0.9,0.9,2.2,1.3,3.8,1.4c3.3-0.2,5-1.9,5.2-5.2C514.9,364.5,513.2,362.8,509.8,362.7C509.8,362.6,509.8,362.7,509.8,362.7
					L509.8,362.7z"/>
				<path d="M560.2,383h-11.4c-7.7-0.5-11.7-4.6-12.2-12.2v-0.3h12.5c0,0.4,0.1,0.7,0.2,1c0.1,0.3,0.3,0.5,0.4,0.7
					c0.2,0.2,0.4,0.3,0.7,0.4s0.6,0.2,0.9,0.3c0.3,0.1,0.7,0.1,1.1,0.1c0.4,0,0.8,0,1.1,0s0.7,0,1.2,0s0.9,0,1.2,0
					c1,0,1.7-0.1,2.2-0.3c0.5-0.2,0.9-0.5,1.2-1.1s0.3-1.2,0.2-1.9c-0.1-0.7-0.5-1.2-0.9-1.5c-0.5-0.2-1.1-0.3-1.8-0.4
					s-1.4-0.1-1.9-0.1c-0.6,0-1.3,0-2.3,0s-1.7,0-2,0c-1.6,0-3-0.1-4.2-0.2c-1.1-0.2-2.2-0.5-3.1-0.9c-2-1-3.6-2.4-4.7-4
					c-1.2-1.7-1.8-3.7-2-6.2V354c0.2-2.2,0.7-4,1.6-5.5c0.9-1.5,2.2-2.8,3.7-3.9c1-0.8,2.2-1.3,3.7-1.5c1.5-0.3,3.3-0.4,5.5-0.4
					c0.6,0,1.7,0,3.5-0.1c1.7,0,3.2-0.1,4.3,0c1.2,0,2.2,0.1,3.2,0.3c3.1,0.5,5.5,1.8,7.2,4c1.7,2.1,2.6,4.9,2.7,8.4h-12.5
					c0-0.5-0.1-0.8-0.2-1.2c-0.1-0.3-0.4-0.6-0.7-0.7c-0.3-0.2-0.6-0.3-1-0.4c-0.3-0.1-0.8-0.2-1.3-0.2s-1,0-1.3,0
					c-0.4,0-0.9,0-1.5,0s-1.1,0-1.4,0c-0.9,0-1.6,0.1-2.1,0.4s-0.8,0.7-1,1.4c-0.2,0.7-0.1,1.4,0.2,2s0.7,1,1.3,1.2
					c1,0.1,2.2,0.1,3.8,0.1c1.5,0,2.9,0,4,0.1c1.1,0,2.3,0.1,3.6,0.2c1.2,0.1,2.3,0.4,3.3,0.8s1.7,0.9,2.3,1.5c1.2,0.8,2.2,2,3,3.5
					s1.3,3.3,1.5,5.1c0.2,1.9,0,3.8-0.5,5.8C569.7,380,565.9,382.7,560.2,383z"/>
			</g>
		</g>
		<path class="st6" d="M430.8,330.9v16.5l16.6-16.5h17.8l-18.4,18.3l18,29.7h-14.7l-12.4-20.5l-7,6.9v13.6h-12.4c0-10.7,0-26.7,0-48
			H430.8z"/>
		<path class="st7" d="M474.8,330.9h0.3c2.7,0.1,4.5,1.3,5.6,3.6c0.5,1.2,0.6,2.5,0.4,4s-0.7,2.5-1.5,3.2c-0.6,0.8-1.6,1.3-3,1.7
			c-1.4,0.3-2.7,0.2-4-0.2c-2.4-0.9-3.7-2.7-3.9-5.3v-1.2C469.1,333,471.2,331.1,474.8,330.9z M468.7,348.5h12.4v30.4h-12.4V348.5z"
			/>
		<path class="st8" d="M513.2,330.9h12.5c0,2.9,0,10.9,0,24s0,21.1,0,24h-12.5c0,0-0.1-0.1,0-0.3c0-0.1,0-0.2,0-0.3
			c-2.8,0.6-5.8,0.7-8.9,0.3c-3.1-0.4-5.5-1.2-7.3-2.5c-1-0.7-2-1.4-2.7-2.2c-0.8-0.7-1.5-1.6-2.2-2.6s-1.2-2.1-1.5-3.4
			s-0.5-2.7-0.5-4.3c0-1.6,0.2-3,0.5-4.3s0.8-2.4,1.5-3.4s1.4-1.9,2.1-2.6c0.8-0.7,1.7-1.5,2.8-2.2c1.7-1.2,4.2-2.1,7.3-2.5
			c3.1-0.4,6.1-0.3,8.9,0.3V330.9z M507.7,358.5c-1.6,0.1-2.9,0.6-3.7,1.5c-0.9,0.9-1.3,2.2-1.3,3.8c0.1,1.6,0.5,2.9,1.4,3.7
			c0.9,0.9,2.2,1.3,3.8,1.4c3.3-0.2,5-1.9,5.2-5.2C512.8,360.3,511.1,358.6,507.7,358.5C507.8,358.5,507.8,358.5,507.7,358.5
			L507.7,358.5z"/>
		<path class="st9" d="M558.2,378.9h-11.4c-7.7-0.5-11.7-4.6-12.2-12.2v-0.3H547c0,0.4,0.1,0.7,0.2,1c0.1,0.3,0.3,0.5,0.4,0.7
			c0.2,0.2,0.4,0.3,0.7,0.4s0.6,0.2,0.9,0.3c0.3,0.1,0.7,0.1,1.1,0.1c0.4,0,0.8,0,1.1,0s0.7,0,1.2,0s0.9,0,1.2,0
			c1,0,1.7-0.1,2.2-0.3c0.5-0.2,0.9-0.5,1.2-1.1s0.3-1.2,0.2-1.9c-0.1-0.7-0.5-1.2-0.9-1.5c-0.5-0.2-1.1-0.3-1.8-0.4
			s-1.4-0.1-1.9-0.1c-0.6,0-1.3,0-2.3,0s-1.7,0-2,0c-1.6,0-3-0.1-4.2-0.2c-1.1-0.2-2.2-0.5-3.1-0.9c-2-1-3.6-2.4-4.7-4
			c-1.2-1.7-1.8-3.7-2-6.2v-2.4c0.2-2.2,0.7-4,1.6-5.5c0.9-1.5,2.2-2.8,3.7-3.9c1-0.8,2.2-1.3,3.7-1.5c1.5-0.3,3.3-0.4,5.5-0.4
			c0.6,0,1.7,0,3.5-0.1c1.7,0,3.2-0.1,4.3,0c1.2,0,2.2,0.1,3.2,0.3c3.1,0.5,5.5,1.8,7.2,4c1.7,2.1,2.6,4.9,2.7,8.4h-12.5
			c0-0.5-0.1-0.8-0.2-1.2c-0.1-0.3-0.4-0.6-0.7-0.7c-0.3-0.2-0.6-0.3-1-0.4c-0.3-0.1-0.8-0.2-1.3-0.2s-1,0-1.3,0c-0.4,0-0.9,0-1.5,0
			s-1.1,0-1.4,0c-0.9,0-1.6,0.1-2.1,0.4s-0.8,0.7-1,1.4c-0.2,0.7-0.1,1.4,0.2,2s0.7,1,1.3,1.2c1,0.1,2.2,0.1,3.8,0.1
			c1.5,0,2.9,0,4,0.1c1.1,0,2.3,0.1,3.6,0.2c1.2,0.1,2.3,0.4,3.3,0.8s1.7,0.9,2.3,1.5c1.2,0.8,2.2,2,3,3.5s1.3,3.3,1.5,5.1
			c0.2,1.9,0,3.8-0.5,5.8C567.6,375.8,563.9,378.6,558.2,378.9z"/>
	</g>
</g>
<g>
	<path d="M260.4,155h-4.7l-17.9-27.4V155h-4.7v-35.5h4.7l17.9,27.5v-27.5h4.7V155z"/>
	<path d="M266.9,141.5c0-1.9,0.3-3.7,0.8-5.3s1.4-3.1,2.4-4.3c1-1.2,2.3-2.1,3.8-2.8c1.5-0.7,3.1-1,5-1c1.9,0,3.6,0.3,5,1
		s2.8,1.6,3.8,2.8c1,1.2,1.8,2.6,2.4,4.3c0.6,1.6,0.8,3.4,0.8,5.3v0.5c0,1.9-0.3,3.7-0.8,5.3c-0.6,1.6-1.4,3.1-2.4,4.2
		c-1,1.2-2.3,2.1-3.8,2.8c-1.5,0.7-3.1,1-5,1s-3.5-0.3-5-1c-1.5-0.7-2.7-1.6-3.8-2.8c-1-1.2-1.8-2.6-2.4-4.2s-0.8-3.4-0.8-5.3V141.5
		z M271.4,142.1c0,1.3,0.2,2.6,0.5,3.7c0.3,1.2,0.8,2.2,1.4,3.1c0.6,0.9,1.4,1.6,2.3,2.1c0.9,0.5,2,0.8,3.3,0.8
		c1.2,0,2.3-0.3,3.3-0.8c0.9-0.5,1.7-1.2,2.3-2.1c0.6-0.9,1.1-1.9,1.4-3.1s0.5-2.4,0.5-3.7v-0.5c0-1.3-0.2-2.5-0.5-3.7
		c-0.3-1.2-0.8-2.2-1.4-3.1c-0.6-0.9-1.4-1.6-2.4-2.1c-0.9-0.5-2-0.8-3.3-0.8c-1.2,0-2.3,0.3-3.2,0.8c-0.9,0.5-1.7,1.2-2.3,2.1
		c-0.6,0.9-1.1,1.9-1.4,3.1c-0.3,1.2-0.5,2.4-0.5,3.7V142.1z"/>
	<path d="M320,148.8l5.1-20.2h4.5l-7.7,26.4h-3.7l-6.4-20l-6.3,20h-3.7l-7.7-26.4h4.5l5.2,19.8l6.2-19.8h3.6L320,148.8z"/>
	<path d="M346.6,121.6c0-0.7,0.2-1.4,0.7-1.9c0.4-0.5,1.1-0.8,2-0.8s1.5,0.3,2,0.8c0.5,0.5,0.7,1.1,0.7,1.9s-0.2,1.3-0.7,1.8
		c-0.5,0.5-1.1,0.7-2,0.7s-1.5-0.2-2-0.7C346.8,122.9,346.6,122.3,346.6,121.6z M351.4,155h-4.5v-26.4h4.5V155z"/>
	<path d="M362.9,128.6l0.1,3.3c0.9-1.2,2.1-2.1,3.4-2.8c1.3-0.7,2.8-1,4.5-1c1.3,0,2.4,0.2,3.5,0.5c1,0.4,1.9,0.9,2.7,1.7
		c0.7,0.8,1.3,1.8,1.7,3c0.4,1.2,0.6,2.7,0.6,4.4V155h-4.5v-17.4c0-1-0.1-1.9-0.3-2.6c-0.2-0.7-0.6-1.3-1-1.8c-0.4-0.5-1-0.8-1.7-1
		c-0.7-0.2-1.4-0.3-2.3-0.3c-1.5,0-2.8,0.4-3.9,1.2c-1.1,0.8-2,1.8-2.6,3.1V155h-4.5v-26.4H362.9z"/>
	<path d="M396.8,151.8c0.8,0,1.6-0.1,2.3-0.4c0.7-0.3,1.4-0.6,1.9-1.1c0.6-0.5,1-1,1.4-1.6c0.3-0.6,0.6-1.3,0.6-2h4.3
		c-0.1,1.2-0.4,2.3-1,3.4c-0.6,1.1-1.3,2-2.3,2.8c-0.9,0.8-2,1.4-3.3,1.9c-1.2,0.5-2.6,0.7-4,0.7c-2,0-3.7-0.4-5.2-1.1
		c-1.5-0.7-2.7-1.7-3.7-2.9c-1-1.2-1.7-2.6-2.2-4.2c-0.5-1.6-0.7-3.3-0.7-5.1v-1c0-1.8,0.2-3.5,0.7-5.1c0.5-1.6,1.2-3,2.2-4.2
		c1-1.2,2.2-2.2,3.7-2.9s3.2-1.1,5.2-1.1c1.5,0,3,0.2,4.2,0.7c1.3,0.5,2.4,1.2,3.3,2c0.9,0.9,1.6,1.9,2.2,3c0.5,1.2,0.8,2.4,0.9,3.8
		h-4.3c-0.1-0.8-0.3-1.6-0.6-2.3c-0.3-0.7-0.7-1.3-1.3-1.9c-0.5-0.5-1.2-0.9-1.9-1.3c-0.7-0.3-1.6-0.5-2.5-0.5
		c-1.4,0-2.6,0.3-3.5,0.8c-0.9,0.6-1.7,1.3-2.2,2.2c-0.6,0.9-1,1.9-1.2,3.1c-0.2,1.1-0.3,2.3-0.3,3.4v1c0,1.2,0.1,2.3,0.3,3.5
		c0.2,1.1,0.6,2.1,1.2,3c0.6,0.9,1.3,1.6,2.2,2.2C394.3,151.5,395.4,151.8,396.8,151.8z"/>
	<path d="M417.3,155h-4.5v-37.5h4.5V155z"/>
	<path d="M440.9,152.4c-0.8,1-1.9,1.7-3.1,2.3s-2.8,0.8-4.6,0.8c-1.3,0-2.5-0.2-3.5-0.5c-1.1-0.4-2-0.9-2.7-1.7
		c-0.8-0.8-1.4-1.8-1.8-3.1c-0.4-1.2-0.6-2.7-0.6-4.5v-17.1h4.5v17.1c0,1.2,0.1,2.2,0.4,2.9c0.3,0.8,0.6,1.4,1.1,1.8
		c0.5,0.4,1,0.8,1.6,0.9s1.2,0.3,1.8,0.3c1.8,0,3.3-0.3,4.4-1c1.1-0.7,1.9-1.6,2.5-2.8v-19.2h4.5V155H441L440.9,152.4z"/>
	<path d="M451,141.6c0-2,0.2-3.9,0.7-5.5c0.5-1.7,1.2-3.1,2.1-4.2c0.9-1.2,2-2.1,3.3-2.7c1.3-0.7,2.7-1,4.3-1c1.6,0,3,0.3,4.2,0.8
		c1.2,0.5,2.2,1.3,3.1,2.4v-13.8h4.5V155h-4.2l-0.2-2.8c-0.9,1.1-1.9,1.9-3.2,2.5c-1.2,0.6-2.7,0.9-4.4,0.9c-1.5,0-3-0.3-4.2-1
		c-1.3-0.7-2.4-1.6-3.3-2.8c-0.9-1.2-1.6-2.6-2.1-4.2c-0.5-1.6-0.7-3.4-0.7-5.4V141.6z M455.5,142.1c0,1.3,0.1,2.6,0.4,3.7
		c0.3,1.2,0.7,2.2,1.3,3c0.6,0.9,1.3,1.5,2.2,2.1c0.9,0.5,1.9,0.8,3.1,0.8c0.8,0,1.5-0.1,2.1-0.3c0.6-0.2,1.2-0.5,1.7-0.8
		c0.5-0.3,1-0.7,1.4-1.2c0.4-0.5,0.7-1,1-1.6v-12.1c-0.3-0.5-0.6-1-1-1.5c-0.4-0.5-0.8-0.9-1.4-1.2c-0.5-0.3-1.1-0.6-1.7-0.8
		c-0.6-0.2-1.3-0.3-2.1-0.3c-1.2,0-2.3,0.3-3.2,0.8c-0.9,0.5-1.6,1.2-2.2,2.1c-0.6,0.9-1,1.9-1.3,3.1c-0.3,1.2-0.4,2.4-0.4,3.7
		V142.1z"/>
	<path d="M491.3,155.5c-1.8,0-3.5-0.3-5-1c-1.5-0.6-2.8-1.5-3.8-2.6c-1.1-1.1-1.9-2.5-2.4-4c-0.6-1.6-0.9-3.3-0.9-5.1v-1
		c0-2.1,0.3-4.1,1-5.8c0.6-1.7,1.5-3.1,2.6-4.3c1.1-1.2,2.3-2,3.7-2.6c1.4-0.6,2.8-0.9,4.3-0.9c1.9,0,3.5,0.3,4.9,1s2.5,1.6,3.4,2.7
		c0.9,1.2,1.5,2.5,2,4.1c0.4,1.6,0.6,3.3,0.6,5.2v2h-17.9c0,1.2,0.2,2.4,0.6,3.4c0.4,1.1,0.9,2,1.6,2.8c0.7,0.8,1.5,1.4,2.4,1.9
		c1,0.5,2,0.7,3.2,0.7c1.6,0,2.9-0.3,4.1-1c1.1-0.7,2.1-1.5,2.9-2.6l2.8,2.1c-0.4,0.7-0.9,1.3-1.5,1.9c-0.6,0.6-1.3,1.2-2.1,1.6
		c-0.8,0.5-1.7,0.9-2.8,1.1C493.8,155.3,492.6,155.5,491.3,155.5z M490.7,131.8c-0.9,0-1.8,0.2-2.5,0.5c-0.8,0.3-1.4,0.8-2.1,1.5
		c-0.6,0.6-1.1,1.4-1.5,2.4c-0.4,0.9-0.7,2-0.8,3.2h13.2V139c0-0.9-0.2-1.7-0.4-2.6c-0.2-0.9-0.6-1.6-1.1-2.3
		c-0.5-0.7-1.1-1.2-1.9-1.7C492.8,132,491.9,131.8,490.7,131.8z"/>
	<path d="M522.2,148c0-0.5-0.1-0.9-0.2-1.4c-0.1-0.4-0.4-0.8-0.9-1.2c-0.4-0.4-1-0.7-1.8-1.1c-0.8-0.3-1.8-0.6-3.1-0.9
		c-1.5-0.3-2.8-0.7-4-1.1c-1.2-0.4-2.2-0.9-3-1.5c-0.8-0.6-1.5-1.3-1.9-2.1c-0.4-0.8-0.7-1.8-0.7-2.9c0-1,0.2-2,0.7-3
		c0.5-0.9,1.1-1.8,2-2.5c0.8-0.7,1.9-1.3,3.1-1.7c1.2-0.4,2.5-0.6,4-0.6c1.6,0,3,0.2,4.2,0.6c1.2,0.4,2.3,1,3.2,1.8
		c0.9,0.7,1.5,1.6,2,2.6c0.5,1,0.7,2.1,0.7,3.2h-4.5c0-0.5-0.1-1.1-0.4-1.6c-0.2-0.5-0.6-1-1.1-1.5c-0.5-0.4-1-0.8-1.7-1
		s-1.5-0.4-2.4-0.4c-0.9,0-1.7,0.1-2.4,0.3c-0.7,0.2-1.2,0.5-1.6,0.9c-0.4,0.4-0.7,0.8-0.9,1.2s-0.3,0.9-0.3,1.4s0.1,0.9,0.2,1.3
		c0.2,0.4,0.5,0.7,0.9,1.1c0.5,0.3,1.1,0.6,1.9,0.9c0.8,0.3,1.8,0.5,3.1,0.8c1.6,0.4,3,0.8,4.2,1.3c1.2,0.5,2.2,1,3,1.6
		c0.8,0.6,1.4,1.3,1.7,2.2c0.4,0.8,0.6,1.8,0.6,2.8c0,1.2-0.2,2.2-0.7,3.2c-0.5,1-1.2,1.8-2.1,2.5c-0.9,0.7-2,1.2-3.2,1.6
		c-1.3,0.4-2.6,0.6-4.2,0.6c-1.8,0-3.3-0.2-4.7-0.7c-1.3-0.5-2.5-1.1-3.4-1.9c-0.9-0.8-1.6-1.7-2.1-2.8c-0.5-1-0.7-2.1-0.7-3.2h4.5
		c0,0.9,0.3,1.7,0.7,2.3c0.4,0.6,0.9,1.1,1.5,1.5c0.6,0.4,1.3,0.7,2,0.8c0.7,0.2,1.4,0.2,2.1,0.2c0.9,0,1.7-0.1,2.4-0.3
		c0.7-0.2,1.3-0.5,1.8-0.8c0.5-0.3,0.8-0.7,1.1-1.2S522.2,148.5,522.2,148z"/>
</g>
</svg>
