<?xml version="1.0" encoding="utf-8"?>
<!-- Generator: Adobe Illustrator 21.1.0, SVG Export Plug-In . SVG Version: 6.00 Build 0)  -->
<svg version="1.1" id="Layer_1" xmlns="http://www.w3.org/2000/svg" xmlns:xlink="http://www.w3.org/1999/xlink" x="0px" y="0px"
	 viewBox="0 0 200 200" style="enable-background:new 0 0 200 200;" xml:space="preserve">
<style type="text/css">
	.st0{fill:#07519C;}
</style>
<path class="st0" d="M100,4C47,4,4,47,4,100s43,96,96,96s96-43,96-96S153,4,100,4z M126.1,143.1c-7.1,6.7-16.2,10.1-27.2,10.1
	c-10.4,0-19-3.2-25.6-9.5c-6.6-6.3-10.2-14.9-10.8-25.8h20.3c0.9,5.6,2.8,9.7,5.8,12.4c3,2.7,6.8,4.1,11.4,4.1
	c4.8,0,8.8-1.5,11.9-4.6s4.7-6.8,4.7-11.3c0-4.9-2.1-9-6.4-12.4s-10.4-5.1-18.4-5.2V83.3c4.9-0.4,8.6-1.2,11-2.3
	c2.4-1.1,4.3-2.7,5.6-4.7c1.3-2,2-4.1,2-6.4c0-2.9-1-5.4-3.1-7.3c-2.1-1.9-4.7-2.9-8.1-2.9c-2.9,0-5.6,0.9-8,2.7
	c-2.4,1.8-4,4.1-4.9,6.9H66.8c1-8,3.9-14.4,8.6-19.2C81.9,43.4,90.1,40,100,40c8.8,0,16.2,2.8,22.2,8.4c6,5.6,9,12.3,9,20
	c0,4.8-1.3,9.2-3.9,13.1c-2.6,4-6.4,7.2-11.4,9.6c6.5,2,11.7,5.4,15.3,10.2c3.7,4.9,5.5,10.6,5.5,17.2
	C136.8,128.2,133.2,136.4,126.1,143.1z"/>
</svg>
