<?xml version="1.0" encoding="utf-8"?>
<!-- Generator: Adobe Illustrator 21.1.0, SVG Export Plug-In . SVG Version: 6.00 Build 0)  -->
<svg version="1.1" id="Layer_1" xmlns="http://www.w3.org/2000/svg" xmlns:xlink="http://www.w3.org/1999/xlink" x="0px" y="0px"
	 viewBox="0 0 200 200" style="enable-background:new 0 0 200 200;" xml:space="preserve">
<style type="text/css">
	.st0{fill:#07519C;}
</style>
<path class="st0" d="M100,4C47,4,4,47,4,100s43,96,96,96s96-43,96-96S153,4,100,4z M135.9,146.8H61.2V137l33.3-34
	c8.1-8.2,13.4-14.7,16.1-19.7c2.7-5,4-9.4,4-13.4c0-4.1-1.4-7.6-4.1-10.3c-2.8-2.7-6.3-4.1-10.7-4.1c-4.4,0-8.1,1.6-11,4.9
	c-2.9,3.3-4.5,7.7-4.7,13.3h-20c0.5-11.6,4.2-20.8,10.9-27.4c6.8-6.7,15.4-10,26-10c6.5,0,12.3,1.4,17.3,4.1c5,2.8,9,6.7,12,11.9
	c3,5.2,4.5,10.5,4.5,15.9c0,6.4-1.8,13.3-5.5,20.7c-3.6,7.4-10.3,16.1-20,26.1l-12.1,12.7h38.4V146.8z"/>
</svg>
