<?xml version="1.0" encoding="utf-8"?>
<!-- Generator: Adobe Illustrator 21.1.0, SVG Export Plug-In . SVG Version: 6.00 Build 0)  -->
<svg version="1.1" id="Layer_1" xmlns="http://www.w3.org/2000/svg" xmlns:xlink="http://www.w3.org/1999/xlink" x="0px" y="0px"
	 viewBox="0 0 200 125" style="enable-background:new 0 0 200 125;" xml:space="preserve">
<style type="text/css">
	.st0{fill:none;}
	.st1{fill:#006478;}
	.st2{fill:#666666;}
	.st3{fill:#104F68;}
	.st4{fill:#646464;}
	.st5{fill:#6E6E6E;}
	.st6{fill:#B3B3B3;}
	.st7{fill:#999999;}
	.st8{opacity:0.3;fill:#FFFFFF;enable-background:new    ;}
	.st9{fill:#CCAE9A;}
	.st10{fill:#C1A18B;}
	.st11{fill:#662E05;}
	.st12{fill:#56AACC;}
	.st13{fill:#300F03;}
	.st14{fill:#BC9B84;}
	.st15{fill:#B29079;}
	.st16{fill:#1B91CC;}
	.st17{fill:#1C1A1A;}
	.st18{fill:#A37F66;}
	.st19{fill:#9B7861;}
	.st20{fill:#E6E6E6;}
	.st21{fill:#F0F0F0;}
</style>
<path class="st0" d="M256.5,150.4h-9c-0.5,0-1,0.5-1,1v16c0,0.5,0.5,1,1,1h9c0.5,0,1-0.5,1-1v-16C257.5,150.9,257,150.4,256.5,150.4
	z"/>
<path class="st0" d="M269.5,175.4h-9c-0.5,0-1,0.5-1,1v16c0,0.5,0.5,1,1,1h9c0.5,0,1-0.5,1-1v-16C270.5,175.9,270,175.4,269.5,175.4
	z"/>
<path class="st0" d="M256.5,175.4h-9c-0.5,0-1,0.5-1,1v16c0,0.5,0.5,1,1,1h9c0.5,0,1-0.5,1-1v-16C257.5,175.9,257,175.4,256.5,175.4
	z"/>
<path class="st0" d="M269.5,150.4h-3h-6c-0.5,0-1,0.5-1,1v16c0,0.5,0.5,1,1,1h9c0.5,0,1-0.5,1-1v-4v-12
	C270.5,150.9,270,150.4,269.5,150.4z"/>
<path class="st0" d="M347.5,175.4h-9c-0.5,0-1,0.5-1,1v16c0,0.5,0.5,1,1,1h9c0.5,0,1-0.5,1-1v-16C348.5,175.9,348,175.4,347.5,175.4
	z"/>
<path class="st0" d="M360.5,175.4h-9c-0.5,0-1,0.5-1,1v16c0,0.5,0.5,1,1,1h9c0.5,0,1-0.5,1-1v-16C361.5,175.9,361,175.4,360.5,175.4
	z"/>
<path class="st0" d="M360.5,150.4h-9c-0.5,0-1,0.5-1,1v16c0,0.5,0.5,1,1,1h9c0.5,0,1-0.5,1-1v-16C361.5,150.9,361,150.4,360.5,150.4
	z"/>
<path class="st0" d="M347.5,150.4h-9c-0.5,0-1,0.5-1,1v16c0,0.5,0.5,1,1,1h9c0.5,0,1-0.5,1-1v-16C348.5,150.9,348,150.4,347.5,150.4
	z"/>
<rect x="-506.1" y="5.3" class="st1" width="34.2" height="4.9"/>
<path class="st2" d="M191.6,111.1h-9.5c-0.8,0-1.3-0.5-1.3-1.3v-3.5c0-0.6,0.5-1.3,1.3-1.3h9.5c0.8,0,1.3,0.6,1.3,1.3v3.5
	C192.9,110.6,192.4,111.1,191.6,111.1z"/>
<path class="st2" d="M175.6,115.1h-53.7c-0.8,0-1.3-0.5-1.3-1.3v-5.5c0-0.8,0.5-1.3,1.3-1.3h53.7c0.8,0,1.3,0.5,1.3,1.3v5.5
	C176.9,114.5,176.3,115.1,175.6,115.1z"/>
<rect x="137" y="109.4" class="st3" width="59.2" height="5.9"/>
<rect x="118.7" y="97.8" class="st4" width="16.1" height="9.5"/>
<rect x="76" y="27.5" class="st4" width="101.5" height="73.1"/>
<rect x="126.6" y="27.5" class="st5" width="50.9" height="73.1"/>
<rect x="79.6" y="31.2" class="st6" width="94.3" height="64.1"/>
<rect x="85" y="36.1" class="st7" width="83.9" height="5"/>
<rect x="85" y="46" class="st7" width="83.9" height="5"/>
<rect x="85" y="55.7" class="st7" width="83.2" height="5"/>
<rect x="85" y="65.6" class="st7" width="54.3" height="5"/>
<rect x="85" y="75.5" class="st7" width="54.3" height="5"/>
<rect x="85" y="85.4" class="st7" width="54.3" height="5"/>
<rect x="146" y="65.6" class="st7" width="22.2" height="24.8"/>
<rect x="111.2" y="105.2" class="st4" width="31.1" height="4.5"/>
<polygon class="st8" points="105.8,31.2 79.6,57.3 79.6,40.7 89.1,31.2 "/>
<polygon class="st8" points="173.9,63.3 173.9,78.1 156.7,95.3 141.9,95.3 "/>
<path class="st9" d="M17,76.1c0,0-2.2,2.3-3.2-3.2c-1.2-5.8-1-9,0.9-9.6c1.3-0.4,1.7,0.6,1.7,0.6L17,76.1z"/>
<path class="st9" d="M21.3,84.4v6.8c0,1.7,0.9,3.2,2.3,4.1c2.4,1.7,6.2,4.1,6.3,4.1c0.1,0,3.9-2.4,6.4-4.1c1.4-0.9,2.3-2.4,2.3-4.2
	v-7.2L21.3,84.4z"/>
<path class="st10" d="M21.3,87.4c2.3,2.6,5.3,4,8.5,4c3.3,0,6.4-1.5,8.7-4.4V84l-17.2,0.4V87.4z"/>
<path class="st10" d="M29.8,89.2c7.8,0,13.9-8.2,13.9-21.8c0-17-5-20.9-13.9-20.9s-13.9,4-13.9,20.9C15.9,81,22,89.2,29.8,89.2z"/>
<path class="st9" d="M42.8,76.1c0,0,2.2,2.3,3.2-3.2c1.2-5.8,1-9-0.9-9.6c-1.3-0.4-1.7,0.6-1.7,0.6L42.8,76.1z"/>
<path class="st9" d="M29.9,46.6v42.8c7.7-0.1,13.7-8.3,13.7-21.8C43.7,50.6,38.7,46.6,29.9,46.6z"/>
<path class="st11" d="M29.7,41.6c-15,0-19.6,14.5-13.9,27.9h1.7c0,0-1.3-10.3,4.1-16.4c0,0-1.9,9.4,8.3,9.4c0,0-6.4-6-2.8-9.5
	c0,0,2.1,8.5,11.4,8.5c0,0-3.2-2.7-1.9-7.7c0,0,6.4,9.6,6.2,15.8h1.5C49.5,56.5,47,41.6,29.7,41.6z"/>
<path class="st12" d="M54.1,102.2c-0.4-1-1-1.9-1.9-2.6l-13.7-9.4c0,0-1.9,6.8-8.6,6.8c-6.5,0-8.6-6.8-8.6-6.8L7.5,99.6
	c-0.9,0.6-1.5,1.5-1.9,2.6l-4,12.6h27.2h0.8h28.3L54.1,102.2z"/>
<path class="st13" d="M131.1,46.9c2.6-3.1,22,0.4,19.8,23.9c-0.8,9.1-11,13.2-11,13.2h-8.7V46.9z"/>
<path class="st13" d="M146.5,52.4c1.7-4.9,17.5-6.3,17.5,12.6c0,7.1-3.7,8.6-3.7,15.3c0,6.7,5.5,7.3,6.9,5.7c0,0-13.5,13.5-21.2-5.8
	L146.5,52.4z"/>
<path class="st13" d="M115.7,52.4c-1.7-4.9-17.5-6.3-17.5,12.6c0,7.1,3.7,8.6,3.7,15.3c0,6.7-5.5,7.3-6.9,5.7
	c0,0,13.5,13.5,21.2-5.8L115.7,52.4z"/>
<path class="st14" d="M131.1,102.5l8.3-6.5c0,0-1.2-1.5-1.7-6.5h-6.7l0,0h-6.5c-0.5,5-1.7,6.5-1.7,6.5L131.1,102.5L131.1,102.5
	L131.1,102.5L131.1,102.5L131.1,102.5z"/>
<path class="st15" d="M137.7,89.2h-6.5l0,0h-6.5c0,0.5-0.1,1-0.1,1.4c1.9,1.5,4.2,2.4,6.8,2.4c2.4,0,4.8-0.9,6.8-2.4
	C137.8,90.3,137.8,89.8,137.7,89.2z"/>
<path class="st13" d="M131.3,46.9c-2.6-3.1-22,0.4-19.8,23.9c0.8,9.1,11,13.2,11,13.2h8.7V46.9z"/>
<path class="st15" d="M131.1,91.6c7.7,0,13.7-8.1,13.7-21.6c0-16.8-4.9-20.7-13.7-20.7c-8.7,0-13.7,3.9-13.7,20.7
	C117.5,83.5,123.4,91.6,131.1,91.6z"/>
<path class="st14" d="M131.3,49.3v42.3c7.7-0.1,13.5-8.2,13.5-21.6C144.9,53.3,140,49.4,131.3,49.3z"/>
<path class="st14" d="M118.5,78.6c0,0-2.1,2.3-3.1-3.1c-1.2-5.8-1-8.9,0.9-9.5c1.3-0.4,1.7,0.6,1.7,0.6L118.5,78.6z"/>
<path class="st14" d="M144,78.6c0,0,2.1,2.3,3.1-3.1c1.2-5.8,1-8.9-0.9-9.5c-1.3-0.4-1.7,0.6-1.7,0.6L144,78.6z"/>
<path class="st13" d="M131.1,57.1c-3.9,0-7.7-3-9.6-2.1c-1.9,1-4,2.6-3.5,16.6c0,0-8.7-11.4,2.2-19.8c3.1-2.3,9.2-3.9,10.9-3.9l0,0
	V57.1z"/>
<path class="st13" d="M131.3,57.1c3.9,0,7.7-3,9.6-2.1c1.9,1,4,2.6,3.5,16.6c0,0,8.7-11.4-2.2-19.8c-3.1-2.3-9.2-3.9-10.9-3.9l0,0
	L131.3,57.1z"/>
<path class="st16" d="M155.3,103.2c-0.4-1.2-1.2-2.2-2.3-2.8l-14.9-8.2c0,0-0.3,5.7-6.8,5.7c-6.5,0-7.2-5.7-7.2-5.7l-14.5,8.2
	c-1,0.6-1.9,1.7-2.3,2.8l-3.9,12.2h27h0.8h28L155.3,103.2z"/>
<path class="st17" d="M88.9,73.2H63.7c-8.3,0-15-6.8-15-15V22.5c0-8.3,6.8-15,15-15h25.2c8.3,0,15,6.8,15,15V58
	C104,66.4,97.2,73.2,88.9,73.2z"/>
<path class="st18" d="M75.7,93.1L88.5,83c0,0-1.8-2.4-2.6-10.1H75.8l0,0H65.6C64.9,80.5,63.1,83,63.1,83L75.7,93.1L75.7,93.1
	L75.7,93.1L75.7,93.1L75.7,93.1z"/>
<path class="st19" d="M85.8,72.8H75.7l0,0H65.5c-0.1,0.8-0.1,1.5-0.3,2.2c3.1,2.4,6.5,3.7,10.4,3.7s7.4-1.3,10.4-3.7
	C86.1,74.3,85.9,73.6,85.8,72.8z"/>
<path class="st18" d="M56.1,56.2c0,0-3.2,3.5-4.9-4.8c-1.7-8.9-1.7-13.7,1.4-14.6c1.9-0.6,2.6,1,2.6,1L56.1,56.2z"/>
<path class="st19" d="M75.7,76.3c11.9,0,21.2-12.6,21.2-33.3c0-25.9-7.6-32-21.2-32s-21.2,6-21.2,32C54.6,63.8,63.7,76.3,75.7,76.3z
	"/>
<path class="st18" d="M95.6,56.2c0,0,3.2,3.5,4.9-4.8c1.7-8.9,1.7-13.7-1.4-14.6c-1.9-0.6-2.4,1-2.4,1L95.6,56.2z"/>
<path class="st18" d="M75.9,11v65.2C87.7,76.1,96.8,63.6,96.8,43C96.8,17.2,89.4,11.2,75.9,11z"/>
<path class="st17" d="M75.5,5.5c-24.1,0-25.9,23.6-24.9,32.2c0.5,4.2,3.9,8.3,3.9,8.3s0.9-11.6,8.3-14.8c7.4-3.3,18.4-1.5,23.8-9.5
	c6.2,9.5,9,13.5,10.1,24.3C103.7,38.9,109.2,5.8,75.5,5.5z"/>
<polygon class="st20" points="75.7,87.6 58.7,85.3 75.7,114.9 92.7,85.3 "/>
<polygon class="st21" points="64.9,77.4 62.9,78.5 58.7,85.3 71.3,101.4 75.7,87.6 64.5,78.7 "/>
<polygon class="st21" points="86.6,77.4 88.5,78.5 92.7,85.3 80.1,101.4 75.7,87.6 86.8,78.7 "/>
<path class="st3" d="M58.7,85.3l-14.6,8.9c-1.7,1-3,2.7-3.5,4.8l-3.9,16.1h39L58.7,85.3z"/>
<path class="st3" d="M92.7,85.3l14.6,8.9c1.7,1,3,2.7,3.5,4.8l3.9,16.1h-39L92.7,85.3z"/>
</svg>
