<?xml version="1.0" encoding="utf-8"?>
<!-- Generator: Adobe Illustrator 21.1.0, SVG Export Plug-In . SVG Version: 6.00 Build 0)  -->
<svg version="1.1" id="Layer_1" xmlns="http://www.w3.org/2000/svg" xmlns:xlink="http://www.w3.org/1999/xlink" x="0px" y="0px"
	 viewBox="0 0 200 200" style="enable-background:new 0 0 200 200;" xml:space="preserve">
<style type="text/css">
	.st0{fill:#1B91CC;}
	.st1{fill:none;}
	.st2{fill:#045F8C;}
	.st3{fill:#666666;}
	.st4{fill:#C85000;}
	.st5{fill:#646464;}
	.st6{fill:#6E6E6E;}
	.st7{fill:#B3B3B3;}
	.st8{fill:#999999;}
	.st9{opacity:0.3;fill:#FFFFFF;enable-background:new    ;}
	.st10{fill:#FFD7AF;}
	.st11{fill:#F5CDA5;}
	.st12{fill:#FED9AE;}
	.st13{fill:#FFE1B9;}
	.st14{fill:#415532;}
	.st15{fill:#4B5F3C;}
	.st16{fill:#3F3125;}
</style>
<g>
	<circle class="st0" cx="100" cy="100" r="97"/>
</g>
<path class="st1" d="M256.5,184h-9c-0.5,0-1,0.5-1,1v16c0,0.5,0.5,1,1,1h9c0.5,0,1-0.5,1-1v-16C257.5,184.5,257,184,256.5,184z"/>
<path class="st1" d="M269.5,209h-9c-0.5,0-1,0.5-1,1v16c0,0.5,0.5,1,1,1h9c0.5,0,1-0.5,1-1v-16C270.5,209.5,270,209,269.5,209z"/>
<path class="st1" d="M256.5,209h-9c-0.5,0-1,0.5-1,1v16c0,0.5,0.5,1,1,1h9c0.5,0,1-0.5,1-1v-16C257.5,209.5,257,209,256.5,209z"/>
<path class="st1" d="M269.5,184h-3h-6c-0.5,0-1,0.5-1,1v16c0,0.5,0.5,1,1,1h9c0.5,0,1-0.5,1-1v-4v-12C270.5,184.5,270,184,269.5,184
	z"/>
<path class="st1" d="M347.5,209h-9c-0.5,0-1,0.5-1,1v16c0,0.5,0.5,1,1,1h9c0.5,0,1-0.5,1-1v-16C348.5,209.5,348,209,347.5,209z"/>
<path class="st1" d="M360.5,209h-9c-0.5,0-1,0.5-1,1v16c0,0.5,0.5,1,1,1h9c0.5,0,1-0.5,1-1v-16C361.5,209.5,361,209,360.5,209z"/>
<path class="st1" d="M360.5,184h-9c-0.5,0-1,0.5-1,1v16c0,0.5,0.5,1,1,1h9c0.5,0,1-0.5,1-1v-16C361.5,184.5,361,184,360.5,184z"/>
<path class="st1" d="M347.5,184h-9c-0.5,0-1,0.5-1,1v16c0,0.5,0.5,1,1,1h9c0.5,0,1-0.5,1-1v-16C348.5,184.5,348,184,347.5,184z"/>
<circle class="st1" cx="303.5" cy="162" r="8"/>
<path class="st2" d="M166.4,137.8h-3.3c0-0.1,0.1-0.2,0.1-0.3v-1.9c0-1-0.9-1.9-1.9-1.9h-7.6c-1,0-1.9,0.9-1.9,1.9v1.9
	c0,0.1,0,0.2,0.1,0.3h-3.8v-0.3c0-1-0.9-1.9-1.9-1.9h-30.7v-1.8h-3c-0.5-1.6-1.6-3-3-3.9l-0.6-0.4h39.8V60.6h-47.3
	c-3.7-7.5-11.9-10.2-15.3-7.1c0,0-3.3-3.7-11.4-3.7c-10.5,0-16.5,4.6-19.6,10.7h-2v6.1c-0.8,4-0.7,8.1,0,11.8v46.9l-7.3,4.5
	c-1.6,1-2.7,2.5-3.2,4.3l-5.2,19.7h40.2l0,0h40.2l-2.7-10.5h51.3L166.4,137.8L166.4,137.8z"/>
<path class="st3" d="M158.4,135.6H149c-0.6,0-1-0.4-1-1v-3.7c0-0.5,0.4-1,1-1h9.4c0.6,0,1,0.5,1,1v3.7
	C159.4,135.2,159,135.6,158.4,135.6z"/>
<path class="st3" d="M143.3,139.4h-51c-0.5,0-1-0.5-1-1v-5.6c0-0.6,0.5-1,1-1h51c0.5,0,1,0.4,1,1v5.6
	C144.3,138.9,143.9,139.4,143.3,139.4z"/>
<rect x="106.8" y="134" class="st4" width="55.8" height="5.6"/>
<rect x="89.5" y="123.2" class="st5" width="15.2" height="9"/>
<rect x="49.2" y="56.8" class="st5" width="95.6" height="68.9"/>
<rect x="97" y="56.8" class="st6" width="47.9" height="68.9"/>
<rect x="52.7" y="60.2" class="st7" width="88.8" height="60.4"/>
<rect x="57.7" y="64.8" class="st8" width="79" height="4.7"/>
<rect x="57.7" y="74.2" class="st8" width="79" height="4.7"/>
<rect x="57.7" y="83.5" class="st8" width="78.4" height="4.7"/>
<rect x="57.7" y="92.8" class="st8" width="51.2" height="4.7"/>
<rect x="57.7" y="102.1" class="st8" width="51.2" height="4.7"/>
<rect x="57.7" y="111.4" class="st8" width="51.2" height="4.7"/>
<rect x="115.2" y="92.8" class="st8" width="21" height="23.3"/>
<rect x="82.4" y="130" class="st5" width="29.3" height="4.3"/>
<polygon class="st9" points="77.3,60.2 52.7,84.9 52.7,69.2 61.6,60.2 "/>
<polygon class="st9" points="141.5,90.6 141.5,104.5 125.3,120.7 111.4,120.7 "/>
<g>
	<path class="st10" d="M93.8,124.3c-5.2-3.1-7.4-12.1-7.5-12.6v-6.2l-24.8,0.7v5.5c0,0-2.2,9.5-7.6,12.7c-2.9,1.7,2.9,7.2,9,12
		l2.3,5.3l8.7,8.5l6.7-8.6l2.3-3.6C89.5,132.8,97,126.2,93.8,124.3z"/>
	<path class="st10" d="M55.5,94.9c0,0-3.1,3.3-4.6-4.5c-1.6-8.3-1.5-12.9,1.3-13.8c1.8-0.6,2.4,0.9,2.4,0.9L55.5,94.9z"/>
	<path class="st10" d="M61.7,106.6v5.9c0,2.1,1,4.2,2.6,5.5l5.1,4.2c2.6,2.1,6.4,2.1,9,0l5.2-4.2c1.7-1.4,2.7-3.4,2.7-5.6V106
		L61.7,106.6z"/>
	<path class="st11" d="M61.7,110.9c3.3,3.7,7.5,5.7,12.1,5.7c4.8,0,9.2-2.2,12.6-6.2V106l-24.6,0.6v4.3H61.7z"/>
	<path class="st12" d="M73.8,113.7c11.3,0,19.9-11.8,19.9-31.3c0-24.4-7.1-30-19.9-30c-12.7,0-19.9,5.6-19.9,30
		C53.9,101.9,62.6,113.7,73.8,113.7z"/>
	<path class="st10" d="M92.4,94.9c0,0,3.1,3.3,4.6-4.5c1.6-8.3,1.5-12.9-1.3-13.8c-1.8-0.6-2.4,0.9-2.4,0.9L92.4,94.9z"/>
	<path class="st13" d="M74.1,52.3v61.3c11.1-0.2,19.6-11.9,19.6-31.3C93.7,58.1,86.6,52.4,74.1,52.3z"/>
	<path class="st14" d="M114,150.1l-5.2-19.7c-0.5-1.8-1.6-3.3-3.2-4.3l-18.2-11.2l-13.7,15.6L60,114.9l-18.2,11.2
		c-1.6,1-2.7,2.5-3.2,4.3l-5.2,19.7h40.2l0,0H114z"/>
	<polygon class="st15" points="73.8,137.1 56.3,117.7 57.4,116.7 73.8,135 90.4,116.6 91.4,117.6 	"/>
</g>
<path class="st16" d="M55.3,86.5c-8.2-3.9-14.1-40.4,15.5-40.4c8.1,0,11.4,3.7,11.4,3.7c6.2-5.6,28.2,7.7,10.2,34.4
	c0,0,1.8-12.4-4.9-17.7c-4.8-3.7-5.5-6.4-5.5-6.4s-3.2,5.7-12.6,8.1C60.1,70.6,57.6,76.6,55.3,86.5z"/>
</svg>
