<?xml version="1.0" encoding="utf-8"?>
<!-- Generator: Adobe Illustrator 21.1.0, SVG Export Plug-In . SVG Version: 6.00 Build 0)  -->
<svg version="1.1" id="Layer_1" xmlns="http://www.w3.org/2000/svg" xmlns:xlink="http://www.w3.org/1999/xlink" x="0px" y="0px"
	 viewBox="0 0 200 125" style="enable-background:new 0 0 200 125;" xml:space="preserve">
<style type="text/css">
	.st0{fill:none;}
	.st1{fill:#666666;}
	.st2{fill:#104F68;}
	.st3{fill:#646464;}
	.st4{fill:#6E6E6E;}
	.st5{fill:#B3B3B3;}
	.st6{fill:#999999;}
	.st7{opacity:0.3;fill:#FFFFFF;enable-background:new    ;}
	.st8{fill:#FFD7AF;}
	.st9{fill:#F5CDA5;}
	.st10{fill:#FED9AE;}
	.st11{fill:#FFE1B9;}
	.st12{fill:#1B91CC;}
	.st13{fill:#146B8E;}
	.st14{fill:#3F3125;}
</style>
<path class="st0" d="M256.5,146.5h-9c-0.5,0-1,0.5-1,1v16c0,0.5,0.5,1,1,1h9c0.5,0,1-0.5,1-1v-16C257.5,147,257,146.5,256.5,146.5z"
	/>
<path class="st0" d="M269.5,171.5h-9c-0.5,0-1,0.5-1,1v16c0,0.5,0.5,1,1,1h9c0.5,0,1-0.5,1-1v-16C270.5,172,270,171.5,269.5,171.5z"
	/>
<path class="st0" d="M256.5,171.5h-9c-0.5,0-1,0.5-1,1v16c0,0.5,0.5,1,1,1h9c0.5,0,1-0.5,1-1v-16C257.5,172,257,171.5,256.5,171.5z"
	/>
<path class="st0" d="M269.5,146.5h-3h-6c-0.5,0-1,0.5-1,1v16c0,0.5,0.5,1,1,1h9c0.5,0,1-0.5,1-1v-4v-12
	C270.5,147,270,146.5,269.5,146.5z"/>
<path class="st0" d="M347.5,171.5h-9c-0.5,0-1,0.5-1,1v16c0,0.5,0.5,1,1,1h9c0.5,0,1-0.5,1-1v-16C348.5,172,348,171.5,347.5,171.5z"
	/>
<path class="st0" d="M360.5,171.5h-9c-0.5,0-1,0.5-1,1v16c0,0.5,0.5,1,1,1h9c0.5,0,1-0.5,1-1v-16C361.5,172,361,171.5,360.5,171.5z"
	/>
<path class="st0" d="M360.5,146.5h-9c-0.5,0-1,0.5-1,1v16c0,0.5,0.5,1,1,1h9c0.5,0,1-0.5,1-1v-16C361.5,147,361,146.5,360.5,146.5z"
	/>
<path class="st0" d="M347.5,146.5h-9c-0.5,0-1,0.5-1,1v16c0,0.5,0.5,1,1,1h9c0.5,0,1-0.5,1-1v-16C348.5,147,348,146.5,347.5,146.5z"
	/>
<circle class="st0" cx="303.5" cy="124.5" r="8"/>
<path class="st1" d="M158.4,98.1H149c-0.6,0-1-0.4-1-1v-3.7c0-0.5,0.4-1,1-1h9.4c0.6,0,1,0.5,1,1v3.7
	C159.4,97.7,159,98.1,158.4,98.1z"/>
<path class="st1" d="M143.3,101.9h-51c-0.5,0-1-0.5-1-1v-5.6c0-0.6,0.5-1,1-1h51c0.5,0,1,0.4,1,1v5.6
	C144.3,101.4,143.9,101.9,143.3,101.9z"/>
<rect x="106.8" y="96.5" class="st2" width="55.8" height="5.6"/>
<rect x="89.5" y="85.7" class="st3" width="15.2" height="9"/>
<rect x="49.2" y="19.3" class="st3" width="95.6" height="68.9"/>
<rect x="97" y="19.3" class="st4" width="47.9" height="68.9"/>
<rect x="52.7" y="22.7" class="st5" width="88.8" height="60.4"/>
<rect x="57.7" y="27.3" class="st6" width="79" height="4.7"/>
<rect x="57.7" y="36.7" class="st6" width="79" height="4.7"/>
<rect x="57.7" y="46" class="st6" width="78.4" height="4.7"/>
<rect x="57.7" y="55.3" class="st6" width="51.2" height="4.7"/>
<rect x="57.7" y="64.6" class="st6" width="51.2" height="4.7"/>
<rect x="57.7" y="73.9" class="st6" width="51.2" height="4.7"/>
<rect x="115.2" y="55.3" class="st6" width="21" height="23.3"/>
<rect x="82.4" y="92.5" class="st3" width="29.3" height="4.3"/>
<polygon class="st7" points="77.3,22.7 52.7,47.4 52.7,31.7 61.6,22.7 "/>
<polygon class="st7" points="141.5,53.1 141.5,67 125.3,83.2 111.4,83.2 "/>
<path class="st8" d="M93.8,86.8c-5.2-3.1-7.4-12.1-7.5-12.6V68l-24.8,0.7v5.5c0,0-2.2,9.5-7.6,12.7c-2.9,1.7,2.9,7.2,9,12l2.3,5.3
	l8.7,8.5l6.7-8.6l2.3-3.6C89.5,95.3,97,88.7,93.8,86.8z"/>
<path class="st8" d="M55.5,57.4c0,0-3.1,3.3-4.6-4.5c-1.6-8.3-1.5-12.9,1.3-13.8c1.8-0.6,2.4,0.9,2.4,0.9L55.5,57.4z"/>
<path class="st8" d="M61.7,69.1V75c0,2.1,1,4.2,2.6,5.5l5.1,4.2c2.6,2.1,6.4,2.1,9,0l5.2-4.2c1.7-1.4,2.7-3.4,2.7-5.6v-6.4
	L61.7,69.1z"/>
<path class="st9" d="M61.7,73.4c3.3,3.7,7.5,5.7,12.1,5.7c4.8,0,9.2-2.2,12.6-6.2v-4.4l-24.6,0.6v4.3H61.7z"/>
<path class="st10" d="M73.8,76.2c11.3,0,19.9-11.8,19.9-31.3c0-24.4-7.1-30-19.9-30c-12.7,0-19.9,5.6-19.9,30
	C53.9,64.4,62.6,76.2,73.8,76.2z"/>
<path class="st8" d="M92.4,57.4c0,0,3.1,3.3,4.6-4.5c1.6-8.3,1.5-12.9-1.3-13.8c-1.8-0.6-2.4,0.9-2.4,0.9L92.4,57.4z"/>
<path class="st11" d="M74.1,14.8v61.3c11.1-0.2,19.6-11.9,19.6-31.3C93.7,20.6,86.6,14.9,74.1,14.8z"/>
<path class="st12" d="M114,112.6l-5.2-19.7c-0.5-1.8-1.6-3.3-3.2-4.3L87.4,77.4L73.7,93L60,77.4L41.8,88.6c-1.6,1-2.7,2.5-3.2,4.3
	l-5.2,19.7h40.2l0,0L114,112.6L114,112.6z"/>
<polygon class="st13" points="73.8,99.6 56.3,80.2 57.4,79.2 73.8,97.5 90.4,79.1 91.4,80.1 "/>
<path class="st14" d="M55.3,49C47.1,45.1,41.2,8.6,70.8,8.6c8.1,0,11.4,3.7,11.4,3.7c6.2-5.6,28.2,7.7,10.2,34.4
	c0,0,1.8-12.4-4.9-17.7c-4.8-3.7-5.5-6.4-5.5-6.4s-3.2,5.7-12.6,8.1C60.1,33.1,57.6,39.1,55.3,49z"/>
</svg>
