<?xml version="1.0" encoding="utf-8"?>
<!-- Generator: Adobe Illustrator 24.1.1, SVG Export Plug-In . SVG Version: 6.00 Build 0)  -->
<svg version="1.1" id="Layer_1" xmlns="http://www.w3.org/2000/svg" xmlns:xlink="http://www.w3.org/1999/xlink" x="0px" y="0px"
	 viewBox="0 0 24 24" style="enable-background:new 0 0 24 24;" xml:space="preserve">
<style type="text/css">
	.st0{fill:#FFFFFF;}
</style>
<desc>Created with Sketch.</desc>
<g id="Icons_x2F_arrow-right">
	<g id="icon">
		<g>
			<path id="path-1" class="st0" d="M16.6,11l-3.3-3.3c-0.4-0.4-0.4-1,0-1.4s1-0.4,1.4,0l5,5c0.4,0.4,0.4,1,0,1.4l-5,5
				c-0.4,0.4-1,0.4-1.4,0s-0.4-1,0-1.4l3.3-3.3H5c-0.6,0-1-0.4-1-1s0.4-1,1-1C5,11,16.6,11,16.6,11z"/>
		</g>
		<g>
			<path id="path-1_1_" class="st0" d="M16.6,11l-3.3-3.3c-0.4-0.4-0.4-1,0-1.4s1-0.4,1.4,0l5,5c0.4,0.4,0.4,1,0,1.4l-5,5
				c-0.4,0.4-1,0.4-1.4,0s-0.4-1,0-1.4l3.3-3.3H5c-0.6,0-1-0.4-1-1s0.4-1,1-1C5,11,16.6,11,16.6,11z"/>
		</g>
		<g>
			<path id="path-1_2_" class="st0" d="M16.6,11l-3.3-3.3c-0.4-0.4-0.4-1,0-1.4s1-0.4,1.4,0l5,5c0.4,0.4,0.4,1,0,1.4l-5,5
				c-0.4,0.4-1,0.4-1.4,0s-0.4-1,0-1.4l3.3-3.3H5c-0.6,0-1-0.4-1-1s0.4-1,1-1C5,11,16.6,11,16.6,11z"/>
		</g>
	</g>
</g>
</svg>
