<?xml version="1.0" encoding="utf-8"?>
<!-- Generator: Adobe Illustrator 21.1.0, SVG Export Plug-In . SVG Version: 6.00 Build 0)  -->
<svg version="1.1" id="Layer_1" xmlns="http://www.w3.org/2000/svg" xmlns:xlink="http://www.w3.org/1999/xlink" x="0px" y="0px"
	 viewBox="0 0 200 200" style="enable-background:new 0 0 200 200;" xml:space="preserve">
<style type="text/css">
	.st0{fill:none;}
	.st1{fill:#045F8C;}
	.st2{fill:#56AACC;}
	.st3{fill:#1B91CC;}
	.st4{fill:#104F68;}
	.st5{fill:#563407;}
</style>
<path class="st0" d="M256.5,184h-9c-0.5,0-1,0.5-1,1v16c0,0.5,0.5,1,1,1h9c0.5,0,1-0.5,1-1v-16C257.5,184.5,257,184,256.5,184z"/>
<path class="st0" d="M269.5,209h-9c-0.5,0-1,0.5-1,1v16c0,0.5,0.5,1,1,1h9c0.5,0,1-0.5,1-1v-16C270.5,209.5,270,209,269.5,209z"/>
<path class="st0" d="M256.5,209h-9c-0.5,0-1,0.5-1,1v16c0,0.5,0.5,1,1,1h9c0.5,0,1-0.5,1-1v-16C257.5,209.5,257,209,256.5,209z"/>
<path class="st0" d="M269.5,184h-3h-6c-0.5,0-1,0.5-1,1v16c0,0.5,0.5,1,1,1h9c0.5,0,1-0.5,1-1v-4v-12C270.5,184.5,270,184,269.5,184
	z"/>
<path class="st0" d="M347.5,209h-9c-0.5,0-1,0.5-1,1v16c0,0.5,0.5,1,1,1h9c0.5,0,1-0.5,1-1v-16C348.5,209.5,348,209,347.5,209z"/>
<path class="st0" d="M360.5,209h-9c-0.5,0-1,0.5-1,1v16c0,0.5,0.5,1,1,1h9c0.5,0,1-0.5,1-1v-16C361.5,209.5,361,209,360.5,209z"/>
<path class="st0" d="M360.5,184h-9c-0.5,0-1,0.5-1,1v16c0,0.5,0.5,1,1,1h9c0.5,0,1-0.5,1-1v-16C361.5,184.5,361,184,360.5,184z"/>
<path class="st0" d="M347.5,184h-9c-0.5,0-1,0.5-1,1v16c0,0.5,0.5,1,1,1h9c0.5,0,1-0.5,1-1v-16C348.5,184.5,348,184,347.5,184z"/>
<g>
	<path class="st1" d="M59,72l1.7-1C60,71.1,59.4,71.5,59,72z"/>
</g>
<g>
	<path class="st1" d="M58.3,72.4h0.4c0.1-0.1,0.1-0.3,0.3-0.4L58.3,72.4z"/>
</g>
<g>
	<path class="st1" d="M100.4,55h2.9c1.6,0,2.9-1.3,2.9-2.9v-1.9l-4.4-2.5l-4.4,2.5v1.9C97.5,53.7,98.8,55,100.4,55z"/>
</g>
<g>
	<path class="st1" d="M62.6,110.2c0.7,0,1.5,0.7,1.5,1.5v-4.4c0-1.6-1.3-2.9-2.9-2.9h-2.9v5.8H62.6z"/>
</g>
<g>
	<path class="st1" d="M62.6,110.2h-4.4v26.1h4.4c0.7,0,1.5-0.7,1.5-1.5v-23.2C64.1,110.9,63.3,110.2,62.6,110.2z"/>
</g>
<path class="st0" d="M48.8,147.9H35.7c-0.7,0-1.5,0.7-1.5,1.5v23.2c0,0.7,0.7,1.5,1.5,1.5h13.1c0.7,0,1.5-0.7,1.5-1.5v-23.2
	C50.3,148.6,49.5,147.9,48.8,147.9z"/>
<path class="st0" d="M162.1,147.9H149c-0.7,0-1.5,0.7-1.5,1.5v23.2c0,0.7,0.7,1.5,1.5,1.5h13.1c0.7,0,1.5-0.7,1.5-1.5v-23.2
	C163.5,148.6,162.8,147.9,162.1,147.9z"/>
<path class="st0" d="M29.9,147.9H16.9c-0.7,0-1.5,0.7-1.5,1.5v23.2c0,0.7,0.7,1.5,1.5,1.5h13.1c0.7,0,1.5-0.7,1.5-1.5v-23.2
	C31.4,148.6,30.7,147.9,29.9,147.9z"/>
<path class="st0" d="M29.9,111.6H16.9c-0.7,0-1.5,0.7-1.5,1.5v23.2c0,0.7,0.7,1.5,1.5,1.5h13.1c0.7,0,1.5-0.7,1.5-1.5v-23.2
	C31.4,112.3,30.7,111.6,29.9,111.6z"/>
<path class="st0" d="M48.8,111.6h-4.4h-8.7c-0.7,0-1.5,0.7-1.5,1.5v23.2c0,0.7,0.7,1.5,1.5,1.5h13.1c0.7,0,1.5-0.7,1.5-1.5v-5.8
	v-17.4C50.3,112.3,49.5,111.6,48.8,111.6z"/>
<path class="st0" d="M181,111.6h-13.1c-0.7,0-1.5,0.7-1.5,1.5v23.2c0,0.7,0.7,1.5,1.5,1.5H181c0.7,0,1.5-0.7,1.5-1.5v-23.2
	C182.4,112.3,181.7,111.6,181,111.6z"/>
<path class="st0" d="M181,147.9h-13.1c-0.7,0-1.5,0.7-1.5,1.5v23.2c0,0.7,0.7,1.5,1.5,1.5H181c0.7,0,1.5-0.7,1.5-1.5v-23.2
	C182.4,148.6,181.7,147.9,181,147.9z"/>
<path class="st0" d="M162.1,111.6H149c-0.7,0-1.5,0.7-1.5,1.5v23.2c0,0.7,0.7,1.5,1.5,1.5h13.1c0.7,0,1.5-0.7,1.5-1.5v-23.2
	C163.5,112.3,162.8,111.6,162.1,111.6z"/>
<path class="st2" d="M188.2,98.5h-47.9v-0.4H54.6v0.4H8.2c-1.6,0-2.9,1.3-2.9,2.9v82.8c0,1.6,1.3,2.9,2.9,2.9h49.4h23.2v-59.5
	c0-1.6,1.3-2.9,2.9-2.9h29c1.6,0,2.9,1.3,2.9,2.9v59.5h21.8c0.3,0,0.4,0,0.7-0.1c0.3,0,0.4,0.1,0.7,0.1h49.4c1.6,0,2.9-1.3,2.9-2.9
	v-82.8C191.1,99.9,189.8,98.5,188.2,98.5z M31.4,172.6c0,0.7-0.7,1.5-1.5,1.5H16.9c-0.7,0-1.5-0.7-1.5-1.5v-23.2
	c0-0.7,0.7-1.5,1.5-1.5h13.1c0.7,0,1.5,0.7,1.5,1.5V172.6z M31.4,136.3c0,0.7-0.7,1.5-1.5,1.5H16.9c-0.7,0-1.5-0.7-1.5-1.5v-23.2
	c0-0.7,0.7-1.5,1.5-1.5h13.1c0.7,0,1.5,0.7,1.5,1.5V136.3z M50.3,172.6c0,0.7-0.7,1.5-1.5,1.5H35.7c-0.7,0-1.5-0.7-1.5-1.5v-23.2
	c0-0.7,0.7-1.5,1.5-1.5h13.1c0.7,0,1.5,0.7,1.5,1.5V172.6z M50.3,130.5v5.8c0,0.7-0.7,1.5-1.5,1.5H35.7c-0.7,0-1.5-0.7-1.5-1.5
	v-23.2c0-0.7,0.7-1.5,1.5-1.5h8.7h4.4c0.7,0,1.5,0.7,1.5,1.5V130.5z M163.5,172.6c0,0.7-0.7,1.5-1.5,1.5H149c-0.7,0-1.5-0.7-1.5-1.5
	v-23.2c0-0.7,0.7-1.5,1.5-1.5h13.1c0.7,0,1.5,0.7,1.5,1.5V172.6z M163.5,136.3c0,0.7-0.7,1.5-1.5,1.5H149c-0.7,0-1.5-0.7-1.5-1.5
	v-23.2c0-0.7,0.7-1.5,1.5-1.5h13.1c0.7,0,1.5,0.7,1.5,1.5V136.3z M182.4,172.6c0,0.7-0.7,1.5-1.5,1.5h-13.1c-0.7,0-1.5-0.7-1.5-1.5
	v-23.2c0-0.7,0.7-1.5,1.5-1.5H181c0.7,0,1.5,0.7,1.5,1.5V172.6z M182.4,136.3c0,0.7-0.7,1.5-1.5,1.5h-13.1c-0.7,0-1.5-0.7-1.5-1.5
	v-23.2c0-0.7,0.7-1.5,1.5-1.5H181c0.7,0,1.5,0.7,1.5,1.5V136.3z"/>
<path class="st3" d="M140.3,68.1c0-0.6-0.1-1-0.4-1.5h0.7l-38-22.2V33.2h24.7V11.4h-24.7V10c0-1.6-1.3-2.9-2.9-2.9h-2.9
	c-1.6,0-2.9,1.3-2.9,2.9v34.4L57.1,65.1l-1.7,1c-0.1,0.1-0.1,0.3-0.3,0.4c-0.3,0.4-0.4,0.9-0.4,1.5v30.2h85.7V68.1z M98.2,91.3
	c-6.4,0-11.6-5.2-11.6-11.6c0-6.4,5.2-11.6,11.6-11.6s11.6,5.2,11.6,11.6C109.8,86.1,104.6,91.3,98.2,91.3z"/>
<rect x="102.5" y="11.4" class="st4" width="24.7" height="21.8"/>
<path class="st5" d="M140.3,65.9h0.7l-37.3-21.8H93.5l-36,20.3l-1.7,1c-0.1,0.1-0.1,0.3-0.3,0.4c-0.1,0.1-0.1,0.3-0.1,0.4h85.1
	C140.3,66.2,140.3,66,140.3,65.9z"/>
</svg>
