<?xml version="1.0" encoding="utf-8"?>
<!-- Generator: Adobe Illustrator 21.1.0, SVG Export Plug-In . SVG Version: 6.00 Build 0)  -->
<svg version="1.1" id="Layer_1" xmlns="http://www.w3.org/2000/svg" xmlns:xlink="http://www.w3.org/1999/xlink" x="0px" y="0px"
	 viewBox="0 0 300 300" style="enable-background:new 0 0 300 300;" xml:space="preserve">
<style type="text/css">
	.st0{fill:#FFFFFF;}
</style>
<g>
	<g>
		<path class="st0" d="M122.4,231.6c-13.9,0-25.3-9.7-25.3-21.7v-0.1c-11.4-4.8-18.6-14.7-18.6-25.7c0-2.3,0.3-4.5,1-6.7
			c-10.5-6.8-16.7-17.3-16.7-28.6c0-11.7,6.5-22.4,17.6-29.2c-0.2-1.3-0.3-2.7-0.3-4c0-10.3,6.6-19.9,17.1-25c0-0.3,0-0.6,0-0.8
			c0-11.9,11.3-21.7,25.3-21.7c13.9,0,25.3,9.7,25.3,21.7v4.9c0,1.9-1.6,3.5-3.5,3.5s-3.5-1.6-3.5-3.5v-4.9
			c0-8.1-8.2-14.7-18.3-14.7s-18.3,6.6-18.3,14.7c0,0.7,0.1,1.5,0.3,2.3c0.3,1.7-0.6,3.3-2.1,3.9c-9.2,3.6-15.1,11.3-15.1,19.6
			c0,1.6,0.2,3.2,0.7,4.8c0.4,1.6-0.3,3.3-1.7,4C76.1,129.8,70,138.9,70,148.7c0,9.6,5.8,18.6,15.6,24c1.6,0.9,2.2,2.8,1.5,4.4
			c-1,2.3-1.4,4.6-1.4,6.9c0,8.8,6.5,16.7,16.5,20.1c1.6,0.5,2.6,2.2,2.3,3.9c-0.1,0.6-0.2,1.2-0.2,1.9c0,8.1,8.2,14.7,18.3,14.7
			s18.3-6.6,18.3-14.7v-3.2c0-1.9,1.6-3.5,3.5-3.5s3.5,1.6,3.5,3.5v3.2C147.7,221.9,136.4,231.6,122.4,231.6z"/>
		<path class="st0" d="M94,155.1c-0.2,0-0.3,0-0.5,0c-1.9-0.3-3.3-2-3-3.9c0.8-5.8-4.6-7.3-5.3-7.5c-1.9-0.5-3-2.4-2.6-4.2
			c0.5-1.9,2.4-3,4.2-2.6c4.2,1,11.8,5.5,10.5,15.2C97.2,153.8,95.7,155.1,94,155.1z"/>
		<path class="st0" d="M102.4,181.4c-0.5,0-1.1-0.1-1.6-0.4l-5.3-2.8c-2.8-1.5-6.2-1.4-8.9,0.1l-1.5,0.9c-1.7,1-3.8,0.4-4.8-1.3
			s-0.4-3.8,1.3-4.8l1.5-0.9c4.9-2.8,10.7-2.8,15.6-0.2l5.3,2.8c1.7,0.9,2.4,3,1.5,4.7C104.9,180.7,103.6,181.4,102.4,181.4z"/>
		<path class="st0" d="M104.3,129.9c-3.8,0-7.2-1.6-9-2.9c-1.6-1.1-1.9-3.3-0.8-4.9s3.3-1.9,4.9-0.8c0.2,0.2,4.7,3.2,8.3,0.4
			c1.5-1.2,3.7-0.9,4.9,0.6c1.2,1.5,0.9,3.7-0.6,4.9C109.6,129.2,106.9,129.9,104.3,129.9z"/>
		<path class="st0" d="M119.7,210.6c-0.2,0-0.4,0-0.6-0.1c-1.9-0.3-3.2-2.2-2.8-4.1c0.4-2.1,0.1-3.8-0.7-4.9
			c-1.3-1.9-3.9-2.3-3.9-2.3c-1.9-0.3-3.2-2.1-2.9-4c0.3-1.9,2-3.2,3.9-3c0.6,0.1,5.5,0.9,8.6,5.1c2,2.8,2.7,6.3,1.9,10.3
			C122.8,209.4,121.4,210.6,119.7,210.6z"/>
		<path class="st0" d="M120.1,108.9c-1.8,0-3.3-1.3-3.5-3.1c-0.2-1.9,1.2-3.6,3.1-3.9c0.7-0.1,1.3-0.4,1.8-1c0.4-0.6,0.6-1.3,0.6-2
			c-0.2-1.9,1.2-3.6,3.1-3.9c1.9-0.2,3.6,1.2,3.9,3.1c0.3,2.6-0.4,5.1-2.1,7.1c-1.6,2-3.9,3.3-6.5,3.6
			C120.4,108.9,120.3,108.9,120.1,108.9z"/>
	</g>
	<g>
		<path class="st0" d="M177.6,231.6c-13.9,0-25.3-9.7-25.3-21.7v-3.6c0-1.9,1.6-3.5,3.5-3.5s3.5,1.6,3.5,3.5v3.6
			c0,8.1,8.2,14.7,18.3,14.7s18.3-6.6,18.3-14.7c0-0.6-0.1-1.3-0.2-1.9c-0.3-1.7,0.7-3.3,2.3-3.9c10-3.4,16.5-11.3,16.5-20.1
			c0-2.3-0.5-4.7-1.4-6.9c-0.7-1.6,0-3.5,1.5-4.4c9.8-5.4,15.6-14.4,15.6-24c0-9.8-6.1-18.9-16.3-24.3c-1.5-0.8-2.2-2.4-1.7-4
			s0.7-3.3,0.7-4.8c0-8.2-5.9-15.9-15.1-19.6c-1.6-0.6-2.5-2.3-2.1-3.9c0.2-0.9,0.3-1.6,0.3-2.3c0-8.1-8.2-14.7-18.3-14.7
			s-18.3,6.6-18.3,14.7v4.3c0,1.9-1.6,3.5-3.5,3.5s-3.5-1.6-3.5-3.5v-4.3c0-11.9,11.3-21.7,25.3-21.7c13.9,0,25.3,9.7,25.3,21.7
			c0,0.3,0,0.6,0,0.8c10.5,5.1,17.1,14.6,17.1,25c0,1.3-0.1,2.6-0.3,4c11.1,6.8,17.6,17.5,17.6,29.2c0,11.3-6.2,21.8-16.7,28.6
			c0.6,2.2,1,4.5,1,6.7c0,11-7.2,20.9-18.6,25.7v0.1C202.9,221.9,191.5,231.6,177.6,231.6z"/>
		<path class="st0" d="M206,155.1c-1.7,0-3.2-1.3-3.5-3c-1.3-9.6,6.3-14.1,10.5-15.2c1.9-0.5,3.8,0.7,4.2,2.6
			c0.5,1.9-0.7,3.8-2.5,4.2c-1,0.3-6,1.9-5.3,7.5c0.3,1.9-1.1,3.7-3,3.9C206.3,155.1,206.2,155.1,206,155.1z"/>
		<path class="st0" d="M197.6,181.4c-1.3,0-2.5-0.7-3.1-1.9c-0.9-1.7-0.2-3.8,1.5-4.7l6.2-3.3c4.4-2.3,9.6-2.3,14,0.2l2.4,1.3
			c1.7,1,2.3,3.1,1.3,4.8s-3.1,2.3-4.8,1.3l-2.4-1.3c-2.3-1.3-5-1.3-7.3-0.1l-6.2,3.3C198.7,181.2,198.2,181.4,197.6,181.4z"/>
		<path class="st0" d="M195.7,129.9c-2.5,0-5.2-0.7-7.7-2.7c-1.5-1.2-1.8-3.4-0.6-4.9s3.4-1.8,4.9-0.6c3.6,2.9,8.1-0.3,8.3-0.4
			c1.6-1.1,3.7-0.8,4.9,0.8c1.1,1.6,0.8,3.7-0.8,4.9C202.9,128.3,199.5,129.9,195.7,129.9z"/>
		<path class="st0" d="M179.7,210.4c-1.8,0-3.3-1.4-3.5-3.2c-0.4-4.1,0.6-7.5,2.9-10.1c3.4-3.9,8.4-4.2,9-4.3
			c1.9-0.1,3.6,1.4,3.6,3.3c0.1,1.9-1.4,3.5-3.3,3.6c-0.1,0-2.6,0.2-4.1,1.9c-0.9,1.1-1.3,2.7-1.1,4.9c0.2,1.9-1.2,3.6-3.2,3.8
			C179.9,210.4,179.8,210.4,179.7,210.4z"/>
		<path class="st0" d="M184.5,108.1c-0.8,0-1.7-0.1-2.5-0.3c-2.5-0.7-4.6-2.3-5.9-4.5c-1-1.7-0.4-3.8,1.3-4.8s3.8-0.4,4.8,1.3
			c0.4,0.6,0.9,1.1,1.6,1.2c0.7,0.2,1.4,0.1,2-0.3c1.7-1,3.8-0.4,4.8,1.3c1,1.7,0.4,3.8-1.3,4.8
			C187.8,107.7,186.1,108.1,184.5,108.1z"/>
	</g>
</g>
<g>
	<path class="st0" d="M166.8,179.6h-33.6v-12.2c-0.3-0.3-0.8-0.6-1.4-1.1c-8.3-5.7-13.3-15.3-13.3-25.7c0-17.4,14.1-31.5,31.5-31.5
		s31.5,14.1,31.5,31.5c0,10.7-5.2,20.6-13.6,25.9c-1.2,0.7-1.1,2.1-1.1,2.1V179.6z M140.2,172.6h19.6v-3.7c-0.2-1.8,0.6-5.9,4.4-8.3
		c6.4-4,10.3-11.7,10.3-20c0-13.5-11-24.5-24.5-24.5s-24.5,11-24.5,24.5c0,8,3.8,15.5,10.2,19.9c2.3,1.6,3.7,3,4.2,4.3l0.3,0.6
		V172.6z"/>
	<rect x="138" y="186.8" class="st0" width="23.6" height="7"/>
</g>
<g>
	<path class="st0" d="M149.9,272.3L149.9,272.3c-1.9,0-3.5-1.6-3.5-3.5l0.1-30c0-1.9,1.6-3.5,3.5-3.5l0,0c1.9,0,3.5,1.6,3.5,3.5
		l-0.1,30C153.4,270.7,151.9,272.3,149.9,272.3z"/>
	<path class="st0" d="M150,64.4c-1.9,0-3.5-1.6-3.5-3.5V31.2c0-1.9,1.6-3.5,3.5-3.5s3.5,1.6,3.5,3.5v29.7
		C153.5,62.8,151.9,64.4,150,64.4z"/>
	<path class="st0" d="M46.4,152.9H24.5c-1.9,0-3.5-1.6-3.5-3.5s1.6-3.5,3.5-3.5h21.9c1.9,0,3.5,1.6,3.5,3.5
		C49.9,151.3,48.3,152.9,46.4,152.9z"/>
	<path class="st0" d="M275.5,152.9h-24.1c-1.9,0-3.5-1.6-3.5-3.5s1.6-3.5,3.5-3.5h24.1c1.9,0,3.5,1.6,3.5,3.5
		C279,151.3,277.4,152.9,275.5,152.9z"/>
	<path class="st0" d="M53.4,250c-0.9,0-1.8-0.3-2.4-1c-1.4-1.4-1.4-3.6,0-4.9l15.1-15.3c1.4-1.4,3.6-1.4,4.9,0
		c1.4,1.4,1.4,3.6,0,4.9L55.9,249C55.2,249.6,54.3,250,53.4,250z"/>
	<path class="st0" d="M77.2,225.7c-0.9,0-1.8-0.3-2.5-1c-1.4-1.4-1.4-3.6,0-4.9l2.5-2.5c1.4-1.4,3.6-1.4,4.9,0
		c1.4,1.4,1.4,3.6,0,4.9l-2.5,2.5C78.9,225.4,78,225.7,77.2,225.7z"/>
	<path class="st0" d="M218.6,84.4c-0.9,0-1.8-0.4-2.5-1.1c-1.3-1.4-1.3-3.6,0.1-4.9l14.4-13.9c1.4-1.3,3.6-1.3,4.9,0.1
		c1.3,1.4,1.3,3.6-0.1,4.9L221,83.4C220.3,84,219.4,84.4,218.6,84.4z"/>
	<path class="st0" d="M242.3,61c-0.9,0-1.8-0.3-2.5-1c-1.4-1.4-1.4-3.6,0-4.9l2.5-2.5c1.4-1.4,3.6-1.4,4.9,0c1.4,1.4,1.4,3.6,0,4.9
		l-2.5,2.5C244.1,60.7,243.2,61,242.3,61z"/>
	<path class="st0" d="M65.1,67.4c-0.9,0-1.8-0.3-2.4-1l-9.8-9.6c-1.4-1.3-1.4-3.6-0.1-4.9c1.3-1.4,3.6-1.4,4.9-0.1l9.8,9.6
		c1.4,1.3,1.4,3.6,0.1,4.9C67,67,66.1,67.4,65.1,67.4z"/>
	<path class="st0" d="M83,84.7c-0.9,0-1.7-0.3-2.4-1l-9.3-8.9c-1.4-1.3-1.4-3.6-0.1-4.9c1.3-1.4,3.6-1.4,4.9-0.1l9.3,8.9
		c1.4,1.3,1.4,3.6,0.1,4.9C84.8,84.3,83.9,84.7,83,84.7z"/>
	<path class="st0" d="M226.2,228.4c-0.9,0-1.9-0.4-2.6-1.1l-7-7.6c-1.3-1.4-1.2-3.6,0.2-4.9c1.4-1.3,3.6-1.2,4.9,0.2l7,7.6
		c1.3,1.4,1.2,3.6-0.2,4.9C227.9,228.1,227,228.4,226.2,228.4z"/>
	<path class="st0" d="M242.9,245.4c-0.9,0-1.8-0.4-2.5-1.1l-8.1-8.4c-1.3-1.4-1.3-3.6,0.1-4.9c1.4-1.3,3.6-1.3,4.9,0.1l8.1,8.4
		c1.3,1.4,1.3,3.6-0.1,4.9C244.6,245.1,243.7,245.4,242.9,245.4z"/>
</g>
</svg>
