<svg xmlns="http://www.w3.org/2000/svg" xmlns:xlink="http://www.w3.org/1999/xlink" viewBox="0 0 1000 630"><style><![CDATA[.P{fill:#fff}.Q{fill:#06283d}.R{fill:#25648c}.S{opacity:.15}.T{enable-background:new }.U{fill:#0a6fb6}]]></style><path d="M-3-6h1007v642H-3z" fill="#96d0ed"/><path d="M103.4 4C50 14.5 13 42.4-3 80.2v89.2c17.4 38.6 59.1 62.4 113.9 80.8 50.5 17.1 72.3 33.4 72.3 59.3 0 27.3-26.6 42.3-65.5 42.3-44.3 0-84.6-14.3-113.2-30l-7.4 29v57.4c26.4 11.9 64.2 21 102.9 22.7v64.8h66.9v-69.6c78.4-13.6 121.4-65.5 121.4-126.2 0-61.4-32.7-98.9-113.9-127.6-58-21.8-81.9-36.2-81.9-58.7 0-19.1 14.3-38.2 58.7-38.2 49.1 0 80.5 15.7 98.2 23.2l19.8-77.1C246.7 10.6 216 1 170.3-1v-5h-66.9V4zm466.9 310.5c-58-21.8-81.9-36.2-81.9-58.7 0-19.1 14.3-38.2 58.7-38.2 49.1 0 80.5 15.7 98.2 23.2l19.8-77.1c-22.5-10.9-53.2-20.5-98.9-22.5v-60h-66.9V146c-73 14.3-115.3 61.4-115.3 121.4 0 66.2 49.8 100.3 122.8 124.8 50.5 17.1 72.3 33.4 72.3 59.3 0 27.3-26.6 42.3-65.5 42.3-44.3 0-84.6-14.3-113.2-30L380 543.7c25.9 15 70.3 27.3 116 29.3v64.8h66.9v-69.6c78.4-13.6 121.4-65.5 121.4-126.2-.1-61.4-32.8-98.9-114-127.5zm373-263C886.4 30 862.3 15.8 861.5-6h-104c-.3 3.4-.4 6.9-.4 10.4 0 66.2 49.8 100.3 122.8 124.8 50.5 17.1 72.3 33.4 72.3 59.3 0 27.3-26.6 42.3-65.5 42.3-44.3 0-84.6-14.3-113.2-30L753 280.7c25.9 15 70.3 27.3 116 29.3v64.8h66.9v-69.6c27.1-4.7 49.9-14 68.2-26.6V80.3c-16.2-10.7-36.3-20.2-60.8-28.8z" opacity=".5" fill="#badde8"/><path d="M48 604.5h899.5v3.6H48zm.9-74.2h899.5v3.6H48.9zm0-76.8h899.5v3.6H48.9zm0-78.6h899.5v3.6H48.9zm.9-74.1h899.5v3.6H49.8zm0-76.8h899.5v3.6H49.8z" enable-background="new " class="S Q"/><g fill="#1a1a1a"><path d="M786.9 237.5c0-.3 0-.5-.1-.7s-.3-.4-.4-.5-.4-.4-.8-.4c-.4-.1-.8-.3-1.3-.4s-1.1-.4-1.5-.5c-.4-.2-.8-.4-1.2-.7s-.5-.5-.7-.9-.3-.7-.3-1.2a3.08 3.08 0 0 1 .3-1.3c.2-.4.4-.7.8-1s.7-.5 1.3-.6c.5-.1 1-.3 1.6-.3s1.3.1 1.7.3.9.4 1.3.8.6.7.8 1.1a3.08 3.08 0 0 1 .3 1.3H787c0-.4-.1-.6-.2-.9s-.3-.5-.4-.7-.4-.4-.8-.4c-.4-.1-.7-.2-1.1-.2s-.7.1-1.1.2-.5.3-.7.4-.4.4-.4.6c-.1.3-.2.4-.2.7s.1.4.2.6.3.4.4.5.4.4.8.4c.4.2.7.3 1.3.4l1.7.6c.4.3.9.4 1.2.7s.5.6.7 1 .3.7.3 1.2a3.08 3.08 0 0 1-.3 1.3c-.2.4-.4.7-.8 1s-.8.4-1.3.6c-.4.2-1.1.2-1.6.2-.4 0-.7 0-1.1-.1l-1-.3c-.4-.1-.6-.3-.9-.4s-.5-.4-.7-.7-.4-.5-.4-.9c-.1-.4-.2-.7-.2-1.1h1.5a1.69 1.69 0 0 0 .3 1c.2.3.4.5.6.7.3.2.5.4.9.4.4.1.7.1 1.1.1.8 0 1.4-.2 1.8-.4.3-.3.3-1 .3-1.5zm5-1.6v4.5h-1.5v-11.5h4.2c.6 0 1.3.1 1.7.3s.9.4 1.3.7.6.7.8 1.1.3.9.3 1.4-.1 1.1-.3 1.4-.4.8-.8 1.1a3.99 3.99 0 0 1-1.3.7c-.5.2-1.1.3-1.7.3h-2.7zm0-1.3h2.7c.4 0 .8-.1 1.2-.2s.5-.3.8-.4c.2-.2.4-.4.4-.7.1-.3.2-.5.2-.9 0-.3-.1-.5-.2-.9s-.3-.5-.4-.7c-.2-.2-.4-.4-.8-.5-.4-.2-.7-.2-1.2-.2h-2.7v4.5zm15.1.5h-4.9v4h5.7v1.3h-7.3v-11.5h7.2v1.3H802v3.7h4.9l.1 1.2zm9.2 0h-4.9v4h5.7v1.3h-7.3v-11.5h7.2v1.3h-5.7v3.7h4.9l.1 1.2zm2.7 5.3v-11.5h3.2c.7 0 1.4.1 2.1.4s1.2.6 1.6 1.1.8 1.1 1.1 1.7.4 1.4.4 2.2v.7c0 .8-.1 1.6-.4 2.2s-.6 1.3-1.1 1.7c-.4.4-1 .8-1.6 1.1s-1.3.4-2.1.4h-3.2zm1.5-10.2v9h1.6c.6 0 1.2-.1 1.6-.3s.8-.4 1.2-.8.5-.8.7-1.3.3-1.1.3-1.7v-.7c0-.6-.1-1.3-.3-1.8s-.4-1-.7-1.3c-.4-.4-.7-.6-1.1-.8s-1-.3-1.5-.3h-1.8zm17.3 5.6H835v4.7h-1.5v-11.6h3.8c1.3 0 2.2.3 3 .9.7.6 1.1 1.4 1.1 2.6 0 .7-.2 1.3-.5 1.9-.4.5-.9.9-1.6 1.2l2.7 4.8v.1h-1.6l-2.7-4.6zm-2.7-1.2h2.3c.4 0 .8-.1 1.1-.2s.5-.3.8-.4c.3-.2.4-.4.4-.7.1-.3.2-.5.2-.8 0-.4-.1-.6-.2-.9s-.3-.5-.4-.7c-.2-.2-.4-.4-.8-.4-.4-.1-.7-.2-1.2-.2H835v4.3zm14.8.5h-5v4h5.7v1.3h-7.3v-11.5h7.2v1.3h-5.6v3.7h4.9l.1 1.2zm9.1 2.3h-4.8l-1.1 3h-1.5l4.4-11.5h1.3l4.4 11.5h-1.5l-1.2-3zm-4.4-1.2h3.9l-2-5.4-1.9 5.4zm8.5 4.2v-11.5h3.2c.7 0 1.4.1 2.1.4.6.3 1.2.6 1.6 1.1s.8 1.1 1.1 1.7.4 1.4.4 2.2v.7c0 .8-.1 1.6-.4 2.2s-.6 1.3-1.1 1.7c-.4.4-1 .8-1.6 1.1s-1.3.4-2.1.4H863zm1.5-10.2v9h1.6c.6 0 1.2-.1 1.6-.3s.8-.4 1.2-.8.5-.8.7-1.3.3-1.1.3-1.7v-.7c0-.6-.1-1.3-.3-1.8s-.4-1-.7-1.3a4.44 4.44 0 0 0-1.1-.8c-.4-.2-1-.3-1.5-.3h-1.8zm10.7 10.2h-1.5v-11.5h1.5v11.5zm11.6 0h-1.5l-5.7-8.9v8.9H878v-11.5h1.5l5.8 8.9v-8.9h1.5v11.5zm11.1-1.5c-.1.2-.3.4-.4.5s-.4.4-.8.5c-.4.2-.7.3-1.2.4-.4.2-1 .2-1.7.2s-1.3-.1-1.9-.4c-.5-.3-1.1-.6-1.5-1.1-.4-.4-.7-1.1-1-1.7s-.4-1.4-.4-2.3v-.9c0-.9.1-1.6.3-2.3s.5-1.3.9-1.7a7.55 7.55 0 0 1 1.4-1.1c.5-.3 1.3-.4 2-.4.6 0 1.3.1 1.7.3s.9.4 1.3.7.6.7.8 1.1.4.9.4 1.4h-1.5l-.3-.9c-.1-.3-.3-.5-.5-.7s-.4-.4-.8-.4c-.4-.1-.7-.2-1.2-.2s-1 .1-1.3.3c-.4.2-.7.4-1 .8s-.4.8-.5 1.3-.2 1.1-.2 1.7v.9c0 .6.1 1.3.3 1.8s.4 1 .6 1.3c.3.4.6.6 1.1.8.4.2.8.3 1.3.3.4 0 .7 0 1.1-.1s.5-.1.7-.2.4-.2.4-.3l.3-.3v-2.6h-2.7v-1.3h4.1v4.3h.2v.3zm-122.8 10.6h-3.7v10.2h-1.5v-10.2h-3.7v-1.3h8.9v1.3z"/><use xlink:href="#B"/><path d="M793 256.8h-4.8l-1.1 3h-1.5l4.4-11.5h1.3l4.4 11.5h-1.5l-1.2-3zm-4.3-1.3h3.9l-2-5.4-1.9 5.4zm10.1 4.2h-1.5v-11.5h1.5v11.5zm11.6 0h-1.5l-5.7-8.9v8.9h-1.5v-11.5h1.5l5.8 8.9v-8.9h1.5l-.1 11.5zm4.3 0h-1.5v-11.5h1.5v11.5zm11.6 0h-1.5l-5.7-8.9v8.9h-1.5v-11.5h1.5l5.8 8.9v-8.9h1.5l-.1 11.5zm11.1-1.4c-.1.2-.3.4-.4.5-.2.2-.4.4-.8.5-.4.2-.7.3-1.2.4-.4.2-1 .2-1.7.2s-1.3-.1-1.9-.4c-.5-.3-1.1-.6-1.5-1.1-.4-.4-.7-1.1-1-1.7s-.4-1.4-.4-2.3v-.9c0-.9.1-1.6.3-2.3s.5-1.3.9-1.7a7.55 7.55 0 0 1 1.4-1.1c.5-.3 1.3-.4 2-.4.6 0 1.3.1 1.7.3s.9.4 1.3.7.6.7.8 1.1.4.9.4 1.4h-1.4l-.3-.9c-.1-.3-.3-.5-.5-.7-.3-.2-.4-.4-.8-.4-.4-.1-.7-.2-1.2-.2s-1 .1-1.3.3c-.4.2-.7.4-1 .8s-.4.8-.5 1.3-.2 1.1-.2 1.7v.9c0 .6.1 1.3.3 1.8s.4 1 .6 1.3c.3.4.6.6 1.1.8.4.2.8.3 1.3.3.4 0 .7 0 1.1-.1s.5-.1.7-.2.4-.2.4-.3l.3-.3V255h-2.7v-1h4.1l.1 4.3zm15-2.2c-.1.5-.2 1.1-.4 1.5s-.4.9-.8 1.2-.8.6-1.3.8-1.1.3-1.8.3-1.3-.1-1.9-.4-1-.6-1.4-1.1c-.4-.4-.7-1-.9-1.7-.2-.6-.4-1.3-.4-2.1v-1.2c0-.8.1-1.5.4-2.1s.5-1.3.9-1.7a7.55 7.55 0 0 1 1.4-1.1c.5-.3 1.2-.4 1.9-.4.6 0 1.3.1 1.7.3s.9.4 1.3.8a2.87 2.87 0 0 1 .8 1.3c.2.6.4 1 .4 1.5h-1.5l-.3-1.1c-.1-.4-.3-.6-.5-.8-.2-.3-.4-.4-.8-.5-.4-.2-.7-.2-1.2-.2s-1 .1-1.3.3c-.4.2-.7.4-1 .8s-.4.8-.6 1.3c-.2.4-.2 1.1-.2 1.7v1.2c0 .5.1 1.1.2 1.6s.3.9.5 1.3.5.6.9.9.8.4 1.3.4c.4 0 .9-.1 1.3-.2s.6-.3.8-.5.4-.4.5-.8l.3-1.1 1.7-.2zm10.8-1.8c0 .9-.1 1.6-.4 2.3-.2.7-.5 1.3-.9 1.7a7.55 7.55 0 0 1-1.4 1.1c-.5.3-1.2.4-1.9.4s-1.3-.1-1.9-.4c-.5-.3-1.1-.6-1.4-1.1-.4-.4-.7-1.1-1-1.7s-.4-1.4-.4-2.3v-.7c0-.9.1-1.6.4-2.3s.5-1.3 1-1.7.9-.8 1.4-1.1 1.2-.4 1.9-.4 1.3.1 1.9.4 1.1.6 1.4 1.1.7 1.1.9 1.7c.2.7.4 1.4.4 2.3v.7zm-1.4-.7c0-.7-.1-1.3-.2-1.8-.2-.5-.4-1-.6-1.3s-.6-.6-1-.8-.8-.3-1.3-.3a3.08 3.08 0 0 0-1.3.3c-.4.2-.7.4-1 .8s-.4.8-.6 1.3-.2 1.2-.2 1.8v.7c0 .7.1 1.3.3 1.8s.4 1 .6 1.3c.3.4.6.6 1 .8s.8.3 1.3.3.9-.1 1.3-.3.7-.4 1-.8.4-.8.6-1.3.2-1.2.2-1.8l-.1-.7zm11.8-5.3v7.8c0 .6-.1 1.3-.4 1.7s-.5.9-.9 1.2c-.4.4-.8.5-1.3.7a4.53 4.53 0 0 1-1.6.3c-.6 0-1.2-.1-1.6-.3s-1-.4-1.3-.7c-.4-.4-.6-.7-.9-1.2-.2-.4-.4-1.1-.4-1.7v-7.8h1.5v7.8c0 .4.1.8.2 1.2s.3.6.5.8.5.4.8.4c.4.1.7.2 1.1.2s.7-.1 1.1-.2.6-.3.8-.4c.2-.2.4-.4.5-.8s.2-.7.2-1.2v-7.8h1.7z"/><use xlink:href="#B" x="99.1"/><path d="M891.9 256.8c0-.3 0-.5-.1-.7s-.3-.4-.4-.5c-.2-.2-.4-.4-.8-.4-.4-.1-.8-.3-1.3-.4a13.14 13.14 0 0 0-1.5-.5c-.4-.1-.8-.4-1.2-.7s-.5-.5-.7-.9-.3-.7-.3-1.2.1-.9.3-1.3.4-.7.8-1 .7-.5 1.3-.6c.5-.1 1-.3 1.6-.3s1.3.1 1.7.3.9.4 1.3.8.6.7.8 1.1a3.08 3.08 0 0 1 .3 1.3H892c0-.4-.1-.6-.2-.9s-.3-.5-.4-.7c-.2-.2-.4-.4-.8-.4-.4-.1-.7-.2-1.1-.2s-.7.1-1.1.2-.5.3-.7.4-.4.4-.4.6c-.1.3-.2.4-.2.7s.1.4.2.6.3.4.4.5c.2.2.4.4.8.4.4.2.7.3 1.3.4l1.7.6c.4.3.9.4 1.2.7s.5.6.7 1 .3.7.3 1.2-.1.9-.3 1.3-.4.7-.8 1-.8.4-1.3.6c-.4.2-1.1.2-1.6.2-.4 0-.7 0-1.1-.1l-1-.3c-.4-.1-.6-.3-.9-.4-.3-.2-.5-.4-.7-.7s-.4-.5-.4-.9c-.1-.4-.2-.7-.2-1.1h1.5a1.69 1.69 0 0 0 .3 1c.2.3.4.5.6.7.3.2.5.4.9.4.4.1.7.1 1.1.1.8 0 1.4-.2 1.8-.4.3-.3.3-.9.3-1.5zm10-2.4H897v4h5.7v1.3h-7.3v-11.5h7.2v1.3h-5.7v3.7h4.9l.1 1.2zm8.7 2.4c0-.3 0-.5-.1-.7s-.3-.4-.4-.5c-.2-.2-.4-.4-.8-.4-.4-.1-.8-.3-1.3-.4a13.14 13.14 0 0 0-1.5-.5c-.4-.1-.8-.4-1.2-.7s-.5-.5-.7-.9-.3-.7-.3-1.2.1-.9.3-1.3.4-.7.8-1 .7-.5 1.3-.6c.5-.1 1-.3 1.6-.3s1.3.1 1.7.3.9.4 1.3.8.6.7.8 1.1a3.08 3.08 0 0 1 .3 1.3h-1.5c0-.4-.1-.6-.2-.9s-.3-.5-.4-.7c-.2-.2-.4-.4-.8-.4-.4-.1-.7-.2-1.1-.2s-.7.1-1.1.2-.5.3-.7.4-.4.4-.4.6c-.1.3-.2.4-.2.7s.1.4.2.6.3.4.4.5c.2.2.4.4.8.4.4.2.7.3 1.3.4l1.7.6c.4.3.9.4 1.2.7s.5.6.7 1 .3.7.3 1.2-.1.9-.3 1.3-.4.7-.8 1-.8.4-1.3.6c-.4.2-1.1.2-1.6.2-.4 0-.7 0-1.1-.1l-1-.3c-.4-.1-.6-.3-.9-.4-.3-.2-.5-.4-.7-.7s-.4-.5-.4-.9c-.1-.4-.2-.7-.2-1.1h1.5a1.69 1.69 0 0 0 .3 1c.2.3.4.5.6.7.3.2.5.4.9.4.4.1.7.1 1.1.1.8 0 1.4-.2 1.8-.4.1-.3.1-.9.1-1.5zm-369.4 66.4c0-.3 0-.6-.1-.7-.1-.2-.3-.4-.5-.6s-.5-.4-.8-.5c-.4-.1-.8-.3-1.4-.5l-1.6-.6c-.5-.2-.8-.5-1.2-.7-.4-.3-.6-.6-.7-.9-.2-.4-.3-.7-.3-1.2s.1-.9.3-1.3.5-.7.8-1c.4-.3.7-.6 1.3-.7s1-.3 1.7-.3 1.3.1 1.8.3.9.5 1.3.8c.4.4.7.7.8 1.1a3.08 3.08 0 0 1 .3 1.3h-1.6c0-.4-.1-.7-.2-.9-.1-.3-.3-.6-.5-.7s-.5-.4-.8-.5c-.4-.1-.7-.2-1.1-.2-.5 0-.7.1-1.1.2s-.6.3-.7.4c-.2.1-.4.4-.5.7s-.2.5-.2.7c0 .3.1.5.2.7s.3.4.5.6.5.4.8.5c.4.2.7.3 1.3.5.7.2 1.3.4 1.8.7l1.2.7c.3.3.6.7.7 1 .2.4.3.7.3 1.2s-.1.9-.3 1.3-.5.7-.8 1c-.4.3-.8.5-1.3.7s-1.1.2-1.7.2c-.4 0-.7 0-1.1-.1l-1-.3c-.4-.1-.7-.3-.9-.5-.3-.2-.6-.5-.7-.7s-.4-.6-.5-.9-.2-.7-.2-1.1h1.6a1.69 1.69 0 0 0 .3 1c.2.3.4.6.7.7.3.2.6.4.9.5.4.1.7.1 1.1.1.8 0 1.5-.2 1.9-.5.2-.4.2-1 .2-1.5zm5.2-1.7v4.6h-1.6v-11.9h4.4c.7 0 1.3.1 1.8.3s.9.5 1.3.7c.4.3.7.7.8 1.1.2.4.3.9.3 1.5s-.1 1.1-.3 1.5a4.44 4.44 0 0 1-.8 1.1c-.4.3-.7.6-1.3.7s-1.1.3-1.8.3l-2.8.1zm0-1.3h2.8c.5 0 .8-.1 1.2-.2s.6-.3.8-.5a3.04 3.04 0 0 0 .5-.7c.1-.3.2-.6.2-.9s-.1-.6-.2-.9c-.1-.4-.3-.6-.5-.7-.2-.2-.5-.4-.8-.6s-.7-.2-1.2-.2h-2.8v4.7zm15.7.5H557v4.2h6v1.3h-7.5v-11.9h7.4v1.3h-6v3.8h5.1l.1 1.3zm9.5 0h-5.1v4.2h6v1.3H565v-11.9h7.4v1.3h-6v3.8h5.1l.1 1.3zm2.8 5.4v-11.9h3.3c.7 0 1.5.1 2.1.4.7.3 1.2.7 1.7 1.1s.8 1.1 1.1 1.8.4 1.5.4 2.3v.7c0 .8-.1 1.7-.4 2.3s-.7 1.3-1.1 1.8-1 .8-1.7 1.1-1.4.4-2.2.4h-3.2zm1.6-10.6v9.3h1.7c.7 0 1.2-.1 1.7-.3s.8-.5 1.2-.8c.4-.4.6-.8.7-1.4a5.23 5.23 0 0 0 .3-1.8v-.7c0-.7-.1-1.3-.3-1.9s-.4-1-.7-1.4-.7-.7-1.1-.8c-.4-.2-1-.3-1.6-.3l-1.9.1zm17.9 5.9h-2.8v4.8h-1.6v-12h3.9c1.3 0 2.3.3 3.1.9.7.7 1.1 1.5 1.1 2.7 0 .7-.2 1.4-.6 2s-.9.9-1.7 1.2l2.8 5v.1h-1.7l-2.5-4.7zm-2.8-1.3h2.4c.5 0 .8-.1 1.1-.2s.6-.3.8-.5c.3-.2.4-.5.5-.7s.2-.6.2-.8c0-.4-.1-.7-.2-.9-.1-.3-.3-.6-.5-.7-.2-.2-.5-.4-.8-.5-.4-.1-.7-.2-1.2-.2h-2.3v4.5zm15.4.6h-5.2v4.2h6v1.3h-7.5v-11.9h7.4v1.3h-5.9v3.8h5.1l.1 1.3zm9.4 2.4h-5l-1.1 3.1h-1.6l4.6-11.9h1.4l4.6 11.9h-1.6l-1.3-3.1zm-4.5-1.3h4.1l-2-5.6-2.1 5.6zm8.8 4.3v-11.9h3.3c.7 0 1.5.1 2.1.4.7.3 1.2.7 1.7 1.1s.8 1.1 1.1 1.8.4 1.5.4 2.3v.7c0 .8-.1 1.7-.4 2.3-.3.7-.7 1.3-1.1 1.8s-1 .8-1.7 1.1-1.4.4-2.2.4h-3.2zm1.6-10.6v9.3h1.7c.7 0 1.2-.1 1.7-.3s.8-.5 1.2-.8c.4-.4.6-.8.7-1.4a5.23 5.23 0 0 0 .3-1.8v-.7c0-.7-.1-1.3-.3-1.9s-.4-1-.7-1.4c-.4-.4-.7-.7-1.1-.8s-1-.3-1.6-.3l-1.9.1zm11.1 10.6h-1.6v-11.9h1.6v11.9zm12.1 0h-1.6l-6-9.2v9.2h-1.7v-11.9h1.6l6 9.2v-9.2h1.6v11.9h.1zm11.5-1.4c-.1.2-.3.4-.5.6s-.5.4-.8.6c-.4.2-.7.3-1.2.5s-1 .2-1.8.2c-.7 0-1.4-.1-2-.4s-1.1-.7-1.6-1.1-.7-1.1-1-1.8-.4-1.5-.4-2.4v-.9c0-.9.1-1.7.3-2.4s.6-1.3.9-1.8c.4-.5.9-.8 1.5-1.1s1.3-.4 2-.4 1.3.1 1.8.3.9.5 1.3.7c.4.3.7.7.8 1.1a5.27 5.27 0 0 1 .5 1.5h-1.6l-.3-.9c-.1-.2-.3-.6-.6-.7s-.5-.4-.8-.5c-.4-.1-.7-.2-1.2-.2-.6 0-1 .1-1.4.3s-.7.5-1 .8c-.3.4-.5.8-.6 1.4s-.2 1.1-.2 1.8v.9c0 .7.1 1.3.3 1.9s.4 1 .7 1.4.7.7 1.1.8c.4.2.8.3 1.4.3.5 0 .7 0 1.1-.1s.6-.1.7-.2c.2-.1.4-.2.5-.3l.3-.3v-2.7H652v-1.3h4.3v4.5l.2-.1zm-114.8 17.8l.2 1.6.4-1.4 2.3-8.3h1.3l2.3 8.3.4 1.4.3-1.6 1.9-8.2h1.6l-2.9 11.9h-1.4l-2.4-8.6-.2-.9-.2.9-2.5 8.6h-1.4l-2.9-11.9h1.6l1.6 8.2z"/><path d="M563.2 340.6c0 .9-.1 1.7-.4 2.4-.2.7-.6 1.3-.9 1.8s-.9.8-1.5 1.1-1.2.4-2 .4c-.7 0-1.4-.1-2-.4s-1.1-.7-1.5-1.1-.7-1.1-1-1.8-.4-1.5-.4-2.4v-.7c0-.9.1-1.7.4-2.4s.6-1.3 1-1.8.9-.8 1.5-1.1 1.2-.4 2-.4c.7 0 1.4.1 2 .4s1.1.7 1.5 1.1c.4.5.7 1.1.9 1.8s.4 1.5.4 2.4v.7zm-1.6-.7c0-.7-.1-1.3-.2-1.9-.2-.6-.4-1-.7-1.4s-.7-.7-1-.8c-.4-.2-.8-.3-1.4-.3-.5 0-.9.1-1.3.3s-.7.5-1 .8c-.3.4-.5.8-.7 1.4s-.2 1.2-.2 1.9v.7c0 .7.1 1.3.3 1.9s.4 1 .7 1.4.7.7 1 .8.8.3 1.3.3c.6 0 .9-.1 1.4-.3s.7-.5 1-.8c.3-.4.5-.8.7-1.4s.2-1.2.2-1.9l-.1-.7zm8.3 1.6h-2.8v4.8h-1.6v-11.9h3.9c1.3 0 2.3.3 3.1.9.7.7 1.1 1.5 1.1 2.7 0 .7-.2 1.4-.6 2s-.9.9-1.7 1.2l2.8 5v.1h-1.7l-2.5-4.8zm-2.8-1.3h2.4c.5 0 .8-.1 1.1-.2s.6-.3.8-.5a3.04 3.04 0 0 0 .5-.7c.1-.3.2-.6.2-.8 0-.4-.1-.7-.2-.9-.1-.3-.3-.6-.5-.7-.2-.2-.5-.4-.8-.5-.4-.1-.7-.2-1.2-.2h-2.3v4.5zm11.8.5l-1.5 1.5v4h-1.6v-11.9h1.6v5.9l1.3-1.4 4-4.5h1.9l-4.6 5.3 5 6.6h-1.9l-4.2-5.5zm13.8 2.5c0-.3 0-.6-.1-.7-.1-.2-.3-.4-.5-.6s-.5-.4-.8-.5c-.4-.2-.8-.3-1.4-.5l-1.6-.6c-.5-.2-.8-.5-1.2-.7-.4-.3-.6-.6-.7-.9-.2-.4-.3-.7-.3-1.2s.1-.9.3-1.3.5-.7.8-1c.4-.3.7-.6 1.3-.7s1-.3 1.7-.3 1.3.1 1.8.3.9.5 1.3.8c.4.4.7.7.8 1.1.2.4.3.9.3 1.4h-1.6c0-.4-.1-.7-.2-.9-.1-.3-.3-.6-.5-.7-.2-.2-.5-.4-.8-.5-.4-.1-.7-.2-1.1-.2-.5 0-.7.1-1.1.2s-.6.3-.7.4c-.2.2-.4.4-.5.7s-.2.5-.2.7c0 .3.1.5.2.7s.3.4.5.6.5.4.8.5c.4.2.7.3 1.3.5.7.2 1.3.4 1.8.7l1.2.7c.3.3.6.7.7 1 .2.4.3.7.3 1.2s-.1.9-.3 1.3-.5.7-.8 1c-.4.3-.8.5-1.3.7s-1.1.2-1.7.2c-.4 0-.7 0-1.1-.1l-1-.3c-.4-.1-.7-.3-.9-.5-.3-.2-.6-.5-.7-.7-.2-.3-.4-.6-.5-.9-.1-.4-.2-.7-.2-1.1h1.6a1.69 1.69 0 0 0 .3 1c.2.3.4.6.7.7.3.2.6.4.9.5.4.1.7.1 1.1.1.8 0 1.5-.2 1.9-.5s.2-1 .2-1.6zm12.7 3h-1.6v-5.5h-6v5.5h-1.6v-11.9h1.6v5.1h6v-5.1h1.6v11.9zm11.9-5.6c0 .9-.1 1.7-.4 2.4-.2.7-.6 1.3-.9 1.8-.4.5-.9.8-1.5 1.1s-1.2.4-2 .4-1.4-.1-2-.4-1.1-.7-1.5-1.1c-.4-.5-.7-1.1-1-1.8s-.4-1.5-.4-2.4v-.7c0-.9.1-1.7.4-2.4s.6-1.3 1-1.8.9-.8 1.5-1.1 1.2-.4 2-.4 1.4.1 2 .4 1.1.7 1.5 1.1c.4.5.7 1.1.9 1.8s.4 1.5.4 2.4v.7zm-1.5-.7c0-.7-.1-1.3-.2-1.9-.2-.6-.4-1-.7-1.4s-.7-.7-1-.8c-.4-.2-.8-.3-1.4-.3-.5 0-.9.1-1.3.3s-.7.5-1 .8c-.3.4-.5.8-.7 1.4s-.2 1.2-.2 1.9v.7c0 .7.1 1.3.3 1.9s.4 1 .7 1.4.7.7 1 .8c.4.2.8.3 1.3.3.6 0 .9-.1 1.4-.3s.7-.5 1-.8c.3-.4.5-.8.7-1.4s.2-1.2.2-1.9l-.1-.7zm5.5 1.7v4.6h-1.6v-11.9h4.4c.7 0 1.3.1 1.8.3s.9.5 1.3.7c.4.3.7.7.8 1.1.2.5.3.9.3 1.5s-.1 1.1-.3 1.5c-.2.5-.5.8-.8 1.1-.4.3-.7.6-1.3.7a5.23 5.23 0 0 1-1.8.3l-2.8.1zm0-1.3h2.8c.5 0 .8-.1 1.2-.2s.6-.3.8-.5a3.04 3.04 0 0 0 .5-.7 2.39 2.39 0 0 0 .2-.9c0-.3-.1-.6-.2-.9s-.3-.6-.5-.7c-.2-.2-.5-.4-.8-.6-.4-.2-.7-.2-1.2-.2h-2.8v4.7zm15.4 2.9c0-.3 0-.6-.1-.7-.1-.2-.3-.4-.5-.6s-.5-.4-.8-.5c-.4-.2-.8-.3-1.4-.5l-1.6-.6c-.5-.2-.8-.5-1.2-.7-.4-.3-.6-.6-.7-.9-.2-.4-.3-.7-.3-1.2s.1-.9.3-1.3.5-.7.8-1c.4-.3.7-.6 1.3-.7s1-.3 1.7-.3 1.3.1 1.8.3.9.5 1.3.8c.4.4.7.7.8 1.1.2.4.3.9.3 1.4h-1.6c0-.4-.1-.7-.2-.9s-.3-.6-.5-.7c-.2-.2-.5-.4-.8-.5-.4-.1-.7-.2-1.1-.2-.5 0-.7.1-1.1.2s-.6.3-.7.4c-.2.2-.4.4-.5.7s-.2.5-.2.7c0 .3.1.5.2.7s.3.4.5.6.5.4.8.5c.4.2.7.3 1.3.5.7.2 1.3.4 1.8.7l1.2.7c.3.3.6.7.7 1s.3.7.3 1.2-.1.9-.3 1.3-.5.7-.8 1c-.4.3-.8.5-1.3.7s-1.1.2-1.7.2c-.4 0-.7 0-1.1-.1l-1-.3c-.4-.1-.7-.3-.9-.5-.3-.2-.6-.5-.7-.7-.2-.3-.4-.6-.5-.9-.1-.4-.2-.7-.2-1.1h1.6a1.69 1.69 0 0 0 .3 1c.2.3.4.6.7.7.3.2.6.4.9.5.4.1.7.1 1.1.1.8 0 1.5-.2 1.9-.5s.2-1 .2-1.6zm7.1-.1c0-.4.1-.7.2-.9.1-.3.3-.6.5-.8.2-.3.5-.5.7-.7.3-.3.6-.5.9-.7-.2-.3-.4-.5-.6-.7-.2-.3-.3-.5-.5-.7-.1-.2-.2-.5-.3-.7s-.1-.5-.1-.7c0-.5.1-.8.2-1.2s.4-.7.7-.9.6-.5.9-.6c.4-.1.7-.2 1.2-.2s.8.1 1.2.2.7.3.9.6c.3.3.5.5.6.8.1.4.2.7.2.9s0 .6-.1.7c-.1.3-.2.5-.4.7s-.3.4-.5.6-.4.4-.7.6l-.9.7 2.6 3.2c.2-.4.3-.7.4-1.1s.2-.8.2-1.3h1.4c0 .7-.1 1.3-.3 1.9s-.4 1.1-.7 1.6l1.7 2h-1.9l-.8-.9a3.04 3.04 0 0 1-.7.5c-.3.2-.5.3-.7.4-.3.1-.6.2-.8.2-.3 0-.6.1-.8.1-.6 0-1.1-.1-1.6-.3s-.8-.4-1.2-.7-.6-.7-.7-1l-.2-1.6zm3.8 2.1c.4 0 .7-.1 1.1-.3s.7-.4 1-.7l-2.9-3.4-.4.3c-.3.2-.6.5-.7.7-.2.2-.3.4-.4.6s-.2.4-.2.5v.4c0 .3.1.6.2.8.1.3.3.5.5.7a3.04 3.04 0 0 0 .7.5c.4-.2.8-.1 1.1-.1zm-1.3-8.2c0 .3.1.7.3.9s.4.7.7 1l.8-.7c.2-.1.3-.2.5-.4l.4-.4c.1-.1.2-.3.2-.5s.1-.4.1-.6 0-.3-.1-.5-.2-.3-.3-.4-.3-.2-.5-.3-.4-.1-.7-.1-.5 0-.7.1-.4.2-.5.4-.2.3-.3.5c.1.6.1.8.1 1z"/><use xlink:href="#C"/><path d="M572.7 360.8h-5.1v4.2h6v1.3H566v-11.9h7.4v1.3h-6v3.8h5.1l.2 1.3zm4.8-6.4l3.9 9.7 3.9-9.7h2v11.9h-1.6v-4.6l.2-5-3.9 9.7h-1.2l-3.9-9.6.2 5v4.6h-1.6v-11.9l2-.1zm14.3 11.9h-1.6v-11.9h1.6v11.9zm12 0h-1.6l-6-9.2v9.2h-1.6v-11.9h1.6l6 9.2v-9.2h1.6v11.9zm9.5-3.1h-5l-1.1 3.1h-1.6l4.6-11.9h1.4l4.6 11.9h-1.6l-1.3-3.1zm-4.5-1.3h4.1l-2-5.6-2.1 5.6zm13.3-.3h-2.8v4.8h-1.6v-11.9h3.9c1.3 0 2.3.3 3.1.9s1.1 1.5 1.1 2.7c0 .7-.2 1.4-.6 2s-.9.9-1.7 1.2l2.8 5v.1h-1.8l-2.4-4.8zm-2.8-1.3h2.4c.5 0 .8-.1 1.1-.2s.6-.3.8-.5c.3-.2.4-.5.5-.7s.2-.6.2-.8c0-.4-.1-.7-.2-.9-.1-.3-.3-.6-.5-.7-.2-.2-.5-.4-.8-.5-.4-.1-.7-.2-1.2-.2h-2.3v4.5z"/><use xlink:href="#C" x="72"/><path d="M294.8 447.3c0 .8-.1 1.4-.3 2s-.4 1.1-.8 1.5-.8.7-1.2 1-1.1.4-1.7.4a3.53 3.53 0 0 1-1.7-.4c-.5-.3-.9-.5-1.3-1-.4-.4-.6-.9-.8-1.5s-.3-1.2-.3-2v-.6c0-.7.1-1.4.3-2s.4-1.1.8-1.5.8-.7 1.2-1c.5-.3 1.1-.4 1.7-.4a3.53 3.53 0 0 1 1.7.4c.6.3.9.5 1.2 1s.6 1 .8 1.5.3 1.2.3 2l.1.6zm-1.4-.6c0-.6-.1-1.1-.2-1.6-.1-.4-.3-.9-.5-1.1-.3-.4-.5-.5-.9-.7s-.7-.3-1.1-.3-.8.1-1.1.3c-.4.2-.6.4-.9.7-.3.4-.4.7-.5 1.1a6.96 6.96 0 0 0-.2 1.6v.6c0 .6.1 1.1.2 1.6.1.4.4.9.5 1.1.3.4.5.5.9.7s.7.3 1.1.3.8-.1 1.1-.3c.4-.2.6-.4.9-.7.3-.4.4-.7.5-1.1a6.96 6.96 0 0 0 .2-1.6v-.6zm11.1 5.3h-1.3l-5-7.8v7.8h-1.3v-10h1.3l5 7.8V442h1.3v10zm8-4.6h-4.4v3.5h5v1.1h-6.4v-10h6.3v1.1h-5v3.3h4.3l.2 1zm4.8.8H314v-1.1h3.4v1.1h-.1zm1.4 3.8v-10h2.8c.7 0 1.2.1 1.8.4s1 .5 1.4 1c.4.4.7.9.9 1.5s.4 1.2.4 1.9v.6c0 .7-.1 1.4-.4 1.9-.2.6-.5 1.1-.9 1.5s-.9.7-1.4 1c-.5.2-1.1.4-1.9.4h-2.7v-.2zm1.4-9v7.9h1.4c.5 0 1-.1 1.4-.3s.7-.4 1-.7.4-.7.6-1.1.2-1 .2-1.5v-.6c0-.6-.1-1.1-.2-1.5s-.4-.8-.6-1.1c-.3-.4-.6-.5-1-.7s-.8-.3-1.3-.3l-1.5-.1zm13.4 6.4h-4.2l-1 2.7H327l3.8-10.1h1.1l3.9 10.1h-1.3l-1-2.7zm-3.9-1.2h3.4l-1.7-4.7-1.7 4.7zm9.9-1.2l2.7-5h1.5l-3.4 6.3v3.7H339v-3.7l-3.4-6.3h1.5l2.4 5zm16.4 1.8c-.1.4-.2.9-.4 1.3s-.4.8-.7 1.1-.7.5-1.1.7-1 .3-1.6.3-1.1-.1-1.6-.4c-.4-.3-.9-.5-1.2-1-.4-.4-.6-.9-.8-1.5-.2-.5-.3-1.2-.3-1.9v-1c0-.7.1-1.3.3-1.9s.4-1.1.8-1.5.8-.7 1.2-1c.5-.3 1.1-.4 1.7-.4.5 0 1.1.1 1.5.3s.8.4 1.1.7.5.6.7 1.1c.2.4.3.9.4 1.3h-1.3c-.1-.4-.1-.7-.3-1-.1-.3-.3-.5-.4-.7-.2-.2-.4-.4-.7-.4s-.6-.2-1-.2-.8.1-1.1.3c-.4.2-.6.4-.9.7s-.4.7-.5 1.1-.2.9-.2 1.4v1.1c0 .5.1 1 .2 1.4s.3.8.4 1.1a1.56 1.56 0 0 0 .8.8c.4.2.7.3 1.1.3s.8-.1 1.1-.2.5-.3.7-.4c.2-.2.4-.4.4-.7l.3-1h1.4v.2zm9.5-1.5c0 .8-.1 1.4-.3 2s-.4 1.1-.8 1.5-.8.7-1.2 1-1.1.4-1.7.4a3.53 3.53 0 0 1-1.7-.4c-.5-.3-.9-.5-1.3-1-.4-.4-.6-.9-.8-1.5s-.3-1.2-.3-2v-.6c0-.7.1-1.4.3-2s.4-1.1.8-1.5.8-.7 1.2-1c.5-.3 1.1-.4 1.7-.4a3.53 3.53 0 0 1 1.7.4c.6.3.9.5 1.2 1s.6 1 .8 1.5.3 1.2.3 2l.1.6zm-1.3-.6c0-.6-.1-1.1-.2-1.6-.1-.4-.3-.9-.5-1.1-.3-.4-.5-.5-.9-.7s-.7-.3-1.1-.3-.8.1-1.1.3c-.4.2-.6.4-.9.7-.3.4-.4.7-.5 1.1a6.96 6.96 0 0 0-.2 1.6v.6c0 .6.1 1.1.2 1.6.1.4.4.9.5 1.1.3.4.5.5.9.7s.7.3 1.1.3.8-.1 1.1-.3c.4-.2.6-.4.9-.7.3-.4.4-.7.5-1.1a6.96 6.96 0 0 0 .2-1.6v-.6zm5-4.7l3.3 8.2 3.3-8.2h1.7v10.1H376v-3.9l.1-4.2-3.3 8.1h-1l-3.3-8.1.1 4.2v3.9h-1.3V442h1.8zm12.4 0l3.3 8.2 3.3-8.2h1.7v10.1h-1.3v-3.9l.1-4.2-3.3 8.1h-1L381 444l.1 4.2v3.9h-1.3V442h1.7zm17.7 0v6.8c0 .5-.1 1.1-.3 1.5s-.4.8-.8 1.1-.7.5-1.1.6c-.4.2-.9.2-1.4.2s-1-.1-1.4-.2l-1.1-.6c-.4-.3-.6-.6-.8-1.1-.2-.4-.3-.9-.3-1.5V442h1.3v6.8c0 .4.1.7.2 1.1.1.3.3.5.4.7.2.2.4.4.7.4.3.1.6.2 1 .2s.7-.1 1-.2.5-.3.7-.4c.2-.2.4-.4.4-.7.1-.3.2-.6.2-1.1V442h1.3zm9.8 10h-1.3l-5-7.8v7.8h-1.3v-10h1.3l5 7.8V442h1.3v10zm3.8 0h-1.3v-10h1.3v10zm9.2-9h-3.3v8.9h-1.3V443h-3.2v-1h7.8v1zm4.6 4l2.7-5h1.5l-3.4 6.3v3.7H426v-3.7l-3.4-6.3h1.5l2.5 5zm-117.9 18.8c-.1.4-.2.9-.4 1.3s-.4.8-.7 1.1-.7.5-1.1.7-1 .3-1.6.3-1.1-.1-1.6-.4c-.4-.3-.9-.5-1.2-1-.4-.4-.6-.9-.8-1.5-.2-.5-.3-1.2-.3-1.9v-1c0-.7.1-1.3.3-1.9s.4-1.1.8-1.5.8-.7 1.2-1c.5-.3 1.1-.4 1.7-.4.5 0 1.1.1 1.5.3s.8.4 1.1.7c.4.4.5.6.7 1.1.2.4.3.9.4 1.3h-1.3c-.1-.4-.1-.7-.3-1-.1-.3-.3-.5-.4-.7-.2-.2-.4-.4-.7-.4-.3-.1-.6-.2-1-.2s-.8.1-1.1.3c-.4.2-.6.4-.9.7s-.4.7-.5 1.1-.2.9-.2 1.4v1.1c0 .5.1 1 .2 1.4s.3.8.4 1.1a1.56 1.56 0 0 0 .8.8c.4.2.7.3 1.1.3s.8-.1 1.1-.2.5-.3.7-.4c.2-.2.4-.4.4-.7l.3-1h1.4v.2zm9.5-1.5c0 .8-.1 1.4-.3 2s-.4 1.1-.8 1.5-.8.7-1.2 1-1.1.4-1.7.4a3.53 3.53 0 0 1-1.7-.4c-.5-.3-.9-.5-1.3-1-.4-.4-.6-.9-.8-1.5s-.3-1.2-.3-2v-.6c0-.7.1-1.4.3-2s.4-1.1.8-1.5.8-.7 1.2-1c.5-.3 1.1-.4 1.7-.4a3.53 3.53 0 0 1 1.7.4c.5.3.9.5 1.2 1 .4.4.6 1 .8 1.5s.3 1.2.3 2l.1.6zm-1.3-.7c0-.6-.1-1.1-.2-1.6-.1-.4-.3-.9-.5-1.1-.3-.4-.5-.5-.9-.7s-.7-.3-1.1-.3-.8.1-1.1.3-.6.4-.9.7c-.3.4-.4.7-.5 1.1a6.96 6.96 0 0 0-.2 1.6v.6c0 .6.1 1.1.2 1.6.1.4.4.9.5 1.1.3.4.5.5.9.7s.7.3 1.1.3.8-.1 1.1-.3c.4-.2.6-.4.9-.7.3-.4.4-.7.5-1.1a6.96 6.96 0 0 0 .2-1.6v-.6zm4.6 4.3h4.8v1.1h-6.1v-10.1h1.3v9zm7.6 0h4.8v1.1h-6.1v-10.1h1.3v9z"/><use xlink:href="#D"/><path d="M350.8 467.6c-.1.2-.3.3-.4.4-.2.2-.4.4-.7.4-.3.2-.6.3-1.1.4-.4.1-.9.2-1.4.2a3.53 3.53 0 0 1-1.7-.4c-.5-.2-1-.5-1.3-1l-.9-1.5c-.2-.6-.4-1.2-.4-2v-.8c0-.7.1-1.4.3-2s.4-1.1.8-1.5.8-.7 1.2-1c.5-.2 1.1-.4 1.8-.4.6 0 1.1.1 1.5.3l1.1.6c.3.3.5.6.7 1s.3.8.4 1.2h-1.3c-.1-.3-.1-.5-.3-.8s-.3-.4-.4-.6c-.2-.2-.4-.4-.7-.4s-.6-.2-1-.2-.9.1-1.2.3c-.4.2-.6.4-.9.7s-.4.7-.5 1.1-.2 1-.2 1.5v.8c0 .6.1 1.1.2 1.6a2.27 2.27 0 0 0 .6 1.1c.2.2.5.5.9.7s.7.3 1.1.3.7 0 .9-.1.4-.1.6-.2.4-.2.4-.3l.3-.3v-2.3h-2.3v-1.1h3.6v4.1h.3v.2z"/><use xlink:href="#D" x="17.7"/><path d="M372 465.8c-.1.4-.2.9-.4 1.3s-.4.8-.7 1.1-.7.5-1.1.7-1 .3-1.6.3-1.1-.1-1.6-.4c-.4-.3-.9-.5-1.2-1s-.6-.9-.8-1.5c-.2-.5-.3-1.2-.3-1.9v-1c0-.7.1-1.3.3-1.9s.4-1.1.8-1.5.8-.7 1.2-1c.5-.3 1.1-.4 1.7-.4.5 0 1.1.1 1.5.3s.8.4 1.1.7c.4.4.5.6.7 1.1.2.4.3.9.4 1.3h-1.3c-.1-.4-.1-.7-.3-1-.1-.3-.3-.5-.4-.7-.2-.2-.4-.4-.7-.4-.3-.1-.6-.2-1-.2s-.8.1-1.1.3c-.4.2-.6.4-.9.7s-.4.7-.5 1.1-.2.9-.2 1.4v1.1c0 .5.1 1 .2 1.4s.3.8.4 1.1.4.6.8.8.7.3 1.1.3.8-.1 1.1-.2.5-.3.7-.4c.2-.2.4-.4.4-.7l.3-1h1.4v.2zm9.5-1.5c0 .8-.1 1.4-.3 2s-.4 1.1-.8 1.5-.8.7-1.2 1-1.1.4-1.7.4a3.53 3.53 0 0 1-1.7-.4c-.5-.3-.9-.5-1.3-1-.4-.4-.6-.9-.8-1.5s-.3-1.2-.3-2v-.6c0-.7.1-1.4.3-2s.4-1.1.8-1.5.8-.7 1.2-1c.5-.3 1.1-.4 1.7-.4a3.53 3.53 0 0 1 1.7.4c.5.3.9.5 1.2 1 .4.4.6 1 .8 1.5s.3 1.2.3 2l.1.6zm-1.2-.7c0-.6-.1-1.1-.2-1.6-.1-.4-.3-.9-.5-1.1-.3-.4-.5-.5-.9-.7s-.7-.3-1.1-.3-.8.1-1.1.3-.6.4-.9.7c-.3.4-.4.7-.5 1.1a6.96 6.96 0 0 0-.2 1.6v.6c0 .6.1 1.1.2 1.6.1.4.4.9.5 1.1.3.4.5.5.9.7s.7.3 1.1.3.8-.1 1.1-.3c.4-.2.6-.4.9-.7.3-.4.4-.7.5-1.1a6.96 6.96 0 0 0 .2-1.6v-.6zm10.3-4.7v6.8c0 .5-.1 1.1-.3 1.5s-.4.8-.8 1.1-.7.5-1.1.6c-.4.2-.9.2-1.4.2s-1-.1-1.4-.2l-1.1-.6c-.3-.2-.6-.6-.8-1.1-.2-.4-.3-.9-.3-1.5v-6.8h1.3v6.8c0 .4.1.7.2 1.1.1.3.3.5.4.7.2.2.4.4.7.4s.6.2 1 .2.7-.1 1-.2.5-.3.7-.4c.2-.2.4-.4.4-.7.1-.3.2-.6.2-1.1v-6.8h1.3zm5.8 6H394v4.1h-1.3v-10.1h3.4c1.1 0 2 .3 2.7.8.6.5.9 1.2.9 2.2 0 .6-.2 1.1-.5 1.7-.4.4-.8.8-1.4 1.1l2.4 4.2v.1h-1.4l-2.4-4.1zm-2.3-1.1h2c.4 0 .7-.1 1-.2s.5-.3.7-.4c.2-.2.4-.4.4-.6.1-.3.2-.4.2-.7s0-.5-.1-.8-.2-.4-.4-.6-.4-.3-.7-.4-.6-.2-1-.2h-2v3.9h-.1zm12.7 2.7c0-.3 0-.4-.1-.6s-.2-.4-.4-.5c-.2-.2-.4-.3-.7-.4-.3-.2-.7-.3-1.1-.4-.5-.2-1-.3-1.3-.5l-1.1-.6c-.3-.3-.5-.5-.6-.8s-.3-.6-.3-1.1c0-.4.1-.8.3-1.1.2-.4.4-.6.7-.9s.6-.4 1.1-.6c.4-.2.9-.2 1.4-.2s1.1.1 1.5.3.8.4 1.1.7.5.6.7 1 .3.7.3 1.1H407c0-.3-.1-.5-.2-.8s-.3-.4-.4-.6c-.2-.2-.4-.4-.7-.4-.3-.1-.6-.2-1-.2s-.7 0-.9.1-.4.2-.6.4-.3.4-.4.5c-.1.2-.1.4-.1.6s.1.4.2.6.3.4.4.4c.2.2.4.3.7.4s.6.3 1.1.4a13.14 13.14 0 0 0 1.5.5c.4.2.8.4 1.1.7s.4.5.6.8c.1.3.2.6.2 1.1s-.1.8-.3 1.1c-.2.4-.4.6-.7.9s-.7.4-1.1.5-.9.2-1.4.2c-.3 0-.6 0-.9-.1l-.9-.3c-.3-.1-.5-.3-.8-.4-.3-.2-.4-.4-.6-.6-.2-.3-.4-.4-.4-.8-.1-.3-.2-.6-.2-.9h1.3c0 .4.1.6.2.9.2.3.4.4.5.6.3.2.5.3.8.4s.6.1 1 .1c.7 0 1.2-.2 1.6-.4 0-.3.2-.7.2-1.1z"/><use xlink:href="#D" x="74.4"/></g><path d="M-453.8 135.4h6.6c.1 1.3.5 2.3 1.5 2.9s2.3 1 3.9 1c1.2 0 2.2-.2 3-.7s1.2-1.1 1.2-1.8c0-1.2-1.4-2-4.1-2.6-1.2-.2-2-.4-2.6-.6-3.4-.8-5.7-1.8-6.9-3-1.3-1.2-1.9-2.7-1.9-4.7 0-2.5.9-4.5 2.8-6.1 1.9-1.5 4.5-2.2 7.6-2.2 3.4 0 6 .7 8 2.2 1.9 1.6 2.9 3.7 3 6.3h-4.2c-1.2 0-2.2-.5-2.8-1.6l-.8-.8c-.8-.6-1.8-.9-3.2-.9-1.3 0-2.3.2-2.9.6s-.9 1-.9 1.7c0 1 1.7 1.9 5 2.6l1 .3c.3.1.6.1.8.1 3.3.8 5.6 1.8 6.9 2.9 1.2 1.2 1.8 2.7 1.8 4.7 0 2.8-1 5-3.1 6.6-1.9 1.4-4.8 2.1-8.7 2.1-3.7 0-6.4-.7-8.2-2.2-1.9-1.5-2.8-3.6-2.8-6.5v-.3zm31.1 14.7c0 .9-.3 1.7-1 2.3-.6.6-1.4 1-2.3 1h-3.3v-24.1c0-4.5 1.3-7.6 4-9.3 2.6-1.6 5.5-2.5 8.6-2.5 1.6 0 3.2.3 4.9.9 1.6.6 3 1.5 3.9 2.7 1.9 2.5 2.9 5.8 2.9 9.7 0 4.1-1 7.4-2.9 9.9s-4.4 3.7-7.5 3.7c-1.6 0-3-.3-4.3-.9s-2.3-1.6-3.1-3l.1 9.6zm11-19c0-2.5-.5-4.5-1.5-5.8-1-1.4-2.4-2-4.2-2-1.7 0-3.1.7-4.1 2-.9 1.2-1.4 3.2-1.4 5.8 0 2.5.5 4.3 1.5 5.5 1 1.4 2.4 2 4.2 2 1.7 0 3-.7 4-2s1.5-3.2 1.5-5.5zm26.4 4.9h4.8c-.7 2.7-2.1 4.8-4.1 6.2-2 1.5-4.5 2.2-7.6 2.2-3.7 0-6.6-1.2-8.6-3.6-2.1-2.3-3.1-5.7-3.1-10 0-4.1 1-7.4 3-9.7 2.1-2.4 4.9-3.6 8.6-3.6 3.9 0 6.9 1.2 9 3.5 2.1 2.4 3.1 5.7 3.1 10v1.1c0 .3 0 .6-.1.7h-16.8c.1 2 .5 3.5 1.5 4.5.8 1 2.1 1.5 3.8 1.5 1.1 0 2-.2 2.8-.7.2-.1.4-.2.5-.3l.5-.5c.1-.2.3-.5.7-.8.6-.4 1.2-.5 2-.5zm-11.6-7.6h9.9c-.1-1.7-.6-3-1.4-3.9s-2-1.4-3.6-1.4c-1.4 0-2.6.5-3.5 1.4s-1.3 2.2-1.4 3.9zm37.2 7.6h4.8c-.7 2.7-2.1 4.8-4.1 6.2-2 1.5-4.5 2.2-7.6 2.2-3.7 0-6.6-1.2-8.6-3.6-2.1-2.3-3.1-5.7-3.1-10 0-4.1 1-7.4 3-9.7 2.1-2.4 4.9-3.6 8.6-3.6 3.9 0 6.9 1.2 9 3.5 2.1 2.4 3.1 5.7 3.1 10v1.1c0 .3 0 .6-.1.7h-16.8c.1 2 .5 3.5 1.5 4.5.8 1 2.1 1.5 3.8 1.5 1.1 0 2-.2 2.8-.7.2-.1.4-.2.5-.3l.5-.5c.1-.2.3-.5.7-.8.6-.4 1.2-.5 2-.5zm-11.6-7.6h9.9c-.1-1.7-.6-3-1.4-3.9s-2-1.4-3.6-1.4c-1.4 0-2.6.5-3.5 1.4s-1.4 2.2-1.4 3.9zm35.8-17.9h3.3c.9 0 1.7.3 2.3 1s1 1.4 1 2.3v18.9c0 4.6-1.3 7.7-4 9.3s-5.5 2.4-8.6 2.4c-1.7 0-3.3-.3-4.9-.8a7.69 7.69 0 0 1-3.9-2.7c-1.9-2.4-2.8-5.7-2.8-9.8s.9-7.3 2.8-9.8 4.4-3.8 7.5-3.8c1.6 0 3 .3 4.3 1 1.3.8 2.3 1.8 3.1 3l-.1-11zm-11 20.3c0 2.6.5 4.6 1.5 5.9 1 1.4 2.4 2 4.2 2 1.7 0 3.1-.7 4.1-2 .9-1.4 1.4-3.3 1.4-5.9 0-2.3-.5-4.2-1.5-5.5s-2.4-1.9-4.2-1.9c-1.7 0-3 .7-4 2s-1.5 3.1-1.5 5.4zm20.4 13.1v-12.5c0-2.5.4-4.6 1.1-6.3s1.8-3.1 3.1-4.1c1.2-1 2.7-1.7 4.3-2.1 1.6-.5 3.3-.7 5.1-.7h1v6.9h-2.2c-1.9 0-3.3.5-4.2 1.4s-1.4 2.3-1.4 4.3v13.3h-6.8v-.2zm34-8.2h4.8c-.7 2.7-2.1 4.8-4.1 6.2-2 1.5-4.5 2.2-7.6 2.2-3.7 0-6.6-1.2-8.6-3.6-2.1-2.3-3.1-5.7-3.1-10 0-4.1 1-7.4 3-9.7 2.1-2.4 4.9-3.6 8.6-3.6 3.9 0 6.9 1.2 9 3.5 2.1 2.4 3.1 5.7 3.1 10v1.1c0 .3 0 .6-.1.7h-16.8c.1 2 .5 3.5 1.5 4.5.8 1 2.1 1.5 3.8 1.5 1.1 0 2-.2 2.8-.7.2-.1.4-.2.5-.3l.5-.5c.1-.2.3-.5.7-.8.6-.3 1.2-.5 2-.5zm-11.6-7.5h9.9c-.1-1.7-.6-3-1.4-3.9s-2-1.4-3.6-1.4c-1.4 0-2.6.5-3.5 1.4s-1.4 2.2-1.4 3.9zm35.1 14.6c-1.4.7-2.8 1.1-4.3 1.3s-2.9.2-4 .2c-2.3 0-4.4-.6-6.1-1.9s-2.6-3.3-2.6-6.3c0-2.7.8-4.7 2.4-5.8 1.6-1.2 3.6-1.9 6.1-2.3.3 0 .7 0 1.2-.1s1-.2 1.6-.2c2.8-.4 4.3-1.2 4.3-2.5 0-1-.5-1.6-1.5-1.9s-1.9-.4-2.8-.4-1.7.1-2.4.4-1.2.7-1.6 1.5h-6.5a7.77 7.77 0 0 1 2.7-4.9c1.7-1.5 4.2-2.2 7.5-2.2 3.6 0 6.3.6 8.1 1.8 1.9 1.3 2.8 3.1 2.8 5.4v8.8c0 2.6-.5 4.6-1.4 6.1-1.1 1.3-2.2 2.4-3.5 3zm-1.5-11.9c-.9.5-2.2.9-3.8 1.3l-2.2.5c-1.2.3-2 .7-2.5 1.3-.5.7-.7 1.4-.7 2.1 0 1 .3 1.7.9 2.3.6.5 1.4.8 2.5.8 1.8 0 3.2-.5 4.3-1.5 1-1 1.6-2.5 1.6-4.3l-.1-2.5zm25.5-20.4h3.3c.9 0 1.7.3 2.3 1s1 1.4 1 2.3v18.9c0 4.6-1.3 7.7-4 9.3s-5.5 2.4-8.6 2.4c-1.7 0-3.3-.3-4.9-.8a7.69 7.69 0 0 1-3.9-2.7c-1.9-2.4-2.8-5.7-2.8-9.8s.9-7.3 2.8-9.8 4.4-3.8 7.5-3.8c1.6 0 3 .3 4.3 1 1.3.8 2.3 1.8 3.1 3l-.1-11zm-11.1 20.3c0 2.6.5 4.6 1.5 5.9 1 1.4 2.4 2 4.2 2 1.7 0 3.1-.7 4.1-2 .9-1.4 1.4-3.3 1.4-5.9 0-2.3-.5-4.2-1.5-5.5s-2.4-1.9-4.2-1.9c-1.7 0-3 .7-4 2s-1.5 3.1-1.5 5.4zm20-13.2l3.5.2c.9 0 1.7.3 2.3 1 .6.6 1 1.4 1 2.3v22.5l-6.8-.2v-25.8zm32.4 26.3h-3.4c-1 0-1.8-.3-2.4-.9s-.9-1.4-.9-2.4v-13.2c0-1.6-.5-2.7-1.4-3.4s-2-1.1-3.1-1.1c-1.2 0-2.2.4-3.1 1.1s-1.4 1.8-1.4 3.4v16.5h-6.8v-15.1c0-4.4 1.1-7.3 3.4-8.8s4.8-2.3 7.6-2.4c2.8 0 5.5.7 7.9 2.2s3.6 4.5 3.6 9v15.1zm19.1-1.6v-1.6c-1.2 1.8-2.7 2.9-4.7 3.4s-3.9.3-5.9-.5c-1.9-.8-3.6-2.2-5-4.3s-2.1-4.9-2.1-8.3c0-4 .9-7.3 2.8-9.7 1.8-2.5 4.8-3.7 8.9-3.7 3.1 0 6 .8 8.6 2.5s4 4.8 4 9.3v13.7c0 4.5-1.3 7.6-4 9.3-2.7 1.6-5.5 2.5-8.6 2.5-5.9 0-9.6-2.8-11-8.3h7.1c.5.9 1.3 1.6 2.4 2.1s2.1.6 3.2.4 2-.9 2.9-1.9c.7-1.2 1.2-2.8 1.4-4.9zm-11.1-11.1c0 4.5 1.3 6.9 3.9 7.4s4.5-.1 5.7-1.8c.6-.7 1-1.8 1.3-3.3a11.36 11.36 0 0 0 0-4.5c-.2-1.5-.8-2.8-1.6-4s-2.1-1.7-3.7-1.7c-2.2 0-3.7.8-4.5 2.4-.7 1.6-1.1 3.4-1.1 5.5zm-40.4-20.6h3.5c.9 0 1.7.3 2.3 1 .6.6 1 1.4 1 2.3v2h-6.8v-5.3zm-230.8 44.7h-11.9c.2-8.4 2.1-15.4 5.6-23.3 3.1-7.4 7.6-15 13.9-22.6l-28.1.1v-9.6l36.8-.2c2.9 0 4.7 1 5.1 3.1s.1 3.9-1.2 5.4c-3.1 3.5-5.8 7.1-8.2 10.7s-4.4 7.6-6 11.4c-3.6 7.9-5.6 16.6-6 25zm-70.9-44.6V158s-17.4-14.6-39.9-9.7V97.7c-.1 0 27.5-4.5 39.9 13zm1.7 0V158s17.4-14.6 39.9-9.7V97.7s-27.6-4.5-39.9 13zm-75.8 2.5h30.3v5h-30.3zm11.8-11.7h18.5v5h-18.5z" opacity=".2" class="Q"/><path d="M895.8 311.3l-61-42.3-50.5 43.5v295.6h114.6V313.5z" class="U"/><path d="M895.8 311.3l-61-42.3-.9.7v338.4h65V313.5z" class="R"/><path d="M653.3 403.9l-61-29.1-50.5 29.9v203.4h114.6V405.4z" class="U"/><path d="M653.3 403.9l-61-29.1-.9.5v232.8h65V405.4z" class="R"/><g opacity=".2" fill="#ad5418"><path d="M132.6 250.9H143v306.2h-10.4z"/><path d="M132.6 173.4h352.3v175.3H132.6z"/></g><g fill="#f48134"><path d="M130.7 247.8h10.4V554h-10.4z"/><path d="M130.7 170.3H483v175.3H130.7z"/></g><path d="M413.8 493.4l-61-16.4-50.5 16.8v114.3h114.6V494.2z" class="U"/><path d="M413.8 493.4l-61-16.4-.9.3v130.8h65V494.2z" class="R"/><path d="M196.5 546.5l-61-8.8-50.5 9v61.4h114.7v-61.2z" fill="#f48134"/><path d="M196.5 546.5l-61-8.8-.8.1v70.3h65v-61.2z" fill="#ad5418"/><path d="M102.1 581.8c0-.5-.1-1-.3-1.4s-.4-.8-.8-1.2-.9-.7-1.5-1-1.4-.6-2.2-.9c-1.1-.3-2.1-.7-2.9-1.2l-2.2-1.5c-.6-.6-1.1-1.3-1.4-2.1s-.5-1.7-.5-2.7c0-.9.1-1.8.4-2.6s.7-1.5 1.2-2c.5-.6 1.2-1 1.9-1.4.8-.4 1.6-.6 2.5-.7v-3.7h2.5v3.8c1.9.3 3.4 1.1 4.5 2.4s1.6 3.2 1.6 5.5h-3.1c0-.8-.1-1.5-.3-2.1s-.5-1.2-.8-1.7c-.4-.5-.8-.8-1.3-1.1s-1.1-.4-1.8-.4-1.3.1-1.9.3c-.5.2-1 .5-1.3.8s-.6.8-.8 1.3-.3 1-.3 1.6c0 .5.1 1 .2 1.5.2.4.4.8.8 1.2s.9.7 1.5 1 1.4.6 2.4.9l2.9 1.2c.8.4 1.6.9 2.2 1.5s1 1.3 1.3 2c.3.8.5 1.6.5 2.6s-.2 1.9-.5 2.7-.7 1.5-1.3 2c-.6.6-1.3 1-2.1 1.4-.8.3-1.7.6-2.7.7v3.3H96v-3.3c-.9-.1-1.7-.3-2.5-.6s-1.5-.8-2.2-1.4c-.6-.6-1.1-1.4-1.5-2.3s-.6-2-.6-3.3h3.2c0 1 .1 1.8.4 2.4s.7 1.1 1.1 1.5c.5.4 1 .6 1.5.8.6.1 1.1.2 1.7.2.8 0 1.4-.1 2-.3a5.3 5.3 0 0 0 1.5-.8c.4-.3.7-.8.9-1.3.5-.4.6-1 .6-1.6zm23.2-16.7L115 588.2h-3.3l10.3-22.3h-13.5v-2.6h16.8v1.8zm7 20.5c1.7 0 3.1-.2 4.2-.7s2-1.1 2.6-1.8c.6-.8 1.1-1.7 1.4-2.6.3-1 .4-2 .5-3.1-.7.8-1.5 1.4-2.4 1.9s-1.9.7-3 .7c-1.2 0-2.3-.2-3.2-.7s-1.6-1.1-2.2-1.9-1-1.7-1.3-2.7-.4-2-.4-3c0-1.2.2-2.3.5-3.3s.8-2 1.5-2.7c.6-.8 1.4-1.4 2.4-1.8s2.1-.7 3.3-.7c1.4 0 2.6.3 3.6.9s1.8 1.3 2.5 2.3c.6.9 1.1 2 1.4 3.2s.4 2.4.4 3.7v1.1c0 1.1-.1 2.2-.2 3.3s-.3 2.2-.6 3.2-.7 2-1.3 2.9c-.5.9-1.3 1.7-2.1 2.4-.9.7-1.9 1.2-3.2 1.6s-2.7.6-4.5.6h-.3v-2.7h.4v-.1zm3.8-8.3a4.53 4.53 0 0 0 1.6-.3c.5-.2 1-.4 1.4-.7a5.73 5.73 0 0 0 1.1-1.1 9.13 9.13 0 0 0 .8-1.3v-1.3c0-1.1-.1-2.1-.4-3s-.6-1.6-1.1-2.2c-.4-.6-.9-1-1.5-1.3s-1.2-.5-1.8-.5c-.7 0-1.4.1-2 .4s-1.1.7-1.4 1.2c-.4.5-.7 1.1-.9 1.8s-.3 1.5-.3 2.3a8.33 8.33 0 0 0 .3 2.2c.2.7.5 1.3.8 1.9.4.5.8 1 1.4 1.3.6.4 1.3.6 2 .6zm12.8 9.2c0-.5.2-1 .5-1.4s.8-.5 1.5-.5 1.1.2 1.5.5c.3.4.5.8.5 1.4 0 .5-.2 1-.5 1.3-.3.4-.8.5-1.5.5s-1.1-.2-1.5-.5c-.3-.3-.5-.7-.5-1.3zm12.3-.9c1.7 0 3.1-.2 4.2-.7s2-1.1 2.6-1.8c.6-.8 1.1-1.7 1.4-2.6.3-1 .4-2 .5-3.1-.7.8-1.5 1.4-2.4 1.9s-1.9.7-3 .7c-1.2 0-2.3-.2-3.2-.7s-1.6-1.1-2.2-1.9-1-1.7-1.3-2.7-.4-2-.4-3c0-1.2.2-2.3.5-3.3s.8-2 1.5-2.7c.6-.8 1.4-1.4 2.4-1.8s2.1-.7 3.3-.7c1.4 0 2.6.3 3.6.9s1.8 1.3 2.5 2.3c.6.9 1.1 2 1.4 3.2s.4 2.4.4 3.7v1.1c0 1.1-.1 2.2-.2 3.3s-.3 2.2-.6 3.2-.7 2-1.3 2.9c-.5.9-1.3 1.7-2.1 2.4-.9.7-1.9 1.2-3.2 1.6s-2.7.6-4.5.6h-.3v-2.7h.4v-.1zm3.8-8.3a4.53 4.53 0 0 0 1.6-.3c.5-.2 1-.4 1.4-.7a5.73 5.73 0 0 0 1.1-1.1 9.13 9.13 0 0 0 .8-1.3v-1.3c0-1.1-.1-2.1-.4-3s-.6-1.6-1.1-2.2c-.4-.6-.9-1-1.5-1.3s-1.2-.5-1.8-.5c-.7 0-1.4.1-2 .4s-1.1.7-1.4 1.2c-.4.5-.7 1.1-.9 1.8s-.3 1.5-.3 2.3a8.33 8.33 0 0 0 .3 2.2c.2.7.5 1.3.8 1.9.4.5.8 1 1.4 1.3.6.4 1.2.6 2 .6zm13.8-1.6l1.3-12.4h12.7v2.9h-10.1l-.8 6.8c.4-.3 1-.5 1.7-.7s1.5-.3 2.4-.3c1.1 0 2.2.2 3.1.6s1.7 1 2.3 1.7 1.1 1.6 1.5 2.6.5 2.2.5 3.4-.2 2.3-.5 3.3-.8 1.9-1.5 2.6c-.6.7-1.5 1.3-2.5 1.7s-2.1.6-3.5.6c-1 0-2-.1-2.8-.4-.9-.3-1.7-.7-2.4-1.3s-1.3-1.3-1.7-2.2-.7-1.9-.8-3h3c.2 1.4.7 2.5 1.5 3.2s1.9 1.1 3.2 1.1c.8 0 1.4-.1 2-.4s1.1-.6 1.5-1.1.7-1.1.9-1.8.3-1.5.3-2.3-.1-1.5-.3-2.2-.5-1.3-1-1.8c-.4-.5-.9-.9-1.6-1.2-.6-.3-1.3-.4-2.1-.4-.5 0-1 0-1.4.1l-1 .3c-.3.1-.6.3-.8.5-.3.2-.5.4-.8.7l-2.3-.6z" fill="#1a1a1a"/><g class="P"><path d="M793 333.1c0-.3 0-.5-.1-.6-.1-.2-.2-.4-.4-.5s-.5-.4-.7-.5c-.3-.2-.6-.3-1.1-.5l-1.4-.5c-.4-.2-.7-.5-1-.7-.3-.3-.5-.6-.6-1s-.2-.8-.2-1.3.1-.8.2-1.2.4-.7.5-.9c.3-.3.5-.5.9-.6.4-.2.7-.3 1.2-.4v-1.7h1.2v1.7c.9.1 1.6.5 2.1 1.1s.7 1.5.7 2.6h-1.5c0-.4 0-.7-.1-1s-.2-.5-.4-.8c-.2-.2-.4-.4-.6-.5-.3-.1-.5-.2-.8-.2-.4 0-.6 0-.9.1s-.5.2-.6.4c-.2.2-.3.4-.4.5-.1.2-.1.5-.1.7 0 .3 0 .5.1.7s.2.4.4.5a3.04 3.04 0 0 0 .7.5c.3.2.6.3 1.1.5l1.4.5c.4.2.7.5 1 .7.3.3.5.5.6.9s.2.7.2 1.3c0 .5-.1.9-.2 1.3s-.4.7-.6.9c-.3.2-.6.5-1 .6-.4.2-.8.3-1.3.3v1.6h-1.1V336c-.5 0-.8-.1-1.2-.3s-.7-.4-1-.6c-.3-.3-.5-.6-.7-1.1s-.3-.9-.3-1.6h1.5c0 .5.1.8.2 1.1s.3.5.5.7.5.3.7.4c.3.1.5.1.8.1.4 0 .6 0 .9-.1s.5-.2.7-.4.4-.4.5-.6c.2.1.2-.2.2-.5zm11.1 3.1h-7.7v-1.1l3.8-4.3c.4-.4.6-.7.9-1s.5-.5.5-.8c.2-.3.3-.5.3-.7.1-.2.1-.5.1-.6 0-.3 0-.5-.1-.8s-.2-.5-.4-.6c-.2-.2-.4-.4-.6-.5-.3-.1-.5-.2-.8-.2-.4 0-.7.1-1 .2s-.5.3-.7.5a3.04 3.04 0 0 0-.5.7c-.1.3-.2.6-.2 1h-1.5c0-.5.1-.9.3-1.4s.4-.8.7-1.2c.4-.4.7-.5 1.2-.7s1-.3 1.6-.3c.5 0 1 .1 1.5.2.5.2.8.4 1.1.6.3.3.5.6.7 1s.3.8.3 1.3c0 .4-.1.7-.2 1a4.67 4.67 0 0 1-.5 1c-.2.4-.5.7-.7 1l-.8 1-3.1 3.4h5.9v1.4h-.1v-.1z"/><use xlink:href="#E"/><use xlink:href="#F"/><path d="M825.4 331.1c0 .9-.1 1.7-.3 2.4-.2.6-.5 1.2-.7 1.6a2.73 2.73 0 0 1-1.2.9c-.5.2-1 .3-1.6.3s-1.1-.1-1.6-.3-.8-.5-1.2-.9-.5-.9-.7-1.6c-.2-.6-.3-1.5-.3-2.4v-1.8c0-.9.1-1.7.3-2.4.2-.6.5-1.2.7-1.6.3-.4.7-.6 1.2-.8s1-.3 1.6-.3a4.53 4.53 0 0 1 1.6.3c.5.2.8.5 1.2.8.4.4.5.9.7 1.6.2.6.3 1.5.3 2.4v1.8zm-1.5-2a6.96 6.96 0 0 0-.2-1.6c-.1-.5-.3-.8-.5-1.1s-.5-.5-.7-.6-.5-.2-.9-.2-.6.1-.9.2-.5.4-.7.6-.4.6-.5 1.1-.2 1-.2 1.6v2.3a6.96 6.96 0 0 0 .2 1.6c.1.4.3.8.5 1.2.2.3.5.5.7.6.3.1.5.2.9.2s.6-.1.9-.2.5-.4.7-.6c.2-.3.4-.6.5-1.2.1-.5.1-1 .1-1.6l.1-2.3zm10.8 2c0 .9-.1 1.7-.3 2.4-.2.6-.5 1.2-.7 1.6a2.73 2.73 0 0 1-1.2.9c-.5.2-1 .3-1.6.3a4.53 4.53 0 0 1-1.6-.3c-.5-.2-.8-.5-1.2-.9s-.5-.9-.7-1.6c-.2-.6-.3-1.5-.3-2.4v-1.8c0-.9.1-1.7.3-2.4.2-.6.5-1.2.7-1.6.3-.4.7-.6 1.2-.8s1-.3 1.6-.3 1.1.1 1.6.3.8.5 1.2.8c.4.4.5.9.7 1.6.2.6.3 1.5.3 2.4v1.8zm-1.5-2a6.96 6.96 0 0 0-.2-1.6c-.1-.5-.3-.8-.5-1.1s-.5-.5-.7-.6-.5-.2-.9-.2-.6.1-.9.2-.5.4-.7.6-.4.6-.5 1.1-.2 1-.2 1.6v2.3a6.96 6.96 0 0 0 .2 1.6c.1.4.3.8.5 1.2.2.3.5.5.7.6.3.1.5.2.9.2s.6-.1.9-.2.5-.4.7-.6c.2-.3.4-.6.5-1.2.1-.5.1-1 .1-1.6l.1-2.3zm10.7 2.7H840v-1.2h3.9v1.2zm11.4 1.3c0-.3 0-.5-.1-.6s-.2-.4-.4-.5-.5-.4-.7-.5c-.3-.2-.6-.3-1.1-.5l-1.4-.5c-.4-.2-.7-.5-1-.7s-.5-.6-.6-1c-.2-.4-.2-.8-.2-1.3s.1-.8.2-1.2.4-.7.5-.9c.3-.3.5-.5.9-.6.4-.2.7-.3 1.2-.4v-1.7h1.2v1.7c.9.1 1.6.5 2.1 1.1s.7 1.5.7 2.6h-1.5c0-.4 0-.7-.1-1s-.2-.5-.4-.8c-.2-.2-.4-.4-.6-.5-.3-.1-.5-.2-.8-.2-.4 0-.6 0-.9.1s-.5.2-.6.4c-.2.2-.3.4-.4.5-.1.2-.1.5-.1.7 0 .3 0 .5.1.7s.2.4.4.5a3.04 3.04 0 0 0 .7.5c.3.2.6.3 1.1.5l1.4.5c.4.2.7.5 1 .7.3.3.5.5.6.9s.2.7.2 1.3c0 .5-.1.9-.2 1.3s-.4.7-.6.9c-.3.2-.6.5-1 .6-.4.2-.8.3-1.3.3v1.6h-1.2V336c-.5 0-.8-.1-1.2-.3s-.7-.4-1-.6c-.3-.3-.5-.6-.7-1.1s-.3-.9-.3-1.6h1.5c0 .5.1.8.2 1.1s.3.5.5.7.5.3.7.4.5.1.8.1c.4 0 .6 0 .9-.1s.5-.2.7-.4.4-.4.5-.6c.2.1.3-.2.3-.5zm5.5-3.5h1.1c.4 0 .7-.1 1-.2s.5-.3.7-.5.4-.4.5-.6c.1-.3.2-.5.2-.8 0-.6-.2-1.2-.5-1.6-.4-.4-.8-.5-1.6-.5-.3 0-.6.1-.8.2-.3.1-.5.2-.6.4-.2.2-.4.4-.5.6-.1.3-.2.5-.2.8h-1.5c0-.5.1-.9.3-1.3s.5-.7.7-1c.3-.3.7-.5 1.1-.7.5-.2.9-.3 1.5-.3.5 0 1 .1 1.5.2.5.2.8.4 1.1.6s.5.6.7 1 .3.9.3 1.5c0 .2 0 .5-.1.7-.1.3-.2.5-.4.7s-.4.5-.5.6c-.3.2-.5.4-.8.5.4.1.7.3 1 .5s.5.5.6.6c.2.2.3.5.4.8s.1.5.1.8c0 .5-.1 1-.3 1.5s-.5.8-.8 1.1c-.4.3-.7.5-1.2.6-.5.2-.9.3-1.5.3-.5 0-1-.1-1.5-.2-.5-.2-.8-.4-1.2-.6-.4-.3-.6-.6-.8-1s-.3-.8-.3-1.4h1.5c0 .3.1.5.2.8s.3.5.5.6c.2.2.5.3.7.5.3.2.5.2.9.2s.6 0 .9-.1.5-.2.7-.4.4-.4.5-.6c.1-.3.2-.5.2-.9s-.1-.6-.2-.9-.3-.5-.5-.6-.5-.3-.8-.4c-.4-.1-.6-.1-1-.1h-1.3v-1.4z"/><use xlink:href="#E" x="62.3"/><path d="M871.7 330.3l.6-5.9h6v1.4h-4.9l-.4 3.2c.2-.1.5-.3.8-.4.4-.1.7-.2 1.2-.2s1 .1 1.5.3.8.5 1.1.8c.3.4.5.7.7 1.2s.3 1 .3 1.6a4.53 4.53 0 0 1-.3 1.6c-.2.5-.4.9-.7 1.2-.3.4-.7.6-1.2.8s-1 .3-1.6.3c-.5 0-.9-.1-1.4-.2s-.8-.4-1.1-.6c-.3-.3-.6-.6-.8-1s-.4-.9-.4-1.5h1.4c.1.6.4 1.2.7 1.6.4.4.9.5 1.6.5.4 0 .6-.1.9-.2s.5-.3.7-.5c.2-.3.4-.5.5-.8.1-.4.2-.7.2-1.1s-.1-.7-.2-1-.3-.5-.5-.8-.5-.5-.7-.5c-.3-.1-.6-.2-1-.2-.3 0-.5 0-.6.1-.2.1-.4.1-.5.2s-.3.2-.4.3-.3.2-.4.3l-1.1-.5z"/><use xlink:href="#F" x="71.5"/><path d="M896.9 331.1c0 .9-.1 1.7-.3 2.4-.2.6-.5 1.2-.7 1.6a2.73 2.73 0 0 1-1.2.9c-.5.2-1 .3-1.6.3s-1.1-.1-1.6-.3-.8-.5-1.2-.9-.5-.9-.7-1.6c-.2-.6-.3-1.5-.3-2.4v-1.8c0-.9.1-1.7.3-2.4.2-.6.5-1.2.7-1.6.3-.4.7-.6 1.2-.8s1-.3 1.6-.3a4.53 4.53 0 0 1 1.6.3c.5.2.8.5 1.2.8.4.4.5.9.7 1.6.2.6.3 1.5.3 2.4v1.8zm-1.4-2a6.96 6.96 0 0 0-.2-1.6c-.1-.5-.3-.8-.5-1.1s-.5-.5-.7-.6c-.3-.2-.5-.2-.9-.2s-.6.1-.9.2-.5.4-.7.6-.4.6-.5 1.1-.2 1-.2 1.6v2.3a6.96 6.96 0 0 0 .2 1.6c.1.4.3.8.5 1.2.2.3.5.5.7.6.3.1.5.2.9.2s.6-.1.9-.2.5-.4.7-.6c.2-.3.4-.6.5-1.2.1-.5.1-1 .1-1.6l.1-2.3zm-338.7 96.6c0-.2 0-.4-.1-.6s-.2-.4-.4-.5c-.2-.2-.4-.3-.7-.5s-.6-.3-1-.4c-.5-.1-.9-.3-1.3-.5s-.7-.4-1-.7-.5-.6-.6-.9a3.73 3.73 0 0 1-.2-1.2c0-.4.1-.8.2-1.1s.3-.6.5-.9.5-.5.9-.6.7-.3 1.1-.3v-1.7h1.1v1.7c.9.1 1.5.5 2 1.1s.7 1.4.7 2.5h-1.4c0-.3 0-.7-.1-.9s-.2-.5-.4-.7-.4-.4-.6-.5-.5-.2-.8-.2-.6 0-.8.1-.4.2-.6.4-.3.3-.3.6c-.1.2-.1.5-.1.7s0 .5.1.7.2.4.4.5c.2.2.4.3.7.5.3.1.6.3 1 .4l1.3.5c.4.2.7.4 1 .7s.5.6.6.9a3.73 3.73 0 0 1 .2 1.2c0 .4-.1.8-.2 1.2-.1.3-.3.6-.6.9s-.6.5-.9.6c-.4.2-.8.3-1.2.3v1.4h-1.1V429c-.4 0-.8-.1-1.1-.3-.4-.1-.7-.3-1-.6s-.5-.6-.7-1-.3-.9-.3-1.5h1.4c0 .4.1.8.2 1.1s.3.5.5.7.4.3.7.3c.3.1.5.1.8.1s.6 0 .9-.1.5-.2.7-.4.3-.3.4-.6c0-.5.1-.7.1-1zm3.8-2.7l.6-5.5h5.7v1.3h-4.5l-.3 3c.2-.1.5-.2.8-.3s.7-.2 1.1-.2c.5 0 1 .1 1.4.3s.8.4 1 .7.5.7.7 1.2.2 1 .2 1.5-.1 1-.2 1.5c-.1.4-.4.8-.6 1.2a4.44 4.44 0 0 1-1.1.8c-.4.2-1 .3-1.5.3-.4 0-.9-.1-1.3-.2s-.8-.3-1.1-.6-.6-.6-.8-1-.3-.8-.4-1.4h1.3c.1.6.3 1.1.7 1.4s.8.5 1.4.5c.3 0 .6-.1.9-.2s.5-.3.7-.5.3-.5.4-.8.1-.7.1-1 0-.7-.1-1-.2-.6-.4-.8-.4-.4-.7-.5-.6-.2-.9-.2h-.6c-.2 0-.3.1-.5.1-.1.1-.3.1-.4.2a1.38 1.38 0 0 1-.4.3l-1.2-.1z"/><use xlink:href="#G"/><use xlink:href="#H"/><path d="M593 424.5h-3.7v-1.1h3.7v1.1zm10.7 1.2c0-.2 0-.4-.1-.6s-.2-.4-.4-.5c-.2-.2-.4-.3-.7-.5s-.6-.3-1-.4c-.5-.1-.9-.3-1.3-.5s-.7-.4-1-.7-.5-.6-.6-.9a3.73 3.73 0 0 1-.2-1.2c0-.4.1-.8.2-1.1s.3-.6.5-.9.5-.5.9-.6.7-.3 1.1-.3v-1.7h1.1v1.7c.9.1 1.5.5 2 1.1s.7 1.4.7 2.5h-1.3c0-.3 0-.7-.1-.9s-.2-.5-.4-.7-.4-.4-.6-.5-.5-.2-.8-.2-.6 0-.8.1-.4.2-.6.4-.3.3-.3.6c-.1.2-.1.5-.1.7s0 .5.1.7.2.4.4.5c.2.2.4.3.7.5.3.1.6.3 1 .4l1.3.5c.4.2.7.4 1 .7s.5.6.6.9a3.73 3.73 0 0 1 .2 1.2c0 .4-.1.8-.2 1.2-.1.3-.3.6-.6.9s-.6.5-.9.6c-.4.2-.8.3-1.2.3v1.4h-1.1V429c-.4 0-.8-.1-1.1-.3-.4-.1-.7-.3-1-.6s-.5-.6-.7-1-.3-.9-.3-1.5h1.4c0 .4.1.8.2 1.1s.3.5.5.7.4.3.7.3c.3.1.5.1.8.1s.6 0 .9-.1.5-.2.7-.4.3-.3.4-.6c-.1-.5 0-.7 0-1zm7.7 2.9H610v-9.4l-2.8 1v-1.3l4-1.5h.2v11.2zm5.6-.6c0 .2 0 .5-.1.7s-.1.5-.3.7c-.1.2-.3.5-.4.7s-.3.4-.6.6l-.8-.5.6-1c.2-.3.2-.7.2-1.1V427h1.4v1z"/><use xlink:href="#G" x="49.9"/><use xlink:href="#H" x="50"/><use xlink:href="#G" x="67.4"/></g><g opacity=".2" class="Q"><use xlink:href="#I"/><use xlink:href="#J"/><use xlink:href="#K"/><use xlink:href="#L"/><path d="M344.4 198.4h2.2c.6 0 1.1.2 1.5.7s.7.9.7 1.5V213c0 3-.9 5.1-2.6 6.1s-3.6 1.6-5.6 1.6c-1.1 0-2.2-.2-3.2-.5-1.1-.3-1.9-.9-2.6-1.8-1.2-1.6-1.8-3.7-1.8-6.4s.6-4.8 1.8-6.4 2.9-2.5 4.9-2.5c1.1 0 2 .2 2.8.7.9.5 1.5 1.2 2 2l-.1-7.4zm-7.3 13.3c0 1.7.3 3 1 3.9s1.6 1.3 2.8 1.3c1.1 0 2-.5 2.7-1.3.6-.9.9-2.2.9-3.9 0-1.5-.3-2.8-1-3.6-.7-.9-1.6-1.2-2.8-1.2a3.17 3.17 0 0 0-2.6 1.3c-.6.8-1 2-1 3.5z"/><use xlink:href="#M"/><use xlink:href="#N"/><use xlink:href="#O"/><path d="M404.1 198.4h2.2c.6 0 1.1.2 1.5.7s.7.9.7 1.5V213c0 3-.9 5.1-2.6 6.1s-3.6 1.6-5.6 1.6c-1.1 0-2.2-.2-3.2-.5-1.1-.3-1.9-.9-2.6-1.8-1.2-1.6-1.8-3.7-1.8-6.4s.6-4.8 1.8-6.4 2.9-2.5 4.9-2.5c1.1 0 2 .2 2.8.7.9.5 1.5 1.2 2 2l-.1-7.4zm-7.3 13.3c0 1.7.3 3 1 3.9s1.6 1.3 2.8 1.3c1.1 0 2-.5 2.7-1.3.6-.9.9-2.2.9-3.9 0-1.5-.3-2.8-1-3.6-.7-.9-1.6-1.2-2.8-1.2a3.17 3.17 0 0 0-2.6 1.3c-.7.8-1 2-1 3.5zm13.1-8.7l2.3.1c.6 0 1.1.2 1.5.7.4.4.7.9.7 1.5v14.8l-4.5-.1v-17zm21.3 17.3H429c-.7 0-1.2-.2-1.6-.6s-.6-.9-.6-1.6v-8.7c0-1.1-.3-1.8-.9-2.2-.6-.5-1.3-.7-2-.7-.8 0-1.4.3-2 .7-.6.5-.9 1.2-.9 2.2v10.8h-4.5v-9.9c0-2.9.7-4.8 2.2-5.8s3.2-1.5 5-1.6c1.8 0 3.6.5 5.2 1.4 1.6 1 2.4 3 2.4 5.9l-.1 10.1z"/><use xlink:href="#P"/><path d="M409.9 198.4h2.3c.6 0 1.1.2 1.5.7.4.4.7.9.7 1.5v1.3h-4.5v-3.5z"/><use xlink:href="#Q"/><path d="M211.8 198.5v31.1s-11.4-9.6-26.2-6.4V190c-.1 0 18.1-3 26.2 8.5zm1.1 0v31.1s11.4-9.6 26.2-6.4V190s-18.1-3-26.2 8.5zm-49.7 1.6h19.9v3.3h-19.9zm7.7-7.7H183v3.3h-12.1z"/></g><path d="M342 508c0-.2 0-.4-.1-.6s-.2-.4-.4-.5c-.2-.2-.4-.3-.7-.5s-.6-.3-1-.4c-.5-.1-.9-.3-1.3-.5s-.7-.4-1-.7-.5-.6-.6-.9a3.73 3.73 0 0 1-.2-1.2c0-.4.1-.8.2-1.1s.3-.6.5-.9.5-.5.9-.6.7-.3 1.1-.3v-1.7h1.1v1.7c.9.1 1.5.5 2 1.1s.7 1.4.7 2.5h-1.4c0-.3 0-.7-.1-.9s-.2-.5-.4-.7-.4-.4-.6-.5-.5-.2-.8-.2-.6 0-.8.1-.4.2-.6.4-.3.3-.3.6c-.1.2-.1.5-.1.7s0 .5.1.7.2.4.4.5c.2.2.4.3.7.5.3.1.6.3 1 .4l1.3.5c.4.2.7.4 1 .7s.5.6.6.9a3.73 3.73 0 0 1 .2 1.2c0 .4-.1.8-.2 1.2-.1.3-.3.6-.6.9s-.6.5-.9.6c-.4.2-.8.3-1.2.3v1.4h-1.1v-1.4c-.4 0-.8-.1-1.1-.3-.4-.1-.7-.3-1-.6s-.5-.6-.7-1-.3-.9-.3-1.5h1.4c0 .4.1.8.2 1.1s.3.5.5.7.4.3.7.3c.3.1.5.1.8.1s.6 0 .9-.1.5-.2.7-.4.3-.3.4-.6c0-.5.1-.7.1-1zm5.2-3.3h1c.4 0 .7 0 1-.1s.5-.2.7-.4.3-.4.4-.6.1-.5.1-.8c0-.6-.2-1.1-.5-1.4s-.8-.5-1.5-.5c-.3 0-.6 0-.8.1s-.5.2-.6.4c-.2.2-.3.4-.4.6s-.1.5-.1.8h-1.4c0-.4.1-.8.2-1.2s.4-.7.7-1 .7-.5 1.1-.7.9-.2 1.4-.2 1 .1 1.4.2.8.3 1.1.6.5.6.7 1 .2.8.2 1.4c0 .2 0 .4-.1.7-.1.2-.2.5-.3.7s-.3.4-.5.6-.5.3-.8.5c.4.1.7.3.9.5l.6.6c.1.2.3.5.3.7s.1.5.1.8c0 .5-.1 1-.3 1.4s-.4.7-.7 1-.7.5-1.1.6-.9.2-1.4.2-.9-.1-1.4-.2c-.4-.1-.8-.3-1.1-.6s-.6-.6-.8-1-.3-.8-.3-1.3h1.4c0 .3 0 .6.1.8s.2.4.4.6.4.3.7.4.5.1.9.1c.3 0 .6 0 .9-.1s.5-.2.7-.4.3-.4.4-.6c.1-.3.1-.6.1-.9s-.1-.6-.2-.9-.3-.5-.5-.6c-.2-.2-.5-.3-.7-.4-.3-.1-.6-.1-1-.1h-1v-1.3zm12.6 2.5h1.5v1.1h-1.5v2.6h-1.4v-2.6h-5v-.8l4.9-7.7h1.5v7.4zm-4.9 0h3.4v-5.4l-.2.3-3.2 5.1zm9.2 2.5c.8 0 1.4-.1 1.9-.3s.9-.5 1.2-.8.5-.7.6-1.2c.1-.4.2-.9.2-1.4-.3.3-.6.6-1.1.8a3.08 3.08 0 0 1-1.3.3c-.5 0-1-.1-1.4-.3s-.7-.5-1-.8-.4-.7-.6-1.2-.2-.9-.2-1.3c0-.5.1-1 .2-1.5s.4-.9.6-1.2c.3-.3.6-.6 1.1-.8.4-.2.9-.3 1.5-.3s1.2.1 1.6.4.8.6 1.1 1 .5.9.6 1.4.2 1.1.2 1.6v.5c0 .5 0 1-.1 1.5 0 .5-.1 1-.3 1.4s-.3.9-.6 1.3c-.2.4-.6.8-.9 1.1-.4.3-.9.5-1.4.7-.6.2-1.2.3-2 .3h-.1v-1.2h.2zm1.7-3.7c.2 0 .5 0 .7-.1l.6-.3c.2-.1.4-.3.5-.5s.3-.4.4-.6v-.6c0-.5-.1-.9-.2-1.3s-.3-.7-.5-1-.4-.5-.7-.6-.5-.2-.8-.2-.6.1-.9.2-.5.3-.6.5c-.2.2-.3.5-.4.8s-.1.7-.1 1 0 .6.1 1c.1.3.2.6.4.8l.6.6c.3.2.6.3.9.3z" class="P"/><path d="M84.3 518.4L79 530.3h-1.7l5.3-11.5h-6.9v-1.3h8.6v.9zm13.6 8.7c0-.3 0-.6-.1-.8s-.3-.4-.5-.6-.5-.4-.9-.5c-.4-.2-.9-.3-1.5-.5l-1.7-.6c-.5-.2-.9-.5-1.3-.8s-.6-.6-.8-1-.3-.8-.3-1.3.1-1 .3-1.4.5-.8.9-1.1.8-.6 1.4-.7 1.1-.3 1.8-.3 1.4.1 1.9.3 1 .5 1.4.9.7.8.9 1.2.3 1 .3 1.5H98c0-.4-.1-.7-.2-1s-.3-.6-.5-.8-.5-.4-.9-.5-.8-.2-1.2-.2c-.5 0-.8.1-1.2.2s-.6.3-.8.4c-.2.2-.4.4-.5.7s-.2.5-.2.8.1.5.2.7.3.4.5.6.5.4.9.5.8.3 1.4.5c.7.2 1.4.4 1.9.7s1 .5 1.3.8a4.44 4.44 0 0 1 .8 1.1c.2.4.3.8.3 1.3s-.1 1-.3 1.4-.5.8-.9 1.1-.9.5-1.4.7-1.2.2-1.8.2c-.4 0-.8 0-1.2-.1l-1.1-.3a4.67 4.67 0 0 1-1-.5c-.3-.2-.6-.5-.8-.8s-.4-.6-.5-1-.2-.8-.2-1.2H92c0 .4.1.8.3 1.1s.4.6.7.8.6.4 1 .5.8.1 1.2.1c.9 0 1.6-.2 2-.5s.7-1 .7-1.6zm5.5-1.8v5h-1.7v-12.8h4.7c.7 0 1.4.1 1.9.3s1 .5 1.4.8.7.8.9 1.2c.2.5.3 1 .3 1.6s-.1 1.2-.3 1.6a2.73 2.73 0 0 1-.9 1.2c-.4.3-.8.6-1.4.8s-1.2.3-1.9.3h-3zm0-1.4h3c.5 0 .9-.1 1.3-.2s.6-.3.9-.5c.2-.2.4-.5.5-.8s.2-.6.2-1c0-.3-.1-.6-.2-1-.1-.3-.3-.6-.5-.8s-.5-.4-.9-.6-.8-.2-1.3-.2h-3v5.1zm16.9.5h-5.5v4.5h6.4v1.4h-8.1v-12.8h8v1.4h-6.4v4.1h5.5l.1 1.4zm10.2 0H125v4.5h6.4v1.4h-8.1v-12.8h8v1.4H125v4.1h5.5v1.4zm3 5.9v-12.8h3.6c.8 0 1.6.1 2.3.4s1.3.7 1.8 1.2.9 1.2 1.2 1.9.4 1.6.4 2.5v.8c0 .9-.1 1.8-.4 2.5s-.7 1.4-1.2 1.9-1.1.9-1.8 1.2-1.5.4-2.4.4h-3.5zm1.7-11.4v10h1.8c.7 0 1.3-.1 1.8-.3s.9-.5 1.3-.9.6-.9.8-1.5.3-1.2.3-1.9v-.8c0-.7-.1-1.4-.3-2s-.4-1.1-.8-1.4c-.3-.4-.8-.7-1.2-.9s-1.1-.3-1.7-.3h-2zm19.3 6.2h-3v5.2h-1.7v-12.8h4.2c1.4 0 2.6.3 3.3 1s1.2 1.6 1.2 2.9c0 .8-.2 1.5-.6 2.1s-1 1-1.8 1.3l3 5.4v.1h-1.8l-2.8-5.2zm-3-1.4h2.6a3.73 3.73 0 0 0 1.2-.2c.3-.1.6-.3.9-.5.2-.2.4-.5.5-.8s.2-.6.2-.9c0-.4-.1-.7-.2-1s-.3-.6-.5-.8-.5-.4-.9-.5-.8-.2-1.3-.2h-2.5v4.9zm16.6.7h-5.5v4.5h6.4v1.4h-8.1v-12.8h8v1.4h-6.4v4.1h5.5v1.4h.1zm10.1 2.6h-5.4l-1.2 3.3h-1.7l4.9-12.8h1.5l4.9 12.8h-1.7l-1.3-3.3zm-4.9-1.4h4.4l-2.2-6-2.2 6zm9.6 4.7v-12.8h3.6c.8 0 1.6.1 2.3.4s1.3.7 1.8 1.2.9 1.2 1.2 1.9.4 1.6.4 2.5v.8c0 .9-.1 1.8-.4 2.5s-.7 1.4-1.2 1.9-1.1.9-1.8 1.2-1.5.4-2.4.4h-3.5zm1.6-11.4v10h1.8c.7 0 1.3-.1 1.8-.3s.9-.5 1.3-.9.6-.9.8-1.5.3-1.2.3-1.9v-.8c0-.7-.1-1.4-.3-2s-.4-1.1-.8-1.4c-.3-.4-.8-.7-1.2-.9s-1.1-.3-1.7-.3h-2zm12 11.4h-1.7v-12.8h1.7v12.8zm12.9 0h-1.7l-6.4-9.9v9.9h-1.7v-12.8h1.7l6.5 9.9v-9.9h1.7v12.8h-.1zm12.4-1.7c-.1.2-.3.4-.5.6s-.5.4-.9.6-.8.3-1.3.5-1.1.2-1.9.2-1.5-.1-2.1-.4a6.57 6.57 0 0 1-1.7-1.2c-.5-.5-.8-1.2-1.1-1.9-.3-.8-.4-1.6-.4-2.6v-1c0-1 .1-1.8.3-2.6s.6-1.4 1-1.9 1-.9 1.6-1.2 1.4-.4 2.2-.4c.7 0 1.4.1 1.9.3s1 .5 1.4.8.7.8.9 1.2.4 1 .5 1.6H220l-.3-1c-.1-.3-.3-.6-.6-.8s-.5-.4-.9-.5-.8-.2-1.3-.2c-.6 0-1.1.1-1.5.3s-.8.5-1.1.9-.5.9-.6 1.5-.2 1.2-.2 1.9v1c0 .7.1 1.4.3 2s.4 1.1.7 1.5a2.73 2.73 0 0 0 1.2.9c.5.2.9.3 1.5.3.5 0 .8 0 1.2-.1.3-.1.6-.1.8-.2s.4-.2.5-.3l.3-.3v-2.9h-3v-1.4h4.6v4.8h.2z"/><g class="P"><use xlink:href="#I" x="-1" y="-2"/><use xlink:href="#J" x="-1" y="-2"/><use xlink:href="#K" x="-1" y="-2"/><use xlink:href="#L" x="-1" y="-2"/><path d="M343.4 196.4h2.2c.6 0 1.1.2 1.5.7s.7.9.7 1.5V211c0 3-.9 5.1-2.6 6.1s-3.6 1.6-5.6 1.6c-1.1 0-2.2-.2-3.2-.5-1.1-.3-1.9-.9-2.6-1.8-1.2-1.6-1.8-3.7-1.8-6.4s.6-4.8 1.8-6.4 2.9-2.5 4.9-2.5c1.1 0 2 .2 2.8.7.9.5 1.5 1.2 2 2l-.1-7.4zm-7.3 13.3c0 1.7.3 3 1 3.9s1.6 1.3 2.8 1.3c1.1 0 2-.5 2.7-1.3.6-.9.9-2.2.9-3.9 0-1.5-.3-2.8-1-3.6-.7-.9-1.6-1.2-2.8-1.2a3.17 3.17 0 0 0-2.6 1.3c-.6.8-1 2-1 3.5z"/><use xlink:href="#M" x="-1" y="-2"/><use xlink:href="#N" x="-1" y="-2"/><use xlink:href="#O" x="-1" y="-2"/><path d="M403.1 196.4h2.2c.6 0 1.1.2 1.5.7s.7.9.7 1.5V211c0 3-.9 5.1-2.6 6.1s-3.6 1.6-5.6 1.6c-1.1 0-2.2-.2-3.2-.5-1.1-.3-1.9-.9-2.6-1.8-1.2-1.6-1.8-3.7-1.8-6.4s.6-4.8 1.8-6.4 2.9-2.5 4.9-2.5c1.1 0 2 .2 2.8.7.9.5 1.5 1.2 2 2l-.1-7.4zm-7.3 13.3c0 1.7.3 3 1 3.9s1.6 1.3 2.8 1.3c1.1 0 2-.5 2.7-1.3.6-.9.9-2.2.9-3.9 0-1.5-.3-2.8-1-3.6-.7-.9-1.6-1.2-2.8-1.2a3.17 3.17 0 0 0-2.6 1.3c-.7.8-1 2-1 3.5zm13.1-8.7l2.3.1c.6 0 1.1.2 1.5.7.4.4.7.9.7 1.5v14.8l-4.5-.1v-17zm21.3 17.3H428c-.7 0-1.2-.2-1.6-.6s-.6-.9-.6-1.6v-8.7c0-1.1-.3-1.8-.9-2.2-.6-.5-1.3-.7-2-.7-.8 0-1.4.3-2 .7-.6.5-.9 1.2-.9 2.2v10.8h-4.5v-9.9c0-2.9.7-4.8 2.2-5.8s3.2-1.5 5-1.6c1.8 0 3.6.5 5.2 1.4 1.6 1 2.4 3 2.4 5.9l-.1 10.1z"/><use xlink:href="#P" x="-1" y="-2"/><path d="M408.9 196.4h2.3c.6 0 1.1.2 1.5.7.4.4.7.9.7 1.5v1.3h-4.5v-3.5z"/><use xlink:href="#Q" x="-1" y="-2"/><path d="M210.8 196.5v31.1s-11.4-9.6-26.2-6.4V188c-.1 0 18.1-3 26.2 8.5zm1.1 0v31.1s11.4-9.6 26.2-6.4V188s-18.1-3-26.2 8.5zm-49.7 1.6h19.9v3.3h-19.9zm7.7-7.7H182v3.3h-12.1z"/></g><path d="M312.7 279.5v-1.3c.9-.5 1.8-1.3 2.6-2.2 3.5-.2 7.5-2.1 10.6-5.2 5.5-5.5 6.9-12.9 3.1-16.7-1.2-1.2-2.8-1.9-4.6-2.1l.6-1.5c.1-.1.1-.2 0-.3s-.2-.1-.4-.1h-30.8c-.1 0-.3.1-.3.1-.1.1-.1.2 0 .3l.6 1.5c-1.8.2-3.4.9-4.6 2.1-3.8 3.8-2.5 11.1 3.1 16.7 3.1 3.1 7.1 5 10.6 5.2.8.9 1.7 1.6 2.6 2.2v1.3c0 .4.4.8 1 .8h.3c-.3 2.4-1.9 5.4-3.8 7.1l-2.1 1.7h-4.8c-.4 0-.7.2-.9.5l-2.2 3.9a.45.45 0 0 0 0 .5c.1.1.2.2.4.2h30.9c.2 0 .3-.1.4-.2s.1-.3 0-.5l-2.2-3.9c-.2-.3-.5-.5-.9-.5h-4.8l-2.1-1.7c-1.9-1.6-3.5-4.6-3.8-7.1h.3c.8 0 1.2-.4 1.2-.8zm9.8-23c.3.3.7.6 1.1.6a1.54 1.54 0 0 0 1.5-1.5c0-.3-.1-.6-.2-.8.9.2 1.7.6 2.3 1.2 2.7 2.7 1.3 8.6-3.1 13-2 2-4.3 3.4-6.6 4 2.5-4 4.3-9.9 5-16.5zM294.4 269c-4.4-4.4-5.8-10.3-3.1-13 .6-.6 1.4-1 2.3-1.2-.2.2-.2.5-.2.8a1.54 1.54 0 0 0 1.5 1.5c.5 0 .9-.2 1.1-.6.8 6.7 2.5 12.5 5 16.6-2.3-.7-4.6-2.1-6.6-4.1z" enable-background="new " class="Q S"/><g class="P"><path d="M312.7 278v-1.3c.9-.5 1.8-1.3 2.6-2.2 3.5-.2 7.5-2.1 10.6-5.2 5.5-5.5 6.9-12.9 3.1-16.7-1.2-1.2-2.8-1.9-4.6-2.1l.6-1.5c.1-.1.1-.2 0-.3s-.2-.1-.4-.1h-30.8c-.1 0-.3.1-.3.1-.1.1-.1.2 0 .3l.6 1.5c-1.8.2-3.4.9-4.6 2.1-3.8 3.8-2.5 11.1 3.1 16.7 3.1 3.1 7.1 5 10.6 5.2.8.9 1.7 1.6 2.6 2.2v1.3c0 .4.4.8 1 .8h.3c-.3 2.4-1.9 5.4-3.8 7.1l-2.1 1.7h-4.8c-.4 0-.7.2-.9.5l-2.2 3.9a.45.45 0 0 0 0 .5c.1.1.2.2.4.2h30.9c.2 0 .3-.1.4-.2s.1-.3 0-.5l-2.2-3.9c-.2-.3-.5-.5-.9-.5h-4.8l-2.1-1.7c-1.9-1.6-3.5-4.6-3.8-7.1h.3c.8 0 1.2-.4 1.2-.8zm9.8-23c.3.3.7.6 1.1.6a1.54 1.54 0 0 0 1.5-1.5c0-.3-.1-.6-.2-.8.9.2 1.7.6 2.3 1.2 2.7 2.7 1.3 8.6-3.1 13-2 2-4.3 3.4-6.6 4 2.5-4 4.3-9.9 5-16.5zm-28.1 12.5c-4.4-4.4-5.8-10.3-3.1-13 .6-.6 1.4-1 2.3-1.2-.2.2-.2.5-.2.8a1.54 1.54 0 0 0 1.5 1.5c.5 0 .9-.2 1.1-.6.8 6.7 2.5 12.5 5 16.6-2.3-.7-4.6-2.1-6.6-4.1zm-2.7 33.6l2.6 7.5 2.6-7.5h2.8v10.4h-1.9v-2.8l.2-4.9-2.8 7.8h-1.5l-2.8-7.8.2 4.9v2.8H289v-10.4h2.7zm18.5 5.6c0 .8-.2 1.5-.3 2.1-.2.6-.5 1.1-1 1.6s-.8.8-1.5 1c-.5.2-1.1.3-1.8.3-.6 0-1.3-.2-1.8-.3-.5-.2-1-.6-1.5-1l-1-1.6c-.2-.6-.3-1.3-.3-2.1v-.5c0-.8.2-1.5.3-2.1.2-.6.5-1.1 1-1.6.3-.5.8-.8 1.5-1 .5-.2 1.1-.3 1.8-.3.6 0 1.3.2 1.8.3.5.2 1 .6 1.5 1l1 1.6c.3.6.3 1.3.3 2.1v.5zm-2.3-.5c0-1.1-.2-1.9-.6-2.4-.3-.5-1-.8-1.6-.8s-1.3.3-1.6.8-.6 1.5-.6 2.4v.5c0 .5 0 1 .2 1.5s.3.8.5 1c.2.3.5.5.6.6.3.2.6.2 1 .2.6 0 1.3-.3 1.6-.8.3-.6.6-1.5.6-2.4v-.6zm9.3 2.7v-.5c0-.2-.2-.3-.3-.3-.2 0-.3-.3-.6-.3a1.69 1.69 0 0 0-1-.3c-.5-.2-1-.3-1.3-.5-.5-.2-.8-.5-1.1-.6s-.5-.5-.8-1c-.2-.3-.3-.8-.3-1.1 0-.5.2-.8.3-1.1.2-.3.5-.6.8-1s.8-.5 1.1-.6c.5-.2 1-.2 1.5-.2.6 0 1.1 0 1.6.2s.8.3 1.1.6.6.6.8 1c.2.3.3.8.3 1.3h-2.1c0-.2 0-.5-.2-.6 0-.2-.2-.3-.3-.5-.2-.2-.3-.2-.5-.3-.2 0-.5-.2-.8-.2s-.5 0-.6.2c-.2 0-.3.2-.5.3l-.3.3c-.2.2-.2.3-.2.5 0 .3.2.6.5.8s.8.5 1.5.6c.5.2 1.1.3 1.5.6.5.2.8.5 1.1.6.3.3.5.6.6 1 .2.3.2.6.2 1.1s-.2.8-.3 1.3c-.2.5-.5.6-.8 1-.3.3-.6.5-1.1.5-.5.2-1 .2-1.6.2-.3 0-.6 0-1-.2-.3 0-.6-.2-1-.3-.3-.2-.6-.3-.8-.5-.3-.2-.5-.3-.6-.6l-.5-.8c-.2-.3-.2-.6-.2-1.1h2.1c0 .3 0 .6.2.8s.2.3.5.5.3.2.6.3c.3 0 .5.2.8.2s.5 0 .6-.2c.2-.2.3-.2.5-.3l.3-.3c.1-.1.3-.3.3-.5z"/><use xlink:href="#R"/><path d="M275.4 322.4v3.7h-2.1v-10.4h4.1c.6 0 1.1.2 1.6.3.5.2.8.5 1.3.6.3.3.6.6.8 1.1s.3.8.3 1.3-.2 1-.3 1.3c-.2.3-.5.8-.8 1-.3.3-.8.5-1.3.6-.5.2-1 .2-1.6.2h-1.9v.3zm0-1.6h1.9c.3 0 .5 0 .8-.2.2 0 .3-.2.5-.3.2-.2.2-.3.3-.5 0-.2.2-.3.2-.6 0-.2 0-.5-.2-.6 0-.2-.2-.3-.3-.5-.2-.2-.3-.3-.5-.3-.2-.2-.5-.2-.8-.2h-1.9v3.2zm15.8.5c0 .8-.2 1.5-.3 2.1-.2.6-.5 1.1-1 1.6s-.8.8-1.5 1c-.5.2-1.1.3-1.8.3-.6 0-1.3-.2-1.8-.3-.5-.2-1-.6-1.5-1l-1-1.6c-.2-.6-.3-1.3-.3-2.1v-.5c0-.8.2-1.5.3-2.1.2-.6.5-1.1 1-1.6.3-.5.8-.8 1.5-1 .5-.2 1.1-.3 1.8-.3.6 0 1.3.2 1.8.3.5.2 1 .6 1.5 1l1 1.6c.2.6.3 1.3.3 2.1v.5zm-2.1-.7c0-1.1-.2-1.9-.6-2.4-.3-.5-1-.8-1.6-.8s-1.3.3-1.6.8-.6 1.5-.6 2.4v.5c0 .5 0 1 .2 1.5s.3.8.5 1c.2.3.5.5.6.6.3.2.6.2 1 .2.6 0 1.3-.3 1.6-.8.3-.6.6-1.5.6-2.4v-.6zm11.7 2.5l1.5-7.3h2.1l-2.3 10.4H300l-1.6-7-1.6 7h-2.3l-2.3-10.4h2.1l1.5 7.3 1.8-7.3h1.8l1.4 7.3z"/><use xlink:href="#S"/><path d="M317.5 322.2h-1.6v3.7h-2.1v-10.4h3.9c.6 0 1.1 0 1.6.2s.8.3 1.1.6.6.6.8 1c.2.3.3.8.3 1.3 0 .3 0 .6-.2 1-.2.3-.2.6-.3.8-.2.2-.3.5-.6.6-.2.2-.5.3-.8.5l2.3 4.2v.2h-2.3l-2.1-3.7zm-1.6-1.6h1.8c.3 0 .5 0 .8-.2.2 0 .3-.2.5-.3.2-.2.3-.3.3-.5s.2-.3.2-.6c0-.5-.2-.8-.5-1.1s-.6-.5-1.3-.5h-1.8v3.2zm13.3 1.5h-4.1v4.2H323v-10.4h6.8v1.8h-4.5v2.6h4.1v1.8h-.2zm9.8-6.4v6.8c0 .6-.2 1.1-.3 1.6s-.5.8-.8 1.1-.8.5-1.3.6c-.5.2-1 .2-1.6.2s-1.1 0-1.6-.2-1-.3-1.3-.6-.6-.6-.8-1.1-.3-1-.3-1.6v-6.8h2.1v6.8c0 .6.2 1.1.5 1.5.3.3.8.5 1.3.5.6 0 1-.2 1.3-.5s.5-.8.5-1.5v-6.8h2.3zm3.7 8.8h4.5v1.8h-6.7v-10.4h2.1l.1 8.6z"/></g><path d="M433.1 279.5v-1.3c.9-.5 1.8-1.3 2.6-2.2 3.5-.2 7.5-2.1 10.6-5.2 5.5-5.5 6.9-12.9 3.1-16.7-1.2-1.2-2.8-1.9-4.6-2.1l.6-1.5c.1-.1.1-.2 0-.3s-.2-.1-.4-.1h-30.8c-.1 0-.3.1-.3.1-.1.1-.1.2 0 .3l.6 1.5c-1.8.2-3.4.9-4.6 2.1-3.8 3.8-2.5 11.1 3.1 16.7 3.1 3.1 7.1 5 10.6 5.2.8.9 1.7 1.6 2.6 2.2v1.3c0 .4.4.8 1 .8h.3c-.3 2.4-1.9 5.4-3.8 7.1l-2.1 1.7h-4.8c-.4 0-.7.2-.9.5l-2.2 3.9a.45.45 0 0 0 0 .5c.1.1.2.2.4.2H445c.2 0 .3-.1.4-.2s.1-.3 0-.5l-2.2-3.9c-.2-.3-.5-.5-.9-.5h-4.8l-2.1-1.7c-1.9-1.6-3.5-4.6-3.8-7.1h.3c.8 0 1.2-.4 1.2-.8zm9.8-23c.3.3.7.6 1.1.6a1.54 1.54 0 0 0 1.5-1.5c0-.3-.1-.6-.2-.8.9.2 1.7.6 2.3 1.2 2.7 2.7 1.3 8.6-3.1 13-2 2-4.3 3.4-6.6 4 2.5-4 4.2-9.9 5-16.5zM414.7 269c-4.4-4.4-5.8-10.3-3.1-13 .6-.6 1.4-1 2.3-1.2-.2.2-.2.5-.2.8a1.54 1.54 0 0 0 1.5 1.5c.5 0 .9-.2 1.1-.6.8 6.7 2.5 12.5 5 16.6-2.3-.7-4.6-2.1-6.6-4.1z" enable-background="new " class="Q S"/><g class="P"><path d="M433.1 278v-1.3c.9-.5 1.8-1.3 2.6-2.2 3.5-.2 7.5-2.1 10.6-5.2 5.5-5.5 6.9-12.9 3.1-16.7-1.2-1.2-2.8-1.9-4.6-2.1l.6-1.5c.1-.1.1-.2 0-.3s-.2-.1-.4-.1h-30.8c-.1 0-.3.1-.3.1-.1.1-.1.2 0 .3l.6 1.5c-1.8.2-3.4.9-4.6 2.1-3.8 3.8-2.5 11.1 3.1 16.7 3.1 3.1 7.1 5 10.6 5.2.8.9 1.7 1.6 2.6 2.2v1.3c0 .4.4.8 1 .8h.3c-.3 2.4-1.9 5.4-3.8 7.1l-2.1 1.7h-4.8c-.4 0-.7.2-.9.5l-2.2 3.9a.45.45 0 0 0 0 .5c.1.1.2.2.4.2H445c.2 0 .3-.1.4-.2s.1-.3 0-.5l-2.2-3.9c-.2-.3-.5-.5-.9-.5h-4.8l-2.1-1.7c-1.9-1.6-3.5-4.6-3.8-7.1h.3c.8 0 1.2-.4 1.2-.8zm9.8-23c.3.3.7.6 1.1.6a1.54 1.54 0 0 0 1.5-1.5c0-.3-.1-.6-.2-.8.9.2 1.7.6 2.3 1.2 2.7 2.7 1.3 8.6-3.1 13-2 2-4.3 3.4-6.6 4 2.5-4 4.2-9.9 5-16.5zm-28.2 12.5c-4.4-4.4-5.8-10.3-3.1-13 .6-.6 1.4-1 2.3-1.2-.2.2-.2.5-.2.8a1.54 1.54 0 0 0 1.5 1.5c.5 0 .9-.2 1.1-.6.8 6.7 2.5 12.5 5 16.6-2.3-.7-4.6-2.1-6.6-4.1zm.6 33.6l2.6 7.5 2.6-7.5h2.8v10.4h-2.1v-2.8l.2-4.9-2.8 7.8h-1.5l-2.8-7.8.2 4.9v2.8h-2.1v-10.4h2.9zm18.4 5.6c0 .8-.2 1.5-.3 2.1-.2.6-.5 1.1-1 1.6s-.8.8-1.5 1a5.23 5.23 0 0 1-1.8.3c-.7 0-1.3-.2-1.8-.3-.5-.2-1-.6-1.5-1l-1-1.6c-.2-.6-.3-1.3-.3-2.1v-.5c0-.8.2-1.5.3-2.1.2-.6.5-1.1 1-1.6.3-.5.8-.8 1.5-1 .5-.2 1.1-.3 1.8-.3s1.3.2 1.8.3c.5.2 1 .6 1.5 1l1 1.6c.2.6.3 1.3.3 2.1v.5zm-2.1-.5c0-1.1-.2-1.9-.6-2.4-.3-.5-1-.8-1.6-.8s-1.3.3-1.6.8-.6 1.5-.6 2.4v.5c0 .5 0 1 .2 1.5s.3.8.5 1c.2.3.5.5.6.6.3.2.6.2 1 .2.6 0 1.3-.3 1.6-.8.3-.6.6-1.5.6-2.4v-.6zm9.1 2.7v-.5c0-.2-.2-.3-.3-.3-.2 0-.3-.3-.6-.3s-.6-.3-1-.3c-.5-.2-1-.3-1.3-.5-.5-.2-.8-.5-1.1-.6-.3-.3-.5-.5-.8-1s-.3-.8-.3-1.1c0-.5.2-.8.3-1.1.2-.3.5-.6.8-1s.8-.5 1.1-.6c.5-.2 1-.2 1.5-.2.6 0 1.1 0 1.6.2s.8.3 1.1.6.6.6.8 1c.2.3.3.8.3 1.3h-2.1c0-.2 0-.5-.2-.6 0-.2-.2-.3-.3-.5-.2-.2-.3-.2-.5-.3-.2 0-.5-.2-.8-.2s-.5 0-.6.2c-.2 0-.3.2-.5.3l-.3.3c-.2.2-.2.3-.2.5 0 .3.2.6.5.8s.8.5 1.5.6c.5.2 1.1.3 1.5.6.5.2.8.5 1.1.6.3.3.5.6.6 1 .2.3.2.6.2 1.1s-.2.8-.3 1.3c-.2.3-.5.6-.8 1-.3.3-.6.5-1.1.5s-1 .2-1.6.2c-.3 0-.6 0-1-.2-.3 0-.6-.2-1-.3-.3-.2-.6-.3-.8-.5-.3-.2-.5-.3-.6-.6l-.5-.8c-.2-.3-.2-.6-.2-1.1h2.1c0 .3 0 .6.2.8s.2.3.5.5c.2.2.3.2.6.3.3 0 .5.2.8.2s.5 0 .6-.2c.2-.2.3-.2.5-.3l.3-.3c.3-.1.3-.3.3-.5z"/><use xlink:href="#R" x="123.4"/><use xlink:href="#S" x="92.5"/><path d="M412.6 322.1h-4.1v4.2h-2.1v-10.4h6.8v1.8h-4.5v2.6h4.1v1.8h-.2zm7.9 0h-4.1v4.2h-2.1v-10.4h6.8v1.8h-4.5v2.6h4.1v1.8h-.2z"/><use xlink:href="#S" x="116.7"/><path d="M438.7 322.7c0 .5-.2 1-.3 1.5-.2.5-.5.8-.8 1.1s-.8.5-1.3.8-1.1.3-1.8.3c-.6 0-1.3-.2-1.8-.3-.5-.2-1-.5-1.3-1s-.6-1-.8-1.6-.3-1.3-.3-2.1v-.6c0-.8.2-1.5.3-2.1.2-.6.5-1.1.8-1.6s.8-.8 1.3-1 1.1-.3 1.8-.3c.6 0 1.1.2 1.8.3.5.2 1 .5 1.3.8s.6.6.8 1.1.3 1 .3 1.5h-2.1c0-.3 0-.6-.2-.8s-.2-.5-.3-.6c-.2-.2-.3-.3-.6-.3-.3-.2-.5-.2-1-.2-.6 0-1.3.3-1.6.8s-.5 1.3-.5 2.4v.6c0 .5 0 1 .2 1.5 0 .3.2.8.3 1 .2.3.3.5.6.6.3.2.6.2 1 .2s.6 0 .8-.2c.3 0 .5-.2.6-.3.2-.2.3-.3.3-.6.2-.2.2-.5.2-.8h2.3z"/><use xlink:href="#R" x="119.1" y="14.6"/><path d="M451.1 326.3H449v-10.4h2.1v10.4zm5.8-2.6l2.3-7.8h2.4l-3.6 10.4h-2.3l-3.6-10.4h2.4l2.4 7.8z"/><use xlink:href="#S" x="157.1"/></g><path d="M-3 45.9h186.8v79.6H-3z" fill="#0f74b2"/><path d="M194.2 279.5v-1.3c.9-.5 1.8-1.3 2.6-2.2 3.5-.2 7.5-2.1 10.6-5.2 5.5-5.5 6.9-12.9 3.1-16.7-1.2-1.2-2.8-1.9-4.6-2.1l.6-1.5c.1-.1.1-.2 0-.3s-.2-.1-.4-.1h-30.8c-.1 0-.3.1-.3.1-.1.1-.1.2 0 .3l.6 1.5c-1.8.2-3.4.9-4.6 2.1-3.8 3.8-2.5 11.1 3.1 16.7 3.1 3.1 7.1 5 10.6 5.2.8.9 1.7 1.6 2.6 2.2v1.3c0 .4.4.8 1 .8h.3c-.3 2.4-1.9 5.4-3.8 7.1l-2.1 1.7h-4.8c-.4 0-.7.2-.9.5l-2.2 3.9a.45.45 0 0 0 0 .5c.1.1.2.2.4.2h30.9c.2 0 .3-.1.4-.2s.1-.3 0-.5l-2.2-3.9c-.2-.3-.5-.5-.9-.5h-4.8l-2.1-1.7c-1.9-1.6-3.5-4.6-3.8-7.1h.3c.7 0 1.2-.4 1.2-.8zm9.8-23c.3.3.7.6 1.1.6a1.54 1.54 0 0 0 1.5-1.5c0-.3-.1-.6-.2-.8.9.2 1.7.6 2.3 1.2 2.7 2.7 1.3 8.6-3.1 13-2 2-4.3 3.4-6.6 4 2.4-4 4.2-9.9 5-16.5zM175.8 269c-4.4-4.4-5.8-10.3-3.1-13 .6-.6 1.4-1 2.3-1.2-.2.2-.2.5-.2.8a1.54 1.54 0 0 0 1.5 1.5c.5 0 .9-.2 1.1-.6.8 6.7 2.5 12.5 5 16.6-2.3-.7-4.6-2.1-6.6-4.1z" enable-background="new " class="Q S"/><path d="M194.2 278v-1.3c.9-.5 1.8-1.3 2.6-2.2 3.5-.2 7.5-2.1 10.6-5.2 5.5-5.5 6.9-12.9 3.1-16.7-1.2-1.2-2.8-1.9-4.6-2.1l.6-1.5c.1-.1.1-.2 0-.3s-.2-.1-.4-.1h-30.8c-.1 0-.3.1-.3.1-.1.1-.1.2 0 .3l.6 1.5c-1.8.2-3.4.9-4.6 2.1-3.8 3.8-2.5 11.1 3.1 16.7 3.1 3.1 7.1 5 10.6 5.2.8.9 1.7 1.6 2.6 2.2v1.3c0 .4.4.8 1 .8h.3c-.3 2.4-1.9 5.4-3.8 7.1l-2.1 1.7h-4.8c-.4 0-.7.2-.9.5l-2.2 3.9a.45.45 0 0 0 0 .5c.1.1.2.2.4.2h30.9c.2 0 .3-.1.4-.2s.1-.3 0-.5l-2.2-3.9c-.2-.3-.5-.5-.9-.5h-4.8l-2.1-1.7c-1.9-1.6-3.5-4.6-3.8-7.1h.3c.7 0 1.2-.4 1.2-.8zm9.8-23c.3.3.7.6 1.1.6a1.54 1.54 0 0 0 1.5-1.5c0-.3-.1-.6-.2-.8.9.2 1.7.6 2.3 1.2 2.7 2.7 1.3 8.6-3.1 13-2 2-4.3 3.4-6.6 4 2.4-4 4.2-9.9 5-16.5zm-28.2 12.5c-4.4-4.4-5.8-10.3-3.1-13 .6-.6 1.4-1 2.3-1.2-.2.2-.2.5-.2.8a1.54 1.54 0 0 0 1.5 1.5c.5 0 .9-.2 1.1-.6.8 6.7 2.5 12.5 5 16.6-2.3-.7-4.6-2.1-6.6-4.1z" class="P"/><path d="M815.8 45.9H1004v79.6H815.8z" fill="#0f74b2"/><g class="P"><path d="M173.8 311.7v-10.4h3.6c.6 0 1.1 0 1.6.2s.8.3 1.1.5.6.5.8.8.3.8.3 1.3c0 .2 0 .5-.2.6 0 .2-.2.5-.3.6l-.5.5c-.2.2-.5.3-.6.3.3 0 .5.2.8.3l.5.5c.2.2.2.5.3.6 0 .2.2.5.2.8 0 1-.3 1.8-1 2.3-.6.5-1.6.8-2.8.8h-3.9v.3zm2.1-6h1.6c.5 0 1-.2 1.3-.3.3-.2.3-.5.3-1s-.2-.8-.5-1-.6-.3-1.3-.3h-1.5v2.6h.1zm0 1.3v2.8h1.8c.3 0 .5 0 .6-.2.2-.2.3-.2.5-.3.2-.2.2-.3.3-.5 0-.2.2-.3.2-.5s0-.5-.2-.6c0-.2-.2-.3-.3-.5-.2-.2-.3-.2-.5-.3-.2 0-.5-.2-.6-.2h-1.8v.3zm13.3 0h-4.1v2.8h4.9v1.8h-7v-10.4h7v1.8h-4.9v2.4h4.1v1.6zm7.5 1.9v-.5c0-.2-.2-.3-.3-.3-.2 0-.3-.3-.6-.3a1.69 1.69 0 0 0-1-.3c-.5-.2-1-.3-1.3-.5-.5-.2-.8-.5-1.1-.6-.3-.2-.5-.5-.8-1-.2-.3-.3-.8-.3-1.1 0-.5.2-.8.3-1.1.2-.3.5-.6.8-1 .3-.3.8-.5 1.1-.6.5-.2 1-.2 1.5-.2.6 0 1.1 0 1.6.2s.8.3 1.1.6.6.6.8 1 .3.8.3 1.3h-2.1c0-.2 0-.5-.2-.6 0-.2-.2-.3-.3-.5-.2-.2-.3-.2-.5-.3-.2 0-.5-.2-.8-.2s-.5 0-.6.2c-.2 0-.3.2-.5.3l-.3.3c-.2.2-.2.3-.2.5 0 .3.2.6.5.8s.8.5 1.5.6c.5.2 1.1.3 1.5.6.5.2.8.5 1.1.6.3.3.5.6.6 1 .2.3.2.6.2 1.1s-.2.8-.3 1.3c-.2.5-.5.6-.8 1-.3.3-.6.5-1.1.5-.5.2-1 .2-1.6.2-.3 0-.6 0-1-.2-.3 0-.6-.2-1-.3-.3-.2-.6-.3-.8-.5-.3-.2-.5-.3-.6-.6l-.5-.8c-.2-.3-.2-.6-.2-1.1h2.1c0 .3 0 .6.2.8s.2.3.5.5.3.2.6.3c.3 0 .5.2.8.2s.5 0 .6-.2c.2 0 .3-.2.5-.3l.3-.3c.1-.1.3-.3.3-.5z"/><use xlink:href="#R" x="-120.5"/><path d="M173 323.7l2.3-7.8h2.4l-3.6 10.4h-2.3l-3.6-10.4h2.4l2.4 7.8zm11 .3h-3.7l-.6 2.1h-2.3l3.9-10.4h1.9l3.9 10.4h-2.3l-.8-2.1zm-3.2-1.8h2.6l-1.3-3.9-1.3 3.9zm9.2 2.3h4.5v1.8h-6.7v-10.4h2.1v8.6h.1zm13.5-8.8v6.8c0 .6-.2 1.1-.3 1.6-.2.5-.5.8-.8 1.1s-.8.5-1.3.6c-.5.2-1 .2-1.6.2s-1.1 0-1.6-.2-1-.3-1.3-.6-.6-.6-.8-1.1-.3-1-.3-1.6v-6.8h2.1v6.8c0 .6.2 1.1.5 1.5.3.3.8.5 1.3.5.6 0 1-.2 1.3-.5s.5-.8.5-1.5v-6.8h2.3z"/><use xlink:href="#S" x="-100.3"/></g><path d="M184.8 21.3H97.2v81.1l87.6 23zm629.9-1.1h87.6v81.2l-87.6 23z" class="R"/><path d="M97.3 20.2h805.3v79.6H97.3z" class="U"/><g opacity=".2" class="Q"><path d="M166.4 63.1c-.2 1.2-.4 2.4-.9 3.5-.4 1-1.1 2-1.9 2.8s-1.8 1.4-2.9 1.8c-1.2.4-2.5.7-4.1.7a9.58 9.58 0 0 1-4.2-.9c-1.3-.6-2.3-1.4-3.2-2.4s-1.6-2.3-2.1-3.8-.7-3.1-.7-5v-2.6a15.88 15.88 0 0 1 .8-5c.5-1.5 1.2-2.8 2.1-3.8 1-1 2-1.9 3.3-2.4s2.8-.9 4.4-.9c1.5 0 2.8.2 3.9.6s2.1 1 2.9 1.8 1.5 1.7 1.9 2.8c.4 1 .8 2.2.9 3.5H163c-.2-1-.3-1.7-.6-2.4s-.7-1.4-1.1-1.9c-.5-.5-1.1-1-1.8-1.2-.7-.3-1.6-.4-2.6-.4-1.1 0-2.2.3-3 .7s-1.6 1-2.2 1.9c-.6.8-1 1.8-1.3 2.9s-.4 2.4-.4 3.8v2.5c0 1.3.2 2.5.4 3.6.3 1.1.7 2.1 1.2 2.9.5.9 1.2 1.5 2.1 2s1.8.7 3 .7c1.1 0 2-.2 2.8-.4.8-.3 1.4-.6 1.9-1.1s.9-1.1 1.1-1.8c.3-.7.5-1.6.6-2.5h3.3zm24.8-3.9c0 2-.3 3.7-.8 5.3s-1.2 2.9-2.1 4c-1 1.1-2 1.9-3.3 2.5s-2.8.9-4.3.9a9.58 9.58 0 0 1-4.2-.9c-1.3-.6-2.4-1.4-3.4-2.5s-1.6-2.4-2.2-4c-.5-1.6-.8-3.3-.8-5.3v-1.6c0-2 .3-3.7.8-5.3s1.2-2.9 2.2-4 2-1.9 3.3-2.5a9.9 9.9 0 0 1 4.2-.9c1.6 0 3 .3 4.3.9s2.4 1.4 3.3 2.5c1 1.1 1.6 2.4 2.1 4s.8 3.3.8 5.3l.1 1.6zm-3.5-1.7a16.42 16.42 0 0 0-.5-4.1c-.3-1.2-.8-2.2-1.4-3s-1.4-1.5-2.2-1.8c-.9-.4-1.9-.6-3-.6-1 0-2.1.2-2.9.6-.9.4-1.6 1-2.2 1.8s-1.1 1.8-1.5 3-.5 2.6-.5 4.1v1.7a16.42 16.42 0 0 0 .5 4.1c.3 1.2.9 2.2 1.5 3s1.4 1.5 2.2 1.8c.9.4 1.8.6 2.9.6s2.2-.2 3-.6c.9-.4 1.6-1 2.2-1.8s1-1.8 1.4-3c.3-1.2.4-2.6.4-4.1l.1-1.7zm13.1-12.2l8.6 21.3 8.6-21.3h4.5v26.1H219V61.2l.3-11-8.6 21.2H208l-8.6-21.1.3 10.9v10.2h-3.5V45.3h4.6zm31 15.9v10.2h-3.5V45.3h9.6c1.5 0 2.8.2 3.9.6s2.1 1 2.9 1.6c.8.7 1.4 1.6 1.7 2.5.4 1 .6 2.1.6 3.2 0 1.3-.2 2.4-.6 3.4s-1 1.8-1.7 2.5c-.8.7-1.7 1.2-2.9 1.6s-2.4.5-3.9.5h-6.1zm0-2.9h6.2c1 0 1.9-.1 2.6-.3s1.3-.6 1.8-1c.4-.4.8-1 1-1.6s.3-1.3.3-2.1c0-.7-.1-1.3-.3-2-.2-.6-.5-1.2-1-1.6-.4-.5-1-.9-1.8-1.1-.7-.3-1.6-.4-2.6-.4h-6.2v10.1zm31.7 6.3h-11l-2.4 6.8h-3.5l9.9-26.1h3l10 26.1H266l-2.5-6.8zm-9.9-2.8h8.9l-4.4-12.2-4.5 12.2zm28.9-1h-6.1v10.5H273v-26h8.6c2.9 0 5.2.7 6.8 2 1.6 1.4 2.4 3.3 2.4 5.9 0 1.6-.4 3-1.3 4.2s-2.1 2.1-3.6 2.7l6.1 11.1v.2h-3.7l-5.8-10.6zm-6.1-2.8h5.3c1 0 1.7-.1 2.4-.3.7-.3 1.3-.6 1.7-1s.8-1 1-1.6c.3-.6.3-1.2.3-1.9 0-.8-.1-1.5-.3-2.1-.3-.6-.6-1.1-1-1.6s-1-.8-1.8-1c-.7-.3-1.6-.3-2.6-.3h-5.2V58h.2zm34 1.3H299v9.2h13.1v2.9h-16.6V45.3H312v2.9h-13v8.4h11.3v2.7h.1zm32.5-11.1h-8.4v23.2H331V48.2h-8.4v-2.9h20.2l.1 2.9zm23.9 23.2h-3.5V59.3h-13.1v12.1h-3.5V45.3h3.5v11.2h13.1V45.3h3.5v26.1zm20.9-12.1h-11.3v9.2h13.1v2.9H373V45.3h16.4v2.9h-13v8.4h11.3v2.7zm34.4 3.8c-.2 1.2-.4 2.4-.9 3.5s-1.1 2-1.9 2.8-1.8 1.4-2.9 1.8c-1.2.4-2.5.7-4.1.7a9.58 9.58 0 0 1-4.2-.9c-1.3-.6-2.3-1.4-3.2-2.4s-1.6-2.3-2.1-3.8-.7-3.1-.7-5v-2.6a15.88 15.88 0 0 1 .8-5c.5-1.5 1.2-2.8 2.1-3.8 1-1 2-1.9 3.3-2.4 1.3-.6 2.8-.9 4.4-.9 1.5 0 2.8.2 3.9.6s2.1 1 2.9 1.8 1.5 1.7 1.9 2.8c.4 1 .8 2.2.9 3.5h-3.5c-.2-1-.3-1.7-.6-2.4s-.7-1.4-1.1-1.9c-.5-.5-1.1-1-1.8-1.2-.7-.3-1.6-.4-2.6-.4-1.1 0-2.2.3-3 .7-.9.4-1.6 1-2.2 1.9-.6.8-1 1.8-1.3 2.9s-.4 2.4-.4 3.8v2.5c0 1.3.2 2.5.4 3.6.3 1.1.7 2.1 1.2 2.9.5.9 1.2 1.5 2.1 2s1.8.7 3 .7c1.1 0 2-.2 2.8-.4.8-.3 1.4-.6 1.9-1.1s.9-1.1 1.1-1.8c.3-.7.5-1.6.6-2.5h3.2zm24.8-3.9c0 2-.3 3.7-.8 5.3s-1.2 2.9-2.1 4c-1 1.1-2 1.9-3.3 2.5s-2.8.9-4.3.9a9.58 9.58 0 0 1-4.2-.9c-1.3-.6-2.4-1.4-3.4-2.5s-1.6-2.4-2.2-4c-.5-1.6-.8-3.3-.8-5.3v-1.6c0-2 .3-3.7.8-5.3s1.2-2.9 2.2-4 2-1.9 3.3-2.5a9.9 9.9 0 0 1 4.2-.9c1.6 0 3 .3 4.3.9s2.4 1.4 3.3 2.5c1 1.1 1.6 2.4 2.1 4s.8 3.3.8 5.3l.1 1.6zm-3.5-1.7a16.42 16.42 0 0 0-.5-4.1c-.3-1.2-.8-2.2-1.4-3s-1.4-1.5-2.2-1.8c-.9-.4-1.9-.6-3-.6-1 0-2.1.2-2.9.6-.9.4-1.6 1-2.2 1.8s-1.1 1.8-1.5 3c-.3 1.2-.5 2.6-.5 4.1v1.7a16.42 16.42 0 0 0 .5 4.1c.3 1.2.9 2.2 1.5 3s1.4 1.5 2.2 1.8c.9.4 1.8.6 2.9.6s2.2-.2 3-.6c.9-.4 1.6-1 2.2-1.8s1-1.8 1.4-3c.3-1.2.4-2.6.4-4.1l.1-1.7zm22.6 7.3c0-.6-.1-1.1-.3-1.6-.2-.4-.5-.9-1-1.3-.4-.3-1.1-.8-1.9-1.1l-3-1c-1.3-.3-2.4-.8-3.5-1.3-1-.4-1.9-1-2.7-1.6s-1.3-1.3-1.7-2.1-.6-1.7-.6-2.7.2-2 .6-2.9 1-1.6 1.8-2.2a10.62 10.62 0 0 1 2.8-1.5 13.61 13.61 0 0 1 3.6-.5c1.5 0 2.8.3 3.9.7s2.1 1 2.9 1.7 1.4 1.6 1.8 2.5.6 1.9.6 2.9h-3.5c0-.7-.1-1.4-.3-2-.3-.6-.6-1.1-1-1.6-.5-.4-1-.8-1.8-1-.7-.3-1.6-.3-2.5-.3-1 0-1.7.1-2.4.3s-1.2.5-1.7.9c-.4.3-.8.9-1 1.3-.2.5-.3 1-.3 1.7 0 .5.1 1 .3 1.5.3.4.6.9 1.1 1.3.5.3 1.1.8 1.9 1l2.8 1c1.5.4 2.8.9 3.8 1.4s2 1.1 2.7 1.7 1.2 1.4 1.6 2.2a7.78 7.78 0 0 1 .5 2.8c0 1-.2 2-.6 2.9s-1 1.6-1.8 2.2-1.7 1-2.9 1.4c-1.1.3-2.3.5-3.7.5-.8 0-1.6-.1-2.4-.3s-1.6-.3-2.3-.7c-.8-.3-1.4-.7-2.1-1.1a6.09 6.09 0 0 1-1.6-1.6c-.4-.6-.9-1.2-1.1-2-.3-.7-.4-1.6-.4-2.4h3.5c0 .9.2 1.6.5 2.3.3.6.9 1.2 1.4 1.6.6.4 1.3.7 2.1 1 .8.2 1.6.3 2.4.3 1.8 0 3.2-.3 4.1-1.1.9-.9 1.4-1.9 1.4-3.2zm25.9-16.6h-8.4v23.2H480V48.2h-8.4v-2.9h20.2l.1 2.9zm32.3 11c0 2-.3 3.7-.8 5.3s-1.2 2.9-2.1 4c-1 1.1-2 1.9-3.3 2.5s-2.8.9-4.3.9a9.9 9.9 0 0 1-4.2-.9c-1.3-.6-2.4-1.4-3.4-2.5s-1.6-2.4-2.2-4c-.5-1.6-.8-3.3-.8-5.3v-1.6c0-2 .3-3.7.8-5.3s1.2-2.9 2.2-4 2-1.9 3.3-2.5a9.9 9.9 0 0 1 4.2-.9c1.6 0 3 .3 4.3.9s2.4 1.4 3.3 2.5c1 1.1 1.6 2.4 2.1 4s.8 3.3.8 5.3l.1 1.6zm-3.4-1.7a16.42 16.42 0 0 0-.5-4.1c-.3-1.2-.8-2.2-1.4-3s-1.4-1.5-2.2-1.8c-.9-.4-1.9-.6-3-.6-1 0-2.1.2-2.9.6-.9.4-1.6 1-2.2 1.8s-1.1 1.8-1.4 3-.5 2.6-.5 4.1v1.7a16.42 16.42 0 0 0 .5 4.1c.3 1.2.9 2.2 1.5 3s1.4 1.5 2.2 1.8c.9.4 1.8.6 2.9.6s2.2-.2 3-.6c.9-.4 1.6-1 2.2-1.8s1-1.8 1.4-3c.3-1.2.4-2.6.4-4.1v-1.7zm23 2.4h-11v11.5h-3.5V45.3h16.2v2.9h-12.7V57h11v2.9zm30.9-12.7l-10.8 24.2h-3.5L571.3 48h-14.2v-2.8h17.6v2zm27.7 17.6c0-.6-.1-1.1-.3-1.6-.2-.4-.5-.9-1-1.3-.4-.3-1.1-.8-1.9-1.1l-3-1c-1.3-.3-2.4-.8-3.5-1.3-1-.4-1.9-1-2.7-1.6s-1.3-1.3-1.7-2.1-.6-1.7-.6-2.7.2-2 .6-2.9 1-1.6 1.8-2.2a10.62 10.62 0 0 1 2.8-1.5 13.61 13.61 0 0 1 3.6-.5c1.5 0 2.8.3 3.9.7s2.1 1 2.9 1.7 1.4 1.6 1.8 2.5.6 1.9.6 2.9h-3.5c0-.7-.1-1.4-.3-2-.3-.6-.6-1.1-1-1.6-.5-.4-1-.8-1.8-1-.7-.3-1.6-.3-2.5-.3-1 0-1.7.1-2.4.3s-1.2.5-1.7.9c-.4.3-.8.9-.9 1.3-.2.5-.3 1-.3 1.7 0 .5.1 1 .3 1.5.3.4.6.9 1.1 1.3.5.3 1.1.8 1.9 1l2.8 1c1.5.4 2.8.9 3.8 1.4s2 1.1 2.7 1.7 1.2 1.4 1.6 2.2a7.78 7.78 0 0 1 .5 2.8c0 1-.2 2-.6 2.9s-1 1.6-1.8 2.2-1.7 1-2.9 1.4c-1.1.3-2.3.5-3.7.5-.8 0-1.6-.1-2.4-.3s-1.6-.3-2.3-.7c-.8-.3-1.4-.7-2.1-1.1a6.09 6.09 0 0 1-1.6-1.6c-.4-.6-.9-1.2-1.1-2-.3-.7-.4-1.6-.4-2.4h3.5c0 .9.2 1.6.5 2.3.3.6.9 1.2 1.4 1.6.6.4 1.3.7 2.1 1 .8.2 1.6.3 2.4.3 1.8 0 3.2-.3 4.1-1.1.8-.9 1.3-1.9 1.3-3.2zm11.3-3.6v10.2h-3.5V45.3h9.6c1.5 0 2.8.2 3.9.6s2.1 1 2.9 1.6c.8.7 1.4 1.6 1.7 2.5.4 1 .6 2.1.6 3.2 0 1.3-.2 2.4-.6 3.4s-.9 1.8-1.7 2.5-1.7 1.2-2.9 1.6c-1.1.3-2.4.5-3.9.5h-6.1zm0-2.9h6.2c1 0 1.9-.1 2.6-.3s1.3-.6 1.8-1c.4-.4.8-1 1-1.6s.3-1.3.3-2.1c0-.7-.1-1.3-.3-2-.2-.6-.5-1.2-1-1.6-.4-.5-1-.9-1.8-1.1-.7-.3-1.6-.4-2.6-.4h-6.2v10.1zm34.5 1h-11.3v9.2H650v2.9h-16.6V45.3h16.4v2.9h-13v8.4h11.3l.1 2.7zm20.8 0h-11.3v9.2h13.1v2.9h-16.6V45.3h16.4v2.9h-13v8.4H669v2.7z"/><use xlink:href="#T"/><path d="M717.9 60.8h-6.1v10.5h-3.5v-26h8.6c2.9 0 5.2.7 6.8 2 1.6 1.4 2.4 3.3 2.4 5.9 0 1.6-.4 3-1.3 4.2s-2.1 2.1-3.6 2.7l6.1 11.1v.2h-3.7l-5.7-10.6zm-6.1-2.8h5.3c1 0 1.7-.1 2.4-.3.7-.3 1.3-.6 1.7-1s.8-1 1-1.6c.3-.6.3-1.2.3-1.9 0-.8-.1-1.5-.3-2.1-.3-.6-.6-1.1-1-1.6s-1-.8-1.8-1c-.7-.3-1.6-.3-2.6-.3h-5.2V58h.2zm33.9 1.3h-11.3v9.2h13.1v2.9H731V45.3h16.4v2.9h-13v8.4h11.3v2.7zm20.6 5.3h-11l-2.4 6.8h-3.5l9.9-26.1h3l10 26.1h-3.5l-2.5-6.8zm-10-2.8h8.9l-4.4-12.2-4.5 12.2z"/><use xlink:href="#T" x="100.6"/><path d="M803.6 71.4h-3.5V45.3h3.5v26.1zm26.3 0h-3.5l-13.1-20.1v20.1h-3.5V45.3h3.5l13.1 20.2V45.3h3.5v26.1zm25.4-3.4c-.3.3-.6.8-1 1.2s-1 .9-1.7 1.2-1.6.7-2.7 1c-1 .3-2.3.4-3.8.4a10.82 10.82 0 0 1-4.4-.9c-1.3-.6-2.5-1.4-3.5-2.4s-1.7-2.3-2.2-3.9-.8-3.3-.8-5.3v-2.1c0-2 .3-3.7.7-5.2.4-1.6 1.1-2.9 2-3.9s2-1.9 3.3-2.4c1.3-.6 2.8-.9 4.5-.9 1.5 0 2.8.2 3.9.6s2.1 1 2.9 1.6c.8.7 1.4 1.6 1.9 2.5.4 1 .8 2.1 1 3.2h-3.5c-.2-.7-.3-1.4-.6-2s-.7-1.2-1.1-1.6c-.5-.4-1.1-.9-1.8-1.1s-1.6-.4-2.6-.4c-1.2 0-2.2.3-3.2.7-.9.4-1.6 1-2.2 1.9s-1 1.8-1.3 3-.4 2.5-.4 4v2.1c0 1.5.2 2.9.5 4.1s.9 2.2 1.6 3 1.5 1.5 2.3 1.9c.9.4 1.9.6 3 .6 1 0 1.7-.1 2.4-.2s1.2-.3 1.6-.4.8-.3 1.1-.6.5-.4.7-.6v-5.9h-6v-2.8h9.5l-.1 9.6z"/></g><path d="M164.8 61.6c-.2 1.2-.4 2.4-.9 3.5-.4 1-1.1 2-1.9 2.8s-1.8 1.4-2.9 1.8c-1.2.4-2.5.7-4.1.7a9.58 9.58 0 0 1-4.2-.9c-1.3-.6-2.3-1.4-3.2-2.4s-1.6-2.3-2.1-3.8-.7-3.1-.7-5v-2.6a15.88 15.88 0 0 1 .8-5c.5-1.5 1.2-2.8 2.1-3.8 1-1 2-1.9 3.3-2.4s2.8-.9 4.4-.9c1.5 0 2.8.2 3.9.6s2.1 1 2.9 1.8 1.5 1.7 1.9 2.8c.4 1 .8 2.2.9 3.5h-3.5c-.2-1-.3-1.7-.6-2.4s-.7-1.4-1.1-1.9c-.5-.5-1.1-1-1.8-1.2-.7-.3-1.6-.4-2.6-.4-1.1 0-2.2.3-3 .7-.9.4-1.6 1-2.2 1.9-.6.8-1 1.8-1.3 2.9s-.4 2.4-.4 3.8v2.7c0 1.3.2 2.5.4 3.6.3 1.1.7 2.1 1.2 2.9.5.9 1.2 1.5 2.1 2s1.8.7 3 .7c1.1 0 2-.2 2.8-.4.8-.3 1.4-.6 1.9-1.1s.9-1.1 1.1-1.8c.3-.7.5-1.6.6-2.5l3.2-.2zm24.8-3.9c0 2-.3 3.7-.8 5.3s-1.2 2.9-2.1 4c-1 1.1-2 1.9-3.3 2.5s-2.8.9-4.3.9a9.58 9.58 0 0 1-4.2-.9c-1.3-.6-2.4-1.4-3.4-2.5s-1.6-2.4-2.2-4c-.5-1.6-.8-3.3-.8-5.3V56c0-2 .3-3.7.8-5.3s1.2-2.9 2.2-4 2-1.9 3.3-2.5a9.9 9.9 0 0 1 4.2-.9c1.6 0 3 .3 4.3.9s2.4 1.4 3.3 2.5c1 1.1 1.6 2.4 2.1 4s.8 3.3.8 5.3l.1 1.7zm-3.4-1.7a16.42 16.42 0 0 0-.5-4.1c-.3-1.2-.8-2.2-1.4-3s-1.4-1.5-2.2-1.8c-.9-.4-1.9-.6-3-.6-1 0-2.1.2-2.9.6-.9.4-1.6 1-2.2 1.8s-1.1 1.8-1.5 3c-.3 1.2-.5 2.6-.5 4.1v1.7a16.42 16.42 0 0 0 .5 4.1c.3 1.2.9 2.2 1.5 3s1.4 1.5 2.2 1.8c.9.4 1.8.6 2.9.6s2.2-.2 3-.6 1.6-1 2.2-1.8 1-1.8 1.4-3c.3-1.2.4-2.6.4-4.1l.1-1.7zm13-12.3l8.6 21.3 8.6-21.3h4.5v26.1h-3.5V59.7l.3-11-8.6 21.2h-2.7l-8.6-21.1.3 10.9v10.2h-3.5V43.7h4.6zm31.1 15.9v10.2h-3.5V43.7h9.6c1.5 0 2.8.2 3.9.6s2.1 1 2.9 1.6c.8.7 1.4 1.6 1.7 2.5.4 1 .6 2.1.6 3.2 0 1.3-.2 2.4-.6 3.4s-1 1.8-1.7 2.5c-.8.7-1.7 1.2-2.9 1.6-1.1.3-2.4.5-3.9.5h-6.1zm0-2.7h6.2c1 0 1.9-.1 2.6-.3s1.3-.6 1.8-1c.4-.4.8-1 1-1.6s.3-1.3.3-2.1c0-.7-.1-1.3-.3-2-.2-.6-.5-1.2-1-1.6-.4-.5-1-.9-1.8-1.1-.7-.3-1.6-.4-2.6-.4h-6.2v10.1zm31.6 6.2h-11l-2.4 6.8H245l9.9-26.1h3l10 26.1h-3.5l-2.5-6.8zm-9.8-2.9h8.9L256.5 48l-4.4 12.2zm29-.9H275v10.5h-3.5V43.7h8.6c2.9 0 5.2.7 6.8 2 1.6 1.4 2.4 3.3 2.4 5.9 0 1.6-.4 3-1.3 4.2s-2.1 2.1-3.6 2.7l6.1 11.1v.2h-3.9l-5.5-10.5zm-6.2-2.8h5.3c1 0 1.7-.1 2.4-.3.7-.3 1.3-.6 1.7-1s.8-1 1-1.6c.3-.6.3-1.2.3-1.9 0-.8-.1-1.5-.3-2.1-.3-.6-.6-1.1-1-1.6-.4-.4-1-.8-1.8-1-.7-.3-1.6-.3-2.6-.3h-5.2v9.8h.2zm33.9 1.3h-11.3V67h13.1v2.9H294V43.7h16.4v2.9h-13V55h11.3v2.8h.1zm32.6-11.2H333v23.2h-3.5V46.6h-8.4v-2.9h20.2l.1 2.9zm23.9 23.2h-3.5V57.7h-13.1v12.1h-3.5V43.7h3.5V55h13.1V43.7h3.5v26.1zm20.9-12h-11.3V67H388v2.9h-16.6V43.7h16.4v2.9h-13V55h11.3v2.8h.1zm34.4 3.8c-.2 1.2-.4 2.4-.9 3.5-.4 1-1.1 2-1.9 2.8s-1.8 1.4-2.9 1.8c-1.2.4-2.5.7-4.1.7a9.58 9.58 0 0 1-4.2-.9c-1.3-.6-2.3-1.4-3.2-2.4s-1.6-2.3-2.1-3.8-.7-3.1-.7-5v-2.6a15.88 15.88 0 0 1 .8-5c.5-1.5 1.2-2.8 2.1-3.8 1-1 2-1.9 3.3-2.4s2.8-.9 4.4-.9c1.5 0 2.8.2 3.9.6s2.1 1 2.9 1.8 1.5 1.7 1.9 2.8c.4 1 .8 2.2.9 3.5h-3.5c-.2-1-.3-1.7-.6-2.4s-.7-1.4-1.1-1.9c-.5-.5-1.1-1-1.8-1.2-.7-.3-1.6-.4-2.6-.4-1.1 0-2.2.3-3 .7-.9.4-1.6 1-2.2 1.9-.6.8-1 1.8-1.3 2.9s-.4 2.4-.4 3.8v2.7c0 1.3.2 2.5.4 3.6s.7 2.1 1.2 2.9c.5.9 1.2 1.5 2.1 2s1.8.7 3 .7c1.1 0 2-.2 2.8-.4.8-.3 1.4-.6 1.9-1.1s.9-1.1 1.1-1.8c.3-.7.5-1.6.6-2.5l3.2-.2zm24.7-3.9c0 2-.3 3.7-.8 5.3s-1.2 2.9-2.1 4c-1 1.1-2 1.9-3.3 2.5s-2.8.9-4.3.9a9.58 9.58 0 0 1-4.2-.9c-1.3-.6-2.4-1.4-3.4-2.5s-1.6-2.4-2.2-4c-.5-1.6-.8-3.3-.8-5.3V56c0-2 .3-3.7.8-5.3s1.2-2.9 2.2-4 2-1.9 3.3-2.5a9.9 9.9 0 0 1 4.2-.9c1.5 0 3 .3 4.3.9s2.4 1.4 3.3 2.5c1 1.1 1.6 2.4 2.1 4s.8 3.3.8 5.3l.1 1.7zM442 56a16.42 16.42 0 0 0-.5-4.1c-.3-1.2-.8-2.2-1.4-3s-1.4-1.5-2.2-1.8c-.9-.4-1.9-.6-3-.6-1 0-2.1.2-2.9.6-.9.4-1.6 1-2.2 1.8s-1.1 1.8-1.5 3c-.3 1.2-.5 2.6-.5 4.1v1.7a16.42 16.42 0 0 0 .5 4.1c.3 1.2.9 2.2 1.5 3s1.4 1.5 2.2 1.8c.9.4 1.8.6 2.9.6s2.2-.2 3-.6c.9-.4 1.6-1 2.2-1.8s1-1.8 1.4-3 .4-2.6.4-4.1l.1-1.7zm22.4 7.3c0-.6-.1-1.1-.3-1.6s-.5-.9-1-1.3c-.4-.3-1.1-.8-1.9-1.1l-3-1c-1.3-.3-2.4-.8-3.5-1.3-1-.4-1.9-1-2.7-1.6s-1.3-1.3-1.7-2.1-.6-1.7-.6-2.7.2-2 .6-2.9 1-1.6 1.8-2.2a10.62 10.62 0 0 1 2.8-1.5 13.61 13.61 0 0 1 3.6-.5c1.5 0 2.8.3 3.9.7s2.1 1 2.9 1.7 1.4 1.6 1.8 2.5c.4 1 .6 1.9.6 2.9h-3.5c0-.7-.1-1.4-.3-2-.3-.6-.6-1.1-1-1.6-.5-.4-1-.8-1.8-1-.7-.3-1.6-.3-2.5-.3s-1.7.1-2.4.3-1.2.5-1.7.9c-.4.3-.8.9-1 1.3-.2.5-.3 1-.3 1.7 0 .5.1 1 .3 1.5.3.4.6.9 1.1 1.3.5.3 1.1.8 1.9 1l2.8 1c1.5.4 2.8.9 3.8 1.4s2 1.1 2.7 1.7 1.2 1.4 1.6 2.2a7.78 7.78 0 0 1 .5 2.8c0 1-.2 2-.6 2.9s-1 1.6-1.8 2.2-1.7 1-2.9 1.4-2.3.5-3.7.5c-.8 0-1.6-.1-2.4-.3s-1.6-.3-2.3-.7c-.8-.3-1.4-.7-2.1-1.1a6.09 6.09 0 0 1-1.6-1.6c-.4-.6-.9-1.2-1.1-2-.3-.7-.4-1.6-.4-2.4h3.5c0 .9.2 1.6.5 2.3.3.6.9 1.2 1.4 1.6.6.4 1.3.7 2.1 1 .8.2 1.6.3 2.4.3 1.8 0 3.2-.3 4.1-1.1 1-.9 1.4-1.9 1.4-3.2zm25.9-16.7H482v23.2h-3.5V46.6h-8.4v-2.9h20.2v2.9zm32.4 11.1c0 2-.3 3.7-.8 5.3s-1.2 2.9-2.1 4c-1 1.1-2 1.9-3.3 2.5s-2.8.9-4.3.9a9.58 9.58 0 0 1-4.2-.9c-1.3-.6-2.4-1.4-3.4-2.5s-1.6-2.4-2.2-4c-.5-1.6-.8-3.3-.8-5.3V56c0-2 .3-3.7.8-5.3s1.2-2.9 2.2-4 2-1.9 3.3-2.5a9.9 9.9 0 0 1 4.2-.9c1.6 0 3 .3 4.3.9s2.4 1.4 3.3 2.5c1 1.1 1.6 2.4 2.1 4s.8 3.3.8 5.3l.1 1.7zm-3.4-1.7a16.42 16.42 0 0 0-.5-4.1c-.3-1.2-.8-2.2-1.4-3s-1.4-1.5-2.2-1.8c-.9-.4-1.9-.6-3-.6-1 0-2.1.2-2.9.6-.9.4-1.6 1-2.2 1.8s-1.1 1.8-1.4 3-.5 2.6-.5 4.1v1.7a16.42 16.42 0 0 0 .5 4.1c.3 1.2.9 2.2 1.5 3s1.4 1.5 2.2 1.8c.9.4 1.8.6 2.9.6s2.2-.2 3-.6 1.6-1 2.2-1.8 1-1.8 1.4-3c.3-1.2.4-2.6.4-4.1V56zm22.9 2.3h-11v11.5h-3.5V43.7h16.2v2.9h-12.7v8.9h11v2.8zm31.1-12.7l-10.8 24.3H559l10.8-23.4h-14.2v-2.8h17.6v1.9h.1zm27.6 17.7c0-.6-.1-1.1-.3-1.6-.2-.4-.5-.9-1-1.3-.4-.3-1.1-.8-1.9-1.1l-3-1c-1.3-.3-2.4-.8-3.5-1.3-1-.4-1.9-1-2.7-1.6s-1.3-1.3-1.7-2.1-.6-1.7-.6-2.7.2-2 .6-2.9 1-1.6 1.8-2.2a10.62 10.62 0 0 1 2.8-1.5c1.1-.4 2.3-.5 3.6-.5 1.5 0 2.8.3 3.9.7s2.1 1 2.9 1.7 1.4 1.6 1.8 2.5c.4 1 .6 1.9.6 2.9h-3.5c0-.7-.1-1.4-.3-2-.3-.6-.6-1.1-1-1.6-.5-.4-1-.8-1.8-1-.7-.3-1.6-.3-2.5-.3s-1.7.1-2.4.3-1.2.5-1.7.9c-.4.3-.8.9-1 1.3-.2.5-.3 1-.3 1.7 0 .5.1 1 .3 1.5.3.4.6.9 1.1 1.3.5.3 1.1.8 1.9 1l2.8 1c1.5.4 2.8.9 3.8 1.4s2 1.1 2.7 1.7 1.2 1.4 1.6 2.2a7.78 7.78 0 0 1 .5 2.8c0 1-.2 2-.6 2.9s-1 1.6-1.8 2.2c-.8.7-1.7 1-2.9 1.4s-2.3.5-3.7.5c-.8 0-1.6-.1-2.4-.3s-1.6-.3-2.3-.7c-.8-.3-1.4-.7-2.1-1.1a6.09 6.09 0 0 1-1.6-1.6c-.4-.6-.9-1.2-1.1-2-.3-.7-.4-1.6-.4-2.4h3.5c0 .9.2 1.6.5 2.3.3.6.9 1.2 1.4 1.6.6.4 1.3.7 2.1 1 .8.2 1.6.3 2.4.3 1.8 0 3.2-.3 4.1-1.1.9-.9 1.4-1.9 1.4-3.2zm11.3-3.7v10.2h-3.5V43.7h9.6c1.5 0 2.8.2 3.9.6s2.1 1 2.9 1.6c.8.7 1.4 1.6 1.7 2.5.4 1 .6 2.1.6 3.2 0 1.3-.2 2.4-.6 3.4s-1 1.8-1.7 2.5c-.8.7-1.7 1.2-2.9 1.6s-2.4.5-3.9.5h-6.1zm0-2.7h6.2c1 0 1.9-.1 2.6-.3s1.3-.6 1.8-1c.4-.4.8-1 1-1.6.3-.6.3-1.3.3-2.1 0-.7-.1-1.3-.3-2-.2-.6-.5-1.2-1-1.6-.4-.5-1-.9-1.8-1.1-.7-.3-1.6-.4-2.6-.4h-6.2v10.1zm34.5.9h-11.3V67h13.1v2.9h-16.6V43.7h16.4v2.9h-13V55h11.3l.1 2.8zm20.9 0h-11.3V67h13.1v2.9h-16.6V43.7h16.4v2.9h-13V55h11.3l.1 2.8zm6 12V43.7h7.3c1.7 0 3.3.3 4.7.9s2.6 1.4 3.6 2.4 1.8 2.3 2.3 3.9.9 3.2.9 5.1v1.6c0 1.9-.3 3.6-.9 5.1-.5 1.6-1.4 2.8-2.3 3.9-1 1-2.2 1.9-3.7 2.4-1.5.6-3.1.9-4.9.9l-7-.1zm3.5-23.2v20.5h3.6c1.4 0 2.6-.3 3.6-.7s1.9-1.1 2.7-1.9 1.2-1.8 1.6-2.9.5-2.4.5-3.9v-1.6c0-1.5-.2-2.9-.5-4-.3-1.2-.9-2.2-1.6-2.9-.7-.8-1.6-1.4-2.5-1.8-1-.4-2.2-.6-3.5-.6h-4v-.2h.1zm39.3 12.7h-6.1v10.5h-3.5V43.7h8.6c2.9 0 5.2.7 6.8 2 1.6 1.4 2.4 3.3 2.4 5.9 0 1.6-.4 3-1.3 4.2s-2.1 2.1-3.6 2.7l6.1 11.1v.2h-3.7l-5.7-10.5zm-6.2-2.8h5.3c.9 0 1.7-.1 2.4-.3.7-.3 1.3-.6 1.7-1s.8-1 1-1.6c.3-.6.3-1.2.3-1.9 0-.8-.1-1.5-.3-2.1-.3-.6-.6-1.1-1-1.6-.4-.4-1-.8-1.8-1-.7-.3-1.6-.3-2.6-.3H710v9.8h.2zm34 1.3h-11.3V67H746v2.9h-16.6V43.7h16.4v2.9h-13V55h11.3l.1 2.8zm20.5 5.3h-11l-2.4 6.8h-3.5l9.9-26.1h3l10 26.1h-3.5l-2.5-6.8zm-9.9-2.9h8.9L759.3 48l-4.5 12.2zm19.4 9.6V43.7h7.3c1.7 0 3.3.3 4.7.9s2.6 1.4 3.6 2.4 1.8 2.3 2.3 3.9.9 3.2.9 5.1v1.6c0 1.9-.3 3.6-.9 5.1-.5 1.6-1.4 2.8-2.3 3.9-1 1-2.2 1.9-3.7 2.4-1.5.6-3.1.9-4.9.9l-7-.1zm3.5-23.2v20.5h3.6c1.4 0 2.6-.3 3.6-.7s1.9-1.1 2.7-1.9c.7-.9 1.2-1.8 1.6-2.9.3-1.1.5-2.4.5-3.9v-1.6c0-1.5-.2-2.9-.5-4-.3-1.2-.9-2.2-1.6-2.9-.7-.8-1.6-1.4-2.5-1.8-1-.4-2.2-.6-3.5-.6h-4v-.2h.1zM802 69.8h-3.5V43.7h3.5v26.1zm26.4 0h-3.5l-13.1-20v20.1h-3.5V43.7h3.5L824.9 64V43.7h3.5v26.1zm25.4-3.3c-.3.3-.6.8-1 1.2s-1 .9-1.7 1.2-1.6.7-2.7 1c-1 .3-2.3.4-3.8.4a10.82 10.82 0 0 1-4.4-.9c-1.3-.6-2.5-1.4-3.5-2.4s-1.7-2.3-2.2-3.9-.8-3.3-.8-5.3v-2.1c0-2 .3-3.7.7-5.2.4-1.6 1.1-2.9 2-3.9s2-1.9 3.3-2.4c1.3-.6 2.8-.9 4.5-.9 1.5 0 2.8.2 3.9.6s2.1 1 2.9 1.6c.8.7 1.4 1.6 1.9 2.5.4 1 .8 2.1.9 3.2h-3.5c-.2-.7-.3-1.4-.6-2s-.7-1.2-1.1-1.6c-.5-.4-1.1-.9-1.8-1.1-.7-.3-1.6-.4-2.6-.4-1.2 0-2.2.3-3.2.7-.9.4-1.6 1-2.2 1.9s-1 1.8-1.3 3-.4 2.5-.4 4v2.1c0 1.5.2 2.9.5 4.1s.9 2.2 1.6 3c.7.9 1.5 1.5 2.3 1.9 1 .4 1.9.6 3 .6 1 0 1.7-.1 2.4-.2s1.2-.3 1.6-.4.8-.3 1.1-.6.5-.4.7-.6v-6h-6v-2.8h9.5v9.7z" class="P"/><path d="M125.3 97h2.8v2.8h-2.8z" class="R"/><defs ><path id="B" d="M781 255.1h-2.7v4.7h-1.5v-11.5h3.8c1.3 0 2.2.3 3 .9.7.6 1.1 1.4 1.1 2.6 0 .7-.2 1.3-.5 1.9-.4.5-.9.9-1.6 1.2l2.7 4.8v.1h-1.6l-2.7-4.7zm-2.7-1.2h2.3c.4 0 .8-.1 1.1-.2s.5-.3.8-.4.4-.4.4-.7.2-.5.2-.8c0-.4-.1-.6-.2-.9s-.3-.5-.4-.7-.4-.4-.8-.4c-.4-.1-.7-.2-1.2-.2h-2.2v4.3z"/><path id="C" d="M562.4 363.3c0-.3 0-.6-.1-.7-.1-.2-.3-.4-.5-.6s-.5-.4-.8-.5c-.4-.1-.8-.3-1.4-.5l-1.6-.6c-.5-.2-.8-.5-1.2-.7-.4-.3-.6-.6-.7-.9-.2-.4-.3-.7-.3-1.2s.1-.9.3-1.3.5-.7.8-1 .7-.6 1.3-.7 1-.3 1.7-.3 1.3.1 1.8.3.9.5 1.3.8c.4.4.7.7.8 1.1.2.4.3.9.3 1.4h-1.6c0-.4-.1-.7-.2-.9-.1-.3-.3-.6-.5-.7-.2-.2-.5-.4-.8-.5-.4-.1-.7-.2-1.1-.2-.5 0-.7.1-1.1.2s-.6.3-.7.4c-.2.1-.4.4-.5.7s-.2.5-.2.7.1.5.2.7.3.4.5.6.5.4.8.5c.4.2.7.3 1.3.5.7.2 1.3.4 1.8.7l1.2.7c.3.3.6.7.7 1 .2.4.3.7.3 1.2s-.1.9-.3 1.3-.5.7-.8 1c-.4.3-.8.5-1.3.7s-1.1.2-1.7.2c-.4 0-.7 0-1.1-.1l-1-.3c-.4-.1-.7-.3-.9-.5-.3-.2-.6-.5-.7-.7-.2-.3-.4-.6-.5-.9-.1-.4-.2-.7-.2-1.1h1.6a1.69 1.69 0 0 0 .3 1c.2.3.4.6.7.7.3.2.6.4.9.5.4.1.7.1 1.1.1.8 0 1.5-.2 1.9-.5.2-.4.2-1 .2-1.6z"/><path id="D" d="M341.1 464.3h-4.3v3.5h5v1.1h-6.4v-10.1h6.3v1.1h-5v3.3h4.3v1.1h.1z"/><path id="E" d="M807.1 335.6c0 .3 0 .5-.1.7l-.3.8c-.1.3-.3.5-.5.7s-.4.5-.6.6l-.8-.5c.3-.4.5-.7.5-1.1.1-.4.2-.7.2-1.2v-1.2h1.5l.1 1.2z"/><path id="F" d="M816.2 331.1c0 .9-.1 1.7-.3 2.4-.2.6-.5 1.2-.7 1.6a2.73 2.73 0 0 1-1.2.9c-.5.2-1 .3-1.6.3a4.53 4.53 0 0 1-1.6-.3c-.5-.2-.8-.5-1.2-.9s-.5-.9-.7-1.6c-.2-.6-.3-1.5-.3-2.4v-1.8c0-.9.1-1.7.3-2.4.2-.6.5-1.2.7-1.6.3-.4.7-.6 1.2-.8s1-.3 1.6-.3 1.1.1 1.6.3.8.5 1.2.8c.4.4.5.9.7 1.6.2.6.3 1.5.3 2.4v1.8zm-1.5-2a6.96 6.96 0 0 0-.2-1.6c-.1-.5-.3-.8-.5-1.1s-.5-.5-.7-.6c-.3-.2-.5-.2-.9-.2s-.6.1-.9.2-.5.4-.7.6c-.2.3-.4.6-.5 1.1s-.2 1-.2 1.6v2.3a6.96 6.96 0 0 0 .2 1.6c.1.4.3.8.5 1.2.2.3.5.5.7.6.3.1.5.2.9.2s.6-.1.9-.2.5-.4.7-.6c.2-.3.4-.6.5-1.2.1-.5.1-1 .1-1.6l.1-2.3z"/><path id="G" d="M575.6 423.9c0 .9-.1 1.7-.2 2.3-.2.6-.4 1.1-.7 1.5s-.7.7-1.1.8-.9.3-1.4.3-1-.1-1.4-.3-.8-.4-1.1-.8-.5-.9-.7-1.5-.3-1.4-.3-2.3v-1.7c0-.9.1-1.7.2-2.3s.4-1.1.7-1.5.7-.6 1.1-.8.9-.2 1.4-.2 1 .1 1.4.2.8.4 1.1.8.5.9.7 1.5.2 1.4.2 2.3l.1 1.7zm-1.4-2c0-.6 0-1.2-.1-1.6s-.2-.8-.4-1.1-.4-.5-.7-.6-.6-.2-.9-.2-.6.1-.9.2-.5.3-.7.6-.3.6-.4 1.1c-.1.4-.1 1-.1 1.6v2.1c0 .6 0 1.1.1 1.6s.2.8.4 1.1.4.5.7.6.6.2.9.2.6-.1.9-.2a.9.9 0 0 0 .6-.6c.2-.3.3-.6.4-1.1s.1-1 .1-1.6l.1-2.1z"/><path id="H" d="M584.3 423.9c0 .9-.1 1.7-.2 2.3-.2.6-.4 1.1-.7 1.5s-.7.7-1.1.8-.9.3-1.4.3-1-.1-1.4-.3-.8-.4-1.1-.8-.5-.9-.7-1.5-.3-1.4-.3-2.3v-1.7c0-.9.1-1.7.2-2.3s.4-1.1.7-1.5.7-.6 1.1-.8.9-.2 1.4-.2 1 .1 1.4.2.8.4 1.1.8.5.9.7 1.5.2 1.4.2 2.3l.1 1.7zm-1.4-2c0-.6 0-1.2-.1-1.6s-.2-.8-.4-1.1-.4-.5-.7-.6-.6-.2-.9-.2-.6.1-.9.2-.5.3-.7.6-.3.6-.4 1.1c-.1.4-.1 1-.1 1.6v2.1c0 .6 0 1.1.1 1.6s.2.8.4 1.1.4.5.7.6.6.2.9.2.6-.1.9-.2a.9.9 0 0 0 .6-.6c.2-.3.3-.6.4-1.1s.1-1 .1-1.6v-2.1h.1z"/><path id="I" d="M266.7 214.7h4.3c.1.9.3 1.5 1 1.9a4.99 4.99 0 0 0 2.6.7c.8 0 1.4-.1 2-.5s.8-.7.8-1.2c0-.8-.9-1.3-2.7-1.7-.8-.1-1.3-.3-1.7-.4-2.2-.5-3.7-1.2-4.5-2-.9-.8-1.2-1.8-1.2-3.1 0-1.6.6-3 1.8-4s3-1.4 5-1.4c2.2 0 3.9.5 5.3 1.4 1.2 1.1 1.9 2.4 2 4.1h-2.8c-.8 0-1.4-.3-1.8-1.1l-.5-.5c-.5-.4-1.2-.6-2.1-.6s-1.5.1-1.9.4-.6.7-.6 1.1c0 .7 1.1 1.2 3.3 1.7.3.1.5.1.7.2s.4.1.5.1c2.2.5 3.7 1.2 4.5 1.9.8.8 1.2 1.8 1.2 3.1 0 1.8-.7 3.3-2 4.3-1.2.9-3.2 1.4-5.7 1.4-2.4 0-4.2-.5-5.4-1.4-1.2-1-1.8-2.4-1.8-4.3l-.3-.1z"/><path id="J" d="M287.1 224.4c0 .6-.2 1.1-.7 1.5-.4.4-.9.7-1.5.7h-2.2v-15.8c0-3 .9-5 2.6-6.1s3.6-1.6 5.6-1.6c1.1 0 2.1.2 3.2.6s2 1 2.6 1.8c1.2 1.6 1.9 3.8 1.9 6.4 0 2.7-.7 4.9-1.9 6.5s-2.9 2.4-4.9 2.4c-1.1 0-2-.2-2.8-.6-.9-.4-1.5-1.1-2-2l.1 6.2zm7.2-12.5c0-1.6-.3-3-1-3.8-.7-.9-1.6-1.3-2.8-1.3-1.1 0-2 .5-2.7 1.3-.6.8-.9 2.1-.9 3.8 0 1.6.3 2.8 1 3.6.7.9 1.6 1.3 2.8 1.3a3.17 3.17 0 0 0 2.6-1.3c.7-.9 1-2.1 1-3.6z"/><path id="K" d="M311.7 215.1h3.2c-.5 1.8-1.4 3.2-2.7 4.1-1.3 1-3 1.4-5 1.4-2.4 0-4.3-.8-5.6-2.4-1.4-1.5-2-3.7-2-6.6 0-2.7.7-4.9 2-6.4 1.4-1.6 3.2-2.4 5.6-2.4 2.6 0 4.5.8 5.9 2.3 1.4 1.6 2 3.7 2 6.6v.8c0 .2 0 .4-.1.5h-11c.1 1.3.3 2.3 1 3 .5.7 1.4 1 2.5 1 .7 0 1.3-.1 1.8-.5.1-.1.3-.1.3-.2l.3-.3c.1-.1.2-.3.5-.5.4-.3.7-.4 1.3-.4zm-7.6-5h6.5c-.1-1.1-.4-2-.9-2.6s-1.3-.9-2.4-.9c-.9 0-1.7.3-2.3.9s-.9 1.5-.9 2.6z"/><path id="L" d="M328.5 215.1h3.2c-.5 1.8-1.4 3.2-2.7 4.1-1.3 1-3 1.4-5 1.4-2.4 0-4.3-.8-5.6-2.4-1.4-1.5-2-3.7-2-6.6 0-2.7.7-4.9 2-6.4 1.4-1.6 3.2-2.4 5.6-2.4 2.6 0 4.5.8 5.9 2.3 1.4 1.6 2 3.7 2 6.6v.8c0 .2 0 .4-.1.5h-11c.1 1.3.3 2.3 1 3 .5.7 1.4 1 2.5 1 .7 0 1.3-.1 1.8-.5.1-.1.3-.1.3-.2l.3-.3c.1-.1.2-.3.5-.5.4-.3.8-.4 1.3-.4zm-7.6-5h6.5c-.1-1.1-.4-2-.9-2.6s-1.3-.9-2.4-.9c-.9 0-1.7.3-2.3.9s-.9 1.5-.9 2.6z"/><path id="M" d="M350.5 220.3v-8.2c0-1.6.3-3 .7-4.1.5-1.1 1.2-2 2-2.7s1.8-1.1 2.8-1.4c1.1-.3 2.2-.5 3.3-.5h.6v4.5h-1.4c-1.2 0-2.2.3-2.8.9s-.9 1.5-.9 2.8v8.7h-4.3z"/><path id="N" d="M372.9 214.9h3.2c-.5 1.8-1.4 3.2-2.7 4.1-1.3 1-3 1.4-5 1.4-2.4 0-4.3-.8-5.6-2.4-1.4-1.5-2-3.7-2-6.6 0-2.7.7-4.9 2-6.4 1.4-1.6 3.2-2.4 5.6-2.4 2.6 0 4.5.8 5.9 2.3 1.4 1.6 2 3.7 2 6.6v.8c0 .2 0 .4-.1.5h-11c.1 1.3.3 2.3 1 3 .5.7 1.4 1 2.5 1 .7 0 1.3-.1 1.8-.5.1-.1.3-.1.3-.2l.3-.3c.1-.1.2-.3.5-.5.3-.3.7-.4 1.3-.4zm-7.6-4.9h6.5c-.1-1.1-.4-2-.9-2.6s-1.3-.9-2.4-.9c-.9 0-1.7.3-2.3.9s-.9 1.5-.9 2.6z"/><path id="O" d="M388.3 219.6c-.9.5-1.8.7-2.8.9-1 .1-1.9.1-2.6.1-1.5 0-2.9-.4-4-1.2-1.1-.9-1.7-2.2-1.7-4.1 0-1.8.5-3.1 1.6-3.8 1.1-.8 2.4-1.2 4-1.5.2 0 .5 0 .8-.1s.7-.1 1.1-.1c1.8-.3 2.8-.8 2.8-1.6 0-.7-.3-1.1-1-1.2-.7-.2-1.2-.3-1.8-.3s-1.1.1-1.6.3-.8.5-1.1 1h-4.3c.2-1.3.8-2.4 1.8-3.2 1.1-1 2.8-1.4 4.9-1.4 2.4 0 4.1.4 5.3 1.2 1.2.9 1.8 2 1.8 3.5v5.8c0 1.7-.3 3-.9 4-.7.6-1.4 1.3-2.3 1.7zm-1-7.8c-.6.3-1.4.6-2.5.9l-1.4.3c-.8.2-1.3.5-1.6.9-.3.5-.5.9-.5 1.4 0 .7.2 1.1.6 1.5.4.3.9.5 1.6.5 1.2 0 2.1-.3 2.8-1s1.1-1.6 1.1-2.8l-.1-1.7z"/><path id="P" d="M443.7 219.2v-1.1c-.8 1.2-1.8 1.9-3.1 2.2s-2.6.2-3.9-.3c-1.2-.5-2.4-1.4-3.3-2.8s-1.4-3.2-1.4-5.4c0-2.6.6-4.8 1.8-6.4s3.2-2.4 5.8-2.4c2 0 3.9.5 5.6 1.6s2.6 3.2 2.6 6.1v9c0 3-.9 5-2.6 6.1-1.8 1.1-3.6 1.6-5.6 1.6-3.9 0-6.3-1.8-7.2-5.4h4.7c.3.6.9 1.1 1.6 1.4a3.86 3.86 0 0 0 2.1.3c.7-.1 1.3-.6 1.9-1.2.6-.8.9-1.9 1-3.3zm-7.3-7.2c0 3 .9 4.5 2.6 4.9 1.7.3 3-.1 3.7-1.2.4-.5.7-1.2.9-2.2s.2-2 0-3c-.1-1-.5-1.8-1.1-2.6-.5-.8-1.4-1.1-2.4-1.1-1.4 0-2.4.5-3 1.6-.4 1-.7 2.2-.7 3.6z"/><path id="Q" d="M258.4 227.8h-7.8c.1-5.5 1.4-10.1 3.7-15.3 2-4.9 5-9.8 9.1-14.8l-18.5.1v-6.3l24.2-.1c1.9 0 3.1.7 3.3 2 .3 1.4.1 2.6-.8 3.5-2 2.3-3.8 4.7-5.4 7-1.6 2.4-2.9 5-3.9 7.5-2.4 5.1-3.7 10.9-3.9 16.4z"/><path id="R" d="M328.6 302.9h-3.2v8.6h-2.1v-8.6h-3.1v-1.8h8.4v1.8z"/><path id="S" d="M311.8 321.6h-4.1v2.8h4.9v1.8h-7v-10.4h7v1.8h-4.9v2.4h4.1v1.6z"/><path id="T" d="M675.2 71.4V45.3h7.3c1.7 0 3.3.3 4.7.9s2.6 1.4 3.6 2.4 1.8 2.3 2.3 3.9.9 3.2.9 5.1v1.6c0 1.9-.3 3.6-.9 5.1-.5 1.6-1.4 2.8-2.3 3.9-1 1-2.2 1.9-3.7 2.4-1.5.6-3.1.9-4.9.9 0-.1-7-.1-7-.1zm3.4-23.2v20.5h3.6c1.4 0 2.6-.3 3.6-.7s1.9-1.1 2.7-1.9c.7-.9 1.2-1.8 1.6-2.9s.5-2.4.5-3.9v-1.6c0-1.5-.2-2.9-.5-4-.3-1.2-.9-2.2-1.6-2.9-.7-.8-1.6-1.4-2.5-1.8-1-.4-2.2-.6-3.5-.6h-4v-.2h.1z"/></defs></svg>