<?xml version="1.0" encoding="utf-8"?>
<!-- Generator: Adobe Illustrator 21.1.0, SVG Export Plug-In . SVG Version: 6.00 Build 0)  -->
<svg version="1.1" id="Layer_1" xmlns="http://www.w3.org/2000/svg" xmlns:xlink="http://www.w3.org/1999/xlink" x="0px" y="0px"
	 viewBox="0 0 527 373" style="enable-background:new 0 0 527 373;" xml:space="preserve">
<style type="text/css">
	.st0{fill:#B2DBFB;}
	.st1{fill:#4D4D4D;}
	.st2{fill:#FFFFFF;}
</style>
<rect x="-2" y="-2" class="st0" width="532" height="378"/>
<g>
	<g>
		<g>
			<path class="st1" d="M178.8,271.3H149c-1.8,0-3.3,1.5-3.3,3.3v19.9c0,1.8,1.5,3.3,3.3,3.3h8.3v3.3h13.2v-3.3h8.3
				c1.8,0,3.3-1.5,3.3-3.3l0-19.9C182.1,272.8,180.6,271.3,178.8,271.3z M178.8,294.5H149v-19.9h29.8V294.5z"/>
			<rect x="187.1" y="271.3" class="st1" width="14.9" height="31.5"/>
		</g>
		<g>
			<circle class="st1" cx="176" cy="319.5" r="10.5"/>
			<path class="st1" d="M176,331.3c-7,0-21,3.5-21,10.5v5.3h42v-5.3C197,334.8,183,331.3,176,331.3z"/>
		</g>
	</g>
	<g>
		<g>
			<path class="st1" d="M361.8,271.3H332c-1.8,0-3.3,1.5-3.3,3.3v19.9c0,1.8,1.5,3.3,3.3,3.3h8.3v3.3h13.2v-3.3h8.3
				c1.8,0,3.3-1.5,3.3-3.3l0-19.9C365.1,272.8,363.6,271.3,361.8,271.3z M361.8,294.5H332v-19.9h29.8V294.5z"/>
			<rect x="370.1" y="271.3" class="st1" width="14.9" height="31.5"/>
		</g>
		<g>
			<circle class="st1" cx="359" cy="319.5" r="10.5"/>
			<path class="st1" d="M359,331.3c-7,0-21,3.5-21,10.5v5.3h42v-5.3C380,334.8,366,331.3,359,331.3z"/>
		</g>
	</g>
	<g>
		<g>
			<path class="st1" d="M266.8,271.3H237c-1.8,0-3.3,1.5-3.3,3.3v19.9c0,1.8,1.5,3.3,3.3,3.3h8.3v3.3h13.2v-3.3h8.3
				c1.8,0,3.3-1.5,3.3-3.3l0-19.9C270.1,272.8,268.6,271.3,266.8,271.3z M266.8,294.5H237v-19.9h29.8V294.5z"/>
			<rect x="275.1" y="271.3" class="st1" width="14.9" height="31.5"/>
		</g>
		<g>
			<circle class="st1" cx="264" cy="319.5" r="10.5"/>
			<path class="st1" d="M264,331.3c-7,0-21,3.5-21,10.5v5.3h42v-5.3C285,334.8,271,331.3,264,331.3z"/>
		</g>
	</g>
</g>
<path class="st2" d="M306.7,169c-4-20.3-21.8-35.5-43.2-35.5c-17,0-31.7,9.6-39.1,23.7c-17.7,1.9-31.4,16.9-31.4,35
	c0,19.4,15.8,35.3,35.3,35.3h76.4c16.2,0,29.4-13.2,29.4-29.4C334,182.6,322,170,306.7,169z"/>
<rect x="310.3" y="144.8" transform="matrix(0.9333 -0.3592 0.3592 0.9333 -30.0962 134.7114)" class="st2" width="74.4" height="7"/>
<rect x="136.5" y="142.7" transform="matrix(-0.8211 -0.5708 0.5708 -0.8211 227.0334 363.8491)" class="st2" width="68.1" height="7.3"/>
<g>
	<g>
		<circle class="st1" cx="484.8" cy="83.8" r="9"/>
		<path class="st1" d="M484.8,93.8c-6,0-18,3-18,9v4.5h35.9v-4.5C502.8,96.8,490.8,93.8,484.8,93.8z"/>
	</g>
	<path class="st1" d="M496,67.8c1.6,0,3-1.3,3-3l0-16.5c0-1.6-1.3-3-3-3H472c-1.6,0-3,1.3-3,3v16.5c0,1.6,1.3,3,3,3h-6
		c0,1.6,1.3,3,3,3h29.9c1.6,0,3-1.3,3-3H496z M472,48.4H496v16.5H472V48.4z M484,69.3c-0.8,0-1.5-0.7-1.5-1.5c0-0.8,0.7-1.5,1.5-1.5
		c0.8,0,1.5,0.7,1.5,1.5C485.5,68.7,484.8,69.3,484,69.3z"/>
</g>
<path class="st1" d="M88.4,56.5v32.8h14.1V56.5H88.4z M116.5,56.5v32.8h14.1V56.5H116.5z M79,112.7h89V98.6H79V112.7z M144.6,56.5
	v32.8h14.1V56.5H144.6z M123.5,14.3L79,37.7v9.4h89v-9.4L123.5,14.3z"/>
<g>
	<g>
		<circle class="st1" cx="47.8" cy="85.8" r="9"/>
		<path class="st1" d="M47.8,95.8c-6,0-18,3-18,9v4.5h35.9v-4.5C65.8,98.8,53.8,95.8,47.8,95.8z"/>
	</g>
	<path class="st1" d="M59,69.8c1.6,0,3-1.3,3-3l0-16.5c0-1.6-1.3-3-3-3H35c-1.6,0-3,1.3-3,3v16.5c0,1.6,1.3,3,3,3h-6
		c0,1.6,1.3,3,3,3h29.9c1.6,0,3-1.3,3-3H59z M35,50.4H59v16.5H35V50.4z M47,71.3c-0.8,0-1.5-0.7-1.5-1.5c0-0.8,0.7-1.5,1.5-1.5
		c0.8,0,1.5,0.7,1.5,1.5C48.5,70.7,47.8,71.3,47,71.3z"/>
</g>
<path class="st1" d="M387.4,109.8V75h23.2v34.8h29V63.4H457l-58-52.2l-58,52.2h17.4v46.4H387.4z"/>
<rect x="256" y="231" class="st2" width="10" height="33"/>
</svg>
