<?xml version="1.0" encoding="utf-8"?>
<!-- Generator: Adobe Illustrator 21.1.0, SVG Export Plug-In . SVG Version: 6.00 Build 0)  -->
<svg version="1.1" id="Layer_1" xmlns="http://www.w3.org/2000/svg" xmlns:xlink="http://www.w3.org/1999/xlink" x="0px" y="0px"
	 viewBox="0 0 500 400" style="enable-background:new 0 0 500 400;" xml:space="preserve">
<style type="text/css">
	.st0{fill:#E6E6E6;}
	.st1{fill:#F2F2F2;}
	.st2{fill:none;}
	.st3{fill:#F47F56;}
	.st4{fill:#368408;}
	.st5{fill:#563407;}
	.st6{fill:#EDD1B7;}
	.st7{fill:#4A5256;}
	.st8{fill:#EAE8D6;}
	.st9{fill:#8C6338;}
	.st10{fill:#7F5936;}
	.st11{fill:#3D3D3D;}
	.st12{fill:#FFFFFF;}
	.st13{fill:#3A3A3A;}
	.st14{fill:#515151;}
	.st15{fill:#302E2D;}
	.st16{fill:#68473C;}
	.st17{opacity:0.3;fill:#161616;enable-background:new    ;}
	.st18{fill:#235CAF;}
	.st19{fill:#143D66;}
	.st20{fill:#1D5291;}
	.st21{fill:#5D6057;}
	.st22{fill:#444444;}
	.st23{fill:#031133;}
	.st24{fill:#D1D1D1;}
	.st25{fill:#161F3A;}
	.st26{fill:#B4B9BF;}
	.st27{fill:#DDB99B;}
	.st28{fill:#AA421D;}
	.st29{fill:#749E19;}
	.st30{fill:#3E4917;}
	.st31{fill:#59750A;}
	.st32{fill:#231F20;}
	.st33{fill:#D3D0BA;}
	.st34{fill:#B2287E;}
	.st35{fill:#F9A0CB;}
	.st36{fill:#BC5B93;}
	.st37{fill:#EA8BBD;}
	.st38{fill:#724514;}
	.st39{fill:#1F1F1D;}
	.st40{fill:#71A3B5;}
	.st41{fill:#4D4D4D;}
	.st42{fill:#998675;}
	.st43{fill:#8E7C6E;}
	.st44{fill:#8CC63F;}
	.st45{fill:#F7E7A1;}
	.st46{fill:#CEBB6E;}
	.st47{fill:#E8D585;}
	.st48{fill:#3F3021;}
	.st49{fill:#4F2B08;}
	.st50{fill:#CCCCCC;}
</style>
<g>
	<path class="st0" d="M315.4,202.6c-3.4-17.5-18.7-30.5-37.1-30.5c-5.9,0-11.6,1.4-16.6,3.8c-6.9-5.5-15.6-8.7-25.1-8.7
		c-15.6,0-29.1,8.8-35.9,21.8c-16.3,1.7-28.9,15.5-28.9,32.2c0,17.8,14.5,32.4,32.4,32.4h70.2c2.1,0,4.1-0.2,6.1-0.7h33.1
		c13.9,0,25.3-11.3,25.3-25.3C338.9,214.3,328.6,203.5,315.4,202.6z"/>
	<path class="st1" d="M310.6,199.8c-3.4-17.5-18.7-30.5-37.1-30.5c-5.9,0-11.6,1.4-16.6,3.8c-6.9-5.5-15.6-8.7-25.1-8.7
		c-15.6,0-29.1,8.8-35.9,21.8c-16.3,1.7-28.9,15.5-28.9,32.2c0,17.8,14.5,32.4,32.4,32.4h70.2c2.1,0,4.1-0.2,6.1-0.7h33.1
		c13.9,0,25.3-11.3,25.3-25.3C334.1,211.5,323.7,200.7,310.6,199.8z"/>
</g>
<g>
	<path class="st2" d="M55,113h-9c-0.5,0-1,0.5-1,1v16c0,0.5,0.5,1,1,1h9c0.5,0,1-0.5,1-1v-16C56,113.5,55.5,113,55,113z"/>
	<path class="st2" d="M133,113h-9c-0.5,0-1,0.5-1,1v16c0,0.5,0.5,1,1,1h9c0.5,0,1-0.5,1-1v-16C134,113.5,133.5,113,133,113z"/>
	<path class="st2" d="M42,113h-9c-0.5,0-1,0.5-1,1v16c0,0.5,0.5,1,1,1h9c0.5,0,1-0.5,1-1v-16C43,113.5,42.5,113,42,113z"/>
	<path class="st2" d="M42,88h-9c-0.5,0-1,0.5-1,1v16c0,0.5,0.5,1,1,1h9c0.5,0,1-0.5,1-1V89C43,88.5,42.5,88,42,88z"/>
	<path class="st2" d="M55,88h-3h-6c-0.5,0-1,0.5-1,1v16c0,0.5,0.5,1,1,1h9c0.5,0,1-0.5,1-1v-4V89C56,88.5,55.5,88,55,88z"/>
	<path class="st2" d="M146,88h-9c-0.5,0-1,0.5-1,1v16c0,0.5,0.5,1,1,1h9c0.5,0,1-0.5,1-1V89C147,88.5,146.5,88,146,88z"/>
	<path class="st2" d="M146,113h-9c-0.5,0-1,0.5-1,1v16c0,0.5,0.5,1,1,1h9c0.5,0,1-0.5,1-1v-16C147,113.5,146.5,113,146,113z"/>
	<path class="st2" d="M133,88h-9c-0.5,0-1,0.5-1,1v16c0,0.5,0.5,1,1,1h9c0.5,0,1-0.5,1-1V89C134,88.5,133.5,88,133,88z"/>
	<path class="st3" d="M151,79h-33v-0.3H59V79H27c-1.1,0-2,0.9-2,2v57c0,1.1,0.9,2,2,2h34h16V99c0-1.1,0.9-2,2-2h20c1.1,0,2,0.9,2,2
		v41h15c0.2,0,0.3,0,0.5-0.1c0.2,0,0.3,0.1,0.5,0.1h34c1.1,0,2-0.9,2-2V81C153,79.9,152.1,79,151,79z M43,130c0,0.5-0.5,1-1,1h-9
		c-0.5,0-1-0.5-1-1v-16c0-0.5,0.5-1,1-1h9c0.5,0,1,0.5,1,1V130z M43,105c0,0.5-0.5,1-1,1h-9c-0.5,0-1-0.5-1-1V89c0-0.5,0.5-1,1-1h9
		c0.5,0,1,0.5,1,1V105z M56,130c0,0.5-0.5,1-1,1h-9c-0.5,0-1-0.5-1-1v-16c0-0.5,0.5-1,1-1h9c0.5,0,1,0.5,1,1V130z M56,101v4
		c0,0.5-0.5,1-1,1h-9c-0.5,0-1-0.5-1-1V89c0-0.5,0.5-1,1-1h6h3c0.5,0,1,0.5,1,1V101z M134,130c0,0.5-0.5,1-1,1h-9c-0.5,0-1-0.5-1-1
		v-16c0-0.5,0.5-1,1-1h9c0.5,0,1,0.5,1,1V130z M134,105c0,0.5-0.5,1-1,1h-9c-0.5,0-1-0.5-1-1V89c0-0.5,0.5-1,1-1h9c0.5,0,1,0.5,1,1
		V105z M147,130c0,0.5-0.5,1-1,1h-9c-0.5,0-1-0.5-1-1v-16c0-0.5,0.5-1,1-1h9c0.5,0,1,0.5,1,1V130z M147,105c0,0.5-0.5,1-1,1h-9
		c-0.5,0-1-0.5-1-1V89c0-0.5,0.5-1,1-1h9c0.5,0,1,0.5,1,1V105z"/>
	<path class="st3" d="M118,58c0-0.4-0.1-0.7-0.3-1h0.5L92,41.7V34h17V19H92v-1c0-1.1-0.9-2-2-2h-2c-1.1,0-2,0.9-2,2v23.7L60.7,56
		l-1.2,0.7c-0.1,0.1-0.1,0.2-0.2,0.3c-0.2,0.3-0.3,0.6-0.3,1v20.8h59V58z M89,74c-4.4,0-8-3.6-8-8s3.6-8,8-8s8,3.6,8,8
		S93.4,74,89,74z"/>
	<rect x="92" y="19" class="st4" width="17" height="15"/>
	<path class="st5" d="M118,56.5h0.5l-25.7-15h-7L61,55.5l-1.2,0.7c-0.1,0.1-0.1,0.2-0.2,0.3c-0.1,0.1-0.1,0.2-0.1,0.3h58.6
		C118,56.7,118,56.6,118,56.5z"/>
</g>
<g>
	<path class="st6" d="M325.4,355.7c0-0.9-0.7-1.5-1.5-1.5h-1.7v-1.3c0-0.9,0.7-1.5,1.5-1.5h1.8c0.9,0,1.5,0.7,1.5,1.5v1.7
		c0,0.9-0.7,1.5-1.5,1.5h-0.1L325.4,355.7L325.4,355.7z"/>
	<g>
		<polygon class="st7" points="337.3,356.1 342,337 342.7,337.1 338.1,356.3 		"/>
		<rect x="322.2" y="354.8" class="st7" width="16.4" height="1"/>
	</g>
	<path class="st8" d="M253.3,356.3c0-0.9-0.7-1.5-1.5-1.5h-1.7v-1.3c0-0.9,0.7-1.5,1.5-1.5h1.8c0.9,0,1.5,0.7,1.5,1.5v1.7
		c0,0.9-0.7,1.5-1.5,1.5h-0.1V356.3L253.3,356.3z"/>
	<g>
		<polygon class="st7" points="262.7,356.5 267.3,337.4 268.1,337.5 263.5,356.7 		"/>
		<rect x="247.6" y="355.2" class="st7" width="16.4" height="1"/>
	</g>
	<path class="st9" d="M161.9,316.1c2.1,0.6,4.6,2.7,4.7,6.5c0.1,2.5-0.1,4-0.5,6.1c0.7,0.4,1,1.4,0.7,2.1c-0.1,0.4-1.3-0.2-1.3-0.2
		c-0.2,0.9-0.4,1.3-0.7,2.5c-1,3.2-8.2,0.1-8.2,0.1s-4.1-1.1-4.7-4.5C151.2,325.4,151.4,313.2,161.9,316.1z"/>
	<polygon class="st10" points="156.7,336.9 158.2,333.8 154.4,332.3 151.9,336 	"/>
	<g>
		
			<ellipse transform="matrix(0.2701 -0.9628 0.9628 0.2701 -194.4602 398.4807)" class="st11" cx="165.6" cy="327.5" rx="0.6" ry="0.3"/>
		
			<ellipse transform="matrix(0.2686 -0.9633 0.9633 0.2686 -194.0105 398.9086)" class="st12" cx="165.7" cy="327.2" rx="0.2" ry="0.1"/>
	</g>
	<g>
		<path class="st13" d="M166.2,324.7c-0.7-0.7-1.7-0.6-2.6-0.1c-0.2,0.1-0.4-0.2-0.2-0.3c1-0.6,2.1-0.7,3,0.1
			C166.6,324.6,166.4,324.9,166.2,324.7L166.2,324.7z"/>
	</g>
	<path class="st14" d="M164,326.8c-0.2,1,0,2,0.7,2.2s1.5-0.5,1.7-1.5s-0.1-2-0.7-2.2C165.2,325.1,164.3,325.8,164,326.8z
		 M164.3,326.9c0.2-0.7,0.9-1.3,1.4-1.2c0.5,0.1,0.7,0.9,0.5,1.7c-0.2,0.9-0.9,1.3-1.4,1.2C164.4,328.4,164.1,327.6,164.3,326.9z"/>
	<polygon class="st14" points="156.8,326 164.1,327.3 164.1,327 156.9,325.6 	"/>
	<path class="st15" d="M160.7,322.6c-3.4-0.4-3.9,2.8-3.7,3.7c0,0-1.5-1.7-2.5,0c-1.2,2.2,2.2,2.6,2.2,2.6s-1.3,3-3.3,3.1
		c0,0-3-2.9-3.6-8.6c-0.9-6.6,6.1-10.1,11.7-9c5.7,1.1,4.2,7.6,10.6,2.8C171.8,317.5,172,324,160.7,322.6z"/>
	<path class="st10" d="M156.2,327c0,0-0.3-0.9-0.6-0.4s-0.2,1,0.3,1.4C155.9,328,155.7,326.5,156.2,327z"/>
	<path class="st16" d="M163.3,331.2c0.5,0.5,1.2,1,1.8,1.3c0,0.1-0.1,0.2-0.1,0.4c-0.7-0.3-1.5-0.9-2-1.4
		C162.6,331.3,163,331,163.3,331.2z"/>
	<path class="st17" d="M154.5,315.4c-2.2,1.7-4.3,4.5-2.2,8.2c1.7,3.1,2.2,6,2,8.2c-0.3,0.2-0.6,0.2-1,0.2c0,0-3-2.9-3.6-8.6
		C149,319.6,151.4,316.8,154.5,315.4z"/>
	<path class="st17" d="M152.6,316.5c-1.8,2.5-4.1,7.1-0.6,11.5c1.2,1.5,1.7,2.8,1.9,4.1c-0.2,0-0.4,0.1-0.5,0.1c0,0-3-2.9-3.6-8.6
		C149.2,320.5,150.5,318.1,152.6,316.5z"/>
	<path class="st9" d="M151.7,364h16.9c4,0,7.3-1,7.3,9.6c0,10.3-1.4,20.9-1.4,20.9l-4-1c-2.9-11.5-1.4-22.4-1.4-22.4h-17.6
		c-1.3,0-2.2-1-2.2-2.1v-2.8C149.3,365,150.4,364,151.7,364z"/>
	<path class="st18" d="M151.6,334.7c0.6,1,1.9,1.2,3.1,1.2c2.7,0,5.6,1.2,6.1,3.7c1,4.8,3.3,16.9-1,24.2c-0.6,1.1-12.1,2.1-12.1,2.1
		C150.3,352.3,146.4,334.7,151.6,334.7z"/>
	<path class="st19" d="M158.7,340.8c0.9-0.4,1.7-0.2,2.7,0.4c0.6,3.5,1.4,9.2,1,14.6C157.5,346.6,156.3,342.1,158.7,340.8z"/>
	<path class="st9" d="M178.5,356.9c0-0.9-0.7-1.5-1.5-1.5h-1.8V354c0-0.9,0.7-1.5,1.5-1.5h1.8c0.9,0,1.5,0.7,1.5,1.5v1.7
		c0,0.9-0.7,1.5-1.5,1.5h-0.1C178.5,357.2,178.5,356.9,178.5,356.9z"/>
	<g>
		<path class="st20" d="M175.9,351.6h-9.6c-1.2,0-2,1-2,2c0,1.2,1,2,2,2h9.6V351.6z"/>
	</g>
	<path class="st20" d="M163.8,354.8c0.5,1,1.7,1.3,2.8,0.7l0,0c1.1-0.5,1.5-1.7,1.1-2.8l-6-12c-0.5-1-1.7-1.3-2.8-0.7l0,0
		c-0.4,0.2-0.7,0.5-1,1c-0.2,0.5-0.3,1.2,0,1.7L163.8,354.8z"/>
	<path class="st12" d="M170.6,393.5l4,1c0,0,0.3-2.5,0.6-6.3h-5.7C169.8,389.9,170.1,391.6,170.6,393.5z"/>
	<g>
		<path class="st21" d="M170.5,395.6c0.6,0,8.8,0.1,9.2,0.1s0.5-0.9,0.5-0.9l-10.3-0.1C169.9,394.7,169.9,395.6,170.5,395.6z"/>
		<path class="st22" d="M170.8,392.1c0,0,0.9,0.6,2,0.6c1.3,0,2.9-0.5,4-0.5c1.9,0.1,3.5,0.9,3.4,1.8v0.9l0,0l-10.3-0.1l0,0v-0.9
			C169.9,392.9,169.8,392.1,170.8,392.1z"/>
	</g>
	<path class="st23" d="M176.3,375.1c0-12.3-3.5-11.2-7.9-11.2h-18.2c-1.4,0-2.5,1.2-2.5,2.6v3.2c0,1.4,1.1,2.6,2.5,2.6H169
		c0,0-0.2,2-0.3,5.2h7.7C176.3,376.7,176.3,375.8,176.3,375.1z"/>
	<g>
		<polygon class="st7" points="187.9,357 192.5,337.8 193.3,338 188.7,357.1 		"/>
		<rect x="172.8" y="355.7" class="st7" width="16.4" height="1"/>
	</g>
	<rect x="167.2" y="356.6" class="st24" width="41" height="2.1"/>
	<rect x="169.5" y="358.9" class="st7" width="36.5" height="3.2"/>
	<rect x="204.4" y="362.1" class="st7" width="1.6" height="33.8"/>
	<rect x="169.5" y="362.1" class="st7" width="1.6" height="33.8"/>
	<path class="st25" d="M145,346v17.6h1.3c1,0,1.8-0.7,2-1.7l1.2-10.4c0.1-0.6,0-1.3-0.1-1.9l-1.4-5.5h-1
		C145.8,344.2,145,345,145,346z"/>
	<rect x="156.9" y="374.9" class="st26" width="2.2" height="14.9"/>
	<rect x="143" y="347.2" class="st24" width="1.8" height="28.5"/>
	<rect x="143" y="374.1" class="st24" width="18.4" height="1.6"/>
	<rect x="144.9" y="371.3" class="st25" width="22.6" height="2.9"/>
	<g>
		<path class="st24" d="M166.7,394.1h-1.9c0-3.2-3-5.9-6.6-5.9s-6.6,2.7-6.6,5.9h-2c0-4.3,3.9-7.8,8.6-7.8
			C162.8,386.3,166.7,389.8,166.7,394.1z"/>
	</g>
	<circle class="st25" cx="150.4" cy="394.1" r="2"/>
	<circle class="st25" cx="150.4" cy="394.1" r="1"/>
	<circle class="st25" cx="165.7" cy="394.1" r="2"/>
	<circle class="st25" cx="165.7" cy="394.1" r="1"/>
	<path class="st6" d="M308.8,315c2.1,0.6,4.6,2.7,4.7,6.5c0.1,2.5-0.1,4-0.5,6.1c0.7,0.4,1,1.4,0.7,2.1c-0.1,0.4-1.3-0.2-1.3-0.2
		c-0.2,0.9-0.4,1.3-0.7,2.5c-1,3.2-8.2,0.1-8.2,0.1s-4.1-1.1-4.7-4.5C298.1,324.3,298.3,312.1,308.8,315z"/>
	<polygon class="st27" points="303.7,335.9 305.1,332.8 301.2,331.3 298.9,334.9 	"/>
	<g>
		
			<ellipse transform="matrix(0.2701 -0.9628 0.9628 0.2701 -86.0808 539.186)" class="st11" cx="312.6" cy="326.4" rx="0.6" ry="0.3"/>
		
			<ellipse transform="matrix(0.2686 -0.9633 0.9633 0.2686 -85.4313 539.5866)" class="st12" cx="312.6" cy="326" rx="0.2" ry="0.1"/>
	</g>
	<g>
		<path class="st28" d="M313.1,323.7c-0.7-0.7-1.7-0.6-2.6-0.1c-0.2,0.1-0.4-0.2-0.2-0.3c1-0.6,2.1-0.7,3,0.1
			C313.5,323.6,313.3,323.8,313.1,323.7L313.1,323.7z"/>
	</g>
	<path class="st28" d="M307.5,321.5c-3.4-0.4-3.9,2.8-3.7,3.7c0,0-1.5-1.7-2.5,0c-1.2,2.2,2.2,2.6,2.2,2.6s-1.3,3-3.3,3.1
		c0,0-3-2.9-3.6-8.6c-0.9-6.6,6.1-10.1,11.7-9c5.7,1.1,4.2,7.6,10.6,2.8C318.8,316.4,319,322.9,307.5,321.5z"/>
	<path class="st10" d="M303.2,325.8c0,0-0.3-0.9-0.6-0.4c-0.3,0.4-0.2,1,0.3,1.4C302.8,326.9,302.6,325.3,303.2,325.8z"/>
	<path class="st16" d="M310.1,330.1c0.5,0.5,1.2,1,1.8,1.3c0,0.1-0.1,0.2-0.1,0.4c-0.7-0.3-1.5-0.9-2-1.4
		C309.6,330.2,309.9,329.9,310.1,330.1z"/>
	<path class="st6" d="M298.7,362.9h16.9c4,0,7.3-1,7.3,9.6c0,10.3-1.4,20.9-1.4,20.9l-4-1c-2.9-11.5-1.4-22.4-1.4-22.4h-17.6
		c-1.3,0-2.2-1-2.2-2.1v-2.8C296.3,363.8,297.4,362.9,298.7,362.9z"/>
	<path class="st29" d="M298.5,333.6c0.6,1,1.9,1.2,3.1,1.2c2.7,0,5.6,1.2,6.1,3.7c1,4.8,3.3,16.9-1,24.2c-0.6,1.1-12.1,2.1-12.1,2.1
		C297.3,351.2,293.3,333.6,298.5,333.6z"/>
	<path class="st30" d="M305.6,339.7c0.9-0.4,1.7-0.2,2.7,0.4c0.6,3.5,1.4,9.2,1,14.6C304.3,345.4,303.3,340.9,305.6,339.7z"/>
	<g>
		<path class="st31" d="M322.8,350.5h-9.6c-1.2,0-2,1-2,2c0,1.1,1,2,2,2h9.6V350.5z"/>
	</g>
	<path class="st31" d="M310.7,353.8c0.5,1,1.7,1.3,2.8,0.7l0,0c1.1-0.5,1.5-1.7,1.1-2.8l-6-12c-0.5-1-1.7-1.3-2.8-0.7l0,0
		c-0.4,0.2-0.7,0.5-1,1c-0.2,0.5-0.3,1.2,0,1.7L310.7,353.8z"/>
	<path class="st12" d="M317.5,392.4l4,1c0,0,0.3-2.5,0.6-6.3h-5.7C316.7,388.9,317.1,390.6,317.5,392.4z"/>
	<g>
		<path class="st20" d="M317.5,394.5c0.6,0,8.8,0.1,9.2,0.1c0.4,0,0.5-0.9,0.5-0.9l-10.3-0.1C316.8,393.7,316.7,394.4,317.5,394.5z"
			/>
		<path class="st20" d="M317.7,391c0,0,0.9,0.6,2,0.6c1.3,0,2.9-0.5,4-0.5c1.9,0.1,3.5,0.9,3.4,1.8v0.9l0,0l-10.3-0.1l0,0v-0.9
			C316.8,391.7,316.7,390.9,317.7,391z"/>
	</g>
	<path class="st32" d="M323.3,374c0-12.3-3.5-11.2-7.9-11.2h-18.2c-1.4,0-2.5,1.2-2.5,2.6v3.2c0,1.4,1.1,2.6,2.5,2.6H316
		c0,0-0.2,2-0.3,5.2h7.7C323.3,375.5,323.3,374.7,323.3,374z"/>
	<rect x="314.2" y="355.6" class="st24" width="41" height="2.1"/>
	<rect x="316.3" y="357.7" class="st7" width="36.5" height="3.2"/>
	<rect x="351.3" y="361" class="st7" width="1.6" height="33.8"/>
	<rect x="316.3" y="361" class="st7" width="1.6" height="33.8"/>
	<path class="st25" d="M291.9,345v17.6h1.3c1,0,1.8-0.7,2-1.7l1.2-10.4c0.1-0.6,0-1.3-0.1-1.9l-1.4-5.5h-1
		C292.7,343.1,291.9,343.9,291.9,345z"/>
	<rect x="303.9" y="373.8" class="st26" width="2.2" height="14.9"/>
	<rect x="290" y="346.2" class="st24" width="1.8" height="28.5"/>
	<rect x="290" y="373" class="st24" width="18.4" height="1.6"/>
	<rect x="291.8" y="370.1" class="st25" width="22.6" height="2.9"/>
	<g>
		<path class="st24" d="M313.5,392.9h-1.9c0-3.2-3-5.9-6.6-5.9s-6.6,2.7-6.6,5.9h-1.9c0-4.3,3.9-7.8,8.6-7.8
			C309.7,385.2,313.5,388.6,313.5,392.9z"/>
	</g>
	<circle class="st25" cx="297.4" cy="392.9" r="2"/>
	<circle class="st25" cx="297.4" cy="392.9" r="1"/>
	<circle class="st25" cx="312.7" cy="392.9" r="2"/>
	<circle class="st25" cx="312.7" cy="392.9" r="1"/>
	<path class="st8" d="M236.8,315.7c2.1,0.6,4.6,2.7,4.7,6.5c0.1,2.5-0.1,4-0.5,6.1c0.7,0.4,1,1.4,0.7,2.1c-0.1,0.4-1.3-0.2-1.3-0.2
		c-0.2,0.9-0.4,1.3-0.7,2.5c-1,3.2-8.2,0.1-8.2,0.1s-4.1-1.1-4.7-4.5C226.1,325,226.3,312.8,236.8,315.7z"/>
	<polygon class="st33" points="231.7,336.5 233,333.4 229.2,331.9 226.7,335.6 	"/>
	<g>
		
			<ellipse transform="matrix(0.2701 -0.9628 0.9628 0.2701 -139.3152 470.2079)" class="st11" cx="240.5" cy="327" rx="0.6" ry="0.3"/>
		
			<ellipse transform="matrix(0.2686 -0.9633 0.9633 0.2686 -138.741 470.6792)" class="st12" cx="240.6" cy="326.7" rx="0.2" ry="0.1"/>
	</g>
	<g>
		<path class="st13" d="M241,324.3c-0.7-0.7-1.7-0.6-2.6-0.1c-0.2,0.1-0.4-0.2-0.2-0.3c1-0.6,2.1-0.7,3,0.1
			C241.5,324.2,241.2,324.4,241,324.3L241,324.3z"/>
	</g>
	<path class="st14" d="M238.9,326.4c-0.2,1,0,2,0.7,2.2s1.5-0.5,1.7-1.5s-0.1-2-0.7-2.2C240,324.6,239.1,325.4,238.9,326.4z
		 M239.3,326.5c0.2-0.7,0.9-1.3,1.4-1.2c0.5,0.1,0.7,0.9,0.5,1.7c-0.2,0.7-0.9,1.3-1.4,1.2C239.3,328,238.9,327.2,239.3,326.5z"/>
	<polygon class="st14" points="231.8,325.6 238.9,326.9 239,326.6 231.8,325.2 	"/>
	<path class="st10" d="M231.1,326.6c0,0-0.3-0.9-0.6-0.4c-0.3,0.4-0.2,1,0.3,1.4C230.8,327.5,230.6,326,231.1,326.6z"/>
	<path class="st16" d="M238.1,330.7c0.5,0.5,1.2,1,1.8,1.3c0,0.1-0.1,0.2-0.1,0.4c-0.7-0.3-1.5-0.9-2-1.4
		C237.5,330.8,237.9,330.5,238.1,330.7z"/>
	<path class="st34" d="M225.2,363.6h17.9c4.2,0,7.7-1,7.7,9.6c0,10.3-1.5,20.9-1.5,20.9l-4.2-1c-3-11.5-1.5-22.4-1.5-22.4h-18.4
		c-1.3,0-2.5-1-2.5-2.1v-2.9C222.8,364.6,223.8,363.6,225.2,363.6z"/>
	<path class="st35" d="M226.5,334.3c0.6,1,1.9,1.2,3.1,1.2c2.7,0,5.6,1.2,6.1,3.7c1,4.8,3.3,16.9-1,24.2c-0.6,1.1-12.1,2.1-12.1,2.1
		C225.2,351.8,221.3,334.3,226.5,334.3z"/>
	<path class="st36" d="M233.5,340.4c0.9-0.4,1.7-0.2,2.7,0.4c0.6,3.5,1.4,9.2,1,14.6C232.3,346.2,231.2,341.7,233.5,340.4z"/>
	<g>
		<path class="st37" d="M250.7,351.2h-9.6c-1.2,0-2,1-2,2s1,2,2,2h9.6V351.2z"/>
	</g>
	<path class="st37" d="M238.6,354.4c0.5,1,1.7,1.3,2.8,0.7l0,0c1.1-0.5,1.5-1.7,1.1-2.8l-6-12c-0.5-1-1.7-1.3-2.8-0.7l0,0
		c-0.4,0.2-0.7,0.5-1,1c-0.2,0.5-0.3,1.2,0,1.7L238.6,354.4z"/>
	<g>
		<path class="st38" d="M245.4,395.2c0.6,0,8.8,0.1,9.2,0.1s0.5-0.9,0.5-0.9l-10.3-0.1C244.7,394.3,244.7,395.2,245.4,395.2z"/>
		<path class="st38" d="M245.6,391.6c0,0,0.9,0.6,2,0.6c1.3,0,2.9-0.5,4-0.5c1.9,0.1,3.5,0.9,3.4,1.8v0.9l0,0l-10.3-0.1l0,0v-0.9
			C244.8,392.4,244.6,391.6,245.6,391.6z"/>
	</g>
	<rect x="242" y="356.2" class="st24" width="41" height="2.1"/>
	<rect x="244.3" y="358.4" class="st7" width="36.5" height="3.2"/>
	<rect x="279.3" y="361.7" class="st7" width="1.6" height="33.8"/>
	<rect x="244.3" y="361.7" class="st7" width="1.6" height="33.8"/>
	<path class="st25" d="M219.8,345.6v17.6h1.3c1,0,1.8-0.7,2-1.7l1.2-10.4c0.1-0.6,0-1.3-0.1-1.9l-1.4-5.5h-1
		C220.6,343.7,219.8,344.5,219.8,345.6z"/>
	<rect x="231.8" y="374.5" class="st26" width="2.2" height="14.9"/>
	<rect x="217.8" y="346.8" class="st24" width="1.8" height="28.5"/>
	<rect x="217.8" y="373.7" class="st24" width="18.4" height="1.6"/>
	<rect x="219.7" y="370.8" class="st25" width="22.6" height="2.9"/>
	<g>
		<path class="st24" d="M241.5,393.7h-1.9c0-3.2-3-5.9-6.6-5.9s-6.6,2.7-6.6,5.9h-1.9c0-4.3,3.9-7.8,8.6-7.8
			C237.6,385.9,241.5,389.4,241.5,393.7z"/>
	</g>
	<circle class="st25" cx="225.3" cy="393.7" r="2"/>
	<circle class="st25" cx="225.3" cy="393.7" r="1"/>
	<circle class="st25" cx="240.6" cy="393.7" r="2"/>
	<circle class="st25" cx="240.6" cy="393.7" r="1"/>
	<g>
		<path class="st39" d="M238,319.9c0,0,2.8,0.2,3,2.7c0.2,2.4,1.2,2.9,2.5,2.6c0,0-1.1-0.4-0.5-2.5c0.5-2,2.5-7.4-4.4-9.2
			c-6.7-1.7-7.6,0-7.5,1.3c0,0-1.6-2-4.3,0.6c-2.7,2.7-2.1,5-2.1,5s-4.5-2.9-7.5,0.1s1.1,11.7-3.7,14.1c0,0,9.5-0.7,10.9-10.6
			c0,0-0.7,5.6,4.2,7.7c0,0,1.4-1.7,1.5-4.1c0,0-2-0.3-1.5-2.1c0.5-1.7,2-1.3,2.5,0c0,0,0.7,1,1.6,0.6c1-0.3,1.3-2.4,1.3-3.7
			C234,322.6,237.2,322.1,238,319.9z"/>
		<g>
			<path class="st35" d="M225.2,320.5c0,1.3-0.1,2.6-0.2,3.7c0,0.6-1.1,0.6-1.1,0c0.1-1.3,0.2-2.6,0.2-3.7
				C224.2,319.8,225.2,319.8,225.2,320.5L225.2,320.5z"/>
		</g>
	</g>
</g>
<g>
	<path class="st40" d="M465.8,65.2H351.9v74.7h35.6c-0.1-0.2-0.2-0.4-0.2-0.6V94.5c0-0.7,0.6-1.2,1.2-1.2h41.7
		c0.7,0,1.2,0.6,1.2,1.2v44.8c0,0.2-0.1,0.4-0.2,0.6h34.4V65.2H465.8z"/>
	<path class="st41" d="M374.9,104.9h-9.7c-0.5,0-1-0.4-1-1V88.6c0-0.6,0.5-1,1-1h9.7c0.6,0,1,0.4,1,1v15.3
		C375.9,104.5,375.5,104.9,374.9,104.9z"/>
	<g>
		<path class="st42" d="M404.3,100c1.1,0.3,2.3,1.3,2.3,3.2c0,1.2,0,2-0.3,3c0.4,0.2,0.5,0.7,0.4,1.1c0,0.2-0.6-0.1-0.6-0.1
			c-0.1,0.4-0.2,0.6-0.3,1.2c-0.5,1.6-4,0-4,0s-2-0.5-2.3-2.2C399.1,104.6,399.2,98.6,404.3,100z"/>
		<polygon class="st43" points="401.8,110.2 402.5,108.7 400.7,108 399.5,109.8 		"/>
		<g>
			
				<ellipse transform="matrix(0.2701 -0.9628 0.9628 0.2701 194.842 468.1854)" class="st11" cx="406.2" cy="105.6" rx="0.3" ry="0.2"/>
			<ellipse class="st12" cx="406.2" cy="105.4" rx="0" ry="0.1"/>
		</g>
		<g>
			<path class="st13" d="M406.4,104.3c-0.3-0.3-0.9-0.3-1.2,0c-0.1,0.1-0.2-0.1-0.1-0.2c0.5-0.3,1.1-0.3,1.5,0.1
				C406.6,104.2,406.5,104.3,406.4,104.3L406.4,104.3z"/>
		</g>
		<path class="st14" d="M405.4,105.3c-0.1,0.5,0,1,0.4,1.1c0.3,0.1,0.7-0.2,0.9-0.7c0.1-0.5,0-1-0.4-1.1S405.5,104.8,405.4,105.3z
			 M405.5,105.3c0.1-0.4,0.4-0.6,0.7-0.6c0.3,0.1,0.4,0.4,0.3,0.8s-0.4,0.6-0.7,0.6C405.6,106,405.4,105.7,405.5,105.3z"/>
		<polygon class="st14" points="401.9,104.9 405.4,105.5 405.4,105.3 401.9,104.7 		"/>
		<path class="st10" d="M401.6,105.3c0,0-0.2-0.4-0.3-0.2c-0.2,0.2-0.1,0.5,0.2,0.7C401.4,105.8,401.3,105.1,401.6,105.3z"/>
		<path class="st16" d="M405,107.4c0.3,0.2,0.6,0.5,0.9,0.6c0,0.1,0,0.1-0.1,0.2c-0.4-0.2-0.7-0.4-1-0.7
			C404.7,107.5,404.9,107.3,405,107.4z"/>
		<path class="st44" d="M398.7,123.4h8.7c2.1,0,3.8-0.5,3.8,4.7c0,5-0.7,10.2-0.7,10.2l-2.1-0.5c-1.5-5.6-0.7-10.9-0.7-10.9h-9
			c-0.6,0-1.2-0.5-1.2-1.1v-1.4C397.5,123.9,398.1,123.4,398.7,123.4z"/>
		<path class="st45" d="M399.3,109.1c0.3,0.5,0.9,0.6,1.5,0.6c1.3,0,2.7,0.6,3,1.8c0.5,2.3,1.6,8.2-0.5,11.8
			c-0.3,0.5-5.9,1.1-5.9,1.1C398.7,117.7,396.8,109.1,399.3,109.1z"/>
		<path class="st46" d="M402.8,112.1c0.4-0.2,0.8-0.1,1.3,0.2c0.3,1.7,0.7,4.5,0.5,7.1C402.2,114.9,401.6,112.7,402.8,112.1z"/>
		<path class="st42" d="M412.4,119.9c0-0.4-0.3-0.8-0.8-0.8h-0.8v-0.6c0-0.4,0.3-0.8,0.8-0.8h0.9c0.4,0,0.8,0.3,0.8,0.8v0.8
			c0,0.4-0.3,0.8-0.8,0.8h-0.1V119.9L412.4,119.9z"/>
		<g>
			<path class="st47" d="M411.2,117.4h-4.7c-0.6,0-1,0.5-1,1c0,0.6,0.5,1,1,1h4.7V117.4z"/>
		</g>
		<path class="st47" d="M405.3,118.9c0.2,0.5,0.9,0.6,1.4,0.4l0,0c0.5-0.3,0.8-0.9,0.5-1.3l-2.9-5.8c-0.2-0.5-0.9-0.6-1.4-0.4l0,0
			c-0.2,0.1-0.4,0.3-0.5,0.5c-0.1,0.3-0.2,0.6,0,0.8L405.3,118.9z"/>
		<g>
			<path class="st48" d="M408.5,138.8c0.3,0,4.3,0.1,4.5,0.1s0.2-0.4,0.2-0.4l-5-0.1C408.2,138.4,408.2,138.8,408.5,138.8z"/>
			<path class="st48" d="M408.6,137.1c0,0,0.4,0.3,1,0.3s1.4-0.3,1.9-0.3c0.9,0,1.7,0.4,1.7,0.9v0.4l0,0l-5-0.1l0,0v-0.4
				C408.3,137.5,408.2,137.1,408.6,137.1z"/>
		</g>
		<rect x="406.9" y="119.8" class="st24" width="20" height="1.1"/>
		<rect x="408" y="120.9" class="st7" width="17.8" height="1.6"/>
		<rect x="425" y="122.5" class="st7" width="0.8" height="16.5"/>
		<rect x="408" y="122.5" class="st7" width="0.8" height="16.5"/>
		<polygon class="st24" points="420.5,111.5 420.9,111.6 418.3,120.6 417.9,120.5 		"/>
		<rect x="409.6" y="119.4" class="st26" width="8.8" height="0.5"/>
		<path class="st25" d="M396.1,114.6v8.6h0.6c0.5,0,0.9-0.4,1-0.9l0.6-5.1c0-0.3,0-0.6-0.1-0.9l-0.7-2.7H397
			C396.5,113.7,396.1,114.1,396.1,114.6z"/>
		<rect x="395.7" y="128.7" class="st26" width="1.1" height="10.2"/>
		<rect x="405.3" y="128.7" class="st26" width="1.1" height="10.2"/>
		<rect x="395.1" y="115.2" class="st24" width="0.9" height="13.9"/>
		<rect x="395.1" y="128.3" class="st24" width="11.8" height="0.8"/>
		<rect x="396" y="126.9" class="st25" width="11" height="1.4"/>
		<path class="st49" d="M404.9,102.1c0,0,1.3,0.1,1.5,1.3c0.1,1.2,0.6,1.4,1.2,1.2c0,0-0.5-0.2-0.2-1.2s1.2-3.6-2.1-4.5
			c-3.3-0.9-3.7,0-3.7,0.6c0,0-0.8-1-2.1,0.3c-1.3,1.3-1.1,2.4-1.1,2.4s-2.2-1.4-3.6,0c-1.5,1.5,0.5,5.7-1.8,6.9
			c0,0,4.7-0.4,5.3-5.2c0,0-0.4,2.7,2,3.8c0,0,0.7-0.9,0.8-2c0,0-1-0.2-0.7-1c0.2-0.8,1-0.6,1.2,0c0,0,0.3,0.5,0.8,0.3
			s0.6-1.2,0.6-1.8C403,103.4,404.5,103.2,404.9,102.1z"/>
		<g>
			<path class="st35" d="M398.7,102.4c0,0.6-0.1,1.2-0.1,1.8c0,0.3-0.5,0.3-0.5,0c0.1-0.6,0.1-1.2,0.1-1.8
				C398.2,102,398.7,102.1,398.7,102.4L398.7,102.4z"/>
		</g>
	</g>
	<path class="st41" d="M453.6,104.9h-9.7c-0.6,0-1-0.4-1-1V88.6c0-0.6,0.4-1,1-1h9.7c0.5,0,1,0.4,1,1v15.3
		C454.6,104.5,454.2,104.9,453.6,104.9z"/>
	<polygon class="st41" points="408.4,11 339,72.7 477.9,72.7 	"/>
</g>
<g>
	<path class="st50" d="M265.4,195.1l-4-6.7c-0.5-0.8-0.2-2,0.8-2.5l3.2-1.8c-8.5-3.7-18.7-3.5-27.4,1.7s-13.7,13.9-14.6,23.3
		l3.2-1.8c1-0.5,2.2-0.3,2.7,0.5l4,6.7c0.5,0.8,0.2,2-0.8,2.5l-7.5,4.5c0.7,1.8,1.5,3.8,2.5,5.7c3.5,6,8.9,10.4,14.9,12.7l-1.2-2
		c-0.5-1-0.3-2.2,0.7-2.8l37.1-21.9c1-0.5,2.2-0.2,2.7,0.7l1.2,2c0.8-6.4-0.3-13.2-3.8-19.2c-1-1.8-2.3-3.5-3.7-5l-7.4,4.2
		C267,196.2,265.7,195.9,265.4,195.1z M246.6,197.1c-0.5-0.8-0.2-2,0.8-2.5l8.4-4.9c1-0.5,2.2-0.3,2.7,0.5l4,6.7
		c0.5,0.8,0.2,2-0.8,2.5l-8.4,4.9c-1,0.5-2.2,0.3-2.7-0.5L246.6,197.1z M232.3,205.6c-0.5-0.8-0.2-2,0.8-2.5l8.4-4.9
		c1-0.5,2.2-0.3,2.7,0.5l4,6.7c0.5,0.8,0.2,2-0.8,2.5l-8.4,4.9c-1,0.5-2.2,0.3-2.7-0.5L232.3,205.6z M248.6,222.8
		c0.5,0.8,0.2,2-0.8,2.5l-8.4,5c-1,0.5-2.2,0.3-2.7-0.5l-4-6.7c-0.5-0.8-0.2-2,0.8-2.5l8.4-4.9c1-0.5,2.2-0.3,2.7,0.5L248.6,222.8z
		 M262.9,214.5c0.5,0.8,0.2,2-0.8,2.5l-8.4,4.9c-1,0.5-2.2,0.3-2.7-0.5l-4-6.7c-0.5-0.8-0.2-2,0.8-2.5l8.4-4.9
		c1-0.5,2.2-0.3,2.7,0.5L262.9,214.5z M273.4,199.1l4,6.7c0.5,0.8,0.2,2-0.8,2.5l-8.4,4.9c-1,0.5-2.2,0.3-2.7-0.5l-4-6.7
		c-0.5-0.8-0.2-2,0.8-2.5l8.4-4.9C271.7,198.1,272.9,198.2,273.4,199.1z"/>
	<path class="st50" d="M268.6,237.2c5-3,8.9-7.2,11.4-11.9l-27.3,16.1C258,241.6,263.5,240.2,268.6,237.2z"/>
</g>
<path class="st50" d="M165.4,188.7l-54.7-34.9c-2.1-1.3-2.7-4.1-1.4-6.2l0,0c1.3-2.1,4.1-2.7,6.2-1.4l54.7,34.9
	c2.1,1.3,2.7,4.1,1.4,6.2l0,0C170.3,189.5,167.5,190.1,165.4,188.7z"/>
<path class="st50" d="M336.4,197.7l41.2-50.1c1.6-1.9,4.4-2.2,6.3-0.6l0,0c1.9,1.6,2.2,4.4,0.6,6.3l-41.2,50.1
	c-1.6,1.9-4.4,2.2-6.3,0.6l0,0C335.1,202.4,334.8,199.6,336.4,197.7z"/>
<path class="st50" d="M251,307.3v-45.7c0-2.2,1.8-4,4-4h1c2.2,0,4,1.8,4,4v45.7c0,2.2-1.8,4-4,4h-1C252.8,311.3,251,309.5,251,307.3
	z"/>
</svg>
