<?xml version="1.0" encoding="utf-8"?>
<!-- Generator: Adobe Illustrator 21.1.0, SVG Export Plug-In . SVG Version: 6.00 Build 0)  -->
<svg version="1.1" id="Layer_1" xmlns="http://www.w3.org/2000/svg" xmlns:xlink="http://www.w3.org/1999/xlink" x="0px" y="0px"
	 viewBox="0 0 239.5 58" style="enable-background:new 0 0 239.5 58;" xml:space="preserve">
<style type="text/css">
	.st0{fill:#3F93D8;stroke:#3F93D8;stroke-width:2.4515;stroke-miterlimit:10;}
	.st1{fill:#3F93D8;stroke:#3F93D8;stroke-width:3.432;stroke-miterlimit:10;}
	.st2{fill:#34AD07;}
	.st3{fill:none;}
</style>
<g>
	<g>
		<path class="st0" d="M63.4,13.1V10h18.1v3.1h-7.4v28.4h-3.4V13.1H63.4z"/>
		<path class="st0" d="M83.6,18.2H87l8.4,17.9l8.2-17.9h3.4L92.3,49.9H89l4.7-10.3L83.6,18.2z"/>
		<path class="st0" d="M111.5,18.2h3.2v4.3c1.2-1.6,2.7-2.8,4.3-3.7c1.6-0.8,3.4-1.2,5.4-1.2c3.5,0,6.5,1.2,8.9,3.6
			c2.5,2.4,3.7,5.2,3.7,8.6c0,3.4-1.2,6.3-3.7,8.7c-2.4,2.4-5.4,3.6-8.9,3.6c-1.9,0-3.7-0.4-5.4-1.2c-1.6-0.8-3.1-1.9-4.4-3.4v12.5
			h-3.2V18.2z M124.1,20.5c-2.7,0-5,0.9-6.9,2.7c-1.9,1.8-2.8,4.1-2.8,6.7c0,1.8,0.4,3.4,1.2,4.8c0.8,1.4,2,2.5,3.6,3.4
			c1.5,0.8,3.2,1.2,4.9,1.2c1.7,0,3.3-0.4,4.8-1.2c1.5-0.8,2.7-2,3.6-3.5c0.9-1.5,1.3-3.1,1.3-4.7c0-1.7-0.4-3.2-1.3-4.7
			c-0.9-1.5-2.1-2.6-3.5-3.4C127.5,20.9,125.8,20.5,124.1,20.5z"/>
		<path class="st1" d="M147.4,37.5c1.9,1.7,4.2,2.5,6.8,2.5c2.8,0,5.2-0.9,7.2-2.8c0.3-0.2,0.5-0.5,0.7-0.7l2.1,0.7
			c-0.4,0.5-0.8,1-1.3,1.5c-2.4,2.3-5.3,3.4-8.8,3.4c-3.4,0-6.3-1.1-8.7-3.4c-2.4-2.3-3.6-5.1-3.6-8.3c0-3.2,1.2-6,3.6-8.3
			c2.4-2.3,5.3-3.4,8.7-3.4c2.9,0,5.5,0.8,7.7,2.5c0.4,0.3,0.7,0.6,1.1,0.9c0.1,0.1,0.3,0.3,0.4,0.4l-1.5,1.5L147.4,37.5z
			 M160.3,22.5c-1.8-1.3-3.8-1.9-6.1-1.9c-2.8,0-5.2,0.9-7.2,2.8c-2,1.9-3,4.2-3,6.9c0,2.2,0.7,4.1,2,5.8L160.3,22.5z"/>
		<path class="st0" d="M185.6,20.7l-2,2c-1.7-1.6-3.3-2.3-4.9-2.3c-1,0-1.9,0.3-2.6,1c-0.7,0.6-1.1,1.4-1.1,2.2
			c0,0.8,0.3,1.5,0.9,2.2c0.6,0.7,1.9,1.5,3.8,2.5c2.3,1.2,3.9,2.3,4.8,3.3c0.8,1.1,1.2,2.3,1.2,3.7c0,1.9-0.7,3.5-2.1,4.9
			c-1.4,1.3-3.2,2-5.3,2c-1.4,0-2.8-0.3-4-0.9c-1.3-0.6-2.3-1.4-3.2-2.4l2-2.1c1.6,1.7,3.3,2.6,5.1,2.6c1.3,0,2.3-0.4,3.2-1.2
			c0.9-0.8,1.3-1.7,1.3-2.7c0-0.9-0.3-1.6-0.9-2.3c-0.6-0.7-1.9-1.5-4-2.5c-2.2-1.1-3.7-2.2-4.5-3.2c-0.8-1.1-1.2-2.3-1.2-3.6
			c0-1.8,0.6-3.2,1.9-4.4c1.3-1.2,2.9-1.8,4.8-1.8C181,17.6,183.3,18.6,185.6,20.7z"/>
		<path class="st0" d="M190.9,18.2h3.3l8.4,17.9l8.2-17.9h3.4l-14.6,31.8h-3.3l4.7-10.3L190.9,18.2z"/>
	</g>
	<g>
		<path class="st2" d="M46.8,18.2l-2.3-3.8c-0.3-0.5-0.1-1.1,0.5-1.4l1.8-1.1c-4.9-2.1-10.7-2-15.6,0.9c-4.9,2.9-7.8,7.9-8.3,13.2
			l1.8-1.1c0.5-0.3,1.2-0.2,1.5,0.3l2.3,3.8c0.3,0.5,0.1,1.1-0.5,1.4L23.8,33c0.4,1.1,0.9,2.2,1.5,3.2c2,3.4,5.1,5.9,8.5,7.2
			l-0.7-1.2c-0.3-0.5-0.1-1.3,0.4-1.6l21.2-12.5c0.5-0.3,1.2-0.1,1.6,0.4l0.7,1.1c0.5-3.7-0.2-7.5-2.2-10.9c-0.6-1-1.3-2-2.1-2.8
			l-4.3,2.5C47.8,18.8,47.1,18.7,46.8,18.2z M36.2,19.3c-0.3-0.5-0.1-1.1,0.5-1.4l4.7-2.8c0.5-0.3,1.2-0.2,1.5,0.3l2.3,3.8
			c0.3,0.5,0.1,1.1-0.5,1.4L40,23.4c-0.5,0.3-1.2,0.2-1.5-0.3L36.2,19.3z M28,24.2c-0.3-0.5-0.1-1.1,0.5-1.4l4.7-2.8
			c0.5-0.3,1.2-0.2,1.5,0.3l2.3,3.8c0.3,0.5,0.1,1.1-0.5,1.4l-4.7,2.8c-0.5,0.3-1.2,0.2-1.5-0.3L28,24.2z M37.3,34.1
			c0.3,0.5,0.1,1.1-0.5,1.4l-4.7,2.8c-0.5,0.3-1.2,0.2-1.5-0.3l-2.3-3.8c-0.3-0.5-0.1-1.1,0.5-1.4l4.7-2.8c0.5-0.3,1.2-0.2,1.5,0.3
			L37.3,34.1z M45.4,29.3c0.3,0.5,0.1,1.1-0.5,1.4l-4.7,2.8c-0.5,0.3-1.2,0.2-1.5-0.3l-2.3-3.8c-0.3-0.5-0.1-1.1,0.5-1.4l4.7-2.8
			c0.5-0.3,1.2-0.2,1.5,0.3L45.4,29.3z M51.5,20.5l2.3,3.8c0.3,0.5,0.1,1.1-0.5,1.4l-4.7,2.8c-0.5,0.3-1.2,0.2-1.5-0.3l-2.3-3.8
			c-0.3-0.5-0.1-1.1,0.5-1.4l4.7-2.8C50.5,19.9,51.2,20,51.5,20.5z"/>
		<path class="st2" d="M48.7,42.2c2.8-1.7,5-4.1,6.4-6.8l-15.5,9.2C42.7,44.7,45.9,43.9,48.7,42.2z"/>
	</g>
	<rect id="_x3C_Slice_x3E__1_" x="22.2" y="4" class="st3" width="195.1" height="50.5"/>
</g>
</svg>
