<?xml version="1.0" encoding="utf-8"?>
<!-- Generator: Adobe Illustrator 21.1.0, SVG Export Plug-In . SVG Version: 6.00 Build 0)  -->
<svg version="1.1" id="Layer_1" xmlns="http://www.w3.org/2000/svg" xmlns:xlink="http://www.w3.org/1999/xlink" x="0px" y="0px"
	 viewBox="0 0 304 58" style="enable-background:new 0 0 304 58;" xml:space="preserve">
<style type="text/css">
	.st0{fill:#0A6FB6;}
	.st1{fill:#F48134;}
</style>
<g>
	<path class="st0" d="M100.1,32.3h3.9c0,0.8,0.3,1.3,0.9,1.7s1.3,0.6,2.3,0.6c0.7,0,1.3-0.1,1.8-0.4c0.5-0.3,0.7-0.6,0.7-1.1
		c0-0.7-0.8-1.2-2.4-1.6c-0.7-0.1-1.2-0.2-1.6-0.3c-2-0.5-3.4-1.1-4.1-1.8c-0.8-0.7-1.2-1.6-1.2-2.8c0-1.5,0.6-2.7,1.7-3.6
		c1.2-0.9,2.6-1.3,4.5-1.3c2,0,3.6,0.4,4.8,1.3c1.1,1,1.7,2.2,1.8,3.7h-2.5c-0.7,0-1.3-0.3-1.7-1c-0.2-0.2-0.3-0.3-0.5-0.5
		c-0.5-0.3-1.1-0.5-1.9-0.5s-1.3,0.1-1.7,0.3c-0.3,0.2-0.5,0.6-0.5,1c0,0.6,1,1.1,3,1.6c0.2,0.1,0.4,0.1,0.6,0.2
		c0.2,0,0.3,0.1,0.5,0.1c2,0.5,3.3,1.1,4.1,1.7c0.7,0.7,1.1,1.6,1.1,2.8c0,1.7-0.6,3-1.8,3.9c-1.2,0.8-2.9,1.3-5.2,1.3
		c-2.2,0-3.8-0.4-4.9-1.3c-1.1-0.9-1.7-2.2-1.7-3.9L100.1,32.3L100.1,32.3z"/>
	<path class="st0" d="M118.6,41.1c0,0.5-0.2,1-0.6,1.4s-0.8,0.6-1.4,0.6h-2V28.7c0-2.7,0.8-4.5,2.4-5.5s3.3-1.5,5.1-1.5
		c1,0,1.9,0.2,2.9,0.5c1,0.4,1.8,0.9,2.3,1.6c1.2,1.5,1.7,3.4,1.7,5.8s-0.6,4.4-1.7,5.9c-1.2,1.5-2.6,2.2-4.4,2.2
		c-1,0-1.8-0.2-2.5-0.5c-0.8-0.4-1.4-1-1.8-1.8V41.1z M125.1,29.8c0-1.5-0.3-2.6-0.9-3.5c-0.6-0.8-1.4-1.2-2.5-1.2
		c-1,0-1.8,0.4-2.4,1.2c-0.5,0.7-0.8,1.9-0.8,3.5c0,1.5,0.3,2.6,0.9,3.3c0.6,0.8,1.4,1.2,2.5,1.2c1,0,1.8-0.4,2.4-1.2
		C124.8,32.3,125.1,31.2,125.1,29.8z"/>
	<path class="st0" d="M140.8,32.7h2.9c-0.4,1.6-1.2,2.8-2.4,3.7s-2.7,1.3-4.5,1.3c-2.2,0-3.9-0.7-5.1-2.1c-1.2-1.4-1.8-3.4-1.8-5.9
		s0.6-4.4,1.8-5.8c1.2-1.4,2.9-2.1,5.1-2.1c2.3,0,4.1,0.7,5.4,2.1c1.2,1.4,1.8,3.4,1.8,5.9c0,0.2,0,0.3,0,0.4s0,0.2,0,0.2
		c0,0.2,0,0.3-0.1,0.4h-10c0,1.2,0.3,2.1,0.9,2.6c0.5,0.6,1.2,0.9,2.2,0.9c0.7,0,1.2-0.1,1.7-0.4c0.1,0,0.2-0.1,0.3-0.2
		c0.1-0.1,0.2-0.2,0.3-0.3c0-0.1,0.2-0.3,0.4-0.5C140,32.8,140.4,32.7,140.8,32.7z M133.9,28.2h5.9c-0.1-1-0.3-1.8-0.8-2.3
		s-1.2-0.8-2.1-0.8c-0.8,0-1.5,0.3-2.1,0.8C134.2,26.4,133.9,27.2,133.9,28.2z"/>
	<path class="st0" d="M156,32.7h2.9c-0.4,1.6-1.2,2.8-2.4,3.7s-2.7,1.3-4.5,1.3c-2.2,0-3.9-0.7-5.1-2.1c-1.2-1.4-1.8-3.4-1.8-5.9
		s0.6-4.4,1.8-5.8c1.2-1.4,2.9-2.1,5.1-2.1c2.3,0,4.1,0.7,5.4,2.1c1.2,1.4,1.8,3.4,1.8,5.9c0,0.2,0,0.3,0,0.4s0,0.2,0,0.2
		c0,0.2,0,0.3-0.1,0.4h-10c0,1.2,0.3,2.1,0.9,2.6c0.5,0.6,1.2,0.9,2.2,0.9c0.7,0,1.2-0.1,1.7-0.4c0.1,0,0.2-0.1,0.3-0.2
		c0.1-0.1,0.2-0.2,0.3-0.3c0-0.1,0.2-0.3,0.4-0.5C155.2,32.8,155.6,32.7,156,32.7z M149.1,28.2h5.9c-0.1-1-0.3-1.8-0.8-2.3
		s-1.2-0.8-2.1-0.8c-0.8,0-1.5,0.3-2.1,0.8C149.4,26.4,149.1,27.2,149.1,28.2z"/>
	<path class="st0" d="M170.4,17.5h2c0.5,0,1,0.2,1.4,0.6s0.6,0.9,0.6,1.4v11.2c0,2.7-0.8,4.6-2.4,5.5c-1.6,1-3.3,1.4-5.1,1.4
		c-1,0-2-0.2-2.9-0.5c-1-0.3-1.7-0.9-2.3-1.6c-1.1-1.4-1.7-3.4-1.7-5.8s0.6-4.4,1.7-5.8c1.2-1.5,2.6-2.2,4.4-2.2
		c1,0,1.8,0.2,2.5,0.6c0.8,0.5,1.4,1.1,1.8,1.8V17.5z M163.8,29.6c0,1.5,0.3,2.7,0.9,3.5c0.6,0.8,1.4,1.2,2.5,1.2
		c1,0,1.8-0.4,2.4-1.2c0.5-0.8,0.8-2,0.8-3.5c0-1.4-0.3-2.5-0.9-3.3c-0.6-0.8-1.4-1.2-2.5-1.2c-1,0-1.8,0.4-2.4,1.2
		C164.1,27.2,163.8,28.2,163.8,29.6z"/>
</g>
<g>
	<path class="st1" d="M176,37.4V30c0-1.5,0.2-2.8,0.7-3.8c0.4-1,1-1.8,1.8-2.4c0.7-0.6,1.6-1,2.6-1.3s2-0.4,3-0.4c0.1,0,0.2,0,0.3,0
		s0.2,0,0.3,0v4.1h-1.3c-1.1,0-1.9,0.3-2.5,0.8c-0.5,0.5-0.8,1.4-0.8,2.5v7.9H176z"/>
	<path class="st1" d="M196.2,32.5h2.9c-0.4,1.6-1.2,2.8-2.4,3.7s-2.7,1.3-4.5,1.3c-2.2,0-3.9-0.7-5.1-2.1c-1.2-1.4-1.8-3.4-1.8-5.9
		s0.6-4.4,1.8-5.8c1.2-1.4,2.9-2.1,5.1-2.1c2.3,0,4.1,0.7,5.4,2.1c1.2,1.4,1.8,3.4,1.8,5.9c0,0.2,0,0.3,0,0.4s0,0.2,0,0.2
		c0,0.2,0,0.3-0.1,0.4h-10c0,1.2,0.3,2.1,0.9,2.6c0.5,0.6,1.2,0.9,2.2,0.9c0.7,0,1.2-0.1,1.7-0.4c0.1,0,0.2-0.1,0.3-0.2
		c0.1-0.1,0.2-0.2,0.3-0.3c0-0.1,0.2-0.3,0.4-0.5C195.4,32.6,195.7,32.5,196.2,32.5z M189.3,28h5.9c-0.1-1-0.3-1.8-0.8-2.3
		s-1.2-0.8-2.1-0.8c-0.8,0-1.5,0.3-2.1,0.8C189.6,26.3,189.3,27,189.3,28z"/>
	<path class="st1" d="M210.2,36.8c-0.8,0.4-1.7,0.7-2.6,0.8c-0.9,0.1-1.7,0.1-2.4,0.1c-1.4,0-2.6-0.4-3.6-1.1c-1-0.7-1.6-2-1.6-3.7
		c0-1.6,0.5-2.8,1.4-3.5s2.1-1.2,3.6-1.4c0.2,0,0.4,0,0.7-0.1s0.6-0.1,0.9-0.1c1.7-0.2,2.5-0.7,2.5-1.5c0-0.6-0.3-1-0.9-1.1
		c-0.6-0.2-1.1-0.3-1.6-0.3s-1,0.1-1.4,0.2c-0.4,0.2-0.7,0.4-0.9,0.9h-3.9c0.2-1.2,0.7-2.2,1.6-2.9c1-0.9,2.5-1.3,4.4-1.3
		c2.1,0,3.8,0.4,4.8,1.1c1.1,0.8,1.7,1.8,1.7,3.2v5.2c0,1.5-0.3,2.7-0.8,3.6C211.6,35.8,211,36.4,210.2,36.8z M209.3,29.7
		c-0.5,0.3-1.3,0.5-2.2,0.7l-1.3,0.3c-0.7,0.2-1.2,0.4-1.5,0.7c-0.3,0.4-0.4,0.8-0.4,1.3c0,0.6,0.2,1,0.5,1.4
		c0.3,0.3,0.8,0.5,1.5,0.5c1.1,0,1.9-0.3,2.5-0.9c0.6-0.6,0.9-1.5,0.9-2.5V29.7z"/>
	<path class="st1" d="M224.4,17.5h2c0.5,0,1,0.2,1.4,0.6s0.6,0.9,0.6,1.4v11.2c0,2.7-0.8,4.6-2.4,5.5c-1.6,1-3.3,1.4-5.1,1.4
		c-1,0-2-0.2-2.9-0.5c-1-0.3-1.7-0.9-2.3-1.6c-1.1-1.4-1.7-3.4-1.7-5.8s0.6-4.4,1.7-5.8c1.2-1.5,2.6-2.2,4.4-2.2
		c1,0,1.8,0.2,2.5,0.6c0.8,0.5,1.4,1.1,1.8,1.8V17.5z M217.8,29.6c0,1.5,0.3,2.7,0.9,3.5c0.6,0.8,1.4,1.2,2.5,1.2
		c1,0,1.8-0.4,2.4-1.2c0.5-0.8,0.8-2,0.8-3.5c0-1.4-0.3-2.5-0.9-3.3c-0.6-0.8-1.4-1.2-2.5-1.2c-1,0-1.8,0.4-2.4,1.2
		C218.1,27.2,217.8,28.2,217.8,29.6z"/>
	<path class="st1" d="M229.7,21.8l2.1,0.1c0.5,0,1,0.2,1.4,0.6s0.6,0.8,0.6,1.4v13.4l-4-0.1V21.8H229.7z"/>
	<path class="st1" d="M249,37.4h-2c-0.6,0-1-0.2-1.4-0.5c-0.4-0.4-0.5-0.8-0.5-1.4v-7.8c0-0.9-0.3-1.6-0.8-2
		c-0.6-0.4-1.2-0.6-1.9-0.6s-1.3,0.2-1.8,0.6s-0.8,1.1-0.8,2v9.8h-4v-9c0-2.6,0.7-4.4,2-5.2c1.4-0.9,2.9-1.4,4.5-1.4
		c1.7,0,3.2,0.4,4.7,1.3c1.4,0.9,2.1,2.7,2.1,5.4v8.8C249.1,37.4,249,37.4,249,37.4z"/>
	<path class="st1" d="M260.3,36.5v-1c-0.7,1.1-1.6,1.7-2.8,2c-1.2,0.3-2.3,0.2-3.5-0.3s-2.1-1.3-3-2.6c-0.8-1.2-1.2-2.9-1.2-4.9
		c0-2.4,0.5-4.3,1.6-5.8s2.9-2.2,5.3-2.2c1.8,0,3.6,0.5,5.1,1.5c1.6,1,2.4,2.8,2.4,5.5v8.1c0,2.7-0.8,4.5-2.4,5.5s-3.3,1.5-5.1,1.5
		c-3.5,0-5.7-1.7-6.6-5h4.2c0.3,0.5,0.8,1,1.4,1.2c0.6,0.3,1.3,0.4,1.9,0.2c0.6-0.1,1.2-0.5,1.7-1.1
		C259.9,38.6,260.2,37.7,260.3,36.5z M253.7,29.9c0,2.6,0.8,4.1,2.3,4.4s2.7-0.1,3.4-1.1c0.3-0.4,0.6-1.1,0.8-2
		c0.2-0.9,0.2-1.8,0-2.7c-0.1-0.9-0.5-1.7-1-2.4c-0.5-0.7-1.2-1-2.2-1c-1.3,0-2.2,0.5-2.6,1.4C254,27.5,253.7,28.6,253.7,29.9z"/>
	<path class="st1" d="M229.7,17.6h2.1c0.5,0,1,0.2,1.4,0.6s0.6,0.8,0.6,1.4v1.2h-4v-3.2H229.7z"/>
</g>
<path class="st1" d="M92.5,44.2h-7c0.1-5,1.2-9.2,3.3-13.9c1.8-4.4,4.5-8.9,8.2-13.4H80.3v-5.7l21.8-0.1c1.7,0,2.8,0.6,3,1.9
	c0.3,1.2,0,2.3-0.7,3.2c-1.8,2.1-3.5,4.2-4.9,6.3s-2.6,4.5-3.6,6.8C94,34,92.8,39.2,92.5,44.2z"/>
<g>
	<path class="st0" d="M210.7,48.2v-7.8c0-0.3,0.1-0.5,0.3-0.6c0.2-0.2,0.4-0.3,0.6-0.3h3.3c0.9,0,1.6,0.2,2.1,0.6
		c0.5,0.4,0.7,1,0.7,1.8c0,0.5-0.1,1-0.4,1.3c-0.2,0.3-0.5,0.6-1,0.7c0.4,0.1,0.7,0.3,0.8,0.6c0.2,0.3,0.2,0.7,0.3,1.3l0.1,1
		c0,0.1,0,0.2,0,0.3s0,0.2,0,0.3c0.1,0.3,0.2,0.5,0.3,0.6h-2c-0.1-0.2-0.1-0.3-0.2-0.5c0-0.3-0.1-0.5-0.1-0.6V46
		c0-0.5-0.1-0.9-0.3-1.1c-0.2-0.2-0.5-0.3-1-0.3h-1.9V48h-1.6L210.7,48.2L210.7,48.2z M212.5,43.3h2.1c0.5,0,0.8-0.1,1-0.3
		s0.3-0.5,0.3-0.9s-0.1-0.7-0.3-0.9s-0.5-0.3-0.9-0.3h-2.2L212.5,43.3L212.5,43.3z"/>
	<path class="st0" d="M223.2,46.2h1.3c-0.2,0.7-0.5,1.3-1.1,1.6c-0.5,0.4-1.2,0.6-2,0.6c-1,0-1.7-0.3-2.3-0.9
		c-0.5-0.6-0.8-1.5-0.8-2.6s0.3-1.9,0.8-2.5s1.3-0.9,2.3-0.9s1.8,0.3,2.4,0.9c0.5,0.6,0.8,1.5,0.8,2.6c0,0.1,0,0.1,0,0.2
		s0,0.1,0,0.1c0,0.1,0,0.1,0,0.2h-4.4c0,0.5,0.1,0.9,0.4,1.2c0.2,0.3,0.5,0.4,1,0.4c0.3,0,0.5-0.1,0.7-0.2c0.1,0,0.1,0,0.1-0.1
		l0.1-0.1c0-0.1,0.1-0.1,0.2-0.2C222.8,46.2,223,46.2,223.2,46.2z M220.1,44.2h2.6c0-0.5-0.2-0.8-0.4-1s-0.5-0.4-0.9-0.4
		s-0.7,0.1-0.9,0.4C220.3,43.4,220.2,43.8,220.1,44.2z"/>
	<path class="st0" d="M225.4,48.2v-6.9c0-0.6,0.2-1.1,0.5-1.4c0.3-0.3,0.8-0.4,1.5-0.4c0.2,0,0.3,0,0.4,0c0.2,0,0.6,0,0.7,0v1.4
		h-0.8c-0.2,0-0.4,0-0.5,0.1s-0.1,0.2-0.1,0.4v0.5h1.1v0.4c0,0.3-0.1,0.5-0.3,0.6c-0.2,0.2-0.4,0.2-0.6,0.2H227v5.1
		C227,48.2,225.4,48.2,225.4,48.2z"/>
	<path class="st0" d="M229.5,39.5h0.9c0.2,0,0.4,0.1,0.6,0.2c0.2,0.2,0.3,0.4,0.3,0.6v7.9h-1.8V39.5z"/>
	<path class="st0" d="M236.9,46.2h1.3c-0.2,0.7-0.5,1.3-1.1,1.6c-0.5,0.4-1.2,0.6-2,0.6c-1,0-1.7-0.3-2.3-0.9
		c-0.5-0.6-0.8-1.5-0.8-2.6s0.3-1.9,0.8-2.5s1.3-0.9,2.3-0.9s1.8,0.3,2.4,0.9c0.5,0.6,0.8,1.5,0.8,2.6c0,0.1,0,0.1,0,0.2
		s0,0.1,0,0.1c0,0.1,0,0.1,0,0.2h-4.4c0,0.5,0.1,0.9,0.4,1.2c0.2,0.3,0.5,0.4,1,0.4c0.3,0,0.5-0.1,0.7-0.2c0.1,0,0.1,0,0.1-0.1
		l0.1-0.1c0-0.1,0.1-0.1,0.2-0.2C236.5,46.2,236.7,46.2,236.9,46.2z M233.9,44.2h2.6c0-0.5-0.2-0.8-0.4-1s-0.5-0.4-0.9-0.4
		s-0.7,0.1-0.9,0.4C234,43.4,233.9,43.8,233.9,44.2z"/>
	<path class="st0" d="M243.8,46.2h1.3c-0.2,0.7-0.5,1.3-1.1,1.6c-0.5,0.4-1.2,0.6-2,0.6c-1,0-1.7-0.3-2.3-0.9
		c-0.5-0.6-0.8-1.5-0.8-2.6s0.3-1.9,0.8-2.5s1.3-0.9,2.3-0.9s1.8,0.3,2.4,0.9c0.3,0.4,0.5,0.8,0.7,1.3h-1.8
		c-0.1-0.2-0.2-0.3-0.3-0.4c-0.2-0.2-0.5-0.4-0.9-0.4s-0.7,0.1-0.9,0.4c-0.3,0.3-0.5,0.9-0.5,1.7s0.2,1.3,0.5,1.6
		c0.2,0.3,0.5,0.4,1,0.4c0.3,0,0.5-0.1,0.7-0.2c0.1,0,0.1,0,0.1-0.1l0.1-0.1c0-0.1,0.1-0.1,0.2-0.2
		C243.5,46.2,243.6,46.2,243.8,46.2z"/>
	<path class="st0" d="M248.4,48.2c-0.6,0-1.2,0-1.8,0s-1-0.5-1-1.2v-7.4h0.9c0.2,0,0.4,0.1,0.6,0.3c0.2,0.2,0.3,0.4,0.3,0.6v1.1h1
		V42c0,0.3-0.1,0.5-0.3,0.6c-0.2,0.2-0.4,0.2-0.6,0.2h-0.2v3.7c0,0.3,0.2,0.4,0.5,0.4h0.5v1.3H248.4z"/>
	<g>
		<path class="st0" d="M208,45.9h1.4c-0.2,0.8-0.6,1.4-1.2,1.8c-0.6,0.4-1.3,0.6-2.2,0.6c-1.1,0-1.9-0.3-2.5-1s-0.9-1.6-0.9-2.9
			c0-1.2,0.3-2.1,0.9-2.8c0.6-0.7,1.4-1,2.5-1s2,0.3,2.6,1s0.9,1.7,0.9,2.9c0,0.1,0,0.1,0,0.2c0,0.1,0,0.1,0,0.1c0,0.1,0,0.2,0,0.2
			h-4.9c0,0.6,0.2,1,0.4,1.3s0.6,0.5,1.1,0.5c0.3,0,0.6-0.1,0.8-0.2c0.1,0,0.1-0.1,0.2-0.1c0,0,0.1-0.1,0.2-0.2
			c0-0.1,0.1-0.1,0.2-0.2C207.6,46,207.8,45.9,208,45.9z M204.6,43.7h2.9c0-0.5-0.2-0.9-0.4-1.1c-0.2-0.3-0.6-0.4-1-0.4
			s-0.8,0.1-1,0.4C204.8,42.9,204.6,43.2,204.6,43.7z"/>
	</g>
</g>
<g>
	<g>
		<path class="st0" d="M50.4,17.7v28.1c0,0-10.4-8.7-23.7-5.8V9.9C26.7,9.9,43.1,7.3,50.4,17.7z"/>
	</g>
	<g>
		<path class="st0" d="M51.4,17.7v28.1c0,0,10.4-8.7,23.7-5.8V9.9C75.1,9.9,58.7,7.3,51.4,17.7z"/>
	</g>
	<rect x="6.4" y="19.2" class="st1" width="18" height="3"/>
	<rect x="13.4" y="12.2" class="st1" width="11" height="3"/>
</g>
<g>
	<path class="st0" d="M273.4,16.2h-4.7v2.7h5.3V21h-8.2V9.7h7.9v2.1h-5v2.4h4.7V16.2z"/>
	<path class="st0" d="M275.9,9.8c1.1-0.2,2.4-0.2,3.9-0.2c2.4,0,4,0.4,5.2,1.2c1.3,0.9,2.2,2.3,2.2,4.3c0,2.2-0.9,3.7-2.1,4.6
		c-1.3,1-3.4,1.5-5.9,1.5c-1.5,0-2.6-0.1-3.3-0.2V9.8z M278.8,19.1c0.2,0.1,0.6,0.1,1,0.1c2.6,0,4.3-1.3,4.3-4c0-2.4-1.5-3.6-4-3.6
		c-0.6,0-1.1,0.1-1.3,0.1V19.1z"/>
	<path class="st0" d="M292,9.7v6.5c0,2,0.8,2.9,2.3,2.9c1.5,0,2.4-0.9,2.4-2.9V9.7h2.9V16c0,3.5-2,5.2-5.3,5.2
		c-3.2,0-5.1-1.6-5.1-5.2V9.7H292z"/>
</g>
</svg>
