<?xml version="1.0" encoding="utf-8"?>
<!-- Generator: Adobe Illustrator 21.1.0, SVG Export Plug-In . SVG Version: 6.00 Build 0)  -->
<svg version="1.1" id="Layer_1" xmlns="http://www.w3.org/2000/svg" xmlns:xlink="http://www.w3.org/1999/xlink" x="0px" y="0px"
	 viewBox="0 0 200 200" style="enable-background:new 0 0 200 200;" xml:space="preserve">
<style type="text/css">
	.st0{fill:#0C70B7;}
</style>
<g>
	<g>
		<path class="st0" d="M177.4,184.1H119c-3.7,0-6.7-3-6.7-6.7V96.4c0-3.7,3-6.7,6.7-6.7h58.4c3.7,0,6.7,3,6.7,6.7v80.9
			C184.2,181.1,181.1,184.1,177.4,184.1z M119,94.2c-1.2,0-2.2,1-2.2,2.2v80.9c0,1.2,1,2.2,2.2,2.2h58.4c1.2,0,2.2-1,2.2-2.2V96.4
			c0-1.2-1-2.2-2.2-2.2H119z"/>
		<path class="st0" d="M172.9,118.9h-49.4c-1.2,0-2.2-1-2.2-2.2v-15.7c0-1.2,1-2.2,2.2-2.2h49.4c1.2,0,2.2,1,2.2,2.2v15.7
			C175.2,117.9,174.2,118.9,172.9,118.9z M125.7,114.4h44.9v-11.2h-44.9V114.4z"/>
		<path class="st0" d="M132.5,139.1h-9c-1.2,0-2.2-1-2.2-2.2v-9c0-1.2,1-2.2,2.2-2.2h9c1.2,0,2.2,1,2.2,2.2v9
			C134.7,138.1,133.7,139.1,132.5,139.1z M125.7,134.7h4.5v-4.5h-4.5V134.7z"/>
		<path class="st0" d="M172.9,139.1h-9c-1.2,0-2.2-1-2.2-2.2v-9c0-1.2,1-2.2,2.2-2.2h9c1.2,0,2.2,1,2.2,2.2v9
			C175.2,138.1,174.2,139.1,172.9,139.1z M166.2,134.7h4.5v-4.5h-4.5V134.7z"/>
		<path class="st0" d="M152.7,139.1h-9c-1.2,0-2.2-1-2.2-2.2v-9c0-1.2,1-2.2,2.2-2.2h9c1.2,0,2.2,1,2.2,2.2v9
			C154.9,138.1,153.9,139.1,152.7,139.1z M145.9,134.7h4.5v-4.5h-4.5V134.7z"/>
		<path class="st0" d="M132.5,157.1h-9c-1.2,0-2.2-1-2.2-2.2v-9c0-1.2,1-2.2,2.2-2.2h9c1.2,0,2.2,1,2.2,2.2v9
			C134.7,156.1,133.7,157.1,132.5,157.1z M125.7,152.6h4.5v-4.5h-4.5V152.6z"/>
		<path class="st0" d="M172.9,157.1h-9c-1.2,0-2.2-1-2.2-2.2v-9c0-1.2,1-2.2,2.2-2.2h9c1.2,0,2.2,1,2.2,2.2v9
			C175.2,156.1,174.2,157.1,172.9,157.1z M166.2,152.6h4.5v-4.5h-4.5V152.6z"/>
		<path class="st0" d="M152.7,157.1h-9c-1.2,0-2.2-1-2.2-2.2v-9c0-1.2,1-2.2,2.2-2.2h9c1.2,0,2.2,1,2.2,2.2v9
			C154.9,156.1,153.9,157.1,152.7,157.1z M145.9,152.6h4.5v-4.5h-4.5V152.6z"/>
		<path class="st0" d="M132.5,175.1h-9c-1.2,0-2.2-1-2.2-2.2v-9c0-1.2,1-2.2,2.2-2.2h9c1.2,0,2.2,1,2.2,2.2v9
			C134.7,174.1,133.7,175.1,132.5,175.1z M125.7,170.6h4.5v-4.5h-4.5V170.6z"/>
		<path class="st0" d="M172.9,175.1h-9c-1.2,0-2.2-1-2.2-2.2v-9c0-1.2,1-2.2,2.2-2.2h9c1.2,0,2.2,1,2.2,2.2v9
			C175.2,174.1,174.2,175.1,172.9,175.1z M166.2,170.6h4.5v-4.5h-4.5V170.6z"/>
		<path class="st0" d="M152.7,175.1h-9c-1.2,0-2.2-1-2.2-2.2v-9c0-1.2,1-2.2,2.2-2.2h9c1.2,0,2.2,1,2.2,2.2v9
			C154.9,174.1,153.9,175.1,152.7,175.1z M145.9,170.6h4.5v-4.5h-4.5V170.6z"/>
	</g>
	<rect x="51.6" y="80.7" class="st0" width="24.7" height="4.5"/>
	<rect x="83" y="112.2" class="st0" width="22.5" height="4.5"/>
	<rect x="33.6" y="112.2" class="st0" width="29.2" height="4.5"/>
	<rect x="56.1" y="136.9" class="st0" width="29.2" height="4.5"/>
	<g>
		<g>
			<path class="st0" d="M86.4,114.1c-0.5,0-0.9-0.1-1.3-0.4L66,99.6c-0.5-0.4-0.8-0.9-0.9-1.5c-0.1-0.6,0.1-1.2,0.4-1.7l51.9-70.5
				c0.7-1,2.1-1.2,3.1-0.5l19.1,14c0.5,0.4,0.8,0.9,0.9,1.5c0.1,0.6-0.1,1.2-0.4,1.7l-51.9,70.5C87.8,113.8,87.1,114.1,86.4,114.1z
				 M70.5,97.3L86,108.7l49.2-66.9l-15.4-11.4L70.5,97.3z"/>
			<path class="st0" d="M76.9,107.1c-0.5,0-0.9-0.1-1.3-0.4c-1-0.7-1.2-2.1-0.5-3.1L127,33c0.7-1,2.1-1.2,3.1-0.5
				c1,0.7,1.2,2.1,0.5,3.1l-51.9,70.5C78.3,106.7,77.6,107.1,76.9,107.1z"/>
			<path class="st0" d="M91.5,100.9"/>
			<path class="st0" d="M130.8,47.5"/>
			<path class="st0" d="M62.9,126.1c-0.5,0-0.9-0.1-1.3-0.4c-0.7-0.5-1-1.4-0.9-2.2l4.5-26.1c0.1-0.8,0.7-1.4,1.4-1.7
				c0.7-0.3,1.5-0.2,2.2,0.3l19.1,14c0.6,0.5,1,1.2,0.9,2c-0.1,0.8-0.5,1.5-1.2,1.8l-23.6,12.1C63.6,126,63.2,126.1,62.9,126.1z
				 M69,101.8l-3.1,18.1l16.3-8.3L69,101.8z"/>
		</g>
		<path class="st0" d="M138.3,43.5c-0.5,0-0.9-0.1-1.3-0.4l-19.1-14c-0.5-0.4-0.8-0.9-0.9-1.5c-0.1-0.6,0.1-1.2,0.4-1.7l3.3-4.5
			c2.8-3.8,8.1-4.6,11.9-1.8l9,6.6c1.8,1.3,3,3.3,3.4,5.6c0.3,2.2-0.2,4.5-1.6,6.3l-3.3,4.5C139.7,43.2,139,43.5,138.3,43.5z
			 M122.4,26.8l15.4,11.4l2-2.7c0.6-0.9,0.9-1.9,0.7-3c-0.2-1.1-0.7-2-1.6-2.6h0l-9-6.6c-1.8-1.3-4.3-0.9-5.6,0.9L122.4,26.8z"/>
		<polygon class="st0" points="72.3,117.4 70.4,113.7 66.3,113 67.1,108.5 73.4,109.6 76.3,115.3 		"/>
	</g>
	<g>
		<rect x="56.1" y="163.9" class="st0" width="51.7" height="4.5"/>
		<rect x="116.7" y="67.2" class="st0" width="4.5" height="18"/>
		<path class="st0" d="M20.1,132.4c-1.2,0-2.2-1-2.2-2.2V47c0-1.2,1-2.2,2.2-2.2h83.2c1.2,0,2.2,1,2.2,2.2c0,1.2-1,2.2-2.2,2.2H22.3
			v80.9C22.3,131.4,21.3,132.4,20.1,132.4z"/>
		<path class="st0" d="M56.1,168.4c-0.6,0-1.2-0.2-1.6-0.7l-36-36c-0.6-0.6-0.8-1.6-0.5-2.4c0.3-0.8,1.2-1.4,2.1-1.4h36
			c1.2,0,2.2,1,2.2,2.2v36c0,0.9-0.5,1.7-1.4,2.1C56.6,168.3,56.3,168.4,56.1,168.4z M25.5,132.4l28.3,28.3v-28.3H25.5z"/>
	</g>
</g>
</svg>
