<?xml version="1.0" encoding="utf-8"?>
<!-- Generator: Adobe Illustrator 21.1.0, SVG Export Plug-In . SVG Version: 6.00 Build 0)  -->
<svg version="1.1" id="Layer_1" xmlns="http://www.w3.org/2000/svg" xmlns:xlink="http://www.w3.org/1999/xlink" x="0px" y="0px"
	 viewBox="0 0 200 200" style="enable-background:new 0 0 200 200;" xml:space="preserve">
<style type="text/css">
	.st0{fill:#0A6FB6;}
	.st1{fill:none;}
</style>
<path class="st0" d="M89.3,44.5c-0.4,0-0.8,0-1.1,0c-4.1-0.3-7.6-2-10.1-4.8c-2.9-3.3-4.3-8.1-3.9-13.4c0.7-10.1,7.5-16.8,16.5-16.2
	c4.1,0.3,7.6,2,10.1,4.8c2.9,3.3,4.3,8.1,3.9,13.4C103.9,38,97.7,44.5,89.3,44.5z M89.4,14.9c-7.1,0-10.1,6.2-10.5,11.7
	c-0.3,4,0.7,7.5,2.7,9.9c1.7,1.9,3.9,3,6.8,3.2c7.7,0.6,10.9-6,11.3-11.7l0,0c0.3-4-0.7-7.5-2.7-9.9c-1.7-1.9-3.9-3-6.8-3.2
	C90,14.9,89.7,14.9,89.4,14.9z"/>
<path class="st0" d="M124,83.6c-0.3,0-0.6,0-0.8-0.1l-15.6-5.6l1.6-4.6l14.8,5.3l18-6.9c1.1-0.5,1.7-1.9,1.2-3.2
	c-0.5-1.3-1.9-2-3.2-1.6l-15.2,4.9c-0.7,0.2-1.4,0.1-2-0.2l-24-14.9l2.6-4.1l23,14.3l14.1-4.5c3.9-1.2,7.9,0.8,9.3,4.6
	c1.3,3.7-0.4,7.6-3.9,9.3l-19,7.3C124.6,83.5,124.3,83.6,124,83.6z"/>
<g>
	<path class="st0" d="M99.8,190H69.3v-4.9h29.1l10.9-19.9c0.4-0.8,1.2-1.3,2.1-1.3h27.4c1.3,0,2.4,1.1,2.4,2.4v4.2l18.1-10.6
		l-18.1-10.6v4.2c0,1.3-1.1,2.4-2.4,2.4h-32.4l-11.9,20c-0.4,0.7-1.2,1.2-2.1,1.2H44.9v-4.9H91l11.9-20c0.4-0.7,1.2-1.2,2.1-1.2
		h31.3v-6c0-0.9,0.5-1.7,1.2-2.1c0.8-0.4,1.7-0.4,2.4,0l25.3,14.8c0.7,0.4,1.2,1.2,1.2,2.1s-0.5,1.7-1.2,2.1L140,177
		c-0.8,0.4-1.7,0.4-2.4,0c-0.8-0.4-1.2-1.2-1.2-2.1v-6h-23.5L102,188.8C101.5,189.5,100.7,190,99.8,190z"/>
	<rect x="52.2" y="185.1" class="st0" width="9.7" height="4.9"/>
</g>
<g>
	<polygon class="st0" points="72.5,118.2 67.6,117.9 64.2,169.1 69,169.1 	"/>
	<polygon class="st0" points="89.4,114.7 84.6,114.1 77,169.1 82,169.1 	"/>
</g>
<path class="st1" d="M127.2,107.5c-1.3-2-3.4-3.4-5.8-3.9L98.8,99c-1.2-0.3-2.1-1.4-1.9-2.6l3.8-34.4c0.2-1.7-0.3-3.3-1.4-4.6
	s-2.6-2.1-4.2-2.2l-21.7-1.7c-5.9-0.5-11.7,2.3-15.1,7.1L42.8,83.2l-4.4,20.6c-0.2,0.8,0,1.5,0.5,2.1s1.2,0.9,2,0.9
	c1,0,2-0.7,2.3-1.8l6.1-20.2c0.1-0.4,0.3-0.7,0.5-0.9l17.4-19c0.7-0.8,1.9-1,2.8-0.5c1,0.5,1.5,1.5,1.4,2.6l-3.2,21.6
	c-1.9,14.1,0,20.4,16.6,22.8l31.5,4.8c1.3,0.2,2.2,1.3,2.1,2.6l-2.3,28.1h7.8l4.7-32.1C129,112.1,128.5,109.6,127.2,107.5z"/>
<path class="st0" d="M118.3,118.7c0.1-1.3-0.8-2.4-2.1-2.6l-31.5-4.8c-16.6-2.4-18.5-8.7-16.6-22.8L71.4,67c0.2-1.1-0.4-2.1-1.4-2.6
	s-2.1-0.2-2.8,0.5L49.7,84c-0.2,0.3-0.4,0.6-0.5,0.9l-6.1,20.2c-0.3,1-1.2,1.7-2.3,1.8c-0.8,0-1.5-0.3-2-0.9s-0.7-1.4-0.5-2.1
	l4.4-20.6l15.5-22.6c3.4-4.8,9.2-7.6,15.1-7.1L95,55.1c1.7,0.1,3.2,0.9,4.2,2.2c1.1,1.3,1.6,2.9,1.4,4.6l-3.8,34.4
	c-0.1,1.2,0.7,2.4,1.9,2.6l22.6,4.6c2.4,0.5,4.5,1.9,5.8,3.9c1.4,2.1,1.8,4.6,1.3,7.2l-4.7,32.1h4.9l4.6-31.2
	c0.8-3.7,0.1-7.5-2-10.7c-2.1-3.1-5.2-5.3-8.9-6l-20.4-4.2l3.5-32.2c0.3-3-0.5-5.9-2.5-8.2c-1.9-2.3-4.6-3.7-7.6-3.9l-21.7-1.7
	c-7.6-0.6-15,2.9-19.5,9.2L38.5,80.9c-0.2,0.3-0.3,0.6-0.4,0.9l-4.5,21.1c-0.5,2.2,0.1,4.5,1.6,6.3c1.5,1.7,3.6,2.7,5.9,2.6
	c3.1-0.1,5.8-2.2,6.7-5.2L53.7,87l11.7-12.7l-2,13.7c-2.1,15.7,0.6,25.3,20.7,28.3l29.2,4.4l-2.2,26.3h4.9L118.3,118.7z"/>
</svg>
