<?xml version="1.0" encoding="utf-8"?>
<!-- Generator: Adobe Illustrator 21.1.0, SVG Export Plug-In . SVG Version: 6.00 Build 0)  -->
<svg version="1.1" id="Layer_1" xmlns="http://www.w3.org/2000/svg" xmlns:xlink="http://www.w3.org/1999/xlink" x="0px" y="0px"
	 viewBox="0 0 200 200" style="enable-background:new 0 0 200 200;" xml:space="preserve">
<style type="text/css">
	.st0{fill:#0A6FB6;}
</style>
<g>
	<g>
		<g>
			<path class="st0" d="M80.1,158.8c-10,0-18.2-7-18.2-15.6c0,0,0-0.1,0-0.1c-8.2-3.5-13.4-10.6-13.4-18.5c0-1.6,0.2-3.3,0.7-4.9
				c-7.6-4.9-12-12.5-12-20.6c0-8.4,4.7-16.1,12.7-21c-0.2-1-0.2-1.9-0.2-2.9c0-7.4,4.8-14.3,12.3-18c0-0.2,0-0.4,0-0.6
				C61.9,48,70.1,41,80.1,41c10,0,18.2,7,18.2,15.6v3.5c0,1.4-1.1,2.5-2.5,2.5c-1.4,0-2.5-1.1-2.5-2.5v-3.5
				c0-5.8-5.9-10.6-13.2-10.6c-7.3,0-13.2,4.7-13.2,10.6c0,0.5,0.1,1.1,0.2,1.7c0.2,1.2-0.4,2.4-1.5,2.8
				c-6.6,2.6-10.9,8.2-10.9,14.1c0,1.1,0.2,2.3,0.5,3.5c0.3,1.1-0.2,2.4-1.2,2.9C46.6,85.5,42.2,92,42.2,99.1
				c0,6.9,4.2,13.4,11.2,17.3c1.1,0.6,1.6,2,1.1,3.2c-0.7,1.6-1,3.3-1,5c0,6.3,4.7,12,11.9,14.5c1.2,0.4,1.9,1.6,1.7,2.8
				c-0.1,0.4-0.1,0.9-0.1,1.4c0,5.8,5.9,10.6,13.2,10.6c7.3,0,13.2-4.7,13.2-10.6v-2.3c0-1.4,1.1-2.5,2.5-2.5c1.4,0,2.5,1.1,2.5,2.5
				v2.3C98.3,151.8,90.2,158.8,80.1,158.8z"/>
			<path class="st0" d="M59.6,103.7c-0.1,0-0.2,0-0.3,0c-1.4-0.2-2.3-1.4-2.2-2.8c0.6-4.2-3.3-5.3-3.8-5.4c-1.4-0.3-2.2-1.7-1.8-3
				c0.3-1.4,1.7-2.2,3-1.8c3,0.7,8.5,4,7.6,10.9C61.9,102.8,60.8,103.7,59.6,103.7z"/>
			<path class="st0" d="M65.7,122.6c-0.4,0-0.8-0.1-1.2-0.3l-3.8-2c-2-1.1-4.4-1-6.4,0.1l-1.1,0.6c-1.2,0.7-2.7,0.3-3.4-0.9
				c-0.7-1.2-0.3-2.7,0.9-3.4l1.1-0.6c3.5-2,7.7-2,11.3-0.2l3.8,2c1.2,0.7,1.7,2.2,1.1,3.4C67.4,122.1,66.6,122.6,65.7,122.6z"/>
			<path class="st0" d="M67.1,85.5c-2.7,0-5.2-1.1-6.5-2.1c-1.1-0.8-1.4-2.4-0.5-3.5c0.8-1.1,2.4-1.4,3.5-0.6c0.2,0.1,3.4,2.3,6,0.3
				c1.1-0.9,2.7-0.7,3.5,0.4c0.9,1.1,0.7,2.7-0.4,3.5C70.8,85,68.9,85.5,67.1,85.5z"/>
			<path class="st0" d="M78.1,143.7c-0.1,0-0.3,0-0.5,0c-1.4-0.2-2.3-1.6-2-2.9c0.3-1.5,0.1-2.7-0.5-3.6c-1-1.3-2.8-1.6-2.8-1.6
				c-1.4-0.2-2.3-1.5-2.1-2.9c0.2-1.4,1.5-2.3,2.8-2.1c0.4,0.1,4,0.6,6.2,3.7c1.5,2,1.9,4.5,1.4,7.4
				C80.4,142.9,79.3,143.7,78.1,143.7z"/>
			<path class="st0" d="M78.5,70.4c-1.3,0-2.4-1-2.5-2.2c-0.2-1.4,0.8-2.6,2.2-2.8c0.5-0.1,1-0.3,1.3-0.7c0.3-0.4,0.5-0.9,0.4-1.4
				c-0.2-1.4,0.8-2.6,2.2-2.8c1.4-0.2,2.6,0.8,2.8,2.2c0.2,1.8-0.3,3.7-1.5,5.1c-1.2,1.5-2.8,2.4-4.7,2.6
				C78.6,70.4,78.6,70.4,78.5,70.4z"/>
		</g>
		<g>
			<path class="st0" d="M119.9,158.8c-10,0-18.2-7-18.2-15.6v-2.6c0-1.4,1.1-2.5,2.5-2.5c1.4,0,2.5,1.1,2.5,2.5v2.6
				c0,5.8,5.9,10.6,13.2,10.6c7.3,0,13.2-4.7,13.2-10.6c0-0.5-0.1-0.9-0.1-1.4c-0.2-1.2,0.5-2.4,1.7-2.8c7.2-2.5,11.9-8.1,11.9-14.5
				c0-1.7-0.3-3.4-1-5c-0.5-1.2,0-2.5,1.1-3.2c7-3.9,11.2-10.4,11.2-17.3c0-7.1-4.4-13.6-11.7-17.5c-1-0.6-1.6-1.8-1.2-2.9
				c0.3-1.2,0.5-2.3,0.5-3.5c0-5.9-4.3-11.5-10.9-14.1c-1.1-0.4-1.8-1.6-1.5-2.8c0.1-0.6,0.2-1.2,0.2-1.7c0-5.8-5.9-10.6-13.2-10.6
				c-7.3,0-13.2,4.7-13.2,10.6v3.1c0,1.4-1.1,2.5-2.5,2.5c-1.4,0-2.5-1.1-2.5-2.5v-3.1c0-8.6,8.2-15.6,18.2-15.6
				c10,0,18.2,7,18.2,15.6c0,0.2,0,0.4,0,0.6c7.5,3.7,12.3,10.5,12.3,18c0,0.9-0.1,1.9-0.2,2.9c8,4.9,12.7,12.6,12.7,21
				c0,8.1-4.4,15.7-12,20.6c0.5,1.6,0.7,3.2,0.7,4.9c0,7.9-5.2,15-13.4,18.5c0,0,0,0.1,0,0.1C138.1,151.8,129.9,158.8,119.9,158.8z"
				/>
			<path class="st0" d="M140.4,103.7c-1.2,0-2.3-0.9-2.5-2.2c-0.9-7,4.6-10.2,7.6-10.9c1.3-0.3,2.7,0.5,3,1.8c0.3,1.3-0.5,2.7-1.8,3
				c-0.7,0.2-4.3,1.4-3.8,5.4c0.2,1.4-0.8,2.6-2.2,2.8C140.6,103.7,140.5,103.7,140.4,103.7z"/>
			<path class="st0" d="M134.3,122.6c-0.9,0-1.8-0.5-2.2-1.3c-0.6-1.2-0.2-2.8,1.1-3.4l4.4-2.3c3.2-1.7,7-1.6,10.1,0.2l1.7,1
				c1.2,0.7,1.6,2.2,0.9,3.4c-0.7,1.2-2.2,1.6-3.4,0.9l-1.7-1c-1.6-0.9-3.6-1-5.2-0.1l-4.4,2.3C135.1,122.5,134.7,122.6,134.3,122.6
				z"/>
			<path class="st0" d="M132.9,85.5c-1.8,0-3.8-0.5-5.6-1.9c-1.1-0.9-1.3-2.4-0.4-3.5c0.9-1.1,2.4-1.3,3.5-0.4
				c2.6,2.1,5.9-0.2,6-0.3c1.1-0.8,2.7-0.5,3.5,0.6c0.8,1.1,0.6,2.7-0.6,3.5C138.1,84.4,135.6,85.5,132.9,85.5z"/>
			<path class="st0" d="M121.4,143.5c-1.3,0-2.4-1-2.5-2.3c-0.3-3,0.4-5.4,2.1-7.3c2.5-2.8,6.1-3.1,6.5-3.1c1.4-0.1,2.6,1,2.6,2.4
				c0.1,1.4-1,2.6-2.4,2.6c-0.1,0-1.9,0.2-3,1.4c-0.7,0.8-1,2-0.8,3.5c0.1,1.4-0.9,2.6-2.3,2.7C121.6,143.5,121.5,143.5,121.4,143.5
				z"/>
			<path class="st0" d="M124.8,69.8c-0.6,0-1.2-0.1-1.8-0.2c-1.8-0.5-3.3-1.6-4.2-3.2c-0.7-1.2-0.3-2.7,0.9-3.4
				c1.2-0.7,2.7-0.3,3.4,0.9c0.3,0.4,0.7,0.8,1.2,0.9c0.5,0.1,1,0.1,1.5-0.2c1.2-0.7,2.7-0.3,3.4,0.9c0.7,1.2,0.3,2.7-0.9,3.4
				C127.2,69.5,126,69.8,124.8,69.8z"/>
		</g>
	</g>
	<g>
		<path class="st0" d="M112.1,121.4H87.9v-8.8c-0.2-0.2-0.5-0.5-1-0.8c-6-4.1-9.6-11.1-9.6-18.5c0-12.5,10.2-22.7,22.7-22.7
			c12.5,0,22.7,10.2,22.7,22.7c0,7.7-3.8,14.8-9.8,18.7c-0.8,0.5-0.8,1.5-0.8,1.5L112.1,121.4z M92.9,116.3h14.2v-2.7
			c-0.1-1.3,0.4-4.2,3.1-6c4.6-2.9,7.4-8.4,7.4-14.4c0-9.7-7.9-17.7-17.7-17.7c-9.7,0-17.7,7.9-17.7,17.7c0,5.8,2.8,11.2,7.4,14.4
			c1.6,1.1,2.7,2.2,3,3.1l0.2,0.5V116.3z"/>
		<rect x="91.4" y="126.5" class="st0" width="17" height="5"/>
	</g>
	<g>
		<path class="st0" d="M99.9,188.1C99.9,188.1,99.9,188.1,99.9,188.1c-1.4,0-2.5-1.1-2.5-2.5l0.1-21.6c0-1.4,1.1-2.5,2.5-2.5
			c0,0,0,0,0,0c1.4,0,2.5,1.1,2.5,2.5l-0.1,21.6C102.5,187,101.3,188.1,99.9,188.1z"/>
		<path class="st0" d="M100,38.3c-1.4,0-2.5-1.1-2.5-2.5V14.4c0-1.4,1.1-2.5,2.5-2.5c1.4,0,2.5,1.1,2.5,2.5v21.4
			C102.5,37.2,101.4,38.3,100,38.3z"/>
		<path class="st0" d="M25.3,102.1H9.5c-1.4,0-2.5-1.1-2.5-2.5C7,98.2,8.1,97,9.5,97h15.8c1.4,0,2.5,1.1,2.5,2.5
			C27.8,101,26.7,102.1,25.3,102.1z"/>
		<path class="st0" d="M190.5,102.1h-17.4c-1.4,0-2.5-1.1-2.5-2.5c0-1.4,1.1-2.5,2.5-2.5h17.4c1.4,0,2.5,1.1,2.5,2.5
			C193,101,191.9,102.1,190.5,102.1z"/>
		<path class="st0" d="M30.3,172.1c-0.6,0-1.3-0.2-1.8-0.7c-1-1-1-2.6,0-3.6l10.9-11.1c1-1,2.6-1,3.6,0c1,1,1,2.6,0,3.6l-10.9,11.1
			C31.6,171.8,31,172.1,30.3,172.1z"/>
		<path class="st0" d="M47.5,154.6c-0.6,0-1.3-0.2-1.8-0.7c-1-1-1-2.6,0-3.6l1.8-1.8c1-1,2.6-1,3.6,0c1,1,1,2.6,0,3.6l-1.8,1.8
			C48.8,154.3,48.1,154.6,47.5,154.6z"/>
		<path class="st0" d="M149.4,52.7c-0.7,0-1.3-0.3-1.8-0.8c-1-1-0.9-2.6,0.1-3.6l10.3-10c1-1,2.6-0.9,3.6,0.1c1,1,0.9,2.6-0.1,3.6
			l-10.3,10C150.7,52.5,150,52.7,149.4,52.7z"/>
		<path class="st0" d="M166.6,35.8c-0.6,0-1.3-0.2-1.8-0.7c-1-1-1-2.6,0-3.6l1.8-1.8c1-1,2.6-1,3.6,0s1,2.6,0,3.6l-1.8,1.8
			C167.8,35.6,167.2,35.8,166.6,35.8z"/>
		<path class="st0" d="M38.8,40.4c-0.6,0-1.3-0.2-1.8-0.7L30,32.8c-1-1-1-2.6,0-3.6c1-1,2.6-1,3.6,0l7.1,6.9c1,1,1,2.6,0,3.6
			C40.1,40.2,39.5,40.4,38.8,40.4z"/>
		<path class="st0" d="M51.7,52.9c-0.6,0-1.3-0.2-1.7-0.7l-6.7-6.4c-1-1-1-2.6-0.1-3.6s2.6-1,3.6-0.1l6.7,6.4c1,1,1,2.6,0.1,3.6
			C53,52.6,52.3,52.9,51.7,52.9z"/>
		<path class="st0" d="M154.9,156.5c-0.7,0-1.4-0.3-1.9-0.8l-5-5.5c-0.9-1-0.9-2.6,0.2-3.6c1-0.9,2.6-0.9,3.6,0.2l5,5.5
			c0.9,1,0.9,2.6-0.2,3.6C156.1,156.3,155.5,156.5,154.9,156.5z"/>
		<path class="st0" d="M166.9,168.8c-0.7,0-1.3-0.3-1.8-0.8l-5.8-6.1c-1-1-0.9-2.6,0.1-3.6c1-1,2.6-0.9,3.6,0.1l5.9,6.1
			c1,1,0.9,2.6-0.1,3.6C168.2,168.6,167.6,168.8,166.9,168.8z"/>
	</g>
</g>
</svg>
