<?xml version="1.0" encoding="UTF-8"?>
<svg width="60px" height="49px" viewBox="0 0 60 49" version="1.1" xmlns="http://www.w3.org/2000/svg" xmlns:xlink="http://www.w3.org/1999/xlink">
    <!-- Generator: Sketch 55.2 (78181) - https://sketchapp.com -->
    <title>quote-right-white</title>
    <desc>Created with Sketch.</desc>
    <g id="Assets" stroke="none" stroke-width="1" fill="none" fill-rule="evenodd">
        <g transform="translate(-2314.000000, -2418.000000)" fill="#FFFFFF" fill-rule="nonzero" id="quote-right-white">
            <path d="M2328.45,2418 C2332.07668,2418 2335.10832,2419.16166 2337.545,2421.485 C2339.98168,2423.80834 2341.2,2426.72665 2341.2,2430.24 C2341.2,2432.05334 2340.91667,2433.92332 2340.35,2435.85 C2339.78333,2437.77668 2338.76334,2440.32665 2337.29,2443.5 L2326.24,2466.62 L2314,2466.62 L2320.97,2440.44 C2317.34332,2437.94665 2315.53,2434.54669 2315.53,2430.24 C2315.53,2426.72665 2316.77665,2423.80834 2319.27,2421.485 C2321.76335,2419.16166 2324.82332,2418 2328.45,2418 Z M2361.26,2418 C2364.88668,2418 2367.91832,2419.16166 2370.355,2421.485 C2372.79168,2423.80834 2374.01,2426.72665 2374.01,2430.24 C2374.01,2432.05334 2373.72667,2433.92332 2373.16,2435.85 C2372.59333,2437.77668 2371.57334,2440.32665 2370.1,2443.5 L2359.05,2466.62 L2346.81,2466.62 L2353.78,2440.44 C2350.15332,2437.94665 2348.34,2434.54669 2348.34,2430.24 C2348.34,2426.72665 2349.58665,2423.80834 2352.08,2421.485 C2354.57335,2419.16166 2357.63332,2418 2361.26,2418 Z"></path>
        </g>
    </g>
</svg>