<?xml version="1.0" encoding="UTF-8"?>
<svg width="60px" height="49px" viewBox="0 0 60 49" version="1.1" xmlns="http://www.w3.org/2000/svg" xmlns:xlink="http://www.w3.org/1999/xlink">
    <!-- Generator: Sketch 55.2 (78181) - https://sketchapp.com -->
    <title>quote-left-white</title>
    <desc>Created with Sketch.</desc>
    <g id="Assets" stroke="none" stroke-width="1" fill="none" fill-rule="evenodd">
        <g transform="translate(-2206.000000, -2418.000000)" fill="#FFFFFF" fill-rule="nonzero" id="quote-left-white">
            <path d="M2218.75,2466.62 C2215.12332,2466.62 2212.09168,2465.45834 2209.655,2463.135 C2207.21832,2460.81166 2206,2457.89335 2206,2454.38 C2206,2452.56666 2206.28333,2450.69668 2206.85,2448.77 C2207.41667,2446.84332 2208.43666,2444.29335 2209.91,2441.12 L2220.96,2418 L2233.2,2418 L2226.23,2444.18 C2229.85668,2446.67335 2231.67,2450.07331 2231.67,2454.38 C2231.67,2457.89335 2230.42335,2460.81166 2227.93,2463.135 C2225.43665,2465.45834 2222.37668,2466.62 2218.75,2466.62 Z M2251.56,2466.62 C2247.93332,2466.62 2244.90168,2465.45834 2242.465,2463.135 C2240.02832,2460.81166 2238.81,2457.89335 2238.81,2454.38 C2238.81,2452.56666 2239.09333,2450.69668 2239.66,2448.77 C2240.22667,2446.84332 2241.24666,2444.29335 2242.72,2441.12 L2253.77,2418 L2266.01,2418 L2259.04,2444.18 C2262.66668,2446.67335 2264.48,2450.07331 2264.48,2454.38 C2264.48,2457.89335 2263.23335,2460.81166 2260.74,2463.135 C2258.24665,2465.45834 2255.18668,2466.62 2251.56,2466.62 Z"></path>
        </g>
    </g>
</svg>