<?xml version="1.0" encoding="utf-8"?>
<!-- Generator: Adobe Illustrator 21.1.0, SVG Export Plug-In . SVG Version: 6.00 Build 0)  -->
<svg version="1.1" id="Layer_1" xmlns="http://www.w3.org/2000/svg" xmlns:xlink="http://www.w3.org/1999/xlink" x="0px" y="0px"
	 viewBox="0 0 200 200" style="enable-background:new 0 0 200 200;" xml:space="preserve">
<style type="text/css">
	.st0{fill:#1B91CC;}
	.st1{fill:#045F8C;}
	.st2{fill:none;}
	.st3{fill:#F47F56;}
	.st4{fill:#368408;}
	.st5{fill:#563407;}
</style>
<g>
	<circle class="st0" cx="100" cy="100" r="97"/>
</g>
<g>
	<g>
		<path class="st1" d="M75,73.7l1.2-0.7C75.7,73.1,75.3,73.4,75,73.7z"/>
	</g>
	<g>
		<path class="st1" d="M131.5,73c0.7,0,1.4,0.4,1.7,1h0.5l-26.3-15.3V60c0,1.1-0.9,2-2,2h-2c-1.1,0-2-0.9-2-2v-1.3L76.2,73
			c0.1,0,0.2,0,0.3,0H131.5z"/>
	</g>
	<g>
		<path class="st1" d="M74.5,74h0.3c0.1-0.1,0.1-0.2,0.2-0.3L74.5,74z"/>
	</g>
	<g>
		<path class="st1" d="M131.5,73h-55c-0.1,0-0.2,0-0.3,0L75,73.7c-0.1,0.1-0.1,0.2-0.2,0.3h58.4C132.9,73.4,132.2,73,131.5,73z"/>
	</g>
	<g>
		<path class="st1" d="M107.5,58.7V51h-1V36h1v-1c0-1.1-0.9-2-2-2h-2c-1.1,0-2,0.9-2,2v23.7l3-1.7L107.5,58.7z"/>
	</g>
	<g>
		<path class="st1" d="M103.5,62h2c1.1,0,2-0.9,2-2v-1.3l-3-1.7l-3,1.7V60C101.5,61.1,102.4,62,103.5,62z"/>
	</g>
	<g>
		<rect x="107.5" y="36" class="st1" width="17" height="15"/>
	</g>
	<g>
		<rect x="106.5" y="36" class="st1" width="1" height="15"/>
	</g>
	<g>
		<path class="st1" d="M74.5,155v-37h-3v4c0,0.5-0.5,1-1,1h-9c-0.5,0-1-0.5-1-1v-16c0-0.5,0.5-1,1-1h6v-4c0-0.5,0.5-1,1-1h6v-4h-32
			c-1.1,0-2,0.9-2,2v57c0,1.1,0.9,2,2,2h34C75.4,157,74.5,156.1,74.5,155z M58.5,147c0,0.5-0.5,1-1,1h-9c-0.5,0-1-0.5-1-1v-16
			c0-0.5,0.5-1,1-1h9c0.5,0,1,0.5,1,1V147z M58.5,122c0,0.5-0.5,1-1,1h-9c-0.5,0-1-0.5-1-1v-16c0-0.5,0.5-1,1-1h9c0.5,0,1,0.5,1,1
			V122z M71.5,147c0,0.5-0.5,1-1,1h-9c-0.5,0-1-0.5-1-1v-16c0-0.5,0.5-1,1-1h9c0.5,0,1,0.5,1,1V147z"/>
	</g>
	<g>
		<path class="st1" d="M166.5,96h-33v59c0,0.9-0.6,1.7-1.5,1.9c0.2,0,0.3,0.1,0.5,0.1h34c1.1,0,2-0.9,2-2V98
			C168.5,96.9,167.6,96,166.5,96z M149.5,147c0,0.5-0.5,1-1,1h-9c-0.5,0-1-0.5-1-1v-16c0-0.5,0.5-1,1-1h9c0.5,0,1,0.5,1,1V147z
			 M149.5,122c0,0.5-0.5,1-1,1h-9c-0.5,0-1-0.5-1-1v-16c0-0.5,0.5-1,1-1h9c0.5,0,1,0.5,1,1V122z M162.5,147c0,0.5-0.5,1-1,1h-9
			c-0.5,0-1-0.5-1-1v-16c0-0.5,0.5-1,1-1h9c0.5,0,1,0.5,1,1V147z M162.5,122c0,0.5-0.5,1-1,1h-9c-0.5,0-1-0.5-1-1v-16
			c0-0.5,0.5-1,1-1h9c0.5,0,1,0.5,1,1V122z"/>
	</g>
	<g>
		<path class="st1" d="M77.5,100c0.5,0,1,0.5,1,1v-3c0-1.1-0.9-2-2-2h-2v4H77.5z"/>
	</g>
	<g>
		<path class="st1" d="M78.5,155v-38c0,0.5-0.5,1-1,1h-3v37c0,1.1,0.9,2,2,2S78.5,156.1,78.5,155z"/>
	</g>
	<g>
		<path class="st1" d="M133.5,155V96h-1c-1.1,0-2,0.9-2,2v57c0,0.9,0.6,1.7,1.5,1.9C132.9,156.7,133.5,155.9,133.5,155z"/>
	</g>
	<g>
		<path class="st1" d="M130.5,155V98c0-1.1,0.9-2,2-2h1V75c0-0.4-0.1-0.7-0.3-1H74.8c-0.2,0.3-0.3,0.6-0.3,1v21h2c1.1,0,2,0.9,2,2v3
			v16v38c0,1.1-0.9,2-2,2h16v-41c0-1.1,0.9-2,2-2h20c1.1,0,2,0.9,2,2v41h15c0.2,0,0.3,0,0.5-0.1C131.1,156.7,130.5,155.9,130.5,155z
			 M104.5,91c-4.4,0-8-3.6-8-8s3.6-8,8-8s8,3.6,8,8S108.9,91,104.5,91z"/>
	</g>
	<g>
		<path class="st1" d="M68.5,100c-0.5,0-1,0.5-1,1v4h3c0.5,0,1,0.5,1,1v12h3v-18H68.5z"/>
	</g>
	<g>
		<path class="st1" d="M77.5,100h-3v18h3c0.5,0,1-0.5,1-1v-16C78.5,100.5,78,100,77.5,100z"/>
	</g>
</g>
<path class="st2" d="M256.5,184h-9c-0.5,0-1,0.5-1,1v16c0,0.5,0.5,1,1,1h9c0.5,0,1-0.5,1-1v-16C257.5,184.5,257,184,256.5,184z"/>
<path class="st2" d="M269.5,209h-9c-0.5,0-1,0.5-1,1v16c0,0.5,0.5,1,1,1h9c0.5,0,1-0.5,1-1v-16C270.5,209.5,270,209,269.5,209z"/>
<path class="st2" d="M256.5,209h-9c-0.5,0-1,0.5-1,1v16c0,0.5,0.5,1,1,1h9c0.5,0,1-0.5,1-1v-16C257.5,209.5,257,209,256.5,209z"/>
<path class="st2" d="M269.5,184h-3h-6c-0.5,0-1,0.5-1,1v16c0,0.5,0.5,1,1,1h9c0.5,0,1-0.5,1-1v-4v-12C270.5,184.5,270,184,269.5,184
	z"/>
<path class="st2" d="M347.5,209h-9c-0.5,0-1,0.5-1,1v16c0,0.5,0.5,1,1,1h9c0.5,0,1-0.5,1-1v-16C348.5,209.5,348,209,347.5,209z"/>
<path class="st2" d="M360.5,209h-9c-0.5,0-1,0.5-1,1v16c0,0.5,0.5,1,1,1h9c0.5,0,1-0.5,1-1v-16C361.5,209.5,361,209,360.5,209z"/>
<path class="st2" d="M360.5,184h-9c-0.5,0-1,0.5-1,1v16c0,0.5,0.5,1,1,1h9c0.5,0,1-0.5,1-1v-16C361.5,184.5,361,184,360.5,184z"/>
<path class="st2" d="M347.5,184h-9c-0.5,0-1,0.5-1,1v16c0,0.5,0.5,1,1,1h9c0.5,0,1-0.5,1-1v-16C348.5,184.5,348,184,347.5,184z"/>
<circle class="st2" cx="303.5" cy="162" r="8"/>
<g>
	<path class="st2" d="M68,126h-9c-0.5,0-1,0.5-1,1v16c0,0.5,0.5,1,1,1h9c0.5,0,1-0.5,1-1v-16C69,126.5,68.5,126,68,126z"/>
	<path class="st2" d="M146,126h-9c-0.5,0-1,0.5-1,1v16c0,0.5,0.5,1,1,1h9c0.5,0,1-0.5,1-1v-16C147,126.5,146.5,126,146,126z"/>
	<path class="st2" d="M55,126h-9c-0.5,0-1,0.5-1,1v16c0,0.5,0.5,1,1,1h9c0.5,0,1-0.5,1-1v-16C56,126.5,55.5,126,55,126z"/>
	<path class="st2" d="M55,101h-9c-0.5,0-1,0.5-1,1v16c0,0.5,0.5,1,1,1h9c0.5,0,1-0.5,1-1v-16C56,101.5,55.5,101,55,101z"/>
	<path class="st2" d="M68,101h-3h-6c-0.5,0-1,0.5-1,1v16c0,0.5,0.5,1,1,1h9c0.5,0,1-0.5,1-1v-4v-12C69,101.5,68.5,101,68,101z"/>
	<path class="st2" d="M159,101h-9c-0.5,0-1,0.5-1,1v16c0,0.5,0.5,1,1,1h9c0.5,0,1-0.5,1-1v-16C160,101.5,159.5,101,159,101z"/>
	<path class="st2" d="M159,126h-9c-0.5,0-1,0.5-1,1v16c0,0.5,0.5,1,1,1h9c0.5,0,1-0.5,1-1v-16C160,126.5,159.5,126,159,126z"/>
	<path class="st2" d="M146,101h-9c-0.5,0-1,0.5-1,1v16c0,0.5,0.5,1,1,1h9c0.5,0,1-0.5,1-1v-16C147,101.5,146.5,101,146,101z"/>
	<path class="st3" d="M164,92h-33v-0.3H72V92H40c-1.1,0-2,0.9-2,2v57c0,1.1,0.9,2,2,2h34h16v-41c0-1.1,0.9-2,2-2h20c1.1,0,2,0.9,2,2
		v41h15c0.2,0,0.3,0,0.5-0.1c0.2,0,0.3,0.1,0.5,0.1h34c1.1,0,2-0.9,2-2V94C166,92.9,165.1,92,164,92z M56,143c0,0.5-0.5,1-1,1h-9
		c-0.5,0-1-0.5-1-1v-16c0-0.5,0.5-1,1-1h9c0.5,0,1,0.5,1,1V143z M56,118c0,0.5-0.5,1-1,1h-9c-0.5,0-1-0.5-1-1v-16c0-0.5,0.5-1,1-1h9
		c0.5,0,1,0.5,1,1V118z M69,143c0,0.5-0.5,1-1,1h-9c-0.5,0-1-0.5-1-1v-16c0-0.5,0.5-1,1-1h9c0.5,0,1,0.5,1,1V143z M69,114v4
		c0,0.5-0.5,1-1,1h-9c-0.5,0-1-0.5-1-1v-16c0-0.5,0.5-1,1-1h6h3c0.5,0,1,0.5,1,1V114z M147,143c0,0.5-0.5,1-1,1h-9c-0.5,0-1-0.5-1-1
		v-16c0-0.5,0.5-1,1-1h9c0.5,0,1,0.5,1,1V143z M147,118c0,0.5-0.5,1-1,1h-9c-0.5,0-1-0.5-1-1v-16c0-0.5,0.5-1,1-1h9c0.5,0,1,0.5,1,1
		V118z M160,143c0,0.5-0.5,1-1,1h-9c-0.5,0-1-0.5-1-1v-16c0-0.5,0.5-1,1-1h9c0.5,0,1,0.5,1,1V143z M160,118c0,0.5-0.5,1-1,1h-9
		c-0.5,0-1-0.5-1-1v-16c0-0.5,0.5-1,1-1h9c0.5,0,1,0.5,1,1V118z"/>
	<path class="st3" d="M131,71c0-0.4-0.1-0.7-0.3-1h0.5L105,54.7V47h17V32h-17v-1c0-1.1-0.9-2-2-2h-2c-1.1,0-2,0.9-2,2v23.7L73.7,69
		l-1.2,0.7c-0.1,0.1-0.1,0.2-0.2,0.3c-0.2,0.3-0.3,0.6-0.3,1v20.8h59V71z M102,87c-4.4,0-8-3.6-8-8s3.6-8,8-8c4.4,0,8,3.6,8,8
		S106.4,87,102,87z"/>
	<rect x="105" y="32" class="st4" width="17" height="15"/>
	<path class="st5" d="M131,69.5h0.5l-25.7-15h-7L74,68.5l-1.2,0.7c-0.1,0.1-0.1,0.2-0.2,0.3c-0.1,0.1-0.1,0.2-0.1,0.3h58.6
		C131,69.7,131,69.6,131,69.5z"/>
</g>
</svg>
