<?xml version="1.0" encoding="utf-8"?>
<!-- Generator: Adobe Illustrator 21.1.0, SVG Export Plug-In . SVG Version: 6.00 Build 0)  -->
<svg version="1.1" id="Layer_1" xmlns="http://www.w3.org/2000/svg" xmlns:xlink="http://www.w3.org/1999/xlink" x="0px" y="0px"
	 viewBox="0 0 200 200" style="enable-background:new 0 0 200 200;" xml:space="preserve">
<style type="text/css">
	.st0{fill:#0A6FB6;}
</style>
<g>
	<g>
		<path class="st0" d="M103.8,114.9c-0.6,0-1.2-0.2-1.6-0.7L85.7,97.9c-0.9-0.9-0.9-2.4,0-3.3l72.2-72.2c0.4-0.4,1-0.7,1.6-0.7l0,0
			c0.6,0,1.2,0.2,1.6,0.7l16.4,16.4c0.9,0.9,0.9,2.4,0,3.3l-72.2,72.2C105,114.7,104.4,114.9,103.8,114.9z M90.6,96.2l13.1,13.1
			l68.9-68.9l-13.1-13.1L90.6,96.2z"/>
		<path class="st0" d="M174.3,42.1l-16.4-16.4l11.5-11.5l16.4,16.4L174.3,42.1z M164.5,25.7l9.9,9.9l4.9-4.9l-9.9-9.9L164.5,25.7z"
			/>
		<path class="st0" d="M79.2,123.1c-0.6,0-1.2-0.2-1.6-0.7c-0.6-0.6-0.8-1.5-0.6-2.4l8.2-24.6c0.3-0.8,0.9-1.3,1.7-1.5
			c0.8-0.2,1.6,0,2.2,0.6l16.4,16.4c0.6,0.6,0.8,1.4,0.6,2.2c-0.2,0.8-0.8,1.4-1.5,1.7L79.9,123C79.7,123.1,79.4,123.1,79.2,123.1z
			 M88.4,100.5l-5.6,16.7l16.7-5.6L88.4,100.5z"/>
		
			<rect x="155.6" y="39.8" transform="matrix(0.7071 -0.7071 0.7071 0.7071 16.503 123.9968)" class="st0" width="4.6" height="4.6"/>
		
			<rect x="145.8" y="49.6" transform="matrix(0.7071 -0.7071 0.7071 0.7071 6.6529 119.909)" class="st0" width="4.6" height="4.6"/>
		
			<rect x="135.9" y="59.4" transform="matrix(0.7071 -0.7071 0.7071 0.7071 -3.1874 115.8417)" class="st0" width="4.6" height="4.6"/>
	</g>
	<polygon class="st0" points="134.8,174.2 25.8,174.2 25.8,65.2 116.3,65.2 116.3,69.8 30.4,69.8 30.4,169.6 130.2,169.6 
		130.2,97.6 134.8,93 	"/>
	<rect x="46.7" y="137.1" class="st0" width="67.3" height="4.6"/>
	<rect x="46.7" y="155.7" class="st0" width="67.3" height="4.6"/>
	<rect x="46.7" y="118.5" class="st0" width="20.9" height="4.6"/>
	<path class="st0" d="M141.8,181.2h-123v-123h109.1c1.3,0,2.3-1,2.3-2.3c0-1.3-1-2.3-2.3-2.3H16.5c-1.3,0-2.3,1-2.3,2.3v127.6
		c0,1.3,1,2.3,2.3,2.3h127.6c1.3,0,2.3-1,2.3-2.3V80l-4.6,4.6V181.2z"/>
	<g>
		<path class="st0" d="M53.2,78.9h5.2l8.5,22.8h-5.2L60,96.6h-8.5l-1.8,5.1h-5.1L53.2,78.9z M52.8,92.9h5.9l-2.9-8.4h-0.1L52.8,92.9
			z"/>
		<path class="st0" d="M78.4,81.9h6.4v3.4h-6.4v6.4H75v-6.4h-6.4v-3.4H75v-6.4h3.4V81.9z"/>
	</g>
</g>
</svg>
