<?xml version="1.0" encoding="utf-8"?>
<!-- Generator: Adobe Illustrator 21.1.0, SVG Export Plug-In . SVG Version: 6.00 Build 0)  -->
<svg version="1.1" id="Layer_1" xmlns="http://www.w3.org/2000/svg" xmlns:xlink="http://www.w3.org/1999/xlink" x="0px" y="0px"
	 viewBox="0 0 200 200" style="enable-background:new 0 0 200 200;" xml:space="preserve">
<style type="text/css">
	.st0{fill:#0A6FB6;}
	.st1{fill:none;}
</style>
<path class="st0" d="M106.2,9.5H72.8c-2.3,0-4.2,1.9-4.2,4.2v37.5l8.3-8.3h29.2c2.3,0,4.2-1.9,4.2-4.2v-25
	C110.3,11.4,108.5,9.5,106.2,9.5z M106.2,38.7H77l-4.2,4.2V13.7h33.3L106.2,38.7L106.2,38.7z"/>
<path class="st0" d="M95.2,109.2v25c0,2.3,1.9,4.2,4.2,4.2h29.1l8.3,8.3v-37.5c0-2.3-1.9-4.2-4.2-4.2H99.3
	C97,105,95.2,106.9,95.2,109.2z M99.3,109.2h33.3v29.2l-4.2-4.2H99.2L99.3,109.2L99.3,109.2z"/>
<g>
	<path class="st1" d="M57.1,70.1H44.7c-9.5,0-17,7.4-17,16.9v2h46.7v-2C74.3,77.7,66.6,70.1,57.1,70.1z"/>
	<path class="st1" d="M51,58.4c5.7,0,7.8-5,7.8-9.7c0-4.7-2-9.7-7.8-9.7s-7.8,5-7.8,9.7C43.2,53.4,45.3,58.4,51,58.4z"/>
	<path class="st0" d="M27.7,87c0-9.5,7.5-16.9,17-16.9h12.4c9.5,0,17.2,7.6,17.2,16.9v2h3.9v-2c0-11.5-9.5-20.8-21.1-20.8H44.7
		c-11.5,0-20.9,9.3-20.9,20.8v2h3.9V87z"/>
	<path class="st0" d="M51,62.3c7,0,11.7-5.5,11.7-13.6c0-8.1-4.7-13.6-11.7-13.6s-11.7,5.5-11.7,13.6C39.3,56.9,44,62.3,51,62.3z
		 M51,39c5.7,0,7.8,5,7.8,9.7c0,4.7-2,9.7-7.8,9.7s-7.8-5-7.8-9.7C43.2,44,45.3,39,51,39z"/>
</g>
<g>
	<path class="st1" d="M157.6,165.1h-12.4c-9.5,0-17,7.4-17,16.9v2h46.7v-2C174.8,172.7,167.1,165.1,157.6,165.1z"/>
	<path class="st1" d="M151.5,153.4c5.7,0,7.8-5,7.8-9.7c0-4.7-2-9.7-7.8-9.7s-7.8,5-7.8,9.7C143.7,148.4,145.8,153.4,151.5,153.4z"
		/>
	<path class="st0" d="M128.2,182c0-9.5,7.5-16.9,17-16.9h12.4c9.5,0,17.2,7.6,17.2,16.9v2h3.9v-2c0-11.5-9.5-20.8-21.1-20.8h-12.4
		c-11.5,0-20.9,9.3-20.9,20.8v2h3.9V182z"/>
	<path class="st0" d="M151.5,157.3c7,0,11.7-5.5,11.7-13.6c0-8.1-4.7-13.6-11.7-13.6s-11.7,5.5-11.7,13.6
		C139.8,151.9,144.5,157.3,151.5,157.3z M151.5,134c5.7,0,7.8,5,7.8,9.7c0,4.7-2,9.7-7.8,9.7s-7.8-5-7.8-9.7
		C143.7,139,145.8,134,151.5,134z"/>
</g>
</svg>
