<?xml version="1.0" encoding="utf-8"?>
<!-- Generator: Adobe Illustrator 21.1.0, SVG Export Plug-In . SVG Version: 6.00 Build 0)  -->
<svg version="1.1" id="Layer_1" xmlns="http://www.w3.org/2000/svg" xmlns:xlink="http://www.w3.org/1999/xlink" x="0px" y="0px"
	 viewBox="0 0 250 250" style="enable-background:new 0 0 250 250;" xml:space="preserve">
<style type="text/css">
	.st0{fill:#0A6FB6;}
	.st1{fill:#FFFFFF;}
</style>
<circle class="st0" cx="125" cy="125" r="116.5"/>
<path class="st1" d="M175.4,111.3c-8-4.7-14.8-8.3-21.1-12.7c-5.5-3.9-10.4-4.6-16-1c-13.8,8.8-27.9,17-44.3,19.6
	c-6.1,1-12.3,1.6-18.7,2.4c-2.3-7.5,3.8-23.4,13.8-32.1c16.6-14.4,35.7-17.2,56-9.7C160.2,83.4,170.3,94.3,175.4,111.3z"/>
<path class="st1" d="M176.9,145.1c1-7.4,2.8-14.8,2.7-22.1c0-26.6-22.7-49.8-50-51.9c-28-2.2-54,17.3-58.2,43.9
	c-5,31.8,15.1,55.7,41.5,61.8c2.3,0.5,4.9-0.5,7.2-0.3c1.8,0.2,4,0.9,5.1,2.1c0.9,1,1,3.8,0.2,4.9c-0.9,1.3-3.4,2.6-4.8,2.3
	c-16-3.4-31.2-8.4-42.1-21.7c-2.2-2.7-4.4-5.4-6.2-8.4c-3-4.9-5.5-9.7-10.1-13.8c-8.5-7.5-7.2-25.6,1.1-33.1
	c1.8-1.6,3.4-3.7,4.2-5.8c9.6-24.1,34.2-39.5,59.9-38.6c23.9,0.8,46.1,16,55.4,39.3c0.8,1.9,2.1,3.7,3.6,5.1
	c8.4,7.5,9.6,23.9,2.3,32.4C185.3,145,181.1,146.3,176.9,145.1z"/>
<path class="st1" d="M139.8,156.7c1.5,5.7-1.1,8.7-4.6,10.8c-6.4,3.8-13.1,3.4-19.4-0.4c-4-2.4-5.2-5.2-4.3-9.9
	C120.8,160.7,130.2,160.9,139.8,156.7z"/>
<ellipse class="st1" cx="107" cy="130" rx="5" ry="11"/>
<ellipse class="st1" cx="140" cy="130" rx="5" ry="11"/>
</svg>
