<?xml version="1.0" encoding="utf-8"?>
<!-- Generator: Adobe Illustrator 21.1.0, SVG Export Plug-In . SVG Version: 6.00 Build 0)  -->
<svg version="1.1" id="Layer_1" xmlns="http://www.w3.org/2000/svg" xmlns:xlink="http://www.w3.org/1999/xlink" x="0px" y="0px"
	 viewBox="0 0 250 250" style="enable-background:new 0 0 250 250;" xml:space="preserve">
<style type="text/css">
	.st0{fill:#0A6FB6;}
	.st1{fill:#FFFFFF;}
</style>
<circle class="st0" cx="125" cy="125" r="116.5"/>
<path class="st1" d="M130.9,161.7c-0.2,0.1-0.4,0.2-0.6,0.4c-0.2,0.2-0.3,0.4-0.2,0.7c0.2,0.4,0.1,0.8-0.2,1.2
	c-0.5,0.6-1.1,0.9-1.8,1.1c-1.1,0.3-2.1,0.9-3,1.6c-0.9,0.7-1.7,1.3-2.3,2.2c-0.4,0.7-0.8,1.4-1.2,2.2c-0.1,0.2,0,0.5,0.1,0.6
	c0.4,0.7,0.3,1.5,0.3,2.2c0,0.2,0.1,0.5,0.2,0.6c0.3,0.4,0.2,0.7-0.3,0.8c-0.8,0.2-1.5,0.1-2.2-0.1c-1-0.2-1.9-0.7-2.6-1.4
	c-0.8-0.7-1.2-1.6-1.4-2.7c-0.2-0.9-0.7-1.7-1-2.5c-0.3-0.7-1-1.1-1.3-1.7c-0.5-0.8-0.8-1.7-1.2-2.6c-0.1-0.2-0.2-0.3-0.4-0.4
	c-0.8-0.5-1.3-1.1-1.6-2c-0.1-0.3,0-0.6-0.1-0.9c0-0.1-0.2-0.3-0.3-0.2c-0.5,0.1-1.1,0.2-1.6,0.4c-0.5,0.1-0.8,0-1-0.4
	c-0.6,0.3-1,0.8-1.5,1.3c-0.4,0.4-0.7,0.8-1,1.3c-0.2,0.3-0.5,0.5-0.8,0.2c-0.6-0.4-1.2-0.6-1.7-1.1c-0.9-0.8-1.8-1.7-2.3-2.9
	c-0.2-0.5-0.3-1-0.4-1.5c-0.2-1-0.8-1.7-1.6-2.3c-0.8-0.5-1.6-1.1-2.1-1.9c-0.2-0.3-0.4-0.7-0.6-1c-0.3-0.5-0.8-0.7-1.3-0.7
	c-1,0-1.9,0.2-2.9,0.2c-0.5,0-1-0.1-1.5-0.2c-0.2,0-0.4-0.1-0.6-0.2c-0.3,0.6,0.1,1.1,0.2,1.6c0,0,0,0,0,0c-1.9,0-3.7-0.1-5.5-0.7
	c-1.2-0.4-2.4-1-3.6-1.5c-2.3-1-4.5-2.1-6.8-3.2c-1.3-0.7-2.6-1.5-3.9-2.3c-0.9-0.6-1.9-0.9-3-1.1c-1.2-0.2-2.3-0.3-3.5-0.4
	c-0.1,0-0.3-0.1-0.3-0.2c-0.1-1.2-0.4-2.4-0.8-3.5c-0.2-0.5-0.4-0.9-0.9-1.2c-0.3-0.1-0.6-0.2-0.9-0.3c-0.1-0.3-0.2-0.7-0.4-1
	c-0.1-0.3-0.3-0.5-0.7-0.4c-0.1,0-0.2,0-0.3-0.1c-0.5-0.5-1.1-0.8-1.4-1.5c-0.1-0.2-0.3-0.3-0.5-0.3c-0.7-0.3-1.5-0.5-2.2-0.8
	c-0.6-0.2-0.6-0.4-0.5-1c0.2-0.8,0.4-1.7,0-2.5c-0.2-0.6-0.6-1.2-0.9-1.7c-0.4-0.7-1-1.3-1.1-2.1c-0.1-0.4-0.1-0.8,0.1-1.1
	c0.4-0.6,0.3-1.2,0.1-1.7c-0.2-0.7-0.5-1.5-0.7-2.2c0.7-0.4,0.8-0.6,0.5-1.4c-0.1-0.2-0.1-0.5,0-0.6c0.2-0.1,0.5-0.1,0.7-0.1
	c0.4,0.1,0.8,0.2,1.2,0.3c-0.5-0.5-1.1-0.7-1.7-0.8c-0.5-0.1-0.8,0.1-1.1,0.5c-0.3-0.1-0.3-0.3-0.3-0.5c0.1-0.5,0.2-1,0.3-1.5
	c0-0.4-0.1-0.6-0.5-0.8c-0.4-0.2-0.7-0.6-0.7-1c0-0.7,0.1-1.3,0.1-2c0-0.7,0-1.4,0-2.1c0-0.5-0.2-1-0.3-1.4c0-0.2-0.2-0.3-0.2-0.5
	c-0.1-0.4,0.2-0.7,0.4-0.9c0.3-0.4,0.7-0.8,0.9-1.2c0.6-0.9,0.7-1.9,0.7-2.9c-0.1-1.5-0.1-3,0.5-4.4c0.2-0.5,0.4-1.1,0.9-1.4
	c0.8-0.6,1-1.6,1.2-2.5c0.1-0.4,0.1-0.7,0.3-1.1c0.1-0.3,0.4-0.5,0.5-0.8c0.5-0.7,0.6-1.5,0.8-2.2c0.1-0.4,0.3-0.8,0.5-1.2
	c0.1-0.3,0.2-0.7,0.3-1c0.6-0.2,1.3-0.1,1.9-0.6c-0.3-0.1-0.5-0.3-0.7-0.4c-0.3-0.1-0.3-0.2-0.2-0.5c0.1-0.2,0.1-0.4,0.1-0.6
	c0-0.4-0.2-0.5-0.5-0.6c-0.5,0-0.7-0.3-0.5-0.8c0.2-0.6,0.5-1.3,0.7-1.9c0.2-0.7,0.1-1.3-0.3-1.9c-0.2-0.2-0.4-0.5-0.2-0.8
	c0.2-0.3,0.5,0,0.8,0.1c0.4,0.2,0.8,0.5,1.2,0.8c0.6,0.4,1.2,0.7,1.9,0.7c0.2,0,0.5,0.1,0.7,0.3c0.6,0.4,0.6,1,0.1,1.6
	c-0.2,0.2-0.4,0.4-0.6,0.6c-0.2,0.2-0.5,0.3-0.7,0.5c0.6,0.4,1.5,0,1.6-0.7c0.1-0.6,0.3-1.1,0.8-1.5c0.2-0.1,0.2-0.5,0.2-0.7
	c0-0.5-0.1-1-0.1-1.5c0-0.7,0.3-0.9,0.9-0.7c1.9,0.5,3.8,1,5.7,1.5c2.3,0.6,4.6,1.1,6.9,1.6c1.5,0.3,2.9,0.7,4.4,0.9
	c1.7,0.3,3.3,0.6,5,0.9c1.6,0.3,3.3,0.6,4.9,0.9c1.2,0.2,2.3,0.3,3.5,0.5c1.2,0.2,2.4,0.4,3.7,0.5c0.7,0.1,1.5,0.2,2.2,0.3
	c0.8,0.1,1.5,0.2,2.3,0.3c0.8,0.1,1.7,0.2,2.5,0.2c1,0.1,1.9,0.2,2.9,0.3c0.7,0.1,1.4,0.1,2,0.2c1.3,0.1,2.5,0.2,3.8,0.3
	c0.4,0,0.8,0.1,1.2,0.1c0.6,0,1.3,0.1,1.9,0.1c1.2,0.1,2.5,0.1,3.7,0.2c0.6,0,1.2,0.1,1.7,0.1c1.1,0,2.2,0.1,3.2,0.1c1,0,2,0,3,0.1
	c0.5,0,0.9-0.2,1.2-0.5c0.2-0.2,0.5-0.4,0.8-0.6c0,0.4,0,0.7,0,0.9c0,0.2,0,0.3,0.3,0.4c1.1,0.4,2.2,0.7,3.4,0.8
	c0.3,0,0.7-0.2,1-0.2c0.7-0.1,1.2,0.3,1.7,0.7c0.6,0.4,1.1,1,1.8,1c0.3,0,0.6,0,0.8-0.1c0.5-0.3,0.9-0.3,1.4-0.1
	c0.6,0.2,1.2,0.4,1.7,0.6c-0.7,0.3-1.4,0.6-2.1,1.1c-0.7,0.4-1.3,1-1.9,1.5c-0.6,0.5-1.2,1-1.6,1.8c0.7,0.3,1.3,0,2-0.1
	c0.2,0,0.4-0.1,0.5-0.1c0.2,0,0.4,0.1,0.5,0.2c0.4,0.6,1,0.6,1.5,0.5c0.5-0.1,1.1-0.4,1.6-0.6c1.1-0.4,2.1-0.9,3.2-1.3
	c0.1,0.3,0.1,0.5,0.2,0.6c0.1,0.1,0.4,0.1,0.6,0.1c0.6,0,1.1,0.1,1.6,0.4c0.9,0.6,1.9,0.7,3,0.3c0.7-0.3,1.4-0.6,2.1-0.9
	c0.2-0.1,0.5-0.1,0.7-0.1c0.5,0,0.6,0.1,0.7,0.6c0.5,0.1,0.9,0.1,1.4,0.2c0.1,0,0.2,0.1,0.4,0.1c0.4,0.2,0.4,0.5,0,0.6
	c-0.7,0.3-1.4,0.6-2.1,0.8c-1.3,0.3-2.5,0.5-3.8,0.7c-0.3,0.1-0.6,0.2-0.8,0.3c-0.4,0.1-0.5,0.5-0.6,0.8c-0.2,0.8-0.4,1.6-0.9,2.3
	c-0.3,0.4-0.3,1-0.1,1.5c0.1,0.1,0.3,0.3,0.4,0.3c0.6,0.1,0.8,0.4,0.6,1c-0.1,0.2-0.1,0.4-0.2,0.6c-0.6,0.6-0.5,1.4-0.6,2.1
	c-0.1,0.9-0.1,1.8,0,2.7c0.1,0.9,0.3,1.9,0.5,2.8c0.2,1,1,1.3,1.9,1.5c0.8,0.2,1-0.1,1.4-0.9c0.6-1,1-2.2,1.2-3.4
	c0.1-0.7-0.2-1.4-0.5-2.1c-0.2-0.6-0.5-1.1-0.6-1.7c-0.1-0.3,0-0.7,0.1-1.1c0.1-0.5,0.3-1,0.1-1.5c-0.2-0.4,0-0.9,0.4-1.1
	c0.1-0.1,0.3-0.1,0.5,0c0.8,0.2,1.2,0,1.3-0.8c0.1-0.5,0.1-1.1,0.2-1.6c0-0.7,0.3-1,1-0.8c0.5,0.2,1.1,0.5,1.6,0.7
	c0.2,0.1,0.4,0.2,0.6,0.2c0.8,0.1,1.1,0.3,1.4,1.1c0.4,1.1,0.2,2.2-0.2,3.2c-0.3,0.6-0.3,1.1,0,1.7c0.2,0.4,0.5,0.5,0.8,0.1
	c0.2-0.2,0.4-0.5,0.5-0.8c0.5-0.7,1.1-0.7,1.5,0c0.5,0.8,0.8,1.6,1,2.5c0.1,0.2,0.1,0.4,0.2,0.6c0.1,0.6-0.2,1-0.6,1.4
	c-0.6,0.5-1.2,1-1.5,1.8c-0.2,0.8-0.1,1.3,0.7,1.6c0.9,0.4,1.8,0.4,2.7,0.3c1.3-0.2,2.5-0.6,3.6-1.4c0.9-0.6,1.7-1.4,2.4-2.2
	c0.7-0.9,1.6-1.7,2.4-2.5c0.2-0.2,0.2-0.4,0-0.5c-0.1-0.1-0.1-0.2-0.2-0.2c-0.5-0.5-0.3-1.2,0.4-1.4c0.8-0.2,1.5-0.3,2.3-0.5
	c0.1,0,0.3,0,0.4,0.1c0.3,0.3,0.6,0.2,0.9,0.2c0.4,0,0.8-0.1,1.2-0.2c0.6-0.2,0.9-0.6,1-1.2c0.1-0.9,0.3-1.8,0.5-2.7
	c0.2-1,0.6-1.9,1.3-2.7c0.7-0.8,1.6-1.1,2.5-1.3c0.8-0.1,1.6-0.2,2.4-0.3c0.9-0.1,1.8-0.1,2.7-0.3c0.8-0.1,1.4-0.6,1.9-1.2
	c0.5-0.6,1-1.2,1.4-1.8c0.6-1,1-2.1,1-3.2c0.1-1.1,0.1-2.3,0.5-3.3c0.4-0.9,1-1.4,1.9-1.5c0.7-0.1,1.4,0.4,1.7,1.2c0.4,1,0.7,2,1,3
	c0.1,0.4,0.4,0.7,0.6,1c0.1,0.1,0.3,0.1,0.4,0.2c0.4,0.1,0.8,0.3,0.9,0.8c0,0.1,0.2,0.2,0.3,0.2c0.2,0.2,0.6,0.4,0.6,0.6
	c0,0.2-0.2,0.6-0.4,0.8c-0.8,0.6-1.6,1.2-2.4,1.8c-0.1,0.1-0.2,0.2-0.4,0.2c-0.5,0-0.6,0.3-0.6,0.7c-0.1,0.7-0.7,1-1.2,1.5
	c-0.5,0.4-1,0.8-1.2,1.5c-0.2,0.8-0.3,1.7-0.5,2.5c-0.2,0.8-0.5,1.5-0.7,2.3c0,0.1,0,0.3,0.1,0.4c0.4,0.4,0.9,0.7,1.3,1.1
	c0.3,0.2,0.5,0.6,0.5,1c-0.1,0.5-0.2,1.1-0.4,1.6c-0.1,0.2-0.3,0.3-0.5,0.4c-1,0.3-2.1,0.6-3.1,1c-0.9,0.3-1.7,0.8-2.5,1.2
	c-0.1,0-0.1,0.1-0.2,0.2c0,0,0,0.1,0,0.1c0.7-0.1,1.4-0.2,2.1-0.3c0.2,0,0.3,0,0.5,0c-0.1,0.2-0.1,0.4-0.2,0.5
	c-0.7,0.4-1.3,0.9-2,1.2c-0.7,0.3-1.4,0.6-2.2,0.8c0.1,0.3,0.2,0.7,0.2,1.1c0.1,1,0.3,1.9,0,2.9c-0.2,1-1.1,1.5-2,1.6
	c-0.1,0-0.3,0-0.4,0c0.1,0.6,0.5,1,0.9,1.4c0.3,0.3,0.6,0.6,0.9,0.9c0,0,0,0.1,0,0.2c-0.1,0.6-0.2,1.1-0.4,1.7
	c0,0.1-0.1,0.2-0.1,0.3c-0.2,0.7-0.6,0.8-1.2,0.5c-0.8-0.5-1.6-1.1-1.9-2.1c-0.2-0.6-0.2-1.2-0.3-1.8c0-0.1-0.1-0.2-0.2-0.4
	c-0.1,0.6-0.3,1.1-0.4,1.7c-0.1,0.6,0.1,1.2,0.7,1.5c-0.4,0.4-0.8,0.2-1.2,0.2c1.5,1.3,1.9,2.4,1.4,3.9c0.5,0.4,1,0.7,1.5,1.1
	c0.8,0.5,0.8,1.1,0.3,1.9c-0.3,0.5-0.8,1-1.3,1.2c-0.2,0.1-0.4,0.6-0.2,0.8c0.1,0.1,0.3,0.1,0.4,0.1c0.3-0.1,0.5-0.2,0.8-0.2
	c0.1,0,0.3-0.1,0.4,0c0.3,0.2,0.5,0.5,0.8,0.8c0,0-0.2,0.3-0.3,0.4c-0.5,0.1-1,0.2-1.4,0.3c-0.3,0.1-0.5,0.2-0.8,0.4
	c0.3,0.3,0.6,0.6,0.8,0.9c0.4,0.5,0.4,1.1-0.3,1.6c-0.4,0.3-0.9,0.6-1.3,0.9c-0.4,0.4-0.8,0.8-1.2,1.2c-0.7,0.9-1.5,1.6-2.5,2.2
	c-0.2,0.1-0.3,0.2-0.5,0.4c0.4,0.5,0.1,0.9-0.1,1.3c-0.1,0.3-0.2,0.7-0.4,1c-0.2,0.4-0.5,0.7-0.8,1c-0.5,0.5-1.1,0.9-1.7,1.3
	c-0.4,0.2-0.8,0.3-1.2,0.6c-0.4,0.3-0.7,0.7-1,1.1c-0.3,0.4-0.2,0.8-0.2,1.2c0.1,0.6,0,1.2-0.3,1.8c-0.3,0.6-0.4,1.3-0.2,2
	c0.4,1.4,0.7,2.7,1.1,4.1c0.3,1.2,1.1,2.3,1.7,3.4c0.5,0.8,0.9,1.8,1.3,2.6c0.3,0.6,0.7,1.3,1.1,1.9c0.7,1,1.2,2,1.5,3.2
	c0.2,0.8,0.5,1.7,0.5,2.6c0,0.9-0.4,1.7-1,2.4c-0.2,0.2-0.5,0.3-0.8,0.2c-0.8-0.3-1.4-0.8-1.7-1.6c-0.1-0.2-0.2-0.5-0.3-0.6
	c-0.4,0-0.7,0.1-1,0.1c-0.3,0-0.4-0.1-0.5-0.4c-0.3-0.7-0.7-1.3-1-2c-0.1-0.2-0.1-0.4-0.3-0.5c-0.2-0.2-0.4-0.4-0.6-0.4
	c-1.1,0-1.4-1.1-1.3-1.8c0-0.2,0.1-0.4,0.2-0.6c-0.5-0.5-0.9-1.2-0.9-1.9c0-0.4,0-0.8,0-1.2c0-0.4-0.2-0.7-0.5-1
	c-0.1-0.1-0.2-0.1-0.3-0.2c-0.3-0.2-0.4-0.4-0.1-0.7c0-0.1,0.1-0.1,0.1-0.3c-0.6-0.2-1.2-0.5-1.8-0.6c-0.5-0.1-0.8-0.4-1.1-0.7
	c-0.5-0.5-1.1-1-1.9-1.2c-0.7-0.2-1.2,0-1.6,0.4c-0.5,0.4-0.9,0.9-1.4,1.3c-0.3,0.3-0.4,0.1-0.6-0.2c-0.2-0.4-0.6-0.7-0.8-1
	c-0.5-0.8-1.3-0.7-2-0.8c-0.4-0.1-0.9-0.2-1.3-0.2c-0.9,0-1.9,0-2.8,0.3c-0.6,0.1-1,0.2-1.4-0.1c-0.1-0.1-0.3-0.2-0.4-0.3
	c-0.2-0.3-0.5-0.3-0.8-0.2c-0.5,0.2-1.1,0.5-1.6,0.7c-0.8,0.3-1.6,0.5-2.4,0.7c-0.7,0.2-1.4,0.2-2.1,0.3c-0.2,0-0.4,0.1-0.6,0.3
	c-0.3,0.2-0.2,0.5,0.1,0.7c0.4,0.2,0.8,0.3,1.1,0.5c0.2,0.1,0.4,0.4,0.4,0.6c0,0.1-0.2,0.3-0.4,0.5c0,0-0.1,0-0.2,0.1
	c-0.6,0.2-0.6,0.2-0.5,0.8c0,0.1-0.1,0.2-0.1,0.2c-1.1,0.1-2.3,0.2-3.4-0.1c-0.4-0.1-0.7-0.4-0.9-0.8c-0.2-0.6-0.5-0.7-1.1-0.5
	c-0.7,0.2-1.3,0.6-2,0.5c-1.1-0.1-2.2-0.3-3.3-0.5c-1-0.2-0.7-0.3-1.3,0.5c-0.6,0.7-0.8,0.8-1.7,0.4
	C131.4,162,131.2,161.9,130.9,161.7z"/>
</svg>
