<?xml version="1.0" encoding="utf-8"?>
<!-- Generator: Adobe Illustrator 21.1.0, SVG Export Plug-In . SVG Version: 6.00 Build 0)  -->
<svg version="1.1" id="Layer_1" xmlns="http://www.w3.org/2000/svg" xmlns:xlink="http://www.w3.org/1999/xlink" x="0px" y="0px"
	 viewBox="0 0 200 200" style="enable-background:new 0 0 200 200;" xml:space="preserve">
<style type="text/css">
	.st0{fill:#0A6FB6;}
</style>
<g>
	<g>
		<g>
			<polygon class="st0" points="115.8,83 112.7,81.4 112.7,70.4 115.8,68.8 			"/>
			<polygon class="st0" points="85.8,120.9 11.7,120.9 11.7,68.8 14.8,70.4 14.8,117.7 85.8,117.7 			"/>
			<path class="st0" d="M79.5,35.6H48c-0.9,0-1.6-0.7-1.6-1.6V18.3c0-0.9,0.7-1.6,1.6-1.6h31.6c0.9,0,1.6,0.7,1.6,1.6v15.8
				C81.1,34.9,80.4,35.6,79.5,35.6z M49.5,32.5H78V19.9H49.5V32.5z"/>
			<polygon class="st0" points="54.2,74.8 5.4,65.3 5.4,32.5 122.1,32.5 122.1,65.3 73.3,74.8 72.7,71.7 119,62.7 119,35.6 
				8.5,35.6 8.5,62.7 54.8,71.7 			"/>
			<path class="st0" d="M63.7,86.1c-6.1,0-11-5-11-11c0-6.1,5-11,11-11c6.1,0,11,5,11,11C74.8,81.2,69.8,86.1,63.7,86.1z M63.7,67.2
				c-4.4,0-7.9,3.5-7.9,7.9c0,4.4,3.5,7.9,7.9,7.9c4.4,0,7.9-3.5,7.9-7.9C71.6,70.7,68.1,67.2,63.7,67.2z"/>
			<path class="st0" d="M63.7,79.6c-2.6,0-4.7-2.1-4.7-4.7c0-0.9,0.7-1.6,1.6-1.6c0.9,0,1.6,0.7,1.6,1.6c0,0.9,0.7,1.6,1.6,1.6
				c0.9,0,1.6-0.7,1.6-1.6c0-0.9,0.7-1.6,1.6-1.6c0.9,0,1.6,0.7,1.6,1.6C68.5,77.5,66.4,79.6,63.7,79.6z"/>
			<g>
				<rect x="62.2" y="109.8" class="st0" width="3.2" height="3.2"/>
				<rect x="71.6" y="109.8" class="st0" width="3.2" height="3.2"/>
			</g>
			<g>
				<rect x="43.2" y="109.8" class="st0" width="3.2" height="3.2"/>
				<rect x="52.7" y="109.8" class="st0" width="3.2" height="3.2"/>
			</g>
			<rect x="54.3" y="40.4" class="st0" width="18.9" height="3.2"/>
		</g>
		<g>
			<path class="st0" d="M103.3,119.3c-1.3,0-2.6-0.5-3.5-1.4c-0.8,0.6-1.8,0.9-2.9,0.9c-1.9,0-3.6-1.1-4.4-2.7
				c-0.5,0.2-1,0.3-1.6,0.3c-2.6,0-4.7-2-4.9-4.6c-2.3-0.4-4.1-2.4-4.1-4.9c0-0.7,0.2-1.4,0.4-2c-1.3-0.9-2.1-2.4-2.1-4
				c0-1.3,0.5-2.5,1.3-3.4c-0.6-0.8-0.9-1.8-0.9-2.9c0-2.1,1.3-3.9,3.1-4.6c-0.1-0.3-0.1-0.6-0.1-0.9c0-2.8,2.5-5.1,5.3-4.9
				c0.6-2,2.5-3.4,4.7-3.4c0.7,0,1.4,0.1,2,0.4c0.9-1.4,2.4-2.3,4.1-2.3c1.4,0,2.7,0.6,3.6,1.5c0.8-0.5,1.7-0.8,2.7-0.8
				c2.3,0,4.3,1.6,4.8,3.7c2.8-0.2,5.3,2.1,5.3,4.9c0,0.3,0,0.7-0.1,1c1.9,0.7,3.3,2.5,3.3,4.7c0,0.9-0.3,1.8-0.7,2.6
				c1.1,0.9,1.9,2.3,1.9,3.8c0,1.9-1,3.5-2.5,4.3c0.2,0.6,0.3,1.2,0.3,1.8c0,2.5-1.8,4.5-4.2,4.9c0,0,0,0.1,0,0.1
				c0,2.7-2.2,4.9-4.9,4.9c-0.5,0-0.9-0.1-1.4-0.2C107.1,118.1,105.4,119.3,103.3,119.3z M100.1,113.6c0,0,0.1,0,0.1,0
				c0.7,0.1,1.2,0.5,1.4,1.2c0.2,0.8,0.9,1.3,1.7,1.3c1,0,1.8-0.8,1.8-1.8c0-0.1,0-0.2,0-0.4c-0.1-0.7,0.2-1.4,0.9-1.7
				c0.7-0.3,1.4-0.1,1.9,0.4c0.3,0.4,0.8,0.7,1.4,0.7c1,0,1.8-0.8,1.8-1.8c0-0.4-0.1-0.7-0.3-1c-0.3-0.5-0.4-1.1-0.1-1.6
				c0.2-0.4,0.6-0.7,1-0.8c0.4-0.1,0.7,0,1.1,0.1c0.2,0.1,0.5,0.2,0.8,0.2c1,0,1.8-0.8,1.8-1.8c0-0.6-0.3-1.1-0.8-1.5
				c-0.6-0.4-0.8-1.2-0.6-1.8c0.2-0.7,0.9-1.1,1.6-1l0.2,0c1,0,1.8-0.8,1.8-1.8c0-0.9-0.7-1.7-1.6-1.8c-0.8-0.1-1.5-0.8-1.5-1.6
				c0-0.6,0.4-1.2,0.9-1.4c0.6-0.3,1-0.9,1-1.6c0-1-0.8-1.8-1.8-1.8c-0.1,0-0.3,0-0.5,0.1c-0.6,0.2-1.3-0.1-1.7-0.6
				c0-0.1-0.1-0.1-0.1-0.2c-0.3-0.6-0.2-1.4,0.3-1.8c0.4-0.3,0.6-0.8,0.6-1.3c0-1-0.8-1.8-1.8-1.8c-0.4,0-0.7,0.1-1,0.3
				c-0.6,0.4-1.3,0.4-1.8,0c-0.5-0.4-0.8-1.1-0.6-1.7c0.1-0.2,0.1-0.3,0.1-0.5c0-1-0.8-1.8-1.8-1.8c-0.7,0-1.3,0.4-1.6,1
				c-0.3,0.6-0.9,0.9-1.6,0.8c-0.7-0.1-1.2-0.6-1.3-1.2c-0.2-0.8-0.9-1.4-1.7-1.4c-1,0-1.8,0.8-1.8,1.7c0,0.7-0.5,1.3-1.1,1.5
				c-0.7,0.2-1.4,0-1.8-0.6c-0.3-0.5-0.9-0.8-1.5-0.8c-1,0-1.8,0.8-1.8,1.8c0,0.1,0,0.2,0,0.3c0.1,0.6-0.2,1.2-0.7,1.6
				c-0.5,0.3-1.2,0.4-1.7,0c-0.3-0.2-0.6-0.3-0.9-0.3c-1,0-1.8,0.8-1.8,1.8c0,0.5,0.2,0.9,0.4,1.1c0.4,0.5,0.5,1.2,0.2,1.8
				c-0.3,0.6-1,0.9-1.6,0.8c-1-0.2-2,0.7-2,1.8c0,0.7,0.4,1.3,1,1.6c0.6,0.3,0.9,0.9,0.9,1.5c0,0.6-0.5,1.2-1.1,1.4
				c-0.7,0.2-1.2,0.9-1.2,1.7c0,0.9,0.7,1.7,1.6,1.8c0.7,0.1,1.2,0.5,1.4,1.2c0.2,0.6-0.1,1.3-0.6,1.7c-0.5,0.3-0.7,0.9-0.7,1.4
				c0,1.1,1.1,2.1,2.3,1.7c0.6-0.2,1.2,0,1.6,0.5c0.4,0.4,0.5,1.1,0.3,1.6c-0.1,0.2-0.1,0.4-0.1,0.7c0,1,0.8,1.8,1.8,1.8
				c0.5,0,1.1-0.2,1.4-0.7c0.4-0.5,1.2-0.7,1.8-0.5c0.6,0.3,1,0.9,1,1.6c0,0.1,0,0.1,0,0.2c0,1,0.8,1.8,1.8,1.8
				c0.7,0,1.3-0.4,1.6-1.1C98.9,114,99.5,113.6,100.1,113.6z M113.6,90.8L113.6,90.8L113.6,90.8z"/>
			<path class="st0" d="M100.5,110.1c-6.1,0-11-4.9-11-11c0-6.1,4.9-11,11-11s11,4.9,11,11C111.5,105.2,106.5,110.1,100.5,110.1z
				 M100.5,91.3c-4.3,0-7.8,3.5-7.8,7.8c0,4.3,3.5,7.8,7.8,7.8s7.8-3.5,7.8-7.8C108.3,94.8,104.8,91.3,100.5,91.3z"/>
		</g>
		<path class="st0" d="M110.6,133.5c-0.3,0-0.6-0.1-0.9-0.3l-8.6-5.7l-8.6,5.7c-0.5,0.3-1.1,0.4-1.6,0.1c-0.5-0.3-0.8-0.8-0.8-1.4
			v-17c0-0.9,0.7-1.6,1.6-1.6c0.9,0,1.6,0.7,1.6,1.6v14.1l7-4.7c0.5-0.4,1.2-0.4,1.8,0l7,4.7v-14.1c0-0.9,0.7-1.6,1.6-1.6
			c0.9,0,1.6,0.7,1.6,1.6v17c0,0.6-0.3,1.1-0.8,1.4C111.1,133.4,110.8,133.5,110.6,133.5z"/>
	</g>
	<g>
		<g>
			<polygon class="st0" points="129.7,183.3 125.5,183.3 125.5,166.5 121.3,166.5 121.3,162.4 129.7,162.4 			"/>
			<polygon class="st0" points="180,183.3 175.8,183.3 175.8,162.4 184.2,162.4 184.2,166.5 180,166.5 			"/>
			<path class="st0" d="M194.6,183.3h-4.2v-25.1c0-14.4-10.1-29.3-27.1-29.3h-21.2c-17,0-27.1,14.9-27.1,29.3v25.1h-4.2v-25.1
				c0-18.8,13.7-33.5,31.3-33.5h21.2c17.5,0,31.3,14.7,31.3,33.5V183.3z"/>
			<path class="st0" d="M152.8,120.5c-10.9,0-18.9-8.8-18.9-20.9c0-4.3,1-8.3,2.9-11.7l3.6,2.1c-1.5,2.7-2.4,6.1-2.4,9.6
				c0,9.9,6,16.8,14.7,16.8c8.6,0,14.7-6.9,14.7-16.8c0-3.8-0.9-7.2-2.6-10l3.6-2.2c2.1,3.5,3.2,7.7,3.2,12.2
				C171.6,111.7,163.7,120.5,152.8,120.5z"/>
		</g>
		<path class="st0" d="M152.7,86.3c-0.2,0-0.4,0-0.6-0.1l-27.2-8.4c-0.9-0.3-1.5-1.1-1.5-2c0-0.9,0.6-1.7,1.5-2l27.2-8.4
			c0.4-0.1,0.8-0.1,1.2,0l27.2,8.4c0.9,0.3,1.5,1.1,1.5,2c0,0.9-0.6,1.7-1.5,2l-27.2,8.4C153.1,86.2,152.9,86.3,152.7,86.3z
			 M132.6,75.8l20.1,6.2l20.1-6.2l-20.1-6.2L132.6,75.8z"/>
		<path class="st0" d="M152.7,94.6c-11.1,0-15.9-4.6-16.1-4.8l-0.6-0.6V80h4.2v7.4c1.4,1,5.4,3.1,12.6,3.1c7.2,0,11.1-2.1,12.6-3.1
			V80h4.2v9.2l-0.6,0.6C168.6,90,163.9,94.6,152.7,94.6z"/>
		<path class="st0" d="M175.7,92.5c-1.2,0-2.1-0.9-2.1-2.1V77.9c0-1.2,0.9-2.1,2.1-2.1c1.2,0,2.1,0.9,2.1,2.1v12.6
			C177.8,91.6,176.9,92.5,175.7,92.5z"/>
		<path class="st0" d="M158,139.3h-8.4c-1,0-1.9-0.7-2.1-1.7l-2.1-10.5c-0.1-0.6,0-1.3,0.4-1.7c0.4-0.5,1-0.8,1.6-0.8h12.6
			c0.6,0,1.2,0.3,1.6,0.8c0.4,0.5,0.6,1.1,0.4,1.7l-2.1,10.5C159.8,138.6,159,139.3,158,139.3z M151.3,135.1h4.9l1.3-6.3h-7.5
			L151.3,135.1z"/>
		<path class="st0" d="M158,162.4c-1.2,0-2.1-0.9-2.1-2.1v-23c0-1.2,0.9-2.1,2.1-2.1c1.2,0,2.1,0.9,2.1,2.1v23
			C160.1,161.4,159.1,162.4,158,162.4z"/>
		<path class="st0" d="M149.6,162.4c-1.2,0-2.1-0.9-2.1-2.1v-23c0-1.2,0.9-2.1,2.1-2.1c1.2,0,2.1,0.9,2.1,2.1v23
			C151.7,161.4,150.8,162.4,149.6,162.4z"/>
		<path class="st0" d="M150.7,164.5c-0.8,0-1.5-0.4-1.9-1.2l-13.6-27.2c-0.3-0.6-0.3-1.4,0.1-2l5.1-8.4c0.6-1,1.9-1.3,2.9-0.7
			c1,0.6,1.3,1.9,0.7,2.9l-4.5,7.4l12.5,25l3.7,0l12.6-25.1l-3.5-6.9c-0.5-1-0.1-2.3,0.9-2.8c1-0.5,2.3-0.1,2.8,0.9l3.9,7.9
			c0.3,0.6,0.3,1.3,0,1.9l-13.6,27.2c-0.4,0.7-1.1,1.2-1.9,1.2L150.7,164.5L150.7,164.5z"/>
	</g>
</g>
</svg>
