<svg xmlns="http://www.w3.org/2000/svg" fill="none" viewBox="0 0 553 577">
  <path fill="#000" fill-rule="evenodd" d="M308.2 7a86.1 86.1 0 0 1 31.2 11c3.4 2.3 9 7 15.1 13a98 98 0 0 0 10.4 9.4l4.1-1.1 7.6-2.4a87.1 87.1 0 0 1 32.5-6c5 0 11.8.6 15.5 1.3a93.8 93.8 0 0 1 24.8 8.7 70.2 70.2 0 0 1 17 14c2.1 2.3 4.7 6.2 5.9 8.6 1.1 2.3 2.7 6.8 3.5 9.9a60 60 0 0 1 1.4 16.4c0 9.3.2 10.9 1.3 11.8a70 70 0 0 0 12.6 4.8c6.2 2 14.2 5 17.6 6.5 3.4 1.4 8 3.7 10.2 5a54.2 54.2 0 0 1 22.6 25.1 59.6 59.6 0 0 1 5.3 22.4 51.8 51.8 0 0 1-5.6 22.3 142 142 0 0 1-8.5 14.5 34.4 34.4 0 0 0-5.4 10A79.5 79.5 0 0 1 531 235c.3 8.1.1 11.2-.8 14.9a52 52 0 0 1-3 8.4 42.5 42.5 0 0 1-13.7 15 27.2 27.2 0 0 1-3.7 2.1 56 56 0 0 1-.8-9.4 218 218 0 0 0-4.5-33.5 69 69 0 0 0-1.8-6.1c-.5-1.5-.3-2.7 1.5-6.4a19 19 0 0 0 2.1-7.9c0-2-.4-3.7-1-4.4-.7-.7-1.6-1.2-2.1-1.2s-1.3.4-1.7 1c-.4.4-1 2.1-1.2 3.7a36.1 36.1 0 0 1-9.6 16.8 39.4 39.4 0 0 1-9 6.9 51.2 51.2 0 0 1-9.3 3.3 58.7 58.7 0 0 1-21.8 0 56.8 56.8 0 0 1-20.7-9.6c-1.6-.8-2.8-1.5-3.1-1.5-.5 0-3.5 2.7-6.8 6-5 5.1-6.8 6.5-13.2 9.6-4 2-9.4 4.1-11.9 4.8-3.5.8-6.7 1-13.1.7-6.8-.2-9.7-.7-13.7-2.1a66.5 66.5 0 0 1-29.5-20.9 12.4 12.4 0 0 0-2.7-2.4c-.7-.3-1.8 0-2.6.4-.7.6-3.2 4.1-5.5 8-2.5 4-6.2 9-8.9 11.6a37.1 37.1 0 0 1-9.8 7.2 55.8 55.8 0 0 1-10.5 3.8 43.6 43.6 0 0 1-25.1-2.1l-10.2-3.5c-2.2-.6-3-.6-4.5.3-1.3.7-2.7 3-4.5 7.2a66.1 66.1 0 0 1-14.1 22c-4.2 4.1-6.7 6-11.5 8.2a76.5 76.5 0 0 1-13.8 4.8c-4.3 1-8.5 2.1-9.4 2.5-1 .4-2 1.4-2.3 2.3-.4 1-.1 2.7.9 5.1l3.4 9.7c1.1 3.4 2.2 8.7 2.5 11.7a40.2 40.2 0 0 1-4.5 22.2A34.6 34.6 0 0 1 190 360a39 39 0 0 0-6.4 3.7 5 5 0 0 0-1.6 3.1c0 1 .7 3.2 1.7 5a50.7 50.7 0 0 1 3 33.7 39.1 39.1 0 0 1-20.4 23.6 63 63 0 0 1-11.9 3.2l-8 1.4-5.3 5c-3 2.7-7.2 5.9-9.6 7a43.3 43.3 0 0 1-22.6 4.1 53.2 53.2 0 0 1-30.3-10.7A69.4 69.4 0 0 1 63 422.5a55.4 55.4 0 0 1-4-8.4c-1-2.5-1.7-6.8-1.9-10.8a96 96 0 0 1 .5-14c.9-7 .9-7.5-.4-8.9a21 21 0 0 0-4.9-3.3A62.8 62.8 0 0 1 34.6 363a69 69 0 0 1-11-20 113 113 0 0 1-2.2-11.5c-.5-5-.6-8.4 0-13a81.9 81.9 0 0 1 5.9-20.6 63.4 63.4 0 0 1 4.3-7.1c.8-1.5 1.4-3 1.4-3.7 0-1.2-1.8-3.5-5.7-7.5-3-3.2-7-7.6-8.5-9.8a76.5 76.5 0 0 1-10-19.8c-.9-3.5-1.2-7-1.1-13.5 0-7.4.4-10 2-15.3 1-3.5 3.1-9 4.7-12.2A67.3 67.3 0 0 1 30 188a79 79 0 0 1 9.5-6.5c1.8-1 3.5-2.2 4.6-3 .6-.5 1-1 1-1.2.2-.6 0-2.5-.3-4.2-.4-1.7-.7-7-.7-11.6a74.9 74.9 0 0 1 4.8-27.1c1.3-3.2 3.8-8 5.7-10.7 2-2.7 5.2-6.4 7.2-8.3a63 63 0 0 1 20.5-11.8c3.8-1.6 11.9-4 17.9-5.6 9.7-2.5 11.1-3 12.7-5 1-1.1 3-4.8 4.2-8 1.3-3.3 4-9 5.8-12.6 1.8-3.8 5-9 6.9-11.8 2-2.7 5-6.6 6.8-8.6a75.7 75.7 0 0 1 32.1-20 111 111 0 0 1 13.5-3.4A61 61 0 0 1 196 28a75.2 75.2 0 0 1 23.5 5.1 43 43 0 0 0 7.6 2.4 14.8 14.8 0 0 0 6.6-2.4c2.6-1.6 6.8-4.2 11-7a154 154 0 0 1 17-10.2c3.5-1.6 8.3-3.6 10.8-4.5a109.3 109.3 0 0 1 27.1-4.9c1.8 0 5.6.3 8.5.7Zm41.6 237.5a78.7 78.7 0 0 0 20.1 9 62 62 0 0 0 25.9.4c2.6-.7 6.7-2 9.2-3a52.6 52.6 0 0 0 18.2-12l3.8-4 3 2a55 55 0 0 0 5.8 3.6c1.7.8 5.8 2.4 9.3 3.4 5.3 1.7 7.6 2 15.5 2 7.6 0 10.2-.2 14.8-1.6a46.3 46.3 0 0 0 17-8.8l3.3-2.8.6 1.7a219.3 219.3 0 0 1 4.4 22.6c.5 3.7 1 12.3 1 19.1 0 6.9-.5 16.6-1 21.7-.5 5-1.1 9.6-1.4 10-.3.7-3 0-9.6-2.1-5.1-1.7-11.3-4-13.9-5.2-2.5-1.2-5.6-3-6.8-3.9-1.3-1-3.6-3.4-5.2-5.5-2.5-3-3.3-3.7-4.9-3.5a4 4 0 0 0-2.9 2c-.9 1.7-.9 2.3 0 4.2a43.6 43.6 0 0 0 9 10.2c1.5 1 1.5 1 .4 5.2a47.3 47.3 0 0 0 0 19.7c.7 2.3 2.2 6.2 3.4 8.6a42 42 0 0 0 7.2 9.3c3.1 3.2 6.7 6 9.5 7.3a38.7 38.7 0 0 0 16.6 4.4h4l5.3 14a215 215 0 0 1 13.3 46.7 97.7 97.7 0 0 1-3.2 39.3c-1 3.7-3 9.7-4.3 13.2a144.7 144.7 0 0 1-12.6 23.8c-2 3-6.8 8.6-10.7 12.7a212.8 212.8 0 0 1-25.4 21.8 122.6 122.6 0 0 1-56.7 21.3 227.7 227.7 0 0 1-44.4.3 138.4 138.4 0 0 1-26.8-5.8 103.4 103.4 0 0 1-26.1-13.5 84 84 0 0 1-17.3-18 53.4 53.4 0 0 1-7.5-18.4 38 38 0 0 1-.4-9.5c.3-2.6 2.3-11.6 4.5-20l4-15.3v-11.3c0-9-.2-12.4-1.2-16a73 73 0 0 0-4-9.9c-1.8-3.7-4-6.8-7.5-10.4a28.6 28.6 0 0 0-9-6.7c-3.6-1.5-4.1-2-4.1-3.7a22.7 22.7 0 0 1 4-12.4c1.2-1.9 2.3-3.8 2.3-4.3 0-.7.7-.8 2.7-.4 1.5.3 6.3.6 10.8.5 6.5 0 9-.4 12.3-1.6a41.6 41.6 0 0 0 17.3-12.1c1.7-2.2 4.1-6 5.3-8.3 1.2-2.5 2.6-6.9 3.2-10.6 1-5.6 1-7 0-12.7-.8-4.6-1.9-8-4-12l-2.8-5.7 1.8-2a28.7 28.7 0 0 0 4.8-9.4 4 4 0 0 0-.6-3.7c-.9-1.4-1.7-1.7-3.4-1.5-2 .1-2.5.7-4.6 4.7a35.3 35.3 0 0 1-4.6 7 82 82 0 0 1-9.8 7.4c-4.3 3-18.5 10.5-34.4 18.4a262.2 262.2 0 0 0-28.4 15.3c-1 1.3-1.2 2-.6 3 .4.5 1.2 1.4 1.9 1.8.8.5 2 .5 3.8 0a44 44 0 0 0 4-1.3c.9-.4 1.5.3 3 3 1 2 3.6 5.7 6 8.1l4.1 4.5-5 1.5c-2.9 1-7 2.8-9.4 4.4a57.4 57.4 0 0 0-8.7 7.5l-4.4 4.7-6.2-2.8a82.4 82.4 0 0 1-21.8-14.6 55 55 0 0 1-5.9-6.8l-1.8-2.8 4-5.1c2.1-2.9 4.7-7 5.6-9.1 1-2.1 2.3-5.7 2.9-7.8a45.3 45.3 0 0 0 1.2-20 82.5 82.5 0 0 0-5.3-17.7c-.4-.9.9-1.5 6.8-3.1a72.7 72.7 0 0 0 22.2-10.4 61.1 61.1 0 0 0 17.6-23.1l4.2-8.6 4.8 2a73.6 73.6 0 0 0 18.7 4.7 48.3 48.3 0 0 0 20-3c2.6-.9 6.6-2.7 8.8-4a56.4 56.4 0 0 0 17.2-17.8l3.2-5.4 5.3 5.2c3 2.8 7.2 6.4 9.6 7.8Zm141.3 70a1033.2 1033.2 0 0 0 44 11.3c.2 0 .4.7.4 1.5 0 .9-1 3.7-2.3 6.2a33.3 33.3 0 0 1-43 15 38.4 38.4 0 0 1-8.8-6.1 32 32 0 0 1-6.8-9.4 22 22 0 0 1-3-12c0-3.8.2-8.2.6-9.8l.8-3 5.5 2.2c3 1.2 8.7 3 12.6 4.2Zm-92-1.8a53 53 0 0 0-18.8 9.1 54 54 0 0 0-6.9 6.6 50.1 50.1 0 0 0-11.3 26 34 34 0 0 0 .4 13c.9 5.4 1.9 8.6 4.4 13.8 2.8 5.7 4.3 7.7 9.4 12.8a39 39 0 0 0 12.2 9c3.3 1.6 8.3 3.4 11.1 4a52.6 52.6 0 0 0 24.8-.8A694.3 694.3 0 0 1 429 434c0 .4-3.3.4-7.7.2a130.9 130.9 0 0 1-26.8-4.3 135 135 0 0 1-17.3-7.2 41 41 0 0 0-14-5.5 8 8 0 0 0-5 1.4 14 14 0 0 0-3.3 4c-.8 1.5-1.5 4.7-1.7 7.1-.2 2.4 0 6.3.5 8.5a45 45 0 0 0 3.2 9 51.2 51.2 0 0 0 17.4 18.4 75 75 0 0 0 22.2 9.7 83.6 83.6 0 0 0 24.8 1.1 96.7 96.7 0 0 0 22.8-5.8c2.8-1.2 7.5-3.6 10.6-5.4 3-1.7 7-4.6 9-6.4 2.3-2 3.6-3.8 3.6-4.7 0-1-.4-2-.9-2.5a4 4 0 0 0-2.3-.8c-.8 0-2.2.5-3 1-1.6 1.2-1.6 1.2-1.6-2 0-2 .6-4.6 1.5-6.3a29.5 29.5 0 0 1 9.4-11.4c2-1.2 5-3.5 6.7-5 1.6-1.5 3-3.3 3-4 0-.6-.4-1.5-.9-2-.4-.5-1.4-.8-2.1-.8-.7 0-4 1.6-7.5 3.5a84 84 0 0 1-10.1 5 78.9 78.9 0 0 1-19.4 4.6l-5.3.5-.8-7a258.7 258.7 0 0 0-3.6-22c0-.5 1.8-2 4-3.2 2.3-1.3 6.7-4.9 9.9-8 4.7-4.7 6.3-7 9-12.5 2.6-5.2 3.6-8.3 4.5-13.7 1-5.7 1-8 .4-12.9-.4-3.2-1.4-8-2.3-10.4a55.7 55.7 0 0 0-11.3-18.2c-2-2-5-4.7-6.8-5.9a52.3 52.3 0 0 0-17-7.4 62 62 0 0 0-21.6 0Zm-78.8 10.5a41 41 0 0 1 3 9.5c.6 3.8.6 6.2 0 9.9-.6 2.7-2 7-3.2 9.5a33.3 33.3 0 0 1-43 15 38.8 38.8 0 0 1-8.3-6 34.1 34.1 0 0 1-8.1-11.3c0-.3 9-5 19.9-10.5 11-5.4 22-11.2 24.7-12.7l8.3-5.3c2-1.4 3.8-2.5 4-2.5.3 0 1.5 2 2.7 4.4Zm99.8-3.4a54 54 0 0 1 8.8 3.4 47.5 47.5 0 0 1 16.6 15.5 50 50 0 0 1 4.2 9.5c1.1 3.6 1.6 6.8 1.6 11.7 0 5-.5 8-1.6 11.7-.8 2.8-2.7 7-4.2 9.5a49.2 49.2 0 0 1-16.7 15.6 51.8 51.8 0 0 1-9.1 3.3 50.2 50.2 0 0 1-19 0 40 40 0 0 1-19.3-11c-4-4-6.2-6.7-8-10.6-1.5-3-3.2-8-3.8-11a37.2 37.2 0 0 1 1.2-19.8 43.9 43.9 0 0 1 10.1-16.6c2-2.1 5.6-5 8-6.4a40.2 40.2 0 0 1 21-5.8c3.3 0 7.9.4 10.2 1ZM199 368.5a50 50 0 0 0 7.2 7.7 115 115 0 0 0 9 7 115.3 115.3 0 0 0 19 10c.2.4-.3 2.6-1 4.8a36.8 36.8 0 0 0-1.5 18c.4 2.5 1.6 6 2.5 8 1 1.8 2.8 4.4 4.1 5.7a22 22 0 0 0 5 3.6c1.6.7 4 1.5 5.4 1.7 1.5.2 4.4-.2 6.5-.8 2-.6 5-2 6.3-3 1.3-1 3.3-3 4.4-4.6a40.3 40.3 0 0 0 5.8-17.2l.8-6.2 3.5 2.7a36 36 0 0 1 11 15.5 67 67 0 0 1 2.8 10.8c.9 5.6 1 7.9.3 13.9-.5 4-2.2 12-3.8 17.8-1.6 5.9-3.4 13-4 15.9a50.8 50.8 0 0 0 4 32.2 80 80 0 0 0 5.4 8.7 92.2 92.2 0 0 0 39.9 29.8 139.4 139.4 0 0 0 28.6 7.3c6.3 1 12.4 1.2 26.6 1.2a230.4 230.4 0 0 0 30-1.5 39 39 0 0 1-7.4 2.5 263.3 263.3 0 0 1-33 7 180 180 0 0 1-23.7 1.2 167.3 167.3 0 0 1-39.7-4.3c-4.3-1-11.5-3-16-4.6a190.3 190.3 0 0 1-36.7-18.2c-4.6-3.1-11.4-8.2-15.1-11.3a210.2 210.2 0 0 1-36.8-41.2 339.3 339.3 0 0 1-20.3-33l-4-7.5 1.8-3.9c1-2.2 2.3-6.1 2.8-8.8.6-2.7 1.2-8.3 1.4-12.6.3-5.8.8-8.7 2.1-12 1-2.4 2.1-7 2.6-10.2.7-4.5.7-7.3 0-12.5a90.4 90.4 0 0 0-4.6-19.1c-.4-1 .1-1.5 2.2-2.6 1.5-.8 3-1.5 3.4-1.5.4 0 1.9 1.7 3.2 3.6Zm69 10.3c-.9 1-2 3.6-2.6 5.6-.6 2-1.4 9-1.7 16a76 76 0 0 1-1.8 16c-.7 1.9-1.9 4.5-2.6 5.7-.8 1.3-2.5 2.8-3.8 3.4-1.3.6-3.7 1.1-5.3 1.1-2.2 0-3.4-.5-5.5-2.3a17.6 17.6 0 0 1-3.8-5.1 29 29 0 0 1-1.7-6.4 34.5 34.5 0 0 1 3.6-17.3 38.3 38.3 0 0 1 25-18.5h1.6l-1.5 1.8Zm105 50.9a105.5 105.5 0 0 0 43.8 11.9c7 .5 12.1.5 18.3 0a147.3 147.3 0 0 0 19.1-2.7c.1 0-.3 1.3-1 2.6a7 7 0 0 1-4 3.5c-1.6.6-3.7 1.7-4.8 2.4-1.2.8-2 2-2 3 0 .9.5 2 1.1 2.5.7.6 2.2.8 4.6.4l3.6-.4v2.5c0 2.4-.2 2.6-5.2 5a95.8 95.8 0 0 1-10 4.3 79 79 0 0 1-39.8 2.4 73 73 0 0 1-10.1-3.5 50.6 50.6 0 0 1-15.1-10.3l-2.5-2.6 3.6 1.4a60 60 0 0 0 16.8 3.4 3 3 0 0 0 2.4-2.4c.3-1.4 0-2.1-1.2-3.1-.8-.8-2-1.3-2.5-1.3s-3.7-.9-7-1.8c-3.5-1-9.3-3.3-12.9-5.1l-6.6-3.3-.5-3.1a23.8 23.8 0 0 1 .8-9.6c.2-.3.8-.6 1.4-.6.5 0 4.9 2 9.7 4.5Zm-190.8 1.1-1.7 7.7c-.4 1.5-2 4.7-3.7 7-1.6 2.3-4 5.4-5.5 7a58.2 58.2 0 0 1-16 11.3c-2.8 1.3-6.7 3-8.8 3.6-2 .6-6.8 1.3-10.6 1.5a25 25 0 0 1-13.7-1.7 82.8 82.8 0 0 1-19.8-10.2l9.4-.3c8 0 10.2-.3 15-1.9 3.2-1 7.6-3 10-4.4 2.3-1.4 6.2-4.4 8.5-6.8 4-3.8 4.6-4.2 7.5-4.2a44.9 44.9 0 0 0 26.3-10.3c2-1.7 3.9-3.1 4-3.1l-.9 4.8ZM400 451.6a4 4 0 0 0-.9 2.4c0 .8.4 1.9.9 2.3.5.5 1.7.9 2.8.9a5 5 0 0 0 3-1.1c.6-.7 1.1-1.6 1.1-2 0-.6-.5-1.5-1.3-2.1-.7-.7-2-1.2-3-1.2s-2.1.4-2.6.8Z" clip-rule="evenodd"/>
  <path fill="#CEBDFE" d="M186.5 379.8c-.7-2.6-2-6.1-3-8-36 12.5-60.7-5.2-68.5-15.5-58.5 8.4-73-38.1-73-62.5a25 25 0 0 1-10.4-3.1l-.8 1.1a63.4 63.4 0 0 0-3.5 6 75.1 75.1 0 0 0-5.9 20.6c-.6 4.6-.5 8 0 13 .5 3.7 1.5 8.9 2.3 11.4A69 69 0 0 0 34.6 363a62.8 62.8 0 0 0 17.7 14c2 1 4.2 2.5 4.9 3.3 1.3 1.4 1.3 2 .4 9-.5 4-.7 10.2-.5 14A42 42 0 0 0 59 414c.8 2.3 2.6 6 4 8.4A66.8 66.8 0 0 0 78.5 439a75.8 75.8 0 0 0 17.8 8.9c3.2 1 7.7 1.6 12.5 1.9a43.3 43.3 0 0 0 22.6-4.2 47 47 0 0 0 9.6-7l5.3-5 8-1.4c4.4-.8 9.8-2.3 12-3.2a48 48 0 0 0 7.7-4.8 39.1 39.1 0 0 0 12.6-18.8 29 29 0 0 0 1.5-13.5 81 81 0 0 0-1.6-12.2Z"/>
  <path fill="#fff" d="m182.2 430.8-1.7 7.7c-.4 1.5-2 4.7-3.7 7-1.6 2.3-4 5.4-5.5 7a58.2 58.2 0 0 1-16 11.3c-2.8 1.3-6.7 3-8.8 3.6-2 .6-6.8 1.3-10.6 1.5a25 25 0 0 1-13.7-1.7 82.8 82.8 0 0 1-19.8-10.2l9.4-.3c8 0 10.2-.3 15-1.9 3.2-1 7.6-3 10-4.4 2.3-1.4 6.2-4.4 8.5-6.8 4-3.8 4.6-4.2 7.5-4.2a44.9 44.9 0 0 0 26.3-10.3c2-1.7 3.9-3.1 4-3.1l-.9 4.8Z"/>
  <path fill="#FFD7EC" d="M207.5 310.3a200 200 0 0 0-3.4-9.7c-16.6.2-52.2-6.3-62.6-33.5-32.1 7.4-95.2 2.7-90.4-75.9-1.8-1-5.6-4.8-7-12.7-1 .8-2.7 2-4.5 3A79 79 0 0 0 30 188a67.3 67.3 0 0 0-20.4 33.1c-1.6 5.3-2 7.9-2 15.3 0 6.5.2 10 1.2 13.5a71.3 71.3 0 0 0 9.9 19.8c1.6 2.2 5.4 6.6 8.5 9.8 4 4 5.7 6.3 5.7 7.5 0 .8-.6 2.2-1.4 3.7 1.9 1 6.7 3.1 10.4 3.1 0 24.4 14.5 71 73 62.5 7.8 10.3 32.4 28 68.6 15.5-1-1.8-1.7-4-1.7-5a5 5 0 0 1 1.6-3 39 39 0 0 1 6.5-3.9 34.6 34.6 0 0 0 15.5-15.7A40.2 40.2 0 0 0 210 322c-.2-3-1.3-8.3-2.4-11.7Z"/>
  <path fill="#FFD9B8" d="M258.8 248.5c1.5-.9 2.3-1 4.5-.3a67.4 67.4 0 0 0-36.1-60.7c-1.3-67.2-53-76.7-78.7-73A45 45 0 0 0 113 93c-1.6 2-3 2.5-12.7 5a110 110 0 0 0-29.8 11.2 63 63 0 0 0-8.6 6.2c-2 1.9-5.3 5.6-7.2 8.3a60.3 60.3 0 0 0-9.2 22.8c-.9 4.2-1.3 9.4-1.3 15 0 4.6.3 9.9.7 11.6.4 1.7.5 3.6.3 4.2 0 .3-.4.7-1 1.2 1.3 8 5.1 11.8 6.9 12.7-4.8 78.6 58.3 83.3 90.4 75.9 10.4 27.2 46 33.7 62.6 33.5-1-2.4-1.3-4-.9-5.1.4-1 1.4-2 2.3-2.3.9-.4 5.1-1.5 9.4-2.5 4.5-1 10.3-3 13.8-4.8a33 33 0 0 0 11.5-8.3 66.1 66.1 0 0 0 14-21.9c2-4.2 3.3-6.5 4.6-7.2Z"/>
  <path fill="#FEFFB9" d="M333.3 223.2c.8-.5 2-.7 2.6-.4.5.1 1.6 1.1 2.7 2.4 9-15.2 17-52.9-24-82.2 10.5-33.4 10.7-100.4-73-100.5l-7.8-9.5-2.5 1.3c-1.5.6-3.4 1.1-4.1 1.1-.8 0-4.2-1-7.6-2.4a83 83 0 0 0-11.5-3.6c-2.9-.6-8.3-1.3-12-1.5-4.6-.3-9 0-13.8.7-4 .7-10 2.2-13.5 3.3a102 102 0 0 0-12 5.2 75.7 75.7 0 0 0-20 14.9c-1.9 2-5 6-7 8.6A169.7 169.7 0 0 0 117.2 85a40.5 40.5 0 0 1-4.2 8 45 45 0 0 1 35.5 21.5c25.7-3.7 77.4 5.8 78.7 73a67.4 67.4 0 0 1 36.1 60.7l10.2 3.5A43.6 43.6 0 0 0 309 250c3.5-1.7 6.7-4 9.8-7.2a75 75 0 0 0 8.9-11.6c2.3-3.9 4.8-7.4 5.5-8Z"/>
  <path fill="#C6FFB9" d="M318.1 9a105.4 105.4 0 0 0-18.4-2.6 98.7 98.7 0 0 0-55 19.6c-4 2.8-8.3 5.4-11 7l7.8 9.5c83.8.1 83.6 67 73 100.5 41 29.3 33.2 67 24.1 82.2l1.7 2a66.5 66.5 0 0 0 27.8 19c4 1.3 7 1.8 13.7 2 6.4.3 9.6.1 13.1-.7 2.5-.7 7.9-2.8 12-4.8 6.3-3.1 8.1-4.5 13.1-9.6 3.3-3.3 6.3-6 6.8-6 .3 0 1.5.7 3.1 1.6 12.4-43.8-8.7-75.7-20.8-86.2 17.2-60.9-19.5-94.2-40.1-103.2l-4.1 1.1c-.4 0-5-4.2-10.4-9.4-6-6-11.7-10.7-15.1-12.9A86.1 86.1 0 0 0 318.2 9Z"/>
  <path fill="#CEF0FF" d="M393.9 32.2a196.8 196.8 0 0 0-24.9 7c20.6 9.1 57.3 42.4 40 103.3 12.2 10.5 33.3 42.4 21 86.2l2.9 2a56.8 56.8 0 0 0 17.7 7.6 52.7 52.7 0 0 0 21.8 0c2.7-.7 6.8-2.2 9.3-3.4a39.4 39.4 0 0 0 18.6-23.7 12 12 0 0 1 1.2-3.8c.4-.5 1.2-.9 1.7-.9s1.4.5 2 1.2c.7.7 1.1 2.3 1.1 4.4a48.8 48.8 0 0 0-8.7-39.1c6.3-10.3 13.4-38.2-9.1-67.5a70 70 0 0 1-10-3.9c-1.1-1-1.3-2.5-1.3-11.8 0-8.5-.3-12-1.4-16.4-.8-3.1-2.4-7.6-3.5-10a51.6 51.6 0 0 0-14-16.6c-2.5-2-6.5-4.6-9-6a93.8 93.8 0 0 0-24.8-8.7 109 109 0 0 0-30.6 0Z"/>
  <path fill="#CEBDFE" d="M508.7 112.9a282.6 282.6 0 0 0-20.2-7.4c22.5 29.3 15.4 57.2 9 67.5a48.8 48.8 0 0 1 8.8 39.1 19 19 0 0 1-2.1 7.9c-1.8 3.7-2 4.9-1.5 6.4a69 69 0 0 1 1.8 6.1A209.1 209.1 0 0 1 509 266c.2 5.2.6 9.4.8 9.4a51.2 51.2 0 0 0 17.4-17.2c1-2 2.4-5.8 3-8.3 1-3.7 1-6.8.8-15a79.5 79.5 0 0 0-3.7-22.7c-.2-.7 1.8-4.5 5.4-10a142 142 0 0 0 8.5-14.5 51.8 51.8 0 0 0 5.6-22.3 59.6 59.6 0 0 0-5.3-22.4 54.2 54.2 0 0 0-22.5-25 97.7 97.7 0 0 0-10.2-5Z"/>
  <path fill="#fff" fill-rule="evenodd" d="M349.8 244.5a78.7 78.7 0 0 0 20.1 9 62 62 0 0 0 25.9.4c2.6-.7 6.7-2 9.2-3a52.6 52.6 0 0 0 18.2-12l3.8-4 3 2a55 55 0 0 0 5.8 3.6c1.7.8 5.8 2.4 9.3 3.4 5.3 1.7 7.6 2 15.5 2 7.6 0 10.2-.2 14.8-1.6a46.3 46.3 0 0 0 17-8.8l3.3-2.8.6 1.7a219.3 219.3 0 0 1 4.4 22.6c.5 3.7 1 12.3 1 19.1 0 6.9-.5 16.6-1 21.7-.5 5-1.1 9.6-1.4 10-.3.7-3 0-9.6-2.1-5.1-1.7-11.3-4-13.9-5.2-2.5-1.2-5.6-3-6.8-3.9-1.3-1-3.6-3.4-5.2-5.5-2.5-3-3.3-3.7-4.9-3.5a4 4 0 0 0-2.9 2c-.9 1.7-.9 2.3 0 4.2a43.6 43.6 0 0 0 9 10.2c1.5 1 1.5 1 .4 5.2a47.3 47.3 0 0 0 0 19.7c.7 2.3 2.2 6.2 3.4 8.6a42 42 0 0 0 7.2 9.3c3.1 3.2 6.7 6 9.5 7.3a38.7 38.7 0 0 0 16.6 4.4h4l5.3 14a215 215 0 0 1 13.3 46.7 97.7 97.7 0 0 1-3.2 39.3c-1 3.7-3 9.7-4.3 13.2a144.7 144.7 0 0 1-12.6 23.8c-2 3-6.8 8.6-10.7 12.7a212.8 212.8 0 0 1-25.4 21.8 122.6 122.6 0 0 1-56.7 21.3 227.7 227.7 0 0 1-44.4.3 138.4 138.4 0 0 1-26.8-5.8 103.4 103.4 0 0 1-26.1-13.5 84 84 0 0 1-17.3-18 53.4 53.4 0 0 1-7.5-18.4 38 38 0 0 1-.4-9.5c.3-2.6 2.3-11.6 4.5-20l4-15.3v-11.3c0-9-.2-12.4-1.2-16a73 73 0 0 0-4-9.9c-1.8-3.7-4-6.8-7.5-10.4a28.6 28.6 0 0 0-9-6.7c-3.6-1.5-4.1-2-4.1-3.7a22.7 22.7 0 0 1 4-12.4c1.2-1.9 2.3-3.8 2.3-4.3 0-.7.7-.8 2.7-.4 1.5.3 6.3.6 10.8.5 6.5 0 9-.4 12.3-1.6a41.6 41.6 0 0 0 17.3-12.1c1.7-2.2 4.1-6 5.3-8.3 1.2-2.5 2.6-6.9 3.2-10.6 1-5.6 1-7 0-12.7-.8-4.6-1.9-8-4-12l-2.8-5.7 1.8-2a28.7 28.7 0 0 0 4.8-9.4 4 4 0 0 0-.6-3.7c-.9-1.4-1.7-1.7-3.4-1.5-2 .1-2.5.7-4.6 4.7a35.3 35.3 0 0 1-4.6 7 82 82 0 0 1-9.8 7.4c-4.3 3-18.5 10.5-34.4 18.4a262.2 262.2 0 0 0-28.4 15.3c-1 1.3-1.2 2-.6 3 .4.5 1.2 1.4 1.9 1.8.8.5 2 .5 3.8 0a44 44 0 0 0 4-1.3c.9-.4 1.5.3 3 3 1 2 3.6 5.7 6 8.1l4.1 4.5-5 1.5c-2.9 1-7 2.8-9.4 4.4a57.4 57.4 0 0 0-8.7 7.5l-4.4 4.7-6.2-2.8a82.4 82.4 0 0 1-21.8-14.6 55 55 0 0 1-5.9-6.8l-1.8-2.8 4-5.1c2.1-2.9 4.7-7 5.6-9.1 1-2.1 2.3-5.7 2.9-7.8a45.3 45.3 0 0 0 1.2-20 82.5 82.5 0 0 0-5.3-17.7c-.4-.9.9-1.5 6.8-3.1a72.7 72.7 0 0 0 22.2-10.4 61.1 61.1 0 0 0 17.6-23.1l4.2-8.6 4.8 2a73.6 73.6 0 0 0 18.7 4.7 48.3 48.3 0 0 0 20-3c2.6-.9 6.6-2.7 8.8-4a56.4 56.4 0 0 0 17.2-17.8l3.2-5.4 5.3 5.2c3 2.8 7.2 6.4 9.6 7.8Zm39.8 71.6a53 53 0 0 1 9.6-3.4 63.2 63.2 0 0 1 21.5 0 52.3 52.3 0 0 1 17.1 7.4 57 57 0 0 1 6.8 5.9 55.7 55.7 0 0 1 11.3 18.2c.9 2.5 1.9 7.2 2.3 10.4a46.6 46.6 0 0 1-4.8 26.6 37.9 37.9 0 0 1-9.1 12.5 60.8 60.8 0 0 1-9.8 8c-2.3 1.3-4.1 2.7-4.1 3.2l1.3 7.9a243 243 0 0 1 2.3 14.1l.8 7 5.3-.5a78.9 78.9 0 0 0 19.4-4.5 131 131 0 0 0 10.1-5c3.4-2 6.8-3.6 7.5-3.6.7 0 1.7.3 2.1.8.5.5.9 1.4.9 2 0 .7-1.4 2.5-3 4a58 58 0 0 1-6.7 5c-2 1.3-4.5 3.7-5.7 5.4a56.6 56.6 0 0 0-3.7 6c-.9 1.7-1.5 4.3-1.5 6.2 0 3.3 0 3.3 1.6 2.2.8-.6 2.2-1.1 3-1.1a4 4 0 0 1 2.3.8c.5.5.9 1.6.9 2.5 0 1-1.3 2.7-3.6 4.7a67.8 67.8 0 0 1-19.6 11.8 96.7 96.7 0 0 1-22.8 5.8 79.6 79.6 0 0 1-24.8-1.1 75 75 0 0 1-22.2-9.7 51.2 51.2 0 0 1-17.3-18.5 45 45 0 0 1-3.3-8.9c-.5-2.2-.7-6-.5-8.5a24 24 0 0 1 1.7-7 14 14 0 0 1 3.2-4.1 8 8 0 0 1 5-1.4c2.5 0 5.7 1.3 14.1 5.5 6 3 13.8 6.2 17.3 7.2a130.9 130.9 0 0 0 26.8 4.3c4.4.2 7.7.2 7.7-.2a511.2 511.2 0 0 0-4.6-27.7s-2 .3-4.3.9a52.6 52.6 0 0 1-20.5-.1c-2.8-.7-7.8-2.5-11.1-4.1a39 39 0 0 1-12.2-9c-5-5-6.6-7.1-9.4-12.8a43.1 43.1 0 0 1-4.4-13.7c-1-6-1-8-.3-13.2a50.1 50.1 0 0 1 27.4-38.2Z" clip-rule="evenodd"/>
  <path fill="#FFACAC" d="M420.1 319.8a54 54 0 0 1 8.8 3.4 47.5 47.5 0 0 1 16.6 15.5 50 50 0 0 1 4.2 9.5c1.1 3.6 1.6 6.8 1.6 11.7 0 5-.5 8-1.6 11.7-.8 2.8-2.7 7-4.2 9.5a49.2 49.2 0 0 1-16.7 15.6 51.8 51.8 0 0 1-9.1 3.3 50.2 50.2 0 0 1-19 0 40 40 0 0 1-19.3-11c-4-4-6.2-6.7-8-10.6-1.5-3-3.2-8-3.8-11a37.2 37.2 0 0 1 1.2-19.8 43.9 43.9 0 0 1 10.1-16.6c2-2.1 5.6-5 8-6.4a40.2 40.2 0 0 1 21-5.8c3.3 0 7.9.4 10.2 1Z"/>
  <path fill="#fff" fill-rule="evenodd" d="M373 429.7a105.5 105.5 0 0 0 43.8 11.9c7 .5 12.1.5 18.3 0a147.3 147.3 0 0 0 19.1-2.7c.1 0-.3 1.3-1 2.6a7 7 0 0 1-4 3.5c-1.6.6-3.7 1.7-4.8 2.4-1.2.8-2 2-2 3 0 .9.5 2 1.1 2.5.7.6 2.2.8 4.6.4l3.6-.4v2.5c0 2.4-.2 2.6-5.2 5a95.8 95.8 0 0 1-10 4.3 79 79 0 0 1-39.8 2.4 73 73 0 0 1-10.1-3.5 50.6 50.6 0 0 1-15.1-10.3l-2.5-2.6 3.6 1.4a60 60 0 0 0 16.8 3.4 3 3 0 0 0 2.4-2.4c.3-1.4 0-2.1-1.2-3.1-.8-.8-2-1.3-2.5-1.3s-3.7-.9-7-1.8c-3.5-1-9.3-3.3-12.9-5.1l-6.6-3.3-.5-3.1a23.8 23.8 0 0 1 .8-9.6c.2-.3.8-.6 1.4-.6.5 0 4.9 2 9.7 4.5Zm26.1 24.3c0-.8.4-1.9.9-2.4.5-.4 1.6-.8 2.6-.8s2.3.5 3 1.2c.8.6 1.3 1.5 1.3 2s-.5 1.4-1 2a5 5 0 0 1-3.1 1.2c-1 0-2.3-.4-2.8-.9-.5-.4-.9-1.5-.9-2.3Z" clip-rule="evenodd"/>
  <path fill="#fff" d="M491 314.6a1033.2 1033.2 0 0 0 44.1 11.2c.2 0 .4.7.4 1.5 0 .9-1 3.7-2.3 6.2a33.3 33.3 0 0 1-43 15 38.4 38.4 0 0 1-8.8-6.1 32 32 0 0 1-6.8-9.4 22 22 0 0 1-3-12c0-3.8.2-8.2.6-9.8l.8-3 5.5 2.2c3 1.2 8.7 3 12.6 4.2Zm-170.7 8.6a41 41 0 0 1 3 9.5c.6 3.8.6 6.2 0 9.9-.6 2.7-2 7-3.2 9.5a33.3 33.3 0 0 1-43 15 38.8 38.8 0 0 1-8.3-6 34.1 34.1 0 0 1-8.1-11.3c0-.3 9-5 19.9-10.5 11-5.4 22-11.2 24.7-12.7l8.3-5.3c2-1.4 3.8-2.5 4-2.5.3 0 1.5 2 2.7 4.4Z"/>
  <path fill="#CEF0FF" d="M267.8 378.8c-.8 1-2 3.6-2.5 5.6-.6 2-1.4 9-1.7 16a76 76 0 0 1-1.8 16c-.7 1.9-1.9 4.5-2.6 5.7-.8 1.3-2.5 2.8-3.8 3.4-1.3.6-3.7 1.1-5.3 1.1-2.2 0-3.4-.5-5.5-2.3a17.6 17.6 0 0 1-3.8-5.1 29 29 0 0 1-1.7-6.4 34.5 34.5 0 0 1 3.6-17.3 38.3 38.3 0 0 1 25-18.5h1.6l-1.5 1.8Z"/>
  <path fill="#C6FFB9" d="M199 368.5c1.3 2 4.5 5.5 7.1 7.7a115 115 0 0 0 9 7 115.3 115.3 0 0 0 19 10c.2.4-.3 2.6-1 4.8a36.8 36.8 0 0 0-1.5 18c.4 2.5 1.6 6 2.5 8 1 1.8 2.8 4.4 4.1 5.7a22 22 0 0 0 5 3.6c1.6.7 4 1.5 5.4 1.7 1.5.2 4.4-.2 6.5-.8 2-.6 5-2 6.3-3 1.3-1 3.3-3 4.4-4.6a40.3 40.3 0 0 0 5.8-17.2l.8-6.2 3.5 2.7a36 36 0 0 1 11 15.5 67 67 0 0 1 2.8 10.8c.9 5.6 1 7.9.3 13.9-.5 4-2.2 12-3.8 17.8-1.6 5.9-3.4 13-4 15.9a50.8 50.8 0 0 0 4 32.2 80 80 0 0 0 5.4 8.7 92.2 92.2 0 0 0 39.9 29.8 139.4 139.4 0 0 0 28.6 7.3c6.3 1 12.4 1.2 26.6 1.2a230.4 230.4 0 0 0 30-1.5 39 39 0 0 1-7.4 2.5 263.3 263.3 0 0 1-33 7 180 180 0 0 1-23.7 1.2 167.3 167.3 0 0 1-39.7-4.3c-4.3-1-11.5-3-16-4.6a190.3 190.3 0 0 1-36.7-18.2c-4.6-3.1-11.4-8.2-15.1-11.3a210.2 210.2 0 0 1-36.8-41.2 339.3 339.3 0 0 1-20.3-33l-4-7.5 1.8-3.9c1-2.2 2.3-6.1 2.8-8.8.6-2.7 1.2-8.3 1.4-12.6.3-5.8.8-8.7 2.1-12 1-2.4 2.1-7 2.6-10.2.7-4.5.7-7.3 0-12.5a90.4 90.4 0 0 0-4.6-19.1c-.4-1 .1-1.5 2.2-2.6 1.5-.8 3-1.5 3.4-1.5.4 0 1.9 1.7 3.2 3.6Z"/>
  <path fill="#000" fill-rule="evenodd" d="M288.3 1a136.3 136.3 0 0 0-20 5 119.4 119.4 0 0 0-26.8 14.2c-5.6 3.7-11 7-12 7.2-.8.2-3 0-4.9-.3a71 71 0 0 1-7.2-2.2 76.5 76.5 0 0 0-27.7-4c-10.3.1-12.6.4-18.8 2a87 87 0 0 0-13.5 5 95.3 95.3 0 0 0-23.6 17.3 99 99 0 0 0-16.2 22.9l-5.3 11.7c-1.6 4-3.5 7.7-4.2 8.4-.7.7-4.3 2-8.7 3a137.1 137.1 0 0 0-28 9.7 67 67 0 0 0-12 7.5c-2.7 2.3-6.5 6-8.3 8.3a69.7 69.7 0 0 0-13.7 44.6l-.2 13.4-4.5 2.9c-2.5 1.6-5.9 4-7.6 5.4a70.4 70.4 0 0 0-15.7 20.7c-1.9 3.7-4 8.7-4.9 11-.8 2.4-2 7-2.6 10.3-1 4.3-1.2 8.2-1 14.5.3 7.5.7 9.5 2.9 15.9 1.4 4 4 9.8 6 13 1.9 3.1 6 8.6 9.2 12.2l5.7 6.5-3.4 6.7a75.3 75.3 0 0 0-6.7 42.4 70.7 70.7 0 0 0 14 31.2 65.4 65.4 0 0 0 18 15c4 2.2 4.7 2.8 4.3 4a92.6 92.6 0 0 0 .3 25.6c.8 3.5 2.8 8.8 4.3 11.8 1.6 3 4.6 7.6 6.7 10.1a70.4 70.4 0 0 0 16.4 14c1.5 1 5.5 4.3 8.9 7.5a126 126 0 0 0 10.6 9 84.6 84.6 0 0 0 23.2 11.4 46 46 0 0 0 14 1.6c7 0 9.5-.3 14-1.7a72 72 0 0 0 20.6-10.7c2-1.6 5-4.3 6.4-5.9l2.5-2.9 1 1.7a342.8 342.8 0 0 0 31.8 49.3 345 345 0 0 0 15 16.8c4.2 4.4 7.7 8 7.6 8.1l7.7 6.8c.4 0 3.6 2 7 4.6a196.7 196.7 0 0 0 41 22 183.4 183.4 0 0 0 43.8 9.5c4 .4 10.7.7 14.7.7 4.1 0 7.4.2 7.4.3l26.8-2.4c.3-.3 3-.9 5.9-1.4a263.8 263.8 0 0 0 33.2-8.6 282 282 0 0 0 27.3-11.4 213 213 0 0 0 43.8-30.2 155.9 155.9 0 0 0 19.8-23.1c2-2.8 4.8-7.6 6.4-10.5a136.8 136.8 0 0 0 10.3-26.7c1-3.8 2.2-9.6 2.7-12.7.6-3.5 1-12.2 1-22.7a80 80 0 0 0-1.6-23.4 242.5 242.5 0 0 0-15.4-43l-1-2.6 3.4-1.2a45.1 45.1 0 0 0 15.7-11.2A41.7 41.7 0 0 0 542 331c.8-2.8.9-2.9 3.6-2.5 2 .3 3.1 0 4.2-1 .7-.6 1.4-2 1.4-2.8 0-1-.7-2.1-1.6-2.7-.9-.6-5-1.9-9-2.9l-20.7-5.2c-11.6-3-13-3.6-13-4.8l1.3-11.9c.6-5.7 1-11.9 1-13.6v-3.2l2.9.4c2.3.4 3.2.1 5.8-1.7a65.7 65.7 0 0 0 12.6-12.4 50.2 50.2 0 0 0 6.9-17.6 78.7 78.7 0 0 0-1.5-32l-1.2-4.8 4.4-6.6a94.6 94.6 0 0 0 12.6-25.4c1-3.5 1.2-7.2 1.2-15 0-9.2-.2-10.8-2-16.3a85 85 0 0 0-11.4-22 62.3 62.3 0 0 0-24.8-18.8c-3.6-1.7-12-5-18.7-7.2l-12.2-4 .4-5.4a69 69 0 0 0-3.3-24c-1-3.3-3-7.7-4.4-9.9A67.8 67.8 0 0 0 450 34.2a101.4 101.4 0 0 0-24-8.3 126 126 0 0 0-14-1.6 80 80 0 0 0-16.2.8 154 154 0 0 0-18 4.3c-5.4 1.8-10.4 3.2-11 3.2-.8 0-4-2.8-7.3-6.1-3.3-3.4-8.6-8-11.7-10.4a92.6 92.6 0 0 0-26-12.9A84.8 84.8 0 0 0 299.5 0c-2.8 0-7.8.5-11.2 1Zm19.9 6a86.1 86.1 0 0 1 31.2 11c3.4 2.3 9 7 15.1 13a98 98 0 0 0 10.4 9.4l4.1-1.1 7.6-2.4a87.1 87.1 0 0 1 32.5-6c5 0 11.8.6 15.5 1.3a93.8 93.8 0 0 1 24.8 8.7 70.2 70.2 0 0 1 17 14c2.1 2.3 4.7 6.2 5.9 8.6 1.1 2.3 2.7 6.8 3.5 9.9a60 60 0 0 1 1.4 16.4c0 9.3.2 10.9 1.3 11.8a70 70 0 0 0 12.6 4.8c6.2 2 14.2 5 17.6 6.5 3.4 1.4 8 3.7 10.2 5a54.2 54.2 0 0 1 22.6 25.1 59.6 59.6 0 0 1 5.3 22.4 51.8 51.8 0 0 1-5.6 22.3 142 142 0 0 1-8.5 14.5 34.4 34.4 0 0 0-5.4 10A79.5 79.5 0 0 1 531 235c.3 8.1.1 11.2-.8 14.9a52 52 0 0 1-3 8.4 42.5 42.5 0 0 1-13.7 15 27.2 27.2 0 0 1-3.7 2.1 56 56 0 0 1-.8-9.4 218 218 0 0 0-4.5-33.5 69 69 0 0 0-1.8-6.1c-.5-1.5-.3-2.7 1.5-6.4a19 19 0 0 0 2.1-7.9c0-2-.4-3.7-1-4.4-.7-.7-1.6-1.2-2.1-1.2s-1.3.4-1.7 1c-.4.4-1 2.1-1.2 3.7a36.1 36.1 0 0 1-9.6 16.8 39.4 39.4 0 0 1-9 6.9 51.2 51.2 0 0 1-9.3 3.3 58.7 58.7 0 0 1-21.8 0 56.8 56.8 0 0 1-20.7-9.6c-1.6-.8-2.8-1.5-3.1-1.5-.5 0-3.5 2.7-6.8 6-5 5.1-6.8 6.5-13.2 9.6-4 2-9.4 4.1-11.9 4.8-3.5.8-6.7 1-13.1.7-6.8-.2-9.7-.7-13.7-2.1a66.5 66.5 0 0 1-29.5-20.9 12.4 12.4 0 0 0-2.7-2.4c-.7-.3-1.8 0-2.6.4-.7.6-3.2 4.1-5.5 8-2.5 4-6.2 9-8.9 11.6a37.1 37.1 0 0 1-9.8 7.2 55.8 55.8 0 0 1-10.5 3.8 43.6 43.6 0 0 1-25.1-2.1l-10.2-3.5c-2.2-.6-3-.6-4.5.3-1.3.7-2.7 3-4.5 7.2a66.1 66.1 0 0 1-14.1 22c-4.2 4.1-6.7 6-11.5 8.2a76.5 76.5 0 0 1-13.8 4.8c-4.3 1-8.5 2.1-9.4 2.5-1 .4-2 1.4-2.3 2.3-.4 1-.1 2.7.9 5.1l3.4 9.7c1.1 3.4 2.2 8.7 2.5 11.7a40.2 40.2 0 0 1-4.5 22.2A34.6 34.6 0 0 1 190 360a39 39 0 0 0-6.4 3.7 5 5 0 0 0-1.6 3.1c0 1 .7 3.2 1.7 5a50.7 50.7 0 0 1 3 33.7 39.1 39.1 0 0 1-20.4 23.6 63 63 0 0 1-11.9 3.2l-8 1.4-5.3 5c-3 2.7-7.2 5.9-9.6 7a43.3 43.3 0 0 1-22.6 4.1 53.2 53.2 0 0 1-30.3-10.7A69.4 69.4 0 0 1 63 422.5a55.4 55.4 0 0 1-4-8.4c-1-2.5-1.7-6.8-1.9-10.8a96 96 0 0 1 .5-14c.9-7 .9-7.5-.4-8.9a21 21 0 0 0-4.9-3.3A62.8 62.8 0 0 1 34.6 363a69 69 0 0 1-11-20 113 113 0 0 1-2.2-11.5c-.5-5-.6-8.4 0-13a81.9 81.9 0 0 1 5.9-20.6 63.4 63.4 0 0 1 4.3-7.1c.8-1.5 1.4-3 1.4-3.7 0-1.2-1.8-3.5-5.7-7.5-3-3.2-7-7.6-8.5-9.8a76.5 76.5 0 0 1-10-19.8c-.9-3.5-1.2-7-1.1-13.5 0-7.4.4-10 2-15.3 1-3.5 3.1-9 4.7-12.2A67.3 67.3 0 0 1 30 188a79 79 0 0 1 9.5-6.5c1.8-1 3.5-2.2 4.6-3 .6-.5 1-1 1-1.2.2-.6 0-2.5-.3-4.2-.4-1.7-.7-7-.7-11.6a74.9 74.9 0 0 1 4.8-27.1c1.3-3.2 3.8-8 5.7-10.7 2-2.7 5.2-6.4 7.2-8.3a63 63 0 0 1 20.5-11.8c3.8-1.6 11.9-4 17.9-5.6 9.7-2.5 11.1-3 12.7-5 1-1.1 3-4.8 4.2-8 1.3-3.3 4-9 5.8-12.6 1.8-3.8 5-9 6.9-11.8 2-2.7 5-6.6 6.8-8.6a75.7 75.7 0 0 1 32.1-20 111 111 0 0 1 13.5-3.4A61 61 0 0 1 196 28a75.2 75.2 0 0 1 23.5 5.1 43 43 0 0 0 7.6 2.4 14.8 14.8 0 0 0 6.6-2.4c2.6-1.6 6.8-4.2 11-7a154 154 0 0 1 17-10.2c3.5-1.6 8.3-3.6 10.8-4.5a109.3 109.3 0 0 1 27.1-4.9c1.8 0 5.6.3 8.5.7Zm51 242.6a96.2 96.2 0 0 1-9.4-5c-2.4-1.5-6.7-5-9.6-8l-5.3-5-3.2 5.3a56.4 56.4 0 0 1-17.2 17.8 60.5 60.5 0 0 1-19 6.6 48.3 48.3 0 0 1-28.5-4.4l-4.8-2-4.2 8.7a61.1 61.1 0 0 1-17.6 23.1 72.7 72.7 0 0 1-22.2 10.4c-6 1.6-7.2 2.2-6.8 3.1l2.4 6.8c1.1 3.1 2.4 8 2.9 11a45.3 45.3 0 0 1-1.2 19.9c-.6 2.1-2 5.7-2.9 7.8-1 2.2-3.5 6.2-5.6 9l-4 5.2 1.8 2.8a55 55 0 0 0 15.9 14.7c3.1 2 8.5 5.1 11.8 6.7l6.2 2.8 4.4-4.7a41.8 41.8 0 0 1 18-11.9l5.1-1.5-4.2-4.5c-2.3-2.4-5-6-6-8-1.4-2.8-2-3.5-3-3.1l-3.9 1.3c-1.8.5-3 .5-3.8 0a7.3 7.3 0 0 1-2-1.9c-.5-.9-.3-1.6.7-3 .9-1 11.7-6.8 28.4-15.2 15.9-7.9 30-15.5 34.4-18.4a82 82 0 0 0 9.8-7.4c1.3-1.3 3.4-4.5 4.6-7 2-4 2.6-4.6 4.6-4.8 1.7-.1 2.5.2 3.4 1.6a4 4 0 0 1 .6 3.7 26.7 26.7 0 0 1-4.8 9.3l-1.8 2.1 2.9 5.7c2 4 3.1 7.4 4 12 .9 5.8.9 7 0 12.7-.7 3.7-2 8-3.3 10.6a57.4 57.4 0 0 1-5.3 8.3 41.6 41.6 0 0 1-17.3 12.1 32.7 32.7 0 0 1-12.3 1.6c-4.5 0-9.3-.2-10.8-.5-2-.4-2.7-.3-2.7.4 0 .5-1 2.4-2.4 4.3a22.7 22.7 0 0 0-4 12.4c0 1.7.6 2.2 4.1 3.7a27 27 0 0 1 9 6.7c3.6 3.6 5.8 6.7 7.7 10.4a73 73 0 0 1 3.9 10c1 3.5 1.2 7 1.2 15.9V451l-4 15.3c-2.2 8.4-4.3 17.4-4.5 20a39.8 39.8 0 0 0 3.2 19.1c1 2.6 3.2 6.6 4.7 8.9a84 84 0 0 0 17.3 18 103.4 103.4 0 0 0 26.1 13.4 138.4 138.4 0 0 0 47.8 6.7c9.7 0 17.5-.4 23.4-1.2 4.9-.6 12.2-2 16.2-2.9a122.6 122.6 0 0 0 52-27.2c3.7-3.1 10-9 13.9-13 3.9-4 8.7-9.8 10.7-12.7a144.7 144.7 0 0 0 12.6-23.8c1.4-3.5 3.3-9.5 4.3-13.2a119.6 119.6 0 0 0 3.9-28 97.7 97.7 0 0 0-3.3-24.4 215 215 0 0 0-3.6-13.9c-1-3.1-4.1-12-7-19.7l-5.4-14h-4a38.7 38.7 0 0 1-16.6-4.4 41.5 41.5 0 0 1-9.5-7.3c-3-3-6-6.7-7.2-9.3a52.3 52.3 0 0 1-3.3-8.6 48.1 48.1 0 0 1 0-19.7c1-4.1 1-4.2-.6-5.2a43.6 43.6 0 0 1-9-10.2c-.9-1.9-.9-2.5 0-4.1a4 4 0 0 1 3-2c1.5-.3 2.3.4 4.8 3.4 1.6 2.1 4 4.6 5.2 5.5 1.2 1 4.3 2.7 6.8 3.9a230 230 0 0 0 13.9 5.2c6.6 2.2 9.3 2.8 9.6 2.2.3-.5 1-5 1.4-10.1a273.1 273.1 0 0 0 0-40.8 219.3 219.3 0 0 0-4.4-22.6l-.6-1.7-3.2 2.8a46.3 46.3 0 0 1-17 8.8 43.6 43.6 0 0 1-15 1.6c-7.8 0-10-.3-15.4-2-3.5-1-7.6-2.6-9.3-3.4a55 55 0 0 1-5.9-3.6l-2.9-2-3.8 4a52.6 52.6 0 0 1-18.2 12c-2.5 1-6.6 2.3-9.2 3-3 .7-7.8 1.1-12.6 1a50.6 50.6 0 0 1-24-5.3Zm157.3 71.6-25.4-6.6c-4-1.1-9.6-3-12.6-4.2l-5.5-2.2-.8 3c-.4 1.6-.7 6-.5 9.7.2 6.2.5 7.4 2.9 12.1a32 32 0 0 0 6.8 9.4c2.5 2.3 6.2 5 8.8 6.2 2.4 1.1 6.5 2.3 9 2.7 2.8.4 6.5.4 9.3 0a33.3 33.3 0 0 0 24.7-17.8c1.2-2.5 2.3-5.3 2.3-6.2 0-.8-.2-1.5-.4-1.5s-8.6-2-18.6-4.6Zm-193.3 11.5a41 41 0 0 0-3-9.5 15.7 15.7 0 0 0-2.6-4.4c-.2 0-2 1.1-4 2.5a156 156 0 0 1-8.3 5.3c-2.7 1.5-13.8 7.3-24.7 12.7-11 5.5-20 10.2-20 10.5l2.1 4c1.2 2 3.9 5.3 6 7.4a33.2 33.2 0 0 0 26.8 8.5A33.3 33.3 0 0 0 320 352a45 45 0 0 0 3.1-9.4 24 24 0 0 0 0-10Zm-117 43.5a53.3 53.3 0 0 1-7.3-7.7c-1.3-2-2.8-3.6-3.2-3.6-.4 0-2 .7-3.4 1.5-2 1-2.6 1.7-2.2 2.6l2.2 6.8c1 3.1 2 8.6 2.5 12.3a43.6 43.6 0 0 1-2.7 22.7 33.9 33.9 0 0 0-2.1 12c-.2 4.3-.8 10-1.4 12.6-.5 2.7-1.8 6.6-2.8 8.8l-1.8 4 4 7.5a407.3 407.3 0 0 0 20.3 33 250.7 250.7 0 0 0 23 28.2c3.9 4 10 9.8 13.8 12.9a258 258 0 0 0 15.1 11.3 190.3 190.3 0 0 0 36.7 18.2c4.5 1.5 11.7 3.6 16 4.6a167.3 167.3 0 0 0 39.8 4.3 180 180 0 0 0 64-10.7 230.4 230.4 0 0 1-30 1.5c-14.2 0-20.3-.3-26.6-1.2a139.4 139.4 0 0 1-28.6-7.3 158 158 0 0 1-11.2-5c-2.5-1.5-6.7-4-9.2-5.8a109 109 0 0 1-19.5-19 59.4 59.4 0 0 1-9-18.6 50.8 50.8 0 0 1-.3-22.3c.5-2.9 2.3-10 4-15.9 1.5-5.8 3.2-13.9 3.7-17.8.6-6 .6-8.3-.3-13.9-.7-3.6-1.9-8.5-2.7-10.8a36 36 0 0 0-11-15.5l-3.6-2.7-.8 6.2a40.3 40.3 0 0 1-5.8 17.1c-1 1.6-3 3.8-4.4 4.8-1.4 1-4.2 2.3-6.3 3-2.1.5-5 .9-6.5.7-1.4-.2-3.8-1-5.3-1.7a22 22 0 0 1-5-3.6 27.1 27.1 0 0 1-4.2-5.8c-1-1.9-2-5.4-2.5-8A36.8 36.8 0 0 1 233 398c.7-2.2 1.2-4.4 1-4.8a55.5 55.5 0 0 1-8.3-3.9c-3.5-1.7-8.3-4.5-10.7-6a115 115 0 0 1-9-7Zm59 8.2a20 20 0 0 1 2.6-5.6l1.5-1.9h-1.6c-1 0-3.5.8-5.7 1.7a38.3 38.3 0 0 0-19.3 16.8 36.9 36.9 0 0 0-3.6 17.4c.2 2 1 4.8 1.7 6.4.6 1.6 2.4 3.9 3.8 5.1 2 1.8 3.3 2.3 5.5 2.3 1.6 0 4-.5 5.3-1.1 1.3-.6 3-2.1 3.8-3.4a41 41 0 0 0 2.6-5.8c.8-2.4 1.4-7.5 1.8-15.9.3-7 1-14 1.7-16Zm-84.7 54A136.1 136.1 0 0 0 183 426l-4 3.2a44.9 44.9 0 0 1-26.3 10.3c-2.8 0-3.4.3-7.4 4.1a55.6 55.6 0 0 1-8.5 6.8 59.2 59.2 0 0 1-10 4.4c-4.8 1.6-7 1.9-15 2-5.2 0-9.4 0-9.4.2l6.5 4c3.6 2.2 9.6 5 13.3 6.2a25 25 0 0 0 13.7 1.7c3.8-.2 8.6-1 10.6-1.5a66.8 66.8 0 0 0 24.8-15 52 52 0 0 0 9.2-13.9Z" clip-rule="evenodd"/>
  <path fill="#000" fill-rule="evenodd" d="M399.2 312.7a53 53 0 0 0-18.9 9.1 54 54 0 0 0-6.9 6.6 50.1 50.1 0 0 0-11.3 26 34 34 0 0 0 .4 13c.9 5.4 1.9 8.6 4.4 13.8 2.8 5.7 4.3 7.7 9.4 12.8a39 39 0 0 0 12.2 9c3.3 1.6 8.3 3.4 11.1 4a52.6 52.6 0 0 0 24.8-.8A694.3 694.3 0 0 1 429 434c0 .4-3.3.4-7.7.2a130.9 130.9 0 0 1-26.8-4.3 135 135 0 0 1-17.3-7.2 41 41 0 0 0-14-5.5 8 8 0 0 0-5 1.4 14 14 0 0 0-3.3 4c-.8 1.5-1.5 4.7-1.7 7.1-.2 2.4 0 6.3.5 8.5a45 45 0 0 0 3.2 9 51.2 51.2 0 0 0 17.4 18.4 75 75 0 0 0 22.2 9.7 83.6 83.6 0 0 0 24.8 1.1 96.7 96.7 0 0 0 22.8-5.8c2.8-1.2 7.5-3.6 10.6-5.4 3-1.7 7-4.6 9-6.4 2.3-2 3.6-3.8 3.6-4.7 0-1-.4-2-.9-2.5a4 4 0 0 0-2.3-.8c-.8 0-2.2.5-3 1-1.6 1.2-1.6 1.2-1.6-2 0-2 .6-4.6 1.5-6.3a29.5 29.5 0 0 1 9.4-11.4c2-1.2 5-3.5 6.7-5 1.6-1.5 3-3.3 3-4 0-.6-.4-1.5-.9-2-.4-.5-1.4-.8-2.1-.8-.7 0-4 1.6-7.5 3.5a84 84 0 0 1-10.1 5 78.9 78.9 0 0 1-19.4 4.6l-5.3.5-.8-7a258.7 258.7 0 0 0-3.6-22c0-.5 1.8-2 4-3.2 2.3-1.3 6.7-4.9 9.9-8 4.7-4.7 6.3-7 9-12.5 2.6-5.2 3.6-8.3 4.5-13.7 1-5.7 1-8 .4-12.9-.4-3.2-1.4-8-2.3-10.4a55.7 55.7 0 0 0-11.3-18.2c-2-2-5-4.7-6.8-5.9a52.3 52.3 0 0 0-17-7.4 62 62 0 0 0-21.6 0Zm29.7 10.5a54 54 0 0 0-8.8-3.4c-2.3-.6-7-1-10.3-1a40.2 40.2 0 0 0-35.1 20.2 47.7 47.7 0 0 0-4 8.6 38.9 38.9 0 0 0-1.1 19.8c.6 3 2.3 8 3.7 11 2 3.9 4 6.7 8 10.6a40 40 0 0 0 19.3 11 50.2 50.2 0 0 0 19 0c2.6-.6 6.7-2.1 9.2-3.3a48 48 0 0 0 16.7-15.6c1.5-2.5 3.4-6.7 4.2-9.5 1.1-3.6 1.6-6.8 1.6-11.7 0-5-.5-8-1.6-11.7a50 50 0 0 0-4.2-9.5 47.5 47.5 0 0 0-16.5-15.5Zm-41 113c-3.4-1.1-10-4-14.9-6.5a74.8 74.8 0 0 0-9.7-4.5c-.6 0-1.2.3-1.4.6a23.8 23.8 0 0 0-.8 9.6l.5 3.1 6.6 3.3a95.3 95.3 0 0 0 20 6.9c.4 0 1.6.5 2.4 1.3 1.3 1 1.5 1.7 1.2 3.1a3 3 0 0 1-2.4 2.4 27 27 0 0 1-7.5-.8 75 75 0 0 1-9.3-2.6l-3.6-1.4 2.4 2.6a50.6 50.6 0 0 0 15.2 10.3 52.6 52.6 0 0 0 24.3 5.1 79 79 0 0 0 25.6-4 93 93 0 0 0 10-4.2c5-2.5 5.2-2.7 5.2-5.1v-2.5l-3.6.4c-2.4.4-3.9.2-4.6-.4-.6-.5-1-1.6-1-2.5 0-1 .7-2.2 1.9-3 1-.7 3.2-1.8 4.8-2.4a7 7 0 0 0 4-3.5 7.8 7.8 0 0 0 1-2.6 147.3 147.3 0 0 1-19.1 2.7c-6.2.5-11.3.5-18.3 0a131.3 131.3 0 0 1-28.9-5.5Z" clip-rule="evenodd"/>
  <path fill="#000" d="M400 451.6a4 4 0 0 0-.9 2.4c0 .8.4 1.9.9 2.3.5.5 1.7.9 2.8.9a5 5 0 0 0 3-1.1c.6-.7 1.1-1.6 1.1-2 0-.6-.5-1.5-1.3-2.1-.7-.7-2-1.2-3-1.2s-2.1.4-2.6.8Z"/>
</svg>
