<svg xmlns="http://www.w3.org/2000/svg" fill="none" viewBox="0 0 489 481">
  <path fill="#000" fill-rule="evenodd" d="M300.7 11.2a220.2 220.2 0 0 1 52 17.3c6 3 15.7 8.7 21.4 12.5a182.4 182.4 0 0 1 43.4 44c8 12 8.7 13.5 7 16.6-1 2-5.3 5.8-9.6 8.6a96.2 96.2 0 0 1-17.5 8.4 180.4 180.4 0 0 1-44.8 8c-4.6 0-14.5-.6-22-1.4-7.3-.9-22.8-3.3-34.4-5.5a125 125 0 0 0-36.7-3c-8.6.5-20.4 2.2-26.2 3.8-5.7 1.7-14.5 4.8-19.4 7a197.6 197.6 0 0 0-48.4 34 173 173 0 0 0-18 21.4c-3.8 5.7-8.5 15.1-10.4 21-2 5.8-4.2 15.7-5.1 22a50 50 0 0 0 .6 21.7 173 173 0 0 0 4.4 16c1.2 3.2 4.2 7.8 6.6 10.3a76 76 0 0 0 10.7 9.1 106.2 106.2 0 0 0 32.6 15.3l17.8 4a27 27 0 0 1 15.3 7.8c4.2 3.9 7.5 8.8 9.5 14.1a54 54 0 0 1 3 17.6 132 132 0 0 1-4.6 27.3 78.2 78.2 0 0 0-4 28c.6 6.9 2.1 12.8 5 18.6a85 85 0 0 0 32.6 32.8c5.7 3.2 15.1 7.3 21 9.1a174 174 0 0 0 55 6.5c13-.5 14.4-.4 10 1.2a174.5 174.5 0 0 1-50.6 6.6c-9.6 0-23.3-1-30.3-2.3a174.8 174.8 0 0 1-48.2-15.8c-6.5-3.4-16.4-9.5-21.9-13.6a249.6 249.6 0 0 1-48.4-52c-5.4-8.2-9.9-15.6-9.9-16.5a60 60 0 0 0-5.4-11.1l-5.4-9.6 2.5-6.7a78.5 78.5 0 0 0 3.3-17.3c.6-7.3 0-13.6-1.7-21A147.2 147.2 0 0 0 98 245.3a33.3 33.3 0 0 1-7.7-10.8 642.9 642.9 0 0 0-15.7-59.3c-3-8.6-7.4-18.7-9.9-22.4-2.8-4-7.7-8.5-12.6-11.2a52.4 52.4 0 0 1-9.8-6.7c-1-1.3-1.4-3.8-.8-6.3a42 42 0 0 1 9.6-12.4c4.6-4.6 14-12.5 20.7-17.6a643 643 0 0 1 31.4-21.9 228.6 228.6 0 0 0 21.3-15c1.2-1.4 1.7-4 1.2-6-.5-1.8-3.9-5.5-7.5-8a42.7 42.7 0 0 1-10.4-11.3c-2.1-3.6-4-7.8-4.3-9.5-.5-2.9.6-3 33.2-4a236 236 0 0 0 65.2-7.7c17.3-3.7 33.4-7.2 36-7.6 2.4-.4 14.2-.4 26.1-.1 14.2.4 27 1.7 36.7 3.7Zm134.5 104.6a155.6 155.6 0 0 1 10.1 33.4 183.4 183.4 0 0 1 1 41.6 135.6 135.6 0 0 1-28.3 4.9c-5 0-5.7-.4-5.7-3.5 0-2-1-4.4-2.2-5.5-1.8-1.5-2.7-1.5-4.5 0-1.3 1.1-2.3 4.4-2.3 7.7 0 4.9.7 6.2 3.8 7.6 2.6 1.2 3.6 2.5 3 4.1a41 41 0 0 0 7.7 38.9c2.9 3.5 8.6 8 12.5 10 3.9 2 10.5 4 14.7 4.6l7.5 1 5.2 13.7a180.4 180.4 0 0 1 13 45.7 79.4 79.4 0 0 1 .1 25c-.9 7.1-3.5 18.2-5.8 24.7s-7 16.6-10.6 22.6a127.2 127.2 0 0 1-36 37.9A168.4 168.4 0 0 1 398 443c-5 2.5-13.4 5.9-19 7.6a176.8 176.8 0 0 1-84.7 1.8c-6.8-1.7-17-5.4-22.8-8.3a84.2 84.2 0 0 1-33.7-30.9 41.4 41.4 0 0 1-5-17c-.5-7.1.4-13.3 4.2-27.9a80 80 0 0 0 4-31 46.8 46.8 0 0 0-4.7-20.2 61.7 61.7 0 0 0-7.9-12.1 36 36 0 0 0-8.5-6.3c-2.6-1.3-10.8-3.6-18.2-5.2-7.4-1.6-17.2-4.4-21.9-6.1a105 105 0 0 1-18.7-10.5 71 71 0 0 1-14.4-13 58.7 58.7 0 0 1-8-34.5c.5-5.1 2-12.7 3.2-16.8a125.1 125.1 0 0 1 28-44.8 182 182 0 0 1 22.6-19.8c6-4 14.8-9.4 19.8-12 4.9-2.4 13.7-6 19.4-7.8 7-2.2 16-3.5 27-4 14-.7 19.6-.2 38.2 3.4 19 3.7 25.2 4.3 49.4 4.3 22.2 0 30-.5 39-2.8 6.1-1.5 16.6-5.3 23.2-8.4a99 99 0 0 0 21.9-13.5c.5 0 2.6 3.9 4.7 8.6Zm39 84.3c3 3.4 5.8 8.3 6.4 11.4.5 3 .7 8.7.3 12.8-.4 4.3-2.2 9.6-4.3 12.7-2 3-6.5 7.3-10 9.6a38.4 38.4 0 0 1-13 5.3c-3.7.6-9.2.3-12.3-.5-3.2-1-8-3-10.6-4.6a34.8 34.8 0 0 1-14.7-22c-.6-3.6-.6-8.8 0-11.5a23 23 0 0 1 2.8-7.7c1.4-2 5.3-3 14.6-4a199.4 199.4 0 0 0 34.6-7.2c.5-.1 3.3 2.5 6.2 5.7Zm-206.8-.4c-1 .4-1.9 1.7-1.9 2.8 0 1.1-1 3-2.3 4.4-1.6 1.6-5.2 2.3-10.9 2.4-4.7 0-19.5-1.2-33-2.5-20.2-2.1-24.6-2.2-25.7-.6a5 5 0 0 0-.5 3.9c.4 1 2 2.2 3.7 2.6 2.8.8 2.8 1-.4 7.2a45 45 0 0 0-2.9 29.4c1 3.5 3.9 9.2 6.6 12.7 2.7 3.6 8 8.4 11.9 10.8 5 3.1 9.5 4.5 16.5 5a41 41 0 0 0 29.6-8.4 47 47 0 0 0 9.5-12 48.4 48.4 0 0 0 5-15.6c.5-5.6-.1-10.3-2.3-16.7-3-8.9-3-8.9 0-12.9 1.8-2.4 2.8-5.7 2.5-8.3-.3-2.3-1.2-4.3-2-4.6a7 7 0 0 0-3.4.4Zm-35.6 17c7.4.9 16.7 1.5 20.6 1.5 6.4 0 7.3.5 9.7 5a32 32 0 0 1 2.6 14.6c0 8-.7 11-4.1 16.9-2.3 4-7 9-10.4 11.2-5.4 3.6-7.7 4.1-17.6 4.1-10 0-12.3-.5-17.7-4.1a44 44 0 0 1-10.4-10.4c-3.5-5.4-4.1-7.8-4.1-16.9 0-8.9.6-11.8 4.1-17.6 3.8-6.5 4.5-7 9-6.4l18.3 2.1ZM76.6 240.2a88 88 0 0 1 34.3 35.9 224 224 0 0 1 10.2 24 70.4 70.4 0 0 1 2.4 39.2c-1 3.4-4.8 9.5-8.4 13.6a70 70 0 0 1-16 12.4c-7.5 4-11.7 5.1-20.4 5.7-10.4.7-11.7.4-22.6-5a77.3 77.3 0 0 1-22.9-17 86 86 0 0 1-23.9-41.7 97 97 0 0 1-1-20.6c.4-7.5 2-15.5 4.1-21 2.4-6.4 6-11.6 11.8-17.5 5.1-5 11-9.3 15.1-10.8 4.8-1.8 10-2.3 17.8-1.9 8 .5 13.3 1.8 19.5 4.8Zm293.3 6c-7.8 4.9-9.4 5.3-15.7 4.5l-15.6-2c-5.5-.5-10.2-.2-13.1 1a22 22 0 0 0-7.6 5.7c-1.6 2-3 5.7-3 8.1 0 2.4 1 6.4 2.3 8.8 1.3 2.5 4.8 5.7 8 7.3 3 1.6 10.8 3.7 17.3 4.7a69 69 0 0 0 16.2.9c3.6-.7 4.5-.3 5.7 2.8a397.8 397.8 0 0 1 7.5 36.6c0 .6-2.9 1.8-6.4 2.8a40 40 0 0 0-12.8 7.3c-3.6 3-8 8-10 11-1.9 3-4.6 8.9-6 13a62 62 0 0 0-2.4 18.5c0 9 .8 12.7 4 19.3a29 29 0 0 0 10.8 12.5c4.8 3 8.8 4.3 13 4.3 3.3 0 8.8-1.3 12-2.8 3.4-1.5 9.2-6.2 13-10.5a59 59 0 0 0 10.3-16.4c2.3-6 3.3-12 3.3-20.1 0-9.6-.6-13-4-20-2.9-5.8-6-9.6-10.4-12.4a45.7 45.7 0 0 1-7.1-5.4c-.6-.7-1.4-4.8-2-9-.5-4.2-2.4-13.4-4.2-20.3-2-8-2.6-12.9-1.6-13.2.8-.3 5.2-2.7 9.6-5.4 4.4-2.6 9.6-7 11.4-9.9a20 20 0 0 0 3.5-11.5c0-4.7-1-7.6-4-11-2.8-3.4-5-4.6-8.6-4.6-2.9 0-8.2 2-13.4 5.4Zm17 3.6c1.6 1.6 3 4.2 3 5.7 0 1.6-1.6 5-3.4 7.8a42 42 0 0 1-11.6 9.6c-7.7 4.3-9.2 4.6-23.2 4.5-10.5 0-16.7-.8-20.5-2.5-3-1.3-6.6-4-8-6-1.7-2.8-2-4.7-1-7.5.9-2 3.6-4.5 6.2-5.6 3.6-1.5 6.5-1.6 13-.2a91 91 0 0 0 14.6 1.7c4.1 0 9.4-1.8 15.9-5.2a89.1 89.1 0 0 1 10.8-5.3c.7 0 2.5 1.3 4.2 3ZM34 282.8c-.5.8-.6 2-.1 2.8.4.7 4.2 1.7 8.4 2.1 4.2.6 11.1 2.6 15.4 4.5 4.3 2 12.5 8 18.2 13.4l10.5 9.8-5.2 2.2a34.6 34.6 0 0 0-10.2 7.9c-3.4 3.8-4.8 6.8-4.5 9.4.2 2.2 1.2 4.2 2.1 4.5 1 .3 2.5-1.4 3.4-3.7 1-2.3 4-5.7 6.8-7.6 4.2-2.9 6.7-3.4 14.1-3 5 .2 9.5 0 10-.5.5-.6-2.4-5-6.5-9.8-4-4.8-11.4-12.7-16.4-17.4A81 81 0 0 0 63 285c-6-2.8-10.6-3.7-18-3.7-5.6 0-10.5.6-11 1.5Zm321.3 102.7c2.9 2 8 5.9 11.2 8.8 5 4.5 5.7 5.7 3.8 7a14 14 0 0 1-6.5 1.5c-2.3 0-6-1-8.4-2.2a22.1 22.1 0 0 1-7.2-7.1 39.6 39.6 0 0 1-4-9.2c-1-3.9-.7-4.1 2.4-3.2 2 .5 5.8 2.5 8.7 4.4Z" clip-rule="evenodd"/>
  <path fill="#CEF0FF" fill-rule="evenodd" d="M76.6 240.2a88 88 0 0 1 34.3 35.9 224 224 0 0 1 10.2 24 70.4 70.4 0 0 1 2.4 39.2c-1 3.4-4.8 9.5-8.4 13.6a70 70 0 0 1-16 12.4c-7.5 4-11.7 5.1-20.4 5.7-10.4.7-11.7.4-22.6-5a77.3 77.3 0 0 1-22.9-17 86 86 0 0 1-23.9-41.7 97 97 0 0 1-1-20.6c.4-7.5 2-15.5 4.1-21 2.4-6.4 6-11.6 11.8-17.5 5.1-5 11-9.3 15.1-10.8 4.8-1.8 10-2.3 17.8-1.9 8 .5 13.3 1.8 19.5 4.8ZM34 285.6c-.5-.8-.4-2 0-2.8.6-.9 5.5-1.5 11-1.5 7.5 0 12 1 18 3.7a81 81 0 0 1 17 12.4c5 4.7 12.5 12.6 16.5 17.4 4.1 4.9 7 9.2 6.5 9.8-.5.5-5 .7-10 .4-7.4-.3-9.9.2-14 3-2.9 2-6 5.4-6.9 7.7-1 2.3-2.5 4-3.4 3.7-.9-.3-1.9-2.3-2.1-4.4-.3-2.7 1-5.7 4.5-9.5 2.7-3.1 7.3-6.7 10.2-7.9l5.2-2.2-10.5-9.8a90.6 90.6 0 0 0-18.2-13.4c-4.3-2-11.2-4-15.4-4.4-4.2-.5-8-1.5-8.4-2.2Z" clip-rule="evenodd"/>
  <path fill="#fff" d="M231.8 216.7c7.4.9 16.7 1.5 20.6 1.5 6.4 0 7.3.5 9.7 5a32 32 0 0 1 2.6 14.6c0 8-.7 11-4.1 16.9-2.3 4-7 9-10.4 11.2-5.4 3.6-7.7 4.1-17.6 4.1-10 0-12.3-.5-17.7-4.1a44 44 0 0 1-10.4-10.4c-3.5-5.4-4.1-7.8-4.1-16.9 0-8.9.6-11.8 4.1-17.6 3.8-6.5 4.5-7 9-6.4l18.3 2.1Zm242.4-16.6c3 3.4 5.8 8.3 6.4 11.4.5 3 .7 8.7.3 12.8-.4 4.3-2.2 9.6-4.3 12.7-2 3-6.5 7.3-10 9.6a38.4 38.4 0 0 1-13 5.3c-3.7.6-9.2.3-12.3-.5-3.2-1-8-3-10.6-4.6a34.8 34.8 0 0 1-14.7-22c-.6-3.6-.6-8.8 0-11.5a23 23 0 0 1 2.8-7.7c1.4-2 5.3-3 14.6-4a199.4 199.4 0 0 0 34.6-7.2c.5-.1 3.3 2.5 6.2 5.7Z"/>
  <path fill="#FEFFB9" d="M386.9 249.8c1.6 1.6 3 4.2 3 5.7 0 1.6-1.6 5-3.4 7.8a42 42 0 0 1-11.6 9.6c-7.7 4.3-9.2 4.6-23.2 4.5-10.5 0-16.7-.8-20.5-2.5-3-1.3-6.6-4-8-6-1.7-2.8-2-4.7-1-7.5.9-2 3.6-4.5 6.2-5.6 3.6-1.5 6.5-1.6 13-.2a91 91 0 0 0 14.6 1.7c4.1 0 9.4-1.8 15.9-5.2a89.1 89.1 0 0 1 10.8-5.3c.7 0 2.5 1.3 4.2 3Z"/>
  <path fill="#CEBDFE" d="M300.7 11.2a220.2 220.2 0 0 1 52 17.3c6 3 15.7 8.7 21.4 12.5a182.4 182.4 0 0 1 43.4 44c8 12 8.7 13.5 7 16.6-1 2-5.3 5.8-9.6 8.6a96.2 96.2 0 0 1-17.5 8.4 180.4 180.4 0 0 1-44.8 8c-4.6 0-14.5-.6-22-1.4-7.3-.9-22.8-3.3-34.4-5.5a125 125 0 0 0-36.7-3c-8.6.5-20.4 2.2-26.2 3.8-5.7 1.7-14.5 4.8-19.4 7a197.6 197.6 0 0 0-48.4 34 173 173 0 0 0-18 21.4c-3.8 5.7-8.5 15.1-10.4 21-2 5.8-4.2 15.7-5.1 22a50 50 0 0 0 .6 21.7 173 173 0 0 0 4.4 16c1.2 3.2 4.2 7.8 6.6 10.3a76 76 0 0 0 10.7 9.1 106.2 106.2 0 0 0 32.6 15.3l17.8 4a27 27 0 0 1 15.3 7.8c4.2 3.9 7.5 8.8 9.5 14.1a54 54 0 0 1 3 17.6 132 132 0 0 1-4.6 27.3 78.2 78.2 0 0 0-4 28c.6 6.9 2.1 12.8 5 18.6a85 85 0 0 0 32.6 32.8c5.7 3.2 15.1 7.3 21 9.1a174 174 0 0 0 55 6.5c13-.5 14.4-.4 10 1.2a174.5 174.5 0 0 1-50.6 6.6c-9.6 0-23.3-1-30.3-2.3a174.8 174.8 0 0 1-48.2-15.8c-6.5-3.4-16.4-9.5-21.9-13.6a249.6 249.6 0 0 1-48.4-52c-5.4-8.2-9.9-15.6-9.9-16.5a60 60 0 0 0-5.4-11.1l-5.4-9.6 2.5-6.7a78.5 78.5 0 0 0 3.3-17.3c.6-7.3 0-13.6-1.7-21A147.2 147.2 0 0 0 98 245.3a33.3 33.3 0 0 1-7.7-10.8 642.9 642.9 0 0 0-15.7-59.3c-3-8.6-7.4-18.7-9.9-22.4-2.8-4-7.7-8.5-12.6-11.2a52.4 52.4 0 0 1-9.8-6.7c-1-1.3-1.4-3.8-.8-6.3a42 42 0 0 1 9.6-12.4c4.6-4.6 14-12.5 20.7-17.6a643 643 0 0 1 31.4-21.9 228.6 228.6 0 0 0 21.3-15c1.2-1.4 1.7-4 1.2-6-.5-1.8-3.9-5.5-7.5-8a42.7 42.7 0 0 1-10.4-11.3c-2.1-3.6-4-7.8-4.3-9.5-.5-2.9.6-3 33.2-4a236 236 0 0 0 65.2-7.7c17.3-3.7 33.4-7.2 36-7.6 2.4-.4 14.2-.4 26.1-.1 14.2.4 27 1.7 36.7 3.7Z"/>
  <path fill="#CEF0FF" fill-rule="evenodd" d="M435.2 115.8a155.6 155.6 0 0 1 10.1 33.4 183.4 183.4 0 0 1 1 41.6 135.6 135.6 0 0 1-28.3 4.9c-5 0-5.7-.4-5.7-3.5 0-2-1-4.4-2.2-5.5-1.8-1.5-2.7-1.5-4.5 0-1.3 1.1-2.3 4.4-2.3 7.7 0 4.9.7 6.2 3.8 7.6 2.6 1.2 3.6 2.5 3 4.1a41 41 0 0 0 7.7 38.9c2.9 3.5 8.6 8 12.5 10 3.9 2 10.5 4 14.7 4.6l7.5 1 5.2 13.7a180.4 180.4 0 0 1 13 45.7 79.4 79.4 0 0 1 .1 25c-.9 7.1-3.5 18.2-5.8 24.7s-7 16.6-10.6 22.6a127.2 127.2 0 0 1-36 37.9A168.4 168.4 0 0 1 398 443c-5 2.5-13.4 5.9-19 7.6a176.8 176.8 0 0 1-84.7 1.8c-6.8-1.7-17-5.4-22.8-8.3a84.2 84.2 0 0 1-33.7-30.9 41.4 41.4 0 0 1-5-17c-.5-7.1.4-13.3 4.2-27.9a80 80 0 0 0 4-31 46.8 46.8 0 0 0-4.7-20.2 61.7 61.7 0 0 0-7.9-12.1 36 36 0 0 0-8.5-6.3c-2.6-1.3-10.8-3.6-18.2-5.2-7.4-1.6-17.2-4.4-21.9-6.1a105 105 0 0 1-18.7-10.5 71 71 0 0 1-14.4-13 58.7 58.7 0 0 1-8-34.5c.5-5.1 2-12.7 3.2-16.8a125.1 125.1 0 0 1 28-44.8 182 182 0 0 1 22.6-19.8c6-4 14.8-9.4 19.8-12 4.9-2.4 13.7-6 19.4-7.8 7-2.2 16-3.5 27-4 14-.7 19.6-.2 38.2 3.4 19 3.7 25.2 4.3 49.4 4.3 22.2 0 30-.5 39-2.8 6.1-1.5 16.6-5.3 23.2-8.4a99 99 0 0 0 21.9-13.5c.5 0 2.6 3.9 4.7 8.6Zm-169.7 86.7c0-1.1.9-2.4 1.9-2.8 1-.4 2.6-.6 3.4-.4.8.3 1.7 2.3 2 4.6.3 2.6-.7 5.9-2.5 8.3-3 4-3 4 0 13a36.8 36.8 0 0 1 2.2 16.6 48.4 48.4 0 0 1-5 15.6 48.7 48.7 0 0 1-9.4 12 41 41 0 0 1-29.6 8.5c-7-.6-11.4-2-16.5-5.1a52.8 52.8 0 0 1-12-10.8 44.9 44.9 0 0 1-6.5-12.7 45 45 0 0 1 2.9-29.4c3.2-6.3 3.2-6.4.4-7.2-1.6-.4-3.3-1.6-3.7-2.6a5 5 0 0 1 .5-3.9c1-1.6 5.5-1.5 25.7.6 13.5 1.3 28.3 2.5 33 2.5 5.7 0 9.3-.8 10.9-2.4 1.3-1.3 2.3-3.3 2.3-4.4Zm88.7 48.2c6.3.8 7.9.4 15.7-4.5a31.7 31.7 0 0 1 13.4-5.4c3.5 0 5.8 1.2 8.7 4.6 2.8 3.4 3.9 6.3 3.9 11a20 20 0 0 1-3.5 11.5c-1.8 2.8-7 7.3-11.4 10-4.4 2.6-8.8 5-9.6 5.3-1 .3-.3 5.2 1.6 13.2 1.8 7 3.7 16 4.2 20.3.6 4.2 1.4 8.3 2 9 .5.8 3.7 3.2 7.1 5.4 4.4 2.8 7.5 6.6 10.4 12.4 3.4 7 4 10.4 4 20 0 8.1-1 14-3.3 20.1-1.8 4.9-6.2 12-10.2 16.4-3.9 4.3-9.7 9-13 10.5a35.5 35.5 0 0 1-12.1 2.8c-4.2 0-8.3-1.3-13-4.3-5-3.2-7.9-6.6-10.8-12.5-3.2-6.6-4-10.4-4-19.3 0-6.6 1-14.1 2.4-18.5 1.4-4.1 4.1-10 6-13 2-3 6.4-8 10-11 3.5-3.1 9.3-6.4 12.8-7.3 3.5-1 6.4-2.2 6.4-2.8a397.8 397.8 0 0 0-7.5-36.6c-1.2-3-2.1-3.5-5.7-2.8a69 69 0 0 1-16.2-1c-6.5-1-14.3-3-17.4-4.6-3-1.6-6.6-4.8-7.9-7.3a23 23 0 0 1-2.2-8.8c0-2.4 1.3-6 3-8 1.5-2.2 5-4.7 7.5-5.7 3-1.3 7.6-1.6 13.1-1 4.7.5 11.7 1.3 15.6 1.9Z" clip-rule="evenodd"/>
  <path fill="#E88E97" d="M355.4 385.5c2.9 2 8 5.9 11.2 8.8 5 4.5 5.7 5.7 3.8 7a14 14 0 0 1-6.5 1.5c-2.3 0-6-1-8.4-2.2a22.1 22.1 0 0 1-7.2-7.1 39.6 39.6 0 0 1-4-9.2c-1-3.9-.7-4.1 2.4-3.2 2 .5 5.8 2.5 8.7 4.4Z"/>
  <path fill="#000" fill-rule="evenodd" d="M241.6.8c-7 .7-25.2 3.7-40.5 6.7-25.2 5-30.8 5.6-62.1 6.5-23.4.7-35.6 1.6-38 3-1.8 1-4 3.6-4.8 5.6-1 2.5-1 5.8 0 9.5a49.6 49.6 0 0 0 15.6 21.6c2.2 1.4 4 3.2 4 4 0 .8-8.7 7-19.2 14a536.7 536.7 0 0 0-34 24.5c-8.3 6.6-17.6 15-20.7 18.5a42 42 0 0 0-7.3 12c-1.3 4.5-1.1 6.4.8 10.1 1.3 2.6 6.3 7.2 11 10.4a33 33 0 0 1 14 16.3c2.8 5.8 7 17.2 9.5 25.5a851 851 0 0 1 7.7 29.2c1.9 7.9 3.3 14.4 3.1 14.6-.2.2-4.3-.7-9.2-2-5-1.3-13-2.4-18-2.5-6.7 0-11.2 1-18.3 4.2-6.7 3-12 6.9-18.2 13.6a57.8 57.8 0 0 0-12.2 18.2 74.9 74.9 0 0 0-4 24.5c-.5 11.7 0 18.2 1.8 25.5 1.4 5.3 5 14.1 8 19.5 3 5.7 10.4 14.8 17.4 21.9a84.5 84.5 0 0 0 21.8 16.9 87 87 0 0 0 19.3 6.3 50.9 50.9 0 0 0 33.3-5.6c4-2.2 10-6.5 13.4-9.5l6-5.6 8.2 14a125 125 0 0 1 8.2 15.3c0 .8 3.8 6.7 8.4 13.1 2.6 3.6 4.4 6.2 5.5 8.1 0 0 15.4 17.8 19.4 21.8 4 4 18 16.9 25 21.5 6.7 4.4 15.6 8.8 18.8 10.5a199.4 199.4 0 0 0 82.7 18.3c47-1.5 67.5-12.3 67.5-12.3 6.5-2 17-7.6 25.3-11.6 8.4-4 19.4-10 24.5-13.5a158.8 158.8 0 0 0 37.9-34.7 130.3 130.3 0 0 0 22.5-47.1c1.3-5.8 2.8-16.6 3.4-24 .6-8.4.3-18.1-.8-25.5-1-6.5-4-18.3-6.8-26.2a353 353 0 0 0-8-21l-3-6.7 7.8-4.6c4.6-2.8 9.6-7.5 12.5-11.7a53 53 0 0 0 6.4-15.2 32 32 0 0 0 0-15.1c-.8-4-3.6-10.1-6-13.7-4.2-6-4.3-6.5-1.6-7.4a6.5 6.5 0 0 0 3.7-3.1c.5-1.3-.1-2.7-1.4-3.2-1.3-.5-7.6.6-14 2.3-6.5 1.8-12 3.2-12.5 3.2-.4 0-1-10.3-1.5-22.9a118 118 0 0 0-4.6-35.6c-2-7-6-17.5-8.5-23.3-2.6-5.7-9-17-14.4-25.1-5.4-8-15.3-20.2-22-27a213.5 213.5 0 0 0-22-19.3c-5.4-3.8-14.5-9.3-20.2-12.2-5.8-2.9-18-7.7-27-10.7-9-3-22.2-6.7-29.2-8.3A201 201 0 0 0 264 0c-5.3-.3-15.4 0-22.4.7Zm87.2 17.9A215.3 215.3 0 0 0 264 7.5c-12-.3-23.8-.3-26.3.1s-18.6 3.9-36 7.6a243.5 243.5 0 0 1-65 7.8c-32.7.9-33.8 1-33.3 4a42.7 42.7 0 0 0 14.7 20.7c3.6 2.5 7 6.2 7.5 8 .5 2 0 4.6-1.2 6-1.1 1.3-10.7 8.1-21.3 15-10.6 7-24.7 16.8-31.4 21.9-6.7 5-16 13-20.7 17.6a42 42 0 0 0-9.6 12.4c-.6 2.5-.3 5 .8 6.3a53 53 0 0 0 9.8 6.7c4.9 2.7 9.8 7.1 12.6 11.2a116 116 0 0 1 9.8 22.4 601 601 0 0 1 15.8 59.3 33 33 0 0 0 7.7 10.8 162 162 0 0 1 26 39.5c2.7 5.9 6 15.5 7.5 21.2a62.7 62.7 0 0 1 1.7 21 75 75 0 0 1-3.3 17.3l-2.5 6.7 5.4 9.6a60 60 0 0 1 5.4 11c0 1 4.5 8.4 10 16.6 5.4 8.2 16.2 21.6 24 29.8a268 268 0 0 0 24.3 22.2 168.5 168.5 0 0 0 70.1 29.4 216.8 216.8 0 0 0 61.8-.2 183 183 0 0 0 19-4.1c4.5-1.6 3.2-1.7-10-1.2a174 174 0 0 1-55-6.4c-5.8-2-15.2-6-20.9-9.2a85 85 0 0 1-32.7-32.8 48.8 48.8 0 0 1-4.8-18.6c-.6-8 .2-13.7 4-28 2.7-10.8 4.6-21.7 4.6-27.3a54 54 0 0 0-3-17.6c-2-5.3-5.4-10.2-9.6-14.1a27 27 0 0 0-15.3-7.8l-17.8-4a106.2 106.2 0 0 1-32.6-15.3 83.1 83.1 0 0 1-10.7-9 37.1 37.1 0 0 1-6.6-10.3c-1.1-3.2-3.1-10.4-4.4-16.1a50 50 0 0 1-.6-21.8c.9-6.2 3.2-16 5.1-22 2-5.8 6.6-15.2 10.4-21a173 173 0 0 1 18-21.4 197.6 197.6 0 0 1 48.4-34c4.9-2.1 13.7-5.2 19.4-6.9 5.8-1.6 17.6-3.3 26.2-3.8a125 125 0 0 1 36.7 3c11.6 2.2 27 4.6 34.5 5.5 7.4.8 17.3 1.5 21.9 1.5a158.7 158.7 0 0 0 44.8-8 96.2 96.2 0 0 0 17.5-8.5c4.3-2.8 8.6-6.6 9.6-8.6 1.7-3.1 1-4.7-7-16.6A182.4 182.4 0 0 0 374 41a248 248 0 0 0-21.4-12.5c-6-3-16.8-7.4-24-9.8Zm112.6 114c-1.3-4.5-4-12.1-6.2-16.9a30.2 30.2 0 0 0-4.7-8.6 99 99 0 0 1-21.9 13.4c-6.6 3.2-17 7-23.2 8.5-9 2.3-16.8 2.8-39 2.8-24.2 0-30.4-.6-49.4-4.3a126 126 0 0 0-38.2-3.5c-11 .6-20 2-27 4.1-5.7 1.9-14.5 5.4-19.4 7.9-5 2.5-13.9 7.8-19.8 12-6 4-16.1 13-22.6 19.7-7.3 7.6-14.5 17-18.8 24.7-3.8 6.9-8 15.9-9.2 20-1.2 4.2-2.7 11.8-3.2 16.9a58.7 58.7 0 0 0 8 34.5 71 71 0 0 0 14.4 13 105 105 0 0 0 18.7 10.5c4.7 1.7 14.5 4.5 22 6 7.3 1.7 15.5 4 18 5.3 2.6 1.2 6.5 4 8.6 6.3 2.1 2.2 5.7 7.7 7.9 12.1 3 6 4.2 11.1 4.8 20.3a80 80 0 0 1-4 31 80.2 80.2 0 0 0-4.2 27.9 40 40 0 0 0 5 17 84.2 84.2 0 0 0 13.7 16.7c5.2 4.9 14.2 11.2 20 14.1 5.6 3 15.9 6.6 22.7 8.3a199 199 0 0 0 28 3.9 176.8 176.8 0 0 0 56.7-5.7c5.6-1.7 14-5.1 19-7.6a168.4 168.4 0 0 0 40.7-30.6c5-5 12-14.2 15.6-20.1 3.5-6 8.3-16.1 10.6-22.6 2.3-6.5 4.9-17.6 5.8-24.7a79.4 79.4 0 0 0 0-25c-1-6.7-3.1-16.6-4.8-22a477 477 0 0 0-8.3-23.7l-5.2-13.7-7.5-1a55 55 0 0 1-14.7-4.6c-4-2-9.6-6.5-12.6-10a41 41 0 0 1-7.7-39c.7-1.6-.3-2.9-2.9-4-3-1.5-3.8-2.8-3.8-7.7 0-3.3 1-6.6 2.3-7.7 1.8-1.5 2.7-1.5 4.5 0a8 8 0 0 1 2.2 5.5c0 3.1.7 3.5 5.7 3.5a135.6 135.6 0 0 0 28.3-5 183.4 183.4 0 0 0-1-41.5 197 197 0 0 0-3.9-16.5Zm39.2 78.8c-.6-3-3.4-8-6.4-11.4a25.8 25.8 0 0 0-6.2-5.7c-.6 0-5.7 1.4-11.5 3a179 179 0 0 1-23.1 4.2c-9.3 1-13.2 2-14.6 4a23 23 0 0 0-2.9 7.7c-.5 2.7-.5 8 0 11.6a34.8 34.8 0 0 0 14.8 22c2.7 1.6 7.4 3.6 10.6 4.5 3 .8 8.6 1 12.3.5a38 38 0 0 0 23-14.9c2.1-3.1 3.9-8.4 4.3-12.7.4-4 .2-9.8-.3-12.8ZM94.8 254a80.3 80.3 0 0 0-18.2-14c-6.2-3-11.5-4.2-19.5-4.7-7.8-.4-13 .1-17.8 1.9-4 1.5-10 5.7-15 10.8-6 6-9.5 11-11.9 17.4a75.9 75.9 0 0 0-4.2 21 97 97 0 0 0 1.1 20.7 86 86 0 0 0 24 41.7 76.4 76.4 0 0 0 22.8 17.1c11 5.4 12.2 5.7 22.6 5a42 42 0 0 0 20.4-5.7 70 70 0 0 0 16-12.4 45 45 0 0 0 8.4-13.6 72.7 72.7 0 0 0-2.4-39.3 244 244 0 0 0-10.3-24 88 88 0 0 0-16-21.9Z" clip-rule="evenodd"/>
  <path fill="#000" d="M34 282.8c-.4.8-.5 2 0 2.8.4.7 4.2 1.7 8.4 2.1 4.2.6 11.1 2.6 15.4 4.5 4.3 2 12.5 8 18.2 13.4l10.5 9.8-5.2 2.2a34.6 34.6 0 0 0-10.2 7.9c-3.4 3.8-4.8 6.8-4.5 9.4.2 2.2 1.2 4.2 2.1 4.5 1 .3 2.5-1.4 3.4-3.7 1-2.3 4-5.7 6.8-7.6 4.2-2.9 6.7-3.4 14.1-3 5 .2 9.5 0 10-.5.5-.6-2.4-5-6.5-9.8-4-4.8-11.4-12.7-16.4-17.4A81 81 0 0 0 63 285c-6-2.8-10.6-3.7-18-3.7-5.6 0-10.5.6-11 1.5Z"/>
  <path fill="#000" fill-rule="evenodd" d="M267.4 199.7c-1 .4-1.9 1.7-1.9 2.8 0 1.1-1 3-2.3 4.4-1.6 1.6-5.2 2.3-10.9 2.4-4.7 0-19.5-1.2-33-2.5-20.2-2.1-24.6-2.2-25.7-.6a5 5 0 0 0-.5 3.9c.4 1 2 2.2 3.7 2.6 2.8.8 2.8 1-.4 7.2a45 45 0 0 0-2.9 29.4c1 3.5 3.9 9.2 6.6 12.7 2.7 3.6 8 8.4 11.9 10.8 5 3.1 9.5 4.5 16.5 5a41 41 0 0 0 29.6-8.4 47 47 0 0 0 9.5-12 48.4 48.4 0 0 0 5-15.6c.5-5.6-.1-10.3-2.3-16.7-3-8.9-3-8.9 0-12.9 1.8-2.4 2.8-5.7 2.5-8.3-.3-2.3-1.2-4.3-2-4.6a7 7 0 0 0-3.4.4Zm-15 18.5c-4 0-13.2-.6-20.6-1.5l-18.3-2.1c-4.5-.6-5.2 0-9 6.4-3.5 5.8-4.1 8.7-4.1 17.6 0 9 .6 11.5 4.1 16.9a44 44 0 0 0 10.4 10.4c5.4 3.6 7.7 4.1 17.7 4.1s12.2-.5 17.6-4c3.4-2.3 8-7.4 10.4-11.3 3.4-6 4.2-9 4.1-17 0-6.3-1-11.4-2.6-14.6-2.4-4.4-3.3-4.9-9.7-4.9Zm117.5 28c-7.8 4.9-9.4 5.3-15.7 4.5l-15.6-2c-5.5-.5-10.2-.2-13.1 1a22 22 0 0 0-7.6 5.7c-1.6 2-3 5.7-3 8.1 0 2.4 1 6.4 2.3 8.8 1.3 2.5 4.8 5.7 8 7.3 3 1.6 10.8 3.7 17.3 4.7a69 69 0 0 0 16.2.9c3.6-.7 4.5-.3 5.7 2.8a397.8 397.8 0 0 1 7.5 36.6c0 .6-2.9 1.8-6.4 2.8a40 40 0 0 0-12.8 7.3c-3.6 3-8 8-10 11-1.9 3-4.6 8.9-6 13a62 62 0 0 0-2.4 18.5c0 9 .8 12.7 4 19.3a29 29 0 0 0 10.8 12.5c4.8 3 8.8 4.3 13 4.3 3.3 0 8.8-1.3 12-2.8 3.4-1.5 9.2-6.2 13-10.5a59 59 0 0 0 10.3-16.4c2.3-6 3.3-12 3.3-20.1 0-9.6-.6-13-4-20-2.9-5.8-6-9.6-10.4-12.4a45.7 45.7 0 0 1-7.1-5.4c-.6-.7-1.4-4.8-2-9-.5-4.2-2.4-13.4-4.2-20.3-2-8-2.6-12.9-1.6-13.2.8-.3 5.2-2.7 9.6-5.4 4.4-2.6 9.6-7 11.4-9.9a20 20 0 0 0 3.5-11.5c0-4.7-1-7.6-4-11-2.8-3.4-5-4.6-8.6-4.6-2.9 0-8.2 2-13.4 5.4Zm20 9.3c0-1.5-1.4-4-3-5.7-1.7-1.7-3.5-3-4.2-3a80 80 0 0 0-10.8 5.3 36.2 36.2 0 0 1-15.9 5.2 91 91 0 0 1-14.5-1.7c-6.6-1.4-9.5-1.3-13.1.2a12 12 0 0 0-6.1 5.6c-1 2.8-.8 4.7 1 7.4a21 21 0 0 0 7.9 6.1c3.8 1.7 10 2.5 20.5 2.5 14 .1 15.5-.2 23.2-4.5 4.5-2.6 9.7-7 11.6-9.6a19 19 0 0 0 3.4-7.8Zm-23.3 138.8c-3.3-3-8.3-6.9-11.2-8.8a43.2 43.2 0 0 0-8.7-4.4c-3.1-1-3.3-.7-2.4 3.2.6 2.4 2.3 6.5 4 9.2 1.6 2.7 4.8 5.9 7.2 7.1 2.3 1.2 6.1 2.2 8.4 2.2a14 14 0 0 0 6.5-1.5c1.9-1.3 1.2-2.5-3.8-7Z" clip-rule="evenodd"/>
</svg>
