<svg xmlns="http://www.w3.org/2000/svg" fill="none" viewBox="0 0 485 475">
  <path fill="#000" fill-rule="evenodd" d="M272.3 7.4c5 .4 13.1 1.4 18 2.1a253.3 253.3 0 0 1 37 9.4A217 217 0 0 1 357 31.6a171.7 171.7 0 0 1 23.8 15.9A191 191 0 0 1 406.3 73c3 4 8 10.7 10.9 15 2.8 4.4 5.2 8.7 5.2 9.6 0 1-.7 2.7-1.4 4-.8 1.2-3.3 3.7-5.5 5.5a78.7 78.7 0 0 1-11.2 6.8c-4 1.9-9.7 4.3-12.8 5.3a162.8 162.8 0 0 1-31.3 6c-5 .6-12.3.7-17.7.4a323 323 0 0 1-45.4-6c-8.1-1.6-18.6-3.3-23.5-3.7-6.5-.6-10.9-.6-17.5 0a126.8 126.8 0 0 0-48.5 13.9 89.7 89.7 0 0 1-16.1 6.4c-3 .6-7.1 2.2-9.2 3.5a21.8 21.8 0 0 0-9 11c-.2 1-4 5.5-8.3 10-4.3 4.5-9.6 10.6-11.8 13.5a133.8 133.8 0 0 0-14.6 25.3c-1.8 4-4 10.5-5 14.3a71.4 71.4 0 0 0-2.1 16.9 65.9 65.9 0 0 0 3.3 25.3 54.6 54.6 0 0 0 11.5 17 91.8 91.8 0 0 0 21.2 14.8 109 109 0 0 0 31.1 10.1c6 1.2 12.7 2.9 14.8 3.8 2.3 1 5.4 3.3 7.7 5.6a39 39 0 0 1 6.3 9c1.4 3 3 7.3 3.8 9.9a52 52 0 0 1 1.1 13.5c0 7.5-.4 10-2.2 17l-4 15.3a63.6 63.6 0 0 0-2.3 14.6 43.2 43.2 0 0 0 4.4 23.4c1.4 2.9 4 7.1 5.6 9.5a94 94 0 0 0 53.5 34 204 204 0 0 0 15 3c6.3 1 12.5 1.3 26.7 1.3a230.5 230.5 0 0 0 30-1.5 45 45 0 0 1-7.4 2.5 263.2 263.2 0 0 1-33 7 180 180 0 0 1-23.7 1.2 167.8 167.8 0 0 1-39.4-4.2l-11.7-3.1a189.2 189.2 0 0 1-25.4-10.5 193.8 193.8 0 0 1-31-20.6 210.2 210.2 0 0 1-36.8-41.2 339.8 339.8 0 0 1-20.3-33l-4-7.4 1.8-4a53 53 0 0 0 4-23.6c0-7.6-.2-10.5-1.8-16.7a122 122 0 0 0-10.5-27 121 121 0 0 0-21.5-30.9c-7-7.2-7.5-8-8.3-11.6l-3.6-16.7a622.8 622.8 0 0 0-13-47.2c-1.5-4.1-3.8-9.7-5.2-12.5a43.1 43.1 0 0 0-8-10.3 42 42 0 0 0-10.4-8 26.7 26.7 0 0 1-6.5-4.4c-.8-1-1.6-2.8-1.9-4-.3-1.5.1-3 1.6-5.7 1-2 3.9-5.6 6.2-8a188 188 0 0 1 13.2-11.5A677.7 677.7 0 0 1 94 81.4l15.6-9.8a97 97 0 0 0 12.2-8.5c1.6-1.5 3.2-3.7 3.4-4.7a7 7 0 0 0-.4-4c-.6-1-2.8-3.1-4.9-4.6a72.9 72.9 0 0 1-8-6.7c-2.2-2.2-5-5.7-6-8a47.6 47.6 0 0 1-3-7c-.6-1.6-.8-3.2-.5-3.4.2-.3 2-.8 3.8-1 1.9-.4 13.8-.7 26.5-.7s26.5-.3 30.7-.7a223.4 223.4 0 0 0 31-5.4l25.6-5.7c8-1.7 17.3-3.4 20.6-3.8a207.2 207.2 0 0 1 31.7 0ZM430 111c1.8 3.6 2.8 6.7 2.5 7a787.7 787.7 0 0 1-38.9 14.2 307.1 307.1 0 0 1-34.5 8.8c-3 .6-11.1 1.6-18.1 2.3-8.5.7-21 1.1-37 1.2a308 308 0 0 1-58.9-4.1l-23-3.6-11.7-2 5-2.3a147 147 0 0 1 27.2-8.9c6.2-1.3 9.7-1.6 20.3-1.6 11 0 14 .3 22.3 2l19.6 3.6a251.7 251.7 0 0 0 42 3.9c6.2 0 14.6-.5 18.7-1a164 164 0 0 0 27.6-6.1 98.3 98.3 0 0 0 23.2-11 47.9 47.9 0 0 0 10.3-8.8c.2 0 1.8 2.8 3.4 6.4Zm30.9 10.6a19 19 0 0 1 4 6.2c1 2.5 1.6 6.5 1.9 10.5a57.5 57.5 0 0 1-2.7 20.7 18.1 18.1 0 0 1-5.6 8.8c-2.4 2.4-6 5-9 6.5a103 103 0 0 1-11.6 4.7 185.8 185.8 0 0 1-32.7 7.5 654.5 654.5 0 0 1-46.8 6.4 788.7 788.7 0 0 1-104.4 2.6c-14.7-.4-30-1.2-34-1.8-4.2-.5-9.2-1.5-11.1-2.1-2-.6-5.1-2.1-7-3.3a47 47 0 0 1-7-6.2c-2-2.2-5.1-6.2-7-9a50.7 50.7 0 0 1-5-8.8c-.8-2.2-1.5-5.8-1.6-8 0-3.1.3-4.5 1.4-6 .8-1.2 2.5-2.8 3.8-3.7 1.2-.8 4.7-2 7.7-2.7 4.1-1 7.3-1.1 14-.8 4.7.2 12 1 16.3 1.9a506.6 506.6 0 0 0 45.5 6c9.8 1 16.9 1.2 38 .9 14.2-.2 31.3-.9 38-1.5a153 153 0 0 0 24.4-4c6.8-1.5 16.7-4.1 22-5.7a945 945 0 0 0 28.8-10.1c10.5-4 22-8 25.6-9 3.5-1.2 7.5-2 9-2.1 2 0 3.2.5 5 2.1ZM175.3 166c.8 2.5 3.4 7.4 5.7 10.8a71.7 71.7 0 0 0 17.4 18.7 34 34 0 0 0 12.6 4.6l2.7.5-4.8 3.4a43 43 0 0 0-7.9 7.2 55.8 55.8 0 0 0-4.7 7.5 48 48 0 0 0-2.9 7.7 48.1 48.1 0 0 0 0 19.7 40.6 40.6 0 0 0 10.6 18.1c3.7 3.7 6.6 5.8 10.3 7.6a52 52 0 0 0 9.2 3.3 49.8 49.8 0 0 0 21.6-1.4 41.7 41.7 0 0 0 17.3-12 43.6 43.6 0 0 0 8.8-30.2c-.4-3-1.4-7-2.2-9.3a44.9 44.9 0 0 0-10.7-15.6l-3.6-3 35.7-.5c19.7-.2 41-.7 47.5-1.2a837.2 837.2 0 0 0 41.9-4 640 640 0 0 0 33.8-5.2 52.9 52.9 0 0 0-6.2 11.7 50.9 50.9 0 0 0-1.5 21.7c.5 2.2 2 6.4 3.4 9.2 1.8 3.7 3.9 6.6 7.6 10.3a39.7 39.7 0 0 0 18 10.6c2.3.6 6.2 1 8.8 1h4.7l5.5 14.3a235 235 0 0 1 11.8 38.8 99.5 99.5 0 0 1-.4 41.4 144.8 144.8 0 0 1-9.5 27.2c-2 4-4.7 9.1-6.1 11.4-1.5 2.2-2.8 4-3 3.8l-1.7-5.5a87 87 0 0 0-12-24.4 56.3 56.3 0 0 0-17.3-16.7 49 49 0 0 0-6.2-3c-2-.6-2.7-1.3-3-2.8-.3-1.4-1-2.1-2.2-2.5-1.2-.3-3.5.3-7 1.7a107.9 107.9 0 0 1-17.9 5 389 389 0 0 0-3.6-28.5A326.8 326.8 0 0 0 368 282c-.3-1 .5-1.6 4.2-3.3 2.5-1.2 6-3 7.8-4.3 1.7-1.2 4.7-3.7 6.5-5.5a26 26 0 0 0 5-7 17.4 17.4 0 0 0 1-12.7c-.5-1.8-2.1-4.2-4.2-6.3-3.3-3.3-3.5-3.4-7.6-3.3-2.5 0-5.3.5-7.1 1.3-1.7.8-5 2.7-7.3 4.3a52.5 52.5 0 0 1-6.4 3.8c-1.4.6-3.6.8-6.6.4-2.4-.3-7.5-1-11.2-1.7a66 66 0 0 0-12-.9c-3.5.2-6.3.8-8.2 1.8a22 22 0 0 0-4.8 3.5c-1 1-2.4 3.2-3 4.6-.6 1.5-1 4-1 5.7 0 1.7.5 4.3 1.3 6 .7 1.5 2.8 4.1 4.6 5.8a29 29 0 0 0 7.4 4.4 71 71 0 0 0 24.8 3.8l9.4.1 1 3.5a635 635 0 0 1 10.3 60v1.7l-9.7-.5c-5.4-.2-12.5-1-15.8-1.8A95.5 95.5 0 0 1 322 336c-3.7-2.1-7-3.5-8.3-3.5-1.6 0-2.3.4-3 1.7a3.7 3.7 0 0 0 0 3.4c.4 1 3.2 2.9 6.4 4.6 3.6 2 6.6 4.1 7.8 5.7a79.9 79.9 0 0 1 8.6 15 172 172 0 0 1 3.2 9.7c1 3 2.8 9.3 4 13.8a171.8 171.8 0 0 0 9.9 28 78.4 78.4 0 0 0 13.8 20.8c2.4 2.5 6.2 5.8 8.4 7.3 2.3 1.5 3.9 2.9 3.6 3-.3.2-3.4 1-7 1.9a188.1 188.1 0 0 1-38.3 3.8 187.4 187.4 0 0 1-36.5-3.4 121 121 0 0 1-22.4-7.7c-3.6-1.7-9-4.7-12-6.7a85.2 85.2 0 0 1-17.9-16.4 61.8 61.8 0 0 1-9-16.7c-1.2-4-1.5-6.5-1.5-12.1 0-6.3.6-9 4.2-22.7l4.2-15.7v-11.3a57 57 0 0 0-1.3-16 49.2 49.2 0 0 0-10.5-19.5 28.7 28.7 0 0 0-9.3-7.1c-3.8-1.9-8-3-16.1-4.7a110.1 110.1 0 0 1-31.5-10 87 87 0 0 1-19.9-14.5 42.3 42.3 0 0 1-11.5-22.8 68.4 68.4 0 0 1 .1-23 104.4 104.4 0 0 1 20.2-44.5 178.5 178.5 0 0 1 13-15c.2 0 1 2 1.9 4.5Zm279.4 20.7a35.6 35.6 0 0 1 14.8 9.6c1.4 1.7 3.6 5 4.7 7.4a44 44 0 0 1 2.9 9.1 28 28 0 0 1 0 10c-.5 2.7-1.9 7-3.1 9.6-1.3 2.6-4 6.3-6.1 8.5a33.4 33.4 0 0 1-36.9 6.5 38.4 38.4 0 0 1-8.7-6.2 32 32 0 0 1-6.9-9.4c-2.6-5.2-2.6-5.4-2.6-13.9 0-7.8.1-8.9 1.9-12.6a33.1 33.1 0 0 1 9.2-12.6c2-1.7 5.4-3.1 11.9-5 6.6-2 9.8-2.6 12.1-2.4 1.8.2 4.8.8 6.8 1.4Zm-216 17.7c2.6.5 6.4 1.9 8.5 3a34.2 34.2 0 0 1 17 24c.5 3.6.5 6-.1 9.8-.5 2.8-1.9 7.1-3.1 9.7a33.2 33.2 0 0 1-43 15 38.6 38.6 0 0 1-8.7-6.2 32 32 0 0 1-6.9-9.4c-2.6-5.3-2.6-5.5-2.6-14s0-8.6 2.6-14c1.5-3 4.1-6.8 5.8-8.6a41 41 0 0 1 6.1-5 37 37 0 0 1 17-5.3c1.4 0 4.7.4 7.4 1ZM71 235.7c3.2 1.1 8 3.5 10.8 5.3a92.1 92.1 0 0 1 18.5 16c3 3.6 6.2 8.6 10.2 16.4a134.5 134.5 0 0 1 12.6 31.6c1 4 2 9.9 2.2 13a45 45 0 0 1-1.1 13.1 37 37 0 0 1-3.8 11.3 61.7 61.7 0 0 1-17 17 97.6 97.6 0 0 1-9.7 4.8 54.7 54.7 0 0 1-22.3 3.5 52 52 0 0 1-19-7.2A107.8 107.8 0 0 1 32 344.2 112.5 112.5 0 0 1 18.5 326a80.5 80.5 0 0 1-8.8-24.6c-.4-2.5-.8-8.6-.8-13.5a56 56 0 0 1 5.8-27.2 54 54 0 0 1 13.5-18 52.3 52.3 0 0 1 14.7-8 41.1 41.1 0 0 1 16.8-1.3c3 .3 8 1.4 11.3 2.4Zm312.6 11.8a9.7 9.7 0 0 1 2.9 5.4c.4 2.3.2 3.7-1 6.2-.9 1.7-3.1 4.5-5 6.2a50 50 0 0 1-19 9.8 47 47 0 0 1-9.3 1.4 102.1 102.1 0 0 1-22.6-3.7c-2.2-.8-5-2.4-6.3-3.5-1.2-1.1-2.7-3-3.2-4.2a9.1 9.1 0 0 1-.4-4.5 9.3 9.3 0 0 1 2.4-4.2c1-1 2.8-2.2 4-2.6 1-.4 4.2-.8 7-.8s6.4.4 8 .7c1.5.4 5.2 1 8.1 1.5 4.4.6 6.1.5 9.6-.4a50 50 0 0 0 9.8-4.4 87 87 0 0 1 8.2-4.1c1.4-.5 3-1 3.6-1 .5 0 2 1 3.2 2.2ZM36.2 279.3c-1.2.5-1.5 1.2-1.4 2.7.2 1.8.5 2 6.3 2.8 3.3.4 8.1 1.3 10.6 2 2.6.6 6.5 2.1 8.8 3.3 2.2 1.2 6.4 4.1 9.2 6.4 2.8 2.4 7.9 7 11.3 10.4 3.4 3.3 6 6.3 5.8 6.6-.2.3-1 .6-2 .6-.8 0-3.2.8-5.2 1.8a33 33 0 0 0-7.6 5.5c-2.6 2.6-4 4.7-4.3 6.3-.2 1.3-.3 3.7-.2 5.2.2 2.3.5 2.9 1.7 3 1.2.2 1.7-.4 2.7-3 .7-1.7 2.5-4.2 4-5.6a23.5 23.5 0 0 1 10.7-5.8 45 45 0 0 1 7.8.3c3 .4 6 .6 6.9.3.9-.2 1.6-.8 1.6-1.3s-2.5-4-5.5-7.6c-3-3.6-9.3-10.4-14-15.2-5-5-10.9-10-14-12-3-2-7.6-4.3-10.3-5.2a44.1 44.1 0 0 0-13-2c-4.7 0-9 0-9.9.5ZM403 351c1.7.4 4.9 1.6 7.1 2.6 2.7 1.3 6.1 4 10.2 8 3.4 3.5 7.5 8.5 9.5 11.6a78.2 78.2 0 0 1 8.6 20 63 63 0 0 1-.1 22.5c-.7 2-2.1 5.7-3.3 7.9a38 38 0 0 1-14.7 14 50 50 0 0 1-31.7 4c-2-.5-5.6-2-8-3.3a52.6 52.6 0 0 1-22.8-26.3 139.6 139.6 0 0 1-11-32.6 247.3 247.3 0 0 0-9.4-27.4c-.2-.5 1.5-.4 5 .4 2.8.7 7.2 1.5 9.7 1.8a55.4 55.4 0 0 1 33.2 18.3c2 2.2 5 6.1 6.9 8.7 1.8 2.5 3.9 4.7 4.6 5 .8.2 2 0 2.8-.4.7-.4 1.6-1.3 1.8-2a8 8 0 0 0-1-4.3 73 73 0 0 0-5.6-8 112 112 0 0 0-15.4-15.3l-2.1-1.5 2.1-.5a345 345 0 0 0 10-2.4c4.2-1.2 8.4-2 9.2-1.7l4.4 1Zm-.8 40.2c-.6.6-1.1 2-1.1 3.2 0 1.1.6 2.7 1.4 3.5.8.8 2.1 1.4 3 1.4 1 0 2.3-.6 2.9-1.3a6 6 0 0 0 1.2-3.4 5 5 0 0 0-1.3-3.4 5.4 5.4 0 0 0-3.2-1.1 6 6 0 0 0-3 1Z" clip-rule="evenodd"/>
  <path fill="#CEF0FF" d="M272.3 7.4c5 .4 13.1 1.4 18 2.1a253.3 253.3 0 0 1 37 9.4A217 217 0 0 1 357 31.6a171.7 171.7 0 0 1 23.8 15.9A191 191 0 0 1 406.3 73c3 4 8 10.7 10.9 15 2.8 4.4 5.2 8.7 5.2 9.6 0 1-.7 2.7-1.4 4-.8 1.2-3.3 3.7-5.5 5.5a78.7 78.7 0 0 1-11.2 6.8c-4 1.9-9.7 4.3-12.8 5.3a162.8 162.8 0 0 1-31.3 6c-5 .6-12.3.7-17.7.4a323 323 0 0 1-45.4-6c-8.1-1.6-18.6-3.3-23.5-3.7-6.5-.6-10.9-.6-17.5 0a126.8 126.8 0 0 0-48.5 13.9 89.7 89.7 0 0 1-16.1 6.4c-3 .6-7.1 2.2-9.2 3.5a21.8 21.8 0 0 0-9 11c-.2 1-4 5.5-8.3 10-4.3 4.5-9.6 10.6-11.8 13.5a133.8 133.8 0 0 0-14.6 25.3c-1.8 4-4 10.5-5 14.3a71.4 71.4 0 0 0-2.1 16.9 65.9 65.9 0 0 0 3.3 25.3 54.6 54.6 0 0 0 11.5 17 91.8 91.8 0 0 0 21.2 14.8 109 109 0 0 0 31.1 10.1c6 1.2 12.7 2.9 14.8 3.8 2.3 1 5.4 3.3 7.7 5.6a39 39 0 0 1 6.3 9c1.4 3 3 7.3 3.8 9.9a52 52 0 0 1 1.1 13.5c0 7.5-.4 10-2.2 17l-4 15.3a63.6 63.6 0 0 0-2.3 14.6 43.2 43.2 0 0 0 4.4 23.4c1.4 2.9 4 7.1 5.6 9.5a94 94 0 0 0 53.5 34 204 204 0 0 0 15 3c6.3 1 12.5 1.3 26.7 1.3a230.5 230.5 0 0 0 30-1.5 45 45 0 0 1-7.4 2.5 263.2 263.2 0 0 1-33 7 180 180 0 0 1-23.7 1.2 167.8 167.8 0 0 1-39.4-4.2l-11.7-3.1a189.2 189.2 0 0 1-25.4-10.5 193.8 193.8 0 0 1-31-20.6 210.2 210.2 0 0 1-36.8-41.2 339.8 339.8 0 0 1-20.3-33l-4-7.4 1.8-4a53 53 0 0 0 4-23.6c0-7.6-.2-10.5-1.8-16.7a122 122 0 0 0-10.5-27 121 121 0 0 0-21.5-30.9c-7-7.2-7.5-8-8.3-11.6l-3.6-16.7a622.8 622.8 0 0 0-13-47.2c-1.5-4.1-3.8-9.7-5.2-12.5a43.1 43.1 0 0 0-8-10.3 42 42 0 0 0-10.4-8 26.7 26.7 0 0 1-6.5-4.4c-.8-1-1.6-2.8-1.9-4-.3-1.5.1-3 1.6-5.7 1-2 3.9-5.6 6.2-8a188 188 0 0 1 13.2-11.5A677.7 677.7 0 0 1 94 81.4l15.6-9.8a97 97 0 0 0 12.2-8.5c1.6-1.5 3.2-3.7 3.4-4.7a7 7 0 0 0-.4-4c-.6-1-2.8-3.1-4.9-4.6a72.9 72.9 0 0 1-8-6.7c-2.2-2.2-5-5.7-6-8a47.6 47.6 0 0 1-3-7c-.6-1.6-.8-3.2-.5-3.4.2-.3 2-.8 3.8-1 1.9-.4 13.8-.7 26.5-.7s26.5-.3 30.7-.7a223.4 223.4 0 0 0 31-5.4l25.6-5.7c8-1.7 17.3-3.4 20.6-3.8a207.2 207.2 0 0 1 31.7 0Z"/>
  <path fill="#CEF0FF" d="M461 121.7a19 19 0 0 1 4 6.2c1 2.5 1.6 6.5 1.9 10.5a57.5 57.5 0 0 1-2.7 20.7 18.1 18.1 0 0 1-5.6 8.8c-2.4 2.4-6 5-9 6.5a103 103 0 0 1-11.6 4.7 185.8 185.8 0 0 1-32.7 7.5 654.5 654.5 0 0 1-46.8 6.4 788.7 788.7 0 0 1-104.4 2.6c-14.7-.4-30-1.2-34-1.8-4.2-.5-9.2-1.5-11.1-2.1-2-.6-5.1-2.1-7-3.3a47 47 0 0 1-7-6.2c-2-2.2-5.1-6.2-7-9a50.7 50.7 0 0 1-5-8.8c-.8-2.2-1.5-5.8-1.6-8 0-3.1.3-4.5 1.4-6 .8-1.2 2.5-2.8 3.8-3.7 1.2-.8 4.7-2 7.7-2.7 4.1-1 7.3-1.1 14-.8 4.7.2 12 1 16.3 1.9a506.6 506.6 0 0 0 45.5 6c9.8 1 16.9 1.2 38 .9 14.2-.2 31.3-.9 38-1.5a153 153 0 0 0 24.4-4c6.8-1.5 16.7-4.1 22-5.7a945 945 0 0 0 28.8-10.1c10.5-4 22-8 25.6-9 3.5-1.2 7.5-2 9-2.1 2 0 3.2.5 5 2.1Z"/>
  <path fill="#fff" d="M238.7 204.4c2.6.5 6.4 1.9 8.5 3a34.2 34.2 0 0 1 17 24c.5 3.6.5 6-.1 9.8-.5 2.8-1.9 7.1-3.1 9.7a33.2 33.2 0 0 1-43 15 38.6 38.6 0 0 1-8.7-6.2 32 32 0 0 1-6.9-9.4c-2.6-5.3-2.6-5.5-2.6-14s0-8.6 2.6-14c1.5-3 4.1-6.8 5.8-8.6a41 41 0 0 1 6.1-5 37 37 0 0 1 17-5.3c1.4 0 4.7.4 7.4 1Zm216-17.7a35.6 35.6 0 0 1 14.8 9.6c1.4 1.7 3.6 5 4.7 7.4a44 44 0 0 1 2.9 9.1 28 28 0 0 1 0 10c-.5 2.7-1.9 7-3.1 9.6-1.3 2.6-4 6.3-6.1 8.5a33.4 33.4 0 0 1-36.9 6.5 38.4 38.4 0 0 1-8.7-6.2 32 32 0 0 1-6.9-9.4c-2.6-5.2-2.6-5.4-2.6-13.9 0-7.8.1-8.9 1.9-12.6a33.1 33.1 0 0 1 9.2-12.6c2-1.7 5.4-3.1 11.9-5 6.6-2 9.8-2.6 12.1-2.4 1.8.2 4.8.8 6.8 1.4Z"/>
  <path fill="#FEFFB9" d="M175.3 166c.8 2.5 3.4 7.4 5.7 10.8a71.7 71.7 0 0 0 17.4 18.7 34 34 0 0 0 12.6 4.6l2.7.5-4.8 3.4a43 43 0 0 0-7.9 7.2 55.8 55.8 0 0 0-4.7 7.5 48 48 0 0 0-2.9 7.7 48.1 48.1 0 0 0 0 19.7 40.6 40.6 0 0 0 10.6 18.1c3.7 3.7 6.6 5.8 10.3 7.6a52 52 0 0 0 9.2 3.3 49.8 49.8 0 0 0 21.6-1.4 41.7 41.7 0 0 0 17.3-12 43.6 43.6 0 0 0 8.8-30.2c-.4-3-1.4-7-2.2-9.3a44.9 44.9 0 0 0-10.7-15.6l-3.6-3 35.7-.5c19.7-.2 41-.7 47.5-1.2a837.2 837.2 0 0 0 41.9-4 640 640 0 0 0 33.8-5.2 52.9 52.9 0 0 0-6.2 11.7 50.9 50.9 0 0 0-1.5 21.7c.5 2.2 2 6.4 3.4 9.2 1.8 3.7 3.9 6.6 7.6 10.3a39.7 39.7 0 0 0 18 10.6c2.3.6 6.2 1 8.8 1h4.7l5.5 14.3a235 235 0 0 1 11.8 38.8 99.5 99.5 0 0 1-.4 41.4 144.8 144.8 0 0 1-9.5 27.2c-2 4-4.7 9.1-6.1 11.4-1.5 2.2-2.8 4-3 3.8l-1.7-5.5a87 87 0 0 0-12-24.4 56.3 56.3 0 0 0-17.3-16.7 49 49 0 0 0-6.2-3c-2-.6-2.7-1.3-3-2.8-.3-1.4-1-2.1-2.2-2.5-1.2-.3-3.5.3-7 1.7a107.9 107.9 0 0 1-17.9 5 389 389 0 0 0-3.6-28.5A326.8 326.8 0 0 0 368 282c-.3-1 .5-1.6 4.2-3.3 2.5-1.2 6-3 7.8-4.3 1.7-1.2 4.7-3.7 6.5-5.5a26 26 0 0 0 5-7 17.4 17.4 0 0 0 1-12.7c-.5-1.8-2.1-4.2-4.2-6.3-3.3-3.3-3.5-3.4-7.6-3.3-2.5 0-5.3.5-7.1 1.3-1.7.8-5 2.7-7.3 4.3a52.5 52.5 0 0 1-6.4 3.8c-1.4.6-3.6.8-6.6.4-2.4-.3-7.5-1-11.2-1.7a66 66 0 0 0-12-.9c-3.5.2-6.3.8-8.2 1.8a22 22 0 0 0-4.8 3.5c-1 1-2.4 3.2-3 4.6-.6 1.5-1 4-1 5.7 0 1.7.5 4.3 1.3 6 .7 1.5 2.8 4.1 4.6 5.8a29 29 0 0 0 7.4 4.4 71 71 0 0 0 24.8 3.8l9.4.1 1 3.5a635 635 0 0 1 10.3 60v1.7l-9.7-.5c-5.4-.2-12.5-1-15.8-1.8A95.5 95.5 0 0 1 322 336c-3.7-2.1-7-3.5-8.3-3.5-1.6 0-2.3.4-3 1.7a3.7 3.7 0 0 0 0 3.4c.4 1 3.2 2.9 6.4 4.6 3.6 2 6.6 4.1 7.8 5.7a79.9 79.9 0 0 1 8.6 15 172 172 0 0 1 3.2 9.7c1 3 2.8 9.3 4 13.8a171.8 171.8 0 0 0 9.9 28 78.4 78.4 0 0 0 13.8 20.8c2.4 2.5 6.2 5.8 8.4 7.3 2.3 1.5 3.9 2.9 3.6 3-.3.2-3.4 1-7 1.9a188.1 188.1 0 0 1-38.3 3.8 187.4 187.4 0 0 1-36.5-3.4 121 121 0 0 1-22.4-7.7c-3.6-1.7-9-4.7-12-6.7a85.2 85.2 0 0 1-17.9-16.4 61.8 61.8 0 0 1-9-16.7c-1.2-4-1.5-6.5-1.5-12.1 0-6.3.6-9 4.2-22.7l4.2-15.7v-11.3a57 57 0 0 0-1.3-16 49.2 49.2 0 0 0-10.5-19.5 28.7 28.7 0 0 0-9.3-7.1c-3.8-1.9-8-3-16.1-4.7a110.1 110.1 0 0 1-31.5-10 87 87 0 0 1-19.9-14.5 42.3 42.3 0 0 1-11.5-22.8 68.4 68.4 0 0 1 .1-23 104.4 104.4 0 0 1 20.2-44.5 178.5 178.5 0 0 1 13-15c.2 0 1 2 1.9 4.5Z"/>
  <path fill="#FFD7EC" d="M383.6 247.5a9.7 9.7 0 0 1 2.9 5.4c.4 2.3.2 3.7-1 6.2-.9 1.7-3.1 4.5-5 6.2a50 50 0 0 1-19 9.8 47 47 0 0 1-9.3 1.4 102.1 102.1 0 0 1-22.6-3.7c-2.2-.8-5-2.4-6.3-3.5-1.2-1.1-2.7-3-3.2-4.2a9.1 9.1 0 0 1-.4-4.5 9.3 9.3 0 0 1 2.4-4.2c1-1 2.8-2.2 4-2.6 1-.4 4.2-.8 7-.8s6.4.4 8 .7c1.5.4 5.2 1 8.1 1.5 4.4.6 6.1.5 9.6-.4a50 50 0 0 0 9.8-4.4 87 87 0 0 1 8.2-4.1c1.4-.5 3-1 3.6-1 .5 0 2 1 3.2 2.2Z"/>
  <path fill="#FF796D" fill-rule="evenodd" d="M403 351c1.7.4 4.9 1.6 7.1 2.6 2.7 1.3 6.1 4 10.2 8 3.4 3.5 7.5 8.5 9.5 11.6a78.2 78.2 0 0 1 8.6 20 63 63 0 0 1-.1 22.5c-.7 2-2.1 5.7-3.3 7.9a38 38 0 0 1-14.7 14 50 50 0 0 1-31.7 4c-2-.5-5.6-2-8-3.3a52.6 52.6 0 0 1-22.8-26.3 139.6 139.6 0 0 1-11-32.6 247.3 247.3 0 0 0-9.4-27.4c-.2-.5 1.5-.4 5 .4 2.8.7 7.2 1.5 9.7 1.8a55.4 55.4 0 0 1 33.2 18.3c2 2.2 5 6.1 6.9 8.7 1.8 2.5 3.9 4.7 4.6 5 .8.2 2 0 2.8-.4.7-.4 1.6-1.3 1.8-2a8 8 0 0 0-1-4.3 73 73 0 0 0-5.6-8 112 112 0 0 0-15.4-15.3l-2.1-1.5 2.1-.5a345 345 0 0 0 10-2.4c4.2-1.2 8.4-2 9.2-1.7l4.4 1Zm-2 43.4c0-1.2.6-2.6 1.2-3.2.6-.6 2-1.1 3-1.1s2.4.5 3 1.1a5 5 0 0 1 1.4 3.4 6 6 0 0 1-1.2 3.4c-.6.7-2 1.3-2.8 1.3-1 0-2.3-.6-3.1-1.4a5.7 5.7 0 0 1-1.4-3.5Z" clip-rule="evenodd"/>
  <path fill="#FEFFB9" fill-rule="evenodd" d="M71 235.7c3.2 1.1 8 3.5 10.8 5.3a92.1 92.1 0 0 1 18.5 16c3 3.6 6.2 8.6 10.2 16.4a134.5 134.5 0 0 1 12.6 31.6c1 4 2 9.9 2.2 13a45 45 0 0 1-1.1 13.1 37 37 0 0 1-3.8 11.3 61.7 61.7 0 0 1-17 17 97.6 97.6 0 0 1-9.7 4.8 54.7 54.7 0 0 1-22.3 3.5 52 52 0 0 1-19-7.2A107.8 107.8 0 0 1 32 344.2 112.5 112.5 0 0 1 18.5 326a80.5 80.5 0 0 1-8.8-24.6c-.4-2.5-.8-8.6-.8-13.5a56 56 0 0 1 5.8-27.2 54 54 0 0 1 13.5-18 52.3 52.3 0 0 1 14.7-8 41.1 41.1 0 0 1 16.8-1.3c3 .3 8 1.4 11.3 2.4ZM34.8 282c-.1-1.5.2-2.2 1.4-2.7 1-.4 5.2-.6 9.9-.4 6 .2 9.4.7 13 1.9 2.7.9 7.4 3.2 10.3 5.1 3.1 2 9 7.1 14 12.1 4.7 4.8 11 11.6 14 15.2 3 3.7 5.5 7 5.5 7.6 0 .5-.8 1.1-1.6 1.3-.9.3-4 .1-6.9-.3-2.9-.4-6.4-.5-7.8-.2a23.5 23.5 0 0 0-10.7 5.7c-1.5 1.4-3.3 4-4 5.7-1 2.5-1.5 3.1-2.7 3-1.2-.2-1.5-.8-1.7-3-.1-1.6 0-4 .2-5.3.3-1.6 1.7-3.7 4.3-6.3a33 33 0 0 1 7.6-5.5c2-1 4.4-1.8 5.3-1.8.8 0 1.7-.3 1.9-.6.2-.3-2.4-3.3-5.8-6.6a219 219 0 0 0-11.3-10.4c-2.8-2.3-7-5.2-9.2-6.4a46.2 46.2 0 0 0-8.8-3.3c-2.5-.7-7.3-1.6-10.6-2-5.8-.9-6-1-6.3-2.8Z" clip-rule="evenodd"/>
  <path fill="#FEFFB9" d="M430.1 111c1.8 3.7 2.8 6.8 2.5 7a787.7 787.7 0 0 1-38.9 14.2 307.1 307.1 0 0 1-34.5 9c-3 .5-11.1 1.5-18.1 2.2-8.5.7-21 1.1-37 1.2a308 308 0 0 1-58.9-4.1l-23-3.6-11.7-2 5-2.3a147 147 0 0 1 27.2-8.9c6.2-1.3 9.7-1.6 20.3-1.6 11 0 14 .3 22.3 2l19.6 3.6a251.7 251.7 0 0 0 42 3.9c6.2 0 14.6-.5 18.7-1a164 164 0 0 0 27.6-6.1 98.3 98.3 0 0 0 23.2-11 47.9 47.9 0 0 0 10.3-8.8c.2 0 1.8 2.8 3.4 6.4Z"/>
  <path fill="#000" fill-rule="evenodd" d="M245.3.4a364 364 0 0 0-48.7 7.7 538.5 538.5 0 0 1-27.8 5c-2.9.4-18.3 1-34.3 1.3-18.8.4-30.1.9-31.8 1.4-1.5.5-3.6 1.7-4.8 2.7-1.2 1-2.4 3-3 4.7a16 16 0 0 0 0 6.9c.5 2.1 1.9 6 3.1 8.5a44 44 0 0 0 9.6 12c6.2 6 7.3 7.4 6.6 8.3-.5.6-6 4.2-12.3 8.2C95.6 71 86.6 76.9 82 80a247.8 247.8 0 0 0-35.3 28.8 49.9 49.9 0 0 0-10.5 12.7c-1.5 3-2.2 5.6-2.2 7.7 0 1.7.6 4.4 1.5 6a20 20 0 0 0 2.7 4.4c.6.7 4.1 3.3 7.9 5.8 4.2 2.8 7.6 5.7 9.3 7.9a68 68 0 0 1 10.5 22.4 487.2 487.2 0 0 1 11.8 42.4c1.6 6.9 2.9 12.6 2.8 12.7 0 0-1.2-.3-2.6-.9a86.5 86.5 0 0 0-24.7-4.2c-5 0-8 .5-11.4 1.6-2.5 1-6.8 2.7-9.4 4.1-2.6 1.4-7 4.3-9.5 6.5a69.4 69.4 0 0 0-8.6 9 83 83 0 0 0-6.6 10.7 72.5 72.5 0 0 0-6.8 28.7 80.6 80.6 0 0 0 8.6 41.2c1.7 3.3 4.7 8.4 6.8 11.3a126.9 126.9 0 0 0 22.2 22.8 84.3 84.3 0 0 0 25 12.8c4.4 1.3 7.5 1.7 14.2 1.7 7 0 9.4-.3 13.8-1.6a77 77 0 0 0 17.7-8.7c2.2-1.4 5.8-4.5 8-6.8a21 21 0 0 1 4.4-3.8l2.5 4.8a266.7 266.7 0 0 0 16 26.8l8 11.6a258.9 258.9 0 0 0 21.6 25.3 104 104 0 0 1 6.8 7.1l10.8 8.7 4.1 2.8 5.8 4.2 9.8 6a156.3 156.3 0 0 0 45.3 17.4c4.3 1 10.7 2 14.2 2.5s6.6 1 7 1.3l12.1.7H303l10.2-.7 13.4-1.8 9.2-2a290 290 0 0 0 33.2-9.3 267 267 0 0 0 14.8-6.2c7.7-3.5 7.9-3.6 17-4.1 6.2-.4 10.9-1 14.2-2.1a45.2 45.2 0 0 0 26.8-20.6 54.9 54.9 0 0 0 5.5-17.5 9 9 0 0 1 2.2-5 151.3 151.3 0 0 0 11.9-18c1.6-2.9 4-8.2 5.4-11.7a145.9 145.9 0 0 0 7.6-28c.6-3.6 1-12.6 1-22 0-12.8-.3-17.2-1.3-22a186 186 0 0 0-4.1-14.7c-1.6-4.8-4.8-13.4-7.2-19.2a1790 1790 0 0 1-4.9-12.1c-.6-1.5-.3-1.8 3-3.3a39.2 39.2 0 0 0 16-13.3 47 47 0 0 0 5.1-8.7c.7-2 1.7-6 2.2-9 .7-4 .7-6.6.1-10.5-.4-2.8-1.4-6.8-2.3-9a46.4 46.4 0 0 0-10.8-15.7 55 55 0 0 0-9.1-5.9l-5.5-2.7 2-1 5.2-4.1a30 30 0 0 0 5-6c1-1.6 2.4-5 3.2-7.6a115 115 0 0 0 2.3-8.8 79 79 0 0 0-.4-22.3c-.6-2.4-1.6-5.5-2.2-6.7a23.4 23.4 0 0 0-8.7-9.6 11.8 11.8 0 0 0-6.8-1.8c-2 0-6 .9-9.1 1.9l-5.5 1.8-1.2-3a177.4 177.4 0 0 0-13.5-25.5A222.2 222.2 0 0 0 394.7 48a189.8 189.8 0 0 0-24.2-18.3A204.6 204.6 0 0 0 337 14.5a430 430 0 0 0-38-10.7A229.9 229.9 0 0 0 245.2.4Zm45 9.1a232.5 232.5 0 0 0-49.7-2.1c-3.3.4-12.6 2-20.6 3.8L194.4 17a223.4 223.4 0 0 1-31 5.4c-4.2.4-18 .7-30.7.7s-24.6.3-26.5.6c-1.8.3-3.6.8-3.8 1-.3.3 0 1.9.4 3.5a49 49 0 0 0 3 7c1.2 2.3 4 5.8 6.2 8s5.7 5.2 7.9 6.7c2.1 1.5 4.3 3.6 4.9 4.7.5 1.1.7 2.8.4 3.9-.2 1-1.8 3.2-3.4 4.7a99.6 99.6 0 0 1-12.2 8.5c-5 3-12.1 7.5-15.6 9.8a446.8 446.8 0 0 0-44.8 35c-2.3 2.4-5.1 6-6.2 8-1.5 2.8-1.9 4.2-1.6 5.8.3 1.1 1.1 2.9 1.9 3.9.8 1 3.7 3 6.5 4.4 3.4 1.8 6.9 4.4 10.5 8 3.5 3.5 6.2 7 8 10.3 1.3 2.8 3.6 8.4 5 12.5a451.8 451.8 0 0 1 13.1 47.2l3.6 16.7c.8 3.6 1.4 4.4 8.3 11.6a121 121 0 0 1 21.5 30.9c2.3 4.5 5.2 10.8 6.5 13.9 1.2 3 3 9 4 13a85.8 85.8 0 0 1 .6 31.2c-.5 3-1.8 7-2.8 9.2l-1.8 4 4 7.5a406.2 406.2 0 0 0 20.3 33 250 250 0 0 0 23 28.2c3.9 4 10 9.8 13.7 12.9a193.8 193.8 0 0 0 31 20.7 189.2 189.2 0 0 0 25.5 10.4 239.7 239.7 0 0 0 27.7 6c5.9 1 13 1.3 23.4 1.3a180 180 0 0 0 64-10.7 230.5 230.5 0 0 1-30 1.5c-14.1 0-20.3-.3-26.5-1.2a139.2 139.2 0 0 1-28.6-7.3 111 111 0 0 1-11.2-5 125 125 0 0 1-9.2-5.8 109.3 109.3 0 0 1-19.6-19 59.4 59.4 0 0 1-9.3-20 70.6 70.6 0 0 1 1.5-27.5l4-15.3c2-7 2.3-9.5 2.3-17 0-6.4-.3-10.2-1.1-13.5-.7-2.6-2.4-7-3.8-9.8a39 39 0 0 0-6.3-9 28.2 28.2 0 0 0-7.7-5.7 102 102 0 0 0-14.8-3.8c-6-1.2-14-3.2-17.7-4.5a114 114 0 0 1-25.3-12.7 60.4 60.4 0 0 1-16.4-16.3 54.6 54.6 0 0 1-4.4-8.4 65.9 65.9 0 0 1-3.3-25.3c.2-7.4.8-11.7 2.1-16.9a125.5 125.5 0 0 1 11.9-28c2-3.4 5.5-8.6 7.7-11.6s7.5-9 11.8-13.5c4.4-4.5 8.1-9 8.4-10a22.6 22.6 0 0 1 9-11c2-1.3 6-2.9 9.1-3.5 3.4-.8 9.4-3.2 16-6.4 6-2.9 14.1-6.3 18.3-7.7 4.1-1.4 10.7-3.1 14.5-4 3.9-.7 11-1.7 15.8-2.2 6.6-.6 11-.6 17.5 0 4.9.4 15.4 2 23.5 3.7a323 323 0 0 0 45.4 6 139.5 139.5 0 0 0 49-6.4 86.3 86.3 0 0 0 24-12.1c2.2-1.8 4.7-4.3 5.5-5.5.7-1.3 1.4-3 1.4-4 0-.9-2.4-5.2-5.2-9.6a205 205 0 0 0-23.3-28.8A191 191 0 0 0 369 38.9a171.7 171.7 0 0 0-41.8-20 253.3 253.3 0 0 0-37-9.3Zm142.3 108.6c.3-.3-.7-3.4-2.5-7a34.9 34.9 0 0 0-3.4-6.4 47.9 47.9 0 0 1-10.3 8.8 98.3 98.3 0 0 1-36.6 14.6c-3.8.8-10.1 2-14.2 2.5a176.9 176.9 0 0 1-40.4 0 349.5 349.5 0 0 1-39.9-6.6 91.2 91.2 0 0 0-22.3-1.9c-10.6 0-14.1.3-20.3 1.6a168.3 168.3 0 0 0-27.3 8.9l-4.9 2.3 11.7 2a1071.6 1071.6 0 0 0 46.1 6.5c9 1 17.2 1.2 35.8 1.2 16 0 28.5-.5 37-1.2 7-.7 15.1-1.7 18-2.3a307.1 307.1 0 0 0 58.2-17.1c8-3 15-5.6 15.3-6Zm32.4 9.8a19 19 0 0 0-4-6.2c-1.9-1.6-3.2-2.1-5.1-2.1-1.5 0-5.5 1-9 2-3.6 1.1-15 5.2-25.6 9.1a355.8 355.8 0 0 1-50.8 15.9c-8.8 2-16 3.2-24.5 4a697.5 697.5 0 0 1-76 .6 848.8 848.8 0 0 1-45.4-6.1c-4.3-.8-11.6-1.7-16.4-2-6.6-.2-9.8 0-14 .9a27 27 0 0 0-7.6 2.7 22 22 0 0 0-3.8 3.6c-1.1 1.6-1.5 3-1.4 6 0 2.3.8 5.9 1.6 8a46 46 0 0 0 5 9 52.9 52.9 0 0 0 14 15.1c1.9 1.2 5 2.7 7 3.3 2 .6 7 1.6 11 2.1 4.1.6 19.4 1.4 34 1.8a1133.6 1133.6 0 0 0 79.8-.8 788.7 788.7 0 0 0 47-4.3 654.5 654.5 0 0 0 44.4-7.8 103 103 0 0 0 24.4-8.3c3-1.5 6.6-4.1 9-6.5 3.4-3.4 4.3-5 5.6-8.8a57.5 57.5 0 0 0 2.7-20.7c-.3-4-1-8-2-10.5Zm-284 49a58.1 58.1 0 0 1-7.5-15.5 178.5 178.5 0 0 0-13.1 15 141.6 141.6 0 0 0-11.7 19 104.4 104.4 0 0 0-8.5 25.6 68.4 68.4 0 0 0 2.3 32c.9 2.2 2.5 5.3 3.6 7a59.3 59.3 0 0 0 14.3 14.3c3 2.2 8 5.3 11 7a110.1 110.1 0 0 0 31.6 10 62.4 62.4 0 0 1 16 4.7c3.8 1.8 6.3 3.7 9.4 7.1a49.2 49.2 0 0 1 10.5 19.5 57 57 0 0 1 1.3 16v11.3l-4.2 15.7a77.2 77.2 0 0 0-4.2 22.7c0 5.6.3 8.1 1.6 12a61.8 61.8 0 0 0 9 16.8 85.2 85.2 0 0 0 17.8 16.4 108.3 108.3 0 0 0 34.4 14.4 187.4 187.4 0 0 0 36.6 3.4c9.1 0 17.3-.4 23-1.2a199.3 199.3 0 0 0 22.2-4.4c.3-.2-1.3-1.6-3.6-3.1a62.9 62.9 0 0 1-16.1-17 108.5 108.5 0 0 1-11.3-24 458.8 458.8 0 0 1-8.7-29A68.6 68.6 0 0 0 325 348a26.9 26.9 0 0 0-7.8-5.7c-3.2-1.7-6-3.7-6.4-4.6a3.7 3.7 0 0 1 0-3.4c.7-1.3 1.4-1.7 3-1.7 1.3 0 4.6 1.4 8.3 3.5a95.5 95.5 0 0 0 24.4 9.3c3.3.7 10.4 1.6 15.8 1.8l9.7.5V346c0-1-1-8.3-2-16.3a635 635 0 0 0-8.3-43.7l-1-3.5h-9.4a71 71 0 0 1-24.8-3.8 29 29 0 0 1-7.4-4.5c-1.8-1.7-4-4.3-4.6-5.9-.8-1.6-1.4-4.2-1.4-5.9 0-1.7.5-4.2 1.1-5.7.6-1.4 2-3.5 3-4.6 1-1.1 3.2-2.7 4.8-3.5 1.9-1 4.7-1.6 8.2-1.8a58 58 0 0 1 12 .9c3.7.7 8.8 1.4 11.2 1.7 3 .3 5.2.2 6.6-.4 1.1-.4 4-2.2 6.4-3.8 2.4-1.6 5.6-3.5 7.3-4.3 1.8-.8 4.6-1.3 7.1-1.3 4.1 0 4.3 0 7.6 3.3a17 17 0 0 1 4.2 6.2 18.7 18.7 0 0 1-.9 12.8c-1 2-3.2 5.1-5 7a57.4 57.4 0 0 1-6.6 5.5 62 62 0 0 1-7.8 4.3c-3.7 1.7-4.5 2.3-4.2 3.3a297.6 297.6 0 0 1 7.8 35.5c1 6.1 2.1 15 2.5 19.6.4 4.7 1 8.7 1.1 8.8a107.9 107.9 0 0 0 18-5c3.4-1.4 5.7-2 6.9-1.7 1.2.4 1.9 1.1 2.2 2.5.3 1.5 1 2.2 3 2.9a49 49 0 0 1 6.2 3 56.3 56.3 0 0 1 17.3 16.6 87 87 0 0 1 13.8 29.9c.1.2 1.4-1.6 2.9-3.8a147 147 0 0 0 12-26c1.3-4 3-9.7 3.5-12.7a99.5 99.5 0 0 0 .4-41.4 235 235 0 0 0-11.7-38.7l-5.5-14.2h-4.7a42 42 0 0 1-8.8-1 41.8 41.8 0 0 1-18-10.7 35.3 35.3 0 0 1-7.6-10.3 43 43 0 0 1-3.3-9.2 50.9 50.9 0 0 1 1.5-21.7 52.9 52.9 0 0 1 6.1-11.7l-12.6 2A640 640 0 0 1 338 202c-6.5.5-27.8 1-47.5 1.2l-35.7.4 3.5 3.1a44.9 44.9 0 0 1 10.8 15.6c.8 2.2 1.8 6.4 2.2 9.3a43.6 43.6 0 0 1-3.5 21.9 57.3 57.3 0 0 1-5.4 8.2 41.7 41.7 0 0 1-17.2 12.1 49.8 49.8 0 0 1-21.6 1.4 37.8 37.8 0 0 1-19.5-10.9 38 38 0 0 1-7.3-9.6 52.2 52.2 0 0 1-3.3-8.5 47.7 47.7 0 0 1 0-19.7 48 48 0 0 1 2.9-7.7c1-2 3.1-5.4 4.7-7.5a43 43 0 0 1 7.9-7.2l4.8-3.4-2.7-.5a34 34 0 0 1-12.6-4.6 60.9 60.9 0 0 1-8.3-7.2c-2.7-2.9-6.8-8-9.1-11.5Zm281.5 13.5a35.6 35.6 0 0 0-7.8-3.7c-2-.6-5-1.2-6.8-1.4-2.3-.2-5.5.4-12.1 2.4a34.7 34.7 0 0 0-11.9 5 33.1 33.1 0 0 0-9.2 12.6c-1.8 3.7-2 4.8-2 12.6 0 8.5.1 8.7 2.7 14a32 32 0 0 0 6.9 9.3 40 40 0 0 0 8.7 6.2c2.5 1.1 6.6 2.3 9.1 2.7 2.7.4 6.5.4 9.2 0a33.4 33.4 0 0 0 24.6-17.7c1.3-2.5 2.7-6.9 3.2-9.6a28 28 0 0 0 0-10 44 44 0 0 0-2.9-9.1 41.5 41.5 0 0 0-4.7-7.4 38.4 38.4 0 0 0-7-5.9Zm-215.3 17a39 39 0 0 0-15.8-4 37.1 37.1 0 0 0-17 5.3 41 41 0 0 0-6.2 5 40.8 40.8 0 0 0-5.8 8.6c-2.6 5.4-2.6 5.5-2.6 14s0 8.7 2.6 14a32 32 0 0 0 6.9 9.4c2.4 2.3 6.2 5 8.7 6.1 2.5 1.2 6.6 2.4 9.1 2.8 2.7.3 6.5.3 9.2 0a33.2 33.2 0 0 0 24.6-17.7c1.3-2.6 2.7-7 3.2-9.7a28 28 0 0 0 0-10c-.5-2.6-1.8-6.9-3-9.4a34.2 34.2 0 0 0-14-14.4ZM81.8 241a55.9 55.9 0 0 0-10.8-5.3 62 62 0 0 0-11.3-2.4 41.1 41.1 0 0 0-16.8 1.2 52.3 52.3 0 0 0-14.7 8.1 54 54 0 0 0-17.8 30A56 56 0 0 0 9 287.8c0 4.9.4 11 .8 13.5a80.5 80.5 0 0 0 22.2 43 102.3 102.3 0 0 0 20.5 16.2 52 52 0 0 0 19 7.2 54.7 54.7 0 0 0 22.3-3.5c3.1-1.3 7.5-3.5 9.7-4.8a59.8 59.8 0 0 0 17-17 37 37 0 0 0 3.8-11.3c1.2-5.7 1.4-8.8 1.1-13.1a98.4 98.4 0 0 0-6.5-26.8c-1.4-3.6-5.1-11.6-8.3-17.8-4-7.8-7.1-12.8-10.2-16.4a92.1 92.1 0 0 0-18.5-16Zm304.7 11.9c-.4-2-1.3-3.8-2.9-5.4-1.2-1.2-2.7-2.3-3.2-2.2-.6 0-2.2.5-3.6 1s-5 2.4-8.2 4.1a50 50 0 0 1-9.8 4.4c-3.5.9-5.2 1-9.6.3a93 93 0 0 1-8.1-1.4 45 45 0 0 0-15 0c-1.2.5-3 1.7-4 2.7-1 1-2.2 3-2.4 4.2-.3 1.4 0 3.3.4 4.5.5 1.2 2 3 3.2 4.2 1.3 1.1 4.1 2.7 6.3 3.5a102.1 102.1 0 0 0 22.7 3.7 47 47 0 0 0 28.2-11.2c1.9-1.7 4.1-4.5 5-6.2a8.7 8.7 0 0 0 1-6.2ZM410 353.6a39.4 39.4 0 0 0-11.5-3.5c-.8-.2-5 .5-9.3 1.7a345 345 0 0 1-9.9 2.4l-2.1.5 2.1 1.5a91.3 91.3 0 0 1 21 23.3c.8 1.6 1.2 3.4 1 4.2-.2.8-1 1.7-1.8 2.1a4 4 0 0 1-2.8.4c-.7-.3-2.8-2.5-4.6-5a76.6 76.6 0 0 0-14-15.8 57 57 0 0 0-6.8-4.8c-1.7-1-5.7-2.6-8.9-3.8a55.4 55.4 0 0 0-10.4-2.6c-2.5-.3-7-1-9.8-1.8-3.4-.8-5.1-1-4.9-.4l2.9 6.8c1.3 3.3 4.3 12.6 6.4 20.6a154.4 154.4 0 0 0 11.1 32.6c2 4 5 9.3 6.7 11.8a52.6 52.6 0 0 0 16.1 14.6 46 46 0 0 0 8 3.2 50.2 50.2 0 0 0 31.7-4 38 38 0 0 0 14.7-14 54 54 0 0 0 3.3-8 63 63 0 0 0 .1-22.4 78.2 78.2 0 0 0-8.6-20c-2-3-6.1-8.1-9.5-11.6-4-4-7.5-6.7-10.2-8Z" clip-rule="evenodd"/>
  <path fill="#000" d="M402.2 391.2c-.6.6-1.1 2-1.1 3.2 0 1.1.6 2.7 1.4 3.5.8.8 2.1 1.4 3 1.4 1 0 2.3-.6 2.9-1.3a6 6 0 0 0 1.2-3.4 5 5 0 0 0-1.3-3.4 5.4 5.4 0 0 0-3.2-1.1 6 6 0 0 0-3 1Zm-366-111.9c-1.2.5-1.5 1.2-1.4 2.7.2 1.8.5 2 6.3 2.8 3.3.4 8.1 1.3 10.6 2 2.6.6 6.5 2.1 8.8 3.3 2.2 1.2 6.4 4.1 9.2 6.4 2.8 2.4 7.9 7 11.3 10.4 3.4 3.3 6 6.3 5.8 6.6-.2.3-1 .6-2 .6-.8 0-3.2.8-5.2 1.8a33 33 0 0 0-7.6 5.5c-2.6 2.6-4 4.7-4.3 6.3-.2 1.3-.3 3.7-.2 5.2.2 2.3.5 2.9 1.7 3 1.2.2 1.7-.4 2.7-3 .7-1.7 2.5-4.2 4-5.6a23.5 23.5 0 0 1 10.7-5.8 45 45 0 0 1 7.8.3c3 .4 6 .6 6.9.3.9-.2 1.6-.8 1.6-1.3s-2.5-4-5.5-7.6c-3-3.6-9.3-10.4-14-15.2-5-5-10.9-10-14-12-3-2-7.6-4.3-10.3-5.2a44.1 44.1 0 0 0-13-2c-4.7 0-9 0-9.9.5Z"/>
</svg>
