<?xml version="1.0" encoding="utf-8"?>
<!-- Generator: Adobe Illustrator 16.0.0, SVG Export Plug-In . SVG Version: 6.00 Build 0)  -->
<!DOCTYPE svg PUBLIC "-//W3C//DTD SVG 1.1//EN" "http://www.w3.org/Graphics/SVG/1.1/DTD/svg11.dtd">
<svg version="1.1" id="Layer_1" xmlns="http://www.w3.org/2000/svg" xmlns:xlink="http://www.w3.org/1999/xlink" x="0px" y="0px"
	 width="505.335px" height="462.541px" viewBox="0 0 505.335 462.541" enable-background="new 0 0 505.335 462.541"
	 xml:space="preserve">
<g>
	<g>
		<path fill-rule="evenodd" clip-rule="evenodd" fill="#F5F5F5" d="M77.423,378.14c43.703,46.55,116.207,148.045,295.842,27.666
			c187.465-125.632,166.398-256.609-6.617-349.353C253.835-4.021,152.786-44.742,63.097,90.029
			C8.89,171.488-52.815,239.412,77.423,378.14z"/>
	</g>
</g>
<g>
	<path fill="#3DBA81" d="M396.495,212.401c-0.24-1.752-0.465-3.508-0.69-5.263c-0.479-3.737-0.975-7.602-1.608-11.389
		C384.243,136.236,338.1,87.23,279.374,73.805c-5.23-1.196-10.633-1.922-15.856-2.624c-2.463-0.331-5.009-0.673-7.495-1.059
		c-0.495-0.077-0.982-0.193-1.471-0.308c-0.245-0.058-0.49-0.114-0.736-0.168l-19.152-0.027l-0.16,0.011
		c-1.797,0.246-3.596,0.478-5.395,0.709c-3.786,0.487-7.701,0.991-11.539,1.622c-60.998,10.035-111.535,59.505-122.896,120.302
		c-0.854,4.567-1.473,9.24-2.071,13.76c-0.281,2.124-0.563,4.249-0.868,6.369l-0.012,19.07l0.011,0.159
		c0.248,1.816,0.482,3.634,0.718,5.452c0.499,3.862,1.015,7.855,1.65,11.772c4.668,28.749,18.974,56.755,40.283,78.86
		c21.316,22.112,48.797,37.44,77.379,43.161c4.631,0.927,9.384,1.542,13.979,2.138c2.261,0.292,4.521,0.585,6.777,0.915
		c0.39,0.056,0.795,0.166,1.226,0.282c0.212,0.058,0.424,0.115,0.637,0.167l19.263,0.034l0.08-0.011
		c1.791-0.246,3.584-0.479,5.377-0.712c3.787-0.492,7.704-1.001,11.545-1.624c59.712-9.685,109.975-57.833,122.23-117.09
		c0.973-4.701,1.596-9.534,2.198-14.208c0.294-2.283,0.589-4.566,0.923-6.842c0.07-0.475,0.186-0.955,0.308-1.465
		c0.06-0.245,0.118-0.49,0.172-0.735l0.028-19.156L396.495,212.401z M376.419,221.873c-0.071,72.916-59.396,132.42-132.244,132.42
		h-0.147c-72.982,0-132.296-59.664-132.22-132.59c0.077-72.904,59.404-132.41,132.25-132.41h0.14
		C317.177,89.292,376.491,148.951,376.419,221.873z"/>
	<path fill="#3DBA81" d="M320.324,253.974c-0.522-0.227-1.037-0.399-1.535-0.567c-0.213-0.072-0.421-0.142-0.62-0.214l-0.98-0.353
		l-0.473,0.93c-15.82,31.153-40.238,46.949-72.577,46.948c-32.459,0-56.912-15.835-72.683-47.065l-0.504-0.998l-17.774,7.78
		l0.422,1.062c6.115,15.396,17.466,29.746,31.961,40.404c16.801,12.354,36.836,18.955,57.94,19.091l0.682,0.002
		c45.901,0,78.52-29.881,90.483-59.494l0.43-1.064l-4.274-1.872C327.327,257.031,323.828,255.498,320.324,253.974z"/>
	<path fill="#3DBA81" d="M280.415,195.464c2.968-11.351,7.592-16.306,15.461-16.635c10.683-0.451,16.74,4.921,18.642,16.521
		l0.162,0.942h19.672l-0.066-1.184c-0.784-14.66-7.191-25.356-19.044-31.85c-13.029-7.141-26.467-6.4-38.809,2.107
		c-9.934,6.847-15.213,16.824-15.692,29.748l-0.046,1.179h19.49L280.415,195.464z"/>
	<path fill="#3DBA81" d="M173.748,195.412c2.706-11.181,7.694-16.313,16.173-16.667c3.926-0.17,7.329,0.812,10.384,2.974
		c4.341,3.072,6.714,7.476,7.253,13.53l0.096,1.044h19.935l-0.063-1.206c-0.719-14.227-7.063-24.91-18.857-31.79
		c-5.358-3.125-11.496-4.769-17.751-4.769c-8.187,0-16.304,2.849-22.858,8.015c-9.02,7.109-13.74,16.705-14.031,28.558l-0.03,1.19
		h19.533L173.748,195.412z"/>
</g>
</svg>
