<?xml version="1.0" encoding="utf-8"?>
<!-- Generator: Adobe Illustrator 16.0.0, SVG Export Plug-In . SVG Version: 6.00 Build 0)  -->
<!DOCTYPE svg PUBLIC "-//W3C//DTD SVG 1.1//EN" "http://www.w3.org/Graphics/SVG/1.1/DTD/svg11.dtd">
<svg version="1.1" id="Layer_1" xmlns="http://www.w3.org/2000/svg" xmlns:xlink="http://www.w3.org/1999/xlink" x="0px" y="0px"
	 width="498.787px" height="434.862px" viewBox="0 0 498.787 434.862" enable-background="new 0 0 498.787 434.862"
	 xml:space="preserve">
<g>
	<g>
		<path fill-rule="evenodd" clip-rule="evenodd" fill="#F5F5F5" d="M171.702,426.989c73.67,15.695,225.305,27.399,302.076-167.442
			C556.087,50.649,423.479,14.599,247.252,1.54C101.29-9.284,3.459,35.355,0.333,186.341
			C-2.058,301.813,4.036,391.277,171.702,426.989z"/>
	</g>
</g>
<path fill="#539DC3" d="M384.991,88.572c-1.054-4.499-2.406-9.204-5.659-13.131c-4.313-5.21-9.735-8.358-16.185-9.358
	c-0.084-0.013-0.23-0.092-0.377-0.163c-0.123-0.059-0.236-0.239-0.36-0.29l-0.181-0.2H123.346l-0.235,0.149
	c-4.578,1.07-9.363,2.586-13.347,5.958c-4.984,4.219-8.048,9.547-9.104,15.779c-0.033,0.197-0.126,0.448-0.225,0.697
	c-0.059,0.146-0.284,0.3-0.334,0.448l-0.225,0.173v238.854l0.195,0.236c1.053,4.499,2.56,9.204,5.813,13.132
	c4.315,5.211,9.814,8.358,16.261,9.356c0.084,0.013,0.271,0.093,0.417,0.164c0.123,0.06,0.257,0.021,0.381,0.072l0.2-0.02h239.002
	l0.116,0.07c4.574-1.068,9.356-2.475,13.346-5.85c4.985-4.219,8.049-9.492,9.105-15.725c0.033-0.196,0.126-0.42,0.225-0.669
	c0.059-0.146-0.027-0.287,0.024-0.435l-0.085-0.159V88.808L384.991,88.572z M232.875,107.614c-11,0.782-20.152,5.689-26.521,14.596
	c-4.729,6.613-6.926,14.119-6.283,22.308c1.121,14.302,11.804,30.127,32.804,31.58v22.728l-19.706-0.003
	c-3.977,0-7.86,0.002-11.837,0.006c-4.162,0.006-7.277,1.279-9.094,3.682c-1.749,2.311-2.093,5.511-1.042,9.253
	c2.521,8.974-3.094,17.239-9.93,19.329c-5.685,1.739-10.775,0.724-14.991-3.001c-3.272-2.893-6.792-7.721-4.986-14.297
	c1.327-4.832,0.98-8.622-1.034-11.264c-1.914-2.511-5.314-3.838-9.832-3.838c-0.404,0-0.818,0.01-1.239,0.031
	c-3.251,0.159-6.743,0.233-10.988,0.233c-2.849,0-5.7-0.231-8.551-0.263c-2.858-0.033-5.717-0.264-8.573-0.264h-2.196V93.647
	c0-6.798,2.51-9.218,9.304-9.218h104.696V107.614z M176.639,250.429h0.12c15.225,0,32.132-11,33.978-33h22.139v10.863
	c0,6.996,0.24,13.992,0.247,20.988c0.007,6.825,3.492,10.9,9.119,10.9c1.261,0,2.694-0.204,4.142-0.607
	c1.406-0.392,2.876-0.591,4.31-0.591c8.055,0,14.815,6.029,15.705,14.023c0.463,4.156-0.986,8.463-3.986,11.815
	c-3.705,4.143-9.094,6.002-13.972,4.729c-5.553-1.442-9.735-0.778-12.321,1.929c-2.111,2.209-3.073,5.681-2.863,10.317
	c0.324,7.107,0.251,14.332,0.174,21.742c-0.03,2.867-0.059,5.891-0.066,8.891h-53.687l-51.644-0.228
	c-6.602-0.002-9.174-2.774-9.174-9.392l-0.002-105.381h23.313c0.654,10,4.836,18.766,12.438,25.119
	C160.832,247.75,168.244,250.429,176.639,250.429z M251.875,308.689c12-0.781,20.653-5.764,27.035-14.819
	c4.693-6.659,6.705-14.183,5.98-22.363c-1.262-14.213-12.016-29.914-33.016-31.304v-22.773h31.5c4.459,0,7.638-1.126,9.448-3.385
	c1.816-2.265,2.244-5.625,1.271-10.004c-1.614-7.265,0.791-13.414,6.771-17.322c2.384-1.558,5.163-2.378,8.038-2.378
	c3.425,0,6.821,1.204,9.563,3.389c4.853,3.865,6.763,8.869,5.676,14.873c-0.1,0.555-0.227,1.104-0.352,1.654
	c-0.099,0.429-0.196,0.859-0.284,1.292c-0.667,3.313-0.055,6.343,1.724,8.529c1.754,2.156,4.538,3.354,7.841,3.376
	c7.3,0.045,14.596,0.014,21.894,0.006c3.001-0.004,6.001-0.029,9.001-0.029h2.909v36.533v68.674c0,6.808-2.885,9.793-9.67,9.793
	h-105.33V308.689z M308.663,165.429h-0.195c-15.189,0-32.027,12-33.819,33h-22.772v-10.642c0-6.917,0.07-13.835,0.064-20.752
	c-0.008-6.842-3.333-10.926-8.951-10.926c-1.259,0-2.614,0.205-4.06,0.61c-1.41,0.394-2.846,0.594-4.285,0.594
	c-8.05,0-14.791-6.021-15.688-14.006c-0.462-4.115,0.967-8.367,3.917-11.666c3.676-4.112,9.089-6.054,14.109-4.996
	c0.188,0.039,0.38,0.066,0.572,0.093c0.24,0.032,0.468,0.063,0.627,0.124c4.131,1.563,8.335,0.816,10.969-1.918
	c2.074-2.153,3.096-5.277,2.955-9.035c-0.281-7.468-0.219-14.788-0.153-22.538c0.025-2.978,0.051-5.968,0.056-8.976
	c0.608-0.036,1.177-0.069,1.746-0.069c20.544-0.004,41.086-0.007,61.629-0.007l42.212,0.004c6.248,0,9.095,2.661,9.096,8.897
	c0.005,25.96,0.185,51.92,0.185,77.88v27.328h-23.675c-0.656-10-4.906-18.924-12.643-25.294
	C324.338,168.015,316.972,165.429,308.663,165.429z"/>
</svg>
