<?xml version="1.0" encoding="utf-8"?>
<!-- Generator: Adobe Illustrator 16.0.0, SVG Export Plug-In . SVG Version: 6.00 Build 0)  -->
<!DOCTYPE svg PUBLIC "-//W3C//DTD SVG 1.1//EN" "http://www.w3.org/Graphics/SVG/1.1/DTD/svg11.dtd">
<svg version="1.1" id="Layer_1" xmlns="http://www.w3.org/2000/svg" xmlns:xlink="http://www.w3.org/1999/xlink" x="0px" y="0px"
	 width="477.65px" height="462.952px" viewBox="0 0 477.65 462.952" enable-background="new 0 0 477.65 462.952"
	 xml:space="preserve">
<g>
	<g>
		<path fill-rule="evenodd" clip-rule="evenodd" fill="#F5F5F5" d="M274.015,453.908c68.479-15.949,191.128-34.734,202.802-240.042
			C491.715-48.09,303.693-19.435,150.619,40.724C23.83,90.546-38.394,170.576,25.202,307.546
			C73.838,412.299,118.166,490.216,274.015,453.908z"/>
	</g>
</g>
<path fill="#E77E00" d="M349.673,192.357c-2.921-5.413-8.055-6.333-12.201-6.333h-0.164c-10.052,1-20.105,0.029-30.156,0.018
	c-3.986-0.003-7.974-0.018-11.96-0.018H271.49l1.084-6.344c0.929-5.639,1.817-10.913,2.712-16.304l4.466-26.807
	c3.243-19.498,6.485-38.968,9.704-58.471c0.989-5.996-1.4-10.886-6.391-13.106c-4.992-2.219-10.125-0.737-14.011,4.039
	c-0.414,0.505-0.805,1.033-1.195,1.558l-22.458,29.95c-31.779,42.376-64.641,86.195-96.997,129.267
	c-2.84,3.779-5.373,8.357-2.629,13.907c2.769,5.594,7.865,6.313,12.485,6.313h0.197c8.224,0,17.278-0.026,28.495-0.026
	c5.54,0,11.081,0.009,16.621,0.013c5.541,0.004,11.083,0.014,16.624,0.014h4.285c0.003,0,0.006,0.08,0.009,0.113
	c0.049,0.586,0.084,1.015,0.035,1.381c-1.02,7.71-2.052,15.422-3.085,23.129c-0.683,5.09-1.364,10.18-2.043,15.27
	c-2.323,17.438-4.643,34.877-6.963,52.314l-4.897,36.811c-0.684,5.157,0.721,8.995,4.293,11.733c2.038,1.563,4.34,2.388,6.656,2.388
	c4.063,0,7.886-2.409,10.768-6.784c15.157-23.004,30.311-46.01,45.464-69.016c24.399-37.045,48.799-74.202,73.217-111.235
	C350.413,202.37,352.556,197.696,349.673,192.357z M236.759,332.581c0.278-2.749,0.566-5.592,0.937-8.368
	c1.828-13.732,3.67-27.463,5.512-41.194c1.845-13.753,3.689-27.506,5.521-41.261c0.568-4.268-0.306-7.869-2.526-10.415
	c-2.205-2.527-5.619-3.871-9.871-3.887c-8.087-0.026-16.174-0.034-24.344-0.034c-5.748,0-11.538,0.004-17.397,0.008
	c-5.265,0.004-10.587,0.007-15.984,0.008l80.973-107.96l-1.069,6.556c-1.159,7.123-2.317,14.246-3.508,21.363
	c-1.151,6.894-2.317,13.786-3.483,20.677c-1.519,8.975-3.037,17.95-4.522,26.929c-0.677,4.088,0.101,7.595,2.249,10.142
	c2.288,2.711,5.968,4.157,10.641,4.181c12.808,0.062,25.612-0.114,38.425-0.127c5.08-0.005,10.161-0.174,15.242-0.174h5.081
	l-82.01,124.727C236.668,333.305,236.714,333.026,236.759,332.581z"/>
</svg>
