<?xml version="1.0" encoding="utf-8"?>
<!-- Generator: Adobe Illustrator 16.0.0, SVG Export Plug-In . SVG Version: 6.00 Build 0)  -->
<!DOCTYPE svg PUBLIC "-//W3C//DTD SVG 1.1//EN" "http://www.w3.org/Graphics/SVG/1.1/DTD/svg11.dtd">
<svg version="1.1" id="Layer_1" xmlns="http://www.w3.org/2000/svg" xmlns:xlink="http://www.w3.org/1999/xlink" x="0px" y="0px"
	 width="441.988px" height="455.547px" viewBox="0 0 441.988 455.547" enable-background="new 0 0 441.988 455.547"
	 xml:space="preserve">
<g>
	<g>
		<path fill-rule="evenodd" clip-rule="evenodd" fill="#F5F5F5" d="M141.948,24.934C77.728,47.866-0.38,49.702,0.001,239.313
			c0.48,241.915,145.311,248.766,287.509,175.053c117.771-61.052,176.293-122.724,147.02-307.608
			C418.203,3.645,288.113-27.256,141.948,24.934z"/>
	</g>
</g>
<g>
	<path fill="#E36692" d="M367.32,127.7c-0.195-0.904-0.367-1.816-0.545-2.75c-0.395-2.086-0.804-4.243-1.477-6.378
		c-7.312-23.159-23.109-36.893-46.946-40.819c-0.158-0.027-0.363-0.105-0.582-0.183c-0.198-0.069-0.397-0.14-0.598-0.201
		l-0.266-0.082l-11.313-0.049l-0.423,0.065c-0.94,0.201-1.885,0.39-2.829,0.578c-2.106,0.42-4.284,0.854-6.46,1.445
		c-9.288,2.521-17.588,7.358-24.682,14.381c-0.802-0.409-1.599-0.821-2.394-1.231l-0.256-0.132
		c-3.288-1.697-6.688-3.453-10.151-5.013c-11.775-5.306-24.362-8.539-37.409-9.609c-0.098-0.012-0.386-0.104-0.631-0.183
		c-0.223-0.071-0.446-0.143-0.665-0.2l-0.377-0.102l-16.521,0.003l-0.373,0.033c-1.76,0.276-3.579,0.517-5.397,0.757
		c-3.946,0.52-8.026,1.057-12.005,2.078c-43.515,11.165-70.532,38.455-80.303,81.111c-1.299,5.669-1.542,11.54-1.777,17.223
		c-0.042,1.021-0.084,2.039-0.133,3.055c-0.861,18.17-7.353,31.936-19.846,42.081c-1.539,1.25-2.477,2.926-3.33,4.451
		c-0.317,0.565-0.716,1.101-1.025,1.567l-0.592,0.741v6.426l0.303,0.519c1.741,4.456,5.1,7.657,10.46,10.071
		c1.844,0.83,3.724,1.77,5.543,2.69c1.908,0.967,3.893,1.965,5.91,2.865c1.255,0.561,1.446,0.854,1.415,2.244
		c-0.1,4.475-0.34,9.665-1.977,14.621c-1.09,3.298-1.15,7.483-0.16,10.923c0.924,3.207,2.242,6.258,3.517,9.212
		c0.809,1.875,1.646,3.813,2.344,5.717c0.412,1.125,0.405,2.731,0.362,4.281c-0.212,7.637,1.643,13.931,5.67,19.435
		c6.243,8.53,14.87,12.762,25.643,12.762h0.255c11.724,0,23.133-1.5,34.845-4.554c0.116,0.239,0.229,0.525,0.34,0.766
		c1.302,2.813,2.597,5.653,3.891,8.47l0.113,0.257c3.453,7.512,7.024,15.284,10.669,22.87c0.837,1.743,2.124,2.99,3.377,4.201
		c0.473,0.456,0.919,0.734,1.301,1.162l0.88,0.828h5.648l0.799-0.47c5.312-4.134,6.008-7.071,3.104-13.357
		c-2.211-4.786-4.427-9.532-6.642-14.316c-2.348-5.073-4.696-10.128-7.042-15.204c-0.081-0.176-0.161-0.342-0.239-0.52
		c0.3-0.132,0.609-0.27,0.918-0.424l4.642-2.315c4.971-2.478,10.111-5.038,15.106-7.713c2.35-1.258,3.99-3.224,4.62-5.534
		c0.596-2.183,0.244-4.499-0.988-6.525c-1.575-2.583-4.044-4.006-6.951-4.006c-1.713,0-3.473,0.499-5.23,1.485
		c-0.794,0.446-1.587,0.896-2.46,1.394c-2.314,1.315-4.707,2.677-7.091,3.863c-17.019,8.483-35.232,12.806-54.133,12.847
		c-8.137,0-13.908-5.715-14.035-13.896c-0.013-0.814,0.011-1.628,0.035-2.516c0.051-1.799,0.104-3.659-0.164-5.578
		c-0.228-1.637-0.901-3.049-1.526-4.359c-0.247-0.521-0.482-1.014-0.667-1.497c-1.396-3.653-3.123-8.177-4.714-12.598
		c0.025-0.068,0.058-0.149,0.098-0.248c2.053-4.984,2.323-10.04,2.588-14.989c0.077-1.433,0.157-2.913,0.283-4.344
		c0.722-8.198-2.749-13.891-10.611-17.402c-2.454-1.096-4.928-2.341-7.329-3.549c-0.911-0.459-1.823-0.917-2.737-1.371
		c-0.062-0.03-0.122-0.061-0.184-0.091c1.041-1.241,2.132-2.488,3.202-3.713c2.958-3.384,6.017-6.882,8.498-10.793
		c6.803-10.719,10.177-23.389,10.314-38.735c0.094-10.382,1.766-19.587,5.111-28.14c1.27-3.243,2.804-6.486,4.287-9.623l0.194-0.413
		c0.268-0.564,0.533-1.128,0.798-1.691c22.548,7.804,38.792,22.968,48.281,45.073l0.897,2.093
		c2.149,5.029,4.372,10.229,6.998,15.183c7.802,14.717,20.221,25.3,31.249,34.063c1.598,1.271,3.417,1.941,5.263,1.941
		c2.746,0,5.278-1.436,7.131-4.043c1.471-2.071,2.939-4.246,4.235-6.165c1.168-1.729,2.378-3.517,3.591-5.247
		c2.521-3.594,6.206-5.654,10.113-5.654c1.24,0,2.494,0.205,3.728,0.608c5.168,1.691,8.288,6.388,8.143,12.255
		c-0.299,12.157-5.088,22.632-14.234,31.133c-4.097,3.81-8.294,4.985-13.253,3.724c-0.825-0.21-1.651-0.316-2.458-0.316
		c-3.854,0-6.933,2.354-8.033,6.145c-0.661,2.276-0.34,4.726,0.883,6.72c1.207,1.971,3.148,3.299,5.465,3.74
		c2.135,0.409,5.349,0.953,8.591,0.953c1.01,0,1.992-0.052,2.919-0.155c2.837-0.313,5.506-1.207,8.089-2.071l0.109-0.036
		c0.091-0.031,0.183-0.062,0.274-0.092l3.862,13.99c5.823,21.086,11.845,42.89,17.726,64.346c0.828,3.024,2.185,6.207,5.957,8.017
		l0.605,0.139h4.932l0.767-0.393c4.936-3.503,5.894-6.13,4.271-11.972l-2.373-8.482c-1.309-4.693-2.617-9.368-3.914-14.065
		c-1.955-7.086-3.899-14.165-5.852-21.28l-2.494-9.082l0.553-0.333c10.624-6.43,19.931-14.109,27.661-22.828
		c1.285-1.447,2.151-2.927,2.574-4.396c1.057-3.667-0.704-7.661-4.188-9.499c-3.334-1.762-7.209-1.095-10.206,1.764
		c-1.204,1.146-2.397,2.303-3.591,3.461l-0.139,0.135c-2.949,2.862-6.29,6.107-9.641,8.972c-2.248,1.922-4.746,3.628-7.41,5.447
		l-0.337,0.23l-0.319-1.141c-1.368-4.884-2.661-9.496-3.838-14.197c-0.041-0.224,0.104-0.853,0.237-1.032
		c5.609-6.978,9.377-14.159,11.519-21.957c1.994-7.262,3.685-15.854,1.103-24.521c-3.302-11.077-10.979-18.078-22.2-20.244
		c-2.088-0.403-4.154-0.607-6.144-0.607c-8.895,0-16.482,3.947-22.553,11.731c-1.32,1.693-2.508,3.442-3.654,5.14
		c-11.911-9.615-20.401-21.34-25.933-35.806c-10.097-26.402-28.53-45.145-54.802-55.728c18.637-20.672,41.814-31.151,68.904-31.151
		c5.703,0,11.682,0.465,17.77,1.382c24.592,3.703,45.603,15.75,62.45,35.805c17.832,21.228,25.875,45.828,23.904,73.117
		c-0.357,4.94-1.36,9.996-2.331,14.886l-0.031,0.158c-0.415,2.098-0.844,4.266-1.219,6.415c-0.791,4.51,1.512,8.461,5.729,9.832
		c0.854,0.279,1.733,0.42,2.611,0.42c3.432,0,6.409-2.065,7.771-5.391c0.396-0.967,0.631-1.896,0.858-2.793l0.061-0.236
		c3.566-13.938,4.712-27.743,3.404-41.029c-0.011-0.113-0.023-0.233-0.03-0.333c0.094-0.043,0.234-0.102,0.441-0.182
		c16.971-6.571,28.43-18.636,34.061-35.861c0.832-2.541,1.359-5.131,1.87-7.635l0.026-0.128c0.219-1.069,0.438-2.141,0.681-3.2
		l0.075-11.37L367.32,127.7z M350.352,136.034c-0.818,14.034-10.773,28.396-22.896,33.31c-6.558-26.075-20.707-48.161-42.072-65.675
		c6.135-5.882,15.642-9.363,25.712-9.363c4.992,0,9.928,0.897,14.274,2.596C341.313,103.128,351.353,118.855,350.352,136.034z"/>
	<path fill="#E36692" d="M308.759,242.104h-0.114c-4.616,0-8.342,3.768-8.482,8.35c-0.068,2.257,0.772,4.407,2.368,6.054
		c1.601,1.649,3.831,2.597,6.12,2.597h0.08h0.005c4.67,0,8.333-3.827,8.341-8.489C317.084,245.957,313.431,242.104,308.759,242.104z
		"/>
	<path fill="#E36692" d="M156.279,195.865c-2.623,2.041-4.762,2.992-6.731,2.992c-1.93,0-4.001-0.914-6.519-2.878
		c-1.798-1.401-3.818-2.143-5.843-2.143c-2.453,0-4.705,1.087-6.339,3.062c-2.984,3.603-2.518,8.648,1.135,12.061
		c4.715,4.404,10.51,6.145,17.265,7.145h0.089c6.767,0,13.933-3.04,18.257-7.519c3.474-3.6,3.627-8.6,0.372-12.056
		c-1.589-1.688-3.727-2.652-6.018-2.652C159.941,193.876,157.981,194.541,156.279,195.865z"/>
	<path fill="#E36692" d="M236.696,261.095c0.105,0.005,0.21,0.006,0.315,0.006c2.183,0,4.353-0.919,5.952-2.521
		c1.603-1.604,2.52-3.784,2.516-5.98c-0.009-4.583-3.809-8.342-8.479-8.38c-4.714,0-8.326,3.541-8.402,8.237
		C228.521,257.124,232.081,260.918,236.696,261.095z"/>
</g>
</svg>
