<?xml version="1.0" encoding="utf-8"?>
<!-- Generator: Adobe Illustrator 16.0.0, SVG Export Plug-In . SVG Version: 6.00 Build 0)  -->
<!DOCTYPE svg PUBLIC "-//W3C//DTD SVG 1.1//EN" "http://www.w3.org/Graphics/SVG/1.1/DTD/svg11.dtd">
<svg version="1.1" id="Layer_1" xmlns="http://www.w3.org/2000/svg" xmlns:xlink="http://www.w3.org/1999/xlink" x="0px" y="0px"
	 width="479.027px" height="450.432px" viewBox="0 0 479.027 450.432" enable-background="new 0 0 479.027 450.432"
	 xml:space="preserve">
<g>
	<g>
		<path fill-rule="evenodd" clip-rule="evenodd" fill="#F5F5F5" d="M87.019,62.497C21.261,99.826-41.565,178.315,35.549,319.398
			c80.981,148.158,129.173,152.227,299.248,102.324c126.948-37.256,180.752-130.362,117.928-288.461
			C410.08,25.943,312.549-65.532,87.019,62.497z"/>
	</g>
</g>
<g>
	<path fill="#F25959" d="M369.033,146.685c-0.021-9.774-0.043-19.548-0.045-29.322c-0.002-6.993-2.349-10.268-8.966-12.515
		c-19.714-6.695-39.431-13.383-59.147-20.07c-17.114-5.805-34.229-11.61-51.343-17.42c-0.668-0.227-1.324-0.531-2.019-0.854
		c-0.334-0.155-0.668-0.546-1.005-0.693l-0.244-0.342h-5.586l-0.209,0.311c-2.007,0.72-4.011,1.568-6.014,2.298
		c-4.261,1.552-8.666,3.216-13.025,4.696c-22.841,7.754-45.692,15.509-68.544,23.234l-26.319,8.914
		c-6.146,2.079-8.654,5.596-8.655,12.12c-0.003,11.052-0.083,22.297-0.16,33.169c-0.174,24.328-0.354,49.487,0.326,74.216
		c2.017,73.219,36.181,127.534,101.545,161.437c3.921,2.034,8.105,3.644,12.152,5.199c1.923,0.739,3.911,1.503,5.834,2.3
		c0.639,0.265,1.261,0.568,1.884,0.871c0.287,0.14,0.574,0.128,0.863,0.264l0.258-0.028h5.628l0.228,0.061
		c0.915-0.365,1.832-0.648,2.748-1.009c1.923-0.755,3.844-1.473,5.749-2.267c59.493-24.805,96.64-69.26,110.407-132.168
		c2.189-10.007,3.29-21.227,3.461-35.327C369.147,198.064,369.088,171.949,369.033,146.685z M232.549,91.968v51.593
		c-45,6.197-77.778,44.602-76.256,89.792c1.438,42.597,33.256,77.618,76.256,83.684v51.254c-2-0.905-3.447-1.784-5.094-2.641
		c-4.877-2.54-9.517-4.939-13.904-7.776c-42.518-27.497-67.141-67.146-73.155-117.847c-0.668-5.648-0.772-11.382-0.78-15.746
		c-0.037-18.063-0.044-36.126-0.047-54.189c-0.002-14.851-0.007-29.701-0.028-44.551c-0.001-1.744,0.158-2.24,1.632-2.735
		c24.136-8.094,48.648-16.397,72.353-24.427l18.953-6.402C232.487,91.973,232.549,91.971,232.549,91.968z M309.084,230.344
		c-0.056,36.13-29.504,65.585-65.681,65.584c-36.155-0.021-65.579-29.42-65.591-65.573c-0.006-17.514,6.831-34.107,19.253-46.524
		c12.421-12.415,28.909-19.362,46.428-19.362h0.152C279.785,164.468,309.14,194.173,309.084,230.344z M254.549,317.029
		c21-2.996,40.838-13.439,54.787-29.489c13.896-15.987,21.501-36.402,21.43-57.484c-0.07-20.999-7.766-41.301-21.675-57.167
		c-13.939-15.901-33.542-26.242-54.542-29.201V91.992l3.371,1.122c3.498,1.158,6.986,2.314,10.471,3.497
		c6.934,2.351,13.864,4.706,20.797,7.061c18.248,6.197,37.114,12.606,55.697,18.837c2.048,0.687,2.517,1.325,2.51,3.412
		c-0.038,11.38,0.03,22.951,0.098,34.14c0.127,21.07,0.258,42.857-0.327,64.256c-1.782,65.204-32.302,113.254-90.753,142.815
		c-0.59,0.298-0.863,0.562-1.863,0.848V317.029z"/>
	<path fill="#F25959" d="M272.345,200.408c-3.016,0-6.022,1.337-8.469,3.764c-7.858,7.794-16.185,16.123-25.455,25.462
		c-1.203,1.213-2.315,2.509-3.391,3.763c-0.271,0.317-0.543,0.634-0.814,0.948l-0.017-0.009c-1.188-1.176-2.373-2.354-3.559-3.532
		c-2.546-2.531-5.092-5.062-7.665-7.564c-2.456-2.387-5.456-3.701-8.447-3.701c-2.807,0-5.48,1.168-7.53,3.29
		c-4.325,4.479-4.054,10.943,0.659,15.721c6.09,6.174,12.156,12.241,18.03,18.032c2.506,2.47,5.348,3.774,8.216,3.774
		c2.871,0,5.708-1.309,8.204-3.785c12.223-12.133,24.729-24.639,37.169-37.171c4.659-4.692,4.9-11.31,0.574-15.733
		C277.798,201.565,275.132,200.408,272.345,200.408z"/>
</g>
</svg>
