<?xml version="1.0" encoding="utf-8"?>
<!-- Generator: Adobe Illustrator 16.0.0, SVG Export Plug-In . SVG Version: 6.00 Build 0)  -->
<!DOCTYPE svg PUBLIC "-//W3C//DTD SVG 1.1//EN" "http://www.w3.org/Graphics/SVG/1.1/DTD/svg11.dtd">
<svg version="1.1" id="Layer_1" xmlns="http://www.w3.org/2000/svg" xmlns:xlink="http://www.w3.org/1999/xlink" x="0px" y="0px"
	 width="479.027px" height="450.432px" viewBox="0 0 479.027 450.432" enable-background="new 0 0 479.027 450.432"
	 xml:space="preserve">
<g>
	<g>
		<path fill-rule="evenodd" clip-rule="evenodd" fill="#F5F5F5" d="M392.008,387.935c65.758-37.329,128.584-115.819,51.471-256.901
			C362.496-17.125,314.305-21.193,144.23,28.709C17.282,65.965-36.522,159.072,26.302,317.17
			C68.948,424.489,166.478,515.963,392.008,387.935z"/>
	</g>
</g>
<g>
	<path fill="#926CA2" d="M343.722,307.839c4.979-9.665,8.646-19.979,10.897-30.651c4.793-22.729,3.373-43.083-4.343-62.226
		c-6.827-16.94-15.649-33.763-26.968-51.427c-20.389-31.82-45.234-64.102-78.192-101.59c-2.33-2.65-4.999-5.279-8.719-6.598h-4.449
		c-0.877,0.626-1.79,1.22-2.676,1.795c-2.141,1.392-4.163,2.706-5.705,4.432c-26.176,29.286-48.294,57.157-67.616,85.206
		c-16.847,24.455-27.993,44.04-36.14,63.501c-3.442,8.221-7.119,18.035-8.297,28.504c-2.847,25.313,2.021,49.418,14.468,71.649
		c19.438,34.714,49.476,55.929,89.279,63.053c2.418,0.434,4.919,0.729,7.339,1.013c1.129,0.133,2.258,0.266,3.383,0.413h16.716
		c0.118-0.04,0.236-0.08,0.354-0.12c0.426-0.149,0.867-0.301,1.354-0.396c2.731-0.534,5.521-1.008,8.22-1.466
		c6-1.02,12.204-2.073,18.048-3.839c7.372-2.228,14.56-5.668,21.509-8.995l1.956-0.934c4.326-2.064,6.789-7.05,5.855-11.854
		c-1.058-5.431-5.088-9.136-10.027-9.22l-0.188-0.002c-3.254,0-6.686,1.402-8.991,2.579c-14.9,7.6-30.495,11.454-46.351,11.454
		c-6.756,0-13.686-0.701-20.598-2.084c-19.521-3.905-37.381-13.75-51.649-28.474c-14.225-14.679-23.551-32.823-26.971-52.471
		c-3.024-17.378-1.554-32.897,4.497-47.442c6.375-15.33,14.784-31.021,25.706-47.973c17.214-26.719,37.605-53.482,66.116-86.778
		c0.378-0.441,0.789-0.813,1.309-1.283c0.269-0.242,0.571-0.518,0.921-0.848l0.931-0.88l0.8,1
		c4.053,5.063,8.114,10.08,12.161,15.083c8.843,10.927,17.984,22.224,26.653,33.528c17.405,22.696,37.133,50.179,51.495,81.936
		c7.053,15.595,9.817,28.909,8.7,41.901c-1.259,14.658-4.648,27.312-10.363,38.683c-1.446,2.881-2.679,6.021-1.902,9.458
		c1.104,4.88,4.976,8.412,9.865,9c0.451,0.055,0.908,0.081,1.356,0.081C337.783,314.559,341.521,312.11,343.722,307.839z"/>
</g>
<g>
	<path fill="#926CA2" d="M264.29,265.511c4.204,0,8.409-0.001,12.612-0.007c4.512-0.005,7.922-1.798,10.137-5.328
		c2.328-3.713,2.475-7.534,0.436-11.36c-2.132-3.997-5.578-6.04-10.243-6.071c-7.224-0.049-14.447-0.038-21.833-0.028
		c-3.092,0.005-6.212,0.009-9.37,0.009h-1.18l0.005-12.688c0.004-6.221,0.01-12.442-0.013-18.664
		c-0.026-7.446-4.704-12.646-11.377-12.646c-6.819,0.037-11.373,5.175-11.402,12.782c-0.017,4.131-0.013,8.262-0.01,12.392
		l0.005,18.816h-4.563c-2.395,0-4.788-0.006-7.181-0.011s-4.783-0.011-7.177-0.011c-4.855,0-8.775,0.023-12.333,0.073
		c-2.271,0.032-4.34,0.398-5.983,1.061c-4.73,1.903-7.564,7.166-6.591,12.239c1.06,5.523,5.474,9.293,10.986,9.382
		c3.581,0.059,7.513,0.085,12.375,0.085c2.484,0,4.97-0.007,7.455-0.013c2.488-0.007,4.977-0.013,7.465-0.013h4.369h1.179v1.179
		c0,2.742-0.006,5.449-0.009,8.132c-0.013,7.531-0.024,14.646,0.059,21.865c0.026,2.284,0.382,4.357,1.03,5.996
		c1.62,4.093,5.753,6.843,10.284,6.843c0.646,0,1.291-0.06,1.92-0.175c5.585-1.028,9.389-5.542,9.465-11.23
		c0.087-6.504,0.071-13.124,0.056-19.525c-0.007-2.807-0.014-5.613-0.013-8.421v-4.663L264.29,265.511z"/>
</g>
</svg>
