<?xml version="1.0" encoding="utf-8"?>
<!-- Generator: Adobe Illustrator 16.0.0, SVG Export Plug-In . SVG Version: 6.00 Build 0)  -->
<!DOCTYPE svg PUBLIC "-//W3C//DTD SVG 1.1//EN" "http://www.w3.org/Graphics/SVG/1.1/DTD/svg11.dtd">
<svg version="1.1" id="Layer_1" xmlns="http://www.w3.org/2000/svg" xmlns:xlink="http://www.w3.org/1999/xlink" x="0px" y="0px"
	 width="501.971px" height="442.832px" viewBox="0 0 501.971 442.832" enable-background="new 0 0 501.971 442.832"
	 xml:space="preserve">
<g>
	<g>
		<path fill-rule="evenodd" clip-rule="evenodd" fill="#F5F5F5" d="M96.711,365.485c46.897,49.504,80.098,120.229,253.429,43.362
			c221.149-98.064,168.972-233.343,44.143-333.702C290.896-7.972,210.853-36.629,53.504,64.764
			C-34.25,121.313-10.026,252.811,96.711,365.485z"/>
	</g>
</g>
<g>
	<g>
		<path fill-rule="evenodd" clip-rule="evenodd" fill="#CEBB51" d="M377.748,139.503c-0.511,4.503-1.09,9.001-1.517,13.512
			c-1.249,13.24-2.372,26.493-3.671,39.728c-0.845,8.609-9.625,12.702-16.706,7.713c-15.091-10.635-30.098-21.389-45.085-32.17
			c-4.951-3.563-6.011-9.857-2.699-14.625c3.365-4.848,9.734-5.935,14.849-2.479c2.319,1.567,4.565,3.242,6.845,4.867
			c2.275,1.621,4.551,3.239,7.144,4.636c-0.41-0.702-0.771-1.438-1.239-2.101c-19.701-27.923-46.432-44.39-80.407-48.346
			c-45.061-5.247-89.213,18.372-110.702,58.744c-1.644,3.087-3.414,5.917-6.902,7.17c-4.006,1.44-8.401,0.364-11.297-2.777
			c-3.013-3.267-3.679-7.796-1.58-11.947c4.881-9.648,10.846-18.591,17.974-26.717c21.989-25.067,49.493-40.078,82.491-44.969
			c3.185-0.472,6.391-0.807,9.587-1.205c5.604,0,11.21,0,16.814,0c4.408,0.572,8.848,0.967,13.218,1.744
			c37.681,6.696,67.167,26.078,88.807,57.551c0.423,0.615,0.893,1.196,1.721,2.303c0.485-5.262,0.926-9.919,1.343-14.579
			c0.606-6.798,6.694-11.262,13.179-9.604c4.112,1.051,6.304,4.092,7.836,7.771C377.748,135.65,377.748,137.576,377.748,139.503z"/>
	</g>
	<g>
		<path fill-rule="evenodd" clip-rule="evenodd" fill="#CEBB51" d="M108.729,306.589c0.509-4.506,1.089-9.005,1.516-13.519
			c1.249-13.239,2.368-26.491,3.671-39.725c0.848-8.613,9.607-12.704,16.694-7.714c15.094,10.626,30.098,21.382,45.081,32.164
			c5.047,3.631,6.046,10.032,2.561,14.831c-3.411,4.695-9.679,5.724-14.687,2.279c-4.607-3.172-9.118-6.479-14.296-10.176
			c0.637,1.215,0.875,1.82,1.238,2.339c19.766,28.244,46.664,45.014,80.964,48.771c45.64,4.999,88.888-18.375,110.562-58.953
			c1.465-2.745,3.018-5.314,6.046-6.632c4.134-1.799,8.717-0.962,11.841,2.256c3.16,3.253,4.184,8.073,1.728,12.099
			c-4.908,8.046-9.583,16.366-15.496,23.645c-21.958,27.021-50.423,42.965-84.896,48.08c-3.364,0.499-6.755,0.817-10.135,1.221
			c-5.429,0-10.858,0-16.288,0c-3.108-0.382-6.228-0.699-9.327-1.153c-35.16-5.149-63.867-21.623-86.172-49.252
			c-2.774-3.437-5.277-7.093-8.159-10.989c-0.155,0.95-0.282,1.511-0.334,2.079c-0.38,4.18-0.711,8.365-1.122,12.542
			c-0.614,6.244-5.891,10.383-12.113,9.521c-4.722-0.655-7.156-3.903-8.875-7.935C108.729,310.442,108.729,308.516,108.729,306.589z
			"/>
	</g>
</g>
</svg>
