<?xml version="1.0" encoding="utf-8"?>
<!-- Generator: Adobe Illustrator 16.0.0, SVG Export Plug-In . SVG Version: 6.00 Build 0)  -->
<!DOCTYPE svg PUBLIC "-//W3C//DTD SVG 1.1//EN" "http://www.w3.org/Graphics/SVG/1.1/DTD/svg11.dtd">
<svg version="1.1" id="Layer_1" xmlns="http://www.w3.org/2000/svg" xmlns:xlink="http://www.w3.org/1999/xlink" x="0px" y="0px"
	 width="505.335px" height="462.541px" viewBox="0 0 505.335 462.541" enable-background="new 0 0 505.335 462.541"
	 xml:space="preserve">
<g>
	<g>
		<path fill-rule="evenodd" clip-rule="evenodd" fill="#F5F5F5" d="M427.913,84.4c-43.703-46.55-116.207-148.045-295.842-27.666
			c-187.466,125.632-166.398,256.609,6.616,349.353c112.813,60.475,213.861,101.195,303.551-33.575
			C496.446,291.053,558.15,223.129,427.913,84.4z"/>
	</g>
</g>
<g>
	<path fill="#7F87D3" d="M414.458,258.533c-0.053-0.2-0.052-0.4-0.108-0.601c-0.107-0.376-0.186-0.752-0.26-1.135
		c-1.974-10.204-7.778-16.945-17.281-20.035c-10.263-3.337-19.668-0.71-27.601,7.696c-6.129,6.494-12.295,13.155-18.262,19.596
		l-2.831,3.059c-0.355,0.385-0.656,0.793-0.968,1.245c-5.207-11.228-13.95-16.694-26.674-16.694c-0.469,0-0.943,0.008-1.421,0.021
		c-2.343,0.07-4.823,0.103-7.805,0.103c-2.344,0-4.688-0.02-7.032-0.04c-2.35-0.021-4.699-0.041-7.049-0.041
		c-3.155,0-5.773,0.037-8.238,0.115c-7.183,0.229-13.429-1.986-19.916-7.025c-11.007-8.547-22.933-12.881-35.445-12.881
		c-7.218,0-14.712,1.454-22.275,4.321c-4.034,1.529-7.702,3.69-11.585,5.979c-1.486,0.875-3.016,1.776-4.566,2.639
		c-5.151-6.581-12.586-9.652-23.305-9.652c-0.748,0-1.504,0.015-2.266,0.042c-3.785,0.141-7.706,0.208-11.986,0.208
		c-4.216,0-8.652-0.064-13.963-0.203c-6.01-0.151-9.599,2.218-11.415,7.304l0.17,0.168v102.29l-0.179,0.156
		c1.019,3.122,3.044,5.39,6.428,7.096l0.104,0.029h39.708l0.229,0.055c6.289-1.442,11.192-3.982,14.982-7.841
		c0.074-0.061,0.4-0.159,0.819-0.159c0.144,0,0.279,0.025,0.371,0.052c16.051,4.563,31.041,7.105,45.76,7.753
		c0.06,0.018,0.116,0.053,0.176,0.082c0.107,0.053,0.215,0.025,0.322,0.067l0.18-0.009h86.927l0.128,0.047
		c1.71-0.443,3.436-0.807,5.161-1.21c3.804-0.89,7.736-1.788,11.47-3.153c9.787-3.572,18.3-10.082,25.3-19.368l5.873-7.78
		c10.82-14.339,22.009-29.163,32.773-43.925c1.822-2.501,2.957-5.474,4.055-8.351c0.49-1.284,0.883-2.612,1.438-3.86l-0.025-0.198
		v-5.7L414.458,258.533z M264.561,333.945l-13.717,0.015c-16.1,0-32.42-2.239-48.504-6.653c-0.433-0.119-0.856-0.267-1.335-0.433
		c-0.051-0.018-0.103-0.035-0.155-0.053l0.004-14.319c0.005-14.814,0.011-30.133-0.048-45.199c-0.007-1.513,0.443-2.466,1.721-3.644
		c7.569-6.99,14.32-10.77,21.893-12.254c12.599-2.473,23.762,0.136,32.881,7.699c9.612,7.971,20.172,11.623,32.432,11.219
		c3.903-0.131,8.047-0.191,13.039-0.191c3.798,0,7.597,0.035,11.396,0.07c2.893,0.026,5.786,0.054,8.678,0.064
		c3.377,0.013,5.716,1.569,6.951,4.628c1.096,2.71,0.577,5.243-1.542,7.529c-1.426,1.539-3.329,2.226-6.212,2.226
		c-8.948-0.018-17.895-0.022-26.842-0.022l-28.235,0.007l-1.248-0.007c-0.432,0-1.001,0.006-1.577,0.055
		c-4.896,0.416-8.61,4.35-8.642,9.15c-0.032,4.97,3.859,9.033,8.858,9.251c1.219,0.054,2.543,0.078,4.168,0.078
		c0.913,0,1.827,0.073,2.74,0.066c0.908-0.008,1.816,0.065,2.725,0.065h0.414c5.027,0,10.056-0.091,15.084-0.102
		c5.027-0.01,10.056-0.061,15.083-0.061c8.34,0,15.162,0.009,21.47,0.071l0.389-0.009c9.135,0,16.558-3.269,22.693-9.982
		c7.785-8.522,15.803-17.098,23.557-25.389c3.155-3.373,6.31-6.749,9.458-10.128l0.329-0.355c0.508-0.551,0.987-1.071,1.512-1.531
		c1.477-1.299,3.195-1.986,4.972-1.986c1.603,0,3.145,0.569,4.458,1.646c2.748,2.252,3.382,5.818,1.615,9.085
		c-0.454,0.843-1.057,1.667-1.586,2.373c-4.344,5.797-8.692,11.59-13.041,17.382c-8.039,10.709-16.079,21.573-24.086,32.308
		c-8.798,11.791-20.215,17.678-34.903,17.678h-0.244c-10.081,0-20.158-0.213-30.239-0.213
		C282.136,334.08,273.348,333.935,264.561,333.945z M164.861,333.964c-2.506,0-5.151-0.009-7.677-0.018
		c-2.215-0.009-4.806-0.017-6.806-0.019v-80.096c3-0.003,4.646-0.013,6.886-0.022c2.55-0.012,5.151-0.022,7.68-0.022
		c4.091,0,7.472,0.03,10.569,0.096c4.125,0.089,6.823,3.261,6.828,8.081c0.013,15.063,0.037,30.126,0.037,45.188v14.555
		c0,0.501-0.01,1.003-0.005,1.504c0.01,1.204,0.015,2.448-0.04,3.655c-0.181,3.999-3.041,6.95-6.795,7.017
		C172.406,333.938,169.011,333.964,164.861,333.964z"/>
	<path fill="#7F87D3" d="M215.51,178.888c13.981,12.564,28.431,25.073,42.403,37.17c4.22,3.652,8.438,7.305,12.651,10.964
		c2.016,1.751,4.17,2.639,6.404,2.639c2.27,0,4.484-0.915,6.583-2.721l8.753-7.524c13.745-11.811,27.958-24.023,41.788-36.208
		c8.766-7.722,16.226-16.088,22.172-24.865c9.711-14.334,13.22-29.085,10.729-45.096c-3.179-20.428-17.912-36.934-37.536-42.051
		c-1.397-0.364-2.821-0.679-4.198-0.983c-0.631-0.139-1.261-0.278-1.89-0.422l-10.095-0.026l-0.268,0.036
		c-1.328,0.358-2.67,0.68-4.012,1.002c-2.974,0.713-6.049,1.45-8.946,2.593c-8.404,3.316-15.666,9.376-22.201,18.524
		c-0.195,0.273-0.394,0.545-0.579,0.796c-0.987-1.063-1.959-2.133-2.926-3.199c-2.723-3-5.537-6.101-8.575-8.857
		c-6.253-5.669-14.045-9.174-23.16-10.418c-0.252-0.034-0.541-0.138-0.847-0.248c-0.178-0.064-0.355-0.128-0.534-0.183l-10.17-0.046
		l-0.275,0.038c-0.229,0.064-0.457,0.135-0.686,0.207c-0.44,0.138-0.856,0.268-1.256,0.33c-8.597,1.33-16.121,4.55-22.365,9.572
		c-19.48,15.67-25.857,43.832-15.162,66.964C196.706,158.535,204.846,169.306,215.51,178.888z M215.397,96.656
		c5.54-5.46,12.725-8.468,20.23-8.468c10.117,0,19.583,5.408,25.321,14.467c2.152,3.397,3.885,7.183,5.56,10.843
		c0.677,1.479,1.354,2.958,2.06,4.419c1.781,3.686,4.62,5.555,8.437,5.556c3.896,0,6.814-1.929,8.438-5.578
		c0.238-0.537,0.432-1.083,0.619-1.612c0.238-0.673,0.463-1.309,0.764-1.887c0.628-1.21,1.229-2.44,1.831-3.671
		c1.485-3.04,3.022-6.184,4.961-8.922c7.299-10.31,16.787-14.768,28.14-13.205c12.586,1.731,21.16,9.098,25.482,21.896
		c4.008,11.862,2.38,23.729-4.838,35.273c-5.036,8.057-11.651,15.676-20.226,23.291c-10.654,9.461-21.646,18.906-32.278,28.04
		c-4.286,3.683-8.572,7.365-12.855,11.064c-0.007,0.006-0.02,0.015-0.036,0.024c-2.314-1.96-4.644-3.906-6.973-5.854
		c-5.507-4.603-11.201-9.362-16.622-14.234c-12.215-10.981-22.358-20.176-32.426-30.184c-8.635-8.583-13.694-17.462-15.467-27.144
		C203.009,117.069,206.333,105.591,215.397,96.656z"/>
</g>
</svg>
