<svg width="8" height="6" viewBox="0 0 8 6" fill="none" xmlns="http://www.w3.org/2000/svg">
<path d="M-5.73455e-06 1.22887C-5.73839e-06 1.31687 0.0879941 1.40487 0.131994 1.47087L1.82599 3.51687C3.14599 5.12287 3.60799 5.60687 3.69599 5.60687C3.82799 5.60687 4.55399 4.68287 4.83999 4.33087C6.70999 2.13087 7.25999 1.36087 7.25999 1.22887C7.25999 1.14087 7.03999 1.03087 6.92999 1.03087C6.81999 1.03087 6.22599 1.47087 5.23599 2.32887C4.22399 3.18687 3.71799 3.62687 3.69599 3.62687C3.40999 3.62687 3.07999 3.23087 1.84799 2.19687C1.25399 1.69087 0.329994 0.942871 0.241994 0.942871C0.153995 0.942871 -5.72685e-06 1.05287 -5.73455e-06 1.22887Z" fill="black"/>
</svg>
