<svg width="137" height="20" viewBox="0 0 137 20" fill="none" xmlns="http://www.w3.org/2000/svg">
<path d="M10.1049 9.46461L9.592 9.19391L9.86866 8.99745L10.0788 8.85502C10.8569 8.32946 12.4724 7.23845 12.4724 4.89688C12.4724 3.29882 11.6031 1.9856 9.8861 0.99575C8.66469 0.28362 7.56783 0.116943 4.30192 0.116943H0C0.372392 0.829073 0.592573 1.44015 0.592573 3.61069V16.5049C0.592573 18.6769 0.372392 19.2851 0 20.0001H4.30192C7.77939 20.0001 8.99932 19.7266 10.4077 19.1113C12.2754 18.1727 13.5881 16.2129 13.5881 14.3499C13.5881 11.2535 11.2365 10.0442 10.1049 9.46461ZM4.01069 2.22068L4.18885 2.19217C4.50732 2.15707 4.8278 2.14324 5.14808 2.15079C7.48667 2.15079 8.93997 3.25318 8.93997 5.36543C8.93997 7.3595 7.36062 8.38637 4.91768 8.38637C4.67548 8.39264 4.43307 8.37882 4.19321 8.3451L4.01505 8.31659L4.01069 2.22068ZM5.648 17.9619H4.01069V10.4886H4.88003C7.7344 10.4886 10.057 11.977 10.057 14.2188C10.0557 16.6587 8.36611 17.9619 5.648 17.9619Z" fill="black"/>
<path d="M29.2932 10.8232L29.5945 10.7677C31.1421 10.5027 34.7513 8.9973 34.7513 5.49781C34.7513 3.96091 33.8907 2.64919 32.5606 1.57807C31.6506 0.843174 30.1264 0 26.3881 0C25.5897 0 25.029 0.02138 24.3799 0.0470145C23.6337 0.0769038 22.7962 0.108282 21.4081 0.113919C21.7457 0.861682 22.063 1.5753 22.063 2.63632V15.3796C22.063 18.2623 21.992 18.5942 21.4646 19.9971H26.0331C25.5724 18.8206 25.4811 18.0031 25.4811 15.5575V10.5925L32.4258 19.9928H37.2956C36.3365 19.0414 35.0064 17.9617 33.5661 15.9393L29.2932 10.8232ZM26.7721 8.76223C26.5706 8.76223 26.3794 8.75223 26.1925 8.74234C26.0056 8.73234 25.8592 8.72521 25.694 8.72521H25.4811V2.22616H25.6955C27.1213 2.22616 30.9117 1.67922 30.9117 5.67151C30.9102 7.88778 29.3512 8.76223 26.7721 8.76223Z" fill="black"/>
<path d="M128.255 10.8232L128.556 10.7677C130.104 10.5027 133.712 8.9973 133.712 5.49781C133.712 3.96091 132.852 2.64919 131.521 1.57807C130.612 0.843174 129.087 0 125.349 0C124.551 0 123.99 0.02138 123.34 0.0470145C122.595 0.0769038 121.757 0.108282 120.369 0.113919C120.708 0.861682 121.024 1.5753 121.024 2.63632V15.3796C121.024 18.2623 120.952 18.5942 120.426 19.9971H124.994C124.533 18.8206 124.442 18.0031 124.442 15.5575V10.5925L131.387 19.9928H136.257C135.297 19.0414 133.968 17.9617 132.527 15.9393L128.255 10.8232ZM125.733 8.76223C125.532 8.76223 125.34 8.75223 125.153 8.74234C124.967 8.73234 124.82 8.72521 124.655 8.72521H124.443V2.22616H124.658C126.084 2.22616 129.875 1.67922 129.875 5.67151C129.871 7.88778 128.312 8.76223 125.733 8.76223Z" fill="black"/>
<path d="M54.48 2.4712C54.2178 1.80034 53.7745 0.612532 53.7745 0.245033C53.7745 0.203762 53.7745 0.159621 53.7745 0.115479H49.4667V0.128242C49.6728 0.539139 49.7077 1.01279 49.5638 1.44858L44.0274 16.5404C43.5644 17.7309 43.0138 18.8867 42.38 19.9985H46.3588C46.2902 19.7055 46.2725 19.403 46.3067 19.1041C46.3908 18.3894 46.5471 17.6847 46.7732 17.0004L48.0149 13.4582H54.9524L56.2739 16.999C56.5072 17.6499 56.7477 18.3193 56.7477 18.993C56.733 19.3394 56.6451 19.6789 56.4897 19.99H61.2568C60.6396 19.003 60.2309 18.1 59.6731 16.5275L54.48 2.4712ZM48.9002 11.0412L51.5156 3.97672L54.099 11.0412H48.9002Z" fill="black"/>
<path d="M68.2015 0.115422L67.009 3.47099C68.5594 2.69196 70.0112 2.34009 73.28 2.34009C73.7147 2.34009 74.19 2.36435 74.6116 2.38424C74.9492 2.40136 75.2521 2.41562 75.4722 2.41562H75.8359L66.0266 19.9985H79.3279L80.703 16.6201C77.9572 17.6726 76.0808 17.7382 71.1283 17.7738H70.9747L80.9391 0.112549L68.2015 0.115422Z" fill="black"/>
<path d="M92.813 0.115479H88.2201C88.5913 0.827608 88.8115 1.43858 88.8115 3.60922V16.5034C88.8115 18.6754 88.5913 19.2835 88.2201 19.9985H92.8205C92.4493 19.2864 92.2291 18.6754 92.2291 16.5034V3.60922C92.2216 1.43858 92.4418 0.83048 92.813 0.115479Z" fill="black"/>
<path d="M105.879 17.6969L105.684 17.6812V10.9643L105.885 10.9529C106.534 10.9158 107.278 10.8774 107.861 10.8774C109.071 10.8774 110.178 11.0939 111.338 11.3346L112.258 8.73666H105.689V2.45418L105.859 2.41993C106.345 2.35387 106.835 2.32717 107.326 2.34015C110.079 2.34015 110.579 2.44131 112.187 2.964L113.11 0.115479H101.678C102.05 0.827608 102.27 1.43858 102.27 3.60922V16.5034C102.27 18.6754 102.05 19.2835 101.678 19.9985H112.439L113.387 16.9577C112.054 17.3323 110.558 17.7738 107.479 17.7738C106.985 17.7738 106.31 17.7353 105.879 17.6969Z" fill="black"/>
</svg>
