<svg width="43" height="34" viewBox="0 0 43 34" fill="none" xmlns="http://www.w3.org/2000/svg">
<path d="M37.5824 15.3488C37.7986 15.565 37.9067 15.8353 37.9067 16.1055V18.7002C37.9067 18.9705 37.7986 19.2408 37.5824 19.457C37.3662 19.6732 37.0959 19.7814 36.8256 19.7814H34.285C33.9606 19.7814 33.6904 19.6732 33.4741 19.457C33.312 19.2408 33.2039 18.9705 33.2039 18.7002V16.1055C33.2039 15.5109 32.7174 15.0244 32.1227 15.0244H1.2027C0.608086 15.0244 0.121582 15.5109 0.121582 16.1055V18.7002C0.121582 19.2949 0.608086 19.7814 1.2027 19.7814H32.1227C32.393 19.7814 32.6633 19.8895 32.8795 20.1057C33.0417 20.2679 33.2039 20.5381 33.2039 20.8625V23.4031C33.2039 23.6734 33.0417 23.9977 32.8795 24.1599C32.6633 24.3761 32.393 24.4842 32.1227 24.4842H29.528C28.9334 24.4842 28.4469 24.9707 28.4469 25.5653V28.16C28.4469 28.4303 28.3388 28.7006 28.1226 28.9168C27.9604 29.079 27.6361 29.2412 27.3658 29.2412H24.8252C24.2306 29.2412 23.7441 29.7277 23.7441 30.3223V32.8629C23.7441 33.4575 24.2306 33.944 24.8252 33.944H27.3658C27.9604 33.944 28.4469 33.4575 28.4469 32.8629V30.3223C28.4469 29.9979 28.555 29.7277 28.7713 29.5114C28.9875 29.3493 29.2578 29.2412 29.528 29.2412H32.1227C32.7174 29.2412 33.2039 28.7547 33.2039 28.16V25.5653C33.2039 25.2951 33.312 25.0248 33.4741 24.8086C33.6904 24.5923 33.9606 24.4842 34.285 24.4842H36.8256C37.4202 24.4842 37.9067 23.9977 37.9067 23.4031V20.8625C37.9067 20.5381 38.0148 20.2679 38.2311 20.1057C38.4473 19.8895 38.7176 19.7814 38.9878 19.7814H41.5285C42.1231 19.7814 42.6096 19.2949 42.6096 18.7002V16.1055C42.6096 15.5109 42.1231 15.0244 41.5285 15.0244H38.9878C38.7176 15.0244 38.4473 14.9163 38.2311 14.7001C38.0148 14.5379 37.9067 14.2676 37.9067 13.9433V11.4027C37.9067 10.8081 37.4202 10.3216 36.8256 10.3216H34.285C33.9606 10.3216 33.6904 10.2134 33.4741 9.99722C33.312 9.781 33.2039 9.51072 33.2039 9.24044V6.64575C33.2039 6.05113 32.7174 5.56463 32.1227 5.56463H29.528C29.2578 5.56463 28.9875 5.45652 28.7713 5.29435C28.555 5.07812 28.4469 4.80784 28.4469 4.48351V1.94288C28.4469 1.34826 27.9604 0.861755 27.3658 0.861755H24.8252C24.2306 0.861755 23.7441 1.34826 23.7441 1.94288V4.48351C23.7441 5.07812 24.2306 5.56463 24.8252 5.56463H27.3658C27.6361 5.56463 27.9604 5.7268 28.1226 5.88896C28.3388 6.10519 28.4469 6.37547 28.4469 6.64575V9.24044C28.4469 9.83505 28.9334 10.3216 29.528 10.3216H32.1227C32.393 10.3216 32.6633 10.4297 32.8795 10.6459C33.0417 10.8081 33.2039 11.1324 33.2039 11.4027V13.9433C33.2039 14.5379 33.6904 15.0244 34.285 15.0244H36.8256C37.0959 15.0244 37.3662 15.1325 37.5824 15.3488Z" fill="black"/>
</svg>
