<svg xmlns="http://www.w3.org/2000/svg" fill="none" viewBox="0 0 75 151">
  <path fill="#fff" fill-rule="evenodd" d="M22.8 1.6C24.8 3 25 4 25 11.6c0 7.7.2 8.7 2.5 11 2.2 2.2 3.2 2.4 10.8 2.4 5.6 0 9 .5 10.3 1.4 1.6 1.2 2 3 2.4 11.2.5 9.3.6 10 3 11.1 1.4.7 5.8 1.3 9.8 1.3 5.9 0 7.6.4 9.2 2 1.9 1.9 2 3.3 2 23.3 0 16.8-.3 21.7-1.4 23.3-1.2 1.6-3 2-10.8 2.2-7.1.3-9.6.7-10.5 2-.8 1-1.3 4.8-1.3 9.8 0 6.6-.4 8.6-2 10.5-1.6 2.1-2.9 2.5-11.4 3-5.3.2-10 1-10.7 1.6a34 34 0 0 0-1.7 10.6 31 31 0 0 1-2 11c-.9.8-4.4 1.2-10.6 1.2-6.4 0-9.8-.4-11-1.4-1.3-1-1.6-3.2-1.6-11a43 43 0 0 1 1-11c.6-1.1 3.6-1.7 10.5-2 8.6-.5 9.9-.9 11.6-3 1.5-1.8 1.9-4 1.9-10 0-5 .5-8.4 1.4-9.7 1.2-1.6 3-2 11-2.4 5.7-.4 10-1 10.8-1.8 1-1 1.3-6.8 1.3-22.7A97 97 0 0 0 48.4 53c-.7-.7-5.5-1.5-10.9-2a36.8 36.8 0 0 1-10.9-2c-.6-.6-1.4-5.3-1.7-10.5a36 36 0 0 0-1.8-10.9c-.8-1-4-1.5-10.5-1.8-6-.2-9.9-.8-11-1.7C.4 23.1 0 21 0 13.1 0 7.8.4 3 .8 2.4 1.2 1.8 2.2 1 3 .7a53 53 0 0 1 9.5-.6c5.8 0 8.7.3 10.3 1.5Z" clip-rule="evenodd"/>
</svg>
