<svg xmlns="http://www.w3.org/2000/svg" fill="none" viewBox="0 0 43 34">
  <path fill="#fff" d="M37.6 15.3c.2.3.3.5.3.8v2.6c0 .3-.1.5-.3.8a1 1 0 0 1-.8.3h-2.5c-.3 0-.6-.1-.8-.3-.2-.3-.3-.5-.3-.8v-2.6c0-.6-.5-1-1-1h-31a1 1 0 0 0-1 1v2.6c0 .6.4 1 1 1h31l.7.4c.1.2.3.4.3.8v2.5c0 .3-.2.6-.3.8a1 1 0 0 1-.8.3h-2.6a1 1 0 0 0-1 1v2.7l-.4.7c-.1.2-.5.3-.7.3h-2.6a1 1 0 0 0-1 1.1V33c0 .6.4 1 1 1h2.6c.6 0 1-.4 1-1v-2.6c0-.3.2-.6.4-.8.2-.2.5-.3.7-.3h2.6c.6 0 1.1-.4 1.1-1v-2.6c0-.3.1-.6.3-.8.2-.2.5-.3.8-.3h2.5c.6 0 1.1-.5 1.1-1.1V21c0-.4.1-.6.3-.8.2-.2.5-.3.8-.3h2.5c.6 0 1.1-.5 1.1-1.1v-2.6c0-.6-.5-1-1-1H39a1 1 0 0 1-.8-.4c-.2-.2-.3-.4-.3-.8v-2.5c0-.6-.5-1-1-1h-2.6c-.3 0-.6-.2-.8-.4-.2-.2-.3-.5-.3-.8V6.6c0-.5-.5-1-1-1h-2.7a1 1 0 0 1-.7-.3c-.2-.2-.4-.5-.4-.8V1.9c0-.6-.4-1-1-1h-2.6a1 1 0 0 0-1 1v2.6c0 .6.4 1 1 1h2.6c.2 0 .6.2.7.4.2.2.3.5.3.7v2.6c0 .6.5 1.1 1.1 1.1h2.6c.3 0 .6.1.8.3.1.2.3.5.3.8v2.5c0 .6.5 1.1 1 1.1h2.6c.3 0 .6.1.8.3Z"/>
</svg>
