<svg width="152" height="146" viewBox="0 0 152 146" fill="none" xmlns="http://www.w3.org/2000/svg">
<path fill-rule="evenodd" clip-rule="evenodd" d="M11 5V10H5.5H0V35.948V61.895L5.25 62.198L10.5 62.5L10.803 67.773L11.106 73.046L28.803 72.773L46.5 72.5L46.802 67.25L47.105 62H52.052H57V36V10H52H47V5V0H29H11V5ZM99.785 10.25L99.5 20.5L94.25 20.802L89 21.105V31.552V42H84.035H79.07L78.785 52.25L78.5 62.5L73.25 62.802L68 63.105V73.552V84H63.035H58.07L57.785 94.25L57.5 104.5L52.25 104.802L47 105.105V115.552V126H42H37V136V146H44.5H52V135.5V125H56.965H61.93L62.215 114.75L62.5 104.5L67.75 104.198L73 103.895V93.448V83H78H83V72.5V62H88.5H94V51.5V41H98.965H103.93L104.215 30.75L104.5 20.5L109.75 20.198L115 19.895V9.948V0H107.535H100.07L99.785 10.25ZM42 36.529V63.058L28.75 62.779L15.5 62.5L15.233 36.25L14.967 10H28.483H42V36.529ZM105 78.5V84H99.5H94V109.448V134.895L99.25 135.198L104.5 135.5L104.802 140.75L105.105 146H123H140.895L141.198 140.75L141.5 135.5L146.75 135.198L152 134.895V109.448V84H146.5H141V78.5V73H123H105V78.5ZM136 109.5V136H123H110V109.5V83H123H136V109.5Z" fill="black"/>
</svg>
