<svg width="60" height="60" fill="none" xmlns="http://www.w3.org/2000/svg"><path d="M57 0H3a3 3 0 00-3 3v54a3 3 0 003 3h54a3 3 0 003-3V3a3 3 0 00-3-3z" fill="#F90" fill-opacity=".2"/><path d="M31.309 53.157c10.032 0 18.165-1.296 18.165-2.895s-8.133-2.895-18.165-2.895c-10.033 0-18.165 1.296-18.165 2.895s8.132 2.895 18.165 2.895z" fill="#F90" fill-opacity=".2"/><path opacity=".7" d="M28.932 35.406c-.887-1.104-1.724-2.291-2.793-3.196-2.413-2.216-5.423-3.797-7.976-5.834-1.85-1.477-3.408-3.242-4.572-5.431-1.819.856-2.11 2.094-2.13 3.199-.053 2.932 4.451 6.038 7.258 6.959 3.346 1.314 6.246 3.18 8.16 6.385 5.028 7.356 16.132 9.222 22.457 3.61-5.919 2.992-16.25.871-20.404-5.692z" fill="#F90"/><path d="M18.28 24.903c-4.068-3.847-4.068-5.403-.358-9.187.004-.005 2.59-2.318 3.419-3.582.66-1.01 1.334-.966 1.759-.862.228.055.598.3.583.919-.011.523.006.832.086 1.591.384 3.63.999 5.428 5.102 6.865 1.17.41 1.925 1.132 2.532 1.733l-.922-1.495c-.456-.819-1.219-2.123-.902-3.021.459-1.297 3.35-2.317 4.81-1.347.463.308.583 1.386.707 1.933.353 1.574.554 2.992.908 4.248-.52.033-.9.134-1.45.33-1.235.444-2.091 1.14-2.128 1.17a.372.372 0 00.473.576c.008-.006.807-.653 1.924-1.05.541-.191.966-.29 1.459-.303.2.676.49 1.303.686 1.887-.377.058-.76.154-1.15.294a7.768 7.768 0 00-2.128 1.169.372.372 0 10.473.576 7.129 7.129 0 011.924-1.05 5.298 5.298 0 011.128-.273c.231.662.459 1.262.678 1.802a6.218 6.218 0 00-.898.251c-1.236.443-2.092 1.14-2.128 1.169a.372.372 0 00.472.577 7.193 7.193 0 011.924-1.05c.317-.111.624-.192.924-.242.3.698.582 1.283.836 1.768a6.266 6.266 0 00-.963.262 7.777 7.777 0 00-2.128 1.169.372.372 0 00.474.577 7.187 7.187 0 011.923-1.05c.37-.131.73-.22 1.078-.268.613 1.052 2.428 2.821 2.428 2.821.352.221.715.587 1.253 1.046 2.828 2.405 6.879 3.96 6.337 4.973-.382.715-1.747 1.078-2.944 1.366-6.066 1.456-10.971-.666-15.304-4.798.002 0 .006 0 .008.002-.947-.883-1.707-2.252-2.524-3.204-2.89-3.37-6.017-5.188-9.238-7.468-.005.002-.887-.583-1.142-.824z" fill="#F90"/></svg>