<svg width="150" height="47" fill="none" xmlns="http://www.w3.org/2000/svg"><g opacity=".5" fill="#fff" fill-opacity=".92"><g clip-path="url(#clip0)"><path d="M52 45.77c-.409-.129-.779-.518-.864-.91-.168-.757.635-1.514 1.437-1.356.604.118 1.071.698 1.013 1.245-.043.386-.35.782-.74.962a1.366 1.366 0 01-.846.059zm4.986 0c-.588-.184-.985-.793-.865-1.33.098-.436.53-.844.99-.936.755-.15 1.538.522 1.46 1.245-.042.386-.35.782-.74.962a1.364 1.364 0 01-.845.059zm4.986 0c-.409-.129-.779-.518-.865-.91-.167-.757.635-1.514 1.438-1.356.603.118 1.07.698 1.012 1.245-.043.386-.35.782-.74.962a1.366 1.366 0 01-.845.059zm4.985 0c-.409-.129-.779-.518-.864-.91-.168-.757.635-1.514 1.437-1.356.604.118 1.071.698 1.013 1.245-.043.386-.35.782-.74.962a1.364 1.364 0 01-.846.059zm4.987 0c-.41-.129-.78-.518-.865-.91-.167-.757.635-1.514 1.437-1.356.604.118 1.072.698 1.013 1.245-.043.386-.35.782-.74.962a1.364 1.364 0 01-.845.059zm4.986 0c-.41-.129-.78-.518-.866-.91-.167-.757.635-1.514 1.438-1.356.603.118 1.07.698 1.012 1.245-.042.386-.35.782-.74.962a1.364 1.364 0 01-.845.059zm4.985 0c-.409-.129-.779-.518-.864-.91-.168-.757.635-1.514 1.437-1.356.604.118 1.071.698 1.013 1.245-.043.386-.35.782-.74.962a1.364 1.364 0 01-.846.059zm4.985 0c-.408-.129-.778-.518-.864-.91-.168-.757.635-1.514 1.437-1.356.604.118 1.072.698 1.013 1.245-.043.386-.35.782-.74.962a1.364 1.364 0 01-.845.059zm4.986 0c-.409-.129-.779-.518-.864-.91-.098-.43.124-.896.553-1.172a1.172 1.172 0 011.313-.01c.689.432.782 1.24.206 1.78-.331.316-.806.437-1.208.312zm4.987 0c-.41-.129-.78-.518-.865-.91-.097-.43.125-.896.553-1.172a1.172 1.172 0 011.313-.01c.69.432.783 1.24.206 1.78-.33.316-.806.437-1.207.312zM52 39.104c-.409-.128-.779-.518-.864-.91-.168-.757.635-1.513 1.437-1.355.604.117 1.071.697 1.013 1.244-.043.386-.35.782-.74.962a1.365 1.365 0 01-.846.06zm4.986 0c-.588-.184-.985-.793-.865-1.33.098-.436.53-.844.99-.935.755-.151 1.538.52 1.46 1.244-.042.386-.35.782-.74.962a1.364 1.364 0 01-.845.059zm4.986 0c-.409-.128-.779-.518-.865-.91-.167-.757.635-1.513 1.438-1.355.603.117 1.07.697 1.012 1.244-.043.386-.35.782-.74.962a1.365 1.365 0 01-.845.06zm4.985 0c-.409-.128-.779-.518-.864-.91-.168-.757.635-1.513 1.437-1.355.604.117 1.071.697 1.013 1.244-.043.386-.35.782-.74.962a1.365 1.365 0 01-.846.06zm4.987 0c-.41-.128-.78-.518-.865-.91-.167-.757.635-1.513 1.437-1.355.604.117 1.072.697 1.013 1.244-.043.386-.35.782-.74.962a1.365 1.365 0 01-.845.06zm4.986 0c-.41-.128-.78-.518-.866-.91-.167-.757.635-1.513 1.438-1.355.603.117 1.07.697 1.012 1.244-.042.386-.35.782-.74.962a1.365 1.365 0 01-.845.06zm4.985 0c-.409-.128-.779-.518-.864-.91-.168-.757.635-1.513 1.437-1.355.604.117 1.071.697 1.013 1.244-.043.386-.35.782-.74.962a1.365 1.365 0 01-.846.06zm4.985 0c-.408-.128-.778-.518-.864-.91-.168-.757.635-1.513 1.437-1.355.604.117 1.072.697 1.013 1.244-.043.386-.35.782-.74.962a1.365 1.365 0 01-.845.06zm4.986 0c-.409-.129-.779-.518-.864-.91-.098-.43.124-.897.553-1.172a1.172 1.172 0 011.313-.01c.689.432.782 1.24.206 1.78-.331.316-.806.437-1.208.312zm4.987 0c-.41-.129-.78-.518-.865-.91-.097-.43.125-.897.553-1.172a1.172 1.172 0 011.313-.01c.69.432.783 1.24.206 1.78-.33.316-.806.437-1.207.312zM52 32.445c-.409-.129-.779-.518-.864-.91-.168-.757.635-1.514 1.437-1.356.604.118 1.071.698 1.013 1.245-.043.386-.35.782-.74.962a1.365 1.365 0 01-.846.059zm4.986 0c-.41-.129-.78-.518-.865-.91-.168-.757.635-1.514 1.437-1.356.604.118 1.072.698 1.013 1.245-.043.386-.35.782-.74.962a1.365 1.365 0 01-.845.059zm4.986 0c-.409-.129-.779-.518-.865-.91-.167-.757.635-1.514 1.438-1.356.603.118 1.07.698 1.012 1.245-.043.386-.35.782-.74.962a1.365 1.365 0 01-.845.059zm4.985 0c-.409-.129-.779-.518-.864-.91-.168-.757.635-1.514 1.437-1.356.604.118 1.071.698 1.013 1.245-.043.386-.35.782-.74.962a1.365 1.365 0 01-.846.059zm4.987 0c-.41-.129-.78-.518-.865-.91-.167-.757.635-1.514 1.437-1.356.604.118 1.072.698 1.013 1.245-.043.386-.35.782-.74.962a1.365 1.365 0 01-.845.059zm4.986 0c-.41-.129-.78-.518-.866-.91-.167-.757.635-1.514 1.438-1.356.603.118 1.07.698 1.012 1.245-.042.386-.35.782-.74.962a1.365 1.365 0 01-.845.059zm4.985 0c-.409-.129-.779-.518-.864-.91-.168-.757.635-1.514 1.437-1.356.604.118 1.071.698 1.013 1.245-.043.386-.35.782-.74.962a1.365 1.365 0 01-.846.059zm4.985 0c-.408-.129-.778-.518-.864-.91-.168-.757.635-1.514 1.437-1.356.604.118 1.072.698 1.013 1.245-.043.386-.35.782-.74.962a1.365 1.365 0 01-.845.059zm4.987 0c-.409-.129-.779-.518-.865-.91-.167-.757.635-1.514 1.438-1.356.603.118 1.07.698 1.012 1.245-.042.386-.35.782-.74.962a1.365 1.365 0 01-.845.059zm4.985 0c-.409-.129-.779-.518-.864-.91-.168-.757.635-1.514 1.437-1.356.604.118 1.071.698 1.013 1.245-.043.386-.35.782-.74.962a1.365 1.365 0 01-.846.059zM52 25.787c-.409-.128-.779-.517-.864-.91-.168-.757.635-1.513 1.437-1.355.604.117 1.071.698 1.013 1.245-.043.385-.35.782-.74.962a1.364 1.364 0 01-.846.058zm4.986 0c-.41-.128-.78-.517-.865-.91-.168-.757.635-1.513 1.437-1.355.604.117 1.072.698 1.013 1.245-.043.385-.35.782-.74.962a1.364 1.364 0 01-.845.058zm4.986 0c-.409-.128-.779-.517-.865-.91-.167-.757.635-1.513 1.438-1.355.603.117 1.07.698 1.012 1.245-.043.385-.35.782-.74.962a1.364 1.364 0 01-.845.058zm4.985 0c-.409-.128-.779-.517-.864-.91-.168-.757.635-1.513 1.437-1.355.604.117 1.071.698 1.013 1.245-.043.385-.35.782-.74.962a1.364 1.364 0 01-.846.058zm4.987 0c-.41-.128-.78-.517-.865-.91-.167-.757.635-1.513 1.437-1.355.604.117 1.072.698 1.013 1.245-.043.385-.35.782-.74.962a1.364 1.364 0 01-.845.058zm4.986 0c-.41-.128-.78-.517-.866-.91-.167-.757.635-1.513 1.438-1.355.603.117 1.07.698 1.012 1.245-.042.385-.35.782-.74.962a1.364 1.364 0 01-.845.058zm4.985 0c-.409-.128-.779-.517-.864-.91-.168-.757.635-1.513 1.437-1.355.604.117 1.071.698 1.013 1.245-.043.385-.35.782-.74.962a1.364 1.364 0 01-.846.058zm4.985 0c-.408-.128-.778-.517-.864-.91-.168-.757.635-1.513 1.437-1.355.604.117 1.072.698 1.013 1.245-.043.385-.35.782-.74.962a1.364 1.364 0 01-.845.058zm4.987 0c-.409-.128-.779-.517-.865-.91-.167-.757.635-1.513 1.438-1.355.603.117 1.07.698 1.012 1.245-.042.385-.35.782-.74.962a1.364 1.364 0 01-.845.058zm4.985 0c-.409-.128-.779-.517-.864-.91-.168-.757.635-1.513 1.437-1.355.604.117 1.071.698 1.013 1.245-.043.385-.35.782-.74.962a1.364 1.364 0 01-.846.058zM52 19.13c-.409-.128-.779-.517-.864-.91-.168-.757.635-1.513 1.437-1.355.604.117 1.071.697 1.013 1.244-.043.386-.35.782-.74.962a1.365 1.365 0 01-.846.06zm4.986 0c-.41-.128-.78-.517-.865-.91-.168-.757.635-1.513 1.437-1.355.604.117 1.072.697 1.013 1.244-.043.386-.35.782-.74.962a1.365 1.365 0 01-.845.06zm4.986 0c-.409-.128-.779-.517-.865-.91-.167-.757.635-1.513 1.438-1.355.603.117 1.07.697 1.012 1.244-.043.386-.35.782-.74.962a1.365 1.365 0 01-.845.06zm4.985 0c-.409-.128-.779-.517-.864-.91-.168-.757.635-1.513 1.437-1.355.604.117 1.071.697 1.013 1.244-.043.386-.35.782-.74.962a1.365 1.365 0 01-.846.06zm4.987 0c-.41-.128-.78-.517-.865-.91-.167-.757.635-1.513 1.437-1.355.604.117 1.072.697 1.013 1.244-.043.386-.35.782-.74.962a1.365 1.365 0 01-.845.06zm4.986 0c-.41-.128-.78-.517-.866-.91-.167-.757.635-1.513 1.438-1.355.603.117 1.07.697 1.012 1.244-.042.386-.35.782-.74.962a1.365 1.365 0 01-.845.06zm4.985 0c-.409-.128-.779-.517-.864-.91-.168-.757.635-1.513 1.437-1.355.604.117 1.071.697 1.013 1.244-.043.386-.35.782-.74.962a1.365 1.365 0 01-.846.06zm4.985 0c-.408-.128-.778-.517-.864-.91-.168-.757.635-1.513 1.437-1.355.604.117 1.072.697 1.013 1.244-.043.386-.35.782-.74.962a1.365 1.365 0 01-.845.06zm4.987 0c-.409-.128-.779-.517-.865-.91-.167-.757.635-1.513 1.438-1.355.603.117 1.07.697 1.012 1.244-.042.386-.35.782-.74.962a1.365 1.365 0 01-.845.06zm4.985 0c-.409-.128-.779-.517-.864-.91-.168-.757.635-1.513 1.437-1.355.604.117 1.071.697 1.013 1.244-.043.386-.35.782-.74.962a1.365 1.365 0 01-.846.06zM52 12.473c-.409-.129-.779-.518-.864-.91-.168-.757.635-1.514 1.437-1.356.604.118 1.071.698 1.013 1.245-.043.386-.35.782-.74.962a1.364 1.364 0 01-.846.059zm4.986 0c-.41-.129-.78-.518-.865-.91-.168-.757.635-1.514 1.437-1.356.604.118 1.072.698 1.013 1.245-.043.386-.35.782-.74.962a1.364 1.364 0 01-.845.059zm4.986 0c-.409-.129-.779-.518-.865-.91-.167-.757.635-1.514 1.438-1.356.603.118 1.07.698 1.012 1.245-.043.386-.35.782-.74.962a1.364 1.364 0 01-.845.059zm4.985 0c-.409-.129-.779-.518-.864-.91-.168-.757.635-1.514 1.437-1.356.604.118 1.071.698 1.013 1.245-.043.386-.35.782-.74.962a1.364 1.364 0 01-.846.059zm4.987 0c-.41-.129-.78-.518-.865-.91-.167-.757.635-1.514 1.437-1.356.604.118 1.072.698 1.013 1.245-.043.386-.35.782-.74.962a1.364 1.364 0 01-.845.059zm4.986 0c-.41-.129-.78-.518-.866-.91-.167-.757.635-1.514 1.438-1.356.603.118 1.07.698 1.012 1.245-.042.386-.35.782-.74.962a1.364 1.364 0 01-.845.059zm4.985 0c-.409-.129-.779-.518-.864-.91-.168-.757.635-1.514 1.437-1.356.604.118 1.071.698 1.013 1.245-.043.386-.35.782-.74.962a1.364 1.364 0 01-.846.059zm4.985 0c-.408-.129-.778-.518-.864-.91-.168-.757.635-1.514 1.437-1.356.604.118 1.072.698 1.013 1.245-.043.386-.35.782-.74.962a1.364 1.364 0 01-.845.059zm4.987 0c-.409-.129-.779-.518-.865-.91-.167-.757.635-1.514 1.438-1.356.603.118 1.07.698 1.012 1.245-.042.386-.35.782-.74.962a1.364 1.364 0 01-.845.059zm4.985 0c-.409-.129-.779-.518-.864-.91-.168-.757.635-1.514 1.437-1.356.604.118 1.071.698 1.013 1.245-.043.386-.35.782-.74.962a1.364 1.364 0 01-.846.059zM52 5.809c-.409-.129-.779-.518-.864-.91-.168-.757.635-1.514 1.437-1.356.604.118 1.071.698 1.013 1.245-.043.386-.35.782-.74.962a1.365 1.365 0 01-.846.059zm4.986 0c-.41-.129-.78-.518-.865-.911-.168-.756.635-1.513 1.437-1.355.604.118 1.072.698 1.013 1.245-.043.385-.35.782-.74.962a1.365 1.365 0 01-.845.059zm4.986 0c-.409-.129-.779-.518-.864-.911-.098-.43.124-.896.553-1.171a1.172 1.172 0 011.312-.011c.69.433.783 1.24.207 1.78-.331.316-.806.437-1.208.313zm4.986 0c-.41-.129-.78-.518-.865-.911-.097-.43.125-.896.553-1.171a1.172 1.172 0 011.313-.011c.69.433.783 1.24.206 1.78-.33.316-.806.437-1.207.313zm4.986 0c-.588-.184-.986-.793-.865-1.33.098-.437.53-.844.994-.936.751-.15 1.534.521 1.456 1.245-.042.385-.35.782-.74.962a1.365 1.365 0 01-.845.059zm4.986 0c-.589-.184-.986-.793-.865-1.33.097-.437.53-.844.993-.936.752-.15 1.535.521 1.457 1.245-.043.385-.35.782-.74.962a1.365 1.365 0 01-.846.059zm4.985 0c-.589-.184-.986-.793-.865-1.33.097-.437.53-.844.993-.936.752-.15 1.535.521 1.457 1.245-.043.385-.35.782-.74.962a1.365 1.365 0 01-.845.059zm4.986 0c-.588-.184-.985-.793-.865-1.33.098-.437.53-.844.994-.936.751-.15 1.534.521 1.456 1.245-.043.385-.35.782-.74.962a1.365 1.365 0 01-.845.059zm4.986 0c-.409-.129-.779-.518-.865-.911-.167-.756.635-1.513 1.438-1.355.603.118 1.07.698 1.012 1.245-.042.385-.35.782-.74.962a1.365 1.365 0 01-.845.059zm4.985 0c-.409-.129-.779-.518-.864-.911-.168-.756.635-1.513 1.437-1.355.604.118 1.071.698 1.013 1.245-.043.385-.35.782-.74.962a1.365 1.365 0 01-.846.059z"/></g><g clip-path="url(#clip1)"><path d="M101.858 45.77c-.409-.129-.779-.518-.865-.91-.167-.757.635-1.514 1.437-1.356.604.118 1.072.698 1.013 1.245-.043.386-.35.782-.74.962a1.365 1.365 0 01-.845.059zm4.985 0c-.588-.184-.985-.793-.864-1.33.097-.436.529-.844.989-.936.756-.15 1.539.522 1.461 1.245-.043.386-.351.782-.74.962a1.367 1.367 0 01-.846.059zm4.986 0c-.409-.129-.779-.518-.864-.91-.168-.757.635-1.514 1.437-1.356.604.118 1.071.698 1.013 1.245-.043.386-.351.782-.74.962a1.368 1.368 0 01-.846.059zm4.986 0c-.409-.129-.779-.518-.865-.91-.167-.757.635-1.514 1.437-1.356.604.118 1.072.698 1.013 1.245-.043.386-.35.782-.74.962a1.364 1.364 0 01-.845.059zm4.986 0c-.409-.129-.779-.518-.865-.91-.167-.757.635-1.514 1.438-1.356.603.118 1.071.698 1.012 1.245-.042.386-.35.782-.74.962a1.363 1.363 0 01-.845.059zm4.986 0c-.409-.129-.78-.518-.865-.91-.168-.757.635-1.514 1.437-1.356.604.118 1.071.698 1.013 1.245-.043.386-.351.782-.74.962a1.364 1.364 0 01-.845.059zm4.986 0c-.409-.129-.779-.518-.865-.91-.167-.757.635-1.514 1.437-1.356.604.118 1.072.698 1.013 1.245-.043.386-.35.782-.74.962a1.364 1.364 0 01-.845.059zm4.985 0c-.409-.129-.779-.518-.865-.91-.167-.757.635-1.514 1.438-1.356.604.118 1.071.698 1.013 1.245-.043.386-.351.782-.741.962a1.363 1.363 0 01-.845.059zm4.986 0c-.409-.129-.779-.518-.865-.91-.097-.43.125-.896.553-1.172a1.172 1.172 0 011.313-.01c.689.432.783 1.24.206 1.78-.331.316-.806.437-1.207.312zm4.986 0c-.409-.129-.779-.518-.865-.91-.097-.43.125-.896.554-1.172a1.17 1.17 0 011.312-.01c.69.432.783 1.24.207 1.78-.331.316-.807.437-1.208.312zm-44.872-6.666c-.409-.128-.779-.518-.865-.91-.167-.757.635-1.513 1.437-1.355.604.117 1.072.697 1.013 1.244-.043.386-.35.782-.74.962a1.365 1.365 0 01-.845.06zm4.985 0c-.588-.184-.985-.793-.864-1.33.097-.436.529-.844.989-.935.756-.151 1.539.52 1.461 1.244-.043.386-.351.782-.74.962a1.367 1.367 0 01-.846.059zm4.986 0c-.409-.128-.779-.518-.864-.91-.168-.757.635-1.513 1.437-1.355.604.117 1.071.697 1.013 1.244-.043.386-.351.782-.74.962a1.367 1.367 0 01-.846.06zm4.986 0c-.409-.128-.779-.518-.865-.91-.167-.757.635-1.513 1.437-1.355.604.117 1.072.697 1.013 1.244-.043.386-.35.782-.74.962a1.365 1.365 0 01-.845.06zm4.986 0c-.409-.128-.779-.518-.865-.91-.167-.757.635-1.513 1.438-1.355.603.117 1.071.697 1.012 1.244-.042.386-.35.782-.74.962a1.364 1.364 0 01-.845.06zm4.986 0c-.409-.128-.78-.518-.865-.91-.168-.757.635-1.513 1.437-1.355.604.117 1.071.697 1.013 1.244-.043.386-.351.782-.74.962a1.365 1.365 0 01-.845.06zm4.986 0c-.409-.128-.779-.518-.865-.91-.167-.757.635-1.513 1.437-1.355.604.117 1.072.697 1.013 1.244-.043.386-.35.782-.74.962a1.365 1.365 0 01-.845.06zm4.985 0c-.409-.128-.779-.518-.865-.91-.167-.757.635-1.513 1.438-1.355.604.117 1.071.697 1.013 1.244-.043.386-.351.782-.741.962a1.364 1.364 0 01-.845.06zm4.986 0c-.409-.129-.779-.518-.865-.91-.097-.43.125-.897.553-1.172a1.172 1.172 0 011.313-.01c.689.432.783 1.24.206 1.78-.331.316-.806.437-1.207.312zm4.986 0c-.409-.129-.779-.518-.865-.91-.097-.43.125-.897.554-1.172a1.17 1.17 0 011.312-.01c.69.432.783 1.24.207 1.78-.331.316-.807.437-1.208.312zm-44.872-6.659c-.409-.129-.779-.518-.865-.91-.167-.757.635-1.514 1.437-1.356.604.118 1.072.698 1.013 1.245-.043.386-.35.782-.74.962a1.365 1.365 0 01-.845.059zm4.986 0c-.409-.129-.779-.518-.865-.91-.167-.757.635-1.514 1.438-1.356.603.118 1.071.698 1.012 1.245-.042.386-.35.782-.74.962a1.364 1.364 0 01-.845.059zm4.985 0c-.409-.129-.779-.518-.864-.91-.168-.757.635-1.514 1.437-1.356.604.118 1.071.698 1.013 1.245-.043.386-.351.782-.74.962a1.367 1.367 0 01-.846.059zm4.986 0c-.409-.129-.779-.518-.865-.91-.167-.757.635-1.514 1.437-1.356.604.118 1.072.698 1.013 1.245-.043.386-.35.782-.74.962a1.365 1.365 0 01-.845.059zm4.986 0c-.409-.129-.779-.518-.865-.91-.167-.757.635-1.514 1.438-1.356.603.118 1.071.698 1.012 1.245-.042.386-.35.782-.74.962a1.364 1.364 0 01-.845.059zm4.986 0c-.409-.129-.78-.518-.865-.91-.168-.757.635-1.514 1.437-1.356.604.118 1.071.698 1.013 1.245-.043.386-.351.782-.74.962a1.365 1.365 0 01-.845.059zm4.986 0c-.409-.129-.779-.518-.865-.91-.167-.757.635-1.514 1.437-1.356.604.118 1.072.698 1.013 1.245-.043.386-.35.782-.74.962a1.365 1.365 0 01-.845.059zm4.985 0c-.409-.129-.779-.518-.865-.91-.167-.757.635-1.514 1.438-1.356.604.118 1.071.698 1.013 1.245-.043.386-.351.782-.741.962a1.364 1.364 0 01-.845.059zm4.987 0c-.409-.129-.78-.518-.865-.91-.168-.757.635-1.514 1.437-1.356.604.118 1.071.698 1.013 1.245-.043.386-.351.782-.74.962a1.365 1.365 0 01-.845.059zm4.985 0c-.409-.129-.779-.518-.865-.91-.167-.757.635-1.514 1.437-1.356.604.118 1.072.698 1.013 1.245-.043.386-.35.782-.74.962a1.364 1.364 0 01-.845.059zm-44.872-6.658c-.409-.128-.779-.517-.865-.91-.167-.757.635-1.513 1.437-1.355.604.117 1.072.698 1.013 1.245-.043.385-.35.782-.74.962a1.364 1.364 0 01-.845.058zm4.986 0c-.409-.128-.779-.517-.865-.91-.167-.757.635-1.513 1.438-1.355.603.117 1.071.698 1.012 1.245-.042.385-.35.782-.74.962a1.363 1.363 0 01-.845.058zm4.985 0c-.409-.128-.779-.517-.864-.91-.168-.757.635-1.513 1.437-1.355.604.117 1.071.698 1.013 1.245-.043.385-.351.782-.74.962a1.367 1.367 0 01-.846.058zm4.986 0c-.409-.128-.779-.517-.865-.91-.167-.757.635-1.513 1.437-1.355.604.117 1.072.698 1.013 1.245-.043.385-.35.782-.74.962a1.364 1.364 0 01-.845.058zm4.986 0c-.409-.128-.779-.517-.865-.91-.167-.757.635-1.513 1.438-1.355.603.117 1.071.698 1.012 1.245-.042.385-.35.782-.74.962a1.363 1.363 0 01-.845.058zm4.986 0c-.409-.128-.78-.517-.865-.91-.168-.757.635-1.513 1.437-1.355.604.117 1.071.698 1.013 1.245-.043.385-.351.782-.74.962a1.364 1.364 0 01-.845.058zm4.986 0c-.409-.128-.779-.517-.865-.91-.167-.757.635-1.513 1.437-1.355.604.117 1.072.698 1.013 1.245-.043.385-.35.782-.74.962a1.364 1.364 0 01-.845.058zm4.985 0c-.409-.128-.779-.517-.865-.91-.167-.757.635-1.513 1.438-1.355.604.117 1.071.698 1.013 1.245-.043.385-.351.782-.741.962a1.363 1.363 0 01-.845.058zm4.987 0c-.409-.128-.78-.517-.865-.91-.168-.757.635-1.513 1.437-1.355.604.117 1.071.698 1.013 1.245-.043.385-.351.782-.74.962a1.364 1.364 0 01-.845.058zm4.985 0c-.409-.128-.779-.517-.865-.91-.167-.757.635-1.513 1.437-1.355.604.117 1.072.698 1.013 1.245-.043.385-.35.782-.74.962a1.363 1.363 0 01-.845.058zm-44.872-6.657c-.409-.128-.779-.517-.865-.91-.167-.757.635-1.513 1.437-1.355.604.117 1.072.697 1.013 1.244-.043.386-.35.782-.74.962a1.365 1.365 0 01-.845.06zm4.986 0c-.409-.128-.779-.517-.865-.91-.167-.757.635-1.513 1.438-1.355.603.117 1.071.697 1.012 1.244-.042.386-.35.782-.74.962a1.364 1.364 0 01-.845.06zm4.985 0c-.409-.128-.779-.517-.864-.91-.168-.757.635-1.513 1.437-1.355.604.117 1.071.697 1.013 1.244-.043.386-.351.782-.74.962a1.367 1.367 0 01-.846.06zm4.986 0c-.409-.128-.779-.517-.865-.91-.167-.757.635-1.513 1.437-1.355.604.117 1.072.697 1.013 1.244-.043.386-.35.782-.74.962a1.365 1.365 0 01-.845.06zm4.986 0c-.409-.128-.779-.517-.865-.91-.167-.757.635-1.513 1.438-1.355.603.117 1.071.697 1.012 1.244-.042.386-.35.782-.74.962a1.364 1.364 0 01-.845.06zm4.986 0c-.409-.128-.78-.517-.865-.91-.168-.757.635-1.513 1.437-1.355.604.117 1.071.697 1.013 1.244-.043.386-.351.782-.74.962a1.365 1.365 0 01-.845.06zm4.986 0c-.409-.128-.779-.517-.865-.91-.167-.757.635-1.513 1.437-1.355.604.117 1.072.697 1.013 1.244-.043.386-.35.782-.74.962a1.365 1.365 0 01-.845.06zm4.985 0c-.409-.128-.779-.517-.865-.91-.167-.757.635-1.513 1.438-1.355.604.117 1.071.697 1.013 1.244-.043.386-.351.782-.741.962a1.364 1.364 0 01-.845.06zm4.987 0c-.409-.128-.78-.517-.865-.91-.168-.757.635-1.513 1.437-1.355.604.117 1.071.697 1.013 1.244-.043.386-.351.782-.74.962a1.365 1.365 0 01-.845.06zm4.985 0c-.409-.128-.779-.517-.865-.91-.167-.757.635-1.513 1.437-1.355.604.117 1.072.697 1.013 1.244-.043.386-.35.782-.74.962a1.364 1.364 0 01-.845.06zm-44.872-6.657c-.409-.129-.779-.518-.865-.91-.167-.757.635-1.514 1.437-1.356.604.118 1.072.698 1.013 1.245-.043.386-.35.782-.74.962a1.364 1.364 0 01-.845.059zm4.986 0c-.409-.129-.779-.518-.865-.91-.167-.757.635-1.514 1.438-1.356.603.118 1.071.698 1.012 1.245-.042.386-.35.782-.74.962a1.363 1.363 0 01-.845.059zm4.985 0c-.409-.129-.779-.518-.864-.91-.168-.757.635-1.514 1.437-1.356.604.118 1.071.698 1.013 1.245-.043.386-.351.782-.74.962a1.367 1.367 0 01-.846.059zm4.986 0c-.409-.129-.779-.518-.865-.91-.167-.757.635-1.514 1.437-1.356.604.118 1.072.698 1.013 1.245-.043.386-.35.782-.74.962a1.364 1.364 0 01-.845.059zm4.986 0c-.409-.129-.779-.518-.865-.91-.167-.757.635-1.514 1.438-1.356.603.118 1.071.698 1.012 1.245-.042.386-.35.782-.74.962a1.363 1.363 0 01-.845.059zm4.986 0c-.409-.129-.78-.518-.865-.91-.168-.757.635-1.514 1.437-1.356.604.118 1.071.698 1.013 1.245-.043.386-.351.782-.74.962a1.364 1.364 0 01-.845.059zm4.986 0c-.409-.129-.779-.518-.865-.91-.167-.757.635-1.514 1.437-1.356.604.118 1.072.698 1.013 1.245-.043.386-.35.782-.74.962a1.364 1.364 0 01-.845.059zm4.985 0c-.409-.129-.779-.518-.865-.91-.167-.757.635-1.514 1.438-1.356.604.118 1.071.698 1.013 1.245-.043.386-.351.782-.741.962a1.363 1.363 0 01-.845.059zm4.987 0c-.409-.129-.78-.518-.865-.91-.168-.757.635-1.514 1.437-1.356.604.118 1.071.698 1.013 1.245-.043.386-.351.782-.74.962a1.364 1.364 0 01-.845.059zm4.985 0c-.409-.129-.779-.518-.865-.91-.167-.757.635-1.514 1.437-1.356.604.118 1.072.698 1.013 1.245-.043.386-.35.782-.74.962a1.363 1.363 0 01-.845.059zm-44.872-6.664c-.409-.129-.779-.518-.865-.91-.167-.757.635-1.514 1.437-1.356.604.118 1.072.698 1.013 1.245-.043.386-.35.782-.74.962a1.365 1.365 0 01-.845.059zm4.986 0c-.409-.129-.779-.518-.865-.911-.167-.756.635-1.513 1.438-1.355.603.118 1.071.698 1.012 1.245-.042.385-.35.782-.74.962a1.363 1.363 0 01-.845.059zm4.986 0c-.409-.129-.779-.518-.865-.911-.097-.43.125-.896.553-1.171a1.172 1.172 0 011.313-.011c.689.433.783 1.24.206 1.78-.331.316-.806.437-1.207.313zm4.985 0c-.409-.129-.779-.518-.865-.911-.097-.43.125-.896.554-1.171a1.17 1.17 0 011.312-.011c.69.433.783 1.24.207 1.78-.331.316-.807.437-1.208.313zm4.986 0c-.588-.184-.985-.793-.864-1.33.097-.437.529-.844.993-.936.752-.15 1.535.521 1.457 1.245-.043.385-.351.782-.74.962a1.367 1.367 0 01-.846.059zm4.986 0c-.588-.184-.986-.793-.865-1.33.097-.437.53-.844.993-.936.752-.15 1.535.521 1.457 1.245-.043.385-.35.782-.74.962a1.364 1.364 0 01-.845.059zm4.985 0c-.588-.184-.985-.793-.865-1.33.098-.437.53-.844.994-.936.751-.15 1.534.521 1.456 1.245-.042.385-.35.782-.74.962a1.363 1.363 0 01-.845.059zm4.986 0c-.588-.184-.985-.793-.864-1.33.097-.437.529-.844.993-.936.752-.15 1.535.521 1.457 1.245-.043.385-.351.782-.74.962a1.367 1.367 0 01-.846.059zm4.987 0c-.409-.129-.78-.518-.865-.911-.168-.756.635-1.513 1.437-1.355.604.118 1.071.698 1.013 1.245-.043.385-.351.782-.74.962a1.364 1.364 0 01-.845.059zm4.985 0c-.409-.129-.779-.518-.865-.911-.167-.756.635-1.513 1.437-1.355.604.118 1.072.698 1.013 1.245-.043.385-.35.782-.74.962a1.364 1.364 0 01-.845.059z"/></g><g clip-path="url(#clip2)"><path d="M2.142 45.77c-.409-.129-.78-.518-.865-.91-.167-.757.635-1.514 1.438-1.356.603.118 1.07.698 1.012 1.245-.043.386-.35.782-.74.962a1.366 1.366 0 01-.845.059zm4.986 0c-.589-.184-.986-.793-.865-1.33.097-.436.53-.844.99-.936.755-.15 1.538.522 1.46 1.245-.043.386-.35.782-.74.962a1.364 1.364 0 01-.845.059zm4.986 0c-.41-.129-.78-.518-.865-.91-.168-.757.635-1.514 1.437-1.356.604.118 1.071.698 1.013 1.245-.043.386-.35.782-.74.962a1.366 1.366 0 01-.845.059zm4.985 0c-.409-.129-.779-.518-.865-.91-.167-.757.635-1.514 1.438-1.356.603.118 1.07.698 1.012 1.245-.043.386-.35.782-.74.962a1.364 1.364 0 01-.845.059zm4.986 0c-.409-.129-.779-.518-.864-.91-.168-.757.634-1.514 1.437-1.356.604.118 1.071.698 1.013 1.245-.043.386-.35.782-.74.962a1.364 1.364 0 01-.846.059zm4.985 0c-.408-.129-.778-.518-.864-.91-.168-.757.635-1.514 1.437-1.356.604.118 1.071.698 1.013 1.245-.043.386-.35.782-.74.962a1.364 1.364 0 01-.845.059zm4.987 0c-.409-.129-.779-.518-.865-.91-.167-.757.635-1.514 1.438-1.356.603.118 1.07.698 1.012 1.245-.043.386-.35.782-.74.962a1.364 1.364 0 01-.845.059zm4.985 0c-.409-.129-.779-.518-.864-.91-.168-.757.635-1.514 1.437-1.356.604.118 1.071.698 1.013 1.245-.043.386-.35.782-.74.962a1.364 1.364 0 01-.846.059zm4.986 0c-.409-.129-.779-.518-.865-.91-.097-.43.125-.896.553-1.172a1.172 1.172 0 011.313-.01c.69.432.783 1.24.206 1.78-.33.316-.806.437-1.207.312zm4.986 0c-.409-.129-.779-.518-.864-.91-.098-.43.124-.896.553-1.172a1.172 1.172 0 011.312-.01c.69.432.783 1.24.207 1.78-.331.316-.806.437-1.208.312zM2.142 39.104c-.409-.128-.78-.518-.865-.91-.167-.757.635-1.513 1.438-1.355.603.117 1.07.697 1.012 1.244-.043.386-.35.782-.74.962a1.365 1.365 0 01-.845.06zm4.986 0c-.589-.184-.986-.793-.865-1.33.097-.436.53-.844.99-.935.755-.151 1.538.52 1.46 1.244-.043.386-.35.782-.74.962a1.364 1.364 0 01-.845.059zm4.986 0c-.41-.128-.78-.518-.865-.91-.168-.757.635-1.513 1.437-1.355.604.117 1.071.697 1.013 1.244-.043.386-.35.782-.74.962a1.365 1.365 0 01-.845.06zm4.985 0c-.409-.128-.779-.518-.865-.91-.167-.757.635-1.513 1.438-1.355.603.117 1.07.697 1.012 1.244-.043.386-.35.782-.74.962a1.365 1.365 0 01-.845.06zm4.986 0c-.409-.128-.779-.518-.864-.91-.168-.757.634-1.513 1.437-1.355.604.117 1.071.697 1.013 1.244-.043.386-.35.782-.74.962a1.365 1.365 0 01-.846.06zm4.985 0c-.408-.128-.778-.518-.864-.91-.168-.757.635-1.513 1.437-1.355.604.117 1.071.697 1.013 1.244-.043.386-.35.782-.74.962a1.365 1.365 0 01-.845.06zm4.987 0c-.409-.128-.779-.518-.865-.91-.167-.757.635-1.513 1.438-1.355.603.117 1.07.697 1.012 1.244-.043.386-.35.782-.74.962a1.365 1.365 0 01-.845.06zm4.985 0c-.409-.128-.779-.518-.864-.91-.168-.757.635-1.513 1.437-1.355.604.117 1.071.697 1.013 1.244-.043.386-.35.782-.74.962a1.365 1.365 0 01-.846.06zm4.986 0c-.409-.129-.779-.518-.865-.91-.097-.43.125-.897.553-1.172a1.172 1.172 0 011.313-.01c.69.432.783 1.24.206 1.78-.33.316-.806.437-1.207.312zm4.986 0c-.409-.129-.779-.518-.864-.91-.098-.43.124-.897.553-1.172a1.172 1.172 0 011.312-.01c.69.432.783 1.24.207 1.78-.331.316-.806.437-1.208.312zM2.142 32.445c-.409-.129-.78-.518-.865-.91-.167-.757.635-1.514 1.438-1.356.603.118 1.07.698 1.012 1.245-.043.386-.35.782-.74.962a1.365 1.365 0 01-.845.059zm4.986 0c-.409-.129-.779-.518-.864-.91-.168-.757.634-1.514 1.437-1.356.604.118 1.071.698 1.013 1.245-.043.386-.35.782-.74.962a1.365 1.365 0 01-.846.059zm4.986 0c-.41-.129-.78-.518-.865-.91-.168-.757.635-1.514 1.437-1.356.604.118 1.071.698 1.013 1.245-.043.386-.35.782-.74.962a1.365 1.365 0 01-.845.059zm4.985 0c-.409-.129-.779-.518-.865-.91-.167-.757.635-1.514 1.438-1.356.603.118 1.07.698 1.012 1.245-.043.386-.35.782-.74.962a1.365 1.365 0 01-.845.059zm4.986 0c-.409-.129-.779-.518-.864-.91-.168-.757.634-1.514 1.437-1.356.604.118 1.071.698 1.013 1.245-.043.386-.35.782-.74.962a1.365 1.365 0 01-.846.059zm4.985 0c-.408-.129-.778-.518-.864-.91-.168-.757.635-1.514 1.437-1.356.604.118 1.071.698 1.013 1.245-.043.386-.35.782-.74.962a1.365 1.365 0 01-.845.059zm4.987 0c-.409-.129-.779-.518-.865-.91-.167-.757.635-1.514 1.438-1.356.603.118 1.07.698 1.012 1.245-.043.386-.35.782-.74.962a1.365 1.365 0 01-.845.059zm4.985 0c-.409-.129-.779-.518-.864-.91-.168-.757.635-1.514 1.437-1.356.604.118 1.071.698 1.013 1.245-.043.386-.35.782-.74.962a1.365 1.365 0 01-.846.059zm4.987 0c-.41-.129-.78-.518-.865-.91-.168-.757.635-1.514 1.437-1.356.604.118 1.072.698 1.013 1.245-.043.386-.35.782-.74.962a1.365 1.365 0 01-.845.059zm4.985 0c-.409-.129-.779-.518-.865-.91-.167-.757.635-1.514 1.438-1.356.603.118 1.07.698 1.012 1.245-.042.386-.35.782-.74.962a1.365 1.365 0 01-.845.059zM2.142 25.787c-.409-.128-.78-.517-.865-.91-.167-.757.635-1.513 1.438-1.355.603.117 1.07.698 1.012 1.245-.043.385-.35.782-.74.962a1.364 1.364 0 01-.845.058zm4.986 0c-.409-.128-.779-.517-.864-.91-.168-.757.634-1.513 1.437-1.355.604.117 1.071.698 1.013 1.245-.043.385-.35.782-.74.962a1.364 1.364 0 01-.846.058zm4.986 0c-.41-.128-.78-.517-.865-.91-.168-.757.635-1.513 1.437-1.355.604.117 1.071.698 1.013 1.245-.043.385-.35.782-.74.962a1.364 1.364 0 01-.845.058zm4.985 0c-.409-.128-.779-.517-.865-.91-.167-.757.635-1.513 1.438-1.355.603.117 1.07.698 1.012 1.245-.043.385-.35.782-.74.962a1.364 1.364 0 01-.845.058zm4.986 0c-.409-.128-.779-.517-.864-.91-.168-.757.634-1.513 1.437-1.355.604.117 1.071.698 1.013 1.245-.043.385-.35.782-.74.962a1.364 1.364 0 01-.846.058zm4.985 0c-.408-.128-.778-.517-.864-.91-.168-.757.635-1.513 1.437-1.355.604.117 1.071.698 1.013 1.245-.043.385-.35.782-.74.962a1.364 1.364 0 01-.845.058zm4.987 0c-.409-.128-.779-.517-.865-.91-.167-.757.635-1.513 1.438-1.355.603.117 1.07.698 1.012 1.245-.043.385-.35.782-.74.962a1.364 1.364 0 01-.845.058zm4.985 0c-.409-.128-.779-.517-.864-.91-.168-.757.635-1.513 1.437-1.355.604.117 1.071.698 1.013 1.245-.043.385-.35.782-.74.962a1.364 1.364 0 01-.846.058zm4.987 0c-.41-.128-.78-.517-.865-.91-.168-.757.635-1.513 1.437-1.355.604.117 1.072.698 1.013 1.245-.043.385-.35.782-.74.962a1.364 1.364 0 01-.845.058zm4.985 0c-.409-.128-.779-.517-.865-.91-.167-.757.635-1.513 1.438-1.355.603.117 1.07.698 1.012 1.245-.042.385-.35.782-.74.962a1.364 1.364 0 01-.845.058zM2.142 19.13c-.409-.128-.78-.517-.865-.91-.167-.757.635-1.513 1.438-1.355.603.117 1.07.697 1.012 1.244-.043.386-.35.782-.74.962a1.365 1.365 0 01-.845.06zm4.986 0c-.409-.128-.779-.517-.864-.91-.168-.757.634-1.513 1.437-1.355.604.117 1.071.697 1.013 1.244-.043.386-.35.782-.74.962a1.365 1.365 0 01-.846.06zm4.986 0c-.41-.128-.78-.517-.865-.91-.168-.757.635-1.513 1.437-1.355.604.117 1.071.697 1.013 1.244-.043.386-.35.782-.74.962a1.365 1.365 0 01-.845.06zm4.985 0c-.409-.128-.779-.517-.865-.91-.167-.757.635-1.513 1.438-1.355.603.117 1.07.697 1.012 1.244-.043.386-.35.782-.74.962a1.365 1.365 0 01-.845.06zm4.986 0c-.409-.128-.779-.517-.864-.91-.168-.757.634-1.513 1.437-1.355.604.117 1.071.697 1.013 1.244-.043.386-.35.782-.74.962a1.365 1.365 0 01-.846.06zm4.985 0c-.408-.128-.778-.517-.864-.91-.168-.757.635-1.513 1.437-1.355.604.117 1.071.697 1.013 1.244-.043.386-.35.782-.74.962a1.365 1.365 0 01-.845.06zm4.987 0c-.409-.128-.779-.517-.865-.91-.167-.757.635-1.513 1.438-1.355.603.117 1.07.697 1.012 1.244-.043.386-.35.782-.74.962a1.365 1.365 0 01-.845.06zm4.985 0c-.409-.128-.779-.517-.864-.91-.168-.757.635-1.513 1.437-1.355.604.117 1.071.697 1.013 1.244-.043.386-.35.782-.74.962a1.365 1.365 0 01-.846.06zm4.987 0c-.41-.128-.78-.517-.865-.91-.168-.757.635-1.513 1.437-1.355.604.117 1.072.697 1.013 1.244-.043.386-.35.782-.74.962a1.365 1.365 0 01-.845.06zm4.985 0c-.409-.128-.779-.517-.865-.91-.167-.757.635-1.513 1.438-1.355.603.117 1.07.697 1.012 1.244-.042.386-.35.782-.74.962a1.365 1.365 0 01-.845.06zM2.142 12.473c-.409-.129-.78-.518-.865-.91-.167-.757.635-1.514 1.438-1.356.603.118 1.07.698 1.012 1.245-.043.386-.35.782-.74.962a1.364 1.364 0 01-.845.059zm4.986 0c-.409-.129-.779-.518-.864-.91-.168-.757.634-1.514 1.437-1.356.604.118 1.071.698 1.013 1.245-.043.386-.35.782-.74.962a1.364 1.364 0 01-.846.059zm4.986 0c-.41-.129-.78-.518-.865-.91-.168-.757.635-1.514 1.437-1.356.604.118 1.071.698 1.013 1.245-.043.386-.35.782-.74.962a1.364 1.364 0 01-.845.059zm4.985 0c-.409-.129-.779-.518-.865-.91-.167-.757.635-1.514 1.438-1.356.603.118 1.07.698 1.012 1.245-.043.386-.35.782-.74.962a1.364 1.364 0 01-.845.059zm4.986 0c-.409-.129-.779-.518-.864-.91-.168-.757.634-1.514 1.437-1.356.604.118 1.071.698 1.013 1.245-.043.386-.35.782-.74.962a1.364 1.364 0 01-.846.059zm4.985 0c-.408-.129-.778-.518-.864-.91-.168-.757.635-1.514 1.437-1.356.604.118 1.071.698 1.013 1.245-.043.386-.35.782-.74.962a1.364 1.364 0 01-.845.059zm4.987 0c-.409-.129-.779-.518-.865-.91-.167-.757.635-1.514 1.438-1.356.603.118 1.07.698 1.012 1.245-.043.386-.35.782-.74.962a1.364 1.364 0 01-.845.059zm4.985 0c-.409-.129-.779-.518-.864-.91-.168-.757.635-1.514 1.437-1.356.604.118 1.071.698 1.013 1.245-.043.386-.35.782-.74.962a1.364 1.364 0 01-.846.059zm4.987 0c-.41-.129-.78-.518-.865-.91-.168-.757.635-1.514 1.437-1.356.604.118 1.072.698 1.013 1.245-.043.386-.35.782-.74.962a1.364 1.364 0 01-.845.059zm4.985 0c-.409-.129-.779-.518-.865-.91-.167-.757.635-1.514 1.438-1.356.603.118 1.07.698 1.012 1.245-.042.386-.35.782-.74.962a1.364 1.364 0 01-.845.059zM2.142 5.809c-.409-.129-.78-.518-.865-.91-.167-.757.635-1.514 1.438-1.356.603.118 1.07.698 1.012 1.245-.043.386-.35.782-.74.962a1.365 1.365 0 01-.845.059zm4.986 0c-.409-.129-.779-.518-.864-.911-.168-.756.634-1.513 1.437-1.355.604.118 1.071.698 1.013 1.245-.043.385-.35.782-.74.962a1.365 1.365 0 01-.846.059zm4.986 0c-.409-.129-.78-.518-.865-.911-.097-.43.125-.896.553-1.171a1.172 1.172 0 011.313-.011c.69.433.783 1.24.207 1.78-.332.316-.807.437-1.208.313zm4.986 0c-.41-.129-.78-.518-.865-.911-.098-.43.124-.896.553-1.171a1.172 1.172 0 011.312-.011c.69.433.783 1.24.207 1.78-.331.316-.806.437-1.208.313zm4.986 0c-.589-.184-.986-.793-.865-1.33.097-.437.53-.844.993-.936.752-.15 1.535.521 1.457 1.245-.043.385-.35.782-.74.962a1.365 1.365 0 01-.845.059zm4.985 0c-.588-.184-.986-.793-.865-1.33.098-.437.53-.844.994-.936.751-.15 1.534.521 1.456 1.245-.043.385-.35.782-.74.962a1.365 1.365 0 01-.845.059zm4.985 0c-.588-.184-.985-.793-.864-1.33.097-.437.53-.844.993-.936.752-.15 1.535.521 1.457 1.245-.043.385-.35.782-.74.962a1.365 1.365 0 01-.846.059zm4.987 0c-.588-.184-.986-.793-.865-1.33.097-.437.53-.844.993-.936.752-.15 1.535.521 1.457 1.245-.043.385-.35.782-.74.962a1.365 1.365 0 01-.845.059zm4.986 0c-.41-.129-.78-.518-.865-.911-.168-.756.635-1.513 1.437-1.355.604.118 1.072.698 1.013 1.245-.043.385-.35.782-.74.962a1.365 1.365 0 01-.845.059zm4.985 0c-.409-.129-.779-.518-.865-.911-.167-.756.635-1.513 1.438-1.355.603.118 1.07.698 1.012 1.245-.042.385-.35.782-.74.962a1.365 1.365 0 01-.845.059z"/></g></g><defs><clipPath id="clip0"><path fill="#fff" transform="matrix(1 0 0 -1 49.858 47)" d="M0 0h49.858v47H0z"/></clipPath><clipPath id="clip1"><path fill="#fff" transform="matrix(1 0 0 -1 99.716 47)" d="M0 0h49.858v47H0z"/></clipPath><clipPath id="clip2"><path fill="#fff" transform="matrix(1 0 0 -1 0 47)" d="M0 0h49.858v47H0z"/></clipPath></defs></svg>