<svg width="86" height="20" fill="none" xmlns="http://www.w3.org/2000/svg"><path d="M4.968 17.728c.432.048.84.128 1.224.24.384.096.744.208 1.08.336V19H.696v-.696c.32-.16.648-.28.984-.36.336-.08.664-.152.984-.216V3.496a8.902 8.902 0 01-1.032-.24c-.32-.112-.632-.232-.936-.36V2.2h2.16c.64 0 1.336-.032 2.088-.096a25.503 25.503 0 012.16-.096c.784 0 1.552.088 2.304.264.752.16 1.416.44 1.992.84.592.4 1.064.936 1.416 1.608.368.656.552 1.48.552 2.472 0 .944-.184 1.752-.552 2.424a4.775 4.775 0 01-1.488 1.656 6.403 6.403 0 01-2.088.96c-.784.192-1.592.288-2.424.288h-.912a73.797 73.797 0 01-.552-.048 4.052 4.052 0 01-.384-.048v5.304zM6.6 3.256c-.384 0-.696.008-.936.024-.24.016-.472.048-.696.096v7.776c.08.032.192.056.336.072.16 0 .32.008.48.024.176.016.344.024.504.024h.384c.56 0 1.088-.072 1.584-.216a3.48 3.48 0 001.296-.744c.384-.336.688-.76.912-1.272.224-.512.336-1.128.336-1.848 0-1.312-.376-2.296-1.128-2.952-.736-.656-1.76-.984-3.072-.984zM25.097 19h-6.744v-.696c.352-.128.704-.24 1.056-.336.368-.096.76-.176 1.176-.24V3.448h-3.672L15.641 6.88h-.6a15.87 15.87 0 01-.12-1.08l-.096-1.248-.048-1.248a29.1 29.1 0 01-.024-1.104h13.944c0 .32-.008.68-.024 1.08s-.04.816-.072 1.248c-.016.416-.04.832-.072 1.248-.016.4-.048.768-.096 1.104h-.624l-1.248-3.432H22.89v14.28c.416.08.8.16 1.152.24.368.08.72.192 1.056.336V19zm13.496-1.656c.191.192.44.36.743.504.305.128.76.192 1.369.192a5.22 5.22 0 001.44-.192 3.574 3.574 0 001.151-.6c.337-.272.6-.592.793-.96.192-.384.288-.816.288-1.296 0-.64-.2-1.176-.6-1.608a5.72 5.72 0 00-1.465-1.152 23.106 23.106 0 00-1.895-.984 11.41 11.41 0 01-1.92-1.128 6.564 6.564 0 01-1.465-1.584c-.383-.624-.575-1.4-.575-2.328 0-.672.12-1.272.36-1.8s.575-.976 1.008-1.344a4.69 4.69 0 011.583-.84c.608-.208 1.288-.312 2.04-.312.977 0 1.864.08 2.664.24.816.144 1.456.328 1.92.552 0 .272-.023.592-.071.96-.032.352-.08.72-.145 1.104a18.862 18.862 0 01-.36 2.064h-.623l-.96-3.288c-.288-.128-.656-.224-1.104-.288a9.511 9.511 0 00-1.392-.096c-.817 0-1.473.232-1.969.696-.495.448-.744 1.08-.744 1.896 0 .656.192 1.208.576 1.656.4.448.896.848 1.488 1.2a29.97 29.97 0 001.896 1.032c.688.32 1.328.696 1.92 1.128a5.8 5.8 0 011.465 1.536c.4.592.6 1.328.6 2.208 0 .72-.137 1.376-.409 1.968a4.042 4.042 0 01-1.128 1.512c-.495.416-1.104.736-1.824.96-.72.224-1.535.336-2.447.336-1.009 0-1.913-.12-2.712-.36-.8-.24-1.368-.496-1.704-.768.016-.272.04-.6.072-.984.047-.384.096-.776.143-1.176.064-.416.128-.816.192-1.2s.128-.712.192-.984h.624l.985 3.528zm19.971-.024a2.397 2.397 0 01-.6.768c-.272.24-.584.448-.936.624a5.16 5.16 0 01-1.152.408c-.416.112-.84.168-1.272.168-.944 0-1.776-.144-2.496-.432a4.902 4.902 0 01-1.8-1.272 5.879 5.879 0 01-1.104-1.992c-.24-.768-.36-1.632-.36-2.592 0-2.048.472-3.608 1.416-4.68.944-1.072 2.28-1.608 4.008-1.608.56 0 1.112.08 1.656.24a3.641 3.641 0 011.44.744c.432.352.776.824 1.032 1.416.272.576.408 1.296.408 2.16 0 .272-.016.552-.048.84a6.5 6.5 0 01-.12.888h-7.488c0 .672.08 1.304.24 1.896.176.576.432 1.08.768 1.512.336.432.76.776 1.272 1.032.512.24 1.112.36 1.8.36.56 0 1.128-.08 1.704-.24.576-.16 1.008-.368 1.296-.624l.336.384zm-4.392-9.552c-.912 0-1.608.312-2.088.936-.48.608-.768 1.688-.864 3.24h5.28c.016-.144.024-.28.024-.408.016-.144.024-.28.024-.408 0-1.024-.192-1.84-.576-2.448-.384-.608-.984-.912-1.8-.912zM65.786 8.8c-.176.096-.4.296-.672.6-.256.288-.488.72-.696 1.296v7.128c.32.032.64.096.96.192.32.08.64.208.96.384v.6h-5.664v-.6c.288-.16.56-.28.816-.36.256-.08.512-.152.768-.216V8.392L60.674 8.2v-.624c.512-.224 1.04-.4 1.584-.528a16.178 16.178 0 011.56-.336h.6v2.544h.096c.144-.32.344-.64.6-.96.272-.32.576-.608.912-.864a3.962 3.962 0 011.128-.576c.416-.144.84-.192 1.272-.144.112.208.208.44.288.696.096.24.184.496.264.768V8.8h-3.192zM75.453 19h-5.328v-.6a4.31 4.31 0 01.744-.312 8.71 8.71 0 01.84-.264V8.392L70.125 8.2v-.624c.464-.192.968-.36 1.512-.504a19.87 19.87 0 011.632-.36h.6v11.112c.32.08.608.168.864.264.256.08.496.184.72.312v.6zm-4.2-16.08c0-.432.136-.776.408-1.032.288-.256.664-.384 1.128-.384.464 0 .832.128 1.104.384.272.256.408.6.408 1.032 0 .432-.136.776-.408 1.032-.272.24-.64.36-1.104.36-.464 0-.84-.12-1.128-.36-.272-.256-.408-.6-.408-1.032zM83.704.952c.144 0 .312.008.504.024s.392.04.6.072c.208.016.408.048.6.096.192.032.36.072.504.12-.048.528-.12 1.024-.216 1.488-.08.448-.184.856-.312 1.224h-.6l-1.056-2.064c-.464 0-.864.048-1.2.144-.32.096-.592.28-.816.552-.208.272-.368.664-.48 1.176-.096.512-.144 1.184-.144 2.016V7h2.76v1.2h-2.76v9.624c.832.096 1.6.288 2.304.576v.6h-6.048v-.6a4.719 4.719 0 011.584-.576V8.2h-1.824v-.624a6.638 6.638 0 011.824-.792v-.84c0-.992.12-1.808.36-2.448.24-.656.576-1.168 1.008-1.536a3.528 3.528 0 011.512-.792 8.003 8.003 0 011.896-.216z" fill="#000"/></svg>