<svg width="52" height="52" fill="none" xmlns="http://www.w3.org/2000/svg"><path fill-rule="evenodd" clip-rule="evenodd" d="M13.04 6.452l-.56.828c.56-.828.561-.827.562-.827l.002.001.003.003.01.007.03.021.1.073c.082.062.196.151.338.27.283.238.677.595 1.143 1.086.932.984 2.153 2.506 3.367 4.7 2.43 4.393 4.805 11.437 4.805 22.168a1 1 0 01-1 1h-8.36v9.578a1 1 0 11-2 0V7.28a1 1 0 011.56-.828zm.44 27.33h7.352c-.142-9.856-2.37-16.263-4.548-20.2-1.01-1.828-2.015-3.132-2.804-4.007v24.207zM29.327 6.28a1 1 0 011 1v9.809a4 4 0 003.616 3.982V7.28a1 1 0 112 0v13.79a4 4 0 003.616-3.981V7.28a1 1 0 112 0v9.809a6 6 0 01-5.616 5.988V45.36a1 1 0 11-2 0V23.077a6 6 0 01-5.616-5.988V7.28a1 1 0 011-1z" fill="#3C3C3C"/></svg>