<svg width="316" height="180" fill="none" xmlns="http://www.w3.org/2000/svg"><path opacity=".1" d="M313.59 147.064c-1.514 3.733-3.645 7.001-6.244 9.578-.369.378-.746.742-1.129 1.1-.516.462-1.044.917-1.585 1.363-4.205 3.412-9.13 5.744-13.937 7.444-1.31.463-2.625.898-3.944 1.305a90.141 90.141 0 01-3.342.965c-.424.118-.847.229-1.27.347-.424.118-.91.232-1.358.347l-.643.156c-12.438 2.932-25.039 3.491-37.733 2.755l-.602-.038-.964-.062c-2.577-.171-5.157-.39-7.739-.656l-.978-.101-.431-.045a214.026 214.026 0 01-4.344-.51 233.214 233.214 0 01-5.73-.767l-.247-.035-.201-.031c-6.827-.982-13.671-2.162-20.522-3.373l-.969-.173-1.74-.309-1.466-.261-.435-.076a1651.29 1651.29 0 00-6.938-1.228l-.375-.066a618.322 618.322 0 00-13.065-2.159l-.567-.087c-1.783-.27-3.565-.528-5.345-.773l-1.358-.184-1.805-.233c-5.003-.635-10.003-1.142-14.992-1.457-2.4-.153-4.805-.269-7.216-.347-1.99-.058-3.981-.092-5.972-.101-2.7-.016-5.405.003-8.116.059h-.614c-3.819.08-7.647.219-11.477.385l-.69.028h-.228c-8.143.368-16.287.857-24.41 1.208l-1.984.083h-.287c-2.823.115-5.644.205-8.462.267H80.46l-1.26.021c-1.308.016-2.614.025-3.917.028h-1.599c-4.783-.018-9.547-.153-14.281-.469l-.527-.038c-9.2-.635-18.296-1.947-27.23-4.331-.925-.248-1.848-.507-2.769-.777a107.762 107.762 0 01-18.133-7.048c-2.78-1.389-5.576-2.992-7.69-5.706-5.365-6.94-3.35-20.533 3.629-24.486 5.459-3.092 11.854-.576 17.726-1.971.36-.088.717-.204 1.067-.347a13.31 13.31 0 002.171-1.145c.24-.153.478-.316.72-.486a18.163 18.163 0 001.607-1.256A26.336 26.336 0 0032.416 111a24.19 24.19 0 001.004-1.166 24.138 24.138 0 002.965-4.535c.306-.628.578-1.282.814-1.957.128-.347.242-.722.337-1.083.142-.522.25-1.059.323-1.603.342-2.575-.212-5.088-2.14-7.212a6.05 6.05 0 00-.542-.524 8.1 8.1 0 00-1.178-.87 11.05 11.05 0 00-.51-.292c-2.482-1.336-5.682-1.85-8.38-2.776a12.78 12.78 0 01-2.4-1.066c-.492-.291-.98-.597-1.46-.916l-.128-.09c-4.103-2.704-7.711-6.49-10.587-11.105a37.85 37.85 0 01-2.498-4.824c-4.77-11-5.26-25.097-.298-35.914A35.669 35.669 0 019.747 31.3c.238-.396.486-.785.74-1.166 4.724-7.125 11.51-11.952 18.362-15.527 9.197-4.796 18.826-7.825 28.639-9.82a148.35 148.35 0 015.972-1.09c8.334-1.36 16.765-2.082 25.137-2.63 7.83-.507 15.696-.835 23.595-.983a406.11 406.11 0 018.038-.059c6.043 0 12.085.15 18.128.448a322.8 322.8 0 015.972.347 313.358 313.358 0 0122.599 2.322c18.524 2.588 36.78 6.978 54.406 13.804a184.87 184.87 0 015.972 2.43 203.231 203.231 0 0123.836 11.948 199.038 199.038 0 0113.161 8.436 146.645 146.645 0 0116.45 13.187 119.86 119.86 0 015.972 6.01 100.999 100.999 0 0110.305 13.188 95.629 95.629 0 013.773 6.32c5.809 10.674 9.707 22.882 12.585 35.354 2.538 10.883 4.226 23.102.201 33.246z" fill="#6C63FF"/><path opacity=".1" d="M309.94 109.834h-23.19V72.123h10.315a84.09 84.09 0 00-.774-1.166h-9.53V58.936a120.797 120.797 0 00-5.973-6.01V70.97h-53.463V31.299h23.837c-.672-.392-1.343-.78-2.015-1.166h-21.822V19.35c-1.991-.84-3.982-1.65-5.972-2.429v13.187h-76.302l-.182-.222 22.073-26.784c-2.433-.342-4.87-.653-7.313-.933l-15.286 18.545V.794c-1.991-.133-3.982-.25-5.972-.346v21.547L120.243 0c-2.68 0-5.36.02-8.038.059l24.583 29.827-.182.222H63.467V3.71c-1.99.321-3.981.685-5.972 1.09v25.333H10.49c-.256.381-.503.77-.742 1.166H57.49v39.658H8.027c.169.392.345.784.527 1.166H57.49v37.711H33.42c-.326.403-.661.792-1.005 1.166H57.49v38.59c1.99.363 3.981.743 5.972 1.138V111h74.903v48.352c1.991 0 3.982.033 5.972.1V111h77.01v59.193l.247.035c1.911.273 3.822.528 5.731.767V111h53.447v58.495c.456-.107.912-.222 1.357-.347.446-.124.847-.218 1.271-.347 1.115-.303 2.229-.624 3.342-.964V111h23.378l-.18-1.166zm-171.575 0H63.467V72.123h74.898v37.711zm0-38.867H63.467V31.3h73.837l1.053 1.061.008 38.607zm82.982 38.867h-77.004V72.123h77.004v37.711zm0-38.867h-77.004V31.3h77.004v39.668zm59.425 38.867h-53.447V72.123h53.447v37.711z" fill="#6C63FF"/><path d="M80.672 163.079c0 .038-.021.077-.03.115 0-.038.02-.077.033-.115h-.003zm1.417-1.662H80.41l-1.26.021-.138-1.829-.127-1.735-.592-7.916-.019-.243v-.108l-.166-2.228 2.536-1.214.31 3.231.021.239v.028l.627 6.559.193 2.012.111 1.17.095 1.003v.035l.087.975z" fill="#EAECF0"/><path d="M91.193 163.076l.03.114h-.201l-.03-.114h.201zm39.317-45.722v.15s-2.367 8.269-3.138 15.328c-.053.463-.096.925-.131 1.388-.038.489-.067.968-.084 1.433a26.221 26.221 0 00-.016 1.576v.347c0 .232.019.472.03.718s.027.493.043.75c.017.256.033.482.052.728.584 7.635 2.801 18.813 2.801 18.813s.074.302.169.815h-.614c-3.819.08-7.647.219-11.477.386l-.69.027h-.228c-8.143.368-16.287.857-24.41 1.208l-1.983.083h-.288c-2.823.116-5.644.205-8.462.267h-.746a5.673 5.673 0 011.322-1.606c1.29-1.029 2.695-1.8 4.167-2.287a2.62 2.62 0 01.953-.149l1.9.048h.293l2.915.073 25.007.635h.063l.176-.045c.29-.092.573-.22.844-.382.47-.253.881-.657 1.193-1.173a4.394 4.394 0 00.588-1.77c0-.107.022-.222.027-.347a5.337 5.337 0 000-.506c0-.118 0-.243-.022-.372-.021-.128-.027-.256-.046-.388-.602-4.307-1.628-17.563-1.628-17.563v.041s0-.565.024-1.516v-.437c0-.212.019-.441.03-.695 0-.149.016-.301.024-.461l.046-.722a.338.338 0 010-.045l.033-.479v-.052c.405-5.119 1.678-13.222 5.701-16.224 1.886-1.412 3.135-1.696 3.958-1.419 1.199.403 1.501 1.999 1.566 3.037v.201c.021.194.034.39.038.586z" fill="#3A3768"/><path opacity=".1" d="M80.672 163.079c0 .038-.021.077-.03.115 0-.038.02-.077.033-.115h-.003zm10.521-.003l.03.114h-.201l-.03-.114h.201zm39.318-45.721v.107s-1.952 6.819-2.883 13.357c-.065.463-.125.911-.179 1.343-.027.222-.051.445-.076.667-.052.462-.096.925-.13 1.388-.038.489-.068.968-.084 1.433a26.211 26.211 0 00-.017 1.575v.347c0 .233.019.472.03.719.011.246.027.496.044.749a50.128 50.128 0 00.111 1.454c.087.983.195 2.013.32 3.061.85 7.069 2.422 14.988 2.422 14.988s.078.32.173.854h-.613c-3.819.08-7.647.219-11.477.385l-.69.028h-.228c-8.144.368-16.287.857-24.41 1.208l-1.984.083h-.287c-2.824.116-5.644.205-8.462.267h-.771c.198-.358.425-.687.679-.982.206-.248.43-.471.668-.666 1.291-1.026 2.696-1.797 4.167-2.287.31-.106.631-.155.952-.146l1.9.049h.294l2.923.073 25.026.631h.044s.073 0 .195-.052c.293-.093.578-.224.85-.392.459-.252.861-.649 1.168-1.153.307-.504.509-1.1.588-1.731 0-.107.022-.222.027-.347a5.337 5.337 0 000-.506c0-.118 0-.243-.022-.372-.021-.128-.027-.281-.046-.427-.602-4.306-1.628-17.563-1.628-17.563s0-.565.024-1.516v-.438c0-.211.019-.44.03-.694 0-.149.016-.301.024-.461l.046-.722a.338.338 0 010-.045l.033-.479v-.052a57.66 57.66 0 01.195-2.044c.565-5.025 1.977-11.587 5.495-14.228 1.838-1.388 3.067-1.68 3.892-1.44 1.271.371 1.572 2.044 1.629 3.099v.201c.025.224.037.45.038.677z" fill="#000"/><path d="M80.672 163.079c0 .038-.021.077-.03.115 0-.038.02-.077.033-.115h-.003zm10.521-.003l.03.114h-.201l-.03-.114h.201zm38.622-46.016s-3.543 12.375-3.372 19.78c.171 7.406 2.937 21.322 2.937 21.322s.12.489.247 1.27c-3.819.08-7.646.218-11.477.385l-.689.028h-.228c-8.144.368-16.288.857-24.41 1.207l-1.984.084h-.288a461.15 461.15 0 01-8.461.267h-1.678c.374-.802.883-1.486 1.49-2.003l.074-.065a13.557 13.557 0 014.164-2.239 2.75 2.75 0 01.953-.146l2.508.063h.293l3.021.076 24.364.621a3.494 3.494 0 001.316-.631c.306-.225.581-.512.815-.85.513-.746.855-1.857.627-3.471-.605-4.306-1.629-17.563-1.629-17.563s-.174-16.13 5.874-20.658c2.444-1.829 3.817-1.767 4.585-1.041a.546.546 0 01.066.062c1.058 1.09.882 3.502.882 3.502z" fill="#3A3768"/><path d="M32.335 147.425l-.097 1.294-.592 7.943c-.925-.247-1.848-.506-2.769-.777l.692-7.222.234-2.453 2.532 1.215z" fill="#EAECF0"/><path d="M14.96 144.857l14.784-40.224 59.55 5.937 5.49 34.287H14.96z" fill="#EFC6CD"/><path d="M14.96 148.365v-3.509h79.823v5.13l-79.822-1.621z" fill="#D48A9B"/><path d="M37.47 138.981l35.713.93a.397.397 0 00.229-.064.543.543 0 00.18-.191.734.734 0 00.09-.276.8.8 0 00-.018-.298l-5.568-19.198-24.054-.586-7.115 18.621a.952.952 0 00.046.72.683.683 0 00.215.252.493.493 0 00.282.09z" fill="#DFE6F5"/><path opacity=".15" d="M37.47 138.981l35.713.93a.397.397 0 00.229-.064.543.543 0 00.18-.191.734.734 0 00.09-.276.8.8 0 00-.018-.298l-5.568-19.198-24.054-.586-7.115 18.621a.952.952 0 00.046.72.683.683 0 00.215.252.493.493 0 00.282.09z" fill="#000"/><path d="M37.182 138.18l36.082.971-4.905-18.993a1.61 1.61 0 00-.435-.769c-.204-.192-.45-.3-.703-.306l-23.188-.562-6.851 19.659z" fill="#DFE6F5"/><path d="M40.163 133.88l4.324-12.163a1.43 1.43 0 01.425-.627.982.982 0 01.623-.234h10.747c.305 0 .597.155.812.43a1.7 1.7 0 01.336 1.038v13.142c0 .199-.032.396-.093.579a1.55 1.55 0 01-.264.485 1.16 1.16 0 01-.391.313.936.936 0 01-.457.091l-15.074-.982a.972.972 0 01-.53-.205 1.348 1.348 0 01-.393-.497 1.832 1.832 0 01-.066-1.37z" fill="#4C4C56"/><path d="M61.358 132.339l.184-6.94c.005-.278.095-.542.25-.737a.75.75 0 01.581-.304h3.176c.195.001.384.09.533.251.149.161.248.384.282.63l.933 6.903c.02.152.015.308-.016.457a1.188 1.188 0 01-.166.406.892.892 0 01-.283.28.684.684 0 01-.349.102l-4.297.049a.67.67 0 01-.324-.085.855.855 0 01-.272-.24 1.13 1.13 0 01-.177-.355 1.333 1.333 0 01-.055-.417z" fill="#D1D9EC"/><path d="M19.283 87.198l11.974-1.277a.668.668 0 01.506.125c.154.11.275.282.346.49l11.323 32.762-6.32 18.136c.198-.569.345 3.859-1.086.021L18.031 89.464c-.241-.642.69-2.176 1.252-2.266z" fill="#4C4C56"/><path opacity=".15" d="M19.283 87.198l11.974-1.277a.668.668 0 01.506.125c.154.11.275.282.346.49l11.323 32.762-6.32 18.136c.198-.569.345 3.859-1.086.021L18.031 89.464c-.241-.642.69-2.176 1.252-2.266z" fill="#000"/><path d="M19.284 87.198l12.582-2.054a.668.668 0 01.506.125c.154.11.275.282.346.489l11.325 32.763-6.851 19.659L18.64 88.687a1.288 1.288 0 01.02-.958.99.99 0 01.261-.362.712.712 0 01.363-.17z" fill="#4C4C56"/><path d="M22.422 89.502l9.097-1.811a.667.667 0 01.528.122c.16.116.285.298.354.516l9.528 29.796a1.18 1.18 0 01-.016.763l-4.362 11.654a.907.907 0 01-.272.395.625.625 0 01-.395.147.625.625 0 01-.395-.147.907.907 0 01-.271-.395L21.806 90.98a1.288 1.288 0 01.016-.938c.06-.144.146-.267.25-.361a.725.725 0 01.35-.179z" fill="#6C63FF"/><path d="M119.484 156.638s-.187.396-.461 1.041l-.024.059a45.31 45.31 0 00-.847 2.082l-.69.028h-.228c-8.144.368-16.287.857-24.41 1.208l-1.984.083h-.288c-2.823.116-5.643.205-8.46.267h-1.678l-1.26.021c-1.308.016-2.614.025-3.917.028h-1.553c-4.783-.018-9.547-.153-14.281-.469l-.527-.038c.931-2.589 2.595-6.833 3.947-8.19 1.045-1.041 8.551-2.196 15.454-3.043l.728-.09h.016l1.927-.229a398.72 398.72 0 016.749-.729l.157-.018-.89-3.817-1.29-5.552.367-4.664.03-.375h-.041c-.368.05-.74-.01-1.086-.174l-12.891-.569h-.234l-4.951-.225c-2.655-.122-4.542-.212-4.615-.229a1.01 1.01 0 01-.543-.323 1.574 1.574 0 01-.271-.417h-.175l-.7.059-.355.032c-.014-.049-.025-.098-.038-.143-.033-.135-.065-.263-.095-.395h-.187l-2.444-.066h-.043s-6.303.614-9.596-.92c-1.208-.562-2.011-1.412-1.95-2.686.015-.29.062-.575.142-.847-1.059-2.529 4.113-7.145 8.054-5.871a5.518 5.518 0 003.274.173 3.862 3.862 0 001.762-1.083 2.569 2.569 0 00-.196-.138 2.621 2.621 0 00-.86-.382l1.07-.399h.016s3.8-.444 6.273-.621h.016c.736-.049 1.358-.08 1.727-.066 1.629.059 4.802-1.43 4.938-1.888.135-.458 1.585 0 1.585 0l1.268-.632c1.267-.628 1.992-1.485 1.992-2.117 0-.631 1.132-1.315 1.132-1.315.51-1.096 1.512-2.273 2.563-3.314.91-.899 1.854-1.7 2.554-2.259a82.148 82.148 0 011.086-6.677c.48-2.05 1.97-3.57 2.505-4.064l.196-.166a21.904 21.904 0 00-.662-2.749 11.604 11.604 0 00-.169-.472l-.084-.208a7.481 7.481 0 01-1.775.219c-2.036.01-4.017-.834-5.643-2.4-1.625-1.567-2.804-3.771-3.356-6.276v-.02a14.842 14.842 0 01-.326-3.124c-.001-1.013.103-2.02.31-2.998a11.836 11.836 0 01.16-.687c.024-.094.049-.191.076-.285a7.533 7.533 0 01-1.214.135H74a4.636 4.636 0 01-2.272-.482 2.952 2.952 0 01-.524-.368 2.76 2.76 0 01-.56-.566 3.54 3.54 0 00.746-1.087c.19-.421.312-.887.36-1.37.073-.75-.025-1.585.325-2.196.18-.276.395-.51.636-.694 1.444-1.26 2.59-2.988 3.895-4.477 1.306-1.489 2.886-2.776 4.642-2.846 2.356-.093 4.43 2.003 6.765 2.398.716.122 1.452.08 2.152.31a6.97 6.97 0 012.186 1.415 6.11 6.11 0 011.558 1.694c.3.593.515 1.25.635 1.94.302 1.453.484 2.943.543 4.445.062 1.572 0 3.154.13 4.716.092 1.356.45 2.661 1.043 3.793h.035c.103.185.215.361.336.528a8.77 8.77 0 01-.697.25c-.393.128-.79.229-1.192.301-.184.04-.37.059-.556.06-.13.004-.26-.012-.386-.046l.239.205.662.57.25.21.502.428c.114-.427.272-.542.454-.514.369-.444.92.517.92.517.323.791 1.192 1.58 1.96 2.162.451.34.916.65 1.392.93 10.145 7.729 9.501 19.291 10.099 20.208.597.916.635 4.233.635 4.233s1.496 11.275 2.172 12.25c.675.976.043 1.316.632 2.405.589 1.09.453 4.005.453 4.005s.408 6.868 1.857 8.357c1.3 1.336 3.038 12.576 3.382 14.873l.076.427z" fill="url(#paint0_linear)"/><path d="M60.024 120.464s-1.409 2.835-5.4 1.53c-3.99-1.305-9.27 3.63-7.763 6.066 1.506 2.436 11.222-.694 11.222-.694l3.727-.964-.244-3.967-1.542-1.971z" fill="#D38884"/><path opacity=".1" d="M60.024 120.464s-1.409 2.835-5.4 1.53c-3.99-1.305-9.27 3.63-7.763 6.066 1.506 2.436 11.222-.694 11.222-.694l3.727-.964-.244-3.967-1.542-1.971z" fill="#000"/><path d="M61.323 120.311l-1.73-.114-1.064.395s3.372.625 2.443 6.466l3.635-.282-3.284-6.465z" fill="#A36468"/><path opacity=".1" d="M61.323 120.311l-1.73-.114-1.064.395s3.372.625 2.443 6.466l3.635-.282-3.284-6.465z" fill="#000"/><path d="M84.212 107.249s-4.745 3.47-6.078 6.354c0 0-1.107.694-1.107 1.305s-.711 1.471-1.952 2.082l-1.243.625s-1.42-.455-1.553 0c-.133.454-3.236 1.926-4.835 1.87-1.599-.055-7.85.694-7.85.694 1.145.665 2.08 1.806 2.651 3.237.572 1.432.748 3.069.498 4.644l14.772-.791 5.587-1.589 3.285-4.196-2.175-14.235z" fill="#444053"/><path opacity=".1" d="M84.212 107.249s-4.745 3.47-6.078 6.354c0 0-1.107.694-1.107 1.305s-.711 1.471-1.952 2.082l-1.243.625s-1.42-.455-1.553 0c-.133.454-3.236 1.926-4.835 1.87-1.599-.055-7.85.694-7.85.694 1.145.665 2.08 1.806 2.651 3.237.572 1.432.748 3.069.498 4.644l14.772-.791 5.587-1.589 3.285-4.196-2.175-14.235z" fill="#000"/><path d="M62.444 132.339l-2.09-.052-2.443-.066s-11.537 1.135-11.312-3.581c.225-4.716 9.1-6.371 10.334-5.018.937 1.024 3.103 1.85 4.091 2.186.315.108.508.167.508.167l.912 6.364z" fill="#D38884"/><path opacity=".1" d="M62.445 132.339l-2.09-.052c-.834-3.661.133-5.677.681-6.468.315.107.508.166.508.166l.9 6.354z" fill="#000"/><path d="M63.852 132.541l-2.171.194-1.032.09c-1.42-5.33.874-7.43.874-7.43h.679l1.11.17.54 6.976z" fill="#A36468"/><path d="M90.158 97.158l-2.573 6.246s-.394-6.326-1.54-9.307c-.292-.764-.634-1.305-1.033-1.468-1.086-.437 5.157-9.186 5.157-9.186.21.056 1.404 1.041 2.867 2.315 1.61 1.388 3.548 3.081 4.85 4.164 2.474 2.016-7.728 7.236-7.728 7.236z" fill="#D38884"/><path d="M86.856 97.275s-2.069 1.697-2.644 4.193c-.576 2.495-1.11 6.975-1.11 6.975s.933 10.716 1.42 11.226c.485.51 2.334 11.227 2.334 11.227l1.791-1.531-2.35-13.496s1.563-17.34.559-18.594z" fill="#444053"/><path opacity=".1" d="M86.856 97.275s-2.069 1.697-2.644 4.193c-.576 2.495-1.11 6.975-1.11 6.975s.933 10.716 1.42 11.226c.485.51 2.334 11.227 2.334 11.227l1.791-1.531-2.35-13.496s1.563-17.34.559-18.594z" fill="#000"/><path d="M95.857 121.182h-10.34l1.675-20.853h8.665v20.853z" fill="#A36468"/><path d="M71.903 163.079h.125l-.233.115.108-.115zm19.451-9.498l-2.023.992-.271.129-7.28 3.577-2.778 1.364-3.778 1.857h-1.542c-4.783-.017-9.547-.153-14.282-.469.918-2.571 2.522-6.687 3.83-8.016 1.021-1.041 8.324-2.165 15.064-3.012.841-.104 1.672-.205 2.481-.299l.193-.024a491.51 491.51 0 016.786-.739l.272-.028 2.123-.208.222-.285.272 1.486.225 1.187.486 2.488z" fill="#67647E"/><path opacity=".1" d="M71.903 163.079h.125l-.233.115.108-.115zm19.451-9.498l-2.023.992-.271.129-7.28 3.577-2.778 1.364-3.778 1.857h-1.542c-4.783-.017-9.547-.153-14.282-.469.918-2.571 2.522-6.687 3.83-8.016 1.021-1.041 8.324-2.165 15.064-3.012.841-.104 1.672-.205 2.481-.299l.193-.024a491.51 491.51 0 016.786-.739l.272-.028 2.123-.208.222-.285.272 1.486.225 1.187.486 2.488z" fill="#000"/><path d="M71.903 163.079h.125l-.233.115.108-.115zm8.769 0c0 .038-.021.077-.03.115 0-.038.02-.077.033-.115h-.003zm10.551.111h-.201l-.03-.114h.201l.03.114zm1.862-13.236l-.169 7.142v.423l-.084 3.537-1.984.083h-.288c-2.823.116-5.644.205-8.461.267H80.42l-1.26.021a394.54 394.54 0 01-3.916.028h-1.561c1.411-1.118 3.238-2.35 5.204-3.582a121.29 121.29 0 012.714-1.651 206.302 206.302 0 016.933-3.915l.258-.139c.782-.423 1.49-.801 2.096-1.121 1.308-.694 2.139-1.11 2.196-1.138v.045z" fill="#67647E"/><path opacity=".1" d="M74.956 120.603c.507 1.353 1.031 2.734 1.87 3.789.133.167.364.32.483.136a.538.538 0 00.052-.257 3.933 3.933 0 00-.489-1.77c-.271-.534-.592-1.02-.833-1.576-.242-.555-.519-1.624-1.062-1.769-.697-.188-.176 1.037-.021 1.447zm18.069-34.856c-.038.174-.079.347-.122.514-.501 1.962-1.4 3.72-2.604 5.094-1.204 1.374-2.672 2.317-4.253 2.731-.293-.763-.635-1.304-1.034-1.468-1.086-.437 5.157-9.185 5.157-9.185.199.055 1.393 1.058 2.856 2.314z" fill="#000"/><path d="M93.349 82.412c0 2.31-.536 4.569-1.54 6.49-1.004 1.92-2.431 3.418-4.1 4.302-1.67.884-3.508 1.115-5.28.665-1.773-.451-3.4-1.564-4.678-3.197-1.278-1.634-2.149-3.715-2.501-5.981a14.725 14.725 0 01.52-6.749c.691-2.134 1.862-3.959 3.365-5.242 1.503-1.284 3.27-1.969 5.076-1.969a7.43 7.43 0 013.5.883c1.11.586 2.118 1.446 2.967 2.531.85 1.086 1.522 2.375 1.98 3.793.459 1.419.693 2.94.69 4.474z" fill="#D38884"/><path d="M87.717 99.764s-1.9 2.949-1.596 4.879h2.305l1.685-2.429-2.394-2.45z" fill="#67647E"/><path opacity=".1" d="M94.476 87.309l-7.248 12.739s1.863 3.405 2.75 3.575c.888.17 5.95-15.068 5.95-15.068l-1.452-1.246z" fill="#000"/><path d="M94.567 87.08l-7.25 12.757s1.862 3.4 2.75 3.571c.887.17 5.95-15.065 5.95-15.065l-1.45-1.263z" fill="#A36468"/><path d="M86.387 103.397s-.356 7.142-.711 8.561c-.356 1.42 0 14.458 0 14.458l3.328-1.756-.579-20.017-2.038-1.246z" fill="#67647E"/><path opacity=".1" d="M91.193 163.076l.03.114h-.201l-.03-.114h.201zm27.265-6.15l-.165.347c-.104.215-.215.483-.359.823a52.022 52.022 0 00-.7 1.735c-8.144.368-16.288.857-24.41 1.207l-1.984.084h-.288l-.852-3.679v-.038l-.09-.389-.543-2.311-.542-2.349-.562-2.506-.207-.909-.054-.229-.885-3.852-1.2-5.23.388-4.99.028-.378.35-4.47.049-1.326.027-.694v-.198l.06-1.61.179-4.789.092-2.45.016-.371.185-4.917.524-2.01.271-.999.603-2.322.13-.572c.19-.871.573-2.593.931-4.248l.033-.142.024-.108.255-1.176.318-1.51c.12-.58.198-.992.217-1.135.03-.246.543-1.336 1.216-2.776 1.358-2.87 3.399-7.093 3.632-8.509a.201.201 0 000-.035c.014-.086.033-.17.057-.253.112-.423.272-.538.44-.51.077.016.15.052.215.107.163.141.306.317.423.521.318.78 1.167 1.562 1.92 2.141l.146.108.087.066c.624.454 1.129.746 1.129.746 9.935 7.655 9.316 19.111 9.892 20.016.575.906.622 4.199.622 4.199s1.463 11.171 2.128 12.146c.665.976.046 1.305.621 2.384.576 1.08.443 3.932.443 3.932s.399 6.802 1.819 8.277c1.419 1.475 3.371 15.151 3.371 15.151z" fill="#000"/><path d="M118.723 156.815l-.119.264c-.095.215-.247.555-.429.982l-.019.049a40.895 40.895 0 00-.693 1.735h-.228c-8.143.368-16.287.857-24.41 1.207l-1.983.084-.85-3.693v-.038l-.09-.389-.562-2.429-.543-2.36-.542-2.356-.215-.944-.928-4.053-1.227-5.341.34-4.341.045-.58.375-4.931.144-3.845.176-4.647.046-1.218.052-1.409.022-.593.176-4.643.524-2.006.225-.864.527-2.03.111-.431s.508-2.28 1-4.539c.018-.083.037-.166.053-.25.044-.194.085-.388.128-.579.044-.195.084-.385.122-.576.139-.632.272-1.222.364-1.708a25.24 25.24 0 00.242-1.246c.03-.246.543-1.367 1.24-2.824 1.284-2.714 3.157-6.594 3.553-8.204.022-.083.04-.168.055-.253.024-.256.106-.498.236-.695.364-.447.904.514.904.514.317.78 1.167 1.565 1.92 2.141.438.338.891.645 1.356.92 9.936 7.655 9.317 19.111 9.892 20.02.576.909.622 4.196.622 4.196s1.463 11.17 2.128 12.146c.665.975.046 1.304.622 2.38.575 1.076.442 3.97.442 3.97s.399 6.805 1.819 8.28c1.42 1.475 3.377 15.127 3.377 15.127z" fill="#444053"/><path opacity=".1" d="M98.467 89.998c-.975 1.812-2.563 4.997-2.986 7.288 0 0-1.553 2.044-2.131 1.93-.578-.115.543 1.53.543 1.53l-6.1 10.806.866-3.321s1.819-8.166 1.9-8.901c.082-.736 4.498-9.165 4.848-11.286.272-1.697 1.14-.17 1.14-.17.315.764 1.165 1.552 1.92 2.124z" fill="#000"/><path d="M98.467 89.773c-.975 1.808-2.563 4.997-2.986 7.27 0 0-1.553 2.04-2.131 1.93-.578-.111.543 1.53.543 1.53l-6.1 10.806.866-3.321s1.819-8.165 1.9-8.904c.082-.74 4.498-9.162 4.848-11.282.272-1.7 1.14-.17 1.14-.17.315.78 1.165 1.561 1.92 2.14z" fill="#444053"/><path opacity=".1" d="M106.656 112.163c.046 2.478-2.794 5.861-2.927 6.059-.133.198-8.828 9.37-8.828 9.37l-6.243 6.121c-.704.742-1.545 1.239-2.443 1.444l.426-5.476.42-11.105c.975-1.388 1.92-2.846 1.942-3.311.043-.961 1.629-1.985 1.629-1.985s1.11-1.19.93-1.87c-.179-.68.59-3.939.59-3.939.399-9.245 7.85-10.15 7.85-10.15s3.594 1.814 6.122 3.741c2.527 1.926.488 8.627.532 11.101zm-42.804 20.378l-2.172.194c-.918-1.996.345-7.34.345-7.34h.176l1.11.17.54 6.976z" fill="#000"/><path d="M100.004 96.758s-7.452.91-7.85 10.151c0 0-.755 3.234-.579 3.915.177.68-.93 1.87-.93 1.87s-1.597 1.02-1.63 1.985c-.032.965-4.072 6.226-4.072 6.226s-1.683 2.45-5.586 2.707c-3.904.256-5.722 1.783-5.722 1.783s-1.9-1.7-3.285-1.19c-1.385.51-8.117 1.19-8.117 1.19s-1.789 7.579.443 8.055c.271.055 22.232 1.02 22.232 1.02s1.501.906 3.763-1.305c2.26-2.21 6.243-6.125 6.243-6.125s8.687-9.186 8.828-9.37c.141-.183 2.986-3.584 2.926-6.059-.059-2.474 1.998-9.168-.543-11.105-2.541-1.936-6.121-3.748-6.121-3.748z" fill="#444053"/><path opacity=".1" d="M93.35 82.412c0 1.23-.151 2.45-.449 3.62a5.045 5.045 0 01-.336-.594l-1.273-2.498a6.605 6.605 0 00-1.295-1.95c-.543-.493-1.314-.695-1.9-.257-.516.388-.769 1.183-.815 1.946-.016.767 0 1.534.046 2.298.022.292-.037.586-.165.83a.949.949 0 01-.7.346l-.815.142a.468.468 0 01-.453-.035.629.629 0 01-.183-.182.82.82 0 01-.113-.258c-.676-1.565-1.143-3.508-2.41-4.261-.783-.465-1.814-.434-2.316-1.33-.342-.61-.296-1.44-.196-2.183.11-.837.27-1.663.475-2.47.144-.57.464-1.704-.247-1.819-.483-.08-1.15.576-1.395 1.041-.244.465-.304 1.087-.478 1.617-.333.914-.932 1.625-1.67 1.982a4.005 4.005 0 01-1.15.4c.667-2.651 2.054-4.91 3.909-6.37 1.855-1.459 4.057-2.023 6.209-1.59 2.152.433 4.112 1.835 5.526 3.952 1.415 2.117 2.192 4.81 2.19 7.595l.003.028z" fill="#000"/><path d="M78.814 74.504c-.246.482-.303 1.082-.477 1.613-.333.913-.93 1.624-1.667 1.982a5.19 5.19 0 01-2.288.52c-1.265.049-2.677-.198-3.491-1.436.297-.294.545-.66.732-1.077.186-.417.306-.876.353-1.353.071-.742-.024-1.572.32-2.179a2.72 2.72 0 01.62-.67c1.417-1.25 2.535-2.963 3.816-4.435 1.282-1.471 2.826-2.752 4.547-2.821 2.305-.09 4.344 1.985 6.624 2.377.7.121 1.422.08 2.106.305.77.306 1.494.775 2.142 1.389a6.13 6.13 0 011.529 1.68c.292.59.502 1.24.621 1.922.3 1.44.482 2.915.543 4.404.063 1.554 0 3.123.13 4.67.13 1.548.516 3.124 1.344 4.269a9.797 9.797 0 01-1.849.545 1.536 1.536 0 01-1.175-.118 2.51 2.51 0 01-.717-.99l-1.273-2.498a6.606 6.606 0 00-1.295-1.95c-.543-.493-1.313-.694-1.9-.257-.515.389-.765 1.183-.814 1.947-.016.766 0 1.533.046 2.297.022.293-.037.586-.166.83a.95.95 0 01-.703.347l-.814.142a.469.469 0 01-.453-.036.63.63 0 01-.183-.181.822.822 0 01-.113-.259c-.676-1.568-1.143-3.508-2.41-4.261-.783-.465-1.814-.434-2.316-1.33-.342-.61-.296-1.44-.196-2.182.11-.837.27-1.663.475-2.47.144-.57.464-1.705-.247-1.823-.488-.066-1.156.59-1.4 1.087z" fill="#444053"/><path opacity=".1" d="M99.483 101.943c.687-.121 1.409-.201 2.052.135-1.675-.878-4.4-.541-5.926.667.139.406 3.342-.708 3.874-.802zm.8 2.846c1.67.142 3.394.44 4.976-.254-1.325-.583-2.782-.215-4.178-.392-1.112-.142-2.245-.635-3.33-.274-.454.149-2.123 1.131-2.01 1.85 1.426-.807 2.991-1.127 4.542-.93zm-4.422 4.664c.35-.048.703 0 1.037.138a12.56 12.56 0 003.822.538c.983 0 2.042-.191 2.758-1.041l-7.617.365zm-5.379 10.858c1.168.686 2.451.984 3.733.868 1.276-.12 2.537-.43 3.757-.923.543-.205 1.135-.462 1.452-1.066l-8.942 1.121zm12.018 1.527c2.54 1.857 5.369 2.977 8.285 3.279a99.459 99.459 0 00-4.446-2.141 26.817 26.817 0 00-4.683-1.603c.303.083.589.241.844.465zm4.104-1.988c.51.108 1.028.144 1.544.107.272 0 .595-.048.755-.347-1.165.063-2.313-.319-3.45-.649-.323-.097-.904-.326-1.176-.08.516.472 1.675.802 2.327.969zm7 31c.61 1.339 1.229 2.692 2.074 3.817a16.94 16.94 0 001.555 1.707c-1.007-3.283-2.031-6.593-3.643-9.463-.407-.722-1.015-1.756-1.756-1.888-.212.802.323 2.221.581 2.974.354.979.751 1.931 1.189 2.853zm-29.679-24.549c-.046.555-.081 1.169.171 1.624a.954.954 0 00.516.455c-.13-.042-.271-1.673-.304-1.895-.06-.455 0-1.305-.252-1.641-.066.478-.09.971-.13 1.457zm1.412-.639c.09.489.257.95.49 1.353.233.404.529.743.868.997-.475-.75-.63-1.735-1.043-2.558-.133-.264-.287-.642-.543-.694.065.305.14.607.228.902zm-1.193-9.994c-.4.304-.846.5-1.308.575a2.7 2.7 0 01-1.379-.141c-.203-.077-.679-.347-.565-.729.114-.382.666-.118.89-.083l1.182.191c.217.034 1.004.319 1.18.187zm-3.996 2.471c.557-.09 1.056.402 1.578.67a3.85 3.85 0 001.791.305c.304 0 .649-.031.836-.347-1.414-.413-2.736-.868-4.205-.628z" fill="#000"/><path d="M86.856 97.272h.089l.665 3.057-.754 1.027v-4.084z" fill="#A36468"/><path opacity=".1" d="M72.15 73.03a9.061 9.061 0 00-.123 1.51 4.16 4.16 0 00.074-.486c.033-.333.03-.683.049-1.023zm8.099.398c.066.005.13.027.189.065.059.038.11.092.152.157.042.065.073.14.09.222a.774.774 0 01.014.25c.128-.576.198-1.284-.356-1.388-.483-.077-1.15.58-1.395 1.058-.244.479-.304 1.086-.478 1.617-.331.914-.93 1.625-1.666 1.982a5.189 5.189 0 01-2.289.52c-1.15.045-2.424-.16-3.257-1.131-.1.136-.208.261-.323.375.814 1.239 2.226 1.485 3.493 1.436.78.006 1.555-.17 2.286-.52.737-.358 1.336-1.069 1.67-1.982.173-.53.227-1.13.475-1.613.247-.483.912-1.125 1.395-1.048zm14.337 12.097a1.537 1.537 0 01-1.175-.118 2.54 2.54 0 01-.717-.989L91.42 81.92a6.554 6.554 0 00-1.293-1.95c-.542-.497-1.316-.695-1.9-.257-.518.388-.768 1.183-.828 1.946v.094c.099-.56.365-1.048.741-1.36.579-.438 1.358-.236 1.9.257a6.66 6.66 0 011.296 1.95c.423.833.847 1.666 1.273 2.498.167.404.414.745.716.99a1.53 1.53 0 001.173.118 9.877 9.877 0 001.851-.545 4.883 4.883 0 01-.33-.524c-.472.168-.95.297-1.434.388zm-7.3-.739a.968.968 0 01-.7.347l-.814.142a.469.469 0 01-.454-.035.63.63 0 01-.182-.182.82.82 0 01-.114-.258c-.676-1.569-1.143-3.508-2.41-4.262-.782-.465-1.81-.433-2.313-1.329a3.17 3.17 0 01-.242-1.818c-.013.107-.032.212-.046.316-.097.742-.146 1.572.198 2.183.503.895 1.534.864 2.313 1.329 1.27.753 1.738 2.693 2.413 4.261a.97.97 0 00.313.475.63.63 0 00.437.025l.814-.142a.949.949 0 00.7-.347c.13-.243.19-.537.166-.83-.024.044-.05.086-.079.125z" fill="#000"/><path d="M199.64 166.615l-1.74-.309v-32.839l.356.139 1.086.427v3.161l.013 1.426.025 2.936v4.005l.13 14.787v.395l.046 5.206v.08l.084.586z" fill="#EAECF0"/><path d="M200.617 166.789l-.969-.174v-.673l-.046-5.206v-.395l-.13-14.787v-4.005l-.025-2.936-.013-1.426v-3.161h1.045v4.244l.021 3.172v3.355l.101 15.52v.399l.032 5.16v.083l-.016.83z" fill="#D3DAE1"/><path d="M306.214 129.396v28.346c-.515.462-1.044.917-1.585 1.364l-.022-23.598v-2.506l1.607-3.606z" fill="#EAECF0"/><path d="M307.342 128.987v27.658c-.369.378-.746.743-1.129 1.1v-28.348l1.129-.41z" fill="#D3DAE1"/><path d="M282.137 169.155c-.668.174-1.339.348-2.009.497l-.024-25.649v-1.111l1.935-1.041v2.353l.098 24.951z" fill="#EAECF0"/><path d="M283.411 141.039v27.763c-.424.118-.847.229-1.271.347l-.089-24.941v-2.353l.127-.077 1.233-.739z" fill="#D3DAE1"/><path d="M168.356 161.472l-1.805-.232-.231-28.922v-1.377h1.773v1.572l.263 28.959z" fill="#EAECF0"/><path d="M169.697 161.656l-1.357-.184-.272-28.959v-1.572h1.371v1.724l.258 28.991z" fill="#D3DAE1"/><path opacity=".1" d="M282.164 141.782l1.241-.746v3.501l-1.208.517-.033-3.272zm25.177-12.802v5.358l-1.127.482-1.61.684-.002-2.505 1.612-3.606 1.127-.413z" fill="#000"/><path d="M307.341 118.68v14.836l-25.143 10.712-.163-15.866 25.306-9.682z" fill="#D48A9B"/><path d="M165.984 117.649l33.042-8.037 108.315 9.068-25.306 9.682-116.051-10.713z" fill="#EFC6CD"/><path opacity=".1" d="M169.45 130.941l.011 1.721-1.368-.153-1.778-.194-.008-1.374h3.143zm30.961 5.122l-1.045-.118-1.466-.16v-2.318l1.45.562h1.048l.013 2.034z" fill="#000"/><path d="M165.984 117.649v13.805l116.214 12.774-.163-15.866-116.051-10.713z" fill="#D48A9B"/><path d="M258.127 134.064h-15.18v-7.041l15.18 1.367v5.674z" fill="#D48A9B"/><path opacity=".1" d="M258.127 134.064h-15.18v-7.041l15.18 1.367v5.674z" fill="#000"/><path opacity=".1" d="M222.559 125.478v11.126l58.268 5.667v-11.848l-22.726-1.648-2.259 2.575-9.267-.822-3.304-3.092-20.712-1.958z" fill="#000"/><path d="M222.236 125.065v11.13l58.269 5.663v-11.847l-22.727-1.649-2.255 2.579-9.271-.826-3.303-3.092-20.713-1.958z" fill="#fff"/><path d="M186.292 122.078l13.782 1.239-.16 5.597h-8.999l-6.019-3.023 1.396-3.813z" fill="#D48A9B"/><path opacity=".1" d="M186.292 122.078l13.782 1.239-.16 5.597h-8.999l-6.019-3.023 1.396-3.813z" fill="#000"/><path opacity=".1" d="M167.92 120.533v9.995l52.866 5.358v-10.612l-20.389-1.548-2.177 2.061-8.22-.617-3.385-2.68-18.695-1.957z" fill="#000"/><path d="M167.598 120.12v9.995l52.866 5.358v-10.612l-20.389-1.545-2.174 2.058-8.223-.617-3.385-2.679-18.695-1.958z" fill="#fff"/><path opacity=".1" d="M280.833 120.158l7.41.622-12.278 4.698-6.254-.576 11.122-4.744z" fill="#000"/><path d="M280.833 119.749l7.41.618-12.278 4.699-6.254-.577 11.122-4.74z" fill="#fff"/><path d="M279.947 120.815c.293-.164.606.139.918.215.176.045.361 0 .543.045.363.063.722.372 1.069.216l-2.53-.476zm-.383.281c.291-.16.603.142.915.218.179.042.364 0 .543.042.361.063.722.375 1.07.219l-2.528-.479zm-.878.569c.29-.16.602.139.914.215.18.045.361 0 .543.045.364.063.725.376 1.07.216l-2.527-.476z" fill="#D3DAE1"/><path opacity=".1" d="M230.833 114.96l16.524 1.385-3.521 6.465-18.166-2.482 5.163-5.368z" fill="#000"/><path d="M230.508 114.547l16.523 1.381-3.521 6.469-18.168-2.481 5.166-5.369z" fill="#3A3768"/><path d="M231.238 115.023l14.412 1.128-3.071 5.267-15.845-2.023 4.504-4.372z" fill="#D5E1F4"/><path d="M221.573 167.854c0 .097 0 .198-.014.295-.013.097 0 .174-.021.26a7.166 7.166 0 01-.394 1.767c-6.827-.982-13.671-2.162-20.522-3.373l-.969-.174-1.74-.309-1.466-.26a27.794 27.794 0 01-4.789-.573 20.077 20.077 0 01-2.959-.798 618.305 618.305 0 00-13.065-2.158l-.567-.087c.103-.59.19-.947.19-.947s.934-4.692 1.71-9.936c.171-1.138.334-2.297.475-3.446.114-.919.217-1.829.304-2.703a55.264 55.264 0 00.174-2.11c.013-.236.03-.493.043-.732.014-.24.019-.451.027-.67v-.326c0-.469 0-.958-.013-1.461a54.219 54.219 0 00-.923-7.43 76.079 76.079 0 00-.236-1.239c-.025-.132-.052-.26-.079-.389-.877-4.341-1.9-7.888-1.9-7.888a.58.58 0 010-.059 1.262 1.262 0 000-.128v-.618c.02-.364.069-.724.146-1.075.03-.125.064-.248.103-.368a2.42 2.42 0 01.472-.915c.213-.251.47-.433.75-.529.768-.253 1.93 0 3.684 1.329.285.211.558.45.814.715.13.132.272.271.38.42 2.009 2.391 3.078 6.337 3.649 9.939.021.128.04.257.059.385a53.704 53.704 0 01.397 3.446c0 .18.029.347.043.531.014.184.027.347.035.514.036.541.06 1.041.076 1.464.046 1.124.038 1.815.038 1.815v.035s0 .052-.013.149a.066.066 0 000 .028v.312l-.041.51-.084 1.041c-.022.292-.049.608-.076.941-.06.694-.125 1.499-.196 2.346-.016.159-.029.319-.043.478-.062.726-.128 1.482-.195 2.246-.074.867-.155 1.735-.234 2.592-.019.187-.038.375-.054.559-.201 2.082-.402 3.973-.565 5.15-.025.174-.044.35-.054.527-.003.06-.003.12 0 .181a4.644 4.644 0 000 .472c.133 2.963 2.638 3.47 2.638 3.47l11.377-.288 1.689-.042.982-.024 8.869-.226.814-.021 4.411-.111c.3-.009.599.037.888.136a12.75 12.75 0 013.855 2.155 5.1 5.1 0 011.034 1.166c.602.922.973 2.053 1.067 3.248v.239c.022.167.022.354.019.552z" fill="#3A3768"/><path opacity=".1" d="M221.574 167.854c0 .097 0 .198-.013.295-.014.097 0 .174-.022.26a7.416 7.416 0 01-.407 1.767c-6.828-.982-13.671-2.162-20.523-3.373l-.969-.174-1.74-.309-1.466-.26a27.893 27.893 0 01-4.788-.573 20.077 20.077 0 01-2.959-.798 618.305 618.305 0 00-13.065-2.158l-.568-.087c.103-.611.196-.982.196-.982s.763-3.817 1.487-8.443c.052-.32.101-.639.15-.962l.073-.489c.168-1.135.331-2.301.475-3.446.114-.92.217-1.829.304-2.703a56.072 56.072 0 00.174-2.11c.013-.236.03-.493.043-.732.014-.24.019-.452.027-.67v-.326c0-.469 0-.958-.013-1.461a53.9 53.9 0 00-.915-7.43 67.073 67.073 0 00-.236-1.239l-.079-.389c-.879-4.355-1.9-7.922-1.9-7.922a.104.104 0 000-.025 1.262 1.262 0 000-.128v-.618c.017-.364.063-.724.138-1.076.03-.121.063-.246.101-.367.097-.369.267-.699.492-.961.225-.262.498-.446.794-.535.769-.229 1.917.055 3.633 1.339.297.224.58.477.846.757.128.135.25.271.37.416 1.992 2.405 3.054 6.344 3.618 9.936.022.128.041.26.06.388a52.185 52.185 0 01.394 3.436c.013.184.029.364.04.538.011.173.027.347.036.513.035.542.059 1.042.076 1.465.046 1.124.038 1.815.038 1.815v.184a.066.066 0 000 .028v.312l-.041.51-.084 1.041c-.027.288-.052.604-.079.941-.06.694-.125 1.499-.195 2.345-.017.16-.03.32-.044.479-.062.726-.13 1.489-.195 2.253-.079.867-.158 1.735-.239 2.588l-.055.559c-.198 2.082-.396 3.946-.559 5.115a5.923 5.923 0 00-.054.566c-.003.06-.003.12 0 .18a4.644 4.644 0 000 .472c.155 2.929 2.639 3.419 2.639 3.419l11.376-.285 1.686-.045.986-.024 8.884-.222.831-.021 4.395-.111c.299-.013.599.033.888.135a12.578 12.578 0 013.884 2.134c.379.31.72.692 1.01 1.132a.315.315 0 01.038.055c.601.926.969 2.064 1.053 3.262v.24c-.024.194-.024.381-.027.579z" fill="#000"/><path d="M221.594 170.228l-.448-.066c-6.827-.982-13.671-2.162-20.522-3.373l-.969-.174-1.74-.309-1.466-.26a27.89 27.89 0 01-4.789-.572 20.206 20.206 0 01-2.959-.799 618.305 618.305 0 00-13.065-2.158c.071-.487.161-.969.271-1.444 0 0 2.579-12.982 2.739-19.885.057-2.467-.325-5.521-.844-8.432a77.21 77.21 0 00-.233-1.246l-.073-.389c-.921-4.563-2.015-8.381-2.015-8.381a7.242 7.242 0 01.128-1.783c.104-.582.349-1.106.7-1.499a.34.34 0 01.052-.049c.714-.694 1.995-.743 4.275.965.462.348.89.767 1.273 1.246.109.131.218.27.321.413 1.832 2.536 2.804 6.423 3.314 9.9l.057.385c.06.434.112.861.16 1.274v.035a52.787 52.787 0 01.353 6.003s-.106 1.371-.271 3.346a541.53 541.53 0 01-.215 2.557v.139l-.04.486a459.837 459.837 0 01-.5 5.462c-.174 1.78-.347 3.363-.491 4.394-.565 4.018 2.579 4.636 2.579 4.636l10.733-.271 1.683-.041.986-.028h.545l8.513-.215h.815l4.886-.125c.299-.01.598.037.887.138a12.64 12.64 0 013.888 2.131 5.154 5.154 0 01.961 1.062c.638.943 1.031 2.116 1.124 3.357.093 1.241-.117 2.489-.603 3.57z" fill="#3A3768"/><path d="M259.967 107.499l3.32 9.092h-.556l-3.893-8.984 1.129-.108z" fill="#4C4C56"/><path opacity=".1" d="M259.967 107.499l3.32 9.092h-.556l-3.893-8.984 1.129-.108z" fill="#000"/><path d="M259.965 116.591h3.32v.951l-3.32.108v-1.059z" fill="#4C4C56"/><path opacity=".1" d="M259.965 116.591h3.32v.951l-3.32.108v-1.059z" fill="#000"/><path d="M234.143 74.042v31.749c0 .625.194 1.225.539 1.667.346.442.815.69 1.304.69h41.397c.244 0 .485-.062.71-.183.224-.12.428-.297.598-.519.171-.222.305-.486.395-.775.09-.29.134-.599.129-.911l-.469-31.777c-.009-.614-.207-1.198-.549-1.627-.343-.43-.804-.67-1.284-.67h-40.927c-.242 0-.482.06-.706.179a1.903 1.903 0 00-.598.51 2.492 2.492 0 00-.399.765c-.093.286-.14.592-.14.902z" fill="#4C4C56"/><path opacity=".1" d="M234.143 74.042v31.749c0 .625.194 1.225.539 1.667.346.442.815.69 1.304.69h41.397c.244 0 .485-.062.71-.183.224-.12.428-.297.598-.519.171-.222.305-.486.395-.775.09-.29.134-.599.129-.911l-.469-31.777c-.009-.614-.207-1.198-.549-1.627-.343-.43-.804-.67-1.284-.67h-40.927c-.242 0-.482.06-.706.179a1.903 1.903 0 00-.598.51 2.492 2.492 0 00-.399.765c-.093.286-.14.592-.14.902z" fill="#000"/><path d="M232.648 74.042v31.75c0 .624.195 1.224.54 1.666.346.442.815.69 1.304.69h41.397c.244 0 .485-.062.709-.183.225-.12.428-.297.598-.519.171-.223.305-.486.394-.776.09-.289.134-.598.129-.91l-.47-31.777c-.009-.613-.206-1.197-.548-1.626-.342-.43-.802-.67-1.282-.671h-40.916a1.501 1.501 0 00-.709.175c-.225.118-.43.29-.602.51-.172.219-.309.48-.402.766a2.914 2.914 0 00-.142.905z" fill="#4C4C56"/><path d="M234.277 76.027v27.953c0 .625.195 1.224.54 1.666.346.442.815.69 1.304.69h38.332c.486 0 .952-.246 1.296-.686.343-.439.537-1.035.537-1.656V76.01c-.001-.621-.195-1.216-.538-1.654-.344-.439-.809-.685-1.295-.685h-38.332c-.489 0-.958.248-1.304.69-.345.442-.54 1.041-.54 1.666z" fill="#6C63FF"/><path d="M250.865 107.627l3.64 8.964h8.226l-4.113-10.255-7.753 1.291zm-2.901 8.964l-.609.951h12.61v-.951h-12.001z" fill="#4C4C56"/><path d="M193.943 79.138c.222 1.536.445 3.075.853 4.54l.001.005.007.027.014.052a.397.397 0 01-.139-.107 1.049 1.049 0 01-.171-.386c-.414-1.477-.64-3.023-.866-4.566-.275-1.882-.55-3.758-1.164-5.497a13.56 13.56 0 01-.464-1.389 3.86 3.86 0 01-.063-.305l.063-.049.067-.034.068-.024.068-.021c.015.307.057.61.125.906.13.474.284.937.459 1.388.602 1.727.872 3.591 1.142 5.46z" fill="url(#paint1_linear)"/><path d="M203.873 85.504a8.609 8.609 0 00-1.042 2.062c-.041.114-.082.225-.12.347-1.2 3.47-1.607 8.38-1.607 8.38s-.744-.426-1.797-1.093c-1.963-1.242-4.992-3.31-6.216-4.959-.543-.746-.739-1.405-.288-1.867.098-.1.198-.215.299-.347.347-.443.664-.924.947-1.436.391-.695.776-1.468 1.14-2.263.215-.465.418-.934.608-1.388l.076-.18c.815-1.975 1.409-3.662 1.409-3.662s.271.111.711.309c2.028.927 7.612 3.741 5.88 6.097zm37.159 80.403s.331 3.144.752 6.462l-.964-.063a211.341 211.341 0 01-7.739-.656c-1.466-4.341-2.986-9.494-2.986-9.574 0-.08-.046-1.777-.098-3.672l-.051-1.998c-.027-.979-.052-1.861-.065-2.409 0-.375-.017-.597-.017-.597s-1.395.313-2.649.531l-.557.094c-.287.045-.543.08-.773.101a1.593 1.593 0 01-.6 0c-.429-.212.461-5.553.461-5.553l2.215-6.854.619-1.908.272-.087c.133-.042.312-.09.526-.142 2.115-.497 7.764-1.128 8.722 6 1.187 8.804 1.358 10.782 1.358 10.782l1.574 9.543z" fill="#EFB7B9"/><path opacity=".05" d="M241.032 165.907s.331 3.144.752 6.462l-.964-.063a211.341 211.341 0 01-7.739-.656c-1.466-4.341-2.986-9.494-2.986-9.574 0-.08-.046-1.777-.098-3.672l-.051-1.998c-.027-.979-.052-1.861-.065-2.409 0-.375-.017-.597-.017-.597s-1.395.313-2.649.531l-.557.094c-.287.045-.543.08-.773.101a1.593 1.593 0 01-.6 0c-.429-.212.461-5.553.461-5.553l2.215-6.854.619-1.908.272-.087c.133-.042.312-.09.526-.142 2.115-.497 7.764-1.128 8.722 6 1.187 8.804 1.358 10.782 1.358 10.782l1.574 9.543z" fill="#000"/><path d="M240.821 172.306a213.432 213.432 0 01-7.74-.655l-.977-.101-.432-.045c-1.216-3.752-2.296-7.42-2.296-7.486 0-.065-.046-1.776-.098-3.671l-.133-5.004-.182.038-.076.017h-.098l-.437.094-.238.049c-.432.09-.953.19-1.464.284l-.114.021-.298.049-.272.041c-.209.035-.407.063-.586.083l-.22.025c-.199.04-.401.04-.6 0-.429-.212.462-5.553.462-5.553l2.834-8.762.097-.035a10.259 10.259 0 011.417-.336c2.46-.403 7.14-.289 8.006 6.142 1.186 8.804 1.357 10.782 1.357 10.782l1.583 9.571s.206 1.978.505 4.452z" fill="#EFB7B9"/><path opacity=".1" d="M229.277 160.348l-.133-5.008s-2.715.607-3.98.725l.255-1.103s4.648-1.642 4.745-.715c.071.649-.526 4.098-.887 6.101z" fill="#000"/><path opacity=".1" d="M229.376 139.564v2.509s-.23 4.512-2.044 11.414a18.192 18.192 0 01-.795 2.377 18.41 18.41 0 01-1.371.202 1.553 1.553 0 01-.6 0c-.429-.212.459-5.553.459-5.553l2.834-8.759.1-.034.617-1.913s.304-.125.8-.243z" fill="#000"/><path d="M228.85 139.169v2.904s-.231 4.512-2.044 11.418c-.046.18-.098.347-.15.531a10.06 10.06 0 01-.187.596c-.149.462-.318.91-.494 1.34-1.42 3.439-3.583 5.899-4.957 7.253-.201.198-.388.371-.543.517h-.013c-.272.236-.467.406-.592.507-.125.1-.136.107-.136.107-1.286-1.01-4.943-1.18-4.943-1.18l-8.535 1.982a39.29 39.29 0 01-5.638.819l-.969.059c-.559.028-1.14.045-1.735.048-.48 0-.969 0-1.465-.024a27.794 27.794 0 01-4.789-.573 19.402 19.402 0 01-2.584-.732 15.6 15.6 0 01-1.789-.763c-5.972-2.999-4.417-10.109-3.41-13.187.055-.163.106-.313.155-.451.223-.629.388-.996.388-.996l.397-1.225.648-2.01.144-.44.041-.129.48-1.489 6.787-1.124 4.987-.826 1.517-.25 1.029-.17 1.962-.326.739-.121a7.168 7.168 0 011.376-.139c.249-.015.498.032.733.139.543.315 4.68-.549 4.68-.549s3.228-1.263 6.062-.843c1.401.124 2.807.135 4.21.035l.347-.021.451-.024h.098c3.67-.219 7.742-.663 7.742-.663z" fill="#444053"/><path opacity=".1" d="M204.431 147.886s-3.258 9.477-3.394 9.644c-.135.167-.13 3.123 0 2.95.131-.174 4.648-12.972 4.648-12.972l-1.254.378zm15.783-8.016s-1.648 1.36-2.142 2.456c-.494 1.097-5.009 12.004-6.127 13.604a36.325 36.325 0 00-2.506 4.556c-.13.289-.13 2.1.66.372.79-1.728.595-2.02 2.142-4.165 1.547-2.144 3.257-6.992 3.92-7.96.662-.969 1.582-3.877 2.736-5.605l2.21-3.3-.893.042zm.396 18.715s-1.154-1.01-2.24.715c-1.086 1.725 2.24-.715 2.24-.715zm1.417.52s-.955 2.131-1.417 2.301c-.461.17 1.417-2.301 1.417-2.301zm-1.419.531s-.757 1.687-1.417 1.517l1.417-1.517z" fill="#000"/><path d="M215.276 114.103s6.984-.378 7.677-.673c.692-.295 6.819-1.305 6.819-1.305s18.155 1.641 12.983 3.623c-5.171 1.981-12.191 1.135-12.191 1.135s-6.854 2.276-7.907 3.47c-1.054 1.194-8.831 1.221-8.831 1.221l1.45-7.471z" fill="#EFB7B9"/><path opacity=".05" d="M215.276 114.103s6.984-.378 7.677-.673c.692-.295 6.819-1.305 6.819-1.305s18.155 1.641 12.983 3.623c-5.171 1.981-12.191 1.135-12.191 1.135s-6.854 2.276-7.907 3.47c-1.054 1.194-8.831 1.221-8.831 1.221l1.45-7.471z" fill="#000"/><path d="M190.43 93.76s-6.393 2.776-3.296 9.856c3.098 7.079 7.085 10.41 7.085 10.41l10.28 9.1s4.317 3.157 6.293 1.853l3.227-.347.543-10.828s-2.714 2.697-5.668-1.041c-2.953-3.737-6.591-6.277-6.887-8.297-.295-2.02-7.856-12.434-11.577-10.706z" fill="#A36468"/><path d="M210.625 116.674s3.328 1.517 3.198 1.6c-.131.083-3.198 1.558-3.198 1.558l.231 5.771 4.514-.316s1.648-10.508.231-11.563l-4.976-.295v3.245z" fill="#67647E"/><path opacity=".1" d="M210.625 116.674s3.328 1.517 3.198 1.6c-.131.083-3.198 1.558-3.198 1.558l.231 5.771 4.514-.316s1.648-10.508.231-11.563l-4.976-.295v3.245zm-6.748-31.17a8.61 8.61 0 00-1.043 2.061c-.04.115-.081.226-.119.347-2.424 0-4.167-2.408-5.655-4.563-.271-.399-.958.205-1.183-.243-.025-.052-.049-.104-.076-.156l.076-.18a84.682 84.682 0 001.409-3.662s.271.111.711.31c2.028.915 7.612 3.73 5.88 6.086z" fill="#000"/><path d="M210.931 77.123c0 2.753-.851 5.395-2.367 7.35-1.516 1.956-3.574 3.067-5.728 3.093h-.078c-1.16 0-2.307-.315-3.364-.925-1.057-.61-2-1.502-2.766-2.615a10.874 10.874 0 01-.749-1.267c-.686-1.367-1.114-2.919-1.249-4.533a13.182 13.182 0 01.471-4.769c.445-1.52 1.161-2.888 2.091-3.994.93-1.106 2.049-1.92 3.268-2.375a6.467 6.467 0 013.755-.254c1.249.29 2.429.947 3.446 1.921 1.016.974 1.841 2.238 2.408 3.69a12.88 12.88 0 01.862 4.678z" fill="#EFB7B9"/><path opacity=".1" d="M202.621 141.903s-.622.972-1.309 1.878c-.518.694-1.072 1.329-1.428 1.492-.814.382-4.547 4.001-4.547 4.001s-2.964 2.572-3.721 3.328c-.758.757-3.494.295-3.494.295s-2.633-.735-4.265-2.082c.159-.494.34-.976.543-1.444l1.713-5.309 6.787-1.121 9.721-1.038z" fill="#000"/><path d="M202.488 141.23s-.619.972-1.306 1.878c-.518.694-1.086 1.329-1.428 1.492-.814.378-4.547 4.001-4.547 4.001s-2.967 2.572-3.724 3.328c-.757.757-3.491.295-3.491.295s-3.757-1.041-5.076-2.95c-.923-1.329.032-3.793.684-5.15.271-.579.502-.957.502-.957l18.386-1.937zm4.879-32.645c-2.242-.253-9.623-11.799-9.623-11.799l.168-.295 1.548-2.738h3.618l.399 2.526c2.753 4.935 4.374 8.367 4.813 10.332.318 1.429.017 2.082-.923 1.974z" fill="#67647E"/><path opacity=".1" d="M207.367 108.585c-2.242-.253-9.623-11.799-9.623-11.799l.168-.295a49.944 49.944 0 013.722 4.97c5.402 8.127 6.472 5.858 6.656 5.15.318 1.429.017 2.082-.923 1.974zm-4.879 32.645s-.619.972-1.306 1.878a3.042 3.042 0 01-1.132.312c-.858-.042-2.834 1.687-2.834 1.687s-3.491-.254-4.151.208c-.659.461-3.197.548-3.197.548-4.645 1.694-5.929-.878-6.268-1.735.271-.58.502-.958.502-.958l18.386-1.94z" fill="#000"/><path d="M210.554 116.147c0 .163-.025.326-.041.482a19.41 19.41 0 01-.052.465 9.239 9.239 0 01-.594 2.461c-.592 1.263-2.405 6.191-2.405 6.191l-.122.909-.063.475-.065.469-.443 3.321-.198 3.835s-1.086 1.936-1.547 2.776c-.462.84-.396 2.065-.231 2.95.166.884-1.515 1.009-1.515 1.009s-2.372 1.475-3.23 1.434c-.858-.042-2.834 1.679-2.834 1.679s-3.491-.253-4.15.212c-.66.465-3.198.548-3.198.548-4.973 1.808-6.094-1.266-6.325-1.898-.231-.632.988-3.2.988-3.2s.271-3.244.79-3.498c.518-.253 1.154-4.546 1.154-4.546s-.199-1.308.23-2.023c.429-.715.397-2.738.956-3.706.559-.968-.592-4.213-.394-5.056.198-.844-.627-4.255-.562-5.14.065-.885-.163-1.6-.692-3.37-.451-1.509-.323-8.217-.271-10.14 0-.326.013-.513.013-.513s.462-1.899 1.68-5.688c.923-2.87 3-3.956 3.953-4.31.163-.063.329-.115.497-.156.239.044.473.12.7.225.961.413 2.883 1.583 5.625 4.859a50.711 50.711 0 013.428 4.622c6.181 9.287 6.686 4.952 6.686 4.952s.272.791 1.545 3.949c.681 1.68.806 3.686.687 5.421z" fill="#A36468"/><path opacity=".1" d="M200.379 93.243l-6.2-6.323s-2.235.347-3.158 5.143l6.382 7.145 2.976-5.965z" fill="#000"/><path d="M200.378 93.243l-1.085 1.94-1.102 1.988-.831 1.558-5.095-5.486-.877-.972-.492-.534c.497-2.593 1.379-3.887 2.083-4.512a2.364 2.364 0 011.085-.62l6.314 6.638z" fill="#67647E"/><path d="M243.015 118.274c-5.174 1.978-12.191 1.139-12.191 1.139s-6.854 2.273-7.907 3.47c-.679.76-4.146 1.041-6.515 1.155a57.16 57.16 0 01-2.302.066l1.446-7.471.837-.049c1.875-.111 6.297-.395 6.84-.628.693-.295 6.819-1.305 6.819-1.305s18.145 1.642 12.973 3.623z" fill="#EFB7B9"/><path opacity=".1" d="M210.464 117.077a9.242 9.242 0 01-.595 2.46c-.592 1.263-2.405 6.191-2.405 6.191l-.25 1.871c-.841-.4-1.658-.88-2.443-1.437l-10.288-9.11s-3.988-3.328-7.085-10.41c-3.097-7.083 3.295-9.856 3.295-9.856 3.722-1.735 11.269 8.676 11.565 10.699.295 2.023 3.922 4.549 6.886 8.297.391.508.835.943 1.32 1.295z" fill="#000"/><path opacity=".1" d="M210.556 116.147c-.024.329-.054.645-.092.947a9.258 9.258 0 01-.595 2.461c-.592 1.263-2.405 6.191-2.405 6.191l-.122.909a16.169 16.169 0 01-2.579-1.499l-10.28-9.113s-3.988-3.328-7.085-10.411 3.295-9.86 3.295-9.86c3.722-1.734 11.269 8.676 11.565 10.7.295 2.023 3.922 4.549 6.886 8.301a6.39 6.39 0 001.412 1.374z" fill="#000"/><path d="M214.812 116.338l-.526 10.824-3.231.347c-.07.047-.144.088-.219.121-2.058.965-6.073-1.974-6.073-1.974l-10.28-9.11s-3.988-3.328-7.085-10.411 3.295-9.855 3.295-9.855c3.722-1.736 11.269 8.675 11.565 10.698.295 2.024 3.922 4.55 6.886 8.298a6.24 6.24 0 001.483 1.388c.654.44 1.39.642 2.128.584.738-.057 1.45-.372 2.057-.91z" fill="#A36468"/><path opacity=".1" d="M214.811 116.338l-.527 10.823-3.23.347a1.36 1.36 0 01-.22.122l-.209-5.261s3.065-1.475 3.198-1.558c.133-.083-3.198-1.6-3.198-1.6v-2.516c.657.435 1.394.632 2.132.569.738-.063 1.448-.384 2.054-.926z" fill="#000"/><path opacity=".1" d="M216.388 124.021a59.519 59.519 0 01-2.302.066l1.46-7.454.836-.049c.538 1.183.307 4.661.006 7.437z" fill="#000"/><path d="M210.889 119.201s3.328 1.516 3.197 1.599c-.13.084-3.197 1.558-3.197 1.558l.23 5.772 4.515-.316s1.648-10.508.231-11.563l-4.976-.295v3.245z" fill="#67647E"/><path opacity=".1" d="M191.153 126.11s-1.121 1.346-2.044 1.704l2.044-1.704zm-2.667 4.001s2.734-.128 3.062-.843c.329-.715-3.062.843-3.062.843zm-1.351 5.011c.165 0 3.458-.59 3.591-1.138l-3.591 1.138zm-1.024 3.204c1.187-.046 3.195-1.687 3.195-1.687l-3.195 1.687zm7.676.839s7.15 0 7.479-1.683c.328-1.683-7.479 1.683-7.479 1.683zm5.373-23.546c.133 0 5.636 0 6.162-.968.527-.968-6.162.968-6.162.968zm-6.059-27.582c.045.344.068.693.071 1.041 0 .388-.028.775-.082 1.156a12.2 12.2 0 01-.51 2.107l-.057.17a21.154 21.154 0 01-1.681 3.713 30.74 30.74 0 01-4.267 5.674c-.277.298-.556.593-.839.885 0-.327.014-.514.014-.514s.461-1.898 1.68-5.688c.923-2.87 3-3.956 3.953-4.31l-.492-.534c.497-2.593 1.379-3.887 2.082-4.512.044.257.095.528.128.812zM209.738 71.7a.854.854 0 00-.239.12c-.515.365-.665 1.23-1.086 1.774-.485.642-1.245.74-1.938.85-.692.111-1.466.33-1.832 1.09-.272.566-.247 1.277-.345 1.93a.7.7 0 01-.106.319.423.423 0 01-.331.139c-1.357.121-2.345-.476-3.616-.896-.597-.194-1.292-.17-1.748.347-.412.476-.526 1.253-.516 1.965v.062c.059.691.075 1.387.049 2.082a4.025 4.025 0 01-.47 1.49 3.019 3.019 0 01-.949 1.054 2.121 2.121 0 01-1.027.375.67.67 0 01-.407-.077c.242-.527.473-1.04.684-1.565a12.273 12.273 0 01-1.182-3.83 13.314 13.314 0 01.068-4.118c.236-1.354.68-2.633 1.307-3.765.626-1.131 1.423-2.092 2.343-2.826.92-.734 1.945-1.227 3.015-1.45a6.444 6.444 0 013.22.154c1.054.323 2.048.912 2.923 1.731.875.82 1.613 1.853 2.172 3.04l.011.004z" fill="#000"/><path d="M211.975 70.367c-.099.284-.256.53-.453.712-.619.513-1.507-.053-2.153.406-.518.364-.665 1.228-1.086 1.773-.483.642-1.243.739-1.938.85-.695.111-1.463.33-1.832 1.09-.272.565-.245 1.273-.345 1.93a.672.672 0 01-.106.318.43.43 0 01-.331.14c-1.357.12-2.345-.48-3.616-.896-.594-.194-1.289-.17-1.745.347-.456.517-.527 1.256-.519 1.968.057.71.074 1.424.052 2.137-.094.766-.386 1.469-.829 1.998-.442.528-1.011.853-1.614.92a.526.526 0 01-.264-.016.617.617 0 01-.239-.146 1.013 1.013 0 01-.165-.382c-.904-3.248-.896-6.854-1.993-10.005-.177-.449-.33-.913-.458-1.388a4.7 4.7 0 01-.06-.298 5.852 5.852 0 01-.065-.608.611.611 0 00-.31.163.736.736 0 00-.087.118 2.524 2.524 0 00-.228 1.1 52.83 52.83 0 00.978 12.9c.259 1.05.417 2.137.469 3.237a10.668 10.668 0 01-.651 3.432c-1.702 5.018-5.123 8.693-8.524 12.014a5.223 5.223 0 00.793-1.659 6.118 6.118 0 00.217-1.925c-.059.249-.17.473-.322.647a1.034 1.034 0 01-.539.338 2.605 2.605 0 01-1.213-.024c.521-.219.725-1.003.855-1.683.266-1.388.513-2.79.741-4.203.243-1.349.403-2.72.478-4.102.04-1.172-.03-2.349-.068-3.525-.081-3.226.01-6.455.271-9.665.201-2.776.565-5.778 2.158-7.673a9.377 9.377 0 012.281-1.818c0-.347 1.99-1.041 2.253-1.09.109-.027.22-.043.331-.049a.557.557 0 01.415.091c.127.086.23.22.294.385.097-.226.206-.448.32-.66.157-.29.329-.568.516-.829 1.034-1.457 2.375-2.485 3.572-3.72a9.732 9.732 0 011.422-1.34 4.265 4.265 0 012.131-.694 6.963 6.963 0 013.597.722c1.651.812 3.092 2.27 4.8 2.86a9.61 9.61 0 011.246.44c.391.199.746.5 1.041.883.296.384.525.843.673 1.347a4.833 4.833 0 01-.14 3.122l-.011.01z" fill="#444053"/><path opacity=".1" d="M184.486 101.45c.198-.651.282-1.35.247-2.047-.06.25-.172.473-.324.647a1.036 1.036 0 01-.54.338 1.359 1.359 0 01-.314.059c-.136.556-.351 1.09-.766 1.264.4.104.811.113 1.213.027.175-.054.339-.152.484-.288zm27.685-33.849a4.765 4.765 0 01-.325 1.576c-.103.277-.26.516-.456.694-.617.513-1.507-.049-2.153.406-.516.364-.665 1.232-1.086 1.773-.486.642-1.246.743-1.938.85-.692.108-1.466.347-1.833 1.09-.271.566-.247 1.277-.344 1.93a.615.615 0 01-.039.196.496.496 0 01-.099.16.357.357 0 01-.141.093.298.298 0 01-.158.012c-1.358.121-2.346-.479-3.616-.899-.597-.194-1.292-.17-1.748.347-.413.479-.527 1.253-.516 1.968.057.709.073 1.422.049 2.134-.091.767-.382 1.473-.825 2.004-.443.53-1.013.853-1.618.918a.535.535 0 01-.264-.018.637.637 0 01-.239-.145 1.03 1.03 0 01-.165-.385c-.904-3.249-.899-6.854-1.995-10.002-.175-.45-.327-.913-.456-1.388a5.064 5.064 0 01-.128-.906.578.578 0 00-.396.281 2.589 2.589 0 00-.228 1.1 53.368 53.368 0 00.271 8.33 53.615 53.615 0 01-.133-6.99 2.524 2.524 0 01.228-1.1.646.646 0 01.175-.193.493.493 0 01.221-.088c.015.307.057.61.125.906.13.474.283.938.459 1.388 1.086 3.15 1.086 6.753 1.993 10.001.031.144.089.275.168.385a.63.63 0 00.234.162.521.521 0 00.265.03c.604-.069 1.172-.393 1.615-.922.443-.529.734-1.232.828-1.997.023-.714.005-1.428-.051-2.138 0-.715.106-1.489.518-1.968.456-.527 1.151-.548 1.746-.347 1.27.417 2.253 1.017 3.616.896a.43.43 0 00.331-.14.71.71 0 00.106-.322c.1-.652.07-1.364.344-1.926.37-.76 1.141-.982 1.833-1.093.692-.111 1.455-.205 1.941-.847.41-.545.556-1.409 1.086-1.776.643-.455 1.533.11 2.152-.403.198-.182.354-.427.454-.712a4.935 4.935 0 00.192-2.925zm-19.263 19.951a10.697 10.697 0 01-.649 3.432c-1.523 4.487-4.422 7.902-7.449 10.945-.128.908-.456 1.751-.945 2.429 3.399-3.317 6.825-6.992 8.524-12.01.399-1.075.621-2.243.652-3.432a9.62 9.62 0 00-.139-1.51c.003.035.006.09.006.146z" fill="#000"/><path opacity=".1" d="M193.248 67.563c-.244 1.437-.581 3.304-.833 4.265a6.469 6.469 0 01-.065-.607.601.601 0 00-.307.163c0-1.01.095-2.513.176-3.637a.556.556 0 01.416.09c.128.086.231.22.296.385.086-.222.203-.444.317-.659z" fill="#000"/><path d="M193.116 67.563c-.244 1.437-.581 3.304-.833 4.265a5.59 5.59 0 01-.065-.607.607.607 0 00-.31.163c0-1.01.095-2.513.179-3.637a.555.555 0 01.415.09c.127.086.23.22.294.385.098-.222.22-.444.32-.659z" fill="#67647E"/><defs><linearGradient id="paint0_linear" x1="13801.6" y1="52299.3" x2="33777.7" y2="52299.3" gradientUnits="userSpaceOnUse"><stop stop-color="gray" stop-opacity=".25"/><stop offset=".54" stop-color="gray" stop-opacity=".12"/><stop offset="1" stop-color="gray" stop-opacity=".1"/></linearGradient><linearGradient id="paint1_linear" x1="-61739.7" y1="33267.5" x2="-61739.7" y2="18100.3" gradientUnits="userSpaceOnUse"><stop stop-color="gray" stop-opacity=".25"/><stop offset=".54" stop-color="gray" stop-opacity=".12"/><stop offset="1" stop-color="gray" stop-opacity=".1"/></linearGradient></defs></svg>