<svg width="52" height="52" fill="none" xmlns="http://www.w3.org/2000/svg"><path opacity=".3" fill-rule="evenodd" clip-rule="evenodd" d="M.693 24.702a1.5 1.5 0 000 2.122l8.702 8.702a1.5 1.5 0 002.122 0l8.701-8.702a1.5 1.5 0 000-2.122L11.517 16a1.5 1.5 0 00-2.122 0L.693 24.702zm30.613 0a1.5 1.5 0 000 2.122l8.702 8.702a1.5 1.5 0 002.121 0l8.702-8.702a1.5 1.5 0 000-2.122L42.13 16a1.5 1.5 0 00-2.12 0l-8.703 8.702z" fill="url(#paint0_linear)"/><path fill-rule="evenodd" clip-rule="evenodd" d="M16 9.396a1.5 1.5 0 000 2.121l8.702 8.702a1.5 1.5 0 002.121 0l8.702-8.702a1.5 1.5 0 000-2.121L26.823.694a1.5 1.5 0 00-2.121 0L16 9.396zm0 30.613a1.5 1.5 0 000 2.12l8.702 8.703a1.5 1.5 0 002.121 0l8.702-8.702a1.5 1.5 0 000-2.121l-8.702-8.702a1.5 1.5 0 00-2.121 0L16 40.009z" fill="url(#paint1_linear)"/><defs><linearGradient id="paint0_linear" x1=".254" y1="25.763" x2="51.271" y2="25.763" gradientUnits="userSpaceOnUse"><stop stop-color="#5666F7"/><stop offset="1" stop-color="#56D1F7"/></linearGradient><linearGradient id="paint1_linear" x1="15.56" y1="25.763" x2="35.965" y2="25.763" gradientUnits="userSpaceOnUse"><stop stop-color="#5666F7"/><stop offset="1" stop-color="#56D1F7"/></linearGradient></defs></svg>