<svg width="70" height="21" fill="none" xmlns="http://www.w3.org/2000/svg"><path fill-rule="evenodd" clip-rule="evenodd" d="M20.017 9.96V10a10.004 10.004 0 01-6.088 9.206A10.01 10.01 0 01.244 12.193 10.004 10.004 0 019.612 0a.384.384 0 01.396.383v3.58a.382.382 0 01-.362.382A5.668 5.668 0 004.5 11.327a5.666 5.666 0 007.762 3.871A5.667 5.667 0 0015.677 10v-.04h-5.285a.384.384 0 01-.384-.383V6.775a.384.384 0 01.384-.384h9.625v3.57zM13.609.433a.343.343 0 00-.343.342v2.737a.343.343 0 00.343.342h2.807a.342.342 0 00.342-.342V.77a.342.342 0 00-.342-.337H13.61z" fill="url(#paint0_linear)"/><path d="M32.684 5.839l-.017 7.557c-.007 2.672-2.095 3.797-4.21 3.793-1.655 0-3.038-.629-3.768-1.934l2.04-1.172c.301.558.762 1.004 1.813 1.007 1.114 0 1.8-.568 1.802-1.698v-.732c-.527.651-1.292 1.03-2.327 1.028-2.258 0-3.91-1.855-3.904-4.05.004-2.196 1.665-4.038 3.924-4.032 1.034 0 1.798.385 2.322 1.039v-.811l2.325.005zM30.35 9.652c0-1.098-.791-1.847-1.921-1.85-1.13-.002-1.927.743-1.927 1.84 0 1.098.792 1.848 1.922 1.85 1.13.003 1.923-.743 1.926-1.84zm3.743-7.468l2.387.006-.028 11.613-2.387-.006.028-11.613zm3.372 7.645a4.215 4.215 0 017.2-2.986 4.216 4.216 0 01-2.993 7.196 4.172 4.172 0 01-4.206-4.21zm6.043.014c0-1.13-.791-1.88-1.826-1.882-1.034-.003-1.83.744-1.833 1.873-.002 1.128.79 1.88 1.825 1.882 1.034.003 1.834-.744 1.838-1.873h-.004zm8.178-4.117l-.006 2.705c-.987-.162-2.389.233-2.392 1.812l-.009 3.596h-2.387l.02-7.969h2.387v1.416c.316-1.053 1.385-1.562 2.387-1.56zm.53-1.972a1.432 1.432 0 111.428 1.436 1.45 1.45 0 01-1.428-1.436zm.233 2.133h2.387l-.02 7.958H52.43l.02-7.958zm6.687.016h1.48l-.006 2.296h-1.48l-.014 5.663H56.73l.014-5.665h-1.067l.007-2.295h1.066c0-2.227 1.233-3.56 3.874-3.396v2.296c-.898-.09-1.487.178-1.487 1.1z" fill="#000"/><path d="M69.016 5.927l-2.74 7.71c-.898 2.527-2.316 3.525-4.545 3.409v-2.227c1.115 0 1.64-.347 1.992-1.316l-3.137-7.597 2.626.006 1.755 4.874 1.507-4.865 2.542.006z" fill="#000"/><defs><linearGradient id="paint0_linear" x1="3.001" y1="17.004" x2="18.135" y2="1.866" gradientUnits="userSpaceOnUse"><stop stop-color="#04A5E5"/><stop offset=".71" stop-color="#01EAF2"/></linearGradient></defs></svg>