<svg width="20" height="20" fill="none" xmlns="http://www.w3.org/2000/svg"><path fill-rule="evenodd" clip-rule="evenodd" d="M20 9.958v.039a10.007 10.007 0 01-6.082 9.203A9.996 9.996 0 01.243 12.19 10.007 10.007 0 014.16 1.876 9.997 9.997 0 019.604 0 .384.384 0 0110 .383v3.58a.382.382 0 01-.362.381 5.661 5.661 0 00-5.141 6.98 5.665 5.665 0 007.755 3.87 5.663 5.663 0 003.412-5.197v-.039h-5.281A.384.384 0 0110 9.575V6.774a.384.384 0 01.383-.384H20v3.568zM13.597.433a.343.343 0 00-.343.342V3.51a.343.343 0 00.343.342h2.806a.342.342 0 00.341-.342V.77a.342.342 0 00-.341-.337h-2.806z" fill="url(#paint0_linear)"/><defs><linearGradient id="paint0_linear" x1="2.998" y1="17" x2="18.129" y2="1.875" gradientUnits="userSpaceOnUse"><stop stop-color="#04A5E5"/><stop offset=".71" stop-color="#01EAF2"/></linearGradient></defs></svg>