<svg xmlns="http://www.w3.org/2000/svg" width="455.797" height="436.119" viewBox="0 0 455.797 436.119">
  <g id="img_absorption" data-name="img absorption" transform="translate(-313.509 -1921.179)">
    <path id="bg" d="M729.227,2043.641c-28.843-50.651-71.5-156.282-256.8-86.944-193.381,72.362-202.715,193.41-68.927,312.423,87.236,77.6,168.254,135.137,276.759,34.045C745.839,2242.062,815.179,2194.583,729.227,2043.641Z" fill="#f9f9f9"/>
    <g id="bg-2" data-name="bg" fill="none">
      <path d="M351.906,2207.157c-17.275-55.73-65.267-159.182,112.142-246.988,185.145-91.635,279.965-15.584,275.4,163.555-2.978,116.807-16.364,215.337-164.44,225.344C485.5,2355.116,403.387,2373.232,351.906,2207.157Z" stroke="none"/>
      <path d="M 510.2610168457031 2350.801025390625 C 525.5908203125 2350.801025390625 541.095703125 2349.611083984375 557.5108032226562 2348.351318359375 C 563.1830444335938 2347.916015625 569.04833984375 2347.466064453125 574.8702392578125 2347.07275390625 C 583.942138671875 2346.45947265625 592.702880859375 2345.49169921875 600.9093627929688 2344.196044921875 C 608.9584350585938 2342.925048828125 616.70947265625 2341.3017578125 623.9471435546875 2339.37060546875 C 631.034912109375 2337.479736328125 637.8385620117188 2335.23828125 644.1692504882812 2332.70849609375 C 650.359130859375 2330.235107421875 656.280029296875 2327.412841796875 661.7674560546875 2324.320068359375 C 667.125 2321.300537109375 672.2296752929688 2317.932861328125 676.9398193359375 2314.310302734375 C 681.5317993164062 2310.77880859375 685.8876953125 2306.898193359375 689.8865966796875 2302.776123046875 C 693.7791137695312 2298.763916015625 697.4525756835938 2294.39990234375 700.804931640625 2289.8056640625 C 704.0613403320312 2285.343017578125 707.1157836914062 2280.5244140625 709.883544921875 2275.4833984375 C 712.5639038085938 2270.6015625 715.0599975585938 2265.357177734375 717.3023681640625 2259.89599609375 C 719.4647827148438 2254.62939453125 721.4611206054688 2248.990478515625 723.2359008789062 2243.136474609375 C 726.5928955078125 2232.06298828125 729.2442626953125 2220.0791015625 731.3414916992188 2206.49951171875 C 735.5552368164062 2179.214111328125 736.7916870117188 2149.318603515625 737.4454345703125 2123.673095703125 C 737.9249877929688 2104.864013671875 737.2938842773438 2086.978759765625 735.5697021484375 2070.513671875 C 733.8492431640625 2054.08642578125 731.0037841796875 2038.719604492188 727.1121215820312 2024.840576171875 C 723.22021484375 2010.960571289062 718.1982421875 1998.269409179688 712.185546875 1987.119873046875 C 706.1572265625 1975.941040039062 699.0007934570312 1966.0673828125 690.9149169921875 1957.772705078125 C 668.5379028320312 1934.817749023438 638.5758056640625 1923.1787109375 601.8606567382812 1923.1787109375 C 562.999267578125 1923.1787109375 516.9306640625 1936.227172851562 464.9345703125 1961.9619140625 C 454.801025390625 1966.977294921875 445.1311340332031 1972.187866210938 436.1934509277344 1977.448486328125 C 427.5340270996094 1982.545532226562 419.3215637207031 1987.831298828125 411.7841186523438 1993.158935546875 C 404.4962463378906 1998.310180664062 397.6370239257812 2003.643798828125 391.3967895507812 2009.011596679688 C 385.3768920898438 2014.18994140625 379.7654724121094 2019.544311523438 374.7185668945312 2024.926147460938 C 369.8620300292969 2030.104858398438 365.3922424316406 2035.453735351562 361.4335632324219 2040.824096679688 C 357.6347961425781 2045.977783203125 354.1996765136719 2051.29638671875 351.2237854003906 2056.6318359375 C 348.3766784667969 2061.736572265625 345.8692321777344 2067.001708984375 343.7709045410156 2072.28125 C 341.7704467773438 2077.314453125 340.0845642089844 2082.505126953125 338.760009765625 2087.709228515625 C 337.5028076171875 2092.64892578125 336.5344543457031 2097.744873046875 335.8818969726562 2102.855224609375 C 335.2662353515625 2107.677978515625 334.9134521484375 2112.65771484375 334.8333435058594 2117.656494140625 C 334.6873474121094 2126.767333984375 335.4046936035156 2136.02294921875 337.0262451171875 2145.95166015625 C 340.0028076171875 2164.17724609375 345.4049072265625 2180.679931640625 350.171142578125 2195.239990234375 C 351.4733581542969 2199.21826171875 352.7033386230469 2202.9755859375 353.81591796875 2206.564697265625 C 358.5380249023438 2221.798095703125 363.6689147949219 2235.9111328125 369.06591796875 2248.51123046875 C 374.2733459472656 2260.6689453125 379.8948059082031 2271.8056640625 385.7740173339844 2281.612548828125 C 391.4156799316406 2291.022705078125 397.4803466796875 2299.516845703125 403.7994689941406 2306.85888671875 C 409.8242492675781 2313.85888671875 416.2883605957031 2320.05224609375 423.0122375488281 2325.26708984375 C 429.3760070800781 2330.202392578125 436.2084655761719 2334.44287109375 443.3199157714844 2337.87109375 C 449.9858093261719 2341.084228515625 457.1693420410156 2343.71337890625 464.6712341308594 2345.685546875 C 471.6866760253906 2347.529541015625 478.9950256347656 2348.83642578125 487.0137939453125 2349.68017578125 C 494.1824645996094 2350.434326171875 501.7866821289062 2350.801025390625 510.2610168457031 2350.801025390625 M 510.2610168457031 2352.801025390625 C 446.7268676757812 2352.801025390625 390.6482238769531 2332.139404296875 351.9055786132812 2207.156982421875 C 334.6307983398438 2151.42724609375 286.6387939453125 2047.974853515625 464.0474548339844 1960.16943359375 C 517.611083984375 1933.658935546875 563.6365356445312 1921.178588867188 601.8606567382812 1921.178588867188 C 695.759765625 1921.178588867188 742.6911010742188 1996.411499023438 739.44482421875 2123.72412109375 C 736.467041015625 2240.53076171875 723.080810546875 2339.06103515625 575.005126953125 2349.068115234375 C 552.8591918945312 2350.564453125 531.1505126953125 2352.801025390625 510.2610168457031 2352.801025390625 Z" stroke="none" fill="#ff963b"/>
    </g>
    <text id="_15_" data-name="15%" transform="translate(509 2279)" fill="#f58220" font-size="47" font-family="DMSans-Bold, DM Sans" font-weight="700"><tspan x="0" y="0">15%</tspan></text>
    <text id="regular_vitamins" data-name="regular vitamins" transform="translate(491 2306)" font-size="17" font-family="DMSans-Regular, DM Sans"><tspan x="0" y="0">regular vitamins</tspan></text>
    <text id="liposomal_vitamins" data-name="liposomal vitamins" transform="translate(549 2197)" font-size="17" font-family="DMSans-Regular, DM Sans"><tspan x="-73.015" y="0">liposomal vitamins</tspan></text>
    <text id="up_to" data-name="up to" transform="translate(549 2063)" font-size="17" font-family="DMSans-Regular, DM Sans"><tspan x="-20.655" y="0">up to</tspan></text>
    <text id="_90_" data-name="90%" transform="translate(423 2167)" fill="#f58220" font-size="117" font-family="DMSans-Bold, DM Sans" font-weight="700"><tspan x="0" y="0">90%</tspan></text>
    <text id="Vitamin_C_Absorption_level" data-name="Vitamin C
Absorption level" transform="translate(554 1985)" font-size="24" font-family="DMSans-Bold, DM Sans" font-weight="700"><tspan x="-57.012" y="0">Vitamin C</tspan><tspan x="-94.5" y="28">Absorption level</tspan></text>
  </g>
</svg>
