<?xml version="1.0" encoding="utf-8"?>
<!-- Generator: Adobe Illustrator 24.1.0, SVG Export Plug-In . SVG Version: 6.00 Build 0)  -->
<svg version="1.1" id="Layer_1" xmlns="http://www.w3.org/2000/svg" xmlns:xlink="http://www.w3.org/1999/xlink" x="0px" y="0px"
	 viewBox="0 0 24 24" style="enable-background:new 0 0 24 24;" xml:space="preserve">
<style type="text/css">
	.st0{fill-rule:evenodd;clip-rule:evenodd;fill:#2A8DF3;}
	.st1{fill-rule:evenodd;clip-rule:evenodd;fill:#968DF5;}
	.st2{fill-rule:evenodd;clip-rule:evenodd;}
</style>
<desc>Created with Sketch.</desc>
<g id="Icons_x2F_check">
	<g id="icon">
		<g>
			<path id="path-1" class="st0" d="M4.7,12.3c-0.4-0.4-1-0.4-1.4,0c-0.4,0.4-0.4,1,0,1.4l5,5c0.4,0.4,1,0.4,1.4,0l11-11
				c0.4-0.4,0.4-1,0-1.4c-0.4-0.4-1-0.4-1.4,0L9,16.6L4.7,12.3z"/>
		</g>
		<g>
			<path id="path-1_1_" class="st1" d="M4.7,12.3c-0.4-0.4-1-0.4-1.4,0c-0.4,0.4-0.4,1,0,1.4l5,5c0.4,0.4,1,0.4,1.4,0l11-11
				c0.4-0.4,0.4-1,0-1.4c-0.4-0.4-1-0.4-1.4,0L9,16.6L4.7,12.3z"/>
		</g>
		<g>
			<path id="path-1_2_" class="st2" d="M4.7,12.3c-0.4-0.4-1-0.4-1.4,0c-0.4,0.4-0.4,1,0,1.4l5,5c0.4,0.4,1,0.4,1.4,0l11-11
				c0.4-0.4,0.4-1,0-1.4c-0.4-0.4-1-0.4-1.4,0L9,16.6L4.7,12.3z"/>
		</g>
	</g>
</g>
</svg>
