<svg xmlns="http://www.w3.org/2000/svg" xmlns:xlink="http://www.w3.org/1999/xlink" width="1916.144" height="173.544" viewBox="0 0 1916.144 173.544">
  <defs>
    <linearGradient id="linear-gradient" x1="0.485" y1="0.999" x2="0.514" y2="0.001" gradientUnits="objectBoundingBox">
      <stop offset="0" stop-color="#470000"/>
      <stop offset="0.157" stop-color="#4e0000"/>
      <stop offset="0.387" stop-color="#610000"/>
      <stop offset="0.662" stop-color="#810000"/>
      <stop offset="0.968" stop-color="#ae0000"/>
      <stop offset="1" stop-color="#b30000"/>
    </linearGradient>
    <linearGradient id="linear-gradient-2" x1="0.483" y1="1" x2="0.514" y2="0.001" xlink:href="#linear-gradient"/>
    <linearGradient id="linear-gradient-3" x1="0.485" y1="0.999" x2="0.514" y2="0.001" xlink:href="#linear-gradient"/>
    <linearGradient id="linear-gradient-4" x1="0.485" y1="0.999" x2="0.514" y2="0.001" xlink:href="#linear-gradient"/>
    <linearGradient id="linear-gradient-5" x1="0.498" y1="1.069" x2="0.5" y2="-0.141" xlink:href="#linear-gradient"/>
  </defs>
  <g id="Group_46" data-name="Group 46" transform="translate(-3.856 -3895.897)">
    <path id="Path_7" data-name="Path 7" d="M430.914,3962.472c-7.082-2.255-9.639,9.857-2.754,11.457,4.373,1.017,5.466-1.742,6.2-4.607C435.215,3966,433.936,3963.434,430.914,3962.472Z" fill="url(#linear-gradient)"/>
    <path id="Path_8" data-name="Path 8" d="M691.882,3960.455c-7.515-.049-5.208,12.162.1,12.2C698.425,3972.7,699.743,3960.507,691.882,3960.455Z" fill="url(#linear-gradient-2)"/>
    <path id="Path_9" data-name="Path 9" d="M872.422,3990.21c-7.082-2.255-9.639,9.857-2.753,11.457,4.373,1.017,5.466-1.742,6.2-4.607C876.723,3993.74,875.445,3991.172,872.422,3990.21Z" fill="url(#linear-gradient-3)"/>
    <path id="Path_10" data-name="Path 10" d="M136.439,3978.1c-7.082-2.255-9.639,9.857-2.753,11.457,4.373,1.017,5.465-1.742,6.2-4.607C140.74,3981.632,139.462,3979.064,136.439,3978.1Z" fill="url(#linear-gradient-4)"/>
    <path id="Path_11" data-name="Path 11" d="M1012.6,3895.9H3.856s5.588,16.028,26.645,18.578c3.811.462,16.04-2.714,19.412,4.606,1.728,3.751-.5,14.071,4.606,14.148,3.753.057,3.466-9.365,3.126-14.806a4.417,4.417,0,0,1,1.825-4.112c1.04-.61,3.851.411,4.326,5.453,1,10.606,9.279,2,13.837,2.854,9.757,1.839,13.107,16.474,27.555,15.053,10.035-.987,10.626-7.63,16.451-8.061,8.883-.658,8,6.779,7.719,14.747-.6,16.667-.74,22.9,4.341,23.085,4.555.169,6.267-.676,6.2-13.978-.046-9.03-4.771-27.638,14.253-27.587,6.58.018,6.009,6.39,13.384,6.2,6.416-.165,10-6.4,15.629-6.769,22.372-1.457,16.943,17.626,17.766,36.051.94,21.067-1.934,39.2,6.718,39.32,7.494.1,6.113-13.451,6.113-20.7,0-10.234-.309-22.005-.817-30.465-1.157-19.242,8.169-23.885,15.357-23.885,9.563,0,3.553,18.577,10.936,18.6,6.274.023,2.424-9.245,7.1-14.453,2.332-2.6,7.622-3.186,12.291-3.268,10.74-.187,14.891,3.434,13.372,18.567-1.651,16.445-3.569,33.888,4.277,33.888,7.362,0,6.416-12.078,6.416-19.576,0-5.519-.658-15.156-.658-20.728,0-11.868,7.476-15.214,14.963-15.214,4.931,0,9.828,1.851,12.016,8.634,1.645,5.1-2.8,16.45,5.687,15.748,9.376-.777-3.819-24.35,15.776-24.35,12.789,0,7.294,18.2,21.085,18.2,12.45,0,9.877-18.239,22.857-19.025,8.706-.528,16.355,6.628,14.628,23.161-.957,9.154-.691,18.737-1.7,27.888-2.744,24.919,2.437,30.107,7.96,30.222,6.076.126,8.79-7.031,6.076-30.222-.793-6.778-1.338-27.389-1.481-32.083-.493-16.286,6.113-16.923,15.607-16.923,8.757,0,9.354,5.445,9.81,13.468.287,5.059-2.468,14.066,3.619,14.111,3.426.026,4.181-2.325,4.181-7.2,0-2.248-.264-4.568-.264-6.91,0-9.78,10.395-13.159,17.14-13.159.152,0,.311-.007.473-.007,2.315,0,15.813-3.365,24.954,5.554,5,4.88,4.907,20.405,4.165,32.29-4.214,67.432-4.669,106.6,7.422,106.6,15.546,0,2.8-89.876,2.8-114.826,0-11.875-.083-26.074,14.492-28.964,8.516-1.689,6.893,10.292,13.453,9.935,5.792-.315,3.82-10.31,12.935-9.76,5.477.331,5.474,13.529,5.474,15.869,0,6.858-1.067,21.62.037,28.713,1.088,6.991,10.528,12.42,8.274-13.016-.5-5.642.4-11.38-.171-15.559-1.822-13.345.013-16.371,11.194-16.834,6.753.04,17.013,3.43,17.013,13.144,0,2.349-.257,4.679-.257,6.91,0,4.9.75,7.245,4.185,7.205,6.08-.039,3.336-9.041,3.613-14.095.454-8.034,1.046-13.483,9.811-13.483,9.495,0,16.109.651,15.615,16.938-.158,4.678-.691,25.288-1.481,32.079-2.724,23.2,0,30.341,6.061,30.223,5.527-.119,10.719-5.311,7.975-30.223-1.007-9.16-.75-18.735-1.7-27.894-1.737-16.523,5.923-23.689,14.628-23.156,12.97.789,10.4,19.03,22.841,19.03,13.8,0,8.31-18.221,21.083-18.221,19.6,0,6.415,23.59,15.793,24.36,8.468.711,4.027-10.64,5.685-15.753,2.191-6.771,7.087-8.627,12-8.627,7.5,0,14.964,3.337,14.964,15.221,0,5.566-.652,15.2-.652,20.728,0,7.481-.947,19.563,6.416,19.563,7.857,0,5.922-17.432,4.284-33.876-1.52-15.141,2.625-18.753,13.365-18.576,4.678.079,9.969.671,12.3,3.277,4.659,5.192.809,14.47,7.087,14.45,7.383-.039,1.382-18.615,10.936-18.615,7.186,0,16.524,4.659,15.359,23.886-.513,8.469-.809,20.235-.809,30.48,0,7.245-1.382,20.807,6.1,20.689,8.666-.119,5.784-18.241,6.731-39.3.809-18.439-3.718-35.7,12.823-36.007,5.638-.1,11.919,10.022,18.335,10.18,7.383.2,9.231-8.073,15.608-9.668,19.237-4.808,14.312,18.557,14.253,27.6-.059,13.286,1.658,14.135,6.2,13.977,5.093-.2,4.955-6.436,4.343-23.1-.277-7.956-1.165-15.4,7.718-14.747,5.824.435,6.306,10.668,16.366,11.53,11.515.988,11.692-15.045,19.63-21,14.538-10.9,17.608,13.1,27.893,13.1,4.115,0,8.145-3.759,10.634-7.089.232,3.619.743,7.046,3.68,7.09,3.554.054,3.484-8.388,3.178-13.9a28.7,28.7,0,0,1,5.561-2.121,10.618,10.618,0,0,1,.537,2.56c1,10.606,9.279,2,13.837,2.854,9.757,1.839,13.107,16.474,27.555,15.053,10.035-.987,10.626-7.63,16.451-8.061,8.883-.658,8.006,6.779,7.719,14.747-.6,16.667-.739,22.9,4.342,23.085,4.554.169,6.266-.676,6.2-13.978-.046-9.03-4.771-27.638,14.254-27.587,6.579.018,6.008,6.39,13.383,6.2,6.416-.165,10-6.4,15.63-6.769,22.372-1.457,16.943,17.626,17.765,36.051.941,21.067-1.934,39.2,6.718,39.32,7.494.1,6.114-13.451,6.114-20.7,0-10.234-.309-22.005-.818-30.465-1.156-19.242,8.17-23.885,15.358-23.885,9.562,0,3.552,18.577,10.935,18.6,6.275.023,2.424-9.245,7.1-14.453,2.333-2.6,7.622-3.186,12.292-3.268,10.739-.187,14.89,3.434,13.371,18.567-1.65,16.445-3.569,33.888,4.278,33.888,7.361,0,6.416-12.078,6.416-19.576,0-5.519-.659-15.156-.659-20.728,0-11.868,7.476-15.214,14.964-15.214,4.93,0,9.828,1.851,12.016,8.634,1.645,5.1-2.8,16.45,5.687,15.748,9.375-.777-3.82-24.35,15.776-24.35,12.789,0,7.293,18.2,21.084,18.2,12.451,0,9.877-18.239,22.857-19.025,8.706-.528,16.356,6.628,14.628,23.161-.956,9.154-.69,18.737-1.7,27.888-2.743,24.919,2.437,30.107,7.96,30.222,6.076.126,8.791-7.031,6.076-30.222-.793-6.778-1.338-27.389-1.48-32.083-.494-16.286,6.112-16.923,15.607-16.923,8.756,0,9.354,5.445,9.809,13.468.287,5.059-2.467,14.066,3.619,14.111,3.426.026,4.181-2.325,4.181-7.2,0-2.248-.263-4.568-.263-6.91,0-9.78,10.394-13.159,17.139-13.159.152,0,.312-.007.473-.007,2.316,0,15.814-3.365,24.955,5.554,5,4.88,4.907,20.405,4.164,32.29-4.213,67.432-4.669,106.6,7.422,106.6,15.546,0,2.8-89.876,2.8-114.826,0-11.875-.082-26.074,14.492-28.964,8.517-1.689,6.894,10.292,13.453,9.935,5.792-.315,3.82-10.31,12.935-9.76,5.477.331,5.475,13.529,5.475,15.869,0,6.858-1.067,21.62.036,28.713,1.088,6.991,10.529,12.42,8.274-13.016-.5-5.642.4-11.38-.171-15.559-1.821-13.345.014-16.371,11.194-16.834,6.754.04,17.013,3.43,17.013,13.144,0,2.349-.256,4.679-.256,6.91,0,4.9.75,7.245,4.185,7.205,6.08-.039,3.336-9.041,3.612-14.095.454-8.034,1.047-13.483,9.811-13.483,9.5,0,16.109.651,15.615,16.938-.158,4.678-.691,25.288-1.48,32.079-2.724,23.2,0,30.341,6.06,30.223,5.528-.119,10.72-5.311,7.976-30.223-1.007-9.16-.75-18.735-1.7-27.894-1.737-16.523,5.922-23.689,14.628-23.156,12.97.789,10.4,19.03,22.84,19.03,13.8,0,8.311-18.221,21.083-18.221,19.6,0,6.416,23.59,15.793,24.36,8.469.711,4.027-10.64,5.685-15.753,2.192-6.771,7.087-8.627,12-8.627,7.5,0,14.964,3.337,14.964,15.221,0,5.566-.652,15.2-.652,20.728,0,7.481-.948,19.563,6.416,19.563,7.856,0,5.922-17.432,4.283-33.876-1.519-15.141,2.626-18.753,13.365-18.576,4.678.079,9.969.671,12.3,3.277,4.658,5.192.809,14.47,7.087,14.45,7.383-.039,1.382-18.615,10.936-18.615,7.186,0,16.523,4.659,15.358,23.886-.513,8.469-.809,20.235-.809,30.48,0,7.245-1.382,20.807,6.1,20.689,8.666-.119,5.784-18.241,6.732-39.3.809-18.439-3.718-35.7,12.823-36.007,5.637-.1,11.918,10.022,18.334,10.18,7.383.2,9.231-8.073,15.609-9.668,19.237-4.808,14.312,18.557,14.253,27.6-.06,13.286,1.658,14.135,6.2,13.977,5.093-.2,4.955-6.436,4.343-23.1-.276-7.956-1.164-15.4,7.719-14.747,5.823.435,6.305,10.668,16.365,11.53,11.516.988,11.692-15.045,19.631-21,14.537-10.9,17.607,13.1,27.892,13.1,5.114,0,10.1-5.8,12.154-9.377,2.31-4.027,9.029-6.378,12.792-7.087,21.3-4.016,40.04-20.867,40.04-20.867Z" fill="url(#linear-gradient-5)"/>
    <path id="Path_12" data-name="Path 12" d="M1338.318,3962.472c-7.082-2.255-9.639,9.857-2.753,11.457,4.373,1.017,5.465-1.742,6.2-4.607C1342.619,3966,1341.341,3963.434,1338.318,3962.472Z" fill="url(#linear-gradient-4)"/>
    <path id="Path_13" data-name="Path 13" d="M1599.287,3960.455c-7.516-.049-5.208,12.162.1,12.2C1605.83,3972.7,1607.148,3960.507,1599.287,3960.455Z" fill="url(#linear-gradient-2)"/>
    <path id="Path_14" data-name="Path 14" d="M1779.827,3990.21c-7.082-2.255-9.639,9.857-2.754,11.457,4.373,1.017,5.466-1.742,6.2-4.607C1784.128,3993.74,1782.849,3991.172,1779.827,3990.21Z" fill="url(#linear-gradient-4)"/>
    <path id="Path_15" data-name="Path 15" d="M1043.844,3978.1c-7.082-2.255-9.639,9.857-2.754,11.457,4.373,1.017,5.466-1.742,6.2-4.607C1048.145,3981.632,1046.866,3979.064,1043.844,3978.1Z" fill="url(#linear-gradient-4)"/>
  </g>
</svg>
