<svg xmlns="http://www.w3.org/2000/svg" xmlns:xlink="http://www.w3.org/1999/xlink" width="170.283" height="91.531" viewBox="0 0 170.283 91.531">
  <defs>
    <linearGradient id="linear-gradient" x1="0.486" y1="0.996" x2="0.5" y2="-0.024" gradientUnits="objectBoundingBox">
      <stop offset="0" stop-color="#470000"/>
      <stop offset="0.157" stop-color="#4e0000"/>
      <stop offset="0.387" stop-color="#610000"/>
      <stop offset="0.662" stop-color="#810000"/>
      <stop offset="0.968" stop-color="#ae0000"/>
      <stop offset="1" stop-color="#b30000"/>
    </linearGradient>
  </defs>
  <path id="Path_49" data-name="Path 49" d="M567.049,592.9c7.012.19,3.619,4.841,7.978,5.03,2.17.1,2.824-4.556,7.561-4.082,5.095.509,4.785,4.634,4.738,6.822-.135,6.234-1.512,16.146,2.653,15.729,3.79-.379,2.873-10.018,3.032-15.918.19-7.012,15.245-5.467,20.846-2.464,6.6,3.538,8.169,6.89,7.9,15.034-.317,9.6-.927,21.17-.927,30.68,0,6.8-.114,13.528,5.672,13.565,5.548.037,4.221-9.207,4.221-11.808,0-7.956-1.715-30.8-1.575-35.718.109-3.822.248-7.394,3.849-7.394,4.584,0,0,17.624,5.306,18,5.953.425.569-19.14,6.822-18.761,3.1.188,3.25,8.374,3.315,19.522.079,13.809-.37,32.163-.277,45.493.052,7.4.125,12.3,5.3,12.3,4.5,0,4.169-8.149,3.6-21.982-.68-16.554.469-33.058.469-40.867,0-4.959.509-10.71,5.933-10.6,5.727.113,4.475,10.307,4.475,14.571,0,2.061-.056,4.124-.056,6.187,0,8.019.36,11.761,3.724,11.657,4.215-.13,3.725-4.613,3.725-13.1,0-2.972-.18-5.987-.18-8.95,0-7.5-.466-13.854,6.357-13.854,8.719,0,1.705,14.971,9.485,14.319,2.963-.249,3.631-5.352,3.356-8.74-.713-8.8,3.077-13.349,19.255-13.815,11.55-.332,14.333-6.356,14.333-6.356H557.657S559.462,592.69,567.049,592.9Z" transform="translate(-557.657 -587.4)" fill="url(#linear-gradient)"/>
</svg>
