<svg xmlns="http://www.w3.org/2000/svg" xmlns:xlink="http://www.w3.org/1999/xlink" width="169.525" height="153.215" viewBox="0 0 169.525 153.215">
  <defs>
    <linearGradient id="linear-gradient" x1="0.477" y1="1.005" x2="0.5" y2="-0.014" gradientUnits="objectBoundingBox">
      <stop offset="0" stop-color="#470000"/>
      <stop offset="0.157" stop-color="#4e0000"/>
      <stop offset="0.387" stop-color="#610000"/>
      <stop offset="0.662" stop-color="#810000"/>
      <stop offset="0.968" stop-color="#ae0000"/>
      <stop offset="1" stop-color="#b30000"/>
    </linearGradient>
  </defs>
  <path id="Path_53" data-name="Path 53" d="M938.577,587.9c-2.047,5.358-4.169,7.811-15.623,11.085-4.494,1.286-2.912,9.408-8.987,9.408-4.065,0-7.08-2.764-11.433-2.328-4.892.495-2.86,8.255-6,13.983-1.737,3.17-5.2,1.138-5.358,4.929-.643,15.349.65,28.327,2.675,33.411,1.567,3.9.835,8.521-2.683,8.9-3.037.333-4.146-2.815-3.8-5.579.177-1.382,1.359-4.989,1.589-7.952.569-7.243.243-18.151-.651-28.083-.325-3.629-3.518.066-6.245-1.2-1.729-.8-3.325-.5-3.761,1.234-1.582,6.348-.229,18.645.591,33.219.591,10.612-1.33,16.924-.37,21.254,2.587,11.729,4.065,17.087-.65,17.175-3.407.074-3.636-4.4-3.237-6.747.687-4.116.651-4.612.835-10.524.739-23.56,1.109-52.744-.923-55.427a4.3,4.3,0,0,0-2.794-1.4c-3.06-.391-5.351,2.483-5.949,5.284a23.139,23.139,0,0,0-.185,7.147c.591,10.6.333,13.871.54,18.3.7,14.95,1.862,16.865-.643,17.182-3.385.429-2.306-3.481-2.24-5.86.141-4.708.835-6.045.429-11.95-.554-8.13-.126-16.621-.044-24.854a1.228,1.228,0,0,0-1-1.263c-.517-.074-1.1.17-1.788,1.3-3.57,5.868-5.647-.1-10.9,3.511-3.784,2.594-5.727,8.129-10.162,7.944-2.6-.111-4.449-3.429-8.181-2.756-14.359,2.571-9.245,14.751-9.245,69.438,0,14.958,2.395,19.1,2.395,25.164,0,6.422-3,9.268-5.469,9.268-4.671,0-6.43-5.75-5.735-11.138,1.175-9.075,5.173-17.736,5.358-46.928.1-15.061.089-28.164-.924-35.658-1.086-8.018-5.313-10.353-12.585-10.368-10.347-.015-16.813-5.994-18.823-16.052-2.291-11.477-4.878-13.509-8.869-14.588-4.936-1.33-7.907-2.224-8.683-18.483Z" transform="translate(-769.052 -587.902)" fill="url(#linear-gradient)"/>
</svg>
