<svg xmlns="http://www.w3.org/2000/svg" xmlns:xlink="http://www.w3.org/1999/xlink" width="170.684" height="185.774" viewBox="0 0 170.684 185.774">
  <defs>
    <linearGradient id="linear-gradient" x1="0.472" y1="1.001" x2="0.5" y2="-0.012" gradientUnits="objectBoundingBox">
      <stop offset="0" stop-color="#470000"/>
      <stop offset="0.157" stop-color="#4e0000"/>
      <stop offset="0.387" stop-color="#610000"/>
      <stop offset="0.662" stop-color="#810000"/>
      <stop offset="0.968" stop-color="#ae0000"/>
      <stop offset="1" stop-color="#b30000"/>
    </linearGradient>
  </defs>
  <path id="Path_54" data-name="Path 54" d="M982.405,586.044a.536.536,0,0,0-.43.923c9.777,9.029,9.555,33.932,21.867,33.932a9.6,9.6,0,0,0,4.519-.967,4.658,4.658,0,0,1,6.483,2.4c3.026,9.169,2.728,24.764,2.906,31.752.983,38.6-4.985,43.721-7.246,56.831-1.947,11.291,1.718,13.51,5.886,13.43,3.884-.074,6.741-1.742,6.741-8.975,0-9.054-3.252-14.211-3.252-27.457,0-14.5,3.466-24.643,2.11-41.83-.478-6.049-.724-7.355.084-13.369.979-7.286,8.065-4.577,9.139-2.539a34.036,34.036,0,0,1,3.618,15.135c.389,13.461.723,27.926-1.826,45.07-2.155,14.493-.434,29.336-1.43,39.028-.878,8.548-2.765,9.595-3.617,15.242-.683,4.525.532,8.876,5.908,8.953,14.71.214,2.894-24.081,2.894-45.832,0-22.687,3.858-42.742,3.5-51.589-.4-9.706-2.411-13.856-1.688-24.728.426-6.4,3.58-5.587,7.235-1.279,1.808,2.132,3.642.5,5.546,1.6,3.135,1.812,1.568,7.145,1.568,20.784,0,5.128.516,10.159.6,17.694.121,10.552-.482,20.556-.482,22.17,0,16.7-.221,32.553-.218,32.683.459,21.251-3.881,22.956-5.2,34.049-1.716,14.371,11.273,14.073,16.154,10.864,4.7-3.091,4.288-8.34,3.471-11.737-2.281-9.491-4.259-10.876-6-21.945-2.086-13.242-3.753-55.024-3.858-59.369.354-5.479.651-10.858,1.107-22.747.7-18.289.412-19.817,3.716-19.888,7.917-.172,5.791-7.652,10.693-8.394,5.1-.773,1.906-4.61,7.185-5.2,3.885-.581,5.215,1.55,5.292,5.482a87.494,87.494,0,0,1-.382,11.31c-.248,2.427-2.036,4.778-1.326,7.088,1.326,4.317,6.523,2.688,6.629-.716.123-3.92-2.228-4.483-2.228-10.315,0-.64-1.749-12.684,2.662-15.441a5.372,5.372,0,0,1,2.43-.967c2.986-.114,2.383,3.724,6.074,3.688.182,0,.359-.022.532-.017a2.335,2.335,0,0,1,2.228,2.557c0,8.225-.061,16.781-.061,24.995,0,6.891-.09,31.417.86,52.674.346,7.75,2.379,17.526.5,24.229-3.165,11.272-4.262,19.893,4.221,19.893,5.377,0,6.029-4.7,6.047-8.213.016-3.155-2.473-7.935-3.034-12.159-1.852-13.963-4.853-34.648-4.853-86.336,0-3.792-.594-10.463.784-16.042,1.145-4.636,3.956-7.347,6.954-7.475,3.445-.146,6.048,1.61,6.339,6.889.362,6.555.181,10.244.181,16.308,0,14.456-.259,28.672.09,43.168.452,18.786-2.713,18.126-2.713,27.18,0,7.233,3.708,8.873,7.133,8.9,4.773.031,5.829-4.686,5.3-10.522-.358-3.93-2.323-7.007-3.476-13.883-1.537-9.166-3.412-21.068-3.412-45.853,0-8-1.333-26.431,3.141-34.487,2.441-4.4,6.059-2.079,9.676-1.439,3.591.635,6.9-.508,8.048-3.038,2.17-4.8,1.017-11.054,1.989-13.83,1.99-5.676,5.584-6.483,6.639-7.483a.5.5,0,0,0-.421-.831Z" transform="translate(-981.798 -586.044)" fill="url(#linear-gradient)"/>
</svg>
