<svg xmlns="http://www.w3.org/2000/svg" xmlns:xlink="http://www.w3.org/1999/xlink" width="170.36" height="124.006" viewBox="0 0 170.36 124.006">
  <defs>
    <linearGradient id="linear-gradient" x1="0.481" y1="0.997" x2="0.5" y2="-0.018" gradientUnits="objectBoundingBox">
      <stop offset="0" stop-color="#470000"/>
      <stop offset="0.157" stop-color="#4e0000"/>
      <stop offset="0.387" stop-color="#610000"/>
      <stop offset="0.662" stop-color="#810000"/>
      <stop offset="0.968" stop-color="#ae0000"/>
      <stop offset="1" stop-color="#b30000"/>
    </linearGradient>
    <linearGradient id="linear-gradient-2" x1="0.477" y1="1" x2="0.532" y2="0" xlink:href="#linear-gradient"/>
  </defs>
  <g id="Group_52" data-name="Group 52" transform="translate(-1192.378 -586.044)">
    <path id="Path_47" data-name="Path 47" d="M1192.378,586.044h170.36s0,2.343-.964,3.353c-1.031,1.08-3.486.446-4.235.606-7.908,1.694-4.061,8.212-9.975,9.645-4.612,1.117-6.964-5.808-9.575-1.972-.945,1.389.464,4.914-1.682,5.587-2.12.665-2.009-2.013-3.191-1.75-1.508.337-2.088,3.366-2.146,7.472-.049,3.411,3.164,22.673-1.393,22.818-2.266.073-2.03-3.816-2.03-6.462,0-3.976.968-12.267.684-17.066-.5-8.47-8.028-12.2-10.2-12.887-11.2-3.568-8.18,7.875-13.111,7.943-4.076.055-3.3-4.835-6.429-4.858-7.61-.056-6.861,22.436-6.74,29.9.443,27.324,1.853,31.571,2.92,51.448.359,6.7,1.083,30.232-5.763,30.232-8.684,0-4.454-29.38-4.454-33.851v-.005c0-13.715,1.794-27.618,1.746-41.392-.076-21.767-1.005-32.2-10.047-31.894-4.532.153-4.1,6.29-8.593,6.29-4.3,0-2.738-6.378-8.354-4.117-4.833,1.945-6.442,2.983-7.426,7.954-1.276,6.45.571,12.914,1.56,25.179.571,7.089-.515,15.2-4,15.062-4.551-.176-3.481-12.79-2.437-19.521a140.906,140.906,0,0,0,1.6-19.355c0-6.144-3.293-2.354-4.845-4.069-2.437-2.692.206-9.687-2.926-10.211-3.34-.559-1.483,4.288-4.268,6.576-2.817,2.315-6.265,3.71-6.265,10.176,0,6.243.7,43.82.7,49.058,0,5.11-.195,13.256-4.693,13.256-3.63,0-3.429-7.051-3.429-11.236,0-16.861,3.533-41.326,2.953-53.173-.167-3.424.389-6.465-3.069-6.465-1.428,0-1.2-3.482-2.573-3.221s.329,7.223-2.091,7.121c-3.11-.131-.789-7-1.833-9.958-1.585-4.5-1.914-1.442-4.409-2.154-7.03-2.006-5.094-9.988-16.889-10.508a2.832,2.832,0,0,1-2.487-2.962Z" fill="url(#linear-gradient)"/>
    <path id="Path_48" data-name="Path 48" d="M1305.384,618.056c-2.81,0-1.917-7.534.066-7.6C1307,610.4,1308.323,618.056,1305.384,618.056Z" fill="url(#linear-gradient-2)"/>
  </g>
</svg>
