<svg xmlns="http://www.w3.org/2000/svg" xmlns:xlink="http://www.w3.org/1999/xlink" width="172.38" height="119.901" viewBox="0 0 172.38 119.901">
  <defs>
    <linearGradient id="linear-gradient" x1="0.485" y1="0.999" x2="0.514" y2="0.001" gradientUnits="objectBoundingBox">
      <stop offset="0" stop-color="#470000"/>
      <stop offset="0.157" stop-color="#4e0000"/>
      <stop offset="0.387" stop-color="#610000"/>
      <stop offset="0.662" stop-color="#810000"/>
      <stop offset="0.968" stop-color="#ae0000"/>
      <stop offset="1" stop-color="#b30000"/>
    </linearGradient>
    <linearGradient id="linear-gradient-2" x1="0.482" y1="1.011" x2="0.5" y2="-0.018" xlink:href="#linear-gradient"/>
  </defs>
  <g id="Group_53" data-name="Group 53" transform="translate(-342.045 -588.586)">
    <path id="Path_51" data-name="Path 51" d="M400.147,665.485c2.649.616,3.311-1.055,3.757-2.791.516-2.011-.258-3.567-2.089-4.15C397.525,657.178,395.976,664.516,400.147,665.485Z" fill="url(#linear-gradient)"/>
    <path id="Path_52" data-name="Path 52" d="M350.061,605.814c3.668,1.9,5.46-2.283,11.346-.427,8.119,2.561,5.726,7.817,5.621,18.8-.166,17.346-1.874,27.106-1.874,43.927,0,23.317-.372,42.51,10.228,40.181,9.9-2.175.585-36.615,0-46.07-1.458-23.526-1.5-35.433,2.472-50.53,2.082-7.911,7.256-8.986,10.8-8.986,10.436,0,10.014,6.488,9.6,20.124-.375,12.285-5.413,29.667,2.186,28.626,4.54-.622,6.7-12.286,5.1-24.254-1.978-14.781-3.956-26.96,12.283-23.837,3.149.605,8.744,4.788,18.32,2.082,1.577-.446,3.123-.209,3.331,6.245.1,2.986-1.583,11.25,3.455,10.608,4.741-.6.474-13.467,3.416-16.437,5.413-5.466,7.329,3.389,13.115,4.58,8.733,1.8,12.284,10.213,12.284,21.652a211.057,211.057,0,0,1-1.041,21.651c-1.782,16.423.19,25.1,6.284,25.1,7.061,0,5.919-6.7,6.18-21.77.149-8.623-1.43-21.441-3.72-33.516-1.435-7.565-.75-16.712,3.539-16.239,7.549.833,4.239-6.573,9.368-9.785,11.138-6.974,22.068-5.545,22.068-8.952H342.045l.132.784a8,8,0,0,0,1.793,3.945C348.089,598.049,346.212,603.818,350.061,605.814Z" fill="url(#linear-gradient-2)"/>
  </g>
</svg>
