<svg xmlns="http://www.w3.org/2000/svg" width="47.084" height="47.199" viewBox="0 0 47.084 47.199">
  <g id="vBfwuX" transform="translate(-104.221 -119.479)">
    <g id="Group_48" data-name="Group 48">
      <path id="Path_40" data-name="Path 40" d="M151.277,143.2c0,3.95.034,7.9-.022,11.85a15.272,15.272,0,0,1-.462,3.489c-1.148,4.552-4.318,7.285-9.237,7.821a68.39,68.39,0,0,1-7.427.314c-6.094,0-12.188-.07-18.282-.162a15.172,15.172,0,0,1-3.366-.436c-4.647-1.136-7.375-4.255-7.941-9.265a66.17,66.17,0,0,1-.319-7.427c0-6.093.085-12.187.148-18.281a15.256,15.256,0,0,1,.155-1.884c.732-5.393,4.033-8.772,9.437-9.411a64.466,64.466,0,0,1,7.552-.333c6.093,0,12.188.068,18.281.16a15.418,15.418,0,0,1,3.367.434c4.684,1.137,7.568,4.418,7.959,9.523.347,4.52.023,9.069.157,13.605C151.18,143.2,151.373,143.2,151.277,143.2Zm-40.793-.253c0,2.439-.018,4.878,0,7.317a10.687,10.687,0,0,0,1.552,5.893c2.071,3.181,5.192,4.246,8.78,4.274q7,.054,14,0a10.787,10.787,0,0,0,6.017-1.568c3.2-2.091,4.4-5.245,4.456-8.852.071-4.791.012-9.587-.143-14.376-.2-6.145-3.7-9.7-9.826-9.881q-7.5-.222-15.008,0c-6.219.185-9.731,3.9-9.829,10.13C110.453,138.242,110.484,140.6,110.484,142.951Z" fill="#56fc00"/>
      <path id="Path_41" data-name="Path 41" d="M113.64,142.85c0-2.354-.024-4.707,0-7.06.051-4.231,2.322-6.728,6.568-6.843,5.164-.14,10.338-.13,15.5,0,3.788.1,6.18,2.385,6.307,6.178.176,5.287.176,10.59,0,15.877-.128,3.808-2.439,6.135-6.243,6.269-5.245.185-10.506.189-15.751,0-4.051-.145-6.274-2.755-6.373-6.987C113.593,147.809,113.641,145.329,113.64,142.85Zm14.337-8.826a9.055,9.055,0,1,0,8.936,9.189A9.093,9.093,0,0,0,127.977,134.024Zm11.21-.306a2.081,2.081,0,0,0-1.892-2.119,2.175,2.175,0,0,0-1.952,2.087,2.233,2.233,0,0,0,1.92,2.133A2.153,2.153,0,0,0,139.187,133.718Z" fill="#56fc00"/>
      <path id="Path_42" data-name="Path 42" d="M127.859,137.235a5.843,5.843,0,1,1-5.882,5.8A5.838,5.838,0,0,1,127.859,137.235Z" fill="#56fc00"/>
    </g>
  </g>
</svg>
