<svg xmlns="http://www.w3.org/2000/svg" width="51.133" height="42.461" viewBox="0 0 51.133 42.461">
  <g id="_5RkCh5" data-name="5RkCh5" transform="translate(-178.238 -121.822)">
    <g id="Group_49" data-name="Group 49">
      <path id="Path_43" data-name="Path 43" d="M193.253,154.97c-4.838-.524-8.049-2.867-9.881-7.394h4.2l.131-.3c-4.97-1.689-7.724-5.05-8.086-10.315l4.351,1.19.189-.27a10.919,10.919,0,0,1-4.436-8.8,8.537,8.537,0,0,1,1.522-5.088,30.654,30.654,0,0,0,21.809,10.982c-.035-.62-.076-1.184-.1-1.749-.173-4.59,1.7-8.116,5.806-10.153a10.063,10.063,0,0,1,11.613,1.333,2.232,2.232,0,0,0,2.439.491c1.655-.621,3.316-1.224,5.049-1.862a10.742,10.742,0,0,1-3.694,5.146l.158.277,4.842-1.267.2.215c-1.366,1.387-2.681,2.83-4.118,4.139a2.95,2.95,0,0,0-1.042,2.289c-.588,12.78-6.205,22.5-18.066,27.769-9.389,4.166-18.806,3.391-27.779-1.749-.091-.053-.161-.143-.112-.1,2.518-.345,5.164-.533,7.725-1.107A18.766,18.766,0,0,0,193.253,154.97Z" fill="#56fc00"/>
    </g>
  </g>
</svg>
