<svg xmlns="http://www.w3.org/2000/svg" width="66.139" height="48.032" viewBox="0 0 66.139 48.032">
  <g id="tY1vch" transform="translate(-243.365 -122.308)">
    <g id="Group_50" data-name="Group 50">
      <path id="Path_44" data-name="Path 44" d="M243.365,161.3v-.147c.028-.205.067-.409.081-.614a94.316,94.316,0,0,1,1.324-10.674,73.3,73.3,0,0,1,4.762-16.051,38.78,38.78,0,0,1,2.722-5.284,1.456,1.456,0,0,1,.367-.4,33.357,33.357,0,0,1,9.216-4.71,23.325,23.325,0,0,1,5.269-1.111c.124-.01.324.026.372.108.242.417.445.858.681,1.326a35.024,35.024,0,0,0-7.526,2.7,27.892,27.892,0,0,0-6.447,4.692,45.036,45.036,0,0,1,44.489,0,28.672,28.672,0,0,0-13.968-7.381c.129-.26.227-.456.325-.652a5.409,5.409,0,0,1,.337-.651.409.409,0,0,1,.317-.144c.4.03.8.083,1.2.148a31.5,31.5,0,0,1,12.65,5.154,4.2,4.2,0,0,1,1.383,1.38,57.633,57.633,0,0,1,5.2,12.519,86.412,86.412,0,0,1,3.163,17.2c.071.815.149,1.629.224,2.444v.147a25.075,25.075,0,0,1-8.784,6.446,30.457,30.457,0,0,1-10.349,2.587.665.665,0,0,1-.671-.311c-.549-.767-1.126-1.513-1.69-2.268-.166-.222-.327-.447-.511-.7a31.422,31.422,0,0,0,6.873-3.391,27.717,27.717,0,0,0,5.712-4.992,1.136,1.136,0,0,0-.312.16c-1.574.967-3.1,2.022-4.732,2.88a35.728,35.728,0,0,1-12.161,3.7,49.557,49.557,0,0,1-13.365-.07,36.027,36.027,0,0,1-16.508-6.581c-.063-.046-.134-.08-.2-.12a29.235,29.235,0,0,0,12.575,8.414c-.772,1.031-1.513,2-2.232,2.993a.578.578,0,0,1-.612.281c-1.4-.2-2.827-.311-4.212-.6A26.565,26.565,0,0,1,243.365,161.3Zm28.561-11.73a6.759,6.759,0,0,0-1.106-3.939,4.832,4.832,0,0,0-7.554-.889,6.583,6.583,0,0,0-.015,9.123,4.708,4.708,0,0,0,6.111.586A5.959,5.959,0,0,0,271.926,149.57Zm19.522-.246a6.5,6.5,0,0,0-1.442-4.145,4.8,4.8,0,0,0-7.117-.528,6.591,6.591,0,0,0-.357,8.958,4.791,4.791,0,0,0,7.333,0A6.377,6.377,0,0,0,291.448,149.324Z" fill="#56fc00"/>
    </g>
  </g>
</svg>
