<svg xmlns="http://www.w3.org/2000/svg" width="51.576" height="46.476" viewBox="0 0 51.576 46.476">
  <g id="Rziy7j" transform="translate(-332.816 -120.076)">
    <g id="Group_51" data-name="Group 51">
      <path id="Path_45" data-name="Path 45" d="M355.944,125.073c0-.95-.017-1.717,0-2.484a2.356,2.356,0,0,1,2.426-2.512,2.527,2.527,0,0,1,2.5,2.379,5.219,5.219,0,0,1,0,1.5c-.384,1.854.616,2.865,1.952,3.952a29.349,29.349,0,0,1,7.106,7.961c2.44,4.216,2.117,7.718-1.126,11.936-.7.912-1.486,1.759-2.2,2.663a4.416,4.416,0,0,1-4.465,1.984,6.143,6.143,0,0,0-1.252.054v4.257a47.767,47.767,0,0,0,5.072-.053,3.684,3.684,0,0,0,2.3-1.161c1.921-2.435,4.572-3.319,7.412-4.016,2.536-.623,5.032-1.413,7.531-2.176.827-.253,1.065-.044,1.151.811.174,1.727-.143,2.934-2.035,3.617-2.365.852-3.552,3.028-4.89,5.02A71.463,71.463,0,0,1,373,164.659a5.773,5.773,0,0,1-4.664,1.878c-7.2.011-14.41.029-21.614,0a14.149,14.149,0,0,1-13.9-13.451c-.034-1.117.3-1.457,1.426-1.435,3.427.067,6.858.046,10.286.009.914-.01,1.364.121,1.4,1.228a3.917,3.917,0,0,0,3.817,3.881c1.612.106,3.235.029,4.853.033h1.243v-4.362c-1.574,0-3.175.024-4.774-.015a7.064,7.064,0,0,1-1.389-.316c.178-.436.326-.888.539-1.306a69.508,69.508,0,0,0,3.832-7.576c1.284-3.516.375-7.1-.823-10.493-.968-2.741-2.269-5.363-3.406-8.046a5.265,5.265,0,0,1-.216-.965,3.451,3.451,0,0,1,.947-.035C352.309,124.115,354.052,124.581,355.944,125.073Z" fill="#56fc00"/>
      <path id="Path_46" data-name="Path 46" d="M341.9,147.211c-1.618,0-3.237.014-4.854-.011a5.6,5.6,0,0,1-1.075-.223,4.077,4.077,0,0,1,.31-1.138c1.9-3.019,3.835-6.016,5.755-9.022,1.486-2.327,2.959-4.663,4.452-6.985.674-1.049,1.028-1.048,1.507.068a28.413,28.413,0,0,1,2.577,9.4c.184,2.885-1.244,5.174-2.618,7.485a1.476,1.476,0,0,1-1.085.4C345.209,147.235,343.552,147.211,341.9,147.211Z" fill="#56fc00"/>
    </g>
  </g>
</svg>
