<svg xmlns="http://www.w3.org/2000/svg" width="27.423" height="20.568" viewBox="0 0 27.423 20.568">
  <g id="noun_Hamburger_564924" transform="translate(-18 -26)">
    <path id="Path_957" data-name="Path 957" d="M19.714,29.428h24a1.714,1.714,0,1,0,0-3.428h-24a1.714,1.714,0,0,0,0,3.428Z" transform="translate(0 0)" fill="#fff"/>
    <path id="Path_958" data-name="Path 958" d="M43.71,46h-24a1.714,1.714,0,1,0,0,3.428h24a1.714,1.714,0,1,0,0-3.428Z" transform="translate(0 -11.43)" fill="#fff"/>
    <path id="Path_959" data-name="Path 959" d="M43.71,66h-24a1.714,1.714,0,1,0,0,3.428h24a1.714,1.714,0,1,0,0-3.428Z" transform="translate(0 -22.86)" fill="#fff"/>
  </g>
</svg>
