<svg id="noun_person_1842586" xmlns="http://www.w3.org/2000/svg" width="122.906" height="67.5" viewBox="0 0 122.906 67.5">
  <path id="Path_896" data-name="Path 896" d="M77.828,13.875A25.076,25.076,0,0,1,90.9,1.431C93.441,3.919,95.329,4.5,98.932,4.5s5.492-.582,8.032-3.07c10.2,4.543,15.945,13.974,15.942,25.073,0,3.273-6.088,4.492-8.457,4.9a108.218,108.218,0,0,1-26.926.535A32.532,32.532,0,0,1,87.9,36.91c0,6.229-21.987,6.5-26.43,6.5C56.722,43.4,35,43.136,35,36.764a31.418,31.418,0,0,1,.376-4.8,110.869,110.869,0,0,1-11.191.542c-3.989,0-21-.141-23.792-4.641A2.673,2.673,0,0,1,0,26.327C.061,15.316,5.806,5.946,15.947,1.433c2.542,2.488,4.436,3.07,8.034,3.07s5.489-.585,8.038-3.07a25.1,25.1,0,0,1,13.064,12.44A27.507,27.507,0,0,1,52.5,9.28c2.792,2.74,5.02,3.377,8.953,3.377s6.161-.637,8.953-3.377a27.921,27.921,0,0,1,7.421,4.6Zm-41.815,15a30.148,30.148,0,0,1,6.8-12.765A22.415,22.415,0,0,0,32.583,4.993a13.569,13.569,0,0,1-8.6,2.517,13.572,13.572,0,0,1-8.6-2.517C7.442,9.014,3.038,17.694,3.007,26.407c0,2.39,18.7,3.1,21.181,3.1a103.7,103.7,0,0,0,11.825-.635Zm50.877-.021a105.639,105.639,0,0,0,27.055-.4c.71-.123,5.9-1.008,5.961-1.966.683-8.184-5.077-17.8-12.371-21.489a13.58,13.58,0,0,1-8.6,2.517,13.572,13.572,0,0,1-8.6-2.517A22.473,22.473,0,0,0,80.1,16.11c-.023-.023,5.587,8.068,6.787,12.743ZM70.984,12.84c-2.706,2.182-6.131,2.822-9.529,2.822s-6.823-.64-9.529-2.822C43,17.308,38.005,27.114,38.005,36.885a.8.8,0,0,0,.318.623c2.531,2.283,19.422,2.9,23.08,2.9,2.824,0,23.5-.571,23.5-3.5,0-9.8-4.971-19.588-13.921-24.07Z" transform="translate(0 24.093)" fill="#3883ee"/>
  <path id="Path_897" data-name="Path 897" d="M17.38.281A14.764,14.764,0,1,1,2.618,15.045,14.777,14.777,0,0,1,17.38.281Zm0,3.007A11.757,11.757,0,1,0,29.137,15.045,11.748,11.748,0,0,0,17.38,3.288Z" transform="translate(44.075 4.728)" fill="#3883ee"/>
  <path id="Path_898" data-name="Path 898" d="M18.242,0A13.451,13.451,0,1,1,4.792,13.448,13.448,13.448,0,0,1,18.242,0Zm0,3.007a10.444,10.444,0,1,0,10.442,10.44A10.432,10.432,0,0,0,18.242,3.007Z" transform="translate(80.69 0)" fill="#3883ee"/>
  <path id="Path_899" data-name="Path 899" d="M14.04,0A13.451,13.451,0,1,1,.59,13.448,13.46,13.46,0,0,1,14.04,0Zm0,3.007a10.444,10.444,0,1,0,10.444,10.44A10.433,10.433,0,0,0,14.04,3.007Z" transform="translate(9.941 0)" fill="#3883ee"/>
</svg>
