<svg xmlns="http://www.w3.org/2000/svg" width="71.8" height="71.8" viewBox="0 0 71.8 71.8">
  <path id="noun_Tech_2725587" d="M71.83,21.17,46.5,10.6,21.17,21.17,10.6,46.5,21.078,71.83,46.5,82.4,71.83,71.922,82.4,46.5Zm8.292,23.964-11.39-3.1v-.547a5.209,5.209,0,0,0-2.46-4.374l5.1-13.394ZM42.673,55.885a6.477,6.477,0,0,0-3.189-4.829L44.04,40.031a7.674,7.674,0,0,0,2.46.364,7.317,7.317,0,0,0,2.46-.364L54.609,53.7a3.627,3.627,0,0,0-1.458,2.187H42.673ZM56.705,53.06a1.779,1.779,0,0,0-.638.091L50.418,39.484a7.865,7.865,0,0,0,2.825-2.642l5.649,3.1a5.159,5.159,0,0,0-.273,1.64,5.214,5.214,0,0,0,2.187,4.191l-3.371,7.38A2.006,2.006,0,0,0,56.705,53.06ZM36.2,50.145a5.346,5.346,0,0,0-2.1.364l-5.1-10.57a3.542,3.542,0,0,0,1.367-2.825v-.091l8.474-2.1a7.719,7.719,0,0,0,3.827,4.465L38.117,50.327A13.592,13.592,0,0,0,36.2,50.145ZM63.63,36.568a4.836,4.836,0,0,0-3.918,1.913l-5.649-3.1a7.676,7.676,0,0,0,.638-3.189,7.9,7.9,0,0,0-.456-2.551l15.49-6.469L64.723,36.659A4.436,4.436,0,0,0,63.63,36.568ZM38.391,33.379l-8.474,2.1a3.694,3.694,0,0,0-3.28-2h-.273l-3.28-10.3,15.581,6.469a7.9,7.9,0,0,0-.456,2.551C38.3,32.65,38.3,33.015,38.391,33.379ZM24.085,39.666a3.654,3.654,0,0,0,2.551,1.093,2.523,2.523,0,0,0,.82-.091l5.1,10.57a6.546,6.546,0,0,0-2.187,2.278L13.333,46.5ZM58.892,53.789l3.462-7.38a7.034,7.034,0,0,0,1.367.182,4.946,4.946,0,0,0,4.556-2.916L79.3,46.591,59.712,54.7A3.917,3.917,0,0,0,58.892,53.789ZM70.828,22.81ZM53.607,28.186a8.2,8.2,0,0,0-6.287-4.1V12.7l21.868,9.021ZM45.68,12.7v11.39a8.05,8.05,0,0,0-6.287,4.1L23.812,21.716ZM21.716,23.9l3.189,10.023a3.639,3.639,0,0,0-1.822,3.1,3.216,3.216,0,0,0,.273,1.276L13.151,44.769Zm-9.2,22.141Zm.456,1.913,16.857,7.016a5.305,5.305,0,0,0-.273,1.731,6.621,6.621,0,0,0,1.458,4.1L21.99,69.917Zm9.385,22.688Zm.82.364L32.195,61.9A6.646,6.646,0,0,0,36.2,63.266a5.875,5.875,0,0,0,1.822-.273l7.016,17.039Zm16.31-8.656a6.4,6.4,0,0,0,3.189-4.92H53.152A3.2,3.2,0,0,0,54.7,59.621L46.5,79.393Zm16.674-2.1c.182,0,.364.091.547.091a3.369,3.369,0,0,0,1.913-.547L69.826,71.01,47.958,80.031ZM71.01,69.826l-11.3-11.207a3.369,3.369,0,0,0,.547-1.913,1.156,1.156,0,0,0-.091-.547l19.772-8.2Zm9.476-23.781Z" transform="translate(-10.6 -10.6)" fill="#3883ee"/>
</svg>
