<svg id="noun_Coupon_2290379" xmlns="http://www.w3.org/2000/svg" width="37.515" height="26.797" viewBox="0 0 37.515 26.797">
  <path id="Path_771" data-name="Path 771" d="M12.719,6.786H3.786v4.819a7.148,7.148,0,0,1,0,13.841V30.01h8.932v-2.68a.893.893,0,0,1,1.786,0v2.68H37.729V6.786H14.505v2.68a.893.893,0,0,1-1.786,0ZM2,23.885A5.359,5.359,0,0,0,2,13.167V6.786A1.786,1.786,0,0,1,3.786,5H37.729a1.786,1.786,0,0,1,1.786,1.786V30.01A1.786,1.786,0,0,1,37.729,31.8H3.786A1.786,1.786,0,0,1,2,30.01Zm16.864-1.469a2.663,2.663,0,1,1,2.653,2.673A2.651,2.651,0,0,1,18.864,22.416Zm.707-7.713a.932.932,0,0,1,1.284-.295l.025.016,10.94,7.356a.994.994,0,0,1,.288,1.352.932.932,0,0,1-1.284.295l-.025-.016-10.94-7.356A.994.994,0,0,1,19.572,14.7Zm1.159,7.713a.772.772,0,0,0,.786.766.789.789,0,0,0,.806-.766.809.809,0,0,0-.806-.806A.793.793,0,0,0,20.731,22.416Zm6.76-7a2.663,2.663,0,1,1,2.673,2.692A2.667,2.667,0,0,1,27.491,15.42Zm1.867,0a.793.793,0,0,0,.806.786.776.776,0,0,0,.786-.786.788.788,0,0,0-.786-.786A.805.805,0,0,0,29.358,15.42ZM14.505,23.758a.893.893,0,0,1-1.786,0V20.185a.893.893,0,0,1,1.786,0Zm0-7.146a.893.893,0,1,1-1.786,0V13.039a.893.893,0,1,1,1.786,0Z" transform="translate(-2 -5)" fill="#fff"/>
</svg>
