<svg xmlns="http://www.w3.org/2000/svg" width="35.813" height="32.564" viewBox="0 0 35.813 32.564">
  <path id="noun_Health_3001009" d="M16.543,10c-.156,0-.3.006-.458.013A10.641,10.641,0,0,0,6,20.785c0,5.072,2.941,9.042,6.524,12.413s7.859,6.237,10.81,9.131a.814.814,0,0,0,1.145,0c2.952-2.894,7.227-5.761,10.81-9.131s6.524-7.34,6.524-12.413a10.8,10.8,0,0,0-5.748-9.627c-3.346-1.733-7.792-1.624-12.158,1.348A13.25,13.25,0,0,0,16.543,10ZM30.99,11.615a8.717,8.717,0,0,1,4.324.979,9.187,9.187,0,0,1,4.871,8.19c0,4.444-2.571,7.977-6.016,11.217-3.25,3.058-7.2,5.778-10.263,8.648-3.064-2.87-7.013-5.59-10.263-8.648-3.444-3.24-6.016-6.773-6.016-11.217a8.989,8.989,0,0,1,8.534-9.144,11.476,11.476,0,0,1,7.262,2.493.814.814,0,0,0,.967,0A11.884,11.884,0,0,1,30.99,11.615Zm-9.144,6.27a.814.814,0,0,0-.738.814v3.129H17.942a.814.814,0,0,0-.814.814v3.93a.814.814,0,0,0,.814.814h3.167v3.129a.814.814,0,0,0,.814.814h3.968a.814.814,0,0,0,.814-.814V27.385h3.167a.814.814,0,0,0,.814-.814v-3.93a.814.814,0,0,0-.814-.814H26.7V18.7a.814.814,0,0,0-.814-.814H21.923q-.038,0-.076,0Zm.89,1.628h2.34v3.129a.814.814,0,0,0,.814.814h3.167v2.3H25.891a.814.814,0,0,0-.814.814V29.7h-2.34V26.571a.814.814,0,0,0-.814-.814H18.756v-2.3h3.167a.814.814,0,0,0,.814-.814Z" transform="translate(-6 -10)" fill="#fff"/>
</svg>
