<svg id="Layer_2" data-name="Layer 2" xmlns="http://www.w3.org/2000/svg" width="37.887" height="28.971" viewBox="0 0 37.887 28.971">
  <path id="Path_774" data-name="Path 774" d="M37.818,13.59H6.069A3.069,3.069,0,0,0,3,16.659V39.492a3.069,3.069,0,0,0,3.069,3.069H37.818a3.069,3.069,0,0,0,3.069-3.069V16.659a3.069,3.069,0,0,0-3.069-3.069Zm-31.749,1.9H37.818a1.174,1.174,0,0,1,1.17,1.17v3.128H4.89V16.659A1.174,1.174,0,0,1,6.069,15.489ZM37.818,40.662H6.069a1.174,1.174,0,0,1-1.17-1.17V25.55H39V39.492A1.174,1.174,0,0,1,37.818,40.662ZM22.364,30.235H8.422a.842.842,0,0,1,0-1.684H22.364a.842.842,0,0,1,0,1.684Zm-6.971,3.789H8.422a.842.842,0,0,1,0-1.684h6.971a.842.842,0,1,1,0,1.684Z" transform="translate(-3 -13.59)" fill="#fff"/>
</svg>
