<svg xmlns="http://www.w3.org/2000/svg" width="65.482" height="65.414" viewBox="0 0 65.482 65.414">
  <g id="noun_credit_1571375" transform="translate(-8 -9.993)">
    <g id="Group_24" data-name="Group 24" transform="translate(8 9.993)">
      <path id="Path_43" data-name="Path 43" d="M40.741,11.346h0a3.247,3.247,0,1,1,0,6.494A24.886,24.886,0,0,0,15.915,42.666a3.247,3.247,0,0,1-6.494,0,31.469,31.469,0,0,1,31.32-31.32m14.07,3.788a3.6,3.6,0,0,1,1.624.406H56.5a3.209,3.209,0,0,1,1.15,4.4,3.32,3.32,0,0,1-2.841,1.624,3.4,3.4,0,0,1-1.624-.406,3.47,3.47,0,0,1-1.556-1.962,3.3,3.3,0,0,1,.338-2.5,3.241,3.241,0,0,1,2.841-1.556M65.094,25.416a3.32,3.32,0,0,1,2.841,1.624,3.537,3.537,0,0,1,.338,2.5,3.29,3.29,0,0,1-1.556,2.029,3.4,3.4,0,0,1-1.624.406A3.254,3.254,0,0,1,63.47,25.89a2.7,2.7,0,0,1,1.624-.474m3.518,14h.2a3.234,3.234,0,0,1,3.247,3.247,3.247,3.247,0,1,1-3.45-3.247M16.456,53.557a3.4,3.4,0,0,1,.812.135,3.115,3.115,0,0,1,1.962,1.488h0a.236.236,0,0,0,.068.135,3.321,3.321,0,0,1-1.285,4.465,3.142,3.142,0,0,1-1.556.406A3.22,3.22,0,0,1,13.615,58.5h0a3.217,3.217,0,0,1-.338-2.5,3.328,3.328,0,0,1,3.179-2.435m48.5.135a3.687,3.687,0,0,1,1.488.338,3.254,3.254,0,0,1,1.421,4.329h0a3.3,3.3,0,0,1-2.774,1.556,3.4,3.4,0,0,1-1.624-.406,3.3,3.3,0,0,1-1.218-4.465,3.428,3.428,0,0,1,2.706-1.353M54.811,62.419v1.353a3.247,3.247,0,1,1,0,6.494v0a3.32,3.32,0,0,1-2.841-1.624,3.537,3.537,0,0,1-.338-2.5,3,3,0,0,1,1.556-1.962,3.4,3.4,0,0,1,1.624-.406V62.419M26.738,63.84a3.4,3.4,0,0,1,1.624.406,3.254,3.254,0,0,1-1.624,6.088,3.4,3.4,0,0,1-1.624-.406,3.47,3.47,0,0,1-1.556-1.962,3.257,3.257,0,0,1,.338-2.5,3.32,3.32,0,0,1,2.841-1.624m14.07,3.721a3.234,3.234,0,1,1-2.3.947,3.248,3.248,0,0,1,2.3-.947M40.741,9.993A32.811,32.811,0,0,0,8,42.734a4.6,4.6,0,1,0,9.2,0A23.443,23.443,0,0,1,40.673,19.26a4.6,4.6,0,0,0,4.6-4.6,4.521,4.521,0,0,0-4.532-4.668Zm14.07,3.788a4.491,4.491,0,0,0-3.991,2.3,4.566,4.566,0,0,0,1.691,6.291,4.682,4.682,0,0,0,2.3.609,4.491,4.491,0,0,0,3.991-2.3,4.887,4.887,0,0,0,.474-3.518,4.473,4.473,0,0,0-2.165-2.774l-.068-.068a5.408,5.408,0,0,0-2.232-.541ZM65.094,24.063a4.682,4.682,0,0,0-2.3.609A4.582,4.582,0,0,0,61.1,30.963h0a4.624,4.624,0,0,0,6.291,1.691h0a4.582,4.582,0,0,0,1.691-6.291,4.649,4.649,0,0,0-3.991-2.3Zm3.721,14a4.634,4.634,0,0,0,0,9.268h.068a4.649,4.649,0,0,0,4.6-4.6,4.721,4.721,0,0,0-4.668-4.668ZM16.456,52.2a4.7,4.7,0,0,0,.068,9.4,5.408,5.408,0,0,0,2.232-.541,4.652,4.652,0,0,0,1.826-6.291c-.068-.068-.068-.135-.135-.2a4.606,4.606,0,0,0-2.841-2.165,3.752,3.752,0,0,0-1.15-.2Zm48.5.135A4.491,4.491,0,0,0,62.794,60.8a4.878,4.878,0,0,0,2.3.609,4.621,4.621,0,0,0,3.924-2.232l.068-.135a4.61,4.61,0,0,0-2.029-6.223,4.532,4.532,0,0,0-2.1-.474ZM54.811,62.419h0a4.5,4.5,0,0,0-2.3.609,4.582,4.582,0,0,0-1.691,6.291,4.63,4.63,0,0,0,3.991,2.3h0a4.6,4.6,0,1,0,0-9.2Zm-28.073.068a4.491,4.491,0,0,0-3.991,2.3,4.551,4.551,0,0,0,1.691,6.291h0a4.682,4.682,0,0,0,2.3.609,4.491,4.491,0,0,0,3.991-2.3h0A4.566,4.566,0,0,0,29.038,63.1h0a4.682,4.682,0,0,0-2.3-.609Zm14.07,3.721h0a4.6,4.6,0,0,0,0,9.2h0a4.6,4.6,0,1,0,0-9.2Z" transform="translate(-8 -9.993)" fill="#3883ee"/>
      <path id="Path_44" data-name="Path 44" d="M46.315,35.287c-6.562,0-11.906,1.759-11.906,3.856,0,2.165,5.344,3.856,11.906,3.856s11.906-1.759,11.906-3.856C58.221,36.978,52.877,35.287,46.315,35.287Zm5.073,4.4-1.624.2a1.232,1.232,0,0,0-.271-1.218,1.744,1.744,0,0,0-1.353-.474c-.2,0-.338.068-.541.068-.676.2-.947.541-.879,1.15.068.879-.271,1.488-1.691,1.894a3.83,3.83,0,0,1-1.218.2,4.071,4.071,0,0,1-2.435-.541l-1.488.338-.541-.541,1.421-.406a1.22,1.22,0,0,1-.338-1.082l1.556-.2a1.014,1.014,0,0,0,.338,1.015,1.364,1.364,0,0,0,1.218.406c.135,0,.338-.068.474-.068.609-.2.744-.474.744-1.218-.068-.947.474-1.488,1.826-1.826a4.248,4.248,0,0,1,1.285-.2,3.753,3.753,0,0,1,2.5.609l1.556-.406.541.541-1.488.406A1.3,1.3,0,0,1,51.388,39.684Z" transform="translate(-13.574 -15.332)" fill="#3883ee"/>
      <g id="Group_21" data-name="Group 21" transform="translate(20.835 25.841)">
        <path id="Path_45" data-name="Path 45" d="M35.762,45.115a23.647,23.647,0,0,0,10.553,2.029c4.465,0,7.982-.609,10.621-1.894v1.285c-.135.676-3.653,2.5-10.553,2.5-6.968,0-10.418-1.826-10.553-2.5l-.068-1.421h0m-1.353-2.368v3.788h0c0,2.165,5.344,3.856,11.906,3.856s11.906-1.759,11.906-3.856V42.815c-2.3,1.894-6.291,2.976-11.973,2.976-5.412,0-9.335-1.15-11.838-3.044Z" transform="translate(-34.409 -42.747)" fill="#3883ee"/>
      </g>
      <g id="Group_22" data-name="Group 22" transform="translate(20.835 31.794)">
        <path id="Path_46" data-name="Path 46" d="M35.762,52.66a23.647,23.647,0,0,0,10.553,2.029c4.465,0,7.982-.609,10.621-1.894v1.285c-.135.676-3.653,2.5-10.553,2.5-6.968,0-10.418-1.826-10.553-2.5l-.068-1.421h0m-1.353-2.368v3.788h0c0,2.165,5.344,3.856,11.906,3.856s11.906-1.759,11.906-3.856V50.36c-2.3,1.894-6.291,2.976-11.973,2.976h0c-5.412,0-9.335-1.082-11.838-3.044Z" transform="translate(-34.409 -50.292)" fill="#3883ee"/>
      </g>
      <g id="Group_23" data-name="Group 23" transform="translate(20.835 37.882)">
        <path id="Path_47" data-name="Path 47" d="M35.762,60.377a23.647,23.647,0,0,0,10.553,2.029c4.465,0,7.982-.609,10.621-1.894V61.8c-.135.676-3.653,2.5-10.553,2.5-6.968,0-10.418-1.826-10.553-2.5l-.068-1.421h0m-1.353-2.368V61.8h0c0,2.165,5.344,3.856,11.906,3.856S58.221,63.895,58.221,61.8V58.077c-2.3,1.894-6.291,2.976-11.973,2.976-5.412,0-9.335-1.15-11.838-3.044Z" transform="translate(-34.409 -58.009)" fill="#3883ee"/>
      </g>
    </g>
  </g>
</svg>
