<svg xmlns="http://www.w3.org/2000/svg" width="60.544" height="62" viewBox="0 0 60.544 62">
  <path id="Path_1054" data-name="Path 1054" d="M4.556,59.242A3.762,3.762,0,0,0,8.313,63H41.679A3.739,3.739,0,0,0,44.6,61.591a9.077,9.077,0,0,0,3.508-3.966l3.534,3.54a6.253,6.253,0,0,0,8.843-8.843l-5.364-5.364-.075-.075L49.68,41.519a6.206,6.206,0,0,0-4.243-1.826V14.021h2.786V4.756A3.762,3.762,0,0,0,44.466,1H5.531A3.762,3.762,0,0,0,1.774,4.756v9.264H4.556ZM8.313,61.12a1.881,1.881,0,0,1-1.879-1.879V49.964H23.767a3.762,3.762,0,0,0,3.757-3.757V28.932a3.762,3.762,0,0,0-3.757-3.757H6.434V14.021H43.558V39.937a6.125,6.125,0,0,0-4.369,4.6A9.212,9.212,0,0,0,33.21,47.2c-.007.006-.016.008-.022.015s-.008.015-.015.022a9.217,9.217,0,0,0,.994,13.885ZM6.438,48.085V27.053H23.767a1.881,1.881,0,0,1,1.879,1.879V46.207a1.881,1.881,0,0,1-1.879,1.879Zm33.286,13.03A7.366,7.366,0,0,1,33.9,49.256L44.218,59.572A7.32,7.32,0,0,1,39.724,61.116Zm5.823-2.872L35.23,47.927A7.353,7.353,0,0,1,45.546,58.244ZM59.154,53.65a4.374,4.374,0,0,1-6.186,6.187l-4.195-4.2a9.229,9.229,0,0,0,.157-1.161l5.523-5.523Zm-10.8-10.8,4.7,4.7-4.285,4.291a9.259,9.259,0,0,0-7.662-7.218,4.346,4.346,0,0,1,7.246-1.773ZM40.967,2.878h3.5a1.881,1.881,0,0,1,1.879,1.879v7.386H40.967Zm-7.515,0h5.636v9.264H33.452Zm-7.515,0h5.636v9.264H25.938Zm-7.515,0h5.636v9.264H18.423Zm-7.515,0h5.636v9.264H10.908ZM3.652,12.142V4.756A1.881,1.881,0,0,1,5.531,2.878h3.5v9.264Z" transform="translate(-1.774 -0.999)" fill="#3883ee"/>
</svg>
