<svg xmlns="http://www.w3.org/2000/svg" width="65.5" height="64.2" viewBox="0 0 65.5 64.2">
  <g id="noun_digital_library_995606" data-name="noun_digital library_995606" transform="translate(0.2 -0.4)">
    <path id="Path_75" data-name="Path 75" d="M65.3,25.3A14.617,14.617,0,0,0,50.7,10.7a17.5,17.5,0,0,0-3.2.4,14.515,14.515,0,0,0-27.8-.7,10.474,10.474,0,0,0-3-.5c-7.5,0-9.1,6.6-9.4,8.6A10.172,10.172,0,0,0-.2,28.3,10.072,10.072,0,0,0,9.9,38.4a9.366,9.366,0,0,0,3.7-.7,8.882,8.882,0,0,0,5.7,2.8V61.2a3.372,3.372,0,0,0,3.4,3.4H51.5V39.8A14.65,14.65,0,0,0,65.3,25.3ZM49.9,63.1H22.7a1.9,1.9,0,0,1,0-3.8H50v3.8Zm-28-5.4a6.117,6.117,0,0,0-1.2.5V30.6a1.975,1.975,0,0,1,1.2-1.8Zm28,0H23.4v-29H49.9Zm1.5-19.4V27.2H22.7a3.372,3.372,0,0,0-3.4,3.4v8.3a7.192,7.192,0,0,1-6.2-5.1l-1.4.4a8.754,8.754,0,0,0,1,2.2,8.423,8.423,0,0,1-2.7.4,8.664,8.664,0,0,1-8.6-8.6,8.568,8.568,0,0,1,6.9-8.4l.6-.1v-.6c0-.3.6-7.7,8-7.7a10.871,10.871,0,0,1,2.6.4,16.551,16.551,0,0,0-.3,3.2h1.5a12.673,12.673,0,0,1,.4-3.4,13.02,13.02,0,0,1,25.3.5l.2.7.7-.2a25.1,25.1,0,0,1,3.6-.5A13.145,13.145,0,0,1,64,25.2,13.473,13.473,0,0,1,51.4,38.3Z" fill="#3883ee"/>
    <path id="Path_76" data-name="Path 76" d="M33.4,51.2l7.4-3.8-7.4-3.8ZM34.9,46l2.6,1.3-2.6,1.3Z" fill="#3883ee"/>
    <path id="Path_77" data-name="Path 77" d="M27.1,54.3H46.2V40.4H27.1Zm1.5-12.4H44.7V52.7H28.6Z" fill="#3883ee"/>
    <rect id="Rectangle_31" data-name="Rectangle 31" width="1.5" height="1.5" transform="translate(43.2 60.4)" fill="#3883ee"/>
    <rect id="Rectangle_32" data-name="Rectangle 32" width="1.5" height="1.5" transform="translate(46.5 60.4)" fill="#3883ee"/>
    <rect id="Rectangle_33" data-name="Rectangle 33" width="15.4" height="1.5" transform="translate(29 35.9)" fill="#3883ee"/>
    <rect id="Rectangle_34" data-name="Rectangle 34" width="21.6" height="1.5" transform="translate(25.9 32.1)" fill="#3883ee"/>
    <path id="Path_78" data-name="Path 78" d="M33.5,4.1a11.233,11.233,0,0,0-8.8,4.3l1.3.9a9.67,9.67,0,0,1,7.6-3.7,9.495,9.495,0,0,1,7.3,3.5L42,8A11.034,11.034,0,0,0,33.5,4.1Z" fill="#3883ee"/>
    <path id="Path_79" data-name="Path 79" d="M52.6,14.5,52.4,16A9.409,9.409,0,0,1,60,23.2l1.5-.3A11,11,0,0,0,52.6,14.5Z" fill="#3883ee"/>
  </g>
</svg>
