<svg xmlns="http://www.w3.org/2000/svg" width="63" height="60.289" viewBox="0 0 63 60.289">
  <g id="noun_loan_1666164" transform="translate(-1.277 -2.643)">
    <path id="Path_48" data-name="Path 48" d="M61.635,47.525c-3.872-.982-10.089,1.6-12.771,2.855a2.464,2.464,0,0,0-.194-.595c-1.112-2.353-6.095-3.414-6.679-3.531C37.764,45.519,30.2,41.2,30.185,41.2c-3.74-2.772-9.048-1.008-12.389.622l-.145-.854a.743.743,0,0,0-.859-.61L1.9,42.891a.744.744,0,0,0-.61.859l3.2,18.821a.745.745,0,0,0,.733.621.683.683,0,0,0,.126-.011l14.895-2.528a.744.744,0,0,0,.61-.859l-.28-1.648a111.046,111.046,0,0,1,15.251,4c5.007,1.879,10.4,1.068,15.069-1.33,3.694-1.914,9.56-4.1,12.294-6.893C65.185,51.88,64.308,48.194,61.635,47.525ZM5.828,61.588,2.882,44.234l13.426-2.279,2.946,17.354Zm56.29-8.7c-2.5,2.559-8.29,4.733-11.913,6.611-2.714,1.393-8.125,3.413-13.882,1.252A107.316,107.316,0,0,0,20.3,56.6L18.057,43.36c2.574-1.3,7.9-3.434,11.315-.91.32.183,7.877,4.493,12.347,5.269,1.849.37,5.006,1.432,5.605,2.7a.9.9,0,0,1-.017.8c-2.314,2.334-5.55,2.651-8.688.833a18.118,18.118,0,0,0-5.869-1.966.745.745,0,0,0-.2,1.477c4.931.646,6.021,3.144,10.1,3.144a7.943,7.943,0,0,0,5.7-2.421c.8-.412,8.73-4.386,12.922-3.319C62.8,49.353,63.336,51.639,62.118,52.885Z" transform="translate(0 -0.26)" fill="#3883ee"/>
    <path id="Path_49" data-name="Path 49" d="M31.522,29.9a7.849,7.849,0,1,0-7.849-7.849A7.857,7.857,0,0,0,31.522,29.9Zm0-14.208a6.359,6.359,0,1,1-6.359,6.359A6.367,6.367,0,0,1,31.522,15.69Z" transform="translate(-0.157 -0.081)" fill="#3883ee"/>
    <path id="Path_50" data-name="Path 50" d="M31.548,34.9c8.751-2.357,17.053-4.538,25.359-.064a.745.745,0,0,0,1.1-.655V28.408a22,22,0,0,1,3.757,1.58.745.745,0,0,0,1.1-.657V6.076a.744.744,0,0,0-.391-.655C53.6.642,44.8,2.987,36.013,5.354,27,7.782,18.866,9.842,10.65,5.419a.746.746,0,0,0-1.1.656v5.779A21.446,21.446,0,0,1,5.8,10.267a.745.745,0,0,0-1.1.655V34.177a.744.744,0,0,0,.391.655C13.727,39.482,22.144,37.428,31.548,34.9ZM11.042,7.287c8.325,3.941,16.487,1.9,25.358-.495,8.621-2.323,16.79-4.469,24.968-.267v21.6a23.027,23.027,0,0,0-3.362-1.279V10.926h0a.743.743,0,0,0-.392-.655C48.944,5.6,40.475,7.7,31.162,10.206c-6.952,1.872-13.519,3.611-20.12,2.055V7.287ZM6.2,12.135c8.338,3.951,25.351-.491,25.351-.491s16.859-4.436,24.969-.267v21.59c-8.412-3.986-16.714-1.835-25.354.493C22.39,35.822,14.319,37.9,6.2,33.729V12.135Z" transform="translate(-0.024 0)" fill="#3883ee"/>
    <path id="Path_51" data-name="Path 51" d="M46.74,14.281h6.824a.745.745,0,0,0,0-1.489H46.74a.745.745,0,0,0,0,1.489Z" transform="translate(-0.313 -0.071)" fill="#3883ee"/>
    <path id="Path_52" data-name="Path 52" d="M46.74,29.289h6.824a.745.745,0,0,0,0-1.489H46.74a.745.745,0,0,0,0,1.489Z" transform="translate(-0.313 -0.176)" fill="#3883ee"/>
    <path id="Path_53" data-name="Path 53" d="M16.288,31.073H9.464a.745.745,0,1,0,0,1.489h6.824a.745.745,0,1,0,0-1.489Z" transform="translate(-0.052 -0.199)" fill="#3883ee"/>
    <path id="Path_54" data-name="Path 54" d="M9.464,17.579h6.824a.745.745,0,0,0,0-1.489H9.464a.745.745,0,1,0,0,1.489Z" transform="translate(-0.052 -0.094)" fill="#3883ee"/>
    <circle id="Ellipse_48" data-name="Ellipse 48" cx="2.105" cy="2.105" r="2.105" transform="translate(7.839 44.469)" fill="#3883ee"/>
    <path id="Path_55" data-name="Path 55" d="M28.871,24.014,27.9,25.166a5.752,5.752,0,0,0,3.261,1.445v.968h.848v-.954a3.427,3.427,0,0,0,2.175-.8,2.407,2.407,0,0,0,.822-1.889,2.2,2.2,0,0,0-.716-1.771,5.391,5.391,0,0,0-2.241-.968h-.04V18.71a4.27,4.27,0,0,1,1.9.769l.862-1.22a5.54,5.54,0,0,0-2.758-.994V16.59h-.848v.662a3.253,3.253,0,0,0-2.088.8,2.421,2.421,0,0,0-.8,1.877,2.128,2.128,0,0,0,.7,1.73,5.409,5.409,0,0,0,2.195.941v2.572A4.6,4.6,0,0,1,28.871,24.014Zm3.142-1.194a2.877,2.877,0,0,1,1.087.511,1.022,1.022,0,0,1-.079,1.5,1.848,1.848,0,0,1-1.008.371Zm-1.856-2.352a.938.938,0,0,1-.265-.7.95.95,0,0,1,.338-.743,1.6,1.6,0,0,1,.934-.352v2.294A2.688,2.688,0,0,1,30.157,20.468Z" transform="translate(-0.187 -0.098)" fill="#3883ee"/>
  </g>
</svg>
