<svg xmlns="http://www.w3.org/2000/svg" width="48" height="54.192" viewBox="0 0 48 54.192">
  <path id="noun_Tooth_1461757" d="M53.774,15.588A13.862,13.862,0,0,0,46.089,17.9a4.518,4.518,0,0,1-5.023,0,13.859,13.859,0,0,0-7.685-2.312c-4.856,0-8.514,1.735-10.872,5.158-1.985,2.881-2.991,6.919-2.991,12,0,14.506,9.061,36.977,13.638,36.977,5.294,0,6.291-6.546,7.171-12.323.6-3.913,1.273-8.349,3.179-8.349,2.057,0,2.6,4.386,3.116,8.628.694,5.672,1.483,12.1,6.593,12.1,3.42,0,7.7-10.053,8.932-13.134,3.414-8.545,5.372-17.393,5.372-24.275C67.52,21.549,62.639,15.588,53.774,15.588Zm-.591,51.83c-2.777-.033-3.5-4.179-4.217-10.025-.644-5.262-1.31-10.7-5.459-10.7-3.935,0-4.7,5.03-5.513,10.354-.915,6-1.8,10.264-4.781,10.317-2.872-1.07-13.335-24.417-11-39.122,1.1-6.924,4.752-10.289,11.172-10.289a11.509,11.509,0,0,1,6.38,1.918,6.9,6.9,0,0,0,1,.541,13.214,13.214,0,0,1-9.461-.7,1.181,1.181,0,0,0-.923,2.175,17.036,17.036,0,0,0,6.7,1.461c4.066,0,7.352-1.69,10.235-3.42.018-.012.034-.027.052-.039l.031-.017a11.511,11.511,0,0,1,6.381-1.918c6.609,0,10.262,3.542,11.172,10.828C66.83,43.831,55.992,66.621,53.184,67.418Z" transform="translate(-19.519 -15.588)" fill="#3883ee"/>
</svg>
