<svg xmlns="http://www.w3.org/2000/svg" width="52.606" height="66.551" viewBox="0 0 52.606 66.551">
  <path id="noun_person_982120" d="M157.382,114.2l-.077.31v-7.05a14.8,14.8,0,0,0,8.445-13.481v-6.43a14.1,14.1,0,0,0-3.874-8.91,13.868,13.868,0,0,0-10.227-4.649c-8.987,0-15.728,7.128-15.728,13.558v6.43a14.9,14.9,0,0,0,8.6,13.481v6.74a26.44,26.44,0,0,0-19.911,25.567v.775h52.606v-.852A26.269,26.269,0,0,0,157.382,114.2Zm6.9-26.652v6.74c-11.776-.31-19.989-7.05-20.221-16.657a15.222,15.222,0,0,1,7.593-2.092C159.242,75.537,164.277,82.742,164.277,87.545Zm-26.807,0c0-3.176,1.937-6.585,5.036-8.91-.155,10.149-2.479,15.263-4.958,16.037V87.545ZM137.7,96.3c3.1-.775,5.346-5.346,6.043-12.474a17.005,17.005,0,0,0,5.423,7.05,25.959,25.959,0,0,0,14.953,4.958A13.358,13.358,0,0,1,137.7,96.3Zm13.171,12.629a14.694,14.694,0,0,0,4.881-.852v7.05l-4.958,5.888-4.726-5.888v-6.973A16.406,16.406,0,0,0,150.874,108.929ZM126.16,138.912a24.694,24.694,0,0,1,5.5-14.8,25,25,0,0,1,12.938-8.367l6.2,7.593,6.43-7.593a24.72,24.72,0,0,1,18.439,23.165Z" transform="translate(-124.61 -73.987)" fill="#3883ee"/>
</svg>
