<svg xmlns="http://www.w3.org/2000/svg" width="69.935" height="51.159" viewBox="0 0 69.935 51.159">
  <g id="noun_debit_1692780" transform="translate(0.75 0.75)">
    <path id="Path_1077" data-name="Path 1077" d="M156.435,127.069v43.956a2.851,2.851,0,0,1-2.852,2.851H90.851A2.851,2.851,0,0,1,88,171.024V127.069a2.851,2.851,0,0,1,2.851-2.851h62.732A2.851,2.851,0,0,1,156.435,127.069Z" transform="translate(-88 -124.217)" fill="none" stroke="#3883ee" stroke-linecap="round" stroke-linejoin="round" stroke-miterlimit="10" stroke-width="1.5"/>
    <rect id="Rectangle_1680" data-name="Rectangle 1680" width="68.435" height="8.936" transform="translate(0 9.267)" stroke-width="1.5" stroke="#3883ee" stroke-linecap="round" stroke-linejoin="round" stroke-miterlimit="10" fill="none"/>
    <path id="Path_1078" data-name="Path 1078" d="M287.347,239.691a5.388,5.388,0,1,1-5.38-5.4A5.39,5.39,0,0,1,287.347,239.691Z" transform="translate(-227.689 -205.76)" fill="none" stroke="#3883ee" stroke-linecap="round" stroke-linejoin="round" stroke-miterlimit="10" stroke-width="1.5"/>
    <path id="Path_1079" data-name="Path 1079" d="M253.116,239.691a5.351,5.351,0,0,1,1.285-3.459,5.337,5.337,0,0,0-4.1-1.937,5.4,5.4,0,1,0,0,10.792,5.337,5.337,0,0,0,4.1-1.937A5.352,5.352,0,0,1,253.116,239.691Z" transform="translate(-204.234 -205.76)" fill="none" stroke="#3883ee" stroke-linecap="round" stroke-linejoin="round" stroke-miterlimit="10" stroke-width="1.5"/>
    <line id="Line_26" data-name="Line 26" x2="9" transform="translate(8.777 30.857)" fill="none" stroke="#3883ee" stroke-linecap="round" stroke-linejoin="round" stroke-miterlimit="10" stroke-width="1.5"/>
    <line id="Line_27" data-name="Line 27" x2="18.786" transform="translate(8.777 37.005)" fill="none" stroke="#3883ee" stroke-linecap="round" stroke-linejoin="round" stroke-miterlimit="10" stroke-width="1.5"/>
  </g>
</svg>
