<svg xmlns="http://www.w3.org/2000/svg" width="54" height="55.537" viewBox="0 0 54 55.537">
  <path id="noun_United_States_186571" data-name="noun_United States_186571" d="M34.008,67.467a27.1,27.1,0,0,1-13.954-5.478,31.59,31.59,0,0,1-4.561-4.451A28.583,28.583,0,0,1,9.637,34.93a27.757,27.757,0,0,1,7.472-14.75,23.97,23.97,0,0,1,4.577-3.826,26.451,26.451,0,0,1,10.927-4.166,29.908,29.908,0,0,1,7.965.114,26.467,26.467,0,0,1,14.545,7.532,28.111,28.111,0,0,1,7.335,13.026,24.184,24.184,0,0,1,.78,6.865,25.984,25.984,0,0,1-1.5,9.351,27.25,27.25,0,0,1-21.219,18.12A40.045,40.045,0,0,1,34.008,67.467Zm4.744-1.71A25.216,25.216,0,0,0,56.6,55.661a23.433,23.433,0,0,0,2.689-4.41,26.251,26.251,0,0,0,2.555-12.356,24.852,24.852,0,0,0-2.81-11.008A25.571,25.571,0,0,0,43.306,14.7,25.311,25.311,0,0,0,14.372,26.527a26.854,26.854,0,0,0-3.158,9.053,5.436,5.436,0,0,1-.246,1.135,26.123,26.123,0,0,0-.108,5.375,21.08,21.08,0,0,0,.7,3.982c.063.121.393,1.1.732,2.173s.7,2.166.811,2.426a22.173,22.173,0,0,0,1.942,3.491c.21.241.647.8.971,1.251s.949,1.222,1.391,1.722a6,6,0,0,1,.8,1.033,22.808,22.808,0,0,0,3.2,2.812A33.5,33.5,0,0,0,27.148,64.1a27.115,27.115,0,0,0,7.334,1.708A29.173,29.173,0,0,0,38.752,65.757Zm-4.8-2.019a23.443,23.443,0,0,1-4.236-.886c-2.6-.787-2.959-.747,6.781-.75,5.794,0,8.7.037,8.582.114a23.1,23.1,0,0,1-3.852,1.168A24.886,24.886,0,0,1,33.949,63.737Zm-13.341-6.17a38.7,38.7,0,0,1-2.883-3.177l-.245-.344H55.507l-.392.553c-.216.3-1.058,1.237-1.872,2.073l-1.48,1.52-15.247,0-15.247,0-.661-.621ZM14.89,49.459c-.276-.621-.984-2.626-1.107-3.137L13.7,46H36.492c12.977,0,22.788.045,22.788.1,0,.175-1.062,3.216-1.25,3.58l-.176.341H15.14l-.25-.562ZM13,41.469c0-.4.065-.548.316-.731.31-.226.315-.226.784.043.428.246.464.251.386.05-.237-.612-.206-.809.162-1.05l.362-.237-.5-.059c-.468-.055-.512-.091-.614-.5-.06-.244-.144-.444-.186-.444s-.126.2-.186.444c-.081.328-.179.454-.376.482-.231.033-.266-.015-.263-.355a34.727,34.727,0,0,1,.368-3.561c.182-1.039.328-1.161.884-.737.358.273.417.29.361.1-.234-.785-.226-.837.179-1.126l.394-.281-.533-.059c-.515-.057-.534-.074-.569-.491-.069-.827,1.332-4.113,2.652-6.219l.682-1.088.352.251.352.251-.076-.287c-.042-.158-.105-.394-.141-.524-.047-.173.033-.3.3-.473.2-.13.334-.3.3-.387A5.99,5.99,0,0,1,19.714,22.8c.155-.157.165-.146.091.1l-.084.279.449-.305.449-.305.409.312.409.312-.076-.286c-.042-.157-.108-.4-.147-.539-.055-.2.012-.3.295-.469.465-.275.464-.4,0-.4-.305,0-.345-.029-.231-.168a8.789,8.789,0,0,1,1.987-1.455c-.1.271.053.255.432-.044l.313-.246.432.267.432.267-.077-.306c-.042-.168-.106-.382-.142-.475s.092-.277.346-.451c.226-.155.39-.316.364-.357A18.332,18.332,0,0,1,29.3,16.768a26.745,26.745,0,0,1,2.695-.711c1.168-.225,1.308-.231,1.562-.065.314.206.328.269.157.718-.165.434-.081.475.339.164l.355-.262.354.252c.471.335.494.323.34-.179-.127-.413-.115-.445.273-.769.363-.3.491-.338,1.238-.333.458,0,1.489.075,2.291.16,1.691.18,1.907.3,1.693.909-.175.5-.107.547.343.226l.372-.265.341.252a1.718,1.718,0,0,0,.412.252c.064,0,.006-.264-.15-.681-.085-.227.219-.181,1.477.222a24.338,24.338,0,0,1,6.538,3.238l.95.67v1.167h1.361l1.113,1.155A18.411,18.411,0,0,1,55.729,25.8a19.038,19.038,0,0,1-2.429.078H50.87l.032,1.983.032,1.983,3.573.031,3.573.031.352.916a30.405,30.405,0,0,1,.966,3.023c0,.045-1.918.083-4.261.083H50.876v4.022l4.587.031,4.587.031.036,1.48a18.007,18.007,0,0,1-.037,1.983l-.073.5H13l0-.5Zm7.094-.617a.63.63,0,0,1,.951-.064c.381.271.428.206.228-.318-.115-.3-.092-.363.262-.659l.389-.326h-.489c-.469,0-.5-.02-.662-.5-.113-.328-.2-.441-.243-.326-.038.1-.123.324-.188.5-.1.285-.181.326-.623.326h-.5l.436.3.436.3-.167.473C19.754,41.031,19.834,41.169,20.1,40.852Zm6.987-.064a1.131,1.131,0,0,1,.414-.231,1.131,1.131,0,0,1,.414.231c.43.336.483.293.3-.236l-.167-.473.436-.3.436-.3h-.506c-.482,0-.516-.023-.722-.5l-.216-.5-.153.5c-.147.484-.171.5-.637.506l-.484,0,.4.329.4.329-.183.438c-.206.493-.149.535.279.2Zm7.2-.2c.086-.04.317.045.512.19.421.312.506.271.341-.163-.182-.479-.153-.576.263-.867l.381-.266h-.505c-.3,0-.526-.061-.557-.148s-.113-.308-.188-.5l-.136-.355-.173.5c-.166.483-.193.5-.662.5H33.07l.389.326c.353.3.377.356.262.659-.191.5-.155.6.139.39A3.474,3.474,0,0,1,34.283,40.594Zm6.646.179c.352-.261.456-.25.937.1.272.2.28.2.213-.028-.23-.77-.222-.818.18-1.061l.39-.236-.5-.036c-.465-.034-.506-.066-.667-.533-.112-.324-.2-.435-.241-.319-.038.1-.123.324-.188.5-.1.286-.181.326-.623.326h-.5l.387.266c.392.27.428.466.2,1.065-.106.273,0,.261.415-.046Zm6.747.08a.63.63,0,0,1,.951-.064c.381.271.428.206.229-.315-.114-.3-.089-.361.266-.656l.392-.325-.484,0c-.466,0-.49-.022-.637-.506l-.153-.5-.216.5c-.206.48-.24.5-.722.5H46.8l.436.3.436.3-.167.473C47.333,41.031,47.413,41.169,47.676,40.852Zm-30.1-3.059.435.331-.078-.3c-.043-.163-.11-.41-.149-.549-.055-.2.012-.3.295-.469.49-.289.461-.381-.134-.424-.45-.033-.51-.074-.609-.421-.142-.5-.266-.488-.364.03-.076.4-.093.414-.635.419l-.557,0,.4.342c.407.348.425.472.17,1.147-.065.172.009.149.355-.113l.437-.332.435.331Zm6.073-.022.4-.294.386.294a2.284,2.284,0,0,0,.448.294c.034,0-.015-.218-.109-.485-.163-.463-.159-.5.094-.706a1.131,1.131,0,0,1,.354-.225.113.113,0,0,0,.089-.122c0-.065-.209-.118-.464-.118-.426,0-.476-.034-.6-.415-.156-.474-.3-.452-.414.062-.073.33-.114.354-.631.358l-.553,0,.437.357.437.357-.165.468a1.982,1.982,0,0,0-.134.468,4.055,4.055,0,0,0,.43-.294Zm7.7,0c.218.161.417.273.442.248a1.134,1.134,0,0,0-.131-.467l-.176-.422.436-.356.436-.356-.553,0c-.516,0-.558-.027-.631-.358-.113-.514-.258-.535-.414-.062-.126.381-.175.415-.6.415-.557,0-.583.1-.105.414.259.171.341.3.3.473-.034.13-.1.366-.141.524l-.079.287.413-.315.413-.315.4.293Zm6.947.023c.376.285.425.3.347.095-.248-.649-.219-.823.183-1.125l.394-.3-.529-.059c-.476-.053-.54-.1-.639-.444-.06-.212-.148-.385-.194-.385s-.133.173-.194.385c-.1.347-.159.388-.609.421-.594.043-.623.135-.134.424.281.166.349.274.3.469-.037.14-.1.387-.149.55l-.081.3.435-.332.436-.332Zm6.071-.022.4-.294.411.314.411.314-.076-.286c-.042-.157-.1-.392-.14-.523-.047-.172.033-.3.295-.473.2-.13.359-.274.359-.319s-.223-.1-.5-.118c-.45-.033-.505-.072-.6-.425-.116-.451-.276-.412-.387.094-.073.331-.114.354-.631.357l-.553,0,.4.334c.407.338.429.474.178,1.129C43.842,38.13,43.9,38.117,44.363,37.772ZM21.011,34.821l.427.326-.076-.286c-.042-.157-.108-.4-.147-.539-.055-.2.012-.3.295-.469.488-.288.461-.4-.1-.4-.44,0-.472-.026-.634-.5l-.171-.5-.154.5c-.151.5-.162.5-.7.506l-.544,0,.4.334c.411.341.429.466.167,1.158-.065.171.012.146.36-.117l.442-.336Zm6.066,0c.411-.3.446-.3,1.042.129l.266.191-.178-.506c-.165-.467-.162-.517.03-.656.727-.525.725-.517.138-.521-.535,0-.546-.011-.7-.507l-.154-.5-.171.5c-.168.495-.18.5-.723.507-.6,0-.6,0,.129.521.191.138.194.191.035.641a2.191,2.191,0,0,0-.142.491A3.982,3.982,0,0,0,27.077,34.816Zm7.777.015c.348.264.425.289.36.117-.262-.692-.244-.817.167-1.158l.4-.334-.557,0c-.542,0-.559-.014-.635-.417-.1-.519-.251-.531-.38-.03-.09.348-.146.388-.6.421-.591.043-.62.135-.131.424.281.166.349.274.3.469-.037.14-.1.383-.147.541l-.079.287.428-.327.428-.327.442.336Zm6.853-.024c.444.338.479.3.274-.288-.128-.366-.113-.4.265-.7l.4-.312-.528-.059c-.474-.053-.539-.1-.637-.444-.06-.212-.148-.385-.194-.385s-.133.173-.194.385c-.1.346-.163.391-.639.444l-.529.059.4.283c.407.29.436.471.181,1.138-.077.2-.026.188.352-.1L41.3,34.5l.409.312Zm6.4-.212c.074-.042.276.035.45.172.394.31.489.228.314-.274-.145-.415-.165-.382.523-.864.218-.153.193-.167-.316-.172-.542-.006-.555-.015-.723-.509l-.171-.5-.154.5c-.151.5-.162.5-.7.507-.588,0-.59,0,.144.525.2.144.2.184.03.6-.242.579-.239.586.141.322.179-.124.386-.26.46-.3Zm-31.3-2.818.354-.252.355.262c.434.321.5.276.319-.231-.13-.372-.116-.409.266-.726l.4-.334-.493,0c-.473,0-.5-.024-.667-.506-.113-.328-.2-.441-.243-.326-.038.1-.123.324-.188.5-.1.285-.182.326-.625.329-.479,0-.493.013-.269.186a4.633,4.633,0,0,0,.4.277c.133.077.142.192.042.584-.068.269-.1.488-.066.488a2.09,2.09,0,0,0,.411-.252Zm6.86,0c.361-.257.445-.249.922.1.285.206.286.205.208-.106-.043-.172-.109-.393-.147-.491-.045-.117.086-.283.382-.484l.451-.306h-.556c-.553,0-.556,0-.695-.5l-.139-.5-.156.355a2.045,2.045,0,0,0-.161.5c0,.1-.2.148-.566.148h-.561l.433.308.433.308-.163.461c-.188.532-.158.551.316.214Zm7.171-.179c.079-.038.3.043.492.179.474.338.5.318.316-.214l-.163-.461.433-.308.433-.308h-.542c-.535,0-.544-.007-.7-.5l-.154-.5-.171.5c-.164.483-.19.5-.664.506l-.493,0,.392.325c.355.295.38.356.266.656-.19.5-.153.6.141.387a3.576,3.576,0,0,1,.41-.262Zm6.667.168.35-.259.364.269c.2.148.387.247.415.219a.952.952,0,0,0-.088-.446c-.131-.376-.118-.413.261-.729l.4-.333h-.5c-.3,0-.524-.061-.554-.148s-.113-.308-.188-.5l-.136-.355-.137.473c-.128.443-.171.477-.649.533l-.512.059.377.277c.379.278.4.407.167,1.014-.1.256.015.237.431-.07Zm6.873.013.345-.246.413.255c.438.271.489.215.287-.316-.114-.3-.089-.361.266-.656l.392-.325-.5,0c-.478,0-.5-.022-.64-.477-.157-.524-.22-.518-.41.039-.113.331-.191.383-.651.435l-.523.059.437.272.437.272-.165.468c-.19.538-.161.558.31.223ZM20.1,28.9a.594.594,0,0,1,.91-.07c.391.308.461.245.285-.254-.13-.369-.117-.409.248-.716l.386-.326h-.489c-.469,0-.5-.02-.662-.5-.113-.328-.2-.441-.243-.326-.038.1-.123.324-.188.5-.1.286-.181.326-.624.326h-.5l.433.308.433.308-.163.461c-.165.469-.083.6.178.288Zm7.42-.3a1.242,1.242,0,0,1,.4.234c.43.336.483.293.3-.236l-.167-.473.436-.3.436-.3h-.541c-.534,0-.544-.007-.7-.5l-.154-.5-.155.355a2.052,2.052,0,0,0-.16.5c0,.094-.189.149-.508.151l-.5,0,.369.322c.3.265.353.375.278.618-.171.56-.133.621.23.363a1.44,1.44,0,0,1,.444-.242Zm6.767.039c.086-.04.317.045.512.19.421.312.506.271.341-.163-.182-.479-.153-.576.263-.867l.381-.266h-.505c-.3,0-.526-.061-.557-.148s-.113-.308-.188-.5l-.136-.355-.173.5c-.166.483-.193.5-.662.5H33.07l.389.326c.353.3.377.356.262.659-.191.5-.155.6.139.39A3.474,3.474,0,0,1,34.283,28.638Zm6.527.259a.594.594,0,0,1,.91-.07c.39.307.433.268.259-.233-.131-.376-.118-.413.261-.729l.4-.333h-.494c-.474,0-.5-.019-.636-.474-.157-.524-.22-.518-.41.039-.113.331-.191.383-.651.435l-.523.059.393.237c.4.241.433.418.194,1.036-.1.251.1.274.3.034Zm6.987-.064c.372-.291.42-.291.84.008.37.263.415.2.218-.323-.114-.3-.089-.361.266-.656l.392-.325-.5,0c-.485,0-.5-.017-.637-.506l-.138-.5-.217.5c-.207.48-.24.5-.722.5H46.8l.436.3.436.3L47.5,28.6C47.315,29.127,47.368,29.17,47.8,28.834ZM23.777,25.744c.3-.2.313-.2.651.074.486.4.54.364.339-.2-.147-.417-.149-.511-.014-.587A4.027,4.027,0,0,0,25.2,24.7l.285-.238-.553,0c-.526,0-.56-.024-.69-.419-.157-.476-.293-.457-.4.058-.067.337-.1.358-.637.362l-.565,0,.437.357.437.357-.167.473c-.177.5-.167.505.426.1Zm7.568.071a1.224,1.224,0,0,0,.437.253,1.253,1.253,0,0,0-.137-.463l-.177-.423.441-.361.441-.361-.553,0c-.516,0-.558-.027-.631-.358-.113-.514-.258-.535-.414-.062-.126.381-.175.415-.6.415-.557,0-.583.1-.105.414.259.171.341.3.3.473-.034.13-.1.366-.141.524l-.079.287.413-.315.413-.315.4.293Zm6.947.023c.376.285.425.3.347.095-.254-.664-.227-.854.151-1.077.491-.29.463-.382-.132-.425-.45-.033-.51-.074-.609-.421-.06-.212-.148-.385-.194-.385s-.133.173-.194.385c-.1.347-.159.388-.609.421-.594.043-.623.135-.134.424.377.222.384.279.146,1.075-.061.2-.014.191.361-.095l.431-.329.437.332Zm6.071-.022.4-.294.411.314.411.314-.076-.286c-.042-.157-.1-.392-.14-.523-.047-.172.033-.3.295-.473.2-.13.359-.274.359-.319s-.222-.1-.493-.118c-.445-.033-.507-.077-.637-.451l-.144-.414-.132.333a1.963,1.963,0,0,0-.132.444c0,.061-.253.112-.562.114l-.562,0,.4.334c.407.338.429.474.178,1.129-.1.253-.044.239.424-.106ZM27.077,22.861c.411-.3.446-.3,1.042.129l.266.191-.178-.506c-.165-.467-.162-.517.03-.656.728-.526.726-.517.124-.521-.554,0-.558-.007-.7-.507l-.139-.5-.171.5c-.168.495-.181.5-.724.507-.6,0-.6,0,.129.521.191.138.194.191.035.641a2.191,2.191,0,0,0-.142.491,3.982,3.982,0,0,0,.426-.291Zm7.777.015c.348.264.425.289.36.117-.262-.692-.244-.817.167-1.158l.4-.334-.557,0c-.542,0-.559-.014-.635-.417-.1-.517-.222-.528-.364-.03-.1.347-.159.388-.609.421-.594.043-.623.135-.134.424.281.166.349.274.3.469-.037.14-.1.383-.147.541l-.079.287.428-.327.428-.327.442.336Zm6.871-.01.427.326-.076-.286c-.042-.157-.108-.4-.147-.539-.055-.2.012-.3.295-.469.49-.289.461-.381-.134-.424-.45-.033-.51-.074-.609-.421-.142-.5-.282-.488-.379.03-.075.4-.094.414-.627.417l-.549,0,.4.334c.411.341.429.466.167,1.158-.065.171.012.146.36-.117l.442-.336.427.326Zm6.071-.008.4-.294.412.315.412.315-.07-.346a4.246,4.246,0,0,0-.138-.523c-.043-.113.062-.264.287-.414.474-.316.448-.414-.108-.414-.44,0-.472-.026-.634-.5l-.171-.5-.154.5c-.151.5-.162.5-.7.507l-.544,0,.437.357.437.357-.165.468a1.982,1.982,0,0,0-.134.468,4.056,4.056,0,0,0,.43-.294Zm-16.14-3.216-.166-.469.424-.289.424-.289L31.8,18.56c-.52-.034-.544-.053-.69-.533l-.152-.5-.171.5c-.164.483-.191.5-.664.508l-.493,0,.386.33c.36.309.377.355.253.711-.175.5-.083.566.35.246l.355-.263.39.305a1.376,1.376,0,0,0,.425.271,1.692,1.692,0,0,0-.131-.5Zm6.906.006c-.142-.43-.135-.451.255-.769l.4-.327-.529-.038c-.483-.035-.538-.071-.639-.423-.06-.212-.148-.385-.194-.385s-.133.173-.194.385c-.1.351-.156.388-.639.423l-.529.038.4.329c.382.312.4.349.266.721-.177.509-.112.556.336.237l.367-.261.38.295a1.16,1.16,0,0,0,.421.256A1.321,1.321,0,0,0,38.562,19.648Zm6.529.182c.438.324.5.28.323-.228-.13-.372-.116-.409.266-.726l.4-.334-.5,0c-.477,0-.5-.023-.639-.473-.164-.546-.284-.529-.393.054-.076.405-.092.416-.635.417h-.557l.4.312c.4.319.434.507.183,1.158-.073.189-.011.17.352-.107l.441-.336.359.265ZM12.882,40.345c0-.212.051-.385.117-.385.15,0,.15.359,0,.592C12.911,40.687,12.883,40.637,12.882,40.345Z" transform="translate(-9.238 -11.974)" fill="#3883ee"/>
</svg>
