<svg xmlns="http://www.w3.org/2000/svg" width="73.999" height="47.92" viewBox="0 0 73.999 47.92">
  <g id="noun_Laptop_18867" transform="translate(0 -17.622)">
    <path id="Path_72" data-name="Path 72" d="M65.415,23.708H15.366a2.326,2.326,0,0,0-2.326,2.325V55.8a2.326,2.326,0,0,0,2.326,2.327h50.05A2.33,2.33,0,0,0,67.741,55.8V26.033A2.331,2.331,0,0,0,65.415,23.708Zm.85,32.089a.85.85,0,0,1-.85.851H15.366a.85.85,0,0,1-.85-.851V26.033a.85.85,0,0,1,.85-.85h50.05a.85.85,0,0,1,.85.85Z" transform="translate(-3.39 -1.582)" fill="#3883ee"/>
    <path id="Path_73" data-name="Path 73" d="M73.262,59.568H68.8a2.238,2.238,0,0,0,.165-.849V19.948a2.33,2.33,0,0,0-2.326-2.326H7.366a2.331,2.331,0,0,0-2.327,2.326V58.719a2.222,2.222,0,0,0,.166.849H.738A.734.734,0,0,0,0,60.306c0,2.987,4.751,5.236,11.061,5.236H62.94c6.308,0,11.059-2.25,11.059-5.236A.733.733,0,0,0,73.262,59.568Zm-10.321,4.5H11.061c-4.875,0-8.476-1.476-9.374-3.023H29.965a1.58,1.58,0,0,0,1.4.844H42.631a1.578,1.578,0,0,0,1.4-.844H72.312C71.416,62.591,67.816,64.066,62.94,64.066ZM6.516,58.718V19.948a.85.85,0,0,1,.85-.85H66.635a.85.85,0,0,1,.85.85V58.719a.849.849,0,0,1-.85.849H7.366A.849.849,0,0,1,6.516,58.718Z" fill="#3883ee"/>
  </g>
</svg>
