<svg xmlns="http://www.w3.org/2000/svg" width="38.553" height="38.553" viewBox="0 0 38.553 38.553">
  <g id="noun_hiring_652196" transform="translate(-12.39 -12.39)">
    <path id="Path_1041" data-name="Path 1041" d="M52.441,27.918a.769.769,0,1,0-1.253.891h0a17.737,17.737,0,0,1-26,23.741l3.082-.638a.769.769,0,1,0-.311-1.505l-5.107,1.057-.09,5.215A.769.769,0,0,0,24.3,56.7l.049-2.853A19.275,19.275,0,0,0,52.441,27.918Z" transform="translate(-5.055 -7.411)"/>
    <path id="Path_1042" data-name="Path 1042" d="M13.928,31.666a17.736,17.736,0,0,1,29.1-13.621l-2.864.592a.769.769,0,0,0,.312,1.506l5.106-1.057.089-5.216a.769.769,0,0,0-1.538-.026l-.053,3.075A19.278,19.278,0,0,0,15.658,42.41a.769.769,0,0,0,1.276-.858A17.644,17.644,0,0,1,13.928,31.666Z" transform="translate(0 0)"/>
    <path id="Path_1043" data-name="Path 1043" d="M33.61,48.723a.768.768,0,0,0,.769.769H49.755a.768.768,0,0,0,.769-.769,8.452,8.452,0,0,0-5.473-7.9,5.04,5.04,0,1,0-5.969,0A8.453,8.453,0,0,0,33.61,48.723Zm5.98-9.483a3.5,3.5,0,1,1,2.477,1.026A3.484,3.484,0,0,1,39.59,39.24ZM42.067,41.8a6.914,6.914,0,0,1,6.874,6.15H35.193a6.913,6.913,0,0,1,6.874-6.15Z" transform="translate(-10.344 -9.425)"/>
  </g>
</svg>
