<svg id="Layer_23" data-name="Layer 23" xmlns="http://www.w3.org/2000/svg" width="38.533" height="35.993" viewBox="0 0 38.533 35.993">
  <path id="Path_1039" data-name="Path 1039" d="M833.064,609.65a3.233,3.233,0,1,0,3.234,3.233A3.233,3.233,0,0,0,833.064,609.65Zm0,4.579a1.345,1.345,0,1,1,1.346-1.346A1.345,1.345,0,0,1,833.064,614.229Z" transform="translate(-801.579 -590.314)" fill="#040524"/>
  <path id="Path_1040" data-name="Path 1040" d="M127.4,117.6a.926.926,0,0,0-.1-.41,6.668,6.668,0,0,0-6.56-5.537h-1.777v-8.2a.944.944,0,0,0-1.288-.879l-23.686,9.269a6.669,6.669,0,0,0-5.12,6.475v13.522a6.67,6.67,0,0,0,6.663,6.662h25.208a6.67,6.67,0,0,0,6.662-6.662V118.315c0-.193-.013-.383-.029-.572A.887.887,0,0,0,127.4,117.6Zm-2.2-.944H91.065a4.77,4.77,0,0,1,2.111-2.472l1.4-.547a4.775,4.775,0,0,1,.951-.1h25.208A4.769,4.769,0,0,1,125.194,116.656Zm-8.125-5H99.644l17.425-6.82Zm3.665,24.959H95.526a4.78,4.78,0,0,1-4.775-4.774V118.544h34.757v13.294A4.779,4.779,0,0,1,120.734,136.612Z" transform="translate(-88.863 -102.507)" fill="#040524"/>
</svg>
