<svg xmlns="http://www.w3.org/2000/svg" width="39.264" height="38" viewBox="0 0 39.264 38">
  <g id="noun_message_965441" transform="translate(-5 -6.4)">
    <path id="Path_1030" data-name="Path 1030" d="M37.814,6.4H11.362A6.407,6.407,0,0,0,5,12.806V30.063a6.37,6.37,0,0,0,6.362,6.362h12.42L37.248,44.4l-.654-7.975h1.264a6.407,6.407,0,0,0,6.406-6.362V12.806A6.482,6.482,0,0,0,37.814,6.4ZM42.39,30.019a4.529,4.529,0,0,1-4.532,4.532H34.589l.523,6.406L24.305,34.595H11.362A4.529,4.529,0,0,1,6.83,30.063V12.806a4.529,4.529,0,0,1,4.532-4.532H37.814a4.529,4.529,0,0,1,4.532,4.532V30.019Z" transform="translate(0 0)" fill="#34456a"/>
  </g>
</svg>
