<svg xmlns="http://www.w3.org/2000/svg" width="35.02" height="35.02" viewBox="0 0 35.02 35.02">
  <g id="Close" transform="translate(-1403.99 -6999.99)">
    <circle id="Ellipse_4" data-name="Ellipse 4" cx="17.51" cy="17.51" r="17.51" transform="translate(1403.99 6999.99)" fill="#eee"/>
    <path id="Rounded_Rectangle_2_copy" data-name="Rounded Rectangle 2 copy" d="M1425.252,7022.665l-3.253-3.253-3.253,3.253a1.057,1.057,0,1,1-1.414-1.414l3.253-3.253-3.253-3.253a1.057,1.057,0,1,1,1.414-1.415l3.253,3.253,3.253-3.253a1.058,1.058,0,1,1,1.415,1.415l-3.253,3.253,3.253,3.253a1.25,1.25,0,0,1,.282,1.7.822.822,0,0,1-.6.227A1.619,1.619,0,0,1,1425.252,7022.665Z"/>
  </g>
</svg>
