<?xml version="1.0" encoding="utf-8"?>
<!-- Generator: Adobe Illustrator 16.0.0, SVG Export Plug-In . SVG Version: 6.00 Build 0)  -->
<!DOCTYPE svg PUBLIC "-//W3C//DTD SVG 1.1//EN" "http://www.w3.org/Graphics/SVG/1.1/DTD/svg11.dtd">
<svg version="1.1" id="Layer_1" xmlns="http://www.w3.org/2000/svg" xmlns:xlink="http://www.w3.org/1999/xlink" x="0px" y="0px"
	 width="420.977px" height="421.016px" viewBox="0 0 420.977 421.016" enable-background="new 0 0 420.977 421.016"
	 xml:space="preserve">
<g>
	<path fill-rule="evenodd" clip-rule="evenodd" fill="#177B3F" d="M0,210.508C0,94.249,94.237,0,210.488,0
		c116.251,0,210.488,94.249,210.488,210.508c0,116.261-94.237,210.508-210.488,210.508C94.237,421.016,0,326.769,0,210.508z"/>
</g>
<g>
	<path fill="#FFFFFF" d="M281.608,329.38l7.825,14.33l-12.545,6.795l2.631,4.826l12.545-6.8l5.107,9.363l-15.51,8.405l2.684,4.918
		l21.642-11.723l-18.246-33.433L281.608,329.38z"/>
	<path fill="#FFFFFF" d="M254.222,341.713l4.033,14.455l-5.566,1.537l-10.862-12.568l-7.718,2.128l11.896,13.246
		c-2.254,1.523-3.709,3.37-4.367,5.547c-0.652,2.177-0.672,4.382-0.048,6.616c0.575,2.06,1.571,3.806,2.988,5.242
		c1.417,1.432,3.221,2.379,5.407,2.849c2.186,0.469,4.749,0.295,7.689-0.518l13.497-3.724l-10.229-36.668L254.222,341.713z
		 M262.888,372.771l-6.302,1.741c-2.312,0.638-4.13,0.58-5.455-0.185c-1.324-0.764-2.234-2.017-2.718-3.763
		c-0.498-1.779-0.372-3.355,0.378-4.729c0.744-1.373,2.243-2.369,4.482-2.988l6.354-1.756L262.888,372.771z"/>
	<path fill="#FFFFFF" d="M203.036,348.913l0.228,5.596l17.922-0.716l0.45,10.974l-16.288,0.643l0.222,5.437l16.289-0.648
		l0.43,10.427l-17.922,0.711l0.227,5.596l24.896-0.987l-1.562-38.021L203.036,348.913z"/>
	<path fill="#FFFFFF" d="M171.891,343.938l-0.997,5.508l17.657,3.183l-1.949,10.804l-16.042-2.893l-0.967,5.35l16.046,2.892
		l-1.852,10.268l-17.652-3.183l-0.996,5.514l24.524,4.42l6.746-37.441L171.891,343.938z"/>
	<path fill="#FFFFFF" d="M134.86,328.616c-2.253-0.029-4.227,0.464-5.934,1.484c-1.703,1.021-3.022,2.409-3.966,4.164
		c-1.064,1.983-1.514,3.825-1.359,5.532c0.155,1.708,0.716,3.309,1.683,4.813c0.967,1.504,2.133,2.988,3.487,4.454
		c1.296,1.349,2.437,2.573,3.414,3.671s1.645,2.161,1.998,3.196c0.353,1.025,0.232,2.104-0.368,3.221
		c-0.706,1.306-1.698,2.061-2.979,2.264c-1.282,0.193-2.587-0.077-3.917-0.832c-1.567-0.837-2.548-1.944-2.945-3.327
		c-0.392-1.383-0.286-2.67,0.314-3.869l-6.586-3.521c-0.997,2.012-1.393,3.999-1.19,5.958c0.208,1.964,0.958,3.801,2.239,5.514
		c1.286,1.712,3.051,3.172,5.295,4.371c2.215,1.181,4.377,1.833,6.495,1.954c2.123,0.126,4.048-0.261,5.789-1.16
		c1.741-0.896,3.124-2.341,4.154-4.343c1.252-2.332,1.577-4.561,0.967-6.693s-1.968-4.344-4.086-6.621
		c-1.311-1.397-2.544-2.713-3.695-3.951c-1.156-1.229-1.949-2.457-2.389-3.676c-0.435-1.219-0.29-2.515,0.45-3.888
		c0.701-1.311,1.741-2.099,3.124-2.37c1.383-0.271,2.888,0.034,4.522,0.909c1.896,1.006,3.09,2.336,3.588,3.976
		c0.498,1.645,0.363,3.27-0.416,4.865l6.49,3.473c1.19-2.288,1.659-4.513,1.417-6.674c-0.242-2.162-1.078-4.174-2.52-6.031
		c-1.437-1.853-3.385-3.443-5.856-4.764C139.518,329.347,137.109,328.646,134.86,328.616z"/>
	<path fill="#FFFFFF" d="M119.578,316.835l-11.234,12.212l-12.617-11.544l11.234-12.212l-5.146-4.705l-25.782,28.021l5.141,4.706
		l10.722-11.65l12.617,11.549l-10.717,11.645l5.146,4.711l25.782-28.021L119.578,316.835z"/>
	<path fill="#FFFFFF" d="M93.492,288.781l-30.545,22.773l4.183,5.57l30.545-22.773L93.492,288.781z"/>
	<path fill="#FFFFFF" d="M85.653,276.676l-13.135,6.728l-3.269-6.331c-1.432-2.775-3.081-4.802-4.947-6.084
		c-1.872-1.286-3.806-1.943-5.803-1.982c-2.002-0.034-3.937,0.426-5.813,1.388c-1.968,1.011-3.521,2.355-4.657,4.038
		c-1.131,1.679-1.692,3.637-1.683,5.876c0.01,2.234,0.711,4.706,2.113,7.414l6.461,12.525l33.931-17.381L85.653,276.676z
		 M56.767,291.475l-3.071-5.948c-1.112-2.157-1.441-3.956-0.977-5.397c0.459-1.441,1.533-2.592,3.211-3.453
		c1.649-0.842,3.197-1.035,4.638-0.57c1.446,0.464,2.723,1.774,3.84,3.937l3.071,5.943L56.767,291.475z"/>
	<path fill="#FFFFFF" d="M72.822,246.314l-14.358,3.443l-1.678-6.92c-0.735-3.033-1.857-5.388-3.371-7.076
		c-1.509-1.688-3.235-2.785-5.17-3.288c-1.935-0.508-3.927-0.513-5.978-0.02c-2.152,0.513-3.98,1.456-5.484,2.824
		c-1.499,1.364-2.51,3.134-3.027,5.311c-0.517,2.176-0.42,4.739,0.295,7.699l3.318,13.686l37.093-8.894L72.822,246.314z
		 M41.242,253.888l-1.576-6.499c-0.571-2.36-0.464-4.184,0.329-5.475c0.789-1.287,2.104-2.152,3.937-2.593
		c1.804-0.435,3.352-0.251,4.648,0.537c1.291,0.788,2.225,2.365,2.8,4.725l1.572,6.5L41.242,253.888z"/>
	<path fill="#FFFFFF" d="M67.648,213.801l-38.08,2.442l0.455,6.94l38.085-2.442L67.648,213.801z"/>
	<path fill="#FFFFFF" d="M67.575,199.421l-26.599-3.456l28.896-14.276l0.895-6.899l-37.848-4.918l-0.895,6.898l26.657,3.463
		l-28.954,14.269l-0.895,6.899l37.848,4.918L67.575,199.421z"/>
	<path fill="#FFFFFF" d="M81.634,145.476c-0.135-2.084-0.778-4.063-1.935-5.929l4.803,1.558l2.636-5.847l-19.146-8.596
		l-6.838,15.164l4.773,2.143l3.956-8.771c2.636,1.582,4.449,3.557,5.431,5.924c0.987,2.37,0.769,5.124-0.643,8.263
		c-1.446,3.204-3.642,5.267-6.587,6.186c-2.945,0.923-6.345,0.52-10.189-1.207s-6.447-4.026-7.801-6.898
		c-1.359-2.873-1.253-6.045,0.31-9.513c0.981-2.181,2.244-3.76,3.782-4.739c1.538-0.977,3.235-1.366,5.097-1.166l3.197-7.085
		c-3.806-0.757-7.288-0.234-10.451,1.563c-3.163,1.799-5.658,4.729-7.491,8.792c-1.611,3.569-2.229,6.995-1.857,10.279
		c0.373,3.286,1.61,6.246,3.714,8.876c2.104,2.633,4.942,4.754,8.526,6.36c3.545,1.593,6.959,2.312,10.238,2.157
		c3.279-0.157,6.214-1.122,8.812-2.897c2.592-1.775,4.628-4.299,6.103-7.568C81.247,149.913,81.77,147.565,81.634,145.476z"/>
	<path fill="#FFFFFF" d="M134.338,90.122l-8.091-14.18l12.41-7.029l-2.723-4.776l-12.415,7.032l-5.286-9.264l15.35-8.696
		l-2.776-4.868l-21.414,12.129l18.88,33.086L134.338,90.122z"/>
	<path fill="#FFFFFF" d="M161.459,77.282l-4.309-14.375l5.537-1.645l11.099,12.361l7.68-2.28l-12.148-13.014
		c2.22-1.567,3.637-3.443,4.256-5.631c0.614-2.188,0.585-4.392-0.078-6.616c-0.614-2.048-1.644-3.774-3.09-5.182
		c-1.446-1.403-3.265-2.319-5.46-2.747c-2.196-0.426-4.754-0.203-7.68,0.665l-13.425,3.985l10.935,36.467L161.459,77.282z
		 M152.198,46.391l6.268-1.859c2.302-0.682,4.12-0.655,5.46,0.082c1.335,0.735,2.268,1.973,2.791,3.709
		c0.527,1.77,0.435,3.349-0.29,4.737c-0.721,1.386-2.196,2.411-4.425,3.071l-6.321,1.879L152.198,46.391z"/>
	<path fill="#FFFFFF" d="M212.438,69.108l-0.339-5.59l-17.903,1.059l-0.663-10.961l16.269-0.96l-0.329-5.426l-16.269,0.96
		l-0.634-10.417l17.903-1.057l-0.338-5.59l-24.868,1.47l2.297,37.98L212.438,69.108z"/>
	<path fill="#FFFFFF" d="M243.736,73.502l0.886-5.527l-17.71-2.851l1.745-10.84l16.095,2.592l0.866-5.366l-16.1-2.592l1.659-10.301
		l17.709,2.851l0.891-5.525l-24.602-3.961l-6.041,37.558L243.736,73.502z"/>
	<path fill="#FFFFFF" d="M281.028,88.112c2.249-0.01,4.217-0.542,5.9-1.596c1.683-1.054,2.979-2.469,3.888-4.244
		c1.025-1.997,1.441-3.85,1.253-5.554c-0.188-1.703-0.778-3.296-1.775-4.781c-0.996-1.484-2.186-2.945-3.573-4.384
		c-1.32-1.325-2.481-2.527-3.482-3.605c-0.996-1.081-1.683-2.133-2.056-3.155c-0.377-1.025-0.271-2.102,0.305-3.231
		c0.678-1.323,1.654-2.094,2.936-2.319c1.277-0.223,2.588,0.029,3.933,0.754c1.581,0.808,2.587,1.901,3.008,3.274
		c0.416,1.374,0.338,2.665-0.242,3.874l6.654,3.393c0.958-2.034,1.316-4.026,1.074-5.98c-0.247-1.956-1.025-3.779-2.346-5.47
		c-1.32-1.688-3.114-3.112-5.378-4.265c-2.234-1.142-4.41-1.753-6.528-1.838c-2.123-0.082-4.043,0.338-5.765,1.272
		c-1.727,0.931-3.081,2.406-4.072,4.422c-1.209,2.355-1.489,4.592-0.837,6.713c0.648,2.121,2.051,4.302,4.213,6.541
		c1.334,1.375,2.592,2.667,3.771,3.878c1.176,1.209,1.993,2.418,2.457,3.632c0.459,1.211,0.334,2.51-0.377,3.898
		c-0.678,1.323-1.703,2.133-3.076,2.425c-1.378,0.295-2.892,0.022-4.541-0.82c-1.91-0.975-3.134-2.278-3.661-3.912
		c-0.532-1.632-0.426-3.255,0.319-4.87l-6.558-3.342c-1.142,2.307-1.567,4.536-1.286,6.695c0.285,2.16,1.16,4.152,2.635,5.98
		c1.471,1.828,3.453,3.38,5.944,4.65C276.356,87.469,278.774,88.124,281.028,88.112z"/>
	<path fill="#FFFFFF" d="M296.528,99.591l10.992-12.424l12.845,11.3l-10.997,12.424l5.237,4.606l25.23-28.514l-5.232-4.606
		l-10.49,11.854l-12.845-11.3l10.489-11.854l-5.232-4.604l-25.234,28.514L296.528,99.591z"/>
	<path fill="#FFFFFF" d="M323.17,127.167l30.105-23.349l-4.285-5.491l-30.109,23.347L323.17,127.167z"/>
	<path fill="#FFFFFF" d="M331.232,139.112l13-6.981l3.395,6.27c1.484,2.742,3.172,4.739,5.063,5.987
		c1.896,1.248,3.84,1.872,5.842,1.867c1.997-0.002,3.927-0.503,5.784-1.5c1.949-1.047,3.473-2.423,4.575-4.125
		c1.103-1.703,1.625-3.673,1.571-5.91c-0.053-2.234-0.808-4.691-2.258-7.373l-6.703-12.395l-33.582,18.032L331.232,139.112z
		 M359.823,123.757l3.188,5.888c1.155,2.135,1.519,3.929,1.083,5.377c-0.436,1.449-1.484,2.619-3.148,3.511
		c-1.63,0.875-3.172,1.095-4.623,0.663c-1.456-0.435-2.757-1.722-3.912-3.859l-3.188-5.885L359.823,123.757z"/>
	<path fill="#FFFFFF" d="M344.647,169.202l14.291-3.726l1.813,6.889c0.793,3.013,1.964,5.351,3.512,7.007
		c1.542,1.659,3.288,2.72,5.232,3.187s3.937,0.436,5.978-0.097c2.143-0.559,3.951-1.538,5.426-2.933
		c1.471-1.395,2.447-3.185,2.921-5.371c0.479-2.186,0.329-4.749-0.449-7.694l-3.589-13.619l-36.909,9.626L344.647,169.202z
		 M376.073,161.007l1.707,6.468c0.619,2.348,0.542,4.174-0.223,5.479c-0.764,1.303-2.06,2.195-3.888,2.672
		c-1.79,0.467-3.342,0.319-4.652-0.445s-2.273-2.319-2.893-4.669l-1.702-6.466L376.073,161.007z"/>
	<path fill="#FFFFFF" d="M350.471,201.648l38.021-3.177l-0.59-6.935l-38.026,3.18L350.471,201.648z"/>
	<path fill="#FFFFFF" d="M350.823,215.992l26.667,2.931l-28.615,14.842l-0.76,6.916l37.939,4.174l0.76-6.916l-26.72-2.94
		l28.663-14.832l0.76-6.916l-37.935-4.174L350.823,215.992z"/>
	<path fill="#FFFFFF" d="M337.844,270.186c0.174,2.09,0.855,4.053,2.045,5.896l-4.831-1.466l-2.515,5.9l19.311,8.217l6.534-15.297
		l-4.817-2.051l-3.777,8.851c-2.669-1.528-4.517-3.468-5.547-5.813c-1.035-2.35-0.875-5.106,0.479-8.274
		c1.378-3.235,3.535-5.339,6.461-6.32c2.931-0.978,6.33-0.639,10.209,1.011c3.884,1.648,6.528,3.897,7.94,6.746
		c1.412,2.844,1.369,6.016-0.125,9.518c-0.938,2.195-2.167,3.801-3.686,4.807s-3.206,1.432-5.073,1.268l-3.057,7.147
		c3.821,0.683,7.293,0.092,10.422-1.77c3.124-1.857,5.562-4.836,7.313-8.938c1.538-3.598,2.089-7.036,1.649-10.315
		c-0.436-3.274-1.731-6.21-3.889-8.802c-2.152-2.587-5.034-4.652-8.646-6.19c-3.579-1.523-7.003-2.171-10.282-1.949
		c-3.273,0.218-6.19,1.238-8.748,3.066c-2.559,1.828-4.541,4.392-5.953,7.689C338.139,265.746,337.664,268.106,337.844,270.186z"/>
</g>
<path fill="#FFFFFF" d="M289.114,143.295c0,35.197,0,70.391,0,105.588c-1.229,3.273-3.617,4.526-7.061,4.4
	c-4.188-0.149-8.396-0.033-12.545-0.033c-3.676,11.374-12.816,15.935-20.854,15.964c-4.372,0.01-8.415-1.185-12.042-3.637
	c-4.439-2.989-7.332-7.134-8.86-12.27c-18.229,0-36.375,0-54.583,0c-0.237,0.629-0.474,1.253-0.711,1.876
	c-1.954,5.142-5.354,9.034-10.219,11.563c-11.631,6.064-25.771,0.537-30.187-11.819c-0.489-1.373-1.117-1.794-2.491-1.707
	c-1.843,0.111-3.7-0.072-5.542,0.048c-3.443,0.228-5.837-1.112-7.066-4.386c0-15.805,0-31.609,0-47.414
	c0.358-0.754,0.697-1.519,1.083-2.258c4.865-9.45,9.779-18.875,14.586-28.354c1.427-2.82,3.472-4.102,6.664-4.082
	c12.375,0.082,24.756,0.034,37.137,0.034c0.648,0,1.301,0,2.07,0c0-0.827,0-1.437,0-2.041c0-6.5-0.014-12.995,0.005-19.495
	c0.01-3.854,2.138-6.041,5.973-6.195c0.45-0.02,0.899-0.01,1.344-0.01c31.984,0,63.971,0.029,95.957-0.039
	C285.207,139.024,287.76,139.992,289.114,143.295z M277.846,242.107c0-30.734,0-61.23,0-91.693c-29.461,0-58.778,0-88.126,0
	c0,30.593,0,61.046,0,91.693c0.692,0,1.292,0,1.891,0c11.433,0,22.863-0.024,34.296,0.038c1.422,0.01,1.963-0.454,2.438-1.765
	c4.101-11.452,16.732-17.202,28.068-12.763c6.19,2.423,10.33,6.901,12.613,13.14c0.203,0.537,0.851,1.268,1.324,1.291
	C272.797,242.175,275.264,242.107,277.846,242.107z M178.364,242.054c0-11.282,0-22.396,0-33.461c-16.801,0-33.476,0-50.18,0
	c0,11.2,0,22.266,0,33.321c3.008,0.503,3.008,0.503,4.048-2.167c5.359-13.778,23.006-18.082,34.172-8.343
	c3.303,2.883,5.45,6.485,6.747,10.649C174.901,242.054,176.565,242.054,178.364,242.054z M178.427,178.038
	c-0.338-0.049-0.498-0.092-0.662-0.092c-11.713-0.004-23.422,0.01-35.135-0.039c-1.011-0.005-1.345,0.508-1.717,1.233
	c-2.447,4.783-4.914,9.556-7.37,14.334c-0.604,1.17-1.195,2.351-1.886,3.705c15.732,0,31.217,0,46.77,0
	C178.427,190.767,178.427,184.456,178.427,178.038z M152.259,258.023c5.711,0.009,10.373-4.604,10.417-10.297
	c0.043-5.711-4.783-10.528-10.466-10.455c-5.697,0.072-10.368,4.777-10.344,10.422C141.89,253.375,146.552,258.014,152.259,258.023z
	 M258.956,247.645c-0.02-5.697-4.662-10.359-10.35-10.383c-5.658-0.02-10.339,4.633-10.388,10.339
	c-0.049,5.77,4.643,10.461,10.427,10.427C254.381,257.989,258.966,253.365,258.956,247.645z"/>
<path fill="#FFFFFF" d="M225.896,196.952c6.828-6.064,13.821-12.274,20.805-18.484c2.051-1.823,4.092-3.661,6.161-5.465
	c2.728-2.384,6.055-2.321,8.241,0.121c2.176,2.437,1.886,5.779-0.813,8.192c-10.253,9.135-20.516,18.247-30.787,27.343
	c-2.921,2.583-5.852,2.457-8.608-0.324c-4.623-4.652-9.228-9.324-13.81-14.01c-2.554-2.612-2.669-5.896-0.358-8.217
	c2.331-2.346,5.666-2.152,8.354,0.445C218.623,189.979,222.182,193.383,225.896,196.952z"/>
</svg>
