<svg xmlns="http://www.w3.org/2000/svg" width="1750.155" height="758.027" viewBox="0 0 1750.155 758.027">
  <g id="BG_img" data-name="BG img" transform="translate(-56.521 -97.993)">
    <path id="Shape_4" data-name="Shape 4" d="M56.521,850.877c-.092,15.62,109.14.6,129.882-114.82C186.4,736.057,57.116,749.982,56.521,850.877Z" opacity="0.031"/>
    <path id="Shape_4_copy" data-name="Shape 4 copy" d="M133.493,224.931c1.486,15.5,108.556-10.4,117.517-126.938C251.01,97.993,123.894,124.827,133.493,224.931Z" opacity="0.031"/>
    <path id="Shape_4_copy_2" data-name="Shape 4 copy 2" d="M1801.719,755.922c15.62-.153-1.11-109.137-116.846-128.063C1684.874,627.859,1700.828,756.911,1801.719,755.922Z" opacity="0.031"/>
    <path id="Shape_4_copy_6" data-name="Shape 4 copy 6" d="M114.727,487.323c.443,15.614,109.1-3.135,125.872-119.2C240.6,368.12,111.865,386.468,114.727,487.323Z" opacity="0.031"/>
    <path id="Shape_4_copy_3" data-name="Shape 4 copy 3" d="M871.477,125.909c-15.514,1.824,12.786,108.389,129.883,114.818C1001.36,240.727,971.683,114.124,871.477,125.909Z" opacity="0.031"/>
    <path id="Shape_4_copy_7" data-name="Shape 4 copy 7" d="M705.842,684.831c2.253-15.458-108.006-15.7-144.523,95.74C561.319,780.571,691.289,784.672,705.842,684.831Z" opacity="0.031"/>
    <path id="Shape_4_copy_4" data-name="Shape 4 copy 4" d="M1499.253,668.289c5.691,14.547,101.627-39.8,78.214-154.711C1577.467,513.577,1462.5,574.326,1499.253,668.289Z" opacity="0.031"/>
    <path id="Shape_4_copy_5" data-name="Shape 4 copy 5" d="M1565.036,267.859c-15.619-.2-1.4,109.134,113.876,130.712C1678.911,398.57,1665.923,269.186,1565.036,267.859Z" opacity="0.031"/>
  </g>
</svg>
