<svg xmlns="http://www.w3.org/2000/svg" width="89.119" height="16.282" viewBox="0 0 89.119 16.282">
  <g id="star" transform="translate(-318.44 -4541.997)">
    <path id="Polygon_1" data-name="Polygon 1" d="M327,4542l2.782,5.171,5.778,1.047-4.058,4.244.789,5.819-5.29-2.548-5.29,2.548.789-5.819-4.058-4.244,5.778-1.047Z" fill="#efa41c"/>
    <path id="Polygon_1_copy" data-name="Polygon 1 copy" d="M345,4542l2.782,5.171,5.778,1.047-4.058,4.244.789,5.819-5.29-2.548-5.29,2.548.789-5.819-4.058-4.244,5.778-1.047Z" fill="#efa41c"/>
    <path id="Polygon_1_copy_2" data-name="Polygon 1 copy 2" d="M363,4542l2.782,5.171,5.778,1.047-4.058,4.244.789,5.819-5.29-2.548-5.29,2.548.789-5.819-4.058-4.244,5.778-1.047Z" fill="#efa41c"/>
    <path id="Polygon_1_copy_3" data-name="Polygon 1 copy 3" d="M381,4542l2.782,5.171,5.778,1.047-4.058,4.244.789,5.819-5.29-2.548-5.29,2.548.789-5.819-4.058-4.244,5.778-1.047Z" fill="#efa41c"/>
    <path id="Polygon_1_copy_4" data-name="Polygon 1 copy 4" d="M399,4542l2.782,5.171,5.778,1.047-4.058,4.244.789,5.819-5.29-2.548-5.29,2.548.789-5.819-4.058-4.244,5.778-1.047Z" fill="#efa41c"/>
  </g>
</svg>
