<svg width="76" height="76" viewBox="0 0 76 76" fill="none" xmlns="http://www.w3.org/2000/svg">
<rect width="76" height="76" rx="38" fill="#F8F8F8"/>
<path fill-rule="evenodd" clip-rule="evenodd" d="M53.8593 53.7499C54.7654 53.7499 55.4999 53.0154 55.4999 52.1093V31.3281C55.4999 30.035 54.0691 29.25 52.9785 29.944L43.4687 35.9957V31.3281C43.4687 30.035 42.0379 29.25 40.9473 29.944L31.4375 35.9957V24.7656C31.4375 23.8595 30.7029 23.125 29.7969 23.125H22.1406C21.2345 23.125 20.5 23.8595 20.5 24.7656V52.1093C20.5 53.0154 21.2345 53.7499 22.1406 53.7499H53.8593ZM52.2187 50.4687H23.7812V26.4062H28.1562V38.9843C28.1562 40.2774 29.587 41.0624 30.6776 40.3685L40.1875 34.3168V38.9843C40.1875 40.2774 41.6183 41.0624 42.7089 40.3685L52.2187 34.3168V50.4687ZM48.1171 47.1874C48.5702 47.1874 48.9375 46.8201 48.9375 46.3671V43.6328C48.9375 43.1797 48.5702 42.8125 48.1171 42.8125H45.3828C44.9298 42.8125 44.5625 43.1797 44.5625 43.6328V46.3671C44.5625 46.8201 44.9298 47.1874 45.3828 47.1874H48.1171ZM39.3672 47.1874C39.8202 47.1874 40.1875 46.8201 40.1875 46.3671V43.6328C40.1875 43.1797 39.8202 42.8125 39.3672 42.8125H36.6328C36.1798 42.8125 35.8125 43.1797 35.8125 43.6328V46.3671C35.8125 46.8201 36.1798 47.1874 36.6328 47.1874H39.3672ZM30.6172 47.1874C31.0702 47.1874 31.4375 46.8201 31.4375 46.3671V43.6328C31.4375 43.1797 31.0702 42.8125 30.6172 42.8125H27.8828C27.4298 42.8125 27.0625 43.1797 27.0625 43.6328V46.3671C27.0625 46.8201 27.4298 47.1874 27.8828 47.1874H30.6172Z" fill="#00AFA3"/>
</svg>
