<svg width="76" height="76" viewBox="0 0 76 76" fill="none" xmlns="http://www.w3.org/2000/svg">
<rect width="76" height="76" rx="38" fill="#F8F8F8"/>
<path fill-rule="evenodd" clip-rule="evenodd" d="M55.7187 49.3749C57.5281 49.3749 58.9999 47.8539 58.9999 45.985V24.3274C58.9999 22.4585 57.5281 20.9375 55.7187 20.9375H31.2187C29.4093 20.9375 27.9375 22.4585 27.9375 24.3274V27.5C28.5999 27.5 30.1434 27.7139 31.2187 28.1507V24.2187H55.7187V46.0937H52.4374V42.8125C52.4374 41.6045 51.4578 40.625 50.2499 40.625H43.2499C42.042 40.625 41.0625 41.6045 41.0625 42.8125V49.3749H55.7187ZM27.9375 42.8125C31.5619 42.8125 34.5 39.8743 34.5 36.25C34.5 32.6256 31.5619 29.6875 27.9375 29.6875C24.3131 29.6875 21.375 32.6256 21.375 36.25C21.375 39.8743 24.3131 42.8125 27.9375 42.8125ZM27.9375 39.5312C26.128 39.5312 24.6562 38.0594 24.6562 36.25C24.6562 34.4405 26.128 32.9687 27.9375 32.9687C29.7469 32.9687 31.2187 34.4405 31.2187 36.25C31.2187 38.0594 29.7469 39.5312 27.9375 39.5312ZM48.8787 46.0937H44.3437V43.9062H48.8787V46.0937ZM36.1406 55.9374C37.6506 55.9374 38.8749 54.7131 38.8749 53.2031V50.6512C38.8749 47.7309 36.7845 44.3177 32.5032 44.3177C30.6035 44.3177 30.1263 44.9999 27.9375 44.9999C25.752 44.9999 25.2749 44.3177 23.3718 44.3177C18.4438 44.3177 17 48.4863 17 50.6512V53.2031C17 54.7131 18.2243 55.9374 19.7344 55.9374H36.1406ZM35.5937 52.6562H20.2812V50.6512C20.2812 49.6935 20.8384 47.5989 23.3718 47.5989C24.5503 47.5989 25.3924 48.2812 27.9375 48.2812C30.4921 48.2812 31.3206 47.5989 32.5032 47.5989C35.0338 47.5989 35.5937 49.6894 35.5937 50.6512V52.6562Z" fill="#00B0AF"/>
</svg>
