<svg width="76" height="76" viewBox="0 0 76 76" fill="none" xmlns="http://www.w3.org/2000/svg">
<rect width="76" height="76" rx="38" fill="#F8F8F8"/>
<path fill-rule="evenodd" clip-rule="evenodd" d="M46.7513 51.1261C46.9559 51.1261 47.148 51.0677 47.3112 50.9688L47.3242 50.9606C47.6362 50.7713 47.8449 50.4283 47.8449 50.037C47.8449 49.8843 47.8114 49.7388 47.7542 49.6071L41.7146 37.1438C41.5116 36.6782 41.399 36.1642 41.399 35.6241C41.399 35.1298 41.493 34.6523 41.6647 34.2187L46.674 21.9777C46.7229 21.8546 46.7497 21.7204 46.7497 21.5801C46.7497 20.9839 46.2657 20.5 45.6696 20.5C45.309 20.5 44.9904 20.6755 44.7942 20.9475L36.993 31.6573C36.4115 32.4616 35.5222 33.027 34.5 33.1886L21.4106 35.2619C20.8952 35.344 20.5008 35.7909 20.5008 36.3292L20.5 36.3679C20.5124 36.9132 20.9308 37.3597 21.4638 37.4172L34.4337 38.8207C35.4683 38.9324 36.382 39.4563 36.9999 40.2275L45.9077 50.7206C46.1059 50.9678 46.4103 51.1261 46.7513 51.1261ZM38 37.4535C37.0945 37.4535 36.3594 36.7184 36.3594 35.8129C36.3594 34.9074 37.0945 34.1722 38 34.1722C38.9055 34.1722 39.6406 34.9074 39.6406 35.8129C39.6406 36.7184 38.9055 37.4535 38 37.4535ZM46.2028 55.5003C46.5045 55.5002 46.7494 55.2552 46.7494 54.9534C46.7494 54.8657 46.7284 54.7822 46.6916 54.7087C46.2774 53.88 45.4207 53.3104 44.432 53.3104L44.4321 53.3116L42.7732 53.3128L42.5682 50.1683L39.0114 45.9779L39.4899 53.3128H36.5122L37.1315 43.7637L35.2927 41.5981C35.0283 41.2704 34.6393 41.0473 34.199 40.9979L34.0267 40.9795L33.2262 53.3128H31.5671C30.5795 53.3139 29.7252 53.8808 29.3113 54.7087C29.2744 54.7822 29.2537 54.8652 29.2537 54.9529C29.2537 55.2535 29.4965 55.4983 29.7966 55.5003H46.2028Z" fill="#00AFA3"/>
</svg>
