<svg width="76" height="76" viewBox="0 0 76 76" fill="none" xmlns="http://www.w3.org/2000/svg">
<rect width="76" height="76" rx="38" fill="#F8F8F8"/>
<path fill-rule="evenodd" clip-rule="evenodd" d="M51.6497 40.1875C52.2272 40.1875 52.6997 39.6953 52.6997 39.0938V25.9688C52.6997 25.3672 52.2272 24.875 51.6497 24.875H42.1997V21.5938C42.1997 20.9922 41.7272 20.5 41.1497 20.5H24.3497C23.7722 20.5 23.2997 20.9922 23.2997 21.5938V39.0938C23.2997 39.6953 23.7722 40.1875 24.3497 40.1875H51.6497ZM39.0503 36.9062H26.4503V23.7812H39.0503V36.9062ZM49.5503 36.9062H42.2003V28.1562H49.5503V36.9062ZM52.7 55.5C56.1781 55.5 59 52.5605 59 48.9375C59 45.3145 56.1781 42.375 52.7 42.375H23.3C19.8219 42.375 17 45.3145 17 48.9375C17 52.5605 19.8219 55.5 23.3 55.5H52.7ZM52.6999 52.2188H23.2999C21.5608 52.2188 20.1499 50.749 20.1499 48.9375C20.1499 47.126 21.5608 45.6562 23.2999 45.6562H52.6999C54.4389 45.6562 55.8499 47.126 55.8499 48.9375C55.8499 50.749 54.4389 52.2188 52.6999 52.2188ZM25.3997 51.125C26.5613 51.125 27.4997 50.1475 27.4997 48.9375C27.4997 47.7275 26.5613 46.75 25.3997 46.75C24.2381 46.75 23.2997 47.7275 23.2997 48.9375C23.2997 50.1475 24.2381 51.125 25.3997 51.125ZM50.6 51.125C51.7616 51.125 52.7 50.1475 52.7 48.9375C52.7 47.7275 51.7616 46.75 50.6 46.75C49.4384 46.75 48.5 47.7275 48.5 48.9375C48.5 50.1475 49.4384 51.125 50.6 51.125ZM37.9999 51.125C39.1614 51.125 40.0999 50.1475 40.0999 48.9375C40.0999 47.7275 39.1614 46.75 37.9999 46.75C36.8383 46.75 35.8999 47.7275 35.8999 48.9375C35.8999 50.1475 36.8383 51.125 37.9999 51.125Z" fill="#00B0AF"/>
</svg>
