<svg width="76" height="76" viewBox="0 0 76 76" fill="none" xmlns="http://www.w3.org/2000/svg">
<rect width="76" height="76" rx="38" fill="#F8F8F8"/>
<path fill-rule="evenodd" clip-rule="evenodd" d="M52.2187 55.4999C54.0302 55.4999 55.4999 54.0302 55.4999 52.2187V47.0576C55.4999 46.8525 55.4862 46.6474 55.4589 46.4423L53.7158 34.2539C53.4833 32.6406 52.1025 31.4375 50.4687 31.4375H34.7187V29.25H41.2812C41.8827 29.25 42.3749 28.7578 42.3749 28.1562V21.5937C42.3749 20.9922 41.8827 20.5 41.2812 20.5H23.7812C23.1797 20.5 22.6875 20.9922 22.6875 21.5937V28.1562C22.6875 28.7578 23.1797 29.25 23.7812 29.25H30.3437V31.4375H25.5312C23.8975 31.4375 22.5166 32.6406 22.2841 34.2539L20.541 46.4423C20.5137 46.6474 20.5 46.8525 20.5 47.0644V52.2187C20.5 54.0302 21.9697 55.4999 23.7812 55.4999H52.2187ZM39.0937 25.9687H25.9687V23.7812H39.0937V25.9687ZM52.0273 45.6562H23.9726L25.5312 34.7187H50.4618L52.0273 45.6562ZM28.7031 39.6406C29.3047 39.6406 29.7969 39.1484 29.7969 38.5468V37.4531C29.7969 36.8515 29.3047 36.3593 28.7031 36.3593H27.6094C27.0078 36.3593 26.5156 36.8515 26.5156 37.4531V38.5468C26.5156 39.1484 27.0078 39.6406 27.6094 39.6406H28.7031ZM35.2656 39.6406C35.8672 39.6406 36.3594 39.1484 36.3594 38.5468V37.4531C36.3594 36.8515 35.8672 36.3593 35.2656 36.3593H34.1719C33.5703 36.3593 33.0781 36.8515 33.0781 37.4531V38.5468C33.0781 39.1484 33.5703 39.6406 34.1719 39.6406H35.2656ZM48.3906 39.6406C48.9921 39.6406 49.4843 39.1484 49.4843 38.5468V37.4531C49.4843 36.8515 48.9921 36.3593 48.3906 36.3593H47.2968C46.6953 36.3593 46.2031 36.8515 46.2031 37.4531V38.5468C46.2031 39.1484 46.6953 39.6406 47.2968 39.6406H48.3906ZM41.8281 39.6406C42.4296 39.6406 42.9218 39.1484 42.9218 38.5468V37.4531C42.9218 36.8515 42.4296 36.3593 41.8281 36.3593H40.7343C40.1328 36.3593 39.6406 36.8515 39.6406 37.4531V38.5468C39.6406 39.1484 40.1328 39.6406 40.7343 39.6406H41.8281ZM31.9844 44.0156C32.5859 44.0156 33.0781 43.5234 33.0781 42.9218V41.8281C33.0781 41.2265 32.5859 40.7343 31.9844 40.7343H30.8906C30.2891 40.7343 29.7969 41.2265 29.7969 41.8281V42.9218C29.7969 43.5234 30.2891 44.0156 30.8906 44.0156H31.9844ZM45.1093 44.0156C45.7109 44.0156 46.2031 43.5234 46.2031 42.9218V41.8281C46.2031 41.2265 45.7109 40.7343 45.1093 40.7343H44.0156C43.414 40.7343 42.9218 41.2265 42.9218 41.8281V42.9218C42.9218 43.5234 43.414 44.0156 44.0156 44.0156H45.1093ZM38.5468 44.0156C39.1484 44.0156 39.6406 43.5234 39.6406 42.9218V41.8281C39.6406 41.2265 39.1484 40.7343 38.5468 40.7343H37.4531C36.8516 40.7343 36.3594 41.2265 36.3594 41.8281V42.9218C36.3594 43.5234 36.8516 44.0156 37.4531 44.0156H38.5468ZM52.2187 52.2187H23.7812V48.9374H52.2187V52.2187Z" fill="#00AFA3"/>
</svg>
