<svg width="76" height="76" viewBox="0 0 76 76" fill="none" xmlns="http://www.w3.org/2000/svg">
<rect width="76" height="76" rx="38" fill="#F8F8F8"/>
<path fill-rule="evenodd" clip-rule="evenodd" d="M30.2456 55.5C31.5414 55.5 32.6706 54.7727 33.2488 53.7049C33.5594 53.7974 33.8883 53.8472 34.2288 53.8472C35.142 53.8478 35.9994 53.4923 36.6439 52.8463L38.3814 51.1066C39.0258 50.4606 39.3808 49.6027 39.3808 48.6894C39.3808 48.3516 39.3324 48.0215 39.2388 47.707C39.6669 47.4746 40.0185 47.1355 40.312 46.75H44.1097C43.866 47.437 43.7083 48.1664 43.7083 48.9375C43.7083 52.5619 46.6425 55.5 50.2621 55.5C53.8818 55.5 56.816 52.5619 56.816 48.9375C56.816 47.1253 56.0828 45.4847 54.8963 44.2973L58.3603 40.8287C58.7699 40.4185 59 39.8621 59 39.2817V33.625C59 32.4171 58.0217 31.4375 56.8154 31.4375H51.3538V28.1562C51.3538 27.4323 51.5941 26.733 52.027 26.1649C52.2536 25.8675 52.2085 25.4444 51.9594 25.1655L50.852 23.9268C50.5107 23.5454 49.914 23.5721 49.587 23.9665C48.6182 25.1368 48.0769 26.6188 48.0769 28.1562V31.4375H41.8775L37.9055 22.1564C37.4727 21.1507 36.4869 20.5 35.3946 20.5H26.2847C24.7787 20.5 23.5539 21.7264 23.5539 23.2344V33.1144C22.7367 33.1739 21.9734 33.5054 21.3884 34.0912L19.6509 35.8309C19.0064 36.4769 18.6515 37.3348 18.6515 38.2481C18.6515 38.5859 18.6999 38.916 18.7934 39.2305C17.7257 39.8095 17 40.9408 17 42.2383V44.6992C17 45.9967 17.7257 47.128 18.7927 47.707C18.6992 48.0215 18.6507 48.3516 18.6507 48.6894C18.6507 49.6027 19.0058 50.4606 19.6509 51.1058L21.3891 52.8463C22.0336 53.4916 22.891 53.8471 23.8024 53.8478C24.1396 53.8478 24.4694 53.7992 24.7834 53.7049C25.361 54.7733 26.4908 55.5 27.7873 55.5H30.2456ZM26.8305 31.577V23.7812H35.0359L38.3114 31.4375H27.7856C27.4538 31.4375 27.1337 31.4881 26.8305 31.577ZM30.244 52.2188H27.7863C27.7112 52.2188 27.6497 52.1572 27.6497 52.082V50.8673C26.1143 50.4086 26.1901 50.4414 24.7551 49.6676L23.8976 50.5262H23.7044L21.9663 48.7858C21.9205 48.74 21.9205 48.6381 21.9663 48.5923L22.823 47.7337C22.0516 46.2995 22.0837 46.3761 21.6256 44.8359H20.4131C20.3381 44.8359 20.2766 44.7744 20.2766 44.6992V42.2383C20.2766 42.1631 20.3381 42.1016 20.4131 42.1016H21.6263C22.0857 40.5587 22.0529 40.638 22.8244 39.2038L21.9669 38.3452C21.9212 38.2994 21.9219 38.1975 21.9669 38.1525L23.7051 36.412H23.8983L24.7551 37.2706C26.1901 36.4968 26.1123 36.5296 27.6497 36.0709V34.8555C27.6497 34.78 27.7109 34.7188 27.7863 34.7188H30.244C30.319 34.7188 30.3805 34.7803 30.3805 34.8555V36.0702C31.9159 36.5282 31.8401 36.4954 33.2752 37.2699L34.1326 36.4113H34.3258L36.0639 38.1517C36.1097 38.1975 36.1097 38.2994 36.0639 38.3452L35.2072 39.2038C35.9786 40.638 35.9465 40.5614 36.4046 42.1016H37.6171C37.6922 42.1016 37.7536 42.1631 37.7536 42.2383V44.6992C37.7536 44.7744 37.6922 44.8359 37.6171 44.8359H36.404C35.9445 46.3788 35.9773 46.2995 35.2058 47.7337L36.0633 48.5923C36.109 48.6381 36.1084 48.74 36.0633 48.785L34.3251 50.5255H34.1319L33.2752 49.6669C31.8401 50.4407 31.9179 50.4079 30.3805 50.8666V52.082C30.3805 52.1575 30.3193 52.2188 30.244 52.2188ZM46.392 43.4688H41.0306V42.2383C41.0306 40.9408 40.3049 39.8095 39.2379 39.2305C39.3314 38.916 39.3799 38.5859 39.3799 38.2481C39.3799 37.3348 39.0248 36.4769 38.3797 35.8317L37.269 34.7188H55.4685V38.8285L51.6829 42.6191C51.145 42.4762 50.59 42.375 50.0069 42.375C48.6695 42.375 47.4291 42.7803 46.392 43.4688ZM29.0154 47.8438C31.4287 47.8438 33.3846 45.8852 33.3846 43.4688C33.3846 42.5623 33.1095 41.7208 32.6385 41.0228C32.3224 40.5546 31.9257 40.1573 31.4581 39.8409C30.761 39.3693 29.9199 39.0938 29.0154 39.0938C28.1108 39.0938 27.2697 39.3693 26.5727 39.8409C26.105 40.1573 25.7083 40.5546 25.3923 41.0228C24.9213 41.7208 24.6461 42.5623 24.6461 43.4688C24.6461 45.8852 26.6021 47.8438 29.0154 47.8438ZM29.0158 44.5625C28.4136 44.5625 27.9234 44.0717 27.9234 43.4688C27.9234 42.8658 28.4136 42.375 29.0158 42.375C29.6179 42.375 30.1081 42.8658 30.1081 43.4688C30.1081 44.0717 29.6179 44.5625 29.0158 44.5625ZM50.1928 52.2188C48.3857 52.2188 46.9159 50.747 46.9159 48.9375C46.9159 47.128 48.3857 45.6562 50.1928 45.6562C51.9999 45.6562 53.4697 47.128 53.4697 48.9375C53.4697 50.747 51.9999 52.2188 50.1928 52.2188Z" fill="#00AFA3"/>
</svg>
