<svg width="76" height="76" viewBox="0 0 76 76" fill="none" xmlns="http://www.w3.org/2000/svg">
<rect width="76" height="76" rx="38" fill="#F8F8F8"/>
<path fill-rule="evenodd" clip-rule="evenodd" d="M18.6396 54.6249C19.3164 54.6249 19.9521 54.2011 20.1914 53.5244C20.2051 53.4833 21.6337 49.5731 25.3935 45.9775C27.9569 50.3183 32.8241 52.9159 38.081 52.3623C48.8202 51.5897 56.3739 41.9648 56.3739 30.1728C56.3739 26.7412 55.6356 23.1865 54.3368 20.2881C54.1385 19.8438 53.7489 19.625 53.3593 19.625C52.9969 19.625 52.6278 19.8164 52.4022 20.2061C50.2831 23.8906 46.4892 26.1875 42.1552 26.1875H36.6864C29.4404 26.1875 23.5615 32.0664 23.5615 39.3125C23.5615 40.5087 23.7324 41.664 24.0332 42.7646C18.9814 47.1396 17.1699 52.2255 17.0878 52.4511C16.7939 53.3056 17.245 54.2353 18.0995 54.5361C18.2773 54.5975 18.455 54.6249 18.6396 54.6249ZM26.843 39.3124C26.843 33.8847 31.259 29.4687 36.6868 29.4687H42.1555C46.1135 29.4687 49.7844 27.9648 52.5461 25.3056C52.9016 26.8916 53.093 28.5527 53.093 30.1728C53.093 40.495 46.6809 48.4521 37.7395 49.1015C31.7239 49.7372 26.843 44.9726 26.843 39.3124ZM39.455 44.5419L44.4178 39.6679C45.8534 38.2529 45.7714 35.9013 44.1649 34.5957C42.5585 33.29 40.453 33.8711 39.3798 34.9238L38.8739 35.4228L38.368 34.9238C37.3222 33.8916 35.2099 33.2763 33.5829 34.5957C31.9696 35.9013 31.8876 38.2529 33.33 39.6679L38.2929 44.5419C38.6142 44.8564 39.1337 44.8564 39.455 44.5419Z" fill="#00AFA3"/>
</svg>
