<svg width="76" height="76" viewBox="0 0 76 76" fill="none" xmlns="http://www.w3.org/2000/svg">
<rect width="76" height="76" rx="38" fill="#F8F8F8"/>
<path fill-rule="evenodd" clip-rule="evenodd" d="M52.2187 54.6249C54.0302 54.6249 55.4999 53.1552 55.4999 51.3437V31.6562C55.4999 29.8447 54.0302 28.375 52.2187 28.375H44.5624V25.0937C44.5624 23.2822 43.0927 21.8125 41.2812 21.8125H34.7187C32.9072 21.8125 31.4375 23.2822 31.4375 25.0937V28.375H23.7812C21.9697 28.375 20.5 29.8447 20.5 31.6562V51.3437C20.5 53.1552 21.9697 54.6249 23.7812 54.6249H52.2187ZM41.2812 28.375H34.7187V25.0937H41.2812V28.375ZM51.8085 51.3437H24.1914C23.9658 51.3437 23.7812 51.1591 23.7812 50.9335V32.0664C23.7812 31.8408 23.9658 31.6562 24.1914 31.6562H51.8085C52.0341 31.6562 52.2187 31.8408 52.2187 32.0664V50.9335C52.2187 51.1591 52.0341 51.3437 51.8085 51.3437ZM39.6406 48.0624C39.9414 48.0624 40.1875 47.8164 40.1875 47.5156V43.6874H44.0156C44.3164 43.6874 44.5625 43.4414 44.5625 43.1406V39.8593C44.5625 39.5585 44.3164 39.3124 44.0156 39.3124H40.1875V35.4843C40.1875 35.1835 39.9414 34.9375 39.6406 34.9375H36.3593C36.0585 34.9375 35.8125 35.1835 35.8125 35.4843V39.3124H31.9844C31.6836 39.3124 31.4375 39.5585 31.4375 39.8593V43.1406C31.4375 43.4414 31.6836 43.6874 31.9844 43.6874H35.8125V47.5156C35.8125 47.8164 36.0585 48.0624 36.3593 48.0624H39.6406Z" fill="#00AFA3"/>
</svg>
