<svg width="76" height="76" viewBox="0 0 76 76" fill="none" xmlns="http://www.w3.org/2000/svg">
<rect width="76" height="76" rx="38" fill="#F8F8F8"/>
<path fill-rule="evenodd" clip-rule="evenodd" d="M47.2968 32.5312C47.5986 32.5312 47.8437 32.2862 47.8437 31.9843V29.7969C47.8437 29.495 47.5986 29.25 47.2968 29.25H46.7499C46.7499 26.0774 44.7996 23.4025 42.0475 22.2486L40.1875 25.9687V21.5937C40.1875 20.9901 39.6974 20.5 39.0937 20.5H36.9062C36.3025 20.5 35.8125 20.9901 35.8125 21.5937V25.9687L33.9524 22.2486C31.2003 23.4025 29.25 26.0774 29.25 29.25H28.7031C28.4013 29.25 28.1562 29.495 28.1562 29.7969V31.9843C28.1562 32.2862 28.4013 32.5312 28.7031 32.5312H47.2968ZM38.0008 42.3749C42.4592 42.3749 46.0973 39.0294 46.6407 34.7187H43.3595C42.8475 37.2101 40.6414 39.0908 38.0001 39.0937C35.3594 39.0901 33.154 37.2097 32.6421 34.7187H29.3609C29.9078 39.0294 33.5424 42.3749 38.0008 42.3749ZM51.5625 55.4999C52.5283 55.4999 53.3124 54.7158 53.3124 53.75C53.3124 48.6792 49.1957 44.5624 44.1249 44.5624C42.1617 44.5624 41.2231 45.6562 38 45.6562C34.7768 45.6562 33.8383 44.5624 31.8777 44.5624H31.8749C26.8042 44.5624 22.6875 48.6792 22.6875 53.75C22.6875 54.7158 23.4716 55.4999 24.4375 55.4999H51.5625ZM49.8305 52.2187H26.17C26.8498 49.7023 29.1485 47.8464 31.878 47.8437C32.8651 47.8437 34.4948 48.9374 38.0002 48.9374C41.5187 48.9374 43.134 47.8437 44.1252 47.8437C46.8538 47.8469 49.1515 49.7028 49.8305 52.2187Z" fill="#00AFA3"/>
</svg>
