<svg width="76" height="76" viewBox="0 0 76 76" fill="none" xmlns="http://www.w3.org/2000/svg">
<rect width="76" height="76" rx="38" fill="#F8F8F8"/>
<path fill-rule="evenodd" clip-rule="evenodd" d="M38 55.5C47.6673 55.5 55.5 47.6673 55.5 38C55.5 28.3327 47.6673 20.5 38 20.5C28.3327 20.5 20.5 28.3327 20.5 38C20.5 47.6673 28.3327 55.5 38 55.5ZM42.4594 31.7903H33.54C34.5703 26.7944 36.6872 23.8871 37.9997 23.8871C39.3121 23.8871 41.4291 26.7944 42.4594 31.7903ZM50.6519 31.7903H45.91C45.4372 29.2147 44.6751 26.9355 43.7084 25.1078C46.7356 26.4486 49.1912 28.8266 50.6519 31.7903ZM30.09 31.7903H25.3481C26.8087 28.8266 29.2644 26.4486 32.2916 25.1078C31.3249 26.9355 30.5627 29.2147 30.09 31.7903ZM29.6523 40.8226H24.1694C23.986 39.9123 23.8871 38.9667 23.8871 38C23.8871 37.0332 23.986 36.0877 24.1694 35.1774H29.6523C29.5817 36.1018 29.5323 37.0332 29.5323 38C29.5323 38.9667 29.5817 39.8982 29.6523 40.8226ZM42.9465 40.8226H33.0534C32.9757 39.9194 32.9193 38.9879 32.9193 38C32.9193 37.0121 32.9757 36.0806 33.0534 35.1774H42.9536C43.0312 36.0806 43.0876 37.0121 43.0876 38C43.0876 38.9879 43.0241 39.9194 42.9465 40.8226ZM51.8309 40.8226H46.348C46.4186 39.8982 46.468 38.9667 46.468 38C46.468 37.0332 46.4186 36.1018 46.348 35.1774H51.8309C52.0143 36.0877 52.1132 37.0332 52.1132 38C52.1132 38.9667 52.0143 39.9123 51.8309 40.8226ZM32.2916 50.8922C29.2644 49.5514 26.8087 47.1734 25.3481 44.2097H30.09C30.5627 46.7853 31.3249 49.0645 32.2916 50.8922ZM37.9997 52.1129C36.6872 52.1129 34.5703 49.2056 33.54 44.2097H42.4664C41.4291 49.2056 39.3121 52.1129 37.9997 52.1129ZM43.7084 50.8922C44.6751 49.0645 45.4301 46.7853 45.91 44.2097H50.6519C49.1912 47.1734 46.7356 49.5514 43.7084 50.8922Z" fill="#00AFA3"/>
</svg>
