<svg width="76" height="76" viewBox="0 0 76 76" fill="none" xmlns="http://www.w3.org/2000/svg">
<rect width="76" height="76" rx="38" fill="#F8F8F8"/>
<path fill-rule="evenodd" clip-rule="evenodd" d="M54.4062 51.9999C55.0105 51.9999 55.4999 51.5105 55.4999 50.9062V49.8124C55.4999 49.2082 55.0105 48.7187 54.4062 48.7187H23.7812V26.8437C23.7812 26.2395 23.2918 25.75 22.6875 25.75H21.5937C20.9895 25.75 20.5 26.2395 20.5 26.8437V49.8124C20.5 51.0203 21.4796 51.9999 22.6875 51.9999H54.4062ZM40.9612 42.6094L48.4958 35.0742L50.5117 37.0908C51.5453 38.1244 53.3124 37.3922 53.3124 35.9307V29.0312C53.3124 28.427 52.8229 27.9375 52.2186 27.9375H45.3191C43.8576 27.9375 43.1255 29.7046 44.159 30.7382L46.1756 32.7541L40.1874 38.7423L34.398 32.953C33.9708 32.5258 33.2783 32.5258 32.8511 32.953L27.7692 38.0348C27.342 38.4621 27.342 39.1545 27.7692 39.5818L28.5424 40.355C28.9697 40.7822 29.6621 40.7822 30.0894 40.355L33.6249 36.8201L39.4143 42.6094C39.8415 43.0367 40.534 43.0367 40.9612 42.6094Z" fill="#00AFA3"/>
</svg>
