<svg width="76" height="76" viewBox="0 0 76 76" fill="none" xmlns="http://www.w3.org/2000/svg">
<rect width="76" height="76" rx="38" fill="#F8F8F8"/>
<path fill-rule="evenodd" clip-rule="evenodd" d="M48.2812 56.3749C50.0934 56.3749 51.5624 54.9059 51.5624 53.0937C51.5624 52.7082 51.4838 52.3438 51.3614 51.9999H57.0312C57.6354 51.9999 58.1249 51.5105 58.1249 50.9062V49.8124C58.1249 49.2081 57.6354 48.7187 57.0312 48.7187H24.2187V22.4687C24.2187 21.8645 23.7293 21.375 23.125 21.375H18.9687C18.3645 21.375 17.875 21.8645 17.875 22.4687V23.5625C17.875 24.1668 18.3645 24.6562 18.9687 24.6562H20.9375V50.9062C20.9375 51.5105 21.4269 51.9999 22.0312 51.9999H25.5135C25.3911 52.3438 25.3125 52.7082 25.3125 53.0937C25.3125 54.9059 26.7815 56.3749 28.5937 56.3749C30.4059 56.3749 31.875 54.9059 31.875 53.0937C31.875 52.7082 31.7963 52.3438 31.674 51.9999H45.2009C45.0786 52.3438 44.9999 52.7082 44.9999 53.0937C44.9999 54.9059 46.469 56.3749 48.2812 56.3749ZM51.5624 45.4374C52.7703 45.4374 53.7499 44.4579 53.7499 43.25V30.125C53.7499 28.9171 52.7703 27.9375 51.5624 27.9375H47.1874V24.6562C47.1874 22.8441 45.7184 21.375 43.9062 21.375H37.3437C35.5315 21.375 34.0625 22.8441 34.0625 24.6562V27.9375H29.6875C28.4796 27.9375 27.5 28.9171 27.5 30.125V43.25C27.5 44.4579 28.4796 45.4374 29.6875 45.4374H51.5624ZM43.9062 27.9375H37.3437V24.6562H43.9062V27.9375ZM50.4687 42.1562H47.1875V31.2187H50.4687V42.1562ZM43.9062 42.1562H37.3437V31.2187H43.9062V42.1562ZM34.0625 42.1562H30.7812V31.2187H34.0625V42.1562Z" fill="#00AFA3"/>
</svg>
