<svg width="298" height="329" viewBox="0 0 298 329" fill="none" xmlns="http://www.w3.org/2000/svg">
<g clip-path="url(#clip0)">
<path d="M75.9414 34.314C80.2097 39.1974 96.2363 73.535 95.918 80.5033C95.5996 87.4717 77.5862 92.9951 74.6769 86.2155C71.7675 79.4358 69.539 38.1181 68.242 35.7589C66.9451 33.3998 73.9576 32.0433 75.9414 34.314Z" fill="#4C2A21"/>
<path d="M23.9471 189.399C20.2123 106.091 54.8978 61.2344 54.8978 61.2344L79.4521 63.8884C79.4521 63.8884 105.082 157.88 106.152 189.399C79.9827 223.032 23.9471 189.399 23.9471 189.399Z" fill="#A05233"/>
<path d="M77.3298 196.866C77.3298 196.866 69.3238 107.953 78.1315 107.684C86.9393 107.416 101.616 195.442 101.616 195.442L77.3298 196.866Z" fill="#8E4126"/>
<path d="M56.8934 167.135C52.7342 128.356 62.3349 94.7383 78.3379 92.0666C81.321 91.5682 84.3129 92.1816 87.237 93.7563C82.8626 76.3752 79.461 63.8953 79.461 63.8953L54.9067 61.2412C54.9067 61.2412 20.2123 106.083 23.9471 189.4C23.9471 189.4 43.7998 201.31 65.3857 203.867C61.3916 193.487 58.3702 180.918 56.8934 167.135Z" fill="#8E4126"/>
<path d="M53.5979 63.2281C75.7056 82.2901 94.0373 79.406 96.817 77.9994C99.5967 76.5927 115.606 64.4342 113.984 58.9993C112.363 53.5644 90.7536 47.3038 90.7536 47.3038C90.7536 47.3038 88.5192 39.1617 83.0896 35.7468C77.6599 32.3319 58.1138 31.9987 55.5611 33.544C53.0084 35.0892 45.4181 56.1801 53.5979 63.2281Z" fill="#B75A39"/>
<path d="M64.413 48.0587C68.6223 41.3705 77.0881 38.4156 86.7536 39.2266C85.7534 37.8569 84.5154 36.6783 83.0984 35.7468C77.6806 32.3319 58.1226 31.9987 55.5699 33.544C53.0172 35.0892 45.4181 56.1801 53.5979 63.2281C57.4678 66.5949 61.6657 69.5647 66.1285 72.0926C61.1941 63.694 60.1919 54.7617 64.413 48.0587Z" fill="#A05233"/>
<path d="M113.268 57.7409C106.662 73.45 91.0159 74.3288 81.6599 71.7632C62.5471 66.5229 55.1042 39.8231 56.7814 33.7217C56.8552 33.5117 56.9469 33.3085 57.0555 33.1143C56.5442 33.1838 56.0469 33.3331 55.5817 33.5566C53.0319 35.1048 45.4298 56.1928 53.6097 63.2407C75.7174 82.3028 94.0491 79.4187 96.8288 78.012C99.6084 76.6054 115.617 64.4469 113.996 59.0119C113.837 58.5454 113.59 58.1139 113.268 57.7409Z" fill="#A05233"/>
<path d="M47.6111 39.8513C43.5875 47.321 31.3281 87.645 32.9316 92.7201C34.5352 97.7953 56.1506 86.3091 58.2818 78.5651C60.413 70.8212 55.6289 37.1766 56.6812 34.2395C57.7335 31.3023 49.477 36.3804 47.6111 39.8513Z" fill="#5E372A"/>
<path d="M112.337 64.0688C107.765 60.9753 105.645 54.3844 106.913 53.7091C108.18 53.0338 115.924 54.7619 117.557 56.8409C119.19 58.9199 112.337 64.0688 112.337 64.0688Z" fill="#5E372A"/>
<path d="M91.8206 77.7901C92.2893 76.7196 86.8862 71.9541 83.5199 71.6386C81.3947 71.4381 79.7469 72.0455 78.4116 72.6796C74.0637 74.7438 78.052 74.5138 78.052 74.5138C78.052 74.5138 81.4536 71.5324 84.0918 72.2815C86.6622 73.0128 89.4625 75.1419 91.8206 77.7901Z" fill="#5E372A"/>
<path d="M68.5073 43.0667C68.1795 42.6099 67.9662 42.0809 67.8854 41.5244C67.8412 42.76 67.9532 44.034 68.5516 44.8125C69.8102 46.458 72.8375 47.3073 74.78 42.0582C72.5103 45.6529 69.7454 44.6621 68.5073 43.0667Z" fill="#5E372A"/>
<path d="M83.6261 43.771C83.3598 43.4972 83.1672 43.1604 83.066 42.792C83.0925 43.5764 83.2517 44.4876 83.8088 45.0892C85.1382 46.5254 88.1184 47.2272 87.971 43.0073C87.2871 45.6525 84.7904 44.927 83.6261 43.771Z" fill="#5E372A"/>
<path d="M43.4313 74.6256C40.6693 75.1594 38.4821 73.9533 36.9464 71.4791C34.1844 81.5055 32.2301 90.4969 32.9287 92.7115C34.5293 97.7837 56.1477 86.3005 58.2788 78.5566C59.1867 75.2626 58.8389 67.2886 58.2228 58.9844C53.8632 67.5452 48.3481 73.6731 43.4313 74.6256Z" fill="#4C2A21"/>
<path d="M85.0733 129.802C107.939 117.304 131.514 105.514 150.53 87.281C159.786 78.4046 167.877 68.1541 173.843 56.7741C179.709 45.5858 180.873 32.6428 187.912 22.3569C196.505 9.80909 218.132 -1.53847 233.213 0.372446C279.388 6.19368 292.001 69.7613 296.933 108.628C305.481 175.915 260.827 241.078 212.924 283.767C177.227 315.577 129.867 335.86 81.8044 325.347C41.2264 316.5 9.34712 286.831 1.26159 245.548C-5.76276 209.686 17.6301 177.015 44.4011 155.629C56.8315 145.7 70.8448 137.581 85.0733 129.802Z" fill="#F5DC30"/>
<path d="M172.977 102.294C177.245 107.18 193.271 141.515 192.956 148.486C192.641 155.457 174.621 160.975 171.706 154.198C168.791 147.421 166.577 106.092 165.28 103.739C163.983 101.385 170.993 100.026 172.977 102.294Z" fill="#4C2A21"/>
<path d="M122.515 262.079C118.777 178.774 153.466 133.915 153.466 133.915L178.02 136.587C178.02 136.587 203.641 230.573 204.708 262.079C178.562 295.724 122.515 262.079 122.515 262.079Z" fill="#A05233"/>
<path d="M175.895 269.558C175.895 269.558 167.886 180.644 176.694 180.376C185.501 180.107 200.181 268.136 200.181 268.136L175.895 269.558Z" fill="#8E4126"/>
<path d="M155.458 239.827C151.317 201.045 160.903 167.436 176.906 164.758C179.886 164.26 182.881 164.873 185.805 166.445C181.43 149.064 178.029 136.587 178.029 136.587L153.475 133.915C153.475 133.915 118.777 178.783 122.515 262.079C122.515 262.079 142.365 273.993 163.954 276.55C159.959 266.178 156.938 253.61 155.458 239.827Z" fill="#8E4126"/>
<path d="M160.413 138.722C189.286 143.054 203.249 130.846 204.853 128.177C206.456 125.508 213.513 106.682 209.257 102.943C205 99.2035 183.367 105.435 183.367 105.435C183.367 105.435 177.139 99.752 170.733 99.752C164.328 99.752 147.603 109.899 146.268 112.568C144.932 115.237 149.737 137.121 160.413 138.722Z" fill="#B75A39"/>
<path d="M161.481 120.12C161.481 112.22 167.061 105.21 175.68 100.737C174.103 100.115 172.428 99.7813 170.733 99.752C164.328 99.752 147.603 109.899 146.268 112.568C144.932 115.237 149.737 137.133 160.416 138.734C165.486 139.52 170.621 139.793 175.744 139.551C167.087 135.066 161.481 128.044 161.481 120.12Z" fill="#A05233"/>
<path d="M207.977 102.258C210.757 119.067 197.988 128.161 188.705 130.978C169.74 136.737 149.206 118.114 147.379 112.048C147.329 111.831 147.298 111.61 147.287 111.388C146.888 111.725 146.543 112.123 146.267 112.567C144.935 115.236 149.737 137.132 160.416 138.733C189.289 143.065 203.252 130.857 204.856 128.188C206.459 125.519 213.513 106.681 209.257 102.942C208.878 102.635 208.444 102.402 207.977 102.258Z" fill="#A05233"/>
<path d="M146.176 112.544C142.155 120.014 129.896 160.338 131.497 165.41C133.097 170.482 154.719 159.002 156.847 151.255C158.975 143.508 154.176 109.867 155.246 106.93C156.316 103.992 148.045 109.073 146.176 112.544Z" fill="#5E372A"/>
<path d="M210.565 108.103C205.047 107.926 199.745 103.476 200.458 102.231C201.171 100.987 208.641 98.3151 211.131 99.2056C213.622 100.096 210.565 108.103 210.565 108.103Z" fill="#5E372A"/>
<path d="M204.081 120.565C204.797 123.302 188.484 133.411 179.571 133.246C173.937 133.149 169.932 131.223 166.748 129.315C156.393 123.107 166.677 124.756 166.677 124.756C166.677 124.756 174.135 132.936 181.36 131.833C188.402 130.775 196.691 126.366 204.081 120.565Z" fill="#5E372A"/>
<path d="M165.761 110.111C166.318 110.191 166.847 110.403 167.305 110.73C166.444 109.846 165.448 109.044 164.472 108.934C162.409 108.704 159.703 110.303 162.147 115.34C161.133 111.208 163.759 109.902 165.761 110.111Z" fill="#5E372A"/>
<path d="M178.621 104.425C178.992 104.514 179.334 104.696 179.615 104.953C179.176 104.305 178.557 103.617 177.764 103.408C175.874 102.901 172.98 103.898 175.352 107.389C174.521 104.785 177.021 104.069 178.621 104.425Z" fill="#5E372A"/>
<path d="M142.002 147.315C139.24 147.852 137.05 146.646 135.517 144.169C132.755 154.195 130.801 163.189 131.497 165.401C133.1 170.476 154.719 158.993 156.847 151.246C157.755 147.952 157.407 139.978 156.791 131.671C152.431 140.235 146.913 146.366 142.002 147.315Z" fill="#4C2A21"/>
</g>
<defs>
<clipPath id="clip0">
<rect width="298" height="328" fill="white" transform="translate(0 0.15332)"/>
</clipPath>
</defs>
</svg>
