<svg width="411" height="90" viewBox="0 0 411 90" fill="none" xmlns="http://www.w3.org/2000/svg">
<g clip-path="url(#clip0)">
<path d="M366 90C357.1 90 348.4 87.3608 340.999 82.4161C333.599 77.4715 327.831 70.4434 324.426 62.2208C321.02 53.9981 320.128 44.9501 321.865 36.2209C323.601 27.4918 327.887 19.4736 334.18 13.1802C340.474 6.88685 348.492 2.60102 357.221 0.864682C365.95 -0.871652 374.998 0.0194979 383.221 3.42544C391.444 6.83138 398.472 12.5991 403.416 19.9994C408.361 27.3996 411 36.0999 411 45C410.987 56.9306 406.241 68.3687 397.805 76.805C389.369 85.2412 377.931 89.9866 366 90ZM366 3.69346C357.83 3.69346 349.844 6.11605 343.051 10.6549C336.259 15.1937 330.964 21.6449 327.838 29.1927C324.711 36.7405 323.893 45.0458 325.487 53.0585C327.081 61.0712 331.015 68.4313 336.792 74.2082C342.569 79.985 349.929 83.919 357.942 85.5129C365.954 87.1067 374.26 86.2887 381.807 83.1623C389.355 80.0359 395.806 74.7415 400.345 67.9487C404.884 61.1559 407.307 53.1697 407.307 45C407.293 34.049 402.937 23.5503 395.193 15.8067C387.45 8.06315 376.951 3.7069 366 3.69346Z" fill="#3F3F3F"/>
<path d="M366 81.6808C358.744 81.6818 351.651 79.5309 345.617 75.5002C339.584 71.4695 334.881 65.7402 332.104 59.0366C329.327 52.3331 328.6 44.9566 330.015 37.8399C331.43 30.7233 334.924 24.1862 340.055 19.0554C345.186 13.9246 351.723 10.4306 358.84 9.01523C365.956 7.59988 373.333 8.32675 380.036 11.1039C386.74 13.8811 392.469 18.5839 396.5 24.6174C400.531 30.651 402.682 37.7443 402.681 45.0003C402.67 54.7252 398.802 64.0487 391.925 70.9252C385.048 77.8018 375.725 81.6698 366 81.6808ZM366 9.23392C358.927 9.23301 352.012 11.3296 346.131 15.2586C340.249 19.1876 335.665 24.7725 332.957 31.3071C330.25 37.8416 329.541 45.0322 330.92 51.9697C332.3 58.9071 335.705 65.2796 340.706 70.2815C345.708 75.2833 352.08 78.6897 359.017 80.07C365.954 81.4502 373.145 80.7423 379.68 78.0357C386.215 75.3291 391.8 70.7455 395.73 64.8644C399.66 58.9833 401.757 52.0689 401.757 44.9957C401.746 35.5153 397.976 26.4262 391.272 19.7221C384.569 13.018 375.481 9.24614 366 9.23392Z" fill="#3F3F3F"/>
<path d="M341.526 28.8877L345.294 33.3291L344.634 34.6633L338.816 34.3217L339.55 32.8581L343.318 33.1121L340.852 30.2266L341.526 28.8877Z" fill="#3F3F3F"/>
<path d="M348.239 27.1888L349.163 27.9229L346.457 31.2655L342.302 27.8998L344.943 24.6357L345.866 25.3698L344.144 27.4705L344.846 28.0383L346.342 26.1916L347.224 26.9026L345.728 28.7493L346.49 29.3634L348.239 27.1888Z" fill="#3F3F3F"/>
<path d="M347.75 23.6704L346.485 24.723L345.719 23.7997L349.412 20.7295L350.183 21.6529L348.923 22.7009L351.582 25.8957L350.418 26.8652L347.75 23.6704Z" fill="#3F3F3F"/>
<path d="M356.203 21.6991L356.766 22.7287L352.99 24.7878L350.423 20.0832L354.116 18.0703L354.68 19.0999L352.307 20.3926L352.741 21.1867L354.827 20.0463L355.372 21.0389L353.276 22.1608L353.738 23.0195L356.203 21.6991Z" fill="#3F3F3F"/>
<path d="M359.098 20.5081L358.304 20.739L358.701 22.124L357.242 22.5442L355.755 17.3826L358.105 16.7039C359.49 16.293 360.603 16.7685 360.94 17.9412C361.052 18.2769 361.06 18.6382 360.965 18.9789C360.869 19.3195 360.674 19.6237 360.405 19.8526L361.983 21.1499L360.428 21.6116L359.098 20.5081ZM358.35 17.8719L357.542 18.1074L357.976 19.6125L358.784 19.3816C359.389 19.2062 359.61 18.8369 359.472 18.3706C359.333 17.9043 358.95 17.7011 358.35 17.8719Z" fill="#3F3F3F"/>
<path d="M361.803 15.8958L363.309 15.6973L363.936 21.0389L362.436 21.2374L361.803 15.8958Z" fill="#3F3F3F"/>
<path d="M370.095 15.7802L369.809 21.1311L368.562 21.0664L366.356 18.0886L366.203 20.9372L364.721 20.8587L365.008 15.5078L366.249 15.5771L368.461 18.5503L368.613 15.7017L370.095 15.7802Z" fill="#3F3F3F"/>
<path d="M374.213 21.3016L372.048 20.6414L371.323 21.5185L369.846 21.0569L373.687 16.6201L375.114 17.0541L375.825 22.8713L374.315 22.4096L374.213 21.3016ZM374.116 20.1058L373.955 18.2591L372.796 19.6995L374.116 20.1058Z" fill="#3F3F3F"/>
<path d="M378.586 22.9456L377.87 22.5301L377.15 23.7582L375.843 22.9918L378.544 18.375L380.658 19.6077C381.923 20.3464 382.334 21.4544 381.716 22.5209C381.547 22.8316 381.289 23.0852 380.976 23.2496C380.663 23.414 380.308 23.4817 379.957 23.4443L380.095 25.4849L378.71 24.6677L378.586 22.9456ZM379.971 20.5865L379.241 20.1617L378.452 21.519L379.176 21.9438C379.721 22.2577 380.137 22.1654 380.386 21.7453C380.635 21.3251 380.52 20.905 379.98 20.5865H379.971Z" fill="#3F3F3F"/>
<path d="M383.789 21.7266L384.957 22.6915L381.54 26.8189L380.372 25.854L383.789 21.7266Z" fill="#3F3F3F"/>
<path d="M385.308 29.2845L383.83 27.567L382.764 27.9271L381.757 26.7776L387.357 25.0693L388.332 26.2005L385.82 31.4775L384.795 30.2817L385.308 29.2845ZM385.862 28.218L386.711 26.579L384.966 27.1746L385.862 28.218Z" fill="#3F3F3F"/>
<path d="M392.884 33.7028L388.105 36.1266L387.537 35.0094L389.015 31.6114L386.471 32.9041L385.802 31.5791L390.58 29.1553L391.143 30.2679L389.666 33.6705L392.21 32.3778L392.884 33.7028Z" fill="#3F3F3F"/>
<path d="M345.382 57.6133L344.038 58.5366L345.492 60.6696L344.8 61.1313L343.341 58.9983L341.647 60.1525L341.088 59.3307L345.511 56.3252L347.713 59.557L347.025 60.0186L345.382 57.6133Z" fill="#3F3F3F"/>
<path d="M345.746 61.4543C346.125 61.0188 346.626 60.7068 347.185 60.5586C347.743 60.4105 348.333 60.4329 348.878 60.6231C349.423 60.8133 349.899 61.1625 350.244 61.6256C350.589 62.0888 350.787 62.6446 350.813 63.2216C350.839 63.7985 350.692 64.3699 350.39 64.8623C350.088 65.3547 349.646 65.7454 349.12 65.984C348.594 66.2225 348.009 66.2981 347.44 66.2009C346.87 66.1037 346.343 65.8382 345.926 65.4386C345.643 65.1948 345.413 64.8958 345.25 64.5599C345.087 64.224 344.994 63.8583 344.977 63.4853C344.96 63.1122 345.02 62.7397 345.152 62.3904C345.284 62.0412 345.487 61.7227 345.746 61.4543ZM349.19 64.7507C349.448 64.4816 349.621 64.142 349.686 63.7749C349.75 63.4078 349.705 63.0297 349.555 62.6885C349.405 62.3473 349.157 62.0583 348.842 61.8581C348.528 61.6579 348.161 61.5556 347.788 61.564C347.415 61.5724 347.054 61.6912 346.748 61.9054C346.443 62.1195 346.209 62.4194 346.074 62.7671C345.939 63.1147 345.911 63.4945 345.992 63.8583C346.074 64.2221 346.261 64.5535 346.531 64.8107C346.707 64.9856 346.917 65.1232 347.148 65.2152C347.378 65.3071 347.625 65.3517 347.873 65.3461C348.122 65.3405 348.366 65.2849 348.593 65.1826C348.819 65.0803 349.022 64.9334 349.19 64.7507Z" fill="#3F3F3F"/>
<path d="M352.459 70.1016L352.316 68.1948C352.254 68.1645 352.194 68.1306 352.136 68.0933L351.097 67.4792L350.298 68.8181L349.444 68.3287L352.182 63.7119L354.075 64.8338C355.285 65.554 355.668 66.6205 355.063 67.6408C354.889 67.9644 354.615 68.2235 354.283 68.3798C353.95 68.5361 353.576 68.5813 353.216 68.5088L353.378 70.6556L352.459 70.1016ZM353.604 65.5309L352.607 64.9354L351.513 66.7821L352.514 67.3777C353.267 67.8393 353.858 67.7101 354.2 67.133C354.541 66.5559 354.357 65.9788 353.604 65.5309Z" fill="#3F3F3F"/>
<path d="M359.629 72.7842L360.635 69.377L358.11 71.6854L357.685 71.5607L356.822 68.2874L355.82 71.6438L354.897 71.3761L356.43 66.2422L357.214 66.473L358.239 70.485L361.254 67.678L362.039 67.9135L360.515 73.0473L359.629 72.7842Z" fill="#3F3F3F"/>
<path d="M362.667 70.9784L362.778 67.959L363.775 67.9959L363.664 70.9738C363.622 72.0772 364.126 72.5712 364.966 72.5989C365.806 72.6266 366.351 72.1788 366.379 71.0753L366.485 68.0975L367.464 68.1298L367.353 71.1492C367.297 72.7097 366.388 73.5269 364.924 73.4576C363.461 73.3884 362.611 72.5389 362.667 70.9784Z" fill="#3F3F3F"/>
<path d="M368.276 68.0007L369.259 67.8438L369.984 72.299L372.754 71.8373L372.888 72.6683L369.144 73.2777L368.276 68.0007Z" fill="#3F3F3F"/>
<path d="M377.284 69.8151L374.791 70.7892L374.749 72.1327L373.793 72.5066L374.093 66.6387L375.017 66.2832L379.213 70.3968L378.244 70.7753L377.284 69.8151ZM376.697 69.2056L374.906 67.4051L374.823 69.9536L376.697 69.2056Z" fill="#3F3F3F"/>
<path d="M378.249 65.6189L376.73 66.5423L376.296 65.8221L380.178 63.4629L380.612 64.1831L379.098 65.1065L381.443 68.9615L380.594 69.4786L378.249 65.6189Z" fill="#3F3F3F"/>
<path d="M386.319 64.0254L386.873 64.6486L383.876 67.3171L380.317 63.319L383.235 60.7197L383.789 61.343L381.614 63.2774L382.537 64.3208L384.467 62.5988L385.012 63.2128L383.082 64.9303L384.066 66.0198L386.319 64.0254Z" fill="#3F3F3F"/>
<path d="M383.673 60.2907L385.058 58.3978C386.079 57.0128 387.644 56.6665 388.941 57.613C390.238 58.5594 390.409 60.1476 389.403 61.5511L388.018 63.444L383.673 60.2907ZM388.673 61.094C389.38 60.1291 389.246 59.0765 388.35 58.4209C387.454 57.7653 386.406 57.9592 385.705 58.9334L384.943 59.986L387.912 62.1467L388.673 61.094Z" fill="#3F3F3F"/>
<path d="M380.635 40.3091H370.691V30.3645C370.691 30.1668 370.652 29.9711 370.576 29.7885C370.501 29.6059 370.39 29.44 370.25 29.3002C370.11 29.1604 369.944 29.0496 369.762 28.9739C369.579 28.8983 369.383 28.8594 369.186 28.8594H362.815C362.415 28.8594 362.033 29.0179 361.75 29.3002C361.468 29.5825 361.31 29.9653 361.31 30.3645V40.3091H351.365C350.966 40.3091 350.583 40.4676 350.301 40.7499C350.018 41.0321 349.86 41.415 349.86 41.8141V48.1853C349.86 48.5845 350.018 48.9673 350.301 49.2496C350.583 49.5318 350.966 49.6904 351.365 49.6904H361.31V59.635C361.31 60.0342 361.468 60.417 361.75 60.6993C362.033 60.9815 362.415 61.1401 362.815 61.1401H369.186C369.585 61.1401 369.968 60.9815 370.25 60.6993C370.532 60.417 370.691 60.0342 370.691 59.635V49.6904H380.635C380.833 49.6904 381.029 49.6515 381.211 49.5758C381.394 49.5002 381.56 49.3893 381.7 49.2496C381.839 49.1098 381.95 48.9439 382.026 48.7613C382.102 48.5787 382.141 48.383 382.141 48.1853V41.8141C382.141 41.6165 382.102 41.4208 382.026 41.2382C381.95 41.0556 381.839 40.8896 381.7 40.7499C381.56 40.6101 381.394 40.4993 381.211 40.4236C381.029 40.348 380.833 40.3091 380.635 40.3091Z" fill="#3F3F3F"/>
<path d="M343.493 47.2716C344.103 46.6575 344.509 47.0638 345.132 46.4405C346.056 45.5172 344.929 44.2106 343.706 44.2152C342.482 44.2198 341.674 43.4119 340.654 44.4322C339.634 45.4525 340.442 46.2789 340.437 47.4886C340.432 48.6982 341.734 49.8616 342.662 48.9382C343.281 48.2919 342.879 47.8856 343.493 47.2716Z" fill="#3F3F3F"/>
<path d="M338.968 44.8855C339.348 44.3774 339.091 43.5416 338.393 43.0188C337.695 42.4959 336.821 42.484 336.44 42.9921C336.06 43.5002 336.317 44.336 337.015 44.8588C337.713 45.3817 338.587 45.3936 338.968 44.8855Z" fill="#3F3F3F"/>
<path d="M341.093 42.7472C341.601 42.3665 341.59 41.4922 341.067 40.7943C340.544 40.0964 339.708 39.8392 339.2 40.2199C338.692 40.6006 338.704 41.4749 339.227 42.1728C339.749 42.8707 340.585 43.1279 341.093 42.7472Z" fill="#3F3F3F"/>
<path d="M338.978 47.6393C339.134 47.1913 338.773 46.6593 338.174 46.451C337.574 46.2427 336.962 46.4371 336.806 46.8851C336.65 47.3331 337.01 47.8651 337.61 48.0734C338.21 48.2817 338.822 48.0873 338.978 47.6393Z" fill="#3F3F3F"/>
<path d="M343.854 42.7584C344.302 42.6028 344.496 41.9905 344.288 41.3907C344.08 40.791 343.548 40.4309 343.1 40.5865C342.652 40.742 342.457 41.3544 342.666 41.9541C342.874 42.5539 343.406 42.914 343.854 42.7584Z" fill="#3F3F3F"/>
<path d="M389.153 47.2764C389.767 47.8905 389.361 48.2968 389.984 48.9154C390.908 49.8388 392.214 48.7123 392.21 47.4934C392.205 46.2746 393.018 45.4574 391.993 44.4371C390.968 43.4168 390.146 44.2247 388.936 44.2201C387.727 44.2155 386.586 45.5174 387.514 46.4454C388.133 47.0918 388.539 46.6624 389.153 47.2764Z" fill="#3F3F3F"/>
<path d="M393.412 42.1803C393.935 41.4824 393.947 40.6081 393.439 40.2274C392.931 39.8467 392.095 40.1039 391.572 40.8018C391.049 41.4997 391.037 42.374 391.545 42.7547C392.053 43.1354 392.889 42.8782 393.412 42.1803Z" fill="#3F3F3F"/>
<path d="M395.634 44.8484C396.332 44.3256 396.589 43.4898 396.209 42.9817C395.828 42.4736 394.954 42.4855 394.256 43.0084C393.558 43.5312 393.301 44.367 393.681 44.8751C394.062 45.3832 394.936 45.3713 395.634 44.8484Z" fill="#3F3F3F"/>
<path d="M389.971 41.9589C390.179 41.3591 389.985 40.7468 389.537 40.5912C389.089 40.4356 388.557 40.7957 388.349 41.3955C388.14 41.9952 388.335 42.6076 388.783 42.7631C389.231 42.9187 389.763 42.5586 389.971 41.9589Z" fill="#3F3F3F"/>
<path d="M395.036 48.0783C395.636 47.87 395.996 47.338 395.84 46.89C395.685 46.442 395.073 46.2476 394.473 46.4559C393.873 46.6642 393.513 47.1962 393.668 47.6442C393.824 48.0922 394.436 48.2866 395.036 48.0783Z" fill="#3F3F3F"/>
</g>
<g clip-path="url(#clip1)">
<path d="M239.769 34.9726L236.451 33.703L238.565 36.3992L238.408 36.8147L235.075 37.4195L238.348 38.6753L238.006 39.5617L233.008 37.6457L233.303 36.8839L237.378 36.1683L234.812 32.9366L235.103 32.1748L240.106 34.0862L239.769 34.9726Z" fill="#3F3F3F"/>
<path d="M241.694 29.7182L240.129 31.8881L240.826 33.0423L240.226 33.8733L237.291 28.7948L237.863 27.9961L243.623 29.1688L243.014 30.009L241.694 29.7182ZM240.872 29.5473L238.38 28.9979L239.695 31.1771L240.872 29.5473Z" fill="#3F3F3F"/>
<path d="M243.932 21.8467L247.435 25.9002L246.817 26.4358L242.202 25.6232L244.574 28.3933L243.826 29.0397L240.323 24.9861L240.942 24.4506L245.557 25.2585L243.185 22.493L243.932 21.8467Z" fill="#3F3F3F"/>
<path d="M247.14 23.31L245.755 20.6184L246.642 20.1567L248.003 22.8114C248.506 23.7948 249.166 23.9887 249.932 23.5916C250.699 23.1946 250.925 22.5529 250.422 21.5695L249.037 18.9148L249.909 18.4531L251.294 21.1447C252.009 22.5298 251.612 23.6932 250.311 24.3765C249.009 25.0598 247.846 24.6997 247.14 23.31Z" fill="#3F3F3F"/>
<path d="M253.085 18.343L253.5 19.9173L256.002 19.2571L256.218 20.0697L253.717 20.7345L254.243 22.7151L253.283 22.969L251.898 17.7936L255.692 16.7871L255.905 17.5951L253.085 18.343Z" fill="#3F3F3F"/>
<path d="M260.686 20.4705L258 20.646L257.538 21.9156L256.518 21.9849L258.605 16.4816L259.578 16.417L262.348 21.6063L261.3 21.6986L260.686 20.4705ZM260.308 19.7134L259.149 17.4419L258.3 19.8519L260.308 19.7134Z" fill="#3F3F3F"/>
<path d="M262.385 18.9893C262.493 18.4333 262.763 17.9214 263.16 17.5171C263.557 17.1128 264.063 16.8339 264.617 16.7149C265.171 16.596 265.747 16.6422 266.275 16.8479C266.803 17.0536 267.259 17.4097 267.586 17.872L266.866 18.3753C266.718 18.1501 266.522 17.9595 266.294 17.8161C266.065 17.6728 265.809 17.5801 265.542 17.5443C265.293 17.4997 265.038 17.5056 264.792 17.5616C264.546 17.6175 264.314 17.7224 264.109 17.8699C263.904 18.0175 263.731 18.2047 263.6 18.4204C263.469 18.6362 263.383 18.8761 263.346 19.1259C263.31 19.3757 263.324 19.6302 263.388 19.8745C263.451 20.1187 263.564 20.3477 263.718 20.5477C263.872 20.7477 264.064 20.9147 264.284 21.0388C264.504 21.1629 264.746 21.2415 264.997 21.27C265.264 21.3136 265.536 21.2982 265.796 21.2248C266.056 21.1514 266.297 21.0219 266.502 20.8453L267.051 21.547C266.604 21.8949 266.065 22.1044 265.501 22.1495C264.937 22.1946 264.372 22.0735 263.875 21.8009C263.379 21.5284 262.973 21.1165 262.708 20.616C262.444 20.1156 262.331 19.5484 262.385 18.9847V18.9893Z" fill="#3F3F3F"/>
<path d="M270.226 18.7853L268.56 18.1713L268.851 17.3818L273.115 18.9562L272.825 19.7503L271.158 19.1316L269.589 23.3652L268.666 23.0236L270.226 18.7853Z" fill="#3F3F3F"/>
<path d="M272.769 22.1332L274.38 19.5801L275.22 20.111L273.628 22.6226C273.041 23.5459 273.208 24.22 273.937 24.6817C274.666 25.1433 275.321 25.0048 275.921 24.0722L277.514 21.5515L278.345 22.0732L276.729 24.6309C275.898 25.9467 274.698 26.196 273.466 25.4157C272.234 24.6355 271.934 23.4536 272.769 22.1332Z" fill="#3F3F3F"/>
<path d="M278.663 29.7087L279.009 27.8251C278.955 27.7825 278.904 27.7362 278.857 27.6866L278.008 26.8278L276.895 27.9266L276.198 27.2387L279.997 23.4668L281.538 25.0134C282.531 26.0107 282.637 27.1372 281.792 27.9728C281.544 28.2431 281.215 28.4262 280.854 28.4952C280.493 28.5642 280.12 28.5154 279.789 28.356L279.42 30.4705L278.663 29.7087ZM280.92 25.5536L280.103 24.7272L278.585 26.2323L279.406 27.0587C280.02 27.6773 280.62 27.7189 281.095 27.2433C281.571 26.7678 281.538 26.1907 280.92 25.5721V25.5536Z" fill="#3F3F3F"/>
<path d="M282.623 33.9194L281.922 34.3811L279.748 30.997L284.252 28.0977L286.366 31.3941L285.665 31.8557L284.086 29.3996L282.923 30.1337L284.308 32.3174L283.62 32.7791L282.235 30.6046L280.985 31.3941L282.623 33.9194Z" fill="#3F3F3F"/>
<path d="M287.266 33.1074L288.065 35.3096C288.655 36.944 288.065 38.4214 286.542 38.9708C285.018 39.5202 283.62 38.7676 283.029 37.1241L282.231 34.9264L287.266 33.1074ZM283.805 36.8009C284.211 37.9228 285.157 38.4029 286.2 38.0243C287.243 37.6458 287.663 36.6716 287.257 35.5497L286.795 34.3263L283.385 35.582L283.805 36.8009Z" fill="#3F3F3F"/>
<path d="M243.023 60.5723L244.043 61.6942L240.092 65.3045L239.077 64.1734L243.023 60.5723Z" fill="#3F3F3F"/>
<path d="M248.437 65.3925L245.128 69.6077L244.154 68.8367L244.057 65.1432L242.308 67.3778L241.14 66.4544L244.449 62.2393L245.428 63.0103L245.529 66.7037L247.292 64.4553L248.437 65.3925Z" fill="#3F3F3F"/>
<path d="M251.238 68.07L249.692 67.4698L250.126 66.3525L254.594 68.1023L254.132 69.2196L252.609 68.624L251.137 72.4837L249.725 71.9342L251.238 68.07Z" fill="#3F3F3F"/>
<path d="M259.615 68.9383L258.743 74.2245L257.248 73.9752L257.589 71.9161L255.549 71.5606L255.231 73.6382L253.712 73.4073L254.585 68.1211L256.08 68.3658L255.752 70.3556L257.792 70.6926L258.12 68.7028L259.615 68.9383Z" fill="#3F3F3F"/>
<path d="M264.701 72.8718L264.761 74.0445L260.469 74.2661L260.192 68.9152L264.388 68.6982L264.448 69.8663L261.748 70.0048L261.794 70.9282L264.171 70.8035L264.231 71.9346L261.854 72.0593L261.905 73.0334L264.701 72.8718Z" fill="#3F3F3F"/>
<path d="M267.642 71.0988L266.631 68.3056L268.057 67.7885L269.049 70.5586C269.363 71.4219 269.848 71.6389 270.434 71.4219C271.02 71.205 271.26 70.734 270.946 69.8707L269.954 67.1006L271.339 66.5928L272.345 69.3859C272.889 70.891 272.312 72.0498 270.822 72.59C269.331 73.1302 268.182 72.5992 267.642 71.0988Z" fill="#3F3F3F"/>
<path d="M274.043 70.6367L273.877 69.4271C274.5 69.44 275.115 69.2802 275.654 68.9654C276.189 68.633 276.3 68.356 276.166 68.1344C275.705 67.4142 273.457 69.5471 272.409 67.8574C271.901 67.0494 272.151 65.9737 273.503 65.1289C274.073 64.7639 274.725 64.548 275.4 64.501L275.598 65.7013C275.078 65.7221 274.571 65.8712 274.121 66.1353C273.581 66.4724 273.498 66.7724 273.66 67.0033C274.089 67.6958 276.346 65.5721 277.389 67.248C277.883 68.0375 277.638 69.127 276.291 69.9673C275.62 70.3987 274.84 70.6308 274.043 70.6367Z" fill="#3F3F3F"/>
<path d="M281.077 64.635L279.443 66.2001L279.859 67.2435L278.769 68.3284L276.775 62.8252L277.851 61.791L283.269 64.0209L282.111 65.0966L281.077 64.635ZM279.983 64.1317L278.308 63.3792L279 65.0966L279.983 64.1317Z" fill="#3F3F3F"/>
<path d="M260.986 90C252.089 90 243.391 87.3608 235.993 82.4161C228.595 77.4715 222.829 70.4434 219.424 62.2207C216.019 53.9981 215.129 44.9501 216.864 36.2209C218.6 27.4918 222.885 19.4736 229.176 13.1802C235.468 6.88685 243.483 2.60102 252.21 0.864682C260.936 -0.871652 269.981 0.0194979 278.202 3.42544C286.422 6.83138 293.448 12.5991 298.391 19.9993C303.334 27.3996 305.972 36.0998 305.972 45C305.959 56.9306 301.215 68.3687 292.781 76.8049C284.348 85.2412 272.913 89.9865 260.986 90ZM260.986 3.69346C252.819 3.69346 244.835 6.11605 238.044 10.6549C231.254 15.1937 225.961 21.6449 222.836 29.1927C219.71 36.7405 218.892 45.0458 220.486 53.0585C222.079 61.0712 226.012 68.4313 231.787 74.2081C237.562 79.985 244.92 83.919 252.93 85.5128C260.94 87.1067 269.243 86.2887 276.789 83.1623C284.334 80.0359 290.783 74.7415 295.321 67.9487C299.858 61.1559 302.28 53.1697 302.28 45C302.267 34.049 297.912 23.5503 290.17 15.8067C282.429 8.06314 271.934 3.7069 260.986 3.69346Z" fill="#3F3F3F"/>
<path d="M260.986 81.6808C253.732 81.6817 246.641 79.5309 240.61 75.5002C234.578 71.4695 229.877 65.7401 227.1 59.0366C224.324 52.3331 223.597 44.9566 225.012 37.8399C226.427 30.7233 229.92 24.1862 235.049 19.0554C240.178 13.9246 246.714 10.4306 253.828 9.01523C260.942 7.59988 268.317 8.32675 275.018 11.1039C281.72 13.8811 287.447 18.5839 291.477 24.6174C295.506 30.651 297.656 37.7443 297.655 45.0003C297.644 54.7252 293.778 64.0487 286.903 70.9252C280.029 77.8018 270.708 81.6698 260.986 81.6808ZM260.986 9.23392C253.915 9.23301 247.003 11.3296 241.123 15.2586C235.243 19.1876 230.66 24.7725 227.953 31.3071C225.247 37.8416 224.538 45.0322 225.917 51.9696C227.296 58.9071 230.701 65.2796 235.7 70.2815C240.7 75.2833 247.07 78.6897 254.005 80.07C260.94 81.4502 268.129 80.7423 274.662 78.0357C281.195 75.3291 286.778 70.7454 290.707 64.8644C294.635 58.9833 296.732 52.0689 296.732 44.9957C296.721 35.5153 292.952 26.4262 286.251 19.7221C279.549 13.018 270.464 9.24614 260.986 9.23392Z" fill="#3F3F3F"/>
<path d="M260.986 25.4619C260.603 25.4619 260.22 25.4619 259.842 25.4988H262.149C261.748 25.4758 261.369 25.4619 260.986 25.4619Z" fill="#3F3F3F"/>
<path d="M235.408 42.3818L236.368 44.3301L238.518 44.6441L236.963 46.1584L237.328 48.3006L235.408 47.2895L233.483 48.3006L233.852 46.1584L232.297 44.6441L234.448 44.3301L235.408 42.3818Z" fill="#3F3F3F"/>
<path d="M236.834 50.5586L237.794 52.5069L239.945 52.8208L238.389 54.3351L238.754 56.4773L236.834 55.4663L234.909 56.4773L235.278 54.3351L233.723 52.8208L235.869 52.5069L236.834 50.5586Z" fill="#3F3F3F"/>
<path d="M286.855 42.3818L285.895 44.3301L283.749 44.6441L285.305 46.1584L284.935 48.3006L286.855 47.2895L288.78 48.3006L288.411 46.1584L289.966 44.6441L287.82 44.3301L286.855 42.3818Z" fill="#3F3F3F"/>
<path d="M285.434 50.5586L284.469 52.5069L282.323 52.8208L283.879 54.3351L283.509 56.4773L285.434 55.4663L287.354 56.4773L286.989 54.3351L288.54 52.8208L286.394 52.5069L285.434 50.5586Z" fill="#3F3F3F"/>
<path d="M279.789 39.7041H260.275V43.2544H280.435C280.33 42.0536 280.113 40.8651 279.789 39.7041Z" fill="#3F3F3F"/>
<path d="M276.083 32.6084H260.003V36.1587H278.4C277.761 34.8934 276.984 33.7027 276.083 32.6084Z" fill="#3F3F3F"/>
<path d="M262.126 25.499H260.28V29.054H272.28C269.299 26.9344 265.778 25.702 262.126 25.499Z" fill="#3F3F3F"/>
<path d="M247.943 30.4707L247.938 30.4752L247.929 30.4977L247.934 30.4932L247.943 30.4707Z" fill="#3F3F3F"/>
<path d="M245.077 34.2096L245.372 33.3105C245.15 33.6056 244.911 33.9007 244.722 34.2096H245.077Z" fill="#3F3F3F"/>
<path d="M260.58 25.4707C257.625 25.5315 254.723 26.2624 252.092 27.6083L252.134 27.7329H253.098L252.318 28.3008L252.618 29.2242L251.838 28.6563L251.077 29.2149L251.372 28.2916L251.146 28.1254C250.508 28.496 249.892 28.9029 249.3 29.3442H249.854L249.083 29.9167L249.378 30.8401L248.598 30.2722L247.818 30.8401L247.929 30.503C246.984 31.3511 246.125 32.2897 245.363 33.3054L245.658 34.2288H246.623L245.843 34.792L246.143 35.7154L245.363 35.1475L244.583 35.7154L244.878 34.792L244.518 34.5289C243.625 35.9334 242.915 37.446 242.405 39.0303V39.0857H243.369L242.589 39.6535L242.885 40.5769L242.123 39.9813C241.842 41.0408 241.649 42.1217 241.546 43.2131H260.58V25.4707ZM246.143 42.1697L245.363 41.6018L244.583 42.1697L244.878 41.2463L244.098 40.6831H245.077L245.377 39.7597L245.672 40.6831H246.637L245.857 41.2463L246.143 42.1697ZM245.843 38.0146L246.143 38.9379L245.363 38.3654L244.583 38.9333L244.878 38.01L244.098 37.4421H245.077L245.377 36.5187L245.672 37.4421H246.637L245.843 38.0146ZM249.378 40.5492L248.598 39.9813L247.818 40.5492L248.118 39.6258L247.338 39.0672H248.308L248.603 38.1438L248.903 39.0672H249.868L249.088 39.6351L249.378 40.5492ZM249.083 36.3941L249.378 37.3174L248.598 36.7496L247.818 37.3174L248.118 36.3941L247.338 35.8262H248.308L248.603 34.9028L248.903 35.8262H249.868L249.083 36.3941ZM249.083 33.1623L249.378 34.0857L248.598 33.5224L247.818 34.0718L248.118 33.1485L247.338 32.5898H248.308L248.603 31.6665L248.903 32.5898H249.868L249.083 33.1623ZM252.618 42.1743L251.838 41.6064L251.077 42.1697L251.372 41.2463L250.592 40.6831H251.538L251.838 39.7597L252.134 40.6831H253.098L252.318 41.2463L252.618 42.1743ZM252.318 38.0192L252.618 38.9425L251.838 38.3654L251.077 38.9333L251.372 38.01L250.592 37.4421H251.538L251.838 36.5187L252.134 37.4421H253.098L252.318 38.0192ZM252.318 34.7874L252.618 35.7108L251.838 35.1429L251.077 35.6923L251.372 34.769L250.574 34.2103H251.538L251.838 33.287L252.134 34.2103H253.098L252.318 34.7874ZM252.318 31.5557L252.618 32.479L251.838 31.9112L251.077 32.4559L251.372 31.5326L250.592 30.9647H251.538L251.838 30.0413L252.134 30.9647H253.098L252.318 31.5557ZM255.854 40.5677L255.074 39.9813L254.308 40.5492L254.608 39.6258L253.828 39.058H254.769L255.065 38.1346L255.365 39.058H256.325L255.549 39.6258L255.854 40.5677ZM255.558 36.4125L255.854 37.3359L255.074 36.768L254.308 37.3128L254.608 36.3895L253.814 35.8262H254.769L255.065 34.9028L255.365 35.8262H256.325L255.558 36.4125ZM255.558 33.1808L255.854 34.1041L255.074 33.5409L254.308 34.0718L254.608 33.1485L253.828 32.5806H254.769L255.065 31.6572L255.365 32.5806H256.325L255.558 33.1808ZM255.558 29.949L255.854 30.8724L255.074 30.3045L254.308 30.8354L254.608 29.9121L253.828 29.3488H254.769L255.065 28.4255L255.365 29.3488H256.325L255.558 29.949ZM259.089 42.202L258.314 41.6341L257.538 42.1697L257.834 41.2463L257.054 40.6831H258L258.3 39.7597L258.595 40.6831H259.56L258.78 41.2463L259.089 42.202ZM258.794 38.0469L259.089 38.9702L258.314 38.3654L257.538 38.9333L257.834 38.01L257.054 37.4421H258L258.3 36.5187L258.595 37.4421H259.56L258.794 38.0469ZM258.794 34.8151L259.089 35.7385L258.314 35.1706L257.538 35.6923L257.834 34.769L257.049 34.2103H258L258.3 33.287L258.595 34.2103H259.56L258.794 34.8151ZM258.794 31.5834L259.089 32.5067L258.314 31.9389L257.538 32.4559L257.834 31.5326L257.054 30.9647H258L258.3 30.0413L258.595 30.9647H259.56L258.794 31.5834ZM258.794 28.3516L259.089 29.275L258.314 28.7071L257.538 29.2149L257.834 28.2916L257.054 27.7237H258L258.3 26.8003L258.595 27.7237H259.56L258.794 28.3516Z" fill="#3F3F3F"/>
<path d="M241.542 46.8281C241.655 48.0296 241.879 49.2181 242.211 50.3785H279.762C280.094 49.2185 280.317 48.0298 280.426 46.8281H241.542Z" fill="#3F3F3F"/>
<path d="M243.618 53.9336C244.27 55.2005 245.058 56.3925 245.968 57.4885H276C276.911 56.3936 277.699 55.2014 278.349 53.9336H243.618Z" fill="#3F3F3F"/>
<path d="M272.123 61.043H249.849C252.885 63.1611 256.462 64.3673 260.16 64.5194H260.275C260.511 64.5194 260.737 64.5194 260.986 64.5194C264.967 64.5279 268.854 63.3145 272.123 61.043Z" fill="#3F3F3F"/>
</g>
<g clip-path="url(#clip2)">
<path d="M156 90C147.1 90 138.4 87.3608 130.999 82.4161C123.599 77.4715 117.831 70.4434 114.426 62.2208C111.02 53.9981 110.128 44.9501 111.865 36.2209C113.601 27.4918 117.887 19.4736 124.18 13.1802C130.474 6.88685 138.492 2.60102 147.221 0.864682C155.95 -0.871652 164.998 0.0194979 173.221 3.42544C181.444 6.83138 188.472 12.5991 193.416 19.9994C198.361 27.3996 201 36.0999 201 45C200.987 56.9306 196.241 68.3687 187.805 76.805C179.369 85.2412 167.931 89.9866 156 90ZM156 3.69346C147.83 3.69346 139.844 6.11605 133.051 10.6549C126.259 15.1937 120.964 21.6449 117.838 29.1927C114.711 36.7405 113.893 45.0458 115.487 53.0585C117.081 61.0712 121.015 68.4313 126.792 74.2082C132.569 79.985 139.929 83.919 147.942 85.5129C155.954 87.1067 164.26 86.2887 171.807 83.1623C179.355 80.0359 185.806 74.7415 190.345 67.9487C194.884 61.1559 197.307 53.1697 197.307 45C197.293 34.049 192.937 23.5503 185.193 15.8067C177.45 8.06315 166.951 3.7069 156 3.69346Z" fill="#3F3F3F"/>
<path d="M156 81.6808C148.744 81.6817 141.651 79.5309 135.617 75.5002C129.584 71.4695 124.881 65.7401 122.104 59.0366C119.327 52.3331 118.6 44.9566 120.015 37.8399C121.43 30.7233 124.924 24.1862 130.055 19.0554C135.186 13.9246 141.723 10.4306 148.84 9.01523C155.956 7.59988 163.333 8.32675 170.036 11.1039C176.74 13.8811 182.469 18.5839 186.5 24.6174C190.531 30.651 192.681 37.7443 192.681 45.0003C192.67 54.7252 188.801 64.0487 181.925 70.9252C175.048 77.8018 165.725 81.6698 156 81.6808ZM156 9.23392C148.927 9.23301 142.012 11.3296 136.131 15.2586C130.249 19.1876 125.665 24.7725 122.957 31.3071C120.25 37.8416 119.541 45.0322 120.92 51.9696C122.3 58.9071 125.705 65.2796 130.706 70.2815C135.708 75.2833 142.08 78.6897 149.017 80.07C155.954 81.4502 163.145 80.7423 169.68 78.0357C176.215 75.3291 181.8 70.7455 185.73 64.8644C189.66 58.9833 191.757 52.0689 191.757 44.9957C191.746 35.5153 187.976 26.4262 181.272 19.7221C174.569 13.018 165.48 9.24614 156 9.23392Z" fill="#3F3F3F"/>
<path fill-rule="evenodd" clip-rule="evenodd" d="M133.996 47.6642H141.199V44.9541H131.393H131.291V54.6032H133.918V47.7057L133.996 47.6642Z" fill="#3F3F3F"/>
<path fill-rule="evenodd" clip-rule="evenodd" d="M131.314 35.4844H150.977H151.019C153.068 35.4874 155.033 36.3046 156.48 37.7562C157.927 39.2077 158.739 41.1747 158.736 43.2244C158.733 45.2742 157.915 47.2387 156.464 48.686C155.012 50.1332 153.045 50.9445 150.996 50.9414H146.111V41.1538H148.83V48.2591H151.037C152.35 48.2143 153.593 47.6601 154.504 46.7138C155.415 45.7676 155.921 44.5038 155.916 43.1904C155.91 41.8771 155.394 40.6175 154.475 39.6788C153.557 38.7401 152.308 38.1961 150.996 38.1621H133.913V41.163H141.18V43.8593H131.314V35.4844Z" fill="#3F3F3F"/>
<path fill-rule="evenodd" clip-rule="evenodd" d="M170.719 31.9346L182.611 51.9807L184.31 49.1691L173.77 31.9346H170.719Z" fill="#3F3F3F"/>
<path fill-rule="evenodd" clip-rule="evenodd" d="M158.512 54.6027L170.709 34.2842L180.769 50.9278H166.905V48.3331H175.903L170.709 39.6674L162.196 54.6027H158.512Z" fill="#3F3F3F"/>
<path fill-rule="evenodd" clip-rule="evenodd" d="M182.611 51.9802L166.905 51.9756V54.6026L181.065 54.5979L181.088 54.5333L182.611 51.9802Z" fill="#3F3F3F"/>
<path fill-rule="evenodd" clip-rule="evenodd" d="M142.265 51.8974V41.1541H144.984V51.9205H150.986C153.269 51.8711 155.442 50.9304 157.039 49.2997C158.637 47.669 159.534 45.4776 159.537 43.1945C159.54 40.9113 158.649 38.7176 157.056 37.0826C155.462 35.4477 153.292 34.5013 151.009 34.4459H130.317V54.6028H127.69V31.8281H151.037C153.66 31.8229 156.204 32.7302 158.231 34.3947C160.259 36.0591 161.644 38.377 162.15 40.951L167.667 31.9343H170.718L161.254 47.7838L160.331 49.3351C158.295 52.3175 154.915 54.5382 151.028 54.5752H142.256V51.8974H142.265Z" fill="#3F3F3F"/>
<path d="M139.763 27.0127V24.1734L138.378 26.4818H137.699L136.314 24.2519V27.0219H134.929V21.6572H136.176L138.059 24.7459L139.906 21.6572H141.153V27.0127H139.763Z" fill="#3F3F3F"/>
<path d="M145.728 25.9693H143.465L143.045 27.0127H141.499L143.863 21.6572H145.354L147.727 27.0127H146.148L145.728 25.9693ZM145.266 24.8521L144.578 23.1392L143.89 24.8521H145.266Z" fill="#3F3F3F"/>
<path d="M148.059 21.6572H150.594C152.367 21.6572 153.586 22.6914 153.586 24.335C153.586 25.9786 152.367 27.0127 150.594 27.0127H148.059V21.6572ZM150.529 25.8123C150.722 25.8123 150.913 25.7744 151.091 25.7006C151.269 25.6268 151.431 25.5187 151.567 25.3823C151.704 25.246 151.812 25.0842 151.886 24.906C151.959 24.7279 151.997 24.537 151.997 24.3442C151.997 24.1514 151.959 23.9605 151.886 23.7824C151.812 23.6042 151.704 23.4424 151.567 23.3061C151.431 23.1697 151.269 23.0616 151.091 22.9878C150.913 22.914 150.722 22.8761 150.529 22.8761H149.574V25.8123H150.529Z" fill="#3F3F3F"/>
<path d="M158.576 25.8539V27.0266H154.278V21.6572H158.479V22.8253H155.783V23.7486H158.161V24.8798H155.783V25.8539H158.576Z" fill="#3F3F3F"/>
<path d="M161.388 21.6572H162.902V27.0127H161.388V21.6572Z" fill="#3F3F3F"/>
<path d="M168.983 21.6572V27.0127H167.736L165.368 24.1595V27.0127H163.886V21.6572H165.132L167.496 24.5104V21.6572H168.983Z" fill="#3F3F3F"/>
<path d="M175.608 25.9693H173.327L172.907 27.0127H171.365L173.729 21.6572H175.22L177.588 27.0127H176.014L175.608 25.9693ZM175.146 24.8521L174.458 23.1392L173.789 24.8521H175.146Z" fill="#3F3F3F"/>
<path d="M138.863 64.9865L137.939 63.6614C137.881 63.666 137.822 63.666 137.764 63.6614H136.743V64.9772H135.903V60.4805H137.75C138.941 60.4805 139.68 61.0899 139.68 62.0917C139.693 62.4014 139.606 62.7071 139.432 62.9639C139.258 63.2206 139.007 63.4149 138.715 63.5183L139.754 65.0049L138.863 64.9865ZM137.727 61.173H136.743V62.9782H137.727C138.461 62.9782 138.844 62.6411 138.844 62.0548C138.844 61.4685 138.461 61.173 137.727 61.173Z" fill="#3F3F3F"/>
<path d="M143.89 64.2847V64.9865H140.497V60.4805H143.803V61.1868H141.337V62.3272H143.526V63.0151H141.337V64.2662L143.89 64.2847Z" fill="#3F3F3F"/>
<path d="M147.695 62.6731H148.489V64.4783C147.977 64.8602 147.354 65.0616 146.716 65.0508C146.099 65.0508 145.507 64.8056 145.07 64.3692C144.634 63.9329 144.389 63.341 144.389 62.7239C144.389 62.1068 144.634 61.5149 145.07 61.0785C145.507 60.6422 146.099 60.397 146.716 60.397C147.054 60.3814 147.392 60.4393 147.706 60.5669C148.02 60.6944 148.303 60.8885 148.535 61.1357L148.004 61.6528C147.843 61.4849 147.65 61.3522 147.435 61.2632C147.22 61.1742 146.99 61.1308 146.757 61.1357C146.541 61.1241 146.325 61.1566 146.122 61.2312C145.919 61.3059 145.733 61.4212 145.576 61.57C145.419 61.7188 145.294 61.8981 145.208 62.0969C145.123 62.2957 145.079 62.5098 145.079 62.7262C145.079 62.9426 145.123 63.1567 145.208 63.3555C145.294 63.5543 145.419 63.7336 145.576 63.8824C145.733 64.0312 145.919 64.1465 146.122 64.2212C146.325 64.2958 146.541 64.3283 146.757 64.3167C147.081 64.3221 147.399 64.2408 147.681 64.0812L147.695 62.6731Z" fill="#3F3F3F"/>
<path d="M149.44 60.4805H150.28V65.0049H149.44V60.4805Z" fill="#3F3F3F"/>
<path d="M151 64.5104L151.291 63.8548C151.724 64.1764 152.248 64.3511 152.787 64.3534C153.493 64.3534 153.789 64.1041 153.789 63.7671C153.789 62.7883 151.097 63.4301 151.097 61.7495C151.097 61.0155 151.679 60.3968 152.944 60.3968C153.474 60.3889 153.997 60.5279 154.453 60.7985L154.186 61.4494C153.809 61.2235 153.379 61.1009 152.939 61.0939C152.242 61.0939 151.956 61.3663 151.956 61.708C151.956 62.6729 154.638 62.045 154.638 63.7071C154.638 64.4319 154.052 65.0506 152.791 65.0506C152.151 65.0713 151.522 64.8816 151 64.5104Z" fill="#3F3F3F"/>
<path d="M156.314 61.173H154.814V60.4805H158.655V61.1915H157.168V65.0049H156.314V61.173Z" fill="#3F3F3F"/>
<path d="M162.533 64.2847V64.9865H159.135V60.4805H162.441V61.1868H159.975V62.3272H162.164V63.0151H159.975V64.2662L162.533 64.2847Z" fill="#3F3F3F"/>
<path d="M166.272 64.9865L165.349 63.6614C165.291 63.666 165.232 63.666 165.174 63.6614H164.153V64.9772H163.313V60.4805H165.16C166.351 60.4805 167.09 61.0899 167.09 62.0917C167.102 62.4014 167.016 62.7071 166.842 62.9639C166.668 63.2206 166.417 63.4149 166.125 63.5183L167.163 65.0049L166.272 64.9865ZM165.137 61.173H164.153V62.9782H165.137C165.871 62.9782 166.254 62.6411 166.254 62.0548C166.254 61.4685 165.871 61.173 165.137 61.173Z" fill="#3F3F3F"/>
<path d="M171.305 64.2847V64.9865H167.907V60.4805H171.212V61.1868H168.747V62.3272H170.935V63.0151H168.747V64.2662L171.305 64.2847Z" fill="#3F3F3F"/>
<path d="M172.085 60.4805H174.061C175.529 60.4805 176.531 61.4038 176.531 62.7427C176.531 64.0816 175.529 65.0049 174.061 65.0049H172.085V60.4805ZM174.024 64.2939C174.238 64.3105 174.453 64.2826 174.655 64.2121C174.858 64.1417 175.043 64.0301 175.201 63.8844C175.358 63.7388 175.484 63.5622 175.57 63.3657C175.655 63.1692 175.7 62.9571 175.7 62.7427C175.7 62.5283 175.655 62.3162 175.57 62.1197C175.484 61.9233 175.358 61.7466 175.201 61.601C175.043 61.4553 174.858 61.3438 174.655 61.2733C174.453 61.2028 174.238 61.1749 174.024 61.1915H172.925V64.2939H174.024Z" fill="#3F3F3F"/>
<path d="M143.198 68.0932V69.4782H145.381V70.1754H143.198V71.9067H142.353V67.4053H145.658V68.1116L143.198 68.0932Z" fill="#3F3F3F"/>
<path d="M149.006 70.8679H146.739L146.277 71.9113H145.428L147.473 67.4053H148.304L150.345 71.9297H149.458L149.006 70.8679ZM148.724 70.2077L147.875 68.2271L147.011 70.2077H148.724Z" fill="#3F3F3F"/>
<path d="M150.266 69.6496C150.289 69.1713 150.452 68.7104 150.735 68.3238C151.018 67.9373 151.407 67.6422 151.856 67.4751C152.305 67.308 152.793 67.2762 153.259 67.3837C153.726 67.4912 154.151 67.7333 154.481 68.0799L153.936 68.5877C153.784 68.4187 153.597 68.2842 153.389 68.1934C153.18 68.1027 152.954 68.0576 152.727 68.0614C152.511 68.0497 152.295 68.0822 152.091 68.1569C151.888 68.2316 151.703 68.3469 151.546 68.4957C151.388 68.6445 151.263 68.8238 151.178 69.0226C151.092 69.2214 151.048 69.4355 151.048 69.6519C151.048 69.8683 151.092 70.0824 151.178 70.2812C151.263 70.48 151.388 70.6592 151.546 70.8081C151.703 70.9569 151.888 71.0722 152.091 71.1468C152.295 71.2215 152.511 71.254 152.727 71.2424C152.955 71.2456 153.181 71.1994 153.39 71.107C153.599 71.0145 153.785 70.878 153.936 70.7068L154.477 71.2239C154.145 71.5686 153.72 71.8088 153.254 71.9149C152.787 72.0209 152.3 71.9883 151.852 71.821C151.404 71.6536 151.015 71.3589 150.732 70.9731C150.449 70.5873 150.286 70.1272 150.261 69.6496H150.266Z" fill="#3F3F3F"/>
<path d="M155.118 67.4053H155.963V71.9297H155.118V67.4053Z" fill="#3F3F3F"/>
<path d="M157.016 67.4053H157.856V71.2188H160.225V71.9297H156.993L157.016 67.4053Z" fill="#3F3F3F"/>
<path d="M160.723 67.4053H161.563V71.9297H160.723V67.4053Z" fill="#3F3F3F"/>
<path d="M163.539 68.0978H162.039V67.4053H165.88V68.1163H164.38V71.9297H163.539V68.0978Z" fill="#3F3F3F"/>
<path d="M168.65 70.3139V71.9113H167.81V70.3277L166.032 67.4053H166.928L168.253 69.6121L169.592 67.4053H170.423L168.65 70.3139Z" fill="#3F3F3F"/>
</g>
<g clip-path="url(#clip3)">
<path d="M30.217 28.8182L27.3684 26.6991L28.6657 29.8662L28.4026 30.2217L25.0323 29.9031L27.8393 31.9992L27.2714 32.7794L22.9824 29.5477L23.4718 28.8921L27.5854 29.3122L25.9926 25.5218L26.482 24.8662L30.7802 28.0657L30.217 28.8182Z" fill="#3F3F3F"/>
<path d="M29.5476 25.5352C29.1736 25.0967 28.9395 24.5563 28.8755 23.9835C28.8114 23.4108 28.9204 22.832 29.1882 22.3217C29.4561 21.8115 29.8706 21.3931 30.3783 21.1205C30.8861 20.8479 31.4639 20.7336 32.0372 20.7924C32.6105 20.8511 33.1531 21.0802 33.595 21.45C34.037 21.8199 34.358 22.3136 34.5169 22.8676C34.6757 23.4216 34.665 24.0105 34.4861 24.5583C34.3073 25.1062 33.9685 25.5879 33.5134 25.9415C33.2311 26.1858 32.9017 26.3699 32.5456 26.4822C32.1895 26.5946 31.8142 26.6329 31.4427 26.5949C31.0713 26.5568 30.7115 26.4432 30.3856 26.261C30.0597 26.0787 29.7745 25.8317 29.5476 25.5352ZM33.3103 22.622C33.082 22.3274 32.7714 22.1072 32.4179 21.9892C32.0644 21.8712 31.6838 21.8607 31.3243 21.959C30.9649 22.0574 30.6426 22.2602 30.3984 22.5417C30.1543 22.8233 29.9991 23.1709 29.9525 23.5407C29.906 23.9104 29.9702 24.2857 30.137 24.619C30.3038 24.9523 30.5657 25.2286 30.8896 25.4129C31.2135 25.5973 31.5848 25.6815 31.9565 25.6547C32.3282 25.628 32.6837 25.4916 32.9779 25.2628C33.1798 25.1163 33.3495 24.9299 33.4766 24.7152C33.6036 24.5005 33.6852 24.262 33.7164 24.0144C33.7475 23.7669 33.7276 23.5156 33.6577 23.2761C33.5879 23.0366 33.4696 22.814 33.3103 22.622Z" fill="#3F3F3F"/>
<path d="M38.5272 17.041L40.6648 21.9533L39.9169 22.2811L35.7618 20.1343L37.2115 23.463L36.2881 23.8554L34.1644 18.9293L34.9123 18.6015L39.0674 20.7483L37.6177 17.4242L38.5272 17.041Z" fill="#3F3F3F"/>
<path d="M45.4063 20.1475L45.5633 20.9693L41.6159 21.7218L40.6279 16.4587L44.4691 15.7246L44.626 16.5464L41.7452 17.0819L42.0129 18.467L44.5568 17.9822L44.7091 18.7855L42.1699 19.2472L42.4469 20.6969L45.4063 20.1475Z" fill="#3F3F3F"/>
<path d="M48.735 19.0815L48.7073 20.9744H47.71L47.7424 19.1L45.7064 15.5635H46.7682L48.2964 18.1997L49.9215 15.6189H50.9003L48.735 19.0815Z" fill="#3F3F3F"/>
<path d="M57.8993 21.4677C57.6177 22.3449 56.7682 22.6358 55.4571 22.2156L52.9224 21.4031L54.5522 16.2969L56.9437 17.0817C58.1671 17.4742 58.6611 18.2036 58.4026 19.0116C58.337 19.2453 58.207 19.4559 58.0274 19.6192C57.8478 19.7825 57.6258 19.8919 57.3869 19.9349C57.6306 20.097 57.8134 20.3357 57.9062 20.6134C57.999 20.891 57.9966 21.1916 57.8993 21.4677ZM56.976 21.066C57.1376 20.5582 56.8236 20.2073 56.108 19.9811L54.5752 19.4917L54.1136 20.9645L55.6463 21.4539C56.3527 21.6985 56.8098 21.5785 56.976 21.066ZM55.2631 17.3449L54.8015 18.7299L56.145 19.1593C56.8005 19.3671 57.2484 19.2562 57.3961 18.79C57.5438 18.3237 57.2484 18.0051 56.6066 17.7743L55.2631 17.3449Z" fill="#3F3F3F"/>
<path d="M61.6066 23.8551L59.2982 22.47L58.2087 23.2687L57.3268 22.7424L62.1468 19.3906L62.987 19.8892L62.3268 25.7249L61.4312 25.1939L61.6066 23.8551ZM61.722 23.0148L62.0498 20.4848L60.0184 21.9853L61.722 23.0148Z" fill="#3F3F3F"/>
<path d="M63.855 23.601C64.2601 23.2014 64.7738 22.9298 65.3321 22.8201C65.8904 22.7103 66.4686 22.7673 66.9948 22.9839C67.5209 23.2004 67.9717 23.567 68.291 24.038C68.6103 24.5089 68.784 25.0634 68.7904 25.6324H67.9086C67.9136 25.363 67.8606 25.0958 67.753 24.8488C67.6455 24.6018 67.4859 24.3809 67.2853 24.2011C67.1034 24.0329 66.8902 23.9021 66.6578 23.8163C66.4253 23.7305 66.1783 23.6913 65.9307 23.7009C65.6831 23.7105 65.4399 23.7689 65.2148 23.8725C64.9898 23.9762 64.7874 24.1231 64.6191 24.305C64.4509 24.4869 64.3201 24.7002 64.2343 24.9326C64.1484 25.165 64.1092 25.4121 64.1189 25.6596C64.1285 25.9072 64.1868 26.1505 64.2905 26.3755C64.3941 26.6006 64.5411 26.803 64.723 26.9712C64.9189 27.1575 65.1528 27.2993 65.4085 27.387C65.6643 27.4746 65.936 27.506 66.205 27.4791L66.2604 28.3609C65.6946 28.3959 65.1311 28.2639 64.6396 27.9815C64.1481 27.6991 63.7504 27.2786 63.4957 26.7723C63.2411 26.2659 63.1407 25.6958 63.207 25.1329C63.2733 24.57 63.5035 24.0389 63.8689 23.6056L63.855 23.601Z" fill="#3F3F3F"/>
<path d="M68.8596 29.5841L67.6546 29.3856L66.5328 30.1705L65.9649 29.3533L70.3647 26.3154L70.9326 27.1326L68.675 28.7023L72.4423 29.3071L73.0794 30.2305L69.8476 29.7688L68.7765 33.4207L68.1117 32.465L68.8596 29.5841Z" fill="#3F3F3F"/>
<path d="M29.3998 63.1394L30.0369 63.8365L28.4534 65.277C27.7115 65.1314 27.0391 64.7432 26.542 64.1736C26.2515 63.9148 26.0188 63.5978 25.859 63.2432C25.6992 62.8885 25.6158 62.5042 25.6144 62.1152C25.613 61.7262 25.6935 61.3413 25.8507 60.9855C26.0079 60.6297 26.2383 60.311 26.5269 60.0501C26.8155 59.7892 27.1557 59.5921 27.5256 59.4715C27.8954 59.3509 28.2865 59.3095 28.6733 59.3501C29.0602 59.3906 29.4342 59.5122 29.771 59.7069C30.1077 59.9016 30.3997 60.1651 30.6279 60.4801C30.9115 60.7636 31.1303 61.1052 31.269 61.4814C31.4077 61.8577 31.463 62.2595 31.4312 62.6592L30.554 62.6085C30.572 62.3343 30.5329 62.0593 30.4391 61.8011C30.3453 61.5428 30.1989 61.3068 30.0092 61.108C29.8522 60.8967 29.6527 60.7207 29.4234 60.5913C29.1942 60.4619 28.9404 60.382 28.6784 60.3567C28.4163 60.3314 28.1519 60.3613 27.9022 60.4445C27.6524 60.5277 27.4229 60.6623 27.2284 60.8396C27.0338 61.017 26.8786 61.2331 26.7728 61.4741C26.6669 61.7151 26.6127 61.9757 26.6138 62.2389C26.6148 62.5021 26.671 62.7622 26.7787 63.0024C26.8864 63.2426 27.0433 63.4576 27.2392 63.6334C27.488 63.9194 27.8059 64.1372 28.1625 64.2659L29.3998 63.1394Z" fill="#3F3F3F"/>
<path d="M30.6926 64.9492L32.4239 62.4746L33.241 63.0425L31.5328 65.4894C30.9049 66.4128 31.0388 67.0683 31.7452 67.5623C32.4516 68.0563 33.1302 67.9501 33.7581 67.0453L35.4663 64.5983L36.2697 65.1616L34.5337 67.6362C33.6427 68.9151 32.4331 69.109 31.2373 68.2733C30.0416 67.4377 29.7969 66.2327 30.6926 64.9492Z" fill="#3F3F3F"/>
<path d="M38.3748 70.5452L35.9002 69.5111L34.9353 70.4344L34.012 70.0374L38.3056 66.0254L39.229 66.404L39.3905 72.2812L38.4302 71.8795L38.3748 70.5452ZM38.3748 69.7004L38.3471 67.1473L36.5004 68.9201L38.3748 69.7004Z" fill="#3F3F3F"/>
<path d="M44.0397 73.1994L43.2456 71.4588C43.1773 71.4544 43.1094 71.4452 43.0425 71.4311L41.8513 71.2141L41.5512 72.7515L40.5725 72.5715L41.5512 67.3037L43.7165 67.6961C45.1016 67.9454 45.8356 68.8088 45.6233 69.9768C45.5722 70.3409 45.4063 70.6791 45.1498 70.9423C44.8932 71.2056 44.5593 71.38 44.1967 71.4404L45.12 73.3887L44.0397 73.1994ZM43.5226 68.5179L42.3777 68.3286L42.0129 70.4108L43.1579 70.6186C44.0166 70.7709 44.5429 70.4616 44.6537 69.7968C44.7645 69.132 44.3813 68.6703 43.5226 68.5179Z" fill="#3F3F3F"/>
<path d="M50.3232 72.0962L47.6455 72.207L47.1838 73.4674L46.1588 73.5089L48.3472 68.0611L49.326 68.0195L51.9576 73.2735L50.9188 73.315L50.3232 72.0962ZM49.9631 71.3298L48.8551 69.0214L47.9317 71.399L49.9631 71.3298Z" fill="#3F3F3F"/>
<path d="M56.4081 66.5879L57.8255 71.7587L57.036 71.9757L53.2272 69.2518L54.1828 72.7513L53.2318 73.0099L51.8144 67.8667L52.6085 67.6498L56.4128 70.3691L55.4571 66.8695L56.4081 66.5879Z" fill="#3F3F3F"/>
<path d="M58.5272 66.4819L56.9483 67.2899L56.5651 66.5373L60.6094 64.4736L60.9926 65.2216L59.4136 66.0203L61.4681 70.0369L60.5817 70.4986L58.5272 66.4819Z" fill="#3F3F3F"/>
<path d="M66.6944 65.4477L67.2022 66.1079L64.0212 68.5594L60.7572 64.312L63.855 61.9297L64.3629 62.5899L62.0545 64.3674L62.8994 65.4708L64.9492 63.8964L65.4525 64.5428L63.398 66.1218L64.3213 67.2898L66.6944 65.4477Z" fill="#3F3F3F"/>
<path d="M70.3601 61.4686L70.9833 62.0226L68.3287 65.0282L64.3167 61.4778L66.9113 58.5508L67.5346 59.1048L65.6001 61.2839L66.6435 62.2073L68.3564 60.2729L68.9704 60.8176L67.2576 62.7521L68.361 63.7308L70.3601 61.4686Z" fill="#3F3F3F"/>
<path d="M18.3241 46.9205C18.3241 49.4136 16.2373 51.0064 13.6196 51.0064C10.2678 51.0064 8.07941 48.9888 8.07941 45.1061C8.07941 40.951 10.6648 38.5549 14.4414 38.5549C15.6748 38.5174 16.8949 38.8192 17.9686 39.4274L16.7359 41.8559C16.084 41.4225 15.3112 41.2075 14.5291 41.2419C12.8209 41.2419 11.6713 42.1975 11.5005 44.0119C12.2628 43.3941 13.2258 43.0786 14.2059 43.1255C16.4589 43.1394 18.3241 44.626 18.3241 46.9205ZM15.0369 47.0729C15.0369 46.1495 14.3721 45.5678 13.398 45.5678C13.1864 45.5478 12.973 45.5724 12.7716 45.64C12.5701 45.7076 12.3851 45.8167 12.2284 45.9603C12.0718 46.1039 11.947 46.2787 11.8622 46.4736C11.7773 46.6684 11.7343 46.8789 11.7359 47.0913C11.7359 47.9778 12.3869 48.5964 13.4118 48.5964C13.6201 48.6167 13.8303 48.5926 14.0286 48.5258C14.2268 48.4589 14.4087 48.3509 14.5622 48.2087C14.7158 48.0665 14.8374 47.8934 14.9193 47.7009C15.0011 47.5083 15.0412 47.3005 15.0369 47.0913V47.0729Z" fill="#3F3F3F"/>
<path d="M19.7692 44.783C19.7692 40.8357 21.9945 38.5596 25.0555 38.5596C28.1164 38.5596 30.3232 40.831 30.3232 44.783C30.3232 48.735 28.1026 51.0111 25.0555 51.0111C22.0084 51.0111 19.7692 48.7304 19.7692 44.783ZM26.9207 44.783C26.9207 42.2715 26.1312 41.3297 25.0739 41.3297C24.0167 41.3297 23.1949 42.253 23.1949 44.783C23.1949 47.313 23.9798 48.241 25.0739 48.241C26.1681 48.241 26.9207 47.2946 26.9207 44.783Z" fill="#3F3F3F"/>
<path d="M38.1025 38.7812H43.7627C47.7331 38.7812 50.4524 41.0897 50.4524 44.7831C50.4524 48.4765 47.7331 50.785 43.7627 50.785H38.1025V38.7812ZM43.6426 48.0518C45.6787 48.0518 47.0452 46.8376 47.0452 44.7646C47.0452 42.6917 45.6602 41.4821 43.6426 41.4821H41.4912V48.0518H43.6426Z" fill="#3F3F3F"/>
<path d="M60.0923 48.4396H55.0138L54.0905 50.748H50.6371L55.9187 38.7812H59.252L64.5567 50.785H61.0295L60.0923 48.4396ZM59.0951 45.9419L57.5531 42.11L56.0157 45.9419H59.0951Z" fill="#3F3F3F"/>
<path d="M71.1404 46.4729V50.785H67.7516V46.4405L63.1856 38.7812H66.7636L69.603 43.5366L72.4423 38.7812H75.7156L71.1404 46.4729Z" fill="#3F3F3F"/>
<path d="M75.9002 49.6905L77.0129 47.1928C78.1952 47.9449 79.5637 48.3526 80.9649 48.3701C82.3499 48.3701 82.9132 47.9777 82.9132 47.396C82.9132 45.4985 76.1034 46.8835 76.1034 42.4375C76.1034 40.3 77.8485 38.5548 81.4081 38.5548C82.921 38.5312 84.4153 38.8901 85.7525 39.5982L84.7091 42.1097C83.6953 41.5339 82.5552 41.2168 81.3896 41.1864C79.9723 41.1864 79.4598 41.6481 79.4598 42.2667C79.4598 44.1134 86.2465 42.7284 86.2465 47.1421C86.2465 49.2289 84.506 51.0063 80.9464 51.0063C78.9797 51.0063 77.0267 50.4754 75.9002 49.6905Z" fill="#3F3F3F"/>
<path d="M47.8532 81.6804C55.8199 81.6655 63.566 79.0614 69.9239 74.2607C76.2818 69.46 80.9071 62.7228 83.1025 55.0645H82.1791C80.0046 62.4788 75.4866 68.9892 69.3018 73.6206C63.117 78.252 55.5983 80.7552 47.8716 80.7552C40.145 80.7552 32.6262 78.252 26.4414 73.6206C20.2566 68.9892 15.7387 62.4788 13.5642 55.0645H12.5854C14.7817 62.7258 19.4097 69.4653 25.7713 74.2663C32.1329 79.0673 39.8832 81.6695 47.8532 81.6804Z" fill="#3F3F3F"/>
<path d="M47.8532 29.1963C45.5262 29.1954 43.2279 29.7095 41.123 30.7017C39.0181 31.6939 37.1589 33.1395 35.6786 34.935H36.9021C38.2943 33.4175 39.9866 32.2059 41.8718 31.3771C43.757 30.5483 45.7938 30.1203 47.8532 30.1203C49.9125 30.1203 51.9494 30.5483 53.8345 31.3771C55.7197 32.2059 57.4121 33.4175 58.8042 34.935H60.0185C58.5386 33.1414 56.6807 31.697 54.5777 30.705C52.4747 29.7129 50.1784 29.1978 47.8532 29.1963Z" fill="#3F3F3F"/>
<path d="M7.7885 34.9352C10.0324 26.0092 15.1928 18.088 22.451 12.4286C29.7091 6.76923 38.6493 3.69571 47.8531 3.69571C57.0569 3.69571 65.9971 6.76923 73.2553 12.4286C80.5135 18.088 85.6739 26.0092 87.9178 34.9352H91.7174C89.4351 25.0116 83.855 16.1552 75.8886 9.813C67.9222 3.47077 58.0405 0.0175781 47.8577 0.0175781C37.675 0.0175781 27.7933 3.47077 19.8269 9.813C11.8605 16.1552 6.28037 25.0116 3.99811 34.9352H7.7885Z" fill="#3F3F3F"/>
<path d="M87.9178 55.0645C85.6739 63.9905 80.5135 71.9117 73.2554 77.5711C65.9972 83.2305 57.057 86.304 47.8532 86.304C38.6494 86.304 29.7092 83.2305 22.451 77.5711C15.1928 71.9117 10.0324 63.9905 7.78855 55.0645H3.98892C6.27119 64.9881 11.8513 73.8445 19.8177 80.1867C27.7841 86.5289 37.6659 89.9821 47.8486 89.9821C58.0313 89.9821 67.913 86.5289 75.8794 80.1867C83.8458 73.8445 89.4259 64.9881 91.7082 55.0645H87.9178Z" fill="#3F3F3F"/>
<path d="M47.8532 8.31055C39.8822 8.32276 32.1314 10.9266 25.7698 15.7292C19.4081 20.5319 14.7807 27.273 12.5854 34.9357H13.5457C15.7174 27.5187 20.2343 21.0053 26.4194 16.3715C32.6045 11.7377 40.1248 9.23318 47.8532 9.23318C55.5815 9.23318 63.1018 11.7377 69.2869 16.3715C75.472 21.0053 79.9889 27.5187 82.1606 34.9357H83.1025C80.9087 27.2756 76.2842 20.5363 69.9262 15.7339C63.5681 10.9314 55.8211 8.32601 47.8532 8.31055Z" fill="#3F3F3F"/>
<path d="M47.8532 60.8031C50.1784 60.8017 52.4747 60.2865 54.5777 59.2945C56.6807 58.3024 58.5386 56.858 60.0185 55.0645H58.7904C57.3982 56.5819 55.7059 57.7935 53.8207 58.6223C51.9355 59.4512 49.8987 59.8791 47.8393 59.8791C45.78 59.8791 43.7431 59.4512 41.858 58.6223C39.9728 57.7935 38.2804 56.5819 36.8883 55.0645H35.6786C37.1589 56.8599 39.0181 58.3056 41.123 59.2978C43.2279 60.2899 45.5262 60.804 47.8532 60.8031Z" fill="#3F3F3F"/>
<path d="M95.1431 34.4736H0V35.397H95.1431V34.4736Z" fill="#3F3F3F"/>
<path d="M95.1431 54.6025H0V55.5259H95.1431V54.6025Z" fill="#3F3F3F"/>
</g>
<defs>
<clipPath id="clip0">
<rect width="90" height="90" fill="white" transform="translate(321)"/>
</clipPath>
<clipPath id="clip1">
<rect width="89.9723" height="90" fill="white" transform="translate(216)"/>
</clipPath>
<clipPath id="clip2">
<rect width="90" height="90" fill="white" transform="translate(111)"/>
</clipPath>
<clipPath id="clip3">
<rect width="95.1431" height="90" fill="white"/>
</clipPath>
</defs>
</svg>
