<svg width="200" height="176" viewBox="0 0 200 176" fill="none" xmlns="http://www.w3.org/2000/svg">
<g clip-path="url(#clip0)">
<path d="M37.254 159.356C36.7384 159.081 36.2796 158.711 35.902 158.265C33.9988 155.911 38.9591 152.415 39.872 152.59C38.9419 150.678 38.0521 148.681 37.9803 146.602C37.9085 144.524 38.8415 142.328 40.736 141.507C42.022 140.95 43.5233 141.097 44.9529 141.249C44.617 140.917 44.4123 140.475 44.3763 140.004C44.3403 139.533 44.4754 139.065 44.7568 138.686C45.0382 138.307 45.447 138.042 45.9081 137.94C46.3692 137.838 46.8515 137.906 47.2665 138.131C47.2091 137.666 47.1574 137.164 47.3928 136.771C47.6282 136.377 48.2712 136.197 48.5755 136.581C48.0272 133.903 49.9849 131.251 52.5598 130.444C55.1347 129.637 58.0885 130.401 60.4567 131.879C60.5951 131.526 60.868 131.241 61.2155 131.089C61.5631 130.936 61.957 130.927 62.3111 131.064C61.9121 130.521 62.4001 129.726 63.0488 129.629C63.6976 129.531 64.3549 129.887 64.8802 130.315L65.7414 127.286C65.8792 126.801 66.0543 126.273 66.5021 126.04C66.9499 125.808 67.5297 125.96 68.0235 126.152C72.3006 127.803 75.5386 132.017 75.9577 136.486C75.956 136.781 76.0365 137.07 76.1902 137.322C76.394 137.517 76.616 137.692 76.8533 137.844C77.065 138.04 77.1955 138.307 77.2189 138.595C77.2422 138.882 77.1568 139.167 76.9796 139.394C77.3569 139.66 77.6717 140.005 77.9022 140.406C78.1327 140.806 78.2734 141.251 78.3144 141.711C78.8311 140.778 79.5344 139.73 80.6338 139.722C81.5237 139.722 82.2729 140.405 82.8958 141.062C83.5187 141.719 84.1847 142.46 84.5464 143.313C85.709 146.048 83.6852 148.907 83.6364 151.815C84.09 151.62 84.4316 152.369 84.2708 152.831C84.1101 153.294 83.7455 153.761 83.9407 154.232C84.1149 154.169 84.3007 154.143 84.4856 154.158C84.6704 154.173 84.8499 154.227 85.0117 154.318C85.1736 154.408 85.3141 154.533 85.4235 154.682C85.5329 154.832 85.6087 155.004 85.6458 155.185C85.6458 154.611 86.5472 154.525 86.9318 154.956C87.3165 155.386 87.3136 156.009 87.282 156.566C87.0868 160.298 86.6132 164.546 83.5273 166.584C84.1014 167.038 84.1014 168.019 83.5273 168.416C84.0096 167.747 85.264 168.35 85.4018 169.188C85.5396 170.026 84.9741 170.775 84.3713 171.341C81.3859 174.142 76.6208 174.938 72.6508 173.287C72.8281 173.378 72.9824 173.508 73.1022 173.667C73.222 173.826 73.3042 174.01 73.3426 174.206C69.0023 175.463 65.1989 174.315 60.7811 172.865L60.3046 172.825C53.3205 173.643 45.3978 175.457 38.54 173.37C37.9659 173.195 37.4837 171.648 37.0502 171.22C36.6168 170.792 36.4187 170.072 36.7632 169.627C37.0215 169.28 37.4952 169.176 37.9315 169.093L40.7619 168.562C38.9345 167.769 37.2723 166.639 35.8618 165.232C35.325 164.698 34.8112 164.084 34.639 163.366C34.2371 161.667 35.8331 160.303 37.254 159.356Z" fill="#AFAB2E"/>
<path d="M37.254 159.356C36.7384 159.081 36.2796 158.711 35.902 158.265C34.9461 157.083 35.7212 155.61 36.8493 154.462C37.6588 157.358 40.2509 159.81 42.6708 161.894C43.11 162.27 43.6152 162.672 44.1807 162.637C44.7462 162.603 45.1624 161.822 44.706 161.469C45.3605 161.868 46.3192 161.469 46.4283 160.734C46.9192 160.878 47.1 161.46 47.3871 161.882C47.6741 162.304 48.475 162.511 48.5669 162.026C50.915 163.909 52.1206 167.333 54.9941 168.149C55.897 168.354 56.8297 168.394 57.7469 168.266C58.6282 168.189 59.607 168.031 60.095 167.319C60.6978 166.441 60.2328 165.218 59.762 164.213C60.144 164.469 60.5772 164.638 61.0314 164.709C61.4856 164.78 61.9497 164.751 62.3915 164.624C62.4689 164.908 62.6469 165.154 62.8925 165.317C63.1381 165.479 63.4344 165.547 63.7263 165.508C63.9834 165.417 64.2487 165.352 64.5185 165.313C64.8152 165.352 65.0953 165.472 65.328 165.66C69.1947 168.157 74.4277 168.243 78.1479 165.91C78.5785 165.64 79.0091 165.281 79.0837 164.761C79.1584 164.242 78.7967 163.783 78.4895 163.366C77.8293 162.494 77.1671 161.622 76.5031 160.751C77.1432 160.608 77.8063 160.318 78.079 159.732C78.3517 159.147 77.9728 158.257 77.3097 158.228C77.6207 158.012 77.8336 157.681 77.9019 157.308C77.9702 156.936 77.8884 156.551 77.6743 156.239C80.1975 155.297 82.4566 153.437 83.2288 150.879C84.001 148.322 82.9274 145.084 80.4386 143.818C80.9094 143.818 81.1333 143.195 80.9438 142.759C80.7544 142.322 80.3123 142.044 79.9018 141.794C80.2653 141.596 80.5574 141.289 80.7372 140.916C80.9169 140.543 80.9751 140.124 80.9037 139.716C81.673 139.831 82.3389 140.442 82.8958 141.033C83.5417 141.714 84.1847 142.431 84.5464 143.284C85.709 146.02 83.6852 148.879 83.6364 151.786C84.09 151.591 84.4316 152.341 84.2708 152.803C84.1101 153.265 83.7455 153.733 83.9407 154.204C84.1169 154.14 84.3048 154.116 84.4913 154.132C84.6778 154.149 84.8586 154.206 85.0209 154.299C85.1831 154.392 85.3231 154.52 85.4311 154.673C85.539 154.826 85.6123 155.001 85.6458 155.185C85.6458 154.611 86.5472 154.525 86.9318 154.956C87.3165 155.386 87.3136 156.009 87.282 156.566C87.0868 160.298 86.6132 164.546 83.5273 166.584C84.1014 167.038 84.1014 168.019 83.5273 168.416C84.0096 167.747 85.264 168.35 85.4018 169.188C85.5396 170.026 84.9741 170.775 84.3713 171.341C81.3859 174.142 76.6208 174.938 72.6508 173.287C72.8281 173.378 72.9824 173.508 73.1022 173.667C73.222 173.826 73.3042 174.01 73.3426 174.206C69.0023 175.463 65.1989 174.315 60.7811 172.865L60.3046 172.825C53.3205 173.643 45.3978 175.457 38.54 173.37C37.9659 173.195 37.4837 171.648 37.0502 171.22C36.6168 170.792 36.4187 170.072 36.7632 169.627C37.0215 169.28 37.4952 169.176 37.9315 169.093L40.7619 168.562C38.9345 167.769 37.2723 166.639 35.8618 165.232C35.325 164.698 34.8112 164.084 34.639 163.366C34.2371 161.667 35.8331 160.303 37.254 159.356Z" fill="#9D9620"/>
<path d="M75.0908 133.369C73.9886 132.005 73.1446 130.438 72.2863 128.937C73.5895 130.231 74.6031 131.788 75.2602 133.504L75.0908 133.369Z" fill="#9D9620"/>
<path d="M37.254 159.356C36.7384 159.081 36.2796 158.711 35.902 158.265C33.9988 155.911 38.9591 152.415 39.872 152.59C38.9419 150.678 38.0521 148.68 37.9803 146.602C37.9145 145.189 38.3553 143.8 39.2232 142.684C39.2484 143.212 39.3107 143.737 39.4098 144.257C39.562 145.118 39.8031 146.1 40.558 146.59C41.4996 147.199 42.7024 146.76 43.6783 146.303C43.4509 146.691 43.3152 147.125 43.2819 147.573C43.2485 148.021 43.3184 148.47 43.486 148.887C43.3484 148.92 43.2188 148.98 43.1046 149.064C42.9904 149.148 42.894 149.253 42.8208 149.374C42.7477 149.496 42.6993 149.63 42.6785 149.77C42.6576 149.91 42.6648 150.053 42.6995 150.19C42.8131 150.443 42.9016 150.706 42.9636 150.977C42.9482 151.264 42.8483 151.541 42.6765 151.772C40.4691 155.552 40.8049 160.719 43.4975 164.428C43.8075 164.859 44.2065 165.289 44.729 165.37C45.2514 165.45 45.6963 165.114 46.0925 164.795L48.5755 162.875C48.7764 163.509 49.1266 164.167 49.7438 164.445C50.361 164.724 51.2308 164.365 51.2049 163.708C51.4362 164.016 51.7742 164.227 52.1527 164.299C52.5313 164.371 52.9231 164.299 53.2516 164.098C54.3998 166.607 56.4896 171.412 59.1477 172.213C61.8059 173.014 65.0008 169.46 66.0744 167.023C66.1203 167.491 66.7633 167.721 67.191 167.537C67.6187 167.353 67.8627 166.925 68.0809 166.524C68.3323 166.927 68.7065 167.238 69.1484 167.412C69.5903 167.586 70.0765 167.614 70.5352 167.491C70.9707 167.343 71.3403 167.046 71.5796 166.653C71.8188 166.26 71.9125 165.796 71.8442 165.341C72.9723 166.265 74.1693 167.221 75.5759 167.5C77.6599 167.91 79.7181 166.687 80.8548 164.994C81.9916 163.3 82.382 161.21 82.6891 159.169C83.0767 159.542 85.2726 159.7 87.0524 159.218C86.705 162.143 85.8754 164.994 83.513 166.555C84.0871 167.009 84.0871 167.99 83.513 168.387C83.9952 167.718 85.2497 168.32 85.3875 169.159C85.5252 169.997 84.9597 170.746 84.3569 171.312C81.3716 174.113 76.6064 174.908 72.6365 173.258C72.8137 173.349 72.968 173.479 73.0879 173.638C73.2077 173.797 73.2899 173.981 73.3283 174.176C68.988 175.434 65.1845 174.286 60.7667 172.836L60.2902 172.796C53.3062 173.614 45.3834 175.428 38.5257 173.341C37.9516 173.166 37.4693 171.619 37.0359 171.191C36.6024 170.763 36.4044 170.043 36.7488 169.598C37.0072 169.251 37.4808 169.147 37.9171 169.064L40.7475 168.533C38.9275 167.747 37.2705 166.627 35.8618 165.232C35.325 164.698 34.8112 164.084 34.639 163.366C34.2371 161.667 35.8331 160.303 37.254 159.356Z" fill="#9D9620"/>
<path d="M66.327 131.503C65.6725 131.446 64.9348 131.443 64.4698 131.79C64.0047 132.138 63.976 132.686 63.9703 133.188C63.9559 134.239 63.9387 135.29 63.9244 136.346C63.1579 136.059 62.2508 135.887 61.5102 136.159C60.7696 136.432 60.4453 137.325 61.1026 137.747C60.141 137.658 59.2052 138.269 59.1535 139.013C55.8323 138.195 52.0489 138.22 49.2329 139.667C46.4169 141.114 44.9471 144.182 46.4858 146.628C46.3648 146.571 46.2337 146.538 46.1001 146.532C45.9664 146.525 45.8328 146.545 45.7069 146.591C45.581 146.636 45.4654 146.706 45.3665 146.796C45.2676 146.886 45.1876 146.995 45.1309 147.116C44.9787 147.555 45.2055 148.029 45.4179 148.465C44.2553 148.279 43.0066 148.801 42.599 149.645C42.1914 150.489 42.6679 151.566 43.6755 152.074C41.9158 152.295 40.0701 152.544 38.7152 153.414C36.7058 154.697 36.324 157.06 37.0962 159.049C37.1364 159.152 37.188 159.253 37.234 159.356C36.7218 159.082 36.266 158.714 35.8905 158.271C33.9874 155.917 38.9477 152.421 39.8605 152.596C38.9305 150.684 38.0406 148.686 37.9688 146.608C37.8971 144.53 38.83 142.334 40.7246 141.513C42.0106 140.956 43.5119 141.102 44.9414 141.255C44.6056 140.923 44.4008 140.481 44.3648 140.01C44.3288 139.539 44.4639 139.071 44.7453 138.692C45.0267 138.313 45.4356 138.048 45.8966 137.946C46.3577 137.844 46.8401 137.912 47.2551 138.137C47.1976 137.672 47.146 137.17 47.3814 136.776C47.6168 136.383 48.2598 136.202 48.564 136.587C48.0158 133.909 49.9735 131.256 52.5484 130.45C55.1232 129.643 58.077 130.407 60.4453 131.885C60.5837 131.532 60.8565 131.247 61.2041 131.094C61.5516 130.942 61.9456 130.933 62.2996 131.07C61.9006 130.527 62.3886 129.732 63.0374 129.635C63.6861 129.537 64.3435 129.893 64.8688 130.321L65.7299 127.292C65.8677 126.807 66.0428 126.279 66.4906 126.046C66.9384 125.814 67.5183 125.966 68.012 126.158C69.9353 126.931 71.6429 128.158 72.9891 129.734C74.3352 131.31 75.2799 133.189 75.7424 135.209C73.0286 133.089 69.7579 131.802 66.327 131.503Z" fill="#BABA36"/>
<path d="M83.757 143.861C83.3781 142.999 82.4825 142.288 81.3945 141.969C81.7103 141.467 81.3945 140.766 80.7343 140.502C80.4043 140.418 80.0817 140.306 79.7698 140.169C79.7173 140.135 79.6683 140.095 79.6234 140.051C79.9188 139.833 80.275 139.711 80.6425 139.704C81.5323 139.704 82.2815 140.387 82.9045 141.045C83.4001 141.538 83.8436 142.082 84.2278 142.667C84.0307 143.048 83.873 143.448 83.757 143.861Z" fill="#BABA36"/>
<path d="M37.2483 159.359C38.0722 161.214 39.6911 162.821 41.3388 164.34C40.7389 164.377 39.14 165.672 38.1812 167.153C37.3451 166.59 36.5646 165.949 35.8503 165.238C35.3136 164.704 34.7997 164.09 34.6275 163.372C34.2371 161.67 35.8303 160.307 37.2483 159.359Z" fill="#BABA36"/>
<path d="M37.4607 169.202C37.4553 169.543 37.5462 169.878 37.7229 170.17C37.8996 170.461 38.155 170.697 38.4597 170.85C39.0761 171.187 39.743 171.423 40.4346 171.547C40.1878 171.774 39.8462 173.189 39.6079 173.442C39.2577 173.362 38.8931 173.462 38.5458 173.359C37.9717 173.184 37.4894 171.636 37.056 171.209C36.6225 170.781 36.4245 170.06 36.7689 169.616C36.9492 169.407 37.1917 169.262 37.4607 169.202Z" fill="#BABA36"/>
<path d="M53.1397 162.362C51.4374 163.668 50.605 158.498 50.605 158.498C50.605 158.498 55.3156 160.674 53.1397 162.362Z" fill="#9D9620"/>
<path d="M76.6581 163.921C76.1672 166.019 72.338 162.268 72.338 162.268C72.338 162.268 77.2839 161.234 76.6581 163.921Z" fill="#9D9620"/>
<path d="M51.1102 148.296C49.6262 149.832 48.0732 144.794 48.0732 144.794C48.0732 144.794 53.0134 146.312 51.1102 148.296Z" fill="#BABA36"/>
<path d="M52.1178 145.773C49.9591 146.123 51.6212 141.277 51.6212 141.277C51.6212 141.277 54.8822 145.322 52.1178 145.773Z" fill="#BABA36"/>
<path d="M42.091 139.211C40.7188 140.847 38.8329 135.904 38.8329 135.904C38.8329 135.904 43.8506 137.101 42.091 139.211Z" fill="#BABA36"/>
<path d="M42.9205 136.633C40.7992 137.126 42.1254 132.166 42.1254 132.166C42.1254 132.166 45.6389 135.998 42.9205 136.633Z" fill="#BABA36"/>
<path d="M59.9544 129.586C57.8876 130.252 58.8061 125.18 58.8061 125.18C58.8061 125.18 62.601 128.731 59.9544 129.586Z" fill="#BABA36"/>
<path d="M62.0298 127.857C59.897 127.194 63.6517 123.735 63.6517 123.735C63.6517 123.735 64.7626 128.71 62.0298 127.857Z" fill="#BABA36"/>
<path d="M81.3198 138.223C79.3535 137.589 82.5169 133.992 82.5169 133.992C82.5169 133.992 84.0268 139.11 81.3198 138.223Z" fill="#9D9620"/>
<path d="M79.1756 138.9C77.5767 140.223 77.2236 135.002 77.2236 135.002C77.2236 135.002 81.1993 137.221 79.1756 138.9Z" fill="#9D9620"/>
<path d="M83.6824 140.034C82.8384 137.709 88.1432 139.056 88.1432 139.056C88.1432 139.056 84.888 143.353 83.6824 140.034Z" fill="#9D9620"/>
<path d="M55.9615 164.615C54.3166 163.082 59.3372 161.744 59.3372 161.744C59.3372 161.744 58.0685 166.575 55.9615 164.615Z" fill="#9D9620"/>
<path d="M17.6654 175.546C17.6654 175.546 13.0725 171.073 10.7589 170.229C10.7589 170.229 17.4186 172.11 19.9274 173.404C19.9274 173.404 14.2523 169.199 11.7406 168.214C11.7406 168.214 20.2059 171.271 21.1273 171.888C21.1273 171.888 18.894 168.208 17.3956 167.037C17.3956 167.037 24.6036 171.759 25.5681 173.272C25.5681 173.272 26.0647 171.142 25.3815 169.888C25.3815 169.888 28.6998 172.689 29.1132 173.246C29.1132 173.246 26.3087 168.475 26.0675 167.505C26.0675 167.505 28.7716 169.609 31.2805 171.762C30.3884 170.494 29.2489 169.42 27.9305 168.605C27.9305 168.605 32.5234 170.772 34.4094 172.684C34.4094 172.684 30.9905 167.189 28.9955 165.57C28.9955 165.57 34.9203 169.144 36.9039 171.65C36.9039 171.65 32.9569 163.463 30.8413 161.566C30.8413 161.566 38.0865 167.436 38.7554 168.633C38.7554 168.633 38.0607 161.411 37.0331 159.126C37.0331 159.126 42.3034 168.312 42.6392 171.277C42.6392 171.277 44.0401 167.06 43.8822 164.597C43.8822 164.597 46.0437 170.051 46.2246 171.154C46.2246 171.154 47.5077 160.926 48.1306 159.958C48.1306 159.958 48.742 164.907 49.5659 169.236C50.7141 170.077 52.1322 171.22 52.7838 172.216C52.7838 172.216 51.4088 167.623 50.2003 166.317C50.2003 166.317 54.2191 169.474 55.3328 171.535C55.3328 171.535 53.932 165.975 52.8555 164.764C52.8555 164.764 56.8456 168.783 57.1614 169.592C57.1614 169.592 57.3594 165.912 56.9891 164.904C56.9891 164.904 59.4521 169.784 59.6128 171.713C59.6128 171.713 60.4395 169.265 60.3305 168.039C60.3305 168.039 61.628 171.165 61.7887 171.877C61.7887 171.877 61.0079 167.037 61.0338 166.351C61.0338 166.351 63.3589 172.408 64.4239 175.56H17.1889C15.2206 173.801 12.8817 172.508 10.3455 171.777C10.3455 171.777 15.3805 174.552 17.6654 175.546Z" fill="#8C8218"/>
<path d="M80.1315 160.048C79.9219 161.934 81.6701 171.203 81.6701 171.203C81.3199 170.123 77.4303 164.678 77.4303 164.678C77.7949 167.115 75.5817 171.252 75.5817 171.252C74.8956 168.315 65.5692 159.141 65.5692 159.141C67.3977 161.417 68.8703 168.562 68.8703 168.562C67.6848 167.368 55.1405 161.426 55.1405 161.426C58.8119 163.343 65.8448 171.507 65.8448 171.507C62.3743 168.992 52.1666 165.344 52.1666 165.344C55.6112 166.983 61.6394 172.477 61.6394 172.477C58.3612 170.551 50.4701 168.321 50.4701 168.321C54.2798 169.684 57.5638 172.212 59.8568 175.546H90.5258C88.9584 171.163 80.1315 160.048 80.1315 160.048Z" fill="#8C8218"/>
<path d="M86.5472 175.546C86.5472 175.546 83.8288 171.722 82.0519 171.005C82.0519 171.005 87.4801 174.449 89.1393 175.546C89.1393 175.546 86.2228 170.126 84.357 169.288C84.357 169.288 90.8157 171.889 91.3324 172.414C91.3324 172.414 91.5133 169.285 90.7813 168.286C90.7813 168.286 94.8861 172.305 94.8603 173.591C94.8603 173.591 96.752 171.78 96.8955 170.721C96.8955 170.721 98.3739 173.106 98.4198 173.577C98.4198 173.577 98.7499 169.518 99.146 168.697C99.146 168.697 100.469 170.485 101.56 172.32C101.48 171.335 101.15 170.325 100.291 169.624C100.291 169.624 103.463 171.47 104.092 173.097C104.092 173.097 104.281 168.421 103.351 167.043C103.351 167.043 106.928 170.083 107.264 172.21C107.264 172.21 108.699 165.244 107.838 163.63C107.838 163.63 111.228 168.625 111.111 169.659C111.111 169.659 115.158 163.513 115.637 161.569C115.637 161.569 114.874 169.386 113.261 171.903C113.261 171.903 117.431 168.315 118.893 166.217C118.893 166.217 117.457 170.87 116.929 171.797C116.929 171.797 124.929 163.094 126.192 162.264C126.192 162.264 123.554 166.475 121.533 170.161C122.139 170.876 122.799 171.849 122.794 172.696C122.794 172.696 124.438 168.783 124.094 167.675C124.094 167.675 126.037 170.353 125.799 172.119C125.799 172.119 128.05 167.385 127.768 166.355C127.768 166.355 129.112 169.785 128.917 170.462C128.917 170.462 131.534 167.331 131.824 166.472C131.824 166.472 131.087 170.623 129.976 172.268C129.976 172.268 132.413 170.184 133.108 169.142C133.108 169.142 132.353 171.803 132.045 172.409C132.045 172.409 134.442 168.289 134.916 167.707C134.916 167.707 133.349 172.874 132.333 175.56H85.0717C85.0717 175.56 83.9752 173.281 80.6252 172.322C80.6339 172.308 84.9139 174.705 86.5472 175.546Z" fill="#8C8218"/>
<path d="M131.052 175.546C131.052 175.546 126.474 171.073 124.143 170.229C124.143 170.229 130.805 172.11 133.314 173.404C133.314 173.404 127.639 169.199 125.127 168.214C125.127 168.214 133.593 171.271 134.514 171.888C134.514 171.888 132.281 168.208 130.782 167.037C130.782 167.037 137.99 171.759 138.958 173.272C138.958 173.272 139.454 171.142 138.771 169.888C138.771 169.888 142.09 172.689 142.503 173.246C142.503 173.246 139.698 168.475 139.457 167.505C139.457 167.505 142.161 169.609 144.667 171.762C143.777 170.494 142.638 169.419 141.32 168.605C141.32 168.605 145.913 170.772 147.799 172.684C147.799 172.684 144.38 167.189 142.385 165.57C142.385 165.57 148.31 169.144 150.294 171.65C150.294 171.65 146.347 163.463 144.231 161.566C144.231 161.566 151.476 167.436 152.145 168.633C152.145 168.633 151.45 161.411 150.423 159.126C150.423 159.126 155.693 168.312 156.026 171.277C156.026 171.277 157.43 167.06 157.272 164.597C157.272 164.597 159.433 170.051 159.614 171.154C159.614 171.154 160.897 160.926 161.52 159.958C161.52 159.958 162.132 164.907 162.956 169.236C164.104 170.077 165.522 171.22 166.173 172.216C166.173 172.216 164.798 167.623 163.59 166.317C163.59 166.317 167.609 169.474 168.723 171.535C168.723 171.535 167.322 165.975 166.242 164.764C166.242 164.764 170.235 168.783 170.563 169.592C170.563 169.592 170.763 165.912 170.39 164.904C170.39 164.904 172.856 169.784 173.017 171.713C173.017 171.713 173.844 169.265 173.735 168.039C173.735 168.039 175.032 171.165 175.193 171.877C175.193 171.877 174.412 167.037 174.438 166.351C174.438 166.351 176.763 172.408 177.828 175.56H130.576C128.607 173.801 126.269 172.508 123.732 171.777C123.732 171.777 128.767 174.552 131.052 175.546Z" fill="#8C8218"/>
<path d="M199.997 164.355C198.083 166.1 193.108 172.711 193.108 172.711C193.458 172.079 193.447 168.365 193.447 168.365C192.172 170.165 187.84 172.849 187.84 172.849C188.745 171.014 183.822 162.988 183.822 162.988C184.752 165.425 182.826 171.25 182.826 171.25C182.145 170.426 169.208 165.19 169.208 165.19C173.571 167.142 178.787 173.193 178.787 173.193C176.074 171.634 164.956 168.913 164.956 168.913C169.03 170.242 174.461 175.547 174.461 175.547C171.53 174.425 162.881 171.324 162.881 171.324C169.842 172.76 172.182 175.547 172.182 175.547H197.517C199.168 173.296 199.997 164.355 199.997 164.355Z" fill="#8C8218"/>
<path d="M165.947 137.012C166.133 136.596 165.783 136.033 165.16 135.749C164.537 135.465 163.883 135.574 163.693 135.99C163.504 136.407 163.857 136.969 164.48 137.25C165.103 137.532 165.757 137.426 165.947 137.012Z" fill="#8E331C"/>
<path d="M175.104 144.027C178.903 146.767 183.044 148.999 187.421 150.667C187.421 150.667 191.79 148.678 192.373 149.108C193.26 149.766 189.629 155.113 186.23 155.564C186.23 155.564 174.659 154.129 171.286 151.93C167.913 149.731 175.104 144.027 175.104 144.027Z" fill="#FF7D27"/>
<path d="M192.373 149.109C191.799 148.678 187.421 150.668 187.421 150.668C187.421 150.668 187.263 150.613 186.973 150.504C186.14 151.817 185.706 153.344 185.725 154.899C185.725 155.1 185.725 155.298 185.745 155.493L186.23 155.556C189.629 155.114 193.26 149.766 192.373 149.109Z" fill="#FFBF96"/>
<path d="M158.782 152.777C150.322 153.454 141.254 154.924 141.254 154.924C141.254 154.924 137.921 157.059 136.305 156.732C135.335 156.537 137 151.278 139.618 150.262C139.618 150.262 144.449 148.069 145.781 146.266C149.659 141.01 163.461 148.921 158.782 152.777Z" fill="#FF7D27"/>
<path d="M138.177 147.366C148.192 155.031 167.945 157.172 167.945 157.172L178.032 152.987C180.193 151.408 181.953 149.597 183.006 147.366L168.22 136.527C168.22 136.527 160.863 138.571 156.06 136.527C151.258 134.483 149.725 130.907 149.725 130.907C149.725 130.907 148.6 132.032 149.01 133.565C149.01 133.565 147.067 131.521 147.067 130.292C147.067 130.292 145.738 131.111 145.738 132.236L144.001 129.271C144.001 129.271 142.979 131.214 143.49 132.428C143.49 132.428 141.957 130.895 141.65 131.099C141.343 131.303 141.754 134.165 141.754 134.165C141.754 134.165 140.832 132.939 140.425 133.654C140.017 134.369 141.343 138.867 140.878 141.522C140.488 143.761 138.177 147.366 138.177 147.366Z" fill="#FF9136"/>
<path d="M176.106 152.329C168.378 147.208 167.927 140.916 167.927 140.916L174.4 141.545L179.702 149.812L176.106 152.329Z" fill="#FF7D27"/>
<path d="M158.762 153.106C150.15 153.106 142.974 150.422 138.381 147.024C138.249 147.239 138.168 147.365 138.168 147.365C148.184 155.03 167.936 157.171 167.936 157.171L178.023 152.986C180.185 151.407 181.944 149.596 182.998 147.365L181.189 146.039C176.803 149.986 168.166 153.106 158.762 153.106Z" fill="#FF7D27"/>
<path d="M156.06 136.527C151.258 134.483 149.725 130.907 149.725 130.907C149.725 130.907 148.6 132.032 149.01 133.565C149.01 133.565 147.067 131.521 147.067 130.292C147.067 130.292 145.738 131.111 145.738 132.236L144.001 129.271C144.001 129.271 142.979 131.214 143.49 132.428C143.49 132.428 141.957 130.895 141.65 131.099C141.343 131.303 141.754 134.165 141.754 134.165C141.754 134.165 140.832 132.939 140.425 133.654C140.017 134.369 141.343 138.867 140.878 141.522C140.525 143.531 138.608 146.663 138.237 147.263C139.711 147.753 141.218 148.136 142.747 148.411C153.081 150.297 162.318 147.048 163.395 141.152C163.61 139.882 163.463 138.578 162.97 137.388C160.728 137.538 158.153 137.423 156.06 136.527Z" fill="#FFA654"/>
<path d="M149.886 134.31C150.771 134.311 151.655 134.371 152.533 134.491L152.601 134.437C151.319 133.355 150.369 131.932 149.863 130.332C149.863 130.332 148.428 131.609 148.83 133.142C148.83 133.142 147.394 131.11 147.394 129.884C146.984 130.093 146.623 130.388 146.337 130.748C146.05 131.109 145.844 131.527 145.732 131.974L144.01 129.275C144.01 129.275 142.89 130.9 143.401 132.126C143.401 132.126 141.777 130.668 141.469 130.871C141.162 131.075 141.65 133.86 141.65 133.86C141.65 133.86 140.62 132.786 140.215 133.501C140.014 133.848 140.45 135.261 140.666 136.75C143.463 135.121 146.649 134.278 149.886 134.31Z" fill="#FFD0A8"/>
<path d="M149.963 151.901C141.61 151.944 133.997 152.438 133.997 152.438C133.997 152.438 130.162 154.39 128.477 153.873C127.467 153.56 130.306 147.208 133.303 146.309C133.303 146.309 138.47 145.095 140.249 143.134C143.347 139.73 149.622 141.909 153.092 145.144C155.618 147.501 153.517 151.881 149.963 151.901Z" fill="#FFA654"/>
<path d="M149.607 151.52C143.823 151.52 139.136 148.534 139.136 144.851C139.137 144.562 139.167 144.273 139.228 143.99C137.011 145.426 133.297 146.31 133.297 146.31C130.3 147.208 127.461 153.561 128.472 153.874C130.157 154.39 133.992 152.438 133.992 152.438C133.992 152.438 141.604 151.945 149.958 151.901C150.687 151.895 151.402 151.697 152.03 151.327C151.229 151.452 150.419 151.516 149.607 151.52Z" fill="#FF9136"/>
<path d="M167.881 116.229C167.813 116.516 171.082 123.044 174.771 125.495L181.855 123.382C173.536 115.683 167.95 115.956 167.881 116.229Z" fill="#FF9136"/>
<path d="M161.408 117.934C161.408 118.683 165.565 125.685 168.154 128.699L175.988 124.47C171.424 119.16 161.408 117.185 161.408 117.934Z" fill="#FFA654"/>
<path d="M168.812 143.684C168.117 143.919 167.267 144.875 167.267 144.875L168.941 146.393L169.354 143.919L168.812 143.684Z" fill="#8E331C"/>
<path d="M167.293 135.666L165.232 136.9C166.88 145.555 174.705 147.206 174.705 147.206L176.355 141.436C176.355 141.436 170.178 143.508 167.293 135.666Z" fill="#8E331C"/>
<path d="M179.105 152.525C178.531 152.335 176.398 149.103 176.398 149.103L176.04 149.715C176.04 149.715 172.104 146.649 171.493 144.401L169.856 144.197L169.96 142.972C169.96 142.972 166.28 141.335 166.076 141.028C165.872 140.721 169.345 139.495 169.345 139.495C169.345 139.495 166.475 139.191 166.383 138.781C166.291 138.37 168.323 137.147 168.323 137.147C168.323 137.147 164.543 138.27 164.44 137.759C164.336 137.248 165.972 135.307 165.972 135.307C165.972 135.307 163.214 135.204 163.102 134.593C162.99 133.981 167.089 131.32 167.089 131.32C167.089 131.32 165.654 130.298 165.654 129.885C165.654 129.471 168.312 128.045 168.312 128.045C168.312 128.045 175.775 124.571 176.591 124.368C177.406 124.164 180.882 123.139 181.597 123.346C182.312 123.552 185.992 129.067 186.503 129.885C187.014 130.703 188.75 132.44 188.75 132.44C188.75 132.44 192.43 134.805 192.749 135.408C193.068 136.011 192.135 140.314 191.52 140.517C190.906 140.721 189.784 142.561 189.069 142.461C188.354 142.36 187.347 145.618 186.821 145.73C186.296 145.842 186.411 144.981 186.411 144.981C186.411 144.981 186.19 147.944 184.419 148.693C183.799 149.468 179.998 152.826 179.105 152.525Z" fill="#FFE3C4"/>
<path d="M164.385 135.149C164.959 135.243 165.574 135.286 165.838 135.301C166.443 134.902 167.129 134.54 167.129 134.54C167.129 134.54 165.634 134.93 164.385 135.149Z" fill="#FFBF96"/>
<path d="M165.668 137.798C166.765 137.365 168.289 136.888 168.289 136.888C168.289 136.888 165.929 136.667 165.163 136.346C164.77 136.894 164.391 137.494 164.44 137.758C164.477 137.945 165.011 137.913 165.668 137.798Z" fill="#FFBF96"/>
<path d="M185.369 146.089C184.665 146.861 181.703 150.472 180.69 150.174C180.05 149.982 176.278 146.497 176.278 146.497L175.873 147.111C175.873 147.111 171.415 144.045 170.706 141.795L168.854 141.591L168.969 140.365C168.969 140.365 168.573 140.21 168.022 139.986C167.06 140.365 165.944 140.847 166.061 141.028C166.265 141.335 169.945 142.972 169.945 142.972L169.842 144.197L171.478 144.401C172.09 146.649 176.025 149.715 176.025 149.715L176.384 149.103C176.384 149.103 178.525 152.335 179.091 152.525C179.984 152.812 183.784 149.468 184.404 148.693C185.745 148.119 186.198 146.296 186.339 145.435C186.067 145.721 185.736 145.944 185.369 146.089Z" fill="#FFBF96"/>
<path d="M189.922 133.205C189.27 132.769 188.773 132.445 188.773 132.445C188.773 132.445 187.037 130.722 186.526 129.89C186.015 129.057 182.335 123.555 181.62 123.351C181.224 123.236 179.981 123.5 178.81 123.793C182.429 128.282 185.412 132.692 186.219 133.108C186.689 133.369 188.429 133.306 189.922 133.205Z" fill="#FFA654"/>
<path d="M176.602 124.373C174.759 124.514 168.323 128.05 168.323 128.05C168.323 128.05 165.665 129.486 165.665 129.89C165.665 130.295 167.101 131.326 167.101 131.326C167.101 131.326 163.013 133.984 163.113 134.598C163.214 135.212 165.984 135.313 165.984 135.313C165.984 135.313 164.351 137.253 164.451 137.764C164.552 138.275 168.318 137.147 168.318 137.147C168.318 137.147 166.274 138.373 166.377 138.78C166.481 139.188 169.34 139.495 169.34 139.495C169.34 139.495 165.866 140.724 166.07 141.028C166.274 141.332 169.954 142.971 169.954 142.971C169.954 142.971 183.158 139.191 184.568 134.489C185.073 132.795 176.958 124.344 176.602 124.373Z" fill="#FFA654"/>
<path d="M190.889 137.236C190.171 137.127 188.575 136.243 188.575 135.935C188.575 135.628 192.069 135.361 192.267 135.459C192.718 135.666 190.889 137.236 190.889 137.236Z" fill="#763535"/>
<path d="M187.55 140.545C186.889 140.569 186.227 140.524 185.576 140.411C184.608 140.141 183.182 138.014 183.182 137.712C183.182 137.64 183.182 137.468 183.916 136.851C183.957 136.824 184.007 136.812 184.056 136.819C184.105 136.826 184.149 136.851 184.181 136.888C184.213 136.926 184.23 136.974 184.229 137.023C184.228 137.072 184.208 137.119 184.175 137.155C183.966 137.328 183.774 137.521 183.601 137.729C183.776 138.117 184.944 139.825 185.688 140.026C186.549 140.264 189.916 140.086 190.157 140.072C190.599 139.992 191.002 139.769 191.305 139.437C191.321 139.415 191.341 139.397 191.364 139.382C191.387 139.368 191.413 139.359 191.44 139.355C191.466 139.351 191.494 139.352 191.52 139.359C191.546 139.366 191.571 139.378 191.592 139.394C191.615 139.41 191.634 139.43 191.648 139.453C191.663 139.476 191.672 139.502 191.676 139.529C191.68 139.555 191.679 139.583 191.672 139.609C191.665 139.636 191.652 139.66 191.635 139.681C191.185 140.301 190.269 140.471 190.232 140.477H190.209C190.097 140.485 188.785 140.545 187.55 140.545Z" fill="#763535"/>
<path d="M189.241 140.425C189.195 140.426 189.151 140.411 189.114 140.383C189.078 140.355 189.053 140.315 189.043 140.27C189.032 140.226 189.038 140.179 189.059 140.138C189.079 140.097 189.113 140.064 189.155 140.046C189.927 139.67 190.516 137.548 190.679 136.765C190.685 136.739 190.695 136.715 190.71 136.693C190.724 136.671 190.743 136.653 190.765 136.638C190.787 136.624 190.811 136.614 190.837 136.609C190.863 136.604 190.889 136.604 190.915 136.61C190.94 136.615 190.965 136.625 190.986 136.64C191.008 136.654 191.027 136.673 191.041 136.695C191.055 136.717 191.065 136.741 191.07 136.767C191.075 136.793 191.075 136.819 191.07 136.845C191.007 137.152 190.418 139.873 189.33 140.404C189.303 140.418 189.272 140.425 189.241 140.425Z" fill="#763535"/>
<path d="M181.522 132.367C181.287 131.704 180.908 131.164 180.678 131.164C180.449 131.164 180.457 131.704 180.696 132.367C180.934 133.03 181.31 133.57 181.537 133.57C181.763 133.57 181.746 133.03 181.522 132.367Z" fill="#763535"/>
<path d="M186.431 131.406C186.144 130.875 185.782 130.47 185.596 130.499C185.409 130.527 185.484 130.978 185.762 131.506C186.04 132.034 186.411 132.442 186.597 132.416C186.784 132.39 186.706 131.934 186.431 131.406Z" fill="#763535"/>
<path d="M162.907 119.056C162.855 119.312 166.064 125.24 168.427 127.539L173.433 124.47C169.704 121.1 162.958 118.801 162.907 119.056Z" fill="#FF632A"/>
<path d="M163.699 156.907C172.552 160.751 181.752 161.71 181.752 161.71C181.752 161.71 186.936 158.744 186.523 156.302C186.399 155.561 183.052 156.738 181.973 157.103C181.973 157.103 170.534 151.781 168.002 145.962C167.29 144.326 165.938 144.059 164.359 144.527C158.48 146.232 158.081 154.464 163.699 156.907Z" fill="#FFA654"/>
<path d="M169.414 148.967C169.471 148.791 169.537 148.619 169.612 148.451C168.959 147.701 168.417 146.862 168.002 145.959C167.29 144.323 165.938 144.056 164.359 144.524C158.48 146.246 158.081 154.473 163.699 156.913C169.727 159.522 175.887 160.803 179.229 161.357C172.362 158.46 168.071 153.224 169.414 148.967Z" fill="#FF9136"/>
<path d="M181.752 161.708C181.752 161.708 186.936 158.742 186.523 156.299C186.399 155.559 183.052 156.736 181.973 157.1L181.735 156.986C180.692 158.257 180.081 159.827 179.992 161.469C181.106 161.639 181.752 161.708 181.752 161.708Z" fill="#FFD0A8"/>
<path d="M134.009 151.924C134.609 149.811 134.546 147.738 133.966 146.137C133.555 146.252 133.303 146.309 133.303 146.309C130.306 147.207 127.467 153.56 128.477 153.873C129.944 154.324 133.047 152.897 133.819 152.527C133.888 152.329 133.952 152.129 134.009 151.924Z" fill="#FFD0A8"/>
<path d="M163.34 119.108C164.788 119.816 166.083 120.8 167.152 122.005C168.381 123.345 169.293 124.946 169.819 126.687L173.433 124.471C170.255 121.6 164.89 119.507 163.34 119.108Z" fill="#E95024"/>
<path d="M154.447 149.295C153.787 147.079 151.631 146.189 151.631 146.189C151.631 146.189 152.86 150.053 151.571 151.644C152.998 151.368 154.065 150.932 154.447 149.295Z" fill="#FF9136"/>
<path d="M155.931 148.71C155.463 146.944 153.784 146.192 153.784 146.192C153.784 146.192 154.663 149.27 153.609 150.498C154.74 150.306 155.593 149.993 155.931 148.71Z" fill="#FF9136"/>
<path d="M162.436 144.277C161.038 143.103 159.23 143.453 159.23 143.453C159.23 143.453 161.718 145.463 161.56 147.07C162.381 146.266 162.895 145.517 162.436 144.277Z" fill="#FF9136"/>
<path d="M164.233 143.778C162.835 142.604 161.027 142.954 161.027 142.954C161.027 142.954 163.515 144.964 163.357 146.571C164.178 145.773 164.692 145.024 164.233 143.778Z" fill="#FF9136"/>
<path d="M149.045 133.237C149.983 136.033 150.497 136.748 150.497 136.748L146.995 134.165L149.045 133.237Z" fill="#FFD0A8"/>
<path d="M148.385 133.55C148.069 135.803 148.224 136.257 148.224 136.257L145.761 133.811L148.385 133.55Z" fill="#FFD0A8"/>
<path d="M145.305 133.498C144.68 134.858 144.332 136.328 144.28 137.824C143.422 137.061 142.846 136.032 142.644 134.902L145.305 133.498Z" fill="#FFD0A8"/>
<path d="M143.424 134.919C142.782 136.303 142.318 137.764 142.044 139.265C141.159 138.418 140.944 137.439 140.763 136.323L143.424 134.919Z" fill="#FFD0A8"/>
<path d="M149.237 134.153C150.571 134.89 151.822 135.766 152.969 136.768C152.969 135.64 152.469 134.759 151.852 133.812L149.237 134.153Z" fill="#FFD0A8"/>
<path d="M144.151 134.572C145.036 135.027 145.834 135.636 146.507 136.369C147.05 135.562 146.975 134.934 146.832 134.273L144.151 134.572Z" fill="#FFD0A8"/>
<path d="M169.354 146.393C169.355 145.985 169.234 145.586 169.008 145.247C168.782 144.908 168.46 144.643 168.084 144.487C167.707 144.33 167.293 144.289 166.893 144.368C166.493 144.448 166.125 144.644 165.837 144.932C165.548 145.22 165.352 145.587 165.272 145.987C165.192 146.387 165.233 146.801 165.389 147.178C165.544 147.555 165.809 147.877 166.148 148.104C166.487 148.33 166.885 148.451 167.293 148.451C167.564 148.452 167.831 148.399 168.082 148.295C168.332 148.192 168.559 148.041 168.75 147.849C168.942 147.658 169.094 147.431 169.197 147.181C169.301 146.931 169.354 146.664 169.354 146.393Z" fill="#FFCC50"/>
<path d="M86.1367 18.3231C89.2283 15.4526 85.2526 10.0215 85.2526 10.0215C85.2526 10.0215 87.549 5.8018 81.0759 3.85843C81.0759 3.85843 81.673 1.56199 78.2542 0.32191C74.8354 -0.918169 70.9716 1.6682 70.2367 4.62774C70.2367 4.62774 67.4982 2.95995 65.6754 6.01709C63.8526 9.07423 65.3138 12.8777 65.3138 12.8777C65.3138 12.8777 62.5896 14.5713 63.689 17.8294C64.36 19.8061 65.3799 21.6465 66.7002 23.2634C66.7002 23.2634 66.7232 31.1373 70.963 30.7268C75.2028 30.3163 86.1367 18.3231 86.1367 18.3231Z" fill="#A74324"/>
<path d="M65.3138 12.8751C65.3138 12.8751 63.8526 9.06873 65.6754 6.01446C67.4982 2.9602 70.2367 4.62512 70.2367 4.62512C70.5611 3.31615 71.4998 2.08181 72.7399 1.21777C72.3481 1.91872 72.0637 2.67441 71.8959 3.45967C70.6874 9.27254 75.8745 7.44687 80.6454 11.7068C81.3659 12.3498 86.1339 13.6329 86.8773 17.3531C86.6869 17.716 86.4365 18.044 86.1367 18.3234C86.1367 18.3234 75.2286 30.2965 70.9745 30.7156C66.7203 31.1347 66.7117 23.2521 66.7117 23.2521C65.387 21.6353 64.3632 19.7938 63.689 17.8153C62.5896 14.5687 65.3138 12.8751 65.3138 12.8751Z" fill="#8E331C"/>
<path d="M95.4315 54.0816C97.9461 55.9962 101.652 59.7739 101.652 59.7739C101.652 59.7739 104.379 57.6726 110.631 49.6035L118.43 54.9341C118.43 54.9341 110.146 76.3284 101.061 77.3618C95.9683 77.9359 84.2421 65.6212 84.2421 65.6212L95.4315 54.0816Z" fill="#FDB981"/>
<path d="M95.4315 54.082C97.0442 55.3731 98.5888 56.7471 100.059 58.1984C97.8859 63.9395 97.6648 68.4664 99.9211 70.1169C102.651 72.1263 108.286 69.3878 114.308 63.707C111.036 69.7352 106.176 76.7795 101.061 77.3622C95.9454 77.9449 84.2421 65.6245 84.2421 65.6245L95.4315 54.082Z" fill="#FD9B66"/>
<path d="M46.5259 58.7346C43.7673 59.7393 37.7535 63.4395 37.7535 63.4395C35.6972 69.6742 34.1667 76.0701 33.1779 82.5602L24.3193 81.5153C24.3193 81.5153 23.1883 56.6937 26.6473 52.9131C30.1064 49.1326 43.0612 42.8662 43.0612 42.8662L46.5259 58.7346Z" fill="#FDB981"/>
<path d="M31.6794 56.8859C28.2348 56.6907 24.9566 65.1244 24.3595 75.7254C24.2648 77.3702 24.2447 78.972 24.2849 80.502C24.1184 75.823 23.6103 56.2343 26.6531 52.9102C30.115 49.1297 43.0669 42.8633 43.0669 42.8633L46.5259 58.7346C43.7673 59.7393 38.7037 63.6317 38.7037 63.6317C37.8554 64.6126 37.1666 65.7208 36.6627 66.9156C35.8791 61.3181 33.93 57.0122 31.6794 56.8859Z" fill="#FD9B66"/>
<path d="M82.7466 39.5338C92.7677 49.8908 99.4819 55.8644 99.4819 55.8644L86.7711 72.8006C86.7711 72.8006 77.8351 61.8725 75.5128 56.5017C72.0366 48.467 77.37 33.9736 82.7466 39.5338Z" fill="#F8D597"/>
<path d="M75.6305 42.1953C75.68 43.0356 75.8742 43.8611 76.2046 44.6353C78.1479 49.1248 89.7306 60.32 93.4738 63.868L86.7711 72.8011C86.7711 72.8011 75.7797 63.5752 73.4575 58.2073C71.4969 53.6747 72.9924 46.5528 75.6305 42.1953Z" fill="#F0C47D"/>
<path d="M55.726 38.2333C59.8826 33.4079 66.7432 33.2758 72.6221 33.2471C78.501 33.2184 86.8716 43.5007 87.1184 46.3799C87.3624 49.193 78.9775 65.9944 85.221 89.6793L56.6791 86.8432C57.19 79.3453 50.3581 44.4681 55.726 38.2333Z" fill="#F8D597"/>
<path d="M65.4142 67.1656C65.7012 72.8579 66.3672 83.6396 68.7153 88.0402L56.6791 86.8432C56.4408 79.397 49.6462 44.5198 55.7261 38.2333C58.7889 35.0757 62.7675 33.804 67.0102 33.4395C60.118 39.6714 64.2861 44.6088 65.4142 67.1656Z" fill="#F0C47D"/>
<path d="M85.2153 98.3169C78.9001 117.696 62.647 135.855 58.8579 137.069C54.0497 138.64 22.752 130.611 13.0209 124.425C13.0209 124.425 46.1069 127.008 49.7295 124.45C53.3521 121.893 59.475 106.886 58.1919 93.4973C57.7297 88.6489 85.2153 98.3169 85.2153 98.3169Z" fill="#383874"/>
<path d="M49.7324 124.45C53.355 121.896 59.4779 106.886 58.1948 93.4973C57.7297 88.6489 85.2153 98.3169 85.2153 98.3169C83.9389 102.166 82.3619 105.91 80.499 109.512C75.7941 110.049 68.6895 115.845 62.8192 124.396C59.765 128.842 57.5317 133.332 56.2543 137.265C47.2092 136.834 21.6498 129.907 13.0209 124.425C13.0209 124.425 46.1097 127.005 49.7324 124.45Z" fill="#282861"/>
<path d="M114.415 145.139C121.002 108.332 117.721 97.1774 116.059 93.6437C114.397 90.1101 60.9189 83.2007 56.7308 85.1239C54.4344 89.8173 57.7326 109.139 80.0426 108.174C92.251 105.442 106.477 103.171 106.477 103.171L114.415 145.139Z" fill="#383874"/>
<path d="M56.7308 85.1118C57.3049 84.8477 58.7803 84.6496 60.8873 84.5176C61.9753 91.5361 64.0593 97.2657 80.5477 96.3155C92.5266 95.6237 111.306 93.9818 112.411 96.238C114.578 100.716 114.518 144.598 114.518 144.598C114.486 144.776 114.458 144.946 114.426 145.126L106.489 103.159C106.489 103.159 92.2625 105.43 80.054 108.162C57.7326 109.127 54.4429 89.8051 56.7308 85.1118Z" fill="#282861"/>
<path d="M114.179 144.605H114.506C114.506 142.788 114.966 99.89 112.784 96.6922C110.246 92.9863 71.5141 98.4432 64.6477 92.7854C62.2279 90.7932 61.0796 88.4796 61.1112 84.501L60.2902 84.5498C60.2587 88.7637 61.559 91.2238 64.1655 93.371C71.3132 99.2585 109.084 93.658 112.141 97.1027C113.749 99.6747 114.259 132.299 114.179 144.605Z" fill="#E7DFC2"/>
<path d="M60.6979 34.786C46.6063 37.78 37.079 45.2004 37.079 45.2004L43.1789 60.2909C43.1789 60.2909 55.8093 58.913 60.5371 55.4396C67.6274 50.241 68.2647 33.1871 60.6979 34.786Z" fill="#F8D597"/>
<path d="M60.6978 34.7858C61.1113 34.6945 61.5357 34.6635 61.958 34.6939C59.1612 35.189 56.4421 36.0519 53.8717 37.2602C45.2973 41.233 39.9035 47.8181 41.8153 51.9632C43.7271 56.1082 52.2441 56.2518 60.8213 52.276C62.0671 51.7019 64.5243 50.4418 65.6237 49.7672C64.6994 51.8254 62.1417 54.2538 60.5256 55.4394C55.7863 58.9128 42.3148 62.0905 42.3148 62.0905L37.0674 45.2001C37.0674 45.2001 46.6063 37.7798 60.6978 34.7858Z" fill="#F0C47D"/>
<path d="M112.477 147.32C115.511 150.478 120.801 150.191 123.557 149.238C123.557 149.238 117.337 148.115 115.215 144.099C113.094 140.084 112.477 147.32 112.477 147.32Z" fill="#E7DFC2"/>
<path d="M11.9186 122.122C8.02897 124.154 6.81186 129.298 6.95538 132.249C6.95538 132.249 9.78575 126.577 14.2265 125.647C18.6672 124.717 11.9186 122.122 11.9186 122.122Z" fill="#E7DFC2"/>
<path d="M60.6979 34.7858H60.7323C64.4152 33.3505 68.7325 33.2702 72.6221 33.2529C74.9387 33.2529 77.637 34.8289 80.0856 36.933C81.2539 37.9405 78.4895 41.0809 71.1409 41.9651C62.5494 43.0013 56.0074 39.8208 55.1807 36.2412C56.9202 35.69 58.766 35.1963 60.6979 34.7858Z" fill="#F0C47D"/>
<path d="M66.683 35.8938C66.466 35.1028 66.4581 34.269 66.66 33.4739C68.6694 33.2787 70.6989 33.2558 72.6221 33.2472C75.4066 33.2328 77.9585 34.78 80.7315 37.5099C79.5631 38.7586 77.4274 40.3059 75.2774 40.6331C70.8166 41.322 67.6016 39.2753 66.683 35.8938Z" fill="#FDE3B8"/>
<path d="M78.9833 36.4219C82.7781 30.6377 84.1187 24.0354 84.1187 24.0354L74.6459 21.9629C74.6459 21.9629 69.7832 31.9869 68.1757 33.537C66.5682 35.0871 74.5425 43.1906 78.9833 36.4219Z" fill="#EB7656"/>
<g style="mix-blend-mode:multiply" opacity="0.69">
<g style="mix-blend-mode:multiply" opacity="0.69">
<path d="M54.153 64.8026C54.021 63.4793 53.8975 62.1502 53.7856 60.8298C66.4447 52.3846 77.5537 51.7043 84.2622 58.3525C84.0555 59.3687 83.8575 60.4336 83.6881 61.5589C73.733 53.4324 60.4539 60.5083 54.153 64.8026Z" fill="#F24255"/>
</g>
<g style="mix-blend-mode:multiply" opacity="0.69">
<path d="M54.4372 67.5905C54.3769 67.0164 54.3166 66.4423 54.2592 65.8681C66.2897 58.2181 76.8217 57.6756 83.358 63.8588C83.2929 64.3927 83.2317 64.9381 83.1743 65.495C73.7761 57.3311 61.2117 63.2387 54.4372 67.5905Z" fill="#F24255"/>
</g>
</g>
<path d="M119.458 43.7417C116.804 44.5234 114.386 45.9539 112.422 47.904C111.914 48.4241 111.602 49.1051 111.54 49.8301C111.479 50.555 111.672 51.2787 112.086 51.8768L113.088 53.3925C113.823 54.5034 115.959 55.8698 117.698 55.5598C119.527 55.2354 121.043 53.114 122.09 51.9687C124.843 48.9747 120.928 43.314 119.458 43.7417Z" fill="#FD9B66"/>
<path d="M119.685 49.8184C118.097 50.4384 118.115 51.136 118.436 51.8938C118.758 52.6516 119.263 53.1798 120.836 52.6028C122.409 52.0258 123.534 50.8805 123.224 50.1026C122.914 49.3247 121.31 49.184 119.685 49.8184Z" fill="#FDB981"/>
<path d="M118.58 46.5809C116.892 47.3014 116.9 48.0162 117.233 48.8027C117.566 49.5892 118.095 50.1059 119.768 49.4314C121.442 48.7568 122.656 47.5224 122.337 46.7129C122.019 45.9034 120.313 45.8431 118.58 46.5809Z" fill="#FDB981"/>
<path d="M117.116 43.2709C115.497 43.9943 115.528 44.755 115.876 45.5674C116.223 46.3797 116.751 46.9423 118.353 46.2678C119.998 45.576 121.091 44.3187 120.758 43.469C120.425 42.6193 118.772 42.5274 117.116 43.2709Z" fill="#FDB981"/>
<path d="M113.559 43.6903C112.098 43.4779 110.657 45.6165 110.333 48.3579C110.023 50.9959 108.923 53.9296 110.232 54.1994C111.541 54.4693 115.029 51.9374 115.451 49.2477C115.893 46.4432 115.043 43.9056 113.559 43.6903Z" fill="#FDB981"/>
<path d="M118.901 48.6655C118.901 48.3297 117.785 47.0723 116.8 44.6955C116.111 43.0277 113.53 42.7321 112.173 44.2822C112.405 45.7375 116.048 50.095 116.978 50.2845C117.994 50.4883 118.881 49.4004 118.901 48.6655Z" fill="#FDB981"/>
<path d="M27.9477 90.4748C26.9057 90.9742 25.2896 90.8077 23.9835 89.9007C23.5142 89.5694 23.156 89.1041 22.9557 88.5658C22.7554 88.0274 22.7224 87.4411 22.8611 86.8837C23.0592 86.3613 24.5203 85.3365 25.2982 86.7775C26.0761 88.2185 27.1153 87.6616 27.1153 87.6616L27.9477 90.4748Z" fill="#FDB981"/>
<path d="M28.1085 90.9974C30.9991 90.6644 33.0372 84.7913 33.241 81.9667C33.4448 79.142 27.0263 77.4944 25.5738 78.3526C24.1213 79.2109 23.1108 80.8586 23.6534 82.5838C24.1959 84.309 22.3013 85.0611 22.3013 85.7414C22.3013 87.4724 26.2799 91.207 28.1085 90.9974Z" fill="#FDB981"/>
<path d="M24.6954 88.7213C23.5472 88.8132 22.0918 88.0697 21.1876 86.7492C20.8642 86.2734 20.6913 85.7113 20.6913 85.136C20.6913 84.5607 20.8642 83.9986 21.1876 83.5227C21.5579 83.1094 23.2802 82.6817 23.507 84.3093C23.7337 85.9369 24.8963 85.7933 24.8963 85.7933L24.6954 88.7213Z" fill="#FDB981"/>
<path d="M82.7925 34.7915C81.9313 35.7158 73.9856 33.4136 73.3197 33.0233C72.6537 32.6329 71.095 23.315 71.0232 21.8712C70.9515 20.4273 74.1665 12.0941 74.8755 11.2501C75.5845 10.4062 82.7466 11.3219 84.4746 12.3093C85.198 12.7227 85.798 17.5625 85.6056 22.0692C85.3243 28.3844 83.8517 33.6433 82.7925 34.7915Z" fill="#FFA87A"/>
<path d="M74.7837 8.99972C78.2771 12.1573 74.4306 22.3248 74.4306 22.3248L71.273 24.6213L67.8628 27.7157C67.8628 27.7157 70.8625 11.655 72.0538 10.0877C73.2451 8.52034 74.7837 8.99972 74.7837 8.99972Z" fill="#8E331C"/>
<path d="M69.3181 23.0513C68.5517 21.4725 68.744 19.8018 69.7229 19.3196C70.7017 18.8373 72.1399 19.7272 72.9063 21.3031C73.6728 22.8791 73.4805 24.5526 72.4987 25.0349C71.517 25.5171 70.0846 24.6272 69.3181 23.0513Z" fill="#FFA87A"/>
<path d="M69.8951 22.8036C69.3842 21.7558 69.4473 20.6736 70.0329 20.3866C70.6185 20.0995 71.5113 20.7195 72.0222 21.7673C72.5332 22.8151 72.4729 23.8973 71.8844 24.1843C71.296 24.4714 70.409 23.8513 69.8951 22.8036Z" fill="#EF663B"/>
<path d="M71.1754 24.4035C71.0844 24.2517 71.0399 24.0765 71.0475 23.8997C71.055 23.7229 71.1143 23.5522 71.218 23.4087C71.3217 23.2653 71.4651 23.1554 71.6307 23.0928C71.7962 23.0301 71.9764 23.0174 72.1491 23.0562C72.3218 23.095 72.4793 23.1836 72.6021 23.3111C72.7248 23.4385 72.8075 23.5992 72.8399 23.7732C72.8722 23.9472 72.8528 24.1269 72.7839 24.2899C72.7151 24.453 72.6 24.5923 72.4528 24.6905C72.3501 24.7557 72.2356 24.8001 72.1158 24.8209C71.9959 24.8418 71.8732 24.8388 71.7545 24.8121C71.6358 24.7855 71.5236 24.7356 71.4242 24.6655C71.3248 24.5954 71.2403 24.5063 71.1754 24.4035Z" fill="#FFA87A"/>
<path d="M83.7197 26.8204L77.6083 25.543C77.6083 25.543 77.4791 30.4746 80.1171 30.8449C82.7551 31.2152 83.7197 26.8204 83.7197 26.8204Z" fill="#683B2D"/>
<path d="M81.8338 28.9786L78.0877 28.1978C77.8909 27.4484 77.7943 26.6762 77.8006 25.9014L82.6806 26.9204C82.5087 27.6469 82.2229 28.3415 81.8338 28.9786Z" fill="#FFF4E0"/>
<path d="M78.3575 19.1763C78.4637 18.2319 78.9001 17.4856 79.3335 17.5114C79.767 17.5372 80.0339 18.318 79.9306 19.2624C79.8272 20.2068 79.388 20.9503 78.9517 20.9273C78.5154 20.9044 78.2513 20.1179 78.3575 19.1763Z" fill="#683B2D"/>
<path d="M83.2604 20.1196C83.4355 19.1982 83.935 18.4719 84.3742 18.4977C84.8134 18.5236 85.0258 19.29 84.8507 20.2201C84.6756 21.1501 84.179 21.8678 83.7398 21.8419C83.3006 21.8161 83.0853 21.0382 83.2604 20.1196Z" fill="#683B2D"/>
<path d="M77.2179 20.5371C77.3586 19.8597 78.1881 19.3889 79.0665 19.475C79.9449 19.5611 80.5477 20.1898 80.4042 20.8672C80.2607 21.5447 79.4368 22.0154 78.5556 21.9293C77.6743 21.8432 77.0773 21.2146 77.2179 20.5371Z" fill="#FFA87A"/>
<path d="M81.7562 21.3311C81.8969 20.6508 82.7265 20.1829 83.6049 20.269C84.4833 20.3551 85.0832 20.9838 84.9425 21.6612C84.8019 22.3387 83.9752 22.8094 83.0939 22.7233C82.2126 22.6372 81.6271 22.0085 81.7562 21.3311Z" fill="#FFA87A"/>
<path d="M82.9361 24.7873C83.1513 24.3768 82.2816 20.9005 81.7735 18.9715L81.9716 18.1104C81.9716 18.1104 83.78 24.638 83.4786 25.2064C83.1772 25.7747 81.2797 25.5623 80.321 25.1403L80.3727 24.9164C81.3716 25.1949 82.6892 25.2523 82.9361 24.7873Z" fill="#EF663B"/>
<path d="M77.8293 16.7272C78.6445 17.0143 80.8548 16.7875 81.2395 16.5206C81.6242 16.2536 81.8997 14.8327 81.1763 14.5112C80.453 14.1897 78.145 14.9446 77.8896 15.1657C77.6341 15.3867 77.4992 16.6124 77.8293 16.7272Z" fill="#A74324"/>
<path d="M85.8008 18.5729C85.1291 18.4954 83.5962 17.3903 83.3953 16.9855C83.1944 16.5808 83.4125 15.1771 84.0297 15.1885C84.6468 15.2 86.0965 16.8248 86.217 17.129C86.3376 17.4333 86.0735 18.6016 85.8008 18.5729Z" fill="#A74324"/>
<path d="M31.002 88.359L29.6786 90.3684C29.6786 90.3684 31.6077 95.5985 28.8605 94.8608C26.1134 94.1231 23.9289 83.3126 23.9289 83.3126C23.395 81.9175 22.7807 81.8342 22.0975 82.8188C21.2823 87.3113 23.7194 95.033 27.9649 96.764C30.7293 97.895 33.5137 94.3298 31.002 88.359Z" fill="#8E331C"/>
<path d="M1.6994 116.975C1.27315 117.058 0.838336 117.088 0.404779 117.064C0.348974 117.063 0.294096 117.05 0.243369 117.026C0.192642 117.003 0.147088 116.97 0.109382 116.929C0.0716772 116.887 0.0425808 116.839 0.0238026 116.787C0.00502429 116.734 -0.0030577 116.678 3.1668e-05 116.622C0.00524681 116.51 0.0546813 116.405 0.137523 116.329C0.220366 116.253 0.329874 116.213 0.442097 116.218C3.54229 116.355 4.17382 113.87 4.95748 109.805C5.63493 106.274 6.39275 102.27 9.86325 100.045C13.4744 97.7227 16.4052 101.027 19.2385 104.224C22.3272 107.706 25.5221 111.306 29.9887 109.34C31.2948 108.766 32.0239 108.085 32.2134 107.27C32.6239 105.496 30.5743 103.062 28.1946 100.243C24.8734 96.296 21.1072 91.8237 21.9799 86.8892C21.9863 86.8316 22.0045 86.7759 22.0333 86.7255C22.0621 86.6752 22.101 86.6313 22.1474 86.5965C22.1938 86.5617 22.2469 86.5368 22.3033 86.5234C22.3597 86.5099 22.4183 86.5081 22.4754 86.5181C22.5325 86.5281 22.587 86.5497 22.6355 86.5816C22.6839 86.6134 22.7253 86.6549 22.7572 86.7034C22.789 86.7519 22.8106 86.8064 22.8206 86.8635C22.8305 86.9206 22.8287 86.9792 22.8152 87.0356C22.0114 91.5826 25.6398 95.8941 28.8433 99.6976C31.3608 102.692 33.5367 105.275 33.0315 107.462C32.776 108.556 31.8833 109.426 30.3217 110.115C25.2896 112.331 21.733 108.321 18.5955 104.787C15.7622 101.589 13.3137 98.8278 10.3139 100.768C7.15632 102.798 6.4272 106.613 5.78132 109.977C5.15841 113.258 4.55847 116.393 1.6994 116.975Z" fill="#8E331C"/>
</g>
<defs>
<clipPath id="clip0">
<rect width="200" height="175.543" fill="white"/>
</clipPath>
</defs>
</svg>
