<svg xmlns="http://www.w3.org/2000/svg" width="170" height="32" viewBox="0 0 170 32">
  <defs>
    <style>
      .cls-1 {
        fill-rule: evenodd;
      }
    </style>
  </defs>
  <path id="Lively_Paws" data-name="Lively Paws" class="cls-1" d="M15.96,25a0.978,0.978,0,0,0,.992-0.928l0.832-4.48a0.5,0.5,0,0,0-.544-0.7H16.856a1.238,1.238,0,0,0-.912.656,9.736,9.736,0,0,0-.832,1.424,5.024,5.024,0,0,1-1.04,1.424,2.071,2.071,0,0,1-1.472.656H7.992a1.125,1.125,0,0,1-1.008-.512,2.285,2.285,0,0,1-.336-1.28V5.352a1.947,1.947,0,0,1,.688-1.424A1.8,1.8,0,0,0,8.024,2.92V2.792q0-.511-0.768-0.512H1.24q-0.7,0-.7.512V2.92a1.84,1.84,0,0,0,.608,1.008,2.061,2.061,0,0,1,.608,1.424V21.928a2.139,2.139,0,0,1-.608,1.424A2,2,0,0,0,.536,24.36v0.1a0.563,0.563,0,0,0,.7.544H15.96ZM26.2,4.552a2.605,2.605,0,0,0-.848-2A3.193,3.193,0,0,0,23.1,1.768a3.31,3.31,0,0,0-2.288.784,2.559,2.559,0,0,0-.88,2,2.594,2.594,0,0,0,.88,2.032,3.308,3.308,0,0,0,2.288.784,3.191,3.191,0,0,0,2.256-.784A2.642,2.642,0,0,0,26.2,4.552h0ZM26.072,25q0.736,0,.736-0.544V24.328a1.9,1.9,0,0,0-.672-0.992,2.018,2.018,0,0,1-.672-1.44V10.088A0.737,0.737,0,0,0,25.112,9.4a1.063,1.063,0,0,0-.96.048l-4,1.984a1,1,0,0,0-.672.672v0.1a2.167,2.167,0,0,0,.608.96,2.268,2.268,0,0,1,.608,1.5V21.9a2.117,2.117,0,0,1-.608,1.44,1.929,1.929,0,0,0-.608.992v0.128a0.563,0.563,0,0,0,.7.544h5.888ZM40.791,9.64a0.545,0.545,0,0,0-.672.544v0.128a1.068,1.068,0,0,0,.464.656,3.3,3.3,0,0,1,.72.848,2.3,2.3,0,0,1-.064,1.6l-3.008,8-3.36-8.608a1.775,1.775,0,0,1-.064-1.136,4.3,4.3,0,0,1,.448-0.72,1.166,1.166,0,0,0,.288-0.64V10.184A0.528,0.528,0,0,0,34.9,9.64H28.535a0.517,0.517,0,0,0-.64.512V10.28a2.019,2.019,0,0,0,.656,1.136,5.127,5.127,0,0,1,.912,1.3l5.312,11.52A1.072,1.072,0,0,0,35.8,25h2.08a1.024,1.024,0,0,0,1.056-.768l4.416-11.52a3.4,3.4,0,0,1,1.12-1.36,1.879,1.879,0,0,0,.864-1.072V10.152q0-.511-0.672-0.512H40.791Zm16.56,11.824a4.533,4.533,0,0,1-2.192.528,4.392,4.392,0,0,1-4.224-2.784l7.1-3.232a2.176,2.176,0,0,0,1.408-2.112A4.123,4.123,0,0,0,57.879,10.7,6.586,6.586,0,0,0,53.4,9.32a7.68,7.68,0,0,0-7.744,7.872,8.089,8.089,0,0,0,2.176,5.888A7.425,7.425,0,0,0,53.4,25.32a6.581,6.581,0,0,0,4.576-1.584,5.154,5.154,0,0,0,1.92-3.248,0.527,0.527,0,0,0-.384-0.608,0.6,0.6,0,0,0-.7.256A3.687,3.687,0,0,1,57.351,21.464ZM54.679,11.9a4.379,4.379,0,0,1,.7,2.256,1.53,1.53,0,0,1-.832,1.5l-4.128,2.08a10.591,10.591,0,0,1-.32-2.752,5.761,5.761,0,0,1,.736-3.056,2.239,2.239,0,0,1,1.984-1.2A2.108,2.108,0,0,1,54.679,11.9ZM68.311,25q0.736,0,.736-0.544V24.328a1.894,1.894,0,0,0-.688-0.992,1.968,1.968,0,0,1-.688-1.408V1.576a0.678,0.678,0,0,0-.336-0.64A1.144,1.144,0,0,0,66.359,1L62.327,2.984a0.8,0.8,0,0,0-.64.64V3.752a2.02,2.02,0,0,0,.624.928,2.157,2.157,0,0,1,.624,1.5V21.928a2.055,2.055,0,0,1-.624,1.408,1.92,1.92,0,0,0-.624.992v0.128q0,0.544.736,0.544h5.888ZM83.223,9.64a0.545,0.545,0,0,0-.672.544v0.128A1.062,1.062,0,0,0,83.1,11a4.3,4.3,0,0,1,.864.816,1.77,1.77,0,0,1,0,1.5L80.5,21.544l-3.744-8.672a2.488,2.488,0,0,1-.192-1.216,2.159,2.159,0,0,1,.384-0.688,1.118,1.118,0,0,0,.288-0.656V10.184a0.511,0.511,0,0,0-.608-0.544H70.647q-0.672,0-.672.512v0.16a1.88,1.88,0,0,0,.688,1.1,5.458,5.458,0,0,1,1.04,1.392l6.368,13.056q-1.824,4.48-3.3,4.48a1,1,0,0,1-.88-0.592,4.692,4.692,0,0,1-.5-1.328,2.973,2.973,0,0,0-.672-1.328,1.763,1.763,0,0,0-1.408-.592,1.869,1.869,0,0,0-1.408.528,1.916,1.916,0,0,0-.512,1.392,3.017,3.017,0,0,0,1.328,2.368A5.255,5.255,0,0,0,74.1,31.848a4.089,4.089,0,0,0,1.792-.416,5.653,5.653,0,0,0,1.44-.96A7.64,7.64,0,0,0,78.5,28.984q0.592-.944.88-1.52t0.7-1.5l6.048-13.152a5.567,5.567,0,0,1,.976-1.376,1.962,1.962,0,0,0,.656-1.12v-0.16a0.517,0.517,0,0,0-.64-0.512h-3.9ZM102.391,25q0.735,0,.736-0.544V24.328a2.007,2.007,0,0,0-.688-0.976,2.019,2.019,0,0,1-.688-1.424v-4.32H104.6a10.116,10.116,0,0,0,6.752-2.112,7.112,7.112,0,0,0,2.5-5.728,6.29,6.29,0,0,0-2.8-5.648,13.237,13.237,0,0,0-7.376-1.84h-7.3q-0.736,0-.736.512V2.92a2.045,2.045,0,0,0,.624,1.024,2.138,2.138,0,0,1,.624,1.408V21.928a2.11,2.11,0,0,1-.624,1.424,2.027,2.027,0,0,0-.624.976v0.128q0,0.544.736,0.544h6.017Zm-0.64-10.72v-8.7q0-1.375,1.056-1.376h0.864a4.638,4.638,0,0,1,3.6,1.808,7.3,7.3,0,0,1,1.552,4.912,5.234,5.234,0,0,1-1.12,3.44,3.8,3.8,0,0,1-3.1,1.36h-1.472a1.245,1.245,0,0,1-1.376-1.44h0Zm27.423,1.6a7.271,7.271,0,0,0-2.336-4.8,7.384,7.384,0,0,0-5.088-1.76,8.85,8.85,0,0,0-4.368.992,2.981,2.981,0,0,0-1.776,2.656,1.7,1.7,0,0,0,.528,1.3,1.949,1.949,0,0,0,1.392.5,1.606,1.606,0,0,0,1.312-.64,4.05,4.05,0,0,0,.736-1.408,3.793,3.793,0,0,1,.768-1.408,1.763,1.763,0,0,1,1.408-.64,2,2,0,0,1,1.952,1.248,15.034,15.034,0,0,1,.9,4.288l0.032,0.384a5.956,5.956,0,0,0-3.488-.96,6.623,6.623,0,0,0-4.16,1.28,4.185,4.185,0,0,0-1.632,3.584,4.21,4.21,0,0,0,1.664,3.584,7.068,7.068,0,0,0,4.352,1.248q3.007,0,4.256-1.856a1.686,1.686,0,0,0,.784,1.36,4.4,4.4,0,0,0,2.064.368q3.072,0,3.072-.928a0.52,0.52,0,0,0-.224-0.448,2.342,2.342,0,0,0-.512-0.272,1.262,1.262,0,0,1-.56-0.56,3.042,3.042,0,0,1-.368-1.184ZM120.838,22.7a5.493,5.493,0,0,1-.752-2.944,2.827,2.827,0,0,1,.656-1.952,2.149,2.149,0,0,1,1.68-.736,2.248,2.248,0,0,1,1.712.736,3.471,3.471,0,0,1,.816,2.112l0.1,1.12a3,3,0,0,1-.576,2,2,2,0,0,1-1.7.88A2.225,2.225,0,0,1,120.838,22.7ZM150.583,9.64a0.527,0.527,0,0,0-.64.544v0.128a0.756,0.756,0,0,0,.288.528,6.223,6.223,0,0,0,.592.5,1.486,1.486,0,0,1,.48.72,1.682,1.682,0,0,1-.08,1.168l-2.464,7.1-2.912-10.016a0.735,0.735,0,0,0-.736-0.576l-1.76.032a0.742,0.742,0,0,0-.736.608l-2.976,9.952-2.56-7.52a1.612,1.612,0,0,1-.08-0.96,1.123,1.123,0,0,1,.352-0.608,4.435,4.435,0,0,0,.464-0.432,0.727,0.727,0,0,0,.224-0.5V10.184a0.511,0.511,0,0,0-.608-0.544h-5.7a0.517,0.517,0,0,0-.64.512v0.16a1.922,1.922,0,0,0,.64,1.072,4.292,4.292,0,0,1,.9,1.36L137.3,24.232a1,1,0,0,0,1.024.768h0.736a1.024,1.024,0,0,0,1.056-.768L143.1,14.76l2.944,9.472A0.993,0.993,0,0,0,147.1,25h1.056a1,1,0,0,0,1.024-.768L153.3,12.744a3.18,3.18,0,0,1,1.008-1.408,1.724,1.724,0,0,0,.752-1.024v-0.16a0.517,0.517,0,0,0-.64-0.512h-3.84Zm17.056,14.352a3.873,3.873,0,0,0,1.856-3.28,4.388,4.388,0,0,0-.48-2.128,3.589,3.589,0,0,0-1.248-1.36,8.771,8.771,0,0,0-1.712-.816q-0.945-.336-1.872-0.608a16.3,16.3,0,0,1-1.7-.592,3.046,3.046,0,0,1-1.248-.928,2.351,2.351,0,0,1-.48-1.5,2.16,2.16,0,0,1,.576-1.52,1.951,1.951,0,0,1,1.5-.624,1.908,1.908,0,0,1,1.5.656,3.724,3.724,0,0,1,.8,1.44,3.914,3.914,0,0,0,.768,1.44,1.775,1.775,0,0,0,1.44.656,1.856,1.856,0,0,0,1.3-.48,1.537,1.537,0,0,0,.528-1.184,3.226,3.226,0,0,0-1.84-2.7,8.935,8.935,0,0,0-4.752-1.136,7.725,7.725,0,0,0-4.688,1.328,4.03,4.03,0,0,0-1.808,3.376,4.172,4.172,0,0,0,.912,2.8,4.868,4.868,0,0,0,2.224,1.5q1.311,0.432,2.624.768a6.378,6.378,0,0,1,2.224,1.008,2.147,2.147,0,0,1,.912,1.824,1.921,1.921,0,0,1-.656,1.568,2.545,2.545,0,0,1-1.68.544,2.314,2.314,0,0,1-1.712-.656,3.442,3.442,0,0,1-.9-1.456,3.881,3.881,0,0,0-.816-1.456,1.908,1.908,0,0,0-1.5-.656,2.079,2.079,0,0,0-1.392.448,1.625,1.625,0,0,0-.528,1.312,3.105,3.105,0,0,0,1.92,2.624,9.913,9.913,0,0,0,4.928,1.088A8.575,8.575,0,0,0,167.639,23.992Z"/>
</svg>
