<?xml version="1.0" encoding="UTF-8" standalone="no"?>
<!DOCTYPE svg PUBLIC "-//W3C//DTD SVG 1.1//EN" "http://www.w3.org/Graphics/SVG/1.1/DTD/svg11.dtd">
<svg width="100%" height="100%" viewBox="0 0 1367 184" version="1.1" xmlns="http://www.w3.org/2000/svg" xmlns:xlink="http://www.w3.org/1999/xlink" xml:space="preserve" xmlns:serif="http://www.serif.com/" style="fill-rule:evenodd;clip-rule:evenodd;stroke-linejoin:round;stroke-miterlimit:2;">
    <g transform="matrix(4.16667,0,0,4.16667,0,0)">
        <path d="M24.641,20.039L16.515,20.039C14.41,20.039 12.687,18.316 12.687,16.211L12.687,8.085C12.687,5.979 14.41,4.257 16.515,4.257L24.641,4.257C26.746,4.257 28.468,5.979 28.468,8.085L28.468,16.211C28.468,18.316 26.746,20.039 24.641,20.039Z" style="fill:rgb(213,224,77);fill-rule:nonzero;"/>
        <path d="M37.297,34.242L29.171,34.242C27.066,34.242 25.343,32.519 25.343,30.414L25.343,22.288C25.343,20.182 27.066,18.461 29.171,18.461L37.297,18.461C39.402,18.461 41.124,20.182 41.124,22.288L41.124,30.414C41.124,32.519 39.402,34.242 37.297,34.242Z" style="fill:rgb(174,194,54);fill-rule:nonzero;"/>
        <path d="M11.953,34.242L3.827,34.242C1.722,34.242 0,32.519 0,30.414L0,22.288C0,20.182 1.722,18.461 3.827,18.461L11.953,18.461C14.059,18.461 15.781,20.182 15.781,22.288L15.781,30.414C15.781,32.519 14.059,34.242 11.953,34.242Z" style="fill:rgb(174,194,54);fill-rule:nonzero;"/>
        <path d="M74.965,30.321L70.205,25.841C69.005,27.521 66.885,28.721 64.205,28.721C59.485,28.721 56.165,25.201 56.165,20.041C56.165,15.041 59.565,11.361 64.325,11.361C66.485,11.361 68.765,12.201 70.045,13.961L74.685,9.321C72.325,6.601 68.045,5.161 64.085,5.161C55.445,5.161 48.725,10.961 48.725,20.041C48.725,28.921 55.245,35.001 63.965,35.001C68.725,35.001 72.485,33.201 74.965,30.321Z" style="fill:rgb(70,70,71);fill-rule:nonzero;"/>
        <path d="M106.925,19.961C106.925,10.881 100.365,5.161 91.485,5.161C82.645,5.161 76.085,10.881 76.085,19.961C76.085,28.921 82.645,35.001 91.485,35.001C100.365,35.001 106.925,28.921 106.925,19.961ZM99.605,19.961C99.605,25.081 96.245,28.761 91.485,28.761C86.725,28.761 83.405,25.081 83.405,19.961C83.405,15.001 86.685,11.321 91.485,11.321C96.285,11.321 99.605,15.001 99.605,19.961Z" style="fill:rgb(70,70,71);fill-rule:nonzero;"/>
        <path d="M137.205,34.241L137.205,5.921L130.565,5.921L130.725,24.401L130.605,24.401L119.245,5.921L111.445,5.921L111.445,34.241L118.085,34.241L117.925,15.721L118.045,15.721L129.445,34.241L137.205,34.241Z" style="fill:rgb(70,70,71);fill-rule:nonzero;"/>
        <path d="M162.365,8.681C159.885,6.401 156.285,5.201 153.085,5.201C147.805,5.201 142.125,7.801 142.125,14.081C142.125,19.201 145.765,21.041 149.365,22.201C153.085,23.401 155.245,24.081 155.245,26.241C155.245,28.521 153.405,29.321 151.325,29.321C149.085,29.321 146.565,28.041 145.205,26.321L140.725,30.881C143.205,33.481 147.285,34.961 151.325,34.961C156.925,34.961 162.165,32.041 162.165,25.521C162.165,19.881 157.205,18.241 153.365,17.001C150.685,16.161 149.005,15.561 149.005,13.681C149.005,11.441 151.205,10.841 152.965,10.841C154.725,10.841 156.845,11.801 158.005,13.281L162.365,8.681Z" style="fill:rgb(70,70,71);fill-rule:nonzero;"/>
        <path d="M196.204,19.961C196.204,10.881 189.644,5.161 180.764,5.161C171.924,5.161 165.364,10.881 165.364,19.961C165.364,28.921 171.924,35.001 180.764,35.001C189.644,35.001 196.204,28.921 196.204,19.961ZM188.884,19.961C188.884,25.081 185.524,28.761 180.764,28.761C176.004,28.761 172.684,25.081 172.684,19.961C172.684,15.001 175.964,11.321 180.764,11.321C185.564,11.321 188.884,15.001 188.884,19.961Z" style="fill:rgb(70,70,71);fill-rule:nonzero;"/>
        <path d="M225.204,5.921L217.644,5.921L211.124,26.001L210.964,26.001L204.404,5.921L196.724,5.921L207.444,34.241L214.284,34.241L225.204,5.921Z" style="fill:rgb(70,70,71);fill-rule:nonzero;"/>
        <path d="M247.284,34.241L247.284,28.401L234.124,28.401L234.124,22.521L245.884,22.521L245.884,17.041L234.124,17.041L234.124,11.721L246.564,11.721L246.564,5.921L227.524,5.921L227.524,34.241L247.284,34.241Z" style="fill:rgb(70,70,71);fill-rule:nonzero;"/>
        <path d="M277.564,34.241L277.564,5.921L270.924,5.921L271.084,24.401L270.964,24.401L259.604,5.921L251.804,5.921L251.804,34.241L258.444,34.241L258.284,15.721L258.404,15.721L269.804,34.241L277.564,34.241Z" style="fill:rgb(70,70,71);fill-rule:nonzero;"/>
        <rect x="283.404" y="5.921" width="6.88" height="28.32" style="fill:rgb(70,70,71);fill-rule:nonzero;"/>
        <path d="M325.643,19.961C325.643,10.881 319.083,5.161 310.203,5.161C301.363,5.161 294.803,10.881 294.803,19.961C294.803,28.921 301.363,35.001 310.203,35.001C319.083,35.001 325.643,28.921 325.643,19.961ZM318.323,19.961C318.323,25.081 314.963,28.761 310.203,28.761C305.443,28.761 302.123,25.081 302.123,19.961C302.123,15.001 305.403,11.321 310.203,11.321C315.003,11.321 318.323,15.001 318.323,19.961Z" style="fill:rgb(70,70,71);fill-rule:nonzero;"/>
    </g>
</svg>
