<?xml version="1.0" encoding="utf-8"?>
<!-- Generator: Adobe Illustrator 16.0.0, SVG Export Plug-In . SVG Version: 6.00 Build 0)  -->
<!DOCTYPE svg PUBLIC "-//W3C//DTD SVG 1.1//EN" "http://www.w3.org/Graphics/SVG/1.1/DTD/svg11.dtd">
<svg version="1.1" id="Layer_1" xmlns="http://www.w3.org/2000/svg" xmlns:xlink="http://www.w3.org/1999/xlink" x="0px" y="0px"
	 width="512px" height="512px" viewBox="0 0 512 512" enable-background="new 0 0 512 512" xml:space="preserve">
<path fill-rule="evenodd" clip-rule="evenodd" fill="#F58220" d="M209.974,1c10.311,1.7,20.743,2.871,30.914,5.186
	c77.341,17.602,137.664,83.102,148.917,161.455c0.781,5.435,1.304,10.92,1.644,16.401c0.181,2.909,1.249,4.19,4.124,5.143
	c57.578,19.073,95.35,57.702,111.63,116.088c11.843,42.476,6.021,83.493-15.047,122.232c-1.661,3.054-1.927,5.646-1.018,8.884
	c6.79,24.184,13.448,48.404,20.144,72.615c0.21,0.762,0.373,1.537,0.759,3.139c-11.087-3.074-21.571-5.984-32.059-8.889
	c-14.749-4.083-29.471-8.276-44.282-12.122c-2.255-0.586-5.328-0.282-7.352,0.831c-92.801,51.001-207.408,5.04-239.058-96.072
	c-0.969-3.096-2.263-4.195-5.405-4.406c-30.032-2.022-58.188-10.346-84.432-25.195c-1.691-0.957-4.483-0.75-6.521-0.196
	c-29.215,7.938-58.39,16.029-87.574,24.079c-0.913,0.252-1.839,0.458-3.546,0.88c3.322-12.085,6.462-23.552,9.628-35.013
	c5.182-18.76,10.473-37.492,15.451-56.307c0.592-2.237,0.215-5.304-0.9-7.333c-13.411-24.41-21.685-50.356-24.127-78.134
	c-0.127-1.445-0.569-2.862-0.864-4.292c0-8.999,0-17.998,0-26.997c1.674-10.142,2.536-20.498,5.15-30.391
	C26.652,75.014,75.813,25.953,153.6,5.979c9.587-2.461,19.575-3.358,29.377-4.979C191.976,1,200.975,1,209.974,1z M44.743,348.222
	c17.771-4.924,34.605-9.466,51.35-14.319c4.012-1.163,7.066-0.767,10.667,1.516c36.745,23.284,76.608,31.402,119.504,23.716
	c90.764-16.265,151.95-105.803,132.133-195.7C343.825,97.328,302.791,53.343,237.223,36.578
	c-65.412-16.727-122.15,2.3-166.713,53.088c-47.94,54.636-52.585,133.882-12.999,196.517c2.278,3.604,2.703,6.641,1.54,10.659
	C54.201,313.592,49.666,330.432,44.743,348.222z M391.609,219.271c-18.532,96.979-75.765,154.12-172.089,172.279
	c15.559,47.783,62.689,89.35,123.74,91.299c28.79,0.919,55.294-6.748,79.304-22.702c3.053-2.029,5.738-2.57,9.264-1.369
	c5.499,1.874,11.183,3.209,16.795,4.743c6.628,1.812,13.265,3.591,20.542,5.558c-3.527-12.705-6.635-24.592-10.193-36.344
	c-1.28-4.226-0.582-7.362,1.728-11.078c26.855-43.213,30.024-88.217,8.015-134.109C452.722,254.204,426.266,231.823,391.609,219.271
	z"/>
<path fill-rule="evenodd" clip-rule="evenodd" fill="#F58220" d="M166.296,150.726c-10.028,0-19.632,0-29.728,0
	c0.269-17.095,6.35-31.406,18.448-42.944c24.152-23.033,61.651-22.276,84.497,1.458c23.207,24.108,22.461,61.978-1.804,85.271
	c-7.569,7.266-15.564,14.088-23.081,21.404c-1.664,1.619-2.855,4.42-3.008,6.759c-0.41,6.269-0.14,12.583-0.14,19.082
	c-10.174,0-19.785,0-29.964,0c0-11.743-0.11-23.366,0.139-34.983c0.031-1.452,1.764-3.075,3.04-4.261
	c10.861-10.092,21.959-19.932,32.666-30.183c9.274-8.881,11.59-22.163,6.476-33.591c-5.02-11.219-16.442-18.229-28.858-17.709
	c-13.996,0.586-26.107,11.523-28.066,25.344C166.728,147.678,166.543,148.982,166.296,150.726z"/>
<path fill-rule="evenodd" clip-rule="evenodd" fill="#F58220" d="M211.219,272.309c0,9.77,0,19.368,0,29.311
	c-9.843,0-19.536,0-29.49,0c0-9.766,0-19.365,0-29.311C191.443,272.309,201.012,272.309,211.219,272.309z"/>
</svg>
