<?xml version="1.0" encoding="utf-8"?>
<!-- Generator: Adobe Illustrator 16.0.0, SVG Export Plug-In . SVG Version: 6.00 Build 0)  -->
<!DOCTYPE svg PUBLIC "-//W3C//DTD SVG 1.1//EN" "http://www.w3.org/Graphics/SVG/1.1/DTD/svg11.dtd">
<svg version="1.1" id="Layer_1" xmlns="http://www.w3.org/2000/svg" xmlns:xlink="http://www.w3.org/1999/xlink" x="0px" y="0px"
	 width="383.952px" height="312px" viewBox="0 0 383.952 312" enable-background="new 0 0 383.952 312" xml:space="preserve">
<g>
	<path fill-rule="evenodd" clip-rule="evenodd" fill="#F58220" d="M374.62,17.656c-8.971-11.204-20.564-17.539-34.911-17.558
		c-98.485-0.13-196.972-0.121-295.457-0.026C23.108,0.091,5.06,15.522,0.772,36.596C0.604,37.421,0.261,38.209,0,39.015
		C0,53.513,0,68.012,0,82.51c0.945,0.573,1.943,1.073,2.826,1.729c53.497,39.77,106.982,79.554,160.473,119.331
		c18.524,13.774,38.601,13.926,57.052,0.231c44.505-33.031,88.944-66.15,133.436-99.202c10.003-7.432,20.107-14.73,30.165-22.09
		c0-14.498,0-28.997,0-43.495C381.949,31.412,379.663,23.956,374.62,17.656z M353.865,64.533c-0.051,1.355-0.881,3.139-1.945,3.933
		c-49.947,37.273-99.949,74.472-149.976,111.639c-6.915,5.137-13.069,5.092-19.942-0.018
		C132.085,142.985,82.176,105.872,32.34,68.661c-1.223-0.914-2.171-2.959-2.239-4.521c-0.259-5.987-0.127-11.991-0.1-17.988
		c0.046-9.914,6.237-16.124,16.166-16.127c48.729-0.017,97.459-0.008,146.189-0.008c48.104,0,96.21-0.001,144.315,0.001
		c11.456,0.001,17.271,5.82,17.283,17.276C353.96,53.042,354.079,58.794,353.865,64.533z"/>
	<path fill-rule="evenodd" clip-rule="evenodd" fill="#F58220" d="M356.997,139.486c-2.281,1.632-3.117,3.329-3.11,6.151
		c0.102,39.742,0.072,79.485,0.066,119.228c-0.002,11.19-5.914,17.116-17.078,17.117c-96.607,0.004-193.215,0.004-289.822,0
		c-11.167-0.001-17.053-5.917-17.054-17.135c-0.006-37.744-0.226-75.489,0.192-113.228c0.081-7.284-1.785-11.961-7.996-15.819
		C14.496,131.019,7.372,125.312,0,120.005c0,50.993,0,101.987,0,152.98c1.953,7.488,4.195,14.835,9.111,21.06
		c8.981,11.369,20.659,17.831,35.145,17.851c98.482,0.139,196.965,0.129,295.448,0.029c21.178-0.021,39.172-15.427,43.471-36.53
		c0.168-0.821,0.515-1.606,0.777-2.409c0-50.993,0-101.987,0-152.98c-1.053,0.623-2.169,1.161-3.146,1.884
		C372.868,127.754,365.021,133.743,356.997,139.486z"/>
</g>
</svg>
