<?xml version="1.0" encoding="utf-8"?>
<!-- Generator: Adobe Illustrator 16.0.0, SVG Export Plug-In . SVG Version: 6.00 Build 0)  -->
<!DOCTYPE svg PUBLIC "-//W3C//DTD SVG 1.1//EN" "http://www.w3.org/Graphics/SVG/1.1/DTD/svg11.dtd">
<svg version="1.1" id="Layer_1" xmlns="http://www.w3.org/2000/svg" xmlns:xlink="http://www.w3.org/1999/xlink" x="0px" y="0px"
	 width="304.009px" height="304.009px" viewBox="0 0 304.009 304.009" enable-background="new 0 0 304.009 304.009"
	 xml:space="preserve">
<g>
	<path fill-rule="evenodd" clip-rule="evenodd" fill="#F58220" d="M301.642,125.852C293.135,80.333,268.9,45.539,229.52,21.406
		C209.224,8.968,186.98,2.167,163.202,0.489c-0.771-0.054-1.527-0.321-2.291-0.489c-5.938,0-11.875,0-17.813,0
		c-5.76,0.777-11.557,1.352-17.276,2.364C91.315,8.473,62.313,24.688,38.905,50.662C16.858,75.126,4.366,103.98,0.728,136.689
		c-0.237,2.137-0.485,4.272-0.728,6.408c0,5.938,0,11.876,0,17.813c0.776,5.751,1.302,11.549,2.367,17.246
		c8.507,45.519,32.742,80.313,72.121,104.445c20.297,12.438,42.54,19.239,66.318,20.917c0.771,0.055,1.528,0.321,2.292,0.489
		c5.938,0,11.876,0,17.813,0c5.761-0.777,11.557-1.352,17.276-2.364c34.507-6.108,63.509-22.323,86.916-48.298
		c22.047-24.465,34.54-53.318,38.178-86.028c0.237-2.137,0.484-4.271,0.728-6.407c0-5.938,0-11.875,0-17.813
		C303.233,137.347,302.706,131.549,301.642,125.852z M151.877,271.969c-66.081-0.082-120.013-54.196-119.837-120.24
		C32.217,85.747,86.186,31.959,152.132,32.04c66.081,0.082,120.014,54.195,119.837,120.24
		C271.792,218.262,217.823,272.05,151.877,271.969z"/>
	<path fill-rule="evenodd" clip-rule="evenodd" fill="#F58220" d="M178.1,147.331c-2.533,0.012-4.439-0.27-5.938-2.704
		c-1.102-1.79-2.896-3.262-4.641-4.515c-1.47-1.056-1.94-2.158-1.929-3.914c0.076-11.377,0.039-22.755,0.037-34.133
		c-0.001-11.378,0.061-22.756-0.022-34.134c-0.055-7.413-4.88-13.111-11.574-13.965c-8.829-1.128-15.616,5.01-15.638,14.341
		c-0.053,22.458-0.045,44.918,0.027,67.377c0.006,2.063-0.558,3.303-2.237,4.645c-8.398,6.705-11.864,15.571-9.556,26.053
		c2.328,10.573,9.194,17.489,19.757,19.868c10.594,2.386,19.541-1.101,26.282-9.64c1.278-1.62,2.485-2.122,4.411-2.107
		c10.586,0.074,21.172,0.036,31.759,0.035c8.113-0.001,16.228,0.087,24.338-0.031c8.058-0.116,13.9-5.896,13.926-13.531
		c0.027-7.874-5.946-13.646-14.39-13.673C214.509,147.245,196.304,147.243,178.1,147.331z"/>
</g>
</svg>
