<svg width="45" height="44" fill="none" xmlns="http://www.w3.org/2000/svg"><path d="M33.925 20.185l-3.492-1.54a13.762 13.762 0 01-6.765-6.49c-1.262 2.056-3.51 3.428-6.067 3.428-3.94 0-7.144-3.251-7.144-7.247V0a5.44 5.44 0 00-2.9 4.822c0 1.572-1.26 2.85-2.81 2.85H2.028A1.28 1.28 0 00.758 8.96v2.07c0 3.372 2.705 6.116 6.029 6.116h2.04c.799 0 1.45.66 1.45 1.47v2.996c0 2.677.96 5.203 2.718 7.174v7.46l-.532 1.08a8.088 8.088 0 00-.827 3.554v1.187c0 .711.568 1.288 1.27 1.288h4.169v-1.29c0-3.764 3.002-6.803 6.706-6.803h.092v-.092c0-4.513 3.62-8.185 8.068-8.185.7 0 1.269.576 1.269 1.288a1.28 1.28 0 01-1.27 1.288c-3.048 0-5.528 2.516-5.528 5.609v1.38a1.28 1.28 0 01-1.27 1.287h-1.36c-2.307 0-4.169 1.893-4.169 4.229v1.289h23.205c.7 0 1.269-.577 1.269-1.288v-6.155c0-6.83-3.989-13.003-10.162-15.727z" fill="#79DFFF"/><path d="M17.782 12.387c2.56 0 4.642-1.907 4.642-4.251V4.82c0-2.658-2.36-4.82-5.263-4.82H13.14v8.136c0 2.344 2.082 4.251 4.642 4.251z" fill="#79DFFF"/></svg>