<svg width="40" height="40" fill="none" xmlns="http://www.w3.org/2000/svg"><g clip-path="url(#clip0)" fill="#fff"><path d="M15.721 12.68a4.09 4.09 0 004.086-4.085V5.409A4.638 4.638 0 0015.175.776h-3.54v7.819a4.09 4.09 0 004.086 4.086z"/><path d="M30.206 18.959l-3.098-1.348a12.136 12.136 0 01-6.003-5.675 6.34 6.34 0 01-5.384 2.998 6.346 6.346 0 01-6.339-6.34v-7.29A4.75 4.75 0 006.81 5.522a2.496 2.496 0 01-2.493 2.493H1.903c-.622 0-1.127.505-1.127 1.126v1.81c0 2.95 2.4 5.35 5.35 5.35h1.81c.709 0 1.286.577 1.286 1.286v2.62c0 2.34.853 4.55 2.413 6.274v6.524l-.473.946a6.99 6.99 0 00-.734 3.108v1.038c0 .623.504 1.127 1.127 1.127h3.7v-1.128a5.947 5.947 0 015.95-5.95h.082v-.08c0-3.948 3.212-7.16 7.159-7.16a1.126 1.126 0 010 2.253 4.912 4.912 0 00-4.906 4.906v1.207c0 .622-.505 1.126-1.127 1.126h-1.207a3.696 3.696 0 00-3.699 3.698v1.128h20.59c.623 0 1.127-.504 1.127-1.127v-5.383c0-5.973-3.54-11.373-9.017-13.755z"/><path d="M30.206 18.959l-3.098-1.348a12.136 12.136 0 01-6.003-5.675 6.34 6.34 0 01-5.384 2.998 6.346 6.346 0 01-6.339-6.34v-7.29A4.75 4.75 0 006.81 5.522a2.496 2.496 0 01-2.493 2.493H1.903c-.622 0-1.127.505-1.127 1.126v1.81c0 2.95 2.4 5.35 5.35 5.35h1.81c.709 0 1.286.577 1.286 1.286v2.62c0 2.34.853 4.55 2.413 6.274v6.524l-.473.946a6.99 6.99 0 00-.734 3.108v1.038c0 .623.504 1.127 1.127 1.127h3.7v-1.128a5.947 5.947 0 015.95-5.95h.082v-.08c0-3.948 3.212-7.16 7.159-7.16a1.126 1.126 0 010 2.253 4.912 4.912 0 00-4.906 4.906v1.207c0 .622-.505 1.126-1.127 1.126h-1.207a3.696 3.696 0 00-3.699 3.698v1.128h20.59c.623 0 1.127-.504 1.127-1.127v-5.383c0-5.973-3.54-11.373-9.017-13.755z"/></g><defs><clipPath id="clip0"><path fill="#fff" d="M.776.776h38.448v38.448H.776z"/></clipPath></defs></svg>