<svg width="31" height="16" fill="none" xmlns="http://www.w3.org/2000/svg"><path d="M15.82 6.295c-.017 1.332 1.226 2.075 2.163 2.517.963.454 1.286.745 1.282 1.15-.007.62-.767.895-1.48.905-1.241.019-1.963-.324-2.537-.584L14.8 12.31c.575.257 1.642.481 2.748.491 2.596 0 4.294-1.24 4.303-3.163.01-2.441-3.488-2.576-3.464-3.667.009-.33.335-.684 1.05-.774.353-.045 1.33-.08 2.436.414l.435-1.96a6.82 6.82 0 00-2.313-.411c-2.444 0-4.162 1.257-4.176 3.056zm10.663-2.888c-.474 0-.873.268-1.051.679l-3.708 8.57h2.594l.516-1.38h3.17l.299 1.38h2.286l-1.995-9.249h-2.11zm.363 2.499l.749 3.473h-2.05l1.301-3.473zM12.675 3.408l-2.045 9.248h2.472l2.044-9.249h-2.471zm-3.657 0L6.445 9.701 5.405 4.35a1.142 1.142 0 00-1.14-.943H.059L0 3.676c.863.181 1.844.474 2.439.787.364.191.467.358.587.812l1.97 7.381H7.61l4.005-9.249H9.018" fill="url(#paint0_linear)"/><defs><linearGradient id="paint0_linear" x1="14.063" y1="12.992" x2="14.331" y2="3.172" gradientUnits="userSpaceOnUse"><stop stop-color="#222357"/><stop offset="1" stop-color="#254AA5"/></linearGradient></defs></svg>