<svg width="16" height="16" fill="none" xmlns="http://www.w3.org/2000/svg"><path d="M11.106 9.155l-.355-.534a.984.984 0 01-.174-.552v-2.25c0-.894.072-2.807-2.582-2.807-2.15 0-2.816 1.11-3.002 1.8a.45.45 0 00.402.6l.799.06a.475.475 0 00.468-.253 1.302 1.302 0 011.333-.816c.336 0 .81.138.81.54v.864a.228.228 0 01-.21.204h-.828c-.6 0-2.96.306-2.96 2.568 0 2.261 2.486 2.003 2.648 1.967a3.315 3.315 0 001.429-.774.216.216 0 01.312 0l.438.522a.475.475 0 00.679.048l.72-.648a.444.444 0 00.073-.54zM7.515 9.01c-.829 0-.805-.726-.6-1.074.203-.348.654-.894 1.927-.93v.6a1.33 1.33 0 01-.6 1.128c-.21.16-.463.256-.727.276z" fill="#171715"/><path d="M2.039 11.094a.144.144 0 01.168-.228 12.884 12.884 0 005.326 1.302 16.341 16.341 0 005.158-.858.144.144 0 01.186.162.143.143 0 01-.048.084c-.762.6-2.401 1.524-5.236 1.524a8.309 8.309 0 01-5.554-1.986z" fill="#FFAC35"/><path d="M11.683 10.775a2.447 2.447 0 012.143-.264.246.246 0 01.175.228 2.59 2.59 0 01-.787 1.871.066.066 0 01-.114-.066c.17-.483.27-.988.3-1.5-.09-.15-1.2-.155-1.663-.15a.066.066 0 01-.083-.034.066.066 0 01.029-.085z" fill="#FFAC35"/></svg>