<svg width="148" height="32" fill="none" xmlns="http://www.w3.org/2000/svg"><path d="M53.814 3.66c2.274 0 4.017.852 5.228 2.555 1.236 1.703 1.855 4.118 1.855 7.245 0 3.177-.63 5.643-1.892 7.397-1.236 1.754-2.979 2.63-5.228 2.63-1.261 0-2.324-.317-3.19-.953-.864-.635-1.544-1.512-2.039-2.63v11.21H40.02V4.041h7.491l.223 4.461c.47-1.5 1.223-2.682 2.262-3.546 1.063-.864 2.336-1.296 3.819-1.296zm-3.449 13.65c.643 0 1.125-.266 1.447-.8.32-.534.482-1.512.482-2.936 0-1.423-.161-2.402-.482-2.936-.322-.559-.804-.839-1.447-.839-.593 0-1.05.293-1.372.877-.296.56-.445 1.475-.445 2.746v.305c0 1.22.149 2.122.445 2.707.297.584.754.877 1.372.877zM83.366 4.042v19.064H75.69l-.185-4.041c-.544 1.474-1.347 2.58-2.41 3.317-1.039.737-2.324 1.106-3.857 1.106-1.978 0-3.473-.521-4.487-1.564-1.013-1.067-1.52-2.732-1.52-4.994V4.042h8.529v10.714c0 .839.099 1.424.296 1.754.223.33.581.496 1.076.496 1.137 0 1.706-1.004 1.706-3.012V4.042h8.528zm16.691-.382c2.275 0 4.018.852 5.229 2.555 1.236 1.703 1.854 4.118 1.854 7.245 0 3.177-.63 5.643-1.891 7.397-1.236 1.754-2.979 2.63-5.229 2.63-1.26 0-2.323-.317-3.189-.953-.865-.635-1.545-1.512-2.04-2.63v11.21h-8.528V4.041h7.49l.223 4.461c.47-1.5 1.224-2.682 2.262-3.546 1.063-.864 2.336-1.296 3.819-1.296zm-3.448 13.65c.642 0 1.125-.266 1.446-.8.321-.534.482-1.512.482-2.936 0-1.423-.16-2.402-.482-2.936-.322-.559-.804-.839-1.446-.839-.594 0-1.05.293-1.372.877-.297.56-.445 1.475-.445 2.746v.305c0 1.22.148 2.122.445 2.707.296.584.754.877 1.372.877zm26.697-13.65c2.274 0 4.017.852 5.228 2.555 1.236 1.703 1.854 4.118 1.854 7.245 0 3.177-.63 5.643-1.891 7.397-1.236 1.754-2.979 2.63-5.228 2.63-1.261 0-2.324-.317-3.189-.953-.866-.635-1.545-1.512-2.04-2.63v11.21h-8.529V4.041h7.491l.222 4.461c.47-1.5 1.224-2.682 2.262-3.546 1.063-.864 2.337-1.296 3.82-1.296zm-3.449 13.65c.643 0 1.125-.266 1.446-.8.322-.534.482-1.512.482-2.936 0-1.423-.16-2.402-.482-2.936-.321-.559-.803-.839-1.446-.839-.593 0-1.05.293-1.372.877-.296.56-.445 1.475-.445 2.746v.305c0 1.22.149 2.122.445 2.707.297.584.754.877 1.372.877zm26.215-13.65c.865 0 1.508.153 1.928.458l-.704 7.168c-.223-.178-.544-.317-.964-.419a4.726 4.726 0 00-1.372-.19c-1.137 0-2.04.279-2.707.838-.643.56-.964 1.373-.964 2.44v9.151h-8.529V4.042h7.676l.185 4.766c.89-3.432 2.707-5.147 5.451-5.147z" fill="#343434"/><g clip-path="url(#clip0)" fill="#79DFFF"><path d="M10.643 8.478a2.913 2.913 0 002.91-2.91V3.299A3.303 3.303 0 0010.252 0h-2.52v5.568a2.913 2.913 0 002.91 2.91z"/><path d="M20.958 12.948l-2.206-.96a8.642 8.642 0 01-4.275-4.041 4.515 4.515 0 01-3.834 2.135 4.52 4.52 0 01-4.515-4.514V.376A3.382 3.382 0 004.296 3.38c0 .979-.797 1.775-1.776 1.775H.802A.802.802 0 000 5.957v1.289c0 2.1 1.709 3.81 3.81 3.81h1.288c.505 0 .916.41.916.916v1.865a6.62 6.62 0 001.718 4.468v4.646l-.336.674a4.978 4.978 0 00-.523 2.213v.74c0 .442.36.802.802.802h2.635v-.803a4.235 4.235 0 014.238-4.238h.058v-.057a5.104 5.104 0 015.098-5.098.802.802 0 110 1.604 3.498 3.498 0 00-3.494 3.494v.859a.802.802 0 01-.802.802h-.86a2.632 2.632 0 00-2.634 2.634v.803h14.663c.443 0 .803-.36.803-.803v-3.833a10.68 10.68 0 00-6.422-9.796z"/></g><defs><clipPath id="clip0"><path fill="#fff" d="M0 0h27.38v27.38H0z"/></clipPath></defs></svg>