<svg width="16" height="16" fill="none" xmlns="http://www.w3.org/2000/svg"><path d="M14.59 8.145a5.765 5.765 0 00-.142-1.333h-6.35v2.473h3.726c-.067.43-.221.844-.454 1.215-.232.37-.538.692-.898.944v.087l2.029 1.532h.135a6.516 6.516 0 001.543-2.24c.35-.845.515-1.753.486-2.665" fill="#4285F4"/><path d="M8.099 14.664a6.502 6.502 0 004.477-1.613l-2.13-1.633a4.054 4.054 0 01-2.347.667 4.098 4.098 0 01-2.377-.763 4.003 4.003 0 01-1.472-1.99h-.08l-2.083 1.586v.074a6.701 6.701 0 002.48 2.672 6.837 6.837 0 003.533 1" fill="#34A853"/><path d="M4.249 9.331a4.064 4.064 0 01-.21-1.333 4.254 4.254 0 01.203-1.332v-.074l-2.117-1.62h-.068a6.586 6.586 0 000 5.999l2.192-1.64z" fill="#FBBC05"/><path d="M8.098 3.913a3.785 3.785 0 012.618.993l1.907-1.84a6.553 6.553 0 00-4.525-1.732 6.838 6.838 0 00-3.548.993 6.702 6.702 0 00-2.491 2.68l2.184 1.659c.267-.8.783-1.498 1.475-1.992a4.099 4.099 0 012.38-.76" fill="#EB4335"/></svg>