<svg width="16" height="16" fill="none" xmlns="http://www.w3.org/2000/svg"><path d="M8 3.081c1.602 0 1.792.006 2.425.035.584.027.902.124 1.114.207.28.109.48.239.69.449.21.21.34.41.448.69.082.21.18.529.207 1.113.029.633.035.823.035 2.425 0 1.602-.006 1.792-.035 2.425-.027.584-.125.902-.207 1.114a1.86 1.86 0 01-.448.69c-.21.21-.41.34-.69.448-.212.082-.53.18-1.114.207-.633.029-.823.035-2.425.035-1.602 0-1.792-.006-2.425-.035-.585-.027-.902-.125-1.114-.207a1.858 1.858 0 01-.69-.448c-.21-.21-.34-.41-.448-.69-.083-.212-.18-.53-.207-1.114-.029-.633-.035-.823-.035-2.425 0-1.602.006-1.792.035-2.424.027-.585.124-.903.207-1.115.108-.28.239-.48.448-.69.21-.21.41-.34.69-.448.212-.083.53-.18 1.114-.207.633-.029.823-.035 2.425-.035zM8 2c-1.63 0-1.834.007-2.474.036-.638.03-1.075.13-1.456.279a2.94 2.94 0 00-1.063.692 2.94 2.94 0 00-.692 1.063c-.148.381-.25.818-.279 1.456C2.006 6.166 2 6.37 2 8c0 1.63.007 1.834.036 2.474.03.639.13 1.075.279 1.456.153.395.358.73.692 1.063a2.94 2.94 0 001.063.692c.381.148.818.25 1.456.279.64.03.844.036 2.474.036 1.63 0 1.834-.007 2.474-.036.638-.03 1.075-.13 1.456-.279a2.94 2.94 0 001.063-.692 2.94 2.94 0 00.692-1.063c.148-.381.25-.817.279-1.456.03-.64.036-.844.036-2.474 0-1.63-.007-1.834-.036-2.474-.03-.638-.13-1.075-.279-1.456a2.94 2.94 0 00-.692-1.063 2.94 2.94 0 00-1.063-.692c-.381-.148-.818-.25-1.456-.279C9.834 2.006 9.63 2 8 2zm0 2.919a3.081 3.081 0 100 6.162A3.081 3.081 0 008 4.92zM8 10a2 2 0 110-4 2 2 0 010 4zm3.923-5.203a.72.72 0 11-1.44 0 .72.72 0 011.44 0z" fill="#0A0A08"/></svg>