<svg width="15" height="15" viewBox="0 0 15 15" fill="none" xmlns="http://www.w3.org/2000/svg">
<path d="M12.8033 2.19671C11.3867 0.780147 9.50329 0 7.5 0C5.49665 0 3.61324 0.780147 2.19665 2.19671C0.780117 3.61327 0 5.49668 0 7.5C0 9.50332 0.780117 11.3867 2.19665 12.8033C3.61324 14.2199 5.49665 15 7.5 15C7.74267 15 7.93945 14.8032 7.93945 14.5605C7.93945 14.3179 7.74267 14.1211 7.5 14.1211C3.84911 14.1211 0.878906 11.1509 0.878906 7.5C0.878906 3.84911 3.84911 0.878906 7.5 0.878906C11.1509 0.878906 14.1211 3.84911 14.1211 7.5V9.26514C14.1211 9.99612 13.5264 10.5908 12.7954 10.5908C12.0644 10.5908 11.4697 9.99612 11.4697 9.26514V7.5C11.4697 5.31108 9.68892 3.53027 7.5 3.53027C5.31108 3.53027 3.53027 5.31108 3.53027 7.5C3.53027 9.68892 5.31108 11.4697 7.5 11.4697C8.79832 11.4697 9.95303 10.8432 10.6778 9.87662C10.9436 10.7956 11.792 11.4697 12.7954 11.4697C14.011 11.4697 15 10.4808 15 9.26514V7.5C15 5.49668 14.2199 3.61327 12.8033 2.19671ZM7.5 10.5908C5.79568 10.5908 4.40918 9.20429 4.40918 7.5C4.40918 5.79571 5.79568 4.40918 7.5 4.40918C9.20429 4.40918 10.5908 5.79571 10.5908 7.5C10.5908 9.20429 9.20429 10.5908 7.5 10.5908Z" fill="#BFBFBF"/>
</svg>
