<svg width="14" height="14" viewBox="0 0 14 14" fill="none" xmlns="http://www.w3.org/2000/svg">
<path opacity="0.7" fill-rule="evenodd" clip-rule="evenodd" d="M10.6458 3.50003C10.8873 3.50003 11.0833 3.30403 11.0833 3.06253V2.04167H12.3958C12.7977 2.04167 13.125 2.36884 13.125 2.77078V4.66667H0.874885V2.77078C0.874885 2.36884 1.20216 2.04167 1.60409 2.04167H2.91666V3.06253C2.91666 3.30403 3.11266 3.50003 3.35416 3.50003C3.59567 3.50003 3.79167 3.30403 3.79167 3.06253V2.04167H10.2083V3.06253C10.2083 3.30403 10.4043 3.50003 10.6458 3.50003ZM3.79167 1.16667H10.2083V0.437504C10.2083 0.196001 10.4043 0 10.6458 0C10.8873 0 11.0833 0.196001 11.0833 0.437504V1.16667H12.3958C13.2807 1.16667 14 1.88583 14 2.77078V5.10417V12.3959C14 13.2808 13.2807 14.0001 12.3958 14.0001H1.60409C0.719152 14.0001 -0.000123024 13.2808 -0.000123024 12.3959V5.10417V2.77078C-0.000123024 1.88583 0.719152 1.16667 1.60409 1.16667H2.91666V0.437504C2.91666 0.196001 3.11266 0 3.35416 0C3.59567 0 3.79167 0.196001 3.79167 0.437504V1.16667ZM13.125 5.54167H0.874885V12.3959C0.874885 12.7978 1.20216 13.1251 1.60409 13.1251H12.3958C12.7977 13.1251 13.125 12.7978 13.125 12.3959V5.54167Z" fill="#646D8F"/>
</svg>
