<svg width="15" height="15" viewBox="0 0 15 15" fill="none" xmlns="http://www.w3.org/2000/svg">
<path fill-rule="evenodd" clip-rule="evenodd" d="M11.4062 3.75C11.665 3.75 11.875 3.54 11.875 3.28125V2.18753H13.2812C13.7119 2.18753 14.0625 2.53806 14.0625 2.96871V5.00003H0.9375V2.96871C0.9375 2.53806 1.28815 2.18753 1.71879 2.18753H3.12503V3.28125C3.12503 3.54 3.33503 3.75 3.59378 3.75C3.85253 3.75 4.06253 3.54 4.06253 3.28125V2.18753H10.9375V3.28125C10.9375 3.54 11.1475 3.75 11.4062 3.75ZM4.06253 1.25003H10.9375V0.46875C10.9375 0.209999 11.1475 0 11.4062 0C11.665 0 11.875 0.209999 11.875 0.46875V1.25003H13.2812C14.2294 1.25003 15 2.02056 15 2.96871V5.46878V13.2812C15 14.2293 14.2294 15 13.2812 15H1.71879C0.770645 15 0 14.2293 0 13.2812V5.46878V2.96871C0 2.02056 0.770645 1.25003 1.71879 1.25003H3.12503V0.46875C3.12503 0.209999 3.33503 0 3.59378 0C3.85253 0 4.06253 0.209999 4.06253 0.46875V1.25003ZM14.0625 5.93753H0.9375V13.2812C0.9375 13.7118 1.28815 14.0625 1.71879 14.0625H13.2812C13.7119 14.0625 14.0625 13.7118 14.0625 13.2812V5.93753Z" fill="#CFD2E2"/>
</svg>
