<svg width="14" height="14" viewBox="0 0 14 14" fill="none" xmlns="http://www.w3.org/2000/svg">
<path d="M6.22657 7.00003L0.160187 0.933604C-0.0533943 0.720022 -0.0533943 0.373741 0.160187 0.160186C0.373769 -0.0533681 0.720049 -0.0533955 0.933602 0.160186L7.00001 6.22661L13.0664 0.160186C13.28 -0.0533955 13.6263 -0.0533955 13.8398 0.160186C14.0534 0.373768 14.0534 0.720049 13.8398 0.933604L7.77343 7L13.8398 13.0664C14.0534 13.28 14.0534 13.6263 13.8398 13.8398C13.733 13.9466 13.5931 14 13.4531 14C13.3131 14 13.1732 13.9466 13.0664 13.8398L7.00001 7.77345L0.93363 13.8398C0.826853 13.9466 0.686881 14 0.546908 14C0.406937 14 0.266992 13.9466 0.160187 13.8398C-0.0533943 13.6263 -0.0533943 13.28 0.160187 13.0664L6.22657 7.00003Z" fill="#212121"/>
</svg>
