<svg width="19" height="19" viewBox="0 0 19 19" fill="none" xmlns="http://www.w3.org/2000/svg">
<path d="M9.5 0C4.26185 0 0 4.26148 0 9.5C0 14.7385 4.26185 19 9.5 19C14.7382 19 19 14.7385 19 9.5C19 4.26148 14.7382 0 9.5 0ZM14.7962 6.33175L8.9501 12.9087C8.80614 13.0705 8.60554 13.1538 8.40348 13.1538C8.24308 13.1538 8.08194 13.1012 7.94712 12.9938L4.29327 10.0707C3.97831 9.81898 3.92715 9.35896 4.17927 9.04363C4.43102 8.72831 4.8914 8.67715 5.20637 8.92927L8.31835 11.4186L13.7037 5.36019C13.9712 5.05838 14.4338 5.03135 14.7352 5.29954C15.037 5.5681 15.0644 6.02994 14.7962 6.33175Z" fill="#27AE60"/>
</svg>
