<svg width="14" height="12" viewBox="0 0 14 12" fill="none" xmlns="http://www.w3.org/2000/svg">
<path d="M12.3958 1.2H9.33333V1.05C9.33333 0.471 8.87542 0 8.3125 0H8.16667H5.83333H5.6875C5.12458 0 4.66667 0.471 4.66667 1.05V1.2H1.60417C0.71925 1.2 0 1.9398 0 2.85V10.35C0 11.2602 0.71925 12 1.60417 12H12.3958C13.2807 12 14 11.2602 14 10.35V2.85C14 1.9398 13.2807 1.2 12.3958 1.2ZM8.16725 2.4H5.83333V1.2H8.16667L8.16725 2.4ZM4.375 4.2C5.17883 4.2 5.83333 4.8732 5.83333 5.7C5.83333 6.5268 5.17883 7.2 4.375 7.2C3.57117 7.2 2.91667 6.5268 2.91667 5.7C2.91667 4.8732 3.57117 4.2 4.375 4.2ZM7 9.75C7 9.9984 6.804 10.2 6.5625 10.2H2.1875C1.946 10.2 1.75 9.9984 1.75 9.75V9.45C1.75 8.5398 2.46925 7.8 3.35417 7.8H5.39583C6.28075 7.8 7 8.5398 7 9.45V9.75ZM11.8125 10.2H8.60417C8.36267 10.2 8.16667 9.9984 8.16667 9.75C8.16667 9.5016 8.36267 9.3 8.60417 9.3H11.8125C12.054 9.3 12.25 9.5016 12.25 9.75C12.25 9.9984 12.054 10.2 11.8125 10.2ZM11.8125 7.8H8.60417C8.36267 7.8 8.16667 7.5984 8.16667 7.35C8.16667 7.1016 8.36267 6.9 8.60417 6.9H11.8125C12.054 6.9 12.25 7.1016 12.25 7.35C12.25 7.5984 12.054 7.8 11.8125 7.8ZM11.8125 5.4H8.60417C8.36267 5.4 8.16667 5.1984 8.16667 4.95C8.16667 4.7016 8.36267 4.5 8.60417 4.5H11.8125C12.054 4.5 12.25 4.7016 12.25 4.95C12.25 5.1984 12.054 5.4 11.8125 5.4Z" fill="#CFD2E2"/>
</svg>
