<svg width="13" height="15" viewBox="0 0 13 15" fill="none" xmlns="http://www.w3.org/2000/svg">
<path d="M10.7188 15H2.28125C1.50625 15 0.875 14.3694 0.875 13.5938V7.03125C0.875 6.25562 1.50625 5.625 2.28125 5.625H10.7188C11.4937 5.625 12.125 6.25562 12.125 7.03125V13.5938C12.125 14.3694 11.4937 15 10.7188 15ZM2.28125 6.5625C2.02313 6.5625 1.8125 6.7725 1.8125 7.03125V13.5938C1.8125 13.8525 2.02313 14.0625 2.28125 14.0625H10.7188C10.9769 14.0625 11.1875 13.8525 11.1875 13.5938V7.03125C11.1875 6.7725 10.9769 6.5625 10.7188 6.5625H2.28125Z" fill="#BFBFBF"/>
<path d="M9.78125 6.5625C9.5225 6.5625 9.3125 6.3525 9.3125 6.09375V3.75C9.3125 2.19938 8.05062 0.9375 6.5 0.9375C4.94938 0.9375 3.6875 2.19938 3.6875 3.75V6.09375C3.6875 6.3525 3.4775 6.5625 3.21875 6.5625C2.96 6.5625 2.75 6.3525 2.75 6.09375V3.75C2.75 1.68187 4.43187 0 6.5 0C8.56812 0 10.25 1.68187 10.25 3.75V6.09375C10.25 6.3525 10.04 6.5625 9.78125 6.5625Z" fill="#BFBFBF"/>
<path d="M6.5 10.625C5.81062 10.625 5.25 10.0644 5.25 9.375C5.25 8.68562 5.81062 8.125 6.5 8.125C7.18937 8.125 7.75 8.68562 7.75 9.375C7.75 10.0644 7.18937 10.625 6.5 10.625ZM6.5 9.0625C6.32812 9.0625 6.1875 9.2025 6.1875 9.375C6.1875 9.5475 6.32812 9.6875 6.5 9.6875C6.67187 9.6875 6.8125 9.5475 6.8125 9.375C6.8125 9.2025 6.67187 9.0625 6.5 9.0625Z" fill="#BFBFBF"/>
<path d="M6.5 12.5C6.24125 12.5 6.03125 12.29 6.03125 12.0312V10.3125C6.03125 10.0537 6.24125 9.84375 6.5 9.84375C6.75875 9.84375 6.96875 10.0537 6.96875 10.3125V12.0312C6.96875 12.29 6.75875 12.5 6.5 12.5Z" fill="#BFBFBF"/>
</svg>
