<svg width="17" height="17" viewBox="0 0 17 17" fill="none" xmlns="http://www.w3.org/2000/svg">
<path d="M13.3091 13.7153C15.8612 11.0521 15.7712 6.82424 13.108 4.27212C10.4448 1.72 6.21698 1.81004 3.66486 4.4732C1.18926 7.05655 1.18926 11.1319 3.66486 13.7153L1.92957 16.0286C1.72838 16.2968 1.78274 16.6774 2.05099 16.8786C2.31923 17.0798 2.69983 17.0254 2.90101 16.7572L4.58287 14.5143C6.90954 16.2095 10.0644 16.2095 12.391 14.5143L14.0729 16.7572C14.274 17.0254 14.6546 17.0798 14.9229 16.8786C15.1912 16.6774 15.2455 16.2968 15.0443 16.0286L13.3091 13.7153ZM9.09417 9.10687C9.09417 9.23826 9.05155 9.36608 8.97275 9.47117L7.15125 11.8998C6.95007 12.1681 6.56947 12.2225 6.30123 12.0213C6.03299 11.82 5.97859 11.4395 6.17981 11.1712L7.87988 8.9047V5.46388C7.87988 5.12854 8.15172 4.85671 8.48706 4.85671C8.8224 4.85671 9.09424 5.12854 9.09424 5.46388V9.10687H9.09417Z" fill="#F48122"/>
<path opacity="0.7" fill-rule="evenodd" clip-rule="evenodd" d="M11.8051 0.88886C12.9905 -0.296287 14.9122 -0.296287 16.0977 0.88886C17.2828 2.07436 17.2828 3.99604 16.0977 5.18151C15.8606 5.41855 15.4763 5.41855 15.2392 5.18151L11.8051 1.74738C11.568 1.5103 11.568 1.12597 11.8051 0.88886ZM0.874989 0.942972C2.04555 -0.257437 3.96755 -0.281664 5.16796 0.88886C5.405 1.12598 5.405 1.5103 5.16796 1.74742L1.73323 5.18154C1.49615 5.41859 1.11182 5.41859 0.874704 5.18154C-0.27476 4.00241 -0.274617 2.12193 0.874989 0.942972Z" fill="#F48122"/>
</svg>
