<svg width="14" height="14" viewBox="0 0 14 14" fill="none" xmlns="http://www.w3.org/2000/svg">
<path d="M7 0C3.14005 0 0 3.14005 0 7C0 10.86 3.14005 14 7 14C10.86 14 14 10.86 14 7C14 3.14005 10.86 0 7 0ZM10.0625 7.5833H7.5833V10.0625C7.5833 10.3845 7.32204 10.6458 7 10.6458C6.67796 10.6458 6.4167 10.3845 6.4167 10.0625V7.5833H3.9375C3.61546 7.5833 3.3542 7.32204 3.3542 7C3.3542 6.67796 3.61546 6.4167 3.9375 6.4167H6.4167V3.9375C6.4167 3.61546 6.67796 3.3542 7 3.3542C7.32204 3.3542 7.5833 3.61546 7.5833 3.9375V6.4167H10.0625C10.3845 6.4167 10.6458 6.67796 10.6458 7C10.6458 7.32204 10.3845 7.5833 10.0625 7.5833Z" fill="white"/>
</svg>
