<svg width="18" height="18" viewBox="0 0 18 18" fill="none" xmlns="http://www.w3.org/2000/svg">
<path d="M15.3668 2.63416C11.8552 -0.87675 6.14425 -0.87675 2.6326 2.63416C-0.877533 6.14506 -0.877533 11.8575 2.6326 15.3684C4.38842 17.1235 6.69424 18.0006 9.0001 18.0006C11.306 18.0006 13.611 17.1234 15.3668 15.3684C18.8777 11.8575 18.8777 6.14506 15.3668 2.63416ZM12.7136 11.6541C13.0069 11.9475 13.0069 12.4217 12.7136 12.7151C12.5672 12.8614 12.3752 12.935 12.1831 12.935C11.991 12.935 11.7989 12.8614 11.6525 12.7151L9.00006 10.0619L6.34832 12.7143C6.20126 12.8607 6.00915 12.9342 5.81781 12.9342C5.62573 12.9342 5.43362 12.8607 5.2873 12.7143C4.99392 12.421 4.99392 11.946 5.2873 11.6534L7.93904 9.00088L5.28656 6.3484C4.99318 6.05502 4.99318 5.58005 5.28656 5.28741C5.5792 4.99404 6.05417 4.99404 6.34754 5.28741L9.00002 7.93989L11.6525 5.28741C11.9459 4.99404 12.4201 4.99404 12.7135 5.28741C13.0069 5.58005 13.0069 6.05502 12.7135 6.3484L10.061 9.00088L12.7136 11.6541Z" fill="#E34B94"/>
</svg>
