<svg width="22" height="19" viewBox="0 0 22 19" fill="none" xmlns="http://www.w3.org/2000/svg">
<path fill-rule="evenodd" clip-rule="evenodd" d="M5.55339 4.89518C5.55339 6.14472 4.54044 7.15767 3.2909 7.15767C2.04136 7.15767 1.0284 6.14472 1.0284 4.89518C1.0284 3.64564 2.04136 2.63269 3.2909 2.63269C4.54044 2.63269 5.55339 3.64564 5.55339 4.89518ZM20.0333 4.89518C20.0333 6.14472 19.0204 7.15767 17.7708 7.15767C16.5213 7.15767 15.5084 6.14472 15.5084 4.89518C15.5084 3.64564 16.5213 2.63269 17.7708 2.63269C19.0204 2.63269 20.0333 3.64564 20.0333 4.89518ZM5.52007 9.18943C4.72457 8.53767 3.99612 8.54514 3.11576 8.55417H3.11571C3.01049 8.55525 2.90309 8.55635 2.79315 8.55635C1.25301 8.55635 0 9.80195 0 11.3326V15.8251C0 16.4899 0.542587 17.0304 1.20982 17.0304C1.88625 17.0304 2.38471 17.0333 2.75148 17.0354C3.58707 17.0402 3.7391 17.0411 3.75496 16.9951C3.75849 16.9848 3.75528 16.9723 3.75135 16.9569C3.74769 16.9426 3.7434 16.9258 3.7434 16.9062C3.7434 16.4798 3.73663 16.0687 3.73009 15.6711L3.73009 15.6711C3.68779 13.0999 3.65479 11.0938 5.52007 9.18943ZM17.9465 8.55418C18.0515 8.55523 18.1587 8.55631 18.2686 8.55631C19.8087 8.55631 21.0618 9.80191 21.0618 11.3326V15.7823C21.0618 16.4705 20.4998 17.0304 19.8087 17.0304C17.6372 17.0304 17.3388 17.0629 17.3121 16.9924C17.3046 16.9727 17.3184 16.9449 17.3184 16.9061C17.3184 16.4642 17.3246 16.0428 17.3306 15.6392C17.3701 12.9747 17.3981 11.0848 15.5417 9.18939C16.3367 8.53802 17.062 8.5453 17.9465 8.55418Z" fill="#C1E4A8"/>
<path fill-rule="evenodd" clip-rule="evenodd" d="M14.1096 3.57885C14.1096 5.5554 12.5073 7.1577 10.5308 7.1577C8.55423 7.1577 6.95192 5.5554 6.95192 3.57885C6.95192 1.60231 8.55423 0 10.5308 0C12.5073 0 14.1096 1.60231 14.1096 3.57885ZM6.79973 9.68754C8.14821 8.57447 9.7116 8.42272 11.5102 8.57274C13.5472 8.57274 16.0842 10.6046 16.0842 13.5346C16.0842 16.7346 16.119 17.0665 16.018 17.35C16.0026 17.3933 15.984 17.4354 15.9616 17.4866C15.5472 18.4043 15.2424 18.4019 10.6119 18.3661C9.4893 18.3574 8.11238 18.3467 6.41798 18.3467C5.61829 18.3467 4.97739 17.6938 4.97739 16.9061C4.97739 16.4811 4.96854 16.0671 4.95993 15.6645C4.90824 13.2467 4.86527 11.237 6.79973 9.68754Z" fill="#80BB55"/>
</svg>
