<svg xmlns="http://www.w3.org/2000/svg" viewBox="0 0 1063.7 290.5">
  <g fill="none" stroke="#fff" stroke-miterlimit="10" stroke-width="2" data-name="Group 69">
    <path d="M1 5.6h35l103.5 60c11.6 6.9 20 1.3 20-12v-48h35.7v279.3h-35.7V128.7c0-9.2-3.6-15.3-11.6-20L56.4 55.5c-11.6-6.7-20-1.3-20 12v217.4H1Z" data-name="Path 65"/>
    <path d="M240 5.6h175.8v30h-125c-9.3 0-15.4 5.4-15.4 13.8v25.5c0 8.6 6 14.3 15.4 14.3h125v30.1H292.2c-10.1 0-16.8 6.7-16.8 17v148.6h-35.5Z" data-name="Path 66"/>
    <path d="M486 35.7h-60V5.6h192.4v30h-61.6c-9.7 0-17.1 7.1-17.1 17.2V285h-35.3V54c0-10.6-7.6-18.2-18.5-18.2Z" data-name="Path 67"/>
    <path d="M693.6 191V99c0-58.6 41.8-98 104-98s103.7 39.4 103.7 99.3V122h-35.2v-21.7c0-40-27.6-67.9-68.4-67.9-41 0-68.4 27.9-68.4 69.2v87c0 41.6 27.4 69.4 68.4 69.4 40.8 0 68.4-27.8 68.4-68.2v-21.3h35.2v21.3c0 60.2-41.5 99.7-103.6 99.7-62.3 0-104-39.5-104-98.5ZM926.5 63.9c0-37 27.4-62 68.4-62 40.6 0 67.8 25 67.8 62v52.6c0 37-27.2 61.9-67.8 61.9-41 0-68.4-25-68.4-62Zm68.4 86.7c22 0 36.4-14.7 36.4-36.2v-48c0-21.8-14.5-36.2-36.4-36.2-22.1 0-37 14.2-37 36.2v48c0 21.9 14.9 36.2 37 36.2Zm0 92a23.3 23.3 0 0 1 23.2 22.9 23.4 23.4 0 1 1-46.8 0 23.3 23.3 0 0 1 23.6-22.9Z" data-name="Path 68"/>
  </g>
</svg>
