<svg xmlns="http://www.w3.org/2000/svg" viewBox="0 0 781.7 139.5">
  <g data-name="Group 94">
    <path d="M0 1.9h70.4c17 0 28.9 11.3 28.9 27.6S87.5 57.2 70.4 57.2H51.7c-3.3 0-4.7 1.5-4.7 3.5a6.1 6.1 0 0 0 1.3 3.3L97 138H77L27.4 61.7c-1-1.5-2.6-4.5-5.8-4.5-3.7 0-4.3 3-4.3 5.2V138H0Zm25.8 40.7h41.4c9.2 0 14.8-5.1 14.8-13.1s-5.6-13-14.8-13H25.8c-5.3 0-8.5 2.1-8.5 7.3v11c0 5.7 3.3 7.8 8.5 7.8Z" data-name="Path 93"/>
    <path d="M112.3 1.9h85.6v14.6H137c-4.5 0-7.5 2.6-7.5 6.7v12.4c0 4.2 3 7 7.5 7h61v14.6h-60.2c-5 0-8.2 3.3-8.2 8.3V115c0 5 3.3 8.2 8.2 8.2H198v14.7h-85.6Z" data-name="Path 94"/>
    <path d="m316 1.9-26 114.3c-.7 2.3-1.4 7.6 4.2 7.6h8.7c3.8 0 5.2-3.1 5.8-5.3L337.4 1.9h17.7l-34.7 136h-79.7l-34.8-136h18.6l29 117c.5 2 2 4.9 5.6 4.9h8.7c5 0 5-5.1 4.4-7.6L245.6 2H264l14.5 71c.3 1.5 1 3.3 2.9 3.3 1.7 0 2.5-1.8 2.9-3.3l13.9-71Z" data-name="Path 95"/>
    <path d="M388.2 1.9h27.4l39.6 136H437l-4.9-15.6a9.1 9.1 0 0 0-9-6.8h-42.4a9.3 9.3 0 0 0-9.1 6.8l-4.6 15.6h-17.5Zm-1.2 98.9h29.7c8.3 0 7.6-7.1 7-9.1L404 20.3c-.3-1.4-1-2.5-2.4-2.5s-2 1.1-2.3 2.5L380 91.7c-.6 2-1.3 9 7 9Z" data-name="Path 96"/>
    <path d="M467.9 1.9h70.4c17 0 28.8 11.3 28.8 27.6s-11.8 27.7-28.8 27.7h-18.8c-3.2 0-4.6 1.5-4.6 3.5a6.1 6.1 0 0 0 1.3 3.3l48.5 73.9h-20l-49.5-76.2c-1-1.5-2.6-4.5-5.7-4.5-3.7 0-4.4 3-4.4 5.2V138H468Zm25.7 40.7H535c9.2 0 14.9-5.1 14.9-13.1s-5.7-13-14.9-13h-41.4c-5.2 0-8.5 2.1-8.5 7.3v11c0 5.7 3.4 7.8 8.5 7.8Z" data-name="Path 97"/>
    <path d="M673.7 52.8v33.9c0 30.2-20.6 51.2-50.4 51.2H580V1.9h42c30.7 0 51.7 20.6 51.7 50.9Zm-68.6 70.4h15.6c21.3 0 35.9-15.2 35.9-37.7V54.1c0-22.5-15-37.6-37.2-37.6h-14.3c-4.5 0-7.7 2.8-7.7 6.8v93.1c0 4 3.2 6.8 7.7 6.8Z" data-name="Path 98"/>
    <path d="M686.8 94.8v-6.1h17.3v5.7c0 18.4 12 30 30.8 30 18 0 29.4-9.7 29.5-25.3 0-14.3-9.6-23.1-25.6-23.4l-10.9-.3c-24.7-.5-39.6-13.9-39.6-36.7 0-23.3 18-38.7 45-38.7 28.6 0 46.3 15.6 46.3 40.8v6h-17.3v-5.6c0-15.9-11.4-25.9-29.2-25.9-16.5 0-27.6 9.1-27.6 23 0 12.7 9.3 20.5 25 20.8l10.9.3c25 .5 40.3 15 40.3 38.7 0 25.7-18.2 41.4-47 41.4-29.6 0-47.9-17-47.9-44.7Z" data-name="Path 99"/>
  </g>
</svg>
