<svg xmlns="http://www.w3.org/2000/svg" fill="none" viewBox="0 0 1230 201">
  <path fill="#fff" d="M.7 197h24.6V94.2c0-7.2 4.6-11.8 11.6-11.8h85.5V61.6H36c-6.4 0-10.6-4-10.6-9.9V34.1c0-5.9 4.2-9.5 10.6-9.5h86.5V3.7H.7V197Zm209 3.2c43 0 71.7-27.3 71.7-68.2V68.3C281.4 28 252.7.6 209.7.6c-43.1 0-72 27.3-72 67.7V132c0 40.9 28.9 68.2 72 68.2Zm-47.3-69.8V70.2c0-28.6 19-47.9 47.3-47.9 28.2 0 47.3 19.3 47.3 47.9v60.2c0 28.8-19 48-47.3 48-28.3 0-47.3-19.2-47.3-48ZM374 199.5c40.6 0 67.7-26.9 67.7-67.5V3.7h-24.5v128.4c0 27.6-17.4 45.8-43.2 45.8-25.9 0-43.3-18.2-43.3-45.8V3.7h-24.5V132c0 40.6 27.2 67.5 67.8 67.5Zm97.4-2.5h24.5V46.6c0-9.3 5.8-13 13.9-8.3L573 75c5.6 3.2 8 7.5 8 13.8V197h24.7V3.7h-24.6V37c0 9.2-5.8 13-13.9 8.3L495.7 3.7h-24.3V197ZM696.2 3.7h-59.5V197H698c42.5 0 71.7-29.8 71.7-72.8v-48c0-43-29.9-72.5-73.5-72.5Zm-35 162.8V34.2c0-5.7 4.7-9.6 11-9.6h20.4c31.4 0 52.8 21.4 52.8 53.4v44.6c0 32-20.7 53.6-51 53.6h-22.2c-6.3 0-11-4-11-9.7ZM796 197h121.7v-20.8H832c-7 0-11.6-4.6-11.6-11.6V94.2c0-7.2 4.6-11.8 11.6-11.8h85.6V61.6h-86.5c-6.5 0-10.7-4-10.7-9.9V34.1c0-5.9 4.2-9.5 10.7-9.5h86.5V3.7H796V197Zm146.6 0H967V89.8c0-3.1 1-7.4 6.2-7.4 4.5 0 6.7 4.3 8.2 6.4l70.4 108.2h28.3l-69-105a8.6 8.6 0 0 1-1.8-4.7c0-2.8 2-4.9 6.6-4.9h26.6c24.3 0 41-16.2 41-39.4s-16.7-39.3-41-39.3h-100V197ZM967 50.7V35c0-7.4 4.6-10.4 12.1-10.4h58.8c13 0 21.1 7 21.1 18.4 0 11.4-8 18.6-21 18.6h-58.9c-7.4 0-12.1-3-12.1-11Zm195.6 148.7c40.9 0 66.7-22.4 66.7-59 0-33.7-21.7-54.1-57.3-55l-15.6-.3c-22.1-.4-35.3-11.5-35.3-29.7 0-19.6 15.7-32.6 39.1-32.6 25.3 0 41.6 14.3 41.6 36.8v8h24.5V59c0-35.9-25-58-65.8-58-38.4 0-64 21.9-64 55 0 32.4 21.3 51.4 56.4 52.2l15.5.4c22.7.4 36.4 12.9 36.3 33.2-.2 22.1-16.4 36-41.8 36-27 0-44-16.5-44-42.6V127h-24.4v8.7c0 39.3 26 63.6 68.1 63.6Z"/>
</svg>
