<svg xmlns="http://www.w3.org/2000/svg" width="47.734" height="44.598" viewBox="0 0 47.734 44.598">
  <g id="APhUUb" transform="translate(-1818.518 -159.887)">
    <g id="Group_20" data-name="Group 20">
      <path id="Path_107" data-name="Path 107" d="M1851.77,200.058l.384-.273.061.032.066-.023q4.646,1.291,9.291,2.583c.708.2,1.384.136,1.618-.662.917-3.121,1.782-6.257,2.667-9.387a3.064,3.064,0,0,0-.34-1.526c-.928-2.935-1.881-5.862-2.825-8.792.585-.655,1.183-1.3,1.75-1.972.167-.2.591-.472.135-.738-.877-.511-.171-.764.121-1.122.2-.248.81-.544.537-.747-.947-.7-.694-1.154.1-1.705a.423.423,0,0,0-.073-.685c-.606-.384-.4-.88-.279-1.4.279-1.243.57-2.486.777-3.742.19-1.16.738-2.306.366-3.506-.586-1.891-1.223-3.766-1.862-5.639-.151-.44-.325-.971-1-.608-.249-.015-.484,0-.6.273l.011-.006c-.473-.1-.852.183-1.254.332q-6.423,2.377-12.835,4.786h-12.507c-.84-.324-1.785-.431-2.563-.8-3.4-1.613-7.012-2.667-10.5-4.038-.145-.057-.343.024-.517.04a3.525,3.525,0,0,1-1.246-.673c-.269-.249-.546-.261-.676.193-.7,2.442-2.137,4.733-2.049,7.32a28.03,28.03,0,0,0,1.125,5.836c.231.909.12,1.523-.676,1.958.217.685,2.03.9.47,2.029-.349.252.4.537.584.851.146.255.779.48.375.754-.963.652-.179,1.01.144,1.421.434.553.932,1.057,1.4,1.581-.315,1.007-.657,2.006-.941,3.022a74.868,74.868,0,0,0-2.18,7.3c.655,3.057,1.724,6,2.535,9.011.29,1.079.883,1.27,1.86.994,3.05-.861,6.109-1.691,9.164-2.532l.107-.018.4.275-.022-.006c2.859,2.526,5.7,5.058,9.994,4.295a14.026,14.026,0,0,1,2.383-.021,1.7,1.7,0,0,0,1.022-.2,38.74,38.74,0,0,0,5.525-4.073Z" fill="#fefefd"/>
      <path id="Path_108" data-name="Path 108" d="M1836.076,165.53h12.507a3.232,3.232,0,0,1-.313,1.4c-.724,1.977-1.4,3.969-2.1,5.956l-.225.785c-.257,3.47-.591,6.935-.555,10.42-.159,1.581.495,3.057.625,4.6.016.19.048.982.7.436,1.5-.029,2.831-.754,4.265-1.054l.129.008.129,0c.627,1,.01,2.14.422,3.4.72-1.441,1.377-2.717,2-4.012.451-.941,1.315-1.7,1.3-2.847.031-.374.821-.555.274-1.076-.074-1.135-1.053-1.779-1.471-2.719-.225-.508-.994-.813-.626-1.557l9.555,2.745c.944,2.93,1.9,5.857,2.825,8.792a3.064,3.064,0,0,1,.34,1.526l-8.777.006c-1.567,0-3.135-.012-4.7.007-.438,0-1.013-.2-1.154.51a19.447,19.447,0,0,0-5.046,3.748,1.9,1.9,0,0,0-.235.042,2.052,2.052,0,0,0-1.393-.6c-1.493.061-2.99.028-4.485.015a1.475,1.475,0,0,0-1.374.55,1,1,0,0,1-.212-.01,19.391,19.391,0,0,0-5.043-3.748c-.142-.713-.716-.505-1.154-.51-1.567-.019-3.135-.007-4.7-.006l-8.755-.007a74.868,74.868,0,0,1,2.18-7.3c.284-1.016.626-2.015.941-3.022l9.576-2.737c.385.524-.17.759-.342,1.111-.529,1.086-1.582,1.881-1.755,3.165-.547.522.244.7.275,1.076.6,2.472,2.347,4.365,3.285,6.975.405-1.379-.185-2.519.438-3.519l.706.011a13.108,13.108,0,0,0,3.525,1.035c.521.174,1,.149,1.037-.519.081-1.521.749-2.964.58-4.514.053-3.49-.322-6.957-.564-10.431l-.225-.754a2.939,2.939,0,0,0-.305-1.137C1837.484,169.684,1836.449,167.718,1836.076,165.53Z" fill="#f4841b"/>
      <path id="Path_109" data-name="Path 109" d="M1838.482,172.9q.112.376.226.754c-.534.156-.833.623-1.248.936-2.013,1.516-3.665,3.489-5.938,4.674L1821.946,182c-.47-.524-.968-1.028-1.4-1.581-.323-.411-1.107-.769-.144-1.421.4-.274-.229-.5-.375-.754-.181-.314-.933-.6-.584-.851,1.56-1.13-.253-1.344-.47-2.029.8-.435.907-1.049.676-1.958a28.03,28.03,0,0,1-1.125-5.836c-.088-2.587,1.349-4.878,2.049-7.32.13-.454.407-.442.676-.193a3.525,3.525,0,0,0,1.246.673.791.791,0,0,0,.381.655Q1830.68,167.143,1838.482,172.9Z" fill="#763d16"/>
      <path id="Path_110" data-name="Path 110" d="M1862.692,182.01l-9.555-2.745a6.385,6.385,0,0,1-1.428-.864c-1.9-1.6-3.839-3.158-5.764-4.732q.113-.392.226-.785c3.934-2.9,7.886-5.774,11.793-8.709a26.886,26.886,0,0,0,4.708-3.763l-.011.006a.513.513,0,0,0,.6-.273c.675-.363.849.168,1,.608.639,1.873,1.276,3.748,1.862,5.639.372,1.2-.176,2.346-.366,3.506-.207,1.256-.5,2.5-.777,3.742-.118.521-.327,1.017.279,1.4a.423.423,0,0,1,.073.685c-.793.551-1.046,1-.1,1.705.273.2-.334.5-.537.747-.292.358-1,.611-.121,1.122.456.266.032.54-.135.738C1863.875,180.71,1863.277,181.355,1862.692,182.01Z" fill="#763d16"/>
      <path id="Path_111" data-name="Path 111" d="M1857.08,192.335l8.777-.007c-.885,3.13-1.75,6.266-2.667,9.387-.234.8-.91.858-1.618.662q-4.647-1.288-9.291-2.583c-.021-.071-.043-.141-.066-.211A47.594,47.594,0,0,0,1857.08,192.335Z" fill="#e3761c"/>
      <path id="Path_112" data-name="Path 112" d="M1818.825,192.328l8.755.007a47.647,47.647,0,0,0,4.864,7.248c-.023.072-.043.144-.06.218-3.055.841-6.114,1.671-9.164,2.532-.977.276-1.57.085-1.86-.994C1820.549,198.326,1819.48,195.385,1818.825,192.328Z" fill="#e3761c"/>
      <path id="Path_113" data-name="Path 113" d="M1862.672,160.412a26.886,26.886,0,0,1-4.708,3.763c-3.907,2.935-7.859,5.81-11.793,8.709.695-1.987,1.375-3.979,2.1-5.956a3.232,3.232,0,0,0,.313-1.4q6.417-2.4,12.835-4.786C1861.82,160.6,1862.2,160.31,1862.672,160.412Z" fill="#e2751b"/>
      <path id="Path_114" data-name="Path 114" d="M1838.482,172.9q-7.8-5.759-15.608-11.514a.791.791,0,0,1-.381-.655c.174-.016.372-.1.517-.04,3.491,1.371,7.1,2.425,10.5,4.038.778.369,1.723.476,2.563.8.373,2.188,1.408,4.154,2.1,6.234A2.939,2.939,0,0,1,1838.482,172.9Z" fill="#e2751b"/>
      <path id="Path_115" data-name="Path 115" d="M1851.792,200.052a38.74,38.74,0,0,1-5.525,4.073,1.7,1.7,0,0,1-1.022.2,14.026,14.026,0,0,0-2.383.021c-4.291.763-7.135-1.769-9.994-4.295,1.428.09,2.473,1.1,3.75,1.561,1.58.567,1.572.589,1.606-1.074a66.171,66.171,0,0,1,7.111-.182c.451-.019.709.323,1.085.42-.06,1.007.028,1.5,1.319.961C1849.088,201.18,1850.252,200.143,1851.792,200.052Z" fill="#bdaa9c"/>
      <path id="Path_116" data-name="Path 116" d="M1838.224,200.539c-.034,1.663-.026,1.641-1.606,1.074-1.277-.458-2.322-1.471-3.75-1.561l.022.006-.4-.275-.107.018c.017-.074.037-.146.06-.218a.372.372,0,0,0,.18-.113l5.855-2.871a1,1,0,0,0,.212.01q-.083,1.056-.166,2.112a.244.244,0,0,0-.019.247l-.106.767C1838.085,199.947,1838.241,200.262,1838.224,200.539Z" fill="#d5beaf"/>
      <path id="Path_117" data-name="Path 117" d="M1851.792,200.052c-1.54.091-2.7,1.128-4.053,1.686-1.291.534-1.379.046-1.319-.961l-.184-.757-.08-1.05a.253.253,0,0,0-.022-.248l-.191-2.081a1.9,1.9,0,0,1,.235-.042l5.858,2.872a.363.363,0,0,0,.179.112c.023.07.045.14.066.211l-.066.023-.062-.032-.383.273Z" fill="#d5beaf"/>
      <path id="Path_118" data-name="Path 118" d="M1863.263,160.145a.513.513,0,0,1-.6.273C1862.779,160.143,1863.014,160.13,1863.263,160.145Z" fill="#e2751b"/>
      <path id="Path_119" data-name="Path 119" d="M1832.491,199.783l.4.275Z" fill="#bdaa9c"/>
      <path id="Path_120" data-name="Path 120" d="M1851.77,200.058l.383-.273Z" fill="#bdaa9c"/>
      <path id="Path_121" data-name="Path 121" d="M1831.522,179.265c2.273-1.185,3.925-3.158,5.938-4.674.415-.313.714-.78,1.248-.936.241,3.474.616,6.941.563,10.431l-9.846-.545c.173-1.284,1.226-2.079,1.755-3.165C1831.352,180.024,1831.907,179.789,1831.522,179.265Z" fill="#e3751b"/>
      <path id="Path_122" data-name="Path 122" d="M1845.945,173.669c1.925,1.574,3.861,3.133,5.764,4.732a6.385,6.385,0,0,0,1.428.864c-.368.744.4,1.049.626,1.557.418.94,1.4,1.584,1.471,2.719l-9.844.548C1845.354,180.6,1845.688,177.139,1845.945,173.669Z" fill="#e3751b"/>
      <path id="Path_123" data-name="Path 123" d="M1829.425,183.541l9.846.545c.169,1.55-.5,2.993-.58,4.514-.036.668-.516.693-1.037.519.223-.881-.543-2.731-1.041-2.521-.882.371-1.958.5-2.484,1.486l-.706-.011-3.723-3.456C1829.669,184.242,1828.878,184.063,1829.425,183.541Z" fill="#cc6116"/>
      <path id="Path_124" data-name="Path 124" d="M1845.39,184.089l9.844-.548c.547.521-.243.7-.274,1.076l-3.721,3.461-.129,0-.129-.008c-.768-.892-2.016-.829-2.918-1.466-.242-.171-.42.088-.484.277-.257.76-.943,1.355-.863,2.243-.653.546-.685-.246-.7-.436C1845.885,187.146,1845.231,185.67,1845.39,184.089Z" fill="#cc6116"/>
      <path id="Path_125" data-name="Path 125" d="M1846.156,198.97l.08,1.05c-1.622.006-3.245.042-4.867.007-.993-.022-2.023.236-2.969-.292l.106-.767c.033-.021.1-.05.094-.063a1.206,1.206,0,0,0-.075-.184q.082-1.056.166-2.112a1.475,1.475,0,0,1,1.374-.55c1.5.013,2.992.046,4.485-.015a2.052,2.052,0,0,1,1.393.6q.1,1.041.191,2.081c-.029.026-.087.065-.082.077A1.323,1.323,0,0,0,1846.156,198.97Z" fill="#171716"/>
      <path id="Path_126" data-name="Path 126" d="M1832.624,199.47a.372.372,0,0,1-.18.113,47.647,47.647,0,0,1-4.864-7.248c1.567,0,3.135-.013,4.7.006.438,0,1.012-.2,1.154.51Q1833.03,196.161,1832.624,199.47Z" fill="#cd6116"/>
      <path id="Path_127" data-name="Path 127" d="M1852.215,199.583a.363.363,0,0,1-.179-.112q-.406-3.309-.812-6.62c.141-.713.716-.505,1.154-.51,1.567-.019,3.135-.007,4.7-.007A47.554,47.554,0,0,1,1852.215,199.583Z" fill="#cd6116"/>
      <path id="Path_128" data-name="Path 128" d="M1851.224,192.851q.405,3.311.812,6.62l-5.858-2.872A19.447,19.447,0,0,1,1851.224,192.851Z" fill="#e3751b"/>
      <path id="Path_129" data-name="Path 129" d="M1832.624,199.47q.405-3.309.812-6.619a19.391,19.391,0,0,1,5.043,3.748Z" fill="#e3751b"/>
      <path id="Path_130" data-name="Path 130" d="M1829.7,184.617l3.723,3.456c-.623,1-.033,2.14-.438,3.519C1832.047,188.982,1830.3,187.089,1829.7,184.617Z" fill="#e3751f"/>
      <path id="Path_131" data-name="Path 131" d="M1851.239,188.078l3.721-3.461c.013,1.152-.851,1.906-1.3,2.847-.62,1.295-1.277,2.571-2,4.012C1851.249,190.218,1851.866,189.076,1851.239,188.078Z" fill="#e3751f"/>
      <path id="Path_132" data-name="Path 132" d="M1846.716,189.129c-.08-.888.606-1.483.863-2.243.064-.189.242-.448.484-.277.9.637,2.15.574,2.918,1.466C1849.547,188.375,1848.218,189.1,1846.716,189.129Z" fill="#293645"/>
      <path id="Path_133" data-name="Path 133" d="M1834.129,188.084c.526-.988,1.6-1.115,2.484-1.486.5-.21,1.264,1.64,1.041,2.521A13.108,13.108,0,0,1,1834.129,188.084Z" fill="#293645"/>
      <path id="Path_134" data-name="Path 134" d="M1838.4,199.735c.946.528,1.976.27,2.969.292,1.622.035,3.245,0,4.867-.007l.184.757c-.376-.1-.634-.439-1.085-.42a66.171,66.171,0,0,0-7.111.182C1838.241,200.262,1838.085,199.947,1838.4,199.735Z" fill="#050407"/>
      <path id="Path_135" data-name="Path 135" d="M1838.525,198.721a1.206,1.206,0,0,1,.075.184c0,.013-.061.042-.094.063A.244.244,0,0,1,1838.525,198.721Z" fill="#050407"/>
      <path id="Path_136" data-name="Path 136" d="M1846.156,198.97a1.323,1.323,0,0,1-.1-.171c-.005-.012.053-.051.082-.077A.253.253,0,0,1,1846.156,198.97Z" fill="#050407"/>
    </g>
  </g>
</svg>
