<svg xmlns="http://www.w3.org/2000/svg" width="36" height="36" viewBox="0 0 36 36">
  <g id="Group_35" data-name="Group 35" transform="translate(-1688.376 -27.981)">
    <path id="Path_226" data-name="Path 226" d="M2.979,0,41.826.113a3.009,3.009,0,0,1,3,3,2.967,2.967,0,0,1-2.979,2.979L3,5.976a3.009,3.009,0,0,1-3-3A2.967,2.967,0,0,1,2.979,0Z" transform="translate(1692.682 27.981) rotate(45)" fill="#fff"/>
    <path id="Path_227" data-name="Path 227" d="M3,.113,41.843,0a2.967,2.967,0,0,1,2.979,2.979,3.009,3.009,0,0,1-3,3L2.979,6.089A2.967,2.967,0,0,1,0,3.11,3.009,3.009,0,0,1,3,.113Z" transform="translate(1688.376 59.675) rotate(-45)" fill="#fff"/>
  </g>
</svg>
