<svg xmlns="http://www.w3.org/2000/svg" width="1923" height="240.828" viewBox="0 0 1923 240.828">
  <g id="_2" data-name="2" transform="translate(4 -1185.737)">
    <path id="Path_1" data-name="Path 1" d="M1863.311,1410.31a53.373,53.373,0,0,1-40.517-19.964,42.915,42.915,0,0,1-53.928.281c-9.219,10.6-23.952,17.315-40.425,16.961a53.914,53.914,0,0,1-30.879-10.254,42.956,42.956,0,0,1-62.077,11.915,53.424,53.424,0,0,1-75.283-8.067,42.952,42.952,0,0,1-63.989-11.2,58.221,58.221,0,0,1-24.654-9.055,83.6,83.6,0,0,1-96.981-.148,65.166,65.166,0,0,1-94.173,18.076,81.048,81.048,0,0,1-114.206-12.238,65.159,65.159,0,0,1-97.072-16.985,92.451,92.451,0,0,1-17.454-4.017,38.014,38.014,0,0,1,.466,6.775c-.51,23.811-23.066,42.637-50.382,42.05a53.906,53.906,0,0,1-30.878-10.255,43.007,43.007,0,0,1-33.765,20.25h-5.566A42.75,42.75,0,0,1,908.8,1416.1a53.574,53.574,0,0,1-14.408,8.334H855.951a53.656,53.656,0,0,1-22.432-16.4,42.953,42.953,0,0,1-63.989-11.2,59.417,59.417,0,0,1-19.34-5.945,83.218,83.218,0,0,1-38.173,8.176,81.788,81.788,0,0,1-46.842-15.556A65.167,65.167,0,0,1,571,1401.591,81.047,81.047,0,0,1,456.8,1389.354a65.148,65.148,0,0,1-96.248-15.665,72.367,72.367,0,0,1-28.231,4.955,69.936,69.936,0,0,1-37.656-11.525c-9.442,13.935-26.419,23.05-45.61,22.637a55.419,55.419,0,0,1-30.023-9.459,68.491,68.491,0,0,1-42.346,13.216c-20.015-.43-37.738-9.1-49.426-22.393a55.035,55.035,0,0,1-34.179,10.731c-18.652-.4-34.826-9.706-43.833-23.381a75.57,75.57,0,0,1-29.377-9.753A47.042,47.042,0,0,1-4,1368.495v-78.66q2.083.831,4.061,1.818c9.79-17.484,32.91-29.481,59.627-28.907a82.3,82.3,0,0,1,19.874,2.855c4.489-17.763,22.019-30.792,42.676-30.349a44.517,44.517,0,0,1,32.141,14.308c8.819-15.951,27.032-26.7,47.838-26.249,22.167.476,40.837,13.525,48.127,31.548a56.6,56.6,0,0,1,16.509-2.08,54.322,54.322,0,0,1,39.372,17.608c14.536-17.427,39.1-28.606,66.731-28.013a94.341,94.341,0,0,1,24.731,3.828,53.4,53.4,0,0,1,93.164-21.962,65.236,65.236,0,0,1,119.434,6.962,65.218,65.218,0,0,1,80.434,39.995,84.976,84.976,0,0,1,24.1-2.929c31.873.685,58.73,18.6,69.08,43.264a61.755,61.755,0,0,1,10.658,2.142,35.2,35.2,0,0,1,61.413-14.478,43,43,0,0,1,78.73,4.59,42.99,42.99,0,0,1,53.021,26.364,56.025,56.025,0,0,1,15.885-1.931c1.23.027,2.445.106,3.651.208a55.5,55.5,0,0,1-5.435-25.084c.773-36.121,36.832-64.641,80.54-63.7a94.3,94.3,0,0,1,24.731,3.827,53.4,53.4,0,0,1,93.164-21.962,65.237,65.237,0,0,1,119.435,6.963,65.213,65.213,0,0,1,80.433,39.995,84.976,84.976,0,0,1,24.1-2.93c30.389.653,56.22,16.964,67.53,39.862a62.891,62.891,0,0,1,29.488,1.421,35.2,35.2,0,0,1,61.413-14.477,43,43,0,0,1,78.73,4.589A42.99,42.99,0,0,1,1714.4,1323.3c.878-.239,1.77-.449,2.668-.645,6.992-17.391,27.062-29.694,50.458-29.191a62.175,62.175,0,0,1,16.3,2.523,35.2,35.2,0,0,1,61.412-14.477,42.982,42.982,0,0,1,73.758-4.968v130.052a42.758,42.758,0,0,1-20.923-8.176A53.24,53.24,0,0,1,1863.311,1410.31Z" fill="#aadee6" opacity="0.52" style="mix-blend-mode: overlay;isolation: isolate"/>
    <path id="Path_2" data-name="Path 2" d="M-4,1426.565v-73.073a37.234,37.234,0,0,1,38.835-9.831,37.307,37.307,0,0,1,68.371-2.514,30.541,30.541,0,0,1,53,13.7,53.919,53.919,0,0,1,14.187-1.885c20.3,0,37.48,11.044,43.222,26.259.775.187,1.545.386,2.3.609a37.293,37.293,0,0,1,46.476-21.879,37.307,37.307,0,0,1,68.371-2.513,30.54,30.54,0,0,1,53,13.7,54.573,54.573,0,0,1,25.6-.683c10.235-19.649,32.942-33.315,59.312-33.315a73.742,73.742,0,0,1,20.846,2.99,56.571,56.571,0,0,1,70.505-33.19,56.6,56.6,0,0,1,103.72-3.813,46.331,46.331,0,0,1,80.4,20.785,81.8,81.8,0,0,1,21.521-2.859c37.927,0,68.673,25.409,68.673,56.752a48.157,48.157,0,0,1-5.18,21.655c1.048-.067,2.1-.112,3.171-.112a48.578,48.578,0,0,1,13.742,1.971,37.293,37.293,0,0,1,46.476-21.879,37.307,37.307,0,0,1,68.371-2.513,30.539,30.539,0,0,1,53,13.7,53.5,53.5,0,0,1,9.284-1.658c9.435-21.2,33.061-36.238,60.719-36.238a73.707,73.707,0,0,1,20.846,2.99,56.571,56.571,0,0,1,70.505-33.19,56.595,56.595,0,0,1,103.72-3.813,46.33,46.33,0,0,1,80.4,20.785,81.8,81.8,0,0,1,21.521-2.859c23.973,0,45.074,10.154,57.358,25.54a47.122,47.122,0,0,1,34.476-14.538,49.138,49.138,0,0,1,14.28,2.112c6.657-15.5,23.092-26.466,42.328-26.466,18.054,0,33.651,9.659,41,23.658a38.617,38.617,0,0,1,28.143-11.81c17.924,0,32.888,11.627,36.451,27.118a71.333,71.333,0,0,1,17.291-2.106c23.183,0,43.013,10.837,51.18,26.183a47.778,47.778,0,0,1,20.444-4.509,48.612,48.612,0,0,1,13.742,1.97,37.293,37.293,0,0,1,46.476-21.878,37.307,37.307,0,0,1,68.371-2.513,30.539,30.539,0,0,1,53,13.7,53.892,53.892,0,0,1,13.558-1.874l-.939,57.329Z" fill="#aadee6" opacity="0.8" style="mix-blend-mode: overlay;isolation: isolate"/>
  </g>
</svg>
