<svg xmlns="http://www.w3.org/2000/svg" xmlns:xlink="http://www.w3.org/1999/xlink" width="323.189" height="241.919" viewBox="0 0 323.189 241.919">
  <defs>
    <linearGradient id="linear-gradient" x1="-11.876" y1="1.931" x2="-11.876" y2="4.331" gradientUnits="objectBoundingBox">
      <stop offset="0" stop-color="#6357a4"/>
      <stop offset="0.016" stop-color="#6663ac"/>
      <stop offset="0.048" stop-color="#6b76b8"/>
      <stop offset="0.086" stop-color="#6e83c1"/>
      <stop offset="0.133" stop-color="#708bc6"/>
      <stop offset="0.226" stop-color="#718ec8"/>
      <stop offset="0.431" stop-color="#de559e"/>
      <stop offset="0.608" stop-color="#e282b5"/>
      <stop offset="0.792" stop-color="#f7b0b0"/>
      <stop offset="1" stop-color="#cbe4ba"/>
    </linearGradient>
    <linearGradient id="linear-gradient-2" x1="-25.912" y1="2.703" x2="-25.912" y2="6.609" xlink:href="#linear-gradient"/>
    <linearGradient id="linear-gradient-3" x1="-22.434" y1="2.243" x2="-22.434" y2="5.314" xlink:href="#linear-gradient"/>
    <linearGradient id="linear-gradient-4" x1="-47.197" y1="2.41" x2="-47.197" y2="5.769" xlink:href="#linear-gradient"/>
    <linearGradient id="linear-gradient-5" x1="-28.07" y1="2.604" x2="-28.07" y2="6.596" xlink:href="#linear-gradient"/>
    <linearGradient id="linear-gradient-6" x1="-24.583" y1="2.548" x2="-24.583" y2="6.462" xlink:href="#linear-gradient"/>
    <linearGradient id="linear-gradient-7" x1="-39.786" y1="2.285" x2="-39.786" y2="5.696" xlink:href="#linear-gradient"/>
    <linearGradient id="linear-gradient-8" x1="10.079" y1="-0.351" x2="10.079" y2="2.138" xlink:href="#linear-gradient"/>
    <linearGradient id="linear-gradient-9" x1="12.474" y1="-0.672" x2="12.474" y2="2.569" xlink:href="#linear-gradient"/>
    <linearGradient id="linear-gradient-10" x1="25.845" y1="-0.64" x2="25.845" y2="2.739" xlink:href="#linear-gradient"/>
    <linearGradient id="linear-gradient-11" x1="18.367" y1="-0.871" x2="18.367" y2="3.025" xlink:href="#linear-gradient"/>
    <linearGradient id="linear-gradient-12" x1="16.391" y1="-0.518" x2="16.391" y2="2.55" xlink:href="#linear-gradient"/>
    <linearGradient id="linear-gradient-13" x1="13.565" y1="-0.723" x2="13.565" y2="2.872" xlink:href="#linear-gradient"/>
    <linearGradient id="linear-gradient-14" x1="12.919" y1="-0.648" x2="12.919" y2="2.748" xlink:href="#linear-gradient"/>
    <linearGradient id="linear-gradient-15" x1="-8.414" y1="0.568" x2="-8.436" y2="1.982" xlink:href="#linear-gradient"/>
    <linearGradient id="linear-gradient-16" x1="-10.052" y1="0.573" x2="-10.078" y2="2.109" xlink:href="#linear-gradient"/>
    <linearGradient id="linear-gradient-17" x1="-10.488" y1="0.474" x2="-10.515" y2="2.329" xlink:href="#linear-gradient"/>
    <linearGradient id="linear-gradient-18" x1="-13.091" y1="0.471" x2="-13.124" y2="2.54" xlink:href="#linear-gradient"/>
    <linearGradient id="linear-gradient-19" x1="-10.754" y1="0.503" x2="-10.782" y2="2.852" xlink:href="#linear-gradient"/>
    <linearGradient id="linear-gradient-20" x1="-13.503" y1="0.504" x2="-13.537" y2="3.207" xlink:href="#linear-gradient"/>
    <linearGradient id="linear-gradient-21" x1="-16.918" y1="0.556" x2="-16.961" y2="2.62" xlink:href="#linear-gradient"/>
    <linearGradient id="linear-gradient-22" x1="-24.491" y1="0.563" x2="-24.552" y2="2.896" xlink:href="#linear-gradient"/>
    <linearGradient id="linear-gradient-23" x1="-18.196" y1="0.55" x2="-18.242" y2="2.58" xlink:href="#linear-gradient"/>
    <linearGradient id="linear-gradient-24" x1="-27.177" y1="0.556" x2="-27.245" y2="2.847" xlink:href="#linear-gradient"/>
    <linearGradient id="linear-gradient-25" x1="-11.658" y1="0.543" x2="-11.688" y2="2.468" xlink:href="#linear-gradient"/>
    <linearGradient id="linear-gradient-26" x1="-14.919" y1="0.549" x2="-14.957" y2="2.705" xlink:href="#linear-gradient"/>
    <linearGradient id="linear-gradient-27" x1="-18.748" y1="0.557" x2="-18.795" y2="2.586" xlink:href="#linear-gradient"/>
    <linearGradient id="linear-gradient-28" x1="-28.394" y1="0.564" x2="-28.464" y2="2.852" xlink:href="#linear-gradient"/>
    <linearGradient id="linear-gradient-29" x1="-10.622" y1="0.523" x2="-10.649" y2="2.377" xlink:href="#linear-gradient"/>
    <linearGradient id="linear-gradient-30" x1="-13.288" y1="0.526" x2="-13.321" y2="2.594" xlink:href="#linear-gradient"/>
    <linearGradient id="linear-gradient-31" x1="-8.221" y1="0.504" x2="-8.243" y2="2.554" xlink:href="#linear-gradient"/>
    <linearGradient id="linear-gradient-32" x1="-9.777" y1="0.504" x2="-9.803" y2="2.819" xlink:href="#linear-gradient"/>
  </defs>
  <g id="Group_28" data-name="Group 28" transform="translate(-130.431 -8.172)">
    <g id="Group_23" data-name="Group 23">
      <path id="Path_157" data-name="Path 157" d="M163.359,104.865a11.837,11.837,0,0,1-3.986-1.649,9.577,9.577,0,0,1-4.388-6.443L145.158,32.1c-.792-6.538.748-11.078,4.576-13.492a9.375,9.375,0,0,1,4.143-1.435,10.961,10.961,0,0,1,3.428.241,19.726,19.726,0,0,1,2.405.689c2.342.82,4.778,2.672,7.67,5.828q3.666,4.2,9.374,10.428c3.794,4.144,7.31,7.877,10.451,11.1.819.841,1.5,1.519,2.058,2.066.659-.947,1.519-2.268,2.614-4.1,2.817-4.712,5.682-9.871,8.517-15.336s4.842-9.573,5.989-12.247c2.518-5.786,6.344-7.332,9.113-7.612a10.648,10.648,0,0,1,3.3.18,13.032,13.032,0,0,1,6.816,4.165,20.755,20.755,0,0,1,4.485,8.542A134.549,134.549,0,0,1,232.987,36.9c.769,6.073,1.525,14.426,2.244,24.825.57,8.045,1.179,14.649,1.809,19.622.687,5.407,1.544,7.506,1.994,8.276l.331.567.283,1.613.01.082a8.594,8.594,0,0,1-1.873,6.587,12.212,12.212,0,0,1-8.4,4.165,14.261,14.261,0,0,1-4.4-.194,9.785,9.785,0,0,1-7.239-5.971l-.043-.1-.036-.1c-1.792-5.1-3.248-12.188-4.45-21.673-.919-7.252-1.727-14.767-2.4-22.334-.3-3.526-.619-6.863-.944-9.989q-1.156,1.866-2.422,3.874c-2.5,3.966-4.967,7.522-7.33,10.569-3.065,3.958-5.478,5.9-8.068,6.488l-.437.1-.451.017a8.17,8.17,0,0,1-2.005-.185h0c-2.794-.6-7.215-2.74-18.332-12.891l6.664,43.835.007.072a9.031,9.031,0,0,1-2.372,7.2,11.923,11.923,0,0,1-7.352,3.7l-.183.023A13.641,13.641,0,0,1,163.359,104.865Z" fill="url(#linear-gradient)"/>
      <path id="Path_158" data-name="Path 158" d="M228.9,98.773q-5.314.539-7.087-3.672-2.539-7.226-4.278-20.946-1.375-10.854-2.388-22.2-.9-10.446-1.92-18.512l-.533-3.878q-.9,1.35-2.694,4.358-2.676,4.508-6.338,10.319T196.541,54.5q-3.45,4.454-5.568,4.935-4.847.184-24.729-19.18l-1.56-1.522,8.481,55.793a5.4,5.4,0,0,1-1.43,4.383,7.394,7.394,0,0,1-4.642,2.3,7.762,7.762,0,0,1-5.164-1.137,5.711,5.711,0,0,1-2.652-3.912l-9.8-64.479q-.918-7.581,2.761-9.9a4.785,4.785,0,0,1,2.127-.749,9.3,9.3,0,0,1,3.761.688q2.368.831,5.888,4.672,3.646,4.175,9.374,10.428t10.539,11.187q4.812,4.935,5.731,5.108,1.752-.672,6.051-7.866t8.626-15.533q4.324-8.34,6.1-12.49,2.085-4.791,5.542-5.142,3.248-.329,6.27,2.954a16.966,16.966,0,0,1,3.62,7,130.349,130.349,0,0,1,2.794,15.292q1.146,9.048,2.225,24.628.867,12.243,1.828,19.819.881,6.935,2.461,9.638l.157.9a4.98,4.98,0,0,1-1.088,3.889A7.67,7.67,0,0,1,228.9,98.773Z" fill="#fff"/>
      <path id="Path_159" data-name="Path 159" d="M244.956,92.566c-3.565-.762-6.738-2.962-9.43-6.537a16.715,16.715,0,0,1-3.146-9.487,24.5,24.5,0,0,1,5.107-16.347,26.315,26.315,0,0,1,4.461-4.587,6.4,6.4,0,0,1-1.926-4.313,6.552,6.552,0,0,1,.663-3.129l.209-.438.321-.379c5.369-6.353,9.979-10.241,14.092-11.889a16.064,16.064,0,0,1,5.311-1.187,10.739,10.739,0,0,1,2.618.232,12.789,12.789,0,0,1,5.706,2.981c2.3,2,4.049,5.195,5.336,9.758a68.812,68.812,0,0,1,2.309,15.639,112.022,112.022,0,0,1-.1,11.64,64.761,64.761,0,0,1-1.182,9.586,9.224,9.224,0,0,1-3.9,7.12,12.442,12.442,0,0,1-6.958,2.312c-.129,0-.753,0-1.871-.017a8.013,8.013,0,0,1-1.552-.181,10.114,10.114,0,0,1-2.527-.926,26.492,26.492,0,0,1-6.037.937,33.751,33.751,0,0,1-7.16-.719Z" fill="url(#linear-gradient-2)"/>
      <path id="Path_160" data-name="Path 160" d="M264.28,89.66q-.171.006-1.616-.019a6.559,6.559,0,0,1-3.509-1.548,22.567,22.567,0,0,1-6.864,1.38,29.664,29.664,0,0,1-6.1-.64q-3.855-.719-7.057-4.973a13.127,13.127,0,0,1-2.409-7.47,20.894,20.894,0,0,1,4.355-14.008,21.9,21.9,0,0,1,7.912-6.5,18.488,18.488,0,0,1,7.439-1.817,22.864,22.864,0,0,1,2.594.061q-.507-3.816-2.373-4.7a1.908,1.908,0,0,0-.856-.16q-1.781.063-4.752,3.014a3.355,3.355,0,0,1-3.063,1.854,3.74,3.74,0,0,1-1.541-.287,2.949,2.949,0,0,1-1.755-4.153q7.31-8.646,12.4-10.685a11.253,11.253,0,0,1,3.7-.851,7.417,7.417,0,0,1,5.127,2.117q2.538,2.208,4.15,7.922a65.013,65.013,0,0,1,2.181,14.842,108.067,108.067,0,0,1-.1,11.278,60.622,60.622,0,0,1-1.164,9.3,5.578,5.578,0,0,1-2.263,4.559A7.88,7.88,0,0,1,264.28,89.66Zm-9.313-7a6.778,6.778,0,0,0,2.1-.453l.419-3.014a168.96,168.96,0,0,0,1.82-18.551l-.424.014a5.358,5.358,0,0,0-4.169,2.31,16.307,16.307,0,0,0-2.633,5.332A26.769,26.769,0,0,0,250.6,77a7.543,7.543,0,0,0,1.244,4.151A3.469,3.469,0,0,0,254.967,82.66Z" fill="#fff"/>
      <path id="Path_161" data-name="Path 161" d="M296.505,99.509q-.747-.159-1.522-.358l-.21-.06a7.742,7.742,0,0,1-4.478-3.364,6.476,6.476,0,0,1-.93-3.364,6.82,6.82,0,0,1,4.118-6.126,8.792,8.792,0,0,1,3.105-.819h-.427a20.115,20.115,0,0,1-4.018-.455,26.983,26.983,0,0,1-5.573-1.895,22.789,22.789,0,0,1-9.234-8.415,34.676,34.676,0,0,1-5.677-19.266,39.453,39.453,0,0,1,1.164-8.367,21.457,21.457,0,0,1,6.325-10.45c3.514-3.412,8.311-5.489,14.261-6.173a20.5,20.5,0,0,1,2.459-.131c.6.006,1.212.036,1.816.093a9.913,9.913,0,0,1,4.332-3.945,13.15,13.15,0,0,1,6.007-1.4,13.708,13.708,0,0,1,2.768.34c.646.138,1.362.324,2.128.552,3.07.917,5.119,3.4,6.091,7.378l.032.146a210.939,210.939,0,0,1,3.46,24.909c.284,3.286.413,6.6.38,9.827-.019,1.923-.138,4.541-.363,8a39.114,39.114,0,0,1-2.812,11.784A19.268,19.268,0,0,1,310.922,98.2a17.415,17.415,0,0,1-8.631,1.988A28.916,28.916,0,0,1,296.505,99.509Zm1.7-14.162c-.285.022-.569.039-.854.051.269,0,.54.021.809.049C298.178,85.416,298.193,85.383,298.208,85.347Zm-.372-40.03c-2.182,1.427-3.335,4.42-3.379,8.89a33.024,33.024,0,0,0,.736,6.232,20.623,20.623,0,0,0,3.026,7.211,10.26,10.26,0,0,0,1.46,1.829A242.15,242.15,0,0,0,297.836,45.317Z" fill="url(#linear-gradient-3)"/>
      <path id="Path_162" data-name="Path 162" d="M302.331,96.3a25.678,25.678,0,0,1-6.145-.884,3.5,3.5,0,0,1-2.065-1.534,2.882,2.882,0,0,1-.41-1.483,2.948,2.948,0,0,1,1.854-2.755,3.847,3.847,0,0,1,1.659-.365,4.094,4.094,0,0,1,.975.121,3.574,3.574,0,0,0,.848.121q3.693.03,4.637-9.37a20.642,20.642,0,0,1-7.484,1.381,18.23,18.23,0,0,1-15.129-8.867,30.144,30.144,0,0,1-4.533-11.284,30.453,30.453,0,0,1-.533-5.96,36.436,36.436,0,0,1,1.074-7.616,17.7,17.7,0,0,1,5.267-8.607q4.223-4.1,11.617-4.95a15.394,15.394,0,0,1,1.868-.1,16.749,16.749,0,0,1,4.959.8,5.685,5.685,0,0,1,3.321-5.133,8.448,8.448,0,0,1,3.872-.916,13.82,13.82,0,0,1,3.558.693q2.285.681,3.222,4.521a206.347,206.347,0,0,1,3.4,24.495q.417,4.821.37,9.524-.029,2.771-.356,7.812a35.49,35.49,0,0,1-2.571,10.715,15.31,15.31,0,0,1-6.938,8.213A12.735,12.735,0,0,1,302.331,96.3Zm-1.3-21.975a4.035,4.035,0,0,0,3.031-1.682,238.808,238.808,0,0,0-2.2-30.138,6.58,6.58,0,0,0-3.637-1.357,4.3,4.3,0,0,0-1.914.44q-6.1,3.062-6.2,12.582a36.269,36.269,0,0,0,.8,6.929,24.117,24.117,0,0,0,3.543,8.488q2.717,4.215,6.276,4.736Z" fill="#fff"/>
      <path id="Path_163" data-name="Path 163" d="M328.132,96.51a6.883,6.883,0,0,1-4.922-4.042,9.014,9.014,0,0,1-.684-4.256l.1-1.067c.052-.5.091-1.016.12-1.58a77.265,77.265,0,0,0-.255-8.7c-.274-3.853-.71-8.022-1.292-12.391s-1.118-7.69-1.6-9.906a17.859,17.859,0,0,1-.438-4.652,11.294,11.294,0,0,1,1.767-5.394,8.731,8.731,0,0,1,.5-.725,9,9,0,0,1,.676-12.816,10.636,10.636,0,0,1,7.777-2.783,11.72,11.72,0,0,1,1.962.245,10.158,10.158,0,0,1,5.489,3.14,8.807,8.807,0,0,1,2.432,6.522,8.942,8.942,0,0,1-1.858,5.037,12.407,12.407,0,0,1,3.29,4.888l.058.16a47.009,47.009,0,0,1,2.46,17.531,61.443,61.443,0,0,1-1.865,11.928c-3.582,14.149-5.776,16.516-7.717,17.727a8.266,8.266,0,0,1-4.718,1.3A7.745,7.745,0,0,1,328.132,96.51Z" fill="url(#linear-gradient-4)"/>
      <path id="Path_164" data-name="Path 164" d="M329.118,43.293a5.784,5.784,0,0,1-4.219-1.842,5.423,5.423,0,0,1,.331-7.771,6.008,6.008,0,0,1,4.458-1.6,5.882,5.882,0,0,1,4.277,1.959,5.163,5.163,0,0,1,1.46,3.894,5.416,5.416,0,0,1-1.9,3.873A5.978,5.978,0,0,1,329.118,43.293Zm.5,49.5a2.631,2.631,0,0,1-2.375-1.767,5.688,5.688,0,0,1-.375-2.636l.088-.907q.082-.8.131-1.742a79.717,79.717,0,0,0-.259-9.124q-.422-5.9-1.314-12.6t-1.648-10.186a14.31,14.31,0,0,1-.363-3.736,7.725,7.725,0,0,1,1.228-3.69,5.177,5.177,0,0,1,3.708-2.3,6.877,6.877,0,0,1,1.579-.126,8.816,8.816,0,0,1,3.825,1.219,7.617,7.617,0,0,1,3.253,4.119,43.339,43.339,0,0,1,2.278,16.23,57.707,57.707,0,0,1-1.762,11.245q-3.51,13.867-5.966,15.4A3.61,3.61,0,0,1,329.619,92.791Z" fill="#fff"/>
      <path id="Path_165" data-name="Path 165" d="M355.448,98.444q-.986-.211-2.322-.539c-3.153-.774-6.169-3.017-9.223-6.857A28.1,28.1,0,0,1,338.345,78.5a29.158,29.158,0,0,1-.375-7.676,41.824,41.824,0,0,1,1.915-8.678c1.225-3.939,4.058-7.839,8.66-11.921,4.542-4.03,10.847-7.022,18.738-8.894l.126-.028a14.7,14.7,0,0,1,4.017-.329,10.9,10.9,0,0,1,1.543.212,8.814,8.814,0,0,1,2.707,1.049,5.781,5.781,0,0,1,3.285,5.529,8.715,8.715,0,0,1-.62,2.277c-.845,2.284-3.381,3.6-6.93,4.869a11.9,11.9,0,0,0-5.661,4.261,23.4,23.4,0,0,0-4.384,12.225,33.122,33.122,0,0,0,.088,5.27,9.716,9.716,0,0,0,1.683,4.733c.531.8.928.887,1.077.919.055.011.115.021.179.028l.51.008c.923-.021,1.794,0,2.591.048a16.509,16.509,0,0,1,2.329.311c3.5.748,4.95,2.567,5.553,3.961a5,5,0,0,1,.426,2.5c-.292,3.5-4.061,5.787-5.3,6.54l-.139.081a21.88,21.88,0,0,1-12.161,3.1A19.941,19.941,0,0,1,355.448,98.444Z" fill="url(#linear-gradient-5)"/>
      <path id="Path_166" data-name="Path 166" d="M358.526,95.013a31.36,31.36,0,0,1-4.249-.854q-3.192-.783-6.831-5.361a24.354,24.354,0,0,1-4.812-10.934,25.521,25.521,0,0,1-.33-6.755,38.976,38.976,0,0,1,1.768-7.927q1.514-4.863,7.536-10.206t16.79-7.9a10.017,10.017,0,0,1,2.7-.237,4.7,4.7,0,0,1,2.2.641,2.068,2.068,0,0,1,1.325,1.99,7.1,7.1,0,0,1-.411,1.342q-.384,1.039-4.42,2.482a16.216,16.216,0,0,0-7.672,5.727A26.844,26.844,0,0,0,357.032,71.1a36.221,36.221,0,0,0,.087,5.845,13.369,13.369,0,0,0,2.292,6.447,5.915,5.915,0,0,0,4.744,2.827l.765.014q1.236-.033,2.252.035,3.473.233,4.15,1.8a1.6,1.6,0,0,1,.145.809q-.135,1.625-3.408,3.614A17.2,17.2,0,0,1,358.526,95.013Z" fill="#fff"/>
      <path id="Path_167" data-name="Path 167" d="M385.723,97.108a43.289,43.289,0,0,1-4.627-1.3c-3.546-1.185-6.42-3.828-8.541-7.855a16.349,16.349,0,0,1-1.5-9.8,25.37,25.37,0,0,1,7.82-15.47,27.833,27.833,0,0,1,5.188-3.929,6.207,6.207,0,0,1-1.172-4.521,6.716,6.716,0,0,1,1.183-3l.283-.407.382-.333c6.386-5.552,11.6-8.771,15.947-9.842a16.313,16.313,0,0,1,5.446-.455,10.731,10.731,0,0,1,1.147.179,11.743,11.743,0,0,1,6.54,4.125c1.937,2.292,3.121,5.683,3.619,10.367a68.372,68.372,0,0,1-.369,15.771,112.663,112.663,0,0,1-2.077,11.494,65.906,65.906,0,0,1-2.794,9.314,9.635,9.635,0,0,1-5.058,6.508,12.741,12.741,0,0,1-7.268,1.345c-.149-.015-.759-.1-1.847-.27-.139-.022-.285-.049-.431-.08a9.111,9.111,0,0,1-3.413-1.568,26.681,26.681,0,0,1-6.127.109A21.637,21.637,0,0,1,385.723,97.108Z" fill="url(#linear-gradient-6)"/>
      <path id="Path_168" data-name="Path 168" d="M400.36,95.435q-.169-.018-1.593-.238a6.3,6.3,0,0,1-3.206-2,22.909,22.909,0,0,1-7.018.434,29.08,29.08,0,0,1-5.924-1.459q-3.687-1.233-6.132-5.871a12.854,12.854,0,0,1-1.115-7.71,21.625,21.625,0,0,1,6.681-13.257,22.959,22.959,0,0,1,8.924-5.357,18.815,18.815,0,0,1,7.661-.788,22.463,22.463,0,0,1,2.553.411q.147-3.84-1.548-4.967a1.861,1.861,0,0,0-.819-.274q-1.771-.18-5.209,2.336a3.484,3.484,0,0,1-3.342,1.417,3.643,3.643,0,0,1-1.474-.493,2.9,2.9,0,0,1-1.592-2.948,3.126,3.126,0,0,1,.561-1.394q8.691-7.555,14.072-8.882a11.414,11.414,0,0,1,3.8-.34,7.134,7.134,0,0,1,4.708,2.787q2.135,2.527,2.759,8.393a64.581,64.581,0,0,1-.362,14.966,108.552,108.552,0,0,1-2.011,11.134,61.951,61.951,0,0,1-2.728,9.039,5.82,5.82,0,0,1-3.009,4.2A8.075,8.075,0,0,1,400.36,95.435Zm-8.018-8.181a6.851,6.851,0,0,0,2.157-.163l.926-2.922a172.078,172.078,0,0,0,4.944-18.091l-.422-.043a5.551,5.551,0,0,0-4.511,1.719,17.011,17.011,0,0,0-3.507,4.913,27.471,27.471,0,0,0-2.947,8.4,7.392,7.392,0,0,0,.527,4.273A3.332,3.332,0,0,0,392.342,87.254Z" fill="#fff"/>
      <path id="Path_169" data-name="Path 169" d="M418.383,102.664a22.342,22.342,0,0,1-3.7-1.132c-2.082-.843-4.6-2.868-4.765-7.732l0-.138c.044-8.131,1.129-18.775,3.224-31.637,1.116-6.86,2.3-12.93,3.5-18.04a9.835,9.835,0,0,1,5.476-6.8,12.669,12.669,0,0,1,7.184-1.1c.193.025.843.136,1.953.338l.229.045a10.051,10.051,0,0,1,5.4,3.457,8.88,8.88,0,0,1,2.07,7.589l-.115.713-.12.322c-2.856,7.724-5.163,14.946-6.855,21.465-1.464,5.646-3.024,12.2-4.648,19.534l.526.089.2.041c5.885,1.259,7.458,4.931,6.966,7.947a7.34,7.34,0,0,1-2.008,3.751c-.907.992-3,2.6-6.872,2.236l-.149-.014-1.545-.241c-.593-.075-1.184-.131-1.756-.164-.807-.047-1.578-.117-2.282-.208C419.647,102.907,419.005,102.8,418.383,102.664Z" fill="url(#linear-gradient-7)"/>
      <path id="Path_170" data-name="Path 170" d="M420.917,99.147a17.976,17.976,0,0,1-4.444-1.153q-2.094-.848-2.214-4.314.063-11.988,3.177-31.1,1.664-10.209,3.457-17.8a5.869,5.869,0,0,1,3.206-4.145,7.99,7.99,0,0,1,4.575-.708c.169.022.738.122,1.711.3a5.849,5.849,0,0,1,3.087,2.107,5.32,5.32,0,0,1,1.178,4.619l-.061.375q-4.368,11.814-6.962,21.806T422.1,92.67l4.679.761q4.276.864,3.825,3.641a3.861,3.861,0,0,1-1.074,1.854,3.5,3.5,0,0,1-3.053.829l-1.463-.228c-.728-.1-1.448-.163-2.155-.2S421.506,99.223,420.917,99.147Z" fill="#fff"/>
      <path id="Path_171" data-name="Path 171" d="M228.9,98.773q-5.314.539-7.087-3.672-2.539-7.226-4.278-20.946-1.375-10.854-2.388-22.2-.9-10.446-1.92-18.512l-.533-3.878q-.9,1.35-2.694,4.358-2.676,4.508-6.338,10.319T196.541,54.5q-3.45,4.454-5.568,4.935-4.847.184-24.729-19.18l-1.56-1.522,8.481,55.793a5.4,5.4,0,0,1-1.43,4.383,7.394,7.394,0,0,1-4.642,2.3,7.762,7.762,0,0,1-5.164-1.137,5.711,5.711,0,0,1-2.652-3.912l-9.8-64.479q-.918-7.581,2.761-9.9a4.785,4.785,0,0,1,2.127-.749,9.3,9.3,0,0,1,3.761.688q2.368.831,5.888,4.672,3.646,4.175,9.374,10.428t10.539,11.187q4.812,4.935,5.731,5.108,1.752-.672,6.051-7.866t8.626-15.533q4.324-8.34,6.1-12.49,2.085-4.791,5.542-5.142,3.248-.329,6.27,2.954a16.966,16.966,0,0,1,3.62,7,130.349,130.349,0,0,1,2.794,15.292q1.146,9.048,2.225,24.628.867,12.243,1.828,19.819.881,6.935,2.461,9.638l.157.9a4.98,4.98,0,0,1-1.088,3.889A7.67,7.67,0,0,1,228.9,98.773Z" fill="#fff"/>
      <path id="Path_172" data-name="Path 172" d="M264.28,89.66q-.171.006-1.616-.019a6.559,6.559,0,0,1-3.509-1.548,22.567,22.567,0,0,1-6.864,1.38,29.664,29.664,0,0,1-6.1-.64q-3.855-.719-7.057-4.973a13.127,13.127,0,0,1-2.409-7.47,20.894,20.894,0,0,1,4.355-14.008,21.9,21.9,0,0,1,7.912-6.5,18.488,18.488,0,0,1,7.439-1.817,22.864,22.864,0,0,1,2.594.061q-.507-3.816-2.373-4.7a1.908,1.908,0,0,0-.856-.16q-1.781.063-4.752,3.014a3.355,3.355,0,0,1-3.063,1.854,3.74,3.74,0,0,1-1.541-.287,2.949,2.949,0,0,1-1.755-4.153q7.31-8.646,12.4-10.685a11.253,11.253,0,0,1,3.7-.851,7.417,7.417,0,0,1,5.127,2.117q2.538,2.208,4.15,7.922a65.013,65.013,0,0,1,2.181,14.842,108.067,108.067,0,0,1-.1,11.278,60.622,60.622,0,0,1-1.164,9.3,5.578,5.578,0,0,1-2.263,4.559A7.88,7.88,0,0,1,264.28,89.66Zm-9.313-7a6.778,6.778,0,0,0,2.1-.453l.419-3.014a168.96,168.96,0,0,0,1.82-18.551l-.424.014a5.358,5.358,0,0,0-4.169,2.31,16.307,16.307,0,0,0-2.633,5.332A26.769,26.769,0,0,0,250.6,77a7.543,7.543,0,0,0,1.244,4.151A3.469,3.469,0,0,0,254.967,82.66Z" fill="#fff"/>
      <path id="Path_173" data-name="Path 173" d="M302.331,96.3a25.678,25.678,0,0,1-6.145-.884,3.5,3.5,0,0,1-2.065-1.534,2.882,2.882,0,0,1-.41-1.483,2.948,2.948,0,0,1,1.854-2.755,3.847,3.847,0,0,1,1.659-.365,4.094,4.094,0,0,1,.975.121,3.574,3.574,0,0,0,.848.121q3.693.03,4.637-9.37a20.642,20.642,0,0,1-7.484,1.381,18.23,18.23,0,0,1-15.129-8.867,30.144,30.144,0,0,1-4.533-11.284,30.453,30.453,0,0,1-.533-5.96,36.436,36.436,0,0,1,1.074-7.616,17.7,17.7,0,0,1,5.267-8.607q4.223-4.1,11.617-4.95a15.394,15.394,0,0,1,1.868-.1,16.749,16.749,0,0,1,4.959.8,5.685,5.685,0,0,1,3.321-5.133,8.448,8.448,0,0,1,3.872-.916,13.82,13.82,0,0,1,3.558.693q2.285.681,3.222,4.521a206.347,206.347,0,0,1,3.4,24.495q.417,4.821.37,9.524-.029,2.771-.356,7.812a35.49,35.49,0,0,1-2.571,10.715,15.31,15.31,0,0,1-6.938,8.213A12.735,12.735,0,0,1,302.331,96.3Zm-1.3-21.975a4.035,4.035,0,0,0,3.031-1.682,238.808,238.808,0,0,0-2.2-30.138,6.58,6.58,0,0,0-3.637-1.357,4.3,4.3,0,0,0-1.914.44q-6.1,3.062-6.2,12.582a36.269,36.269,0,0,0,.8,6.929,24.117,24.117,0,0,0,3.543,8.488q2.717,4.215,6.276,4.736Z" fill="#fff"/>
      <path id="Path_174" data-name="Path 174" d="M329.118,43.293a5.784,5.784,0,0,1-4.219-1.842,5.423,5.423,0,0,1,.331-7.771,6.008,6.008,0,0,1,4.458-1.6,5.882,5.882,0,0,1,4.277,1.959,5.163,5.163,0,0,1,1.46,3.894,5.416,5.416,0,0,1-1.9,3.873A5.978,5.978,0,0,1,329.118,43.293Zm.5,49.5a2.631,2.631,0,0,1-2.375-1.767,5.688,5.688,0,0,1-.375-2.636l.088-.907q.082-.8.131-1.742a79.717,79.717,0,0,0-.259-9.124q-.422-5.9-1.314-12.6t-1.648-10.186a14.31,14.31,0,0,1-.363-3.736,7.725,7.725,0,0,1,1.228-3.69,5.177,5.177,0,0,1,3.708-2.3,6.877,6.877,0,0,1,1.579-.126,8.816,8.816,0,0,1,3.825,1.219,7.617,7.617,0,0,1,3.253,4.119,43.339,43.339,0,0,1,2.278,16.23,57.707,57.707,0,0,1-1.762,11.245q-3.51,13.867-5.966,15.4A3.61,3.61,0,0,1,329.619,92.791Z" fill="#fff"/>
      <path id="Path_175" data-name="Path 175" d="M358.526,95.013a31.36,31.36,0,0,1-4.249-.854q-3.192-.783-6.831-5.361a24.354,24.354,0,0,1-4.812-10.934,25.521,25.521,0,0,1-.33-6.755,38.976,38.976,0,0,1,1.768-7.927q1.514-4.863,7.536-10.206t16.79-7.9a10.017,10.017,0,0,1,2.7-.237,4.7,4.7,0,0,1,2.2.641,2.068,2.068,0,0,1,1.325,1.99,7.1,7.1,0,0,1-.411,1.342q-.384,1.039-4.42,2.482a16.216,16.216,0,0,0-7.672,5.727A26.844,26.844,0,0,0,357.032,71.1a36.221,36.221,0,0,0,.087,5.845,13.369,13.369,0,0,0,2.292,6.447,5.915,5.915,0,0,0,4.744,2.827l.765.014q1.236-.033,2.252.035,3.473.233,4.15,1.8a1.6,1.6,0,0,1,.145.809q-.135,1.625-3.408,3.614A17.2,17.2,0,0,1,358.526,95.013Z" fill="#fff"/>
      <path id="Path_176" data-name="Path 176" d="M400.36,95.435q-.169-.018-1.593-.238a6.3,6.3,0,0,1-3.206-2,22.909,22.909,0,0,1-7.018.434,29.08,29.08,0,0,1-5.924-1.459q-3.687-1.233-6.132-5.871a12.854,12.854,0,0,1-1.115-7.71,21.625,21.625,0,0,1,6.681-13.257,22.959,22.959,0,0,1,8.924-5.357,18.815,18.815,0,0,1,7.661-.788,22.463,22.463,0,0,1,2.553.411q.147-3.84-1.548-4.967a1.861,1.861,0,0,0-.819-.274q-1.771-.18-5.209,2.336a3.484,3.484,0,0,1-3.342,1.417,3.643,3.643,0,0,1-1.474-.493,2.9,2.9,0,0,1-1.592-2.948,3.126,3.126,0,0,1,.561-1.394q8.691-7.555,14.072-8.882a11.414,11.414,0,0,1,3.8-.34,7.134,7.134,0,0,1,4.708,2.787q2.135,2.527,2.759,8.393a64.581,64.581,0,0,1-.362,14.966,108.552,108.552,0,0,1-2.011,11.134,61.951,61.951,0,0,1-2.728,9.039,5.82,5.82,0,0,1-3.009,4.2A8.075,8.075,0,0,1,400.36,95.435Zm-8.018-8.181a6.851,6.851,0,0,0,2.157-.163l.926-2.922a172.078,172.078,0,0,0,4.944-18.091l-.422-.043a5.551,5.551,0,0,0-4.511,1.719,17.011,17.011,0,0,0-3.507,4.913,27.471,27.471,0,0,0-2.947,8.4,7.392,7.392,0,0,0,.527,4.273A3.332,3.332,0,0,0,392.342,87.254Z" fill="#fff"/>
      <path id="Path_177" data-name="Path 177" d="M420.917,99.147a17.976,17.976,0,0,1-4.444-1.153q-2.094-.848-2.214-4.314.063-11.988,3.177-31.1,1.664-10.209,3.457-17.8a5.869,5.869,0,0,1,3.206-4.145,7.99,7.99,0,0,1,4.575-.708c.169.022.738.122,1.711.3a5.849,5.849,0,0,1,3.087,2.107,5.32,5.32,0,0,1,1.178,4.619l-.061.375q-4.368,11.814-6.962,21.806T422.1,92.67l4.679.761q4.276.864,3.825,3.641a3.861,3.861,0,0,1-1.074,1.854,3.5,3.5,0,0,1-3.053.829l-1.463-.228c-.728-.1-1.448-.163-2.155-.2S421.506,99.223,420.917,99.147Z" fill="#fff"/>
    </g>
    <g id="Group_24" data-name="Group 24">
      <path id="Path_178" data-name="Path 178" d="M197.194,179.124a17.652,17.652,0,0,1-2.369.124,18.262,18.262,0,0,1-11.036-3.719,19.012,19.012,0,0,1-6.4,2.229l-.517.07c-12.394,1.516-22.278-5-29.377-19.374-4.618-9.336-8.215-21.2-10.685-35.258-1.1-6.285-1.994-12.342-2.644-18a9.062,9.062,0,0,1,2.824-7.907,11.95,11.95,0,0,1,6.641-3.094l.131-.017c.189-.023.756-.083,1.7-.178a10.8,10.8,0,0,1,6.572,1.758,9.647,9.647,0,0,1,4.67,6.945,22.915,22.915,0,0,1,.275,2.355c1.087,8.9,2.133,16.233,3.109,21.783.4,2.3,1.026,5.554,1.852,9.681a119.657,119.657,0,0,0,3.688,13.611,40.312,40.312,0,0,0,5.461,11.385c1.442,1.941,2.53,2.36,3.2,2.422.5-.717,1.893-3.626,1.428-13.435a214.191,214.191,0,0,0-3.223-26.48c-.269-1.531-.722-3.911-1.386-7.276-.643-3.264-1.391-6.744-2.222-10.345-1.015-4.4-1.5-6.124-1.719-6.8l-.054-.161-.245-1.071-.016-.088a8.978,8.978,0,0,1,1.686-7.141,11.817,11.817,0,0,1,7.993-4.37l.217-.029a13.25,13.25,0,0,1,6.569.919,9.922,9.922,0,0,1,5.671,6.151l.048.139c.8,2.487,1.741,6.264,2.877,11.545.464,2.143.91,4.427,1.323,6.784.587,3.336,1.224,7.662,1.891,12.856a139.534,139.534,0,0,1,.995,17.922,68.939,68.939,0,0,1-2.126,17.551l.082.82s0,.291.005.354a9.043,9.043,0,0,1,4.952-2.259l.152-.021.153-.012a9.3,9.3,0,0,1,6.132,1.593,7.443,7.443,0,0,1,3.171,4.867,9.992,9.992,0,0,1-1.392,7.33,12.262,12.262,0,0,1-5.413,4.544,15.543,15.543,0,0,1-4.351,1.262Z" fill="url(#linear-gradient-8)"/>
      <path id="Path_179" data-name="Path 179" d="M196.8,175.249a12.419,12.419,0,0,1-1.912.115,13.654,13.654,0,0,1-10.749-5.172,13.505,13.505,0,0,1-7.548,3.747q-15.654,2.121-25.126-17.054-6.73-13.6-10.368-34.292-1.647-9.368-2.612-17.8A5.438,5.438,0,0,1,140.093,100,7.508,7.508,0,0,1,144.3,98.03q.165-.024,1.644-.174a6.471,6.471,0,0,1,3.7,1.151,5.83,5.83,0,0,1,2.754,4.3,19.456,19.456,0,0,1,.236,2.079q1.653,13.554,3.149,22.059.618,3.523,1.866,9.76a122.6,122.6,0,0,0,3.8,14.02,43.714,43.714,0,0,0,6.011,12.442q3.462,4.659,7.962,4.1,5.4-1.026,4.627-17.43a217,217,0,0,0-3.272-26.918q-.415-2.361-1.4-7.348t-2.245-10.456q-1.263-5.467-1.81-7.119l-.187-.818a5.384,5.384,0,0,1,.994-4.363,7.35,7.35,0,0,1,5.067-2.708,8.42,8.42,0,0,1,4.337.6,6.027,6.027,0,0,1,3.315,3.816q1.134,3.528,2.785,11.2.68,3.131,1.3,6.653.877,4.984,1.867,12.7a135.564,135.564,0,0,1,.966,17.47,64.121,64.121,0,0,1-2.234,17.477l.134.52.058.568a8.755,8.755,0,0,0,.131,1.478,5.345,5.345,0,0,0,3.394,4.4,5.008,5.008,0,0,0,2.334.326q.461-.066.47-.259a3.4,3.4,0,0,1,.846-2.767,4.388,4.388,0,0,1,2.8-1.43,4.588,4.588,0,0,1,3.079.776,3.623,3.623,0,0,1,1.562,2.412,6.524,6.524,0,0,1-.873,4.807,8.111,8.111,0,0,1-3.6,3A10.833,10.833,0,0,1,196.8,175.249Z" fill="#fff"/>
      <path id="Path_180" data-name="Path 180" d="M216.37,173.27c-3.413.318-9.625-.476-12.959-9.359l-.038-.106c-4.353-12.8-7.059-23.561-8.044-31.99-.234-2.016-.429-5.627-.593-11.038-.263-8.554,4.108-12.389,7.823-14.1a9.178,9.178,0,0,1,2.668-.74l.276-.03c2.888-.27,6.1.726,10.091,3.135a62.162,62.162,0,0,1,11.632,9.837q-.576-1.486-1.186-2.969a10.317,10.317,0,0,1-.644-2.54,9.626,9.626,0,0,1,1.183-5.608A10.46,10.46,0,0,1,232.7,102.9l.161-.054a13.151,13.151,0,0,1,2.336-.509c.121-.015.241-.028.361-.039a13.214,13.214,0,0,1,6.314,1.071,10.075,10.075,0,0,1,5.466,5.541,92.409,92.409,0,0,1,4.355,14.618,118.415,118.415,0,0,1,1.994,11.8c.21,1.8.437,4.531.693,8.345a48.764,48.764,0,0,1-1.056,13.086l-.031.131c-1.036,4.185-2.822,7.069-5.459,8.815a9.568,9.568,0,0,1-4.027,1.526l-.231.025a8.048,8.048,0,0,1-6.17-2.076,9.3,9.3,0,0,1-2.889-6.247,23.981,23.981,0,0,1-.064-4.323,4.424,4.424,0,0,0-.036-.554,17.044,17.044,0,0,0-2.1-5.434,67.552,67.552,0,0,0-5.646-8.706,93.25,93.25,0,0,0-7.365-8.751q-1.242-1.295-2.348-2.321c.891,6.552,3.687,16.527,8.322,29.674a14.98,14.98,0,0,1,.695,3,10.91,10.91,0,0,1-1.217,6.417,10.036,10.036,0,0,1-6.255,4.923,12.291,12.291,0,0,1-1.83.375Z" fill="url(#linear-gradient-9)"/>
      <path id="Path_181" data-name="Path 181" d="M215.914,169.407q-5.658.526-8.382-6.731-6.438-18.927-7.879-31.264-.331-2.829-.572-10.74t5.469-10.541a4.421,4.421,0,0,1,1.408-.36q2.661-.249,7.205,2.493a59.5,59.5,0,0,1,11,9.386,162.368,162.368,0,0,1,13.489,16.094,156.424,156.424,0,0,0-7.53-23.172,6.619,6.619,0,0,1-.4-1.6,6.142,6.142,0,0,1,.8-3.565,6.4,6.4,0,0,1,3.78-2.888,8.23,8.23,0,0,1,1.709-.35,8.466,8.466,0,0,1,4.033.729,6.008,6.008,0,0,1,3.235,3.4,88.325,88.325,0,0,1,4.153,13.99,114,114,0,0,1,1.936,11.452q.3,2.6.677,8.175a45.06,45.06,0,0,1-.991,12.144q-1.189,4.8-3.8,6.534a4.816,4.816,0,0,1-2.126.809,3.505,3.505,0,0,1-2.676-.99,5.907,5.907,0,0,1-1.6-3.874,20.776,20.776,0,0,1-.047-3.7,7.745,7.745,0,0,0-.052-1.178,20.768,20.768,0,0,0-2.49-6.69,71.15,71.15,0,0,0-5.962-9.207,97.258,97.258,0,0,0-7.681-9.122,36.908,36.908,0,0,0-6.764-5.834,4.126,4.126,0,0,0-2.317-.852q-1.731.162-.991,6.5,1.2,10.224,8.6,31.234a11.394,11.394,0,0,1,.518,2.24,7.4,7.4,0,0,1-.834,4.368,5.815,5.815,0,0,1-3.7,2.882A7.073,7.073,0,0,1,215.914,169.407Z" fill="#fff"/>
      <path id="Path_182" data-name="Path 182" d="M264.746,166.909c-.155.019-.308.033-.463.043a7.118,7.118,0,0,1-6.706-3.548,9.152,9.152,0,0,1-1.219-4.155l-.036-1.071c-.013-.5-.039-1.02-.082-1.585a78.474,78.474,0,0,0-1.358-8.618c-.766-3.805-1.728-7.9-2.86-12.18-1.127-4.26-2.085-7.516-2.849-9.678a18.078,18.078,0,0,1-1.025-4.578A11.072,11.072,0,0,1,249.217,116a8.45,8.45,0,0,1,.406-.772,9.221,9.221,0,0,1-3.163-6.249,8.839,8.839,0,0,1,2.209-6.555,10.3,10.3,0,0,1,6.647-3.486c.237-.029.477-.052.721-.067a10.69,10.69,0,0,1,7.835,2.606,9.056,9.056,0,0,1,3.246,6.233,8.77,8.77,0,0,1-1.205,5.194,12.875,12.875,0,0,1,3.889,4.522l.079.155a47.744,47.744,0,0,1,4.671,17.167,61.04,61.04,0,0,1-.336,12.039c-1.759,14.422-3.639,17-5.414,18.4A8.189,8.189,0,0,1,264.746,166.909Z" fill="url(#linear-gradient-10)"/>
      <path id="Path_183" data-name="Path 183" d="M263.987,163.076a2.711,2.711,0,0,1-2.584-1.515,5.775,5.775,0,0,1-.708-2.579l-.029-.911q-.018-.8-.09-1.744a80.687,80.687,0,0,0-1.417-9.038q-1.17-5.821-2.908-12.388t-2.933-9.953a14.549,14.549,0,0,1-.834-3.675,7.567,7.567,0,0,1,.751-3.791,5,5,0,0,1,3.391-2.66,6.789,6.789,0,0,1,1.553-.286,9,9,0,0,1,3.956.823,7.906,7.906,0,0,1,3.756,3.762,44.024,44.024,0,0,1,4.325,15.894,57.37,57.37,0,0,1-.321,11.35q-1.723,14.136-3.97,15.908A3.523,3.523,0,0,1,263.987,163.076ZM257.2,113.95a5.93,5.93,0,0,1-4.426-1.4,5.468,5.468,0,0,1-1.975-3.835,5.19,5.19,0,0,1,1.317-3.92,5.844,5.844,0,0,1,4.223-2.046,6.035,6.035,0,0,1,4.5,1.512,5.351,5.351,0,0,1,.552,7.76A5.819,5.819,0,0,1,257.2,113.95Z" fill="#fff"/>
      <path id="Path_184" data-name="Path 184" d="M294.7,166.069c-.5.062-1,.1-1.495.12a30.811,30.811,0,0,1-5.17-.447c-3.233-.441-6.521-2.355-10.053-5.852A28.959,28.959,0,0,1,270.823,148a29.409,29.409,0,0,1-1.375-7.582,41.57,41.57,0,0,1,.773-8.82c.7-4.04,3.008-8.208,7.047-12.741,3.986-4.476,9.858-8.1,17.452-10.783l.117-.04a15.732,15.732,0,0,1,2.921-.663c.351-.043.693-.07,1.025-.083a9.561,9.561,0,0,1,4.388.808,5.966,5.966,0,0,1,3.984,5.152,8.5,8.5,0,0,1-.316,2.323c-.543,2.361-2.893,3.93-6.252,5.559a11.462,11.462,0,0,0-5.064,4.82,22.931,22.931,0,0,0-2.762,12.6,32.912,32.912,0,0,0,.774,5.222,10.007,10.007,0,0,0,2.289,4.53c.637.748,1.05.812,1.354.809l.531-.047.184-.023c.849-.1,1.653-.17,2.39-.2,5.141-.194,7.4,1.753,8.381,3.42a5.109,5.109,0,0,1,.75,2.433c.164,3.51-3.28,6.175-4.411,7.051l-.127.094A22.159,22.159,0,0,1,294.7,166.069Z" fill="url(#linear-gradient-11)"/>
      <path id="Path_185" data-name="Path 185" d="M293.018,162.308a31.855,31.855,0,0,1-4.331-.406q-3.27-.445-7.482-4.615a25.11,25.11,0,0,1-6.2-10.358,25.762,25.762,0,0,1-1.209-6.675,38.615,38.615,0,0,1,.724-8.057q.868-4.988,6.153-10.92t15.648-9.589a9.927,9.927,0,0,1,2.653-.518,4.793,4.793,0,0,1,2.271.408,2.132,2.132,0,0,1,1.573,1.838,6.9,6.9,0,0,1-.232,1.376q-.246,1.073-4.067,2.925a15.614,15.614,0,0,0-6.873,6.486,26.293,26.293,0,0,0-3.223,14.512,36.279,36.279,0,0,0,.849,5.795,13.741,13.741,0,0,0,3.116,6.166,6.1,6.1,0,0,0,5.081,2.314l.761-.067q1.225-.159,2.242-.2,3.477-.132,4.354,1.354a1.634,1.634,0,0,1,.251.788q.075,1.629-2.915,3.944A16.825,16.825,0,0,1,293.018,162.308Z" fill="#fff"/>
      <path id="Path_186" data-name="Path 186" d="M326.639,169.953l-1.443.056a17.289,17.289,0,0,1-12.924-5.455,30.509,30.509,0,0,1-6.9-13.009,63.534,63.534,0,0,1-2.167-16.306l-.014-4.5a59.46,59.46,0,0,1,1.878-12.925,43.515,43.515,0,0,1,5.867-14.34c2.978-4.486,6.824-7.243,11.43-8.193l.229-.041c.174-.028.346-.052.517-.072a14.457,14.457,0,0,1,1.686-.11c4.09-.026,8.054,1.732,11.783,5.225,3.371,3.16,6.082,7.685,8.289,13.832a61.982,61.982,0,0,1,3.273,20.37,57.776,57.776,0,0,1-3.249,20.622c-4.116,10.93-11.978,14.078-17.849,14.8ZM321.192,118.6a40.965,40.965,0,0,0-2.2,10.144,66.1,66.1,0,0,0-.343,7.267c.014,1.7.151,4.047.408,6.987a20.011,20.011,0,0,0,2.092,7.35,3.9,3.9,0,0,0,.86,1.225,7.442,7.442,0,0,0,1.577-2.8c1.035-2.642,1.531-6.645,1.488-11.936a53.65,53.65,0,0,0-1.288-11.246,30.932,30.932,0,0,0-2.5-7.237C321.256,118.436,321.224,118.516,321.192,118.6Z" fill="url(#linear-gradient-12)"/>
      <path id="Path_187" data-name="Path 187" d="M325.164,166.125a12.623,12.623,0,0,1-9.584-4.091,26.736,26.736,0,0,1-5.995-11.436,59.741,59.741,0,0,1-2.036-15.388q0-.15-.014-4.476a57.016,57.016,0,0,1,1.788-12.131,39.75,39.75,0,0,1,5.348-13.141q3.542-5.334,8.671-6.392a10.047,10.047,0,0,1,1.484-.124q4.286-.027,8.607,4.022t7.3,12.338a58.215,58.215,0,0,1,3.066,19.212,54.065,54.065,0,0,1-3.027,19.366q-4.154,11.029-14.5,12.2Zm-3.016-10.6q3.48-.022,5.558-5.5,1.788-4.564,1.717-13.213a56.857,56.857,0,0,0-1.372-11.978,33.685,33.685,0,0,0-2.976-8.4q-1.791-3.288-3.828-3.54-2.463.015-4.166,4.447a44.233,44.233,0,0,0-2.413,11.034,69.543,69.543,0,0,0-.363,7.666q.023,2.692.421,7.261a23.418,23.418,0,0,0,2.468,8.652Q319.009,155.545,322.148,155.523Z" fill="#fff"/>
      <path id="Path_188" data-name="Path 188" d="M355.375,166.777a10.885,10.885,0,0,1-1.636.074,14.556,14.556,0,0,1-4.587-1.1c-4.353-1.635-5.01-6.384-5.227-7.945l-.02-.179a242.75,242.75,0,0,1-.718-29.865c.2-5.185.571-10.436,1.111-15.606l.012-.1a9.886,9.886,0,0,1,3.979-6.73,11.913,11.913,0,0,1,5.766-2.3,13.593,13.593,0,0,1,2.068-.091l.437.012.185.02a12.287,12.287,0,0,1,6.233,2.348c1.943-.421,3.835-.746,5.651-.968a47.987,47.987,0,0,1,7.247-.357c.663.02,2.019.1,6.11.542a20.9,20.9,0,0,1,10.777,4.618,12.063,12.063,0,0,1,4.891,10.087c-.015.385-.082,1.08-.456,3.613-.421,2.853-2.986,6.075-8.575,10.773-4.243,3.565-10.215,7.021-18.178,10.511q.327.466.689.96a14.109,14.109,0,0,0,3.657,3.519,2.058,2.058,0,0,0,1.115.429,1.521,1.521,0,0,0,.25-.012,2.35,2.35,0,0,0,.4-.088,9.925,9.925,0,0,1,1.825-.4,8.972,8.972,0,0,1,1.365-.063,7.413,7.413,0,0,1,4.769,1.839,6.816,6.816,0,0,1,2.57,5.573l-.034.908c-.083,2.159-1.648,3.889-4.649,5.144l-.157.066-.163.054a21.177,21.177,0,0,1-4.115.946,18.039,18.039,0,0,1-2.726.128,20.912,20.912,0,0,1-5.912-1.238,18.029,18.029,0,0,1-5.248-2.914,8.917,8.917,0,0,1-4.239,6.205A11.023,11.023,0,0,1,355.375,166.777Zm10.578-43.987q-.474,3.78-.87,7.63a22.339,22.339,0,0,0,4.569-3.485c2.071-2.13,3.2-4.038,3.252-5.518l.02-1.238a8.75,8.75,0,0,0-1.368-.741,6.194,6.194,0,0,0-2.2-.391,16,16,0,0,0-2.4.13c-.2.025-.4.053-.61.083Z" fill="url(#linear-gradient-13)"/>
      <path id="Path_189" data-name="Path 189" d="M353.886,162.969a10.617,10.617,0,0,1-3.048-.795q-2.033-.764-2.6-4.842a238,238,0,0,1-.708-29.436q.294-7.7,1.094-15.377a6.07,6.07,0,0,1,2.454-4.214,7.555,7.555,0,0,1,4.9-1.483l.256.007a7.05,7.05,0,0,1,5.283,2.855,51.35,51.35,0,0,1,14.212-1.807q1.356.041,5.735.516a16.337,16.337,0,0,1,8.419,3.67,8.31,8.31,0,0,1,3.428,7.05q-.021.531-.421,3.233t-7.244,8.453q-6.844,5.751-21.208,11.577a33.343,33.343,0,0,0,3.065,4.857,18.11,18.11,0,0,0,4.732,4.527,6.534,6.534,0,0,0,5.745.857,4.806,4.806,0,0,1,1.622-.254,2.837,2.837,0,0,1,1.883.74,3.184,3.184,0,0,1,1.258,2.657l-.034.91q-.033.873-2.147,1.757a14.882,14.882,0,0,1-5.171.83,15.937,15.937,0,0,1-10.473-4.949,32.769,32.769,0,0,1-5.353-6.614q0,4.365.355,8.512l.007.912a5.483,5.483,0,0,1-2.519,4.857A6.224,6.224,0,0,1,353.886,162.969Zm6.2-25.735q8.668-3.456,12.845-7.751t4.315-7.934c0-.051.011-.708.033-1.973s-1.239-2.467-3.771-3.606a10.712,10.712,0,0,0-4-.805,27.465,27.465,0,0,0-7.17.92l-.708,6.318Q360.715,129.7,360.088,137.234Z" fill="#fff"/>
      <path id="Path_190" data-name="Path 190" d="M434.663,167.787a8.75,8.75,0,0,1-1.67.045,7.727,7.727,0,0,1-5.638-3.048,8.949,8.949,0,0,1-1.561-6.617,24.216,24.216,0,0,1,.822-4.259,4.524,4.524,0,0,0,.078-.544,16.571,16.571,0,0,0-.95-5.693,64.227,64.227,0,0,0-3.767-9.482,88.25,88.25,0,0,0-5.448-9.809q-.955-1.476-1.834-2.666c-.466,6.59.241,16.855,2.1,30.535a14.97,14.97,0,0,1,.068,3.063,11.268,11.268,0,0,1-2.513,6.111,10.59,10.59,0,0,1-7.156,3.815,12.147,12.147,0,0,1-2.192.05c-3.409-.244-9.354-2.04-10.815-11.319l-.015-.11c-1.657-13.284-2.113-24.308-1.354-32.765.181-2.008.728-5.588,1.676-10.947,1.494-8.454,6.578-11.509,10.579-12.583a9.38,9.38,0,0,1,1.208-.231,9.579,9.579,0,0,1,1.85-.044c2.89.206,5.838,1.71,9.273,4.734a58.242,58.242,0,0,1,9.42,11.573q-.263-1.556-.558-3.115a10.2,10.2,0,0,1-.114-2.592,9.973,9.973,0,0,1,2.312-5.327,11.042,11.042,0,0,1,7.016-3.778l.393-.055a13.253,13.253,0,0,1,2.535-.07,12.867,12.867,0,0,1,5.99,2.085,9.515,9.515,0,0,1,4.241,6.344,90.234,90.234,0,0,1,1.286,15.083,116.989,116.989,0,0,1-.456,11.926c-.161,1.791-.5,4.512-1.028,8.318a49.866,49.866,0,0,1-3.718,12.692l-.057.125c-1.877,3.944-4.223,6.486-7.173,7.772A10.581,10.581,0,0,1,434.663,167.787Z" fill="url(#linear-gradient-14)"/>
      <path id="Path_191" data-name="Path 191" d="M405.359,165.417q-5.672-.407-6.862-7.989-2.454-19.657-1.342-32.024.255-2.835,1.637-10.651t7.536-9.469a4.525,4.525,0,0,1,1.46-.123q2.662.19,6.571,3.63a55.8,55.8,0,0,1,8.889,11.025,153.217,153.217,0,0,1,9.965,18.03,152.46,152.46,0,0,0-2.657-24.013,6.617,6.617,0,0,1-.066-1.642,6.38,6.38,0,0,1,1.517-3.373,6.756,6.756,0,0,1,4.308-2.221,8.4,8.4,0,0,1,1.753-.065,8.228,8.228,0,0,1,3.815,1.377,5.673,5.673,0,0,1,2.484,3.869,86.453,86.453,0,0,1,1.217,14.434,112.782,112.782,0,0,1-.443,11.575q-.232,2.608-1.008,8.148a46.068,46.068,0,0,1-3.462,11.777q-2.154,4.525-5.078,5.8a4.965,4.965,0,0,1-2.255.447,3.354,3.354,0,0,1-2.428-1.411,5.7,5.7,0,0,1-.784-4.071,21.026,21.026,0,0,1,.71-3.641,7.452,7.452,0,0,0,.19-1.166,20.136,20.136,0,0,0-1.077-6.983,67.581,67.581,0,0,0-3.976-10.028,91.589,91.589,0,0,0-5.682-10.225,34.782,34.782,0,0,0-5.453-6.841,3.951,3.951,0,0,0-2.105-1.216q-1.738-.126-2.307,6.228-.918,10.246,2.059,32.112a11.234,11.234,0,0,1,.05,2.287,7.649,7.649,0,0,1-1.715,4.159,6.137,6.137,0,0,1-4.223,2.228A7.083,7.083,0,0,1,405.359,165.417Z" fill="#fff"/>
      <path id="Path_192" data-name="Path 192" d="M196.8,175.249a12.419,12.419,0,0,1-1.912.115,13.654,13.654,0,0,1-10.749-5.172,13.505,13.505,0,0,1-7.548,3.747q-15.654,2.121-25.126-17.054-6.73-13.6-10.368-34.292-1.647-9.368-2.612-17.8A5.438,5.438,0,0,1,140.093,100,7.508,7.508,0,0,1,144.3,98.03q.165-.024,1.644-.174a6.471,6.471,0,0,1,3.7,1.151,5.83,5.83,0,0,1,2.754,4.3,19.456,19.456,0,0,1,.236,2.079q1.653,13.554,3.149,22.059.618,3.523,1.866,9.76a122.6,122.6,0,0,0,3.8,14.02,43.714,43.714,0,0,0,6.011,12.442q3.462,4.659,7.962,4.1,5.4-1.026,4.627-17.43a217,217,0,0,0-3.272-26.918q-.415-2.361-1.4-7.348t-2.245-10.456q-1.263-5.467-1.81-7.119l-.187-.818a5.384,5.384,0,0,1,.994-4.363,7.35,7.35,0,0,1,5.067-2.708,8.42,8.42,0,0,1,4.337.6,6.027,6.027,0,0,1,3.315,3.816q1.134,3.528,2.785,11.2.68,3.131,1.3,6.653.877,4.984,1.867,12.7a135.564,135.564,0,0,1,.966,17.47,64.121,64.121,0,0,1-2.234,17.477l.134.52.058.568a8.755,8.755,0,0,0,.131,1.478,5.345,5.345,0,0,0,3.394,4.4,5.008,5.008,0,0,0,2.334.326q.461-.066.47-.259a3.4,3.4,0,0,1,.846-2.767,4.388,4.388,0,0,1,2.8-1.43,4.588,4.588,0,0,1,3.079.776,3.623,3.623,0,0,1,1.562,2.412,6.524,6.524,0,0,1-.873,4.807,8.111,8.111,0,0,1-3.6,3A10.833,10.833,0,0,1,196.8,175.249Z" fill="#fff"/>
      <path id="Path_193" data-name="Path 193" d="M215.914,169.407q-5.658.526-8.382-6.731-6.438-18.927-7.879-31.264-.331-2.829-.572-10.74t5.469-10.541a4.421,4.421,0,0,1,1.408-.36q2.661-.249,7.205,2.493a59.5,59.5,0,0,1,11,9.386,162.368,162.368,0,0,1,13.489,16.094,156.424,156.424,0,0,0-7.53-23.172,6.619,6.619,0,0,1-.4-1.6,6.142,6.142,0,0,1,.8-3.565,6.4,6.4,0,0,1,3.78-2.888,8.23,8.23,0,0,1,1.709-.35,8.466,8.466,0,0,1,4.033.729,6.008,6.008,0,0,1,3.235,3.4,88.325,88.325,0,0,1,4.153,13.99,114,114,0,0,1,1.936,11.452q.3,2.6.677,8.175a45.06,45.06,0,0,1-.991,12.144q-1.189,4.8-3.8,6.534a4.816,4.816,0,0,1-2.126.809,3.505,3.505,0,0,1-2.676-.99,5.907,5.907,0,0,1-1.6-3.874,20.776,20.776,0,0,1-.047-3.7,7.745,7.745,0,0,0-.052-1.178,20.768,20.768,0,0,0-2.49-6.69,71.15,71.15,0,0,0-5.962-9.207,97.258,97.258,0,0,0-7.681-9.122,36.908,36.908,0,0,0-6.764-5.834,4.126,4.126,0,0,0-2.317-.852q-1.731.162-.991,6.5,1.2,10.224,8.6,31.234a11.394,11.394,0,0,1,.518,2.24,7.4,7.4,0,0,1-.834,4.368,5.815,5.815,0,0,1-3.7,2.882A7.073,7.073,0,0,1,215.914,169.407Z" fill="#fff"/>
      <path id="Path_194" data-name="Path 194" d="M263.987,163.076a2.711,2.711,0,0,1-2.584-1.515,5.775,5.775,0,0,1-.708-2.579l-.029-.911q-.018-.8-.09-1.744a80.687,80.687,0,0,0-1.417-9.038q-1.17-5.821-2.908-12.388t-2.933-9.953a14.549,14.549,0,0,1-.834-3.675,7.567,7.567,0,0,1,.751-3.791,5,5,0,0,1,3.391-2.66,6.789,6.789,0,0,1,1.553-.286,9,9,0,0,1,3.956.823,7.906,7.906,0,0,1,3.756,3.762,44.024,44.024,0,0,1,4.325,15.894,57.37,57.37,0,0,1-.321,11.35q-1.723,14.136-3.97,15.908A3.523,3.523,0,0,1,263.987,163.076ZM257.2,113.95a5.93,5.93,0,0,1-4.426-1.4,5.468,5.468,0,0,1-1.975-3.835,5.19,5.19,0,0,1,1.317-3.92,5.844,5.844,0,0,1,4.223-2.046,6.035,6.035,0,0,1,4.5,1.512,5.351,5.351,0,0,1,.552,7.76A5.819,5.819,0,0,1,257.2,113.95Z" fill="#fff"/>
      <path id="Path_195" data-name="Path 195" d="M293.018,162.308a31.855,31.855,0,0,1-4.331-.406q-3.27-.445-7.482-4.615a25.11,25.11,0,0,1-6.2-10.358,25.762,25.762,0,0,1-1.209-6.675,38.615,38.615,0,0,1,.724-8.057q.868-4.988,6.153-10.92t15.648-9.589a9.927,9.927,0,0,1,2.653-.518,4.793,4.793,0,0,1,2.271.408,2.132,2.132,0,0,1,1.573,1.838,6.9,6.9,0,0,1-.232,1.376q-.246,1.073-4.067,2.925a15.614,15.614,0,0,0-6.873,6.486,26.293,26.293,0,0,0-3.223,14.512,36.279,36.279,0,0,0,.849,5.795,13.741,13.741,0,0,0,3.116,6.166,6.1,6.1,0,0,0,5.081,2.314l.761-.067q1.225-.159,2.242-.2,3.477-.132,4.354,1.354a1.634,1.634,0,0,1,.251.788q.075,1.629-2.915,3.944A16.825,16.825,0,0,1,293.018,162.308Z" fill="#fff"/>
      <path id="Path_196" data-name="Path 196" d="M325.164,166.125a12.623,12.623,0,0,1-9.584-4.091,26.736,26.736,0,0,1-5.995-11.436,59.741,59.741,0,0,1-2.036-15.388q0-.15-.014-4.476a57.016,57.016,0,0,1,1.788-12.131,39.75,39.75,0,0,1,5.348-13.141q3.542-5.334,8.671-6.392a10.047,10.047,0,0,1,1.484-.124q4.286-.027,8.607,4.022t7.3,12.338a58.215,58.215,0,0,1,3.066,19.212,54.065,54.065,0,0,1-3.027,19.366q-4.154,11.029-14.5,12.2Zm-3.016-10.6q3.48-.022,5.558-5.5,1.788-4.564,1.717-13.213a56.857,56.857,0,0,0-1.372-11.978,33.685,33.685,0,0,0-2.976-8.4q-1.791-3.288-3.828-3.54-2.463.015-4.166,4.447a44.233,44.233,0,0,0-2.413,11.034,69.543,69.543,0,0,0-.363,7.666q.023,2.692.421,7.261a23.418,23.418,0,0,0,2.468,8.652Q319.009,155.545,322.148,155.523Z" fill="#fff"/>
      <path id="Path_197" data-name="Path 197" d="M353.886,162.969a10.617,10.617,0,0,1-3.048-.795q-2.033-.764-2.6-4.842a238,238,0,0,1-.708-29.436q.294-7.7,1.094-15.377a6.07,6.07,0,0,1,2.454-4.214,7.555,7.555,0,0,1,4.9-1.483l.256.007a7.05,7.05,0,0,1,5.283,2.855,51.35,51.35,0,0,1,14.212-1.807q1.356.041,5.735.516a16.337,16.337,0,0,1,8.419,3.67,8.31,8.31,0,0,1,3.428,7.05q-.021.531-.421,3.233t-7.244,8.453q-6.844,5.751-21.208,11.577a33.343,33.343,0,0,0,3.065,4.857,18.11,18.11,0,0,0,4.732,4.527,6.534,6.534,0,0,0,5.745.857,4.806,4.806,0,0,1,1.622-.254,2.837,2.837,0,0,1,1.883.74,3.184,3.184,0,0,1,1.258,2.657l-.034.91q-.033.873-2.147,1.757a14.882,14.882,0,0,1-5.171.83,15.937,15.937,0,0,1-10.473-4.949,32.769,32.769,0,0,1-5.353-6.614q0,4.365.355,8.512l.007.912a5.483,5.483,0,0,1-2.519,4.857A6.224,6.224,0,0,1,353.886,162.969Zm6.2-25.735q8.668-3.456,12.845-7.751t4.315-7.934c0-.051.011-.708.033-1.973s-1.239-2.467-3.771-3.606a10.712,10.712,0,0,0-4-.805,27.465,27.465,0,0,0-7.17.92l-.708,6.318Q360.715,129.7,360.088,137.234Z" fill="#fff"/>
      <path id="Path_198" data-name="Path 198" d="M405.359,165.417q-5.672-.407-6.862-7.989-2.454-19.657-1.342-32.024.255-2.835,1.637-10.651t7.536-9.469a4.525,4.525,0,0,1,1.46-.123q2.662.19,6.571,3.63a55.8,55.8,0,0,1,8.889,11.025,153.217,153.217,0,0,1,9.965,18.03,152.46,152.46,0,0,0-2.657-24.013,6.617,6.617,0,0,1-.066-1.642,6.38,6.38,0,0,1,1.517-3.373,6.756,6.756,0,0,1,4.308-2.221,8.4,8.4,0,0,1,1.753-.065,8.228,8.228,0,0,1,3.815,1.377,5.673,5.673,0,0,1,2.484,3.869,86.453,86.453,0,0,1,1.217,14.434,112.782,112.782,0,0,1-.443,11.575q-.232,2.608-1.008,8.148a46.068,46.068,0,0,1-3.462,11.777q-2.154,4.525-5.078,5.8a4.965,4.965,0,0,1-2.255.447,3.354,3.354,0,0,1-2.428-1.411,5.7,5.7,0,0,1-.784-4.071,21.026,21.026,0,0,1,.71-3.641,7.452,7.452,0,0,0,.19-1.166,20.136,20.136,0,0,0-1.077-6.983,67.581,67.581,0,0,0-3.976-10.028,91.589,91.589,0,0,0-5.682-10.225,34.782,34.782,0,0,0-5.453-6.841,3.951,3.951,0,0,0-2.105-1.216q-1.738-.126-2.307,6.228-.918,10.246,2.059,32.112a11.234,11.234,0,0,1,.05,2.287,7.649,7.649,0,0,1-1.715,4.159,6.137,6.137,0,0,1-4.223,2.228A7.083,7.083,0,0,1,405.359,165.417Z" fill="#fff"/>
    </g>
    <g id="Group_27" data-name="Group 27">
      <g id="Group_25" data-name="Group 25">
        <path id="Path_199" data-name="Path 199" d="M156.009,250.043a17.549,17.549,0,0,1-9.04-3.708c-3.394-2.537-6.332-6.725-8.98-12.8a93.638,93.638,0,0,1-6.962-28.45c-.4-4.054-.6-8.948-.6-14.545a75.33,75.33,0,0,1,2.266-17.853c1.578-6.412,4.1-11.547,7.491-15.264a16.318,16.318,0,0,1,11.064-5.444,19.017,19.017,0,0,1,3.047.005c5.24.433,10.483,3.065,15.583,7.823a59.346,59.346,0,0,1,11.1,14.57l.5.928a6.636,6.636,0,0,1,.78,2.486c.3,3-1.3,5.509-4.4,6.878l-.2.081a9.137,9.137,0,0,1-2.608.6,9.348,9.348,0,0,1-1.506,0,7.633,7.633,0,0,1-6.132-3.818l-.535-.992c-4.919-8.975-7.834-10.812-8.636-11.169a7.44,7.44,0,0,0-2.1,3.213,44.634,44.634,0,0,0-2.785,11.972,99.119,99.119,0,0,0,1.787,32.909,31.605,31.605,0,0,0,3.9,9.973c.757,1.215,1.942,2.684,3.289,2.8l.029,0,.111-.009c.034,0,3.319-.389,8.967-11.662a7.723,7.723,0,0,1,6.471-4.11,8.8,8.8,0,0,1,1.406,0,9.213,9.213,0,0,1,2.3.5l.149.052.145.062A6.923,6.923,0,0,1,186.4,220.8a6.534,6.534,0,0,1-.558,3.31l-.078.167c-3.646,7.259-7.157,12.594-10.737,16.31a34.132,34.132,0,0,1-11.289,8.111,18.352,18.352,0,0,1-5.471,1.348A14.056,14.056,0,0,1,156.009,250.043Z" fill="url(#linear-gradient-15)"/>
        <path id="Path_200" data-name="Path 200" d="M157.88,246.178q-3.932.312-8.121-2.821t-7.72-11.232q-5.115-11.589-6.683-27.383-.59-5.931-.579-14.2a71.518,71.518,0,0,1,2.165-17.024q2.157-8.759,6.615-13.643a11.9,11.9,0,0,1,8.079-4.03q7.357-.583,15.106,6.646a55.149,55.149,0,0,1,10.343,13.612l.471.878a3.077,3.077,0,0,1,.37,1.15,2.86,2.86,0,0,1-2,3.053,4.329,4.329,0,0,1-1.25.289,3.354,3.354,0,0,1-3.411-1.747l-.471-.876q-7.6-13.869-13.053-13.436l-.127.009q-3.387.651-5.541,5.791a47.9,47.9,0,0,0-3.039,12.941,102.591,102.591,0,0,0,1.847,34.051,35.039,35.039,0,0,0,4.365,11.116q2.964,4.755,7.23,4.8l.381-.03q5.792-.46,12.549-13.944a3.309,3.309,0,0,1,2.887-1.827,4.185,4.185,0,0,1,1.728.243,3,3,0,0,1,1.774,4.124q-5.158,10.273-10.065,15.366a29.765,29.765,0,0,1-9.818,7.119A13.515,13.515,0,0,1,157.88,246.178Z" fill="url(#linear-gradient-16)"/>
        <path id="Path_201" data-name="Path 201" d="M201.839,246.847a17.259,17.259,0,0,1-10.566-4.747,31.056,31.056,0,0,1-7.736-12.627,63.94,63.94,0,0,1-3.222-16.167l-.308-4.486a59.433,59.433,0,0,1,1.037-13,42.98,42.98,0,0,1,4.923-14.618c2.684-4.635,6.345-7.587,10.88-8.773l.222-.053a14.966,14.966,0,0,1,2.184-.3,14.136,14.136,0,0,1,1.974.024,18.284,18.284,0,0,1,10.136,4.581c3.57,2.98,6.571,7.356,9.173,13.378a62.4,62.4,0,0,1,4.592,20.165,57.506,57.506,0,0,1-1.9,20.755c-3.434,11.234-11.187,14.757-17.088,15.737l-.17.028-1.355.126-.083.005A19.118,19.118,0,0,1,201.839,246.847Zm-4.648-51.084A40.808,40.808,0,0,0,195.657,206a66.084,66.084,0,0,0,.13,7.271c.125,1.7.415,4.039.861,6.955a20.218,20.218,0,0,0,2.569,7.23,3.94,3.94,0,0,0,.935,1.177,7.294,7.294,0,0,0,1.394-2.872c.861-2.692,1.1-6.715.71-12a54.045,54.045,0,0,0-2.016-11.158,31.382,31.382,0,0,0-2.969-7.095C197.245,195.6,197.218,195.677,197.191,195.763Z" fill="url(#linear-gradient-17)"/>
        <path id="Path_202" data-name="Path 202" d="M204.245,243a12.783,12.783,0,0,1-9.834-3.587,27.2,27.2,0,0,1-6.727-11.1,60.107,60.107,0,0,1-3.032-15.257q-.01-.151-.306-4.468a56.794,56.794,0,0,1,1-12.2,39.268,39.268,0,0,1,4.483-13.4q3.19-5.509,8.242-6.83a9.92,9.92,0,0,1,1.474-.2q4.276-.252,8.853,3.568t8.085,11.938a58.639,58.639,0,0,1,4.31,19.021,53.793,53.793,0,0,1-1.763,19.49Q215.6,241.2,205.343,242.9Zm-3.7-10.426q3.473-.206,5.191-5.779,1.49-4.65.857-13.279a57.216,57.216,0,0,0-2.147-11.886,34.187,34.187,0,0,0-3.519-8.234q-2-3.19-4.051-3.336-2.459.144-3.87,4.656a43.98,43.98,0,0,0-1.692,11.142,69.311,69.311,0,0,0,.136,7.67q.2,2.689.891,7.228a23.741,23.741,0,0,0,3.028,8.509Q197.41,232.757,200.545,232.574Z" fill="url(#linear-gradient-18)"/>
        <path id="Path_203" data-name="Path 203" d="M237.556,236.571c-1.269-.1-2.732-.306-4.349-.6-3.711-.666-7.018-2.867-9.831-6.541a16.768,16.768,0,0,1-3.224-9.466,24.489,24.489,0,0,1,4.97-16.382,26.44,26.44,0,0,1,4.425-4.616,6.416,6.416,0,0,1-1.962-4.3,6.542,6.542,0,0,1,.638-3.137l.206-.438.317-.382c5.317-6.387,9.9-10.307,13.995-11.981a16.022,16.022,0,0,1,5.3-1.221,10.432,10.432,0,0,1,1.322.027,12.3,12.3,0,0,1,7.027,3.13c2.319,1.987,4.091,5.166,5.415,9.721a68.819,68.819,0,0,1,2.439,15.626,111.635,111.635,0,0,1-.007,11.642,65.162,65.162,0,0,1-1.1,9.59A9.2,9.2,0,0,1,259.3,234.4a12.428,12.428,0,0,1-6.934,2.359c-.163.006-.778.008-1.875-.005-.18,0-.367-.01-.557-.026a9.488,9.488,0,0,1-3.529-1.055,26.5,26.5,0,0,1-6.028.978A22.844,22.844,0,0,1,237.556,236.571Z" fill="url(#linear-gradient-19)"/>
        <path id="Path_204" data-name="Path 204" d="M252.159,232.875c-.113,0-.652,0-1.616-.009a6.563,6.563,0,0,1-3.521-1.524,22.631,22.631,0,0,1-6.851,1.425,29.655,29.655,0,0,1-6.107-.6q-3.862-.693-7.1-4.926a13.158,13.158,0,0,1-2.47-7.453,20.881,20.881,0,0,1,4.238-14.038,21.853,21.853,0,0,1,7.86-6.555,18.474,18.474,0,0,1,7.423-1.867,22.829,22.829,0,0,1,2.6.044q-.538-3.813-2.411-4.684a1.906,1.906,0,0,0-.858-.154q-1.782.075-4.728,3.045a3.347,3.347,0,0,1-3.047,1.874,3.728,3.728,0,0,1-1.544-.278,2.95,2.95,0,0,1-1.788-4.141q7.236-8.692,12.313-10.765a11.2,11.2,0,0,1,3.694-.875,7.421,7.421,0,0,1,5.144,2.082q2.558,2.191,4.215,7.894a65.031,65.031,0,0,1,2.3,14.828,107.439,107.439,0,0,1-.007,11.279,60.252,60.252,0,0,1-1.087,9.311,5.565,5.565,0,0,1-2.224,4.573A7.875,7.875,0,0,1,252.159,232.875Zm-9.371-6.939a6.737,6.737,0,0,0,2.1-.468l.394-3.016a168.842,168.842,0,0,0,1.667-18.562l-.424.018a5.336,5.336,0,0,0-4.149,2.337,16.272,16.272,0,0,0-2.589,5.348,26.772,26.772,0,0,0-1.414,8.717,7.543,7.543,0,0,0,1.278,4.143A3.475,3.475,0,0,0,242.788,225.936Z" fill="url(#linear-gradient-20)"/>
        <path id="Path_205" data-name="Path 205" d="M270.856,237.2a22.8,22.8,0,0,1-3.141-.482c-2.214-.5-5.09-2.1-6.216-6.859l-.03-.137c-1.562-8.011-2.6-18.659-3.073-31.648-.254-6.924-.291-13.084-.109-18.31a9.329,9.329,0,0,1,4.047-7.554A12.321,12.321,0,0,1,269.19,170c.19-.006.856,0,1.992.024.157,0,.316.012.475.025a10.688,10.688,0,0,1,5.752,2.536,9.224,9.224,0,0,1,3.535,7.145l.029.712-.054.341a222.059,222.059,0,0,0-2.512,22.21c-.326,5.763-.567,12.462-.72,19.959l.537,0c.251.01.5.025.733.045,5.66.467,7.792,3.762,7.9,6.689a7.051,7.051,0,0,1-1.238,4.011c-.7,1.118-2.445,3.029-6.321,3.282l-.15.01-1.57.005c-.6.019-1.191.058-1.75.115-.829.084-1.6.136-2.306.156A24.122,24.122,0,0,1,270.856,237.2Z" fill="url(#linear-gradient-21)"/>
        <path id="Path_206" data-name="Path 206" d="M273.385,233.385a18.308,18.308,0,0,1-4.6-.434q-2.228-.5-3.031-3.9-2.3-11.812-3.011-31.11-.378-10.311-.109-18.062a5.582,5.582,0,0,1,2.337-4.585,7.781,7.781,0,0,1,4.365-1.418q.254-.008,1.742.025a6.146,6.146,0,0,1,3.455,1.588,5.513,5.513,0,0,1,2.071,4.36l.015.379a224.547,224.547,0,0,0-2.55,22.563q-.579,10.245-.8,24.028l4.757.012q4.381.177,4.484,2.981a3.7,3.7,0,0,1-.691,1.994,3.37,3.37,0,0,1-2.84,1.3l-1.487.005q-1.1.033-2.161.14T273.385,233.385Z" fill="url(#linear-gradient-22)"/>
        <path id="Path_207" data-name="Path 207" d="M293.8,238.113a7,7,0,0,1-5.717-3.787,9.117,9.117,0,0,1-1.009-4.2l.019-1.084c.013-.494.011-1.013,0-1.579a77.638,77.638,0,0,0-.922-8.663c-.572-3.821-1.327-7.955-2.244-12.284s-1.712-7.612-2.36-9.782a17.973,17.973,0,0,1-.794-4.616,11.167,11.167,0,0,1,1.346-5.486,8.242,8.242,0,0,1,.447-.756,9.1,9.1,0,0,1-2.847-6.369,8.934,8.934,0,0,1,2.534-6.458,10.48,10.48,0,0,1,7.544-3.255,11.592,11.592,0,0,1,1.231.037,10.505,10.505,0,0,1,6.462,2.882,8.936,8.936,0,0,1,2.929,6.359,8.817,8.817,0,0,1-1.465,5.137,12.674,12.674,0,0,1,3.659,4.673l.071.158a47.43,47.43,0,0,1,3.8,17.337,61.147,61.147,0,0,1-.942,12.014c-2.483,14.336-4.49,16.833-6.333,18.161a8.172,8.172,0,0,1-4.608,1.583A7.844,7.844,0,0,1,293.8,238.113Z" fill="url(#linear-gradient-23)"/>
        <path id="Path_208" data-name="Path 208" d="M290.191,184.9a5.871,5.871,0,0,1-4.35-1.578,5.41,5.41,0,0,1-1.782-3.909,5.256,5.256,0,0,1,1.513-3.863,5.916,5.916,0,0,1,4.323-1.875,5.976,5.976,0,0,1,4.418,1.692,5.238,5.238,0,0,1,1.756,3.795,5.321,5.321,0,0,1-1.594,3.979A5.886,5.886,0,0,1,290.191,184.9Zm4.311,49.35A2.682,2.682,0,0,1,292,232.637a5.784,5.784,0,0,1-.578-2.606l.02-.911q.021-.8,0-1.745a80.513,80.513,0,0,0-.96-9.086q-.877-5.863-2.281-12.493t-2.431-10.061a14.407,14.407,0,0,1-.648-3.7,7.641,7.641,0,0,1,.94-3.758,5.075,5.075,0,0,1,3.522-2.521,6.836,6.836,0,0,1,1.565-.223,8.926,8.926,0,0,1,3.911.981,7.8,7.8,0,0,1,3.563,3.909,43.709,43.709,0,0,1,3.521,16.052,57.412,57.412,0,0,1-.89,11.326q-2.435,14.052-4.767,15.733A3.568,3.568,0,0,1,294.5,234.254Z" fill="url(#linear-gradient-24)"/>
        <path id="Path_209" data-name="Path 209" d="M319.75,240.037c-3.3-.273-6.318-2.309-9.226-6.223a31.6,31.6,0,0,1-5.276-12.589,72.356,72.356,0,0,1-1.471-13.884q-.009-.686,0-4.926a66.086,66.086,0,0,1,.682-8.407,8.715,8.715,0,0,1-1.505-1.06l-.1-.085-.091-.09a6.642,6.642,0,0,1-2.08-4.665c0-.107.009-.413.039-.959A6,6,0,0,1,303.1,183l.1-.087a18.423,18.423,0,0,1,3.956-2.419,32.548,32.548,0,0,1,2.941-7.076l.071-.116a11.276,11.276,0,0,1,6.6-4.825l.164-.043a13.272,13.272,0,0,1,3-.383q.6-.006,1.19.043a13.286,13.286,0,0,1,4.21,1.071l.181.083a10.585,10.585,0,0,1,4.97,4.73l.052.107a9.75,9.75,0,0,1,.618,1.706,7.8,7.8,0,0,1,3.967,2.047,6.623,6.623,0,0,1,2.081,4.733,6.4,6.4,0,0,1-2.451,5.147,8.6,8.6,0,0,1-5.452,1.928l-.633.007c-.356,2.115-.688,4.507-.987,7.146a114.9,114.9,0,0,0-.888,14.785,60.124,60.124,0,0,0,.688,8.362,9.8,9.8,0,0,0,1.171,3.673c.163-.087.359-.2.586-.351a8.372,8.372,0,0,1,4.545-1.377c.166,0,.421,0,.757.031q.368.03,1,.109a7.233,7.233,0,0,1,4.555,2.548l.116.136a6.663,6.663,0,0,1,1.575,4.132,8.7,8.7,0,0,1-.161,1.55,6.377,6.377,0,0,1-2.87,4.034l-.143.1c-5.747,3.795-10.694,5.661-15.121,5.706-.238,0-.507.005-3.557-.185Z" fill="url(#linear-gradient-25)"/>
        <path id="Path_210" data-name="Path 210" d="M323.436,236.35q-.339,0-3.206-.176t-6.085-4.508a27.894,27.894,0,0,1-4.622-11.144,68.6,68.6,0,0,1-1.4-13.226q-.009-.683,0-4.874a77.173,77.173,0,0,1,1.15-11.335,3.642,3.642,0,0,1-3.28-.915,2.976,2.976,0,0,1-.962-2.115q0-.075.034-.721a2.641,2.641,0,0,1,1.083-1.566,17.16,17.16,0,0,1,4.723-2.552,32.7,32.7,0,0,1,3.08-8,6.947,6.947,0,0,1,4.12-3.038,8.458,8.458,0,0,1,1.908-.247,8.362,8.362,0,0,1,3.447.723,6.554,6.554,0,0,1,3.1,2.927,6.01,6.01,0,0,1,.584,2.5,6.764,6.764,0,0,1-.152,1.482l1.74-.057.807-.007a3.523,3.523,0,0,1,2.41.961,2.954,2.954,0,0,1,.94,2.153,2.743,2.743,0,0,1-1.053,2.249,3.956,3.956,0,0,1-2.556.9l-.6.006a28.923,28.923,0,0,0-3.731.341q-.879,4.259-1.567,10.3a117.868,117.868,0,0,0-.909,15.222,63.236,63.236,0,0,0,.729,8.851q.672,4.337,2.736,6.364a3.056,3.056,0,0,0,2.262.925A7.045,7.045,0,0,0,331.8,226.4a3.667,3.667,0,0,1,2.029-.627,10.6,10.6,0,0,1,1.105.1,2.976,2.976,0,0,1,1.756,1.12,3.022,3.022,0,0,1,.745,1.889,7.145,7.145,0,0,1-.115.95,2.807,2.807,0,0,1-1.3,1.568Q328.613,236.3,323.436,236.35Z" fill="url(#linear-gradient-26)"/>
        <path id="Path_211" data-name="Path 211" d="M348.613,237.544a6.946,6.946,0,0,1-5.775-3.922,9.07,9.07,0,0,1-.9-4.225l.046-1.069c.028-.505.041-1.023.04-1.586a77.309,77.309,0,0,0-.691-8.681c-.469-3.831-1.113-7.979-1.915-12.328-.8-4.318-1.5-7.625-2.1-9.83a18.052,18.052,0,0,1-.672-4.629,11.209,11.209,0,0,1,1.5-5.463,8.3,8.3,0,0,1,.463-.742,8.993,8.993,0,0,1,.031-12.83,10.54,10.54,0,0,1,7.631-3.093q.5,0,.984.041a10.458,10.458,0,0,1,6.627,3.041,8.888,8.888,0,0,1,1.155,11.525,12.569,12.569,0,0,1,3.533,4.749l.067.159a47.294,47.294,0,0,1,3.339,17.415,61.24,61.24,0,0,1-1.263,11.99c-2.864,14.278-4.938,16.731-6.819,18.02a8.193,8.193,0,0,1-4.644,1.484Q348.929,237.57,348.613,237.544Z" fill="url(#linear-gradient-27)"/>
        <path id="Path_212" data-name="Path 212" d="M346.267,184.259a5.844,5.844,0,0,1-4.308-1.671,5.385,5.385,0,0,1-1.675-3.946,5.273,5.273,0,0,1,1.614-3.83,6.254,6.254,0,0,1,8.745,0,5.211,5.211,0,0,1,1.653,3.832,5.343,5.343,0,0,1-1.7,3.944A5.914,5.914,0,0,1,346.267,184.259Zm2.99,49.427a2.663,2.663,0,0,1-2.461-1.67,5.721,5.721,0,0,1-.508-2.617l.042-.911q.044-.8.044-1.744a80.177,80.177,0,0,0-.717-9.1q-.72-5.879-1.947-12.538t-2.16-10.108a14.425,14.425,0,0,1-.551-3.718,7.671,7.671,0,0,1,1.043-3.737,5.11,5.11,0,0,1,3.587-2.445,6.824,6.824,0,0,1,1.571-.188,8.89,8.89,0,0,1,3.884,1.062,7.741,7.741,0,0,1,3.456,3.984,43.56,43.56,0,0,1,3.092,16.124,57.482,57.482,0,0,1-1.194,11.3q-2.808,14-5.186,15.626A3.566,3.566,0,0,1,349.257,233.686Z" fill="url(#linear-gradient-28)"/>
        <path id="Path_213" data-name="Path 213" d="M376.215,242.827A16.928,16.928,0,0,1,364.8,237.2a30.34,30.34,0,0,1-6.6-13.131,63.351,63.351,0,0,1-1.794-16.343l.086-4.492a59.782,59.782,0,0,1,2.176-12.893,43.757,43.757,0,0,1,6.191-14.227c3.084-4.433,6.992-7.118,11.617-7.983l.229-.037a15.053,15.053,0,0,1,2.2-.142c.328,0,.654.02.981.047,3.738.309,7.332,2.123,10.682,5.393,3.3,3.221,5.9,7.794,7.972,13.98A61.825,61.825,0,0,1,401.35,207.8a57.917,57.917,0,0,1-3.718,20.557c-4.41,10.958-12.449,13.927-18.418,14.489l-.17.016-1.361.033-.086,0Q376.9,242.883,376.215,242.827ZM374.77,191.42a41.256,41.256,0,0,0-2.429,10.1,66.1,66.1,0,0,0-.508,7.258c-.025,1.7.058,4.058.247,6.992a19.936,19.936,0,0,0,1.926,7.386,3.819,3.819,0,0,0,.83,1.241,7.484,7.484,0,0,0,1.643-2.767c1.094-2.62,1.68-6.613,1.758-11.906a53.387,53.387,0,0,0-1.029-11.266,30.912,30.912,0,0,0-2.336-7.281Z" fill="url(#linear-gradient-29)"/>
        <path id="Path_214" data-name="Path 214" d="M377.655,239.007a12.564,12.564,0,0,1-9.49-4.266,26.587,26.587,0,0,1-5.729-11.542,59.56,59.56,0,0,1-1.684-15.422q0-.15.086-4.475a57.093,57.093,0,0,1,2.067-12.1,39.992,39.992,0,0,1,5.645-13.04q3.666-5.27,8.816-6.232a10.157,10.157,0,0,1,1.487-.1q4.287.051,8.514,4.179t7.012,12.468A58.1,58.1,0,0,1,397,207.747a54.224,54.224,0,0,1-3.467,19.307q-4.407,10.951-14.779,11.928Zm-2.773-10.654q3.479.041,5.683-5.4,1.891-4.53,2.018-13.178a56.6,56.6,0,0,0-1.1-12,33.57,33.57,0,0,0-2.784-8.454q-1.711-3.319-3.745-3.61-2.463-.028-4.267,4.37a44.457,44.457,0,0,0-2.667,10.989,69.826,69.826,0,0,0-.536,7.656q-.039,2.694.254,7.268a23.358,23.358,0,0,0,2.271,8.695Q371.742,228.317,374.882,228.353Z" fill="url(#linear-gradient-30)"/>
        <path id="Path_215" data-name="Path 215" d="M410.087,240.631c-3.907-.323-8.937-2.46-10.705-10.807l-.022-.109c-2.363-13.207-3.4-24.2-3.1-32.672.075-2.03.431-5.63,1.092-11.006,1.043-8.507,5.958-11.774,9.9-13.017a9.385,9.385,0,0,1,3.045-.4c.162,0,.333.014.507.029,2.757.228,5.617,1.6,9,4.306a59.286,59.286,0,0,1,10.026,11.158q-.347-1.542-.724-3.086a10.318,10.318,0,0,1-.251-2.589,9.865,9.865,0,0,1,2.024-5.415,10.914,10.914,0,0,1,6.8-4.072l.17-.034a13.334,13.334,0,0,1,2.75-.215q.3.009.6.034a13.215,13.215,0,0,1,5.492,1.793,9.669,9.669,0,0,1,4.575,6.155,90.811,90.811,0,0,1,2.087,15.013,117.493,117.493,0,0,1,.179,11.933c-.068,1.83-.265,4.64-.585,8.354a49.461,49.461,0,0,1-3.04,12.834l-.049.125c-1.664,4.022-3.873,6.662-6.752,8.07a9.684,9.684,0,0,1-4.457,1.018c-.141,0-.284-.012-.427-.024a7.849,7.849,0,0,1-5.363-2.781,9.026,9.026,0,0,1-1.914-6.541,24.388,24.388,0,0,1,.6-4.291,4.417,4.417,0,0,0,.049-.55,16.664,16.664,0,0,0-1.25-5.643,65.539,65.539,0,0,0-4.268-9.311,89.807,89.807,0,0,0-5.965-9.568c-.724-1.005-1.381-1.858-1.972-2.581-.116,6.6,1.136,16.82,3.725,30.409a14.667,14.667,0,0,1,.232,3.064,11.155,11.155,0,0,1-2.183,6.2,10.458,10.458,0,0,1-6.948,4.117,12.09,12.09,0,0,1-2.183.143C410.554,240.664,410.319,240.651,410.087,240.631Z" fill="url(#linear-gradient-31)"/>
        <path id="Path_216" data-name="Path 216" d="M410.932,236.788q-5.685-.163-7.28-7.687-3.5-19.533-3.043-31.931.1-2.843,1.067-10.71t7.024-9.777a4.5,4.5,0,0,1,1.451-.186q2.672.077,6.758,3.346a56.846,56.846,0,0,1,9.466,10.636,155.61,155.61,0,0,1,10.912,17.585,153.1,153.1,0,0,0-3.931-23.873,6.6,6.6,0,0,1-.153-1.636,6.309,6.309,0,0,1,1.334-3.434,6.677,6.677,0,0,1,4.187-2.4,7.67,7.67,0,0,1,5.63,1.074,5.758,5.758,0,0,1,2.688,3.759,86.751,86.751,0,0,1,1.983,14.366A112.667,112.667,0,0,1,449.2,207.5q-.1,2.616-.574,8.181a45.694,45.694,0,0,1-2.832,11.911q-1.908,4.612-4.762,6.01a4.925,4.925,0,0,1-2.228.543,3.4,3.4,0,0,1-2.5-1.306,5.733,5.733,0,0,1-1-4.033,20.837,20.837,0,0,1,.516-3.667,7.472,7.472,0,0,0,.127-1.172,20.27,20.27,0,0,0-1.447-6.931,68.76,68.76,0,0,0-4.5-9.847,93.466,93.466,0,0,0-6.219-9.973,35.374,35.374,0,0,0-5.812-6.6,4,4,0,0,0-2.169-1.125q-1.738-.051-1.971,6.318-.372,10.275,3.765,31.99a11.1,11.1,0,0,1,.172,2.282,7.56,7.56,0,0,1-1.492,4.227,6.056,6.056,0,0,1-4.1,2.4A7.008,7.008,0,0,1,410.932,236.788Z" fill="url(#linear-gradient-32)"/>
      </g>
      <g id="Group_26" data-name="Group 26">
        <path id="Path_217" data-name="Path 217" d="M157.88,246.178q-3.932.312-8.121-2.821t-7.72-11.232q-5.115-11.589-6.683-27.383-.59-5.931-.579-14.2a71.518,71.518,0,0,1,2.165-17.024q2.157-8.759,6.615-13.643a11.9,11.9,0,0,1,8.079-4.03q7.357-.583,15.106,6.646a55.149,55.149,0,0,1,10.343,13.612l.471.878a3.077,3.077,0,0,1,.37,1.15,2.86,2.86,0,0,1-2,3.053,4.329,4.329,0,0,1-1.25.289,3.354,3.354,0,0,1-3.411-1.747l-.471-.876q-7.6-13.869-13.053-13.436l-.127.009q-3.387.651-5.541,5.791a47.9,47.9,0,0,0-3.039,12.941,102.591,102.591,0,0,0,1.847,34.051,35.039,35.039,0,0,0,4.365,11.116q2.964,4.755,7.23,4.8l.381-.03q5.792-.46,12.549-13.944a3.309,3.309,0,0,1,2.887-1.827,4.185,4.185,0,0,1,1.728.243,3,3,0,0,1,1.774,4.124q-5.158,10.273-10.065,15.366a29.765,29.765,0,0,1-9.818,7.119A13.515,13.515,0,0,1,157.88,246.178Z" fill="#fff"/>
        <path id="Path_218" data-name="Path 218" d="M204.245,243a12.783,12.783,0,0,1-9.834-3.587,27.2,27.2,0,0,1-6.727-11.1,60.107,60.107,0,0,1-3.032-15.257q-.01-.151-.306-4.468a56.794,56.794,0,0,1,1-12.2,39.268,39.268,0,0,1,4.483-13.4q3.19-5.509,8.242-6.83a9.92,9.92,0,0,1,1.474-.2q4.276-.252,8.853,3.568t8.085,11.938a58.639,58.639,0,0,1,4.31,19.021,53.793,53.793,0,0,1-1.763,19.49Q215.6,241.2,205.343,242.9Zm-3.7-10.426q3.473-.206,5.191-5.779,1.49-4.65.857-13.279a57.216,57.216,0,0,0-2.147-11.886,34.187,34.187,0,0,0-3.519-8.234q-2-3.19-4.051-3.336-2.459.144-3.87,4.656a43.98,43.98,0,0,0-1.692,11.142,69.311,69.311,0,0,0,.136,7.67q.2,2.689.891,7.228a23.741,23.741,0,0,0,3.028,8.509Q197.41,232.757,200.545,232.574Z" fill="#fff"/>
        <path id="Path_219" data-name="Path 219" d="M252.159,232.875c-.113,0-.652,0-1.616-.009a6.563,6.563,0,0,1-3.521-1.524,22.631,22.631,0,0,1-6.851,1.425,29.655,29.655,0,0,1-6.107-.6q-3.862-.693-7.1-4.926a13.158,13.158,0,0,1-2.47-7.453,20.881,20.881,0,0,1,4.238-14.038,21.853,21.853,0,0,1,7.86-6.555,18.474,18.474,0,0,1,7.423-1.867,22.829,22.829,0,0,1,2.6.044q-.538-3.813-2.411-4.684a1.906,1.906,0,0,0-.858-.154q-1.782.075-4.728,3.045a3.347,3.347,0,0,1-3.047,1.874,3.728,3.728,0,0,1-1.544-.278,2.95,2.95,0,0,1-1.788-4.141q7.236-8.692,12.313-10.765a11.2,11.2,0,0,1,3.694-.875,7.421,7.421,0,0,1,5.144,2.082q2.558,2.191,4.215,7.894a65.031,65.031,0,0,1,2.3,14.828,107.439,107.439,0,0,1-.007,11.279,60.252,60.252,0,0,1-1.087,9.311,5.565,5.565,0,0,1-2.224,4.573A7.875,7.875,0,0,1,252.159,232.875Zm-9.371-6.939a6.737,6.737,0,0,0,2.1-.468l.394-3.016a168.842,168.842,0,0,0,1.667-18.562l-.424.018a5.336,5.336,0,0,0-4.149,2.337,16.272,16.272,0,0,0-2.589,5.348,26.772,26.772,0,0,0-1.414,8.717,7.543,7.543,0,0,0,1.278,4.143A3.475,3.475,0,0,0,242.788,225.936Z" fill="#fff"/>
        <path id="Path_220" data-name="Path 220" d="M273.385,233.385a18.308,18.308,0,0,1-4.6-.434q-2.228-.5-3.031-3.9-2.3-11.812-3.011-31.11-.378-10.311-.109-18.062a5.582,5.582,0,0,1,2.337-4.585,7.781,7.781,0,0,1,4.365-1.418q.254-.008,1.742.025a6.146,6.146,0,0,1,3.455,1.588,5.513,5.513,0,0,1,2.071,4.36l.015.379a224.547,224.547,0,0,0-2.55,22.563q-.579,10.245-.8,24.028l4.757.012q4.381.177,4.484,2.981a3.7,3.7,0,0,1-.691,1.994,3.37,3.37,0,0,1-2.84,1.3l-1.487.005q-1.1.033-2.161.14T273.385,233.385Z" fill="#fff"/>
        <path id="Path_221" data-name="Path 221" d="M290.191,184.9a5.871,5.871,0,0,1-4.35-1.578,5.41,5.41,0,0,1-1.782-3.909,5.256,5.256,0,0,1,1.513-3.863,5.916,5.916,0,0,1,4.323-1.875,5.976,5.976,0,0,1,4.418,1.692,5.238,5.238,0,0,1,1.756,3.795,5.321,5.321,0,0,1-1.594,3.979A5.886,5.886,0,0,1,290.191,184.9Zm4.311,49.35A2.682,2.682,0,0,1,292,232.637a5.784,5.784,0,0,1-.578-2.606l.02-.911q.021-.8,0-1.745a80.513,80.513,0,0,0-.96-9.086q-.877-5.863-2.281-12.493t-2.431-10.061a14.407,14.407,0,0,1-.648-3.7,7.641,7.641,0,0,1,.94-3.758,5.075,5.075,0,0,1,3.522-2.521,6.836,6.836,0,0,1,1.565-.223,8.926,8.926,0,0,1,3.911.981,7.8,7.8,0,0,1,3.563,3.909,43.709,43.709,0,0,1,3.521,16.052,57.412,57.412,0,0,1-.89,11.326q-2.435,14.052-4.767,15.733A3.568,3.568,0,0,1,294.5,234.254Z" fill="#fff"/>
        <path id="Path_222" data-name="Path 222" d="M323.436,236.35q-.339,0-3.206-.176t-6.085-4.508a27.894,27.894,0,0,1-4.622-11.144,68.6,68.6,0,0,1-1.4-13.226q-.009-.683,0-4.874a77.173,77.173,0,0,1,1.15-11.335,3.642,3.642,0,0,1-3.28-.915,2.976,2.976,0,0,1-.962-2.115q0-.075.034-.721a2.641,2.641,0,0,1,1.083-1.566,17.16,17.16,0,0,1,4.723-2.552,32.7,32.7,0,0,1,3.08-8,6.947,6.947,0,0,1,4.12-3.038,8.458,8.458,0,0,1,1.908-.247,8.362,8.362,0,0,1,3.447.723,6.554,6.554,0,0,1,3.1,2.927,6.01,6.01,0,0,1,.584,2.5,6.764,6.764,0,0,1-.152,1.482l1.74-.057.807-.007a3.523,3.523,0,0,1,2.41.961,2.954,2.954,0,0,1,.94,2.153,2.743,2.743,0,0,1-1.053,2.249,3.956,3.956,0,0,1-2.556.9l-.6.006a28.923,28.923,0,0,0-3.731.341q-.879,4.259-1.567,10.3a117.868,117.868,0,0,0-.909,15.222,63.236,63.236,0,0,0,.729,8.851q.672,4.337,2.736,6.364a3.056,3.056,0,0,0,2.262.925A7.045,7.045,0,0,0,331.8,226.4a3.667,3.667,0,0,1,2.029-.627,10.6,10.6,0,0,1,1.105.1,2.976,2.976,0,0,1,1.756,1.12,3.022,3.022,0,0,1,.745,1.889,7.145,7.145,0,0,1-.115.95,2.807,2.807,0,0,1-1.3,1.568Q328.613,236.3,323.436,236.35Z" fill="#fff"/>
        <path id="Path_223" data-name="Path 223" d="M346.267,184.259a5.844,5.844,0,0,1-4.308-1.671,5.385,5.385,0,0,1-1.675-3.946,5.273,5.273,0,0,1,1.614-3.83,6.254,6.254,0,0,1,8.745,0,5.211,5.211,0,0,1,1.653,3.832,5.343,5.343,0,0,1-1.7,3.944A5.914,5.914,0,0,1,346.267,184.259Zm2.99,49.427a2.663,2.663,0,0,1-2.461-1.67,5.721,5.721,0,0,1-.508-2.617l.042-.911q.044-.8.044-1.744a80.177,80.177,0,0,0-.717-9.1q-.72-5.879-1.947-12.538t-2.16-10.108a14.425,14.425,0,0,1-.551-3.718,7.671,7.671,0,0,1,1.043-3.737,5.11,5.11,0,0,1,3.587-2.445,6.824,6.824,0,0,1,1.571-.188,8.89,8.89,0,0,1,3.884,1.062,7.741,7.741,0,0,1,3.456,3.984,43.56,43.56,0,0,1,3.092,16.124,57.482,57.482,0,0,1-1.194,11.3q-2.808,14-5.186,15.626A3.566,3.566,0,0,1,349.257,233.686Z" fill="#fff"/>
        <path id="Path_224" data-name="Path 224" d="M377.655,239.007a12.564,12.564,0,0,1-9.49-4.266,26.587,26.587,0,0,1-5.729-11.542,59.56,59.56,0,0,1-1.684-15.422q0-.15.086-4.475a57.093,57.093,0,0,1,2.067-12.1,39.992,39.992,0,0,1,5.645-13.04q3.666-5.27,8.816-6.232a10.157,10.157,0,0,1,1.487-.1q4.287.051,8.514,4.179t7.012,12.468A58.1,58.1,0,0,1,397,207.747a54.224,54.224,0,0,1-3.467,19.307q-4.407,10.951-14.779,11.928Zm-2.773-10.654q3.479.041,5.683-5.4,1.891-4.53,2.018-13.178a56.6,56.6,0,0,0-1.1-12,33.57,33.57,0,0,0-2.784-8.454q-1.711-3.319-3.745-3.61-2.463-.028-4.267,4.37a44.457,44.457,0,0,0-2.667,10.989,69.826,69.826,0,0,0-.536,7.656q-.039,2.694.254,7.268a23.358,23.358,0,0,0,2.271,8.695Q371.742,228.317,374.882,228.353Z" fill="#fff"/>
        <path id="Path_225" data-name="Path 225" d="M410.932,236.788q-5.685-.163-7.28-7.687-3.5-19.533-3.043-31.931.1-2.843,1.067-10.71t7.024-9.777a4.5,4.5,0,0,1,1.451-.186q2.672.077,6.758,3.346a56.846,56.846,0,0,1,9.466,10.636,155.61,155.61,0,0,1,10.912,17.585,153.1,153.1,0,0,0-3.931-23.873,6.6,6.6,0,0,1-.153-1.636,6.309,6.309,0,0,1,1.334-3.434,6.677,6.677,0,0,1,4.187-2.4,7.67,7.67,0,0,1,5.63,1.074,5.758,5.758,0,0,1,2.688,3.759,86.751,86.751,0,0,1,1.983,14.366A112.667,112.667,0,0,1,449.2,207.5q-.1,2.616-.574,8.181a45.694,45.694,0,0,1-2.832,11.911q-1.908,4.612-4.762,6.01a4.925,4.925,0,0,1-2.228.543,3.4,3.4,0,0,1-2.5-1.306,5.733,5.733,0,0,1-1-4.033,20.837,20.837,0,0,1,.516-3.667,7.472,7.472,0,0,0,.127-1.172,20.27,20.27,0,0,0-1.447-6.931,68.76,68.76,0,0,0-4.5-9.847,93.466,93.466,0,0,0-6.219-9.973,35.374,35.374,0,0,0-5.812-6.6,4,4,0,0,0-2.169-1.125q-1.738-.051-1.971,6.318-.372,10.275,3.765,31.99a11.1,11.1,0,0,1,.172,2.282,7.56,7.56,0,0,1-1.492,4.227,6.056,6.056,0,0,1-4.1,2.4A7.008,7.008,0,0,1,410.932,236.788Z" fill="#fff"/>
      </g>
    </g>
  </g>
</svg>
