<?xml version="1.0" encoding="utf-8"?>
<!-- Generator: Adobe Illustrator 21.1.0, SVG Export Plug-In . SVG Version: 6.00 Build 0)  -->
<svg version="1.1" id="Layer_1" xmlns="http://www.w3.org/2000/svg" xmlns:xlink="http://www.w3.org/1999/xlink" x="0px" y="0px"
	 viewBox="0 0 609 362" style="enable-background:new 0 0 609 362;" xml:space="preserve">
<style type="text/css">
	.st0{fill:#EFEFEF;}
	.st1{fill:#DC3E00;}
	.st2{fill:#6AA413;}
	.st3{fill:#009FB8;}
	.st4{fill:#D7A120;}
	.st5{fill:#00ADEF;}
	.st6{fill:#4D66CC;}
	.st7{fill:#89A1D4;}
	.st8{fill:none;stroke:#000000;stroke-width:3.4795;}
	.st9{fill:none;stroke:#09098F;stroke-width:3.4795;}
	.st10{fill:#EF3F36;}
	.st11{fill:#FCD900;}
	.st12{fill:#61BC5B;}
	.st13{fill:#5AB055;}
	.st14{fill:#FFFFFF;}
	.st15{fill:url(#SVGID_1_);}
	.st16{fill:#EACA05;}
	.st17{fill:#DF3A32;}
	.st18{fill:none;}
	.st19{fill:url(#path3638_1_);}
</style>
<path class="st0" d="M272.7,164.1H96.3c-6.3,0-11.5-5.2-11.5-11.5V20.5C84.9,14.2,90,9,96.3,9h176.4c6.3,0,11.5,5.2,11.5,11.5v132
	C284.1,158.9,279,164.1,272.7,164.1z"/>
<path class="st0" d="M510.3,167.5H333.9c-6.3,0-11.5-5.2-11.5-11.5V23.9c0-6.3,5.2-11.5,11.5-11.5h176.4c6.3,0,11.5,5.2,11.5,11.5
	v132C521.7,162.3,516.6,167.5,510.3,167.5z"/>
<path class="st0" d="M272.7,349.6H96.3c-6.3,0-11.5-5.2-11.5-11.5V206c0-6.3,5.2-11.5,11.5-11.5h176.4c6.3,0,11.5,5.2,11.5,11.5v132
	C284.1,344.4,279,349.6,272.7,349.6z"/>
<path class="st0" d="M510.3,353H333.9c-6.3,0-11.5-5.2-11.5-11.5V209.4c0-6.3,5.2-11.5,11.5-11.5h176.4c6.3,0,11.5,5.2,11.5,11.5
	v132C521.7,347.8,516.6,353,510.3,353z"/>
<g>
	<g id="_x23_dc3e00ff">
		<path class="st1" d="M131.8,37.9h2.2c4.5,0.2,8.9,1.7,12.4,4.6c-0.5,1.7-1,3.4-1.5,5.2c-1.7,6-3.4,11.9-5.2,18
			c0,0.1-0.1,0.1-0.2,0.1c-3.1-1.9-6.4-3.7-10.1-4.4c-1.9-0.5-4-0.1-5.8,0.2c-3.4,0.7-6.9,1.6-10.1,2.9c0.1-0.5,0.2-0.9,0.3-1.5
			c2.1-7.3,4.2-14.7,6.4-22.1C123.8,39.1,127.8,38.1,131.8,37.9z"/>
	</g>
	<g id="_x23_6aa413ff">
		<path class="st2" d="M149.9,45.3c0-0.1,0.1-0.2,0.1-0.3c3,2.3,6.6,3.8,10.3,4.5c3.1,0.6,6.2,0,9.3-0.7c2.3-0.6,4.5-1.3,6.6-2.2
			c-2.2,7.8-4.5,15.6-6.8,23.4c-2.9,1.3-5.8,2.3-8.9,2.7c-2.7,0.5-5.5,0.7-8.2,0.2c-3.4-0.7-6.6-2.3-9.3-4.7
			C145.4,60.4,147.6,52.9,149.9,45.3z"/>
	</g>
	<g id="_x23_009fb8ff">
		<path class="st3" d="M122.2,65.5c3.1-0.5,6.2-0.1,9.2,0.9c2.5,0.8,4.9,2.1,7.1,3.5c-2.3,7.9-4.6,15.7-6.9,23.6
			c-2.6-1.6-5.5-3.1-8.5-3.9c-1.5-0.5-3.1-0.7-4.7-0.6c-2.9,0.2-5.7,0.6-8.5,1.3c-1.6,0.3-3.1,0.9-4.6,1.6v-0.6l0.1,0.5
			c0.1-0.5,0.2-0.9,0.3-1.4c2.1-7.3,4.2-14.7,6.3-22C115.4,67.1,118.8,66,122.2,65.5z"/>
	</g>
	<g id="_x23_d7a120ff">
		<path class="st4" d="M135.5,95.1c2.2-7.6,4.4-15.2,6.6-22.9c2.2,1.4,4.5,2.5,6.9,3.4c1.6,0.6,3.2,1,4.8,1.1c2.7,0,5.6-0.2,8.4-0.9
			c2.2-0.6,4.2-1.3,6.3-2.1c-0.7,2.2-1.3,4.2-1.9,6.4c-1.6,5.6-3.2,11.2-4.8,16.9c-3.9,1.7-8.1,3-12.5,3.2h-1.8
			c-2.2-0.1-4.5-0.7-6.5-1.6c-1.9-0.8-3.7-1.9-5.4-3.1C135.2,95.6,135.5,95.3,135.5,95.1z"/>
	</g>
</g>
<path class="st5" d="M185.1,45l29.7-4v28.6l-29.7,0.1V45L185.1,45z M214.7,72.8v28.7L185,97.4V72.6L214.7,72.8L214.7,72.8z
	 M218.4,40.4l39.4-5.7v34.6l-39.4,0.3V40.4L218.4,40.4z M257.8,73.1v34.5l-39.4-5.6V73L257.8,73.1z"/>
<g>
	<path d="M125.3,137.3l0.2,1.3l0.2-1.1l1.9-6.9h1l1.8,6.9l0.2,1.1l0.2-1.3l1.5-6.6h1.3l-2.4,9.7h-1.1l-2.1-7.1l-0.1-0.8l-0.1,0.8
		l-2.1,7.1h-1.1l-2.4-9.7h1.5L125.3,137.3z"/>
	<path d="M135.2,131.2c0-0.2,0.1-0.3,0.2-0.5s0.3-0.2,0.6-0.2c0.2,0,0.5,0.1,0.6,0.2c0.1,0.1,0.2,0.3,0.2,0.5s-0.1,0.3-0.2,0.5
		s-0.3,0.2-0.6,0.2c-0.2,0-0.5-0.1-0.6-0.2C135.4,131.5,135.2,131.4,135.2,131.2z M136.5,140.3h-1.3v-7.2h1.3V140.3z"/>
	<path d="M139.7,133.1v0.9c0.2-0.3,0.6-0.6,0.9-0.8c0.3-0.2,0.8-0.2,1.3-0.2c0.3,0,0.7,0,0.9,0.1s0.6,0.2,0.7,0.5
		c0.1,0.2,0.3,0.5,0.5,0.8c0.1,0.3,0.1,0.7,0.1,1.3v4.8h-1.3v-4.8c0-0.2,0-0.6-0.1-0.7c-0.1-0.1-0.1-0.3-0.2-0.5s-0.2-0.2-0.5-0.2
		s-0.3-0.1-0.6-0.1c-0.5,0-0.8,0.1-1,0.3s-0.6,0.5-0.7,0.8v5.2h-1.3v-7.2h1.3L139.7,133.1L139.7,133.1z"/>
	<path d="M145.8,136.7c0-0.6,0.1-1,0.2-1.5s0.3-0.8,0.6-1.1c0.2-0.3,0.6-0.6,0.9-0.8c0.3-0.2,0.7-0.2,1.1-0.2c0.5,0,0.8,0.1,1.1,0.2
		c0.3,0.1,0.6,0.3,0.9,0.7v-3.8h1.3v10.3h-1.1l-0.1-0.8c-0.2,0.3-0.6,0.6-0.9,0.7c-0.3,0.1-0.7,0.2-1.1,0.2c-0.5,0-0.8-0.1-1.1-0.2
		c-0.3-0.1-0.7-0.5-0.9-0.8s-0.5-0.7-0.6-1.1s-0.2-0.9-0.2-1.5C145.8,136.9,145.8,136.7,145.8,136.7z M147,136.8c0,0.3,0,0.7,0.1,1
		s0.2,0.6,0.3,0.8s0.3,0.5,0.6,0.6c0.2,0.1,0.6,0.2,0.9,0.2c0.2,0,0.5,0,0.6-0.1s0.3-0.1,0.5-0.2s0.2-0.2,0.3-0.3s0.2-0.2,0.2-0.5
		V135c-0.1-0.1-0.2-0.2-0.2-0.5c0-0.2-0.2-0.2-0.3-0.3s-0.3-0.1-0.5-0.2c-0.1-0.1-0.3,0.1-0.6,0.1s-0.7,0.1-0.9,0.2
		s-0.5,0.3-0.6,0.6c-0.1,0.2-0.2,0.6-0.3,0.8S147,136.4,147,136.8C147,136.7,147,136.8,147,136.8z"/>
	<path d="M153.6,136.7c0-0.6,0.1-1,0.2-1.5s0.3-0.8,0.7-1.1c0.3-0.3,0.6-0.6,1-0.8c0.5-0.2,0.9-0.2,1.4-0.2s1,0.1,1.4,0.2
		c0.3,0.1,0.8,0.5,1,0.8s0.5,0.7,0.7,1.1c0.2,0.5,0.2,0.9,0.2,1.5v0.1c0,0.6-0.1,1-0.2,1.5c-0.1,0.5-0.3,0.8-0.7,1.1
		c-0.3,0.3-0.7,0.6-1,0.8s-0.9,0.2-1.4,0.2s-0.9-0.1-1.4-0.2s-0.8-0.5-1-0.8s-0.5-0.7-0.7-1.1s-0.2-0.9-0.2-1.5V136.7z M154.8,136.8
		c0,0.3,0,0.7,0.1,1s0.2,0.6,0.3,0.8s0.3,0.5,0.7,0.6s0.6,0.2,0.9,0.2c0.3,0,0.7-0.1,0.9-0.2s0.5-0.3,0.7-0.6
		c0.2-0.2,0.3-0.6,0.3-0.8s0.1-0.7,0.1-1v-0.1c0-0.3,0-0.7-0.1-1s-0.2-0.6-0.3-0.8s-0.3-0.5-0.7-0.6s-0.6-0.2-0.9-0.2
		c-0.3,0-0.7,0.1-0.9,0.2s-0.5,0.3-0.7,0.6c-0.2,0.2-0.3,0.6-0.3,0.8s-0.1,0.7-0.1,1V136.8z"/>
	<path d="M168.1,138.6l1.4-5.5h1.3l-2.1,7.2h-1l-1.7-5.5l-1.7,5.5h-1l-2.1-7.2h1.3l1.4,5.4l1.7-5.4h1L168.1,138.6z"/>
	<path d="M176.2,138.4c0-0.1,0-0.2-0.1-0.3s-0.1-0.2-0.2-0.3s-0.3-0.2-0.5-0.3c-0.1-0.1-0.5-0.2-0.9-0.2c-0.5-0.1-0.8-0.2-1-0.3
		s-0.6-0.2-0.8-0.5c-0.2-0.2-0.3-0.3-0.6-0.6c-0.2-0.2-0.2-0.5-0.2-0.8s0.1-0.6,0.2-0.8c0.1-0.2,0.3-0.5,0.6-0.7
		c0.2-0.2,0.5-0.3,0.8-0.5s0.7-0.1,1.1-0.1s0.8,0.1,1.1,0.2c0.3,0.1,0.7,0.2,0.9,0.5s0.5,0.5,0.6,0.7s0.2,0.6,0.2,0.9h-1.3
		c0-0.1,0-0.3-0.1-0.5c-0.1-0.1-0.1-0.2-0.3-0.5c-0.2-0.2-0.3-0.2-0.5-0.3c-0.1-0.1-0.5-0.1-0.7-0.1s-0.5,0-0.7,0.1
		s-0.3,0.1-0.5,0.2s-0.2,0.2-0.2,0.3s-0.1,0.2-0.1,0.3s0,0.2,0.1,0.3s0.1,0.2,0.2,0.3c0.1,0.1,0.3,0.1,0.5,0.2
		c0.1,0.1,0.5,0.1,0.8,0.2c0.5,0.1,0.8,0.2,1.1,0.3s0.6,0.2,0.8,0.5c0.2,0.2,0.3,0.3,0.5,0.6c0.1,0.2,0.1,0.5,0.1,0.8
		s-0.1,0.6-0.2,0.9c-0.1,0.3-0.3,0.5-0.6,0.7c-0.2,0.2-0.6,0.3-0.9,0.5c-0.3,0.1-0.7,0.1-1.1,0.1s-0.9-0.1-1.3-0.2s-0.7-0.3-0.9-0.6
		s-0.5-0.5-0.6-0.8s-0.2-0.6-0.2-0.9h1.3c0,0.2,0.1,0.5,0.2,0.7c0.1,0.2,0.2,0.3,0.5,0.5s0.3,0.2,0.6,0.2c0.2,0,0.3,0.1,0.6,0.1
		c0.2,0,0.5,0,0.7-0.1s0.3-0.1,0.5-0.2c0.1-0.1,0.2-0.2,0.3-0.3C176.1,138.5,176.2,138.5,176.2,138.4z"/>
	<path d="M182.8,140.3v-9.7h2.7c0.7,0,1.3,0.1,1.7,0.3c0.5,0.2,1,0.6,1.4,0.9c0.3,0.3,0.7,0.9,0.9,1.5s0.3,1.3,0.3,1.9v0.6
		c0,0.7-0.1,1.4-0.3,1.9s-0.5,1-0.9,1.5c-0.5,0.5-0.8,0.7-1.4,0.9s-1.1,0.3-1.8,0.3L182.8,140.3L182.8,140.3L182.8,140.3z
		 M184,131.6v7.7h1.4c0.6,0,1-0.1,1.4-0.2s0.7-0.5,1-0.7s0.5-0.7,0.6-1.1s0.2-0.9,0.2-1.5v-0.6c0-0.6-0.1-1-0.2-1.5
		s-0.3-0.8-0.6-1.1c-0.2-0.3-0.6-0.6-0.9-0.7c-0.3-0.1-0.8-0.2-1.3-0.2L184,131.6L184,131.6z"/>
	<path d="M194.6,140.5c-0.5,0-0.9-0.1-1.4-0.2s-0.8-0.5-1-0.7s-0.5-0.7-0.7-1.1s-0.2-0.9-0.2-1.4v-0.2c0-0.6,0.1-1.1,0.2-1.6
		s0.5-0.8,0.7-1.1s0.7-0.6,1-0.7c0.3-0.1,0.8-0.2,1.1-0.2c0.6,0,0.9,0.1,1.4,0.2s0.7,0.5,0.9,0.8s0.5,0.7,0.6,1.1
		c0.1,0.5,0.2,0.9,0.2,1.4v0.6h-4.9c0,0.3,0.1,0.7,0.1,0.9s0.2,0.6,0.5,0.8s0.5,0.3,0.7,0.5c0.2,0.1,0.6,0.2,0.9,0.2
		c0.5,0,0.8-0.1,1.1-0.2c0.3-0.1,0.6-0.5,0.8-0.7l0.8,0.6c-0.1,0.2-0.2,0.3-0.5,0.6c-0.2,0.2-0.3,0.3-0.6,0.5s-0.5,0.2-0.8,0.3
		C195.3,140.8,194.9,140.5,194.6,140.5z M194.5,133.9c-0.2,0-0.5,0-0.7,0.1s-0.3,0.2-0.6,0.3c-0.2,0.1-0.3,0.3-0.5,0.7
		c-0.1,0.3-0.2,0.6-0.2,0.9h3.7v-0.1c0-0.2,0-0.5-0.1-0.7s-0.1-0.5-0.3-0.7s-0.3-0.3-0.6-0.5C194.9,133.9,194.7,133.9,194.5,133.9z"
		/>
	<path d="M203,138.4c0-0.1,0-0.2-0.1-0.3s-0.1-0.2-0.2-0.3s-0.3-0.2-0.5-0.3c-0.1-0.1-0.5-0.2-0.9-0.2c-0.5-0.1-0.8-0.2-1-0.3
		s-0.6-0.2-0.8-0.5c-0.2-0.2-0.3-0.3-0.6-0.6c-0.2-0.2-0.2-0.5-0.2-0.8s0.1-0.6,0.2-0.8c0.1-0.2,0.3-0.5,0.6-0.7
		c0.2-0.2,0.5-0.3,0.8-0.5s0.7-0.1,1.1-0.1s0.8,0.1,1.1,0.2c0.3,0.1,0.7,0.2,0.9,0.5s0.5,0.5,0.6,0.7s0.2,0.6,0.2,0.9H203
		c0-0.1,0-0.3-0.1-0.5c-0.1-0.1-0.1-0.2-0.3-0.5c-0.2-0.2-0.3-0.2-0.5-0.3c-0.1-0.1-0.5-0.1-0.7-0.1s-0.5,0-0.7,0.1
		s-0.3,0.1-0.5,0.2s-0.2,0.2-0.2,0.3s-0.1,0.2-0.1,0.3s0,0.2,0.1,0.3s0.1,0.2,0.2,0.3c0.1,0.1,0.3,0.1,0.5,0.2
		c0.1,0.1,0.5,0.1,0.8,0.2c0.5,0.1,0.8,0.2,1.1,0.3s0.6,0.2,0.8,0.5c0.2,0.2,0.3,0.3,0.5,0.6c0.1,0.2,0.1,0.5,0.1,0.8
		s-0.1,0.6-0.2,0.9c-0.1,0.3-0.3,0.5-0.6,0.7c-0.2,0.2-0.6,0.3-0.9,0.5c-0.3,0.1-0.7,0.1-1.1,0.1s-0.9-0.1-1.3-0.2s-0.7-0.3-0.9-0.6
		s-0.5-0.5-0.6-0.8s-0.2-0.6-0.2-0.9h1.3c0,0.2,0.1,0.5,0.2,0.7c0.1,0.2,0.2,0.3,0.5,0.5s0.3,0.2,0.6,0.2c0.2,0,0.3,0.1,0.6,0.1
		c0.2,0,0.5,0,0.7-0.1s0.3-0.1,0.5-0.2c0.1-0.1,0.2-0.2,0.3-0.3C202.9,138.5,203,138.5,203,138.4z"/>
	<path d="M208,137l-0.8,0.8v2.5h-1.3V130h1.3v6.2l0.7-0.8l2.3-2.4h1.5l-2.9,3l3.2,4.2h-1.5L208,137z"/>
	<path d="M214.6,131.3v1.7h1.4v0.9h-1.4v4.5c0,0.2,0,0.3,0.1,0.5c0.1,0.1,0.1,0.2,0.2,0.2s0.1,0.1,0.2,0.1c0.1,0,0.2,0,0.3,0
		s0.2,0,0.3,0s0.2,0,0.2,0v1c-0.1,0-0.2,0-0.3,0.1s-0.3,0-0.6,0c-0.2,0-0.5,0-0.7-0.1s-0.3-0.2-0.6-0.3c-0.2-0.1-0.2-0.3-0.3-0.6
		c-0.1-0.2-0.1-0.6-0.1-0.9V134H212v-0.9h1.4v-1.7h1.3L214.6,131.3L214.6,131.3z"/>
	<path d="M216.9,136.7c0-0.6,0.1-1,0.2-1.5c0.1-0.5,0.3-0.8,0.7-1.1c0.3-0.3,0.6-0.6,1-0.8c0.5-0.2,0.9-0.2,1.4-0.2s1,0.1,1.4,0.2
		c0.3,0.1,0.8,0.5,1,0.8s0.5,0.7,0.7,1.1c0.2,0.5,0.2,0.9,0.2,1.5v0.1c0,0.6-0.1,1-0.2,1.5s-0.3,0.8-0.7,1.1c-0.3,0.3-0.7,0.6-1,0.8
		s-0.9,0.2-1.4,0.2s-0.9-0.1-1.4-0.2s-0.8-0.5-1-0.8s-0.5-0.7-0.7-1.1c-0.2-0.5-0.2-0.9-0.2-1.5V136.7z M218.2,136.8
		c0,0.3,0,0.7,0.1,1s0.2,0.6,0.3,0.8s0.3,0.5,0.7,0.6s0.6,0.2,0.9,0.2c0.3,0,0.7-0.1,0.9-0.2c0.2-0.1,0.5-0.3,0.7-0.6
		c0.2-0.2,0.3-0.6,0.3-0.8s0.1-0.7,0.1-1v-0.1c0-0.3,0-0.7-0.1-1s-0.2-0.6-0.3-0.8s-0.3-0.5-0.7-0.6c-0.3-0.1-0.6-0.2-0.9-0.2
		c-0.3,0-0.7,0.1-0.9,0.2s-0.5,0.3-0.7,0.6s-0.3,0.6-0.3,0.8s-0.1,0.7-0.1,1V136.8z"/>
	<path d="M231.2,136.8c0,0.6-0.1,1-0.2,1.5s-0.3,0.8-0.6,1.1c-0.2,0.3-0.6,0.6-0.9,0.8c-0.3,0.2-0.8,0.2-1.1,0.2
		c-0.5,0-0.8-0.1-1.1-0.2c-0.3-0.1-0.7-0.3-0.9-0.6v3.5H225V133h1.1l0.1,0.8c0.2-0.3,0.6-0.6,0.9-0.7c0.3-0.1,0.8-0.2,1.3-0.2
		s0.9,0.1,1.3,0.2s0.7,0.5,0.9,0.8s0.5,0.7,0.6,1.1c0.1,0.5,0.2,0.9,0.2,1.5v0.1h-0.2V136.8z M230,136.7c0-0.3,0-0.7-0.1-1
		s-0.2-0.6-0.3-0.8s-0.3-0.5-0.6-0.6c-0.2-0.1-0.6-0.2-0.9-0.2c-0.2,0-0.5,0-0.6,0.1s-0.3,0.1-0.5,0.2c-0.1,0.1-0.2,0.2-0.3,0.3
		s-0.2,0.2-0.2,0.3v3.4c0.1,0.1,0.2,0.2,0.2,0.3s0.2,0.2,0.3,0.3s0.3,0.1,0.5,0.2s0.3,0.1,0.6,0.1s0.6-0.1,0.9-0.2
		c0.3-0.1,0.5-0.3,0.6-0.6c0.1-0.2,0.2-0.6,0.3-0.8S230,137,230,136.7L230,136.7z"/>
</g>
<g>
	<path d="M388.2,130.6l3.2,8l3.2-8h1.7v9.7H395v-3.8l0.1-4.1l-3.2,7.9h-1l-3.2-7.9l0.1,4.1v3.8h-1.3v-9.7H388.2z"/>
	<path d="M402.9,140.3c0-0.1-0.1-0.2-0.1-0.3s0-0.2-0.1-0.5c-0.1,0.1-0.2,0.2-0.3,0.3c-0.1,0.1-0.3,0.2-0.5,0.3s-0.3,0.1-0.6,0.2
		s-0.5,0.1-0.7,0.1c-0.3,0-0.7,0-1-0.1s-0.6-0.2-0.8-0.5c-0.2-0.2-0.3-0.5-0.5-0.7c-0.1-0.2-0.2-0.6-0.2-0.8c0-0.3,0.1-0.7,0.2-1
		s0.3-0.6,0.7-0.8c0.3-0.2,0.6-0.3,1-0.5c0.5-0.1,0.8-0.1,1.4-0.1h1.3v-0.6c0-0.5-0.1-0.8-0.3-1c-0.2-0.2-0.7-0.3-1.1-0.3
		c-0.2,0-0.5,0-0.7,0.1s-0.3,0.1-0.5,0.2c-0.1,0.1-0.2,0.2-0.3,0.3c-0.1,0.1-0.1,0.2-0.1,0.5h-1.3c0-0.2,0.1-0.6,0.2-0.8
		s0.3-0.5,0.6-0.7c0.2-0.2,0.6-0.3,0.9-0.5c0.3-0.1,0.8-0.2,1.1-0.2c0.3,0,0.8,0,1.1,0.1c0.3,0.1,0.6,0.2,0.8,0.5
		c0.2,0.2,0.5,0.5,0.6,0.8s0.2,0.7,0.2,1v3.3c0,0.2,0,0.5,0.1,0.8s0.1,0.5,0.2,0.7v0.1L402.9,140.3L402.9,140.3L402.9,140.3z
		 M400.8,139.4c0.2,0,0.5,0,0.7-0.1s0.3-0.1,0.6-0.2s0.3-0.2,0.5-0.3c0.1-0.1,0.2-0.2,0.2-0.5v-1.5h-1c-0.7,0-1.3,0.1-1.6,0.3
		c-0.3,0.2-0.6,0.6-0.6,1c0,0.2,0,0.3,0.1,0.5c0.1,0.1,0.1,0.2,0.2,0.3s0.2,0.2,0.5,0.2S400.6,139.4,400.8,139.4z"/>
	<path d="M408.8,139.4c0.2,0,0.5,0,0.7-0.1s0.3-0.1,0.6-0.3c0.2-0.2,0.2-0.2,0.3-0.5c0.1-0.2,0.1-0.3,0.1-0.6h1.1
		c0,0.3-0.1,0.6-0.2,0.9c-0.1,0.3-0.3,0.6-0.6,0.8s-0.6,0.3-0.9,0.6s-0.7,0.2-1.1,0.2c-0.6,0-1-0.1-1.4-0.3c-0.3-0.2-0.7-0.5-1-0.8
		s-0.5-0.7-0.6-1.1c-0.1-0.5-0.2-0.9-0.2-1.4v-0.2c0-0.5,0.1-0.9,0.2-1.4s0.3-0.8,0.6-1.1c0.2-0.3,0.6-0.6,1-0.8
		c0.5-0.2,0.9-0.3,1.4-0.3s0.8,0.1,1.1,0.2s0.7,0.3,0.9,0.6c0.2,0.2,0.5,0.5,0.6,0.8s0.2,0.7,0.2,1h-1.1c0-0.2-0.1-0.5-0.1-0.6
		s-0.2-0.3-0.3-0.5c-0.1-0.1-0.3-0.2-0.6-0.3c-0.2-0.1-0.5-0.1-0.7-0.1c-0.3,0-0.7,0.1-0.9,0.2c-0.2,0.1-0.5,0.3-0.6,0.6
		c-0.1,0.2-0.2,0.6-0.3,0.8c-0.1,0.2-0.1,0.6-0.1,0.9v0.2c0,0.3,0,0.7,0.1,0.9s0.1,0.6,0.3,0.8c0.2,0.2,0.3,0.5,0.6,0.6
		C408.1,139.2,408.4,139.4,408.8,139.4z"/>
	<path d="M416.6,140.3v-9.7h2.7c0.7,0,1.3,0.1,1.7,0.3c0.5,0.2,1,0.6,1.4,0.9c0.3,0.3,0.7,0.9,0.9,1.5s0.3,1.3,0.3,1.9v0.6
		c0,0.7-0.1,1.4-0.3,1.9s-0.5,1-0.9,1.5c-0.5,0.5-0.8,0.7-1.4,0.9s-1.1,0.3-1.8,0.3L416.6,140.3L416.6,140.3L416.6,140.3z
		 M418,131.6v7.7h1.4c0.6,0,1-0.1,1.4-0.2s0.7-0.5,1-0.7s0.5-0.7,0.6-1.1c0.1-0.5,0.2-0.9,0.2-1.5v-0.6c0-0.6-0.1-1-0.2-1.5
		s-0.3-0.8-0.6-1.1c-0.2-0.3-0.6-0.6-0.9-0.7c-0.3-0.1-0.8-0.2-1.3-0.2L418,131.6L418,131.6z"/>
	<path d="M428.5,140.5c-0.5,0-0.9-0.1-1.4-0.2c-0.5-0.1-0.8-0.5-1-0.7s-0.5-0.7-0.7-1.1c-0.2-0.5-0.2-0.9-0.2-1.4v-0.2
		c0-0.6,0.1-1.1,0.2-1.6s0.5-0.8,0.7-1.1s0.7-0.6,1-0.7c0.3-0.1,0.8-0.2,1.1-0.2c0.6,0,0.9,0.1,1.4,0.2c0.5,0.1,0.7,0.5,0.9,0.8
		s0.5,0.7,0.6,1.1s0.2,0.9,0.2,1.4v0.6h-4.9c0,0.3,0.1,0.7,0.1,0.9s0.2,0.6,0.5,0.8s0.5,0.3,0.7,0.5c0.2,0.1,0.6,0.2,0.9,0.2
		c0.5,0,0.8-0.1,1.1-0.2c0.3-0.1,0.6-0.5,0.8-0.7l0.8,0.6c-0.1,0.2-0.2,0.3-0.5,0.6c-0.2,0.2-0.3,0.3-0.6,0.5s-0.5,0.2-0.8,0.3
		C429.2,140.8,428.9,140.5,428.5,140.5z M428.3,133.9c-0.2,0-0.5,0-0.7,0.1s-0.3,0.2-0.6,0.3c-0.2,0.1-0.3,0.3-0.5,0.7
		c-0.1,0.3-0.2,0.6-0.2,0.9h3.7v-0.1c0-0.2,0-0.5-0.1-0.7s-0.1-0.5-0.3-0.7c-0.2-0.2-0.3-0.3-0.6-0.5
		C428.7,133.9,428.6,133.9,428.3,133.9z"/>
	<path d="M437,138.4c0-0.1,0-0.2-0.1-0.3s-0.1-0.2-0.2-0.3s-0.3-0.2-0.5-0.3s-0.5-0.2-0.9-0.2c-0.5-0.1-0.8-0.2-1-0.3
		s-0.6-0.2-0.8-0.5c-0.2-0.2-0.3-0.3-0.6-0.6c-0.2-0.2-0.2-0.5-0.2-0.8s0.1-0.6,0.2-0.8s0.3-0.5,0.6-0.7c0.2-0.2,0.5-0.3,0.8-0.5
		s0.7-0.1,1.1-0.1s0.8,0.1,1.1,0.2s0.7,0.2,0.9,0.5s0.5,0.5,0.6,0.7s0.2,0.6,0.2,0.9H437c0-0.1,0-0.3-0.1-0.5
		c-0.1-0.1-0.1-0.2-0.3-0.5c-0.2-0.2-0.3-0.2-0.5-0.3c-0.1-0.1-0.5-0.1-0.7-0.1s-0.5,0-0.7,0.1s-0.3,0.1-0.5,0.2s-0.2,0.2-0.2,0.3
		s-0.1,0.2-0.1,0.3s0,0.2,0.1,0.3s0.1,0.2,0.2,0.3s0.3,0.1,0.5,0.2c0.1,0.1,0.5,0.1,0.8,0.2c0.5,0.1,0.8,0.2,1.1,0.3
		c0.3,0.1,0.6,0.2,0.8,0.5c0.2,0.2,0.3,0.3,0.5,0.6c0.1,0.2,0.1,0.5,0.1,0.8s-0.1,0.6-0.2,0.9c-0.1,0.3-0.3,0.5-0.6,0.7
		c-0.2,0.2-0.6,0.3-0.9,0.5s-0.7,0.1-1.1,0.1s-0.9-0.1-1.3-0.2s-0.7-0.3-0.9-0.6s-0.5-0.5-0.6-0.8s-0.2-0.6-0.2-0.9h1.3
		c0,0.2,0.1,0.5,0.2,0.7s0.2,0.3,0.5,0.5c0.2,0.1,0.3,0.2,0.6,0.2c0.2,0,0.3,0.1,0.6,0.1c0.2,0,0.5,0,0.7-0.1s0.3-0.1,0.5-0.2
		c0.1-0.1,0.2-0.2,0.3-0.3C436.9,138.5,437,138.5,437,138.4z"/>
	<path d="M441.9,137l-0.8,0.8v2.5h-1.3V130h1.3v6.2l0.7-0.8l2.3-2.4h1.5l-2.9,3l3.2,4.2h-1.5L441.9,137z"/>
	<path d="M448.4,131.3v1.7h1.4v0.9h-1.4v4.5c0,0.2,0,0.3,0.1,0.5c0.1,0.1,0.1,0.2,0.2,0.2s0.1,0.1,0.2,0.1s0.2,0,0.3,0
		c0.1,0,0.2,0,0.3,0c0.1,0,0.2,0,0.2,0v1c-0.1,0-0.2,0-0.3,0.1c-0.1,0.1-0.3,0-0.6,0s-0.5,0-0.7-0.1s-0.3-0.2-0.6-0.3
		c-0.2-0.1-0.2-0.3-0.3-0.6c-0.1-0.2-0.1-0.6-0.1-0.9V134h-1.4v-0.9h1.4v-1.7h1.1v-0.1H448.4z"/>
	<path d="M450.8,136.7c0-0.6,0.1-1,0.2-1.5s0.3-0.8,0.7-1.1c0.3-0.3,0.6-0.6,1-0.8c0.5-0.2,0.9-0.2,1.4-0.2s1,0.1,1.4,0.2
		c0.3,0.1,0.8,0.5,1,0.8s0.5,0.7,0.7,1.1c0.2,0.5,0.2,0.9,0.2,1.5v0.1c0,0.6-0.1,1-0.2,1.5s-0.3,0.8-0.7,1.1c-0.3,0.3-0.7,0.6-1,0.8
		s-0.9,0.2-1.4,0.2s-0.9-0.1-1.4-0.2c-0.5-0.1-0.8-0.5-1-0.8s-0.5-0.7-0.7-1.1c-0.2-0.5-0.2-0.9-0.2-1.5V136.7z M452.1,136.8
		c0,0.3,0,0.7,0.1,1s0.2,0.6,0.3,0.8c0.1,0.2,0.3,0.5,0.7,0.6s0.6,0.2,0.9,0.2s0.7-0.1,0.9-0.2s0.5-0.3,0.7-0.6
		c0.2-0.2,0.3-0.6,0.3-0.8s0.1-0.7,0.1-1v-0.1c0-0.3,0-0.7-0.1-1s-0.2-0.6-0.3-0.8c-0.1-0.2-0.3-0.5-0.7-0.6s-0.6-0.2-0.9-0.2
		s-0.7,0.1-0.9,0.2s-0.5,0.3-0.7,0.6s-0.3,0.6-0.3,0.8s-0.1,0.7-0.1,1V136.8z"/>
	<path d="M465.2,136.8c0,0.6-0.1,1-0.2,1.5s-0.3,0.8-0.6,1.1c-0.2,0.3-0.6,0.6-0.9,0.8s-0.8,0.2-1.1,0.2c-0.5,0-0.8-0.1-1.1-0.2
		c-0.3-0.1-0.7-0.3-0.9-0.6v3.5H459V133h1.1l0.1,0.8c0.2-0.3,0.6-0.6,0.9-0.7c0.3-0.1,0.8-0.2,1.3-0.2s0.9,0.1,1.3,0.2
		s0.7,0.5,0.9,0.8c0.2,0.3,0.5,0.7,0.6,1.1c0.1,0.5,0.2,0.9,0.2,1.5v0.1h-0.2V136.8z M463.9,136.7c0-0.3,0-0.7-0.1-1
		s-0.2-0.6-0.3-0.8c-0.1-0.2-0.3-0.5-0.6-0.6c-0.2-0.1-0.6-0.2-0.9-0.2c-0.2,0-0.5,0-0.6,0.1s-0.3,0.1-0.5,0.2
		c-0.1,0.1-0.2,0.2-0.3,0.3c-0.1,0.1-0.2,0.2-0.2,0.3v3.4c0.1,0.1,0.2,0.2,0.2,0.3s0.2,0.2,0.3,0.3c0.1,0.1,0.3,0.1,0.5,0.2
		s0.3,0.1,0.6,0.1c0.3,0,0.6-0.1,0.9-0.2c0.3-0.1,0.5-0.3,0.6-0.6c0.1-0.2,0.2-0.6,0.3-0.8C463.9,137.5,463.9,137,463.9,136.7
		L463.9,136.7z"/>
</g>
<g>
	<title>Layer 1</title>
	<g id="Layer_1_1_">
		<path id="svg_1" class="st6" d="M387,44.4h42.4l-8,16.9l-3.4,16l12,1.1l1.8,24.7h-44.9V44.4H387z"/>
		<path id="svg_2" class="st7" d="M429.2,44.4h33.6v59h-31.3L430.4,78l-12.6,0.2l2.9-16.9L429.2,44.4z"/>
		<path id="svg_3" class="st8" d="M430.9,90.6c8.4-0.1,14.5-2.1,19.5-5"/>
		<path id="svg_4" class="st9" d="M399.4,85.4c9.4,4.8,19.2,6,29.7,5.3"/>
		<path id="svg_5" class="st9" d="M407.7,54.1V63"/>
		<path id="svg_6" class="st8" d="M440,54.1V63"/>
		<path id="svg_7" class="st8" d="M436.3,35.3c-9.4,11.1-17.5,25.7-18.4,42.6h13.9c-3.4,11.6-1.6,24.5,3.7,34.9"/>
	</g>
</g>
<path class="st10" d="M183.3,215.2c0,0,23.7-1,36.3,22.8h-38.2c0,0-7.2-0.2-13.4,8.6c-1.7,3.7-3.7,7.4-1.5,14.9
	c-3.1-5.3-16.4-28.3-16.4-28.3S159.4,216.2,183.3,215.2L183.3,215.2z"/>
<path class="st11" d="M218.4,275.7c0,0-11,21.1-37.8,20c3.3-5.7,19.1-33.2,19.1-33.2s3.8-6.2-0.7-15.9c-2.3-3.4-4.6-6.9-12.1-8.8
	c6.1,0,32.8,0,32.8,0S229.6,254.5,218.4,275.7z"/>
<path class="st12" d="M148.5,275.8c0,0-12.8-20,1.6-42.8c3.3,5.7,19.1,33.2,19.1,33.2s3.4,6.4,14.1,7.3c4.1-0.3,8.2-0.6,13.7-6.2
	c-3,5.3-16.4,28.3-16.4,28.3S161.2,296.1,148.5,275.8L148.5,275.8z"/>
<path class="st13" d="M180.6,295.9l5.4-22.4c0,0,6-0.5,10.9-6C193.8,273,180.6,295.9,180.6,295.9L180.6,295.9z"/>
<path class="st14" d="M165.4,255.8c0-10,8-18,18-18s18,8,18,18c0,10-8,18-18,18S165.4,265.7,165.4,255.8L165.4,255.8z"/>
<linearGradient id="SVGID_1_" gradientUnits="userSpaceOnUse" x1="-254.3692" y1="363.058" x2="-254.3692" y2="363.0268" gradientTransform="matrix(923.3912 0 0 -923.3912 235065.5156 335485.5938)">
	<stop  offset="0" style="stop-color:#86BBE5"/>
	<stop  offset="1" style="stop-color:#1072BA"/>
</linearGradient>
<path class="st15" d="M168.3,255.8c0-8.2,6.6-14.9,14.9-14.9c8.2,0,14.9,6.6,14.9,14.9c0,8.3-6.6,14.9-14.9,14.9
	C175,270.8,168.3,264,168.3,255.8z"/>
<path class="st16" d="M219.5,237.9l-22.2,6.5c0,0-3.3-4.9-10.5-6.5C193.1,237.9,219.5,237.9,219.5,237.9L219.5,237.9z"/>
<path class="st17" d="M165.9,260.6c-3.1-5.4-15.9-27.5-15.9-27.5l16.4,16.3c0,0-1.7,3.4-1,8.5L165.9,260.6L165.9,260.6z"/>
<path class="st18" d="M108.9,186.7h38.9v38.9h-38.9V186.7z"/>
<path d="M408.1,315.6c0-0.2,0.1-0.3,0.2-0.5c0.1-0.1,0.3-0.2,0.6-0.2c0.2,0,0.5,0.1,0.6,0.2s0.2,0.3,0.2,0.5s-0.1,0.3-0.2,0.5
	c-0.1,0.1-0.3,0.2-0.6,0.2c-0.2,0-0.5-0.1-0.6-0.2C408.3,315.9,408.1,315.8,408.1,315.6z M409.5,324.7h-1.3v-7.2h1.3V324.7z"/>
<path d="M412.9,320.9v3.8h-1.3V315h3.5c0.6,0,1,0.1,1.5,0.2s0.8,0.3,1,0.6c0.2,0.2,0.5,0.6,0.7,0.9s0.2,0.8,0.2,1.1
	c0,0.5-0.1,0.9-0.2,1.3c-0.1,0.3-0.3,0.7-0.7,0.9c-0.3,0.2-0.7,0.5-1,0.6s-0.9,0.2-1.5,0.2L412.9,320.9L412.9,320.9L412.9,320.9z
	 M412.9,319.8h2.3c0.3,0,0.7,0,0.9-0.1s0.5-0.2,0.7-0.3c0.2-0.1,0.3-0.3,0.3-0.6c0-0.2,0.1-0.5,0.1-0.8c0-0.2,0-0.5-0.1-0.7
	s-0.2-0.5-0.3-0.6c-0.1-0.1-0.3-0.3-0.7-0.5s-0.6-0.1-0.9-0.1h-2.3V319.8z"/>
<path d="M424.6,324.7c0-0.1-0.1-0.2-0.1-0.3c0-0.1,0-0.2-0.1-0.5c-0.1,0.1-0.2,0.2-0.3,0.3c-0.1,0.1-0.3,0.2-0.5,0.3
	c-0.1,0.1-0.3,0.1-0.6,0.2s-0.5,0.1-0.7,0.1c-0.3,0-0.7,0-1-0.1s-0.6-0.2-0.8-0.5s-0.3-0.5-0.5-0.7c-0.1-0.2-0.2-0.6-0.2-0.8
	c0-0.3,0.1-0.7,0.2-1s0.3-0.6,0.7-0.8c0.3-0.2,0.6-0.3,1-0.5c0.5-0.1,0.8-0.1,1.4-0.1h1.3v-0.6c0-0.5-0.1-0.8-0.3-1
	c-0.2-0.2-0.7-0.3-1.1-0.3c-0.2,0-0.5,0-0.7,0.1s-0.3,0.1-0.5,0.2c-0.1,0.1-0.2,0.2-0.3,0.3c-0.1,0.1-0.1,0.2-0.1,0.5H420
	c0-0.2,0.1-0.6,0.2-0.8c0.1-0.2,0.3-0.5,0.6-0.7s0.6-0.3,0.9-0.5c0.3-0.1,0.8-0.2,1.1-0.2c0.3,0,0.8,0,1.1,0.1
	c0.3,0.1,0.6,0.2,0.8,0.5c0.2,0.2,0.5,0.5,0.6,0.8s0.2,0.7,0.2,1v3.3c0,0.2,0,0.5,0.1,0.8s0.1,0.5,0.2,0.7v0.1h-1.4v0.1H424.6z
	 M422.6,323.8c0.2,0,0.5,0,0.7-0.1s0.3-0.1,0.6-0.2s0.3-0.2,0.5-0.3c0.1-0.1,0.2-0.2,0.2-0.5v-1.5h-1c-0.7,0-1.3,0.1-1.6,0.3
	c-0.3,0.2-0.6,0.6-0.6,1c0,0.2,0,0.3,0.1,0.5c0.1,0.1,0.1,0.2,0.2,0.3c0.1,0.1,0.2,0.2,0.5,0.2S422.3,323.8,422.6,323.8z"/>
<path d="M427.3,321.1c0-0.6,0.1-1,0.2-1.5s0.3-0.8,0.6-1.1s0.6-0.6,0.9-0.8c0.3-0.2,0.7-0.2,1.1-0.2c0.5,0,0.8,0.1,1.1,0.2
	c0.3,0.1,0.6,0.3,0.9,0.7v-3.8h1.3v10.3h-1.1l-0.1-0.8c-0.2,0.3-0.6,0.6-0.9,0.7s-0.7,0.2-1.1,0.2c-0.5,0-0.8-0.1-1.1-0.2
	c-0.3-0.1-0.7-0.5-0.9-0.8c-0.2-0.3-0.5-0.7-0.6-1.1c-0.1-0.5-0.2-0.9-0.2-1.5L427.3,321.1L427.3,321.1z M428.5,321.2
	c0,0.3,0,0.7,0.1,1s0.2,0.6,0.3,0.8c0.1,0.2,0.3,0.5,0.6,0.6c0.2,0.1,0.6,0.2,0.9,0.2c0.2,0,0.5,0,0.6-0.1s0.3-0.1,0.5-0.2
	c0.1-0.1,0.2-0.2,0.3-0.3c0.1-0.1,0.2-0.2,0.2-0.5v-3.3c-0.1-0.1-0.2-0.2-0.2-0.5c0-0.2-0.2-0.2-0.3-0.3c-0.1-0.1-0.3-0.1-0.5-0.2
	c-0.1-0.1-0.3-0.1-0.6-0.1c-0.3,0-0.7,0.1-0.9,0.2s-0.5,0.3-0.6,0.6c-0.1,0.2-0.2,0.6-0.3,0.8s-0.1,0.7-0.1,1V321.2z"/>
<g>
	<title>Layer 1</title>
	<g id="layer1">
		
			<linearGradient id="path3638_1_" gradientUnits="userSpaceOnUse" x1="-253.2391" y1="362.1687" x2="-253.2207" y2="362.2457" gradientTransform="matrix(692.424 0 0 -861.892 175767.2813 312429.6563)">
			<stop  offset="0" style="stop-color:#000000"/>
			<stop  offset="1" style="stop-color:#000000;stop-opacity:0"/>
		</linearGradient>
		<path id="path3638" class="st19" d="M410.8,286.9c-4.6-1.4-11.1-11-13.4-19.9c-4.6-17.3,7-31.9,20.7-26.3c3.8,1.6,4,1.6,8.5,0.1
			c8-2.6,15.3-0.9,17.9,4c0.8,1.5,0.7,1.8-1.5,4c-5.6,5.7-5,14.8,1.3,19.2c2.6,1.9,2.7,3,0.7,7.4c-4.7,10.1-9.4,13.1-17.2,10.5
			c-4-1.3-5.5-1.3-10.1,0.3C414.2,287.6,413.3,287.7,410.8,286.9L410.8,286.9L410.8,286.9z M403.8,254.9c6.9-6.9-12.4,1.3,6.5-6.6
			c4.7-1.9,2.1-2.7-0.2-3.4c-2.9-0.9,21.1-4.4,16.4-2.7c-4.7,1.6-9.4,9.4-13.1,12.1c-11.3,8.4-18-6.1-15.3,8.8
			c1.4,7.7-2.6-4.1,0.2-8.1C400,252.6,401,257.6,403.8,254.9L403.8,254.9z M405.4,261.2c1.4-0.7-0.7-6.5,0.6-7.6
			c2.2-1.8,5.7,0.2,10.4-6.3c0.7-0.9,4.5-2.1,11.2,2.2c5.2,3.2-10.4,4.1-15.3,10C406.4,266,399.4,264,405.4,261.2z M421.1,239.7
			c-1.9-3,2.7-10.9,7.9-13.3c5-2.4,6.4-1.3,4.8,4.2C432,236.9,423.3,243.1,421.1,239.7L421.1,239.7z M412.9,249.6
			c1.6-1,0.8-0.6,1.5-0.9c6.3-3.5,2.4,0.6,1.1-0.6c-1-0.9,0.7,0.2,0.5,0.6c-1.4,1.4,1.3-3.3-0.5,0.5
			C414,252.6,409.1,252.1,412.9,249.6L412.9,249.6z"/>
	</g>
</g>
<g>
	<path d="M150.7,322.5l1.3,0.3c-0.3,1.1-0.8,1.9-1.5,2.5c-0.7,0.6-1.6,0.9-2.6,0.9c-1.1,0-2-0.2-2.6-0.7c-0.7-0.4-1.2-1.1-1.5-1.9
		c-0.4-0.8-0.5-1.7-0.5-2.7c0-1,0.2-2,0.6-2.7c0.4-0.8,1-1.4,1.7-1.8c0.7-0.4,1.5-0.6,2.4-0.6c1,0,1.8,0.3,2.5,0.8s1.2,1.2,1.4,2.2
		l-1.3,0.3c-0.2-0.7-0.6-1.3-1-1.6s-1-0.5-1.7-0.5c-0.8,0-1.4,0.2-1.9,0.6c-0.5,0.4-0.9,0.9-1.1,1.5c-0.2,0.6-0.3,1.3-0.3,1.9
		c0,0.9,0.1,1.6,0.4,2.2c0.2,0.6,0.6,1.1,1.2,1.4s1.1,0.5,1.7,0.5c0.7,0,1.4-0.2,1.9-0.6S150.5,323.3,150.7,322.5z"/>
	<path d="M153.5,326v-10h1.2v3.6c0.6-0.7,1.3-1,2.2-1c0.5,0,1,0.1,1.4,0.3c0.4,0.2,0.7,0.5,0.9,0.9c0.2,0.4,0.3,0.9,0.3,1.6v4.6
		h-1.2v-4.6c0-0.6-0.1-1.1-0.4-1.3c-0.3-0.3-0.6-0.4-1.1-0.4c-0.4,0-0.7,0.1-1,0.3c-0.3,0.2-0.6,0.4-0.7,0.8s-0.2,0.8-0.2,1.3v4
		H153.5z"/>
	<path d="M161.3,326v-7.3h1.1v1.1c0.3-0.5,0.5-0.9,0.8-1c0.2-0.2,0.5-0.2,0.8-0.2c0.4,0,0.8,0.1,1.3,0.4l-0.4,1.1
		c-0.3-0.2-0.6-0.3-0.9-0.3c-0.3,0-0.5,0.1-0.7,0.2c-0.2,0.2-0.4,0.4-0.5,0.7c-0.1,0.4-0.2,0.9-0.2,1.4v3.8H161.3z"/>
	<path d="M165.5,322.4c0-1.3,0.4-2.3,1.1-3c0.6-0.5,1.4-0.8,2.3-0.8c1,0,1.8,0.3,2.4,1c0.6,0.7,1,1.6,1,2.7c0,0.9-0.1,1.7-0.4,2.2
		c-0.3,0.5-0.7,1-1.2,1.2c-0.5,0.3-1.1,0.4-1.8,0.4c-1,0-1.8-0.3-2.5-1C165.8,324.5,165.5,323.6,165.5,322.4z M166.8,322.4
		c0,0.9,0.2,1.6,0.6,2.1c0.4,0.5,0.9,0.7,1.5,0.7c0.6,0,1.1-0.2,1.5-0.7s0.6-1.2,0.6-2.1c0-0.9-0.2-1.6-0.6-2
		c-0.4-0.5-0.9-0.7-1.5-0.7c-0.6,0-1.1,0.2-1.5,0.7S166.8,321.4,166.8,322.4z"/>
	<path d="M173.8,326v-7.3h1.1v1c0.2-0.4,0.5-0.6,0.9-0.9c0.4-0.2,0.8-0.3,1.3-0.3c0.5,0,1,0.1,1.3,0.3c0.3,0.2,0.6,0.5,0.7,0.9
		c0.6-0.8,1.3-1.3,2.2-1.3c0.7,0,1.3,0.2,1.7,0.6c0.4,0.4,0.6,1,0.6,1.8v5h-1.2v-4.6c0-0.5,0-0.8-0.1-1.1c-0.1-0.2-0.2-0.4-0.4-0.5
		s-0.5-0.2-0.7-0.2c-0.5,0-0.9,0.2-1.3,0.5c-0.3,0.3-0.5,0.9-0.5,1.6v4.2h-1.2v-4.7c0-0.5-0.1-1-0.3-1.2s-0.5-0.4-1-0.4
		c-0.3,0-0.7,0.1-1,0.3c-0.3,0.2-0.5,0.4-0.6,0.8s-0.2,0.9-0.2,1.5v3.8H173.8z"/>
	<path d="M190.4,323.7l1.3,0.2c-0.2,0.7-0.6,1.3-1.1,1.7s-1.2,0.6-2.1,0.6c-1.1,0-1.9-0.3-2.5-1c-0.6-0.7-0.9-1.6-0.9-2.8
		c0-1.2,0.3-2.2,0.9-2.8s1.4-1,2.4-1c1,0,1.8,0.3,2.4,1s0.9,1.6,0.9,2.8c0,0.1,0,0.2,0,0.3h-5.4c0,0.8,0.3,1.4,0.7,1.8
		s0.9,0.6,1.5,0.6c0.5,0,0.8-0.1,1.2-0.4S190.2,324.2,190.4,323.7z M186.4,321.7h4.1c-0.1-0.6-0.2-1.1-0.5-1.4
		c-0.4-0.5-0.9-0.7-1.5-0.7c-0.6,0-1,0.2-1.4,0.6C186.6,320.5,186.4,321,186.4,321.7z"/>
	<path d="M194.4,326h-1.1v-10h1.2v3.6c0.5-0.7,1.2-1,2-1c0.4,0,0.9,0.1,1.3,0.3c0.4,0.2,0.7,0.4,1,0.8c0.3,0.3,0.5,0.7,0.6,1.2
		s0.2,1,0.2,1.5c0,1.2-0.3,2.2-0.9,2.9s-1.4,1-2.2,1c-0.9,0-1.5-0.4-2-1.1V326z M194.3,322.3c0,0.9,0.1,1.5,0.4,1.9
		c0.4,0.6,0.9,1,1.6,1c0.5,0,1-0.2,1.4-0.7c0.4-0.5,0.6-1.2,0.6-2.1c0-0.9-0.2-1.6-0.6-2.1c-0.4-0.5-0.8-0.7-1.4-0.7
		c-0.5,0-1,0.2-1.4,0.7C194.5,320.8,194.3,321.4,194.3,322.3z"/>
	<path d="M200.5,322.4c0-1.3,0.4-2.3,1.1-3c0.6-0.5,1.4-0.8,2.3-0.8c1,0,1.8,0.3,2.4,1c0.6,0.7,1,1.6,1,2.7c0,0.9-0.1,1.7-0.4,2.2
		c-0.3,0.5-0.7,1-1.2,1.2c-0.5,0.3-1.1,0.4-1.8,0.4c-1,0-1.8-0.3-2.5-1C200.9,324.5,200.5,323.6,200.5,322.4z M201.8,322.4
		c0,0.9,0.2,1.6,0.6,2.1c0.4,0.5,0.9,0.7,1.5,0.7c0.6,0,1.1-0.2,1.5-0.7s0.6-1.2,0.6-2.1c0-0.9-0.2-1.6-0.6-2
		c-0.4-0.5-0.9-0.7-1.5-0.7c-0.6,0-1.1,0.2-1.5,0.7S201.8,321.4,201.8,322.4z"/>
	<path d="M208.3,322.4c0-1.3,0.4-2.3,1.1-3c0.6-0.5,1.4-0.8,2.3-0.8c1,0,1.8,0.3,2.4,1c0.6,0.7,1,1.6,1,2.7c0,0.9-0.1,1.7-0.4,2.2
		c-0.3,0.5-0.7,1-1.2,1.2c-0.5,0.3-1.1,0.4-1.8,0.4c-1,0-1.8-0.3-2.5-1C208.6,324.5,208.3,323.6,208.3,322.4z M209.6,322.4
		c0,0.9,0.2,1.6,0.6,2.1c0.4,0.5,0.9,0.7,1.5,0.7c0.6,0,1.1-0.2,1.5-0.7s0.6-1.2,0.6-2.1c0-0.9-0.2-1.6-0.6-2
		c-0.4-0.5-0.9-0.7-1.5-0.7c-0.6,0-1.1,0.2-1.5,0.7S209.6,321.4,209.6,322.4z"/>
	<path d="M216.6,326v-10h1.2v5.7l2.9-3h1.6l-2.8,2.7l3.1,4.6h-1.5l-2.4-3.7l-0.9,0.8v2.9H216.6z"/>
</g>
</svg>
