<svg width="150" height="28" viewBox="0 0 150 28" fill="none" xmlns="http://www.w3.org/2000/svg">
<path d="M6.79137 0C3.01049 0 2.38572e-09 3.59781 0 13.5823C2.38572e-09 22.1704 1.6888 27.1631 6.79137 27.1631C12.3716 27.1631 13.032 21.6571 13.032 17.1063L8.99396 16.9218C8.91929 20.7032 8.55336 23.1242 6.97449 23.1242C5.50632 23.1242 4.99323 22.1708 4.99323 13.5827C4.99323 4.69905 5.98227 4.03754 6.97449 4.03754C8.14874 4.03754 8.69901 5.65307 8.69901 9.98552L12.957 9.83828C12.957 5.06661 12.2964 0 6.79137 0ZM20.362 0.000476881C16.1421 0.000476881 13.3884 3.26787 13.3884 13.5827C13.3884 23.8962 16.1421 27.1636 20.362 27.1636C24.5826 27.1636 27.336 23.896 27.336 13.5827C27.336 12.1558 27.2814 10.8685 27.1794 9.7013C28.8223 15.1827 35.4777 16.506 35.4777 20.5927C35.4777 21.6572 34.9274 23.1242 33.3483 23.1242C31.2925 23.1242 31.2925 20.5562 31.2925 19.0876V19.0871H27.0345C27.0345 22.6857 28.0635 27.1631 33.1656 27.1631C35.9704 27.1631 37.9133 25.7998 38.924 23.7393V26.6497H42.4485V7.48891H42.5212L45.7149 26.6497H48.3573L51.5883 7.48891H51.6619V26.6497H55.9194V14.0836C56.0086 23.9983 58.7387 27.1636 62.8897 27.1636C66.6924 27.1636 69.3031 24.5085 69.7831 16.4409V26.6497H74.5545V16.1884H76.464C79.955 16.1884 81.8396 14.2699 82.501 11.198C82.465 11.9487 82.4446 12.7399 82.4446 13.5827C82.4446 23.8962 85.1979 27.1636 89.4177 27.1636C93.6402 27.1636 96.3932 23.8959 96.3932 13.5827C96.3932 3.26786 93.6402 0.00046505 89.4177 0.00046505C86.0527 0.00046505 83.6219 2.08284 82.7745 8.15523C82.7149 2.63687 79.8939 0.515351 74.5545 0.515351H69.7831V10.7241C69.3031 2.65532 66.6924 0.00046596 62.8897 0.00046596C58.7387 0.00046596 56.0086 3.16582 55.9194 13.0818V0.515352H49.7156L47.4767 13.9122H47.404L45.2741 0.515352H38.924V6.29978C38.4802 2.51322 36.7478 0.00046596 32.9825 0.00046596C28.9875 0.00046596 26.8619 3.12691 26.8169 6.99592C25.832 1.81393 23.5044 0.00046596 20.362 0.00046596V0.000476881ZM96.4952 0.515363V26.6497H107.361V22.6117H101.268V0.515363H96.4952V0.515363ZM108.126 0.515363V26.6497H112.897V0.515363H108.126V0.515363ZM113.699 0.515363V4.55291H117.811V26.6497H122.583V4.55291H126.64L123.538 26.6497H127.538L128.198 20.8499H132.055L132.75 26.6497H137.08H137.339H141.117V10.8285H141.191L146.293 26.6497H150V0.515363H146.183V14.3157H146.11L141.742 0.515363H137.08V24.5505L134.108 0.515363H127.208L126.693 4.17874V0.515363H113.699V0.515363ZM20.362 4.03754C21.464 4.03754 22.1238 5.17573 22.1238 10.8284V16.3352C22.1238 21.9876 21.464 23.1242 20.362 23.1242C19.26 23.1242 18.5997 21.9876 18.5997 16.3352V10.8284C18.5997 5.17573 19.26 4.03754 20.362 4.03754V4.03754ZM32.8707 4.03754C34.7797 4.03754 34.7797 6.49741 34.7797 7.96605H38.924V16.2564C36.7715 11.699 31.073 10.0272 31.073 6.42419C31.073 4.99252 31.7339 4.03754 32.8707 4.03754V4.03754ZM62.8897 4.03754C63.99 4.03754 64.651 5.17573 64.651 10.8284V16.3352C64.651 21.9876 63.99 23.1242 62.8897 23.1242C61.7885 23.1242 61.1274 21.9876 61.1274 16.3352V10.8284C61.1274 5.17573 61.7885 4.03754 62.8897 4.03754V4.03754ZM89.4182 4.03754C90.5211 4.03754 91.1805 5.17573 91.1805 10.8284V16.3352C91.1805 21.9876 90.5211 23.1242 89.4182 23.1242C88.3177 23.1242 87.6569 21.9876 87.6569 16.3352V10.8284C87.6569 5.17573 88.3177 4.03754 89.4182 4.03754V4.03754ZM74.5932 4.5529H74.9581C76.5367 4.5529 78.0054 4.66254 78.0054 8.44366C78.0054 11.6 76.9407 12.3717 74.9953 12.3717H74.5932V4.5529ZM130.18 4.5529H130.254L131.648 17.0332H128.678L130.18 4.5529V4.5529Z" fill="#ADB0B3"/>
</svg>
