<svg width="120" height="38" viewBox="0 0 120 38" fill="none" xmlns="http://www.w3.org/2000/svg">
<path fill-rule="evenodd" clip-rule="evenodd" d="M9.30175 37.2816H12.0932V22.3689H9.30175V37.2816ZM19.5344 37.0579H22.0346V27.6489L32.5584 37.2816V22.5926H30.0652V31.8408L19.5344 22.3689V37.0579ZM38.266 33.4462C39.6268 34.5064 41.2602 35.1192 43.0113 35.1192C44.7169 35.1192 45.9134 34.532 45.9134 33.2353C45.9134 32.1052 45.1503 31.6625 43.814 31.1674L41.6505 30.4159C39.6559 29.7076 38.139 28.673 38.139 26.2951C38.139 23.7518 40.4353 22.3689 43.1814 22.3689C44.8637 22.3689 46.3969 22.7918 47.5946 23.541V26.0633C46.3491 25.1429 44.986 24.5091 43.235 24.5091C41.7274 24.5091 40.6008 25.0718 40.6008 26.245C40.6008 27.3052 41.308 27.7293 42.5534 28.1557L44.9639 29.0016C47.2998 29.8229 48.3717 31.0963 48.3717 33.1911C48.3717 35.8264 46.0532 37.2816 43.0113 37.2816C41.012 37.2816 39.3122 36.7223 38.266 36.0163V33.4462ZM54.8843 37.2816H57.6746V22.3689H54.8843V37.2816ZM70.7651 35.0249C73.9107 35.0249 75.5919 33.007 75.5919 29.8217C75.5919 26.6132 73.9095 24.6023 70.7651 24.6023H67.6544V35.0249H70.7651V35.0249ZM65.1146 22.3689H70.8583C75.2796 22.3689 78.1386 25.2816 78.1386 29.8217C78.1386 34.3654 75.2796 37.2816 70.8583 37.2816H65.1146V22.3689ZM92.0936 22.3689V24.6023H85.3398V28.1907H91.3969V30.3984H85.3386V35.0249H92.0936V37.2816H82.7907V22.3689H92.0936ZM101.999 29.1216H104.768C106.407 29.1216 107.331 28.2221 107.331 26.8392C107.331 25.4563 106.407 24.5557 104.768 24.5557H101.999V29.1227V29.1216ZM101.999 31.2303V37.2816H99.5348V22.3689H104.815C107.825 22.3689 109.773 23.9196 109.773 26.8392C109.773 29.3359 108.692 30.7701 106.389 31.1382L111.628 37.2816H108.825L103.752 31.2315H102L101.999 31.2303ZM8.3266 7.67767C9.41825 7.27806 10.2687 6.07922 10.2687 4.43068C10.2687 1.68349 8.3266 0.259806 5.21942 0.259806H0V15.5953H5.70408C8.81126 15.5953 10.7534 14.0715 10.7534 11.1996C10.7534 9.57553 9.73398 8.15184 8.3266 7.67767ZM2.45126 6.70369V2.50835H5.19612C6.92039 2.50835 7.84194 3.13282 7.84194 4.58097C7.84194 6.02913 6.91922 6.70369 5.19612 6.70369H2.45126ZM2.45126 8.85204H5.65515C7.35612 8.85204 8.27767 9.70019 8.27767 11.0994C8.27767 12.473 7.35495 13.348 5.65631 13.348H2.45243V8.85087L2.45126 8.85204ZM22.1417 15.8447C25.7103 15.8447 28.1138 13.6963 28.1138 9.50097V0.259806H25.5891V9.20039C25.5891 12.148 24.3751 13.5227 22.1417 13.5227C19.9083 13.5227 18.6955 12.148 18.6955 9.20039V0.259806H16.1709V9.47534C16.1709 13.6963 18.5977 15.8447 22.1417 15.8447V15.8447ZM34.0579 14.4955C35.1017 15.2458 36.8016 15.8447 38.7915 15.8447C41.8264 15.8447 44.132 14.2951 44.132 11.499C44.132 9.27612 43.0649 7.92699 40.7336 7.0532L38.3313 6.15379C37.0928 5.70524 36.3891 5.25553 36.3891 4.13126C36.3891 2.88233 37.5052 2.2835 39.0105 2.2835C40.7581 2.2835 42.1177 2.95689 43.3561 3.93204V1.25825C42.1666 0.460194 40.6369 0.0104854 38.9616 0.0104854C36.219 0.0104854 33.9367 1.48427 33.9367 4.18136C33.9367 6.70369 35.4419 7.80233 37.4318 8.55146L39.593 9.35068C40.9282 9.87495 41.6808 10.3503 41.6808 11.5491C41.6808 12.9227 40.4913 13.5472 38.7915 13.5472C37.0439 13.5472 35.4175 12.8971 34.0579 11.774V14.4955V14.4955ZM53.153 0.259806H50.6295V15.5942H53.153V0.259806ZM60.3553 15.5755H62.788V5.59922L73.0264 15.8132V0.236505H70.6008V10.0427L60.3553 0V15.5755V15.5755ZM88.8023 0.263301V2.55961H82.2478V6.25048H88.1254V8.52116H82.2478V13.2781H88.8023V15.5988H79.7732V0.263301H88.8023ZM94.68 14.485C95.7239 15.2353 97.4225 15.8342 99.4136 15.8342C102.447 15.8342 104.754 14.2858 104.754 11.4885C104.754 9.26563 103.686 7.91767 101.356 7.04272L98.9522 6.14447C97.7138 5.69476 97.0101 5.24505 97.0101 4.12078C97.0101 2.87184 98.1262 2.27301 99.6315 2.27301C101.379 2.27301 102.739 2.94757 103.977 3.92155V1.24893C102.788 0.449709 101.258 0 99.5825 0C96.84 0 94.5577 1.47379 94.5577 4.17087C94.5577 6.6932 96.0629 7.79184 98.0528 8.54097L100.214 9.34019C101.549 9.86447 102.302 10.3398 102.302 11.5386C102.302 12.9122 101.113 13.5367 99.4124 13.5367C97.6649 13.5367 96.0384 12.8878 94.68 11.7635V14.485V14.485ZM109.926 14.485C110.97 15.2353 112.67 15.8342 114.659 15.8342C117.694 15.8342 120 14.2858 120 11.4885C120 9.26563 118.932 7.91767 116.602 7.04272L114.198 6.14447C112.961 5.69476 112.256 5.24505 112.256 4.12078C112.256 2.87184 113.373 2.27301 114.877 2.27301C116.625 2.27301 117.986 2.94757 119.223 3.92155V1.24893C118.035 0.449709 116.505 0 114.83 0C112.086 0 109.805 1.47379 109.805 4.17087C109.805 6.6932 111.31 7.79184 113.3 8.54097L115.461 9.34019C116.796 9.86447 117.549 10.3398 117.549 11.5386C117.549 12.9122 116.359 13.5367 114.659 13.5367C112.912 13.5367 111.285 12.8878 109.926 11.7635V14.485V14.485Z" fill="#ADB0B3"/>
</svg>
