<svg width="185" height="25" viewBox="0 0 185 25" fill="none" xmlns="http://www.w3.org/2000/svg">
<path d="M13.8675 2.51222C13.8675 0.502444 11.9582 0 10.4508 0V0.301467C11.3552 0.301467 12.0587 0.602933 12.0587 1.30636C12.0587 1.70831 11.7572 2.31124 10.8528 2.31124C10.1494 2.31124 8.64204 1.90929 7.53666 1.50733C6.23031 1.00489 5.02444 0.602933 4.01955 0.602933C2.00978 0.602933 0.602933 2.11027 0.602933 3.81858C0.602933 5.32591 1.70831 5.82835 2.11027 6.02933L2.21076 5.82835C2.00978 5.62738 1.70831 5.4264 1.70831 4.82346C1.70831 4.42151 2.11027 3.71809 3.11515 3.71809C4.01955 3.71809 5.22542 4.12004 6.83324 4.62249C8.24009 5.02444 9.74742 5.32591 10.5513 5.4264V8.54155L9.044 9.84791V9.9484L10.5513 11.2548V15.5758C9.74742 16.0782 8.84302 16.1787 8.03911 16.1787C6.53178 16.1787 5.22542 15.7768 4.12004 14.5709L8.24009 12.5611V5.62738L3.21564 7.83813C3.6176 6.53178 4.72298 5.62738 5.82835 5.02444L5.72787 4.72298C2.7132 5.52689 0 8.34058 0 11.7572C0 15.7768 3.31613 18.7914 7.03422 18.7914C11.0538 18.7914 13.6665 15.5758 13.6665 12.2596H13.4655C12.8626 13.566 11.9582 14.7719 10.8528 15.3748V11.2548L12.4606 9.9484V9.84791L10.8528 8.54155V5.4264C12.3601 5.4264 13.8675 4.42151 13.8675 2.51222ZM5.12493 13.566L3.91907 14.1689C3.21564 13.2645 2.81369 12.0587 2.81369 10.3504C2.81369 9.64693 2.81369 8.84302 3.01467 8.24009L5.12493 7.33569V13.566ZM15.7768 15.8772L14.4704 16.8821L14.6714 17.0831L15.2743 16.5807L17.4851 18.5904L20.4997 16.5807L20.3992 16.3797L19.5953 16.8821L18.5904 15.8772V9.044L19.3944 8.44106L21.1027 9.84791V15.9777C21.1027 19.7963 20.2988 20.3992 18.5904 21.0022V21.3036C21.4041 21.4041 24.0168 20.4997 24.0168 15.5758V8.94351L24.9212 8.24009L24.7203 8.03911L23.9163 8.64204L21.4041 6.53178L18.5904 8.64204V0.401955H18.3895L14.8724 2.81369V3.01467C15.2743 3.21564 15.8772 3.41662 15.8772 4.522L15.7768 15.8772ZM34.1662 14.7719L31.654 16.6812L29.1418 14.6714V13.4655L33.8647 10.2499V10.1494L31.453 6.53178L26.2276 9.34546V15.9777L25.2227 16.7816L25.4237 16.9826L26.3281 16.2792L29.7447 18.7914L34.2667 15.1738L34.1662 14.7719ZM29.1418 13.0636V8.1396L29.3427 8.03911L31.5535 11.5562L29.1418 13.0636ZM53.3596 1.60782C53.3596 1.30636 53.2591 1.00489 53.1586 0.703422H52.9576C52.6562 1.50733 52.2542 1.90929 51.2493 1.90929C50.3449 1.90929 49.742 1.40684 49.34 1.00489L46.4259 4.32102L46.6268 4.522L47.6317 3.6176C48.2347 4.12004 48.7371 4.522 50.1439 4.62249V12.9631L44.2151 2.81369C43.7127 2.00978 43.0092 0.9044 41.6024 0.9044C39.9946 0.9044 38.5877 2.31124 38.7887 4.522H39.0902C39.1907 3.91907 39.4921 3.21564 40.1955 3.21564C40.698 3.21564 41.2004 3.71809 41.5019 4.22053V7.53666C39.6931 7.53666 38.4872 8.34058 38.4872 9.84791C38.4872 10.6518 38.8892 11.8577 40.0951 12.1592V11.9582C39.8941 11.7572 39.7936 11.5562 39.7936 11.2548C39.7936 10.7523 40.1955 10.3504 40.899 10.3504H41.4014V14.5709C39.2911 14.5709 37.5828 15.7768 37.5828 17.7865C37.5828 19.6958 39.1907 20.6002 40.9995 20.4997V20.2987C39.8941 20.1983 39.3916 19.6958 39.3916 18.9924C39.3916 18.088 39.9946 17.686 40.7985 17.686C41.6024 17.686 42.3058 18.1885 42.8083 18.7914L45.7224 15.5758L45.5215 15.3748L44.818 16.1787C43.7127 15.1738 43.1097 14.8724 41.8034 14.6714V4.62249L49.8425 18.6909H50.4454V4.62249C51.9527 4.522 53.3596 3.31613 53.3596 1.60782ZM60.6953 14.7719L58.1831 16.6812L55.6708 14.6714V13.4655L60.3938 10.2499V10.1494L57.9821 6.53178L52.7567 9.34546V15.9777L51.7518 16.7816L51.9527 16.9826L52.8571 16.2792L56.2738 18.7914L60.7958 15.1738L60.6953 14.7719ZM55.6708 13.0636V8.1396L55.8718 8.03911L58.0826 11.5562L55.6708 13.0636ZM77.075 7.63715L76.3715 8.1396L74.4622 6.53178L72.2515 8.54155L73.1559 9.44595V16.9826L70.7442 15.4753V9.24498L71.5481 8.74253L69.2368 6.53178L67.0261 8.54155L67.9305 9.44595V16.6812L67.629 16.8821L65.5187 15.3748V9.34546C65.5187 7.93862 64.8153 7.53666 64.0114 7.03422C63.308 6.53178 62.906 6.23031 62.906 5.52689C62.906 4.92395 63.509 4.62249 63.8104 4.42151V4.22053C63.0065 4.22053 60.8963 5.02444 60.8963 6.93373C60.8963 7.93862 61.3987 8.34058 61.9011 8.84302C62.4036 9.34546 62.906 9.74742 62.906 10.6518V16.4802L61.8007 17.2841L62.0016 17.4851L63.0065 16.6812L65.3178 18.6909L67.83 16.9826L70.6437 18.6909L75.9696 15.5758V8.84302L77.2759 7.83813L77.075 7.63715ZM95.7659 2.11027L94.761 3.01467L92.5502 1.00489L89.2341 3.41662V1.20587H88.9326L89.0331 17.4851C88.7317 17.4851 87.8273 17.2841 87.1238 17.0831L86.9229 3.51711C86.9229 2.51222 86.2194 1.10538 84.4106 1.10538C82.6018 1.10538 81.396 2.51222 81.396 3.91907H81.6974C81.7979 3.31613 82.0994 2.81369 82.7023 2.81369C83.3053 2.81369 83.8077 3.21564 83.8077 4.522V8.44106C81.9989 8.54155 80.8935 9.54644 80.8935 10.8528C80.8935 11.6567 81.2955 12.8626 82.5014 12.8626V12.6616C82.0994 12.4606 81.9989 12.1592 81.9989 11.9582C81.9989 11.3552 82.5014 11.1543 83.3053 11.1543H83.7072V17.3846C82.1999 17.887 81.597 18.9924 81.597 20.1983C81.597 21.9066 82.9033 23.1124 84.9131 23.1124C86.3199 23.1124 87.5258 22.9115 88.7317 22.61C89.7366 22.409 91.0429 22.1075 91.6458 22.1075C92.4498 22.1075 92.7512 22.5095 92.7512 23.0119C92.7512 23.7154 92.4498 24.0168 92.0478 24.1173V24.3183C93.6556 24.0168 94.6605 23.0119 94.6605 21.5046C94.6605 19.9973 93.1532 19.0929 91.5454 19.0929C90.7414 19.0929 89.0331 19.3943 87.8273 19.5953C86.4204 19.8968 85.0136 20.0978 84.6116 20.0978C83.9082 20.0978 83.1043 19.7963 83.1043 18.7914C83.1043 17.9875 83.8077 17.2841 85.516 17.2841C86.4204 17.2841 87.5258 17.3846 88.6312 17.686C89.837 17.9875 90.9424 18.289 91.9473 18.289C93.4546 18.289 94.761 17.7865 94.761 15.6763V3.31613L95.9669 2.31124L95.7659 2.11027ZM91.6458 8.24009C91.3444 8.54155 90.9424 8.84302 90.44 8.84302C89.9375 8.84302 89.4351 8.54155 89.2341 8.24009V3.81858L90.239 3.11515L91.6458 4.42151V8.24009ZM91.6458 11.2548C91.4449 11.0538 90.9424 10.7523 90.44 10.7523C89.9375 10.7523 89.4351 11.0538 89.2341 11.2548V8.64204C89.4351 8.84302 89.9375 9.14449 90.44 9.14449C90.9424 9.14449 91.4449 8.84302 91.6458 8.64204V11.2548ZM91.6458 15.9777C91.6458 16.7816 91.1434 17.5855 90.038 17.5855H89.2341V11.6567C89.4351 11.4557 89.9375 11.1543 90.44 11.1543C90.9424 11.1543 91.3444 11.4557 91.6458 11.6567V15.9777ZM105.413 8.84302L102.197 6.53178L97.2732 9.34546V15.8772L96.2683 16.6812L96.3688 16.8821L97.1727 16.2792L100.388 18.6909L105.413 15.6763V8.84302ZM99.9864 15.1738V7.93862L102.499 9.74742V16.8821L99.9864 15.1738ZM114.959 6.73275H114.758C114.457 6.93373 114.155 7.13471 113.854 7.13471C113.452 7.13471 112.949 6.93373 112.749 6.63226H112.548L110.839 8.54155L109.131 6.63226L106.116 8.64204L106.217 8.84302L107.021 8.34058L108.026 9.44595V15.7768L106.719 16.7816L106.92 16.9826L107.523 16.4802L109.935 18.4899L113.05 16.3797L112.949 16.1787L112.045 16.6812L110.839 15.6763V8.64204C111.342 9.14449 111.945 9.64693 112.648 9.64693C114.055 9.74742 114.859 8.34057 114.959 6.73275ZM127.018 16.3797L123.601 18.6909L118.979 11.6567L122.295 6.53178H122.496C122.898 6.93373 123.501 7.33569 124.204 7.33569C124.908 7.33569 125.41 6.93373 125.712 6.53178H125.913C125.812 8.54155 124.405 9.74742 123.4 9.74742C122.395 9.74742 121.893 9.24497 121.29 8.94351L120.989 9.44595L126.013 16.8821L127.018 16.2792V16.3797ZM115.964 15.8772L114.658 16.8821L114.859 17.0831L115.462 16.5807L117.672 18.5904L120.687 16.5807L120.486 16.3797L119.682 16.8821L118.677 15.8772V0.401955H118.577L114.959 2.81369V3.01467C115.361 3.21564 115.964 3.31613 115.964 4.522V15.8772ZM143.699 2.51222C143.699 0.502444 141.79 0 140.282 0V0.301467C141.187 0.301467 141.89 0.602933 141.89 1.30636C141.89 1.70831 141.589 2.31124 140.684 2.31124C139.981 2.31124 138.474 1.90929 137.368 1.50733C136.062 1.10538 134.856 0.703422 133.851 0.703422C131.841 0.703422 130.435 2.21075 130.435 3.91907C130.435 5.4264 131.54 5.92884 131.942 6.12982L132.042 5.92884C131.741 5.72786 131.439 5.52689 131.439 4.92395C131.439 4.522 131.841 3.81858 132.846 3.81858C133.751 3.81858 134.957 4.22053 136.564 4.72298C137.971 5.12493 139.479 5.4264 140.282 5.52689V8.64204L138.775 9.9484V10.0489L140.282 11.3552V15.6763C139.479 16.1787 138.574 16.2792 137.77 16.2792C136.263 16.2792 134.957 15.8772 133.851 14.6714L137.971 12.6616V5.62738L132.947 7.83813C133.449 6.53178 134.555 5.62738 135.559 4.92395L135.459 4.72298C132.444 5.52689 129.731 8.24009 129.731 11.6567C129.731 15.6763 133.047 18.6909 136.765 18.6909C140.785 18.6909 143.398 15.4753 143.398 12.1592H143.197C142.594 13.4655 141.689 14.6714 140.584 15.2743V11.1543L142.192 9.84791V9.74742L140.684 8.44106V5.4264C142.192 5.4264 143.699 4.42151 143.699 2.51222ZM134.957 13.566L133.751 14.1689C133.047 13.2645 132.645 12.0587 132.645 10.3504C132.645 9.64693 132.746 8.84302 132.947 8.24009L135.057 7.33569L134.957 13.566ZM147.216 1.50733H147.116L145.106 3.21564V3.31613L146.814 5.22542H147.015L149.025 3.51711V3.41662L147.216 1.50733ZM150.231 16.3797L149.427 16.8821L148.422 15.8772V8.94351L149.427 8.24009L149.226 8.03911L148.523 8.64204L146.714 6.53178L143.8 8.54155L144.001 8.84302L144.704 8.34058L145.608 9.44595V15.9777L144.302 16.9826L144.402 17.1836L145.106 16.6812L147.317 18.6909L150.331 16.6812L150.231 16.3797ZM167.012 16.2792L166.309 16.7816L165.204 15.7768V8.94351L166.209 8.1396L166.008 7.93862L165.204 8.64204L162.892 6.53178L159.878 8.64204L157.567 6.53178L154.753 8.64204L152.944 6.53178L150.03 8.54155L150.13 8.84302L150.834 8.34058L151.839 9.44595V15.9777L151.035 16.7816L153.346 18.6909L155.557 16.6812L154.652 15.7768V8.94351L155.557 8.34058L157.064 9.74742V15.7768L156.26 16.5807L158.571 18.4899L160.782 16.4802L159.878 15.5758V8.94351L160.682 8.44106L162.29 9.84791V15.8772L161.586 16.5807L163.897 18.6909L167.012 16.5807V16.2792ZM175.755 14.7719L173.243 16.6812L170.731 14.6714V13.4655L175.454 10.2499V10.1494L173.042 6.53178L167.816 9.34546V16.1787L171.334 18.6909L175.856 15.0733L175.755 14.7719ZM170.731 13.0636V8.1396L170.932 8.03911L173.142 11.5562L170.731 13.0636ZM184.9 12.1592L182.99 10.6518C184.297 9.54644 184.799 8.03911 184.799 7.03422V6.43129H184.598C184.397 6.93373 183.995 7.43618 183.191 7.43618C182.387 7.43618 181.885 7.03422 181.382 6.43129L176.86 8.94351V12.5611L178.569 13.8675C176.86 15.3748 176.559 16.3797 176.559 17.1836C176.559 18.1885 177.061 18.8919 177.865 19.1934L177.966 18.9924C177.765 18.7914 177.564 18.6909 177.564 18.1885C177.564 17.887 177.966 17.3846 178.77 17.3846C179.775 17.3846 180.378 18.088 180.679 18.3895L185 15.7768V12.1592H184.9ZM183.794 9.14449C183.091 10.3504 181.583 11.5562 180.679 12.1592L179.574 11.2548V7.73764C179.976 8.74253 181.081 9.54644 182.186 9.54644C182.89 9.54644 183.292 9.44595 183.794 9.14449ZM182.086 17.1836C181.583 16.0782 180.378 15.2743 179.172 15.2743C178.87 15.2743 178.066 15.2743 177.262 15.7768C177.765 14.9728 179.071 13.566 180.779 12.5611L181.985 13.566L182.086 17.1836Z" fill="#ADB0B3"/>
</svg>
