<svg width="150" height="46" viewBox="0 0 150 46" fill="none" xmlns="http://www.w3.org/2000/svg">
<path fill-rule="evenodd" clip-rule="evenodd" d="M99.3705 1.45203C94.495 6.54503 91.6135 24.7355 94.486 32.29C95.321 34.487 95.1285 35.001 92.3785 37.909C86.002 44.651 77.209 43.252 83.3455 36.4715C84.381 35.327 83.8155 33.962 82.391 34.167C80.6525 34.417 78.9105 37.8345 79.1715 40.483C79.809 46.9465 87.8 46.836 94.0025 40.2775L96.6175 37.513L97.6835 38.508C100.248 40.901 103.828 40.054 106.498 36.4225L108 34.38V35.867C108 39.254 110.798 40.7765 114.058 39.1635C115.604 38.3985 116 38.346 116 38.9055C116 41.8225 118.827 39.673 119.259 36.427C119.884 31.741 125.289 26.3045 126.129 29.517C126.264 30.034 126.265 32.003 126.13 33.892C125.74 39.353 128.941 41.4565 133.801 38.9335C135.104 38.257 135.503 38.234 136.301 38.789C140.716 41.8595 150 37.245 150 31.98C150 29.888 148.786 30.232 146.998 32.83C145.304 35.2925 142.384 37.077 140.049 37.077C138.015 37.077 137.79 36.4475 139.313 35.0245C142.219 32.3105 142.831 28.8625 140.773 26.8045C137.219 23.2505 132.419 27.5305 133.242 33.5185C133.562 35.8445 133.523 35.9465 132.076 36.5455C129.16 37.7535 128.729 37.27 128.925 33.0135C129.267 25.6195 125.767 23.42 120.892 27.9655L119.534 29.2315L119.016 27.868C117.973 25.1255 116.75 26.419 116.75 30.265C116.75 33.6185 116.713 33.715 114.791 35.38C111.079 38.597 110.071 37.373 111.006 30.7845C111.989 23.8585 110.538 22.918 107.793 28.702C104.42 35.8095 101.689 38.308 99.48 36.309C98.4325 35.361 98.21 34.0765 98.9595 33.302C103.01 29.1165 107.435 5.91003 105.04 1.41053C104.03 -0.487467 101.207 -0.466467 99.3705 1.45203ZM103.131 4.86403C103.924 8.66303 101.363 21.194 98.316 28.419C96.908 31.757 96.6095 31.2985 96.178 25.1345C95.432 14.487 101.466 -3.10597 103.131 4.86403ZM0 26.862V39.6465L1.75 39.5C2.726 39.361 2.21843 40 2.368 36.827C2.8765 26.0395 4 23.577 8.4135 23.577C11.862 23.577 12.75 25.361 12.75 32.75C12.75 37.7255 12.75 39 12.75 39H15.25C15.25 39 16.2246 25.0708 13.485 22.3315C11.467 20.313 6.716 20.138 4.125 21.986L2.5 23.145V18.611C2.5 14.108 2.75 14.077 1.75 14.077H0V26.862ZM57.5 14.389C57.3887 15 57.427 38.973 58.0045 39.33C58.5 39.327 60.0267 39.5359 60.3835 39.33C60.3835 39.33 60.4848 36.0181 60.3835 26.6655C60.3055 19.4663 60.101 14.389 60.101 14.389H57.5ZM73.6155 14.577C73.4815 14.926 73.542 20.7425 73.6155 27.337L73.75 39.327H76C76.5 39.25 76.2515 39.3 76.539 33.577C76.9195 26.008 78.366 23.577 82.49 23.577C85.7195 23.577 86.2105 24.6395 86.5 32.252L86.75 38.827H88H89.25L89.404 32.827C89.6845 21.866 84.8325 17.202 78.125 21.986L76.5 23.145V18.75C76.5 17.9775 76.5902 15.2063 76.5 14.577H73.6155ZM65.5 17.577V20.577H64C62.7335 20.577 62.5 20.7715 62.5 21.827C62.5 22.88 62.734 23.077 63.9875 23.077H65.475L65.6125 31.202L65.75 39.327H67H68.25L68.3875 31.202L68.525 23.077H70.0125C71.266 23.077 71.5 22.88 71.5 21.827C71.5 20.7715 71.2665 20.577 70 20.577H68.5V17.577V14.577H67H65.5V17.577ZM110.25 19.7565C109.294 21.2155 109.726 22.489 111.312 22.887C113.581 23.4565 114.888 21.0355 113.215 19.3625C112.109 18.2575 111.149 18.385 110.25 19.7565ZM41.6175 21.067C39.228 22.1515 38.514 23.305 39.575 24.3665C40.1905 24.982 40.554 24.9385 42.2685 24.045C45.7645 22.222 50.5 23.538 50.5 26.3325C50.5 27.3415 50.194 27.456 46.8155 27.7115C40.6635 28.1765 38 30.198 38 34.4005C38 38.711 45.4325 41.566 49.043 38.643C50 37.8683 50.75 37 50.5 39.25H52.75C52.75 39.25 54.4599 27.252 52.624 23.577C50.9585 20.2425 45.9495 19.1005 41.6175 21.067ZM23.2405 21.274C16.814 24.074 15.8455 34.051 21.6025 38.15C26.2365 41.4495 37.185 37.981 35.642 33.702C35.284 32.7095 33.0935 32.9675 32.503 34.072C30.567 37.6885 23.7115 37.3695 21.747 33.5715C20.2055 30.5905 20.2375 30.577 28.75 30.577H36.5V29.057C36.5 23.04 29.124 18.7105 23.2405 21.274ZM31.5955 25.5205C33.7545 27.937 33.517 28.077 27.25 28.077C21.309 28.077 20.728 27.847 22.141 26.054C24.5385 23.0115 29.1225 22.753 31.5955 25.5205ZM139.402 29.675C139.49 30.1415 138.767 31.379 137.795 32.425L136.027 34.327L136.014 32.052C135.995 28.9465 138.878 26.9245 139.402 29.675ZM50.5 31.5445C50.5 34.5905 48.315 36.6215 44.9895 36.6675C40.8805 36.724 39.5525 32.876 43.1425 31.315C45.734 30.1885 50.5 30.337 50.5 31.5445Z" fill="#ADB0B3"/>
</svg>
