<svg width="151" height="40" viewBox="0 0 151 40" fill="none" xmlns="http://www.w3.org/2000/svg">
<path fill-rule="evenodd" clip-rule="evenodd" d="M142.745 5.32827C141.226 5.32827 139.221 5.47869 138.513 5.47869C138.093 5.47869 136.495 5.42202 136.015 5.42202V5.81619C136.856 5.97411 137.312 6.27577 137.312 7.04493V18.1983C137.312 18.9895 136.844 19.3312 135.979 19.4837V19.887C136.46 19.887 137.936 19.8212 138.375 19.8212C139.077 19.8212 140.938 19.9428 142.463 19.9428C147.758 19.9428 151 16.7999 151 12.5603C151 8.19535 147.89 5.32869 142.745 5.32869V5.32827ZM80.0567 5.36577C79.2705 5.36577 77.2655 5.47869 76.5567 5.47869C76.1246 5.47869 74.6059 5.42202 74.1196 5.42202V5.81619C75.0321 5.96869 75.3921 6.40244 75.3921 7.08244V18.1612C75.3921 18.9353 74.9238 19.3312 74.1196 19.4837V19.887C74.5996 19.887 76.1488 19.8212 76.533 19.8212C76.9771 19.8212 78.5501 19.887 79.0305 19.887V19.4837C78.1659 19.2987 77.6976 18.9033 77.6976 18.1612V13.1987C77.9438 13.2237 78.148 13.2562 78.37 13.2924C79.4746 13.4716 80.0809 13.9766 80.5792 14.6149C81.3717 15.6166 82.8005 17.647 83.5809 18.6016C84.4934 19.7033 85.418 20.1212 86.6067 20.1212C87.1471 20.1212 87.8676 20.0433 88.3117 19.9428V19.6337C87.3871 19.5916 86.4988 18.652 85.8263 17.8233C85.1417 17.0012 83.413 14.5903 82.8005 13.8741C82.2963 13.2878 81.8038 13.0016 81.8038 13.0016C84.0013 12.4645 85.4421 11.1699 85.4421 9.23994C85.4421 6.79952 83.5088 5.36577 80.0567 5.36577V5.36577ZM125.599 5.36577C124.807 5.36577 122.808 5.47869 122.099 5.47869C121.667 5.47869 120.154 5.42202 119.668 5.42202V5.81619C120.58 5.96869 120.947 6.40244 120.947 7.08244V18.1612C120.947 18.9353 120.472 19.3312 119.668 19.4837V19.887C120.148 19.887 121.685 19.8212 122.069 19.8212C122.52 19.8212 124.098 19.887 124.585 19.887V19.4837C123.714 19.2987 123.24 18.9033 123.24 18.1612V13.1987C123.486 13.2237 123.696 13.2562 123.912 13.2924C125.017 13.4716 125.623 13.9766 126.122 14.6149C126.914 15.6166 128.283 17.647 129.069 18.6016C129.976 19.7033 130.913 20.1212 132.089 20.1212C132.641 20.1212 133.362 20.0433 133.806 19.9428V19.6337C132.875 19.5916 132.005 18.652 131.32 17.8233C130.642 17.0012 128.955 14.5903 128.343 13.8741C127.839 13.2878 127.346 13.0016 127.346 13.0016C129.544 12.4645 130.985 11.1699 130.985 9.23994C130.985 6.79952 129.051 5.36577 125.599 5.36577V5.36577ZM63.6255 5.37536C63.6255 5.37536 63.3851 6.31369 63.193 6.77327L58.5826 17.8887C58.2463 18.6799 57.7421 19.2674 56.8292 19.4837V19.8491L58.9217 19.8212C59.2217 19.8212 60.4767 19.8491 60.9596 19.8491V19.4837C60.1492 19.2674 59.9334 18.9499 59.9334 18.5549C59.9334 18.2966 60.0655 17.8999 60.1705 17.6262L61.128 15.2529H66.5309L67.5638 17.6166C67.7076 17.9649 67.8338 18.3008 67.8338 18.6016C67.8338 18.9483 67.6117 19.3095 66.9034 19.4837L66.8913 19.8491C67.4317 19.8491 68.9926 19.8212 69.3709 19.8212C69.7488 19.8212 71.3817 19.8491 71.9101 19.8491V19.4837C70.9438 19.2404 70.5592 18.6862 70.2171 17.9166L65.3363 6.78202C65.1442 6.31785 64.9163 5.37536 64.9163 5.37536H63.6255ZM109.39 5.37536C109.39 5.37536 109.156 6.31369 108.964 6.77327L104.341 17.8887C104.011 18.6799 103.513 19.2674 102.606 19.4837L102.6 19.8491L104.737 19.8212C105.031 19.8212 106.25 19.8491 106.724 19.8491V19.4837C105.92 19.2674 105.71 18.9499 105.71 18.5549C105.71 18.2966 105.824 17.8999 105.938 17.6262L106.886 15.2529H112.302L113.334 17.6166C113.484 17.9649 113.598 18.3008 113.598 18.6016C113.598 18.9483 113.382 19.3095 112.674 19.4837L112.662 19.8491C113.19 19.8491 114.763 19.8212 115.135 19.8212C115.508 19.8212 117.153 19.8491 117.681 19.8491V19.4837C116.708 19.2404 116.336 18.6862 115.994 17.9166L111.113 6.78202C110.921 6.31785 110.68 5.37536 110.68 5.37536H109.39ZM39.1851 5.42202V5.81619C39.8934 6.00119 40.338 6.31202 40.338 7.04493V18.2549C40.338 19.0237 39.8605 19.3312 39.1851 19.4837V19.8491L41.4363 19.8212C41.8688 19.8212 43.4926 19.8491 43.8467 19.8491V19.4837C43.1384 19.2987 42.6642 19.0237 42.6642 18.2549V12.9549H51.0242V18.2549C51.0242 19.0237 50.5559 19.3312 49.8776 19.4837V19.8491C50.2317 19.8491 51.8196 19.8212 52.2517 19.8212L54.5421 19.8491V19.4837C53.8309 19.2987 53.3505 18.9933 53.3505 18.2549V7.04493C53.3505 6.28077 53.8609 5.97411 54.5421 5.81619V5.42202L52.2517 5.47869C51.8196 5.47869 50.2317 5.42202 49.8776 5.42202V5.81619C50.5859 5.97411 51.0242 6.28118 51.0242 7.04493V11.7258H42.6642V7.04493C42.6642 6.28077 43.1713 5.97411 43.8467 5.81619V5.42202C43.4926 5.42202 41.8688 5.47869 41.4363 5.47869C41.0671 5.47869 39.5334 5.42202 39.1851 5.42202ZM87.8975 5.45035V5.85369C88.72 6.03869 89.2063 6.55077 89.5242 7.2516L95.2159 19.9524H96.3084L101.489 7.72035C101.975 6.57535 102.516 6.09119 103.393 5.85369V5.45035C102.888 5.45035 101.531 5.51577 101.207 5.51577C100.847 5.51577 99.7121 5.45035 99.25 5.45035V5.85369C99.8263 5.96952 100.247 6.27785 100.247 6.72618C100.247 7.13202 100.055 7.66327 99.7721 8.3491L96.2542 16.8291L92.5263 8.35785C92.13 7.4766 91.9138 7.01244 91.9138 6.66994C91.9138 6.19494 92.4542 5.9441 92.9163 5.85369V5.45035C92.3942 5.45035 90.8571 5.51577 90.4971 5.51577C90.1126 5.51577 88.4075 5.45035 87.8975 5.45035V5.45035ZM79.3784 6.28494C81.7501 6.28494 83.0588 7.48161 83.0588 9.43702C83.0588 10.8087 82.2063 12.3637 79.4984 12.3637C78.8321 12.3637 78.1596 12.337 77.6976 12.2795V6.43494C78.2531 6.34152 78.8151 6.29137 79.3784 6.28494ZM124.933 6.28494C127.304 6.28494 128.601 7.48161 128.601 9.43702C128.601 10.8087 127.748 12.3637 125.041 12.3637C124.375 12.3637 123.702 12.337 123.24 12.2795V6.43494C123.8 6.34124 124.366 6.29109 124.933 6.28494ZM142.061 6.28494C146.101 6.28494 148.467 8.9241 148.467 12.6829C148.467 16.3041 146.215 18.902 141.899 18.902C141.142 18.902 140.17 18.8408 139.653 18.752V6.43494C140.206 6.34077 141.238 6.28494 142.061 6.28494V6.28494ZM63.7334 8.73327L66.0267 14.0895H61.5842L63.7334 8.73327ZM109.504 8.73327L111.791 14.0895H107.361L109.504 8.73327Z" fill="#ADB0B3"/>
<path fill-rule="evenodd" clip-rule="evenodd" d="M16.5642 1.00077L1.0325 1.00452L1 13.4279C1 28.6591 16.2754 38.3595 16.4279 38.4558L16.4746 38.4858C16.5167 38.4858 16.6125 38.4166 16.6125 38.4166C19.2108 36.7208 32.155 27.5366 32.155 13.5058V1.02619C32.1221 0.994941 16.5642 1.00036 16.5642 1.00036" fill="#ADB0B3"/>
<path fill-rule="evenodd" clip-rule="evenodd" d="M1.19043 13.4212V1.03744H32.1833C32.1833 1.03744 32.1775 2.88244 32.1775 13.5012C32.1775 29.192 16.5513 38.3899 16.5513 38.3899C16.5513 38.3899 1.19293 28.7329 1.19293 13.4212H1.19043Z" stroke="#ADB0B3" stroke-width="1.33"/>
<path fill-rule="evenodd" clip-rule="evenodd" d="M102.996 26.4437C101.471 26.4437 100.487 27.2324 100.487 28.5074C100.487 29.9424 101.922 30.4687 102.624 30.8133C103.572 31.2816 104.377 31.6508 104.377 32.4462C104.377 33.2116 103.752 33.6949 102.774 33.6949C102.329 33.6949 101.783 33.5749 101.435 33.3287C101.105 33.1066 100.859 32.7195 100.751 32.3054H100.547L100.559 33.8633C101.111 33.932 101.735 34.2204 102.786 34.2204C104.533 34.2204 105.494 33.3437 105.494 32.1191C105.494 30.8224 104.365 30.2929 103.332 29.8395C102.48 29.4658 101.567 28.9962 101.567 28.142C101.567 27.5408 101.987 26.9695 102.984 26.9687C103.867 26.9687 104.683 27.2833 104.953 28.1791H105.157L105.175 26.6595C104.497 26.692 104.004 26.4437 102.996 26.4437V26.4437ZM76.5687 26.4533C74.2274 26.4533 72.6183 28.0916 72.6183 30.3741C72.6183 32.5274 73.8791 34.2204 76.6228 34.2204C77.9374 34.2204 78.7178 33.782 79.2703 33.8454L79.3545 32.1854H79.1441C78.772 33.2537 77.9137 33.6649 76.7428 33.6649C74.6658 33.6649 73.9212 31.822 73.9212 30.3366C73.9212 28.5224 74.8516 27.0066 76.5749 27.0066C77.6012 27.0066 78.5858 27.5129 79.0062 28.4887H79.2224L79.1562 26.8283C78.4299 26.8662 77.7216 26.4533 76.5687 26.4533V26.4533ZM111.389 26.4533C109.047 26.4533 107.439 28.0916 107.439 30.3741C107.439 32.5274 108.712 34.2204 111.449 34.2204C112.758 34.2204 113.55 33.782 114.097 33.8454L114.174 32.1854H113.964C113.592 33.2537 112.74 33.6649 111.563 33.6649C109.492 33.6649 108.742 31.822 108.742 30.3366C108.742 28.5224 109.672 27.0066 111.395 27.0066C112.409 27.0066 113.406 27.5129 113.826 28.4887H114.042L113.964 26.8283C113.244 26.8662 112.542 26.4533 111.389 26.4533V26.4533ZM129.892 26.4533C127.544 26.4533 126.049 28.2145 126.049 30.3649C126.049 32.5274 127.544 34.2204 129.892 34.2204C132.233 34.2204 133.734 32.5095 133.734 30.3649C133.734 28.2037 132.233 26.4533 129.892 26.4533ZM139.275 26.4533C136.928 26.4533 135.439 28.2145 135.439 30.3649C135.439 32.5274 136.928 34.2204 139.275 34.2204C141.617 34.2204 143.111 32.5095 143.111 30.3649C143.111 28.2037 141.617 26.4533 139.275 26.4533ZM56.1087 26.5283C55.9649 26.5862 55.7037 26.5941 55.5624 26.5937H50.8649V26.8095C51.3333 26.8879 51.5283 27.1124 51.5283 27.4666V33.1699C51.5283 33.5691 51.2791 33.7762 50.8649 33.8541V34.0612L52.1408 34.0224H54.512C55.3195 34.0224 55.7458 34.0254 56.4633 34.0883L56.6703 32.5424L56.4633 32.4945C56.2258 33.0587 55.9528 33.452 54.9924 33.452H52.7291V30.4304H54.3528C54.5749 30.4304 54.857 30.4558 54.9712 30.487C55.3133 30.5716 55.4453 30.8016 55.5445 31.0958H55.7516C55.7516 30.8466 55.7308 30.3024 55.7308 30.1487C55.7308 29.9962 55.7366 29.4895 55.7516 29.2579H55.5445C55.4787 29.5587 55.3195 29.7562 54.9712 29.8299C54.8512 29.8612 54.5778 29.877 54.3528 29.877H52.7291V27.1849H54.7191C55.6408 27.1849 55.8958 27.5633 56.0699 28.0387H56.277L56.3041 26.5283H56.1087ZM62.1124 26.5379C61.3258 26.5379 60.3474 26.6216 59.9812 26.6216C59.762 26.6216 58.9366 26.5845 58.6874 26.5845V26.7912C59.1166 26.8708 59.3628 27.0283 59.3628 27.4287V33.1787C59.3628 33.5929 59.1195 33.7641 58.6695 33.8454V34.0524L59.9062 34.0224C60.2691 34.0224 61.1758 34.0883 61.9624 34.0883C64.6878 34.0883 66.3508 32.4612 66.3508 30.2708C66.3508 28.0141 64.7541 26.5379 62.1124 26.5379V26.5379ZM83.8328 26.5562C83.8328 26.5562 83.7191 27.0408 83.617 27.2787L81.2395 33.0195C81.0595 33.4308 80.807 33.7341 80.3391 33.8454L80.327 34.0433L81.4316 34.0224C81.5878 34.0224 82.212 34.0433 82.4583 34.0433L82.4641 33.8454C82.0441 33.7341 81.9358 33.5691 81.9358 33.3649C81.9358 33.2329 82.002 33.0287 82.062 32.8874L82.5483 31.6599H85.3458L85.8862 32.8787C85.9641 33.0587 86.0183 33.2329 86.0183 33.3858C86.0183 33.5691 85.8983 33.7491 85.5378 33.8454L85.5258 34.0433C85.802 34.0433 86.6066 34.0224 86.7987 34.0224C86.9908 34.0224 87.8433 34.0433 88.1133 34.0433L88.1195 33.8454C87.6212 33.7191 87.4349 33.4399 87.2491 33.0379L84.7274 27.2787C84.6253 27.0408 84.5053 26.5562 84.5053 26.5562H83.8328ZM116.276 26.5845V26.7912C116.642 26.8854 116.876 27.0479 116.876 27.4287V33.2058C116.876 33.602 116.624 33.7641 116.276 33.8454V34.0433L117.465 34.0224C117.687 34.0224 118.527 34.0433 118.701 34.0433V33.8454C118.341 33.7491 118.095 33.602 118.095 33.2058V30.477H122.369V33.2058C122.369 33.602 122.129 33.7641 121.781 33.8454V34.0433C121.967 34.0433 122.784 34.0224 123.012 34.0224L124.212 34.0433V33.8454C123.846 33.7491 123.588 33.5899 123.588 33.2058V27.4287C123.588 27.0337 123.852 26.8708 124.212 26.7912V26.5845L123.012 26.6216C122.784 26.6216 121.967 26.5845 121.781 26.5845V26.7912C122.147 26.8708 122.369 27.0337 122.369 27.4287V29.8487H118.095V27.4287C118.095 27.0337 118.353 26.8708 118.701 26.7912V26.5845C118.527 26.5845 117.687 26.6216 117.465 26.6216L116.276 26.5845ZM68.1158 26.5937V26.7999C68.5599 26.8949 68.7883 27.0991 68.7883 27.4849V33.1699C68.7883 33.5691 68.572 33.7699 68.1158 33.8541V34.0612C68.362 34.0612 69.2203 34.0224 69.4187 34.0224L70.6974 34.0612V33.8541C70.2412 33.7612 70.0191 33.5512 70.0191 33.1699V27.4849C70.0191 27.0841 70.2533 26.8949 70.6974 26.7999V26.5937C70.4453 26.5937 69.6166 26.6216 69.4187 26.6216L68.1158 26.5937ZM89.5241 26.5937V26.7999C89.9687 26.9004 90.1966 27.0991 90.1966 27.4849V33.1699C90.1966 33.5691 89.9745 33.7699 89.5241 33.8541V34.0612C89.7703 34.0612 90.6228 34.0224 90.8212 34.0224H93.2166C94.0208 34.0224 94.4533 34.0254 95.1674 34.0883L95.3716 32.5424L95.1674 32.4945C94.9274 33.0587 94.6453 33.452 93.6845 33.452H91.4212V27.4849C91.4212 27.0841 91.6553 26.9004 92.0999 26.7999V26.5937L90.8212 26.6216L89.5241 26.5937ZM144.846 26.5937V26.7999C145.297 26.9004 145.525 27.0991 145.525 27.4849V33.1699C145.525 33.5691 145.309 33.7699 144.846 33.8541V34.0612C145.104 34.0612 145.963 34.0224 146.161 34.0224H148.55C149.355 34.0224 149.781 34.0254 150.496 34.0883L150.7 32.5424L150.496 32.4945C150.255 33.0587 149.979 33.452 149.019 33.452H146.762V27.4849C146.762 27.0841 146.989 26.9004 147.434 26.7999V26.5937C147.182 26.5941 146.359 26.6216 146.161 26.6216L144.846 26.5937ZM39.7733 26.6033V26.8095C40.2116 26.8824 40.4216 27.107 40.3916 27.4666L39.9687 33.0108C39.9266 33.4491 39.6924 33.7612 39.2183 33.872V34.0612L40.2808 34.0433C40.4308 34.0433 41.0733 34.0612 41.3191 34.0612V33.872C40.8212 33.7341 40.6858 33.4491 40.7008 33.1129L41.0191 28.1887L43.5616 34.0704H43.9937L46.5633 28.1695L46.8845 33.1129C46.9024 33.4491 46.7703 33.7341 46.272 33.872V34.0612C46.5183 34.0612 47.4008 34.0433 47.5599 34.0433L48.8445 34.0612V33.872C48.3703 33.7612 48.1391 33.4908 48.0941 33.0108L47.7012 27.4666C47.6712 27.0979 47.8449 26.9041 48.2895 26.8095V26.6033C47.992 26.6033 47.4937 26.6216 47.3137 26.6216C47.1458 26.6216 46.7824 26.6033 46.5362 26.6033L44.0691 32.3354L41.6195 26.6033C41.3853 26.6033 40.9862 26.6216 40.8149 26.6216C40.6378 26.6216 40.0645 26.6033 39.7733 26.6033V26.6033ZM129.886 26.997C131.639 26.997 132.407 28.6304 132.407 30.3649C132.407 32.0954 131.639 33.677 129.886 33.677C128.139 33.677 127.352 32.0954 127.352 30.3649C127.352 28.6304 128.139 26.997 129.886 26.997ZM139.269 26.997C141.016 26.997 141.791 28.6304 141.791 30.3649C141.791 32.0954 141.016 33.677 139.269 33.677C137.522 33.677 136.742 32.0954 136.742 30.3649C136.742 28.6304 137.522 26.997 139.269 26.997ZM61.7462 27.0349C63.8353 27.0349 65.0599 28.3916 65.0599 30.327C65.0599 32.2874 63.8953 33.5449 61.6741 33.5449C61.2778 33.5449 60.8274 33.512 60.5574 33.4699V27.1099C60.8424 27.0624 61.3258 27.0349 61.7462 27.0349ZM83.8991 28.2824L85.0878 31.0504H82.7883L83.8991 28.2824Z" fill="#ADB0B3"/>
<path fill-rule="evenodd" clip-rule="evenodd" d="M22.8224 31.4887L22.8116 31.48H22.8441H22.8387H22.8333C22.7337 31.3958 22.6066 31.2337 22.5379 31.1737C22.4162 30.6262 23.2704 30.2616 22.8441 29.6762C22.7445 29.3295 22.8224 28.8862 22.4799 28.6166C22.2383 28.417 21.9099 28.3791 21.6254 28.1954C21.6254 28.0524 21.8104 28.0958 21.9099 28.0524C22.3587 27.9312 22.7645 28.4804 23.0874 28.0741C23.1287 27.7679 22.8441 27.5041 22.6433 27.3049C21.9737 26.8349 20.9562 27.0199 20.4499 26.307L20.5129 26.2491C21.1624 26.387 21.8687 26.2708 22.3587 25.8445C22.6433 25.4799 22.9274 25.1112 23.3708 24.9899C23.8199 24.6474 23.8766 24.0774 23.8766 23.5079C23.8983 23.2862 23.9979 23.087 24.1612 22.9237C24.4045 22.6966 25.032 22.7804 24.9108 22.3108C24.5679 22.1324 24.2045 21.9679 23.7987 22.0112C23.6133 21.9116 23.8404 21.7679 23.8983 21.6845C24.5474 21.2566 25.5637 20.9937 25.5224 20.0445C25.4587 19.9391 25.4804 19.7804 25.317 19.7599C25.032 19.7958 24.8741 20.0649 24.6099 20.1862C23.9979 20.5287 23.2291 20.4658 22.6433 20.8358C22.5174 20.8358 22.5595 20.6724 22.6012 20.6291C22.8224 20.3241 23.2704 20.3079 23.4337 19.9233C23.5558 19.6162 23.6133 19.2116 23.9566 19.0904C24.1612 18.927 24.4899 18.927 24.6099 18.6841C24.5895 18.5412 24.4262 18.4625 24.3049 18.4212C23.7137 18.2362 23.1491 18.5845 22.7445 18.9849C22.3166 19.1683 21.832 19.3316 21.5054 19.6799C21.447 19.6962 21.342 19.6595 21.342 19.5533C21.2624 18.7474 21.9954 18.1562 22.5174 17.6716C22.9079 17.5662 23.2291 17.102 23.677 17.302C23.9783 17.4666 24.3049 17.6299 24.6674 17.5087C25.1158 17.3454 25.2166 16.8391 25.622 16.5958C25.9283 16.4962 26.3495 16.9387 26.5345 16.512C26.6341 16.0683 26.2708 15.8045 26.0699 15.4783C26.3129 14.8508 26.1283 14.1233 25.622 13.6754C25.3799 13.5316 25.0737 13.432 24.7895 13.512C24.5679 13.7966 24.9958 13.9816 25.0158 14.2608C25.1158 15.4204 23.8562 15.6833 23.107 16.1691C21.6887 16.8804 19.9649 17.9724 19.8654 19.7958C19.8858 20.8141 20.3083 21.705 20.9995 22.4175C21.362 23.0437 21.9533 23.6295 21.7262 24.4258C21.5887 24.747 21.2041 24.7891 20.8979 24.7891C19.6804 24.7049 19.0108 23.35 18.5049 22.4175C18.3416 22.0479 18.1404 21.7049 18.0983 21.2783C18.162 21.2199 18.2195 21.2404 18.2833 21.2783C18.5049 21.4833 18.4833 21.9679 18.8691 21.9116C19.1741 21.4833 18.9529 20.9775 18.7895 20.5504C18.5687 20.1662 18.0983 19.9595 17.9137 19.5533C17.8933 19.2537 18.3416 19.4333 18.3633 19.132C18.1987 18.6041 18.1783 18.0562 18.2412 17.5662C18.3199 17.3454 18.6466 17.3649 18.6466 17.0804C18.5049 16.5745 18.5049 16.0683 18.5266 15.5204C18.5845 15.1937 18.8479 14.8508 18.6683 14.5079C18.3049 14.4025 18.6045 13.96 18.2616 13.855C17.572 13.855 17.0658 13.4904 16.4745 13.2687C16.1737 13.1908 15.9466 13.3687 15.7054 13.432C15.3208 13.512 14.9149 13.512 14.6512 13.7966C14.4662 14.0183 14.5083 14.2608 14.5083 14.5662C14.4499 14.7512 14.287 14.587 14.207 14.5662C13.9224 14.4025 13.8174 14.1016 13.902 13.7966C13.9387 13.6537 13.8804 13.512 13.7591 13.4116C13.5754 13.2904 13.3112 13.227 13.0895 13.3108C12.8045 13.4116 12.7266 13.7329 12.6054 13.9816C12.5837 14.1812 12.627 14.4241 12.7266 14.587C13.1329 15.0141 13.6974 15.172 14.1449 15.5416C14.2233 15.7833 14.0654 16.0262 13.902 16.2316C13.8804 16.4541 14.207 16.4541 14.1654 16.6541C13.8391 16.7387 13.5179 16.6758 13.2745 16.4745C13.1112 16.3325 13.0695 16.0262 12.8045 15.9841C12.5633 15.9841 12.5199 16.3116 12.4204 16.4745C12.3416 16.6541 12.3999 16.9604 12.2408 17.102L12.057 17.0804C11.2233 16.7958 10.4754 16.3529 9.74203 15.8045C9.31995 15.4783 9.01453 14.9937 8.68786 14.5662C8.5287 14.0595 8.44536 13.3487 7.79578 13.1908C7.65411 13.2054 7.47453 13.227 7.45286 13.39L7.4112 13.5954C7.08995 13.5954 6.76328 13.3687 6.42036 13.4904C6.25703 13.5954 6.0937 13.7166 5.99286 13.8745C5.97245 14.2445 6.42036 14.1016 6.47828 14.3866C6.47828 14.6508 6.6837 14.8725 6.80536 15.052L6.47828 15.4204L6.27745 15.9266C6.35703 16.09 6.45661 16.2899 6.66328 16.3116C6.94828 16.1895 7.18995 16.3908 7.4962 16.3529C7.67578 16.3691 7.98078 16.2112 8.00245 16.512C8.10245 16.7591 8.00245 16.9808 7.98078 17.2016C7.72988 17.5692 7.38635 17.864 6.98495 18.0562C6.86328 18.1358 6.86328 18.3195 6.90495 18.4408C7.04828 18.642 7.36953 18.5629 7.59578 18.5412C8.02286 18.5208 8.34536 18.2775 8.75036 18.2362C8.8512 18.4408 9.01453 18.6841 9.21453 18.7837C9.54119 18.8687 9.62078 18.4212 9.94745 18.5412C10.2104 18.7474 10.1324 19.132 10.3754 19.375C10.3899 19.5166 10.2537 19.5166 10.1691 19.5749C9.8262 19.6962 9.3412 19.5749 9.07828 19.8595C9.03495 20.0229 9.17786 20.1662 9.29953 20.2237C9.59911 20.387 9.98953 20.4291 10.3541 20.4875C10.6749 20.5287 11.0233 20.4075 11.3241 20.4875L11.2233 20.6508L10.232 21.32C9.78411 21.505 9.29953 21.6045 8.89328 21.8262C8.26578 21.9895 8.00245 21.1983 7.43245 21.2404C7.18995 21.2404 7.02661 21.32 6.86328 21.4629C6.72161 21.6045 6.69995 21.8262 6.74161 22.0112C6.82661 22.1908 7.08995 22.1108 7.08995 22.3108C7.06828 22.8804 6.57828 23.2862 6.54203 23.8775C6.52036 24.0137 6.56203 24.1987 6.72161 24.2624C6.82661 24.3208 6.98495 24.2829 7.06828 24.1987C7.18995 24.0774 7.18995 23.8924 7.3912 23.8562C7.73828 23.8924 8.10245 23.8925 8.34536 23.6295C8.46536 23.6133 8.58703 23.7345 8.58703 23.8345C8.58703 23.9779 8.58703 24.1412 8.72995 24.1987C9.2362 24.2191 9.47786 23.6929 9.70453 23.3283C9.92703 23.2862 10.1691 23.1229 10.3899 23.2654C10.4754 23.6133 10.1908 23.8562 10.1324 24.177C10.1487 24.2624 10.2537 24.3404 10.3541 24.362C10.9595 24.2829 11.3079 23.7133 11.6724 23.2654C11.7295 23.1445 11.7924 22.9799 11.9774 22.9799C12.442 23.1229 12.5633 22.5591 12.8479 22.3541H12.9683C13.0112 22.4958 12.9104 22.5954 12.9683 22.7387C13.1695 22.9595 13.3958 22.717 13.5958 22.6804L14.0237 22.4175C14.5299 22.5754 15.0566 22.6966 15.5841 22.822C16.0104 22.9799 15.5841 23.4299 15.847 23.6929C15.7887 23.8345 15.6058 23.8775 15.4208 23.8775C14.5299 23.9979 13.4962 23.7562 12.7849 24.4258L12.3566 24.8466C11.6929 24.8683 11.3445 25.4379 10.7383 25.5383C10.3324 25.8229 9.70453 25.4162 9.44161 25.8808C9.64245 26.307 10.1487 26.4499 10.5966 26.572C10.7804 26.6554 11.0808 26.5504 11.1812 26.7549C11.2029 26.9562 11.2449 27.1995 11.4874 27.2833C11.6724 27.3412 11.7724 27.0779 11.9358 27.22C12.1566 27.5258 12.4833 27.6674 12.6629 27.9529C12.5199 28.2158 12.177 28.0524 11.9358 28.0524L11.8937 28.032C11.5295 28.0741 11.0599 28.2537 10.7804 27.9108C10.3899 27.6262 10.0904 27.1833 9.5412 27.1833C9.2362 27.2616 8.91495 27.3829 8.8512 27.7258C8.81328 27.9312 9.01453 28.0104 9.09328 28.1324C8.72995 28.3791 8.34536 28.7595 8.46536 29.2495C8.50828 29.3499 8.54495 29.4712 8.68786 29.4712C8.87161 29.4712 9.01453 29.3079 9.19411 29.4075C9.2362 29.7141 9.1562 30.1824 9.52119 30.3254C9.80578 30.2833 10.0112 29.977 10.312 30.2041C10.617 30.347 10.8599 30.0624 11.1229 29.977C11.5512 29.977 11.7091 30.3837 11.8508 30.6887C12.1154 30.8883 12.4833 31.2158 12.8479 31.0175C13.0895 30.6683 12.627 30.2258 13.0895 29.9987C13.3741 29.9191 13.6174 30.0191 13.902 29.9554C14.3449 29.9987 14.8933 30.0408 15.1412 29.5562L15.542 28.8645L15.6258 28.4375C15.8891 28.3587 16.2754 28.78 16.3966 28.3791C16.2526 27.9759 16.2109 27.5432 16.2754 27.1199C16.3533 26.8133 16.4962 26.5287 16.7016 26.3287L16.8016 26.3708C16.9229 26.877 16.9445 27.3829 17.1662 27.8524C17.1241 28.317 16.8808 28.7216 16.8233 29.1866C16.7016 29.6762 16.3533 30.0624 15.9108 30.2833C15.8049 30.3674 15.7258 30.505 15.7887 30.6466C15.9108 30.8733 16.2116 30.7466 16.4383 30.7895C17.0676 30.7078 17.648 30.4072 18.0779 29.9404C18.5266 30.0624 18.7479 29.5133 19.1524 29.7558C19.5808 30.082 20.3499 29.5133 20.5129 30.2041C20.4499 30.5254 20.7562 31.1166 20.2283 31.2579C19.702 31.1737 19.0962 30.4833 18.5687 31.0958C18.4412 31.2158 18.3633 31.3808 18.4412 31.5429C18.5266 31.687 18.6262 31.8641 18.4833 31.9841C18.3416 32.2274 18.1404 32.5333 18.2616 32.8395C18.3633 33.0195 18.5687 33.0195 18.7479 32.9837C19.0529 32.8608 19.3374 33.1187 19.6383 33.1399C19.902 33.347 20.1649 33.5899 20.5129 33.5662C20.6566 33.4879 20.6349 33.305 20.7345 33.1816C20.9562 32.9987 21.4258 33.0408 21.4258 32.6354C21.4837 32.3324 21.7466 32.0591 22.0116 31.9029C22.0691 31.9241 22.6591 31.7741 22.8224 31.4887Z" fill="#ADB0B3" stroke="#ADB0B3" stroke-width="0.27"/>
<path fill-rule="evenodd" clip-rule="evenodd" d="M13.3421 13.5833C13.1425 13.6195 13.0812 13.842 13.0383 14.0216C13.0021 14.2854 13.1425 14.4916 13.3421 14.6291C13.8696 14.8779 14.3204 15.2866 14.8266 15.6079H14.9954C14.7271 15.0583 14.0683 14.9254 13.6458 14.4604C13.4825 14.2391 13.4812 13.9816 13.545 13.7187C13.545 13.6183 13.4421 13.5616 13.3421 13.5833ZM16.2441 13.5833C15.8808 13.8462 15.3379 13.6916 14.9954 13.9545C14.7904 14.1341 15.1237 14.3649 14.8608 14.5283C14.8187 14.6658 14.8825 14.7654 14.9616 14.8658C15.3046 15.1708 15.7446 15.5287 15.6029 16.0129C15.3596 16.6199 15.0008 15.8995 14.6579 15.8779C14.5366 15.8995 14.4554 16.0058 14.4554 16.1474C14.4921 16.2274 14.58 16.2154 14.6579 16.2154C14.7379 16.2574 14.8471 16.3299 14.8266 16.4512C14.805 16.7149 14.6058 16.967 14.3204 17.0254C13.9929 17.1683 13.5796 17.087 13.2746 16.9237C13.095 16.8662 13.0291 16.5983 12.8021 16.6199C12.5175 16.8999 12.7729 17.2641 12.8358 17.5649C12.145 18.2558 11.5929 19.1845 10.7437 19.6908C10.5225 19.812 10.2537 19.8433 10.0687 20.0283C10.1487 20.0862 10.2633 20.1295 10.4062 20.1295C11.1391 20.1091 11.8875 19.9862 12.4983 19.6237C12.7416 19.5016 12.8941 19.2483 13.1733 19.1845C13.5 19.3274 13.1991 19.672 13.3421 19.8933C13.5258 19.9512 13.5916 19.7708 13.7137 19.6908C13.8187 19.6291 13.9537 19.5816 14.0166 19.7245C14.2804 20.4724 14.0737 21.2824 13.8146 21.9516C13.9725 21.9937 13.9971 21.8208 14.1183 21.7829C14.6241 21.0499 15.2233 20.3591 15.3671 19.4883C15.7933 19.2887 15.7783 19.9383 16.0416 20.0962C16.2633 19.9383 16.27 19.5612 16.3112 19.3199C16.3696 19.2399 16.4504 19.2616 16.5141 19.3199C16.735 19.6883 17.0066 20.0916 17.3912 20.2983C17.6379 20.3762 17.8704 20.5558 18.1337 20.5341C18.1133 20.1916 17.745 20.1241 17.56 19.8595C17.4604 19.6183 17.3241 19.3899 17.3241 19.0833C17.3871 18.8999 17.6075 18.9054 17.7287 18.8474C17.7504 18.5845 17.665 18.3358 17.7287 18.0712C17.7654 17.7445 17.5262 17.087 18.0325 16.9237L18.0662 16.1137C18.0446 15.9924 17.8637 15.932 17.8637 15.8099C17.8637 15.5837 18.0716 15.5354 18.1337 15.372C18.1916 15.1708 18.2487 14.9654 18.2683 14.7641C18.2683 14.7008 18.1916 14.6291 18.1337 14.6291C17.8866 14.6087 17.9437 14.3458 17.8637 14.2245C17.2941 14.0829 16.8712 13.5983 16.2441 13.5833V13.5833ZM7.90956 13.7187C7.87206 13.7395 7.84706 13.8141 7.84206 13.9208C7.79872 14.0204 7.85539 14.192 7.97706 14.292C8.03498 14.3349 8.13331 14.4041 8.21331 14.3254C8.25497 14.2462 8.23372 14.1608 8.21331 14.0558C8.21331 13.9333 8.02039 13.6541 7.90956 13.7187V13.7187ZM6.86331 13.887C6.74164 14.0083 6.90498 14.2758 6.86331 14.4604C6.90498 14.7654 7.27372 14.6441 7.43706 14.8658C7.67997 15.2716 7.10623 15.292 6.96456 15.5404C6.77956 15.8249 7.20206 15.7187 7.30164 15.9454C7.54498 16.067 7.70039 15.7904 7.94289 15.8099C8.18623 15.9116 8.35247 16.187 8.41539 16.4512C8.65747 17.0416 8.17414 17.527 7.90956 17.9704C8.31581 18.0333 8.61248 17.6408 8.95498 17.4979C9.26081 17.577 8.98623 17.9412 9.19164 18.1045C9.39289 18.2483 9.56581 17.982 9.76498 18.0037C10.3929 18.0254 10.3466 18.7349 10.71 19.0833C10.7737 19.1254 10.8666 19.1374 10.9466 19.1174C11.3091 18.7891 11.5771 18.3683 11.925 18.0037C12.0462 17.8837 12.1696 17.7283 12.1275 17.5649C11.0733 17.2804 10.1637 16.6391 9.29331 15.9116C8.90831 15.4433 8.49123 14.8983 7.94289 14.6291C7.65831 14.3283 7.35331 13.8508 6.86331 13.887V13.887ZM16.1087 13.9879C16.1671 13.9833 16.225 14.0266 16.2775 14.0558C16.4987 14.177 16.6862 14.3824 16.8512 14.562C16.8875 14.7037 16.7916 14.8099 16.6487 14.8316C16.4071 14.852 16.1529 14.8141 15.9737 14.6291C15.7887 14.4916 15.9033 14.2691 15.94 14.0895C15.9825 14.0395 16.0504 13.9933 16.1087 13.9879V13.9879ZM25.4554 14.1908C25.4196 14.2908 25.4004 14.3595 25.4216 14.4604C25.3583 15.4566 24.3696 15.9774 23.5996 16.3841C22.2029 17.0533 20.4562 17.9995 20.2929 19.7245C20.1146 21.5483 22.4471 22.4687 22.1825 24.3133C22.1204 24.6983 21.7712 24.9362 21.5075 25.1574C20.5375 25.442 19.5883 24.8345 18.9771 24.0437C18.1858 23.1099 17.7771 21.9974 17.4925 20.8379C17.2871 20.5949 16.955 20.5158 16.75 20.2304C16.3075 20.0095 16.3291 20.7029 15.9062 20.7029C15.6796 20.7245 15.7562 20.4237 15.5354 20.467L14.995 21.2433C14.8587 21.5279 14.4921 21.7312 14.4554 22.0533C14.6133 22.3595 15.0941 22.2229 15.4004 22.3229C15.8629 22.4079 16.1616 22.8104 16.5475 23.0316C17.2375 23.6591 17.4654 24.5324 17.3237 25.4608C17.1183 26.2574 17.4191 26.997 17.6612 27.6879C17.7879 27.9887 17.5879 28.2708 17.4246 28.4979C17.3438 28.9297 17.2079 29.3494 17.02 29.7466C16.9616 29.9099 16.805 30.0766 16.885 30.2183C17.4746 30.1133 17.8233 29.5574 18.0658 29.0712C18.1858 28.9295 18.3371 29.0729 18.4366 29.1729C18.5641 29.2362 18.6071 29.0929 18.7071 29.0712C18.8337 29.0137 18.9391 29.0945 19.0441 29.1729C19.3091 29.4374 19.7258 29.3091 20.0908 29.4091C20.475 29.452 20.8683 29.6991 20.9679 30.0841C20.9096 30.3849 21.0729 30.6799 21.035 31.0295C20.7937 31.7558 19.9112 31.8612 19.2466 31.9391C19.12 32.0233 18.9271 32.092 18.9433 32.2783C19.0066 32.4195 19.1375 32.4674 19.2808 32.5454C19.5858 32.7104 19.7046 32.2874 19.9891 32.3441C20.2108 32.4283 20.0312 32.6416 20.1579 32.7824C20.3375 32.8245 20.4587 32.7345 20.6641 32.7495C20.9071 32.7137 21.0487 32.4912 21.0691 32.2424C21.1746 31.9449 21.5683 31.8729 21.71 31.567C21.8316 31.4887 22.0275 31.5999 22.1487 31.5008C21.9258 31.0745 22.1054 30.6412 22.3854 30.3199C22.4159 30.1881 22.4196 30.0514 22.3963 29.9181C22.3731 29.7848 22.3233 29.6574 22.25 29.5437V29.0712C22.1066 28.7066 21.6775 28.7412 21.3725 28.5995C21.0662 28.3562 20.5871 28.2037 20.5291 27.7554C20.5504 27.6974 20.6004 27.6004 20.6641 27.6208C21.065 27.7841 21.54 27.712 21.9462 27.6545C22.0675 27.6762 22.25 27.7283 22.25 27.5866C22.2071 27.5074 22.1271 27.4383 22.0479 27.4179C21.3983 27.2112 20.7029 27.1995 20.1916 26.7095C19.9916 26.3666 19.6596 26.132 19.6183 25.7308C19.9666 25.3462 20.2916 25.9079 20.6975 25.8658C21.2675 25.9295 21.8396 25.8079 22.1825 25.3599C22.3833 25.1804 22.3487 24.8374 22.655 24.7524C23.7037 24.5687 23.0746 23.3445 23.7012 22.7954C23.7858 22.6116 24.1521 22.6116 24.0721 22.3904C23.7241 22.3474 23.4483 22.5224 23.1275 22.5591C23.0845 22.5423 23.0464 22.5149 23.0169 22.4794C22.9874 22.4439 22.9674 22.4015 22.9587 22.3562C23.18 21.687 23.8075 21.1287 24.4771 20.9058C24.5554 20.8854 24.6821 20.7666 24.6454 20.7029C23.855 20.7449 23.0408 20.8316 22.5196 21.4791C22.3929 21.5591 22.2246 21.7354 22.0816 21.6141C21.94 21.4724 21.9583 21.2254 21.98 21.0404C22.0166 20.6779 22.3025 20.372 22.5875 20.1295C22.9725 20.0079 23.1412 19.5954 23.2625 19.252C23.2408 19.1683 23.1691 19.2183 23.1275 19.2183C22.8625 19.3816 22.5683 19.4895 22.2837 19.5899C21.7983 19.6949 21.6404 20.1716 21.4404 20.5341C21.3985 20.5555 21.3522 20.5666 21.3052 20.5666C21.2582 20.5666 21.2118 20.5555 21.17 20.5341C20.8437 20.1716 20.8179 19.6666 20.9341 19.2183C21.2025 18.0429 22.2662 17.3541 23.2625 16.8899C23.6471 16.727 23.9141 17.0629 24.2408 17.1262C25.0116 17.1479 25.1254 16.1354 25.8941 16.1137C25.9158 15.9345 25.6758 15.8724 25.5904 15.7091C25.5125 15.4079 25.8229 15.2208 25.7591 14.8995C25.7387 14.6345 25.7408 14.2908 25.4554 14.1908V14.1908ZM17.7283 14.7979C17.8071 14.7404 17.9771 14.7774 17.9983 14.8995C17.9983 15.0574 17.9296 15.2162 17.83 15.3383C17.7296 15.4012 17.6354 15.3699 17.5933 15.2704C17.5521 15.0854 17.6275 14.9037 17.7283 14.7979ZM16.5137 16.2491C16.5929 16.2287 16.6741 16.2866 16.7162 16.3504L16.6825 16.6879C16.3354 17.0737 16.3325 17.6808 15.805 17.9024C15.6633 17.9241 15.5516 17.8416 15.5354 17.6999C15.5137 17.4787 15.4554 17.1791 15.5354 16.9574C15.7616 16.8362 15.8241 17.2979 16.0079 17.0924C16.0871 16.7699 16.3504 16.5137 16.5137 16.2491ZM12.8354 19.9608C12.7141 19.9608 12.62 19.9862 12.4983 20.0283C11.7075 20.7979 10.8837 21.567 9.86622 21.9516C9.21706 22.0729 8.72748 22.4849 8.07789 22.6266C7.75664 22.8112 7.24206 22.8654 7.20081 23.3349C7.36414 23.4137 7.53498 23.4699 7.74039 23.4699C8.00498 23.4699 8.04956 23.1949 8.21289 23.0316C8.31247 22.9316 8.43248 23.0016 8.51664 23.0654C8.59581 23.3079 8.83914 23.3529 9.02289 23.4362C9.20206 23.4158 9.25081 23.2408 9.29289 23.0991C9.45623 22.7929 9.83498 22.7737 10.1362 22.7954C10.2779 22.7316 10.4454 22.6404 10.6087 22.6599C10.9929 22.7399 10.7733 23.2124 10.8112 23.4699C10.8741 23.5337 10.9841 23.4741 11.0471 23.4362C11.3266 23.1312 11.4912 22.7749 11.6546 22.3904C11.7325 22.3108 11.8341 22.1299 11.9921 22.1874C12.3771 22.6783 12.4291 21.9287 12.7346 21.8504C12.9554 21.7504 13.2766 21.9216 13.4766 21.7158C13.6833 21.3524 13.705 20.8554 13.7466 20.4333C13.6466 20.1283 13.3608 20.4074 13.1391 20.3654C12.9125 20.3295 12.9141 20.1187 12.8354 19.9608ZM7.50456 21.7158C7.47664 21.7308 7.45289 21.7812 7.43664 21.8166C7.45706 22.0004 7.38456 22.2016 7.50456 22.3229C7.73081 22.4229 8.03331 22.3433 8.21289 22.222C8.21289 21.9787 7.91581 21.9258 7.77414 21.7829C7.69914 21.7354 7.58623 21.6699 7.50456 21.7158ZM16.4125 24.0774L15.4004 24.3812C14.3879 24.4233 13.1837 24.377 12.5996 25.3262L12.0258 25.3933C11.6412 25.5783 11.2729 25.8499 10.8446 25.9333C10.7233 26.0129 10.515 25.9774 10.4737 26.1362C10.7366 26.3424 11.1133 26.2033 11.4187 26.2033C11.5766 26.2616 11.6125 26.4649 11.6546 26.6079C11.8179 26.6866 11.9304 26.4824 12.0933 26.5408C12.1933 26.5841 12.2537 26.677 12.2958 26.7766C12.3758 27.3049 13.0341 27.4141 13.2408 27.8566C13.3404 28.0199 13.2746 28.2483 13.1729 28.3966C13.0096 28.6179 12.6937 28.5533 12.4308 28.5316C11.9446 28.5166 11.5291 28.402 11.0808 28.5649C10.3896 28.687 9.71373 28.2483 9.12414 28.6329C9.08081 28.6745 9.04664 28.7716 9.08998 28.8354L9.79914 29.1391C9.89872 29.2604 9.74498 29.4224 9.76456 29.5437L10.1362 29.6449C10.3991 29.8666 10.6521 29.5979 10.8783 29.4766C11.1421 29.2929 11.3658 29.5316 11.5875 29.6116C11.7291 29.6949 11.9258 29.5833 12.0258 29.7466C12.1675 29.9099 12.0837 30.2958 12.3629 30.2529C12.4471 30.0529 12.5712 29.8541 12.7346 29.7124C13.2191 29.2862 13.8441 29.5616 14.4554 29.4766C14.8616 29.4399 14.7562 28.9649 15.0629 28.8016C15.2629 28.4587 14.905 28.2549 14.7254 27.9916C14.5837 27.6695 14.8075 27.2954 15.0291 27.047C15.4554 26.9687 15.4058 27.5129 15.5687 27.7554C15.6325 27.8133 15.7375 27.9404 15.8391 27.8566C15.8587 27.5354 15.8725 27.2208 15.8725 26.8783C15.9941 26.3883 16.3354 25.9579 16.6825 25.6295C16.8471 25.3666 16.8633 25.1587 16.885 24.8537C16.8266 24.5687 16.7541 24.1574 16.4125 24.0774V24.0774ZM9.86622 27.6879C9.786 27.6759 9.70403 27.6876 9.63039 27.7216C9.60872 27.8383 9.67706 28.0608 9.79914 28.1604C10.0037 28.1808 10.2262 28.2483 10.4058 28.127C10.2991 27.9295 10.0921 27.7245 9.86622 27.6879V27.6879ZM19.2466 31.3329C19.2292 31.3445 19.2143 31.3596 19.2027 31.3771C19.1912 31.3946 19.1833 31.4143 19.1796 31.4349C19.2162 31.4737 19.2291 31.522 19.3146 31.5008C19.3566 31.5008 19.4983 31.5399 19.4833 31.4349C19.4508 31.3749 19.32 31.2879 19.2466 31.3329Z" fill="white"/>
<path fill-rule="evenodd" clip-rule="evenodd" d="M1.20682 10.0433H32.1635V12.1724H1.20682L1.20557 10.0433H1.20682Z" fill="#ADB0B3" stroke="#ADB0B3" stroke-width="0.27"/>
<path fill-rule="evenodd" clip-rule="evenodd" d="M24.225 10.422H27.7425V11.7933H24.225V10.422ZM16.5804 10.422H20.092V11.7933H16.5804V10.422ZM8.87703 10.422H12.3945V11.7933H8.87703V10.422ZM1.57495 10.422H4.76995V11.7933H1.57495V10.422Z" fill="white"/>
<path fill-rule="evenodd" clip-rule="evenodd" d="M6.27754 2.55578C7.30587 2.11328 8.4617 2.42911 9.5942 2.36536C9.88379 2.42911 10.3271 2.21828 10.5175 2.53411C10.5175 2.8662 10.5175 3.18328 10.5388 3.52078C10.6442 3.75161 10.9813 3.56286 11.165 3.68953C11.2713 3.75161 11.3975 3.80994 11.4192 3.93661C11.4821 4.08369 11.4409 4.25369 11.3555 4.40078C11.1446 4.63328 10.8763 4.54786 10.6021 4.61161L10.5175 4.73828C10.5588 5.34411 10.39 5.89244 10.5175 6.47786C10.4959 6.60494 10.4538 6.77369 10.6021 6.85786C10.8963 6.85786 11.1867 6.85786 11.3975 7.04786C11.4821 7.19494 11.4821 7.37994 11.4409 7.54869C11.3134 8.18161 10.3488 7.46328 10.4538 8.20203C10.4538 8.47578 10.5175 8.85078 10.4117 9.10369C9.27837 9.10369 8.1242 9.01953 7.05379 9.08328C6.8545 9.25631 6.60419 9.35959 6.34087 9.37744C6.10879 9.33578 5.94004 9.20869 5.75129 9.08328C4.72254 9.03994 3.71587 9.03994 2.7292 9.01953C2.41337 8.74578 2.64545 8.30702 2.54004 7.90786C2.37129 7.71744 2.11754 7.86453 1.9342 7.75953C1.78545 7.73911 1.74379 7.59077 1.66004 7.48494C1.66004 7.25827 1.66004 7.06786 1.82879 6.92078C1.99754 6.79411 2.2242 6.81578 2.43504 6.79411L2.54004 6.68869C2.4767 5.99786 2.64545 5.34411 2.49837 4.61161C2.3917 4.46453 2.20254 4.59119 2.07587 4.48453C1.8867 4.44286 1.70212 4.37911 1.63837 4.16869C1.5967 3.99994 1.55337 3.83119 1.72212 3.68953L2.5617 3.47786L2.64545 2.47078C2.8142 2.17536 3.20962 2.32369 3.50504 2.32369C4.01129 2.21828 4.6392 2.30203 5.1867 2.32369C5.56087 2.34411 5.94004 2.40745 6.27754 2.55578V2.55578Z" fill="#ADB0B3" stroke="#ADB0B3" stroke-width="0.28"/>
<path fill-rule="evenodd" clip-rule="evenodd" d="M6.73625 8.5241C6.77833 8.69285 6.75792 8.90368 6.61083 8.98826C6.52583 9.0941 6.3625 9.11368 6.23541 9.05077C6.10875 9.03035 6.08833 8.88202 6.06708 8.7766C6.025 8.54452 6.25708 8.46618 6.38416 8.29202C6.5475 8.31785 6.6525 8.4241 6.73625 8.5241ZM3.33666 2.69202C3.14625 2.83493 2.89917 3.1091 2.98292 3.36285L3.0625 8.35493L3.20958 8.5241C4.03166 8.5241 4.93333 8.4391 5.72958 8.58743C5.77166 8.60785 5.77166 8.67119 5.75125 8.71327C5.54041 8.79785 5.28708 8.7566 5.06 8.7566L2.91958 8.71327C2.7725 8.58744 2.83583 8.29202 2.83583 8.12869C2.83583 7.91785 2.89916 7.66452 2.66708 7.53743C2.37166 7.4741 2.07583 7.5591 1.88708 7.32701C2.03416 6.90993 2.70875 7.24743 2.83583 6.78451C2.89916 6.0041 2.7725 5.22827 2.81416 4.49535C2.72916 4.0741 2.26625 4.20118 1.97042 4.13743C1.92875 4.09577 1.87083 4.03243 1.88708 3.94743C2.13916 3.70035 2.64541 3.9891 2.83583 3.63701C2.91958 3.29951 2.85625 2.98244 2.89916 2.6716C3.00458 2.5666 3.18791 2.5666 3.33666 2.60827V2.69202ZM10.2212 2.69202C10.285 3.02535 10.1379 3.46785 10.3487 3.79993C10.5587 3.92702 10.8762 3.86369 11.0862 3.90535C11.1704 3.9891 11.15 4.11577 11.1079 4.20077C10.8762 4.43285 10.39 4.13743 10.2646 4.5166C10.2646 5.33452 10.2212 6.12952 10.285 6.97368L10.4117 7.07868C10.6858 7.12202 11.0233 7.01702 11.2083 7.2216C11.2287 7.34868 11.2083 7.4741 11.0862 7.51743C10.8125 7.58035 10.4117 7.43243 10.2646 7.72743C10.2017 8.06493 10.3067 8.40243 10.2017 8.73493L10.0525 8.79785L7.09541 8.7566C7.03208 8.71326 7.09541 8.67118 7.11583 8.62952L7.41125 8.5241L9.80583 8.54451C10.0525 8.48243 10.0525 8.17077 10.0742 7.98035L10.0525 4.64368C10.0329 4.0741 10.1379 3.5316 10.0112 2.98202C9.98958 2.8566 9.80583 2.7716 9.78416 2.62993C9.91083 2.5666 10.1379 2.5666 10.2212 2.69202V2.69202ZM9.57375 8.21202C9.51041 8.33952 9.32 8.27577 9.19416 8.31785H8.52333C7.97541 8.29202 7.4325 8.25535 6.94833 8.35577C6.86333 8.33952 6.77833 8.27577 6.77833 8.17077C6.84166 7.98035 7.07375 8.04327 7.2425 7.98035C7.89208 8.00202 8.67166 7.95993 9.29958 7.98035C9.405 8.02368 9.51041 8.10702 9.57375 8.21202V8.21202ZM9.80583 3.06702C9.78416 4.77035 9.82625 6.44702 9.7625 7.98035C9.72083 8.06493 9.63708 7.95993 9.57375 7.91785C9.46833 7.66451 9.55208 7.34868 9.55208 7.10035C9.48875 5.7341 9.55208 4.34785 9.55208 2.96202C9.63708 2.8566 9.7625 2.98202 9.80583 3.06702V3.06702ZM6.13042 2.81327L6.21541 3.00368C6.25708 4.41118 6.25708 5.84077 6.25708 7.31118L6.21541 7.85493C5.85625 7.87451 5.49708 7.68618 5.10166 7.72743C4.70083 7.68618 4.25833 7.76951 3.90583 7.66451C3.69416 7.18535 3.8425 6.69952 3.79917 6.17827C3.82083 5.12285 3.8425 3.84202 3.8425 2.70827C3.8425 2.62452 3.9475 2.58701 4.01125 2.5666C4.74416 2.62451 5.54042 2.43951 6.13042 2.81368V2.81327ZM9.25666 2.70827C9.25666 4.4116 9.25666 6.02993 9.23625 7.68618C8.39791 7.76951 7.45292 7.62243 6.61083 7.85493C6.42583 7.68618 6.5675 7.41202 6.53125 7.18535C6.48916 6.63618 6.53125 6.02993 6.50416 5.46035C6.53125 4.64368 6.4675 3.72035 6.53125 2.91868C6.6525 2.6716 6.94833 2.5866 7.2225 2.5866L9.19416 2.60827L9.25666 2.70827ZM6.04666 8.12869C6.06708 8.23369 5.96166 8.3341 5.85625 8.37535C5.18666 8.19243 4.44875 8.31785 3.73708 8.23368L3.71583 8.21202C3.7575 8.0866 3.86291 7.98035 4.01125 7.98035C4.7225 7.98035 5.41375 7.98035 6.04666 8.12869V8.12869ZM3.54708 2.87702C3.63083 4.57993 3.52541 6.21494 3.56875 7.83327C3.54708 7.91785 3.46208 8.02368 3.35666 8.02368C3.23125 7.49576 3.25125 6.99535 3.29333 6.46702C3.25125 5.39702 3.27292 4.20118 3.27292 3.13077C3.315 3.02535 3.44166 2.91868 3.54708 2.87702Z" fill="white"/>
<path fill-rule="evenodd" clip-rule="evenodd" d="M20.4553 2.32368C20.582 2.30202 20.7087 2.40743 20.8145 2.47077L20.8978 3.58285C21.1732 3.68952 21.5682 3.60452 21.7153 3.9366C21.7791 4.08369 21.7791 4.33743 21.6741 4.46452C21.462 4.73827 20.9832 4.48452 20.8362 4.80202C20.7928 5.55493 20.7724 6.08285 20.8362 6.7941C21.0462 7.00619 21.4257 6.83744 21.6103 7.11119C21.7153 7.23702 21.7574 7.37993 21.7153 7.54868C21.547 7.82243 21.1932 7.82244 20.8978 7.88619C20.7724 7.99119 20.8978 8.1816 20.8362 8.32868C20.7291 8.59743 20.9832 8.93494 20.6674 9.10369C19.807 9.23035 18.9895 9.0616 18.1037 9.12535L17.2657 9.14577C17.0332 9.2941 16.7649 9.52618 16.4695 9.35743L15.9432 9.12535C15.3153 9.14577 14.7245 9.10369 14.0966 9.12535C13.6757 9.10369 13.0895 9.2941 12.8153 8.89285C12.8153 8.55535 12.8791 8.22369 12.7953 7.88619C12.4778 7.78119 11.9557 7.92827 11.787 7.52702C11.7453 7.40577 11.787 7.23702 11.8303 7.11119C12.0624 6.77369 12.5837 7.06785 12.8153 6.7941L12.7953 5.87243C12.8574 5.42952 12.7741 5.07035 12.7741 4.65327C12.4582 4.52785 11.9141 4.6966 11.8507 4.21035C11.8087 3.95827 11.9557 3.7516 12.1878 3.70993C12.3945 3.6466 12.6887 3.7516 12.7953 3.56285L12.8574 2.57619C13.1112 2.15494 13.717 2.40743 14.0966 2.3441L16.0049 2.36535C16.3003 2.40744 16.5749 2.69744 16.8699 2.51244C18.0041 2.04952 19.2795 2.45077 20.4553 2.32368V2.32368Z" fill="#ADB0B3" stroke="#ADB0B3" stroke-width="0.28"/>
<path fill-rule="evenodd" clip-rule="evenodd" d="M20.5819 2.70784C20.5819 3.08743 20.5602 3.42493 20.6456 3.79993C20.8977 4.03243 21.6102 3.69993 21.4619 4.26409C21.2352 4.41118 20.9194 4.30618 20.6673 4.34785L20.6035 4.43284C20.4985 5.27118 20.6673 6.13492 20.6035 6.88951C20.624 6.97367 20.6673 7.12201 20.7927 7.13701C21.0244 7.1641 21.3835 6.99535 21.4619 7.29076C21.4256 7.79118 20.7723 7.33243 20.6035 7.72743C20.5398 8.10701 20.7085 8.43909 20.5602 8.79784L20.4552 8.86159C19.3848 8.83992 18.336 8.83993 17.3294 8.81951C17.2873 8.79784 17.3077 8.73493 17.351 8.71326L17.5394 8.60784L20.1865 8.52409C20.3135 8.50284 20.4131 8.40243 20.3915 8.27576C20.3915 6.67868 20.4131 5.01743 20.4131 3.23576C20.371 2.98201 20.1231 2.83493 20.081 2.60826C20.2281 2.60826 20.4985 2.52326 20.5819 2.70784V2.70784ZM13.6119 2.62993C13.5698 2.81326 13.4065 2.8766 13.3219 3.02535C13.1948 3.36285 13.3435 3.69993 13.2798 4.05243L13.3015 8.29201C13.3015 8.40243 13.3794 8.52409 13.4852 8.54451L15.7365 8.58743C15.8577 8.60785 16.0048 8.65076 16.0902 8.73492C16.0481 8.86159 15.8794 8.81951 15.7744 8.83992C14.9344 8.81951 14.0344 8.88201 13.2165 8.77659L13.1327 8.71326C13.111 8.33951 13.1531 7.93826 12.9844 7.60076C12.7319 7.49576 12.4202 7.60076 12.146 7.51743C12.019 7.45368 12.0623 7.28535 12.146 7.20535C12.4202 7.05826 12.9423 7.28535 13.0894 6.90993C13.0694 6.08785 13.1327 5.31284 13.0894 4.47493C12.8573 4.13743 12.3781 4.45326 12.1673 4.13743C12.2515 3.65701 12.921 4.07409 13.111 3.67868L13.1748 2.69201C13.3015 2.56618 13.4702 2.60826 13.6119 2.62993V2.62993ZM16.9498 8.71368C16.9498 8.88159 16.9281 9.09451 16.7431 9.09451C16.596 9.11409 16.364 9.09451 16.364 8.88159C16.406 8.73534 16.5327 8.60784 16.6798 8.52409C16.8285 8.48243 16.9065 8.62951 16.9498 8.71368ZM13.9277 2.91868C13.9915 4.36993 13.8444 5.67243 13.9277 7.12159C13.8023 7.45409 14.076 7.93868 13.5902 8.02326C13.5069 6.57243 13.5698 5.01785 13.5265 3.4466C13.4852 3.1941 13.6335 2.96201 13.8444 2.83534L13.9277 2.91868ZM20.1648 3.17243C20.1444 4.77076 20.2077 6.48909 20.1027 8.04368C20.0177 8.06534 19.9127 7.96034 19.891 7.87493C19.8706 7.22201 19.8069 6.57284 19.849 5.88284C19.891 4.97617 19.7852 3.91118 19.891 2.98243C19.996 2.91909 20.1648 3.04576 20.1648 3.17284V3.17243ZM16.3219 8.12951C16.406 8.14951 16.511 8.23451 16.449 8.3341L16.2806 8.48326C15.5473 8.21285 14.6185 8.39785 13.8444 8.2766C13.9073 8.17118 13.971 8.06576 14.076 7.98076C14.809 8.04409 15.6094 7.9391 16.3219 8.12951ZM19.6585 8.02409C19.7656 8.08743 19.891 8.19243 19.891 8.29826L19.7852 8.3341C18.9056 8.35576 17.9985 8.23451 17.1823 8.43993C17.0548 8.46159 16.9119 8.43993 16.8915 8.29826C16.9702 8.10785 17.2235 8.04409 17.4344 8.02409C18.189 7.96076 18.9256 8.02409 19.6585 8.02409V8.02409ZM19.5969 2.75035C19.5752 4.39035 19.6165 6.07201 19.5752 7.70701L19.4898 7.74993C18.5881 7.83368 17.7081 7.60201 16.8915 7.89701C16.7431 7.81201 16.8698 7.55993 16.8285 7.41285V3.04618C16.8285 2.89909 16.9281 2.77201 17.0548 2.73034C17.2873 2.56701 17.6031 2.63035 17.8985 2.58701L19.5535 2.63034L19.5969 2.75035ZM16.5327 6.07201C16.6177 5.22868 16.5544 4.28535 16.5748 3.48868C16.5748 3.23618 16.596 2.94076 16.406 2.77201C15.794 2.50326 14.9777 2.65035 14.2869 2.60868C14.2448 2.63035 14.1602 2.58159 14.1815 2.67201L14.1602 7.51785L14.2015 7.70701C14.704 7.79201 15.2102 7.74993 15.7365 7.74993C16.0048 7.79201 16.2806 7.87576 16.5327 7.91867C16.5544 7.34909 16.596 6.91034 16.5544 6.36242L16.5327 6.07243V6.07201Z" fill="white"/>
<path fill-rule="evenodd" clip-rule="evenodd" d="M30.7573 2.39661C31.011 2.71369 30.8423 3.1566 30.906 3.53035C31.1794 3.76285 31.7648 3.50994 31.8277 4.0366C31.8698 4.24827 31.7435 4.39535 31.6385 4.51702C31.4494 4.70619 31.116 4.51702 30.9481 4.72786C30.8844 5.36036 30.9481 6.05202 30.9481 6.76827C31.1373 6.88994 31.3894 6.86869 31.5965 6.97369C31.7015 7.10036 31.8064 7.22744 31.8064 7.39619C31.7856 7.56494 31.6806 7.69036 31.5123 7.75411C31.3473 7.83327 31.0531 7.75411 30.9689 7.98577C30.8844 8.31786 30.9902 8.69702 30.9265 9.05077C30.6944 9.16202 30.4198 9.16202 30.1677 9.16202L27.6948 9.13619C27.4631 9.26161 27.2094 9.49369 26.8935 9.36827C26.371 9.03452 25.6544 9.13619 25.0481 9.11452L23.2019 9.09286C22.8644 8.80411 23.1177 8.29786 23.0127 7.94452C22.886 7.73369 22.5485 7.81161 22.3381 7.71203C22.1477 7.62869 22.1056 7.41661 22.1273 7.24744C22.1477 7.03702 22.3381 6.93161 22.5269 6.88994C22.6752 6.80494 22.9489 6.95327 23.0127 6.72661C23.0127 6.07202 22.9706 5.44411 22.991 4.83286C22.949 4.45911 22.4431 4.68577 22.2327 4.53744C22.0427 4.41702 22.0264 4.18494 22.0644 3.97285C22.2327 3.61535 22.6535 3.69911 22.9706 3.59369L23.0127 3.48869L23.0494 2.39661L23.1598 2.31286L26.0335 2.37619C26.371 2.37619 26.661 2.52327 26.9769 2.62869C27.5885 2.17119 28.4898 2.3966 29.2227 2.27119L30.7573 2.39661Z" fill="#ADB0B3" stroke="#ADB0B3" stroke-width="0.28"/>
<path fill-rule="evenodd" clip-rule="evenodd" d="M26.6613 8.19243C26.7251 8.23368 26.7251 8.33951 26.6613 8.35576C26.4076 8.65076 26.0972 8.29201 25.7597 8.35576L24.0563 8.29201C24.2047 7.83326 24.8526 8.10701 25.2113 8.02367C25.6968 8.08659 26.2388 7.93826 26.6613 8.19243ZM29.7455 8.08659C29.8509 8.14909 29.9559 8.25535 29.9776 8.35576C29.118 8.46076 28.2801 8.25535 27.458 8.48243C27.3309 8.46076 27.2888 8.31785 27.3309 8.23368C27.4993 8.04326 27.7738 8.0866 28.0272 8.04326L29.7455 8.08659ZM27.273 8.65076C27.2943 8.83993 27.2943 9.11368 27.0409 9.11368C26.8722 9.13535 26.7251 9.05076 26.683 8.90367C26.6397 8.69284 26.7663 8.50285 26.9134 8.41868C27.1038 8.39701 27.1893 8.54451 27.273 8.65076ZM23.7405 2.6716C23.6988 2.83493 23.4922 2.9616 23.4284 3.13035C23.4501 4.8541 23.4284 6.72076 23.4922 8.50201L23.6405 8.58743C24.5626 8.60785 25.5488 8.39701 26.3455 8.77659C26.3876 8.79784 26.3659 8.79784 26.3455 8.81951C25.3376 8.79784 24.3301 8.88159 23.3451 8.79784L23.2597 8.69243C23.2184 8.31701 23.303 7.95993 23.1343 7.62201C22.9026 7.41201 22.233 7.68576 22.4018 7.20535C22.6484 7.01618 23.0497 7.26826 23.198 6.95242C23.198 6.07159 23.2401 5.29159 23.1763 4.47493C22.9859 4.22118 22.628 4.38951 22.3801 4.32618C22.2963 4.24243 22.233 4.11576 22.3168 4.01035C22.5905 3.78368 23.3872 4.07409 23.2401 3.42451C23.3234 3.15076 23.1126 2.62951 23.4922 2.60785C23.5772 2.60785 23.6826 2.58118 23.7405 2.6716V2.6716ZM30.5888 2.70784C30.6743 3.10868 30.5055 3.50951 30.7363 3.86326C30.9843 3.92701 31.3868 3.77826 31.5126 4.03201C31.4918 4.53826 30.7997 4.13701 30.6526 4.53826C30.7159 5.33451 30.5888 5.98784 30.6743 6.84743C30.5888 6.90951 30.5688 6.99451 30.6309 7.07785C30.8576 7.26826 31.1526 6.95243 31.3868 7.16326C31.5338 7.20535 31.4497 7.33201 31.4497 7.41201C31.2576 7.68576 30.7997 7.37409 30.6743 7.72743L30.6309 8.77659L30.4838 8.83951L27.6897 8.81951C27.6463 8.77659 27.668 8.75618 27.7101 8.73451L28.0476 8.60784H30.168C30.273 8.58743 30.4201 8.50201 30.4201 8.35493C30.3949 6.62754 30.3812 4.9 30.3788 3.17243L30.1247 2.6716C30.2318 2.56618 30.5259 2.54451 30.5888 2.70784V2.70784ZM24.0563 3.36243V7.87451C24.0143 8.00201 23.8672 8.06493 23.7826 8.1491L23.6988 8.08659C23.6826 7.60076 23.7188 7.05826 23.6826 6.59409V6.23492C23.6555 5.24993 23.6555 4.15785 23.6988 3.15076C23.7826 3.06701 23.8672 2.89868 23.973 2.8566C24.0563 3.04576 24.0143 3.17243 24.0563 3.36285V3.36243ZM30.1884 3.13076C30.1463 4.30618 30.168 5.41826 30.2101 6.53076C30.1884 7.05826 30.1884 7.51743 30.1884 8.00201C30.168 8.04326 30.168 8.06492 30.1247 8.08659C29.7668 7.93826 29.8943 7.53743 29.8726 7.22701C29.8943 6.78451 29.8305 6.27826 29.9138 5.84076L29.8509 5.69243L29.8726 2.94034C29.9559 2.74993 30.1247 3.02534 30.1884 3.13076V3.13076ZM29.6401 3.1941C29.6401 3.0041 29.6618 2.77159 29.5568 2.60826L28.8022 2.5816C28.2597 2.67201 27.6463 2.49784 27.2097 2.77159C26.9988 3.02534 27.1038 3.31993 27.0626 3.61535C27.1093 3.7891 27.1622 3.96868 27.2147 4.14826L27.1147 4.37534L26.7934 4.31201L26.7088 4.13201C26.7447 3.99993 26.7826 3.87285 26.8084 3.7366C26.788 3.38326 26.9134 2.83534 26.4505 2.68784C25.7664 2.63159 25.0802 2.60504 24.3938 2.60826C24.3518 2.60826 24.2888 2.62993 24.2684 2.67201L24.2888 7.26368C24.2888 7.45368 24.2251 7.70659 24.4372 7.79201C25.043 7.70659 25.5909 7.8116 26.1822 7.77035C26.4076 7.77035 26.5563 7.98034 26.788 7.91867C26.8518 7.26367 26.8518 6.48867 26.8301 5.77784C26.8084 5.71951 26.8409 5.57659 26.7447 5.55076V5.41868L27.1093 5.46034L27.1459 5.58201L27.1038 5.62909L27.0626 7.79201C27.0826 7.85492 27.0826 8.02368 27.2097 8.00201C27.8584 7.62243 28.6551 7.87534 29.4134 7.79201L29.5822 7.72826C29.6618 7.36909 29.6188 6.09368 29.6188 6.09368C29.6618 5.14451 29.6401 4.20118 29.6401 3.1941V3.1941ZM27.1038 5.20784C27.0626 5.31284 26.8722 5.31285 26.7663 5.27118L26.6613 5.22826C26.7251 4.99743 26.6613 4.72701 26.8518 4.55826C27.0409 4.68535 27.0205 4.97576 27.1038 5.20784" fill="white"/>
<path fill-rule="evenodd" clip-rule="evenodd" d="M16.3221 6.00951C16.0688 5.79743 16.005 5.48159 15.7942 5.22826C15.8796 5.10243 16.0267 5.08118 16.1317 4.97576C16.3004 4.81243 16.4696 4.57993 16.3858 4.3266C16.3642 4.11576 16.2592 3.90534 16.0483 3.79993C15.6096 3.63659 15.0417 3.69993 14.5971 3.74201C14.5138 3.78368 14.4921 3.86368 14.5554 3.92701C14.7246 3.9891 14.7875 4.11576 14.8092 4.26409C14.7875 4.83243 14.7875 5.39701 14.7246 5.96618L14.4921 6.21493C14.7246 6.42535 15.0417 6.26201 15.3788 6.31993C15.4625 6.17285 15.2308 6.06618 15.1888 5.90284C15.2308 5.73409 15.1888 5.50326 15.2938 5.35493C15.6096 5.62868 15.7163 6.06618 16.0904 6.31993L16.5854 6.35659L16.5696 6.08784C16.5071 6.12951 16.3858 6.02993 16.3221 6.00951V6.00951ZM15.6675 4.97576C15.5258 4.97576 15.2938 5.08118 15.2521 4.89618C15.2721 4.62201 15.1467 4.26409 15.2521 4.01076C15.4408 3.86368 15.7367 3.92701 15.8796 4.11576C15.9629 4.26409 15.9629 4.45326 15.9629 4.62201C15.8796 4.77035 15.8363 4.9391 15.6675 4.97576V4.97576ZM27.2096 5.56534C27.2942 5.69201 27.3521 5.8191 27.3363 5.98243L27.1675 6.21493L27.2729 6.29826C27.5208 6.27826 27.8583 6.36201 28.0908 6.25659C28.0271 6.12951 27.8788 6.08784 27.7954 6.00409C27.4992 5.23367 27.2942 4.41659 27.0625 3.62034L26.8083 3.74201C26.6613 4.45326 26.3658 5.10243 26.1971 5.84076C26.1604 5.98243 26.0121 6.00409 25.9067 6.08784C25.7596 6.12951 25.6967 5.96076 25.6329 5.88243C25.6125 5.24993 25.6967 4.72701 25.6546 4.05243C25.6329 3.94701 25.7596 3.82035 25.865 3.92701C26.0338 4.01076 26.0121 4.22118 26.0754 4.36951C26.1188 4.43285 26.2242 4.43285 26.2388 4.3266L26.3454 3.67868C26.2604 3.46784 26.0754 3.69993 25.9067 3.67868C25.5908 3.65701 25.1483 3.74201 24.8525 3.5516C24.6058 3.6366 24.6675 3.9891 24.6263 4.22118C24.6058 4.2641 24.6263 4.30618 24.6475 4.3266C24.8525 4.20076 24.9579 3.86368 25.2533 3.94701L25.275 4.57993L25.2113 5.94618C25.1267 6.05159 24.9213 6.08784 24.9375 6.23493C25.2954 6.34159 25.7379 6.23493 26.0971 6.27826C26.3021 6.29826 26.5346 6.34159 26.7033 6.27826C26.7446 6.23493 26.725 6.17285 26.6829 6.12951C26.5563 6.06618 26.4075 5.96076 26.4504 5.79743C26.5142 5.69201 26.5346 5.4816 26.725 5.54493C26.7717 5.54493 26.7879 5.57076 26.8029 5.60326L27.1038 5.63951V5.62868C27.1458 5.58701 27.1458 5.56534 27.2096 5.56534V5.56534ZM26.7663 5.27118L26.6613 5.22826C26.725 4.99743 26.6613 4.72701 26.8517 4.55826C27.0408 4.68535 27.0204 4.97576 27.1038 5.20784C27.0625 5.31284 26.8721 5.31285 26.7663 5.27118V5.27118ZM29.1233 3.84201C29.1233 3.99451 29.2338 4.26826 29.1029 4.37868C28.9546 4.24785 28.9342 4.12118 28.6962 4.05785C28.5696 4.05785 28.4429 4.07909 28.4171 4.22618C28.3742 4.67993 28.8275 4.67993 29.0813 4.97576C29.3192 5.21326 29.4242 5.59784 29.3192 5.89743C29.2188 6.14034 29.1029 6.28368 28.8704 6.28368C28.655 6.32534 28.5008 6.17826 28.3321 6.26201C28.2904 6.26201 28.2067 6.30368 28.1579 6.24034L28.185 5.40743C28.195 5.38819 28.2102 5.3721 28.2288 5.36093C28.2474 5.34975 28.2687 5.34393 28.2904 5.34409C28.4171 5.61784 28.3321 5.94076 28.7167 5.96076C28.8433 5.94076 28.9492 5.92451 28.9708 5.75576C29.0175 5.00659 28.0325 5.19159 28.0529 4.42201C28.0746 4.24784 28.095 4.09951 28.185 3.95243C28.3538 3.67326 28.7383 3.84201 28.9967 3.67326C29.1029 3.63118 29.1029 3.77826 29.1233 3.84201V3.84201ZM18.5883 3.79993C18.3783 3.90534 18.1458 4.0741 18.2092 4.36951C18.1458 4.87576 18.1675 5.39701 18.1892 5.94618L18.5267 6.23493L18.505 6.27826C18.1458 6.27826 17.8138 6.34159 17.4563 6.27826C17.3079 6.11493 17.6454 6.02993 17.7083 5.90284C17.7721 5.31284 17.8354 4.70701 17.7721 4.05243C17.7083 3.86368 17.3925 3.94701 17.4767 3.74201C17.7933 3.69993 18.2092 3.69993 18.5267 3.74201L18.5883 3.79993ZM8.39792 4.20076C8.18625 4.45326 8.14417 3.96868 7.93417 3.94701C7.80667 3.93118 7.6175 3.88909 7.51667 3.98909C7.47459 4.26409 7.4325 4.51659 7.51667 4.77034C7.60125 4.83243 7.76542 4.81243 7.87042 4.81243C7.99709 4.72701 8.06084 4.49493 8.22917 4.5166C8.33459 4.62201 8.18626 4.79076 8.24959 4.89618C8.20792 5.05951 8.355 5.24993 8.16584 5.31284C8.03917 5.24993 7.97542 5.01743 7.80667 5.01743L7.51667 5.03909C7.41125 5.41826 7.45292 5.75576 7.51667 6.11493C7.68 6.27826 7.89209 6.12951 8.08126 6.12951C8.35501 6.0716 8.29292 5.69201 8.52334 5.73409C8.58709 5.88243 8.60876 6.11493 8.56667 6.27826L8.44001 6.36201L6.94834 6.3416C6.88501 6.31993 6.73625 6.31993 6.8 6.21493C7.28542 5.92451 7.01084 5.35493 7.07376 4.89618C7.01084 4.55826 7.26417 4.05243 6.82126 3.84743C6.80001 3.72034 6.94834 3.75826 6.99042 3.72035C7.36959 3.72035 7.87042 3.86368 8.16584 3.5516C8.39792 3.67868 8.37625 3.96868 8.39792 4.20076V4.20076ZM6.10876 3.86368C5.68751 4.20076 5.66584 4.79076 5.47709 5.27118C5.30834 5.54493 5.39209 5.94618 5.12334 6.17826C5.01792 6.21493 4.93334 6.11493 4.91292 6.02993C4.76751 5.37948 4.57719 4.73989 4.34334 4.11576C4.32167 3.92701 3.88459 3.88368 4.13667 3.74201C4.44876 3.69993 4.68084 3.78368 4.97626 3.75826C5.03834 3.94701 4.74417 4.05243 4.82792 4.28451C5.01792 4.55826 4.95459 4.97576 5.18667 5.24993L5.29209 5.14451C5.30834 4.66368 5.85626 4.22118 5.39209 3.79993C5.49709 3.61493 5.81459 3.74201 6.025 3.67868C6.06709 3.71493 6.21542 3.75826 6.10876 3.86368Z" fill="#ADB0B3"/>
</svg>
