<svg xmlns="http://www.w3.org/2000/svg" width="31.582" height="31.583" viewBox="0 0 31.582 31.583">
  <g id="Group_44" data-name="Group 44" transform="translate(-1793.648 -12677.166)">
    <path id="Path_61" data-name="Path 61" d="M1809.439,12680.012c4.217,0,4.716.017,6.381.092a8.731,8.731,0,0,1,2.933.544,5.235,5.235,0,0,1,3,3,8.726,8.726,0,0,1,.544,2.934c.076,1.665.092,2.164.092,6.38s-.016,4.716-.092,6.381a8.726,8.726,0,0,1-.544,2.934,5.229,5.229,0,0,1-3,3,8.681,8.681,0,0,1-2.933.544c-1.665.076-2.164.093-6.381.093s-4.716-.017-6.38-.093a8.681,8.681,0,0,1-2.933-.544,5.235,5.235,0,0,1-3-3,8.755,8.755,0,0,1-.543-2.934c-.076-1.665-.092-2.164-.092-6.381s.016-4.715.092-6.38a8.755,8.755,0,0,1,.543-2.934,5.24,5.24,0,0,1,3-3,8.731,8.731,0,0,1,2.933-.544c1.665-.075,2.164-.092,6.38-.092m0-2.846c-4.288,0-4.826.019-6.51.095a11.616,11.616,0,0,0-3.833.734,8.082,8.082,0,0,0-4.619,4.619,11.6,11.6,0,0,0-.734,3.833c-.076,1.684-.1,2.222-.1,6.51s.019,4.827.1,6.511a11.6,11.6,0,0,0,.734,3.833,8.077,8.077,0,0,0,4.619,4.618,11.566,11.566,0,0,0,3.833.734c1.684.077,2.222.1,6.51.1s4.827-.019,6.511-.1a11.564,11.564,0,0,0,3.833-.734,8.072,8.072,0,0,0,4.618-4.618,11.55,11.55,0,0,0,.734-3.833c.077-1.684.095-2.222.095-6.511s-.018-4.826-.095-6.51a11.55,11.55,0,0,0-.734-3.833,8.078,8.078,0,0,0-4.618-4.619,11.614,11.614,0,0,0-3.833-.734c-1.684-.076-2.222-.095-6.511-.095Z" fill="#fefefe"/>
    <path id="Path_62" data-name="Path 62" d="M1809.439,12684.849a8.109,8.109,0,1,0,8.109,8.108A8.108,8.108,0,0,0,1809.439,12684.849Zm0,13.372a5.263,5.263,0,1,1,5.264-5.264A5.262,5.262,0,0,1,1809.439,12698.221Z" fill="#fefefe"/>
    <circle id="Ellipse_3" data-name="Ellipse 3" cx="1.895" cy="1.895" r="1.895" transform="translate(1815.974 12682.633)" fill="#fefefe"/>
  </g>
</svg>
