<svg xmlns="http://www.w3.org/2000/svg" width="39.531" height="28.429" viewBox="0 0 39.531 28.429">
  <path id="Path_63" data-name="Path 63" d="M1584.938,12682.3a16.728,16.728,0,0,0-9.51-3.553l-.474.541c5.754,1.76,8.427,4.3,8.427,4.3a27.6,27.6,0,0,0-10.187-3.25,28.664,28.664,0,0,0-6.837.068,3.3,3.3,0,0,0-.575.067,25.411,25.411,0,0,0-7.683,2.132c-1.252.575-2,.982-2,.982s2.809-2.674,8.9-4.434l-.339-.406a16.728,16.728,0,0,0-9.51,3.553,45.325,45.325,0,0,0-4.874,19.732s2.843,4.907,10.323,5.144c0,0,1.252-1.522,2.267-2.809a10.53,10.53,0,0,1-5.923-3.993s.339.237.948.575a.5.5,0,0,0,.135.1c.1.067.2.1.305.169a19.832,19.832,0,0,0,2.471,1.151,28.421,28.421,0,0,0,4.975,1.455,23.731,23.731,0,0,0,8.766.034,22.313,22.313,0,0,0,4.907-1.456,19.352,19.352,0,0,0,3.892-2,10.677,10.677,0,0,1-6.125,4.027c1.015,1.286,2.233,2.741,2.233,2.741,7.48-.236,10.357-5.144,10.357-5.144A45.325,45.325,0,0,0,1584.938,12682.3Zm-21.221,16.585a3.77,3.77,0,0,1,0-7.514,3.77,3.77,0,0,1,0,7.514Zm12.354,0a3.77,3.77,0,1,1,3.452-3.757A3.628,3.628,0,0,1,1576.071,12698.881Z" transform="translate(-1550.281 -12678.743)" fill="#fefefe"/>
</svg>
