<svg xmlns="http://www.w3.org/2000/svg" width="32.42" height="32.419" viewBox="0 0 32.42 32.419">
  <path id="Path_64" data-name="Path 64" d="M1449.633,12676.36a16.209,16.209,0,1,0,16.21,16.209A16.211,16.211,0,0,0,1449.633,12676.36Zm-8.212,16.754.068-.11,4.218-6.6a.145.145,0,0,1,.253.019c.7,1.579,1.313,3.543,1.027,4.767a7.347,7.347,0,0,1-.83,1.812c-.048.091-.1.181-.158.27a.146.146,0,0,1-.12.062h-4.335A.143.143,0,0,1,1441.421,12693.114Zm18.794,2.27a.147.147,0,0,1-.088.136,5.2,5.2,0,0,0-1.91,1.3c-1.186,1.649-2.091,4.01-4.117,4.01h-8.448a5.429,5.429,0,0,1-5.421-5.44v-.1a.145.145,0,0,1,.146-.143h4.707a.162.162,0,0,1,.156.178,1.582,1.582,0,0,0,.169.905,1.655,1.655,0,0,0,1.484.921h2.331v-1.819h-2.305a.15.15,0,0,1-.12-.234l.085-.123c.217-.311.528-.791.839-1.339a10.807,10.807,0,0,0,.581-1.16c.032-.071.058-.146.087-.217.046-.127.091-.247.123-.363.033-.1.062-.2.088-.3a4.715,4.715,0,0,0,.11-1.062c0-.146-.006-.3-.019-.441-.007-.159-.026-.317-.046-.477-.013-.14-.039-.279-.065-.421-.035-.211-.081-.422-.133-.634l-.019-.08c-.039-.146-.075-.282-.12-.429-.133-.453-.282-.9-.444-1.312-.058-.165-.123-.324-.191-.479-.1-.239-.2-.457-.289-.662-.049-.094-.087-.178-.126-.266s-.091-.194-.14-.288c-.032-.071-.071-.139-.1-.2l-.285-.525a.094.094,0,0,1,.1-.137l1.784.483h.013l.233.068.259.071.094.026v-1.057a.921.921,0,0,1,.918-.928.891.891,0,0,1,.645.272.934.934,0,0,1,.269.655v1.571l.191.052a.437.437,0,0,1,.042.023c.046.032.114.084.2.149.068.052.14.116.224.185.172.139.379.317.6.522.058.051.117.1.172.157.288.271.612.584.924.935.087.1.171.2.259.3s.178.211.256.314c.107.14.217.286.318.438.045.071.1.146.142.217.13.192.24.39.347.587.046.092.091.191.13.289a3.962,3.962,0,0,1,.272.808.807.807,0,0,1,.039.178v.013a1.5,1.5,0,0,1,.033.25,2.756,2.756,0,0,1-.046.833c-.026.117-.058.228-.1.348s-.081.229-.133.343a4.638,4.638,0,0,1-.356.678c-.046.081-.1.165-.153.246s-.12.166-.172.244c-.074.1-.152.2-.233.3a3.255,3.255,0,0,1-.224.282c-.11.133-.217.256-.33.376a2.737,2.737,0,0,1-.211.229c-.072.081-.146.152-.211.218-.113.113-.2.2-.282.272l-.185.165a.135.135,0,0,1-.1.039h-1.42v1.819h1.786a1.666,1.666,0,0,0,1.086-.4,13.369,13.369,0,0,0,1.1-1.083.123.123,0,0,1,.068-.042l4.931-1.427a.144.144,0,0,1,.185.14v1.044Z" transform="translate(-1433.423 -12676.36)" fill="#fefefe"/>
</svg>
