<svg xmlns="http://www.w3.org/2000/svg" width="35.602" height="28.935" viewBox="0 0 35.602 28.935">
  <path id="path3611" d="M1685.274,12707.425c13.436,0,20.783-11.131,20.783-20.783,0-.315-.006-.631-.02-.943a14.848,14.848,0,0,0,3.643-3.783,14.556,14.556,0,0,1-4.194,1.15,7.33,7.33,0,0,0,3.212-4.04,14.649,14.649,0,0,1-4.639,1.772,7.31,7.31,0,0,0-12.447,6.661,20.738,20.738,0,0,1-15.057-7.632,7.311,7.311,0,0,0,2.262,9.752,7.264,7.264,0,0,1-3.309-.913c0,.03,0,.06,0,.093a7.306,7.306,0,0,0,5.861,7.16,7.316,7.316,0,0,1-3.3.126,7.312,7.312,0,0,0,6.823,5.073,14.65,14.65,0,0,1-9.072,3.127,14.869,14.869,0,0,1-1.742-.1,20.673,20.673,0,0,0,11.2,3.281" transform="translate(-1674.078 -12678.49)" fill="#fefefe"/>
</svg>
