<svg width="205" height="42" viewBox="0 0 205 42" fill="none" xmlns="http://www.w3.org/2000/svg">
<path d="M203.818 21.2137C203.539 20.5659 202.575 21.2713 201.763 21.6394C199.012 23.171 196.258 24.6201 193.251 25.9984C190.327 27.3728 187.542 28.1627 184.975 28.2817C183.567 28.347 181.982 28.1727 180.213 27.5941C178.447 27.0978 176.824 26.0994 175.34 24.5164C174.903 24.0411 174.477 23.8131 174.055 23.6674C173.638 23.6042 173.148 23.7921 172.513 24.3997C171.723 25.2622 170.929 26.0424 170.128 26.6576C169.33 27.3553 168.608 27.8844 167.964 28.3272C167.321 28.77 166.753 29.0441 166.421 29.0594C166.011 29.1611 165.834 28.9215 165.815 28.5094C165.777 27.6853 165.987 26.8496 166.529 25.9986C167.066 25.0652 167.69 24.2103 168.484 23.4302C169.274 22.5677 170.072 21.87 170.96 21.3333C171.848 20.7965 172.747 20.5071 173.492 20.4725C174.238 20.438 174.667 20.7484 174.942 21.3138C174.946 21.3962 175.036 21.5572 175.04 21.6396C175.229 22.1264 175.681 22.9313 176.336 22.7358C177.156 22.5326 177.155 20.7156 176.254 19.1882C175.637 18.3909 174.706 18.0211 173.381 18.0825C172.388 18.1286 171.244 18.512 170.036 19.3113C168.824 20.0282 167.79 20.9847 166.755 21.9412C165.807 22.9762 164.946 24.0898 164.341 25.3567C163.736 26.6237 163.454 27.7104 163.504 28.7818C163.611 31.0893 164.733 32.0284 166.788 31.6027C168.843 31.1771 171.089 29.5037 173.527 26.5826C175.259 28.1541 177.052 29.2272 178.991 29.8807C180.93 30.5341 182.936 30.854 184.924 30.7618C187.657 30.6351 190.69 29.8337 193.859 28.3653C197.027 26.897 199.841 24.9495 202.403 22.9311C203.126 22.4021 204.093 21.7791 203.818 21.2137Z" fill="#BADFD6"/>
<path d="M1.62448 31.2498C1.75189 30.418 2.23729 30.1477 2.90742 30.2818C3.58137 30.4983 3.84891 30.8989 3.79285 31.4796L3.2386 35.6348C5.23244 33.8906 7.07213 32.4012 8.91563 30.9943C10.763 29.6698 12.3058 28.9375 13.4651 28.8837C14.7901 28.8223 15.7201 29.1921 16.1762 30.0795C16.6323 30.9668 17.0846 31.7718 17.4502 32.4981C17.9139 33.5503 18.5395 34.5124 19.4172 35.5454C20.295 36.5783 21.8086 37.0037 23.9616 36.9039C26.0319 36.8079 28.7379 36.1043 32.2491 34.8678C35.7603 33.6313 40.2231 31.4422 45.8823 28.2065C46.4505 27.9324 46.9589 28.1566 47.234 28.722C47.513 29.3698 47.4532 29.8681 46.8888 30.2246C40.9812 33.4718 36.2775 35.8373 32.6873 37.16C29.0972 38.4827 26.2255 39.194 24.0725 39.2939C22.6647 39.3591 21.4977 39.2481 20.4887 38.9645C19.5625 38.6771 18.7943 38.2172 18.1012 37.5886C17.4909 36.9561 16.9635 36.3199 16.6017 35.6759C16.2399 35.032 15.957 34.3018 15.5952 33.6578C15.0219 32.0326 14.3251 31.3216 13.497 31.36C12.3376 31.4137 11.0394 32.0521 9.4405 33.3651C7.84161 34.6781 5.53182 36.7674 2.34932 39.723C2.19517 39.9779 1.78877 40.1619 1.2919 40.185C0.79886 40.2904 0.538954 40.0547 0.677825 39.4701L1.62448 31.2498Z" fill="#BADFD6"/>
<path d="M57.356 28.6656C57.2171 29.2502 56.8146 29.5167 56.1482 29.465C55.5648 29.4094 55.2182 29.0951 55.1838 28.3534C55.2437 27.8551 55.2208 27.3606 54.9456 26.7952C54.7532 26.226 54.2411 25.9194 53.4958 25.954C52.6677 25.9924 51.851 26.278 50.963 26.8147C50.075 27.3514 49.1947 28.053 48.4876 28.9117C47.6977 29.7742 47.0735 30.6291 46.532 31.4801C45.9944 32.4135 45.7842 33.2492 45.8186 33.9909C45.8415 34.4854 46.0147 34.6425 46.425 34.5409C46.8352 34.4393 47.3244 34.2514 47.9678 33.8086C48.6112 33.3658 49.3335 32.8368 50.1311 32.1391C50.9286 31.4414 51.7262 30.7437 52.516 29.8812C53.069 29.2774 53.6372 29.0033 54.0589 29.1489C54.4767 29.2121 54.9061 29.5226 55.3431 29.9978C56.8273 31.5808 58.4504 32.5792 60.2161 33.0755C61.9819 33.5718 63.5706 33.8285 64.9784 33.7632C67.5455 33.6441 70.3305 32.8543 73.2544 31.4799C76.1782 30.1054 78.9212 28.409 81.4081 26.5593C82.2209 26.1912 82.7254 26.333 83.0006 26.8984C83.2796 27.5462 83.1254 27.8011 82.6515 28.3186C80.0856 30.2546 77.1923 32.2883 74.0239 33.7567C70.7726 35.2289 67.8219 36.0265 65.0892 36.1532C63.0189 36.2492 61.0952 35.9254 59.1562 35.272C57.2171 34.6186 55.4246 33.5455 53.6919 31.974C51.2547 34.8951 49.0086 36.5684 46.9537 36.9941C44.8987 37.4197 43.7763 36.4807 43.6693 34.1731C43.6196 33.1018 43.9012 32.015 44.5063 30.7481C45.1115 29.4812 45.8899 28.3714 46.9206 27.3325C47.8685 26.2975 48.9896 25.4196 50.2012 24.7027C51.4128 23.9858 52.4702 23.5238 53.5468 23.4739C55.203 23.3971 56.2273 24.0103 56.7815 25.2235C57.1815 26.6916 57.3968 27.7553 57.356 28.6656Z" fill="#BADFD6"/>
<path d="M131.712 25.0526C131.851 24.468 132.34 24.2802 133.014 24.4967C133.688 24.7132 133.956 25.1138 133.9 25.6945C133.427 28.029 133.677 29.8344 134.736 31.1893C135.794 32.5443 137.315 33.1345 139.303 33.0423C141.207 32.954 143.349 32.6069 145.731 32.0835C148.027 31.4815 150.402 30.7933 152.765 29.8578C155.129 28.9223 157.488 27.9044 159.753 26.6431C162.022 25.4642 164.118 24.1281 166.048 22.7998C166.605 22.2784 167.188 22.334 167.633 22.9741C168.078 23.6142 168.022 24.1949 167.386 24.8025C165.381 26.2995 163.202 27.6394 160.854 28.9046C158.423 30.1736 155.985 31.2777 153.539 32.217C151.093 33.1564 148.639 33.9309 146.174 34.4581C143.712 35.0678 141.484 35.3363 139.496 35.4285C136.598 35.5629 134.482 34.6699 132.903 32.8435C131.329 31.0995 130.958 28.4738 131.712 25.0526Z" fill="#BADFD6"/>
<path d="M132.981 14.8351C134.455 12.6194 135.529 19.6724 133.203 19.6151C131.456 19.5309 131.507 17.0508 132.981 14.8351Z" fill="#BADFD6"/>
<path d="M132.883 25.2462C132.683 24.5121 132.179 24.3703 131.373 24.9032C127.186 27.6577 123.788 29.5497 121.267 30.6577C118.745 31.7656 116.036 32.3868 113.303 32.5136C110.984 32.6211 109.192 31.5479 107.925 29.2941C106.659 27.0403 106.013 23.8492 105.826 19.8109C105.612 15.1958 106.093 9.4747 107.192 2.73393C107.327 2.06694 107.138 1.58014 106.46 1.28121C105.786 1.06468 105.38 1.24871 105.162 1.91954C103.333 7.20758 101.307 11.844 99.0889 15.9112C96.8708 19.9784 94.6184 23.3039 92.2563 26.0563C89.8943 28.8087 87.6635 30.8118 85.4887 32.234C83.314 33.6563 81.2743 34.4116 79.4525 34.4961C79.0384 34.5153 78.8613 34.2758 78.8422 33.8637C78.804 33.0395 79.176 32.1138 79.8755 31.0903C80.2628 30.4942 80.8195 29.9728 81.3763 29.4515L81.2935 29.4553C82.249 28.5851 83.4605 27.8682 84.5931 27.2375C87.9158 25.5143 91.4461 24.6898 91.404 23.7833C91.3926 23.536 91.1327 23.3003 90.8804 23.2294C90.4587 23.0838 89.8752 23.0283 89.3822 23.1337C88.1477 23.3561 86.8342 23.6648 85.6188 24.2993C83.5905 25.3019 82.6197 25.8424 81.254 26.8142C79.8054 27.7899 78.5454 29.2524 77.7708 30.4446C77 31.7192 76.5567 32.896 76.6102 34.0498C76.6522 34.9563 76.935 35.6865 77.4586 36.2404C77.9823 36.7942 78.66 37.0932 79.4881 37.0548C82.8834 36.8973 86.7704 34.8175 91.1454 30.7329C95.6031 26.6444 99.7055 20.2599 103.622 11.6541C103.428 14.6363 103.393 17.446 103.511 20.0009C103.729 24.6984 104.65 28.4549 106.188 31.1917C107.725 33.9285 110.105 35.1396 113.252 34.9936C116.15 34.8592 118.943 34.2342 121.626 33.0361C124.309 31.838 127.869 29.856 132.218 27.0114C132.862 26.5686 133 25.984 132.883 25.2462Z" fill="#BADFD6"/>
<path d="M90.8804 23.2293C91.1887 22.7195 91.6665 22.2844 90.5823 22.1695C89.4981 22.0546 88.6509 21.6809 88.5872 22.0968C88.5197 22.4303 88.5426 22.9248 88.5426 22.9248L88.6446 23.333C88.8892 23.2391 89.1376 23.2276 89.4688 23.2122C89.879 23.1106 90.4587 23.0837 90.8804 23.2293Z" fill="white"/>
</svg>
