<svg width="88" height="88" viewBox="0 0 88 88" fill="none" xmlns="http://www.w3.org/2000/svg">
<rect opacity="0.1" width="88" height="88" rx="44" fill="#00AFA3"/>
<g opacity="0.8">
<path fill-rule="evenodd" clip-rule="evenodd" d="M43.9998 62.3334C48.4471 62.3334 52.5148 60.7514 55.6873 58.121L56.5317 58.9654C56.869 59.3041 57.313 59.4688 57.7498 59.4688C58.1867 59.4688 58.6293 59.301 58.9651 58.9653C59.6365 58.2939 59.6365 57.2065 58.9651 56.5347L58.1222 55.6876C60.7505 52.5151 62.3332 48.4473 62.3332 44.0001C62.3332 39.5528 60.7512 35.4851 58.1208 32.3126L58.9651 31.4682C59.6365 30.7969 59.6365 29.7094 58.9651 29.0376C58.2938 28.3659 57.2063 28.3663 56.5345 29.0376L55.6902 29.882C52.5148 27.2487 48.4471 25.6667 43.9998 25.6667C39.5526 25.6667 35.4849 27.2487 32.3095 29.8791L31.4651 29.0348C30.7938 28.3634 29.7063 28.3634 29.0345 29.0348C28.3628 29.7062 28.3632 30.7936 29.0345 31.4654L29.8789 32.3097C27.2485 35.4851 25.6665 39.5528 25.6665 44.0001C25.6665 48.4473 27.2485 52.5151 29.8789 55.6876L29.0345 56.5319C28.3632 57.2033 28.3632 58.2908 29.0345 58.9625C29.3704 59.3041 29.8101 59.4688 30.2498 59.4688C30.6896 59.4688 31.1293 59.301 31.4651 58.9653L32.3095 58.121C35.4849 60.7507 39.5526 62.3334 43.9998 62.3334ZM40.5265 38.099L34.7616 32.3348C37.3039 30.3181 40.5122 29.1042 43.9998 29.1042C47.4882 29.1042 50.6937 30.3181 53.1737 32.3348L47.4108 38.0976C46.4491 37.4975 45.2746 37.1251 43.9998 37.1251C42.7251 37.1251 41.5506 37.4975 40.5265 38.099ZM55.6653 53.1739L49.9025 47.4111C50.5026 46.4493 50.875 45.2748 50.875 44.0001C50.875 42.7253 50.5055 41.5501 49.9025 40.5282L55.6653 34.7654C57.6784 37.3041 58.8958 40.5125 58.8958 44.0001C58.8958 47.4884 57.682 50.6939 55.6653 53.1739ZM32.3345 53.2348C30.3179 50.696 29.104 47.4877 29.104 44.0001C29.104 40.5117 30.3179 37.3063 32.3345 34.8263L38.0974 40.5891C37.4972 41.5509 37.1248 42.7253 37.1248 44.0001C37.1248 45.2748 37.4944 46.45 38.0974 47.472L32.3345 53.2348ZM43.9998 47.4376C42.1021 47.4376 40.5623 45.8979 40.5623 44.0001C40.5623 42.1044 42.1042 40.5626 43.9998 40.5626C45.8955 40.5626 47.4373 42.1044 47.4373 44.0001C47.4373 45.8957 45.8976 47.4376 43.9998 47.4376ZM43.9998 58.8959C40.5115 58.8959 37.306 57.6821 34.826 55.6654L40.5888 49.9026C41.5506 50.5027 42.7251 50.8751 43.9998 50.8751C45.2746 50.8751 46.4498 50.5056 47.4717 49.9026L53.2345 55.6654C50.6958 57.6785 47.4875 58.8959 43.9998 58.8959Z" fill="#094599"/>
</g>
</svg>
