<svg width="88" height="88" viewBox="0 0 88 88" fill="none" xmlns="http://www.w3.org/2000/svg">
<rect opacity="0.1" width="88" height="88" rx="44" fill="#00AFA3"/>
<g opacity="0.8">
<path fill-rule="evenodd" clip-rule="evenodd" d="M37.1248 56.8333V53.3958H30.2498C29.6171 53.3958 29.104 52.8828 29.104 52.25V32.7708C29.104 32.1406 29.6182 31.625 30.2498 31.625H31.3957V32.7708C31.3957 34.0363 32.4219 35.0625 33.6873 35.0625H38.0809C39.2733 33.0143 41.4647 31.625 43.9998 31.625H48.4185C47.91 29.652 46.134 28.1875 43.9998 28.1875H41.078C40.7987 26.2489 39.1372 24.75 37.1248 24.75C35.1125 24.75 33.451 26.2489 33.1717 28.1875H30.2498C27.7183 28.1875 25.6665 30.2393 25.6665 32.7708V52.25C25.6665 54.7809 27.7183 56.8333 30.2498 56.8333H37.1248ZM37.1248 29.9062C36.4931 29.9062 35.979 29.3923 35.979 28.7604C35.979 28.1285 36.4931 27.6146 37.1248 27.6146C37.7566 27.6146 38.2707 28.1285 38.2707 28.7604C38.2707 29.3923 37.755 29.9062 37.1248 29.9062ZM57.7497 61.4167C60.2705 61.4167 62.333 59.3542 62.333 56.8333L62.3337 40.5983C62.333 39.9896 62.0895 39.4023 61.6598 38.9727L57.2734 34.5863C56.8473 34.1602 56.2673 33.9167 55.6585 33.9167H43.9997C41.4717 33.9167 39.3519 35.972 39.4163 38.5L39.4168 56.7689C39.4163 59.3613 41.4717 61.4167 43.9997 61.4167H57.7497ZM57.7498 57.9792H43.9998C43.3669 57.9792 42.854 57.4661 42.854 56.8333V38.5072C42.854 37.8744 43.3671 37.3613 43.9998 37.3613H53.1665V40.7917C53.1665 42.0571 54.1927 43.0833 55.4582 43.0833H58.8964V56.8333C58.8957 57.4661 58.3826 57.9792 57.7498 57.9792Z" fill="#094599"/>
</g>
</svg>
