<svg width="88" height="88" viewBox="0 0 88 88" fill="none" xmlns="http://www.w3.org/2000/svg">
<rect opacity="0.1" width="88" height="88" rx="44" fill="#00AFA3"/>
<g opacity="0.8">
<path fill-rule="evenodd" clip-rule="evenodd" d="M57.7498 61.4166C60.2814 61.4166 62.3332 59.3375 62.3332 56.7721V38.1944C62.3332 35.6327 60.2778 33.5499 57.7498 33.5499H53.1665V31.2277C53.1665 28.6624 51.1147 26.5833 48.5832 26.5833H39.4165C36.8885 26.5833 34.8332 28.6624 34.8332 31.2277V33.5499H30.2498C27.7183 33.5499 25.6665 35.6327 25.6665 38.1944V56.7721C25.6665 59.3375 27.7183 61.4166 30.2498 61.4166H57.7498ZM49.729 33.5499H38.2707V31.2277C38.2707 30.5862 38.7863 30.0666 39.4165 30.0666H48.5832C49.216 30.0666 49.729 30.5864 49.729 31.2277V33.5499ZM58.8957 45.161H29.104V38.1944C29.104 37.5558 29.6196 37.0333 30.2498 37.0333H57.7498C58.38 37.0333 58.8957 37.5558 58.8957 38.1944V45.161ZM57.7498 57.9332H30.2498C29.6196 57.9332 29.104 57.4107 29.104 56.7721V48.6444H39.4165V49.8055C39.4165 51.0878 40.4427 52.1277 41.7082 52.1277H46.2915C47.5569 52.1277 48.5832 51.0878 48.5832 49.8055V48.6444H58.8957V56.7721C58.8957 57.4107 58.38 57.9332 57.7498 57.9332Z" fill="#094599"/>
</g>
</svg>
