<svg width="380" height="419" viewBox="0 0 380 419" fill="none" xmlns="http://www.w3.org/2000/svg">
<ellipse rx="77.3297" ry="44.4453" transform="matrix(-0.997564 -0.0697565 -0.0697565 0.997564 175.927 311.344)" fill="#253157"/>
<path d="M101.305 306.126C100.701 315.999 106.278 324.631 113.292 331.13C122.808 339.908 135.26 345.371 147.55 348.849C162.453 353.025 177.977 354.454 193.399 353.042C206.704 351.827 220.15 348.603 231.742 341.817C240.108 336.951 248.096 329.525 250.116 319.666C252.064 310.23 247.715 301.213 241.408 294.419C232.865 285.237 221.09 279.306 209.345 275.394C194.789 270.556 179.298 268.657 163.975 269.26C150.245 269.802 136.228 272.599 123.864 278.774C114.923 283.257 105.995 290.015 102.565 299.776C101.906 301.833 101.455 303.991 101.305 306.126C101.036 309.37 95.9955 309.017 96.2652 305.774C97.1182 294.803 104.149 285.722 112.907 279.553C124.241 271.546 138.06 267.276 151.712 265.398C168.179 263.158 184.904 263.985 201.075 267.82C214.756 271.051 228.444 276.644 239.364 285.606C247.806 292.549 254.916 301.974 255.592 313.181C256.255 323.958 250.515 333.601 242.53 340.382C232.311 349.025 219.056 353.806 206.046 356.331C189.903 359.451 173.048 359.26 156.912 356.157C142.511 353.39 128.181 348.396 116.161 339.829C107.124 333.403 98.8281 324.367 96.6941 313.144C96.2207 310.707 96.0949 308.209 96.2255 305.728C96.4495 302.525 101.49 302.877 101.305 306.126Z" fill="black"/>
<path fill-rule="evenodd" clip-rule="evenodd" d="M364.515 244.653C371.119 150.212 299.931 68.2735 205.49 61.6696C111.007 55.0627 29.1083 126.296 22.5044 220.737C15.9005 315.177 87.1311 397.119 181.572 403.723C276.012 410.327 357.911 339.093 364.515 244.653ZM297.113 239.939C293.113 297.133 243.482 340.277 186.288 336.277C129.052 332.275 85.9506 282.647 89.95 225.453C93.9494 168.259 143.58 125.116 200.774 129.115C257.968 133.114 301.112 182.745 297.113 239.939Z" fill="white"/>
<path fill-rule="evenodd" clip-rule="evenodd" d="M364.515 244.653C371.119 150.212 299.931 68.2735 205.49 61.6696C111.007 55.0627 29.1083 126.296 22.5044 220.737C15.9005 315.177 87.1311 397.119 181.572 403.723C276.012 410.327 357.911 339.093 364.515 244.653ZM297.113 239.939C293.113 297.133 243.482 340.277 186.288 336.277C129.052 332.275 85.9506 282.647 89.95 225.453C93.9494 168.259 143.58 125.116 200.774 129.115C257.968 133.114 301.112 182.745 297.113 239.939Z" fill="white"/>
<path fill-rule="evenodd" clip-rule="evenodd" d="M364.515 244.653C371.119 150.212 299.931 68.2735 205.49 61.6696C111.007 55.0627 29.1083 126.296 22.5044 220.737C15.9005 315.177 87.1311 397.119 181.572 403.723C276.012 410.327 357.911 339.093 364.515 244.653ZM297.113 239.939C293.113 297.133 243.482 340.277 186.288 336.277C129.052 332.275 85.9506 282.647 89.95 225.453C93.9494 168.259 143.58 125.116 200.774 129.115C257.968 133.114 301.112 182.745 297.113 239.939Z" fill="white"/>
<path d="M205.606 60.0038C241.312 62.5435 275.774 76.1133 303.411 98.9063C330.397 121.182 350.067 151.101 359.907 184.711C370.002 219.583 368.676 257.563 356.329 291.725C323.73 381.643 224.421 428.095 134.502 395.495C49.4397 364.652 2.50009 273.55 26.6654 186.389C36.0292 152.534 55.8953 121.946 82.9182 99.4981C110.03 77.0138 143.844 63.0247 178.983 60.1595C187.832 59.4477 196.722 59.3825 205.606 60.0038C207.785 60.1561 207.552 63.4878 205.37 63.3782C111.872 56.7973 30.7138 127.267 24.1299 220.808C23.0277 236.569 24.11 252.397 27.3667 267.82C34.4242 301.321 51.8348 332.241 76.5836 355.819C101.9 379.867 134.029 395.505 168.567 400.624C203.493 405.728 239.525 399.92 270.957 383.79C301.458 368.067 326.568 343.512 342.969 313.368C359.881 282.058 366.52 245.437 361.778 210.123C351.183 130.232 285.767 68.8713 205.373 63.3355C203.192 63.2259 203.428 59.8515 205.606 60.0038Z" fill="#253157"/>
<path d="M186.404 334.612C242.408 338.442 290.912 296.078 294.742 240.074C298.572 184.07 256.208 135.567 200.204 131.736C144.2 127.906 95.6969 170.27 91.8666 226.274C88.4604 276.212 121.929 321.175 170.726 332.313C175.884 333.447 181.108 334.241 186.404 334.612C188.583 334.764 188.347 338.138 186.168 337.986C128.077 333.924 84.298 283.562 88.4028 225.474C92.5077 167.386 142.827 123.603 200.875 127.663C258.924 131.722 302.743 182.13 298.683 240.178C295.063 291.947 254.31 333.351 202.62 337.806C197.136 338.281 191.639 338.326 186.128 337.94C183.99 337.834 184.226 334.459 186.404 334.612Z" fill="#253157"/>
<path d="M272.838 80.6723C269.484 105.934 260.041 128.023 247.054 143.726C218.507 126.578 183.524 124.131 152.869 137.14C142.193 119.782 135.917 96.594 136.111 71.1114C181.045 55.2387 230.55 58.7005 272.838 80.6723V80.6723Z" fill="#D1ECE8"/>
<path d="M273.649 80.7291C270.55 103.562 262.482 126.262 247.749 144.204C247.466 144.57 246.987 144.665 246.575 144.422C218.264 127.591 183.623 125.169 153.245 137.896C152.846 138.082 152.342 137.918 152.113 137.516C140.021 117.699 135.147 94.0936 135.299 71.0547C135.32 70.7557 135.512 70.4686 135.777 70.3584C180.982 54.2901 230.787 57.7727 273.316 79.9761C274.268 80.4719 273.312 81.8644 272.36 81.3686C247.423 68.4649 219.728 61.8497 191.638 62.1174C177.678 62.2573 163.727 64.1146 150.218 67.6339C146.94 68.4778 143.695 69.4527 140.49 70.4734C139.615 70.7127 138.694 70.9916 137.853 71.362C136.877 71.8089 136.908 71.9827 136.916 73.0993C136.922 74.8595 136.967 76.6654 137.058 78.4316C137.321 85.1031 138.057 91.7646 139.312 98.3766C141.846 111.86 146.42 125.014 153.625 136.763L152.493 136.384C183.416 123.223 218.74 125.693 247.531 143.029L246.357 143.248C260.9 125.55 268.948 103.149 271.984 80.6126C272.144 79.5507 273.809 79.6672 273.649 80.7291Z" fill="#A0D195"/>
<path d="M114.554 384.915C118.671 359.792 128.904 338.059 142.564 323.176C169.738 338.468 202.329 340.747 231.409 329.389C242.865 346.028 249.931 368.971 250.555 394.425C205.804 410.139 156.64 406.701 114.554 384.915Z" fill="#D1ECE8"/>
<path d="M113.699 384.855C117.476 362.155 126.341 339.726 142.008 322.536C142.282 322.298 142.712 322.285 143.042 322.48C170.023 337.458 202.23 339.71 231.033 328.633C231.386 328.486 231.768 328.555 232.049 328.832C245.128 348.032 250.786 371.477 251.409 394.485C251.388 394.784 251.196 395.071 250.931 395.181C205.954 411.051 156.449 407.589 114.118 385.614C113.166 385.118 114.122 383.726 115.074 384.221C140.057 397.085 167.801 403.618 195.894 403.308C209.814 403.122 223.637 401.256 237.063 397.688C240.21 396.878 243.367 395.94 246.486 394.913C247.233 394.665 249.051 394.448 249.474 393.92C249.894 393.434 249.646 392.687 249.645 392.086C249.566 390.149 249.444 388.209 249.277 386.309C248.782 379.879 247.811 373.501 246.405 367.222C243.466 354.011 238.397 341.166 230.769 329.945L231.785 330.145C202.449 341.485 169.602 339.188 142.129 323.875L143.163 323.819C127.865 340.648 119.151 362.745 115.451 384.977C115.205 386.033 113.539 385.917 113.699 384.855Z" fill="#A0D195"/>
<path d="M356.004 177.913C371.139 222.968 366.96 272.294 344.417 314.156C319.194 310.246 297.361 300.22 282.209 286.713C298.943 259.168 301.95 225.383 290.361 195.3C307.517 184.438 330.592 177.939 356.004 177.913Z" fill="#D1ECE8"/>
<path d="M356.83 177.757C372.078 223.033 367.842 272.57 345.113 314.634C344.967 314.881 344.656 315.031 344.357 315.01C321.688 311.407 299.112 302.789 281.774 287.412C281.407 287.129 281.312 286.65 281.555 286.238C297.976 258.886 300.998 225.489 289.648 195.679C289.461 195.28 289.625 194.776 290.027 194.547C309.603 182.223 333.135 177.173 356.061 177.102C357.134 177.091 357.015 178.8 355.944 178.768C333.275 178.856 310.088 183.888 290.737 196.056L291.117 194.923C302.901 225.278 299.871 259.405 282.905 287.191L282.687 286.017C291.619 293.938 301.964 300.07 312.977 304.617C318.942 307.095 325.11 309.114 331.397 310.67C334.855 311.556 338.325 312.27 341.8 312.9C342.435 313.03 343.482 313.404 344.021 313.055C344.427 312.783 344.815 311.522 345.062 311.067C345.953 309.37 346.805 307.627 347.613 305.88C366.55 265.87 369.282 220.048 355.135 178.067C354.819 177.058 356.472 176.744 356.83 177.757Z" fill="#A0D195"/>
<path d="M31.6223 292.283C15.1675 247.694 17.8484 198.306 39.1061 155.797C64.2673 159.359 86.216 168.963 101.651 182.104C85.9879 210.282 84.263 244.156 97.0011 273.762C80.2056 284.992 57.1467 291.879 31.6223 292.283Z" fill="#D1ECE8"/>
<path d="M30.8701 292.617C14.2563 247.845 16.9582 198.158 38.3162 155.441C38.4285 155.063 38.7851 154.873 39.1726 154.857C61.8653 158.118 84.4649 166.394 102.135 181.322C102.502 181.605 102.594 182.127 102.354 182.496C86.9621 210.479 85.2671 243.926 97.7639 273.3C97.9506 273.7 97.7866 274.203 97.3842 274.433C78.0743 287.247 54.5189 292.639 31.5693 293.052C30.4955 293.063 30.612 291.397 31.6858 291.386C54.3762 290.998 77.5898 285.582 96.6742 272.924L96.2946 274.056C83.3608 244.179 85.1096 209.963 101.004 181.543L101.222 182.718C83.7534 167.975 61.4925 159.766 39.0561 156.523L39.9124 155.939C18.6697 198.235 15.961 247.406 32.3881 291.778C32.7832 292.879 31.2712 293.632 30.8701 292.617Z" fill="#A0D195"/>
<path d="M273.649 80.7291C270.55 103.562 262.482 126.262 247.749 144.204C247.466 144.57 246.987 144.665 246.575 144.422C218.264 127.591 183.623 125.169 153.245 137.896C152.846 138.082 152.342 137.918 152.113 137.516C140.021 117.699 135.147 94.0936 135.299 71.0547C135.32 70.7557 135.512 70.4686 135.777 70.3584C180.982 54.2901 230.787 57.7727 273.316 79.9761C274.268 80.4719 273.312 81.8644 272.36 81.3686C247.423 68.4649 219.728 61.8497 191.638 62.1174C177.678 62.2573 163.727 64.1146 150.218 67.6339C146.94 68.4778 143.695 69.4527 140.49 70.4734C139.615 70.7127 138.694 70.9916 137.853 71.362C136.877 71.8089 136.908 71.9827 136.916 73.0993C136.922 74.8595 136.967 76.6654 137.058 78.4316C137.321 85.1031 138.057 91.7646 139.312 98.3766C141.846 111.86 146.42 125.014 153.625 136.763L152.493 136.384C183.416 123.223 218.74 125.693 247.531 143.029L246.357 143.248C260.9 125.55 268.948 103.149 271.984 80.6126C272.144 79.5507 273.809 79.6672 273.649 80.7291Z" fill="#A0D195"/>
<path d="M113.699 384.855C117.476 362.155 126.341 339.726 142.008 322.536C142.282 322.298 142.712 322.285 143.042 322.48C170.023 337.458 202.23 339.71 231.033 328.633C231.386 328.486 231.768 328.555 232.049 328.832C245.128 348.032 250.786 371.477 251.409 394.485C251.388 394.784 251.196 395.071 250.931 395.181C205.954 411.051 156.449 407.589 114.118 385.614C113.166 385.118 114.122 383.726 115.074 384.221C140.057 397.085 167.801 403.618 195.894 403.308C209.814 403.122 223.637 401.256 237.063 397.688C240.21 396.878 243.367 395.94 246.486 394.913C247.233 394.665 249.051 394.448 249.474 393.92C249.894 393.434 249.646 392.687 249.645 392.086C249.566 390.149 249.444 388.209 249.277 386.309C248.782 379.879 247.811 373.501 246.405 367.222C243.466 354.011 238.397 341.166 230.769 329.945L231.785 330.145C202.449 341.485 169.602 339.188 142.129 323.875L143.163 323.819C127.865 340.648 119.151 362.745 115.451 384.977C115.205 386.033 113.539 385.917 113.699 384.855Z" fill="#A0D195"/>
<path d="M273.649 80.7291C270.55 103.562 262.482 126.262 247.749 144.204C247.466 144.57 246.987 144.665 246.575 144.422C218.264 127.591 183.623 125.169 153.245 137.896C152.846 138.082 152.342 137.918 152.113 137.516C140.021 117.699 135.147 94.0936 135.299 71.0547C135.32 70.7557 135.512 70.4686 135.777 70.3584C180.982 54.2901 230.787 57.7727 273.316 79.9761C274.268 80.4719 273.312 81.8644 272.36 81.3686C247.423 68.4649 219.728 61.8497 191.638 62.1174C177.678 62.2573 163.727 64.1146 150.218 67.6339C146.94 68.4778 143.695 69.4527 140.49 70.4734C139.615 70.7127 138.694 70.9916 137.853 71.362C136.877 71.8089 136.908 71.9827 136.916 73.0993C136.922 74.8595 136.967 76.6654 137.058 78.4316C137.321 85.1031 138.057 91.7646 139.312 98.3766C141.846 111.86 146.42 125.014 153.625 136.763L152.493 136.384C183.416 123.223 218.74 125.693 247.531 143.029L246.357 143.248C260.9 125.55 268.948 103.149 271.984 80.6126C272.144 79.5507 273.809 79.6672 273.649 80.7291Z" fill="black"/>
<path d="M274.504 80.7888C271.89 99.7496 266.037 118.398 255.719 134.588C254.559 136.439 253.317 138.24 252.036 139.996C251.323 140.977 250.568 141.954 249.813 142.931C249.292 143.625 248.657 144.739 247.855 145.155C246.565 145.795 245.276 144.589 244.201 143.998C241.93 142.723 239.61 141.531 237.283 140.424C215.047 130.027 189.833 127.835 166.157 134.334C163.794 134.985 161.424 135.72 159.092 136.545C157.948 136.937 156.802 137.372 155.655 137.807C154.817 138.134 153.869 138.798 152.969 138.778C151.465 138.801 150.856 137.085 150.247 135.969C149.02 133.866 147.882 131.726 146.793 129.504C144.728 125.282 142.927 120.949 141.438 116.467C138.386 107.326 136.3 97.8656 135.295 88.3093C134.797 83.7676 134.515 79.1981 134.45 74.6008C134.418 73.225 133.868 70.6541 135.181 69.6729C136.72 68.5357 139.584 68.0922 141.383 67.5312C151.125 64.4782 161.15 62.3033 171.285 60.9947C190.992 58.4667 210.932 59.346 230.344 63.4934C240.619 65.7142 250.7 68.8657 260.374 72.9331C262.584 73.8602 264.831 74.8758 267.035 75.8884C268.241 76.4448 269.486 77.047 270.689 77.6462C271.644 78.0993 273.363 78.6916 274.081 79.4715C274.64 80.0686 274.663 80.9716 274.148 81.5795C273.116 82.8379 271.723 81.882 270.603 81.3315C232.508 62.0136 188.556 57.6955 147.447 69.2C144.953 69.884 142.498 70.6138 140.08 71.4319C138.806 71.8579 137.811 71.96 137.835 73.464C137.822 74.8795 137.854 76.2553 137.927 77.6768C138.139 83.2287 138.657 88.7161 139.519 94.1847C141.051 104.207 143.799 114.014 147.739 123.346C149.658 127.815 151.889 132.135 154.43 136.304C154.812 136.975 154.032 137.693 153.404 137.477L152.271 137.098C151.81 136.937 151.633 136.409 151.791 135.991C151.848 135.781 151.985 135.661 152.165 135.545C175.815 125.738 202.772 124.49 227.137 132.675C234.432 135.16 241.417 138.395 248.009 142.333C248.376 142.616 248.468 143.138 248.182 143.547C248.042 143.709 247.905 143.828 247.688 143.856L246.514 144.074C245.861 144.2 245.189 143.381 245.661 142.77C254.346 132.131 260.74 119.873 265.083 106.871C267.251 100.412 268.916 93.79 270.114 87.092C270.405 85.3953 270.695 83.6987 270.943 81.9991C271.045 81.1478 270.998 79.9856 271.768 79.3957C272.497 78.8028 273.519 78.9172 274.112 79.6454C274.307 79.9166 274.457 80.2275 274.476 80.5722C274.53 81.6491 272.874 82.0054 272.82 80.9286C272.904 82.1792 272.361 83.8152 272.146 85.045C271.916 86.4883 271.644 87.9286 271.372 89.3689C270.839 92.0787 270.217 94.8253 269.556 97.5261C268.134 103.135 266.376 108.635 264.239 114.023C260.055 124.761 254.246 134.786 247.011 143.723L246.158 142.418L247.332 142.2L247.011 143.723C218.407 126.785 183.509 124.345 152.827 137.137L152.72 135.584L153.853 135.964L152.827 137.137C142.86 120.687 137.749 101.701 136.424 82.5937C136.24 80.306 136.145 77.9815 136.09 75.7027C136.049 74.455 135.634 72.4087 136.483 71.3091C137.333 70.2096 139.498 69.9318 140.684 69.5426C143.054 68.8069 145.38 68.0682 147.786 67.421C157.59 64.7156 167.633 62.8854 177.785 61.9642C197.352 60.1992 217.071 61.7926 236.09 66.6423C245.706 69.0745 255.089 72.3918 264.119 76.4571C266.366 77.4727 268.61 78.531 270.848 79.6747L272.093 80.2768C270.725 79.5803 269.315 78.8807 267.944 78.2269C263.334 76.0159 258.624 74.0126 253.817 72.1741C216.931 58.2632 175.417 57.7639 138.093 70.3915C135.94 71.0995 136.088 72.0541 136.124 73.9882C136.135 75.062 136.186 76.1815 136.196 77.2553C136.279 79.7507 136.408 82.2063 136.622 84.6678C137.029 89.289 137.609 93.8794 138.449 98.445C140.116 107.747 142.918 116.785 146.692 125.419C147.66 127.547 148.675 129.592 149.734 131.641C150.224 132.619 150.759 133.558 151.334 134.543C151.56 134.988 151.79 135.39 152.062 135.795C152.856 136.709 153.113 136.727 154.159 136.5C156.162 136.082 158.217 134.938 160.196 134.261C162.394 133.513 164.587 132.851 166.816 132.277C193.221 125.41 221.296 129.048 245.078 142.514C246.687 143.442 247.208 143.35 248.341 141.884C249.002 141.029 249.666 140.131 250.326 139.276C251.702 137.398 252.993 135.513 254.247 133.541C256.804 129.513 259.116 125.297 261.138 120.931C265.073 112.536 268.092 103.733 270.184 94.6941C271.284 90.0067 272.128 85.3012 272.762 80.5382C272.955 79.6075 274.664 79.7269 274.504 80.7888Z" fill="#253157"/>
<path d="M113.699 384.855C117.476 362.155 126.341 339.726 142.008 322.536C142.282 322.298 142.712 322.285 143.042 322.48C170.023 337.458 202.23 339.71 231.033 328.633C231.386 328.486 231.768 328.555 232.049 328.832C245.128 348.032 250.786 371.477 251.409 394.485C251.388 394.784 251.196 395.071 250.931 395.181C205.954 411.051 156.449 407.589 114.118 385.614C113.166 385.118 114.122 383.726 115.074 384.221C140.057 397.085 167.801 403.618 195.894 403.308C209.814 403.122 223.637 401.256 237.063 397.688C240.21 396.878 243.367 395.94 246.486 394.913C247.233 394.665 249.051 394.448 249.474 393.92C249.894 393.434 249.646 392.687 249.645 392.086C249.566 390.149 249.444 388.209 249.277 386.309C248.782 379.879 247.811 373.501 246.405 367.222C243.466 354.011 238.397 341.166 230.769 329.945L231.785 330.145C202.449 341.485 169.602 339.188 142.129 323.875L143.163 323.819C127.865 340.648 119.151 362.745 115.451 384.977C115.205 386.033 113.539 385.917 113.699 384.855Z" fill="black"/>
<path d="M112.888 384.798C115.961 366.642 122.099 348.829 132.403 333.454C134.951 329.554 137.825 325.892 140.983 322.465C142.095 321.298 142.858 321.437 144.18 322.173C146.494 323.451 148.857 324.646 151.272 325.716C173.661 335.781 198.905 337.546 222.476 330.696C224.754 330.039 227.038 329.298 229.288 328.425C230.962 327.812 231.94 327.323 233.117 328.907C243.75 343.815 249.169 362.694 251.261 380.653C251.774 384.981 252.553 389.8 252.245 394.2C252.131 395.823 251.085 396.05 249.68 396.51C247.262 397.328 244.804 398.1 242.349 398.83C213.829 407.094 183.634 407.988 154.649 401.411C144.637 399.123 134.9 395.952 125.44 391.9C123.23 390.973 121.026 389.96 118.868 388.908C117.662 388.351 116.459 387.752 115.256 387.153C114.551 386.803 113.498 386.515 113.116 385.844C112.657 385.04 112.942 384.029 113.747 383.571V383.571C115.137 382.724 117.003 384.27 118.163 384.867C156.001 403.566 199.464 407.506 240.054 396.051C242.286 395.435 244.445 394.641 246.677 394.025C247.988 393.687 248.578 393.857 248.791 392.027C248.981 390.538 248.631 388.796 248.522 387.286C248.123 381.936 247.423 376.608 246.418 371.344C244.609 361.602 241.538 352.116 237.358 343.154C235.261 338.758 232.851 334.554 230.13 330.501C229.778 330.004 230.024 328.948 230.827 329.133L231.843 329.333C232.563 329.469 233.043 330.576 232.159 330.943C202.554 342.437 169.366 340.116 141.649 324.614C140.821 324.17 141.454 323.098 142.186 323.064L143.22 323.007C144.038 322.979 144.137 324.016 143.72 324.459C134.507 334.674 127.649 346.814 122.924 359.746C120.642 365.982 118.822 372.379 117.465 378.895C117.08 380.713 116.738 382.535 116.442 384.317C116.302 385.08 116.249 385.849 115.487 386.311C114.145 387.075 112.924 386.131 112.888 384.798C112.835 383.722 114.54 383.884 114.554 384.915C114.519 383.582 115.062 381.946 115.323 380.676C115.583 379.407 115.841 378.18 116.101 376.911C116.728 374.079 117.441 371.253 118.236 368.475C119.881 362.753 121.859 357.182 124.255 351.77C128.806 341.315 134.972 331.702 142.565 323.176L143.061 324.67L142.027 324.727L142.565 323.176C169.799 338.215 202.304 340.488 231.41 329.389L231.726 330.999L230.71 330.799L231.41 329.389C241.835 344.797 247.522 362.922 249.669 381.314C249.929 383.736 250.146 386.155 250.318 388.614C250.427 390.124 251.209 393.054 250.171 394.398C249.464 395.293 247.997 395.405 247.037 395.638C244.807 396.212 242.649 397.005 240.413 397.665C230.43 400.486 220.253 402.393 209.924 403.388C180.804 406.116 151.516 401.406 124.693 389.701C122.528 388.735 120.406 387.771 118.291 386.721C117.503 386.323 116.755 385.97 115.968 385.572C116.01 385.575 113.687 384.425 114.933 385.027C115.845 385.477 116.715 385.924 117.628 386.375C122.067 388.574 126.564 390.562 131.204 392.346C167.552 406.563 208.464 407.706 245.64 395.97C246.606 395.651 247.573 395.332 248.582 395.017C250.515 394.379 250.563 393.696 250.481 391.801C250.352 389.346 250.224 386.89 250.006 384.471C249.597 379.893 248.968 375.385 248.082 370.859C246.431 361.944 243.736 353.214 240.069 344.888C238.214 340.724 236.094 336.67 233.663 332.765C233.045 331.778 232.494 330.452 231.413 329.947C230.458 329.494 230.312 329.741 229.342 330.103C228.858 330.283 228.418 330.424 227.934 330.605C225.778 331.356 223.585 332.018 221.396 332.637C199.605 338.582 176.509 337.396 155.493 329.188C153.445 328.401 151.403 327.528 149.409 326.573C148.494 326.166 147.541 325.67 146.628 325.22C145.84 324.822 144.13 323.5 143.233 323.437C141.354 323.306 139.068 327.138 138.076 328.442C136.663 330.232 135.33 332.113 134.039 333.997C131.549 337.686 129.264 341.518 127.268 345.499C123.089 353.706 119.822 362.362 117.523 371.301C116.353 375.769 115.392 380.295 114.603 384.832C114.394 385.977 112.685 385.857 112.888 384.798Z" fill="#253157"/>
<path d="M357.386 177.795C372.634 223.072 368.395 272.652 345.669 314.672C345.523 314.92 345.212 315.07 344.913 315.049C322.201 311.443 299.668 302.828 282.287 287.448C281.921 287.165 281.825 286.686 282.069 286.274C298.489 258.922 301.511 225.524 290.161 195.715C289.974 195.316 290.138 194.812 290.541 194.583C310.16 182.262 333.648 177.209 356.574 177.138C357.648 177.127 357.528 178.835 356.457 178.804C333.788 178.892 310.601 183.924 291.251 196.092L291.63 194.959C303.415 225.314 300.385 259.44 283.419 287.227L283.2 286.053C292.132 293.974 302.477 300.106 313.491 304.653C319.498 307.134 325.667 309.153 331.953 310.709C335.411 311.594 338.881 312.309 342.356 312.938C342.991 313.069 344.038 313.442 344.577 313.094C344.983 312.822 345.371 311.561 345.618 311.106C346.509 309.409 347.361 307.665 348.17 305.919C367.106 265.909 369.796 220.084 355.645 178.146C355.375 177.097 357.028 176.783 357.386 177.795Z" fill="#A0D195"/>
<path d="M31.4248 292.655C14.811 247.884 17.4701 198.194 38.8709 155.48C38.9802 155.144 39.3398 154.912 39.7272 154.896C62.4627 158.16 85.0196 166.433 102.69 181.361C103.057 181.644 103.152 182.123 102.908 182.535C87.5168 210.518 85.8218 243.965 98.3186 273.339C98.5053 273.739 98.3413 274.242 97.9389 274.472C78.5863 287.283 55.0736 292.678 32.124 293.091C31.0502 293.101 31.1667 291.436 32.2405 291.425C54.9308 291.037 78.1445 285.621 97.2289 272.963L96.8493 274.095C83.9582 244.221 85.6643 210.002 101.559 181.582L101.777 182.756C84.3081 168.014 62.0472 159.805 39.6108 156.562L40.4641 156.02C19.2214 198.316 16.5127 247.488 32.9398 291.86C33.3379 292.918 31.8259 293.671 31.4248 292.655Z" fill="#A0D195"/>
<path d="M357.386 177.795C372.634 223.072 368.395 272.652 345.669 314.672C345.523 314.92 345.212 315.07 344.913 315.049C322.201 311.443 299.668 302.828 282.287 287.448C281.921 287.165 281.825 286.686 282.069 286.274C298.489 258.922 301.511 225.524 290.161 195.715C289.974 195.316 290.138 194.812 290.541 194.583C310.16 182.262 333.648 177.209 356.574 177.138C357.648 177.127 357.528 178.835 356.457 178.804C333.788 178.892 310.601 183.924 291.251 196.092L291.63 194.959C303.415 225.314 300.385 259.44 283.419 287.227L283.2 286.053C292.132 293.974 302.477 300.106 313.491 304.653C319.498 307.134 325.667 309.153 331.953 310.709C335.411 311.594 338.881 312.309 342.356 312.938C342.991 313.069 344.038 313.442 344.577 313.094C344.983 312.822 345.371 311.561 345.618 311.106C346.509 309.409 347.361 307.665 348.17 305.919C367.106 265.909 369.796 220.084 355.645 178.146C355.375 177.097 357.028 176.783 357.386 177.795Z" fill="black"/>
<path d="M358.213 177.639C368.243 207.914 369.835 240.389 362.81 271.489C361.016 279.347 358.672 287.081 355.785 294.605C354.315 298.451 352.676 302.243 350.955 305.985C350.097 307.814 349.243 309.6 348.303 311.38C347.704 312.583 347.033 314.811 345.865 315.545C344.875 316.205 343.373 315.585 342.311 315.425C340.447 315.08 338.582 314.735 336.721 314.347C333.041 313.575 329.372 312.631 325.756 311.563C318.477 309.466 311.459 306.7 304.654 303.349C298.057 300.097 291.809 296.141 285.988 291.613C284.604 290.529 283.01 289.387 281.769 288.099C281.171 287.456 280.913 286.837 281.232 285.958C281.816 284.368 283.082 282.825 283.873 281.335C284.862 279.473 285.811 277.565 286.675 275.651C296.253 254.688 298.585 231.157 293.243 208.721C292.353 204.882 291.2 201.11 289.828 197.409C289.506 196.485 288.852 195.409 289.39 194.459C289.981 193.384 291.877 192.659 292.95 192.047C306.06 184.422 320.845 179.833 335.845 177.706C339.53 177.191 343.248 176.807 346.957 176.551C348.724 176.46 350.447 176.366 352.213 176.275C353.589 176.242 355.898 175.76 357.189 176.322C358.563 176.933 358.34 178.892 357.056 179.446C355.904 179.967 353.954 179.616 352.709 179.615C350.601 179.682 348.448 179.789 346.334 179.941C330.933 181.053 315.578 184.572 301.588 191.277C298.168 192.927 294.864 194.756 291.633 196.762C290.962 197.144 290.244 196.365 290.46 195.736L290.84 194.603C291.055 193.975 292.138 193.836 292.392 194.497C301.198 217.733 301.871 243.706 293.746 267.217C291.276 274.299 288.05 281.155 284.124 287.577C283.841 287.943 283.319 288.036 282.91 287.749C282.748 287.609 282.629 287.472 282.601 287.256L282.383 286.081C282.257 285.429 283.122 284.717 283.687 285.228C294.039 294.322 306.142 301.092 319.078 305.774C326.279 308.38 333.695 310.358 341.195 311.741L342.846 312.071C343.948 312.277 344.137 312.033 344.678 311.04C345.557 309.514 346.275 307.847 347.029 306.269C348.583 303.072 350.012 299.824 351.316 296.525C365.27 262.089 367.59 224.007 357.82 188.17C357.277 186.115 356.691 184.056 356.06 182.038C355.673 180.809 354.526 178.797 354.787 177.528C355.169 175.752 357.326 176.203 358.06 177.37C358.638 178.312 357.129 179.022 356.548 178.123C356.435 177.901 356.538 177.65 356.621 178.3C356.714 178.821 356.891 179.349 357.115 179.837C357.363 180.584 357.566 181.371 357.814 182.118C358.375 183.917 358.896 185.67 359.372 187.463C360.332 190.921 361.161 194.413 361.901 197.941C363.385 204.956 364.39 212.065 364.962 219.231C367.115 247.367 362.392 275.623 351.14 301.491C349.763 304.614 348.258 307.728 346.713 310.796C345.767 312.662 345.482 314.273 343.102 313.935C336.093 312.887 329.101 310.981 322.344 308.792C307.867 304.045 294.208 296.823 282.722 286.749L284.027 285.896L284.245 287.07L282.722 286.749C299.249 259.104 302.246 225.447 290.874 195.336L292.427 195.229L292.047 196.362L290.874 195.336C302.721 187.966 315.936 183.138 329.599 180.488C336.427 179.206 343.308 178.399 350.239 178.111C351.963 178.017 353.637 178.005 355.358 177.954L356.474 177.946L355.013 177.973C354.025 177.99 353.036 178.006 352.091 178.026C348.476 178.16 344.898 178.382 341.308 178.774C326.996 180.263 312.792 183.905 299.854 190.298C298.431 191.014 297.007 191.73 295.62 192.534C294.413 193.222 291.111 194.408 291.126 196.04C291.124 197.285 292.238 199.165 292.624 200.394C293.188 202.15 293.712 203.861 294.191 205.611C295.955 212.302 297.109 219.121 297.525 226.061C298.378 239.641 296.568 253.25 292.274 266.17C290.111 272.543 287.363 278.704 284.034 284.566C283.547 285.39 282.755 286.279 283.287 287.261C283.63 287.886 284.705 288.476 285.233 288.899C286.653 290.071 288.077 291.201 289.546 292.291C292.404 294.38 295.315 296.343 298.368 298.102C310.734 305.405 324.475 310.229 338.485 313.054C340.051 313.378 341.9 313.937 343.487 313.962C344.774 313.966 345.225 313.654 345.87 312.412C346.463 311.294 347.014 310.174 347.564 309.053C349.264 305.61 350.885 302.074 352.378 298.53C355.262 291.65 357.647 284.563 359.613 277.317C367.309 248.282 367.339 217.766 359.712 188.732C358.761 185.146 357.682 181.55 356.514 177.992C356.201 176.94 357.857 176.584 358.213 177.639Z" fill="#253157"/>
<path d="M31.4248 292.655C14.811 247.884 17.4701 198.194 38.8709 155.48C38.9802 155.144 39.3398 154.912 39.7272 154.896C62.4627 158.16 85.0196 166.433 102.69 181.361C103.057 181.644 103.152 182.123 102.908 182.535C87.5168 210.518 85.8218 243.965 98.3186 273.339C98.5053 273.739 98.3413 274.242 97.9389 274.472C78.5863 287.283 55.0736 292.678 32.124 293.091C31.0502 293.101 31.1667 291.436 32.2405 291.425C54.9308 291.037 78.1445 285.621 97.2289 272.963L96.8493 274.095C83.9582 244.221 85.6643 210.002 101.559 181.582L101.777 182.756C84.3081 168.014 62.0472 159.805 39.6108 156.562L40.4641 156.02C19.2214 198.316 16.5127 247.488 32.9398 291.86C33.3379 292.918 31.8259 293.671 31.4248 292.655Z" fill="black"/>
<path d="M30.6684 293.032C19.7084 263.164 17.0732 230.873 23.0363 199.613C24.5286 191.777 26.5702 184.065 29.1581 176.52C30.5037 172.622 31.9745 168.776 33.5704 164.981C34.3426 163.147 35.1574 161.315 36.012 159.529C36.6688 158.116 37.3546 155.674 38.5031 154.596C39.3744 153.798 40.5068 154.178 41.5657 154.381C43.604 154.695 45.682 155.055 47.7144 155.454C51.2695 156.175 54.8186 156.981 58.3558 157.958C65.7292 159.933 72.884 162.58 79.7803 165.852C86.5943 169.076 93.1041 172.965 99.139 177.507C100.73 178.691 104.549 180.547 103.65 182.973C103.012 184.731 101.822 186.408 101.019 188.069C100.167 189.812 99.398 191.604 98.6289 193.396C89.7896 214.84 88.4279 238.61 94.7669 260.901C95.9107 264.801 97.2312 268.628 98.7713 272.384C99.944 275.256 97.093 276.129 94.8954 277.478C82.0332 285.249 67.4092 289.978 52.5681 292.288C48.7068 292.877 44.8545 293.337 40.9714 293.623C39.3304 293.766 37.6953 293.824 36.0145 293.921C34.7241 293.959 32.5406 294.493 31.3378 293.894C30.0128 293.201 30.3637 291.251 31.6413 290.782C33.0499 290.28 35.0852 290.637 36.5922 290.57C38.7031 290.46 40.814 290.35 42.8882 290.152C58.1364 288.772 73.2957 284.981 87.0011 278.042C90.3391 276.344 93.6065 274.426 96.7548 272.371C97.3857 271.943 98.1435 272.769 97.9278 273.398L97.5482 274.53C97.3872 274.991 96.8597 275.169 96.4415 275.011C96.2309 274.953 96.1117 274.816 95.9955 274.636C86.2325 251.591 84.6681 225.47 92.0913 201.566C94.2987 194.552 97.2202 187.76 100.804 181.315C101.151 180.652 102.204 180.941 102.327 181.636L102.545 182.81C102.671 183.463 101.849 184.178 101.241 183.663C83.7632 169.049 61.8838 160.909 39.493 157.627C39.0261 157.551 38.7113 157.143 38.7442 156.673C38.7621 156.417 38.9509 156.172 39.1764 156.016L40.0328 155.432C40.6179 155.044 41.5068 155.836 41.2057 156.459C23.571 191.967 18.544 233.165 27.647 271.788C29.01 277.464 30.6322 283.114 32.5654 288.615C33.0341 289.892 34.4652 292.138 33.3872 293.437C32.8665 294.13 31.8692 294.275 31.1759 293.754C31.011 293.657 30.8948 293.477 30.7756 293.34C30.1947 292.441 31.4316 291.325 32.0552 292.227C31.511 291.417 31.2738 289.898 30.9521 288.974C30.6304 288.05 30.3147 287.041 29.996 286.074C29.2543 283.79 28.5156 281.464 27.8654 279.1C26.5618 274.417 25.4321 269.702 24.519 264.959C22.8615 256.13 21.8536 247.218 21.5809 238.228C20.7421 209.711 26.9262 181.428 39.6582 155.878L40.8312 156.905L39.9778 157.446L39.6612 155.836C62.3082 159.136 84.5264 167.343 102.248 182.146L100.944 182.999L100.726 181.825L102.248 182.146C86.7963 210.381 85.0804 244.127 97.6417 273.807L96.089 273.913L96.4687 272.781L97.6417 273.807C85.9874 281.491 72.8434 286.538 59.2082 289.405C52.4591 290.778 45.6544 291.719 38.7604 292.095C37.1651 292.198 35.6154 292.262 34.0261 292.279C33.5105 292.286 31.3599 292.35 32.9522 292.29C33.8979 292.27 34.8863 292.254 35.8777 292.194C39.578 292.067 43.2475 291.765 46.926 291.336C61.0786 289.664 75.1183 285.924 87.8482 279.432C89.2718 278.716 90.6557 277.954 92.0396 277.192C92.887 276.737 93.7374 276.238 94.548 275.694C95.2216 275.269 96.5448 274.76 97.0168 274.15C97.9607 272.928 96.175 270.228 95.7461 268.996C95.201 267.584 94.7015 266.133 94.2478 264.642C92.0963 257.967 90.6431 251.127 89.8853 244.163C88.4312 230.584 89.5608 216.884 93.3118 203.755C95.1903 197.147 97.7403 190.758 100.916 184.628C101.211 184.09 101.869 183.278 101.953 182.683C102.119 181.536 101.042 180.988 100.309 180.422C98.8854 179.292 97.4194 178.16 95.9047 177.109C93.0005 175.061 90.0018 173.134 86.9058 171.372C74.2347 164.134 60.1854 159.417 45.8616 156.784C44.2931 156.503 42.3641 155.853 40.7687 155.956C38.786 156.075 38.0097 159.197 37.2525 160.818C35.6864 164.185 34.2455 167.604 32.9297 171.075C30.2009 178.181 27.9786 185.408 26.2172 192.796C19.3693 221.977 20.1591 252.422 28.5365 281.165C29.6495 284.891 30.8509 288.581 32.1834 292.236C32.5816 293.294 31.0696 294.047 30.6684 293.032Z" fill="#253157"/>
<path d="M180.553 45.0746C176.675 44.6747 172.317 45.6147 169.915 48.6659C168.737 50.1716 168.135 52.0182 167.58 53.825C166.966 55.8424 166.396 57.8628 165.865 59.9289C165.428 61.2719 165.244 62.6755 165.231 64.091C165.362 66.5039 166.668 68.6984 168.395 70.4073C170.121 72.1161 172.227 73.2936 174.337 74.4284C175.413 73.7739 176.373 72.9396 177.088 71.9166C179.076 69.2656 179.862 66.0155 180.644 62.8081C181.917 57.4888 183.148 52.1666 184.336 46.8414" fill="#253157"/>
<path d="M180.496 45.8862C177.5 45.7625 174.289 46.2676 172.001 48.2967C169.53 50.4847 168.916 54.3478 168.146 57.3843C167.321 60.5888 166.054 63.9769 167.81 67.1043C169.458 69.9237 172.478 71.5513 175.29 73.0785L173.624 72.962C177.574 70.4912 178.499 65.2335 179.479 61.0526C180.679 56.1575 181.669 51.2048 182.913 46.3127C183.328 44.6678 186.209 45.2126 185.873 46.9489C184.829 52.6705 183.358 58.3622 181.975 64.0172C180.838 68.6163 179.268 73.2709 175.047 75.9374C174.513 76.2005 173.873 76.1557 173.381 75.8209C169.906 73.9469 166.328 71.7222 164.571 67.9938C162.738 64.1314 164.038 60.2734 165.21 56.4064C166.324 52.75 167.297 48.6546 170.594 46.3098C173.486 44.2371 177.119 43.8473 180.567 44.2601C181.037 44.2929 181.352 44.7012 181.322 45.1284C181.332 45.6012 180.966 45.919 180.496 45.8862V45.8862Z" fill="#253157"/>
<path d="M184.273 131.824C161.938 122.837 140.119 128.565 122.58 144.293C102.616 162.169 86.1846 186.602 70.3073 208.026C72.3928 205.211 67.6781 187.926 67.1781 184.028C66.0908 175.024 65.1773 165.99 64.6086 156.936C63.8624 145.509 66.9407 133.406 63.736 122.151C59.4242 107.084 41.4434 107.028 30.2142 115.385C19.3932 123.428 19.1388 136.888 17.9428 149.08C15.7968 170.563 13.6874 192.135 13.979 213.745C14.2246 231.103 15.1244 251.383 27.0365 265.178C37.7201 277.515 55.6734 281.646 71.7742 279.123C79.2404 277.928 86.5797 275.48 92.9955 271.508C112.109 259.667 120.702 236.832 128.025 215.582" fill="white"/>
<path opacity="0.2" d="M111.381 182.913C111.381 182.913 90.6215 240.394 88.0199 253.046C85.4182 265.698 66.327 277.841 54.2061 277.466L67.6366 279.845L98.259 268.056L111.381 182.913Z" fill="#02439A"/>
<path d="M184.055 132.496C175.341 129.44 166.178 127.898 156.914 129.01C147.953 130.1 139.471 133.542 131.956 138.51C123.943 143.83 117.099 150.863 110.639 157.923C103.71 165.551 97.3068 173.645 91.1536 181.842C84.4371 190.729 78.0076 199.809 71.3735 208.745C70.3323 210.131 68.2435 208.698 69.1596 207.259C69.8809 206.151 69.4323 203.973 69.3023 202.762C69.0455 200.298 68.572 197.861 68.0956 195.467C67.2688 191.332 66.1797 187.264 65.6579 183.064C64.6599 174.624 63.793 166.15 63.2311 157.612C62.7347 149.98 63.7789 142.413 63.795 134.817C63.8219 128.295 63.2519 120.486 58.3545 115.636C54.7402 112.078 49.412 110.933 44.4859 111.404C39.1266 111.931 33.9956 114.105 29.8885 117.595C24.8187 121.962 22.3601 128.271 21.18 134.713C19.9392 141.408 19.5865 148.294 18.9407 155.073C18.1208 163.729 17.3009 172.385 16.6946 181.056C15.5954 196.775 14.9114 212.694 16.1705 228.449C17.2243 241.614 20.1496 255.64 29.5938 265.443C38.9189 275.109 53.4551 279.001 66.5835 277.859C80.8345 276.623 94.2786 270.353 103.75 259.512C112.71 249.236 117.843 236.589 122.84 224.062C124.04 221.012 125.198 217.96 126.356 214.907C127.152 212.731 130.461 213.907 129.75 216.089C125.356 229.818 120.355 243.632 112.094 255.588C103.497 268.036 91.3749 276.888 76.4711 280.096C62.6132 283.075 47.2174 281.655 35.04 274.108C22.6978 266.463 16.5093 253.068 14.1334 239.166C11.4071 223.523 11.9561 207.079 12.8019 191.3C13.6759 173.892 15.2025 156.357 17.3151 139.035C18.1138 132.524 19.5225 125.884 23.2544 120.393C26.6972 115.354 31.8414 111.765 37.5982 109.85C47.7945 106.442 60.2816 108.946 64.45 119.926C67.2799 127.334 66.7432 135.624 66.288 143.361C65.7521 152.252 66.1769 160.909 67.0169 169.767C67.6397 176.206 68.1741 182.682 69.5747 189.046C70.6438 194.014 71.8777 199.08 72.166 204.165C72.2323 205.671 72.2837 207.392 71.4163 208.748L69.2023 207.262C81.5723 190.572 93.3741 173.413 107.247 157.943C120.042 143.772 134.72 130.29 154.254 127.15C164.499 125.505 175.002 126.926 184.493 131.153C185.326 131.511 184.895 132.769 184.055 132.496V132.496Z" fill="#253157"/>
<path d="M282.055 285.844C288.666 255.144 302.137 222.091 294.832 190.29C290.49 171.358 275.583 158.039 258.487 150.234C242.558 142.939 224.398 139.309 207.336 135.325C177.859 128.414 140.657 122.722 122.27 153.028C113.195 168.017 112.139 186.185 108.653 202.896C104.143 224.428 100.688 246.206 98.256 268.098C97.9853 270.741 97.7088 273.468 98.3868 276.048C99.0649 278.628 100.715 280.804 102.418 282.854C114.362 297.425 131.128 307.482 148.88 313.874C166.632 320.266 185.401 323.167 204.099 325.247C219.175 326.945 235.284 327.986 248.742 320.9C259.125 315.445 273.045 299.293 280.139 289.916" fill="white"/>
<path d="M264.739 259.094C267.435 274.563 267.962 290.353 266.313 305.947C273.082 301.227 278.545 294.913 282.28 287.534C282.716 286.834 282.943 286.035 283.046 285.184C283.014 284.409 282.811 283.622 282.475 282.912C280.047 277.119 276.595 271.856 272.232 267.344" fill="#253157"/>
<path d="M265.524 258.934C269.268 274.133 269.366 290.537 267.809 306.052L265.321 304.804C271.461 300.469 276.578 294.818 280.259 288.208C281.342 286.223 281.725 285.048 280.843 282.926C280.108 281.158 279.282 279.469 278.368 277.817C276.379 274.33 274.032 271.075 271.361 268.142C270.285 266.95 272.11 265.404 273.189 266.553C276.278 269.644 278.955 273.094 281.182 276.855C283.06 280.077 285.659 284.036 283.895 287.775C280.307 295.508 274.221 302.122 267.31 307.047C266.316 307.75 264.68 307.206 264.822 305.8C265.613 298.172 265.894 290.465 265.745 282.772C265.569 274.862 264.7 267.032 263.959 259.211C263.903 258.778 264.19 258.369 264.626 258.271C265.053 258.3 265.422 258.541 265.524 258.934V258.934Z" fill="#253157"/>
<path d="M208.608 164.387L199.951 170.95C199.14 171.494 198.449 172.176 197.877 172.994C197.384 173.904 197.306 175.014 197.234 176.04C195.791 197.915 194.389 219.794 192.943 241.712C192.05 255.084 191.195 268.545 192.106 281.915C192.212 283.467 192.315 285.063 191.786 286.485C191.148 288.243 189.643 289.512 188.19 290.655L168.302 306.82L155.47 283.474C154.328 281.376 153.148 279.234 152.796 276.891C152.288 273.722 153.287 270.487 154.231 267.42C164.033 236.514 173.883 205.526 187.198 175.939C188.216 173.649 189.286 171.234 188.944 168.764C188.367 164.732 184.158 161.089 185.794 157.341C186.764 155.134 189.404 154.202 191.823 153.985C196.097 153.64 200.345 154.882 203.817 157.399" fill="#02439A"/>
<path d="M281.287 285.79C285.959 258.26 297.212 231.147 295.031 202.794C294.094 190.41 290.474 178.954 282.254 169.451C274.51 160.497 264.223 154.155 253.331 149.702C238.432 143.638 222.478 140.376 206.953 136.501C205.394 136.091 206.242 133.79 207.761 134.153C233.551 139.777 262.354 144.667 281.81 164.141C290.474 172.816 295.689 183.568 297.546 195.673C299.764 209.993 298.19 224.52 295.316 238.612C292.046 254.694 287.008 270.266 282.767 286.108C282.579 286.954 281.138 286.681 281.287 285.79V285.79Z" fill="black"/>
<path d="M249.288 146.758C267.926 147.846 285.323 157.476 298.842 170.397C312.36 183.317 322.442 199.346 331.606 215.61C346.154 241.437 358.888 268.639 365.277 297.587C367.781 309.05 369.302 321.046 366.617 332.448C363.455 345.747 354.838 357.249 344.431 366.136C316.714 389.909 278.105 396.351 241.573 396.415C232.214 396.447 221.389 395.347 216.09 387.637C213.598 383.986 212.799 379.466 212.115 375.126C211.123 369.047 210.262 362.334 213.5 357.152C216.885 351.723 223.682 349.666 229.823 347.777C252.058 341.005 273.377 331.379 293.161 319.156C294.148 318.538 295.227 317.841 295.65 316.712C296.011 315.836 295.995 314.847 295.667 314.009C279.788 278.989 282.278 279.593 263.929 257.793" fill="white"/>
<path d="M249.339 146.032C270.667 146.707 289.755 158.558 304.152 173.644C319.307 189.555 330.34 209.169 340.452 228.462C351.058 248.648 360.141 269.757 365.672 291.948C368.452 303.131 370.642 314.788 369.323 326.284C368.173 336.591 363.941 346.168 357.742 354.405C345.679 370.387 327.657 381.36 308.957 387.907C290.126 394.488 270.196 397.129 250.325 397.714C241.25 397.981 231.028 398.682 222.593 394.702C218.646 392.837 215.334 389.859 213.47 385.822C211.34 381.295 210.68 376.013 210.08 371.078C209.515 366.274 209.526 361.209 211.932 356.871C214.093 352.987 217.957 350.51 221.981 348.817C226.579 346.907 231.428 345.701 236.175 344.101C241.67 342.253 247.137 340.189 252.484 337.988C263.094 333.579 273.447 328.551 283.457 322.898C285.825 321.562 288.154 320.179 290.482 318.797C291.601 318.145 293.107 317.478 293.868 316.415C294.967 314.818 293.285 312.469 292.578 310.917C290.61 306.53 288.645 302.1 286.765 297.677C284.326 292.055 281.935 286.351 279.01 280.909C276.419 276.221 273.465 271.808 270.11 267.625C267.747 264.584 265.25 261.619 262.753 258.655C261.445 257.104 263.822 255.038 265.13 256.589C272.7 265.574 279.754 274.566 284.715 285.257C287.926 292.135 290.871 299.123 293.95 306.034C295.585 309.668 299.583 315.098 296.15 318.764C294.667 320.334 292.448 321.381 290.613 322.455C288.059 323.993 285.507 325.488 282.877 326.893C273.278 332.188 263.334 336.901 253.132 340.995C247.965 343.08 242.769 344.948 237.494 346.726C232.792 348.286 227.901 349.489 223.303 351.399C218.706 353.31 214.777 356.083 213.317 361.002C211.803 366.09 212.955 371.708 213.841 376.835C214.7 381.745 216.077 386.606 220.099 389.849C223.716 392.763 228.397 393.949 232.91 394.479C242.189 395.6 251.855 394.859 261.131 394.177C270.966 393.491 280.723 392.07 290.357 389.954C309.368 385.704 327.893 377.985 342.859 365.296C350.479 358.833 357.249 351.022 361.491 341.919C366.235 331.777 367.094 320.72 365.717 309.722C362.975 287.553 354.87 265.955 345.505 245.813C340.801 235.74 335.652 225.894 330.232 216.244C325.041 206.996 319.67 197.864 313.401 189.313C300.91 172.129 284.851 157.486 264.425 150.649C259.517 149.018 254.485 147.937 249.326 147.447C248.941 147.42 248.624 147.055 248.65 146.67C248.677 146.286 248.951 146.047 249.339 146.032V146.032Z" fill="#253157"/>
<path d="M181.757 42.5834C176.996 55.4278 173.239 68.6428 170.541 82.0607C169.348 88.0723 168.317 94.224 169.226 100.254C170.135 106.284 173.195 112.249 178.281 115.009C181.591 116.785 185.881 117.429 187.659 120.858C188.567 122.596 188.592 124.7 188.537 126.714L188.404 143.96C188.37 147.52 188.403 151.342 190.39 154.228C193.035 158.148 198.176 158.893 202.741 159.298C213.49 160.265 224.937 161.065 234.539 155.727C235.611 155.116 236.69 154.418 237.201 153.252C237.806 151.964 237.572 150.402 237.329 148.969C234.279 131.2 234.123 112.561 239.241 95.2346C241.988 86.0266 246.157 77.3473 248.737 68.0846C251.316 58.822 252.164 48.5369 248.31 39.8116C242.564 26.8334 228.525 20.7439 216.126 17.6019C212.882 16.7312 209.525 16.239 206.142 16.1312C200.223 16.0607 193.472 18.0781 190.036 23.6325C186.652 29.0616 184.996 35.5559 182.067 41.2315" fill="white"/>
<path opacity="0.2" d="M195.431 122.646C195.431 122.646 196.117 140.464 197.006 143.102C197.894 145.739 202.573 149.414 202.573 149.414L197.443 150.343L190.356 145.513L188.623 131.012L187.381 118.692L195.431 122.646Z" fill="#02439A"/>
<path fill-rule="evenodd" clip-rule="evenodd" d="M171.851 82.9678C174.479 69.3304 178.034 55.9296 182.554 42.8538C182.586 42.7526 182.6 42.6562 182.599 42.5655C182.842 42.4835 183.059 42.3154 183.212 42.0413C184.581 39.6142 185.618 36.9681 186.655 34.32C188.142 30.5253 189.63 26.7265 192.101 23.5623C196.062 18.4739 202.63 17.8601 208.561 18.3607C219.825 19.3201 232.279 23.5388 240.515 31.5834C255.45 46.199 248.369 65.4485 241.825 83.2364C239.656 89.1335 237.546 94.87 236.316 100.224C233.37 112.895 233.011 126.004 234.297 138.928C234.653 142.429 235.183 145.9 235.712 149.371C236.005 151.323 236.117 152.79 234.359 153.998C233.191 154.732 231.945 155.374 230.624 155.84C225.012 158.152 218.804 158.533 212.806 158.371C212.288 158.356 211.762 158.343 211.231 158.33C206.448 158.21 201.199 158.079 196.702 156.644C193.803 155.755 191.567 153.967 190.702 150.988C190.006 148.571 190.045 146.008 190.084 143.506C190.089 143.152 190.094 142.798 190.098 142.447C190.112 140.537 190.177 138.605 190.242 136.667C190.387 132.337 190.534 127.973 190.118 123.734C190.01 122.684 189.769 121.765 189.419 120.951C191.992 121.801 194.642 122.406 197.182 122.769C197.988 122.911 198.251 121.599 197.451 121.371C194.246 120.279 191.15 118.852 188.064 117.43C186.265 116.601 184.47 115.773 182.658 115.014C182.426 114.919 182.205 114.898 182.003 114.933C181.638 114.775 181.268 114.618 180.895 114.462C168.55 109.306 169.762 93.81 171.851 82.9678ZM181.08 42.1219C180.774 41.7923 180.632 41.3336 180.849 40.8459C181.757 38.803 182.56 36.6919 183.364 34.5758C184.903 30.5261 186.45 26.4579 188.763 22.8137C191.611 18.2914 196.595 15.7641 201.734 14.707C207.86 13.44 213.543 15.0898 219.367 16.7808C219.589 16.8451 219.81 16.9095 220.032 16.9738C225.126 18.403 230.047 20.464 234.63 23.0594C244.446 28.7678 251.355 38.0071 252.354 49.4945C253.373 61.3573 249.227 72.4132 245.135 83.3288C244.475 85.0884 243.816 86.8444 243.181 88.5996C238.129 102.54 236.213 117.042 237.025 131.822C237.232 135.613 237.613 139.374 238.125 143.101C238.247 143.958 238.431 144.857 238.619 145.775C239.096 148.107 239.598 150.558 239.168 152.746C238.629 155.541 236.126 156.954 233.773 158.078C231.02 159.387 228.078 160.34 225.034 160.9C218.858 162.057 212.436 161.822 206.203 161.343C205.717 161.305 205.223 161.27 204.722 161.234C199.895 160.891 194.48 160.505 190.785 157.175C186.597 153.439 186.708 147.563 186.807 142.325C186.818 141.752 186.829 141.185 186.834 140.631L186.921 129.563C186.928 129.09 186.949 128.594 186.971 128.087C187.092 125.281 187.23 122.094 185.003 120.157C183.741 119.065 182.139 118.439 180.558 117.82C179.705 117.486 178.857 117.155 178.073 116.754C175.667 115.556 173.56 113.777 171.995 111.607C168.51 106.814 167.29 100.934 167.354 95.101C167.419 88.1627 169.136 81.175 170.787 74.4624C170.82 74.3276 170.853 74.1929 170.886 74.0583C172.632 66.8835 174.675 59.7724 177.096 52.7736C178.326 49.297 179.599 45.8234 180.955 42.3985C180.986 42.2919 181.029 42.2 181.08 42.1219Z" fill="#253157"/>
<path d="M208.828 66.1095C209.981 66.1901 210.581 67.4339 210.338 68.4471C210.047 69.5427 208.971 70.1972 207.875 69.906C207.833 69.903 207.79 69.9 207.75 69.8543C206.572 69.5144 205.887 68.2646 206.227 67.0865V67.0865C206.655 65.8717 208.295 65.128 209.349 66.0172C209.881 66.3977 210.004 67.0931 209.663 67.6702C209.282 68.2016 208.587 68.3246 208.01 67.9838C208.092 68.0325 208.178 68.0385 208.263 68.0445C208.437 68.0137 208.48 68.0167 208.349 68.0504C208.089 68.0752 208.394 68.0107 208.306 68.0474C208.217 68.0842 208.26 68.0872 208.352 68.0077C208.26 68.0872 208.26 68.0872 208.355 67.965L208.406 67.8399C208.355 67.965 208.355 67.965 208.409 67.7971C208.378 67.6233 208.378 67.6233 208.415 67.7117C208.452 67.8001 208.412 67.7544 208.378 67.6233C208.531 67.8915 208.265 67.4008 208.418 67.669C208.296 67.5746 208.296 67.5746 208.418 67.669L208.501 67.7177C208.375 67.666 208.375 67.666 208.501 67.7177C208.626 67.7694 208.626 67.7694 208.543 67.7207C208.461 67.672 208.458 67.7147 208.586 67.7237C208.543 67.7207 208.458 67.7147 208.412 67.7544L208.455 67.7574C208.364 67.8369 208.321 67.8339 208.412 67.7544L208.321 67.8339C208.369 67.7514 208.369 67.7514 208.318 67.8766C208.324 67.7912 208.372 67.7087 208.378 67.6233C208.318 67.8766 208.378 67.6233 208.381 67.5806C208.367 67.7942 208.381 67.5806 208.342 67.5349C208.369 67.7514 208.342 67.5349 208.302 67.4892C208.265 67.4008 208.226 67.3551 208.186 67.3094C208.226 67.3551 208.226 67.3551 208.186 67.3094C207.908 66.9895 207.941 66.5196 208.26 66.2415C208.48 66.171 208.657 66.0975 208.828 66.1095V66.1095Z" fill="#253157"/>
<path d="M188.858 60.1203C190.015 60.1582 190.612 61.4447 190.369 62.4579C190.078 63.5535 189.002 64.208 187.906 63.9168C187.864 63.9138 187.821 63.9108 187.781 63.8651C186.603 63.5252 185.918 62.2754 186.258 61.0973V61.0973C186.686 59.8825 188.326 59.1388 189.38 60.028C189.911 60.4085 190.034 61.1039 189.694 61.681C189.313 62.2124 188.618 62.3354 188.041 61.9946C188.123 62.0433 188.208 62.0493 188.294 62.0553C188.468 62.0245 188.51 62.0275 188.379 62.0612C188.12 62.086 188.425 62.0215 188.337 62.0583C188.248 62.095 188.291 62.098 188.382 62.0185C188.291 62.098 188.291 62.098 188.385 61.9758L188.437 61.8507C188.385 61.9758 188.385 61.9758 188.44 61.8079C188.409 61.6341 188.409 61.6341 188.446 61.7225C188.483 61.8109 188.443 61.7652 188.409 61.6341C188.562 61.9023 188.296 61.4116 188.449 61.6798C188.327 61.5854 188.327 61.5854 188.449 61.6798L188.531 61.7285C188.406 61.6768 188.406 61.6768 188.531 61.7285C188.657 61.7802 188.657 61.7802 188.574 61.7315C188.492 61.6828 188.489 61.7255 188.617 61.7345C188.574 61.7315 188.489 61.7255 188.443 61.7652C188.355 61.802 188.355 61.802 188.486 61.7682C188.394 61.8477 188.352 61.8447 188.443 61.7652L188.352 61.8447C188.4 61.7622 188.4 61.7622 188.349 61.8874L188.409 61.6341C188.349 61.8874 188.409 61.6341 188.412 61.5914C188.397 61.805 188.412 61.5914 188.372 61.5457C188.4 61.7622 188.372 61.5457 188.333 61.5C188.336 61.4573 188.296 61.4116 188.256 61.3659C188.296 61.4116 188.296 61.4116 188.256 61.3659C187.978 61.046 188.011 60.5761 188.331 60.298C188.468 60.1788 188.688 60.1083 188.858 60.1203V60.1203Z" fill="#253157"/>
<path d="M194.225 62.5559C192.697 68.4582 188.066 72.6842 188.432 79.1053C188.514 80.3987 186.586 80.3497 186.276 79.255C184.582 72.784 190.95 67.6493 192.968 62.1246C193.077 61.7888 193.477 61.6021 193.812 61.7115C194.148 61.8208 194.335 62.2202 194.225 62.5559V62.5559V62.5559Z" fill="#253157"/>
<path d="M201.531 90.4079C199.946 92.5055 197.297 93.5524 194.69 93.0561C194.044 92.9459 193.583 92.3559 193.693 91.7103C193.803 91.0646 194.393 90.6031 195.039 90.7134C195.119 90.7441 195.174 90.7194 195.254 90.7501C197.105 91.1855 199.054 90.6493 200.402 89.2865C201.029 88.6098 202.078 89.7004 201.531 90.4079V90.4079Z" fill="#253157"/>
<path d="M213.628 62.5391L213.646 62.2828L213.933 63.0756C213.087 62.2867 211.363 61.7798 210.225 61.4856C209.675 61.3614 209.08 61.2768 208.522 61.2807C207.625 61.218 206.752 60.8136 206.11 60.1678C205.062 59.1931 205.624 57.3009 206.779 56.7378C208.999 55.6912 211.835 57.4777 213.579 58.9302C214.594 59.7738 217.093 62.0946 215.246 63.339C214.569 63.8068 213.562 63.4788 213.628 62.5391V62.5391Z" fill="#253157"/>
<path d="M184.986 51.6513C186.154 50.9174 187.339 49.9272 188.763 49.8122C190.188 49.6972 192.035 50.2985 192.897 51.4748C194.346 53.4647 192.671 55.923 190.309 55.3286C188.622 54.9101 187.107 53.8599 185.413 53.5269C184.858 53.488 184.464 52.9883 184.503 52.433C184.481 52.1311 184.715 51.847 184.986 51.6513Z" fill="#253157"/>
<path d="M224.86 62.1227L224.009 70.6048C224.514 67.6785 228.099 66.1264 231.014 66.8024C232.03 67.0022 232.98 67.5408 233.743 68.2809C237.768 72.7259 232.45 82.4838 226.72 82.1689C226.934 82.1839 227.497 87.6316 227.672 88.2018C229.185 92.3423 235.159 94.6916 239.284 95.2376C249.531 80.6736 259.392 67.3274 257.929 49.5838C257.366 42.8915 251.309 31.308 246.116 26.996C244.534 25.6835 242.586 24.6888 240.558 24.8474C240.122 24.9457 239.649 24.9556 239.185 24.8373C238.346 24.564 237.984 23.5944 237.519 22.8751C236.593 21.3939 234.978 20.5513 233.396 19.8398C219.091 13.2595 202.617 13.1377 187.47 18.6027C183.552 20.0027 180.027 21.3015 179.201 25.7506C178.142 31.6857 179.561 35.9485 182.11 41.2345C183.516 38.9292 187.776 27.7238 189.02 25.2783C188.722 25.8584 194.912 30.0255 195.569 30.4577C199.63 33.1454 204.078 35.2163 208.742 36.6584C216.305 38.99 224.508 38.9198 231.846 42.0083C229.677 44.1745 226.246 52.7337 226.162 55.7753C226.093 58.6034 225.77 58.9242 225.317 61.7254" fill="#253157"/>
<path d="M225.586 62.1734C225.346 64.9896 225.063 67.8027 225.12 70.6825L222.813 70.5212C223.217 67.2014 226.295 64.9271 229.525 64.7667C233.234 64.511 236.53 67.1022 237.133 70.7499C238.185 76.5752 232.687 84.0026 226.564 83.7891L227.908 81.136C229.336 82.824 228.474 85.94 229.194 87.9219C230.526 91.5776 235.95 93.2016 239.392 93.6998L237.968 94.4158C244.215 85.4955 250.937 76.5225 254.329 66.072C256.027 60.8253 256.903 55.0491 256.257 49.5527C255.778 45.3557 253.957 41.3224 251.983 37.6218C250.01 33.9212 247.328 29.3126 243.481 27.2409C241.454 26.1548 239.015 27.2719 237.331 25.5661C236.528 24.7802 236.178 23.6398 235.286 22.8906C234.193 21.9557 232.731 21.3813 231.436 20.8616C220.685 16.2467 208.89 15.5078 197.487 17.7579C194.135 18.4249 190.894 19.3572 187.68 20.506C185.655 21.2229 183.326 22.0043 181.959 23.7544C180.263 25.9107 180.384 29.6964 180.76 32.298C181.198 35.2474 182.383 37.9485 183.656 40.6129L180.708 40.4068C183.538 35.5398 185.089 29.9395 187.5 24.9145C188.252 23.3789 190.723 23.6375 190.546 25.5567C190.588 24.9587 189.956 24.7857 190.502 24.9527C190.585 25.0014 190.783 25.2299 190.866 25.2786C191.358 25.6134 191.801 26.0307 192.249 26.3626C193.227 27.1177 194.25 27.833 195.276 28.5057C198.266 30.5604 201.496 32.2457 204.878 33.5982C213.776 37.0962 223.538 36.8345 232.347 40.3693C233.684 40.892 233.918 42.4536 232.947 43.4587C230.863 45.6309 229.755 49.2018 228.786 52.0099C227.662 55.1934 227.38 58.6076 226.72 61.9094C226.336 63.7282 223.511 63.6165 223.773 61.7033C224.344 57.8372 224.308 54.0575 225.559 50.2819C226.649 46.9673 228.111 43.2494 230.566 40.674L231.166 43.7634C226.114 41.7362 220.795 41.0638 215.498 40.0925C210.323 39.2155 205.326 37.6214 200.634 35.3617C197.648 33.8653 194.769 32.0758 192.032 30.0817C190.683 29.1288 187.208 27.2548 187.391 25.2502L190.437 25.8924C187.833 31.2045 186.433 37.1157 183.454 42.2728C182.818 43.3872 181.03 43.1763 180.506 42.0667C177.994 36.869 176.351 31.5176 177.401 25.7105C178.318 20.581 182.491 18.5979 186.982 16.9804C199.087 12.6762 212.109 11.8269 224.588 15.0603C227.75 15.8823 230.848 17.0003 233.843 18.3686C234.969 18.8337 236.041 19.4667 237.064 20.182C238.081 20.9828 238.47 22.169 239.359 22.9608C240.126 23.6583 241.916 23.2255 243.009 23.5594C244.354 23.954 245.594 24.6416 246.694 25.4911C248.441 26.9009 249.956 28.5521 251.246 30.3593C254.267 34.4335 256.61 38.9755 258.204 43.8084C259.944 48.995 259.986 54.535 259.094 59.9238C256.888 73.6765 248.406 85.1018 240.506 96.1814C240.174 96.6304 239.64 96.8935 239.085 96.8547C234.92 96.263 230.314 94.6103 227.588 91.2434C226.64 90.0611 226.053 88.6465 225.855 87.1733C225.741 86.3498 225.627 85.5263 225.47 84.6998C225.412 84.3094 225.307 83.9587 225.291 83.5713C225.239 83.0955 224.839 82.6812 225.398 83.2783C224.402 82.1785 225.369 80.6151 226.742 80.6252C230.476 80.6288 232.627 76.2723 232.851 73.0688C232.973 71.3175 232.656 69.7072 230.864 68.9381C228.74 68.0169 225.901 68.7197 225.01 71.0182C224.482 72.4406 222.519 71.6595 222.831 70.2649C223.446 67.6038 223.68 64.8731 224.042 62.1513C224.199 61.1322 225.652 61.2337 225.586 62.1734V62.1734Z" fill="#253157"/>
<path d="M228.772 73.685C227.982 73.9302 227.654 74.9375 227.433 75.6516C227.105 76.6589 225.554 76.1212 225.925 75.117C226.405 73.777 227.098 72.452 228.691 72.3916C229.466 72.36 229.431 73.4735 228.772 73.685V73.685Z" fill="#253157"/>
<path d="M200.863 149.939L234.901 138.884C235.295 138.783 235.694 138.596 235.974 138.272C236.26 137.863 236.339 137.354 236.286 136.878C236.226 135.285 235.949 133.721 235.407 132.266C241.3 133.923 245.539 138.984 248.826 144.15C249.909 145.857 250.973 147.82 250.494 149.761C250.191 151.027 249.308 151.996 248.428 152.921C239.217 162.493 227.534 169.359 214.677 172.752C213.451 173.096 212.143 173.391 210.88 173.045C209.027 172.529 207.774 170.81 206.682 169.232C204.93 166.663 203.044 164.17 201.067 161.757C200.196 160.709 199.325 159.66 198.122 159.061C195.594 157.768 192.484 158.667 190.064 160.129C187.644 161.591 185.53 163.589 182.92 164.694C181.993 165.059 180.944 165.329 179.976 165.046C179.14 164.73 178.45 164.167 177.854 163.481C175.009 160.578 171.978 157.276 171.661 153.219C171.453 150.672 172.358 148.16 173.419 145.873C176.804 138.599 182.005 132.352 188.551 127.745L188.778 141.067C188.82 142.315 188.855 143.648 189.51 144.724C190.091 145.623 191.08 146.207 191.984 146.785L198.335 150.492" fill="white"/>
<path opacity="0.2" d="M188.431 141.73C188.431 141.73 183.19 137.5 176.173 140.872C176.173 140.872 153.583 128.777 132.851 137.371L149.233 129.589L160.734 127.173L172.752 128.4L181.28 129.211L187.43 129.04L188.658 129.899L188.431 141.73Z" fill="#02439A"/>
<path d="M200.526 149.228L220.15 142.359C223.229 141.287 226.269 140.169 229.346 139.139C230.663 138.716 233.176 138.377 234.31 137.512C234.782 137.502 234.971 137.258 234.788 136.816C234.781 136.3 234.688 135.779 234.596 135.257C234.445 134.345 234.206 133.47 233.924 132.592C233.535 131.406 234.925 130.559 235.935 130.844C241.059 132.447 245.003 136.2 248.14 140.454C251.035 144.476 253.943 148.929 250.117 153.297C243.028 161.386 233.238 167.569 223.265 171.464C220.792 172.45 218.246 173.26 215.666 173.938C213.175 174.579 210.701 174.964 208.499 173.308C206.38 171.7 205.064 169.033 203.496 166.906C201.891 164.69 199.787 161.023 197.152 160.024C191.512 157.826 186.978 165.579 181.768 166.416C179.206 166.838 177.611 165.096 176.01 163.438C174.29 161.644 172.622 159.725 171.535 157.46C168.76 151.729 171.621 145.791 174.634 140.765C177.982 135.247 182.395 130.448 187.679 126.697C188.27 126.223 189.167 126.286 189.638 126.92C189.834 127.191 189.984 127.502 189.96 127.844C190.033 132.313 189.979 136.773 190.184 141.208C190.235 142.328 190.197 143.484 190.991 144.398C191.627 145.129 192.707 145.634 193.532 146.121L199.181 149.435C200.707 150.314 199.173 152.611 197.649 151.688C195.341 150.325 192.981 149.087 190.721 147.641C189.079 146.582 187.969 145.26 187.591 143.302C187.188 141.085 187.398 138.696 187.386 136.42L187.226 127.653L189.507 128.799C185.487 131.652 181.978 135.183 179.037 139.184C176.233 143.066 172.407 148.679 173.128 153.708C173.446 155.919 174.681 157.894 176.066 159.579C176.698 160.353 177.334 161.084 178.015 161.776C179.656 163.479 180.579 164.402 183.014 163.327C187.176 161.515 190.023 157.636 194.812 157.285C199.601 156.933 202.191 161.02 204.746 164.375C206.161 166.234 207.394 168.251 208.9 170.031C211.196 172.809 214.11 171.64 217.092 170.732C226.176 167.891 234.61 163.287 241.905 157.187C243.998 155.487 245.975 153.608 247.787 151.632C250.26 148.8 248.466 146.228 246.674 143.613C243.711 139.328 240.081 135.383 234.954 133.823L236.922 132.072C237.664 134.356 238.994 138.655 236.187 140.133C234.672 140.928 232.759 141.267 231.177 141.8C229.155 142.474 227.097 143.06 225.081 143.649L201.059 150.811C200.144 151.004 199.644 149.553 200.526 149.228V149.228Z" fill="#253157"/>
<path fill-rule="evenodd" clip-rule="evenodd" d="M193.228 106.967C194.535 104.468 195.122 101.227 191.768 100.156C189.704 99.5826 187.547 99.1312 185.42 98.8538C184.023 98.5843 182.598 98.6993 181.657 99.8783C179.921 101.989 179.364 106.285 182.044 107.846C184.847 109.501 189.787 110.062 192.649 108.416C193.195 108.131 193.421 107.518 193.228 106.967Z" fill="#253157"/>
<path d="M184.686 108.117C179.724 107.255 174.733 104.974 170.108 102.977C166.152 101.241 162.568 99.7025 162.305 94.8767C161.799 84.9262 165.334 74.271 169.683 65.4755C170.428 64.0253 172.818 64.8362 172.113 66.3321C168.113 74.4224 165.823 83.2331 165.321 92.2547C165.172 94.3904 165.047 96.7854 166.962 98.2499C168.672 99.5713 170.94 100.288 172.894 101.197C176.927 103.067 181.328 104.577 185.163 106.819C185.697 107.157 185.364 108.25 184.686 108.117V108.117Z" fill="#253157"/>
<path d="M311.266 312.524C300.739 317.583 290.709 324.135 279.812 328.352C279.239 328.57 278.571 328.308 278.31 327.732C278.09 327.202 278.303 326.616 278.796 326.307C283.926 322.931 289.614 320.153 295.117 317.576C300.22 315.186 305.363 312.841 310.794 311.289C311.581 311.087 311.93 312.227 311.266 312.524V312.524Z" fill="#253157"/>
<path d="M227.025 389.002C229.241 381.259 229.512 373.08 227.786 365.233C227.067 362.007 225.922 358.75 223.505 356.478C221.409 354.529 218.595 353.645 216.022 352.392C211.369 350.178 207.267 346.844 204.168 342.678C200.79 338.193 197.855 332.279 192.333 331.464C191.567 331.367 190.664 331.39 190.115 331.867C189.652 332.349 189.351 332.972 189.303 333.655C188.392 338.099 188.881 342.768 190.605 346.967C191.633 349.442 194.197 352.068 196.596 350.905C191.572 350.94 186.428 348.992 181.604 350.458C175.771 352.239 172.558 358.281 169.983 363.81C169.578 364.683 169.171 365.599 169.233 366.547C169.36 367.801 170.277 368.809 171.349 369.442C174.686 371.435 179.55 370.016 181.296 366.532C179.327 370.129 174.049 371.949 174.062 376.07C174.075 378.947 177.19 381.054 180.076 380.912C182.961 380.77 185.454 378.884 187.406 376.746C185.37 380.08 180.651 381.896 180.293 385.777C180.065 388.423 182.009 390.705 183.946 392.471C185.678 394.095 187.544 395.642 189.766 396.398C191.988 397.154 194.712 396.873 196.372 395.229C196.921 394.752 197.268 394.09 197.361 393.366C197.578 391.493 194.842 390.1 193.426 391.331C198.657 393.242 204.145 395.171 209.696 394.358C214.076 393.72 218.142 391.429 222.572 391.309C223.56 391.292 224.628 391.367 225.439 390.823C226.249 390.279 226.522 388.838 225.652 388.391" fill="white"/>
<path d="M226.272 388.735C228.298 380.636 228.458 371.59 226.018 363.522C224.798 359.487 222.619 356.888 218.839 355.079C215.515 353.516 212.224 352.084 209.295 349.776C206.531 347.565 204.092 344.991 202.108 342.062C200.311 339.533 198.662 336.713 196.228 334.698C195.211 333.897 193.045 332.329 191.646 332.703C189.807 333.218 190.109 337.489 190.175 338.996C190.273 341.278 190.716 343.541 191.512 345.657C192.131 347.245 193.75 350.492 195.997 349.661L196.501 352.272C192.383 352.242 188.183 350.918 184.071 351.403C180.262 351.866 177.391 354.241 175.245 357.31C174.292 358.66 173.462 360.104 172.714 361.597C171.871 363.212 170.014 365.829 171.313 367.508C173.676 370.549 178.584 368.489 180.105 365.762L182.524 367.391C181.602 368.914 180.316 370.112 178.988 371.307C177.66 372.502 175.627 373.948 175.658 375.967C175.676 378.158 178.161 379.447 180.101 379.326C182.688 379.163 184.748 377.333 186.459 375.564C187.711 374.235 189.722 376.178 188.763 377.613C186.361 381.266 179.376 384.168 183.142 389.239C184.787 391.5 187.371 393.827 190.051 394.787C191.303 395.304 192.715 395.359 193.99 394.933C194.606 394.719 195.45 394.306 195.666 393.677C195.833 393.131 195.392 392.07 194.624 392.617L194.086 389.875C199.489 391.798 205.108 393.694 210.902 392.468C213.299 391.949 215.598 390.993 218.001 390.389C219.267 390.091 220.523 389.921 221.817 389.84C222.161 389.821 225.383 389.789 224.818 389.277C223.813 388.306 225.29 386.821 226.401 387.499C228.414 388.799 227.616 391.619 225.665 392.513C224.381 393.067 222.846 392.917 221.501 393.123C219.586 393.504 217.662 394.013 215.814 394.657C212.213 395.821 208.764 396.653 204.929 396.256C200.797 395.796 196.863 394.362 192.971 392.931C191.924 392.557 191.397 390.889 192.433 390.189C195.682 387.927 200.4 391.046 198.581 394.954C196.608 399.237 190.79 398.959 187.273 397.082C183.468 395.013 178.33 390.533 178.711 385.71C179.07 381.185 183.878 379.332 186.137 375.885L188.44 377.934C184.642 381.918 176.992 385.117 173.386 378.985C169.854 373.029 177.586 369.878 180.063 365.759C181.034 364.153 183.367 365.776 182.481 367.388C180.333 371.101 175.885 372.721 171.819 371.321C169.896 370.585 168.033 368.996 167.755 366.83C167.449 364.448 169.172 361.907 170.213 359.92C172.342 355.862 175.167 351.682 179.511 349.711C185.05 347.222 190.905 349.434 196.649 349.535C197.937 349.54 198.434 351.635 197.154 352.146C189.928 354.817 187.513 343.317 187.466 338.463C187.44 335.757 187.363 330.73 190.836 330.157C193.529 329.702 196.458 331.409 198.355 333.129C200.857 335.408 202.624 338.364 204.581 341.076C206.809 344.194 209.583 346.877 212.738 349.029C216.021 351.19 219.9 352.191 223.088 354.475C225.788 356.38 227.345 359.279 228.332 362.353C231.029 371.04 230.446 380.614 227.783 389.227C227.492 390.323 226.03 389.748 226.272 388.735V388.735Z" fill="#253157"/>
<path d="M244.348 228.719C234.219 228.096 224.231 226.067 214.638 222.692C213.087 222.154 213.941 219.768 215.492 220.305C224.871 223.665 234.585 225.933 244.465 227.053C245.53 227.17 245.459 228.796 244.348 228.719Z" fill="#253157"/>
<path d="M49.9704 129.944C54.8192 128.738 58.8776 125.331 61.617 121.144C64.3563 116.957 65.7706 112.077 66.584 107.198C67.1915 103.42 67.4633 99.5334 66.3474 95.8499C65.4032 92.7792 62.3173 89.6447 59.4701 91.0767C55.9096 92.888 57.9321 98.9528 55.1542 101.849C51.6541 92.9767 49.4741 83.6388 48.6363 74.1372C48.4994 72.4107 48.2554 70.3763 46.686 69.4939C45.364 68.7577 43.714 69.0286 42.6082 70.1102C40.5824 72.0717 40.6048 74.8204 40.6819 77.4011L41.0532 91.1195C37.3061 86.3935 35.668 80.3556 34.0149 74.5312C33.2515 71.9454 31.7977 68.7962 29.0371 68.9895C27.9573 69.0857 27.0155 69.6637 26.3975 70.5218C25.2102 72.1557 25.198 74.1722 25.3625 76.1153C25.8563 81.9444 27.9147 87.4966 29.979 92.9634C28.1925 89.6621 26.3175 86.3977 24.2628 83.2494C23.3759 81.8138 22.2827 79.0333 20.3268 78.7677C11.9053 77.6638 20.8361 99.1058 21.5987 101.091C24.2082 107.969 25.5311 115.444 29.4301 121.683C33.329 127.922 41.0178 132.752 47.936 130.188" fill="white"/>
<path d="M49.6676 129.365C60.022 125.539 64.4421 115.118 65.592 104.811C65.9054 102.172 65.9257 99.4259 65.2903 96.849C64.787 94.8394 62.3768 90.6361 59.7193 92.4247C58.1437 93.4734 58.2605 96.0999 58.0158 97.7568C57.7652 99.4991 57.3468 101.187 56.1744 102.607C55.614 103.255 54.4001 103.427 53.996 102.455C50.606 93.8477 48.4479 84.8118 47.5037 75.6032C47.3301 73.7883 47.2533 69.3619 44.2105 70.5227C41.872 71.4322 41.8923 74.8245 41.9228 76.844C41.9757 81.6122 42.1537 86.432 42.292 91.2061C42.3028 92.2799 40.7232 92.7704 40.0936 91.9537C37.9325 89.0985 36.2681 85.8916 35.1313 82.5071C33.9457 79.205 33.4884 75.3099 31.7267 72.268C31.3076 71.509 30.7207 70.6954 29.8783 70.4648C28.2364 70.0066 27.1921 71.4358 26.7916 72.8672C26.2151 74.973 26.7313 77.4128 27.1432 79.5019C27.9918 83.9394 29.6242 88.217 31.2169 92.449C31.8325 94.0802 29.6499 95.2152 28.772 93.6516C26.8723 90.1278 24.7013 86.7997 22.6675 83.3524C22.013 82.2765 20.3576 78.9416 18.7799 80.634C17.9453 81.5199 18.1864 83.5971 18.3253 84.6799C18.5723 86.6716 18.9932 88.6326 19.5482 90.517C20.4804 93.7585 21.5895 96.9265 22.8327 100.018C25.1969 106.107 26.5032 112.594 29.4436 118.422C32.7176 125.004 39.8171 131.509 47.6839 128.883C49.0896 128.423 49.9475 130.887 48.5388 131.389C41.4131 133.853 33.9426 130.197 29.4923 124.478C24.2931 117.804 23.0935 109.179 20.1564 101.462C18.6193 97.6631 17.3444 93.7968 16.2891 89.8599C15.488 86.5847 13.9353 80.5528 17.2416 78.0798C19.4143 76.4719 22.134 77.4776 23.6287 79.4278C24.891 81.0184 25.7847 82.9695 26.8215 84.716C28.3628 87.2274 29.8127 89.8184 31.2198 92.4063L28.775 93.6088C26.8299 88.2792 24.8023 82.9008 24.1714 77.1909C23.7816 73.5581 24.4133 67.5931 29.3801 67.7687C33.3614 67.9183 34.7137 72.5198 35.6092 75.6729C37.0934 80.8415 38.6631 86.0162 42.01 90.3279L39.8116 91.0755L39.5598 81.7866C39.4917 79.0777 39.1365 76.1771 39.6267 73.4643C40.268 69.8178 44.3712 65.7695 48.0123 68.9428C49.5488 70.295 49.7442 72.4119 49.9545 74.3152C50.258 77.341 50.6469 80.3728 51.2096 83.3739C52.3689 89.507 54.0497 95.5479 56.3464 101.374L54.168 101.222C56.9271 97.9811 54.5312 91.1176 59.7823 89.6821C65.9056 88.0499 68.2764 96.4998 68.4019 100.844C68.7547 112.372 63.0433 128.369 50.182 130.603C49.4012 130.72 48.9603 129.659 49.6676 129.365V129.365Z" fill="#253157"/>
<path d="M64.9989 230.533C66.9993 225.866 68.5785 221.083 69.0193 216.006C69.4482 211.1 68.846 206.207 68.8051 201.268C68.8123 199.938 70.9014 199.526 71.373 200.761C73.3421 205.749 73.0879 211.225 71.9973 216.386C70.9068 221.546 69.0872 226.698 66.1193 231.084C65.7328 231.7 64.6948 231.199 64.9989 230.533V230.533Z" fill="black"/>
<ellipse rx="38.7505" ry="38.7505" transform="matrix(-0.997564 -0.0697565 -0.0697565 0.997564 101.387 62.5024)" fill="#02439A"/>
<path d="M64.3965 59.9158C63.4494 75.3018 72.1141 90.1151 86.3122 96.3875C100.684 102.629 117.443 99.294 128.32 87.9933C139.02 76.7661 141.435 59.4224 134.413 45.6683C127.391 31.9141 112.122 23.7642 96.7894 25.7395C79.294 27.9499 65.7463 42.4548 64.3965 59.9158C64.2442 62.0942 60.8698 61.8583 61.0221 59.6799C62.3331 42.7741 73.9378 28.4338 90.2425 23.6077C106.541 18.867 124.763 25.292 134.476 39.2343C144.189 53.1766 144.199 72.0633 134.39 85.8854C124.585 99.6647 106.894 105.896 90.6365 101.454C72.2303 96.4329 59.9155 78.5743 61.0649 59.6828C61.1715 57.5442 64.5032 57.7771 64.3965 59.9158Z" fill="#02439A"/>
<path d="M119.656 49.0459C117.334 49.9622 115.385 51.8281 113.447 53.3522C111.388 55.0024 109.329 56.6525 107.279 58.2551C105.341 59.7792 103.403 61.3033 101.417 62.819C99.4871 64.2955 97.4706 66.5423 95.4567 67.6602L98.4006 66.5589L97.8516 66.6094L101.09 67.1804L100.504 66.8808L102.894 68.9225C100.574 66.2057 98.4562 63.1807 96.1924 60.4247C94.0856 57.8928 90.5252 56.9213 87.7159 58.9301C85.0103 60.9081 84.3469 64.6701 86.2213 67.4066C87.4849 69.1515 88.6924 70.9357 90.012 72.6414C91.4885 74.5712 93.0322 76.9548 95.1921 78.0722C100.271 80.7354 104.483 76.6171 107.365 72.8043C109.925 69.4257 112.485 66.0472 115.092 62.677C116.428 60.9485 117.812 59.2284 119.108 57.4439C120.332 55.7938 121.898 54.1549 122.584 52.2136C123.301 50.376 121.715 48.2305 119.656 49.0459V49.0459Z" fill="white"/>
<path d="M351.962 186.001C355.381 196.026 358.31 206.318 359.549 216.835C360.136 221.941 360.55 227.077 360.704 232.239C360.86 234.911 360.843 237.614 360.658 240.262C360.487 242.096 360.154 243.79 358.187 244.296C357.665 244.388 357.119 244.221 356.804 243.813L356.563 243.581C355.606 242.527 356.788 240.979 358.091 241.37L358.427 241.48L356.99 241.766C357.127 241.646 356.742 239.173 356.726 238.786C356.673 237.709 356.662 236.635 356.651 235.561C356.605 233.154 356.559 230.747 356.427 228.334C356.203 223.554 355.675 218.839 355.149 214.08C354.085 204.735 352.802 195.46 350.611 186.293C350.289 185.369 351.637 185.12 351.962 186.001V186.001Z" fill="white"/>
<path d="M358.105 250.986L357.509 250.301C357.148 249.932 357.144 249.374 357.47 249.01C357.839 248.65 358.397 248.646 358.761 248.972C358.8 249.017 358.84 249.063 358.88 249.109L359.433 249.791C359.592 249.974 359.662 250.194 359.645 250.45C359.612 250.92 359.197 251.32 358.685 251.284C358.471 251.269 358.264 251.169 358.105 250.986V250.986Z" fill="white"/>
<path d="M265.979 84.2275C263.109 82.9108 260.085 81.9696 256.988 81.4526C255.758 81.2378 255.844 79.3981 257.125 79.4877C260.539 79.7694 263.845 80.9878 266.621 83.0276C267.235 83.4568 266.727 84.5802 265.979 84.2275V84.2275Z" fill="white"/>
<path d="M229.313 337.269C227.726 339.089 225.579 339.712 223.268 340.237C219.69 341.06 216.07 341.88 212.462 342.529C211.941 342.621 211.492 342.289 211.354 341.807C211.262 341.286 211.594 340.837 212.075 340.699C215 340.002 217.955 339.479 220.871 338.91C223.35 338.44 226.367 338.265 228.299 336.425C228.893 335.909 229.821 336.746 229.313 337.269V337.269Z" fill="white"/>
<path d="M183.702 343.179C177.083 343.918 170.414 343.537 163.908 342.052C160.694 341.355 157.596 340.237 154.498 339.119C151.193 337.901 147.756 336.716 144.8 334.793C143.609 334.023 144.274 331.88 145.717 332.11C152.006 333.022 158.054 336.149 163.897 338.532C170.157 341.073 176.873 342.015 183.581 341.84C184.399 341.811 184.48 343.104 183.702 343.179V343.179Z" fill="white"/>
<path d="M113.597 180.063C111.798 191.055 110.131 202.012 108.207 212.952C106.283 223.891 104.353 234.916 102.765 245.965C101.998 251.405 101.271 256.892 100.59 262.338C99.9812 267.36 98.4525 273.263 100.998 277.991C103.24 282.139 107.019 285.794 110.398 289.035C113.777 292.276 117.39 295.233 121.238 297.906C137.931 309.632 157.614 316.03 177.483 319.78C187.736 321.699 198.153 323.114 208.508 324.182C218.055 325.15 227.852 325.62 237.272 323.489C246.693 321.358 253.918 316.24 260.815 309.683C267.438 303.364 273.538 296.537 279.195 289.292C280.185 288.031 282.234 289.419 281.241 290.723C276.27 297.372 271.008 303.872 265.144 309.771C259.28 315.671 253.053 321.245 245.285 324.307C236.278 327.884 226.493 328.487 216.91 328.031C206.085 327.532 195.195 326.127 184.5 324.392C163.744 321.052 143.058 315.485 124.948 304.389C116.545 299.337 109.004 293.015 102.522 285.652C99.4265 282.044 96.5961 278.327 96.3416 273.373C96.0712 268.031 97.2373 262.404 97.9067 257.129C99.5985 243.984 101.464 230.808 104.09 217.814C105.337 211.635 106.756 205.467 108.086 199.337C109.483 192.867 110.626 186.337 112.108 179.873C112.296 179.028 113.779 179.303 113.631 180.194L113.597 180.063Z" fill="#253157"/>
<path opacity="0.2" d="M265.52 258.977L262.361 257.511C262.361 257.511 260.551 295.672 246.483 309.024C226.989 327.534 189.616 321.831 189.616 321.831L215.139 332.5L253.838 319.239L265.809 307.01L268.502 280.175L267.171 259.307L265.52 258.977Z" fill="#02439A"/>
</svg>
