<svg width="401" height="134" viewBox="0 0 401 134" fill="none" xmlns="http://www.w3.org/2000/svg">
<path d="M6.90802 34.8269C7.0633 34.2138 7.44749 33.9849 8.05323 34.0405C8.65896 34.096 9.07996 34.3658 9.22387 34.9568L6.25551 59.9431C10.7125 49.6871 14.9914 42.4525 18.9926 38.2464C22.9938 34.0404 26.2373 31.7955 28.6308 31.6188C29.8275 31.5305 30.8469 31.756 31.4968 32.4099C32.1467 33.0639 32.5972 33.7325 32.6634 34.6301C32.7518 35.8268 32.1494 37.1748 30.8563 38.6741C29.5632 40.1734 27.513 40.9264 24.813 41.0254C24.1002 40.8775 23.7642 40.401 23.8197 39.7952C23.8679 39.0898 24.145 38.7685 24.6437 38.7317C26.5459 38.6915 28.0123 38.1822 28.9507 37.3107C29.9888 36.4319 30.4286 35.5972 30.3697 34.7994C30.3181 34.1013 29.7974 33.8389 28.8001 33.9126C27.6034 34.0009 26.1516 34.7097 24.4375 35.9393C22.7307 37.2686 20.8687 39.2109 18.7737 42.0729C16.6714 44.8352 14.5283 48.4027 12.1522 52.8898C9.87585 57.3696 7.46632 62.7616 4.93096 69.1657C4.77568 69.7788 4.38412 69.908 3.77103 69.7527C3.15793 69.5974 2.82929 69.2206 2.98457 68.6075L6.90802 34.8269Z" fill="#BADFD6"/>
<path d="M44.0224 29.58C44.7058 29.329 45.2265 29.5914 45.5773 30.2674C45.9354 31.0431 45.8724 31.5491 45.1891 31.8001C44.3136 32.1656 43.667 32.9152 43.1349 33.8569C42.6102 34.8984 42.1852 35.9325 41.9596 36.9519C41.7341 37.9713 41.6009 38.8835 41.7595 39.674C41.9181 40.4645 42.2468 40.8413 42.9449 40.7898C43.8424 40.7235 44.489 39.9738 44.9916 38.6332C45.4943 37.2926 45.4836 35.7893 45.1737 34.3081C45.0151 33.5176 45.1777 33.0042 45.5619 32.7753C45.9461 32.5464 46.4373 32.4099 46.8436 32.4801C48.8676 32.7318 50.8843 32.8837 53.0931 32.9212C55.095 32.8737 57.1967 32.8188 59.291 32.6642C66.272 32.1488 72.1894 30.8094 77.0433 28.6462C77.7267 28.3952 78.1403 28.5652 78.3913 29.2486C78.6423 29.9319 78.4797 30.4453 77.811 30.8958C72.9571 33.059 66.8402 34.4131 59.4603 34.9579C57.2663 35.1199 55.1646 35.1748 53.1627 35.2223C51.1607 35.2699 49.3509 35.2029 47.8403 35.1139C48.0578 36.7022 47.7767 38.3273 47.0043 40.089C46.2319 41.8506 44.902 42.8513 43.0071 42.9911C41.4115 43.109 40.37 42.5842 39.8827 41.4169C39.3955 40.2496 39.1927 38.8608 39.3814 37.3428C39.5701 35.8248 40.0581 34.2846 40.8525 32.8222C41.647 31.3597 42.7701 30.2741 44.0224 29.58Z" fill="#BADFD6"/>
<path d="M77.2876 26.5223C77.5426 25.9019 78.0339 25.7653 78.6617 26.1201C79.2822 26.3751 79.5185 26.859 79.3558 27.3724C79.1082 28.0926 78.7682 28.9198 78.5426 29.9392C78.317 30.9586 78.0915 31.978 78.058 32.8829C77.9248 33.7952 77.9911 34.6927 78.0426 35.3908C78.0942 36.0889 78.4228 36.4657 78.9214 36.4289C80.5171 36.3111 82.0612 35.4952 83.8456 33.8594C85.5377 32.3307 87.0081 30.5175 88.1647 28.5269C88.8816 27.371 89.6794 27.3121 90.6727 28.5423C91.773 29.8649 93.0655 31.073 94.443 32.0743C95.8204 33.0756 97.7594 33.5341 100.053 33.3647C101.35 33.269 102.831 32.9591 104.489 32.3353C106.155 31.8112 107.807 31.0877 109.458 30.3641C111.109 29.6406 112.66 28.9244 114.005 28.1232C115.35 27.3221 116.403 26.6427 117.164 26.0852C117.818 25.4352 118.423 25.4908 118.966 26.0524C119.609 26.6066 119.453 27.2196 118.792 27.7698C117.946 28.5342 116.801 29.3206 115.264 30.2363C113.727 31.1519 112.183 31.9678 110.333 32.7061C108.582 33.437 106.724 34.0755 104.866 34.7141C103 35.2529 101.427 35.6699 100.13 35.7656C97.7367 35.9423 95.5982 35.4985 93.7221 34.534C91.8313 33.3701 90.4391 32.1694 89.3461 30.9465C88.3521 32.4237 86.8743 34.1372 84.8978 35.8874C82.9213 37.6377 80.9856 38.5828 79.0908 38.7227C77.7943 38.8184 76.8599 38.386 76.3948 37.5179C75.9296 36.6498 75.7415 35.4604 75.8453 34.1492C75.949 32.838 76.1451 31.4198 76.4409 29.9941C76.7368 28.5685 77.0473 27.3423 77.2876 26.5223Z" fill="#BADFD6"/>
<path d="M165.318 22.3295C165.994 21.9788 166.5 22.0417 166.943 22.6106C167.386 23.1795 167.323 23.6855 166.762 24.2283C164.586 25.9934 161.896 27.5957 158.9 29.1204C155.905 30.6451 152.602 32.0922 149.285 33.3398C145.968 34.5875 142.536 35.643 139.182 36.392C135.836 37.2407 132.559 37.6831 129.667 37.8966C127.772 38.0365 126.133 37.556 124.655 36.562C123.178 35.5681 122.384 34.3232 122.267 32.7275C122.208 31.9297 122.241 31.0248 122.467 30.0054C122.685 28.8863 122.918 27.9666 123.151 27.047C120.779 27.5229 118.77 27.4707 117.108 26.6909C115.446 25.9112 114.638 24.4668 114.483 22.3725C114.439 21.7741 114.816 21.4455 115.606 21.2868C116.397 21.1282 116.818 21.3979 116.877 22.1958C116.972 23.4922 117.744 24.438 119.077 24.8409C120.418 25.3436 122.206 25.1113 124.348 24.2512C125.031 24.0002 125.545 24.1629 125.888 24.7392C126.232 25.3154 126.276 25.9138 125.814 26.4493C125.274 27.2913 124.942 28.2183 124.831 29.4298C124.62 30.6486 124.594 31.6532 124.66 32.5508C124.726 33.4484 125.284 34.2094 126.226 34.7415C127.175 35.3733 128.294 35.5915 129.491 35.5031C132.383 35.2896 135.452 34.7622 138.706 34.0206C141.953 33.1792 145.292 32.2308 148.517 31.0903C151.742 29.9497 154.852 28.6171 157.749 27.0998C160.652 25.6821 163.135 23.9948 165.318 22.3295Z" fill="#BADFD6"/>
<path d="M190.109 21.3014C190.165 20.6957 190.649 20.4594 191.347 20.4078C192.145 20.3489 192.473 20.7258 192.433 21.531L191.951 25.8782C192.705 25.2209 193.558 24.5563 194.597 23.6775C195.635 22.7986 196.78 22.0122 197.925 21.2257C199.07 20.4393 200.223 19.7526 201.482 19.1582C202.642 18.5712 203.725 18.2908 204.722 18.2171C206.517 18.0846 207.459 18.6167 207.739 19.699C208.027 20.881 208.215 22.0704 208.304 23.2671C208.362 24.065 208.407 24.6633 208.55 25.2543C208.694 25.8453 208.809 26.0374 209.208 26.008C210.604 25.9049 212.362 25.2737 214.283 24.1292C216.204 22.9846 218.118 21.7404 220.024 20.3964C222.03 19.045 223.943 17.8007 225.872 16.7559C227.7 15.7185 229.359 15.0947 230.655 14.999C232.55 14.8591 234.083 15.2473 235.161 16.2707C236.339 17.2867 237.425 18.4098 238.525 19.7324C239.511 20.8628 240.597 21.986 241.682 23.1091C242.868 24.2248 244.301 24.6204 246.196 24.4805C248.091 24.3406 250.155 23.7871 252.291 22.8273C254.525 21.8601 256.561 20.9076 258.581 19.7557C260.51 18.7109 262.239 17.6808 263.668 16.6728C265.105 15.7646 265.959 15.0999 266.243 14.8784C266.812 14.4353 267.311 14.3985 267.754 14.9674C268.197 15.5363 268.241 16.1347 267.679 16.6775C267.395 16.899 266.442 17.571 265.012 18.579C263.483 19.5944 261.754 20.6245 259.634 21.7838C257.513 22.943 255.286 24.0099 252.951 24.9845C250.617 25.959 248.352 26.5273 246.258 26.6819C243.864 26.8586 241.918 26.3004 240.426 25.107C238.934 23.9136 237.627 22.506 236.42 21.0911C235.434 19.9606 234.562 19.0222 233.698 18.1836C232.841 17.4446 231.815 17.1194 230.618 17.2077C229.621 17.2813 228.254 17.7833 226.518 18.7137C224.781 19.6441 222.968 20.881 221.161 22.2176C219.063 23.676 216.957 25.0348 214.844 26.2938C212.731 27.5528 210.873 28.1913 209.277 28.3091C207.682 28.4269 206.847 27.9872 206.467 26.9122C206.186 25.83 206.006 24.7403 205.903 23.3441C205.844 22.5463 205.792 21.8482 205.648 21.2572C205.504 20.6662 205.283 20.3817 204.884 20.4112C204.086 20.4701 203.211 20.8355 202.051 21.4225C200.898 22.1092 199.746 22.796 198.508 23.6895C197.27 24.583 196.133 25.4692 195.002 26.4551C193.872 27.441 192.834 28.3199 191.88 28.9919C191.034 29.7562 190.451 29.9999 190.037 29.8299C189.623 29.6599 189.494 29.2683 189.55 28.6626L190.109 21.3014Z" fill="#BADFD6"/>
<path d="M277.407 8.53927C278.105 8.48774 278.433 8.86456 278.492 9.66239C278.551 10.4602 278.282 10.8812 277.583 10.9328C276.486 11.0138 275.397 11.1945 274.215 11.4823C273.033 11.7701 272.058 12.1429 271.09 12.6154C270.122 13.088 269.361 13.6455 268.799 14.1884C268.245 14.8309 267.983 15.3516 268.027 15.95C268.093 16.8476 268.536 17.4165 269.364 17.7565C270.191 18.0965 271.011 18.3368 271.923 18.47C272.529 18.5255 272.758 18.9097 272.702 19.5155C272.647 20.1212 272.369 20.4425 271.871 20.4793C269.991 20.8186 269.13 21.3835 269.189 22.1814C269.277 23.3781 272.114 23.7703 277.599 23.3654C279.793 23.2034 282.471 22.8051 285.625 22.0709C288.78 21.3366 291.92 20.4029 295.052 19.3695C298.284 18.3287 301.302 17.1031 304.113 15.7926C306.924 14.4821 309.229 13.1086 311.021 11.5725C311.598 11.2292 312.104 11.2921 312.539 11.7613C312.982 12.3302 313.019 12.8288 312.465 13.4714C310.666 14.9078 308.268 16.3883 305.258 17.7136C302.255 19.1385 299.137 20.3714 295.812 21.5193C292.488 22.6672 289.248 23.6083 285.994 24.3499C282.74 25.0915 279.962 25.4971 277.668 25.6665C274.477 25.9021 271.862 25.7943 269.923 25.3359C267.984 24.8774 266.906 23.854 266.795 22.3581C266.751 21.7597 267.014 21.239 267.483 20.8032C268.052 20.3602 268.521 19.9244 269.104 19.6808C267.066 19.2297 265.98 18.1066 265.833 16.112C265.767 15.2144 266.107 14.3872 266.838 13.4307C267.577 12.574 268.416 11.7099 269.568 11.0231C270.721 10.3364 271.981 9.74206 273.355 9.33979C274.629 8.94489 276.011 8.64235 277.407 8.53927Z" fill="#BADFD6"/>
<path d="M128.196 75.0058C129.078 74.7401 129.599 75.0024 129.75 75.6932C129.909 76.4836 129.647 77.0044 129.063 77.248C124.856 78.6616 120.663 80.2747 116.393 82.1943C112.222 84.1066 108.259 86.1038 104.509 88.2858C105.705 90.9049 106.403 93.5607 106.616 96.4529C106.903 100.342 106.378 104.091 105.04 107.699C103.702 111.308 101.843 114.654 99.364 117.745C96.8775 120.736 94.055 123.25 90.7821 125.096C87.5165 127.042 83.9851 128.105 80.3949 128.37C75.5082 128.731 72.9233 126.315 72.5551 121.328C72.3784 118.935 72.9848 116.283 74.3817 113.472C75.7785 110.662 77.7664 107.708 80.36 104.809C82.9463 101.81 86.1382 98.8672 89.7365 95.9944C93.3274 93.022 97.3319 90.2195 101.551 87.6018C99.7267 84.628 97.3265 81.9976 94.3427 79.6108C94.0141 79.234 94.077 78.728 94.4391 78.1999C94.9009 77.6644 95.3922 77.5279 95.8132 77.7976C99.218 80.4541 101.733 83.2767 103.464 86.3575C107.306 84.0684 111.262 81.9715 115.533 80.0518C119.603 78.1469 123.888 76.4268 128.196 75.0058ZM104.322 96.6222C104.16 94.4282 103.577 91.9644 102.488 89.4377C98.4617 91.941 94.749 94.6216 91.2431 97.3873C87.7372 100.153 84.8297 102.874 82.3285 105.666C79.8273 108.458 77.9244 111.205 76.6125 113.809C75.2009 116.42 74.6796 118.865 74.8415 121.059C75.0992 124.55 76.9271 126.22 80.2182 125.977C83.5092 125.734 86.7414 124.693 89.7225 122.969C92.796 121.137 95.4412 118.937 97.6432 116.167C99.8453 113.397 101.626 110.358 102.879 106.957C104.14 103.655 104.58 100.113 104.322 96.6222ZM95.3071 62.7942C94.6238 63.0452 94.2028 62.7754 93.9518 62.0921C93.6934 61.3089 93.856 60.7956 94.5394 60.5446L99.153 59.2012C100.036 58.9355 100.557 59.1979 100.808 59.8813C101.066 60.6644 100.804 61.1851 100.02 61.4435L95.3071 62.7942Z" fill="#BADFD6"/>
<path d="M130.977 73.2963C131.661 73.0453 132.181 73.3077 132.532 73.9837C132.89 74.7595 132.827 75.2655 132.144 75.5165C131.268 75.8819 130.622 76.6316 130.09 77.5733C129.558 78.515 129.133 79.5491 128.907 80.5685C128.681 81.5879 128.548 82.5002 128.707 83.2906C128.866 84.0811 129.194 84.4579 129.892 84.4064C130.79 84.3401 131.436 83.5905 131.939 82.2498C132.442 80.9092 132.431 79.4059 132.121 77.9247C131.962 77.1342 132.125 76.6208 132.509 76.3919C132.893 76.163 133.385 76.0265 133.791 76.0968C135.815 76.3484 137.832 76.5004 140.04 76.5378C142.249 76.5753 144.244 76.428 146.338 76.2734C153.319 75.758 159.237 74.4187 164.09 72.2554C164.774 72.0045 165.187 72.1745 165.438 72.8578C165.689 73.5412 165.527 74.0546 164.858 74.505C160.004 76.6683 153.887 78.0223 146.507 78.5672C144.313 78.7292 142.212 78.7841 140.21 78.8316C138.208 78.8791 136.398 78.8122 134.887 78.7232C135.105 80.3115 134.824 81.9366 134.051 83.6982C133.279 85.4599 131.949 86.4605 130.054 86.6004C128.459 86.7182 127.417 86.1935 126.93 85.0262C126.443 83.8589 126.24 82.47 126.429 80.952C126.617 79.434 127.105 77.8939 127.9 76.4314C128.602 75.0761 129.625 73.9978 130.977 73.2963Z" fill="#BADFD6"/>
<path d="M163.167 73.3263C163.322 72.7132 163.813 72.5767 164.526 72.7246C165.239 72.8725 165.568 73.2493 165.512 73.8551C164.976 76.1006 165.408 77.8737 166.6 79.0891C167.793 80.3046 169.44 80.8849 171.535 80.7303C173.629 80.5757 175.908 80.2069 178.464 79.5168C180.928 78.9338 183.469 78.0443 186.011 77.1548C188.545 76.1655 191.071 75.0765 193.491 73.8951C195.903 72.6141 198.216 71.3403 200.222 69.989C200.89 69.5385 201.389 69.5017 201.932 70.0633C202.375 70.6322 202.319 71.2379 201.758 71.7807C199.659 73.2392 197.262 74.7197 194.75 76.0082C192.138 77.304 189.619 78.4927 186.878 79.397C184.244 80.3936 181.596 81.1908 178.933 81.7885C176.269 82.3862 173.898 82.8621 171.704 83.0241C168.612 83.2523 166.252 82.5241 164.524 80.8468C162.789 79.0697 162.405 76.5913 163.167 73.3263ZM169.93 58.9895C169.246 59.2405 168.825 58.9707 168.574 58.2874C168.316 57.5043 168.478 56.9909 169.162 56.7399L173.86 55.1897C174.743 54.924 175.264 55.1864 175.515 55.8698C175.773 56.6529 175.511 57.1736 174.728 57.432L169.93 58.9895Z" fill="#BADFD6"/>
<path d="M200.074 70.7019C200.214 69.8894 200.691 69.5534 201.411 69.801C202.124 69.9489 202.452 70.3257 202.397 70.9315L201.894 74.9795C203.97 73.2219 205.968 71.7708 207.967 70.3197C209.873 68.9757 211.524 68.2522 212.921 68.1491C214.317 68.046 215.344 68.3713 215.901 69.1323C216.459 69.8933 216.916 70.6617 217.275 71.4374C217.747 72.4053 218.519 73.351 219.49 74.282C220.461 75.2131 222.094 75.5939 224.387 75.4246C226.581 75.2626 229.537 74.543 233.345 73.1589C237.054 71.7821 241.9 69.5191 247.885 66.3699C248.568 66.1189 248.982 66.2889 249.325 66.8652C249.668 67.4415 249.506 67.9549 249.029 68.2909C242.76 71.6616 237.622 74.0464 233.813 75.4306C230.005 76.8147 226.858 77.6487 224.564 77.818C222.968 77.9358 221.757 77.8247 220.738 77.5992C219.718 77.3736 218.884 76.9339 218.141 76.3871C217.399 75.8402 216.856 75.2787 216.506 74.6027C216.155 73.9266 215.712 73.3577 215.361 72.6817C214.645 71.1302 213.895 70.4837 212.998 70.5499C211.801 70.6383 210.349 71.3471 208.635 72.5766C206.928 73.9059 204.475 75.9922 201.076 78.8502C200.892 79.0644 200.507 79.2933 199.909 79.3375C199.318 79.4814 199.097 79.1969 199.159 78.6909L200.074 70.7019Z" fill="#BADFD6"/>
<path d="M258.32 62.3908C259.225 62.4243 259.553 62.8011 259.505 63.5065C259.357 64.2194 259.088 64.6404 258.489 64.6845C256.794 64.8097 255.213 65.127 253.554 65.7508C251.896 66.3746 250.444 67.0834 249.199 67.8772C247.954 68.671 246.923 69.6496 246.192 70.606C245.46 71.5625 245.128 72.4895 245.187 73.2873C245.216 73.6863 245.438 73.9707 245.936 73.9339C247.931 73.7867 250.081 73.0263 252.378 71.5531C254.676 70.0799 257.129 67.9937 259.538 65.309C262.047 62.617 264.411 59.334 266.724 55.3529C269.038 51.3718 271.115 46.9067 272.94 41.7583C273.088 41.0455 273.572 40.8092 274.292 41.0569C275.013 41.3045 275.341 41.6813 275.094 42.4015C273.969 48.9019 273.676 54.4386 274 58.8266C274.287 62.716 275.106 65.6637 276.465 67.7694C277.824 69.8751 279.8 70.8322 282.393 70.6407C285.384 70.4199 288.24 69.7077 290.966 68.604C293.692 67.5003 297.357 65.5251 301.76 62.6932C302.628 62.228 303.134 62.2909 303.385 62.9743C303.636 63.6577 303.473 64.171 302.905 64.6141C298.209 67.5679 294.445 69.5504 291.527 70.7686C288.609 71.9867 285.654 72.7063 282.562 72.9345C279.171 73.1848 276.582 72.0724 274.788 69.4976C272.993 66.9227 272.03 63.384 271.699 58.8962C271.522 56.5027 271.523 53.7953 271.608 50.8811C267.518 59.3052 263.165 65.5426 258.451 69.6007C253.737 73.6588 249.589 75.8702 245.899 76.1427C245.001 76.2089 244.281 75.9613 243.646 75.5068C243.003 74.9526 242.752 74.2692 242.686 73.3717C242.605 72.2747 243.023 71.1408 243.832 69.8778C244.641 68.6148 245.864 67.5218 247.286 66.4141C248.808 65.299 250.445 64.376 252.295 63.6377C254.353 62.9845 256.325 62.538 258.32 62.3908Z" fill="#BADFD6"/>
<path d="M350.605 58.7863C351.281 58.4356 351.787 58.4985 352.23 59.0674C352.673 59.6363 352.61 60.1423 352.049 60.6851C349.873 62.4501 347.183 64.0525 344.188 65.5772C341.092 67.1093 337.889 68.549 334.572 69.7966C331.255 71.0443 327.823 72.0998 324.469 72.8488C321.123 73.6975 317.846 74.1399 314.954 74.3534C313.06 74.4933 311.42 74.0127 309.942 73.0188C308.465 72.0249 307.671 70.7799 307.554 69.1843C307.495 68.3865 307.528 67.4815 307.754 66.4622C307.972 65.3431 308.205 64.4234 308.438 63.5038C306.066 63.9797 304.057 63.9275 302.395 63.1477C300.733 62.368 299.925 60.9236 299.77 58.8293C299.726 58.2309 300.103 57.9023 300.893 57.7436C301.684 57.585 302.105 57.8547 302.164 58.6526C302.259 59.949 303.031 60.8948 304.364 61.2977C305.705 61.8004 307.493 61.5681 309.635 60.708C310.319 60.457 310.832 60.6197 311.175 61.1959C311.519 61.7722 311.563 62.3706 311.101 62.9061C310.562 63.7481 310.229 64.6751 310.118 65.8865C309.907 67.1054 309.881 68.11 309.947 69.0076C310.013 69.9051 310.571 70.6662 311.513 71.1983C312.462 71.8301 313.581 72.0483 314.778 71.9599C317.67 71.7464 320.739 71.219 323.994 70.4774C327.248 69.7357 330.58 68.6876 333.804 67.5471C337.029 66.4065 340.139 65.0739 343.036 63.5565C345.839 62.1463 348.322 60.4589 350.605 58.7863Z" fill="#BADFD6"/>
<path d="M361.769 52.447C362.467 52.3955 362.795 52.7723 362.854 53.5701C362.913 54.3679 362.643 54.7889 361.945 54.8405C360.848 54.9215 359.759 55.1022 358.577 55.39C357.395 55.6778 356.419 56.0506 355.451 56.5232C354.484 56.9957 353.723 57.5533 353.161 58.0961C352.607 58.7386 352.345 59.2594 352.389 59.8577C352.455 60.7553 352.898 61.3242 353.725 61.6642C354.553 62.0042 355.373 62.2445 356.285 62.3777C356.891 62.4333 357.119 62.8174 357.064 63.4232C357.008 64.0289 356.731 64.3502 356.233 64.387C354.353 64.7263 353.492 65.2913 353.551 66.0891C353.639 67.2858 356.476 67.678 361.961 67.2731C364.155 67.1111 366.833 66.7128 369.987 65.9786C373.142 65.2443 376.281 64.3106 379.414 63.2772C382.646 62.2364 385.664 61.0109 388.475 59.7003C391.286 58.3898 393.591 57.0163 395.383 55.4802C395.959 55.1369 396.465 55.1998 396.901 55.669C397.344 56.2379 397.381 56.7366 396.827 57.3791C395.028 58.8155 392.63 60.296 389.62 61.6213C386.616 63.0463 383.499 64.2792 380.174 65.427C376.85 66.5749 373.61 67.516 370.356 68.2576C367.102 68.9992 364.324 69.4049 362.03 69.5742C358.839 69.8098 356.224 69.7021 354.285 69.2436C352.346 68.7851 351.268 67.7617 351.157 66.2658C351.113 65.6674 351.375 65.1467 351.845 64.711C352.413 64.2679 352.883 63.8321 353.466 63.5885C351.428 63.1374 350.342 62.0143 350.195 60.0197C350.128 59.1221 350.468 58.2949 351.2 57.3384C351.939 56.4817 352.778 55.6176 353.93 54.9309C355.083 54.2441 356.342 53.6498 357.716 53.2475C359.091 52.8452 360.472 52.5427 361.769 52.447Z" fill="#BADFD6"/>
</svg>
