<svg width="13" height="12" viewBox="0 0 13 12" fill="none" xmlns="http://www.w3.org/2000/svg">
<path fill-rule="evenodd" clip-rule="evenodd" d="M11.1826 5.32824L6.5 10.2748L1.8174 5.32824C0.921345 4.39695 0.921345 2.85496 1.8174 1.92366C2.25097 1.46565 2.81462 1.22137 3.43608 1.22137C4.04308 1.22137 4.62118 1.46565 5.05475 1.92366L6.5 3.46565L7.9597 1.92366C8.39327 1.46565 8.95692 1.22137 9.57838 1.22137C10.1854 1.22137 10.7635 1.46565 11.1971 1.92366C12.0642 2.87023 12.0642 4.39695 11.1826 5.32824ZM11.9919 1.0687C11.3271 0.366412 10.4455 0 9.56392 0C8.68232 0 7.80072 0.351145 7.13591 1.0687L6.5 1.74046L5.86409 1.0687C5.19928 0.366412 4.31768 0 3.43608 0C2.55447 0 1.67287 0.351145 1.00806 1.0687C-0.33602 2.48855 -0.33602 4.77863 1.00806 6.19847L6.5 12L11.9919 6.19847C13.336 4.77863 13.336 2.47328 11.9919 1.0687Z" fill="#F3C9BB"/>
</svg>
