<svg width="377" height="99" viewBox="0 0 377 99" fill="none" xmlns="http://www.w3.org/2000/svg">
<path d="M245.92 45.6728C250.189 45.5943 247.518 34.2213 244.951 38.002C242.383 41.7827 242.69 45.7672 245.92 45.6728Z" fill="#333333"/>
<path d="M374.984 39.4488C374.36 38.4803 372.679 39.7013 371.326 40.3678C366.455 43.2342 361.556 45.8444 356.273 48.4967C350.99 51.1489 345.979 52.7345 341.368 53.2393C338.807 53.5198 335.805 53.33 332.504 52.784C329.204 52.238 326.19 50.7534 323.22 48.4862C322.367 47.8019 321.557 47.5018 320.888 47.3157C320.106 47.2718 319.237 47.6261 318.197 48.777C316.8 50.2261 315.517 51.533 314.093 52.7259C312.668 53.9189 311.485 54.9557 310.275 55.7363C309.192 56.5029 308.209 56.9993 307.455 57.2115C306.7 57.4238 306.274 57.0816 306.19 56.3131C306.05 55.0323 306.408 53.5673 307.278 52.0462C308.149 50.5252 309.289 49.1041 310.544 47.541C311.941 46.0919 313.351 44.7709 314.932 43.8201C316.499 42.7413 317.994 42.1888 319.531 42.0205C320.812 41.8803 321.764 42.2944 322.247 43.1489C322.389 43.263 322.417 43.5191 322.431 43.6472C322.913 44.5017 323.68 45.5843 324.933 45.1879C326.442 44.7635 326.247 41.8036 324.444 39.5384C323.279 38.3698 321.544 37.9116 319.11 38.1781C317.189 38.3884 315.196 39.1251 313.145 40.5162C311.094 41.9073 309.184 43.4125 307.446 45.2879C307.089 45.5861 306.875 45.9984 306.519 46.2966C306.277 46.4528 306.149 46.4668 305.921 46.751C302.559 49.1929 298.927 51.5348 294.768 53.8047C290.738 56.0606 286.552 58.0744 282.337 59.8319C278.123 61.5895 273.88 63.0909 269.737 64.3222C265.595 65.5534 261.667 66.3724 258.08 66.765C254.494 67.1576 251.678 66.2994 249.647 64.3184C247.487 62.3513 246.894 59.3054 247.512 55.4789C247.542 54.5683 246.96 53.984 245.765 53.726C244.84 53.568 244.342 53.7522 243.858 54.0644C243.602 54.0925 243.231 54.2626 242.875 54.5608C235.511 59.5148 229.544 63.0197 224.987 65.2036C220.416 67.2594 215.647 68.6888 210.524 69.2498C206.297 69.7125 202.885 68.1419 200.429 64.6519C197.973 61.1619 196.388 56.1509 195.672 49.6188C194.859 42.1901 195.144 32.9562 196.642 21.7748C196.9 20.58 196.432 19.8536 195.095 19.4815C193.886 19.0954 193.031 19.5778 192.773 20.7726C189.971 29.5045 186.685 37.3819 183.018 44.1346C179.35 50.8874 175.456 56.7575 171.422 61.3469C167.402 66.0644 163.512 69.6011 159.652 72.2272C155.792 74.8533 152.189 76.2846 148.859 76.6492C148.091 76.7333 147.665 76.3911 147.58 75.6226C147.44 74.3418 147.926 72.8628 149.153 71.0435C149.823 70.0628 150.75 69.0541 151.818 68.1594L151.69 68.1734C151.918 67.8892 152.289 67.7191 152.517 67.4349C153.001 67.1226 153.471 66.6823 153.955 66.37C155.166 65.5894 156.377 64.8088 157.602 64.1562C163.597 60.9075 169.889 59.1817 169.721 57.6447C169.665 57.1324 169.252 56.9183 168.712 56.7182C167.915 56.5462 166.877 56.5303 165.994 56.7566C163.717 57.2651 161.453 57.9018 159.246 59.0508C155.814 60.8523 153.977 61.8311 151.698 63.5064L151.57 63.5205C147.267 66.8431 142.41 69.8375 137.127 72.4898C131.844 75.142 126.833 76.7276 122.222 77.2324C119.661 77.5129 116.659 77.3231 113.359 76.7771C110.058 76.2311 107.044 74.7465 104.074 72.4793C103.222 71.795 102.411 71.4949 101.743 71.3088C100.96 71.2649 100.092 71.6192 99.051 72.7701C97.6543 74.2192 96.3716 75.5261 94.9468 76.7191C93.522 77.912 92.3394 78.9488 91.1287 79.7294C90.0461 80.496 89.0635 80.9924 88.309 81.2046C87.5546 81.4169 87.1283 81.0747 87.0441 80.3062C86.9039 79.0254 87.262 77.5604 88.1323 76.0394C89.0027 74.5183 90.1433 73.0973 91.398 71.5341C92.7947 70.085 94.2055 68.764 95.7864 67.8133C97.3532 66.7344 98.8481 66.1819 100.385 66.0136C101.666 65.8734 102.619 66.2875 103.101 67.142C103.583 67.9965 103.81 68.8791 103.638 69.6756C103.764 70.8283 104.332 71.2846 105.499 71.2864C106.666 71.2883 107.378 70.6918 107.536 69.7672C107.496 68.2162 107.057 66.5792 105.937 64.6281C104.816 62.677 102.91 61.8487 99.8363 62.1852C97.9151 62.3956 95.9219 63.1322 93.8708 64.5234C91.8196 65.9145 89.9106 67.4196 88.1716 69.295C87.7014 69.7354 87.3592 70.1617 87.017 70.588C86.889 70.602 86.7609 70.616 86.6468 70.7581C76.7771 76.5049 68.6744 80.6324 62.4667 83.1267C56.259 85.6209 51.2339 87.0784 47.5196 87.4851C43.5491 87.9198 40.7612 87.3177 39.17 85.8069C37.4508 84.3101 36.2438 82.7573 35.293 81.1764C34.6405 79.9517 33.7178 78.6269 32.795 77.3022C31.7442 75.9914 30.1371 75.5193 27.7036 75.7857C25.5262 76.0241 22.6926 77.3713 19.4587 79.7992C16.2249 82.2271 12.8911 84.9252 9.47124 88.0216L10.1509 81.2071C10.1809 80.2965 9.59842 79.7122 8.40362 79.4542C7.20883 79.1961 6.36836 79.8066 6.12435 81.1295L5.87561 94.2479C5.84569 95.1585 6.15794 95.6428 7.16856 95.4025C8.0511 95.1763 8.66346 94.85 9.01966 94.5518C14.5486 89.4099 18.5528 85.7311 21.4164 83.4733C24.1519 81.2296 26.6013 79.9245 28.6506 79.7001C30.1876 79.5319 31.4805 80.6865 32.6716 83.278C33.3101 84.3746 34.0627 85.3292 34.7012 86.4258C35.3398 87.5224 36.3485 88.4489 37.6134 89.3474C38.8783 90.2458 40.3713 90.86 42.1065 91.3181C43.8276 91.6482 46.0471 91.794 48.6087 91.5136C52.5792 91.0788 57.7323 89.6073 64.0541 86.971C69.3933 84.831 76.0292 81.5122 84.0899 77.0004C83.5897 78.3513 83.4738 79.6602 83.6 80.8129C84.0066 84.5272 86.0961 85.8539 89.8824 84.9209C93.6688 83.9878 97.615 80.9635 101.735 75.9758C104.961 78.2149 108.374 79.7856 111.972 80.6878C115.557 81.4619 119.213 81.7096 122.927 81.303C127.922 80.7561 133.318 79.1284 139.099 76.292C140.822 75.4553 142.531 74.4905 144.112 73.5397C143.826 74.4783 143.796 75.3889 143.88 76.1574C144.048 77.6944 144.687 78.791 145.682 79.5894C146.676 80.3878 148.013 80.7599 149.422 80.6056C155.57 79.9325 162.534 76.0593 170.172 68.8719C177.81 61.6844 184.928 50.9248 191.254 36.4928C191.275 41.416 191.381 45.9409 191.83 50.0395C192.671 57.7243 194.611 63.6039 197.792 67.7922C200.844 71.9946 205.309 73.7092 211.073 73.0781C216.324 72.5032 221.349 71.0457 226.162 68.8338C230.605 66.792 236.202 63.4573 243.096 58.9436C243.09 62.4439 244.181 65.3056 246.341 67.2726C249.239 70.0661 253.378 71.1683 258.629 70.5934C262.343 70.1867 266.4 69.3538 270.799 68.0945C275.197 66.8352 279.568 65.3198 284.039 63.5341C288.509 61.7485 292.81 59.5926 297.096 57.3087C299.061 56.3159 300.884 55.209 302.579 54.1161C302.421 55.0407 302.263 55.9653 302.348 56.7338C302.754 60.4481 304.844 61.7747 308.63 60.8417C312.416 59.9087 316.363 56.8844 320.483 51.8967C323.709 54.1358 327.121 55.7064 330.72 56.6086C334.304 57.3827 337.96 57.6305 341.675 57.2238C346.67 56.6769 352.065 55.0493 357.847 52.2129C363.628 49.3764 368.429 45.8697 372.973 42.3909C373.786 41.5243 375.481 40.4314 374.984 39.4488Z" fill="#333333"/>
<path d="M168.982 56.8183C169.538 55.9797 170.365 55.2411 168.288 55.2093C166.196 55.0495 164.731 54.6914 164.673 55.3458C164.601 55.8722 164.685 56.6406 164.685 56.6406L164.884 57.267C165.254 57.0969 165.766 57.0408 166.406 56.9707C167.147 56.6304 168.186 56.6463 168.982 56.8183Z" fill="white"/>
</svg>
